<?xml version="1.0" encoding="UTF-8"?>
<svg id="Layer_1" data-name="Layer 1" xmlns="http://www.w3.org/2000/svg" viewBox="0 0 253.94 161.54">
  <defs>
    <style>
      .cls-1, .cls-2 {
        stroke-width: 0px;
      }

      .cls-2 {
        fill: #fff;
      }
    </style>
  </defs>
  <path class="cls-2" d="M128.95,47.02l-.11.12c.6-.85,1.19-1.71,1.79-2.56.92-.8,2.55-.99,2.4-2.73,1.22.49,1.73-.31,2.02-1.44-.65.51-1.29,1.01-1.94,1.52-1.89-.55-2.73.74-3.57,2.04l-2.4,3.04c-1.66,1.9-3.32,3.81-4.99,5.71v-3.1c-.69,1.27-1.16,2.12-1.64,2.98-.53.89-.95,1.86-1.6,2.64-1.11,1.31-2.17,3.12-3.62,3.61-2.71.92-5.73.86-8.54,1.54-4.09,1-7.99,2.48-9.88,6.77-1.21,2.76-2.41,5.53-3.57,8.31-.63,1.52-1.16,3.08-1.84,4.89-1.12-.23-2.11-.42-3.1-.64-5.17-1.14-10.36-2.19-15.5-3.46-2.24-.56-4.82-.32-6.58-2.33-.16-.18-.57-.32-.79-.25-2.03.72-3.61-.53-5.34-1.15-.85-.31-1.76-.73-2.62-.71-3.09.08-5.97-.68-8.81-1.75-1.75-.66-3.53-1.23-5.32-1.77-.39-.12-.87.06-1.31.1-.03.18-.06.36-.08.55,3.68,1.23,7.35,2.46,11.1,3.72-.53.87-1.43,1.43-2.09.89-2.22-1.82-4.94-1.39-7.42-1.99-3.49-.84-6.98-1.03-10.5-.11-.92.24-1.92.18-3.1.28.66-1.55,1.07-2.86,1.75-4.01.73-1.22,1.52-2.55,2.62-3.38,3.32-2.5,6.75-4.85,10.24-7.12,1.47-.95,3.13-1.65,4.77-2.28,2.21-.86,4.48-1.55,6.73-2.31-.54-.52-1.02-.69-1.48-.65-1.66.16-3.02,1.27-4.5,1.71-4.21,1.26-7.49,4.06-11.17,6.16-2.06,1.17-3.89,2.76-5.77,4.22-.64.5-1.29,1.12-1.66,1.83-1.01,1.93-1.91,3.92-2.75,5.94-.2.47-.17,1.3.12,1.64.52.62,1.17.4,1.87-.12.8-.59,1.8-1.03,2.78-1.22,5.14-1.03,10.1.23,15.08,1.28,1.72.36,3.46.62,5.19.93-.68.51-1.54,1.15-2.52,1.88.73.22,1.27.38,2,.6,0,1.84-.12,3.62,0,5.37.14,1.9-.46,3.22-1.89,3.83-3.53-.92-6.72-1.81-9.94-2.59-3.43-.83-6.89-1.52-10.31-2.37-1.12-.28-2.03-.27-2.73.72.78.09,1.56.1,2.3.27,3.53.83,7.03,1.83,10.59,2.52,2.98.58,5.85,1.3,8.67,2.5,2.92,1.25,5.98,2.21,9.05,3.02,3.39.89,6.92,1.26,10.3,2.2,5.2,1.45,10.32,3.2,15.48,4.81,1.06.33,2.14.6,2.74.77,1.53-1.21,2.63-2.08,3.88-3.07-1.45-2.34-1.52-5.29-.68-7.92,2.06-6.52,3.72-13.22,7.24-19.22,2.04-3.49,5.06-5.39,8.95-6.08.92-.16,1.87-.2,2.78-.4,7.93-1.75,15.93-2.83,24.37-2.24.03.79.07,1.64.1,2.5h-1.94c-.59,3.08-3.04,4.68-5.19,6.42-3.7,3.01-7.61,5.78-11.3,8.81-2.16,1.77-3.85,4.16-6.14,5.68-2.3,1.53-5.09,2.33-7.66,3.44-.1.04-.2.06-.29.12-2.7,1.74-5.04,3.77-5.42,7.21-.12,1.09-.71,1.63-1.54,2.16-2.02,1.27-4.1,2.49-5.98,3.95-2.38,1.84-4.77,3.73-6.82,5.91-1.53,1.63-2.56,3.75-3.73,5.7-.19.32.03.9.06,1.24,3.02.31,5.15-1.1,7.31-2.56,1.78-1.2,3.66-2.26,5.51-3.39,2.23,1.15,2.42,3.61,3.87,4.99-.41.99-.72,1.72-1.17,2.82,1-.73,1.64-1.2,1.82-1.33,2.28.53,4.13,1.44,5.83,1.22,2.4-.3,4.01.53,5.58,2.01.53.5,1.05,1.01,1.62,1.47,2.8,2.28,5.68,3.01,8.75.46.13-.11.39-.05.6-.07,4.05,1.99,8.11,3.37,12.27.28.17-.12.35-.23.55-.3,2.4-.95,4.71-1.64,7.21.05,2.67,1.8,5.52,3.34,8.35,4.88,2.83,1.53,5.64,3.22,8.65,4.29,5.19,1.84,10.52,3.23,16.02,3.98,5.3.73,10.37.4,15.13-2.19,2.48-1.35,4.72-2.76,7.93-2.4,2.67.3,5.5-.77,8.25-1.23,3.67-.61,7.33-1.21,10.99-1.81,2.23,3.84,2.43,8.72,7.17,11.2.23-1.06.68-1.96.55-2.77-.66-4.2-1.19-8.45-2.28-12.55-1.49-5.62-3.34-11.14-5.21-16.65-1.6-4.72-3.33-9.4-5.23-14-1.19-2.87-2.8-5.56-4.27-8.41.82-.26,2.16-.32,2.35-.81.79-2.1,2.71-2.45,4.36-3.12,3.26-1.33,6.59-2.49,9.92-3.66.97-.34,2.03-.45,3.04-.67,1.21-.25,2.47-.39,3.64-.78,2.34-.78,4.64-1.69,7.22-2.64,2.35,2.24,4.69,4.47,7.02,6.69.14-.14.28-.28.42-.42-2.37-2.54-4.73-5.07-7.08-7.59-.74.06-1.41.11-1.66.13-1.56-4.34-2.88-8.5-4.56-12.5-1.52-3.64-3.73-7.01-5.1-10.69-1.87-5.03-3.79-10.02-6.24-14.74,1.91-2.11,5.29-3.68,8.83-4.44,3.22-.69,6.26-1.9,9-3.79,3.84.14,6.9-1.86,10.03-3.65,2.9-.3,5.8-.6,8.7-.91.03,0,.06-.19.05-.29,0-.09-.06-.18-.22-.56-2.77.63-5.72.66-8.47,1.82-3.35,1.22-6.69,2.43-10.04,3.65-.71.16-1.43.26-2.12.48-2.98.92-5.97,1.79-8.9,2.82-2.7.95-5.69,1.42-7.54,4.03-.26.37-.83.62-1.3.74-1.58.41-3.19.74-5.16,1.19.01,0-.43-.09-.72-.35-2.15-1.97-4.82-2.77-7.56-3.45-1.71-.43-3.37-1.05-5.04-1.63-1.64-.57-1.97-.43-3.21,1.6.42.11.82.33,1.17.27,3.67-.62,6.95.87,10.28,1.94,1.34.43,2.6,1.29,3.71,2.17,2.67,2.11,5.23,4.37,7.86,6.54.16.13.53.02.66.02-1.8-2.06-3.62-4.15-5.42-6.21,2.36-1.71,4.96-1.57,5.88.6,1.66,3.92,3.16,7.9,4.74,11.86.54,1.35,1.07,2.71,1.67,4.03,1.85,4.07,3.87,8.06,5.57,12.19,1.09,2.65,1.96,5.44,1.68,8.52-2.03.76-3.92,1.86-5.92,2.15-4.69.68-8.98,2.58-13.44,3.94-2.45.74-4.68,2.19-7.09,3.09-2.99,1.1-5.61,2.6-7.19,5.42-5.75.8-11.33.26-16.88-.64-6.61-1.07-13.01-2.74-18.54-6.84-3.34-2.48-6.88-4.68-10.23-7.13-1.97-1.44-3.76-3.13-5.65-4.73,2-1.87,3.81-3.58,5.63-5.27.75-.69,1.43-.73,1.93.29-.31.46-.59.87-.97,1.42.94-.15,1.74-.28,2.54-.41,1.82,2.37,3.64,4.73,5.43,7.07-.3.51-.56.95-.82,1.4.11.2.21.4.32.6,1.12-1.18,2.25-1.4,3.7-.99,1.3.37,2.83-.04,3.32,1.83,2.06-2.32,2.09-2.37,4.53-1.2,1.74.83,3.41,1.82,5.12,2.75.47-.79,1.06-1.78,1.66-2.76-.11-.12-.22-.24-.32-.36-.71.52-1.42,1.03-2.12,1.54-1.12-.68-2.2-1.34-3.61-2.2,5.19,0,5.94-.74,4.81-4.27-.32,1.06-.67,2.19-.98,3.23-2.26,0-4.15-.02-6.38-.03-.41-1.06-.94-2.43-1.47-3.79-.15.05-.3.1-.45.15.18,1.07.35,2.14.54,3.3-.48.2-.87.51-1.22.48-1.82-.18-3.64-.39-5.43-.73-.57-.11-1.16-.53-1.57-.96-.65-.67-1.09-1.53-1.73-2.2-1.02-1.06-1.56-2.74-3.42-2.77.42-1.33,1.41-1.21,2.52-1.12,5.13.42,9.52-1.36,13.32-4.72,1.21-1.06,2.49-2.08,2.75-3.94-5.06,6.05-11.26,8.82-19.3,7.11.56-.77.97-1.46,1.5-2.05.41-.46.96-.78,1.42-1.19,2.7-2.43,3.76-4.2,5.04-8.27.08-.26.38-.49.62-.67,1.34-.98,1.61-2.47,1.47-3.9-.16-1.55.46-2.36,1.74-2.88.86-.35,1.79-.56,2.62-.97,3.15-1.58,6.95-1.3,9.88-3.52.41-.31,1.16-.19,1.75-.28.36-.05.78-.02,1.07-.2,1.75-1.05,3.48-2.14,5.23-3.23-.05-1.63.03-1.9,1.3-3.05,1.92-1.74,3.99-3.34,5.8-5.19,3.54-3.64,7-7.36,10.35-11.18,1.21-1.37,2.09-3.07,2.92-4.72.57-1.13-.19-2.19-1.44-2.02-.96.13-1.98.62-2.73,1.24-4.81,3.97-9.64,7.93-14.28,12.09-1.55,1.39-2.84,1.63-4.75,1.05-2.97-.9-6.1-1.27-9.04-2.22-3.33-1.08-7.08-.5-10.11-2.7-.26-.19-.74-.1-1.11-.08-3.86.16-7.56-.92-11.32-1.56-.15-.03-.27-.27-.53-.54.61-.76,1.23-1.55,1.86-2.33-.11-.09-.23-.17-.34-.26-.99.89-1.98,1.78-3.02,2.72-1.52-.45-2.98-.88-4.54-1.34.21-.54.36-.91.49-1.25-.62.22-1.36.77-2,.66-1.73-.3-3.5-.67-5.09-1.38-3.15-1.42-6.52-1.96-9.79-2.89-.17-.5-.34-1-.68-1.98-2.29,8.17-2.89,16.07-4.33,23.81h0c-.12,2.35-1.21,4.3-2.5,5.78.37,1.2.65,2.12.93,3.04-.36.17-.79.57-1.07.48-1.48-.43-2.92-.99-4.68-1.61.09-.96.11-1.96.27-2.95.65-3.89,1.16-7.82,2.06-11.66,1.16-5.01.78-10.37,3.42-15.06.53-.95-.24-2.13-1.22-1.86-1.18.32-1.76.01-2.71-.68-.66-.49-2.09.09-3.18.16-.19.01-.42-.09-.59-.19-2.02-1.28-4.52-1.01-6.51-2.34-1.29,2.48-2.47,4.65-2.45,7.36.01,1.59-1.23,3.26-1,4.76.38,2.55-.61,4.65-1.26,6.9-.23.79-.27,1.62-.4,2.44l.09-.11c-.96,2.74-1.37,5.55-1.36,8.37.73.32,1.31.57,2.09.92-1.52,1.77-4.01-.45-5.47,1.97l6.03.03c.1.77.16,1.26.22,1.82.43.06.98.31,1.21.13,1.69-1.34,3.3-.53,4.98,0,1.93.59,3.89,1.26,5.88,1.42,2.04.16,3.82.38,5.23,2.09,1.04,1.25,2.47,1.84,4.23,1.1-2.29-.15-3.9-.97-3.88-3.52.24-.38.58-.73.71-1.15.47-1.53.49-3.39,1.4-4.55,1.3-1.65,3.24-2.78,4.9-4.14.33-.03.65-.06.98-.09.78-1.05,1.63-2.05,2.32-3.16.45-.72.69-1.58,1.02-2.38.11.03.22.06.34.08,1.22-1.08,2.44-2.15,3.67-3.23,1.3-1.33,2.75-2.55,3.86-4.03,1.53-2.04,3.34-2.17,5.46-1.3,2.7,1.1,5.53,1.54,8.42,1.83,1.16.12,2.27.8,3.4,1.23l.09-.12c-1.79-.08-3.03.92-4.22,2.1-1.36,1.34-2.8,2.59-4.21,3.87-.55.8-1.11,1.59-1.81,2.6,1.13-.72,1.95-1.34,1.81-2.61.84-.43,1.72-.81,2.53-1.3.84-.5,1.61-1.11,2.41-1.66-.12.5-.25,1-.37,1.5l-1.22,1.11c-.63.85-1.27,1.7-1.9,2.55-2.92,3.7-5.85,7.4-8.77,11.1-1.43,1.6-2.94,3.15-3.87,5.69,1.03-.62,1.61-.97,2.2-1.32-1.68,4.02-1.07,7.76,1.69,11.3-1.15,1.09-2.18,2.06-3.22,3.04-.41.44-.82.88-1.23,1.32-1.03.69-2.04,1.39-3.08,2.05-.52.33-1.53.89-1.59.81-1.12-1.58-1.86-.01-2.75.25-.41.12-.89.02-1.66.01,1.05-1.49,1.9-2.71,2.76-3.92-2.63,2.32-2.78,2.42-4.91,3,.33-.45.56-.77.79-1.09.34-.69.68-1.38,1.02-2.07l-.47-.16c-.19.75-.37,1.49-.56,2.24-.92.16-1.84.31-2.75.47-.11-.33-.21-.62-.35-1.04-1.39,1.15-1.58,3.32-3.92,3.06v-1.15c1.64-2.22,3.27-4.45,4.9-6.67.66-.9,1.32-1.79,1.97-2.69Z"/>
  <path class="cls-2" d="M138.93,36.49c.83-1.02,1.66-2.03,2.49-3.05-1.59.52-2.26,1.65-2.43,3.1q-1.67,1.77-1.92,3.87c1.05-1.37,2.14-2.3,1.86-3.92Z"/>
  <path class="cls-2" d="M21.31,152.95c.29-.71,1.22-1.21.77-2.61-.54.89-.89,1.46-1.23,2.02-.83.67-1.66,1.34-2.48,2.01-1.48.35-1.96,1.52-2.73,3.24,1.63-.83,2.62-1.42,2.67-2.87,1.61.43,2.59-.2,3.01-1.79Z"/>
  <path class="cls-2" d="M126.91,43.19c-.9,1.15-1.81,2.3-2.71,3.45.18.13.36.27.54.4.82-1.2,1.64-2.39,2.45-3.59.74-.95,1.61-1.83,2.16-2.88.25-.47-.14-1.28-.23-1.93,1.93.32,2.13-1.49,3.41-2.55-.82.13-1.25.2-1.78.29v-1.62c-.15-.03-.3-.06-.45-.09-.39,1.32-.77,2.64-1.16,3.96-.74,1.52-1.48,3.04-2.23,4.56Z"/>
  <path class="cls-2" d="M126.81,34.17c-.53.9-1.05,1.8-1.77,3.04,2.8-.94,2.88-1.11,1.69-2.98.23-.69.46-1.38.89-2.67q-1.36,1.54-.81,2.62Z"/>
  <path class="cls-2" d="M112.31,147.88c1.04-.38,1.97-.89,2.75-2.39-1.56.54-2.33,1.24-2.93,2.19-1.76,1.2-3.56,2.37-4.46,4.37.16.15.33.31.49.46,1.38-1.54,2.77-3.09,4.15-4.63Z"/>
  <path class="cls-2" d="M152.49,131.05c.16.43.22,1.12.5,1.23.39.16.96-.12,1.45-.21-.79-1.89,1.78-1.45,1.92-3.1-1.43.79-2.7,1.48-3.96,2.18-1.1-1.62,1.16-1.86,1.27-3.01-2.41.17-2.43.18-2.96,2.62.6.1,1.2.2,1.79.29Z"/>
  <path class="cls-2" d="M220.7,147.21c-.26,1.23-.52,2.45-.78,3.68-1.87,1.97-3.37,6.65-3.07,9.6,1-3.23,1.99-6.45,2.99-9.68.82-1.08,1.48-2.19.85-3.61.38-.08.93-.03,1.11-.27,1.4-1.78,2.75-3.6,4.07-5.44.15-.21-.03-.64-.12-1.71-1.95,2.87-3.5,5.15-5.06,7.43Z"/>
  <path class="cls-2" d="M3.7,152.28c.5-.84,1-1.67,1.5-2.51.17.26.52.56.48.77-.53,2.25-.19,4.77-1.97,6.66-.2.21-.1.69-.15,1.11.4-.06.71-.02.77-.13,1.04-1.87,2.47-3.65,2.96-5.65.78-3.2.52-3.26,1.5-4.65.11-.16.13-.39.2-.58.4-.75.81-1.5,1.21-2.25.68-.75,1.44-1.44,2.03-2.26,4.26-5.86,8.78-11.48,14.35-16.17.33-.28.96-.19,2.12-.38-1.8,2.44-3.2,4.32-4.59,6.21-.72.47-1.51.9-1.24,2.59.78-.96,1.24-1.54,1.71-2.11,1.22-.89,2.4-1.84,3.67-2.66,1.2-.78,1.48-2.63,3.74-3.16-1.25,1.75-2.12,2.97-3.31,4.64,2.28-1.04,3.45-2.39,4.2-4.31,1.74.81,3.79-.01,5.64,1.73-2.64.36-4.06,1.76-5.36,3.71,2.56.02,4.33-1.03,5.93-2.47.31-.28.55-.63.88-.88.73-.57,1.48-.62,2.36.18-.48.81-.96,1.61-1.44,2.41.12.08.24.17.35.25,1.1-.92,2.2-1.84,3.34-2.8,1.9.48,3.75.95,5.76,1.45-.91,1.52-1.62,2.69-2.32,3.87.21.16.41.33.62.49.65-.81,1.24-1.67,1.96-2.42,1.9-1.97,2.38-1.99,5.04-.34-.56.89-1.13,1.77-1.69,2.65,1.44-.61,2.43-1.62,3.52-2.5.24-.2.85.05,1.55.13-.58,1.01-1,1.73-1.61,2.8q4.66-2.76,6.38-1.56c-.74.99-1.49,1.99-2.23,2.98,4.58-3.65,5.91-3.86,10.12-1.31-.46.67-.89,1.34-1.36,1.99-.49.68-1.01,1.34-1.51,2.01,1.52-.75,2.62-1.81,3.66-2.93,1.26-1.35,1.24-1.37,3.39-.21-.45.64-.89,1.28-1.59,2.29,1.98-.52,2.83-2.56,4.77-1.97,1.54.46,3.13.78,4.93,1.22-.81,1.15-1.43,2.03-2.05,2.91,3.7-2.84,5.99-3.11,10.16-.98-.93,1.24-1.85,2.46-2.77,3.68.17.14.33.28.5.42,1.13-1.21,2.12-2.6,3.43-3.57,1.52-1.14,3.03.14,4.58.31-.16.66-.26,1.05-.48,1.96,2.04-2.23,3.86-1.56,5.84-.48-.8,1.23-1.51,2.31-2.21,3.4-.86.85-1.73,1.69-2.59,2.54.16.13.33.26.49.4.68-1,1.36-1.99,2.05-2.99,1.3-1.01,2.59-2.02,4.13-3.21,6,1.22,12.21,2.54,18.61,4.2-1.95,1.73-3.55,3.14-5.16,4.56-.02.16-.03.33-.05.49-.16.61-.32,1.22-.49,1.83.55-.09,1.12-.13,1.65-.29.26-.08.46-.37.68-.56,1.25-.41,2.51-.83,3.76-1.24-.23.74-.46,1.49-.81,2.62.77-.2,1.17-.31,1.57-.41-1.02-1.11.16-1.63.7-2.12,1.22-1.09,2.59-2.03,4.06-3.15,1.35.65,2.72,1.3,4.09,1.96-2.36-.35-2.37,1.87-3.35,3.04-.37.26-.74.52-1.37.97,1.31.31,2.15.5,3.11.73-.13.91-.22,1.63-.38,2.75,1.45-1.55,2.59-2.76,3.72-3.97-1.26-.32-2.25-.07-3.23-.05-.63.01-1.27-.31-1.9-.48,1.62-.47,2.87-1.33,3.3-3.08,1.61.33,3.24.58,4.83,1,3.4.9,6.63,2.42,10.3,2.21,1.52-.09,3.1.17,4.59.53,3.73.88,7.42,1.92,11.14,2.84.59.15,1.24.03,1.9.03-.06-.38-.05-.55-.09-.56-5.39-1.52-10.77-3.03-16.17-4.52-.38-.11-.84-.07-1.24.02-2.99.63-5.76-.3-8.54-1.18-4.54-1.44-9.08-2.91-13.66-4.24-2.78-.81-5.62-1.39-8.44-2.05-6.66-1.56-13.31-3.19-20-4.64-6.09-1.32-12.3-2.15-18.32-3.74-6.1-1.61-12.42-2.27-18.39-4.47-1.13-.41-2.66-.02-3.81-.92-1.58,1.05-2.98-.11-4.44-.39-4.78-.91-9.61-1.67-14.31-2.88-2.72-.7-5.96-.03-8.09-2.61-.07-.09-.38-.05-.54.02-1.34.59-2.39.35-3.2-.95-.14-.23-.67-.25-1.04-.31-2.02-.37-4.03-.76-6.06-1.05-1.14-.16-1.47-1.02-1.91-1.83l-.04.09c.41-.1.83-.2,1.24-.3-.26-.37-.45-1.01-.78-1.08-2.32-.54-4.65-1.07-7-1.4-2.75-.39-5.53-.57-8.29-.84-.18-.02-.37.08-.55.12-.15.89-.17,1.96-1.45,1.16-1.29-3.48,1.24-6.3,1.26-9.49-1.3,3.55-3.77,6.94-1.56,11.11,3.8-.63,7.44-.64,10.87,1.62-.25.93-.48,1.78-.75,2.8.9.16,1.63.29,2.13.38,1.04,3.72,2,7.16,3.12,11.19-1.6,1.91-3.42,4.46-5.62,6.63-2.17,2.14-3.93,4.5-5.4,7.13-.68.81-1.37,1.62-2.05,2.43-1.41,1.45-2.56,3.03-2.92,5.09,1.76-1.27,3.21-2.73,3.44-5.03Z"/>
  <path class="cls-2" d="M183.24,61.02s.1-.11.1-.11c-.43.17-.86.34-1.53.61.83.99,1.47,1.76,2.17,2.58-.58.55-1.04.98-1.49,1.41.08.15.16.29.24.44,1.01-.34,2.02-.68,3.23-1.08-.11-1.17-.04-2.23-.36-3.15-.38-1.1-1.21-1.7-2.37-.7Z"/>
  <path class="cls-2" d="M20,88.04c.87-.24,1.89-.28,2.58-.78,1.49-1.08,2.84-2.36,4.16-3.65.32-.31.31-.97.51-1.68-2.87,1.11-3.97,1.98-7.49,5.84-4.05,3.63-7.39,7.89-11.41,12.19.8-.11,1.05-.07,1.15-.17,3.51-3.91,7-7.83,10.5-11.75Z"/>
  <path class="cls-2" d="M41.96,121.52c.41.42.76,1.11,1.24,1.22,2.83.6,5.69,1.1,8.55,1.57,4.91.82,9.93,1.22,14.69,2.54,2.97.82,5.87,1.09,8.85,1.33.67.43,1.31,1.14,2.02,1.22,1.65.19,3.34.07,5.01.08,0-.05.01-.09.02-.14-2.38-.36-4.75-.73-7.13-1.09-.65-.21-1.29-.48-1.95-.61-4.11-.8-8.22-1.57-12.33-2.34-2.83-.53-5.65-1.34-8.5-1.49-3.67-.19-7.09-1.18-10.53-2.24-1.89-.62-3.77-1.24-5.66-1.86,1.64,1.54,3.61,1.93,5.73,1.82Z"/>
  <path class="cls-2" d="M144.19,124.19c-3.07,2.19-3.32,6.19-6.35,8.09-.21.13-.42.67-.33.8.9,1.28-.22,1.84-.85,2.59-1.55,1.86-3.09,3.72-4.73,5.69,2.25.33,3.8-1.54,5.98-1.76.28.49.46,1.19.91,1.48.38.25,1.06.02,1.61,0-.48-1.8,1.82-1.86,2.13-3.19-1.01-.74-1.78,1.09-2.89,0-.5-.49-1.7-.26-3.11-.41.94-.95,1.6-2.14,2.2-2.11,2.19.09,3.89-1.74,6.41-.98,1.94.59,3.75,1.45,5.48,2.3,1.66.81,2.77.55,4.67-.35-1.13-.11-2.03.02-2.17-.25-1.06-2.01-2.74-1.97-4.59-1.41-.1-.5-.06-.96-.23-1.06-1.18-.73-3.11-1.15-3.46-2.13-.66-1.89-2.23-1.45-3.73-2.19.95-1.1,1.77-2.06,2.45-2.85,1.1.87,1.97,1.53,2.8,2.24.42.35.75,1.07,1.17,1.11,1.18.1.03-.92.45-1.23.88-.64,1.78-1.25,2.68-1.87-.08-.15-.16-.3-.23-.45-1.06.32-2.12.63-3.58,1.07.72-.93,1.13-1.45,1.58-2.04-1.65-.42-3.09-.79-4.28-1.09Z"/>
  <path class="cls-2" d="M170.08,161.54c1.56-3.66,4.65-5.58,7.79-7.5,3.28-2,6.51-4.09,9.74-6.17,1.58-1.01,3.23-2,3.85-3.92,1.07-3.32,4.01-4.57,6.67-6.12.36-.21.98-.06,1.46,0,2.26.31,4.29-.26,6.28-1.32.87-.46,1.94-.88,2.88-.8,3.71.3,7.36,1.1,11.13.7.96-.1,2,.46,2.98.78.78.25,1.53.61,2.31.89.1.04.28-.14.43-.22-.34-.39-.66-.75-1.06-1.2.47-.36.78-.63,1.11-.85,2.85-1.85,6.07-2.67,9.33-3.38,2.16-.47,4.27-1.08,6.13-2.31-2.12.51-4.2,1.12-6.26,1.77-3.16.99-6.32,2-9.48,3.01-.99.32-1.98.98-2.95.95-4.04-.14-8.12-.19-12.09-.87-1.84-.32-3.42-.35-5.13.18-1.18.37-2.41.98-3.58.91-4.91-.28-7.61,3.05-10.51,6.11-.45,2.55-2.47,3.7-4.4,4.96-4.36,2.83-8.71,5.67-13.05,8.53-2.08,1.37-3.29,3.33-3.59,5.87Z"/>
  <path class="cls-2" d="M98.25,61.76c.03-.24.07-.48.1-.72-1.74-.45-3.47-.9-5.21-1.34-6.13-1.54-12.27-3.06-18.39-4.63-2.3-.59-4.56-1.4-6.86-1.97-2.71-.67-5.45-1.24-8.19-1.76-.47-.09-1.03.25-2.04.53.81.31,1.07.48,1.34.5,3.41.36,6.78.88,9.94,2.36,1.12.52,2.35.88,3.57,1.09,7.76,1.38,15.31,3.6,22.92,5.62.91.24,1.89.22,2.83.31Z"/>
  <path class="cls-2" d="M170.26,145.76c-.41-.08-.77-.16-1.14-.23-1.83-.34-3.79-.08-5.24-1.81-.53-.63-1.86-1.17-2.58-.95-3.15.96-5.93-.65-8.86-1.05-2.38-.33-4.71-1.21-7-2-1.22-.42-2.13-.31-2.96.66.47,1.52,1.9,1.32,2.86,1.44,2.88.37,5.73.54,8.4,2.03,1.12.63,2.85.88,4.04.5,1.84-.58,3.41.04,4.73.73,2.4,1.25,4.9,1.13,7.4,1.37.07,0,.16-.32.34-.7Z"/>
  <path class="cls-2" d="M91.26,72.61c-2.98-1.68-6.22-2.62-9.53-3.07-8.27-1.12-16.33-3.06-24.3-5.44-1.16-.35-2.29-.59-3.88.16,12.61,4.19,25.31,5.58,37.72,8.36Z"/>
  <path class="cls-2" d="M184.81,138c-2.08-.82-3.95-.18-4.81-1.95-.09-.19-.55-.27-.84-.3-2.22-.26-4.44-.5-6.67-.75-.19-.42-.39-.84-.56-1.22-.93.15-1.69.27-2.55.4.2-.65.32-1.05.42-1.38-2.3-.15-4.37-.28-6.44-.42-.08,0-.2-.1-.23-.18-.73-2-1.74-.91-3.19-.18.9.62,1.47,1.29,2.14,1.41,1.48.28,3,.68,4.37,1.08,2.42.72,4.65,1.88,7.3,1.4.46-.08.97.18,1.46.24.98.12,2.03.02,2.93.36.99.38,1.8,1.21,2.76,1.71,1.03.54,2.13.5,3.92-.23Z"/>
  <path class="cls-2" d="M185.26,49.35c2.11,4.68,6.57,6.13,10.44,8.35-2.37-3.24-7.53-3.59-8.55-8.22.5-.33.91-.6,1.68-1.11-3.93-.02-7.32-.12-10.7,0-1.09.04-1.82.07-1.98-1.68-.41,1.05-.66,1.69-1.02,2.62l10.13.04Z"/>
  <path class="cls-2" d="M200.02,23.55c1.94-1.34,3.37-2.32,4.8-3.31-3,1.04-6.53.09-9.67,2.91,1.27-.17,1.84-.21,2.4-.32.57-.11,1.13-.29,1.73-.44.25,2.27.4,2.46,2.03,2.34,1.43-.1,3.08-.79,4.23-.3,1.94.83,3.36.24,4.94-.47-.11-1.94-1.31-1.73-2.43-1.35-2.37.81-4.77,1.35-8.04.94Z"/>
  <path class="cls-2" d="M189.27,56.71c-.97,2.71.23,5.64-1.23,8.32-.6,1.11.24,2.37,1.84,3.35,0-1.18.17-2.32-.02-3.4-.39-2.28-.7-4.48.45-6.68.52-1-.27-1.44-1.04-1.59Z"/>
  <path class="cls-2" d="M23.13,115.46c2.88.99,5.53,1.89,8.16,2.79-1.26-2.12-3.99-1.74-5.8-3.14,1.26-1.52,2.43-2.93,3.6-4.33-.15-.13-.3-.26-.45-.39-1.74,1.6-3.49,3.2-5.51,5.06Z"/>
  <path class="cls-2" d="M147.1,12.61c-.1-.05-.35-.23-.38-.19-2.64,2.68-5.26,5.37-7.89,8.06.05.05.11.09.16.14,2.71-2.67,5.42-5.35,8.11-8.01Z"/>
  <path class="cls-2" d="M233.39,83.78c-.75-.7-1.23-1.15-1.63-1.52-3.54,2.47-4.05,3.79-2.37,5.17.2-3.2.17-2.58,4-3.65Z"/>
  <path class="cls-2" d="M112.32,155.01c.93-3.99,4.54-5.11,6.51-8.5-5.16,3.93-6.75,5.88-6.51,8.5Z"/>
  <path class="cls-2" d="M132.23,50.6c1.94-2.08,3.87-4.17,5.7-6.13-2.16,1.63-4.15,3.66-5.7,6.13Z"/>
  <path class="cls-2" d="M.39,142c.7-2.89.86-5.78.04-8.67-.01,2.89-.03,5.78-.04,8.67Z"/>
  <path class="cls-2" d="M159.76,130.44q-3.45.65-3.43,2.98c1.99-.12,2.04-2.31,3.43-2.98Z"/>
  <path class="cls-2" d="M7.69,101.96c-2.38.59-2.91,2.67-3.51,4.71,1.17-1.57,2.34-3.14,3.51-4.71Z"/>
  <path class="cls-2" d="M26.92,157.42q2.09-.96,1.87-4.06c-.71,1.54-1.29,2.8-1.87,4.06Z"/>
  <path class="cls-2" d="M140.88,50.45c-.14-.16-.28-.32-.43-.48-1.36,1.25-2.71,2.51-4.07,3.76.11.12.22.24.33.36,1.39-1.21,2.78-2.43,4.17-3.64Z"/>
  <path class="cls-2" d="M139.81,46.37c-1.68,1.03-2.78,2.43-3.57,4.15,1.16-1.34,2.32-2.69,3.57-4.15Z"/>
  <path class="cls-2" d="M9.83,153.17c-1.45.6-2.2,1.73-2.83,3.59,1.96-.84,2.67-2,2.83-3.59Z"/>
  <path class="cls-2" d="M84.14,144.51c1.31-1.12,2.61-2.25,3.92-3.37-2.23.09-2.92,1.98-3.92,3.37Z"/>
  <path class="cls-2" d="M42.46,150.03c-1.01,1.11-2.24,2.09-1.57,3.77.52-1.26,1.04-2.52,1.57-3.77Z"/>
  <path class="cls-2" d="M44.98,153.86c.61-1.25,1.22-2.49,1.84-3.74-1.07,1.03-2.31,1.97-1.84,3.74Z"/>
  <path class="cls-2" d="M43.95,134.47q2.69-1.13,2.88-3.21c-.99,1.1-1.73,1.93-2.88,3.21Z"/>
  <path class="cls-2" d="M133.21,40c1.15-.54,2.28-1.09,2.48-2.9-1.61.6-2.18,1.64-2.48,2.9Z"/>
  <path class="cls-2" d="M223.18,29.6c1.18-.78,2.36-1.56,3.55-2.33-1.85-.24-3.1.43-3.55,2.33Z"/>
  <path class="cls-2" d="M37.22,98.9c-1.38.07-2.29.52-2.1,2.38.87-.99,1.48-1.69,2.1-2.38Z"/>
  <path class="cls-2" d="M69.6,136.74c-.17-.25-.35-.49-.52-.74-.79.68-1.57,1.36-2.36,2.05.13.16.26.32.39.48.83-.6,1.66-1.2,2.5-1.79Z"/>
  <path class="cls-2" d="M50.11,154.76q1.01-.86.91-2.91c-.46.95-.82,1.67-1.14,2.4-.05.12.14.33.22.51Z"/>
  <path class="cls-2" d="M134.56,44.93c.12.16.24.32.36.48.71-.7,1.41-1.4,2.12-2.1-.11-.11-.21-.21-.32-.32-.72.65-1.44,1.29-2.16,1.94Z"/>
  <path class="cls-2" d="M136.74,23.61c-.13-.13-.25-.26-.38-.38-.65.75-1.3,1.5-1.95,2.25.13.11.25.22.38.32.65-.73,1.29-1.46,1.94-2.19Z"/>
  <path class="cls-2" d="M54.91,154.26q-1.24,1.61-.87,3.14c.31-1.12.56-2.04.87-3.14Z"/>
  <path class="cls-2" d="M10.87,157.11l.72.38c.69-.47,1.4-.93.49-2.4-.51.85-.86,1.44-1.21,2.03Z"/>
  <path class="cls-2" d="M247.47,127.04l.34.53c.69-.46,1.38-.91,2.07-1.37-.07-.12-.15-.24-.22-.36-.73.4-1.46.8-2.19,1.2Z"/>
  <path class="cls-2" d="M77.28,141.31c.19.16.37.33.56.49.56-.57,1.12-1.13,1.69-1.7-.16-.16-.33-.31-.49-.47-.59.56-1.17,1.12-1.75,1.67Z"/>
  <path class="cls-2" d="M15.46,142.42c.25.28.5.57.75.85.42-.45.84-.89,1.26-1.34-.19-.21-.38-.42-.57-.62-.48.37-.96.74-1.44,1.11Z"/>
  <path class="cls-2" d="M89.77,120.85c-1.02.39-1.75,1-1.47,2.72.68-1.26,1.07-1.99,1.47-2.72Z"/>
  <path class="cls-2" d="M99.28,154.33c.46-1.04.88-1.99,1.47-3.31-1.65.96-2.16,1.88-1.47,3.31Z"/>
  <path class="cls-2" d="M22.8,157.08c.29.03.58.06.87.08v-2.19c-.13-.02-.28-.04-.42-.06-.15.72-.3,1.44-.45,2.17Z"/>
  <path class="cls-2" d="M33.99,155.04c-.88.57-1.41,1.2-.5,2.78.24-1.35.37-2.06.5-2.78Z"/>
  <path class="cls-2" d="M108.56,146.55c1.02-.07,2.14-.08,1.87-1.63-.73.64-1.3,1.14-1.87,1.63Z"/>
  <path class="cls-2" d="M105.76,145.83c1.11-.07,2.04-.38,2.15-1.69-.72.56-1.43,1.13-2.15,1.69Z"/>
  <path class="cls-2" d="M130.55,30.07c.09.08.18.16.27.23.46-.53.92-1.06,1.38-1.59-.11-.1-.22-.19-.33-.29-.44.55-.88,1.09-1.32,1.64Z"/>
  <path class="cls-2" d="M45.06,145.82c.13.12.26.23.39.35.36-.48.71-.95,1.07-1.43-.08-.06-.17-.13-.25-.19-.4.42-.81.85-1.21,1.27Z"/>
  <path class="cls-2" d="M103.14,153.41c-.13.02-.26.03-.38.05.06.36.11.72.21,1.07,0,.03.35-.04.54-.07-.12-.35-.24-.7-.37-1.05Z"/>
  <path class="cls-2" d="M70.89,156.83c.16.04.32.08.48.12.13-.53.25-1.06.38-1.59l-.43-.11-.43,1.58Z"/>
  <path class="cls-2" d="M151.69,14.59c-.09-.15-.18-.3-.28-.45-.3.22-.62.41-.88.67-.19.2-.3.48-.45.72.12.08.23.16.35.23.42-.39.84-.78,1.25-1.17Z"/>
  <path class="cls-2" d="M140.47,26.27c.16-.23.32-.46.49-.69-.07-.03-.2-.11-.21-.1-.19.21-.37.43-.55.65.08.04.15.07.28.13Z"/>
  <path class="cls-2" d="M147.12,22.51c-.07-.04-.13-.09-.2-.13-.11.14-.25.26-.33.42-.05.09,0,.24.01.36.17-.21.34-.42.51-.64Z"/>
  <path class="cls-2" d="M148.72,17.42l-.32-.28c-.21.28-.43.56-.64.84.07.04.17.14.19.12.26-.22.51-.45.77-.67Z"/>
  <path class="cls-2" d="M127.94,51.88c.13.09.25.17.38.26.2-.32.4-.64.6-.96-.1-.06-.19-.12-.29-.19l-.69.89Z"/>
  <path class="cls-2" d="M151.88,17.32c-.11-.08-.22-.17-.33-.25-.25.33-.5.66-.75,1,.1.08.21.16.31.24.25-.33.51-.66.76-.99Z"/>
  <path class="cls-2" d="M87.63,154.3c-.14.02-.28.04-.42.06.05.49.09.97.14,1.46.17-.02.35-.05.52-.07l-.24-1.44Z"/>
  <path class="cls-2" d="M51.23,138.86c.05-.07.13-.14.15-.23,0-.03-.09-.1-.15-.15-.03.09-.06.18-.08.27,0,.03.05.07.07.11Z"/>
  <path class="cls-2" d="M44.57,139.53c.08.07.17.14.26.21.23-.28.45-.56.68-.84-.1-.08-.19-.15-.29-.23-.22.29-.43.57-.65.86Z"/>
  <path class="cls-2" d="M39.21,147.05c-.17-.07-.35-.14-.52-.2-.13.31-.27.61-.4.92.11.05.22.1.32.16.2-.29.4-.58.6-.87Z"/>
  <path class="cls-1" d="M235.16,21.08c-2.74,1.89-5.78,3.1-9,3.79-3.54.76-6.92,2.33-8.83,4.44,2.45,4.72,4.37,9.71,6.24,14.74,1.37,3.69,3.58,7.05,5.1,10.69,1.68,4.01,3,8.17,4.56,12.5.24-.02.91-.07,1.66-.13,2.35,2.52,4.72,5.06,7.08,7.59-.14.14-.28.28-.42.42-2.33-2.23-4.67-4.45-7.02-6.69-2.58.95-4.88,1.87-7.22,2.64-1.17.39-2.42.53-3.64.78-1.02.21-2.07.33-3.04.67-3.33,1.16-6.66,2.33-9.92,3.66-1.65.67-3.56,1.02-4.36,3.12-.19.49-1.53.55-2.35.81,1.47,2.85,3.08,5.54,4.27,8.41,1.9,4.6,3.63,9.29,5.23,14,1.87,5.51,3.72,11.03,5.21,16.65,1.09,4.1,1.62,8.35,2.28,12.55.13.81-.32,1.71-.55,2.77-4.73-2.47-4.93-7.36-7.17-11.2-3.65.6-7.32,1.2-10.99,1.81-2.76.46-5.58,1.53-8.25,1.23-3.22-.36-5.45,1.05-7.93,2.4-4.76,2.59-9.83,2.92-15.13,2.19-5.5-.75-10.83-2.14-16.02-3.98-3.01-1.07-5.82-2.76-8.65-4.29-2.84-1.53-5.68-3.08-8.35-4.88-2.5-1.68-4.8-1-7.21-.05-.19.08-.38.18-.55.3-4.17,3.09-8.23,1.71-12.27-.28-.2.02-.47-.03-.6.07-3.06,2.55-5.95,1.81-8.75-.46-.56-.46-1.09-.97-1.62-1.47-1.57-1.48-3.18-2.32-5.58-2.01-1.7.22-3.55-.7-5.83-1.22-.17.13-.82.6-1.82,1.33.46-1.1.76-1.83,1.17-2.82-1.45-1.38-1.64-3.84-3.87-4.99-1.84,1.13-3.72,2.18-5.51,3.39-2.16,1.46-4.3,2.87-7.31,2.56-.02-.34-.25-.91-.06-1.24,1.17-1.95,2.2-4.06,3.73-5.7,2.05-2.18,4.44-4.07,6.82-5.91,1.89-1.46,3.96-2.68,5.98-3.95.83-.53,1.42-1.07,1.54-2.16.38-3.44,2.72-5.48,5.42-7.21.09-.06.19-.08.29-.12,2.57-1.12,5.36-1.91,7.66-3.44,2.29-1.52,3.99-3.91,6.14-5.68,3.69-3.03,7.6-5.8,11.3-8.81,2.15-1.75,4.6-3.34,5.19-6.43h1.94c-.03-.85-.07-1.71-.1-2.49-8.45-.59-16.44.49-24.37,2.24-.91.2-1.86.24-2.78.4-3.89.69-6.91,2.59-8.95,6.08-3.51,6-5.17,12.7-7.24,19.22-.83,2.63-.76,5.57.68,7.92-1.25.99-2.35,1.86-3.88,3.07-.6-.17-1.68-.43-2.74-.77-5.16-1.61-10.28-3.36-15.48-4.81-3.37-.94-6.9-1.31-10.3-2.2-3.07-.8-6.14-1.77-9.05-3.02-2.81-1.2-5.69-1.92-8.67-2.5-3.56-.7-7.06-1.69-10.59-2.52-.74-.17-1.52-.19-2.3-.27.7-.98,1.61-.99,2.73-.72,3.42.84,6.88,1.53,10.31,2.37,3.22.78,6.41,1.66,9.94,2.59,1.42-.61,2.02-1.94,1.89-3.83-.13-1.76-.01-3.53,0-5.37-.73-.22-1.27-.38-2-.6.98-.73,1.84-1.37,2.52-1.88-1.73-.31-3.47-.57-5.19-.93-4.98-1.05-9.94-2.31-15.08-1.28-.98.2-1.98.64-2.78,1.22-.71.52-1.35.74-1.87.12-.29-.35-.32-1.17-.12-1.64.84-2.01,1.74-4,2.75-5.94.37-.71,1.02-1.33,1.66-1.83,1.88-1.47,3.71-3.05,5.77-4.22,3.69-2.1,6.96-4.9,11.17-6.16,1.48-.44,2.84-1.55,4.5-1.71.46-.04.94.12,1.48.65-2.24.76-4.52,1.45-6.73,2.31-1.64.64-3.3,1.33-4.77,2.28-3.48,2.27-6.92,4.62-10.24,7.12-1.1.83-1.89,2.16-2.62,3.38-.68,1.15-1.08,2.45-1.75,4.01,1.17-.1,2.17-.04,3.1-.28,3.52-.91,7-.73,10.5.11,2.48.6,5.21.17,7.42,1.99.66.54,1.57-.03,2.09-.89-3.75-1.26-7.43-2.49-11.1-3.72.03-.18.06-.36.08-.55.44-.04.92-.22,1.31-.1,1.79.54,3.57,1.11,5.32,1.77,2.85,1.07,5.73,1.83,8.81,1.75.87-.02,1.77.4,2.62.71,1.73.62,3.31,1.87,5.34,1.15.21-.08.63.07.79.25,1.76,2.01,4.34,1.78,6.58,2.33,5.14,1.27,10.33,2.33,15.5,3.46.98.22,1.97.41,3.1.64.68-1.81,1.21-3.37,1.84-4.89,1.16-2.78,2.35-5.55,3.57-8.31,1.89-4.29,5.79-5.77,9.88-6.77,2.81-.69,5.83-.63,8.54-1.54,1.45-.49,2.51-2.29,3.62-3.61.66-.78,1.08-1.75,1.6-2.64l1,.15-2.53,5.04c.13.12.26.25.4.37.9-.59,1.8-1.18,2.7-1.78v1.15c2.34.26,2.52-1.91,3.91-3.06.14.41.24.71.35,1.04.92-.16,1.84-.31,2.75-.47,0,0,0,0,0,0-.23.32-.46.64-.79,1.09,2.12-.58,2.27-.68,4.91-3-.85,1.21-1.7,2.42-2.76,3.92.77,0,1.25.11,1.66-.01.89-.27,1.63-1.83,2.75-.25.05.07,1.06-.48,1.59-.81,1.04-.66,2.06-1.37,3.08-2.05-.53,1.44-2.56,1.94-2.66,4.17,3.02-1.6,4.98-4.36,8.25-4.68,3.71-3,7.42-6,10.92-8.83.27-2.86-1.65-4.34-3.53-6.56,3.37.95,3.63,3.65,4.81,5.45,3.54-.87,3.61-.82,5.43-3.27,1.76-2.38,3.98-3.9,6.47-4.2,1.21-1.48,2.06-2.79,3.17-3.82,3.49-3.26,7.1-6.4,10.63-9.62.41-.37.64-.94,1.07-1.6-2.91-1.28-5.4-.82-7.96.39-3.85,1.83-7.71,3.67-11.69,5.15-7.1,2.64-13.62,6.17-19.27,11.25-3.44,3.09-3.74,6.82-.83,10.44.61.76,1.29,1.46,1.94,2.19-1.47-.53-2.42-.02-3.37.96-.56.57-1.41.84-2.13,1.25,1.03-.98,2.07-1.95,3.22-3.04-2.75-3.54-3.37-7.28-1.69-11.3.1-.1.2-.19.3-.29,2.8-1.48,5.01-3.56,6.4-6.45.07.35.14.71.2.99,1.62-.83,3.12-1.53,4.54-2.37.46-.27.7-.91,1.04-1.39.76-1.07,1.52-2.14,2.36-3.31.43.71.68,1.11,1.07,1.75,1.43-1.17,2.71-2.16,3.92-3.22,1.25-1.1,2.39-2.31,3.65-3.39,1.16-.99,2.41-1.87,3.62-2.79.09.13.19.25.28.38-2.64,2.41-5.27,4.83-7.91,7.24.14.19.28.38.42.57,1.74-.28,2.89-1.7,4.28-2.64,1.46-.99,2.67-2.37,4.46-2.88-.31.49-.62.97-1.2,1.89,4.03-2.65,8.23-2.92,12.39-3.74-6.06-1.28-12.12-2.55-18.09-3.81-.91.66-1.75,1.25-2.58,1.85.22-.62.44-1.23.82-2.28-1.15.18-1.9.3-2.65.42-1.13-.43-2.24-1.11-3.4-1.23-2.89-.29-5.72-.72-8.42-1.83-2.12-.86-3.92-.74-5.46,1.3-1.11,1.48-2.56,2.69-3.86,4.03-.22-.2-.56-.6-.63-.56-1.45.9-2.95,1.78-3.03,3.78-.11-.03-.22-.05-.34-.08-.27.2-.55.4-.82.59-1.14,1.01-2.37,1.95-3.37,3.08-.34.39-.1,1.29-.13,1.96-1.67,1.35-3.61,2.49-4.9,4.14-.91,1.16-.93,3.02-1.4,4.55-.13.42-.47.77-.71,1.15l.07.06c-.28-.92-.56-1.84-.93-3.04,1.29-1.48,2.38-3.43,2.5-5.79,1.36.15,2.36-.24,2.71-2.41-1.16,1.04-1.94,1.73-2.71,2.42,1.43-7.74,2.04-15.64,4.33-23.81.34.98.51,1.48.68,1.98,3.27.93,6.65,1.47,9.79,2.89,1.59.72,3.36,1.09,5.09,1.38.63.11,1.38-.44,2-.66-.13.34-.28.71-.49,1.25,1.56.46,3.01.89,4.54,1.34,1.04-.94,2.03-1.83,3.02-2.72.11.09.23.17.34.26-.62.78-1.25,1.57-1.86,2.33.26.27.38.52.53.54,3.75.64,7.45,1.71,11.32,1.56.37-.02.85-.11,1.11.08,3.02,2.2,6.78,1.63,10.11,2.7,2.94.95,6.08,1.32,9.04,2.22,1.91.58,3.2.34,4.75-1.05,4.64-4.16,9.47-8.12,14.28-12.09.75-.62,1.78-1.11,2.73-1.24,1.25-.17,2,.89,1.44,2.02-.83,1.65-1.71,3.34-2.92,4.72-3.35,3.82-6.81,7.53-10.35,11.18-1.8,1.86-3.87,3.45-5.8,5.19-1.27,1.15-1.35,1.42-1.3,3.05-1.76,1.09-3.48,2.19-5.23,3.23-.29.17-.71.14-1.07.2-.59.09-1.34-.04-1.75.28-2.93,2.23-6.73,1.95-9.88,3.52-.83.41-1.75.63-2.62.97-1.29.52-1.9,1.33-1.74,2.88.14,1.43-.13,2.92-1.47,3.9-.24.18-.54.4-.62.67-1.28,4.07-2.34,5.85-5.04,8.27-.46.41-1.02.73-1.42,1.19-.52.59-.94,1.27-1.5,2.05,8.04,1.71,14.24-1.06,19.3-7.11-.26,1.86-1.55,2.87-2.75,3.94-3.81,3.36-8.19,5.14-13.32,4.72-1.11-.09-2.1-.21-2.52,1.12l.09-.08c-.8.13-1.6.26-2.54.41.38-.55.66-.97.97-1.42-.5-1.02-1.18-.98-1.93-.29-1.82,1.69-3.63,3.39-5.63,5.27,1.9,1.6,3.69,3.29,5.65,4.73,3.36,2.45,6.9,4.65,10.23,7.13,5.53,4.11,11.94,5.78,18.54,6.84,5.54.9,11.13,1.44,16.88.64,1.58-2.82,4.2-4.31,7.19-5.42,2.42-.89,4.64-2.34,7.09-3.09,4.46-1.36,8.75-3.26,13.44-3.94,2-.29,3.89-1.38,5.92-2.15.28-3.08-.58-5.87-1.68-8.52-1.7-4.13-3.72-8.13-5.57-12.19-.6-1.32-1.13-2.68-1.67-4.03-1.58-3.95-3.09-7.94-4.74-11.86-.92-2.17-3.52-2.32-5.88-.6,1.8,2.06,3.62,4.15,5.42,6.21-.14,0-.5.11-.66-.02-2.63-2.17-5.19-4.42-7.86-6.54-1.12-.88-2.38-1.74-3.71-2.17-3.33-1.08-6.61-2.57-10.28-1.94-.35.06-.75-.17-1.17-.27,1.24-2.03,1.57-2.17,3.21-1.6,1.67.58,3.33,1.2,5.04,1.63,2.75.69,5.41,1.48,7.56,3.45.29.26.74.36.72.35,1.97-.45,3.58-.78,5.16-1.19.47-.12,1.03-.37,1.3-.74,1.85-2.61,4.83-3.08,7.54-4.03,2.94-1.03,5.93-1.9,8.9-2.82.69-.21,1.42-.32,2.12-.48l-.05-.05ZM83.71,95.1l-.11-.05c.87.48,1.74.95,2.65,1.45.71-1.12,1.34-2.02,1.84-2.99.08-.17-.45-.65-.69-.98l.05.09c.81-.94,2.61-1.49,1.4-3.32-.76.27-1.41.51-2.07.75l.06.06c.28-1.57,2.82-1.85,2.36-4.07-1.3.68-2.44,1.28-3.58,1.88,1.51-1.91,4.18-2.84,4.64-5.79-1.16.59-2.32,1.18-3.48,1.76.64-.78,1.28-1.57,2.23-2.73-1.14.29-1.72.43-2.3.57.63-.94,0-1.28-.75-1.32-.56-.03-1.13.26-1.69.41-.3-.37-.51-.93-.9-1.09-1.8-.76-3.49-.45-4.99.82.16-.55.32-1.11.48-1.67q-1.59-.35-3.33.53c-.04-.38-.08-.75-.16-1.45-1.59,1.01-2.93,1.86-4.27,2.7.78-.89,1.57-1.78,2.49-2.84-2.62-.16-5.11,1.42-7.1,4.25h0c-.5-.51-1.01-1.01-1.65-1.67,1.66-1.06,3.28-2.1,5.23-3.35-1.86-.53-3.33-.95-5-1.42-1.59,1.26-3.19,2.57-4.84,3.82-1.14.86-2.34,1.64-3.52,2.45,1.56-1.46,3.13-2.92,4.69-4.38.69-.65,1.77-1.04,1.79-2.36-3.37,1.33-7.39,4.66-8.76,7.33.94-.28,1.67-.49,2.4-.71-.8,1.02-1.6,2.03-2.47,3.13.42.27.8.51,1.17.76-.12.56-.24,1.12-.37,1.7.8.32,1.44.72,2.13.82,2.09.29,4.08.79,6.05,1.59.77.31,1.91-.27,2.88-.45.29.22.72.7.84.63,1.03-.58,2.01-1.26,3-1.91-.68.78-1.93,1.15-1.96,3.02,1.02-.7,1.71-1.17,2.39-1.63.41.03.92.23,1.21.06.87-.52,1.65-1.18,2.99-2.18-1.02,1.41-1.65,2.22-2.18,3.09-.07.12.34.54.52.82.61,2.01,2.59,1.25,3.7,2.01,1.17-.93,2.19-1.75,3.22-2.57.94-1.02,1.87-2.04,2.81-3.06.38.78-.46,2.16,1.15,2.33-.53.98-1.06,1.96-1.6,2.94l.06-.07q-.45,1.94,1.31,2.28ZM129.52,14.56c.21.27.55.81.61.78,3.08-1.52,5.47-3.84,7.65-6.55-1.38-1.07-2.29-.01-3.3.25-.03-.33-.06-.65-.12-1.41-1.6,1.55-2.87,2.78-4.14,4,.13.16.26.32.39.49.74-.45,1.48-.91,2.22-1.36-1.1,1.28-2.21,2.56-3.31,3.83h-2.19c-.19,1.56-.64,3-.09,5.29.74-1.28,1.55-2.36,1.42-2.49-1.63-1.59.24-2.01.85-2.83ZM122.29,97.21c-.07-1.56.98-1.77,2.2-1.89,5.89-.59,11.15,1.15,15.86,4.5,5.49,3.91,10.25,8.81,16.24,12.08,2.18,1.19,4.1,2.91,6.37,3.82,4.8,1.92,9.69,3.89,15.04,1.99.08-.03.27.24.48.42-.69,1.61-2,1.82-3.55,1.64-5.74-.66-11.29-2.01-16.21-5.11-3.59-2.27-6.97-4.88-10.39-7.41-4-2.97-7.63-6.42-12.16-8.68-2.35-1.18-4.53-1.45-7.03-.52-1.41.53-3.1.94-4.53.68-3.89-.71-7.65.17-11.84.21.37,1.56.66,2.81.95,4.07-.13.06-.26.11-.39.17-.62-1.24-1.23-2.47-1.96-3.93-1.55.12-3.19.23-4.83.39-.76.08-1.43.38-1.42,1.33-2.01-1.03-4.2-1.33-6.16-.3-2.17,1.14-4.1,2.75-6.12,4.15.48,3.2,2.51,5.25,4.64,7.12,2.48,2.17,7.78.58,8.45-2.57.31-1.43-.25-3.05-.43-4.58-.15-1.3-.32-2.6-.48-3.9.58,1.53,1.44,3.01,1.66,4.59.28,1.95,1.2,4.04-.45,5.95-.79.91-.43,2.02.37,2.79,1.2,1.14,2.49,2.21,3.81,3.21,1.34,1.01,3.2,1.58,4.31.41,1.05-1.1,2.73-2.44,2.1-4.45-.68-2.17-1.39-4.35-2.39-6.37-.87-1.76-1.48-1.79-3.56-1.35-.61.13-1.27.01-2.16.01,2.77-2.38,4.22-2.25,6.6.88.62.81,1.06,1.81,1.36,2.79.62,1.97,1.37,3.96,1.52,5.99.11,1.48.84,2.14,1.89,2.47,1.57.5,3.24.93,4.88.97,4.35.11,6.49-2.91,4.75-6.48.11-.1.22-.2.33-.3,1.4,1.85,3.4,2.68,5.52,3.46,1.73.64,3.3,1.73,4.92,2.67,3.6,2.08,7.06,4.46,10.82,6.2,6.83,3.18,14.07,4.96,21.61,5.73,4.66.48,8.85-.39,12.92-2.51,2.74-1.44,5.47-2.36,8.76-2.52,6.09-.3,12.13-1.58,18.35-2.47-.17-.7-.29-1.08-.35-1.47-.06-.39-.06-.78-.11-1.4q1.72,2.16,4.1,2.31c-.85.43-1.42.71-1.96.98,1.59,6.37,2.86,8.62,5.24,9.28.03-.42.12-.83.09-1.23-.51-6.79-2.32-13.28-4.57-19.68-2.04-5.77-3.9-11.61-6.05-17.34-1.38-3.68-3.12-7.23-4.75-10.82-.25-.55-.67-1.08-1.14-1.46-1.41-1.17-3.06-.79-3.84.9-.32.69-.47,1.47-.68,2.14-1.45-.21-2.68-.6-3.87-.52-6.93.47-13.69-.67-20.42-2.1-3.48-.74-6.86-1.93-9.79-3.92-5.58-3.79-10.99-7.84-16.49-11.75-.89-.63-1.86-1.16-2.73-1.69-.87.97-.83,2.72-2.56,1.71-.18-.1-.71.32-1.03.56-2.17,1.6-4.33,3.21-6.45,4.78-.01,2.98-.03,5.83-.04,8.83-1.58-2.13-1.24-4.78-1.75-7.49-2.37,1.86-4.73,3.14-6.01,5.24,1.05,2.74,3.97.04,5.2,2.5-4.8.17-9.36.37-13.92.5-3.35.09-6.59.53-9.54,2.28-.8.47-1.76.65-2.57,1.1-2.27,1.24-4.64,2.35-6.69,3.9-1.16.88-2.01,2.41-2.53,3.81-.47,1.28-.43,2.79-.38,4.19.02.58.57,1.54,1.01,1.62,1.77.35,3.6.56,5.41.55,1.54,0,3.07-.47,4.61-.6,4.65-.4,9.31-.74,13.97-1.1,3.56,1.12,4.11,1.07,6.18-.98-2.43.4-4.33.71-6.22,1.02ZM160.76,47.61c.13-.98.32-2-.92-2.62-1.15-.58-1.99-.02-2.86.58-.08.06-.16.14-.24.2-7.83,6.2-15.67,12.38-23.48,18.61-2.93,2.34-5.75,4.81-8.69,7.15-3.42,2.72-6.92,5.33-10.35,8.02-.41.32-.63.87-1.36,1.9,2.81-.81,4.92-1.05,6.8-2.66,2.99-2.57,6.31-4.75,9.51-7.07,3.02-2.19,6.14-4.26,9.08-6.55,3.69-2.88,7.23-5.96,10.86-8.92,2.98-2.43,5.97-4.85,8.99-7.22.69-.54,1.56-.85,2.64-1.42ZM202.43,7.27c-1.74,1.32-3.54,2.54-5.18,3.95-5.66,4.88-11.26,9.83-16.87,14.76-1.4,1.23-2.89,2.41-4.11,3.81-.65.75-.81,1.93-1.21,2.96,1.12.35,1.88.59,2.38.75,4.04-1.7,7.22-4.18,10.2-6.92,3.06-2.81,6.36-5.42,9.07-8.53,2.59-2.97,5.49-5.78,7.6-9.26-.76-.61-1.24-.99-1.9-1.52ZM82.45,109.9c5.59-3.04,10.24-6.93,15.42-9.96-.93-1.31-1.65-2.34-2.42-3.42-1.4.85-2.88,1.59-4.19,2.56-2.58,1.91-5.12,3.87-7.55,5.95-1.25,1.07-2.34,2.42-1.26,4.87ZM120.74,79.81c1.6.71,2.59.32,3.68-.53,6.47-5.06,13.05-9.97,19.47-15.08,3.24-2.59,6.23-5.5,9.32-8.28.22-.2.29-.57.42-.87-.17-.14-.33-.27-.5-.41-2.19,1.72-4.38,3.43-6.57,5.16-4.88,3.86-9.62,7.94-14.7,11.52-3.72,2.62-7.54,5.06-11.13,8.49ZM126.32,23.72c.18.22.37.44.55.66,2.69-2.15,5.47-4.22,7.72-6.87,2.24-2.64,5.52-4.32,7.26-7.46-1.59-1.12-2.79-.63-3.79.45-3.89,4.19-7.75,8.42-11.6,12.64-.12.13-.1.39-.15.59ZM205.42,8.08c.51-1.32.84-2.18,1.17-3.03-.19-.15-.38-.31-.56-.46-.85.54-1.69,1.08-2.79,1.78.83.65,1.3,1.02,2.18,1.71ZM172.01,34.19c1.17.57,1.92.45,1.97-1.06-.8.43-1.38.74-1.97,1.06ZM81.05,91.7c-.93.54-1.45.77-1.89,1.12-.18.14-.18.52-.29.87,1.43.59,1.84-.18,2.17-1.99ZM129.16,11.38c-1.08-.34-1.52-.07-1.13,1.2.44-.47.79-.84,1.13-1.2ZM154.72,53.57c.16.15.32.31.48.46l1.35-1.39c-.11-.11-.21-.22-.32-.33-.5.42-1,.84-1.51,1.26Z"/>
  <path class="cls-1" d="M100.98,145.84c.71-1.09,1.42-2.17,2.21-3.4-1.98-1.08-3.8-1.75-5.84.48.22-.91.32-1.3.48-1.96-1.55-.17-3.06-1.45-4.58-.31-1.3.98-2.3,2.37-3.43,3.57-.17-.14-.33-.28-.5-.42.92-1.22,1.84-2.44,2.77-3.68-4.18-2.13-6.46-1.86-10.16.98.62-.88,1.24-1.76,2.05-2.91-1.8-.44-3.39-.76-4.93-1.22-1.95-.59-2.79,1.46-4.77,1.97.7-1.01,1.14-1.65,1.59-2.29-2.15-1.15-2.12-1.13-3.39.21-1.04,1.12-2.15,2.18-3.66,2.93.5-.67,1.02-1.33,1.51-2.01.47-.65.91-1.32,1.36-1.99-4.22-2.55-5.54-2.34-10.12,1.31.74-.99,1.49-1.99,2.23-2.98q-1.72-1.2-6.38,1.56c.61-1.07,1.03-1.79,1.61-2.8-.71-.07-1.31-.32-1.55-.13-1.09.88-2.07,1.88-3.52,2.5.56-.88,1.12-1.77,1.69-2.65-2.66-1.64-3.14-1.63-5.04.34-.72.74-1.31,1.61-1.96,2.42-.21-.16-.41-.33-.62-.49.7-1.17,1.41-2.35,2.32-3.87-2.02-.51-3.86-.98-5.76-1.45-1.14.96-2.24,1.88-3.34,2.8-.12-.08-.24-.17-.35-.25.48-.8.96-1.61,1.44-2.41-.88-.8-1.63-.75-2.36-.18-.33.25-.57.61-.88.88-1.6,1.43-3.36,2.49-5.93,2.47,1.29-1.94,2.72-3.35,5.36-3.71-1.85-1.75-3.9-.92-5.64-1.73-.75,1.92-1.92,3.27-4.2,4.31,1.19-1.67,2.06-2.89,3.31-4.64-2.26.53-2.54,2.38-3.74,3.16-1.26.82-2.45,1.77-3.67,2.66-.16-.16-.31-.32-.47-.47,1.39-1.88,2.79-3.77,4.59-6.21-1.15.19-1.79.11-2.12.38-5.57,4.69-10.09,10.31-14.35,16.17-.59.81-1.35,1.51-2.03,2.26-1.49.24-2.04,1.3-2.5,2.76.58-.23.94-.37,1.29-.51-.06.2-.08.42-.2.58-.98,1.38-.72,1.45-1.5,4.65-.49,2.01-1.92,3.79-2.96,5.65-.06.1-.37.07-.77.13.05-.41-.05-.9.15-1.11,1.78-1.9,1.45-4.41,1.97-6.66.05-.21-.31-.51-.48-.77l.03.03c1.47-2.63,3.24-4.99,5.4-7.13,2.2-2.17,4.02-4.72,5.62-6.63-1.12-4.03-2.09-7.47-3.12-11.19-.49-.09-1.22-.22-2.13-.38.27-1.02.5-1.87.75-2.8-3.44-2.26-7.07-2.25-10.87-1.62-2.21-4.17.26-7.56,1.56-11.11-.02,3.19-2.55,6.01-1.26,9.49,1.29.8,1.31-.28,1.45-1.16.19-.04.38-.14.55-.12,2.77.26,5.54.45,8.29.84,2.35.33,4.68.86,7,1.4.33.08.52.71.78,1.08-.41.1-.83.2-1.24.3-.86-.56-1.75-.78-3.14-.2,1.34.74,2.23,1.26,3.18.11.44.81.78,1.67,1.91,1.83,2.03.29,4.04.69,6.06,1.05.36.07.89.08,1.04.31.81,1.3,1.86,1.54,3.2.95.16-.07.47-.11.54-.02,2.14,2.58,5.37,1.91,8.09,2.61,4.7,1.22,9.53,1.97,14.31,2.88,1.46.28,2.86,1.44,4.44.39,1.15.9,2.68.51,3.81.92,5.97,2.2,12.29,2.86,18.39,4.47,6.02,1.59,12.23,2.42,18.32,3.74,6.69,1.45,13.34,3.08,20,4.64,2.82.66,5.67,1.24,8.44,2.05,4.58,1.33,9.12,2.8,13.66,4.24,2.78.88,5.55,1.81,8.54,1.18.4-.08.86-.12,1.24-.02,5.39,1.48,10.78,3,16.17,4.52.04.01.03.18.09.56-.66,0-1.31.12-1.9-.03-3.72-.92-7.41-1.96-11.14-2.84-1.49-.35-3.07-.61-4.59-.53-3.67.21-6.9-1.31-10.3-2.21-1.59-.42-3.22-.67-4.83-1l.1.09c-1.37-.66-2.74-1.31-4.09-1.96-1.47,1.13-2.83,2.06-4.06,3.15-.55.49-1.73,1.01-.7,2.12-.4.11-.8.21-1.57.41.35-1.13.58-1.87.81-2.62,1.1-1.01,2.19-2.01,3.48-3.19-.93-.38-1.75-.72-2.62-1.07-1.54,1.17-3,2.34-4.53,3.39-.53.36-1.25.44-1.89.64,1.6-1.42,3.2-2.83,5.16-4.56-6.41-1.66-12.62-2.98-18.61-4.2-1.53,1.19-2.83,2.2-4.13,3.21l.06.06ZM17.49,126.73c.15.15.31.31.46.46l3.01-1.57c.08.13.16.26.24.38-1.42,1.68-2.84,3.37-4.25,5.05.19.18.38.36.57.53,1.91-2.52,5.61-3.04,6.84-6.61-1.52-.45-2.88-.85-4.25-1.25-.93,1.06-1.77,2.03-2.62,2.99ZM16.34,123.32c-1.01-.62-1.42-1.88-2.96-1.38.38,1.04.71,1.94,1.11,3.03.66-.59,1.18-1.04,1.85-1.65ZM14.99,127.96c1.2-.35,1.7-1.15,1.8-2.43-1.25.41-2.71.48-1.8,2.43ZM13.32,119.69c-.57-.3-.78-.49-.89-.45-.21.07-.36.29-.54.45h1.43Z"/>
  <path class="cls-2" d="M140.79,52.59c.72-.41,1.58-.68,2.13-1.25.96-.98,1.9-1.49,3.37-.96-.65-.73-1.33-1.43-1.94-2.19-2.91-3.61-2.61-7.34.83-10.44,5.65-5.08,12.17-8.62,19.27-11.25,3.99-1.48,7.85-3.32,11.69-5.15,2.56-1.22,5.04-1.67,7.96-.39-.43.65-.66,1.22-1.07,1.6-3.53,3.22-7.13,6.36-10.63,9.62-1.11,1.03-1.95,2.34-3.17,3.82-2.49.3-4.7,1.82-6.47,4.2-1.82,2.45-1.89,2.4-5.43,3.27-1.18-1.79-1.45-4.49-4.81-5.45,1.88,2.22,3.8,3.69,3.53,6.56-3.49,2.82-7.21,5.82-10.92,8.83-3.27.32-5.23,3.08-8.25,4.68.09-2.23,2.12-2.72,2.66-4.17.41-.44.82-.88,1.23-1.32Z"/>
  <path class="cls-1" d="M103.93,21.46c.13-.81.17-1.65.4-2.44.65-2.25,1.64-4.35,1.26-6.9-.22-1.5,1.01-3.17,1-4.76-.02-2.71,1.16-4.88,2.45-7.36,1.99,1.32,4.5,1.06,6.51,2.34.17.11.39.21.59.19,1.09-.07,2.52-.65,3.18-.16.94.69,1.53,1,2.71.68.98-.27,1.75.91,1.22,1.86-2.64,4.69-2.26,10.05-3.42,15.06-.89,3.84-1.41,7.77-2.06,11.66-.16.98-.19,1.99-.27,2.95,1.77.62,3.21,1.18,4.68,1.61.29.08.71-.31,1.07-.48l-.07-.06c-.02,2.55,1.59,3.37,3.88,3.52-1.77.74-3.2.15-4.23-1.1-1.42-1.71-3.19-1.93-5.23-2.09-1.99-.16-3.95-.82-5.88-1.42-1.69-.52-3.29-1.33-4.98,0-.22.17-.78-.08-1.21-.13-.07-.56-.13-1.05-.22-1.82l-6.03-.03c1.46-2.42,3.94-.2,5.47-1.97-.78-.34-1.36-.6-2.09-.92,0-2.82.41-5.63,1.36-8.37v2.92c.21.05.43.11.65.16.56-1.05,1.07-2.12,1.7-3.13.4-.64.96-1.17,1.45-1.74.36-.22.72-.45,1.08-.67.68-.61,1.38-1.2,2.05-1.82,2.1-1.97,4.19-3.96,6.29-5.94.9.44.55.95.06,1.44-2.49,2.48-5.02,4.93-7.47,7.45-.75.77-1.28,1.74-1.91,2.62-.55,2.09-3.02,2.34-4.49,4.54,2.54-.79,4-1.85,4.9-3.6.1-.19-.16-.57-.26-.85.6-.08,1.19-.16,1.79-.23-.49.87-.88,1.8-1.48,2.58-.85,1.1-1.86,2.09-2.8,3.12.1.11.19.21.29.32.63-.3,1.25-.61,2.12-1.03-.36.86-.56,1.35-.79,1.92h1.81c.06.59.13,1.17.24,2.2,2.36-2.11,4.46-3.99,6.56-5.87.16.17.32.34.49.5-.99,1.11-1.98,2.22-2.95,3.35-.06.07.09.32.13.47.8-.26,1.59-.51,2.38-.77.13.17.27.33.4.5-.8,1.3-1.61,2.6-2.49,4.02.82.23,1.59.44,2.61.72.86-4.36,1.71-8.52,2.47-12.7.1-.53-.31-1.15-.48-1.73.87-1.9,1.83-3.78,1.27-6.29-1.65,1.52-3.11,2.88-4.57,4.23.4-.7.7-1.49,1.21-2.09,1.01-1.18,2.19-2.21,3.19-3.39,1.23-1.45,1.97-3.06.98-4.98.28-.65.56-1.29.97-2.22-1.13.5-1.85.82-2.58,1.13.41-.62.82-1.24,1.23-1.87-.17-.17-.34-.34-.51-.51-2.37,1.4-3.9,3.89-6.21,5.38-1.34,1.03-2.69,2.06-4.03,3.09-.3-.55-.61-1.11-.91-1.66,2.13-2.57,5.4-4.02,7.49-7.57-1.17.09-1.88-.04-2.38.23-1.88.99-5.61,5.69-6.02,7.4.3-.01.61-.03.92-.04-.86.89-2.1,1.59-1.8,3.19.66-.07,1.23-.12,1.8-.18.2.17.41.35.61.52-.66,1.17-1.32,2.35-1.99,3.52l.04-.09-3.15,3.57ZM112.66,32.28c-.91-.12-1.72-.22-2.83-.37q1.75,2.15,2.83.37ZM112.41,3.52c-.21-.19-.41-.38-.62-.56-.47.56-.95,1.12-1.42,1.68.16.15.32.29.47.44.52-.52,1.05-1.04,1.57-1.56Z"/>
  <path class="cls-1" d="M144.19,124.19c1.19.3,2.63.67,4.28,1.09-.46.59-.86,1.11-1.58,2.04,1.46-.44,2.52-.75,3.58-1.07.08.15.16.3.23.45-.89.62-1.8,1.23-2.68,1.87-.42.31.73,1.33-.45,1.23-.42-.03-.75-.76-1.17-1.11-.83-.7-1.7-1.36-2.8-2.24-.68.79-1.5,1.75-2.45,2.85,1.5.74,3.06.29,3.73,2.19.35.99,2.28,1.4,3.46,2.13.17.11.13.56.23,1.06,1.85-.56,3.53-.6,4.59,1.41.14.27,1.05.14,2.17.25-1.9.89-3,1.16-4.67.35-1.73-.85-3.54-1.71-5.48-2.3-2.52-.77-4.21,1.06-6.41.98-.6-.02-1.25,1.17-2.2,2.11,1.41.15,2.61-.08,3.11.41,1.11,1.08,1.87-.75,2.89,0-.31,1.33-2.62,1.38-2.13,3.19-.55.02-1.23.24-1.61,0-.45-.29-.63-.99-.91-1.48-2.17.22-3.73,2.08-5.98,1.76,1.64-1.97,3.18-3.84,4.73-5.69.62-.75,1.75-1.31.85-2.59-.09-.13.12-.67.33-.8,3.03-1.9,3.28-5.9,6.35-8.09Z"/>
  <path class="cls-1" d="M170.08,161.54c.3-2.54,1.52-4.5,3.59-5.87,4.34-2.86,8.69-5.7,13.05-8.53,1.93-1.25,3.95-2.4,4.4-4.96,2.9-3.06,5.6-6.4,10.51-6.11,1.17.07,2.4-.55,3.58-.91,1.7-.53,3.28-.5,5.13-.18,3.96.68,8.05.74,12.09.87.97.03,1.96-.63,2.95-.95,3.16-1.01,6.32-2.02,9.48-3.01,2.07-.65,4.14-1.26,6.26-1.77-1.85,1.23-3.96,1.84-6.13,2.31-3.26.71-6.48,1.53-9.33,3.38-.34.22-.64.49-1.11.85.39.44.71.81,1.06,1.2-.15.08-.33.26-.43.22-.78-.28-1.53-.63-2.31-.89-.98-.32-2.02-.88-2.98-.78-3.77.39-7.43-.4-11.13-.7-.94-.08-2.01.34-2.88.8-1.99,1.06-4.02,1.63-6.28,1.32-.48-.07-1.1-.22-1.46,0-2.66,1.54-5.6,2.8-6.67,6.12-.62,1.91-2.27,2.91-3.85,3.92-3.24,2.07-6.46,4.16-9.74,6.17-3.14,1.92-6.23,3.84-7.79,7.5Z"/>
  <path class="cls-2" d="M149.02,31.5c-1.39,2.89-3.59,4.97-6.4,6.45.46-1.36.92-2.71,1.37-4.07,2.92-3.7,5.85-7.4,8.77-11.1.63-.85,1.27-1.7,1.9-2.55l1.22-1.11c.68-.85,1.36-1.71,2.03-2.56.61-.64,1.21-1.29,1.82-1.93l-.09.12c.75-.12,1.5-.24,2.65-.42-.38,1.05-.6,1.66-.82,2.28l.12-.12c-.81,1.04-1.63,2.08-2.44,3.11-.65.64-1.29,1.28-1.94,1.92-.83,1.03-1.66,2.06-2.49,3.09-1.91,2.3-3.82,4.59-5.73,6.89Z"/>
  <path class="cls-1" d="M155.56,59.84c1.86.02,2.4,1.71,3.42,2.77.64.67,1.09,1.53,1.73,2.2.42.43,1,.85,1.57.96,1.8.33,3.62.54,5.43.73.35.03.73-.28,1.22-.48-.19-1.16-.37-2.23-.54-3.3.15-.05.3-.1.45-.15.53,1.37,1.06,2.74,1.47,3.79,2.23,0,4.12.02,6.38.03.32-1.04.66-2.17.98-3.23,1.13,3.53.38,4.28-4.81,4.27,1.41.86,2.49,1.52,3.61,2.2.7-.51,1.41-1.02,2.12-1.54.11.12.22.24.32.36-.59.99-1.18,1.98-1.66,2.76-1.7-.92-3.37-1.91-5.12-2.75-2.45-1.17-2.47-1.12-4.53,1.2-.49-1.88-2.02-1.47-3.32-1.83-1.46-.41-2.58-.19-3.7.99-.11-.2-.21-.4-.32-.6.26-.45.52-.89.82-1.4-1.8-2.34-3.61-4.7-5.43-7.07l-.09.08Z"/>
  <path class="cls-1" d="M98.25,61.76c-.95-.1-1.92-.07-2.83-.31-7.6-2.02-15.15-4.24-22.92-5.62-1.22-.22-2.45-.57-3.57-1.09-3.16-1.48-6.52-2-9.94-2.36-.27-.03-.53-.19-1.34-.5,1.01-.28,1.57-.62,2.04-.53,2.74.52,5.48,1.09,8.19,1.76,2.31.57,4.56,1.38,6.86,1.97,6.12,1.58,12.26,3.09,18.39,4.63,1.74.44,3.47.89,5.21,1.34-.03.24-.07.48-.1.72Z"/>
  <path class="cls-1" d="M170.26,145.76c-.18.38-.28.71-.34.7-2.5-.25-5-.12-7.4-1.37-1.32-.69-2.89-1.31-4.73-.73-1.2.38-2.92.13-4.04-.5-2.66-1.49-5.51-1.66-8.4-2.03-.96-.12-2.39.08-2.86-1.44.83-.97,1.74-1.08,2.96-.66,2.3.79,4.62,1.67,7,2,2.93.4,5.71,2.01,8.86,1.05.72-.22,2.05.32,2.58.95,1.45,1.72,3.41,1.47,5.24,1.81.36.07.72.14,1.14.23Z"/>
  <path class="cls-1" d="M91.26,72.61c-12.41-2.78-25.11-4.16-37.72-8.36,1.59-.75,2.72-.51,3.88-.16,7.97,2.39,16.04,4.32,24.3,5.44,3.31.45,6.56,1.39,9.53,3.07Z"/>
  <path class="cls-1" d="M184.81,138c-1.8.73-2.89.77-3.92.23-.96-.5-1.77-1.33-2.76-1.71-.89-.34-1.95-.24-2.93-.36-.49-.06-1-.32-1.46-.24-2.64.47-4.88-.69-7.3-1.4-1.37-.4-2.89-.81-4.37-1.08-.67-.13-1.24-.79-2.14-1.41,1.45-.73,2.45-1.82,3.19.18.03.08.15.17.23.18,2.07.14,4.14.27,6.44.42-.1.33-.22.73-.42,1.38.86-.14,1.62-.26,2.55-.4.17.38.37.8.56,1.22,2.23.25,4.45.49,6.67.75.3.04.75.11.84.3.86,1.78,2.73,1.14,4.81,1.95Z"/>
  <path class="cls-1" d="M185.26,49.35l-10.13-.04c.36-.93.61-1.56,1.02-2.62.15,1.75.88,1.72,1.98,1.68,3.38-.12,6.78-.02,10.7,0-.77.51-1.18.78-1.68,1.11,1.02,4.63,6.18,4.98,8.55,8.22-3.87-2.23-8.33-3.67-10.44-8.35Z"/>
  <path class="cls-1" d="M200.02,23.55c3.28.4,5.67-.14,8.04-.94,1.12-.38,2.32-.59,2.43,1.35-1.59.72-3,1.3-4.94.47-1.16-.49-2.8.2-4.23.3-1.63.12-1.78-.08-2.03-2.34-.59.16-1.15.33-1.73.44-.56.11-1.13.16-2.4.32,3.14-2.82,6.67-1.87,9.67-2.91-1.43.98-2.86,1.97-4.8,3.31Z"/>
  <path class="cls-1" d="M75.29,128.18c-2.98-.24-5.89-.51-8.85-1.33-4.77-1.32-9.78-1.72-14.69-2.54-2.86-.48-5.71-.97-8.55-1.57-.48-.1-.83-.8-1.24-1.22,0,0-.07.05-.07.05,3.44,1.06,6.87,2.05,10.53,2.24,2.85.15,5.67.96,8.5,1.49,4.11.77,8.23,1.54,12.33,2.34.67.13,1.3.4,1.95.61l.07-.07Z"/>
  <path class="cls-2" d="M122.08,56.38c-.9.59-1.8,1.18-2.7,1.78-.13-.12-.26-.25-.4-.37l2.53-5.04c.21,0,.43-.02.64-.03,1.66-1.9,3.32-3.81,4.99-5.71.81-.61,1.61-1.21,2.42-1.82-.24.65-.48,1.31-.72,1.96l.11-.12c-.66.9-1.32,1.79-1.97,2.69-1.63,2.22-3.26,4.45-4.89,6.67Z"/>
  <path class="cls-2" d="M118.5,151.33c.64-.21,1.36-.28,1.89-.64,1.53-1.05,2.98-2.22,4.53-3.39.87.36,1.69.69,2.62,1.07-1.28,1.18-2.38,2.18-3.48,3.19-1.25.41-2.51.83-3.76,1.24-1.03.46-1.79.4-1.85-.97.02-.16.03-.33.05-.49Z"/>
  <path class="cls-1" d="M189.27,56.71c.77.15,1.56.59,1.04,1.59-1.15,2.2-.83,4.4-.45,6.68.18,1.08.02,2.22.02,3.4-1.6-.98-2.45-2.24-1.84-3.35,1.46-2.68.26-5.61,1.23-8.32Z"/>
  <path class="cls-1" d="M23.13,115.46c2.02-1.86,3.77-3.46,5.51-5.06.15.13.3.26.45.39-1.17,1.4-2.34,2.81-3.6,4.33,1.81,1.4,4.54,1.02,5.8,3.14-2.63-.9-5.28-1.81-8.16-2.79Z"/>
  <path class="cls-1" d="M20,88.04c-3.5,3.92-6.99,7.84-10.5,11.75-.09.1-.35.06-1.15.17,4.02-4.3,7.36-8.56,11.41-12.19.08.09.16.18.24.26Z"/>
  <path class="cls-1" d="M19.76,87.77c3.52-3.86,4.62-4.74,7.49-5.84-.2.71-.19,1.36-.51,1.68-1.32,1.29-2.67,2.57-4.16,3.65-.68.5-1.71.53-2.58.78-.08-.09-.16-.18-.24-.26Z"/>
  <path class="cls-1" d="M183.24,61.02c1.15-1,1.98-.39,2.37.7.32.92.24,1.98.36,3.15-1.22.41-2.23.75-3.23,1.08-.08-.15-.16-.29-.24-.44.45-.43.9-.86,1.49-1.41-.69-.82-1.33-1.59-2.17-2.58.67-.27,1.1-.44,1.53-.61q.46,1.36,1.83,1.16c-.64-.35-1.29-.7-1.93-1.05Z"/>
  <path class="cls-1" d="M130.28,153.44c.63.17,1.27.5,1.9.48.99-.02,1.97-.27,3.23.05-1.13,1.21-2.27,2.42-3.72,3.97.15-1.12.25-1.84.38-2.75-.95-.22-1.8-.42-3.11-.73.63-.44,1-.71,1.37-.97l-.05-.05Z"/>
  <path class="cls-1" d="M147.1,12.61c-2.69,2.66-5.4,5.34-8.11,8.01-.05-.05-.11-.09-.16-.14,2.63-2.69,5.25-5.38,7.89-8.06.04-.04.28.14.38.19Z"/>
  <path class="cls-1" d="M159.75,14.64c-.61.64-1.21,1.29-1.82,1.93-.56.36-1.11.71-1.67,1.07-.8.56-1.58,1.16-2.41,1.66-.81.49-1.68.87-2.53,1.3h0c1.41-1.28,2.85-2.53,4.21-3.87,1.19-1.18,2.43-2.17,4.22-2.1Z"/>
  <path class="cls-1" d="M233.39,83.78c-3.83,1.07-3.8.45-4,3.65-1.68-1.39-1.17-2.71,2.37-5.17.4.38.87.82,1.63,1.52Z"/>
  <path class="cls-1" d="M112.32,155.01c-.24-2.62,1.35-4.57,6.51-8.5-1.97,3.39-5.58,4.51-6.51,8.5Z"/>
  <path class="cls-1" d="M132.23,50.6c1.55-2.47,3.53-4.5,5.7-6.13-1.82,1.96-3.76,4.05-5.7,6.13Z"/>
  <path class="cls-1" d="M219.85,150.82c-1,3.23-1.99,6.45-2.99,9.68-.3-2.95,1.2-7.63,3.07-9.6l-.08-.07Z"/>
  <path class="cls-1" d="M3.7,152.28c-.23,2.3-1.68,3.77-3.44,5.03.36-2.05,1.51-3.64,2.92-5.09.17.02.35.04.52.05Z"/>
  <path class="cls-1" d="M220.7,147.21c1.55-2.28,3.1-4.56,5.06-7.43.09,1.07.27,1.51.12,1.71-1.31,1.85-2.66,3.67-4.07,5.44-.19.24-.73.19-1.11.27h0Z"/>
  <path class="cls-1" d="M245.19,17.42c-3.13,1.8-6.19,3.8-10.03,3.65l.05.05c3.35-1.22,6.69-2.43,10.04-3.65l-.06-.06Z"/>
  <path class="cls-1" d="M245.25,17.48c2.75-1.16,5.7-1.18,8.47-1.82.15.39.21.47.22.56,0,.1-.02.28-.05.29-2.9.31-5.8.61-8.7.91l.06.06Z"/>
  <path class="cls-1" d="M129.13,38.63c.39-1.32.77-2.64,1.16-3.96.15.03.31.06.46.09v1.62c.52-.09.96-.16,1.78-.29-1.28,1.05-1.48,2.87-3.41,2.55h.02Z"/>
  <path class="cls-1" d="M.39,142c.01-2.89.03-5.78.04-8.67.82,2.89.66,5.78-.04,8.67Z"/>
  <path class="cls-1" d="M152.4,131.14c1.26-.7,2.53-1.39,3.96-2.18-.14,1.65-2.71,1.21-1.92,3.1-.49.09-1.05.37-1.45.21-.28-.11-.34-.8-.5-1.23l-.09.09Z"/>
  <path class="cls-1" d="M159.76,130.44c-1.4.66-1.44,2.86-3.43,2.98q-.01-2.33,3.43-2.98Z"/>
  <path class="cls-1" d="M7.69,101.96c-1.17,1.57-2.34,3.14-3.51,4.71.59-2.04,1.13-4.12,3.51-4.71Z"/>
  <path class="cls-1" d="M144,33.89c-.46,1.36-.92,2.71-1.37,4.07-.1.1-.2.2-.3.29-.58.35-1.16.7-2.2,1.32.93-2.53,2.44-4.08,3.87-5.69Z"/>
  <path class="cls-1" d="M112.31,147.88c-1.38,1.54-2.77,3.09-4.15,4.63-.16-.15-.33-.31-.49-.46.9-2,2.69-3.17,4.46-4.37l.18.2Z"/>
  <path class="cls-1" d="M26.92,157.42c.58-1.26,1.16-2.52,1.87-4.06q.21,3.11-1.87,4.06Z"/>
  <path class="cls-1" d="M140.88,50.45c-1.39,1.21-2.78,2.43-4.17,3.64-.11-.12-.22-.24-.33-.36,1.36-1.25,2.71-2.51,4.07-3.76.14.16.28.32.43.48Z"/>
  <path class="cls-1" d="M139.81,46.37c-1.25,1.46-2.41,2.8-3.57,4.15.79-1.71,1.9-3.11,3.57-4.15Z"/>
  <path class="cls-1" d="M9.83,153.17c-.17,1.6-.88,2.75-2.83,3.59.63-1.87,1.38-2.99,2.83-3.59Z"/>
  <path class="cls-1" d="M75.22,128.25c2.38.36,4.75.73,7.13,1.09,0,.05-.01.09-.02.14-1.67,0-3.36.11-5.01-.08-.71-.08-1.35-.79-2.02-1.22l-.07.07Z"/>
  <path class="cls-1" d="M84.14,144.51c1-1.4,1.69-3.28,3.92-3.37-1.31,1.12-2.61,2.25-3.92,3.37Z"/>
  <path class="cls-1" d="M129.54,43.97c.83-1.3,1.67-2.59,3.57-2.04l-.08-.08c.14,1.74-1.48,1.93-2.4,2.73-.31,0-.62,0-.93,0-.05-.21-.11-.41-.16-.62Z"/>
  <path class="cls-1" d="M152.49,131.05c-.6-.1-1.19-.2-1.79-.29.54-2.44.55-2.45,2.96-2.62-.11,1.14-2.36,1.38-1.27,3.01l.09-.09Z"/>
  <path class="cls-1" d="M133.7,20.77c.27-.2.55-.4.82-.59-.33.8-.56,1.66-1.02,2.38-.69,1.1-1.54,2.11-2.32,3.16-.47-.87-.19-1.54.44-2.24.76-.84,1.39-1.8,2.08-2.7Z"/>
  <path class="cls-1" d="M126.73,34.22c1.19,1.86,1.11,2.04-1.69,2.98.72-1.23,1.25-2.13,1.77-3.04l-.08.06Z"/>
  <path class="cls-1" d="M126.91,43.19c.74-1.52,1.48-3.04,2.23-4.56h-.02c.1.66.48,1.47.23,1.94-.55,1.05-1.42,1.93-2.16,2.88-.09-.09-.19-.17-.28-.26Z"/>
  <path class="cls-2" d="M134.86,20.26c.08-2,1.58-2.89,3.03-3.78.07-.04.41.36.63.56-1.22,1.08-2.44,2.15-3.67,3.23Z"/>
  <path class="cls-1" d="M41.96,121.52c-2.12.11-4.09-.28-5.73-1.82,1.89.62,3.77,1.24,5.66,1.86l.07-.05Z"/>
  <path class="cls-1" d="M42.46,150.03c-.52,1.26-1.04,2.52-1.57,3.77-.68-1.69.55-2.67,1.57-3.77Z"/>
  <path class="cls-1" d="M44.98,153.86c-.48-1.76.76-2.71,1.84-3.74-.61,1.25-1.22,2.49-1.84,3.74Z"/>
  <path class="cls-1" d="M43.95,134.47c1.14-1.28,1.89-2.11,2.88-3.21q-.18,2.09-2.88,3.21Z"/>
  <path class="cls-1" d="M130.33,153.49c.98-1.17.99-3.4,3.35-3.04l-.1-.09c-.43,1.75-1.69,2.61-3.3,3.08l.05.05Z"/>
  <path class="cls-2" d="M133.7,20.77c-.69.91-1.32,1.86-2.08,2.7-.63.7-.91,1.37-.44,2.24-.33.03-.65.06-.98.09.03-.67-.21-1.57.13-1.96,1-1.14,2.23-2.07,3.37-3.08Z"/>
  <path class="cls-1" d="M18.31,154.74c-.05,1.46-1.04,2.05-2.67,2.87.77-1.72,1.25-2.89,2.73-3.24-.02.12-.04.24-.06.36Z"/>
  <path class="cls-1" d="M18.31,154.74c.02-.12.04-.24.06-.36.83-.67,1.66-1.34,2.48-2.01l.46.59c-.42,1.58-1.39,2.22-3.01,1.79Z"/>
  <path class="cls-1" d="M133.21,40c.3-1.25.87-2.3,2.48-2.9-.2,1.8-1.33,2.35-2.48,2.9Z"/>
  <path class="cls-1" d="M223.18,29.6c.44-1.91,1.7-2.58,3.55-2.33-1.18.78-2.36,1.56-3.55,2.33Z"/>
  <path class="cls-1" d="M138.93,36.49c.27,1.63-.81,2.56-1.86,3.92q.25-2.1,1.92-3.87l-.06-.05Z"/>
  <path class="cls-1" d="M127.19,43.45c-.82,1.2-1.64,2.39-2.45,3.59-.18-.13-.36-.27-.54-.4.9-1.15,1.81-2.3,2.71-3.45.09.09.19.17.28.26Z"/>
  <path class="cls-1" d="M37.22,98.9c-.61.7-1.22,1.39-2.1,2.38-.19-1.87.72-2.31,2.1-2.38Z"/>
  <path class="cls-1" d="M69.6,136.74c-.83.6-1.66,1.2-2.5,1.79-.13-.16-.26-.32-.39-.48.79-.68,1.57-1.36,2.36-2.05.17.25.35.49.52.74Z"/>
  <path class="cls-1" d="M50.11,154.76c-.08-.17-.27-.39-.22-.51.31-.73.68-1.45,1.14-2.4q.1,2.04-.91,2.91Z"/>
  <path class="cls-1" d="M134.56,44.93c.72-.65,1.44-1.29,2.16-1.94.11.11.21.21.32.32-.71.7-1.41,1.4-2.12,2.1-.12-.16-.24-.32-.36-.48Z"/>
  <path class="cls-1" d="M136.74,23.61c-.65.73-1.29,1.46-1.94,2.19-.13-.11-.25-.22-.38-.32.65-.75,1.3-1.5,1.95-2.25.13.13.25.26.38.38Z"/>
  <path class="cls-1" d="M54.91,154.26c-.31,1.1-.56,2.02-.87,3.14q-.37-1.52.87-3.14Z"/>
  <path class="cls-1" d="M10.87,157.11c.35-.59.7-1.18,1.21-2.03.91,1.48.2,1.94-.49,2.4l-.72-.38Z"/>
  <path class="cls-1" d="M247.47,127.04c.73-.4,1.46-.8,2.19-1.2.07.12.15.24.22.36-.69.46-1.38.91-2.07,1.37l-.34-.53Z"/>
  <path class="cls-1" d="M100.92,145.79c-.68,1-1.36,1.99-2.05,2.99-.16-.13-.33-.26-.49-.4.86-.85,1.73-1.69,2.59-2.54l-.06-.06Z"/>
  <path class="cls-1" d="M77.28,141.31c.58-.56,1.17-1.12,1.75-1.67.16.16.33.31.49.47-.56.57-1.12,1.13-1.69,1.7-.19-.16-.37-.33-.56-.49Z"/>
  <path class="cls-2" d="M15.46,142.42c.48-.37.96-.74,1.44-1.11.19.21.38.42.57.62-.42.45-.84.89-1.26,1.34-.25-.28-.5-.57-.75-.85Z"/>
  <path class="cls-1" d="M138.98,36.55c.17-1.44.83-2.57,2.43-3.1-.83,1.02-1.66,2.03-2.49,3.05l.06.05Z"/>
  <path class="cls-1" d="M89.77,120.85c-.39.73-.79,1.46-1.47,2.72-.29-1.72.44-2.33,1.47-2.72Z"/>
  <path class="cls-1" d="M99.28,154.33c-.7-1.43-.18-2.35,1.47-3.31-.59,1.32-1,2.26-1.47,3.31Z"/>
  <path class="cls-1" d="M129.54,43.97c.05.21.11.41.16.62-.09.19-.13.39-.14.59-.81.61-1.61,1.21-2.42,1.82l2.4-3.04Z"/>
  <path class="cls-1" d="M21.31,152.95l-.46-.59c.34-.56.69-1.13,1.23-2.02.45,1.4-.48,1.9-.77,2.61Z"/>
  <path class="cls-1" d="M22.8,157.08c.15-.72.3-1.44.45-2.17.14.02.29.04.43.06v2.19c-.3-.03-.59-.06-.88-.08Z"/>
  <path class="cls-1" d="M24.11,132.45c.16.16.31.32.47.47-.47.58-.93,1.15-1.71,2.11-.28-1.69.52-2.11,1.24-2.59Z"/>
  <path class="cls-1" d="M33.99,155.04c-.13.71-.26,1.43-.5,2.78-.91-1.58-.38-2.21.5-2.78Z"/>
  <path class="cls-1" d="M108.56,146.55c.57-.5,1.13-.99,1.87-1.63.28,1.55-.85,1.56-1.87,1.63Z"/>
  <path class="cls-1" d="M112.13,147.68c.6-.94,1.37-1.65,2.93-2.19-.78,1.5-1.71,2.01-2.75,2.39l-.18-.2Z"/>
  <path class="cls-2" d="M8.99,147.3c-.36.14-.71.28-1.29.51.46-1.45,1.01-2.52,2.5-2.76-.4.75-.81,1.5-1.21,2.25Z"/>
  <path class="cls-1" d="M105.76,145.83c.72-.56,1.43-1.13,2.15-1.69-.11,1.31-1.03,1.62-2.15,1.69Z"/>
  <path class="cls-1" d="M130.55,30.07c.44-.55.88-1.09,1.32-1.64.11.1.22.19.33.29-.46.53-.92,1.06-1.38,1.59-.09-.08-.18-.16-.27-.23Z"/>
  <path class="cls-1" d="M118.45,151.83c.06,1.38.82,1.43,1.85.97-.23.19-.42.48-.68.56-.53.16-1.1.2-1.65.29.16-.61.32-1.22.49-1.83Z"/>
  <path class="cls-1" d="M122.16,52.72c-.21,0-.43.02-.64.03l-1-.15c.47-.86.95-1.71,1.65-2.98v3.1Z"/>
  <path class="cls-1" d="M45.06,145.82c.4-.42.81-.85,1.21-1.27.08.06.17.13.25.19-.36.48-.71.95-1.07,1.43-.13-.12-.26-.23-.39-.35Z"/>
  <path class="cls-1" d="M151.32,20.6c.13,1.28-.69,1.89-1.81,2.61.7-1.01,1.26-1.81,1.81-2.6h0Z"/>
  <path class="cls-1" d="M126.81,34.17q-.55-1.08.81-2.62c-.43,1.29-.66,1.98-.89,2.67l.08-.06Z"/>
  <path class="cls-1" d="M103.14,153.41c.12.35.24.7.37,1.05-.19.02-.53.09-.54.07-.1-.35-.15-.71-.21-1.07.13-.02.26-.03.38-.05Z"/>
  <path class="cls-1" d="M70.89,156.83l.43-1.58.43.11c-.13.53-.25,1.06-.38,1.59-.16-.04-.32-.08-.48-.12Z"/>
  <path class="cls-1" d="M129.56,45.18c0-.21.06-.41.14-.59.31,0,.62,0,.93,0-.6.85-1.19,1.71-1.79,2.56.24-.65.48-1.31.72-1.96Z"/>
  <path class="cls-1" d="M151.69,14.59c-.42.39-.84.78-1.25,1.17-.12-.08-.23-.16-.35-.23.15-.24.25-.53.45-.72.26-.26.58-.45.88-.67.09.15.18.3.28.45Z"/>
  <path class="cls-1" d="M133.11,41.93c.65-.51,1.29-1.01,1.94-1.52-.29,1.14-.8,1.94-2.02,1.44l.08.08Z"/>
  <path class="cls-1" d="M129.1,55.04c.19-.75.37-1.49.56-2.24l.47.16c-.34.69-.68,1.38-1.02,2.07h0Z"/>
  <path class="cls-1" d="M140.47,26.27c-.12-.06-.2-.1-.28-.13.18-.22.36-.44.55-.65.02-.02.14.06.21.1-.16.23-.33.46-.49.69Z"/>
  <path class="cls-1" d="M147.12,22.51c-.17.21-.34.42-.51.64,0-.12-.06-.26-.01-.36.08-.15.22-.28.33-.42.07.04.13.09.2.13Z"/>
  <path class="cls-1" d="M148.72,17.42c-.25.23-.5.46-.77.67-.02.01-.12-.08-.19-.12.21-.28.43-.56.64-.84l.32.28Z"/>
  <path class="cls-1" d="M127.94,51.88l.69-.89c.1.06.19.12.29.19-.2.32-.4.64-.6.96-.13-.09-.25-.17-.38-.26Z"/>
  <path class="cls-1" d="M126.98,49.71c.66-.9,1.32-1.79,1.97-2.69-.66.9-1.32,1.79-1.97,2.69Z"/>
  <path class="cls-1" d="M151.88,17.32c-.25.33-.51.66-.76.99-.1-.08-.21-.16-.31-.24.25-.33.5-.66.75-1,.11.08.22.17.33.25Z"/>
  <path class="cls-1" d="M154.68,20.24c-.63.85-1.27,1.7-1.9,2.55.63-.85,1.27-1.7,1.9-2.55Z"/>
  <path class="cls-1" d="M3.7,152.28c-.17-.02-.35-.04-.52-.05.68-.81,1.37-1.62,2.05-2.43l-.03-.03c-.5.84-1,1.67-1.5,2.51Z"/>
  <path class="cls-1" d="M220.7,147.21c.62,1.42-.04,2.53-.85,3.61,0,0,.08.07.08.07.26-1.23.52-2.45.78-3.68h0Z"/>
  <path class="cls-1" d="M87.63,154.3l.24,1.44c-.17.02-.35.05-.52.07-.05-.49-.09-.97-.14-1.46.14-.02.28-.04.42-.06Z"/>
  <path class="cls-1" d="M156.26,17.63c.56-.36,1.11-.71,1.67-1.07-.68.85-1.36,1.71-2.03,2.56.12-.5.25-1,.37-1.5Z"/>
  <path class="cls-1" d="M51.23,138.86s-.08-.08-.07-.11c.01-.09.05-.18.08-.27.05.05.16.12.15.15-.02.08-.1.15-.15.23Z"/>
  <path class="cls-1" d="M44.57,139.53c.22-.29.43-.57.65-.86.1.08.19.15.29.23-.23.28-.45.56-.68.84-.08-.07-.17-.14-.26-.21Z"/>
  <path class="cls-1" d="M39.21,147.05c-.2.29-.4.58-.6.87-.11-.05-.22-.1-.32-.16.13-.31.27-.61.4-.92.17.07.35.14.52.2Z"/>
  <path class="cls-2" d="M129.7,112.32c1.74,3.57-.4,6.59-4.75,6.48-1.64-.04-3.3-.47-4.88-.97-1.05-.33-1.78-.99-1.89-2.47-.16-2.03-.91-4.02-1.52-5.99-.31-.98-.75-1.98-1.36-2.79-2.38-3.13-3.84-3.27-6.6-.88.9,0,1.56.12,2.16-.01,2.09-.43,2.69-.4,3.56,1.35,1,2.03,1.72,4.21,2.39,6.37.63,2.01-1.05,3.35-2.1,4.45-1.1,1.16-2.97.6-4.31-.41-1.32-1-2.6-2.07-3.81-3.21-.81-.77-1.16-1.88-.37-2.79,1.66-1.91.74-4,.45-5.95-.23-1.58-1.09-3.06-1.66-4.59l.09.08c0-.95.66-1.25,1.42-1.33,1.64-.17,3.28-.27,4.83-.39.72,1.45,1.34,2.69,1.96,3.93.13-.06.26-.11.39-.17-.29-1.25-.59-2.5-.95-4.07,4.19-.04,7.95-.92,11.84-.21,1.43.26,3.12-.15,4.53-.68,2.49-.93,4.67-.66,7.03.52,4.53,2.26,8.16,5.72,12.16,8.68,3.42,2.53,6.8,5.14,10.39,7.41,4.92,3.11,10.47,4.45,16.21,5.11,1.55.18,2.86-.04,3.55-1.64-.21-.19-.39-.45-.48-.42-5.35,1.9-10.24-.07-15.04-1.99-2.27-.91-4.2-2.63-6.37-3.82-5.99-3.27-10.74-8.17-16.24-12.08-4.71-3.35-9.98-5.09-15.86-4.5-1.22.12-2.27.32-2.2,1.89l.05-.04c-4.66.36-9.32.7-13.97,1.1-1.54.13-3.07.59-4.61.6-1.81.01-3.63-.2-5.41-.55-.44-.09-.99-1.05-1.01-1.62-.05-1.4-.09-2.91.38-4.19.52-1.41,1.37-2.94,2.53-3.81,2.04-1.54,4.42-2.66,6.69-3.9.82-.45,1.78-.63,2.57-1.1,2.96-1.75,6.19-2.19,9.54-2.28,4.56-.13,9.12-.32,13.92-.5-1.23-2.46-4.15.24-5.2-2.5,1.28-2.1,3.64-3.38,6.01-5.24.51,2.71.17,5.36,1.75,7.49.01-3,.03-5.85.04-8.83,2.12-1.58,4.28-3.19,6.45-4.78.32-.24.86-.67,1.03-.56,1.73,1.02,1.7-.73,2.56-1.71.87.54,1.84,1.06,2.73,1.69,5.5,3.92,10.91,7.96,16.49,11.75,2.93,1.99,6.31,3.18,9.79,3.92,6.73,1.43,13.48,2.57,20.42,2.1,1.19-.08,2.42.31,3.87.52.21-.67.36-1.45.68-2.14.79-1.69,2.43-2.07,3.84-.9.47.39.89.91,1.14,1.46,1.63,3.59,3.37,7.14,4.75,10.82,2.15,5.73,4.01,11.57,6.05,17.34,2.26,6.39,4.06,12.88,4.57,19.68.03.4-.06.81-.09,1.23-2.38-.66-3.65-2.92-5.24-9.28.54-.27,1.11-.55,1.96-.98q-2.38-.14-4.1-2.31c.04.62.05,1.01.11,1.4.06.39.18.77.35,1.47-6.22.89-12.26,2.17-18.35,2.47-3.29.16-6.02,1.09-8.76,2.52-4.06,2.13-8.26,2.99-12.92,2.51-7.54-.77-14.78-2.56-21.61-5.73-3.76-1.75-7.21-4.13-10.82-6.2-1.62-.93-3.19-2.03-4.92-2.67-2.12-.78-4.12-1.6-5.52-3.46-1.32-2.67-3.52-4.29-6.27-5.23,1.98,1.84,3.96,3.69,5.94,5.53ZM110.51,96.56c-.04-.18-.08-.35-.12-.53-1.32,0-2.65.09-3.95-.05-1.33-.14-2.67-.38-3.92-.84-.5-.19-1.17-1.2-1.04-1.62.67-2.26,1.26-4.72,4.11-5.28,1.41-.28,2.87-.31,4.28-.6,1.66-.35,2.68.39,3.11,1.82.38,1.26.44,2.61.6,3.93.06.54,0,1.09,0,2.15,1.63-3.13,1.01-6.9-1.08-8.53-.31-.24-.72-.53-1.08-.52-1.95.08-3.96,0-5.84.43-2.71.63-4.19,2.58-4.95,5.3-.55,1.97-.3,3.41,1.65,3.88,2.39.58,4.86.82,7.3,1.13.28.04.62-.43.93-.66ZM122.06,100.19c-.22-.01-.45-.02-.67-.03-.19,1.31-.36,2.61.92,3.75-.08-1.24-.16-2.48-.25-3.71ZM122.08,106.93c-.21-.03-.41-.06-.62-.08v1.28c.14,0,.28.02.42.03l.2-1.23Z"/>
  <path class="cls-2" d="M160.76,47.61c-1.07.57-1.94.88-2.64,1.42-3.03,2.37-6.02,4.79-8.99,7.22-3.63,2.97-7.17,6.04-10.86,8.92-2.94,2.3-6.06,4.36-9.08,6.55-3.2,2.32-6.52,4.5-9.51,7.07-1.88,1.62-3.99,1.86-6.8,2.66.72-1.03.95-1.58,1.36-1.9,3.43-2.69,6.93-5.31,10.35-8.02,2.93-2.33,5.75-4.81,8.69-7.15,7.81-6.22,15.65-12.41,23.48-18.61.08-.06.15-.14.24-.2.87-.61,1.71-1.16,2.86-.58,1.24.62,1.05,1.64.92,2.62Z"/>
  <path class="cls-2" d="M202.43,7.27c.66.53,1.13.91,1.9,1.52-2.12,3.48-5.01,6.29-7.6,9.26-2.72,3.11-6.01,5.72-9.07,8.53-2.99,2.74-6.16,5.22-10.2,6.92-.5-.16-1.27-.4-2.38-.75.4-1.03.56-2.21,1.21-2.96,1.22-1.4,2.71-2.57,4.11-3.81,5.61-4.93,11.21-9.88,16.87-14.76,1.64-1.41,3.44-2.63,5.18-3.95Z"/>
  <path class="cls-2" d="M157.23,21.53c.65-.64,1.29-1.28,1.94-1.92.81-1.04,1.63-2.08,2.44-3.11l-.12.12c.83-.6,1.66-1.19,2.58-1.85,5.97,1.26,12.03,2.53,18.09,3.81-4.16.82-8.36,1.09-12.39,3.74.58-.91.89-1.4,1.2-1.89-1.8.51-3,1.88-4.46,2.88-1.39.94-2.54,2.35-4.28,2.64-.14-.19-.28-.38-.42-.57,2.64-2.41,5.27-4.83,7.91-7.24-.09-.13-.19-.25-.28-.38-1.21.93-2.47,1.8-3.62,2.79-1.26,1.08-2.41,2.29-3.65,3.39-1.21,1.06-2.49,2.05-3.92,3.22-.39-.64-.64-1.04-1.07-1.75-.84,1.18-1.6,2.25-2.36,3.31-.34.47-.58,1.11-1.04,1.39-1.42.84-2.92,1.53-4.54,2.37-.06-.28-.13-.63-.2-.99,1.91-2.3,3.82-4.59,5.73-6.89.83-1.03,1.66-2.06,2.49-3.09ZM162.54,20.3c1.17-.47,2.37-.91,2.31-2.49-.77.83-1.54,1.66-2.31,2.49Z"/>
  <path class="cls-2" d="M105.02,100.9c.16,1.3.33,2.6.48,3.9.18,1.53.73,3.15.43,4.58-.67,3.15-5.98,4.74-8.45,2.57-2.13-1.86-4.16-3.92-4.64-7.12,2.02-1.4,3.95-3.01,6.12-4.15,1.96-1.03,4.15-.73,6.16.3l-.09-.08Z"/>
  <path class="cls-2" d="M66.5,82.08c1.99-2.83,4.48-4.41,7.1-4.25-.93,1.06-1.71,1.95-2.49,2.84-.37.32-.74.64-1.11.96-2.38,1.36-4.71,2.76-4.78,5.97-.27.21-.54.42-.82.63.23.24.44.53.71.71.31.21.69.32,1.04.47l.08-.07c-.97.18-2.11.76-2.88.45-1.97-.8-3.96-1.31-6.05-1.59-.69-.09-1.34-.5-2.13-.82.13-.58.25-1.13.37-1.7-.38-.24-.76-.49-1.17-.76.87-1.1,1.67-2.11,2.47-3.13,0,0-.11.11-.11.11,1.18-.81,2.38-1.59,3.52-2.45,1.65-1.25,3.25-2.56,4.84-3.82,1.67.47,3.14.89,5,1.42-1.95,1.25-3.57,2.29-5.23,3.35.64.65,1.15,1.16,1.65,1.67-2.44.52-2.7.94-1.54,2.44.51-.82,1.02-1.63,1.53-2.45ZM65.83,77.64q-2.75.97-4.14,3.04c1.41-1.26,3.07-1.4,4.14-3.04Z"/>
  <path class="cls-2" d="M82.45,109.9c-1.08-2.45.01-3.8,1.26-4.87,2.43-2.08,4.98-4.05,7.55-5.95,1.31-.97,2.79-1.72,4.19-2.56.76,1.08,1.49,2.11,2.42,3.42-5.18,3.03-9.84,6.92-15.42,9.96Z"/>
  <path class="cls-2" d="M120.74,79.81c3.59-3.43,7.41-5.87,11.13-8.49,5.08-3.58,9.81-7.66,14.7-11.52,2.18-1.73,4.38-3.44,6.57-5.16.17.14.33.27.5.41-.14.29-.2.67-.42.87-3.08,2.79-6.07,5.7-9.32,8.28-6.42,5.12-13,10.03-19.47,15.08-1.09.85-2.08,1.24-3.68.53Z"/>
  <path class="cls-2" d="M73.05,91.23c-.19-.28-.6-.7-.52-.82.53-.87,1.16-1.68,2.18-3.09-1.34,1-2.12,1.66-2.99,2.18-.29.17-.8-.03-1.21-.06.18-.6.36-1.2.55-1.79l.19-.22c2.49-1.22,3.79-3.64,5.59-5.55.51-.44,1.03-.88,1.54-1.33,1.5-1.27,3.19-1.58,4.99-.82.38.16.6.72.9,1.09-1.86,1.81-3.71,3.62-5.57,5.43-1.28,1.31-2.56,2.62-3.83,3.94l-1.81,1.05ZM79.12,82.41c.14.18.28.35.41.53.71-.65,1.42-1.3,2.13-1.95-.13-.14-.27-.29-.4-.43-.71.62-1.43,1.23-2.14,1.85Z"/>
  <path class="cls-2" d="M126.32,23.72c.05-.2.03-.46.15-.59,3.86-4.22,7.71-8.45,11.6-12.64,1-1.08,2.2-1.57,3.79-.45-1.74,3.15-5.02,4.82-7.26,7.46-2.25,2.65-5.03,4.72-7.72,6.87-.18-.22-.37-.44-.55-.66Z"/>
  <path class="cls-2" d="M78.38,80.55c-.51.44-1.03.88-1.54,1.33-2.26,1.45-4.43,3-5.59,5.55l-.19.22c-.33.14-.65.27-.98.41-.99.65-1.97,1.33-3,1.91-.12.07-.55-.41-.84-.63l-.08.07c2.28-2.46,4.55-4.91,6.83-7.37.85-.88,1.69-1.75,2.54-2.63q1.75-.89,3.33-.53c-.16.56-.32,1.11-.48,1.67Z"/>
  <path class="cls-2" d="M78.7,86.24c1.86-1.81,3.71-3.62,5.57-5.43.56-.15,1.14-.44,1.69-.41.75.04,1.38.38.75,1.32-.54.6-1.07,1.2-1.61,1.81-1.93,1.74-3.86,3.47-5.78,5.21-.83.43-1.65.85-2.48,1.28.62-1.26,1.24-2.53,1.86-3.79Z"/>
  <path class="cls-2" d="M83.93,89.95c-1.61-.17-.77-1.55-1.15-2.33l2.21-2.56c.6-.39,1.2-.78,1.79-1.17,1.16-.59,2.32-1.18,3.48-1.76-.46,2.94-3.13,3.87-4.64,5.79l-1.69,2.03Z"/>
  <path class="cls-2" d="M75.53,79.41c-.85.88-1.69,1.75-2.54,2.63-1.66,1.33-3.28,2.7-4.99,3.96-.87.64-1.9,1.07-2.86,1.59,1.62-1.99,3.24-3.98,4.86-5.96.37-.32.74-.64,1.11-.96,1.34-.85,2.67-1.69,4.27-2.7.07.7.12,1.07.16,1.45Z"/>
  <path class="cls-2" d="M134.49,9.04c1-.26,1.92-1.31,3.3-.25-2.18,2.71-4.57,5.03-7.65,6.55-.06.03-.4-.51-.61-.78v.03c1.11-1.28,2.21-2.56,3.32-3.83l1.65-1.72Z"/>
  <path class="cls-2" d="M76.84,90.03c.83-.43,1.65-.85,2.48-1.28.22.64.44,1.28.65,1.93-1.03.82-2.05,1.64-3.22,2.57-1.11-.77-3.1,0-3.7-2.01l1.81-1.05q1.5,1.25,1.98-.15Z"/>
  <path class="cls-2" d="M56.85,81.79c-.73.22-1.47.43-2.4.71,1.38-2.68,5.39-6,8.76-7.33-.02,1.32-1.1,1.71-1.79,2.36-1.56,1.47-3.12,2.92-4.69,4.38l.11-.11Z"/>
  <path class="cls-2" d="M83.93,89.95l1.69-2.03c1.14-.6,2.28-1.2,3.58-1.88.46,2.22-2.08,2.5-2.36,4.07-1.5.93-3,1.86-4.5,2.79.53-.98,1.06-1.96,1.6-2.94Z"/>
  <path class="cls-1" d="M82.34,92.89c1.5-.93,3-1.86,4.5-2.79l-.06-.06c-.62.97-1.24,1.95-2.14,3.37,1.29-.37,2.05-.58,2.8-.8l-.05-.09c-1.27.84-2.53,1.68-3.8,2.52,0,0,.11.05.11.05-.44-.76-.87-1.52-1.31-2.28l-.06.07Z"/>
  <path class="cls-1" d="M79.98,90.67c-.22-.64-.44-1.28-.65-1.93,1.93-1.74,3.86-3.47,5.78-5.21-.04.51-.07,1.01-.11,1.52l-2.21,2.56c-.94,1.02-1.87,2.04-2.81,3.06Z"/>
  <path class="cls-2" d="M87.44,92.61c-.76.22-1.52.43-2.8.8.9-1.42,1.52-2.4,2.14-3.37.65-.24,1.31-.47,2.07-.75,1.2,1.83-.59,2.38-1.4,3.32Z"/>
  <path class="cls-2" d="M83.59,95.05c1.27-.84,2.53-1.68,3.8-2.52.25.33.78.81.69.98-.49.98-1.13,1.88-1.84,2.99-.92-.5-1.78-.98-2.65-1.45Z"/>
  <path class="cls-2" d="M84.99,85.06c.04-.51.07-1.01.11-1.52.54-.6,1.07-1.2,1.61-1.81.58-.14,1.16-.29,2.3-.57-.95,1.17-1.59,1.95-2.23,2.73-.6.39-1.2.78-1.79,1.17Z"/>
  <path class="cls-2" d="M205.42,8.08c-.88-.69-1.35-1.05-2.18-1.71,1.1-.7,1.94-1.24,2.79-1.78.19.15.38.31.56.46-.33.86-.66,1.71-1.17,3.03Z"/>
  <path class="cls-2" d="M122.29,97.21c1.9-.31,3.79-.62,6.22-1.02-2.07,2.05-2.62,2.1-6.18.98,0,0-.05.04-.05.04Z"/>
  <path class="cls-2" d="M129.52,14.56c-.61.82-2.48,1.24-.85,2.83.13.13-.68,1.21-1.42,2.49-.56-2.29-.1-3.73.09-5.3h2.19s0-.02,0-.02Z"/>
  <path class="cls-2" d="M134.49,9.04c-.55.57-1.1,1.15-1.65,1.72-.74.45-1.48.91-2.22,1.36-.13-.16-.26-.32-.39-.49,1.27-1.23,2.54-2.46,4.14-4,.06.76.09,1.08.12,1.41Z"/>
  <path class="cls-2" d="M70.08,88.06c.33-.14.65-.27.98-.41-.18.6-.36,1.2-.55,1.79-.68.47-1.37.93-2.39,1.63.03-1.87,1.28-2.24,1.96-3.02Z"/>
  <path class="cls-2" d="M172.01,34.19c.58-.31,1.17-.63,1.97-1.06-.04,1.5-.79,1.63-1.97,1.06Z"/>
  <path class="cls-2" d="M81.05,91.7c-.33,1.81-.74,2.58-2.17,1.99.11-.35.11-.73.29-.87.43-.34.96-.58,1.89-1.12Z"/>
  <path class="cls-2" d="M124.82,26.9c.77-.69,1.55-1.38,2.71-2.42-.36,2.17-1.35,2.55-2.71,2.41h0Z"/>
  <path class="cls-2" d="M129.16,11.38c-.35.37-.69.74-1.13,1.2-.39-1.27.05-1.55,1.13-1.2Z"/>
  <path class="cls-2" d="M154.72,53.57c.5-.42,1-.84,1.51-1.26.11.11.21.22.32.33l-1.35,1.39c-.16-.15-.32-.31-.48-.46Z"/>
  <path class="cls-2" d="M82.4,92.82c.44.76.87,1.52,1.31,2.28q-1.76-.34-1.31-2.28Z"/>
  <path class="cls-2" d="M17.49,126.73c.84-.96,1.69-1.93,2.62-2.99,1.37.4,2.73.8,4.25,1.25-1.23,3.56-4.93,4.09-6.84,6.61-.19-.18-.38-.36-.57-.53,1.42-1.68,2.84-3.37,4.25-5.05-.08-.13-.16-.26-.24-.38l-3.01,1.57c-.15-.15-.31-.31-.46-.46Z"/>
  <path class="cls-2" d="M16.34,123.32c-.68.6-1.19,1.06-1.85,1.65-.4-1.09-.73-1.99-1.11-3.03,1.54-.5,1.95.76,2.96,1.38Z"/>
  <path class="cls-2" d="M14.99,127.96c-.91-1.95.55-2.02,1.8-2.43-.1,1.28-.6,2.08-1.8,2.43Z"/>
  <path class="cls-2" d="M18.07,120.66c-.95,1.16-1.85.63-3.18-.11,1.39-.58,2.28-.36,3.14.2l.04-.09Z"/>
  <path class="cls-2" d="M13.32,119.69h-1.43c.18-.16.33-.38.54-.45.12-.04.32.15.89.45Z"/>
  <path class="cls-2" d="M115.05,18.04c1.46-1.35,2.93-2.71,4.57-4.23.56,2.51-.4,4.39-1.27,6.29l.09-.02c-.37.16-.82.23-1.1.49-2.55,2.43-5.1,4.88-7.59,7.38-.4.4-.57,1.05-.85,1.58l.08-.12h-1.81c.23-.58.44-1.07.79-1.93-.87.42-1.49.72-2.12,1.03-.1-.11-.19-.21-.29-.32.94-1.03,1.95-2.02,2.8-3.12.6-.78.99-1.71,1.48-2.58,1.73-1.48,3.47-2.96,5.2-4.45ZM111.01,23.72c.16.14.33.28.49.41.46-.59.93-1.19,1.39-1.78l-.33-.29c-.52.55-1.04,1.1-1.55,1.65Z"/>
  <path class="cls-2" d="M118.35,20.09c.17.58.58,1.2.48,1.73-.76,4.18-1.61,8.34-2.47,12.7-1.02-.28-1.79-.49-2.61-.72.88-1.42,1.68-2.72,2.49-4.02-.13-.17-.27-.33-.4-.5-.79.26-1.59.51-2.38.77-.05-.15-.19-.4-.13-.47.97-1.13,1.96-2.24,2.95-3.35-.16-.17-.32-.34-.49-.5-2.1,1.88-4.2,3.76-6.56,5.87-.11-1.03-.18-1.61-.24-2.19,0,0-.08.12-.08.12.39-.11.92-.08,1.15-.33,2.82-3.02,5.6-6.07,8.39-9.12l-.09.02Z"/>
  <path class="cls-2" d="M115.05,18.04c-1.73,1.48-3.47,2.96-5.2,4.45-.6.08-1.19.16-1.79.23l-.15-.09c.63-.88,1.17-1.85,1.91-2.62,2.45-2.52,4.98-4.97,7.47-7.45.49-.49.84-.99-.06-1.44,1.06-1.18,2.13-2.37,3.19-3.55.99,1.92.25,3.53-.98,4.98-1,1.18-2.19,2.21-3.19,3.39-.51.6-.81,1.39-1.21,2.09Z"/>
  <path class="cls-2" d="M113.34,9.49c2.3-1.49,3.83-3.98,6.21-5.38.17.17.34.34.51.51-.41.62-.82,1.24-1.23,1.87-.33.33-.66.65-.98.98-1.27,1.51-2.54,3.01-3.81,4.52-.72.82-1.44,1.64-2.15,2.47-1.61,1.18-3.22,2.36-4.83,3.54.66-1.17,1.32-2.35,1.99-3.52,1.44-1.66,2.87-3.31,4.31-4.97Z"/>
  <path class="cls-2" d="M111.88,14.44c.72-.82,1.44-1.64,2.15-2.47,1.27-1.51,2.54-3.01,3.81-4.52.33-.33.66-.65.98-.98.72-.32,1.44-.63,2.58-1.13-.41.93-.69,1.58-.97,2.22-1.06,1.18-2.13,2.37-3.19,3.55-2.09,1.98-4.18,3.96-6.29,5.94-.67.63-1.36,1.22-2.05,1.82.99-1.48,1.98-2.96,2.97-4.44Z"/>
  <path class="cls-2" d="M108.42,10.93c-.31.01-.62.03-.92.04.41-1.71,4.14-6.41,6.02-7.4.5-.26,1.21-.13,2.38-.23-2.09,3.55-5.37,5-7.49,7.57,0,0,.02.01.02.01Z"/>
  <path class="cls-2" d="M107.82,19.56c-.49.58-1.06,1.11-1.45,1.74-.63,1.01-1.14,2.08-1.7,3.13-.22-.05-.44-.11-.67-.16v-2.92s-.07.11-.07.11l3.15-3.57c.25.56.49,1.11.74,1.67Z"/>
  <path class="cls-1" d="M113.34,9.49c-1.44,1.66-2.87,3.31-4.31,4.97-.2-.17-.41-.35-.61-.52.3-.45.59-.91.89-1.36,1.34-1.03,2.69-2.06,4.03-3.09Z"/>
  <path class="cls-1" d="M107.82,19.56c-.25-.56-.49-1.11-.74-1.67l-.04.09c1.61-1.18,3.22-2.36,4.83-3.54-.99,1.48-1.98,2.96-2.97,4.44-.36.22-.72.45-1.08.67Z"/>
  <path class="cls-2" d="M107.91,22.63s.15.09.15.09c.09.29.35.66.26.85-.91,1.76-2.36,2.81-4.9,3.6,1.47-2.2,3.95-2.46,4.49-4.54Z"/>
  <path class="cls-2" d="M109.31,12.58c-.3.45-.59.91-.89,1.36-.57.06-1.14.11-1.8.18-.3-1.6.94-2.3,1.8-3.19h-.02c.3.54.61,1.09.91,1.65Z"/>
  <path class="cls-2" d="M112.66,32.28q-1.08,1.78-2.83-.37c1.11.15,1.92.25,2.83.37Z"/>
  <path class="cls-2" d="M112.41,3.52c-.52.52-1.05,1.04-1.57,1.56-.16-.15-.32-.29-.47-.44.47-.56.95-1.12,1.42-1.68.21.19.41.38.62.56Z"/>
  <path class="cls-1" d="M157.23,21.53c-.83,1.03-1.66,2.06-2.49,3.09.83-1.03,1.66-2.06,2.49-3.09Z"/>
  <path class="cls-1" d="M161.62,16.49c-.81,1.04-1.63,2.08-2.44,3.11.81-1.04,1.63-2.08,2.44-3.11Z"/>
  <path class="cls-2" d="M183.24,61.02c.64.35,1.29.7,1.93,1.05q-1.37.2-1.83-1.16l-.1.11Z"/>
  <path class="cls-1" d="M110.51,96.56c-.31.23-.65.7-.93.66-2.44-.31-4.91-.55-7.3-1.13-1.95-.47-2.2-1.9-1.65-3.88.76-2.72,2.24-4.67,4.95-5.3,1.88-.44,3.89-.35,5.84-.43.35-.01.76.27,1.08.52,2.09,1.63,2.72,5.4,1.08,8.53,0-1.06.06-1.61,0-2.15-.16-1.32-.22-2.68-.6-3.93-.43-1.43-1.45-2.17-3.11-1.82-1.41.3-2.87.33-4.28.6-2.85.56-3.44,3.03-4.11,5.28-.13.42.54,1.43,1.04,1.62,1.24.46,2.59.7,3.92.84,1.3.14,2.63.04,3.95.05.04.18.08.35.12.53Z"/>
  <path class="cls-1" d="M129.7,112.32c-1.98-1.84-3.96-3.69-5.94-5.53,2.75.94,4.94,2.56,6.27,5.23-.11.1-.22.2-.33.3Z"/>
  <path class="cls-1" d="M122.06,100.19c.08,1.24.16,2.48.25,3.71-1.28-1.13-1.11-2.44-.92-3.75.22.01.45.02.67.03Z"/>
  <path class="cls-1" d="M122.08,106.93l-.2,1.23c-.14,0-.28-.02-.43-.03v-1.28c.21.03.42.06.63.08Z"/>
  <path class="cls-1" d="M162.54,20.3c.77-.83,1.54-1.66,2.31-2.49.06,1.58-1.14,2.02-2.31,2.49Z"/>
  <path class="cls-1" d="M65.14,87.59c.96-.52,1.98-.95,2.86-1.59,1.71-1.26,3.33-2.63,4.99-3.96-2.28,2.46-4.55,4.91-6.83,7.37-.35-.15-.73-.26-1.04-.47-.27-.18-.48-.47-.71-.71.27-.21.54-.42.82-.63h-.08Z"/>
  <path class="cls-1" d="M65.14,87.59h.08c.07-3.2,2.4-4.6,4.78-5.96-1.62,1.99-3.24,3.98-4.86,5.96Z"/>
  <path class="cls-1" d="M65.83,77.64c-1.07,1.64-2.73,1.78-4.14,3.04q1.39-2.07,4.14-3.04Z"/>
  <path class="cls-1" d="M66.5,82.08c-.51.81-1.02,1.63-1.53,2.45-1.16-1.51-.9-1.92,1.54-2.44h0Z"/>
  <path class="cls-1" d="M71.25,87.43c1.16-2.55,3.33-4.1,5.59-5.55-1.8,1.91-3.1,4.33-5.59,5.55Z"/>
  <path class="cls-1" d="M76.84,90.03q-.48,1.4-1.98.15c1.28-1.31,2.56-2.62,3.83-3.94-.62,1.26-1.24,2.53-1.86,3.79Z"/>
  <path class="cls-1" d="M79.12,82.41c.71-.62,1.43-1.23,2.14-1.85.13.14.27.29.4.43-.71.65-1.42,1.3-2.13,1.95-.14-.18-.28-.35-.41-.53Z"/>
  <path class="cls-1" d="M118.44,20.07c-2.79,3.05-5.57,6.1-8.39,9.12-.23.25-.76.23-1.15.33.28-.53.44-1.18.85-1.58,2.5-2.49,5.04-4.94,7.59-7.38.27-.26.73-.33,1.1-.49Z"/>
  <path class="cls-1" d="M111.01,23.72c.52-.55,1.04-1.1,1.55-1.65l.33.29c-.46.59-.93,1.19-1.39,1.78-.16-.14-.33-.28-.49-.41Z"/>
  <path class="cls-1" d="M117.85,7.46c-1.27,1.51-2.54,3.01-3.81,4.52,1.27-1.51,2.54-3.01,3.81-4.52Z"/>
</svg>