<?xml version="1.0" encoding="UTF-8"?>
<svg id="Layer_1" data-name="Layer 1" xmlns="http://www.w3.org/2000/svg" viewBox="0 0 192.16 135.52">
  <defs>
    <style>
      .cls-1, .cls-2 {
        stroke-width: 0px;
      }

      .cls-2 {
        fill: #fff;
      }
    </style>
  </defs>
  <path class="cls-2" d="M67.83,127.34c-.42.26-.83.51-1.25.77-.89-.25-1.21.18-1.33.95.81.37,1.32.18,1.67-.46,1.36.22,1.59-.86,2-1.73,1.4-.27,2.12-1.26,2.62-2.5-.95.75-2.56.83-2.56,2.56l-1.22.45.08-.04Z"/>
  <path class="cls-2" d="M70.68,128.71c1.25.16,1.52-.59,1.67-1.58-1.63-.31-1.13,1.08-1.6,1.64-.62.74-1.24,1.49-1.86,2.23.66.21,1.24.15,1.33-.1.26-.69.32-1.46.46-2.2Z"/>
  <path class="cls-2" d="M165.15,42.16c-1.12-.3-1.67.55-2.32,1.18-.8.63-1.58,1.3-2.41,1.87-1.35.93-2.75,1.79-4.13,2.68-1.64,1.22-3.28,2.43-4.53,3.36.07,2.11.16,3.74.16,5.38.01,3.42-.69,6.83-.03,10.25.22,1.17.39,2.37.4,3.56.04,6.39-.01,12.78.03,19.16.04,5.65.16,11.31.25,16.96,0,.4.04.8.13,1.19.62,2.61.32,5.21.09,7.84-.37,4.21-.52,8.43-.75,12.65-.01.24.16.48.25.72.16-.02.33-.04.49-.06.02-.75.03-1.49.05-2.24.14-3.58.32-7.16.43-10.75.08-2.54.37-5.13.06-7.63-.71-5.65-.35-11.31-.57-16.96-.18-4.69.06-9.4.07-14.11,0-1.91-.09-3.83-.17-5.74-.07-1.67-.16-3.33-.25-5-.08-1.51-.27-3.02-.23-4.52.08-2.71.37-5.41.44-8.11.05-1.83.7-3.24,2.24-4.23.67-.43,1.42-.78,1.4-1.76.45,0,.99.15,1.35-.03,2.09-1.08,3.91-2.5,5.16-4.54.79-.38,1.57-.76,2.36-1.14,1.45-1.68,3.64-2.61,4.73-4.66-1.53,1.12-2.97,2.34-4.36,3.61-.24.22-.25.7-.36,1.06Z"/>
  <path class="cls-2" d="M13.64,49.1c.54-.72,1.12-1.42,1.59-2.18.16-.25.05-.67.06-1.01-.28.01-.56.03-.84.04.37-.59.66-1.24,1.12-1.75,2.57-2.86,6.01-4.36,9.21-5.96,1.31,1.11,2.51,2.13,3.7,3.14-2.17,2.24-6.47,4.76-6.85,4.06.22-.25.42-.48.94-1.07-1.63.42-2.45.82-2.75,2.19-.23,1.01-1.52,1.61-1.86,3.27.64-.54.91-.71,1.1-.95.8-1.01,1.76-1.66,2.99-2.2,1.95-.84,3.69-2.15,5.54-3.23,1.67-.98,2.98-2.42,5.03-2.95,2.2-.57,4.21-1.82,6.31-2.76,1.01-.45,2.02-.92,3.06-1.27,2.93-.98,5.92-1.73,8.97-2.3,5.08-.96,10.12-2.13,15.2-3.1,2.26-.43,4.56-.7,6.86-.88,1.73-.14,3.48-.01,5.39,0,.46,3.7.63,7.36.08,11.18-2.36-.44-4.62-.69-6.77.53h2.84c.05.72-.05,1.7.15,1.76.82.26,1.55,1.27,2.57.54.84-.59,1.38-.31,2.04.78l-6.14-.03c.76.9,1.16,1.54,1.71,1.98,1.02.8,1.08.81-.05,1.99-.76-.59-1.8-1.02-2.19-1.79-.42-.81-.22-1.94-.3-3.12-.98,1.09-1.25,2.16-.47,3.29.86,1.25,1.82,2.43,2.75,3.63.81,1.05,1.64,2.1,2.5,3.2-1.89,1.69-3.96,1.72-6.46,1.35,2.2,1.32,3.22,1.56,4.46.59,1.05-.81,1.97-.85,3.1-.5.22.61.43,1.18.64,1.75-.52.59-1.01,1.15-1.25,1.43-1.76-.32-3.25-.6-4.91-.91.33.62.53,1.01.73,1.39.8-.17,1.54-.33,2.24-.48.24.55.41.91.57,1.28-1.21-.1-2.42-.19-3.63-.29,0,.16,0,.33-.01.49,1.21-.07,2.43-.14,3.64-.21q2.01.27,2.12,1.6c-2.85-.01-5.72-.23-8.55.02-2.84.26-5.64.99-8.85,1.58.65-.67.96-.99,1.26-1.31-.09-.14-.19-.28-.28-.42-1.35.63-2.75,1.18-4.04,1.92-.5.28-.91.92-1.11,1.48-.48,1.41.14,3.19-1.43,4.25-.04.02,0,.15,0,.23.1,1.29-.73,2.43-.61,3.71.9.55,1.78,1.08,2.66,1.62.08-.08.16-.17.23-.25-.61-.66-1.22-1.33-1.81-1.98.4-.98.8-1.94,1.32-3.2.4.79.68,1.32,1.08,2.11.96-1.88,2.15-3,4.32-1.88-.45.22-.77.38-1.09.53-.05.18-.1.36-.15.54,2.34-.25,4.32.64,6.38,1.6-.26,2.02,2.45,2.09,2.83,3.85-.28.31-.54.6-.81.89,1.67.42,3.2.81,5.24,1.32-.74-.93-1.11-1.41-1.6-2.03,1.98-.56,2.15-2.43,3.09-3.48-.44-.71-.81-1.29-1.17-1.87l-.08.07c.53-.03,1.07-.06,1.61-.09-.11-.41-.23-.83-.37-1.31.59-.23,1.08-.42,1.91-.75.29,2.36.54,4.51.81,6.67.11.9-.15,1.79.52,2.68.43.56.05,1.4-.96,1.31-.65-.06-.9.1-.62.75-2.61-.08-5.18-.09-7.59,1.27-.58.32-1.49.12-2.24.04-.43-.05-.84-.32-1.38-.55-.4,1.05-.53,1.9.38,2.55,1.17.83,4.78.33,5.08-.92.17-.73.25-1.06.89-1.22,1.62-.4,3.24-.78,4.86-1.16.23.12.66.26.65.35-.06.51-.23,1.01-.36,1.52h1.23c-.04.27,0,.59-.13.69-1.75,1.28-3.52,2.55-5.31,3.77-.23.16-.62.13-.93.13-1.26.01-2.56.16-3.78-.06-.82-.15-1.36-.63-1.88.51-.18.4-1.08.56-1.33,1.35-.91-.22-1.86-.35-2.73-.7-1.66-.66-3.25-1.04-4.83.18-.09.07-.31-.03-.46-.05-.95-.5-1.9-1.01-2.85-1.51.55,1.49,1.6,1.79,2.91,1.48.38.3.74.83,1.13.85,2.2.15,4.4.26,6.6.21.73-.02,1.45-.57,2.18-.89.43-.19.85-.57,1.28-.59,1.5-.07,3.01-.02,4.52,0,.01.07.02.15.04.22-2.56.98-5.12,1.97-7.7,2.96.1,1.85-.63,3.44.05,5.37.3-.54.52-.78.58-1.05.57-2.6.56-2.64,3.14-2.53.68.03,1.4.28,2.02.58,1.07.52,2.03,1.31,3.14,1.74,2.69,1.03,4.13,3.29,5.27,5.61,1.13,2.29,2.63,4.13,4.48,5.82,2.06,1.88,4.09,3.82,5.93,5.92,1.39,1.58,2.66,3.33,3.61,5.2,1.44,2.83,2.57,5.82,3.81,8.76.42.99.77,2.01,1.15,3.01.17-.06.33-.12.5-.18-.83-2.46-1.67-4.91-2.48-7.37-.27-.83-.64-1.7-.63-2.54.06-2.79.26-5.58.44-8.36.28-4.3.65-8.6.86-12.9.14-2.87.11-5.76.09-8.63-.02-2.85,1.02-5.24,2.93-7.3.81-.87,1.64-1.73,2.46-2.6,1.25-.87,2.5-1.74,4.11-2.86.04,3.31.19,6.17.09,9.03-.19,5.35-.73,10.69-.77,16.04-.07,9.03.12,18.06.22,27.09,0,.19.16.37.5,1.11.14-1.02.28-1.5.26-1.97-.08-1.51-.28-3.01-.31-4.52-.08-3.84-.1-7.67-.14-11.51-.03-2.72-.15-5.43-.05-8.14.16-4.87.5-9.73.68-14.59.15-4.07.18-8.15.24-12.22,0-.43-.17-.86-.26-1.33-2.42,1.05-2.72,1.3-4.63,3.8-.82.61-1.64,1.23-2.47,1.83-.97.71-1.96,1.41-3.33,2.39-.02,3.49.04,7.4-.07,11.31-.11,3.99-.17,8-.65,11.96-.46,3.78.25,7.7-1.27,11.44-.87-1.47-2.03-2.99-2.02-4.51.06-8.3.41-16.59.64-24.88.03-1.07-.05-2.14-.08-3.28-1.93.56-3.33,1.35-4.41,2.69-.45.55-1.06.97-1.58,1.47-.82.78-1.67,1.45-2.87,1.09-.43,1.02-.8,1.89-1.07,2.53.37.76.85,1.3.87,1.85.08,3.17.52,6.37-.55,9.58-1.67-.67-2.18-2.15-2.9-3.45-1.79-3.25-3.78-6.29-7.47-7.7-.66-.25-1.21-.78-1.87-1.06-.79-.34-1.63-.56-2.45-.81-.4-.12-.82-.19-1.23-.28-.04-.16-.07-.32-.11-.48.87-.46,1.71-1.04,2.63-1.36,1.79-.63,3.83-.8,5.38-1.77,1.76-1.1,3.57-2.63,4.53-4.42,1.44-2.69,1.5-5.77.28-8.74-.3-.72-.52-1.55-.51-2.32.07-3.98.12-7.92,1.21-11.86,1.31-4.75,1.6-9.56-1.38-14.04-.83-1.24-1.82-2.89-.18-4.45.06-.06-.31-.57-.51-.93,1.18-.65,2.26-1.18,3.27-1.82,1.03-.65,2-1.4,3.34-2.36.06,1.72.16,3.06.13,4.39-.07,2.79-.25,5.59-.33,8.38-.1,3.6-.09,7.19-.22,10.79-.25,6.85-.56,13.69-.87,20.54-.05,1.08.22,1.87,1.28,2.25,1.3-.43,7.8-5.12,8.81-6.46-.58.25-.96.34-1.25.56-1.77,1.35-3.48,2.78-5.29,4.08-.53.38-1.45.75-1.9.53-.46-.22-.77-1.17-.8-1.81-.09-2.47-.12-4.96-.02-7.43.33-8.14.74-16.27,1.12-24.4.15-3.24.34-6.48.46-9.72.02-.61-.21-1.24-.36-1.85-.21-.84-.4-1.69-.69-2.51-.4-1.12-.16-2.03.75-2.75,1.93-1.53,3.84-3.08,5.85-4.51.73-.52,1.69-.71,2.61-1.07.44,3.45.04,26.67-.56,28.08-.14-3.28-.19-6.56-.2-9.84,0-3.22.02-6.43.04-9.65-.46.74-.65,1.5-.65,2.26-.02,5.75-.07,11.5,0,17.25.08,5.91.3,11.82.45,17.73.04,1.49.36,2.91.92,4.3.23-.28.36-.58.3-.82-.59-2.44-.49-4.91-.47-7.39.02-2.74.22-5.47.39-8.2.31-5.26.21-10.54.34-15.82.13-5.42.34-10.84.49-16.26.03-.91-.07-1.83-.12-3.02-4.73,1.33-7.64,4.76-11.25,7.15-1.07-.73-2.23-1.53-3.44-2.36,1.27-1.22,2.42-2.46,3.7-3.54,2.14-1.79,4.4-3.44,6.55-5.22,1.96-1.62,3.84-3.32,5.76-4.99,6.17-3.4,11.31-8.26,17.16-12.1.35-.23.55-.69.83-1.04-.65-.03-1.14.16-1.55.46-3.3,2.38-6.6,4.75-9.86,7.18-2.29,1.72-4.51,3.53-6.76,5.3-.6.39-1.25.72-1.78,1.19-4.61,4.07-9.84,7.24-14.99,10.54-.19.12-.43.18-.75.32-.24-.41-.57-.78-.69-1.21-1.27-4.28-3.73-7.92-6.21-11.54-4.14-6.03-9.52-10.41-16.51-12.86-5.14-1.81-10.32-1.99-15.54-.93-7.17,1.46-13.5,4.79-19,9.57-3.6,3.13-6.22,7.01-7.92,11.5-1.93,5.11-3.42,10.29-3.06,15.84.05.78-.21,1.58-.22,2.38-.01.88-.41,1.44-1.02,2.04-1.2,1.16-2.38,2.38-3.36,3.73-1.91,2.63-1.39,4.82,1.44,6.36,2.38,1.29,4.78,2.56,7.24,3.68.98.45,1.79.85,2.05,1.95.11-.89.21-1.77.3-2.5-.84-.06-1.67.09-2.31-.2-1.29-.59-2.48-1.41-3.7-2.13.09-.18.18-.37.26-.55,1.79-.73,2.17-2.46,2.99-4.27-.72.44-1.23.74-1.73,1.04Z"/>
  <path class="cls-2" d="M67.93,58.1c.92.1,1.7,1.42,2.83.28-.98-.1-1.9-.19-2.82-.28-1.04,1.04-3.05.09-3.98,2.09,1.11.07,2.25-.19,2.85.26,1.51,1.14,2.57.22,3.77-.53-.98-.06-1.97-.13-2.87-.19.08-.57.15-1.1.23-1.63Z"/>
  <path class="cls-2" d="M26.47,61.57c.39-.53.77-1.07,1.21-1.66-.38-.18-.63-.3-.89-.42.43-.62,1.64-.64,1.4-1.97-.91.57-1.72,1.08-2.54,1.59-.09-.08-.19-.17-.28-.25l.78-1.56-.27-.25c-.66.55-1.31,1.1-1.94,1.62.44.63,1.05,1.17.95,1.42-.52,1.28.4,1.49,1.18,1.86-.3.45-.59.91-.89,1.36.63-.08.99-.35,1.34-.64.36-.3.69-.62,1.22-1.09h-1.25Z"/>
  <path class="cls-2" d="M182.15,36.81c.17-.43.44-.86.5-1.31.16-1.34,1.04-2.06,2.06-2.73,1.46-.95,2.91-1.93,4.32-2.94.29-.21.45-.62.87-1.26-3.53.9-5.09,4.37-8.22,4.7.17,1.2.34,2.39.52,3.59-.17,1.24-.46,2.48-.49,3.73-.21,7.33-.36,14.65-.52,21.98-.03,1.24.06,2.47.09,3.71.16,0,.33.02.49.02.06-.51.18-1.03.18-1.54.04-8.05.05-16.09.09-24.14,0-1.27.07-2.55.11-3.82Z"/>
  <path class="cls-2" d="M150.4,41.52c.62.68,1.21.5,1.88.02,1.03-.75,2.09-1.45,3.17-2.14,4.31-2.72,8.63-5.42,12.93-8.14.41-.26.77-.61,1.15-.92-3.73,1.91-7.18,4.17-10.69,6.33-2.78,1.7-5.64,3.27-8.47,4.9-.45-3.16-.69-6.32-.17-9.5.19-1.17.32-2.35-.61-3.72-.02,3.74,0,7.15-.06,10.56-.02,1.01.22,1.86.88,2.6Z"/>
  <path class="cls-2" d="M93.9,125.6c-.35-1.05-.6-2.14-1.06-3.13-.84-1.81-1.95-3.49-2.68-5.34-1.23-3.1-3.42-5.29-6.05-7.21-1.13-.82-2.05-1.96-2.96-3.04-.76-.91-1.36-1.95-2.04-2.94,1.01,2.56,2.19,5.01,4.56,6.51,2.86,1.81,4.86,4.25,6.23,7.34,1.18,2.66,2.68,5.18,4.04,7.77.14,1.72,1.13,3.04,1.9,4.46.14-.07.28-.14.43-.21-.79-1.4-1.58-2.81-2.37-4.21Z"/>
  <path class="cls-2" d="M122.98,112.89c-.03,1.91-.08,3.83-.09,5.74-.02,1.91.04,3.82-.02,5.73-.06,1.83-.24,3.66-.36,5.49,1.36-5.64,1.07-11.31.48-16.98.86-.54.6-1.42.61-2.18.05-4.87,0-9.74.11-14.61.24-9.96-.04-19.94.63-29.89.03-.38-.16-.77-.25-1.15-.37.32-.42.61-.42.9-.11,11.58-.2,23.16-.33,34.74-.05,4.07-.23,8.13-.35,12.2Z"/>
  <path class="cls-2" d="M22.19,63.73c-.92.92-1.21,1.87-.35,3.04.79,1.07,1.03,2.31.35,3.53-.78,1.39-.3,2.37.84,3.23.2,3.02.9,5.96,3.19,8.02,1.42,1.27,2.05,2.88,3.06,4.33.86,1.23,1.83,2.43,2.95,3.42,4.9,4.33,10.61,7.36,16.62,9.77,4.42,1.78,8.18,4.48,12.03,7.16-3.61,4.57-6.05,12.42-4.83,15.78.29-2.64.33-5.15,1.77-7.48.54.62.98,1.08,1.36,1.57,1.16,1.5,2.17,3.13,3.47,4.48,1.07,1.11,2.01,2,.77,3.52-.11.14-.02.45-.02.68.02,1.02.05,2.04.08,3.05.03.92.07,1.83.1,2.75.19,0,.39,0,.58,0,0-.99-.22-2.06.07-2.96.33-1.02,1.13-1.88,1.69-2.83.11-.18.06-.46.08-.7.66-.97,1.32-1.94,1.98-2.91.9-.39,1.8-.78,2.77-1.21,2.38,2.69,3.57,5.88,3.93,9.42-.9.2-1.19.9-1.24,1.8.4-.62.8-1.23,1.2-1.85.58.81,1.17,1.62,1.75,2.43-1.02-4.12-2.38-8.14-4.53-11.86.18-.65.36-1.3.66-2.36-.8.67-1.28,1.07-2.02,1.69-.08-1.45.69-2.25.96-3.2.26-.92.39-1.87.58-2.8.13,0,.26,0,.4,0,.46,1.52.92,3.05,1.54,5.08.55-2.33.96-4.08,1.47-6.2,2.95,2.84,4.32,6.53,6.77,9.4,2.49,2.92,3.95,6.43,5.42,9.93-.73-3.99-2.61-7.4-5.02-10.59-1.72-2.28-3.39-4.65-4.75-7.15-.75-1.37-1.44-2.62-2.89-3.38-.17-4.27-.3-8.48-3.24-11.99-.64-.76-.93-.75-1.62-.52.05.21.05.31.09.37.19.25.38.51.6.74,1.96,2,3.46,4.18,3.09,7.19-.06.45.19.93.24,1.4.21,2.26.51,4.53-.08,7.27-.38-.71-.57-1.02-.72-1.35-.99-2.18-2.21-4.15-3.85-5.99-1.98-2.22-4.49-2.54-7.08-2.93-.16-.02-.41.54-.61.82-.85-.37-1.78-.62-2.54-1.13-3.57-2.41-7.13-4.75-11.21-6.3-4.92-1.88-9.5-4.48-13.72-7.67-2.45-1.85-4.54-4-5.78-6.88-.25-.57-.55-1.24-1.03-1.57-2.15-1.45-3.01-3.59-3.54-5.98-.19-.83-.56-1.63-.84-2.44-.44-1.02-.65-1.98-.3-3.16.43-1.49.36-3.04-.41-4.53-.3-.59-.23-1.36-.33-2.05,1.82,1.98,3.63,3.96,5.46,5.93,2.04,2.19,3.67,1.98,5.58-1.06-.84.52-1.35.84-1.86,1.14-1.41.83-1.71.81-2.95-.28-2.76-2.42-4.91-5.39-7.24-8.2-.24-.28-.34-.73-.37-1.12-.13-1.43-.34-2.86-.27-4.29.07-1.39.64-2.7,2.01-3.31,1.31-.58,2.49-.02,3.55.79.38.29.7.65,1.07.96.29.25.6.48.89.72-.37-1.01-.99-1.72-1.67-2.36-1.19-1.13-2.71-1.7-4.16-.94-1.51.8-2.5,2.25-2.4,4.12.15,2.85.18,5.74,2.41,7.96Z"/>
  <path class="cls-2" d="M128.93,87.17c-.07,1.01-.14,2.01-.22,3.02.15,0,.29-.01.44-.02-.09-1.02-.18-2.03-.26-3.05,1.05-.63.69-1.71.74-2.6.22-3.82.33-7.64.51-11.47.09-1.99.17-3.99.36-5.97.06-.67.25-1.5.69-1.92,1.55-1.47,3.2-2.86,4.9-4.17,1.88-1.45,3.89-2.75,5.79-4.17.92-.69,1.74-1.53,2.66-2.36-1.07-.5-1.6.2-2.19.67-.87.7-1.67,1.49-2.55,2.17-2.96,2.29-5.86,4.68-8.96,6.77-1.06.71-1.24,1.75-1.95,2.51.93,1.59.95,1.59.85,3.63-.18,3.42-.41,6.84-.58,10.27-.11,2.23-.15,4.46-.23,6.69Z"/>
  <path class="cls-2" d="M100.21,28.5c.12,1.42.4,2.84.31,4.24-.22,3.74-.66,7.46-.89,11.2-.11,1.82.12,3.67.06,5.5-.12,3.27-.35,6.53-.52,9.79-.22,4.14-.41,8.29-.67,12.42-.08,1.34.28,2.45,1.38,3.61,1.04-.76,2.05-1.5,3.06-2.23,1.1-.8,2.19-1.6,3.3-2.38.97-.67,2.21-1.03,2.9-2.69-3.62,1.83-6.22,4.45-9.6,6.14-.14-.62-.27-.92-.26-1.2.13-3.35.28-6.7.44-10.05.23-4.78.78-9.57.61-14.34-.17-4.83.45-9.55.94-14.3.18-1.79.06-3.49-.38-5.19-.06-.22-.46-.35-.7-.52.91-1.81,1.19-5.55.37-7.12-.44,2.35-.35,4.73-.34,7.11Z"/>
  <path class="cls-2" d="M40.71,47.77c-.29.31-.58.63-.83.9,1.5-.14,2.99-.11,4.4-.44,1.42-.33,2.75-1,4.16-1.54-.03-.22-.08-.65-.13-1.07,3.05-.86,5.94-1.67,8.8-2.47,1.18.92,1.86,2.02.6,3.52l-5.45-.02c-.02.12-.03.24-.05.36.77.28,1.54.55,2.35.84-1.28.72-2.82.75-3.72,2.14,2.01-.63,4.02-1.25,6.03-1.88l.14.36c-.37.31-.73.61-1.24,1.04,1.68.59,2.42-.89,3.59-1.17,1.25-.29,2.41-.96,3.8-1.55-.79-.6-1.33-1.02-2.14-1.64,1.15-.8,2.11-1.47,3.09-2.16-3.37-1.62-4.42-1.74-6.69-1.03-3.71,1.16-7.43,2.31-11.16,3.38-1.17.34-2.42.39-3.82.6.49.55.84.94,1.37,1.53-1.27.14-2.21.24-3.15.35.25-.27.49-.54,1.17-1.29-2.24.22-3.9.38-5.56.53,0,.16-.01.32-.02.48.89,0,1.78-.02,2.67.02.61.03,1.21.14,1.82.21Z"/>
  <path class="cls-2" d="M30.78,118.72c-1.41.41-1.48,1.71-1.66,2.91.53-.99,1.05-1.98,1.58-2.98.92-.63.84.22.98.68.86,2.73,1.71,5.46,2.57,8.19.2.63.36,1.32,1.31,1.75-.21-1.91-.39-3.58-.61-5.59-.46.61-.66.87-1,1.32-1.25-3.9-2.35-7.64-2.44-11.57-.08-3.38-1.13-6.21-3.73-8.48-1.68-1.47-3.26-3.08-4.74-4.74-1.63-1.82-3.1-3.79-4.73-5.8,1.6-1.32,2.98-2.45,4.37-3.61,1.06,1.94,1.93,3.64,2.91,5.27,1.07,1.78,2.03,3.69,3.4,5.21,4.2,4.68,9.05,8.57,14.88,11.07,3.06,1.32,5.82,2.97,7.87,5.68.73.97,1.62,1.83,2.43,2.74.12-.12.23-.23.35-.35-2.32-2.96-4.52-6-8.12-7.71-2.88-1.37-5.8-2.73-8.44-4.48-4.01-2.65-7.67-5.76-10.18-10-1.22-2.06-2.55-4.05-3.66-6.15-.36-.69-.25-1.64-.28-2.48-.03-.71.05-1.43.08-2.15.07-1.64-.44-3.32.38-4.93.11-.21-.23-.64-.4-1.11-1.05,1.39-.95,2.76-.75,4.09.38,2.55-.5,4.45-2.58,5.97-3.5,2.54-6.67,5.46-9.59,8.66-3.1,3.4-6.27,6.73-9.38,10.12-.59.64-1.04,1.41-1.49,2.16-.14.23-.07.58-.11.96,2.13.42,1.13-2.36,2.28-2.38,9.39,4.18,16.29,10.68,21.33,19.28-.18-1.52-1.18-2.56-1.9-3.74-3.72-6.06-8.89-10.6-14.94-14.22-1.19-.71-2.37-1.44-3.82-2.32,1.96-1.63,3.14-3.71,5.49-4.42,2.29,1.81,4.5,3.51,6.66,5.29,1.07.88,2.03,1.91,3.03,2.87-.2.35-.39.7-.59,1.05l.3.24c.25-.27.49-.54.74-.81,2.57,1.62,4.95,3.42,6.33,6.25.42.85.86,1.77,1.52,2.42,1.89,1.84,2.74,4.25,3.87,6.51.16.32.34.64.54,1.02.19-.21.29-.29.28-.33-.63-1.84-1.2-3.71-1.97-5.49-.25-.59-1.08-.9-1.56-1.42-.37-.4-.8-.91-.85-1.4-.35-3.3-3.93-4.21-5.04-6.92-.02-.05-.14-.07-.21-.1-1.97-.84-3.35-2.43-4.83-3.88,2.11-2.41,4.22-4.82,6.33-7.23.43-.33.86-.67,1.44-1.12.95,1.01,1.8,2.04,2.79,2.93,2.34,2.1,3.4,4.71,3.43,7.82.02,1.81.09,3.62.13,5.43Z"/>
  <path class="cls-2" d="M192.16,54.57c-.74,0-1.26-.05-1.78,0-.88.08-1.69.25-2.19,1.15-2.1,3.77-3.95,7.65-4.91,11.89-.16.72-.2,1.47-.3,2.2.14.02.29.05.43.07.24-.72.47-1.45.84-2.57,1.51,1.34,2.71,2.41,3.93,3.49-1.28.66-2.38,1.24-3.68,1.91-.33-.67-.83-1.48-1.84-.74-.05.47-.18.95-.13,1.42.3,2.77-.39,5.26-1.84,7.62-1.45,2.35-2.44,4.87-2.07,7.71.24,1.8.59,3.58.93,5.56-.26.7-.56,1.69-1,2.61-.93,1.93-1.67,4.03-2.97,5.68-1.5,1.9-2.42,4.07-3.61,6.11-.1.18.12.54.25,1.03.4-.28.63-.44.87-.6.28-.18.58-.35.92-.56,1.33,2.9,2.58,5.63,3.86,8.4.4-.23.98-.76,1.16-.64,1.43.9,2.44-.18,3.69-1.01-.61,2.06-1.27,3.57-3.26,3.95-.28.05-.51.38-.76.57-1.21.89-2.34,1.94-3.65,2.63-1.77.91-3.57,1.69-4.79,3.37-.18.25-.48.42-.73.61-2.94,2.23-3.62,5.42-3.73,8.84,0,.06.1.11.2.22.35-1.12.68-2.21,1.04-3.29,1.01-3.04,2.65-5.73,5.53-7.17,1.87-.94,3.57-2.06,5.27-3.22,2.17-1.48,4.36-2.94,6.55-4.39,1.01-.67,2.04-1.29,3.06-1.94-.1-.18-.21-.37-.31-.55-1.25.65-2.51,1.3-4.22,2.18.92-1.43,1.52-2.37,2.19-3.42-1.74-.54-2.29,1.29-3.6,1.28.37-1.26,1.71-1.8,1.94-3.4-1,.52-1.74.9-2.47,1.28.56-1.32,1.17-2.43.3-4.06,2.03,1.56,3.24,3.43,5.48,3.84-.89-.79-1.77-1.6-2.68-2.37-1.96-1.67-2.8-3.83-2.8-6.35,0-.72.03-1.44.09-2.16.27-3.22.07-6.36-1.28-9.38-.44-.99-.52-2.17-.61-3.27-.26-3.16.78-5.96,2.58-8.51.97-1.37,1.85-2.7,1.42-4.58-.23-1.01,1-1.58,2.02-1.02.69.38,1.33.85,2.02,1.24.18.1.44.08.51.09.65-.54,1.19-.99,1.47-1.21.08-1.12.1-1.9.2-2.68.29-2.2-.79-3.69-2.52-4.74-.85-.51-1.88-.73-2.91-1.11.07-1.68,2.05-1.69,2.31-3.13.15.06.3.13.45.19-.04.86-.09,1.71-.13,2.57.84-1.33,1.24-2.84,2.09-4.03,1.66-2.31,1.91-5.11,3.2-7.64"/>
  <path class="cls-2" d="M123.02,64.88c-.88.04-1.1-.02-1.19.06-2.49,2.47-4.97,4.94-7.42,7.45-.3.31-.55.8-.58,1.23-.13,1.82-.2,3.65-.22,5.48-.02,2.87.03,5.74.02,8.62-.01,5.1-.24,10.22-.02,15.31.35,8.01-.06,15.99-.5,23.97-.03.63-.15,1.27-.09,1.9.04.36.36.69.55,1.03.38-2.1.36-4.08.4-6.07.19-8.38.59-16.74.25-25.14-.32-8.05.13-16.13.28-24.19,0-.51.27-1.11.62-1.49,1.13-1.23,2.36-2.36,3.53-3.55,1.36-1.39,2.68-2.81,4.37-4.59Z"/>
  <path class="cls-2" d="M108.7,67.39c.05-.28.14-.56.14-.85.03-4.14.02-8.29.06-12.43.09-9.43.21-18.85.29-28.28.03-3.36-.06-6.72-.07-10.08,0-.99-.03-1.93-1.17-2.17-1,.94-2.12,1.69-2.81,2.72-1,1.49-2.34,2.32-3.91,2.98-.49.2-.88.63-1.31.96,3.54-.56,5.54-3.19,7.81-5.65.79,2.35.59,4.56.59,6.75,0,2.16.08,4.32.15,6.47.07,2.23.24,4.46.26,6.69.02,2.15-.07,4.3-.14,6.45-.07,2.24-.2,4.47-.27,6.71-.07,2.24-.11,4.48-.14,6.71-.03,2.16-.13,4.32-.03,6.48.1,2.17-.46,4.39.55,6.53Z"/>
  <path class="cls-2" d="M186.95,81.19c-1.17,2.46-2.22,4.67-3.27,6.88-.24.5-.52.99-.75,1.49-.92,1.95-.54,3.9,1.03,5.41,2.16,2.08,2.43,3.37,1.23,6.18.83,1.64,1.65,3.35,4.08,4.06-.53-.71-.86-1.15-1.19-1.59.33-.23.56-.39.81-.57-1.68-1.84-2.24-2.4.18-3.61-.71-.45-1.32-.85-2.08-1.33,1.26-.57,2.14.94,3.25-.59-2.54-.99-3.81-3.64-6.89-4.04.5-1.22,1.71-2.19.57-3.4-.1-.11.1-.62.28-.86.46-.64.93-1.29,1.48-1.85,1.42-1.47,1.2-3.53,1.93-5.25.08-.18-.41-.6-.65-.93Z"/>
  <path class="cls-2" d="M124.18,57.88c.15,0,.31-.01.46-.02,0-.56.06-1.13,0-1.69-.19-1.74-.55-3.48-.61-5.22-.24-7.81.34-15.61,0-23.42-.01-.24,0-.49.06-.71.49-1.67.17-3.31-.06-4.97-.22-1.57-.35-3.16-.4-4.75-.08-2.47-.06-4.95-.06-7.42,0-1.33-.3-2.57-.89-3.77-.23.47-.33.92-.31,1.36.12,2.3.26,4.6.4,6.9.12,1.91.28,3.81.35,5.72.09,2.62.63,5.19.4,7.86-.3,3.47.27,7-.27,10.48-.04.23.03.48.04.72.03,1.75.06,3.51.09,5.26.07,3.43.1,6.86.24,10.29.05,1.13.37,2.26.57,3.38Z"/>
  <path class="cls-2" d="M174.15,36.67c-.17,0-.35,0-.52,0-.05.29-.14.59-.14.88-.07,5.59,0,11.17-.57,16.75-.47,4.52-.38,9.09-.63,13.64-.23,4.14-.63,8.28-.85,12.42-.34,6.55-.05,13.09.53,19.62,0,.03.25.05.44.08-.08-2.08-.1-4.14-.26-6.2-.41-5.03-.59-10.04.09-15.06.13-.94.08-1.91.13-2.87.11-2.23.24-4.46.35-6.7.05-.96.19-1.92.12-2.87-.37-5.06.48-10.04.86-15.05.13-1.75.48-3.48.54-5.23.09-2.62.03-5.26.02-7.88,0-.51-.08-1.02-.12-1.54Z"/>
  <path class="cls-2" d="M45.91,41.83c2.14-.53,4.15-1.12,6.21-1.5.86-.16,1.1-.61,1.3-1.46,1.42,1.05,2.67,1.14,4.07-.05.52-.45,2.16-.53,2.41-.17.85,1.21,1.99.71,3.12,1.23-.58-1.54-1.04-2.76-1.56-4.12-1.97.6-4.26-.26-5.8,1.73-.15.2-.61.28-.9.24-1.22-.2-2.07.5-3.03,1.06-.81.48-1.71.88-2.62,1.08-1.32.28-2.32.94-3.22,1.95Z"/>
  <path class="cls-2" d="M129.65,7.69c-.2-.02-.41-.04-.61-.05-.13.42-.43.86-.37,1.25.53,3.47.64,6.92.39,10.44-.43,6.12-.52,12.27-.75,18.41-.15,4.07-.31,8.13-.45,12.2-.04,1.07-.01,2.14-.02,3.74.48-.69.71-.87.71-1.05.06-3.4.04-6.81.14-10.21.14-5.02.2-10.04.57-15.05.44-5.89.58-11.77.56-17.66,0-.68-.12-1.36-.18-2.04Z"/>
  <path class="cls-2" d="M145.09,86.9c-.16,0-.33,0-.49,0-.03,7.57-.05,15.14-.1,22.71-.05,7.61-.77,15.21-.67,23.25.48-.51.74-.67.74-.82.14-15.05.81-30.09.52-45.14Z"/>
  <path class="cls-2" d="M144.07,4.39c-.11.44-.37.9-.31,1.31.31,2.2-.09,4.4.17,6.63.42,3.55.26,7.16.37,10.74.13,4.22.52,8.44.38,12.65-.09,2.71.11,5.39.11,8.09,0,.4.23.79.35,1.19.39-.6.41-1.14.39-1.67-.12-2.54-.28-5.08-.38-7.62-.1-2.47-.14-4.94-.21-7.41-.07-2.39-.37-4.8-.15-7.16.31-3.36-.24-6.66-.27-9.99,0-1.1-.11-2.21,0-3.3.12-1.17.13-2.3-.43-3.45Z"/>
  <path class="cls-2" d="M112.62,22.86c-.06,0-.12,0-.17,0-.25,3.73-.63,7.46-.71,11.19-.14,6.86-.27,13.74-.06,20.6.09,2.95.34,5.86-.09,8.8,0,.05.2.13.53.33.18-2.07.66-4.05.46-5.96-.38-3.65-.88-7.27-.32-10.94.08-.54-.07-1.11-.07-1.67,0-3.9-.04-7.81.04-11.71.07-3.55.26-7.1.39-10.64Z"/>
  <path class="cls-2" d="M62.58,54.89c1.28,1.76,2.65,2.11,4.4,1.53.79-.26,1.68-.2,2.59-.29.17-.48.35-.98.54-1.5-1.24-.52-2.02-.03-2.87.7-.88.76-2.43.7-3.12.08-1.02-.92-.19-1.68.11-2.51,1.05-.06,1.96-.12,3.07-.19-1.2-2.2-3.16-1.13-4.66-1.29-1.14-.13-2.17.65-2.52,2.29,1.33-.67,2.15-2.04,3.54-1.53-.38.95-.73,1.81-1.08,2.69Z"/>
  <path class="cls-2" d="M129.52,93.82c-.17,0-.34-.01-.51-.02-.04,12.04-1.29,24.04-.8,36.1.44-12.03.88-24.06,1.32-36.08Z"/>
  <path class="cls-2" d="M146.25,53.61c-.18.01-.37.03-.55.04-.27,10.15-.54,20.3-.81,30.45.17,0,.34,0,.51.01.28-10.17.56-20.34.85-30.51Z"/>
  <path class="cls-2" d="M143.74,46.26c-.13-.13-.25-.27-.38-.4-4.76,3.5-9.58,6.91-15.02,9.29.07,1.28.78,1.17,1.45.76,1.07-.67,2.02-1.55,3.12-2.16,3.42-1.88,6.69-3.98,9.76-6.39.4-.31.71-.74,1.07-1.11Z"/>
  <path class="cls-2" d="M173.19,4.19c0,1.54,0,3.08-.03,4.62-.02,1.11-.05,2.23-.15,3.33-.25,2.53-.66,5.06-.79,7.59-.14,2.7-.05,5.42-.03,8.13,0,.39.18.77.28,1.16.34-.82.36-1.6.35-2.37-.05-2.46-.38-4.95-.12-7.38.53-5.01,1.25-10,.49-15.09Z"/>
  <path class="cls-2" d="M70.76,36.28c.5.57.81.83.99,1.16.17.32.2.71.25.9,1.23.11,2.31.18,3.39.3,1.12.12,2.02-.12,2.42-1.37-1.99-2.17-4.33-1.64-7.04-.98Z"/>
  <path class="cls-2" d="M112.41,66.55c.3.22.49.4.53.38,3.25-2.38,6.49-4.78,9.73-7.18-4.05,1.31-7.05,4.14-10.26,6.8Z"/>
  <path class="cls-2" d="M149.68,21.34c.9-4.26,1.03-11.69.22-13.28.04,2.21.33,4.42.31,6.62-.02,2.22-.34,4.44-.54,6.66Z"/>
  <path class="cls-2" d="M43.75,67.64c.16.03.32.06.47.09.58-2,1.18-4,1.74-6.01.22-.81.17-1.55-.85-1.93-.13.57-.5,1.2-.34,1.62.68,1.83-.71,3.18-.93,4.78-.07.48-.07.97-.1,1.45Z"/>
  <path class="cls-2" d="M57.75,77.82c-.47.03-1.13.06-2.3.13.83.4,1.13.54,1.49.71-.41.24-.71.43-1.03.61.73,1.05,1.18,2.27,2.55,1.83-.24-1.09-.45-2.05-.71-3.28Z"/>
  <path class="cls-2" d="M49.93,66.19c.79-.29,1.59-.41,2.15-.85.64-.51,1.06-1.3,1.6-1.95.44-.53,1.24-.83,1.31-1.97-1.84,1.45-3.45,2.72-5.05,4-.07.06-.01.29-.01.77Z"/>
  <path class="cls-2" d="M69.82,94.21c.14.85.88,1.14,1.45,1.61,1.38,1.15,3.18,1.81,4.1,3.51.18.33.52.57.79.86-1.15-3.06-3.98-4.24-6.34-5.97Z"/>
  <path class="cls-2" d="M60.38,78.9c.43.62,1.04,1.49,1.68,2.43.27-.49.59-1.07.9-1.64.84.15,1.53.27,2.6.46-.84-1.04-1.52-1.44-2.45-1.39-.97.05-1.95.09-2.73.13Z"/>
  <path class="cls-2" d="M16.79,50c-1.67.61-3.17,2.18-2.71,2.78.41-.29.83-.58,1.29-.9.19.69.33,1.24.48,1.78.1-.02.21-.03.31-.05.21-1.19.42-2.38.64-3.63Z"/>
  <path class="cls-2" d="M116.72,10.98c1.56-1.51,2.92-2.83,4.35-4.22-2.67.93-4.01,2.21-4.35,4.22Z"/>
  <path class="cls-2" d="M113.64,12.2l-.53-.11c-.71,2.25-.34,4.58-.27,6.89.27-2.26.53-4.52.8-6.78Z"/>
  <path class="cls-2" d="M53.64,65.77c-1.35,1.77-1.3,2.91-.02,5.09l.02-5.09Z"/>
  <path class="cls-2" d="M43.73,81.03c-2.08-1.04-3.27.13-4.67.84,1-.14,1.1,1.71,2.26.84.23-.17.04-.9.04-1.42.66-.08,1.28-.15,2.37-.27Z"/>
  <path class="cls-2" d="M23.89,114.05c1.05-.7,1.98-1.49,2.89-2.96-1.79.68-2.58,1.61-2.89,2.96Z"/>
  <path class="cls-2" d="M62.62,60.32q-.81-1.08-2.31-.57,1.23,1.31,2.31.57Z"/>
  <path class="cls-2" d="M186.61,89.03c1.44,2.55,1.54,2.61,3.17,2.24-.88-.62-1.81-1.28-3.17-2.24Z"/>
  <path class="cls-2" d="M45.8,83.41c1.02-.05,1.75-.08,3.06-.15-.97-.73-1.48-1.1-2.11-1.57-.34.62-.58,1.05-.95,1.72Z"/>
  <path class="cls-2" d="M8.28,111.17c-.41-2.53-.47-2.57-2.62-2.09-.05.01-.05.27-.09.55h1.92c.3.58.54,1.06.79,1.53Z"/>
  <path class="cls-2" d="M49.8,52.18q1.84-.29,2.61-1.32c-1.03.11-1.75.53-2.61,1.32Z"/>
  <path class="cls-2" d="M61.41,84.47c-.65-.33-.31-1.85-1.86-.94.5.56.51,1.6,1.86.94Z"/>
  <path class="cls-2" d="M29,62.82q-1.8.58-2.3,1.81c.72-.56,1.42-1.12,2.3-1.81Z"/>
  <path class="cls-2" d="M73.27,83.55c1.26.32,2.02.1,2.95-.99-.9.2-1.41.28-1.9.42-.28.08-.52.27-1.05.56Z"/>
  <path class="cls-2" d="M58.85,74.53c-.5,1.43-.12,2.25,1.03,3.28-.4-1.26-.66-2.1-1.03-3.28Z"/>
  <path class="cls-2" d="M2.42,115.29q1.28-1.01,1.4-2.43c-.57,1-.98,1.71-1.4,2.43Z"/>
  <path class="cls-2" d="M44.18,60.32c-.2-.03-.4-.07-.6-.1-.07.82-.14,1.63-.21,2.45.1.01.21.02.31.04.16-.79.33-1.59.49-2.38Z"/>
  <path class="cls-2" d="M48.29,80.19c-.05.13-.11.26-.17.38.3.17.58.4.91.5.29.09.62.02.94.02.01-.11.02-.23.03-.34-.57-.19-1.14-.38-1.71-.57Z"/>
  <path class="cls-2" d="M70.44,122.55c-.12-.13-.24-.25-.36-.38-.48.26-1.21.26-1.09,1.16.03.2.16.38.33.76.44-.61.78-1.08,1.12-1.55Z"/>
  <path class="cls-2" d="M44.69,71.1c.18-.06.37-.12.55-.19-.2-.53-.41-1.06-.61-1.6-.15.05-.29.11-.44.16.17.54.33,1.08.5,1.62Z"/>
  <path class="cls-2" d="M56.5,84.48c0-.07,0-.13,0-.2h-1.54c0,.06,0,.13,0,.19h1.54Z"/>
  <path class="cls-2" d="M27.11,65.3l.44.41c.34-.39.68-.77,1.02-1.16-.15-.15-.31-.3-.46-.44-.33.4-.66.8-.99,1.19Z"/>
  <path class="cls-2" d="M65.15,130.93l.49.31c.25-.36.49-.72,1-1.46-.69.28-.94.31-1.08.45-.18.19-.28.46-.41.7Z"/>
  <path class="cls-2" d="M55.18,82.84c-.09-.09-.18-.18-.26-.26-.25.25-.5.5-.75.75.11.08.3.25.33.23.24-.22.46-.47.69-.71Z"/>
  <path class="cls-2" d="M26.28,108.33c-.79,0-1.5.16-.62.97.22-.35.42-.66.62-.97Z"/>
  <path class="cls-2" d="M64.73,72.4c.02-.14.05-.29.07-.43-.51-.06-1.02-.13-1.53-.19-.02.11-.04.22-.05.33.5.1,1.01.2,1.51.29Z"/>
  <path class="cls-1" d="M58.27,87.87c.16.02.38.12.46.05,1.57-1.22,3.17-.84,4.83-.18.87.35,1.82.47,2.73.7.25-.78,1.15-.94,1.33-1.35.52-1.14,1.07-.65,1.88-.51,1.23.22,2.52.07,3.78.06.31,0,.7.03.93-.13,1.79-1.23,3.56-2.49,5.31-3.77.13-.09.08-.42.13-.68h-1.23c.13-.52.3-1.02.36-1.53.01-.09-.42-.23-.65-.35h0c-.28-.65-.03-.81.62-.75,1.01.09,1.39-.75.96-1.31-.68-.89-.41-1.79-.52-2.68-.27-2.16-.53-4.32-.81-6.67-.83.32-1.33.52-1.91.75.14.49.25.9.37,1.31-.54.03-1.08.06-1.61.09.11-.71.22-1.42.33-2.13-1.45-.21-1.07.78-1.39,1.27-.32.49-1.35.5-1.03,1.66.41-.27.69-.52,1.02-.65.36-.14.76-.15,1.14-.22.36.58.72,1.16,1.17,1.87-.94,1.05-1.11,2.92-3.09,3.48.49.62.86,1.09,1.6,2.03-2.04-.52-3.56-.9-5.24-1.32.27-.29.53-.59.81-.89-.38-1.76-3.1-1.83-2.83-3.85-2.07-.96-4.04-1.85-6.38-1.6.05-.18.1-.36.15-.54.32-.16.64-.31,1.09-.53-2.17-1.12-3.37,0-4.32,1.88-.4-.78-.68-1.32-1.08-2.11-.52,1.25-.92,2.22-1.32,3.2.6.65,1.2,1.31,1.81,1.98-.08.08-.16.17-.23.25-.88-.53-1.75-1.07-2.66-1.62-.12-1.27.71-2.41.61-3.71,0-.08-.04-.21,0-.23,1.57-1.06.95-2.84,1.43-4.25.19-.56.61-1.2,1.11-1.48,1.29-.73,2.68-1.29,4.04-1.92.09.14.19.28.28.42-.31.32-.62.64-1.26,1.31,3.22-.6,6.01-1.33,8.85-1.58,2.83-.25,5.7-.03,8.55-.02q-.11-1.32-2.12-1.6s0,0,0,0c-.16-.36-.32-.73-.57-1.28-.7.15-1.44.31-2.24.48-.2-.37-.4-.77-.73-1.39,1.66.31,3.15.58,4.91.91.25-.28.74-.85,1.25-1.43-.21-.57-.42-1.15-.64-1.75-1.13-.35-2.06-.31-3.1.5-1.25.97-2.26.73-4.46-.59,2.5.36,4.57.34,6.46-1.35-.86-1.11-1.69-2.15-2.5-3.2-.93-1.2-1.89-2.38-2.75-3.63-.78-1.13-.51-2.2.47-3.29.08,1.18-.11,2.31.3,3.12.39.77,1.43,1.21,2.19,1.79,1.12-1.18,1.07-1.19.05-1.99-.56-.44-.95-1.08-1.71-1.98l6.14.03c-.65-1.08-1.2-1.37-2.04-.78-1.02.73-1.75-.28-2.57-.54-.19-.06-.1-1.04-.15-1.75h-2.84c2.15-1.23,4.4-.98,6.77-.54.56-3.82.39-7.48-.08-11.18-1.91,0-3.66-.13-5.39,0-2.3.18-4.6.45-6.86.88-5.08.98-10.12,2.14-15.2,3.1-3.05.58-6.03,1.32-8.97,2.3-1.05.35-2.05.82-3.06,1.27-2.1.94-4.12,2.19-6.31,2.76-2.05.53-3.36,1.97-5.03,2.95-1.85,1.08-3.59,2.39-5.54,3.23-1.23.53-2.19,1.19-2.99,2.2-.19.24-.46.41-1.1.95.34-1.65,1.63-2.25,1.86-3.27.3-1.36,1.13-1.77,2.75-2.19-.51.59-.72.82-.94,1.07.38.7,4.68-1.81,6.85-4.06-1.19-1.01-2.39-2.03-3.7-3.14-3.2,1.61-6.64,3.1-9.21,5.96-.45.51-.75,1.16-1.12,1.75l.08-.08c-1.82.3-2.61,1.9-3.66,3.09-1.39,1.58-.88,2.94,1.23,3.92,1.23.72,2.41,1.54,3.7,2.13.63.29,1.47.14,2.31.2-.09.73-.19,1.61-.3,2.5-.26-1.1-1.07-1.51-2.05-1.95-2.46-1.12-4.86-2.38-7.24-3.68-2.83-1.54-3.35-3.73-1.44-6.36.98-1.35,2.16-2.57,3.36-3.73.62-.6,1.01-1.16,1.02-2.04,0-.79.27-1.59.22-2.38-.36-5.55,1.13-10.73,3.06-15.84,1.7-4.49,4.31-8.37,7.92-11.5C28.17,5.44,34.5,2.12,41.67.65c5.22-1.07,10.4-.88,15.54.93,6.99,2.45,12.37,6.83,16.51,12.86,2.48,3.62,4.94,7.26,6.21,11.54.13.42.45.79.69,1.21.32-.13.56-.19.75-.32,5.14-3.3,10.38-6.47,14.99-10.54.53-.47,1.18-.79,1.78-1.19.06.07.12.14.18.2-1.92,1.67-3.8,3.37-5.76,4.99-2.15,1.78-4.41,3.43-6.55,5.22-1.29,1.08-2.44,2.32-3.7,3.54,1.21.83,2.37,1.62,3.44,2.36,3.61-2.39,6.52-5.82,11.25-7.15.05,1.19.14,2.11.12,3.02-.15,5.42-.36,10.84-.49,16.26-.13,5.27-.02,10.56-.34,15.82-.16,2.73-.36,5.46-.39,8.2-.02,2.48-.11,4.95.47,7.39.06.25-.07.54-.3.82-.56-1.4-.88-2.81-.92-4.3-.15-5.91-.37-11.82-.45-17.73-.08-5.75-.03-11.5,0-17.25,0-.76.19-1.53.65-2.26-.01,3.22-.05,6.43-.04,9.65,0,3.28.05,6.56.2,9.84.61-1.41,1.01-24.63.56-28.08-.92.37-1.88.55-2.61,1.07-2,1.43-3.92,2.98-5.85,4.51-.91.72-1.15,1.63-.75,2.75.29.81.48,1.67.69,2.51.15.61.38,1.24.36,1.85-.11,3.24-.3,6.48-.46,9.72-.38,8.13-.78,16.27-1.12,24.4-.1,2.47-.07,4.95.02,7.43.02.64.33,1.59.8,1.81.46.22,1.38-.15,1.9-.53,1.81-1.3,3.52-2.72,5.29-4.08.29-.22.67-.31,1.25-.56-1,1.34-7.5,6.03-8.81,6.46-1.06-.38-1.33-1.18-1.28-2.25.31-6.84.62-13.69.87-20.54.13-3.59.12-7.19.22-10.79.08-2.79.26-5.59.33-8.38.04-1.33-.07-2.67-.13-4.39-1.34.95-2.31,1.71-3.34,2.36-1.01.64-2.09,1.17-3.27,1.82.2.36.57.87.51.93-1.64,1.56-.65,3.21.18,4.45,2.99,4.48,2.69,9.3,1.38,14.04-1.09,3.94-1.14,7.88-1.21,11.86-.01.77.21,1.6.51,2.32,1.22,2.97,1.17,6.05-.28,8.74-.96,1.79-2.76,3.32-4.53,4.42-1.55.97-3.6,1.13-5.38,1.77-.92.33-1.76.9-2.63,1.36.04.16.07.32.11.48.41.09.83.16,1.23.28.82.25,1.66.47,2.45.81.65.28,1.21.81,1.87,1.06,3.69,1.42,5.68,4.45,7.47,7.7.71,1.3,1.23,2.78,2.9,3.45,1.07-3.2.63-6.41.55-9.58-.01-.55-.5-1.09-.87-1.85.27-.64.64-1.51,1.07-2.53,1.2.36,2.06-.31,2.87-1.09.52-.5,1.13-.92,1.58-1.47,1.09-1.34,2.49-2.13,4.41-2.69.03,1.14.11,2.21.08,3.28-.23,8.29-.58,16.59-.64,24.88-.01,1.51,1.15,3.03,2.02,4.51,1.52-3.74.82-7.66,1.27-11.44.48-3.96.54-7.97.65-11.96.11-3.91.05-7.82.07-11.31,1.37-.98,2.35-1.68,3.33-2.39.83-.6,1.64-1.22,2.47-1.83l.08.09c-.82.87-1.65,1.73-2.46,2.6-1.91,2.05-2.95,4.45-2.93,7.3.02,2.88.05,5.76-.09,8.63-.21,4.3-.58,8.6-.86,12.9-.18,2.79-.38,5.57-.44,8.36-.02.84.35,1.71.63,2.54.81,2.46,1.65,4.91,2.48,7.37-.17.06-.33.12-.5.18-.38-1-.73-2.02-1.15-3.01-1.24-2.93-2.37-5.92-3.81-8.76-.95-1.87-2.23-3.62-3.61-5.2-1.84-2.09-3.87-4.04-5.93-5.92-1.85-1.69-3.35-3.52-4.48-5.82-1.14-2.32-2.58-4.58-5.27-5.61-1.1-.42-2.06-1.21-3.14-1.74-.62-.3-1.34-.55-2.02-.58-2.58-.11-2.57-.07-3.14,2.53-.06.27-.28.51-.58,1.05-.68-1.93.06-3.52-.05-5.37,2.58-.99,5.14-1.98,7.7-2.96-.01-.07-.02-.15-.04-.22-1.51,0-3.02-.06-4.52,0-.43.02-.85.4-1.28.59-.72.32-1.44.87-2.18.89-2.2.06-4.41-.05-6.6-.21-.4-.03-.76-.56-1.13-.85l-.06.03ZM31.57,36.82c-.68.22-1.37.43-2.05.65-.01-.23-.02-.46-.04-.86-1.18.61-2.82.01-3.85,2.03.97-.12,1.56-.11,2.08-.29.66-.23,1.26-.63,1.89-.96-.55.69-1.1,1.39-1.65,2.08.05.05.11.11.16.16.96-.56,1.91-1.13,2.87-1.69-.59.73-1.18,1.47-1.92,2.39,2.83-.5,4.45-3.33,7.34-2.54.41-.84.76-1.54,1.3-2.63-1.87.23-3.33.39-4.79.63-.21.03-.35.47-.52.73-.28.1-.55.2-.83.3ZM62.75,63.85c1.31.28,2.56.15,4.05-.57-1.69-.59-2.8.27-4,.62-1.56.2-3.13.36-4.68.62-.22.04-.37.49-.77,1.06,1.91-.43,3.37-.74,4.81-1.11.23-.06.4-.4.59-.6ZM78.25,49.15h-2.77c.41,1.17.71,2.04,1.01,2.89,1.35-.42,2.59-1.53,4.1-.11-1.09.33-2.04.62-3.04.92q1.07.7,4.36-.52c0-1.3.18-2.65-.66-3.76-1.09.18-2.08.35-3.07.51l.07.06ZM72.7,14.31c-2.49-3.59-5.57-6.55-9.27-8.89C56.45,1.03,48.96-.21,40.96,1.71c-5.07,1.21-9.78,3.15-14.06,6.26-3.27,2.38-6.2,4.97-8.41,8.35-4.74,7.26-6.4,15.3-5.94,23.86.43-.07.82-.13,1.22-.19-.44.84-1.04,1.3-1.66,1.74-2.06,1.45-3.66,3.34-4.83,5.54-.97,1.82-.46,2.83,1.73,3.83.38-2.08,1.68-3.54,3.17-4.89.71-.64,1.41-1.3,2.09-1.98,6.41-6.44,14.55-8.93,23.21-10.25.29-.04.61.11.92.15,4.09.43,8.13.05,12.14-.74,7.12-1.41,14.12-3.43,21.4-4,1.91-.15,3.82-.19,5.73-.31.85-.05,1.81.09,2.29-1.1-.35-.86-.74-1.79-1.22-2.94-4.36.45-8.68.9-13,1.35.81-.29,1.66-.48,2.5-.66,1.35-.28,2.6-.73,3.4-1.97l-.08.03c1.58.02,3.16.04,4.73.08.07,0,.15.17.23.27-.62.1-1.21.2-1.79.3,1.26.2,2.5.45,4.01-.09-1.86-3.62-3.61-7.03-6.08-10.04h.04ZM93.77,86.14c-.97.57-1.57.81-2.03,1.2-1.2,1.03-2.24,2.27-3.52,3.18-2.07,1.46-2.55,3.4-2.44,5.76.12,2.62,0,5.26.08,7.89.02.67.13,1.52.55,1.98,2.02,2.22,4.17,4.33,6.63,6.86.3-9.06.89-17.67.74-26.86ZM66.81,68.09c.12.01.51-.21.63-.19,0,.54,0-.4,0,0,1.04,0,2.04.03,3.04,0,.86-.02,1.8.07,2.16-1.05.03-.08.33,1.49.64.5,2.22.04,1.77.06,2.68-.15,1.4-.32.95-.56.46-2.23-1.9.22-3.89.56-5.73-.48-.12-.07-.33-.05-.47,0-1.6.51-3.2,1.04-5.05,1.64-.33-.21-.92-.59-1.43-.91-.96.18-1.89.31-2.79.54-.82.21-1.96.08-2.06,1.61,1.07-.21,2.01-.4,2.92-.59,1.24,1.64,2.95,1.65,4.79,1.58.17-.68.06.38.22-.27ZM79.53,34.73c.12,1.68.23,3.21.34,4.87,1.88-.37,3.22-1.39,4.51-2.4,2.21-1.72,2.32-3.46.3-5.4-1.27-1.22-2.87-2-4.74-1.78-.18.02-.34.25-.62.47.65.33,1.65.61,1.66.89.02,1.78,1.43,1.82,2.58,2.28.14.62.28,1.26.43,1.95-1.54-.31-2.9-.58-4.45-.88ZM80.1,82.77c1.51-2.1,1.52-6.35.41-7.4-.14,2.41-.27,4.91-.41,7.4ZM80.25,62.77c.14.01.28.02.42.03.38-1.47.8-2.92,1.11-4.4.05-.25-.39-.59-.5-.75-.65.96-1.2,1.77-1.69,2.49.21.85.44,1.74.66,2.63ZM68.36,63.07c1.81.45,2.18.39,3.47-.45-1.3-.69-2.37-.04-3.47.45ZM79.19,53.82c1.26.81,2.07.86,2.95,0-.96-1.49-1.72-.23-2.95,0ZM75.95,64.51q-1.83-1.1-3.41-.01h3.41ZM79.67,70.09c.17.01.34.03.51.04.06-.93.11-1.85.17-2.78-1.14.81-.68,1.8-.67,2.74ZM71.78,73.4c.43-.31.86-.62,1.4-1.01-1.24-.73-1.52-.12-1.4,1.01ZM78.33,85.29c-.14-.13-.27-.25-.41-.38-.45.45-.9.91-1.36,1.36.1.1.2.2.3.3l1.46-1.29ZM80.36,64.67l-.41.07c-.04.22-.15.45-.12.65.04.24.2.47.43.95.19-.5.34-.71.33-.9-.01-.26-.15-.52-.23-.77ZM68.52,73.38c.14,0,.29,0,.43-.01.03-.38.06-.77.08-1.15-.22.02-.44.04-.66.06.05.37.1.74.14,1.1ZM77.51,65.11c-.4,1.37.14,1.51,1.34,1.21-.5-.45-.86-.78-1.34-1.21ZM78.03,63.47c.04-.17.08-.34.12-.51-.42-.08-.84-.15-1.26-.23-.03.12-.05.25-.08.37.41.12.82.24,1.22.36Z"/>
  <path class="cls-1" d="M192.16,54.57c-1.3,2.53-1.55,5.33-3.2,7.64-.85,1.19-1.26,2.7-2.09,4.03.04-.86.09-1.71.13-2.57-.15-.06-.3-.13-.45-.19-.26,1.43-2.24,1.45-2.31,3.13,1.03.38,2.06.59,2.91,1.11,1.74,1.05,2.82,2.55,2.52,4.74-.1.77-.12,1.56-.2,2.68-.27.23-.82.67-1.47,1.21-.06,0-.32.02-.51-.09-.68-.39-1.32-.86-2.02-1.24-1.02-.56-2.25.01-2.02,1.02.43,1.88-.45,3.2-1.42,4.58-1.8,2.55-2.84,5.35-2.58,8.51.09,1.11.17,2.29.61,3.27,1.35,3.03,1.55,6.16,1.28,9.38-.06.72-.09,1.44-.09,2.16,0,2.53.84,4.68,2.8,6.35.91.77,1.78,1.58,2.68,2.37-2.24-.41-3.45-2.28-5.48-3.84.87,1.63.26,2.73-.3,4.06.73-.38,1.47-.76,2.47-1.28-.23,1.6-1.57,2.14-1.94,3.4,1.32,0,1.86-1.82,3.6-1.28-.67,1.05-1.27,1.99-2.19,3.42,1.71-.89,2.97-1.53,4.22-2.18.1.18.21.37.31.55-1.02.64-2.05,1.27-3.06,1.94-2.19,1.45-4.38,2.91-6.55,4.39-1.71,1.16-3.4,2.28-5.27,3.22-2.88,1.44-4.52,4.13-5.53,7.17-.36,1.08-.69,2.17-1.04,3.29-.1-.11-.2-.17-.2-.22.11-3.42.79-6.61,3.73-8.84.25-.19.55-.36.73-.61,1.22-1.68,3.02-2.46,4.79-3.37,1.32-.68,2.44-1.73,3.65-2.63.26-.19.48-.51.76-.57,1.99-.38,2.65-1.89,3.26-3.95-1.25.82-2.26,1.9-3.69,1.01-.18-.11-.76.41-1.16.64-1.27-2.77-2.52-5.5-3.86-8.4-.35.21-.64.38-.92.56-.24.15-.46.32-.87.6-.13-.49-.36-.85-.25-1.03,1.18-2.04,2.11-4.21,3.61-6.11,1.3-1.65,2.05-3.75,2.97-5.68.44-.92.74-1.91,1-2.61-.33-1.98-.69-3.76-.93-5.56-.37-2.84.63-5.37,2.07-7.71,1.46-2.36,2.14-4.85,1.84-7.62-.05-.47.08-.95.13-1.42,1.02-.74,1.51.07,1.84.74,1.3-.68,2.4-1.25,3.68-1.91-1.22-1.09-2.42-2.15-3.93-3.49-.37,1.12-.6,1.84-.84,2.57-.14-.02-.29-.05-.43-.07.1-.74.13-1.48.3-2.2.96-4.24,2.81-8.11,4.91-11.89.5-.9,1.32-1.07,2.19-1.15.52-.05,1.04,0,1.78,0"/>
  <path class="cls-1" d="M180.53,104.93c0-1.83.03-4.29.01-6.74,0-.17-.25-.35-.45-.61-.51.6-.96,1.14-1.32,1.56.41,1.06.75,1.97,1.06,2.75-1.51,2.06-2.93,4.02-4.45,6.1.68.37,1.07.58,1.42.77,1.17-1.2,2.24-2.29,3.74-3.83Z"/>
  <path class="cls-1" d="M180.52,106.67c-2.33,2.09-3.57,4.37-3.22,6.06,1.22-1.44,2.4-2.8,3.54-4.21.57-.7.17-1.29-.32-1.85Z"/>
  <path class="cls-1" d="M187.41,75.16c.44-1.02.82-1.92,1.28-2.98-1.39-.07-2.31.38-2.63,1.45-.23.75.38,1.28,1.36,1.53Z"/>
  <path class="cls-1" d="M18.12,113.75c-1.01-.96-1.96-1.98-3.03-2.87-2.15-1.78-4.37-3.48-6.66-5.29-2.35.71-3.53,2.78-5.49,4.42,1.45.88,2.63,1.61,3.82,2.32,6.05,3.62,11.22,8.16,14.94,14.22.72,1.17,1.73,2.22,1.9,3.74-5.04-8.6-11.93-15.1-21.33-19.28-1.15.02-.14,2.8-2.28,2.38.04-.38-.03-.73.11-.96.45-.75.91-1.52,1.49-2.16,3.11-3.39,6.28-6.72,9.38-10.12,2.92-3.2,6.09-6.12,9.59-8.66,2.08-1.51,2.96-3.41,2.58-5.97-.2-1.33-.3-2.7.75-4.09.18.46.51.9.4,1.11-.82,1.6-.31,3.28-.38,4.93-.03.72-.11,1.43-.08,2.15.03.84-.09,1.8.28,2.48,1.12,2.11,2.45,4.1,3.66,6.15,2.51,4.24,6.17,7.35,10.18,10,2.65,1.75,5.56,3.11,8.44,4.48,3.61,1.71,5.81,4.75,8.12,7.71-.12.12-.23.23-.35.35-.81-.91-1.7-1.77-2.43-2.74-2.05-2.71-4.81-4.37-7.87-5.68-5.83-2.51-10.68-6.4-14.88-11.07-1.37-1.53-2.34-3.43-3.4-5.21-.98-1.63-1.84-3.33-2.91-5.27-1.4,1.15-2.77,2.29-4.37,3.61,1.63,2.01,3.1,3.97,4.73,5.8,1.49,1.67,3.06,3.27,4.74,4.74,2.6,2.27,3.65,5.1,3.73,8.48.09,3.93,1.19,7.67,2.44,11.57.34-.45.54-.72,1-1.32.22,2.01.4,3.68.61,5.59-.96-.43-1.11-1.11-1.31-1.75-.86-2.73-1.71-5.46-2.57-8.19-.15-.46-.07-1.31-.98-.68l.08.06c-.05-1.81-.12-3.62-.13-5.43-.03-3.1-1.09-5.71-3.43-7.82-.99-.89-1.84-1.92-2.79-2.93-.58.45-1.01.79-1.44,1.12.16-.67.32-1.35.52-2.19-2.6-1.48-3.38-4.89-6.5-6.19-2.96,3.05-5.82,5.99-8.81,9.07,1.73,1.4,3.33,2.69,4.92,3.98l-.05-.03c1.2.87,2.4,1.73,3.59,2.6,1.48,1.45,2.86,3.03,4.83,3.88.07.03.19.05.21.1,1.11,2.71,4.68,3.63,5.04,6.92.05.5.48,1,.85,1.4.48.52,1.31.83,1.56,1.42.77,1.78,1.33,3.65,1.97,5.49.01.04-.09.11-.28.33-.2-.38-.38-.7-.54-1.02-1.14-2.26-1.98-4.67-3.87-6.51-.66-.64-1.1-1.56-1.52-2.42-1.38-2.83-3.76-4.63-6.33-6.25-.15-.16-.3-.32-.45-.48Z"/>
  <path class="cls-2" d="M16.66,110.9c-1.2-.87-2.4-1.73-3.59-2.6,1.36,0,2.01-.77,2.07-2.17-.67.73-1.34,1.47-2.02,2.2-1.6-1.29-3.19-2.58-4.92-3.98,2.99-3.07,5.84-6.01,8.81-9.07,3.13,1.3,3.91,4.71,6.5,6.19-.2.84-.36,1.52-.52,2.19-2.11,2.41-4.22,4.82-6.33,7.23ZM15.34,108.98l.52.42c.51-.82,1.69-1.17,1.57-2.93-.87,1.04-1.48,1.77-2.09,2.5ZM19.16,103.61c1.45-.17,1.84-.77,1.92-1.72-.52.46-1.03.92-1.92,1.72ZM18.7,101.37c.17.17.34.35.51.52.4-.45.79-.9,1.19-1.35-.15-.14-.3-.28-.46-.43-.41.42-.83.84-1.24,1.26ZM12.43,103.56c-.2-.19-.41-.37-.61-.56-.3.39-.61.79-.91,1.18.14.13.29.26.43.38.36-.33.73-.67,1.09-1ZM13.81,99.68c.09.11.17.22.26.34.34-.28.68-.56,1.02-.84-.08-.1-.15-.19-.23-.29-.35.26-.7.53-1.05.79ZM13.12,104.45c-.09-.11-.17-.22-.26-.33-.31.29-.62.58-.93.88.07.08.15.17.22.25.32-.27.65-.53.97-.8ZM12.81,106.04c.12.12.24.25.36.37.29-.31.58-.62.87-.93-.13-.12-.25-.25-.38-.37l-.85.94Z"/>
  <path class="cls-1" d="M23.18,73.4c.29.81.65,1.61.84,2.44.54,2.39,1.4,4.53,3.54,5.98.48.32.79,1,1.03,1.57,1.24,2.88,3.33,5.03,5.78,6.88,4.22,3.18,8.8,5.79,13.72,7.67,4.08,1.56,7.65,3.9,11.21,6.3.76.51,1.69.76,2.54,1.13l-.04-.08c.07.19.13.53.22.54.92.08,1.35.7,1.68,1.44-.31.31-.62.62-.93.94-1.01,1.08-2.04,2.12-3,3.24-.41.47-.71,1.1.14,1.53.19.5.38,1.01.57,1.51,0,0,.02-.03.02-.03.05.5.29,1.09.11,1.48-.39.85,0,1.3.38,1.65.85-.28,1.55-.51,2.25-.74-.21.79-.42,1.59-.65,2.45h1.06c.72.5,1.44.99,2.09,1.44.55-.43.91-.72,1.27-1l.08.07q-2,3.27-2.05,5.02c.36-.27.67-.5.97-.73-.02.24.03.52-.08.7-.56.95-1.37,1.81-1.69,2.83-.29.9-.07,1.97-.07,2.96-.19,0-.39,0-.58,0-.03-.92-.07-1.83-.1-2.75-.03-1.02-.05-2.04-.08-3.05,0-.23-.1-.54.02-.68,1.24-1.53.3-2.41-.77-3.52-1.3-1.35-2.32-2.98-3.47-4.48-.38-.5-.82-.95-1.36-1.57-1.44,2.33-1.48,4.84-1.77,7.48-1.22-3.36,1.22-11.21,4.83-15.78-3.84-2.68-7.61-5.39-12.03-7.16-6.01-2.41-11.72-5.44-16.62-9.77-1.12-.99-2.09-2.19-2.95-3.42-1.01-1.45-1.65-3.06-3.06-4.33-2.29-2.06-2.98-5-3.19-8.02l.14-.13Z"/>
  <path class="cls-1" d="M74.72,129.39c-.37-3.54-1.55-6.73-3.93-9.42-.97.42-1.87.81-2.77,1.21.51-.86,1.03-1.72,1.54-2.58-.12-.1-.23-.2-.35-.31-.7.5-1.4,1-2.09,1.51l-.08-.07c.66-1.28,1.49-2.38,2.88-2.97.32-.13.62-.47.77-.78.83-1.71.54-3.59.32-5.32-.13-.98-1.34-1.83-2.19-2.89-.99.96-1.77,1.72-2.55,2.47.53-1.09,1.06-2.18,1.58-3.23-1.81-1.62-3.92-1.67-6.04-1.72l.04.08c.21-.29.45-.85.61-.82,2.59.39,5.1.7,7.08,2.93,1.63,1.83,2.86,3.8,3.85,5.99.15.33.33.63.72,1.35.59-2.73.29-5,.08-7.27-.04-.47-.29-.95-.24-1.4.37-3.01-1.13-5.2-3.09-7.19-.22-.23-.41-.49-.6-.74-.04-.06-.04-.15-.09-.37.68-.23.98-.25,1.62.52,2.93,3.52,3.06,7.72,3.24,11.99,1.44.76,2.14,2.01,2.89,3.38,1.36,2.51,3.03,4.87,4.75,7.15,2.41,3.19,4.28,6.6,5.02,10.59-1.47-3.5-2.93-7.01-5.42-9.93-2.45-2.87-3.82-6.56-6.77-9.4-.5,2.12-.92,3.87-1.47,6.2-.61-2.03-1.08-3.55-1.54-5.08-.13,0-.26,0-.4,0-.19.94-.32,1.89-.58,2.8-.27.95-1.05,1.74-.96,3.2.74-.62,1.22-1.02,2.02-1.69-.29,1.05-.48,1.71-.66,2.36,2.15,3.72,3.5,7.73,4.53,11.86-.58-.81-1.17-1.62-1.75-2.43l.05.05Z"/>
  <path class="cls-1" d="M40.64,47.81c.94-.1,1.89-.21,3.15-.35-.53-.59-.88-.98-1.37-1.53,1.4-.21,2.65-.27,3.82-.6,3.74-1.07,7.45-2.22,11.16-3.38,2.28-.71,3.32-.59,6.69,1.03-.99.69-1.94,1.36-3.09,2.16.81.62,1.35,1.04,2.14,1.64-1.4.59-2.56,1.25-3.8,1.55-1.17.28-1.91,1.76-3.59,1.17.51-.43.88-.73,1.24-1.04l-.14-.36c-2.01.63-4.02,1.25-6.03,1.88.91-1.39,2.44-1.42,3.72-2.14-.82-.29-1.58-.57-2.35-.84.02-.12.03-.24.05-.36l5.45.02c1.26-1.5.58-2.6-.6-3.52-2.86.8-5.75,1.61-8.8,2.47.05.42.11.85.13,1.07-1.41.54-2.74,1.21-4.16,1.54-1.41.33-2.9.3-4.4.44.25-.27.54-.59.83-.9l-.07.04Z"/>
  <path class="cls-1" d="M156.27,47.86c.02.98-.73,1.33-1.4,1.76-1.54.98-2.19,2.39-2.24,4.23-.07,2.71-.36,5.41-.44,8.11-.04,1.5.15,3.01.23,4.52.09,1.67.18,3.33.25,5,.07,1.91.17,3.83.17,5.74-.01,4.7-.25,9.41-.07,14.11.22,5.65-.15,11.31.57,16.96.32,2.5.02,5.09-.06,7.63-.11,3.58-.29,7.17-.43,10.75-.03.75-.04,1.49-.05,2.24-.16.02-.33.04-.49.06-.09-.24-.26-.49-.25-.72.22-4.22.37-8.45.75-12.65.23-2.63.53-5.23-.09-7.84-.09-.39-.13-.79-.13-1.19-.09-5.65-.21-11.31-.25-16.96-.04-6.39,0-12.78-.03-19.16,0-1.19-.17-2.39-.4-3.56-.66-3.43.04-6.84.03-10.25,0-1.64-.1-3.27-.16-5.38,1.25-.93,2.89-2.14,4.53-3.36l-.02-.02Z"/>
  <path class="cls-1" d="M123.02,64.88c-1.69,1.78-3.01,3.2-4.37,4.59-1.17,1.2-2.4,2.32-3.53,3.55-.35.38-.61.98-.62,1.49-.15,8.06-.6,16.14-.28,24.19.34,8.4-.06,16.76-.25,25.14-.05,1.99-.02,3.97-.4,6.07-.19-.34-.51-.67-.55-1.03-.06-.62.06-1.26.09-1.9.44-7.98.86-15.96.5-23.97-.22-5.09,0-10.2.02-15.31,0-2.87-.05-5.74-.02-8.62.02-1.83.09-3.66.22-5.48.03-.43.28-.92.58-1.23,2.45-2.51,4.93-4.98,7.42-7.45.08-.08.3-.02,1.19-.06Z"/>
  <path class="cls-1" d="M108.7,67.39c-1.01-2.14-.45-4.36-.55-6.53-.1-2.15,0-4.32.03-6.48.03-2.24.07-4.48.14-6.71.07-2.24.2-4.47.27-6.71.07-2.15.16-4.3.14-6.45-.02-2.23-.19-4.46-.26-6.69-.07-2.16-.15-4.32-.15-6.47,0-2.19.21-4.39-.59-6.75-2.28,2.46-4.27,5.08-7.81,5.65.44-.33.83-.76,1.31-.96,1.57-.66,2.91-1.5,3.91-2.98.69-1.03,1.81-1.77,2.81-2.72,1.13.25,1.16,1.18,1.17,2.17.01,3.36.1,6.72.07,10.08-.07,9.43-.2,18.85-.29,28.28-.04,4.14-.03,8.29-.06,12.43,0,.28-.09.56-.14.85Z"/>
  <path class="cls-1" d="M186.95,81.19c.24.33.73.75.65.93-.73,1.72-.51,3.78-1.93,5.25-.55.57-1.02,1.21-1.48,1.85-.17.24-.38.75-.28.86,1.14,1.21-.07,2.18-.57,3.4,3.08.4,4.35,3.05,6.89,4.04-1.11,1.53-1.99.02-3.25.59.75.48,1.37.88,2.08,1.33-2.42,1.21-1.86,1.77-.18,3.61-.25.17-.48.34-.81.57.33.45.66.89,1.19,1.59-2.43-.72-3.25-2.42-4.08-4.06,1.2-2.81.93-4.1-1.23-6.18-1.57-1.52-1.95-3.47-1.03-5.41.24-.5.51-.99.75-1.49,1.05-2.21,2.1-4.42,3.27-6.88Z"/>
  <path class="cls-1" d="M100.18,28.51c.24.17.65.3.7.52.44,1.7.56,3.4.38,5.19-.48,4.75-1.1,9.47-.94,14.3.16,4.77-.39,9.56-.61,14.34-.16,3.35-.31,6.7-.44,10.05-.01.29.12.58.26,1.2,3.39-1.68,5.99-4.3,9.6-6.14-.69,1.66-1.94,2.02-2.9,2.69-1.11.77-2.2,1.58-3.3,2.38-1.01.73-2.02,1.47-3.06,2.23-1.1-1.17-1.46-2.27-1.38-3.61.25-4.14.45-8.28.67-12.42.17-3.26.4-6.53.52-9.79.07-1.83-.17-3.67-.06-5.5.23-3.74.67-7.46.89-11.2.08-1.4-.2-2.83-.31-4.24,0,0-.03.01-.03.01Z"/>
  <path class="cls-1" d="M124.18,57.88c-.2-1.13-.52-2.25-.57-3.38-.14-3.43-.17-6.86-.24-10.29-.04-1.75-.06-3.51-.09-5.26,0-.24-.07-.49-.04-.72.54-3.49-.03-7.01.27-10.48.23-2.68-.3-5.24-.4-7.86-.07-1.91-.23-3.81-.35-5.72-.14-2.3-.28-4.6-.4-6.9-.02-.44.08-.9.31-1.36.6,1.2.89,2.44.89,3.77,0,2.47-.02,4.95.06,7.42.05,1.59.18,3.18.4,4.75.23,1.66.55,3.3.06,4.97-.07.22-.07.48-.06.71.34,7.81-.24,15.62,0,23.42.05,1.75.42,3.48.61,5.22.06.56,0,1.13,0,1.69-.15,0-.31.01-.46.02Z"/>
  <path class="cls-1" d="M174.15,36.67c.04.51.11,1.02.12,1.54.01,2.63.07,5.26-.02,7.88-.06,1.75-.41,3.48-.54,5.23-.39,5.01-1.23,9.99-.86,15.05.07.95-.07,1.91-.12,2.87-.12,2.23-.24,4.46-.35,6.7-.05.96,0,1.92-.13,2.87-.68,5.02-.5,10.03-.09,15.06.17,2.05.18,4.11.26,6.2-.19-.03-.44-.05-.44-.08-.58-6.53-.88-13.07-.53-19.62.22-4.14.62-8.28.85-12.42.25-4.54.16-9.12.63-13.64.58-5.59.5-11.17.57-16.75,0-.29.09-.59.14-.88.17,0,.35,0,.52,0Z"/>
  <path class="cls-1" d="M103.66,79.05c1.92-2.49,2.22-2.74,4.63-3.8.1.47.27.9.26,1.33-.06,4.08-.09,8.15-.24,12.22-.18,4.87-.51,9.73-.68,14.59-.09,2.71.03,5.43.05,8.14.04,3.84.06,7.67.14,11.51.03,1.51.24,3.01.31,4.52.02.47-.12.95-.26,1.97-.34-.74-.5-.92-.5-1.11-.1-9.03-.29-18.06-.22-27.09.04-5.35.58-10.69.77-16.04.1-2.85-.05-5.72-.09-9.03-1.61,1.12-2.86,1.99-4.11,2.86l-.08-.09Z"/>
  <path class="cls-1" d="M45.91,41.83c.9-1.01,1.9-1.67,3.22-1.95.91-.19,1.81-.6,2.62-1.08.95-.56,1.8-1.26,3.03-1.06.29.05.74-.04.9-.24,1.54-1.99,3.83-1.14,5.8-1.73.51,1.35.97,2.58,1.56,4.12-1.13-.52-2.27-.02-3.12-1.23-.26-.36-1.89-.28-2.41.17-1.4,1.19-2.66,1.11-4.07.05-.2.85-.44,1.3-1.3,1.46-2.06.38-4.07.97-6.21,1.5Z"/>
  <path class="cls-1" d="M129.65,7.69c.06.68.18,1.36.18,2.04.02,5.89-.12,11.78-.56,17.66-.37,5-.43,10.03-.57,15.05-.09,3.4-.08,6.8-.14,10.21,0,.18-.23.35-.71,1.05,0-1.61-.02-2.68.02-3.74.14-4.07.29-8.13.45-12.2.23-6.14.31-12.29.75-18.41.25-3.52.14-6.97-.39-10.44-.06-.39.24-.84.37-1.25.2.02.41.04.61.05Z"/>
  <path class="cls-1" d="M145.09,86.9c.29,15.05-.38,30.09-.52,45.14,0,.15-.27.31-.74.82-.1-8.04.61-15.64.67-23.25.05-7.57.07-15.14.1-22.71.16,0,.33,0,.49,0Z"/>
  <path class="cls-1" d="M128.93,87.17c.07-2.23.12-4.46.23-6.69.17-3.42.4-6.84.58-10.27.11-2.04.08-2.04-.85-3.63.71-.76.89-1.8,1.95-2.51,3.1-2.08,6-4.47,8.96-6.77.88-.68,1.68-1.47,2.55-2.17.58-.47,1.12-1.17,2.19-.67-.92.83-1.74,1.67-2.66,2.36-1.9,1.43-3.91,2.72-5.79,4.17-1.7,1.31-3.35,2.7-4.9,4.17-.45.42-.63,1.26-.69,1.92-.18,1.99-.27,3.98-.36,5.97-.17,3.82-.29,7.65-.51,11.47-.05.89.31,1.97-.74,2.6,0,0,.04.05.04.05Z"/>
  <path class="cls-1" d="M144.07,4.39c.57,1.15.55,2.28.43,3.45-.11,1.09,0,2.2,0,3.3.03,3.33.58,6.63.27,9.99-.22,2.36.09,4.77.15,7.16.07,2.47.12,4.94.21,7.41.1,2.54.26,5.08.38,7.62.03.54,0,1.07-.39,1.67-.12-.4-.35-.79-.35-1.19,0-2.7-.2-5.38-.11-8.09.14-4.21-.24-8.43-.38-12.65-.11-3.58.05-7.19-.37-10.74-.26-2.23.14-4.43-.17-6.63-.06-.41.2-.87.31-1.31Z"/>
  <path class="cls-1" d="M22.19,63.73c-2.23-2.22-2.27-5.12-2.41-7.96-.1-1.87.89-3.32,2.4-4.12,1.45-.76,2.96-.19,4.16.94.68.64,1.3,1.34,1.67,2.36-.3-.24-.61-.47-.89-.72-.36-.31-.69-.67-1.07-.96-1.06-.81-2.24-1.37-3.55-.79-1.37.61-1.94,1.92-2.01,3.31-.07,1.42.14,2.86.27,4.29.04.38.14.83.37,1.12,2.32,2.81,4.48,5.77,7.24,8.2,1.24,1.09,1.54,1.11,2.95.28.52-.3,1.02-.62,1.86-1.14-1.91,3.04-3.55,3.25-5.58,1.06-1.83-1.97-3.64-3.95-5.46-5.93,0,0,.06.07.06.07Z"/>
  <path class="cls-1" d="M122.98,112.89c.12-4.07.3-8.13.35-12.2.14-11.58.22-23.16.33-34.74,0-.29.06-.58.42-.9.09.38.28.77.25,1.15-.68,9.95-.39,19.93-.63,29.89-.12,4.87-.06,9.74-.11,14.61,0,.76.24,1.64-.61,2.18h0Z"/>
  <path class="cls-1" d="M112.62,22.86c-.14,3.55-.33,7.1-.39,10.64-.07,3.9-.04,7.81-.04,11.71,0,.56.15,1.13.07,1.67-.56,3.67-.06,7.29.32,10.94.2,1.91-.28,3.89-.46,5.96-.33-.21-.54-.28-.53-.33.44-2.93.18-5.85.09-8.8-.21-6.86-.08-13.73.06-20.6.08-3.73.46-7.46.71-11.19.06,0,.12,0,.17,0Z"/>
  <path class="cls-1" d="M98.15,15.14c2.25-1.77,4.47-3.59,6.76-5.3,3.26-2.44,6.56-4.8,9.86-7.18.41-.3.9-.48,1.55-.46-.27.35-.47.81-.83,1.04-5.86,3.84-11,8.7-17.16,12.1-.06-.07-.12-.14-.18-.2Z"/>
  <path class="cls-1" d="M62.58,54.89c.35-.88.7-1.73,1.08-2.69-1.39-.51-2.21.86-3.54,1.53.34-1.64,1.38-2.42,2.52-2.29,1.5.17,3.46-.91,4.66,1.29-1.11.07-2.02.12-3.07.19-.3.83-1.14,1.59-.11,2.51.69.62,2.24.68,3.12-.08.86-.74,1.63-1.22,2.87-.7-.19.52-.36,1.01-.54,1.5-.92.09-1.81.03-2.59.29-1.74.57-3.11.23-4.4-1.53Z"/>
  <path class="cls-1" d="M129.52,93.82c-.44,12.03-.88,24.06-1.32,36.08-.49-12.06.76-24.06.8-36.1.17,0,.34.01.51.02Z"/>
  <path class="cls-1" d="M146.25,53.61c-.28,10.17-.56,20.34-.85,30.51-.17,0-.34,0-.51-.01.27-10.15.54-20.3.81-30.45.18-.01.37-.03.55-.04Z"/>
  <path class="cls-1" d="M143.74,46.26c-.35.37-.67.8-1.07,1.11-3.07,2.4-6.34,4.51-9.76,6.39-1.1.61-2.05,1.49-3.12,2.16-.67.42-1.38.53-1.45-.76,5.44-2.38,10.26-5.79,15.02-9.29.13.13.25.27.38.4Z"/>
  <path class="cls-1" d="M173.19,4.19c.76,5.09.04,10.08-.49,15.09-.26,2.43.07,4.92.12,7.38.02.77,0,1.55-.35,2.37-.1-.39-.28-.77-.28-1.16-.02-2.71-.11-5.43.03-8.13.13-2.54.54-5.06.79-7.59.11-1.11.13-2.22.15-3.33.03-1.54.02-3.08.03-4.62Z"/>
  <path class="cls-1" d="M78.14,80.19c-1.62.38-3.24.76-4.86,1.16-.64.16-.72.5-.89,1.22-.3,1.25-3.91,1.76-5.08.92-.91-.65-.78-1.5-.38-2.55.54.22.95.5,1.38.55.75.08,1.66.28,2.24-.04,2.41-1.35,4.98-1.35,7.59-1.27h0Z"/>
  <path class="cls-1" d="M93.94,125.56c-1.36-2.58-2.85-5.11-4.04-7.77-1.38-3.1-3.37-5.54-6.23-7.34-2.37-1.5-3.56-3.95-4.56-6.51.67.98,1.28,2.03,2.04,2.94.91,1.08,1.83,2.21,2.96,3.04,2.62,1.92,4.81,4.1,6.05,7.21.73,1.84,1.84,3.53,2.68,5.34.46.99.72,2.09,1.06,3.13,0,0,.04-.04.04-.04Z"/>
  <path class="cls-1" d="M150.36,41.57c2.83-1.63,5.69-3.2,8.47-4.9,3.52-2.15,6.97-4.42,10.69-6.33-.38.31-.74.66-1.15.92-4.31,2.72-8.63,5.42-12.93,8.14-1.08.68-2.14,1.38-3.17,2.14-.67.49-1.26.66-1.88-.02l-.03.05Z"/>
  <path class="cls-1" d="M182.15,36.81c-.04,1.27-.11,2.55-.11,3.82-.03,8.05-.05,16.09-.09,24.14,0,.51-.12,1.03-.18,1.54-.16,0-.33-.02-.49-.02-.03-1.24-.11-2.48-.09-3.71.15-7.33.31-14.65.52-21.98.04-1.25.32-2.49.49-3.73l-.05-.05Z"/>
  <path class="cls-1" d="M70.76,36.28c2.71-.66,5.05-1.19,7.04.98-.4,1.25-1.3,1.49-2.42,1.37-1.08-.11-2.16-.19-3.39-.3-.05-.19-.08-.59-.25-.9-.17-.33-.48-.58-.99-1.16Z"/>
  <path class="cls-1" d="M182.2,36.86c-.17-1.2-.34-2.39-.52-3.59,3.13-.33,4.69-3.8,8.22-4.7-.43.63-.58,1.05-.87,1.26-1.42,1.01-2.86,1.99-4.32,2.94-1.03.67-1.91,1.39-2.06,2.73-.05.45-.32.87-.5,1.31l.05.05Z"/>
  <path class="cls-1" d="M122.97,112.88c.6,5.67.89,11.34-.48,16.98.13-1.83.3-3.66.36-5.49.06-1.91,0-3.82.02-5.73.02-1.91.06-3.83.09-5.74h0Z"/>
  <path class="cls-1" d="M26.05,61.95c-.78-.36-1.7-.58-1.18-1.86.1-.25-.51-.79-.95-1.42.63-.53,1.29-1.08,1.94-1.62l.27.25-.78,1.56c.09.08.19.17.28.25.82-.51,1.63-1.02,2.54-1.59.23,1.33-.97,1.34-1.4,1.97.26.12.51.24.89.42-.43.59-.82,1.13-1.21,1.66-.14.12-.28.25-.41.37Z"/>
  <path class="cls-1" d="M112.41,66.55c3.21-2.66,6.22-5.49,10.26-6.8-3.24,2.4-6.48,4.8-9.73,7.18-.04.03-.23-.16-.53-.38Z"/>
  <path class="cls-1" d="M67.93,58.1c-.07.53-.15,1.06-.23,1.63.91.06,1.89.12,2.87.19-1.2.75-2.26,1.67-3.77.53-.6-.45-1.74-.18-2.85-.26.94-1.99,2.94-1.05,3.98-2.09h0Z"/>
  <path class="cls-2" d="M67.11,119.79c.7-.5,1.4-1,2.09-1.51.12.1.23.2.35.31-.51.86-1.03,1.72-1.54,2.58-.66.97-1.32,1.94-1.98,2.91-.3.23-.6.45-.97.73q.05-1.75,2.05-5.02Z"/>
  <path class="cls-1" d="M149.68,21.34c.19-2.22.52-4.44.54-6.66.02-2.2-.27-4.41-.31-6.62.81,1.59.68,9.02-.22,13.28Z"/>
  <path class="cls-2" d="M12.11,52.88c-2.11-.98-2.62-2.34-1.23-3.92,1.04-1.19,1.83-2.78,3.66-3.09-.87,1.18-1.77,2.34-2.6,3.55-.39.57-.13.85.54.76-.52.69-.97,1.39-.1,2.15-.09.18-.18.37-.26.55Z"/>
  <path class="cls-1" d="M23.03,73.53c-1.14-.85-1.62-1.84-.84-3.23.69-1.22.44-2.46-.35-3.53-.86-1.17-.58-2.12.35-3.04l-.06-.07c.1.69.03,1.47.33,2.05.77,1.48.84,3.04.41,4.53-.35,1.18-.14,2.14.3,3.16l-.14.13Z"/>
  <path class="cls-1" d="M43.75,67.64c.03-.48.03-.97.1-1.45.22-1.6,1.61-2.95.93-4.78-.16-.43.21-1.05.34-1.62,1.02.38,1.07,1.13.85,1.93-.56,2.01-1.16,4.01-1.74,6.01-.16-.03-.32-.06-.47-.09Z"/>
  <path class="cls-1" d="M150.4,41.52c-.66-.74-.9-1.59-.88-2.6.06-3.41.05-6.83.06-10.56.93,1.37.8,2.55.61,3.72-.52,3.18-.28,6.34.17,9.5l.03-.05Z"/>
  <path class="cls-1" d="M57.75,77.82c.27,1.22.47,2.19.71,3.28-1.37.44-1.82-.78-2.55-1.83.31-.19.62-.37,1.03-.61-.36-.17-.66-.32-1.49-.71,1.17-.06,1.83-.1,2.3-.13Z"/>
  <path class="cls-1" d="M49.93,66.19c0-.49-.06-.71.01-.77,1.59-1.28,3.2-2.55,5.05-4-.07,1.14-.87,1.44-1.31,1.97-.54.65-.95,1.44-1.6,1.95-.56.44-1.36.56-2.15.85Z"/>
  <path class="cls-1" d="M69.82,94.21c2.36,1.73,5.19,2.92,6.34,5.97-.27-.28-.61-.53-.79-.86-.92-1.7-2.72-2.36-4.1-3.51-.57-.47-1.31-.75-1.45-1.61Z"/>
  <path class="cls-1" d="M100.21,28.5c-.01-2.38-.1-4.76.34-7.11.82,1.57.53,5.31-.37,7.12h.03Z"/>
  <path class="cls-1" d="M60.38,78.9c.79-.04,1.76-.07,2.73-.13.93-.05,1.61.35,2.45,1.39-1.06-.19-1.76-.31-2.6-.46-.31.57-.63,1.15-.9,1.64-.65-.94-1.25-1.81-1.68-2.43Z"/>
  <path class="cls-1" d="M12.48,50.17c-.66.09-.93-.19-.54-.76.83-1.21,1.73-2.37,2.6-3.55l-.08.08c.28-.01.56-.03.84-.04-.01.34.09.76-.06,1.01-.48.76-1.05,1.46-1.59,2.18-.39.36-.77.72-1.16,1.07Z"/>
  <path class="cls-1" d="M12.48,50.17c.39-.36.77-.72,1.16-1.07.5-.3,1-.61,1.73-1.04-.82,1.8-1.2,3.54-2.99,4.27-.87-.76-.42-1.46.1-2.15Z"/>
  <path class="cls-1" d="M16.79,50c-.22,1.25-.43,2.44-.64,3.63-.1.02-.21.03-.31.05-.15-.54-.29-1.09-.48-1.78-.45.32-.87.61-1.29.9-.46-.6,1.04-2.18,2.71-2.78Z"/>
  <path class="cls-1" d="M116.72,10.98c.34-2.02,1.69-3.29,4.35-4.22-1.43,1.39-2.79,2.71-4.35,4.22Z"/>
  <path class="cls-1" d="M113.64,12.2c-.27,2.26-.53,4.52-.8,6.78-.07-2.31-.44-4.64.27-6.89l.53.11Z"/>
  <path class="cls-1" d="M53.64,65.77l-.02,5.09c-1.27-2.17-1.33-3.31.02-5.09Z"/>
  <path class="cls-1" d="M43.73,81.03c-1.1.13-1.71.2-2.37.27,0,.52.19,1.25-.04,1.42-1.16.87-1.26-.98-2.26-.84,1.4-.71,2.59-1.88,4.67-.84Z"/>
  <path class="cls-1" d="M156.29,47.88c1.38-.89,2.77-1.75,4.13-2.68.84-.57,1.61-1.24,2.41-1.87l-.05-.05c-1.25,2.04-3.07,3.47-5.16,4.54-.36.19-.89.03-1.35.03l.02.02Z"/>
  <path class="cls-1" d="M165.15,42.16c.11-.36.12-.84.36-1.06,1.39-1.27,2.83-2.49,4.36-3.61-1.09,2.05-3.28,2.98-4.73,4.66h.01Z"/>
  <path class="cls-1" d="M40.71,47.77c-.61-.07-1.21-.19-1.82-.21-.89-.04-1.78-.02-2.67-.02,0-.16.01-.32.02-.48,1.66-.16,3.32-.32,5.56-.53-.68.75-.92,1.02-1.17,1.29l.07-.04Z"/>
  <path class="cls-1" d="M23.89,114.05c.31-1.35,1.1-2.28,2.89-2.96-.91,1.47-1.84,2.26-2.89,2.96Z"/>
  <path class="cls-1" d="M62.62,60.32q-1.08.74-2.31-.57,1.5-.51,2.31.57Z"/>
  <path class="cls-1" d="M93.9,125.6c.79,1.4,1.58,2.81,2.37,4.21-.14.07-.28.14-.43.21-.77-1.42-1.76-2.74-1.9-4.46l-.04.04Z"/>
  <path class="cls-1" d="M186.61,89.03c1.36.96,2.29,1.62,3.17,2.24-1.63.37-1.72.31-3.17-2.24Z"/>
  <path class="cls-1" d="M68.98,126.92c0-1.73,1.61-1.81,2.56-2.56-.49,1.24-1.22,2.23-2.62,2.5l.05.06Z"/>
  <path class="cls-1" d="M70.68,128.71c-.14.74-.2,1.51-.46,2.2-.09.25-.67.31-1.33.1.62-.74,1.24-1.49,1.86-2.23l-.07-.06Z"/>
  <path class="cls-1" d="M45.8,83.41c.37-.67.61-1.1.95-1.72.63.47,1.13.84,2.11,1.57-1.31.06-2.04.1-3.06.15Z"/>
  <path class="cls-1" d="M8.28,111.17c-.25-.48-.49-.95-.79-1.52h-1.92c.04-.29.04-.55.09-.56,2.15-.48,2.21-.44,2.62,2.09Z"/>
  <path class="cls-1" d="M49.8,52.18c.86-.79,1.58-1.22,2.61-1.32q-.77,1.04-2.61,1.32Z"/>
  <path class="cls-1" d="M67.76,127.38l1.22-.45-.05-.06c-.41.87-.64,1.95-2,1.73-.11-.16-.22-.33-.34-.49.42-.26.83-.51,1.25-.77l-.08.04Z"/>
  <path class="cls-1" d="M61.41,84.47c-1.35.66-1.36-.38-1.86-.94,1.55-.91,1.21.61,1.86.94Z"/>
  <path class="cls-1" d="M29,62.82c-.88.69-1.58,1.24-2.3,1.81q.49-1.22,2.3-1.81Z"/>
  <path class="cls-1" d="M70.74,128.78c.47-.56-.02-1.95,1.6-1.64-.15.99-.42,1.74-1.67,1.58l.07.06Z"/>
  <path class="cls-1" d="M73.27,83.55c.53-.29.77-.48,1.05-.56.49-.15,1-.23,1.9-.42-.93,1.09-1.69,1.31-2.95.99Z"/>
  <path class="cls-1" d="M30.71,118.66c-.53.99-1.05,1.98-1.58,2.98.18-1.21.25-2.51,1.66-2.91l-.08-.06Z"/>
  <path class="cls-1" d="M58.33,87.84c-1.31.31-2.36.01-2.91-1.48.95.5,1.9,1.01,2.85,1.51l.06-.03Z"/>
  <path class="cls-1" d="M58.85,74.53c.37,1.18.64,2.02,1.03,3.28-1.15-1.03-1.53-1.85-1.03-3.28Z"/>
  <path class="cls-1" d="M26.05,61.95c.14-.12.28-.25.41-.37h1.25c-.53.48-.86.79-1.22,1.09-.35.29-.71.56-1.34.64.3-.45.59-.91.89-1.36Z"/>
  <path class="cls-1" d="M2.42,115.29c.41-.72.82-1.43,1.4-2.43q-.12,1.42-1.4,2.43Z"/>
  <path class="cls-1" d="M66.59,128.1c.11.16.22.33.34.49-.35.65-.86.84-1.67.46.13-.77.44-1.2,1.33-.95Z"/>
  <path class="cls-1" d="M44.18,60.32c-.16.79-.33,1.59-.49,2.38-.1-.01-.21-.02-.31-.04.07-.82.14-1.63.21-2.45.2.03.4.07.6.1Z"/>
  <path class="cls-1" d="M67.94,58.1c.92.09,1.84.18,2.82.28-1.13,1.14-1.91-.18-2.83-.28,0,0,0,0,0,0Z"/>
  <path class="cls-1" d="M48.29,80.19c.57.19,1.14.38,1.71.57-.01.11-.02.23-.03.34-.31,0-.65.06-.94-.02-.32-.1-.61-.33-.91-.5.06-.13.11-.26.17-.38Z"/>
  <path class="cls-1" d="M70.44,122.55c-.34.47-.67.93-1.12,1.55-.17-.38-.31-.56-.33-.76-.12-.91.61-.91,1.09-1.16.12.13.24.25.36.38Z"/>
  <path class="cls-1" d="M76.26,60.01c-1.21.07-2.43.14-3.64.21,0-.16,0-.33.01-.49,1.21.1,2.42.19,3.63.29h0Z"/>
  <path class="cls-1" d="M128.89,87.12c.09,1.02.18,2.03.26,3.05-.15,0-.29.01-.44.02.07-1.01.14-2.01.22-3.02l-.04-.05Z"/>
  <path class="cls-1" d="M44.69,71.1c-.17-.54-.33-1.08-.5-1.62.15-.05.29-.11.44-.16.2.53.41,1.06.61,1.6-.18.06-.37.12-.55.19Z"/>
  <path class="cls-1" d="M56.5,84.48h-1.54c0-.07,0-.14,0-.21h1.54c0,.07,0,.14,0,.21Z"/>
  <path class="cls-1" d="M27.11,65.3c.33-.4.66-.8.99-1.19.15.15.31.3.46.44-.34.39-.68.77-1.02,1.16l-.44-.41Z"/>
  <path class="cls-1" d="M65.15,130.93c.13-.24.23-.51.41-.7.14-.14.39-.17,1.08-.45-.51.75-.76,1.1-1,1.46l-.49-.31Z"/>
  <path class="cls-1" d="M74.67,129.35c-.4.62-.8,1.23-1.2,1.85.05-.9.35-1.6,1.24-1.8l-.05-.05Z"/>
  <path class="cls-1" d="M55.18,82.84c-.23.24-.44.49-.69.71-.02.02-.21-.15-.33-.23.25-.25.5-.5.75-.75.09.09.18.18.26.26Z"/>
  <path class="cls-1" d="M26.28,108.33c-.2.31-.4.62-.62.97-.88-.81-.17-.98.62-.97Z"/>
  <path class="cls-1" d="M162.83,43.33c.65-.63,1.2-1.47,2.32-1.18h-.01c-.79.37-1.57.75-2.36,1.13l.05.05Z"/>
  <path class="cls-1" d="M64.73,72.4c-.5-.1-1.01-.2-1.51-.29.02-.11.04-.22.05-.33.51.06,1.02.13,1.53.19-.02.14-.05.29-.07.43Z"/>
  <path class="cls-1" d="M18.12,113.75c.15.16.3.32.45.48-.25.27-.49.54-.74.81l-.3-.24c.2-.35.39-.7.59-1.05Z"/>
  <path class="cls-1" d="M67.76,127.38l.08-.04-.08.04Z"/>
  <path class="cls-2" d="M71.64,23.75c-.8,1.23-2.05,1.68-3.4,1.97-.84.18-1.68.37-2.5.66,4.32-.45,8.64-.9,13-1.35.48,1.15.86,2.09,1.22,2.94-.48,1.19-1.44,1.05-2.29,1.1-1.91.12-3.83.16-5.73.31-7.27.57-14.28,2.59-21.4,4-4.01.79-8.05,1.17-12.14.74-.31-.03-.63-.19-.92-.15-8.66,1.32-16.81,3.81-23.21,10.25-.68.68-1.38,1.33-2.09,1.98-1.49,1.35-2.79,2.82-3.17,4.89-2.19-1-2.7-2-1.73-3.83,1.17-2.2,2.76-4.09,4.83-5.54.62-.44,1.23-.9,1.66-1.74-.4.06-.79.12-1.22.19-.46-8.57,1.2-16.61,5.94-23.86,2.2-3.37,5.14-5.97,8.41-8.35,4.28-3.11,9-5.05,14.06-6.26,8-1.92,15.49-.68,22.47,3.71,3.7,2.33,6.79,5.29,9.27,8.89-1.16-.19-2.32-.38-3.66-.61-.14.25-.4.74-.89,1.64,1.8-.41,3.16-.72,4.52-1.03,2.46,3.01,4.22,6.42,6.08,10.04-1.51.55-2.75.3-4.01.09.59-.1,1.17-.2,1.79-.3-.08-.1-.15-.27-.23-.27-1.58-.04-3.16-.05-4.73-.08l3.55-.64c-2.1-.38-4.15-.47-6.1.6h2.63ZM39.94,30.59q2.2-.21,3.78-1.28c-.3-.78-.55-1.55-.9-2.28-.42-.88-1-1.62-2.14-1.47-1.15,1.57-1.3,3.24-.75,5.03ZM41.54,23.81c-.06-.11-.11-.23-.17-.34-.76.17-1.52.5-2.27.47-2.95-.12-5.58.86-8.04,2.31-2.55,1.51-2.69,2.84-.71,5.4.03-.28.14-.53.08-.72-.83-2.55-.8-2.95,1.46-4.21,1.36-.76,2.96-1.07,4.41-1.69,1.03-.44,1.93-.31,2.68.31.97-.58,1.76-1.05,2.55-1.52ZM67.07,21.24c.02.18.04.36.07.55,1.22-.25,2.42-.61,3.65-.74,1.22-.12,2.45-.02,3.68-.01,0-.14,0-.29,0-.43-1.51-.1-3.03-.2-4.67-.31.99-1.42,2.98-.48,3.77-2.1-1.78-.39-3.36-.03-4.98.59v1.82c-.56.23-1.04.43-1.53.63ZM72.13,16.72q-2.13-.22-3.42,1.02c1.43-.43,2.43-.72,3.42-1.02ZM75.63,27.04q-1.25-.95-2.42-.38c.83.13,1.63.25,2.42.38Z"/>
  <path class="cls-2" d="M93.77,86.14c.15,9.19-.44,17.8-.74,26.86-2.47-2.52-4.61-4.64-6.63-6.86-.41-.45-.53-1.3-.55-1.98-.07-2.63.04-5.26-.08-7.89-.11-2.36.37-4.3,2.44-5.76,1.28-.9,2.32-2.14,3.52-3.18.46-.4,1.06-.64,2.03-1.2Z"/>
  <path class="cls-2" d="M67.43,67.9c-.16.65-.68-.21-.85.47-1.84.07-3.55.05-4.79-1.58-.91.18-1.85.37-2.92.59.1-1.53,1.24-1.4,2.06-1.61.9-.23,1.84-.36,2.79-.54.51.32,1.51-.32,1.83-.11,1.85-.6,2.81-.6,4.65-.62.14-.05.35-.07.47,0,1.94-.11,3.88.15,5.73.48.49,1.67.38,1.82-.63,1.98s-.41.13-2.51.41c-.03-.04-.54.29-.56.37-1.45.07-1.37.16-2.23.18-1,.03-2,0-3.04,0,0-.4,0,.54,0,0-.12-.01.12.01,0,0Z"/>
  <path class="cls-2" d="M79.53,34.73c1.55.31,2.91.58,4.45.88-.15-.7-.3-1.33-.43-1.95-1.15-.46-2.56-.5-2.58-2.28,0-.28-1-.55-1.66-.89.28-.22.44-.44.62-.47,1.88-.21,3.47.57,4.74,1.78,2.03,1.94,1.91,3.68-.3,5.4-1.29,1.01-2.64,2.03-4.51,2.4-.12-1.66-.23-3.19-.34-4.87Z"/>
  <path class="cls-2" d="M78.17,49.09c.99-.17,1.98-.33,3.07-.51.84,1.11.67,2.45.66,3.76q-3.28,1.22-4.36.52c1-.3,1.95-.59,3.04-.92-1.51-1.42-2.75-.31-4.1.11-.3-.85-.6-1.72-1.01-2.9h2.77c-.45.26-.91.5-1.48.82q1.48.69,3.06.25c-.52-.35-1.08-.73-1.65-1.12Z"/>
  <path class="cls-2" d="M32.4,36.51c.17-.25.31-.69.52-.73,1.45-.24,2.92-.4,4.79-.63-.54,1.09-.89,1.79-1.3,2.63-2.88-.79-4.5,2.04-7.34,2.54.74-.92,1.33-1.66,1.92-2.39l-.09.08c1.01-.03,1.67-.6,2.54-1.4-.59-.06-.81-.08-1.03-.1Z"/>
  <path class="cls-2" d="M80.1,82.77c.14-2.49.28-4.98.41-7.4,1.1,1.05,1.1,5.3-.41,7.4Z"/>
  <path class="cls-2" d="M80.25,62.77c-.22-.89-.45-1.79-.66-2.63.48-.71,1.04-1.53,1.69-2.49.11.16.55.5.5.75-.31,1.48-.73,2.94-1.11,4.4-.14-.01-.28-.02-.42-.03Z"/>
  <path class="cls-2" d="M29.61,37.38c-.63.33-1.23.72-1.89.96-.52.18-1.11.17-2.08.29,1.04-2.01,2.67-1.42,3.85-2.03.02.4.03.63.04.86l.09-.09Z"/>
  <path class="cls-2" d="M62.75,63.85c-.2.21-.36.54-.59.6-1.44.37-2.9.68-4.81,1.11.4-.57.55-1.02.77-1.06,1.55-.25,3.12-.42,4.68-.62,0,0-.05-.04-.05-.04Z"/>
  <path class="cls-2" d="M75.31,70.85c-.38.07-.79.08-1.14.22-.33.13-.62.38-1.02.65-.32-1.16.71-1.17,1.03-1.66.32-.49-.06-1.49,1.39-1.27-.11.71-.22,1.42-.33,2.13l.08-.07Z"/>
  <path class="cls-2" d="M68.36,63.07c1.1-.49,2.17-1.14,3.47-.45-1.29.84-1.66.9-3.47.45Z"/>
  <path class="cls-2" d="M79.19,53.82c1.23-.23,1.99-1.49,2.95,0-.88.86-1.68.81-2.95,0Z"/>
  <path class="cls-2" d="M29.52,37.47c.68-.22,1.37-.43,2.05-.65-.23.4-.46.8-.68,1.2l.09-.08c-.96.56-1.91,1.13-2.87,1.69-.05-.05-.11-.11-.16-.16.55-.69,1.1-1.39,1.65-2.08l-.09.09Z"/>
  <path class="cls-2" d="M75.95,64.51h-3.41q1.57-1.1,3.41,0Z"/>
  <path class="cls-2" d="M62.81,63.9c1.2-.35,2.31-1.21,4-.62-1.49.72-2.74.85-4.05.57l.05.04Z"/>
  <path class="cls-2" d="M79.67,70.09c0-.93-.47-1.93.67-2.74-.06.93-.11,1.85-.17,2.78-.17-.01-.34-.03-.51-.04Z"/>
  <path class="cls-2" d="M71.78,73.4c-.13-1.13.15-1.74,1.4-1.01-.54.39-.97.7-1.4,1.01Z"/>
  <path class="cls-1" d="M30.89,38.01c.23-.4.46-.8.68-1.2.28-.1.55-.2.83-.3.22.02.44.04,1.03.1-.88.8-1.53,1.37-2.54,1.4Z"/>
  <path class="cls-2" d="M78.33,85.29l-1.46,1.29c-.1-.1-.2-.2-.3-.3.45-.45.9-.91,1.36-1.36.14.13.27.25.41.38Z"/>
  <path class="cls-2" d="M80.36,64.67c.08.26.21.51.23.77.01.19-.13.4-.33.9-.23-.48-.39-.7-.43-.95-.03-.21.07-.44.12-.65l.41-.07Z"/>
  <path class="cls-2" d="M68.52,73.38c-.05-.37-.1-.74-.14-1.1.22-.02.44-.04.66-.06-.03.38-.06.77-.08,1.15-.14,0-.29,0-.43.01Z"/>
  <path class="cls-2" d="M77.51,65.11c.48.43.84.76,1.34,1.21-1.2.3-1.74.15-1.34-1.21Z"/>
  <path class="cls-2" d="M78.03,63.47c-.41-.12-.82-.24-1.22-.36.03-.12.05-.25.08-.37.42.08.84.15,1.26.23-.04.17-.08.34-.12.51Z"/>
  <path class="cls-2" d="M180.53,104.93c-1.5,1.54-2.57,2.64-3.74,3.83-.35-.19-.74-.4-1.42-.77,1.52-2.08,2.94-4.04,4.45-6.1-.3-.79-.65-1.69-1.06-2.75.36-.42.81-.96,1.32-1.56.2.26.45.44.45.61.01,2.46,0,4.91-.01,6.74Z"/>
  <path class="cls-2" d="M180.52,106.67c.49.56.89,1.15.32,1.85-1.14,1.4-2.33,2.77-3.54,4.21-.36-1.69.88-3.97,3.22-6.06Z"/>
  <path class="cls-2" d="M187.41,75.16c-.98-.25-1.58-.78-1.36-1.53.33-1.07,1.24-1.52,2.63-1.45-.46,1.07-.84,1.96-1.28,2.98Z"/>
  <path class="cls-1" d="M15.34,108.98c.61-.73,1.23-1.47,2.09-2.5.12,1.76-1.06,2.11-1.57,2.93l-.52-.42Z"/>
  <path class="cls-1" d="M13.13,108.33c.67-.73,1.34-1.47,2.02-2.2-.06,1.4-.71,2.17-2.07,2.17l.05.03Z"/>
  <path class="cls-1" d="M19.16,103.61c.89-.8,1.41-1.26,1.92-1.72-.08.94-.47,1.55-1.92,1.72Z"/>
  <path class="cls-1" d="M18.7,101.37c.41-.42.83-.84,1.24-1.26.15.14.3.28.46.43-.4.45-.79.9-1.19,1.35-.17-.17-.34-.35-.51-.52Z"/>
  <path class="cls-1" d="M12.43,103.56c-.36.33-.73.67-1.09,1-.14-.13-.29-.26-.43-.38.3-.39.61-.79.91-1.18.2.19.41.37.61.56Z"/>
  <path class="cls-1" d="M13.81,99.68c.35-.26.7-.53,1.05-.79.08.1.15.19.23.29-.34.28-.68.56-1.02.84-.09-.11-.17-.22-.26-.34Z"/>
  <path class="cls-1" d="M13.12,104.45c-.32.27-.65.53-.97.8-.07-.08-.15-.17-.22-.25.31-.29.62-.58.93-.88.09.11.17.22.26.33Z"/>
  <path class="cls-1" d="M12.81,106.04l.85-.94c.13.12.25.25.38.37-.29.31-.58.62-.87.93-.12-.12-.24-.25-.36-.37Z"/>
  <path class="cls-2" d="M66.27,110.24c.78-.75,1.56-1.51,2.55-2.47.85,1.06,2.06,1.91,2.19,2.89.22,1.73.52,3.6-.32,5.32-.15.32-.46.65-.77.78-1.39.59-2.23,1.68-2.88,2.97-.36.28-.72.57-1.27,1-.65-.45-1.37-.94-2.09-1.43.51-.86,1.08-1.71-.1-2.5.05-.3.09-.6.14-.9.06-2.24,1.33-3.94,2.56-5.65ZM66.33,118.61c.72-.9,1.42-1.81,2.17-2.69.7-.82,1.91-1.27,1.8-2.65-1.46,1.67-3.4,2.95-3.97,5.34ZM68.94,110.33q-1.88.62-2.72,2.7c.91-.9,1.82-1.8,2.72-2.7ZM70.27,111q-1.67.57-2.03,1.71c.55-.46,1.29-1.08,2.03-1.71Z"/>
  <path class="cls-2" d="M66.27,110.24c-1.23,1.71-2.5,3.4-2.56,5.65l-.51.99.06-.04c-.7.23-1.41.46-2.25.74-.38-.34-.77-.79-.38-1.65.18-.4-.06-.98-.11-1.48,1.89-2.25,3.77-4.5,5.67-6.77-.91-.63-1.63-1.04-2.47-.42-.34-.74-.77-1.36-1.68-1.44-.09,0-.15-.35-.22-.54,2.12.05,4.23.1,6.04,1.72-.51,1.06-1.05,2.15-1.58,3.23Z"/>
  <path class="cls-1" d="M63.71,107.26c.85-.62,1.56-.21,2.47.42-1.9,2.26-3.78,4.51-5.67,6.77l-.02.03c.36-.78.73-1.56,1.09-2.35.44-.78.88-1.55,1.32-2.33-.08-.23-.16-.46-.25-.69.04-.3.08-.61.13-.91.31-.31.62-.62.93-.94Z"/>
  <path class="cls-2" d="M62.79,108.2c-.04.3-.08.61-.13.91-.45.66-.89,1.33-1.34,1.99-.15.29-.29.58-.44.87-.32.33-.64.66-.96.99-.86-.43-.55-1.06-.14-1.53.96-1.12,2-2.16,3-3.24Z"/>
  <path class="cls-2" d="M63.57,116.79c1.18.79.61,1.64.1,2.5h-1.06c.23-.87.44-1.66.65-2.45,0,0-.06.04-.06.04.11-.09.23-.12.37-.09Z"/>
  <path class="cls-2" d="M59.93,112.97c.32-.33.64-.66.96-.99.24.05.47.1.71.16-.36.78-.73,1.56-1.09,2.35-.19-.5-.38-1.01-.57-1.51Z"/>
  <path class="cls-1" d="M39.94,30.59c-.55-1.78-.4-3.46.75-5.03,1.14-.16,1.72.58,2.14,1.47.35.73.6,1.51.9,2.28q-1.58,1.07-3.78,1.28Z"/>
  <path class="cls-1" d="M41.54,23.81c-.79.47-1.59.95-2.55,1.52-.75-.62-1.65-.75-2.68-.31-1.45.62-3.05.94-4.41,1.69-2.26,1.26-2.29,1.66-1.46,4.21.06.19-.04.44-.08.72-1.98-2.56-1.84-3.9.71-5.4,2.46-1.45,5.08-2.43,8.04-2.31.75.03,1.51-.3,2.27-.47.06.11.11.23.17.34Z"/>
  <path class="cls-1" d="M67.07,21.24c.49-.2.97-.4,1.52-.63v-1.82c1.63-.63,3.21-.98,4.99-.59-.79,1.62-2.78.68-3.77,2.1,1.64.11,3.15.21,4.67.31,0,.14,0,.29,0,.43-1.23,0-2.47-.11-3.68.01-1.23.13-2.44.48-3.65.74-.02-.18-.04-.36-.07-.55Z"/>
  <path class="cls-1" d="M71.64,23.75h-2.63c1.95-1.07,4-.99,6.1-.61l-3.55.64.08-.03Z"/>
  <path class="cls-1" d="M72.67,14.31c-1.36.31-2.72.62-4.52,1.03.49-.9.76-1.39.89-1.64,1.35.22,2.51.42,3.66.61h-.04Z"/>
  <path class="cls-1" d="M72.13,16.72c-.99.3-1.99.59-3.42,1.02q1.3-1.24,3.42-1.02Z"/>
  <path class="cls-1" d="M75.63,27.04c-.8-.12-1.6-.25-2.42-.38q1.17-.57,2.42.38Z"/>
  <path class="cls-1" d="M78.17,49.09c.56.38,1.12.76,1.65,1.12q-1.57.44-3.06-.25c.58-.31,1.03-.56,1.48-.8,0,0-.07-.06-.07-.06Z"/>
  <path class="cls-1" d="M66.33,118.61c.57-2.39,2.51-3.67,3.97-5.34.11,1.38-1.11,1.84-1.8,2.65-.75.88-1.45,1.79-2.17,2.69Z"/>
  <path class="cls-1" d="M68.94,110.33c-.91.9-1.82,1.8-2.72,2.7q.85-2.08,2.72-2.7Z"/>
  <path class="cls-1" d="M70.27,111c-.74.62-1.48,1.24-2.03,1.71q.37-1.13,2.03-1.71Z"/>
  <path class="cls-1" d="M63.57,116.79c-.14-.03-.26,0-.37.09.17-.33.34-.66.51-.99-.05.3-.09.6-.14.9Z"/>
  <path class="cls-2" d="M61.59,112.13c-.24-.05-.47-.1-.71-.16.15-.29.29-.58.44-.87.53-.43,1.06-.87,1.59-1.3-.44.78-.88,1.55-1.32,2.33Z"/>
  <path class="cls-1" d="M62.91,109.8c-.53.43-1.06.87-1.59,1.3.45-.66.89-1.33,1.34-1.99.08.23.16.46.25.69Z"/>
</svg>