<?xml version="1.0" encoding="UTF-8"?>
<svg id="Layer_1" data-name="Layer 1" xmlns="http://www.w3.org/2000/svg" viewBox="0 0 46.95 15.86">
  <defs>
    <style>
      .cls-1, .cls-2, .cls-3, .cls-4, .cls-5, .cls-6, .cls-7, .cls-8, .cls-9, .cls-10, .cls-11, .cls-12, .cls-13, .cls-14, .cls-15, .cls-16, .cls-17, .cls-18, .cls-19, .cls-20, .cls-21, .cls-22, .cls-23, .cls-24, .cls-25, .cls-26, .cls-27, .cls-28, .cls-29, .cls-30, .cls-31, .cls-32, .cls-33, .cls-34, .cls-35, .cls-36, .cls-37, .cls-38, .cls-39, .cls-40, .cls-41, .cls-42, .cls-43, .cls-44, .cls-45, .cls-46, .cls-47, .cls-48, .cls-49, .cls-50, .cls-51, .cls-52, .cls-53, .cls-54, .cls-55, .cls-56, .cls-57, .cls-58, .cls-59, .cls-60, .cls-61, .cls-62, .cls-63, .cls-64, .cls-65, .cls-66, .cls-67, .cls-68, .cls-69, .cls-70, .cls-71, .cls-72, .cls-73, .cls-74, .cls-75, .cls-76, .cls-77, .cls-78, .cls-79, .cls-80, .cls-81, .cls-82, .cls-83, .cls-84, .cls-85, .cls-86, .cls-87, .cls-88, .cls-89, .cls-90, .cls-91, .cls-92, .cls-93, .cls-94, .cls-95, .cls-96, .cls-97 {
        stroke-width: 0px;
      }

      .cls-2 {
        fill: #f3f3f3;
      }

      .cls-3 {
        fill: #f7f7f7;
      }

      .cls-4 {
        fill: #f2f2f2;
      }

      .cls-5 {
        fill: #f6f6f6;
      }

      .cls-6 {
        fill: #f9f9f9;
      }

      .cls-7 {
        fill: #f8f8f8;
      }

      .cls-8 {
        fill: #4c4c4c;
      }

      .cls-9 {
        fill: #494949;
      }

      .cls-10 {
        fill: #4b4b4b;
      }

      .cls-11 {
        fill: #4f4f4f;
      }

      .cls-12 {
        fill: #505050;
      }

      .cls-13 {
        fill: #343434;
      }

      .cls-14 {
        fill: #282828;
      }

      .cls-15 {
        fill: #4e4e4e;
      }

      .cls-16 {
        fill: #353535;
      }

      .cls-17 {
        fill: #2d2d2d;
      }

      .cls-18 {
        fill: #484848;
      }

      .cls-19 {
        fill: #2a2a2a;
      }

      .cls-20 {
        fill: #4a4a4a;
      }

      .cls-21 {
        fill: #474747;
      }

      .cls-22 {
        fill: #2c2c2c;
      }

      .cls-23 {
        fill: #2b2b2b;
      }

      .cls-24 {
        fill: #292929;
      }

      .cls-25 {
        fill: #464646;
      }

      .cls-26 {
        fill: #535353;
      }

      .cls-27 {
        fill: #262626;
      }

      .cls-28 {
        fill: #313131;
      }

      .cls-29 {
        fill: #383838;
      }

      .cls-30 {
        fill: #3b3b3b;
      }

      .cls-31 {
        fill: #3a3a3a;
      }

      .cls-32 {
        fill: #3d3d3d;
      }

      .cls-33 {
        fill: #272727;
      }

      .cls-34 {
        fill: #393939;
      }

      .cls-35 {
        fill: #5a5a5a;
      }

      .cls-36 {
        fill: #3c3c3c;
      }

      .cls-37 {
        fill: #2f2f2f;
      }

      .cls-38 {
        fill: #2e2e2e;
      }

      .cls-39 {
        fill: #1a1a1a;
      }

      .cls-40 {
        fill: #1b1b1b;
      }

      .cls-41 {
        fill: #3e3e3e;
      }

      .cls-42 {
        fill: #3f3f3f;
      }

      .cls-43 {
        fill: #181818;
      }

      .cls-44 {
        fill: #0a0a0a;
      }

      .cls-45 {
        fill: #191919;
      }

      .cls-46 {
        fill: #363636;
      }

      .cls-47 {
        fill: #454545;
      }

      .cls-48 {
        fill: #444;
      }

      .cls-49 {
        fill: #373737;
      }

      .cls-50 {
        fill: #111;
      }

      .cls-51 {
        fill: #0e0e0e;
      }

      .cls-52 {
        fill: #1c1c1c;
      }

      .cls-53 {
        fill: #1d1d1d;
      }

      .cls-54 {
        fill: #0f0f0f;
      }

      .cls-55 {
        fill: #424242;
      }

      .cls-56 {
        fill: #101010;
      }

      .cls-57 {
        fill: #090909;
      }

      .cls-58 {
        fill: #414141;
      }

      .cls-59 {
        fill: #404040;
      }

      .cls-60 {
        fill: #0d0d0d;
      }

      .cls-61 {
        fill: #141414;
      }

      .cls-62 {
        fill: #070707;
      }

      .cls-63 {
        fill: #080808;
      }

      .cls-64 {
        fill: #151515;
      }

      .cls-65 {
        fill: #434343;
      }

      .cls-66 {
        fill: #0c0c0c;
      }

      .cls-67 {
        fill: #0b0b0b;
      }

      .cls-68 {
        fill: #232323;
      }

      .cls-69 {
        fill: #212121;
      }

      .cls-70 {
        fill: #202020;
      }

      .cls-71 {
        fill: #222;
      }

      .cls-72 {
        fill: #1f1f1f;
      }

      .cls-73 {
        fill: #1e1e1e;
      }

      .cls-74 {
        fill: #131313;
      }

      .cls-75 {
        fill: #121212;
      }

      .cls-76 {
        fill: #171717;
      }

      .cls-77 {
        fill: #161616;
      }

      .cls-78 {
        fill: #252525;
      }

      .cls-79 {
        fill: #242424;
      }

      .cls-80 {
        fill: #303030;
      }

      .cls-81 {
        fill: #323232;
      }

      .cls-82 {
        fill: #333;
      }

      .cls-83 {
        fill: #fdfdfd;
      }

      .cls-84 {
        fill: #f1f1f1;
      }

      .cls-85 {
        fill: #efefef;
      }

      .cls-86 {
        fill: #fafafa;
      }

      .cls-87 {
        fill: #fbfbfb;
      }

      .cls-88 {
        fill: #fefefe;
      }

      .cls-89 {
        fill: #eee;
      }

      .cls-90 {
        fill: #f0f0f0;
      }

      .cls-91 {
        fill: #f5f5f5;
      }

      .cls-92 {
        fill: #030303;
      }

      .cls-93 {
        fill: #040404;
      }

      .cls-94 {
        fill: #010101;
      }

      .cls-95 {
        fill: #060606;
      }

      .cls-96 {
        fill: #050505;
      }

      .cls-97 {
        fill: #020202;
      }
    </style>
  </defs>
  <path class="cls-87" d="M34.78,7.6c.3.07.59-.09.93-.08-.03.19-.25.06-.26.23.31.37.81.63.95,1.19.03.14-.09.18-.16.24-.15.07-.26.2-.41.28-.06.02-.13.01-.19-.02-.03-.03-.05-.07-.06-.11-.01-.16-.03-.33-.1-.48-.03-.1-.06-.2-.11-.29-.09-.17-.2-.33-.32-.48-.06-.08-.13-.15-.2-.22-.04-.04-.08-.09-.1-.14-.01-.04,0-.08.03-.11Z"/>
  <path class="cls-54" d="M13.98,9.29c.16-.31.23-.65.26-.99.01-.1.03-.19.15-.19.07-.05.14-.04.2.02.06.09.16.16.15.29.04.09.02.17-.04.24-.07.07-.16.14-.21.23-.16.28-.18.6-.3.89-.02.06-.04.12-.05.18-.05.15-.05.3-.05.45,0,.07-.01.14-.03.2-.03.09-.08.17-.18.2-.26-.05-.08-.28-.16-.4.09-.37.18-.74.26-1.12Z"/>
  <path class="cls-6" d="M26.03,9.14c0-.18.63.08.25-.36.29.03.41-.33.69-.3.17.02.33.05.49.08.06.23-.12.31-.25.42-.19.08-.39.16-.56.3-.13.07-.26.14-.4.19-.04,0-.09,0-.13,0-.1-.04-.13-.11-.14-.21,0-.05.02-.09.06-.12Z"/>
  <path class="cls-6" d="M44.95,9.73c.05.14.18.3.02.43-.11.08-.24.19-.39.02-.11-.13-.12.07-.18.1-.3.17-.58.3-.85-.04-.03-.08.02-.13.08-.17.04-.02.08-.04.13-.05.28-.13.6-.16.87-.33.12-.04.23-.05.34.04Z"/>
  <path class="cls-31" d="M36.21,9.09c.02-.11.19-.03.2-.16.03,0,.06,0,.08,0,.24-.12.4-.41.71-.39.11,0,.21.02.28.12-.1.09-.2.19-.3.28-.19.14-.3.35-.48.5-.1.09-.17.21-.33.22-.15-.02-.27-.09-.32-.25-.03-.14.09-.22.15-.31Z"/>
  <path class="cls-75" d="M43.06,9.77c.71-.26,1.42-.54,2.16-.69.09-.05.12,0,.14.07-.06.22-.26.21-.43.27-.12.03-.23.08-.33.16-.04.02-.08.04-.12.04-.33.09-.64.23-.95.35-.17.02-.35.08-.51-.03-.03-.07-.03-.13.02-.18Z"/>
  <path class="cls-46" d="M28.51,9.23c.06.05.11.1.1.19,0,.14.12.19.2.27.1,0,.23-.02.23.15-.03.15-.12.24-.25.31-.12.04-.23.04-.35,0-.07-.03-.12-.07-.17-.13-.14-.21-.39-.37-.3-.69.06-.15.17-.23.33-.25.11,0,.17.07.23.15Z"/>
  <path class="cls-54" d="M21.09,8.01c-.08.13.25.24.02.38-.14.06-.19-.07-.26-.14-.22-.21-.38-.04-.55.08-.1.07-.2.14-.26.25-.04.07-.08.14-.12.21-.04.05-.08.09-.14.11-.14.01-.29.07-.41-.05-.02-.06-.02-.12.03-.17.28-.22.58-.43.84-.68.3-.28.57-.25.86,0Z"/>
  <path class="cls-63" d="M31.08,6.98c.41.12.82.05,1.23.04.19,0,.38-.13.57,0,.26.17.6.02.86.18,0,.02.02.04.03.06,0,.05-.03.08-.07.11-.15.06-.31.07-.46.11-.07,0-.14,0-.2-.03-.33-.23-.69-.18-1.05-.13-.23.03-.47.06-.71.04-.15-.08-.31-.17-.2-.39Z"/>
  <path class="cls-29" d="M14.43,3.94l.02.03-.02.03c.06.27.08.55.14.82.05.11.04.24.04.35,0,.15.02.3-.04.44-.05.07-.11.09-.19.08-.05-.01-.09-.04-.11-.09-.07-.52-.18-1.04-.24-1.56.01-.08.04-.14.09-.2.14-.1.23-.02.31.09Z"/>
  <path class="cls-87" d="M33.74,7.2c.03-.13-.12-.43.23-.21.07.04.17.05.2-.05.03-.1,0-.24.17-.2.2.05-.06.14.01.2.01.01.02.03.03.03.15.01.38-.25.4.09,0,.05-.15.25-.19.41-.1.12-.21.05-.32,0-.16-.12-.38-.14-.55-.26v-.03Z"/>
  <path class="cls-37" d="M4.67,14.42c-.15.15-.34.23-.54.29-.14.04-.28.09-.43.07-.05-.01-.09-.04-.12-.08-.02-.04-.03-.09-.04-.13.02-.19.17-.3.29-.43.03-.03.07-.05.11-.06.12,0,.24-.09.36-.04.09.14.26.18.38.28.02.04,0,.08-.02.11Z"/>
  <path class="cls-7" d="M34.12,7.99c-.19.41-.51.16-.78.15-.29-.01-.2-.29-.27-.46.07-.07.16-.08.25-.08.11.01.21.05.32.06.09,0,.17.01.26.03.04.01.08.03.12.05.07.06.09.15.09.24Z"/>
  <path class="cls-50" d="M1.04,6.16c-.22.38-.45.04-.63-.02-.5-.18-.53-.51-.14-.86.05-.08.12-.12.22-.08.06.04.1.09.1.16q-.23.41.28.62c.08.04.15.09.18.19Z"/>
  <path class="cls-61" d="M25.77,10.22c-.1-.03-.24-.03-.21-.2-.03-.04-.04-.08-.02-.12.05-.05.11-.06.18-.05.06.01.12.03.18.05.23.07.37-.11.54-.2.14.03.22-.07.31-.14.11-.09.21-.2.37-.18.06,0,.12.03.17.07.03.02.06.05.08.09-.26.16-.51.31-.77.47-.21.34-.52.31-.84.23Z"/>
  <path class="cls-54" d="M37.54,7.87c.27-.55.81-.65,1.32-.79.06.06.04.11,0,.17-.07.08-.14.15-.21.23-.03.03-.06.05-.1.07-.15.02-.26.1-.36.2-.22.09-.38.34-.67.24-.03-.04-.03-.08.01-.12Z"/>
  <path class="cls-76" d="M33.64,7.77c-.12.05-.2-.04-.29-.09-.17-.08-.34-.03-.51-.03-.18-.02-.35.03-.53-.02-.22.02-.47-.09-.67.08-.02-.01-.04-.03-.06-.04-.05-.06-.07-.12-.02-.2.5-.09.99-.31,1.5-.07.07,0,.14,0,.21,0,.17-.03.31.03.4.18.02.07.02.13-.04.18Z"/>
  <path class="cls-64" d="M15.59,9.07c.22-.18.45-.35.67-.53.34-.1.67-.27,1.04-.15.02.25-.21.2-.34.27-.16.05-.34.04-.48.16-.11.07-.21.14-.31.22-.11.08-.21.18-.35.21-.1,0-.19,0-.26-.09,0-.03.01-.06.02-.09Z"/>
  <path class="cls-3" d="M7.58.52C7.83-.02,8.34.03,8.8,0c.03,0,.07.09.1.13-.02.06-.08.09-.13.12-.07.03-.15.06-.22.09-.09.03-.18.08-.26.14-.03.02-.07.04-.1.05-.11.05-.23.05-.35.05-.09,0-.2.05-.26-.06Z"/>
  <path class="cls-44" d="M3.59,7.87c.16-.44.31-.89.47-1.33-.08-.14-.02-.23.1-.31.13,0,.16.08.18.18,0,.12-.04.22-.07.33-.13.29-.11.63-.3.89-.07.16-.03.35-.13.51-.03.04-.07.06-.12.07-.08,0-.14-.01-.2-.06-.07-.12.06-.19.07-.28Z"/>
  <path class="cls-83" d="M.45,5.19c-.06.03-.12.06-.18.09-.08-.09-.04-.21-.06-.31-.06-.36.04-.48.4-.36.1.03.22.02.33.03.03.04.04.08.02.13-.13.19-.25.38-.51.42Z"/>
  <path class="cls-66" d="M24.92,8.1c.21-.13.4-.29.62-.39.2-.09.46-.3.58.1-.04.12-.13.17-.24.2-.14.03-.28.09-.41.16-.04.02-.08.04-.11.06-.04.02-.08.03-.12.04-.14.01-.26,0-.31-.17Z"/>
  <path class="cls-43" d="M34.98,10.81c-.43-.26-.11-.62-.12-.94.07-.2-.02-.41.04-.61.02-.04.05-.07.09-.09.1,0,.15.08.2.15.04.05.07.11.09.17,0,.04,0,.08,0,.12-.05.14-.11.27-.14.41-.05.17-.09.33,0,.5.02.04.04.08.05.12,0,.15-.13.14-.22.17Z"/>
  <path class="cls-45" d="M40.2,9.79c-.46-.25-.58-.71-.75-1.15.45-.18.4.25.54.45.04.1.11.19.18.28.07.09.12.19.1.32-.01.05-.04.08-.07.11Z"/>
  <path class="cls-42" d="M3.49,2.84c.09-.04.18-.08.26-.11.02,0,.04,0,.06.01.06.04.09.08.11.15,0,.04,0,.08,0,.12-.02.08-.04.16-.05.24-.01.06-.03.12-.07.17-.06.06-.14.1-.22.13-.06.02-.13.02-.2,0-.07-.02-.12-.06-.16-.12-.07-.12-.09-.24.03-.35.11-.05.16-.16.23-.26Z"/>
  <path class="cls-74" d="M1.89,15.38c-.15-.1-.1-.15.04-.21.31-.15.61-.31.92-.46.09-.06.17-.06.22.05,0,.1-.08.15-.14.22-.09.09-.21.13-.32.2-.14.08-.29.15-.42.26-.06.03-.12.04-.19.03-.04-.02-.08-.04-.11-.07Z"/>
  <path class="cls-97" d="M3.06,11.67c-.27-.52-.01-1.02.06-1.52.05-.03.09-.03.14,0,.09.13.09.29.08.44,0,.12-.05.24-.07.36-.02.16-.01.33-.02.49,0,.07-.03.14-.07.2-.03.04-.08.05-.12.02Z"/>
  <path class="cls-74" d="M23.38,9.32c.34-.27.59-.66,1.04-.76.03.03.06.06.07.1.04.29-.24.31-.38.45-.1.13-.28.14-.37.28-.12.07-.24.13-.38.05-.03-.04-.02-.08,0-.12Z"/>
  <path class="cls-56" d="M14.43,3.94c-.1-.03-.19-.06-.29-.1-.02-.01-.03-.03-.05-.04-.09-.14-.14-.3-.21-.45-.06-.2-.17-.39-.23-.59-.02-.09-.04-.17,0-.26.04-.03.08-.02.12,0,.2-.02.15.13.19.24.14.4.31.79.47,1.19Z"/>
  <path class="cls-53" d="M15.57,9.16h.31c.07.08.08.17.05.26-.08.17-.24.25-.39.34-.08.03-.17.02-.25,0-.06-.02-.11-.05-.15-.11-.05-.17.26-.19.15-.38.06-.12.17-.09.27-.1Z"/>
  <path class="cls-6" d="M13.4,10.5c.09.06.18.13.27.19.12.12.16.27.14.44-.04.09-.1.16-.21.13-.08,0-.08.18-.21.08-.13-.1-.18-.24-.1-.36.1-.16.13-.31.12-.48h0Z"/>
  <path class="cls-13" d="M44.87,9.38c.12-.16.34-.07.47-.2.14-.14.33-.16.5-.22.02-.04.05-.09.11-.07.05-.02.09-.03.14-.02.14.22-.03.3-.17.38-.13.08-.29.09-.39.22-.03.03-.07.05-.1.08-.12-.08-.24.03-.36-.02-.08-.03-.15-.07-.2-.15Z"/>
  <path class="cls-43" d="M18.38,11.14c0-.06-.01-.12-.02-.18.06-.05.16.06.2-.05.06-.02.11-.02.17,0,.05.02.11.05.16.06.14.02.23-.09.34-.13.1,0,.17.03.2.13-.06.21-.21.32-.41.39-.18.08-.35.06-.48-.1-.05-.04-.1-.08-.16-.13Z"/>
  <path class="cls-81" d="M7.02,1.23c0,.05-.02.08-.08.07-.1.2-.34.19-.49.32h.02c-.07,0-.14.03-.22,0-.11-.06-.17-.16-.14-.29.15-.15.39-.13.52-.32.06-.03.12-.07.18-.1.04-.04.09-.04.13,0,.09.09.15.19.08.32Z"/>
  <path class="cls-43" d="M30.81,7.7c-.07-.08-.14-.16-.22-.23-.16-.15-.14-.36-.05-.5.09-.13.28-.2.44-.03.06.13-.06.24-.04.37-.02.11.03.21.07.3,0,.04-.01.08-.04.11-.06.03-.12.03-.17-.03Z"/>
  <path class="cls-28" d="M35.65,9.4c.06,0,.12,0,.18,0,.03.02.06.05.08.09.04.11.06.23.07.35-.04.08.03.18-.04.25-.04.14-.14.19-.28.19-.07-.01-.12-.05-.15-.12-.03-.12,0-.25-.03-.38.04-.13-.1-.35.17-.38Z"/>
  <path class="cls-45" d="M27.16,8.91l.3-.35c.23-.04.41-.36.68-.11.05.05.06.1.04.17-.02.04-.05.06-.09.06-.06.02-.1-.18-.18-.02-.17.08-.18.29-.31.4-.13.06-.26.05-.38-.03-.03-.03-.05-.07-.06-.11Z"/>
  <path class="cls-39" d="M43.63,10.14s-.06.07-.09.1c-.41.09-.83.17-1.24.26-.09-.04-.15-.09-.08-.19.07-.05.15-.07.23-.09.1-.02.19-.05.29-.08.1-.03.17-.1.27-.12.21.09.42-.09.62.01.03.04.03.08,0,.11Z"/>
  <path class="cls-38" d="M29.65,9.22c.1-.09.19-.17.29-.26.19.04.47-.08.49.27-.06.14-.19.17-.31.23-.18.02-.35.35-.53.01,0-.09.05-.16.06-.25Z"/>
  <path class="cls-3" d="M4.19,13.86c.01.23-.2.19-.31.26h.01c-.1.09-.16.27-.36.19"/>
  <path class="cls-43" d="M46.39,8.54c.09-.16.22-.26.42-.2.1.03.16.14.14.22-.05.18-.12.36-.36.36-.06-.01-.11-.05-.15-.09-.05-.09-.09-.18-.05-.28Z"/>
  <path class="cls-17" d="M34.12,7.99c-.04-.06-.07-.12-.11-.18.04-.34.28-.15.45-.17.12.01.24-.02.35.04l.08.08c.06.13-.07.21-.08.32-.03.03-.06.05-.1.06-.15.06-.24-.12-.39-.09-.07-.02-.13-.04-.2-.06Z"/>
  <path class="cls-28" d="M1.04,6.16c-.07-.04-.14-.07-.2-.11-.29-.24-.29-.5-.04-.77.06-.03.12-.04.19-.02.13.08.07.21.09.32,0,.1.05.17.11.24.04.07.07.14.07.22-.01.04-.04.07-.07.1-.02,0-.04.01-.06.02-.03,0-.06,0-.09,0Z"/>
  <path class="cls-74" d="M25.2,9.42c.02-.22-.06-.46.08-.66.05-.03.09-.03.13.01.13.24.07.52.17.77.02.12.05.23,0,.35,0,.04,0,.08,0,.12-.37-.05-.19-.42-.36-.59Z"/>
  <path class="cls-57" d="M25.85,7.9c.09-.03.17-.06.26-.09.03.39.08.79-.16,1.14-.02.02-.05.03-.08.03-.03,0-.04-.01-.04-.02-.11-.2.04-.42-.04-.62-.01-.06-.02-.12,0-.17.04-.06.07-.11.02-.18,0-.04.01-.07.05-.08Z"/>
  <path class="cls-46" d="M30.69,9.24s-.09,0-.14.01c-.13-.09-.15-.24-.2-.37,0-.25.24-.35.34-.54.09-.06.17-.06.27-.02.15.13.06.29.04.44-.08.09-.19.16-.22.28-.02.07-.11.11-.1.2Z"/>
  <path class="cls-74" d="M46.48,8.8s.07.08.1.12c-.31.27-.65.47-1.05.56-.01-.18.13-.18.24-.23.15-.07.33-.13.33-.35.1-.11.21-.21.38-.1Z"/>
  <path class="cls-56" d="M1.39,4.26c.12-.23.39-.25.57-.39.08-.05.12,0,.15.07-.03.34-.44.36-.54.64-.11.14-.24.1-.37.05-.04-.02-.08-.05-.1-.09.04-.06.08-.12.12-.18.03-.07.12-.05.16-.1Z"/>
  <path class="cls-54" d="M31,8.75c-.11-.12-.02-.25-.02-.37-.05-.05-.06-.11-.05-.18.02-.06.06-.11.1-.16.12-.09.12-.26.23-.36.1-.02.17.03.22.11.04.15-.06.26-.11.38-.11.19-.21.38-.32.57-.02,0-.04,0-.06,0Z"/>
  <path class="cls-23" d="M15.49,9.74c.07-.17.24-.21.38-.29.07-.06.14-.05.21,0-.15.29-.29.59-.66.67-.01-.01-.03-.02-.04-.04,0-.04,0-.07.01-.11.05-.08.05-.17.11-.24Z"/>
  <path class="cls-76" d="M12.24.73c.3.09.48.32.68.55-.02.07-.06.12-.12.15-.06.02-.13.02-.19,0-.08-.03-.16-.07-.22-.14-.07-.13-.17-.24-.22-.39,0-.07.01-.13.07-.17Z"/>
  <path class="cls-37" d="M12.07,9.95c-.13.12-.25.25-.38.37-.07,0-.12-.04-.16-.09-.05-.05-.08-.1-.09-.17,0-.07.01-.13.06-.19.2-.1.35-.42.63-.13.01.07-.01.14-.06.2Z"/>
  <path class="cls-28" d="M3.32,9.38c.04-.09.07-.19.11-.28.09-.14-.08-.43.24-.45.05,0,.09.02.13.05.09.14-.03.28-.02.42-.03.09-.03.19-.06.29-.1.15-.23.19-.4.11-.05-.04-.05-.09,0-.13Z"/>
  <path class="cls-44" d="M9.38.07c.51-.01,1.01-.07,1.52,0,.01.12-.08.14-.16.17-.27.04-.55.09-.83.06-.14-.02-.29.06-.43-.01-.07-.06-.13-.12-.09-.22Z"/>
  <path class="cls-6" d="M10.17,11.46c.08.17.22-.04.31.05-.06.28-.37.16-.5.32h0c-.13-.12-.28.13-.41-.01-.04-.07-.03-.13,0-.19.14-.11.3-.19.48-.23.05,0,.08.02.12.06Z"/>
  <path class="cls-31" d="M39.93,9.19c-.16-.18-.05-.6-.47-.56-.01-.03-.02-.06-.01-.09-.05-.08,0-.11.06-.15.18-.04.33,0,.46.14.06.05.09.13.15.19h0c.06.16.04.32-.07.47-.04.04-.08.04-.13,0Z"/>
  <path class="cls-95" d="M14.74,6.13c-.02.05-.04.11-.11.09-.07-.05-.12-.11-.14-.2-.02-.13,0-.25.06-.37,0-.16,0-.31,0-.47.1-.06-.07-.29.16-.28.01.41.03.82.04,1.23Z"/>
  <path class="cls-34" d="M35.93,9.87c-.07-.12-.11-.25-.09-.39.09-.06.16-.17.29-.07l.29.18c.05.06.05.12,0,.18-.02.02-.05.03-.08.02-.12.11-.23.23-.4.09Z"/>
  <path class="cls-76" d="M30.15,9.53c-.11.33-.41.42-.68.54-.03-.03-.06-.05-.08-.08-.04-.07-.06-.15-.03-.23.03-.05.08-.09.14-.12.22.06.37-.13.56-.18.04,0,.08.02.09.06Z"/>
  <path class="cls-92" d="M28.13,8.65c0-.07,0-.13,0-.2.46.09.36.46.38.77l-.18-.1c-.22-.09-.23-.28-.2-.48Z"/>
  <path class="cls-28" d="M13.6,11.26c.05-.04.1-.07.16-.11.02,0,.04,0,.06,0,.09.01.16.04.24.09.14.09.22.21.15.39-.16.22-.34.06-.51.03-.08-.05-.05-.14-.09-.21,0-.06,0-.13,0-.19Z"/>
  <path class="cls-34" d="M11.13,10.72s0,.06-.04.07c-.17.12-.39.09-.56.22-.12-.01-.19-.08-.2-.2.06-.17.24-.24.33-.37.03-.03.07-.05.11-.06.12,0,.21.04.3.11.06.07.11.14.05.23Z"/>
  <path class="cls-13" d="M10.36,10.81c.06.06.12.12.18.18.06,0,.1.04.11.1-.13.13-.27.24-.46.23-.13-.02-.23-.08-.26-.22.06-.21.19-.33.43-.29Z"/>
  <path class="cls-64" d="M14.25,12.3c-.06.04-.12.07-.17.11-.02-.02-.03-.03-.05-.05-.12-.29.1-.49.21-.72.05-.06.12-.07.2-.07.05,0,.09.03.12.07l-.11.37c-.04.11-.07.23-.2.29Z"/>
  <path class="cls-53" d="M2.07,3.98s-.07-.07-.11-.1c.26-.19.52-.37.77-.56.06.05.06.11.05.18-.05.12-.13.23-.22.32-.18,0-.22.44-.49.16Z"/>
  <path class="cls-75" d="M14.56,11.64s-.08,0-.11,0c-.04-.12-.03-.23.04-.34.09-.11.14-.24.22-.36.07-.08.16-.14.28-.13.04.01.08.03.11.06,0,.03,0,.06,0,.09,0,.16-.15.2-.23.3-.11.12-.13.31-.29.38Z"/>
  <path class="cls-61" d="M37.16,8.64c-.28-.03-.39.33-.67.28.14-.24.25-.51.58-.55.13.06.2.13.1.27Z"/>
  <path class="cls-46" d="M16.08,9.46c-.07,0-.14,0-.21,0,0-.09,0-.19,0-.28.1-.06.12-.21.27-.2.06-.04.12-.02.17.01.03.03.06.06.07.1.02.06.01.12,0,.18-.05.1-.16.12-.23.18-.02,0-.05,0-.07,0Z"/>
  <path class="cls-24" d="M13.2,2.52l-.02-.03v-.04c-.12-.22-.37-.39-.27-.7.17-.03.32.05.47.1.13.02.09.12.09.19-.1.12.02.3-.11.41-.04.05-.09.09-.17.07Z"/>
  <path class="cls-80" d="M34.68,8.07s.07,0,.11,0c.1-.04.18,0,.26.06.15.11.24.23.14.42-.03.04-.08.06-.12.07-.1.02-.19,0-.27-.08-.04-.04-.08-.08-.11-.13-.06-.12-.09-.23,0-.35Z"/>
  <path class="cls-27" d="M3.72,13.28c-.07,0-.13,0-.2.01-.15.04-.14-.11-.19-.18-.05-.1-.11-.21-.16-.31.03-.03.07-.06.11-.07.14-.03.26.01.36.11.07.08.14.15.2.24.02.1-.03.16-.11.2Z"/>
  <path class="cls-69" d="M9.38.07c.03.05.07.11.1.16-.09.17-.23.24-.41.26-.15-.07-.45.03-.35-.32.06-.01.13-.02.19-.03.16-.02.32-.04.48-.06Z"/>
  <path class="cls-51" d="M29.46,9.97s0,.06,0,.09c-.13.07-.25.14-.38.21-.17.1-.36.02-.55.05-.1-.06-.18-.13-.12-.26h.38c.21-.09.41-.24.66-.09Z"/>
  <path class="cls-51" d="M17.94,8.91c-.06.02-.12.04-.17.07-.35-.13-.69.1-1.04,0,0-.02-.02-.04-.02-.06.15-.22.41-.13.61-.22.1-.03.21-.06.31-.06.12.02.25-.03.36.05.02.04.03.08.03.12-.01.04-.03.07-.07.1Z"/>
  <path class="cls-77" d="M24.42,8.66s0-.07,0-.1c.03-.3.38-.25.5-.47.11.07.22.11.35.09.03.03.04.07.02.11-.09.09-.22.09-.33.14-.09.04-.16.1-.22.18-.06.06-.13.1-.21.11-.04,0-.08-.02-.1-.06Z"/>
  <path class="cls-96" d="M42.2,10.35l.1.15c-.35.06-.69.07-1.04,0-.06-.05-.06-.11-.03-.18.2-.26.42.01.64-.02.08,0,.16-.03.24-.02.04,0,.07.03.1.06Z"/>
  <path class="cls-74" d="M9.61,11.67c-.01.05-.02.1-.04.16-.18.09-.36.19-.54.28-.08-.03-.14-.08-.11-.19.09-.12.18-.23.29-.32.09-.06.19-.1.3-.1.04,0,.08.02.12.05.02.04.02.08-.02.12Z"/>
  <path class="cls-33" d="M4.65,2c.16-.07.31-.14.47-.21.07.03.17,0,.22.09.02.04.02.08.02.12-.01.04-.03.08-.06.1-.11.06-.24.07-.34.14-.1.05-.19.1-.31.06-.08-.05-.13-.12-.1-.22.04-.03.07-.05.11-.08Z"/>
  <path class="cls-27" d="M8.66,12.32c-.2.16-.42.3-.67.37-.06-.05-.17-.01-.21-.11.01-.16.15-.2.25-.26.2-.06.38-.23.6-.06,0,.02.02.04.03.06Z"/>
  <path class="cls-17" d="M30.89,7.33c-.13-.17.05-.26.09-.39.03.01.07.02.1.04,0,.15.13.22.19.33.03.02.04.06.04.1-.02.07-.05.14-.09.2-.03.05-.07.09-.12.11-.04.01-.07,0-.1-.02,0-.04-.01-.07-.02-.11-.09-.07-.02-.19-.09-.27Z"/>
  <path class="cls-50" d="M28.03,9.33c-.09.31.21.43.31.65-.14.11-.23.02-.3-.09-.15-.16-.28-.33-.3-.56.03-.04.07-.06.11-.07.07,0,.13.01.18.07Z"/>
  <path class="cls-69" d="M23.68,9.82c-.12.16-.26.28-.48.29-.02-.02-.03-.03-.05-.05-.07-.17,0-.31.1-.45.04-.03.08-.05.12-.06.07-.01.14,0,.2.03.08.06.1.14.11.24Z"/>
  <path class="cls-61" d="M14.52,6.51c0,.06.02.13.03.19-.06.32-.06.66-.38.86-.02.02-.04.03-.07.03-.03,0-.04,0-.04-.01-.02-.03-.04-.07-.03-.12.02-.12.09-.22.16-.33.07-.1.12-.2.14-.32.02-.1.02-.21.09-.3.02-.02.05-.03.08-.02.03,0,.04.01.04.02Z"/>
  <path class="cls-64" d="M39.44,7.03c.3.11.36.37.38.64.06.09,0,.11-.07.13-.11-.03-.19-.12-.26-.2-.06-.07-.1-.16-.12-.25-.03-.12-.02-.24.08-.33Z"/>
  <path class="cls-2" d="M16.15,9.45c.07-.07.13-.14.2-.21.06-.04.12-.04.18,0"/>
  <path class="cls-54" d="M3.69,8.72c-.27,0-.12.29-.26.38-.09-.33.02-.63.09-.95.06,0,.12,0,.18,0,.05.04.07.1.08.16-.03.14,0,.28-.08.41Z"/>
  <path class="cls-75" d="M39.25,8.07c-.2-.06-.12-.48-.46-.38-.09.05-.12-.01-.13-.08.04-.09.12-.13.21-.16.14-.01.26.03.39.08.06.04.11.08.14.14.04.09.04.18,0,.27-.03.06-.08.11-.15.12Z"/>
  <path class="cls-54" d="M18.34,8.59c.19.03.38.05.57.08.02-.02.04-.03.06-.02.02,0,.03.02.03.02.03.01.06.02.09.03.03.11-.02.17-.1.23-.04.02-.08.03-.13.04-.19.02-.37-.01-.52-.13-.05-.05-.07-.12-.05-.19.01-.02.03-.04.04-.06Z"/>
  <path class="cls-50" d="M45.04,9.45c.13.04.28-.04.39.1-.16.06-.32.12-.48.18-.12.02-.24.03-.36.05-.03-.03-.05-.06-.06-.1,0-.04.02-.08.05-.1h0c.13-.12.3-.1.46-.11Z"/>
  <path class="cls-40" d="M41.16,9.75s.08.07.11.1c-.04.09-.12.13-.2.16-.06.02-.13.03-.19.02-.16-.04-.24-.18-.32-.31-.02-.04-.03-.08-.03-.13,0-.02,0-.04,0-.06.02-.04.05-.07.09-.09.13-.03.2.04.23.16l.02-.02-.02.02c.11.04.23.06.31.16Z"/>
  <path class="cls-44" d="M13.6,11.45c.08.04.09.11.1.18.17.2.05.42.02.62-.01.02-.03.03-.04.05-.39-.25-.17-.56-.08-.86Z"/>
  <path class="cls-67" d="M3.19,12.8h-.03c-.1-.07-.11-.18-.14-.28-.07-.19-.06-.38,0-.57l.04-.29s.05,0,.08,0c.13.12.12.28.13.43,0,.16.08.3.07.46-.01.11-.02.21-.15.25Z"/>
  <path class="cls-45" d="M2.86,15.5c-.08.03-.17.06-.25.09-.17-.14-.07-.27,0-.4.07-.08.17-.09.26-.11.09-.01.19,0,.28.02.04.02.08.05.1.09,0,.14-.18.07-.2.18-.06.04-.13.08-.19.12Z"/>
  <path class="cls-96" d="M2.74,7.03c-.16-.14-.31-.27-.47-.41-.03-.04-.02-.08,0-.11.06-.04.12-.05.18-.04.14.07.28.16.45.13.04.02.07.05.09.09.04.12.03.24-.05.34-.07.04-.14.04-.21,0Z"/>
  <path class="cls-74" d="M19.42,10.98l-.21-.11s-.02-.04-.03-.05c.02-.06.07-.1.12-.13.09-.05.18-.1.26-.16.09-.05.19-.1.3-.09.04,0,.08.03.11.07-.17.18-.29.41-.56.48Z"/>
  <path class="cls-84" d="M34.99,9.21c-.06.22.02.46-.12.67-.1-.29-.14-.58.02-.86.15,0,.16.09.1.2Z"/>
  <path class="cls-40" d="M3.05,14.8c-.04-.08-.12-.09-.2-.1.17-.15.43-.16.58-.35.07.05.13.09.18.16,0,.03,0,.06,0,.09-.1.13-.23.21-.39.25-.07,0-.13,0-.19-.06Z"/>
  <path class="cls-66" d="M39.25,8.07s.07-.07.11-.11c.21-.02.25.12.27.28,0,.08-.03.14-.09.2-.03.04-.06.07-.09.11-.23-.09-.19-.29-.19-.48Z"/>
  <path class="cls-22" d="M30.41,8.83c.05.14.1.28.14.42,0,0,0,0,0,0-.05.03-.09.02-.13-.03-.08-.23-.37-.07-.47-.25.09-.07.18-.15.28-.22.07,0,.14.03.19.09Z"/>
  <path class="cls-24" d="M31,7.7s.05,0,.08,0c.21.12.1.25,0,.37-.03.03-.06.06-.09.09-.12.06-.17-.01-.22-.1.01-.12.03-.24.04-.36h.19Z"/>
  <path class="cls-73" d="M23.2,10.1c-.13.23-.35.34-.58.45-.07-.01-.12-.05-.14-.13,0-.21.17-.26.32-.32.13-.03.26-.11.39,0h.01Z"/>
  <path class="cls-3" d="M35.5,10.54c.2.07.24.28.18.4-.08.16-.23,0-.35-.04-.06-.14,0-.25.07-.36.02-.03.04-.04.07-.03.02,0,.04.02.04.02Z"/>
  <path class="cls-61" d="M1.67,6.55c-.23-.06-.59.05-.54-.39,0,0,0,0,0,0,.2-.13.32.09.48.12.08.04.16.09.2.18-.02.08-.05.13-.14.08Z"/>
  <path class="cls-68" d="M5.38,1.68c.08-.17.28-.21.4-.34.06.05.12.1.13.18,0,.1-.04.19-.09.28-.05.06-.12.11-.2.12-.06,0-.11-.04-.16-.08-.04-.04-.08-.09-.08-.15Z"/>
  <path class="cls-57" d="M15.09,10.88h-.04s-.08-.05-.1-.09c-.06-.21.05-.36.15-.52.08-.09.14-.19.29-.14h.02c.03.31-.25.49-.33.76Z"/>
  <path class="cls-3" d="M28.52,10.26c.19,0,.38,0,.57,0-.18.24-.48.11-.71.21-.14.06-.06-.14-.04-.24.06-.04.12-.03.18.01Z"/>
  <path class="cls-77" d="M17.98,8.69c-.1.01-.21.15-.31-.01-.06-.06-.05-.13-.01-.2.05-.03.09-.03.13,0,.2-.05.38-.02.55.1h0c-.1.1-.22.15-.36.1Z"/>
  <path class="cls-17" d="M42.11,10.33l-.19.09c-.14-.16-.41-.12-.5-.33.02-.12.15-.14.21-.22.09-.03.13.05.19.09.08.1.25.07.32.19.02.07.02.13-.03.18Z"/>
  <path class="cls-77" d="M41.26,10.34c0,.05,0,.11,0,.16-.27-.02-.52-.09-.68-.34.01-.02.03-.03.04-.05.1-.06.21-.06.31-.02.09.04.16.12.25.17.03.02.06.05.08.09Z"/>
  <path class="cls-82" d="M37.83,8.34c-.13.01-.24.08-.29.2-.17.03-.23-.08-.25-.22.01-.21.15-.25.32-.25.08,0,.15.01.22.06.05.07.06.14,0,.21Z"/>
  <path class="cls-7" d="M31.38,8.17c-.06-.14.02-.26.07-.38,0-.16.09-.15.2-.11v.03c-.01.14.13.17.19.27h0c-.18,0-.31.12-.46.19Z"/>
  <path class="cls-3" d="M32.88,7.02c-.19,0-.38,0-.57,0,.17-.05.24-.29.48-.23.18.05.14.12.09.23Z"/>
  <path class="cls-51" d="M6.63,1.02c-.06.25-.23.33-.47.28-.03.03-.06.05-.1.05-.04,0-.07-.02-.1-.05.18-.2.42-.25.67-.28Z"/>
  <path class="cls-71" d="M6.66,13.37c-.13.12-.26.25-.46.2-.09.04-.12-.02-.14-.09,0-.1.05-.19.13-.25.04-.03.09-.04.14-.05.14.01.32-.05.33.19Z"/>
  <path class="cls-22" d="M39.44,7.03c0,.12,0,.25,0,.37-.04.03-.07.03-.12.03-.13-.07-.24-.17-.31-.31-.02-.07-.01-.12.04-.17.14-.03.26.03.38.09Z"/>
  <path class="cls-61" d="M6.09,13.47s.08.06.11.1c-.15.26-.43.28-.67.39-.01-.02-.03-.03-.04-.05,0-.14.1-.23.2-.31.13-.06.22-.2.39-.13Z"/>
  <path class="cls-78" d="M40.57,9.56s.01.07.02.11c-.02.16.16.32,0,.48h-.02c-.17-.07-.28-.21-.37-.36l.02-.13c.09-.14.2-.2.35-.09Z"/>
  <path class="cls-77" d="M3.75,2.72c.02-.25.28-.25.4-.39.03-.02.07-.04.11-.03.07.02.1.06.11.13-.02.06-.05.11-.09.16-.04.05-.09.08-.15.12-.11.05-.23.13-.35.01h-.03Z"/>
  <path class="cls-43" d="M37.64,8.16c-.13,0-.27,0-.29.18-.06.07-.13.07-.2,0-.06-.31.19-.38.38-.48,0,.03,0,.07,0,.1.05.05.16.08.09.19Z"/>
  <path class="cls-74" d="M3.32,9.38s-.02.06,0,.09c.07.07.16.12.17.22-.01.19,0,.4-.26.45-.04,0-.08,0-.11,0l.02-.17c.04-.16-.01-.34.08-.49.03-.03.07-.07.1-.1Z"/>
  <path class="cls-67" d="M30.41,8.83c-.08.01-.15-.01-.19-.09.13-.13.25-.25.38-.38.03-.03.05-.04.07-.03.02.01.03.02.03.03,0,.22-.22.3-.3.46Z"/>
  <path class="cls-36" d="M35.17,10.64s-.06,0-.09,0c-.03-.17-.17-.37.1-.48.11.05.23.09.3.19.01.05,0,.1-.01.14.02.01.03.03.04.05-.02,0-.03,0-.05,0-.07.09-.14.21-.29.1Z"/>
  <path class="cls-54" d="M36.68,9.39c.17-.15.18-.48.5-.47-.02.24-.18.38-.38.48-.04.04-.08.04-.11,0Z"/>
  <path class="cls-57" d="M3.87,14.11c.04-.16.25-.12.31-.26.03,0,.06-.02.09-.02.06,0,.13.02.19.03.06.06.05.13.02.19-.07.04-.13.04-.2,0-.12.13-.26.12-.42.06Z"/>
  <path class="cls-7" d="M14.85,11.26c.02-.14.16-.19.23-.3.08.04.25-.07.23.12,0,.06-.04.24-.19.17-.1-.05-.18.02-.27.01Z"/>
  <path class="cls-5" d="M40.86,9.6c-.08-.05-.16-.09-.24-.14-.13-.05-.18-.13-.12-.26.39-.11.4.13.36.4Z"/>
  <path class="cls-52" d="M6.91.92s-.07,0-.11,0c.07-.04.13-.07.2-.11.08-.13.23-.12.35-.17.04-.02.08-.05.12-.07.07.07.15.14.11.26-.2.19-.42.28-.68.1Z"/>
  <path class="cls-50" d="M42.11,10.15c-.13,0-.28,0-.29-.19.2.06.31-.15.48-.18.08.03.14.08.12.19-.07.12-.17.18-.31.18Z"/>
  <path class="cls-64" d="M40.12,8.72c-.06-.03-.13-.06-.19-.09-.06-.14-.14-.28-.14-.44.01-.04.04-.08.07-.11.02,0,.04-.01.07-.02.2.18.19.43.19.67Z"/>
  <path class="cls-74" d="M40.5,9.2c.04.09.08.17.12.26l-.03.02c-.12.08-.23.07-.33-.03-.03-.04-.05-.09-.07-.13-.04-.13-.13-.29.12-.32.06.07.12.13.18.2Z"/>
  <path class="cls-70" d="M29.46,9.7l-.09.09s-.06-.07-.07-.12c0-.07.02-.14.06-.2,0-.21.21-.16.29-.26.11.07.1.13,0,.2-.06.1-.06.23-.19.28Z"/>
  <path class="cls-61" d="M19.98,10.49s-.08,0-.13-.01c.03-.24.12-.44.35-.54.09.02.19.04.13.17-.04.09-.09.17-.13.26-.08.04-.16.08-.23.12Z"/>
  <path class="cls-70" d="M10.66,11.08s-.07-.07-.11-.1c.12-.23.34-.19.54-.19-.08.2-.27.21-.43.29Z"/>
  <path class="cls-28" d="M2.73,3.48c0-.06,0-.11,0-.17l.19-.11c.13.03.21.11.25.24,0,.16-.08.22-.23.22-.11-.02-.18-.07-.21-.18Z"/>
  <path class="cls-74" d="M14.6,8.12c-.07,0-.13-.01-.2-.02-.04-.16-.19-.36.14-.39.15.12.1.26.06.41Z"/>
  <path class="cls-41" d="M40.31,9c-.17.09-.03.19-.01.29-.14.1-.22.01-.28-.1.03-.16.07-.32.1-.49.06.1.13.19.19.29Z"/>
  <path class="cls-57" d="M14.52,4.8c-.09-.26-.11-.52-.09-.79.15.24.16.52.22.78-.04.05-.09.05-.14.01Z"/>
  <path class="cls-34" d="M12.24.73c0,.06,0,.11-.01.17-.03.04-.07.07-.12.09-.19.04-.36.02-.46-.18,0-.09.06-.14.14-.17.14-.04.26-.01.37.08.03,0,.06,0,.09.02Z"/>
  <path class="cls-74" d="M46.48,8.8c-.13.03-.25.07-.38.1-.05,0-.1,0-.16,0,.13-.14.25-.28.44-.36.03.09.06.17.1.26Z"/>
  <path class="cls-7" d="M1.39,4.26c0,.13-.1.08-.16.1-.09-.01-.19.03-.25-.07-.03-.06,0-.13.06-.15.14-.05.27-.01.35.12Z"/>
  <path class="cls-56" d="M35.17,10.64c.1-.03.19-.07.29-.1.07.16-.1.24-.13.36-.14.05-.24-.01-.34-.09.06-.06.13-.12.19-.17Z"/>
  <path class="cls-54" d="M34.8,7.69c-.1.03-.2.07-.3.1-.09-.12-.3-.14-.32-.33.03-.08.08-.1.16-.07.09.02.14.13.24.09.06.04.12.08.18.12,0,.03.02.06.03.09Z"/>
  <path class="cls-74" d="M13.76,11.15c-.13-.13-.06-.31-.09-.46.02-.09.03-.19.05-.28.12.1,0,.29.16.38.11.11.11.23.04.36-.04.05-.08.06-.13.02h-.03Z"/>
  <path class="cls-69" d="M13.38,1.85c-.16.09-.3.12-.39-.09-.03-.03-.04-.07-.03-.11.05-.07.11-.12.2-.09.06.1.2.14.21.28Z"/>
  <path class="cls-54" d="M29.36,9.49v.22c-.1.1-.22.17-.37.09-.06-.1-.13-.01-.19-.01-.05-.07-.06-.15.02-.21.2.11.35-.13.55-.09Z"/>
  <path class="cls-95" d="M41.63,9.87c0,.13-.07.18-.19.19-.03.03-.07.05-.11.05-.11-.01-.21-.05-.27-.16.04-.08.13-.09.21-.1.12,0,.24.01.36.02Z"/>
  <path class="cls-66" d="M3.61,14.51c-.11,0-.17-.04-.18-.16.03-.02.06-.04.09-.05.12-.07.24-.13.36-.2,0,.2-.15.3-.27.41Z"/>
  <path class="cls-93" d="M2.21,15.79s0,.04-.01.06c-.45.07-.24-.29-.31-.47h.13c.08.09.19.16.22.29,0,.04,0,.08-.03.12Z"/>
  <path class="cls-62" d="M1.67,6.55s.08-.06.12-.09c.18-.12.35-.17.47.08,0,.03,0,.06,0,.09-.2-.01-.41.1-.59-.07Z"/>
  <path class="cls-61" d="M27.86,9.32s-.08,0-.12,0l-.36.19s-.07,0-.1,0c-.04-.24.15-.31.3-.42.18-.03.28.03.28.22Z"/>
  <path class="cls-45" d="M3.71,14.99s-.06,0-.1,0c-.09-.03-.13-.09-.13-.17.02-.06.06-.1.13-.11.17,0,.34,0,.5,0-.14.09-.27.18-.41.28Z"/>
  <path class="cls-23" d="M8.94,11.94c.03.06.06.11.09.17-.13.07-.25.14-.38.21h0c-.07-.12-.11-.24-.04-.37.03-.04.07-.07.13-.08.08,0,.15,0,.21.07Z"/>
  <path class="cls-76" d="M28.52,10.26c-.06,0-.12,0-.18-.01-.08-.13-.33-.13-.29-.36.1.03.2.06.3.09.03.03.05.06.08.08.03.07.06.13.09.2Z"/>
  <path class="cls-59" d="M37.15,8.35c.07,0,.13,0,.2,0,.03.09.1.16.19.2.02.06,0,.09-.06.11-.11,0-.21,0-.32-.01-.03-.09-.06-.18-.1-.27.03-.02.06-.02.09-.02Z"/>
  <path class="cls-44" d="M45.84,8.96c-.13.16-.31.19-.5.22-.04-.03-.08-.07-.12-.1.2-.08.38-.23.62-.12Z"/>
  <path class="cls-81" d="M4.67,14.42s0-.07,0-.11c-.07-.08-.09-.18-.06-.28.16-.22.28-.15.38.06-.01.08-.09.11-.11.18-.01.12-.11.13-.2.15Z"/>
  <path class="cls-19" d="M12.15.71c-.13,0-.26,0-.39,0-.06-.07-.06-.16-.06-.24,0-.04.02-.08.05-.11.17.08.35.14.39.35Z"/>
  <path class="cls-23" d="M3.12,3.4c-.1-.04-.17-.1-.2-.2.02-.08.07-.1.15-.09.08-.03.17-.06.24.02-.07.09-.05.19-.01.28-.06.05-.12.05-.17,0Z"/>
  <path class="cls-62" d="M4.86,14.27s.06-.09.09-.14c.02-.03.05-.06.08-.09.1-.07.21-.13.32-.16.06,0,.12,0,.16.06h.02c-.15.28-.43.27-.67.33Z"/>
  <path class="cls-7" d="M14.25,12.3c.03-.12.09-.22.2-.29.01.09.22.11.09.26-.09.11-.18.09-.29.03Z"/>
  <path class="cls-66" d="M30.71,8.37s-.07,0-.11,0c.05-.1.11-.2.16-.3.07.03.15.07.22.1,0,.07,0,.14,0,.21-.09,0-.18,0-.28,0Z"/>
  <path class="cls-4" d="M30.69,9.24c-.11-.07.04-.11.02-.16.02-.09.08-.09.15-.09.07.02.11.07.13.14.1.58-.26-.1-.3.11Z"/>
  <path class="cls-59" d="M6.66,13.37c-.1-.14-.25-.08-.37-.1-.04-.07,0-.12.05-.17.11-.06.2-.19.36-.11.09.11.16.23.06.37-.02,0-.04.02-.06.02-.01,0-.02,0-.03-.01Z"/>
  <path class="cls-7" d="M18.53,11.27c.15.11.32.09.48.1-.19.2-.34.17-.48-.1Z"/>
  <path class="cls-92" d="M13.17,1.57l-.17.1c-.21,0-.23-.12-.2-.29.04-.03.08-.07.12-.1.09.1.17.19.26.29Z"/>
  <path class="cls-7" d="M32.32,7.64l.56-.04s.01.04.02.06c-.08.1-.36.09-.58-.02Z"/>
  <path class="cls-53" d="M30.41,9.22s.09.02.13.03c-.04.23-.2.27-.4.28l-.02-.02s-.04-.06,0-.09c.1-.07.19-.13.29-.2Z"/>
  <path class="cls-3" d="M9.03,12.51c.03-.08-.07-.25.13-.21.09.02.18.09.13.2-.07.16-.17.03-.26.01h0Z"/>
  <path class="cls-5" d="M41.16,9.75c-.16.05-.22-.07-.31-.16.1-.06.2-.11.31-.17.06.11.06.22,0,.33Z"/>
  <path class="cls-76" d="M30.89,9.04c-.06.01-.12.02-.18.03-.03-.23.05-.35.29-.33.02,0,.04,0,.06,0,0,.03,0,.06-.01.09,0,.11-.06.18-.16.21Z"/>
  <path class="cls-60" d="M34.68,8.07c0,.12,0,.23,0,.35l-.37-.37c.13-.15.24.05.37.02Z"/>
  <path class="cls-49" d="M13.29,2.42c.14-.08-.06-.34.19-.37l.02.02v.03c.01.13.12.24.13.38-.01.16-.09.19-.23.12-.06-.04-.07-.11-.1-.17Z"/>
  <path class="cls-95" d="M23.37,9.62s-.06,0-.09,0c-.05.05-.11.07-.18.06-.07-.02-.12-.06-.1-.14.03-.03.06-.06.1-.1.09-.04.18-.08.28-.12,0,.04,0,.07,0,.11.05.07.05.13-.01.19Z"/>
  <path class="cls-61" d="M34.8,8.55c.09,0,.18,0,.27,0,.1.13.04.22-.06.3-.05.02-.09.02-.13-.02-.15-.06-.07-.18-.07-.29Z"/>
  <path class="cls-92" d="M19.01,8.86c.03-.06.06-.11.09-.17.1,0,.19,0,.29,0,0,.06,0,.12,0,.17-.02.09-.09.13-.18.14-.08-.02-.16-.06-.19-.14Z"/>
  <path class="cls-75" d="M7.8,12.6c.08,0,.15.01.19.09-.14.1-.28.21-.47.2,0-.02-.02-.04-.03-.07.04-.15.12-.27.3-.23Z"/>
  <path class="cls-94" d="M7.58.73c-.07-.04-.09-.1-.1-.18.03-.01.06-.02.09-.04.11.06.18-.06.28-.06.08.27-.03.34-.28.27Z"/>
  <path class="cls-45" d="M16.52,9.23c-.06,0-.12,0-.18,0,0-.05,0-.11,0-.16.08-.19.21-.21.38-.1h0c-.07.1-.14.18-.21.26Z"/>
  <path class="cls-50" d="M24.15,9.45l-.29.25c-.07-.05-.13-.12-.13-.21,0-.05.03-.08.07-.1.12-.06.23-.16.37-.06.02.04.02.09-.02.12Z"/>
  <path class="cls-95" d="M28.81,9.57c0,.07-.01.14-.02.21-.08-.07-.17-.14-.25-.21-.12-.11-.05-.15.07-.16.07.05.13.11.2.16Z"/>
  <path class="cls-37" d="M35.46,10.35c-.11,0-.22.02-.29-.1.06-.07.11-.13.21-.15.07-.01.13,0,.18.06l.1.11s-.04.06-.06.09c-.04.02-.09.02-.13,0Z"/>
  <path class="cls-3" d="M3.02,11.95c0,.19,0,.38,0,.57-.19-.19-.19-.38,0-.57Z"/>
  <path class="cls-81" d="M9.98,11.07c.07.08.15.16.22.24,0,.05-.02.1-.02.15-.03,0-.07,0-.1-.01-.07-.04-.18-.01-.23-.1-.03-.06-.04-.13-.02-.19.03-.07.07-.11.15-.09Z"/>
  <path class="cls-6" d="M9.98,11.84c.12.02.23.05.36.07q-.28.15-.36-.07h0Z"/>
  <path class="cls-44" d="M42.4,9.94l-.09-.16c.16,0,.32-.01.47-.02.03.03.03.07.02.11-.03.06-.07.1-.13.13-.06.02-.12.03-.18.01-.04-.01-.07-.04-.09-.08Z"/>
  <path class="cls-87" d="M2.74,7.03c.06,0,.12,0,.19.01.07-.03.14-.1.23-.07.15.1.07.16-.03.23h0c-.15-.02-.34.07-.39-.17Z"/>
  <path class="cls-1" d="M35.93,9.87c.15.04.27-.06.4-.09-.02.24-.23.24-.39.3,0-.07-.11-.14,0-.21Z"/>
  <path class="cls-43" d="M39.06,6.94c0,.06,0,.11,0,.17.04.11-.01.17-.1.23-.1.02-.19.01-.2-.12.03-.05.06-.1.1-.14,0-.15.07-.18.2-.14Z"/>
  <path class="cls-57" d="M14.07,7.55s.07,0,.1,0c-.01.03-.01.06,0,.09,0,.17-.02.32-.2.39-.02-.01-.03-.03-.05-.04-.03-.06-.05-.12-.04-.19.02-.12.06-.22.19-.25Z"/>
  <path class="cls-74" d="M13.57,2.52c-.09-.13-.11-.27-.09-.42.14.11.26.24.29.42-.04,0-.07,0-.11,0-.02.03-.04.04-.06.03-.02,0-.03-.02-.03-.03Z"/>
  <path class="cls-96" d="M11.76.36s0,.04,0,.05c-.04.07-.1.09-.17.11-.07,0-.14,0-.21-.03-.1-.06-.22-.1-.2-.26.04-.03.08-.03.13,0,.17-.04.3.1.46.13Z"/>
  <path class="cls-66" d="M38.68,7.59s.07.06.11.1c-.06.12-.14.21-.29.19-.02-.02-.03-.03-.05-.05-.07-.16,0-.26.14-.34h0c.09-.02.13,0,.1.1Z"/>
  <path class="cls-93" d="M37.83,8.34c0-.06.02-.11.03-.17.05-.19.14-.29.34-.15,0,.02.02.04.03.06-.18.02-.16.32-.39.26Z"/>
  <path class="cls-19" d="M4.35,2.45s-.07-.07-.1-.1c-.03-.03-.03-.05.02-.06.11-.05.13-.21.28-.21.03.06.06.12.09.17,0,.06-.03.11-.08.15-.06.05-.13.09-.21.04Z"/>
  <path class="cls-64" d="M11.3.24s-.07,0-.11,0c-.19.12-.37.21-.48-.09.06-.03.13-.06.19-.08.12.08.3.03.4.17Z"/>
  <path class="cls-92" d="M23.76,9.52c.08.03.09.1.1.17-.06.04-.12.08-.18.12-.08-.04-.1-.1-.1-.19.02-.09.07-.15.17-.11Z"/>
  <path class="cls-91" d="M31.84,7.98h.52c-.21.17-.37.18-.52,0,0,0,0,0,0,0Z"/>
  <path class="cls-39" d="M16.91,8.59c.08-.15.31-.03.39-.2.03,0,.06.02.09.03.06.07.04.13,0,.2-.16.07-.32.23-.47-.02Z"/>
  <path class="cls-97" d="M34.87,8.83s.07,0,.11,0c.25.07.31.19.09.38-.03,0-.05,0-.08,0-.02-.07,0-.17-.1-.2,0-.06,0-.12-.01-.18Z"/>
  <path class="cls-3" d="M9.03,12.51c-.02.14-.04.28-.22.36.03-.17,0-.34.22-.36,0,0,0,0,0,0Z"/>
  <path class="cls-7" d="M14.92,11.81c0,.1-.02.17-.12.17-.03,0-.07-.05-.1-.08.06-.06.11-.12.17-.18.02.03.03.07.04.09Z"/>
  <path class="cls-93" d="M22.52,10.47s.06.05.09.08c-.06.04-.12.08-.18.12-.09.01-.18.03-.27.04-.04-.03-.05-.07-.04-.12.02-.04.05-.08.09-.1.1-.06.21-.1.32-.02Z"/>
  <path class="cls-5" d="M30.89,9.04c.05-.07.11-.14.16-.21.21.15.04.22-.07.3-.03-.03-.06-.06-.09-.09Z"/>
  <path class="cls-92" d="M42.78,9.84v-.04s0-.04,0-.04c.1-.14.19,0,.28,0,0,.06,0,.11,0,.17-.02.04-.06.06-.1.06-.1,0-.16-.05-.18-.15Z"/>
  <path class="cls-60" d="M14.65,8.6c.06.09.04.19.01.28-.02.02-.04.05-.04.08-.03,0-.06.01-.09.02-.09-.03-.13-.09-.11-.18.04-.11.11-.18.22-.2Z"/>
  <path class="cls-64" d="M12.07,9.95v-.22c.03-.07.07-.12.14-.14.07,0,.13,0,.18.06.03.07.02.13-.03.18-.07.09-.17.12-.28.12Z"/>
  <path class="cls-3" d="M3.22,9.48c-.01.16.03.34-.08.49-.13-.19-.08-.35.08-.49Z"/>
  <path class="cls-95" d="M11.6,10.23s.06.06.09.1c-.03.1-.08.16-.19.18-.06.05-.13.05-.2.02-.05-.24.11-.28.29-.3Z"/>
  <path class="cls-7" d="M24.59,9.82c-.05-.04-.11-.06-.11-.09-.02-.09.06-.1.12-.1.05,0,.14-.02.12.08,0,.04-.08.08-.13.12Z"/>
  <path class="cls-72" d="M25.84,8.95s.07,0,.11,0c0,.07-.03.16.08.19.01.03.01.06,0,.09-.03.03-.08.05-.12.06-.15,0-.21-.09-.21-.23.02-.07.06-.13.15-.11Z"/>
  <path class="cls-57" d="M3.31,3.13c-.08,0-.16-.01-.24-.02.14-.09.24-.24.42-.27.02.15,0,.26-.18.29Z"/>
  <path class="cls-68" d="M11.29,10.51c.07,0,.14,0,.21,0-.1.12-.22.21-.38.21-.04-.07-.07-.14-.11-.21.03-.03.06-.06.1-.07.07,0,.12,0,.17.06Z"/>
  <path class="cls-44" d="M36.68,9.39s.08,0,.11,0c-.08.17-.22.29-.39.36,0-.06,0-.12,0-.18.09-.07.18-.13.27-.2Z"/>
  <path class="cls-75" d="M14.08,12.41c-.18.16-.32.19-.4-.09h0c.16-.13.27-.02.38.08h0Z"/>
  <path class="cls-96" d="M5.38,1.68s.07.07.11.1c-.03.09-.08.15-.19.1-.07,0-.14-.01-.19-.08.03-.04.06-.07.09-.11.06,0,.12,0,.18,0Z"/>
  <path class="cls-6" d="M20.81,11.14c-.09-.16-.02-.24.08-.32.17.17-.1.21-.08.32Z"/>
  <path class="cls-76" d="M39.75,7.77s.05-.07.08-.1c.18.09.06.26.1.38h-.01s-.08.04-.13.02c-.09-.09-.16-.18-.04-.3Z"/>
  <path class="cls-3" d="M3.33,13.12c.06.06.13.12.19.18-.04.06-.08.16-.16.1-.09-.07-.11-.18-.03-.28Z"/>
  <path class="cls-56" d="M17.39,8.59c0-.06,0-.11,0-.17.15-.04.29-.06.4.07-.04,0-.07,0-.11,0-.07.07-.11.18-.25.14-.02-.01-.03-.03-.05-.04Z"/>
  <path class="cls-50" d="M1.1,4.54c.06.02.11.03.17.05.02.13-.04.22-.15.28-.1,0-.17-.03-.21-.13,0-.03.02-.06.02-.09.06-.03.11-.07.17-.1Z"/>
  <path class="cls-75" d="M5.96,1.3s.07,0,.11,0c.06.19,0,.25-.19.19-.08-.03-.09-.1-.1-.17.06-.01.12-.02.18-.03Z"/>
  <path class="cls-1" d="M7.52,12.9c-.06.13-.2.12-.3.18-.04.04-.08.04-.12,0-.03-.07-.03-.14.01-.21.04-.03.08-.05.13-.06.1-.02.19,0,.26.08h.01Z"/>
  <path class="cls-3" d="M7.36.63c-.08.14-.24.12-.35.17.05-.2.16-.26.35-.17Z"/>
  <path class="cls-69" d="M6.76,13.36c-.03-.12-.06-.25-.09-.37.03-.02.07-.03.11-.03.08.02.15.06.2.13.02.1-.07.13-.12.2,0,.06-.04.08-.1.07Z"/>
  <path class="cls-6" d="M13.4,10.5c-.11-.08-.11-.2-.12-.33.2.06.08.22.12.33h0Z"/>
  <path class="cls-93" d="M12.35,9.83v-.18c-.05-.14.05-.13.13-.14.02.01.04.02.05.04,0,.06,0,.13,0,.19-.06.03-.12.06-.18.09Z"/>
  <path class="cls-91" d="M4.26,2.28s0,.04-.02.06c-.03,0-.06,0-.09-.01"/>
  <path class="cls-85" d="M34.61,9.14s-.05.07-.07.1c-.03-.03-.08-.07-.08-.09.02-.05.06-.1.1-.14.02.04.03.08.05.13Z"/>
  <path class="cls-1" d="M6.85,13.29c.03-.07.07-.13.1-.2.07-.06.15-.08.23,0h.04c-.1.1-.23.17-.37.21Z"/>
  <path class="cls-69" d="M32.9,7.66s0-.04-.02-.06c.16,0,.34-.06.48.08-.09,0-.19,0-.28,0-.06,0-.12-.02-.17-.03Z"/>
  <path class="cls-51" d="M14.52,4.8s.09,0,.14-.01c.05.02.06.06.04.11-.05.09-.11.19-.16.28,0-.13-.01-.25-.02-.38Z"/>
  <path class="cls-63" d="M38.5,7.88c-.05.13-.14.2-.28.2l-.02-.02c-.08-.11-.04-.19.07-.24.08-.02.15,0,.21.05h0Z"/>
  <path class="cls-90" d="M34.55,10.56c-.07-.1-.06-.2,0-.33.07.12.08.22,0,.33Z"/>
  <path class="cls-4" d="M19.01,8.67s-.06,0-.1,0c.02-.08-.09-.17,0-.25.02-.01.07-.01.09,0,.09.08-.01.17,0,.25Z"/>
  <path class="cls-4" d="M24.91,7.73s-.11-.07-.13-.12c-.02-.05.04-.07.08-.05.05.02.1.06.15.09-.03.02-.05.04-.09.08Z"/>
  <path class="cls-6" d="M10.59,12.1s-.06-.07-.08-.12c0-.02.06-.05.09-.08.02.04.05.07.07.11.02.05,0,.08-.08.09Z"/>
  <path class="cls-92" d="M24.15,9.45s0-.08,0-.12c-.03-.04-.03-.08,0-.12.09-.08.18-.13.31-.08.03.04.03.08,0,.12-.06.06-.12.12-.18.18-.03,0-.07,0-.1.01Z"/>
  <path class="cls-6" d="M20.81,11.14c.09.02.23-.04.24.08,0,.12-.09.08-.15.03-.03-.03-.06-.07-.09-.11Z"/>
  <path class="cls-72" d="M35.46,10.35s.09,0,.13,0c-.04.04-.08.09-.13.13,0-.05,0-.09,0-.14Z"/>
  <path class="cls-5" d="M3.6,10.9c.15.03-.08.44.27.28.02.09.08.2.05.27-.16.3,0,.67-.21.95-.05.04-.1.04-.15,0-.26-.42-.18-.87-.14-1.32,0-.09.06-.18.18-.18Z"/>
  <path class="cls-13" d="M7.58.73c.16-.02.27-.1.28-.27.1,0,.19,0,.29-.01.09.08.16.16.15.29-.07.2-.3.16-.43.27-.18.03-.39-.02-.49.2-.06.05-.13.05-.19,0-.06,0-.11.02-.17.03-.04-.11-.07-.21-.11-.32.24.02.47-.03.67-.18Z"/>
  <path class="cls-41" d="M9.1.42c.13-.06.26-.13.38-.19.12.07.25-.09.37.02.12.06.18.14.13.28-.09.1-.22.01-.31.09-.24.16-.51.09-.77.1-.03-.03-.04-.07-.03-.11.05-.09.12-.16.22-.19Z"/>
  <path class="cls-44" d="M14.14,4.04c.02.54.23,1.06.18,1.61-.1.04-.12-.04-.16-.09-.07-.44-.14-.88-.21-1.32-.07-.19-.03-.28.19-.2Z"/>
  <path class="cls-40" d="M3.6,10.9c-.15.5-.06,1,.02,1.51.03.04.03.08,0,.13-.06.04-.13.05-.2.02-.11-.1-.12-.24-.16-.37-.07-.41.08-.84-.08-1.24.07-.11.14-.21.27-.25.08,0,.1.06.12.12,0,.03,0,.06.01.1Z"/>
  <path class="cls-45" d="M5.2,3.74s.07-.04.11-.06c.17-.11.29-.04.39.1-.04.03-.07.06-.11.09-.15.1-.07.26-.09.39h0c-.14.09-.24.25-.4.34-.09.03-.18.03-.27-.02-.2-.26.07-.41.14-.61.02-.04.04-.08.06-.12.04-.06.09-.1.17-.1Z"/>
  <path class="cls-71" d="M8.74,11.94s-.06,0-.09,0c-.06.06-.12.06-.19.02-.03-.04-.03-.08,0-.12.11-.19.34-.22.48-.36.08-.13.19-.24.36-.25.09.01.17.05.23.12.03.07.03.13-.02.19l-.33.12c-.12.14-.3.19-.45.28Z"/>
  <path class="cls-33" d="M5.7,3.78c-.13-.03-.26-.07-.39-.1,0,0,0-.05,0-.05v-.05c.16-.26.45-.15.67-.24.11-.04.13.06.15.12.03.08.07.17-.07.22-.12.05-.22.1-.35.09Z"/>
  <path class="cls-44" d="M14.16,5.56c.05.03.11.06.16.09,0,0,.02,0,.02,0,.14.23.01.47.02.71-.06.24-.04.5-.24.69-.31.07-.17-.14-.16-.26.07-.41.13-.82.2-1.23Z"/>
  <path class="cls-86" d="M9.3,11.25c-.12.08-.24.16-.36.24l-.1-.31h0c.13-.09.32-.08.42-.26.17-.31.27-.15.34.08.03.03.04.07.02.11-.08.11-.18.17-.32.14Z"/>
  <path class="cls-45" d="M13.73,3.58c-.3-.14-.16-.54-.43-.7-.03-.12-.07-.23-.1-.35.03-.03.06-.07.09-.1.03.03.06.07.1.1.04.11.16.13.24.2.08.23.24.43.28.68.02.07,0,.14-.04.19-.05.03-.09.02-.13-.01Z"/>
  <path class="cls-54" d="M9.59,11.08s.01-.05.02-.08c.27-.06.44-.27.66-.41.21.07.27-.21.45-.21.07.3-.21.31-.35.43-.13.09-.26.18-.38.27-.03.03-.06.06-.09.1-.07.07-.15.02-.22,0-.03-.02-.06-.05-.08-.09Z"/>
  <path class="cls-67" d="M9.67.62c.06-.11.18-.08.28-.1.31-.21.64-.11.97-.08.17.06.36.07.51.18.03.03.06.07.08.11,0,.05-.01.09-.05.12-.59-.16-1.18-.21-1.79-.22Z"/>
  <path class="cls-61" d="M5.05,14.13s-.06,0-.1,0c-.07-.11-.12-.26-.29-.1-.06.06-.13.06-.19,0,0-.06,0-.12,0-.18.25-.14.54-.19.76-.38.07.05.13.11.15.2.01.06,0,.13-.04.18-.12.06-.25.13-.3.27Z"/>
  <path class="cls-61" d="M12.99,8.31s.01-.06.02-.09c.08-.12.08-.28.2-.38h0c.05-.1.12-.2.19-.29.1-.06.09-.16.1-.26.05-.13.21-.07.28-.15.28.16.01.3-.02.44-.17.3-.28.65-.65.78-.05,0-.09-.02-.12-.06Z"/>
  <path class="cls-76" d="M5.01,5.39c-.12.29-.08.64-.37.85-.15.03-.18-.09-.24-.18-.02-.06-.02-.13,0-.19.1-.13.17-.28.26-.42.1-.1.18-.29.34-.06Z"/>
  <path class="cls-43" d="M12.8,1.38c.07.1.13.19.2.29,0,.03,0,.06,0,.09-.16.29.27.42.18.69-.36-.09-.3-.52-.56-.69.02-.13-.13-.25,0-.38.06,0,.12,0,.18,0Z"/>
  <path class="cls-22" d="M13.68,7.56c-.08-.16.29-.19.11-.38-.06-.03-.06-.06,0-.09.06-.1.11-.2.17-.29.12.06-.07.23.09.28.01.02.02.03.03.05.02.14-.09.28-.04.42,0,0,.02,0,.02,0-.04.1-.07.19-.11.29-.06.05-.12.05-.19.02-.08-.09-.13-.19-.08-.31Z"/>
  <path class="cls-63" d="M11.39,9.93c.07-.27.44-.28.49-.56.06,0,.12,0,.18,0,.08.04.12.12.14.2,0,.04-.01.08-.05.1-.02.02-.05.04-.07.07-.26-.11-.36.23-.58.21-.04.03-.08.03-.11,0Z"/>
  <path class="cls-50" d="M3.62,12.52s0-.07,0-.11c.03.01.06.01.09,0,.31.06.17.32.21.49-.03.07,0,.16-.09.2-.13,0-.21-.06-.21-.2-.12-.13-.06-.26,0-.39Z"/>
  <path class="cls-40" d="M8.46,11.84s0,.05,0,.08c.02.3-.26.28-.41.39-.18.05-.33.22-.54.12-.04-.04-.04-.09,0-.13.3-.19.61-.37.95-.46Z"/>
  <path class="cls-51" d="M12.62,1.38c-.04.13.17.25,0,.38-.12-.1-.17-.3-.38-.29-.14-.09-.25-.18-.22-.37.03-.03.07-.05.11-.06.16,0,.19.15.29.23.08,0,.16.02.2.1Z"/>
  <path class="cls-16" d="M3.78,8.14c.04-.19-.05-.4.11-.56.09-.06.15,0,.21.04.04.04.07.09.08.15-.04.09-.08.19-.12.28-.06.06-.02.17-.1.21-.09,0-.16-.04-.19-.13Z"/>
  <path class="cls-56" d="M7.51,12.31s0,.08.01.12c.04.1-.02.16-.08.22-.09.06-.18.11-.28.15-.14.06-.25.17-.42.14-.07-.02-.12-.05-.08-.14.28-.16.57-.33.85-.49Z"/>
  <path class="cls-69" d="M5.32,13.66c-.07-.04-.09-.1-.09-.18.16-.07.32-.14.48-.2.11-.04.17.02.22.1,0,.14-.1.2-.22.23-.13.05-.25.13-.39.05Z"/>
  <path class="cls-50" d="M4.18,7.77s-.08-.07-.12-.11c-.02-.34.1-.64.25-.93.04-.04.08-.05.14-.03.04.04.04.08,0,.13-.04.33-.15.64-.28.94Z"/>
  <path class="cls-66" d="M4.85,4.54c.09,0,.18,0,.27,0,.08-.01.13.01.09.11-.06.19-.11.37-.17.56-.19.07-.18-.09-.23-.19-.02-.12-.05-.23-.04-.35,0-.05.03-.09.07-.11Z"/>
  <path class="cls-80" d="M4.45,6.04c.06.07.13.13.19.2v.1c-.07.07-.03.23-.18.24-.1,0-.16-.06-.2-.15,0-.07-.01-.15-.09-.19-.06-.07-.06-.14-.01-.21.1-.07.19-.06.29,0Z"/>
  <path class="cls-62" d="M3.59,10.81s-.06-.07-.09-.1c-.06-.05-.08-.12-.1-.2-.03-.22,0-.44.05-.66.02-.1.07-.18.18-.21.09,0,.12.06.15.12-.25.31-.14.69-.19,1.04Z"/>
  <path class="cls-68" d="M5.91,13.38c-.07-.03-.13-.07-.2-.1.15-.18.36-.22.57-.28.08.03.13.08.1.17-.03.03-.06.06-.09.1-.04,0-.08.01-.12.02-.06.1-.13.18-.25.09Z"/>
  <path class="cls-91" d="M12.02,1.11c.07.12.15.24.22.37-.28-.01-.53-.06-.57-.41.13-.07.24-.07.34.04Z"/>
  <path class="cls-56" d="M12.22,9.25c.14-.15.28-.3.42-.45.06.02.12.05.15.12.02.07.03.13.01.2-.01.05-.04.09-.07.12-.12.11-.25.14-.4.1-.05-.02-.08-.05-.11-.09Z"/>
  <path class="cls-56" d="M12.02,1.11c-.11-.01-.23-.03-.34-.04-.04-.02-.07-.04-.11-.06-.06,0-.1-.04-.12-.09,0-.02.01-.05.01-.07v-.12c.11-.06.16,0,.21.08.14.1.31.1.47.1.06.06.06.12,0,.19-.04,0-.08,0-.12.01Z"/>
  <path class="cls-74" d="M13.73,3.58s.09-.01.14-.02c.22-.03.15.23.28.29,0,0,0,0,0,0,0,.06,0,.13,0,.19-.13,0-.18.08-.19.2-.03,0-.05-.01-.08-.01-.05-.22-.09-.43-.14-.65Z"/>
  <path class="cls-31" d="M4.93,4.92c0,.11-.02.23.12.28.13.09-.03.13-.04.19-.14-.11-.19.05-.27.09-.11-.04-.14-.12-.14-.23.06-.16,0-.45.33-.33Z"/>
  <path class="cls-86" d="M8.84,11.18c-.1.05-.28.06-.24-.06.06-.14-.06-.33.11-.42.11-.06.12.02.13.11,0,.12,0,.25,0,.37h0Z"/>
  <path class="cls-62" d="M5.21,4.64s-.06-.07-.09-.11c.06-.18.15-.32.38-.29-.06.16-.03.38-.28.39Z"/>
  <path class="cls-50" d="M3.97,8.24c.03-.06.07-.12.1-.18.03.2.08.4-.08.57-.15.09-.22.02-.25-.13.03-.13.13-.19.23-.26Z"/>
  <path class="cls-75" d="M6.24,1.58c.07,0,.15.02.22.02-.12.18-.31.21-.49.27-.09.04-.12-.02-.13-.1.08-.17.21-.24.4-.2Z"/>
  <path class="cls-81" d="M5.86,1.77s.08.07.11.11c-.09.15-.24.2-.39.26-.03-.03-.05-.06-.06-.1,0-.06.01-.12.06-.16.07-.03.13-.06.2-.1.02-.02.03-.03.05-.02.02,0,.03.01.03.02Z"/>
  <path class="cls-41" d="M5.51,4.26c-.26-.19-.29-.34.09-.39-.07.12.07.29-.09.39Z"/>
  <path class="cls-52" d="M12.22,9.25s.09.01.14.02c.07.05.15.1.1.21-.1.02-.17.14-.29.07-.08-.04-.09-.12-.09-.19.03-.07.07-.11.15-.11Z"/>
  <path class="cls-57" d="M6.38,13.17c-.03-.06-.06-.12-.1-.17.13-.07.25-.13.38-.2.03.03.06.06.09.09.03.03.03.06,0,.09-.03,0-.05,0-.08,0-.1.06-.19.13-.29.19Z"/>
  <path class="cls-76" d="M7.87,1c.05-.2.28-.14.38-.26.02-.03.05-.04.07-.04.03,0,.04.01.04.02.02.04.02.08-.01.12-.14.12-.28.22-.48.16Z"/>
  <path class="cls-22" d="M5.58,2.06s0,.05,0,.07c-.06.04-.13.08-.19.12-.06,0-.12-.02-.18-.03-.03-.08.02-.12.08-.15,0-.04,0-.07,0-.11.14-.11.21,0,.29.1Z"/>
  <path class="cls-97" d="M3.78,9.76s-.06-.07-.08-.1c-.09-.09-.06-.18,0-.27,0-.09.01-.19.02-.28.05-.07.11-.07.17,0-.13.21-.05.44-.09.66Z"/>
  <path class="cls-58" d="M3.8,8.44c0,.13.07.18.19.18,0,.03,0,.06-.01.1-.06.05-.12.06-.18,0-.03,0-.07,0-.1,0-.07-.13-.09-.25.01-.37.08-.02.12,0,.09.09Z"/>
  <path class="cls-3" d="M13.4,7.56c-.01.13-.07.23-.19.29-.08-.06-.16-.11-.31-.22.22.02.37.01.51-.07Z"/>
  <path class="cls-71" d="M12.99,8.31s.08,0,.12.01c.04.11.17.11.22.21,0,.05-.02.09-.05.12-.11.06-.22.06-.34.03-.04-.02-.08-.04-.11-.08.05-.1.11-.2.16-.29Z"/>
  <path class="cls-69" d="M3.79,8.72c.06,0,.12,0,.18,0-.03.13-.07.25-.1.38-.06,0-.11,0-.17,0,.03-.13.06-.26.08-.39Z"/>
  <path class="cls-44" d="M8.35.84s0-.07,0-.1c.03-.09.11-.13.19-.17.04-.02.08-.02.13-.03.09,0,.18.01.23.1,0,.03,0,.05.02.08-.19.04-.37.09-.56.13Z"/>
  <path class="cls-44" d="M6.45,1.62c.12-.18.33-.2.49-.32-.02.33-.29.28-.49.32Z"/>
  <path class="cls-91" d="M11.45.92s.08.06.12.09c0,.13-.06.16-.17.1-.13-.09-.03-.14.04-.19Z"/>
  <path class="cls-93" d="M4.46,6.54c.06-.07.12-.13.18-.2.03.2-.02.36-.18.49,0-.04,0-.07,0-.11-.05-.06-.06-.12.01-.18Z"/>
  <path class="cls-67" d="M12.83,8.6s.04.01.07,0c.08.03.08.1.07.17-.05.09-.12.15-.23.1-.03-.03-.06-.05-.09-.08.09-.04.07-.19.19-.2Z"/>
  <path class="cls-3" d="M13.21,7.84c-.02.15-.07.28-.2.38,0-.16.01-.31.2-.38Z"/>
  <path class="cls-2" d="M13.79,7.09s-.01.06,0,.09c-.07.1-.19.09-.29.12-.04-.25.2-.14.29-.21Z"/>
  <path class="cls-3" d="M12.7,7.98c-.07-.08-.1-.11-.12-.14.03-.02.06-.07.08-.07.03,0,.08.05.09.08,0,.03-.02.07-.05.12Z"/>
  <path class="cls-94" d="M7.19,1.21c.06,0,.13,0,.19,0-.06.13-.13.14-.19,0Z"/>
  <path class="cls-64" d="M18.45,10.3c.1-.34.24-.67.47-.95.11-.09.2-.09.28.04-.08.24-.22.46-.24.72,0,.09-.04.17-.1.23-.08.08-.17.13-.29.11-.07-.02-.09-.09-.12-.14Z"/>
  <path class="cls-37" d="M19.19,9.43c-.07-.11-.17-.09-.27-.09-.06-.15-.19-.08-.3-.1-.02-.04-.03-.08,0-.11.04-.06.15,0,.16-.11,0-.08.07-.11.12-.15.03,0,.07-.01.1-.02.06.03.13.06.19.09.2.12.39.24.24.52-.06.03-.13.03-.2,0-.02-.02-.03-.03-.05-.05Z"/>
  <path class="cls-88" d="M18.61,9.17s.01.05.02.08c-.06.07-.1.29-.19.2-.15-.15-.5-.04-.48-.39.1-.09.22-.11.34-.08.12.03.24.07.31.18Z"/>
  <path class="cls-60" d="M18.45,10.3s.06.07.09.1c.23.18.11.37,0,.55-.06.12-.12.03-.19.01-.06-.23.02-.45.1-.66Z"/>
  <path class="cls-44" d="M18.33,9.07c-.12,0-.24,0-.37,0,0-.05-.01-.1-.02-.16,0-.05.01-.09.02-.14.14-.04.26,0,.38.07.06.03.11.08.12.16-.02.07-.05.13-.14.07Z"/>
  <path class="cls-75" d="M23,9.54s.07.06.1.09c0,.28-.21.39-.41.52-.19.07-.39.14-.6.12-.18-.01-.35-.04-.38-.27.02-.08.06-.13.15-.1.32.19.59.03.84-.15.1-.07.14-.21.29-.21Z"/>
  <path class="cls-17" d="M21.87,9.9s-.07.07-.1.1c-.02.03-.06.04-.1.03-.05-.02-.11-.02-.16,0-.04,0-.08,0-.11,0-.15-.06-.2-.19-.23-.33l.02-.17c.04-.07.09-.13.18-.14.08,0,.16.03.23.06.08.03.14.07.19.14.03.07,0,.16.07.22.02.03.03.06.02.09Z"/>
  <path class="cls-76" d="M22.28,8.19c.14.35-.11.59-.24.86-.2,0-.16-.15-.16-.27.12-.19.03-.51.35-.58h.04Z"/>
  <path class="cls-16" d="M21.96,8.77c0,.1-.03.21.09.28.05.09-.02.09-.07.1-.07.05-.11.15-.2.16-.07.01-.13,0-.19-.04-.07-.11-.02-.21.04-.3.08-.09.16-.18.29-.22.02,0,.04.01.06.02Z"/>
  <path class="cls-54" d="M21.77,9.25c.07-.03.13-.06.2-.09,0,.23-.02.45-.11.66-.08-.04-.09-.11-.1-.19-.08-.13-.1-.25,0-.37Z"/>
  <path class="cls-23" d="M13.3,8.51c-.1-.02-.3.05-.19-.19.26-.2.39-.5.57-.77.03.09.06.19.1.28,0,.12.11.14.19.19v.02c.05.24-.26.2-.3.37-.11.06-.2.22-.36.1Z"/>
  <path class="cls-49" d="M12.73,8.89c.06-.03.13-.06.19-.1.15-.1.24-.03.3.1.03.13-.07.2-.14.28-.15.09-.25,0-.36-.09v-.19Z"/>
  <path class="cls-74" d="M12.73,9.08c.12.03.24.06.36.09-.18.13-.27.39-.54.38h0s-.04-.07-.04-.11c.02-.14.19-.14.23-.26,0-.03,0-.07,0-.1Z"/>
  <path class="cls-23" d="M13.22,8.89c-.1-.03-.2-.07-.3-.1,0-.06-.02-.12-.03-.18.14,0,.27,0,.41-.01.06.01.09.04.1.1-.06.06-.12.13-.18.19Z"/>
  <path class="cls-39" d="M13.4,8.7s-.07-.07-.1-.1c0-.03,0-.06,0-.09.12-.03.24-.07.36-.1-.05.13-.06.29-.26.29Z"/>
  <path class="cls-27" d="M35.07,9.21c.09-.16.04-.28-.09-.38.03-.09.06-.19.09-.28.03,0,.07,0,.1,0,.1-.18.19-.12.29,0,.15.06.06.19.09.29-.06.06-.13.11-.13.2-.02.17.05.39-.25.37-.08-.04-.1-.11-.1-.19Z"/>
  <path class="cls-56" d="M35.35,9.03c-.01-.08-.12-.16-.04-.24.08-.08.16.02.24.04.11.14.2.29.08.48-.02.02-.04.04-.06.03-.03,0-.04,0-.04-.01-.09-.08-.11-.21-.18-.3Z"/>
  <path class="cls-50" d="M35.46,8.54c-.1-.05-.19-.07-.29,0,.03-.17-.09-.27-.2-.38-.04-.11,0-.17.1-.21.21.14.33.34.39.58Z"/>
  <path class="cls-72" d="M35.53,9.3h.1s.01.06.02.09c-.17.09.01.28-.1.38-.2.09-.29.03-.29-.19,0-.03,0-.06,0-.09.06-.1.11-.23.27-.2Z"/>
  <path class="cls-57" d="M36.12,9.41c-.1.02-.19.05-.29.07,0-.03,0-.07,0-.1.1-.14.2-.27.38-.3-.03.11-.06.22-.09.33Z"/>
  <path class="cls-54" d="M35.08,7.96c-.03.07-.07.14-.1.21-.06-.03-.12-.07-.18-.1-.13-.15.07-.2.1-.31l.19.2Z"/>
  <path class="cls-75" d="M22.15,10.59s0,.09,0,.13c-.59.12-.73.05-.79-.4.02-.01.03-.03.05-.04.16,0,.23.16.38.18.12.03.27.01.35.14Z"/>
  <path class="cls-97" d="M21.17,9.7l.29.32c.08.12,0,.19-.07.27l-.02.02c-.15-.18-.38-.32-.2-.61Z"/>
  <path class="cls-49" d="M20.91,9.51s-.06.02-.09.02c-.02.02-.05.03-.07.03-.03,0-.04,0-.04,0-.1-.08-.21-.16-.2-.31.08-.11.2-.16.34-.16.09.01.16.05.23.1.03.03.05.07.05.11-.04.11-.14.14-.21.21Z"/>
  <path class="cls-68" d="M20.91,9.51c-.01-.14.14-.17.19-.27.2-.09.3-.03.29.19-.06.03-.13.06-.19.09-.08-.15-.19.06-.28-.02Z"/>
  <path class="cls-60" d="M20.73,9.52s.06,0,.09.01c0,.25-.13.39-.38.41-.08-.08-.04-.16-.01-.25.04-.08.09-.15.17-.2.04-.01.09,0,.12.02Z"/>
  <path class="cls-79" d="M20.52,9.72c-.03.08-.05.15-.08.23,0,.08-.03.13-.1.17-.04-.08-.1-.1-.18-.1-.08-.04-.15-.09-.12-.21.05-.05.11-.08.17-.1.11-.03.21-.08.32.01Z"/>
  <path class="cls-37" d="M14.44,8.81c.04.06.07.12.11.18,0,.03,0,.06-.02.08-.12.25,0,.57-.24.77-.11.04-.16-.03-.21-.11.17-.29.11-.67.36-.93Z"/>
  <path class="cls-79" d="M13.87,11.16c0-.12,0-.25,0-.37.03-.07.07-.13.1-.2.04-.03.08-.04.13-.04.04.01.08.04.1.08.02.26.13.58-.34.53Z"/>
  <path class="cls-69" d="M14.07,9.74c.06.03.12.07.19.1.11-.06.13.03.17.1h.03c.04.1-.02.16-.1.22-.06.03-.13.03-.2,0-.08-.05-.1-.14-.11-.23,0-.06,0-.13,0-.19Z"/>
  <path class="cls-30" d="M14.06,9.93c.08.04.1.12.11.2.04.11-.01.2-.08.28-.04.02-.07.02-.11,0,0-.16-.07-.34.08-.48Z"/>
  <path class="cls-18" d="M13.98,10.41s.05,0,.07,0c.06.06.07.12.01.19-.03,0-.06,0-.09-.01,0-.06,0-.12,0-.18Z"/>
  <path class="cls-38" d="M26.52,9.71c-.17.22-.35.41-.66.28-.05-.14.04-.27.05-.4.03-.13.15-.11.23-.15.02-.02.04-.03.07-.01.11-.06.23-.05.33.02.12.1.11.2-.03.27Z"/>
  <path class="cls-60" d="M26.58,9.22c.16-.17.33-.3.58-.3l.02.03c.04.22-.14.27-.28.34-.05.02-.09.02-.14.02-.07,0-.14-.03-.18-.1Z"/>
  <path class="cls-93" d="M26.58,9.22c.08,0,.15.01.23.02.05.1-.01.16-.08.21-.11-.09-.16,0-.22.07-.1-.03-.2-.06-.3-.1.1-.11.23-.17.37-.2Z"/>
  <path class="cls-79" d="M26.14,9.43c-.06.06-.13.12-.19.18-.04.03-.08.03-.12,0-.04-.06-.05-.12-.04-.19.02-.1.1-.14.17-.19.02,0,.05,0,.07,0,.03.07,0,.17.11.2Z"/>
  <path class="cls-34" d="M44.58,9.57s0,.06,0,.08c-.19.32-.62.22-.85.48-.03,0-.07,0-.1,0,0-.03,0-.07,0-.1-.04-.02-.08-.04-.1-.08.31-.25.64-.43,1.05-.38Z"/>
  <path class="cls-77" d="M43.73,10.13c.02-.08-.05-.22.09-.21.3.02.5-.19.75-.27,0,.04,0,.08.01.12-.22.27-.56.26-.86.36Z"/>
  <path class="cls-13" d="M22.24,8.2c-.17.15-.07.44-.28.57,0,0,0,0,0,0-.22-.11-.29-.28-.25-.52.1-.2.26-.24.46-.15.06,0,.1.03.08.1Z"/>
  <path class="cls-45" d="M21,8.58c.22,0,.32-.21.49-.29.06-.05.12-.06.19-.02.03.06.03.13.03.19-.14.15-.3.28-.45.42-.04.02-.08.03-.12.04-.04,0-.08,0-.12-.02-.03-.02-.06-.06-.08-.1,0-.04-.01-.08,0-.12.01-.04.03-.08.07-.1Z"/>
  <path class="cls-62" d="M21.67,8.3c-.06,0-.12,0-.17,0,.15-.31.36-.42.66-.19-.16,0-.32.01-.41.18-.01.04-.03.06-.05.05-.02,0-.03-.02-.03-.03Z"/>
  <path class="cls-27" d="M21,8.58s0,.06,0,.09c-.05.06-.11.06-.18.04-.04-.03-.06-.07-.08-.11-.02-.07-.02-.14,0-.2.03-.09.07-.17.17-.19.07.06.14.13.2.19-.04.06-.07.13-.11.19Z"/>
  <path class="cls-36" d="M43.53,9.95s.07.06.1.08c-.22-.01-.44.2-.66.01-.03-.03-.03-.05,0-.08.03,0,.06-.02.09-.03.16.01.32-.12.48,0Z"/>
  <path class="cls-55" d="M45.04,9.45c-.14.11-.3.11-.46.11,0-.19.16-.17.29-.18.06.02.12.05.17.07Z"/>
  <path class="cls-49" d="M27.86,9.32c-.06-.12-.15-.19-.29-.18-.03-.03-.03-.07,0-.1.09-.19.09-.45.38-.47.06.04.06.2.19.1,0,0,0-.02,0-.02.17.12.06.35.2.48-.1.07-.2.14-.3.2-.06,0-.12,0-.18-.01Z"/>
  <path class="cls-46" d="M28.99,9.79c.12-.06.24-.11.38-.09,0,.03,0,.06,0,.1.03.06.06.12.09.18-.22,0-.42.16-.66.1.06-.09.13-.19.19-.28Z"/>
  <path class="cls-44" d="M14.43,9.93c-.06-.03-.12-.07-.17-.1.16-.23.01-.56.26-.76.05.29,0,.58-.09.86Z"/>
  <path class="cls-39" d="M14.93,10.12c-.01-.06-.02-.13-.03-.19.08-.1.16-.19.24-.29.05,0,.11,0,.16,0,.04.06.06.13.04.2-.1.14-.14.38-.41.27Z"/>
  <path class="cls-37" d="M19.39,9.44c.1-.23-.15-.32-.19-.49.06-.03.12-.06.19-.09.13,0,.26-.09.38,0,.1.06.14.16.15.27,0,.08-.13.15,0,.24.02.1-.03.17-.11.22-.1.05-.21.09-.32.06-.08-.05-.14-.11-.09-.22Z"/>
  <path class="cls-22" d="M20.9,8.2c-.03.06-.06.12-.09.19-.22.15-.41.07-.58-.1.2-.21.38-.53.67-.09Z"/>
  <path class="cls-46" d="M20.23,8.29c.19.03.39.06.58.1,0,.06,0,.12,0,.18-.03.04-.06.06-.1.08-.19.02-.39-.06-.58,0-.07,0-.13-.01-.18-.07.02-.17.11-.27.29-.29Z"/>
  <path class="cls-48" d="M19.86,9.16c-.03-.1-.06-.19-.09-.29.03-.03.07-.06.1-.09.18-.05.28.01.31.2-.06.15-.12.29-.32.18Z"/>
  <path class="cls-49" d="M20.14,8.96c-.09-.06-.19-.12-.28-.18,0-.08,0-.15.08-.2.07,0,.13,0,.2,0,.1.06.14.16.15.27,0,.04-.02.08-.04.12-.04.02-.08.02-.12-.01Z"/>
  <path class="cls-38" d="M31.27,7.42s0-.07,0-.11c.54-.09,1.08-.22,1.64-.09.11.03.16.08.16.19-.5.03-1.01.07-1.51.1-.14.1-.23.03-.29-.1Z"/>
  <path class="cls-16" d="M33.64,7.6c-.12-.06-.25-.13-.37-.19.13-.18.31-.06.46-.09.07,0,.12.04.17.09.05.08.09.16-.01.23-.09.04-.18.02-.25-.05Z"/>
  <path class="cls-61" d="M33.84,7.43s-.07-.07-.1-.1c0-.03,0-.06,0-.09.23-.06.43.01.62.16-.05.04-.09.07-.14.11-.16.13-.25-.04-.37-.08Z"/>
  <path class="cls-36" d="M14.25,6.32c.03-.22.06-.44.09-.67.07,0,.13,0,.2,0,.06.13.02.25,0,.38.03.16-.09.23-.18.32-.04.02-.08,0-.12-.03Z"/>
  <path class="cls-65" d="M3.62,14.71s-.06.06-.09.1c-.05.15-.09.3-.28.33-.07,0-.13-.04-.15-.11-.01-.11.07-.16.14-.21.1-.12.23-.18.38-.2,0,.03,0,.07,0,.1Z"/>
  <path class="cls-48" d="M4.47,14.04c.06,0,.13,0,.19,0,0,.09,0,.19,0,.28-.2.02-.4.05-.37-.26.06,0,.12-.01.18-.02Z"/>
  <path class="cls-30" d="M33.84,7.43c.12.03.25.05.37.08.11.08.29.09.29.28-.16.03-.34-.22-.49.03-.03,0-.06-.01-.08-.03-.06-.06-.06-.12,0-.18-.03-.06-.06-.12-.09-.17Z"/>
  <path class="cls-45" d="M33.93,7.6c0,.06,0,.12,0,.18-.09,0-.19,0-.28-.01,0-.06,0-.11,0-.17.1,0,.19,0,.29,0Z"/>
  <path class="cls-27" d="M3.25,15.09c.09-.1.19-.19.28-.29.03.06.06.12.09.19-.1.11-.2.22-.37.2h-.02s-.04-.08,0-.1Z"/>
  <path class="cls-32" d="M.84,5.31c-.16.25-.13.5,0,.75-.03,0-.06,0-.09,0-.64-.24-.65-.27-.2-.75-.03-.08.02-.12.09-.14.1,0,.17.05.2.14Z"/>
  <path class="cls-57" d="M.65,5.21s-.07.06-.1.09c-.03-.04-.06-.07-.1-.11.13-.18.26-.36.46-.47.06.04.12.07.18.11.04.02.06.06.05.1-.14.13-.32.2-.49.28Z"/>
  <path class="cls-22" d="M27.56,9.04s0,.07,0,.1c0,.2-.25.21-.28.38-.03-.03-.07-.06-.1-.09-.05-.13-.31.05-.28-.2.09-.09.19-.19.28-.28.13.03.25.06.38.09Z"/>
  <path class="cls-37" d="M26.9,9.23c.09.07.19.13.28.2-.17-.02-.25.13-.38.18-.18,0-.15-.1-.1-.2.03-.06.07-.12.1-.17.03,0,.06,0,.09,0Z"/>
  <path class="cls-42" d="M25.85,9.61s.06,0,.09,0c.12.16-.07.25-.1.38-.03-.03-.06-.05-.1-.08-.05-.06-.15-.1-.12-.21.05-.07.11-.14.22-.08Z"/>
  <path class="cls-65" d="M26.71,9.41c0,.08.01.16.1.2-.08.09-.16.16-.29.1.01-.07.11-.14-.01-.2,0-.17.08-.16.2-.11Z"/>
  <path class="cls-29" d="M25.66,9.71c.03.07.06.13.09.2-.06,0-.12-.01-.18-.02-.03-.09-.06-.18-.09-.27.04-.08.09-.16.2-.1.04.07.03.13-.02.18Z"/>
  <path class="cls-22" d="M38.3,7.87c-.07.04-.09.11-.1.19-.16-.12-.24.06-.35.11-.07,0-.15,0-.22,0-.03-.06-.06-.13-.09-.19.22-.1.44-.19.66-.29.09.04.15.09.1.19Z"/>
  <path class="cls-46" d="M38.3,7.87c-.03-.06-.07-.13-.1-.19.02-.29.21-.22.39-.19-.03.13-.07.25-.1.38-.06,0-.12,0-.19,0Z"/>
  <path class="cls-65" d="M38.68,7.59s-.06-.07-.1-.1c-.01-.14.06-.22.18-.27.07.02.14.05.2.07.05.1-.01.16-.09.21-.07.03-.13.06-.2.08Z"/>
  <path class="cls-49" d="M25.84,8.95s-.06.06-.09.1c-.04.03-.08.05-.12.06-.26.02-.15-.24-.26-.35-.03,0-.06,0-.09,0-.03-.03-.06-.06-.09-.09-.08-.01-.15-.01-.22-.04-.11-.06-.09-.16-.07-.25.1-.13.25-.08.38-.1.19-.13.39-.15.58,0,.22.22.02.44,0,.67Z"/>
  <path class="cls-45" d="M24.43,9.25s0-.08,0-.12c-.04-.15.06-.22.16-.3.08-.04.15-.05.24-.03.04.01.07.04.09.08-.16.13-.32.25-.48.38Z"/>
  <path class="cls-70" d="M25,8.57c.08,0,.15.02.19.1-.09.06-.18.13-.28.19h-.02c-.05-.06-.06-.12-.04-.18.03-.06.09-.08.14-.11Z"/>
  <path class="cls-23" d="M31.27,7.42c.1.03.19.06.29.1.03.06.06.12.1.17-.07.02-.16.02-.2.11-.06-.03-.11-.05-.17-.08-.06-.01-.1-.05-.11-.11,0-.08.02-.15.09-.19Z"/>
  <path class="cls-82" d="M16.91,8.59c.16,0,.32,0,.48,0,0,0,0,.01,0,.01.06.06.06.12,0,.18-.19.16-.48,0-.66.19-.14,0-.26.02-.38.1,0,0,0,0,0,0-.13-.15.05-.19.1-.29.07-.3.31-.14.48-.19Z"/>
  <path class="cls-9" d="M16.44,8.78c.07.13-.14.17-.1.29-.06-.03-.13-.06-.19-.09.05-.13.15-.19.28-.19Z"/>
  <path class="cls-31" d="M8.89.64c-.09,0-.18-.01-.26-.02-.06-.11-.22-.2-.1-.36.06-.03.13-.06.19-.09,0,.27.3.1.38.26-.04.1-.11.17-.21.22Z"/>
  <path class="cls-16" d="M8.53.26c-.03.14.22.2.1.36-.03,0-.06.01-.09.02-.12-.04-.33.04-.3-.21.06-.12.14-.21.29-.16Z"/>
  <path class="cls-20" d="M8.23.42c.1.07.2.14.3.21-.06.04-.13.07-.19.11-.03,0-.06,0-.1,0-.03-.1-.07-.2-.1-.29.03,0,.06-.02.09-.02Z"/>
  <path class="cls-36" d="M4.36,6.72c0,.34-.23.62-.29.95-.06-.03-.12-.06-.18-.09.1-.28.2-.57.3-.85.06-.06.11-.05.18,0Z"/>
  <path class="cls-24" d="M4.36,6.72c-.06,0-.12,0-.18,0,.03-.1.05-.19.08-.29.07.03.14.07.2.1,0,.06,0,.12-.01.18-.03,0-.06,0-.1,0Z"/>
  <path class="cls-28" d="M3.8,8.44s-.06-.06-.09-.09c0-.07,0-.13,0-.2.03,0,.05,0,.08,0,.06.03.13.06.19.09.02.13-.05.19-.17.2Z"/>
  <path class="cls-33" d="M25.85,8.28c-.19,0-.38,0-.58,0,0,0,0-.05,0-.05,0,0,0-.05,0-.05s.02,0,.02,0c.02-.03.05-.05.07-.08.16-.07.3-.2.49-.2,0,.03,0,.07,0,.1.03.03.03.06,0,.09,0,.06,0,.13,0,.19Z"/>
  <path class="cls-35" d="M25.36,8.11s-.05.05-.07.08c.02-.03.05-.05.07-.08Z"/>
  <path class="cls-30" d="M35.26,9.59c.05.12.14.2.29.19.09.13,0,.25,0,.38-.06,0-.13,0-.19,0-.17.05-.21-.09-.28-.2,0-.15.07-.27.18-.38Z"/>
  <path class="cls-78" d="M35.08,9.97c.09.07.18.13.28.2-.04.08-.11.09-.19.09-.21.08-.04.26-.09.38-.17-.22-.11-.45,0-.67Z"/>
  <path class="cls-58" d="M35.53,9.3c-.09.07-.18.13-.27.2-.03-.03-.06-.07-.09-.1.21-.05.13-.25.18-.37.13.05.21.13.18.28Z"/>
  <path class="cls-30" d="M40.31,9.38c.07.11.18.09.28.1,0,.03,0,.05-.02.08-.12.03-.23.06-.35.09-.04-.09-.07-.18-.11-.27.06-.06.13-.06.19,0Z"/>
  <path class="cls-79" d="M40.31,9.38c-.06,0-.13,0-.19,0-.09-.04-.16-.1-.19-.2.03,0,.06,0,.09,0,.09.03.19.07.28.1,0,.03,0,.06,0,.09Z"/>
  <path class="cls-77" d="M3.41,3.5c-.19.12-.39.24-.58.35-.03-.03-.04-.06-.04-.1.01-.08.07-.12.14-.16.12,0,.18-.07.2-.19.06,0,.12,0,.17,0,.04.03.07.06.11.09Z"/>
  <path class="cls-14" d="M4.38,2.84c-.09.06-.18.12-.27.18-.08.03-.15.06-.23,0,0-.03,0-.06,0-.1.05-.11.14-.18.26-.18.05,0,.09,0,.14.01.04.02.08.05.1.09Z"/>
  <path class="cls-42" d="M4.16,2.82c-.09.03-.19.07-.28.11-.03-.07-.06-.13-.09-.2.12-.04.25-.07.37-.11.05.07.06.13,0,.2Z"/>
  <path class="cls-86" d="M3.77,3.37c-.04.12.18.22.07.28-.11.07-.21-.07-.26-.18.02-.12.12-.08.19-.1Z"/>
  <path class="cls-1" d="M3.88,3.02c.08,0,.15,0,.23,0-.05.06-.09.12-.14.18-.06,0-.12,0-.19.01,0-.08.02-.16.09-.2Z"/>
  <path class="cls-13" d="M2.68,15.19c0,.14-.13.25-.07.4,0,0,0,0,0,0-.04.01-.08.02-.12.02-.12-.04-.22-.11-.28-.22,0-.25.27-.17.37-.29.06.01.09.05.11.1Z"/>
  <path class="cls-22" d="M2.2,15.38c.14,0,.23.07.28.19-.08.08-.16.15-.29.1-.12-.06-.2-.14-.17-.28.06,0,.12,0,.18,0Z"/>
  <path class="cls-27" d="M2.68,15.19s-.07-.07-.11-.1c.1-.06.2-.13.3-.19.09-.06.16-.04.21.05,0,.09-.05.16-.11.23-.1,0-.19,0-.29.01Z"/>
  <path class="cls-80" d="M3.05,14.99c-.06-.03-.12-.06-.18-.09.03-.08.11-.09.18-.09.06,0,.13,0,.19,0-.03.06-.06.12-.1.18-.02.03-.04.03-.06.03-.02,0-.03-.02-.03-.02Z"/>
  <path class="cls-41" d="M3.23,10.91c.29.39.09.82.11,1.24-.05.03-.09.03-.13,0-.06-.21.04-.45-.07-.66l.02-.57s.03-.03.05-.02c.02,0,.02.02.02.03Z"/>
  <path class="cls-28" d="M3.51,9.77c0,.26-.02.51-.03.77-.07.07-.14.14-.24.09,0-.16,0-.32,0-.48.13-.13.15-.31.18-.48.08-.01.13,0,.1.1Z"/>
  <path class="cls-21" d="M3.24,10.62c.08-.03.16-.06.24-.09,0,.06,0,.11.01.17-.09.07-.12.22-.27.2-.03,0-.05,0-.08,0,.03-.09.06-.19.09-.28Z"/>
  <path class="cls-40" d="M3.14,11.48c.19.2.06.44.1.66l-.03.03h-.05c0-.18-.01-.34-.02-.51,0-.06,0-.13,0-.19Z"/>
  <path class="cls-46" d="M24.61,8.85c-.06.09-.12.18-.19.28-.09.04-.19.08-.28.12-.08-.04-.09-.11-.09-.19.03-.22.43-.09.37-.39.03,0,.06,0,.1,0,.07.04.14.08.09.18Z"/>
  <path class="cls-59" d="M24.05,9.05c.08.04.09.12.09.19,0,.03,0,.06,0,.08-.12.04-.25.08-.37.11-.04-.04-.04-.07,0-.11,0-.19.23-.15.3-.28Z"/>
  <path class="cls-28" d="M23.76,9.33s0,.08,0,.11c0,.03,0,.05,0,.08-.06.04-.12.07-.17.11-.07,0-.14,0-.21-.01,0-.06,0-.12.01-.19.12-.04.25-.07.37-.11Z"/>
  <path class="cls-58" d="M13.86,3.37c-.11-.21-.29-.4-.27-.66.06-.06.11-.06.17,0,.02.23.24.41.21.66-.02.02-.04.03-.07.02-.02,0-.03-.02-.03-.02Z"/>
  <path class="cls-81" d="M13.86,3.37s.07,0,.1,0c.14.13.19.29.19.48-.21.02-.16-.22-.28-.29,0-.06,0-.12,0-.19Z"/>
  <path class="cls-19" d="M13.75,2.72c-.06,0-.11,0-.17,0-.12,0-.2-.06-.2-.19.06.01.13.11.19,0,.03,0,.06,0,.09,0,.03.07.06.13.09.2Z"/>
  <path class="cls-22" d="M15.3,9.84c0-.06,0-.13,0-.19.06.03.12.06.18.09.05.12.16.26-.09.29-.09-.03-.14-.08-.1-.19Z"/>
  <path class="cls-78" d="M14.34,6.32c.07-.1.14-.2.2-.29.03.06.05.13.08.19-.06.09,0,.22-.11.29-.03,0-.06,0-.08,0-.06,0-.1-.04-.13-.1-.01-.04,0-.07.03-.09Z"/>
  <path class="cls-36" d="M18.55,10.95c-.06-.18.09-.37,0-.55.09-.04.18-.07.28-.11.25.05.02.27.13.38,0,.04,0,.08,0,.11-.06.08-.12.15-.21.19-.06,0-.12-.01-.18-.02Z"/>
  <path class="cls-36" d="M18.91,10.77s0-.07,0-.1c.03-.03.06-.05.1-.05.04,0,.08.01.11.03.06.06.02.15.08.21,0,0,0,0,0,0-.07.19-.15.35-.4.2-.09-.13.2-.14.1-.28Z"/>
  <path class="cls-22" d="M18.91,10.77c.11.14-.04.2-.1.28-.03-.03-.06-.06-.09-.09,0-.12.06-.2.19-.2Z"/>
  <path class="cls-59" d="M5.86,1.77s-.05,0-.08,0c.03-.09.06-.18.09-.28.13,0,.18-.07.19-.19.03,0,.06,0,.08,0,.03.09.06.18.09.28-.13.06-.26.13-.38.19Z"/>
  <path class="cls-48" d="M30.89,7.33c.25.01.05.18.09.27-.15-.05-.18-.14-.09-.27Z"/>
  <path class="cls-80" d="M28.13,8.67c-.02.09-.05.2-.16.16-.16-.05,0-.18-.03-.26.13-.1.11.11.19.1Z"/>
  <path class="cls-49" d="M42.4,9.94s.06.01.09.02c.11.12.04.24,0,.36-.1,0-.19.01-.29.02-.03,0-.06-.01-.09-.02,0-.06,0-.12,0-.18.09-.07.19-.14.28-.21Z"/>
  <path class="cls-32" d="M42.97,9.97s0,.05,0,.08c0,.12-.06.19-.19.18-.15-.05-.31-.1-.1-.28.03-.03.07-.07.1-.1.06.04.13.08.19.12Z"/>
  <path class="cls-49" d="M42.68,9.94c-.09.14.02.21.1.28-.1.03-.19.07-.29.1-.09-.12,0-.24,0-.36.06,0,.12-.01.19-.02Z"/>
  <path class="cls-59" d="M30.13,9.42s0,.06,0,.09c-.24.02-.4.27-.66.2.06-.09.12-.19.19-.28.16.27.32-.15.48,0Z"/>
  <path class="cls-81" d="M.65,5.21c.1-.19.25-.3.46-.3.04.02.06.06.08.1.01.06,0,.13-.03.19-.03.06-.07.1-.14.11-.06,0-.12,0-.18,0-.06-.03-.13-.06-.19-.1Z"/>
  <path class="cls-59" d="M1.6,6.34c-.21.07-.29-.18-.47-.18.03-.03.06-.07.09-.1.15-.1.29-.24.44,0,.03.11.02.21-.07.29Z"/>
  <path class="cls-56" d="M1.61,6.05c-.13-.15-.25.06-.38.01-.03-.07-.06-.14-.1-.2.22,0,.44.01.66.02.03.03.04.07.03.11-.06.06-.11.14-.21.06Z"/>
  <path class="cls-62" d="M1.02,5.31s.07-.06.1-.1c.03-.02.05-.03.07-.02.02,0,.04.02.04.03-.02.16-.07.29-.22.37-.1-.1,0-.18,0-.28Z"/>
  <path class="cls-78" d="M25.37,8.76c.13.06.08.3.29.28.07.11.08.23.08.35-.01.05-.04.09-.08.12-.06.03-.12.07-.18.1-.11-.28-.11-.57-.11-.86Z"/>
  <path class="cls-35" d="M25.85,8.09v-.04s0-.04,0-.04c.08.03.08.06,0,.09Z"/>
  <path class="cls-16" d="M2.84,3.79s0,.04-.01.06c-.06.07-.05.21-.19.2-.19-.05-.24.14-.35.21-.12.04-.25.07-.29.21v-.02c-.05.01-.11.04-.17.07-.1.04-.21.07-.31.02.03-.35.4-.35.56-.57.23.12.24-.32.47-.19.1-.08.2-.09.29.01Z"/>
  <path class="cls-25" d="M1.51,4.55c.1-.03.19-.06.29-.09.01.24-.26.31-.3.51-.12.05-.23.19-.37.05,0-.03,0-.06-.01-.1,0-.03,0-.06-.02-.08.06-.08.12-.17.18-.25.08-.01.16-.03.24-.04Z"/>
  <path class="cls-28" d="M31.17,7.6s.07.07.11.11c-.03.14.05.35-.2.36,0-.12.09-.25,0-.37.03-.03.06-.06.09-.1Z"/>
  <path class="cls-46" d="M15.3,9.84c.03.06.07.12.1.19,0,.03,0,.07-.01.1-.06.06-.13.12-.19.19-.14.09-.23.03-.3-.1.01-.03.02-.06.03-.09.2,0,.2-.24.37-.28Z"/>
  <path class="cls-33" d="M12.15,1.09c0-.06,0-.12,0-.19.03,0,.06,0,.09,0,.1.11.24.19.19.38-.15.02-.18-.12-.27-.18Z"/>
  <path class="cls-66" d="M11.39,9.93s.08,0,.11,0c0,.06,0,.12-.01.18-.11.15-.26.26-.39.39-.03,0-.05,0-.08,0-.1-.04-.21-.08-.31-.13.23-.15.45-.3.68-.45Z"/>
  <path class="cls-48" d="M11.1,10.51c.04-.22.17-.35.39-.39.04.04.07.07.11.11-.09.11-.26.12-.31.28-.06,0-.13,0-.19,0Z"/>
  <path class="cls-41" d="M3.51,9.77s-.06-.07-.1-.1c-.03-.07-.07-.14-.1-.2.14.04.26-.02.37-.08,0,.09,0,.18,0,.27-.06.04-.12.07-.19.11Z"/>
  <path class="cls-29" d="M11,.53c-.35,0-.7-.01-1.05-.02-.03-.09-.06-.18-.09-.27.28-.1.57-.04.85-.1.14.15.32.08.48.09.07.06.14.12.21.18-.11.13-.25.13-.4.11Z"/>
  <path class="cls-44" d="M9.89,11.38c.08,0,.14,0,.18.08-.14.11-.27.24-.47.22v-.11c.03-.15.14-.2.28-.19Z"/>
  <path class="cls-32" d="M39.82,8.16c.11.14.1.31.11.47-.1-.13-.26-.13-.39-.19,0-.06,0-.12.01-.19.07-.08.15-.16.27-.1Z"/>
  <path class="cls-16" d="M14.07,12.4c-.13-.03-.25-.06-.38-.09-.09-.22.02-.44,0-.66.16-.22.31.15.47,0,.02-.02.04-.03.06-.02.02,0,.03.02.03.02.08.29-.26.47-.19.76Z"/>
  <path class="cls-38" d="M14.26,11.64s-.06,0-.09,0c.04-.18-.09-.27-.19-.38.14-.14.25-.31.49-.28.11.1.17.22.09.36-.04.1-.07.2-.11.29-.06,0-.12,0-.19,0Z"/>
  <path class="cls-30" d="M14.45,10.97c-.16.1-.32.19-.47.29-.08,0-.15-.02-.19-.1.03,0,.06,0,.08,0,.36-.06.22-.36.28-.57.04-.08.09-.12.19-.09.02.07-.04.18.1.18.03.02.06.05.07.09.01.06,0,.12-.02.17-.01.01-.03.03-.04.04Z"/>
  <path class="cls-26" d="M2.84,3.79c-.1,0-.2,0-.29-.01,0-.14.08-.22.18-.3.07.04.13.07.2.11-.03.07-.06.13-.09.2Z"/>
  <path class="cls-49" d="M15.01,10.78s.03.07.04.1c-.1.03-.21.07-.31.1-.02.03-.05.04-.09.03-.07-.07-.01-.17-.05-.26,0-.04.01-.08.03-.11.06-.06.13-.1.21-.09.14.02.11.16.16.24Z"/>
  <path class="cls-32" d="M14.64,10.97s.07,0,.1,0c-.03.14-.08.27-.19.37-.03-.12-.07-.24-.1-.37h0c.06-.06.13,0,.19,0Z"/>
  <path class="cls-58" d="M3.62,12.52c.09.13-.04.26,0,.39-.13-.07-.27-.12-.42-.1.02-.1.04-.19.06-.29.06-.05.12-.05.18,0,.06,0,.12,0,.18,0Z"/>
  <path class="cls-82" d="M18.33,8.88c-.14,0-.26-.03-.37-.12,0-.03,0-.05.01-.08.11-.08.22-.12.36-.1,0,.06,0,.12,0,.18.03.04.03.07,0,.11Z"/>
  <path class="cls-31" d="M17.39,8.78c0-.06,0-.12,0-.18.1-.04.2-.07.3-.11,0,.06,0,.12-.01.19-.09.03-.19.07-.28.1Z"/>
  <path class="cls-31" d="M24.61,8.85c-.03-.06-.06-.12-.09-.18.06-.03.12-.07.18-.1.08,0,.15.03.19.1,0,.06,0,.13,0,.19-.09,0-.19,0-.28,0Z"/>
  <path class="cls-21" d="M24.9,8.66c-.08,0-.15-.02-.19-.1,0-.12.07-.18.19-.19.03.06.07.13.1.19-.03.03-.07.06-.1.09Z"/>
  <path class="cls-28" d="M41.35,10.06s.07,0,.1,0c.13.16.44.08.47.36-.23.08-.42-.22-.66-.08-.03,0-.07-.01-.1-.02-.11-.22.07-.22.19-.27Z"/>
  <path class="cls-46" d="M9.89,11.38c-.1.06-.19.12-.29.19-.03,0-.06-.01-.09-.02,0-.06,0-.12-.01-.18-.05-.18.14-.19.2-.28.06.03.12.06.17.08,0,.07,0,.14,0,.21Z"/>
  <path class="cls-20" d="M8.74,11.94c.1-.17.26-.25.45-.28-.03.14-.08.27-.25.28-.07,0-.13,0-.2,0Z"/>
  <path class="cls-58" d="M5.15,2.27c-.02.05-.03.1-.1.08-.16.03-.24.21-.41.21-.09-.05-.14-.11-.1-.22.03-.03.06-.07.09-.1.1-.03.19-.06.29-.09.09,0,.18,0,.23.11Z"/>
  <path class="cls-11" d="M5.15,2.27c-.09-.01-.18-.02-.23-.11.1-.14.24-.09.37-.09-.03.05-.05.1-.08.15,0,0-.02.04-.02.04h-.04Z"/>
  <path class="cls-65" d="M5.58,2.06c-.1-.03-.19-.06-.29-.1,0,0,0-.05,0-.05,0,0,0-.05,0-.05.06-.03.12-.07.19-.1.03.03.07.07.1.1,0,.06,0,.13,0,.19Z"/>
  <path class="cls-13" d="M7.42,12.6c.03-.06.07-.12.1-.17.16-.06.32-.12.48-.18.06.04.14.07.09.17-.1.06-.19.13-.29.19-.13.06-.23.16-.29.29-.09,0-.19,0-.28,0-.07-.18.12-.2.19-.3Z"/>
  <path class="cls-36" d="M8.08,12.42c-.03-.06-.06-.12-.09-.17.15-.11.31-.21.46-.32.06,0,.13.01.19.02,0,.12,0,.25,0,.37-.21-.08-.39.02-.57.1Z"/>
  <path class="cls-13" d="M22.72,10.1c.13-.16.26-.31.39-.47.06,0,.12,0,.18,0-.03.16-.06.31-.1.47-.13.03-.25.06-.38.09-.04-.02-.08-.05-.1-.09Z"/>
  <path class="cls-45" d="M2.19,15.66c.1-.03.19-.06.29-.1.04,0,.08.01.12.02-.1.13-.22.22-.39.21,0-.04-.01-.08-.02-.13Z"/>
  <path class="cls-82" d="M14.34,6.32s0,.06,0,.09c.11.14,0,.32.08.46-.04.11-.07.23-.17.3-.1.05-.15-.02-.19-.09,0,0-.01,0-.01,0,.12-.24.16-.5.2-.76.03,0,.06,0,.09,0Z"/>
  <path class="cls-42" d="M14.06,7.08c.06.03.13.06.19.09-.07.12-.13.25-.2.37-.16-.16-.06-.31.01-.47Z"/>
  <path class="cls-55" d="M14.42,6.87c-.14-.13-.06-.31-.08-.46.03.03.06.06.1.1,0,.12-.01.24-.02.37Z"/>
  <path class="cls-27" d="M39.35,7.39s.07,0,.1,0c.08.04.09.12.1.2.05.05.05.11.02.18-.11.06-.16-.02-.21-.09-.03-.03-.06-.07-.1-.1-.07-.11-.06-.18.09-.18Z"/>
  <path class="cls-21" d="M39.54,7.78c0-.06,0-.12,0-.18.13-.01.19.06.21.18.02.1.05.19.07.29-.29.1-.26-.11-.27-.28Z"/>
  <path class="cls-13" d="M39.35,7.39c-.07.04-.09.11-.09.18-.12-.02-.25-.05-.37-.07.03-.07.06-.14.09-.21.03-.06.06-.12.09-.18.13.06.22.16.29.28Z"/>
  <path class="cls-80" d="M39.54,7.78c.13.06.07.3.27.28.03,0,.07,0,.1,0-.03.03-.07.06-.1.09-.09.03-.18.06-.27.1,0-.13-.07-.23-.19-.29,0-.09,0-.19,0-.28.06.03.13.06.19.09Z"/>
  <path class="cls-41" d="M18.33,8.88s0-.07,0-.11c.19.03.38.07.56.1-.03.06-.06.11-.09.17-.14.04-.27.01-.38-.07-.03-.03-.06-.07-.1-.1Z"/>
  <path class="cls-82" d="M40.59,10.15c0-.1,0-.2-.09-.29-.14-.13-.03-.17.09-.19.1.1.19.19.29.29.05.07.2.03.19.16,0,.04-.06.06-.11.03-.12,0-.24,0-.37,0Z"/>
  <path class="cls-58" d="M40.96,10.15c.12-.13-.1-.11-.08-.19.06,0,.13,0,.19,0,.09.04.19.07.28.11-.05.1-.2.13-.19.27-.13.01-.18-.07-.2-.17Z"/>
  <path class="cls-12" d="M3.43,12.52c-.06,0-.12,0-.18,0-.03-.12-.06-.24-.1-.36.03,0,.05-.02.08-.02.03,0,.07,0,.1,0,.03.13.06.25.1.38Z"/>
  <path class="cls-10" d="M3.05,14.99s.06,0,.09,0c.03.04.07.07.11.11,0,.03,0,.06,0,.09-.09,0-.18,0-.27-.01-.01-.08,0-.14.08-.19Z"/>
  <path class="cls-34" d="M1.61,6.05c.06-.03.12-.06.18-.08.14-.1.25.06.38.06.19.07.28.22.34.4,0,.05-.02.09-.05.12-.06,0-.13,0-.19,0-.16-.03-.32-.05-.47-.08-.08-.02-.16-.03-.19-.11,0-.1,0-.2,0-.3Z"/>
  <path class="cls-67" d="M2.46,6.54s0-.06,0-.1c.04-.06.08-.13.17-.13.06.01.09.06.12.11.11.03.09.12.1.2-.21.37-.26-.05-.38-.08Z"/>
  <path class="cls-51" d="M2.93,6.65c.32-.01.33.14.19.36-.07,0-.12.14-.2.03,0-.13,0-.26,0-.39Z"/>
  <path class="cls-30" d="M20.05,9.82c.04.06.07.13.11.19-.04.19-.21.31-.3.47-.09.03-.18.07-.28.11-.04-.03-.06-.07-.08-.11-.02-.09-.01-.19.03-.27.15-.15.24-.39.51-.38Z"/>
  <path class="cls-17" d="M19.21,10.86c-.08-.04-.1-.11-.1-.19-.09-.11-.09-.21.02-.3.15-.03.31-.12.4.1,0,.16-.16.2-.23.3-.03.03-.06.06-.09.09Z"/>
  <path class="cls-29" d="M19.29,10.77c-.02-.15.13-.19.19-.29.02-.03.04-.04.06-.03.02.01.03.02.03.03,0,.03,0,.07,0,.1-.06.12-.15.19-.29.19Z"/>
  <path class="cls-17" d="M22.72,10.1s.06.06.1.09c-.12.07-.28.1-.29.29-.1.03-.19.06-.29.09-.19-.07-.38-.06-.56,0-.1-.09-.19-.19-.29-.28.02-.09.05-.18.07-.27,0,0,.02-.02.02-.02.06-.05.12-.06.19,0,.03,0,.07,0,.1,0,.28.37.64.02.95.09Z"/>
  <path class="cls-46" d="M15.01,10.78c-.06-.06-.12-.12-.18-.19-.11-.12-.09-.24,0-.37.02-.02.05-.03.08-.02.1.03.2.07.3.1-.07.16-.22.28-.19.47Z"/>
  <path class="cls-18" d="M5.91,13.38c.08-.03.17-.06.25-.09.02.08,0,.14-.08.18-.12.07-.25.13-.37.2-.03-.03-.04-.07,0-.11l.2-.19Z"/>
  <path class="cls-47" d="M5.71,13.56s0,.07,0,.11c-.06.09-.13.18-.2.27-.06,0-.13,0-.19,0-.04-.03-.04-.07,0-.1,0-.06,0-.12,0-.18.13-.03.26-.06.39-.09Z"/>
  <path class="cls-13" d="M4.16,2.82c0-.07,0-.13,0-.2.03-.03.06-.06.09-.08.1-.07.18-.04.23.07.02.18-.15.15-.23.22-.03,0-.06,0-.1,0Z"/>
  <path class="cls-23" d="M4.44,2.63c-.04-.08-.11-.09-.19-.09.03-.03.07-.06.1-.09.06-.03.13-.06.19-.1.03.06.07.12.1.18-.02.06-.06.1-.1.14-.04.01-.07,0-.1-.03Z"/>
  <path class="cls-38" d="M11.67.81c-.06-.03-.13-.06-.19-.08,0,0,0-.02,0-.02-.11-.13-.02-.21.09-.27.06,0,.13-.02.19-.02.06.1.08.2.01.3-.03.03-.06.07-.1.1Z"/>
  <path class="cls-29" d="M5.32,13.84s0,.07,0,.1c-.09.06-.19.13-.28.19-.04-.22.07-.3.28-.29Z"/>
  <path class="cls-55" d="M13.97,8.02c-.11.05-.24.09-.31-.04-.04-.07.05-.12.12-.15.06,0,.12,0,.18.01,0,.06,0,.12.01.18Z"/>
  <path class="cls-58" d="M11.56.44c-.03.09-.06.18-.09.27-.14-.11-.35-.03-.48-.18.13-.04.27-.07.4-.11.06,0,.11.01.17.02Z"/>
  <path class="cls-30" d="M21.68,10.57c.19-.08.37-.24.56,0-.03,0-.06.02-.09.02-.16,0-.32,0-.47-.01Z"/>
  <path class="cls-42" d="M12.55,9.46s0,.06,0,.09c-.06.03-.12.07-.18.1-.07,0-.13,0-.2.01,0-.04,0-.07,0-.11.09-.03.19-.07.28-.1.02-.03.05-.04.07-.03.02,0,.03.02.03.03Z"/>
  <path class="cls-8" d="M25.66,9.42c0-.13,0-.25,0-.38.03,0,.06,0,.09,0,0,.13.07.19.2.19-.03.06-.07.13-.1.19-.06.06-.12.06-.19,0Z"/>
  <path class="cls-30" d="M6.74,12.98s0-.06,0-.09c.13-.06.26-.12.39-.18.05.07.05.13,0,.2.01.06.03.11.04.17-.08,0-.15,0-.23,0-.08-.01-.16-.03-.21-.11Z"/>
  <path class="cls-15" d="M7.14,12.91c0-.07,0-.13,0-.2.09-.04.19-.08.28-.12-.06.1-.13.2-.19.3-.03,0-.06.01-.09.02Z"/>
  <path class="cls-95" d="M4.53,2.63s.07-.07.11-.1c.14-.05.24-.2.41-.17-.12.1-.19.29-.39.29-.05.04-.09.03-.13-.01Z"/>
  <path class="cls-56" d="M4.53,2.63s.09,0,.13.01c-.05.13-.15.18-.28.2-.04,0-.08-.01-.13-.02.06-.06.13-.13.19-.19.03,0,.06,0,.08,0Z"/>
  <path class="cls-86" d="M5.09,3.97c-.22.04-.24-.21-.47-.25.29-.16.35.06.47.15,0,.03,0,.07,0,.1Z"/>
  <path class="cls-94" d="M9.71,11.08c0,.14-.15.18-.2.28-.09,0-.16-.03-.2-.12.1-.06.19-.11.29-.17.04,0,.08,0,.12,0Z"/>
  <path class="cls-44" d="M4.18,6.05c.09-.28.19-.57.28-.85.05-.03.09-.02.12.03.05.23,0,.44-.13.63,0,.06,0,.12,0,.18-.09,0-.18,0-.26.01Z"/>
  <path class="cls-80" d="M4.45,5.87c.03-.22.07-.44.1-.66.08-.02.13-.01.08.09.03.06.06.12.09.19-.11.11-.03.37-.28.38Z"/>
  <path class="cls-54" d="M4.64,5.3s-.06-.06-.08-.09c-.03,0-.06,0-.09,0,.2-.15.11-.47.36-.59.03.1.07.2.1.3-.27,0-.12.3-.28.38Z"/>
  <path class="cls-30" d="M12.55,9.46s-.07,0-.1,0c-.03-.06-.06-.12-.08-.18.12-.03.25-.06.37-.09.02.14-.13.18-.18.27Z"/>
  <path class="cls-49" d="M18.9,10.11c-.06-.29,0-.54.29-.68,0,0,0,0,0,0,.18.1.13.26.12.41,0,.11-.01.22-.07.32-.03.04-.07.06-.11.06-.1,0-.17-.06-.23-.13Z"/>
  <path class="cls-17" d="M18.9,10.11c.08,0,.15,0,.2.09.04.17-.1.31-.09.48-.03,0-.06,0-.09,0-.34-.05.09-.3-.1-.39.03-.06.06-.12.09-.18Z"/>
  <path class="cls-24" d="M19.2,9.82c0-.13.09-.25,0-.38.06,0,.13,0,.19,0,.03.06.07.12.1.18.03.11.1.23-.03.33-.13.05-.19-.04-.25-.12Z"/>
  <path class="cls-44" d="M18.43,8.99c.14-.04.26,0,.38.07.14.23-.1.04-.12.11,0,0-.06,0-.09,0-.11,0-.23.04-.28-.1l.1-.08Z"/>
  <path class="cls-33" d="M21.1,8.87s.06,0,.1,0c.2-.06.17.14.25.22.03.05.05.12.09.17.07.08.15.17.04.28-.08,0-.15-.02-.19-.09-.05-.13-.15-.19-.29-.19,0,0,0,0,0,0-.1-.13-.1-.25,0-.38Z"/>
  <path class="cls-30" d="M21.57,9.53c-.03-.09-.06-.19-.09-.28.02-.02.04-.03.06-.03.02,0,.03.01.03.02.07,0,.13,0,.2,0,0,.12,0,.25,0,.37-.06-.03-.12-.06-.19-.09Z"/>
  <path class="cls-18" d="M21.67,10.01c-.06,0-.12,0-.19,0,.04-.04.07-.12.11-.12.08-.01.06.07.07.12Z"/>
  <path class="cls-24" d="M21.67,8.3s.06,0,.08-.02c.07.16.14.33.2.49-.1.06-.14.21-.28.19-.03-.03-.05-.07-.06-.11,0-.13-.04-.26.06-.37,0-.06,0-.13,0-.19Z"/>
  <path class="cls-27" d="M21.67,8.86s0,.06,0,.1c-.03.09-.06.19-.1.28-.03,0-.06,0-.09,0-.03-.03-.07-.07-.1-.1-.07-.26.01-.37.29-.28Z"/>
  <path class="cls-51" d="M21,8.76s0,.07,0,.11c.03.11,0,.21-.1.29-.12.03-.25.06-.37.1-.04.03-.08.02-.12-.01.07-.31.29-.44.58-.48Z"/>
  <path class="cls-53" d="M20.45,9.25s.06,0,.09,0c.05.1.2.13.19.27-.03,0-.07,0-.1,0-.05.05-.11.06-.18.06-.15-.05-.14-.15-.09-.26.02-.04.06-.07.1-.09Z"/>
  <path class="cls-16" d="M20.91,9.16c.03-.1.06-.19.1-.29.03,0,.06,0,.09,0,0,.13,0,.25,0,.38-.07,0-.14-.02-.18-.09Z"/>
  <path class="cls-65" d="M20.43,9.53c.06,0,.13,0,.19,0-.03.06-.07.12-.1.19-.09.03-.19.07-.28.1-.13-.22.07-.23.19-.29Z"/>
  <path class="cls-56" d="M20.43,9.53c-.05.1-.21.13-.19.29-.06,0-.13,0-.19,0-.18.09-.24.33-.46.37-.02-.02-.03-.03-.05-.05-.04-.13.03-.22.1-.31.26-.18.38-.56.79-.5,0,.06-.1.13,0,.19Z"/>
  <path class="cls-57" d="M14.34,10.5c-.06.03-.12.06-.19.09-.03,0-.06,0-.09,0,0-.06,0-.13-.01-.19.04-.09.08-.19.12-.28.06,0,.11,0,.17,0,0,.13,0,.25,0,.38Z"/>
  <path class="cls-61" d="M2.63,6.35c-.06.03-.12.06-.17.09-.1-.13-.19-.26-.29-.39-.04-.03-.04-.05,0-.08.24-.04.3.21.47.29.03.03.03.06-.01.08Z"/>
  <path class="cls-92" d="M1.49,4.92c0-.22.21-.31.31-.47.07,0,.13,0,.2.01-.14.15-.28.31-.42.46-.02.03-.04.04-.06.03-.02,0-.03-.02-.03-.03Z"/>
  <path class="cls-54" d="M1.49,4.92s.06,0,.09,0c-.03.21-.24.19-.35.29-.04,0-.07,0-.11,0,0-.07,0-.13,0-.2.12-.03.25-.06.37-.09Z"/>
  <path class="cls-63" d="M2.26,4.26c.09-.13.11-.4.38-.2-.13.1-.25.19-.38.29-.04-.03-.04-.06,0-.08Z"/>
  <path class="cls-87" d="M2.63,6.35l.02-.04v-.04c.02-.08.02-.22.15-.13.15.1.05.21-.05.29-.07.02-.1-.02-.12-.07Z"/>
  <path class="cls-92" d="M2.26,4.26s0,.06,0,.08c-.08.06-.14.16-.27.14,0-.19.03-.32.27-.22Z"/>
  <path class="cls-95" d="M2.17,5.98s0,.05,0,.08c-.12-.03-.25-.06-.37-.09,0-.03,0-.06,0-.09.14-.03.27,0,.38.1Z"/>
  <path class="cls-28" d="M25.66,9.42c.06,0,.12,0,.19,0,0,.06,0,.13,0,.19-.06.03-.13.06-.19.1,0-.06,0-.13,0-.19,0-.03,0-.07,0-.1Z"/>
  <path class="cls-89" d="M20.43,9.34c-.33.1-.49.41-.75.59-.04-.03-.06-.07-.08-.12-.02-.14.06-.22.18-.28.1-.03.07-.12.09-.19.14-.14.3-.25.44-.4.05-.06.12-.09.19-.13.1-.05.2-.12.32-.12.06,0,.12-.01.19-.02,0,.03,0,.06,0,.09-.16.18-.43.26-.55.48,0,.03-.01.06-.02.09Z"/>
  <path class="cls-82" d="M21.67,8.86c-.18,0-.27.11-.29.28-.06-.09-.13-.19-.19-.28.14-.15.21-.38.48-.38,0,.13.09.25,0,.38Z"/>
  <path class="cls-76" d="M20.82,8.69c-.06.12-.17.16-.29.18-.07-.02-.11-.06-.12-.13.04-.18.23-.05.31-.16.03,0,.06,0,.1,0,0,.04,0,.08,0,.12Z"/>
  <path class="cls-70" d="M14.82,10.23c0,.12,0,.24,0,.37-.06.03-.13.07-.19.1-.08-.04-.05-.13-.08-.19.03-.14.12-.24.27-.27Z"/>
  <path class="cls-62" d="M14.56,10.5c.03.06.05.13.08.19,0,.03,0,.06,0,.09-.06.06-.12.06-.18,0,0-.03,0-.07-.01-.1.04-.06.08-.12.12-.17Z"/>
  <path class="cls-56" d="M20.35,8.97c-.13.17-.22.37-.48.38-.11-.06-.02-.12,0-.19.15.01.19-.13.28-.2.03,0,.06,0,.08,0,.04-.03.08-.03.12,0Z"/>
  <path class="cls-77" d="M19.78,9.54c-.03.09-.14.16-.11.27-.03.06-.07.11-.14.12-.02-.01-.03-.03-.05-.04.03-.09-.12-.18,0-.27.1-.03.2-.06.3-.08Z"/>
  <path class="cls-14" d="M20.71,8.58c-.1.06-.19.12-.29.19-.03.09-.08.15-.19.1-.03-.09-.06-.19-.1-.28.19-.22.38,0,.57,0Z"/>
  <path class="cls-60" d="M20.24,8.87c.06-.03.12-.07.19-.1.03.03.07.07.1.1-.03.1-.11.08-.18.1-.04,0-.08,0-.12,0,0-.03.01-.06.01-.09Z"/>
  <path class="cls-31" d="M19.01,10.68c-.11-.19.04-.32.09-.48.03,0,.06,0,.09,0,.03.02.05.05.06.09,0,.04-.02.07-.05.1-.11.07-.09.18-.1.29-.03,0-.06,0-.1,0Z"/>
  <path class="cls-82" d="M14.45,10.78c.06,0,.12,0,.18,0,.11.06.02.13,0,.19-.06.11-.13,0-.19,0,0-.07,0-.13,0-.2Z"/>
  <path class="cls-29" d="M19.2,10.39s0-.06,0-.09c.1-.08-.02-.27.16-.32.13.02.15.14.22.22,0,0,.02,0,.02,0,0,.1,0,.19-.01.29-.03,0-.06,0-.09,0-.05-.16-.22.02-.29-.09Z"/>
  <path class="cls-78" d="M19.4,10.01c-.07.09-.13.19-.2.28,0-.03,0-.06,0-.09,0-.13,0-.25,0-.38.09.02.19.05.28.07,0,0,0,.02,0,.02.03.09,0,.12-.09.1Z"/>
  <path class="cls-5" d="M19.4,10.01s.06-.07.09-.1c.06-.03.13-.07.19-.1,0,.04,0,.08.01.12-.03.09-.07.18-.1.27-.12,0-.18-.07-.18-.19Z"/>
</svg>