<?xml version="1.0" encoding="UTF-8"?>
<svg id="a" data-name="Layer 1" xmlns="http://www.w3.org/2000/svg" width="287.29" height="110.32" viewBox="0 0 287.29 110.32">
  <defs>
    <style>
      .b {
        stroke-width: 1.5px;
      }

      .b, .c {
        fill: none;
        stroke: #484848;
        stroke-linecap: round;
        stroke-linejoin: round;
      }

      .c {
        stroke-width: 2px;
      }

      .d {
        fill: #5f5f5f;
      }

      .d, .e {
        stroke-width: 0px;
      }

      .e {
        fill: #c7c7c7;
      }
    </style>
  </defs>
  <g>
    <g>
      <path class="e" d="M245.56,58.44l-.73-.05s.2.04.73.05Z"/>
      <path class="e" d="M59.44,57.69c-.06,0-.12,0-.17.01.12,0,.16,0,.17-.01Z"/>
      <path class="e" d="M216.98,56.83s.03,0,.04,0c.06,0,.13,0,.19-.01h-.23Z"/>
      <path class="e" d="M254.5,57.01c-9.85-.07-12.46-.29-22.66-.21-4.87.01-10.06.03-14.82.04-2.26.17-6.25,0-8.92.13l-1.04-.1c-.92.05-2,.08-2.93.03l.06-.03c-1.38.07-2.93.03-3.61.06l.06-.03h-1.67s.29-.03.29-.03c-2.4.07-4.88.09-7.04.02l.18.12c-4.64-.2-6.35-.06-10.55-.31l.06-.03c-5.34.21-8.41-.24-13.89.02.68-.04-.29-.06-.24-.09-2.52.03-5.22.05-5.26.27-1.84,0-1.5-.07-1.74-.16.01.1-1.59.14-3.02.15l.66-.04-4.11.03.81.19c-2.18-.06-.55-.23-2.64-.19l.03.16c-3.02-.03-4.78-.27-7.7-.39-6.05-.03-12.39.02-18.55.14-1.54,0-3.06-.02-4.57-.13l-1.12-.09c-.4-.03-.68-.1-1.23-.1-.95.07-1.61.39-2.15.31-3.04-.25-6-.18-8.82-.18l-.5-.1c-.22-.16-3.1.33-3.53.16l-1.3.08c-.37-.03-1.13-.09-.49-.11-1.2-.03-1.22-.02-2.1,0l-1.3-.17c-4.81-.27-8.9-.05-13.94-.07-3.03-.09-7.39-.08-11.81-.09-4.42.06-8.92.12-12.22.16-9.24.22-19.97-.38-29.43-.2-.15-.01-.43-.01-.67,0s-.43.03-.43.04l-4.33-.07c-1.44-.02-2.89-.07-4.35-.01,0,0-.66.03-1.75.07-1.08.04-2.58.12-4.25.04-1.73-.11-3.69-.07-5.57-.06-.95.01-1.84-.02-2.79-.03-.93,0-1.81.04-2.62.07-3.24.21-5.41-.04-4.91.23.25.13,1.2.4,3.12.54.95.07,2.15.1,3.58.17,1.41.08,3.15.27,5.14.33l-.21.04c1.18.02,2.25.04,3.23.1.95.06,1.95.12,2.82.1,1.78-.02,3.33-.17,4.95-.3.5.19,3.88.05,4.98.14l-.11.02c2.89-.14,5.95.22,8.73.1-.11.02-.17.08-.81.08,2.03-.01,4.8-.07,4.96.06,4.85-.03,11.61.03,14.72-.18l-.21.04c1.77-.14,2.29-.02,4.27-.09.11.02.25.03.23.03,1.93-.14,5.62-.02,7.18-.08l.1.09,3.84-.02-1.43-.02c.5-.24,2.9.15,5.68,0,2.61.07,5.29-.48,8-.37,1.29-.12-1.14.19.79.09.06.13-.9.08-.4.18,1.89-.07,3.11.11,5.44.02l.1.1c3.05-.19,5.74.16,7.76.04,3.14,0,2.07.36,5.37.31l1.28.16c1.42.03,1.01-.16,2.58-.11-.09.09,1.97.02,1.06.13,1.76.02,3.54-.09,5.45-.14.95-.02,1.94-.03,2.97.01.51.03,1.04.06,1.57.11l.43.04c.2.02.38,0,.56,0,.35-.03.66-.1.93-.14.23-.09.52-.18.75-.2.07,0,.1,0,.19,0l.3.03.61.06c.81.07,1.59.11,1.98.07.12.12,4.71.15,2.07.25-.23,0-.63,0-.6-.03l-.32.09c2.67.28,4.85-.06,7.45-.06-.77-.02-1.8,0-1.12-.08h2.42s-.5.08-.5.08l3.61.05-.5-.1c1.77.05,2.39.23,4.39.08.9-.08-1.68-.14.19-.17,2.36.07,5.91.18,8.93.21-.28-.12.53-.11,1.37-.13l.1.1c3.2-.14,1.17.22,4.35.11l-.28.07.84-.21c2.87-.2,1.55.21,4.74-.06-1.26.02-.59-.22.96-.18l-.39.1c.86-.02,1.15-.06,1.72-.04-.51.05-.27.14.99.12l-.85.12,2.39-.18c1.84.1,4.76-.02,5.52.11,0,0,3.96.07,4.87-.08-.8.09,1.39.13.77.24,1.03-.11,4.06-.19,5.26-.05h-.23c4.47.2,7.66.09,11.71.28-.18-.11,1.95-.04,1.43-.19,4.17-.14,7.6.31,9.11-.14,1.9-.02,2.25.11,3.23.13l-.45.02c3.55-.03,4.58-.04,7.22-.02,1.32-.04,1.53-.25,3.89-.2-.76.08.2.07,1.08.07-.56.01-.74.04.42.1.16-.03.42-.04.65-.05,0,0,.06.01.03.02,1.47-.03,1.22-.05.53-.07.03-.01-.02-.03-.23-.05,1.53.11,4.26,0,4.45.14,4.43-.03,7.6-.17,11.29-.22.41.08-.45.14-1.52.17l2.62-.02c-.02.11-1.5.06-2.31.08,3.11.18,6.42-.16,10.07,0l.76-.08h.22s.81-.09,1.35-.1c.52.09-.04.22,1.77.21,1.43.09,4.06-.04,5.94-.09-1.01-.02-.68-.07-.25-.1.9,0,1.42.09,2.12.05l.09.13c-.35-.13,2.36-.12,2.7-.16.51.1-1.4.06-1.63.13,3.62.04,1.81.02,5.43.05,1.93-.07-.35-.12.58-.22,1.71,0,3.37-.07,5.33.03l-.62-.12c3.21-.03,5.13-.02,7.29.08,4.85-.2,7.95-.37,9.71-.52.17-.02.36-.13.61-.19.2-.08.64-.07.85.21.19.24.22.45.25.6.02.13.04.25.06.35.07.36.13.46.18.36.02-.05.05-.15.06-.29.01-.14.05-.28.02-.64-.03-.17-.05-.4-.27-.69-.23-.31-.7-.45-.95-.44-.52.02-.84.16-.82.11-.97-.05-2.18-.08-3.08-.11-.91-.02-1.57-.03-1.57-.03-9.38-.16-14.26-.02-25.47,0Z"/>
    </g>
    <g>
      <path class="d" d="M43.39,41.62h.2s-.06-.03-.2,0Z"/>
      <path class="d" d="M51.99,13.4s-.03,0-.05,0c.03,0,.04,0,.05,0Z"/>
      <path class="d" d="M51.16,40.85h-.01s-.03.03-.04.04l.05-.04Z"/>
      <path class="d" d="M41.61,43.95c2.54-.66,3.29-.62,5.84-1.61,1.24-.42,2.51-.96,3.69-1.47.5-.43,1.6-.7,2.16-1.23l.31-.04c.2-.17.43-.37.68-.44v.04c.29-.26.67-.47.8-.61v.04c.13-.09.26-.18.38-.27l-.04.09c.49-.46,1.03-.87,1.52-1.22l-.13-.08c1.08-.71,1.23-1.23,2.17-1.91v.03c.76-1.28,1.77-1.51,2.43-2.89-.08.17.11-.02.12.02.39-.56.81-1.16.59-1.33.29-.4.3-.28.43-.27-.1-.07.11-.45.32-.75l-.06.17.6-.89-.31.04c.4-.42.31.05.6-.43l-.16-.1c.5-.63,1.02-.86,1.55-1.54.45-.78.72-1.7.86-2.6.1-.91.1-1.83-.07-2.71-.28-1.77-.98-3.34-1.72-4.78l.04-.2c.15-.19-.78-.54-.7-.75-.1-.08-.2-.16-.31-.23-.04-.1-.17-.29,0-.19-.23-.26-.27-.25-.48-.39-.05-.12-.12-.23-.19-.35-.97-1.02-2.21-1.48-3.55-1.94-.74-.38-1.9-.7-3.09-.9-1.19-.2-2.42-.26-3.3-.29-2.48.05-5.37-.76-7.9-.25-.08-.02-.29.06-.29.08l-2.3.15s-.69.04-1.64.19c-.92.16-1.94.35-2.69.38-.74.04-1.28-.06-1.25.21.03.12.2.36.69.61.48.26,1.3.48,2.41.54l-.05.05c1.31-.08,1.98-.14,2.84-.43.16.26,1.02-.05,1.32.01l-.03.02c.74-.27,1.56.08,2.28-.15-.03.02-.04.1-.21.11.53-.06,1.25-.14,1.29.02,1.26-.08,3,.03,3.82-.16l-.06.04c.47-.15.59.01,1.11-.03.03.02.06.04.05.05.51-.13,1.45.12,1.86.12v.11c.34.04.67.08.99.13l-.36-.09c.18-.27.71.31,1.44.27.64.17,1.48-.28,2.13.06.36-.03-.35.13.16.17-.03.15-.25.02-.16.18.49.08.74.37,1.28.5l-.03.12c.39.01.66.27.92.44.24.21.44.41.71.47.64.45.17.57.87.98l.09.33c.2.27.3.06.48.41-.09.04.22.42.01.31.33.76,1.12,1.36,1.24,2.51.26.17.32.73.49.88-.04.02.02.3.04.5.01.2,0,.31-.14.02-.03-.05-.04-.14,0-.14l-.13-.05c-.1.63.28,1.09.25,1.71.04-.18.02-.42.1-.26,0,.19.01.38-.02.57l-.09-.12c-.05.27-.08.55-.14.82.05-.03.1-.06.14-.09-.15.39-.36.48-.32.95.02.22.29-.31.18.1-.23.51-.69,1.16-1.14,1.76.15.02.04.18-.06.37l-.11-.05c-.34.76-.38.08-.76.83l-.02-.11.07.33c-.26.75-.45.19-.69,1.08.17-.28.3.03.03.32l-.03-.15c-.11.19-.11.28-.22.39.03-.14-.09-.15-.27.12v-.26s-.18.62-.18.62c-.38.31-.73.99-.98,1.04,0,0-.71.73-.73,1.02.05-.22-.35.16-.34-.04-.07.28-.53.92-.84,1.05l.03-.05c-.89.71-1.27,1.49-2.16,2.02.12.08-.35.35-.13.41-.73.81-1.76.83-1.78,1.5-.4.28-.56.19-.79.29l.08-.08c-.76.49-.99.61-1.6.89-.28.2-.22.44-.81.63.14-.17-.08-.06-.29.03.13-.07.16-.12-.15-.07-.03.04-.08.09-.13.12,0,0-.02,0-.02-.02-.35.17-.27.18-.1.13,0,.02.02.03.08.04-.42.03-1.04.42-1.15.27-1.07.45-1.79.89-2.69,1.28-.13-.05.06-.2.31-.32l-.64.25c-.04-.12.35-.19.54-.29-.84.07-1.53.74-2.5.84l-.16.16h-.06c.02.05-.17.18-.3.24-.16-.07-.07-.25-.52-.1-.39,0-1,.36-1.46.54.26-.05.19.03.1.1-.23.07-.39,0-.55.09l-.06-.14c.13.11-.56.31-.63.39-.16-.07.33-.19.37-.29-.92.26-.46.13-1.37.38-.46.24.12.12-.08.3-.43.14-.83.35-1.35.38l.19.09c-.8.3-1.3.4-1.88.38-2.97,1.19-3.25,1.58-2.75,1.74.5.15,1.75,0,1.75,0,2.53-.23,3.72-.9,6.57-1.79Z"/>
    </g>
    <g>
      <path class="e" d="M245.82,87.53l-.73-.05s.2.04.73.05Z"/>
      <path class="e" d="M59.7,86.47c-.06,0-.12,0-.17.01.12,0,.16,0,.17-.01Z"/>
      <path class="e" d="M217.24,85.87h.04c.06,0,.13,0,.19-.01h-.23Z"/>
      <path class="e" d="M254.75,86.11c-9.84-.09-12.44-.31-22.64-.25-2.43,0-4.94,0-7.44,0-2.52-.04-5.02,0-7.39.01-2.26.2-6.2-.1-8.89.04l-1.03-.11c-.92.04-2.01.06-2.93,0l.06-.03c-1.38.06-2.93,0-3.62.03l.06-.03h-1.67s.29-.04.29-.04c-2.4.06-4.88.06-7.06.03l.18.12c-4.66-.12-6.36.14-10.56-.02l.06-.03c-5.32.32-8.36-.34-13.86-.08.68-.03-.29-.06-.24-.09-2.53,0-5.22,0-5.27.22-1.84-.02-1.5-.09-1.74-.18,0,.1-1.59.13-3.02.13l.66-.04h-4.11s.81.21.81.21c-2.18-.07-.55-.23-2.64-.2l.03.16c-3.02-.05-4.78-.29-7.7-.42-6.07-.07-12.36-.02-18.55,0-6.19.05-12.27.07-17.91-.07l-.5-.12c-.22-.17-3.12.25-3.54.09l-1.31.08c-.37-.03-1.15-.07-.49-.1-1.21,0-1.24.02-2.12.07l-1.3-.11c-4.79-.06-8.87.05-13.91-.06-3.03-.15-7.4-.22-11.83-.24-4.43-.03-8.91.09-12.2.13-9.23.29-19.95-.56-29.41-.33-.15-.01-.43,0-.67,0-.24.01-.43.03-.43.04l-8.65-.1s-2.62-.02-6.06-.04c-1.72,0-3.64,0-5.54,0-.95,0-1.89.01-2.8.02-.9.02-1.8,0-2.64.08-1.65.19-2.92.29-3.73.11-.8-.15-1.19-.34-1-.12.18.18,1.02.82,2.98.87.97.04,2.14-.07,3.56.07,1.45.08,3.15.18,5.13.29l-.21.04c4.73.13,7.71.17,10.98.01.51.23,3.89.06,5,.14l-.11.02c2.89-.15,5.95.2,8.73.06-.11.02-.17.08-.81.08,2.03-.01,4.8-.04,4.95.09,4.85,0,11.61.14,14.72-.07l-.21.04c1.77-.14,2.29-.02,4.27-.09.11.02.25.03.23.03,1.93-.14,5.63-.02,7.19-.08l.1.09,3.84-.02-1.44-.02c.5-.25,2.9.16,5.68.05,2.6.07,5.28-.43,7.98-.28,1.29-.1-1.14.17.79.11.06.13-.9.07-.4.18,1.89-.03,3.1.17,5.44.12l.09.1c3.05-.15,5.74.23,7.77.04,3.14-.08,2.1.3,5.38.11l1.27.14c1.4.02,1-.16,2.56-.1-.1.08,1.96.07,1.05.15,3.51.14,7.13-.18,11.76.05,1.01-.16,3.34-.06,4.09-.19.12.07,4.67.02,2.05.17-.22.01-.62,0-.59-.02l-.31.1c2.64.18,4.79-.08,7.41-.04-.77-.04-1.8-.03-1.11-.1l2.43.03-.51.08,3.61.07-.5-.1c1.77.06,2.39.24,4.38.1.9-.08-1.67-.15.19-.17,2.36.08,5.9.21,8.92.25-.28-.12.53-.11,1.37-.13l.1.1c3.2-.12,1.17.23,4.35.13l-.28.07.84-.2c2.87-.18,1.55.21,4.73-.04-1.26.01-.59-.22.96-.17l-.39.09c.86-.01,1.14-.05,1.71-.02-.51.05-.27.14.99.13l-.85.11,2.38-.15c1.84.12,4.76.02,5.51.17,0,0,.99.02,2.09.04,1.11.02,2.33.03,2.78-.04-.8.08,1.39.15.76.25,1.03-.09,4.07-.14,5.28-.03h-.23c4.5.14,7.68-.16,11.71-.03-.18-.12,1.94-.06,1.42-.2,4.17-.16,7.58.35,9.09-.1,1.89,0,2.24.13,3.22.16l-.45.02c3.55,0,4.57-.02,7.22.06,1.33-.02,1.54-.22,3.9-.17-.76.08.2.07,1.09.07-.56.01-.74.05.42.1.16-.03.42-.04.65-.06,0,0,.06.01.03.02,1.47-.03,1.22-.06.53-.07.03-.01-.02-.03-.23-.05,1.53.1,4.25.01,4.43.17,4.43-.01,7.6-.16,11.29-.2.41.08-.45.14-1.52.16l2.62-.02c-.02.11-1.5.06-2.31.08,3.11.18,6.42-.15,10.08.02l.76-.08h.22s.81-.09,1.35-.1c.52.09-.04.22,1.77.21,1.43.09,4.06-.03,5.94-.08-1.01-.02-.68-.07-.25-.1.9,0,1.42.1,2.12.06l.09.13c-.36-.12,2.36-.1,2.69-.15.51.1-1.4.07-1.63.13,3.62.03,1.81.01,5.43.04,1.93-.07-.35-.12.58-.22,1.71,0,3.37-.08,5.33.02l-.62-.12c3.21-.05,5.13-.02,7.29.12,23.9-.64,5.05-1.19,5.05-1.19-9.4-.36-14.27-.08-25.47-.11Z"/>
    </g>
    <g>
      <path class="e" d="M18.39,109.32v-.27s0,.1,0,.27Z"/>
      <path class="e" d="M18.32,109.55v.02s0,0,0-.02Z"/>
      <path class="e" d="M17.78,20.73c0-.1-.01-.19-.02-.24,0,.15.01.21.02.24Z"/>
      <path class="e" d="M19,37.11s-.01-.01-.02-.01c0,.02.01.03.02.01Z"/>
      <path class="e" d="M18.41,106.09v.13s0-.09,0-.13Z"/>
      <path class="e" d="M17.9,16.5s-.01-.03-.02-.03c0,.02.01.03.02.03Z"/>
      <path class="e" d="M18.96,96.03v-.12s0,.08,0,.12Z"/>
      <path class="e" d="M17.56,40.4c0,.06.02.09.02.11,0-.07-.01-.11-.02-.11Z"/>
      <path class="e" d="M17.75,40.46c-.06-.83-.11.18-.17.05.02.22,0,.7.05.47-.12.44.07,1.32-.03,1.79.01.02.05-.25.08.07.01.49-.04.45-.07.65.03.15.06.89.04.82.03.33.12-.35.17.11.08.31.01.73.03,1.09-.06.44-.04-.43-.07-.62l.04,1.23c-.04.36-.08-.16-.07-.53-.05.49,0,1.12.06,1.27-.02.31,0,.47-.03.76-.03-.29-.15-.27-.16-.72,0-.74.09.27.11-.36l-.07-.05c.04-.27-.01-.49-.02-.78.02-.16.02.04.03.14,0-.53.03-.95-.05-1.34-.06.71.02,1.78-.06,2.09l.08,1.41s.09-.49.13-.09c-.08.16-.12.58-.14,1.13.09-.2.07.87.14.6-.04-.25.03-.38.04-.42,0,.53.08.07.08.36-.03.96-.06-.04-.1.91-.04-.2-.12-.71-.15-1.23-.04.04,0,.52-.05.74.05-.31.08.22.1-.04.03.76.11,1.65.12,2.58-.13-.14-.08-1.56-.24-1.27.01.45.08.45.06.82-.08.31-.02,1.07-.03,1.69l.04-.27c.03.24,0,.67-.01.94l-.02-.07.02.27s-.01.05-.01.05c.04.3,0,1.05,0,1.62.06,0,0-.56.02-.83.02-.07.05-.6.09-.34,0,.7.06,1.2.05,1.99l.02-.25c.04.25.02.6.01.98-.05.69-.08-.51-.12-.09-.05-.27.02-.74-.06-.82l-.09.43c.05.36-.03.76-.03,1.02l.04-.27c.07.05.01.31,0,.44l.1-.18c.02-.4-.06-.67,0-.96.02.71.11.54.1,1.4-.04.04-.01-.16-.04-.25-.03.29.05.6.01,1.07-.02-.27-.06-.71-.11-.36l.07.25c-.01.22-.04.13-.05.22-.02.31.08-.07.05.42-.02.07-.03.23-.05.16,0,.56.02.27.05.8,0-.47.12-.49.13,0-.02.69.04,1.16-.06,1.63l.05.31c-.07-.2-.03.44-.04.65-.08.07.01-1.03-.12-1.03-.02.45-.05.26-.09.11,0,.49.09.18.14.4-.03,0-.02.83-.08.54,0,.42.07.49.06.8-.03-.05-.07-.1-.11-.07.03.04,0,.43-.01.51.02-.07.07.14.05-.22.06.09,0,.85.05.83-.07.04-.02.78-.05,1.16.17-.04-.06-.71.08-.83.05.51,0,1.7.06,2.52-.04.71-.06,0-.13.14-.02-.65.03-.82,0-1.38-.03.62-.02,1.63.02,2.09,0,.67-.17.74-.14,1.56.05-.11.07-.09.09-.34.02.22,0,.47,0,.71.03.14.04-.36.07-.04-.01.13-.02.4-.06.34v-.05c.04.78-.14.56-.04,1.23.03-.05,0-.2.01-.36.04-.13.1.29.11.6-.04-.06,0,.27-.02.49-.06.14-.01-.54-.05-.65v.6s0-.13,0-.13l.05.65c-.02-.45.08-.22.08-.02-.02.45-.03.91-.1.85.07.06.06.62.07,1.02.03-.43.06-.05.08.07l-.07.65c-.01-.69-.06.14-.11-.02-.07-.2-.03-.62-.02-.98-.13.71.06,1,0,1.61-.03,0-.07-.06-.06-.33-.02.11.06.56.02.98.02-.11.09-.34.11.07l-.08.54c-.02.63.08.22.11.74l.06-.34c.07.06,0,.71.07.73,0-.33-.05-.51-.03-.85.07-.13.04.44.07.63-.04.71-.04.56-.1,1.09-.11.02-.14-.87-.29-.76.01.69.04,1.69,0,2.14.03.62.12.56.19.47.01.26,0,.38-.02.54l-.03-.29c.04.76.05,1.2.04,2,.02.45.09.27.14.16v.49s.02-.07.02-.07c.07.11.05.55.05.87-.03,0-.04-.2-.06-.18-.03.29-.01.73.02.96-.03,0-.1-.2-.09-.54,0-.04.02-.02.03-.05l-.04-.58c.04.67-.03,1.07-.11,1.06.05.67.07-.55.11.25-.13,1.06.08,2-.11,2.59.06.49.15,1.07.18,1.83.06,0,.04.51.12.43.06-.73-.17-1.36-.07-1.94-.04-.32-.09-.21-.13-.36-.01-.29-.01-.56.02-.6.06.67.16.18.19,1.03.05-.11.01-.8.02-1.11.03.09.06,0,.08-.2.06.22.11.7.17.96-.03-.09-.04.08-.06,0l.12.89c-.03.27-.07.35-.11.2,0,.49.11,1.32.01,1.33.04.63.05-.2.07-.26v.05s-.02-.67-.02-.67c.11-.08,0,.76.11.87.2.1-.03.95.01,1.42l-.16-.54.05.47c-.06-.27-.16-.27-.23-.68.02.65,0,1.58.04,2-.04.16-.09.24-.14.17.11.65-.02,1.02-.01,1.58.07.59.06-.6.14-.17-.03.18,0,.51.02.67-.03-.18,0-.82.02-1.25,0,.33.07.29.11.38v-.55c.09.03.02.67.07.92-.08-.16-.08-.07-.16-.23.04.47.05,1.18,0,1.58-.03.24-.04-.2-.06-.32-.05.11.04.47-.03.56-.05-.07,0-.29-.02-.45l-.02,1.37s-.04-.34-.03-.56c-.04.42-.02.72.08,1.21-.04.47-.1,1.01-.14.85.01.22.05.07.08.07-.03.63.07.71.06,1.09l.07-.29c-.08.61.09.15.03.69-.06-.09-.13-.06-.2.03.06.09,0,.43-.02.67.07-.14.03.51.11.13.03.55-.07.8,0,1.2.03-.25.04.47.1.26-.02.53-.1.89-.17.74.01-.18.05-.47,0-.45l-.03.96c-.04.24-.06.54-.14.58.07.31-.08.91,0,1.15-.05-.33.03-.58.05-.71v.15s.01-.04.02-.08l.11.42c.06-.4-.08-.07-.06-.64.13-.49.14,1.11.23.6.05-.42-.06-.35-.1-.69v.09s-.03-.78-.03-.78c.04-.03.06.2.06.2.03-.94.1-1.09.16-2.1-.02.07-.15.27-.15-.19-.02-.33.06-.36.08-.63,0,.16.07.31.01.53h.08c.07.75.16.36.15,1.39.06.05.06.8.02,1.36l.06-.27c.09.58-.09.11-.02.85-.12.3-.26.87-.34.45-.04.53.02.71.02,1.18-.09.29-.1-.15-.19-.09.01.35.04.78.1.52l-.06.65s-.02-.22,0-.31c-.04.25.02.75.09.88-.02-.05-.05-.21-.04-.29.02.28.22.71.27.72-.19-.33-.09-.39-.18-.78.03.03.07.1.09.3,0-.32.01-.65.08-.79-.06.29.01.46.03.51,0-.23.02-.75,0-.94.1-.04-.01-1.01.09-.67-.04-.05-.03-.43,0-.63.04.02.06.52.11.74.05,1.01-.08-.02-.11.22,0,.25,0,.54,0,.79.02-.08.06.31.07-.19.06.25.07.71.09,1,.04.06,0-.15,0-.23.04.08.19.4.15-.06,0,.14-.06-.24-.08.02-.04-.18.05-.87.09-.6,0-.33-.05-.92-.06-1.16.05-.07.02.22.04.34l-.02-.88-.05.25c.04-.65-.06-1.06-.09-1.59.08.07.07.51.11.85.1-.32-.05-.22-.02-.76.02-.07.04-.09.06-.05l-.06-.43c.01-.13.03-.05.03,0-.06-.74-.12.01-.11-.98-.06.6.04.51.01,1.01-.07.29-.08-.58-.11-.73.04-.49.16-.54.12-1.16.02.44.07.02.05.64.03.35.04-.18.09-.25,0-.16-.09.1-.06-.35v.02s-.04-.75-.04-.75c.07-.69-.03-1.56.08-2.03l-.09.11c0-.44.02-1.05.01-1.36.05.07.05.36.05.67.04-.78,0-1.48-.08-2-.06.38-.06.44-.1.8-.11-.51.08-.6.02-1.26.08-.02.07.2.15.04-.06-.27-.05-.73-.1-1.04.08-.17.15.12.17.8-.07.51.06,1.08-.02,1.5l.05-.26c.02.51,0,.82.03,1.26v-.02s.06.22.06.22v-.24c.05.16.11.66.11.8.01-.73-.12-.79-.19-1.14.02-.66.17-.91.1-1.35.04-.04.08-.4.12-.11.02.37-.03.62.02.66,0-.39.03-.24.02-.82-.07-.11-.15-.55-.21-.96-.05-.44-.05-1-.04-1.35.02.44.09.87.15.76-.08-.25.04-.86-.06-.73,0-.51-.03-1.36.06-1.42.05.48,0,.95.03,1.36,0-.11.02-.22.04-.16v.6c.04-.46.07-.37.05-.95,0,.04-.02.11-.03.06,0-.15,0-.33-.01-.47l.08-.02c-.05-.44.03-1.28-.06-2.07l.02.07c0-.64-.17-.68-.21-1.37.05.2.08.11.11.07-.05-.34,0-.53.02-.87-.04.4-.1-.27-.11.02-.08.02-.11-.69-.11-1.05.1-.22.09,1.12.19.57,0-.36-.07-.45-.08-.2,0-.45,0-1.14.05-1.47-.09-.54-.06-.76-.17-1.1,0,.29.09.3.05.67l-.09-.4c-.01-.52.04-.94.05-1.3l.04.38v-.02c.02.14.01.63.07.58-.08-.34-.01-.61-.07-1.06v.02c-.06-.79.12-1.37-.02-1.87,0,.14-.06.43-.09.34.04-.18.03-.67.07-.65v.16c.03-.45.04-.72.03-.88-.05-.13-.1,0-.12-.32.05-.79.12.33.18-.21l-.05-.75.05-.16c.06-1.11-.1-1.96-.09-3.14.08-.02.11.84.11,1.13.08-.36-.02-.89.03-1.38.02-.45-.06-.8-.1-.73-.03-.56.05-.4.07-.47-.09-.18-.05-.89-.07-1.34l.05-.02-.06-.71c0,.18-.05.02-.08.02v-.18c-.14.69.09,1.56-.07,2.27-.02-.22-.05.07-.06-.15,0-.18.01-.22.03-.24-.04-.11-.08-.4-.08-.02-.11-.02-.07-.78-.11-1.31.07-.42.1.44.15.65,0-.2-.05-.36-.02-.65l.08.07c-.04-.73-.07-.2-.15-.36-.1-.2,0-.65,0-.85l.02.22c.04-.56-.05-.69-.04-1.2l.07-.24c-.09.64.11.78.06,1.14.08-.92.16.2.23.49-.01-.4,0-.76.05-.98-.1-.58.05-1.22-.07-1.78.02-.31.05.27.06-.05.01-.6,0-1.23-.04-1.87,0-.33.04-.27.08-.36.06-1.58-.13-2.2-.07-3.92l.04.25c.01-.36.03-.67-.03-.85.14-.45-.07-1.54.08-2.12.03-.76-.09-.8-.1-1.4.03,0,.09.18.11-.13,0-1.98-.01-3.72-.02-5.88.01.02.02.13.02.18.03-1.4-.09-2.78-.04-3.94-.02-.22-.04-.87-.1-.67-.01.27-.08.31-.13.29-.05-1.03.11-.51.1-1.2.11-.22.07.44.16.44l-.06-1c.04-.56-.01-1.12.04-1.61-.01.22.08.07.03.43,0-.06-.01-.02-.02-.07-.02.84.05.45.06,1.2-.02-.65-.04-1.54,0-2.12-.07.13-.03-.47-.07-.63v-.04s-.04-.36-.05-.47l.09-.14c-.01-.25-.05.07-.06-.18-.02-.36-.03-1.65.07-1.74,0-.44-.06-.56-.05-1.02.02.04.03.14.05.16.02-.96-.01-2.14.05-3.05-.02-.74-.04-1.38-.1-1.85,0,.2-.02.78-.07.42-.04-.2-.02-.51-.04-.82.05.07.05-.78.08-.16.11-.15-.02-1.33.09-1.32-.03-.14-.01-1.02-.07-1.35.05-.07.03.47.06.47v-.4s.02,0,.02,0c.03-.76-.1-.91-.12-1.36v.02s0-.31,0-.31l.09.36c-.01-.49-.09-.74-.1-1.29l.03-.05-.03-.33c0,.06.02.07.02.04-.08-.31-.05-1.02-.12-1.31.01-.22.11-.4.04-.69l.1.05c.01.73-.07.27-.03,1.03.14-.56.1-2.14.12-3.19-.05-.85.09-2.25-.06-2.61l.06.09.08-1.43c0-1.22.07-2.47,0-3.39l.05-.25c-.16-.96-.04-3.27-.24-3.9.05-.54.08.16.11.22.02-.4-.11-1.07,0-1.45.03,0,.02.56.05.31.06-.29-.05-.42.01-.74-.06.15-.13-.53-.13-1.01q0,.09-.01.13c-.05.07-.03-.29-.04-.49,0,0,.01.02.02.07-.05-2.52-.09-5.4-.04-8.05l.05.49c-.04-.38-.02-1.05-.01-1.27v.06c.09-.71-.1-.8,0-1.35v.11c-.01-.85.07-1.37-.02-2.2,0-.66.05-.59.07-1.05-.03-.38-.1-.56-.11-.58v.18c-.03.2-.07-.4-.11-.67-.07.21-.22.11-.25.88.07.56-.1.55-.06,1.18.14.36-.04.91.08,1.48-.09-.3-.02.69-.13.19-.05.24.1,1.23.03,1.68-.02-.07-.04-.06-.05-.16.06.63-.05.44-.04.91l.08-.02c.03.18-.03.24-.01.4,0-.13.05-.4.08-.26.02.22.05.4.05.63-.03,0-.05-.16-.06-.27,0,0,0,.51-.04.55-.03-.18-.03-.42-.08-.58-.02.67-.03.05-.09.38.1-.09.05.58.07.94-.04.04-.01-.25-.04-.34-.17.69.03,1.03,0,1.92-.01-.02-.02-.13-.03-.18.03.42-.06.71,0,.98-.02.4-.11.07-.11.69.1-.18-.02.73.09.74l-.06.47c.05.42.18-.11.18.7-.05.74-.18-.07-.24.36l.06.18-.05.36v-.06c.01.22,0,.62-.04.62-.02-.04-.02-.27-.05-.31.05.36-.16,1.43,0,1.81-.03.21-.03.65-.09.6.07.19-.03.97.01,1.25-.02-.04-.07.24-.05.45.03-.29.05-.11.09.09-.05.26-.02.98-.1,1.09.04.4.1.25.17.34-.05.26-.05,1.07-.15.93.01-.22.04-.71-.03-.62-.04.42.03.18.03.52-.02-.03-.06.23-.09.17,0,.2,0,.49-.01.78.05-.45.07.29.11.02l-.07-.43c0-.53.05-.11.08-.31.01.93.11.74.14,1.61-.02.17-.05.46-.06.54,0-.29-.09-.23-.11-.07.07.49-.07.87-.09,1.27.03-.35.08-.16.1-.04.04.83-.04.33-.09.69-.02,1.29-.15,2.1-.11,3.14l.09-.49-.08-.16c.07-.38.17.07.22.29-.03.05-.03.69-.06.44l.02.62c.04-.09.03-.49.06-.2-.03.2-.06.84-.1.44,0,.33,0,.74.06.67,0,.53-.1-.05-.13-.29-.01.42-.08.36-.1.24v.58c-.02-.13-.05-.13-.07-.25-.03.38.06.65,0,.98l.07.15c-.05,1.05-.06.94-.07,1.92l.05-.16c.09.74-.08.54-.04,1.54.03.56.05.93.13.85.03.33-.02.4-.05.55.04.25.12.8.08,1.2-.02-.28-.04-.5-.06-.74-.08.07-.02.87-.05,1.29.03.3.14,1.21.2,1.76.06-.24.16-.15.22.33-.05-.07-.05.64-.08.96-.05-.16-.11.73-.13.04.02-.2.09-.29.07-.56-.05.16-.11.6-.15,1.05-.02-.03-.06-.27-.06-.51.02.13.04.05.06.04Z"/>
      <path class="e" d="M18.41,106.09v-.07s-.02.09-.02.09c0-.03.01-.03.02-.02Z"/>
      <path class="e" d="M17.63,54.61s.01.1.02.1c0-.04-.01-.08-.02-.1Z"/>
      <path class="e" d="M17.59,64.49s.01-.01.02-.02c0,0-.01,0-.02.02Z"/>
      <path class="e" d="M17.84,106.71v-.18c-.01.06,0,.09,0,.18Z"/>
    </g>
    <path class="b" d="M33.33,71.74c2.66.04,4.48-.63,6.12-2.46,1.14-1.27,1.13-2.7.65-3.46-.27-.41-1.26-.58-2.72-.37-1.17.18-3.14.76-3.53.88,0,0-.2,1.1-.24,1.27-.42,1.88-.66,4-1,5.94-.16.9-.26,1.8-.5,2.7"/>
    <path class="b" d="M54.55,71.86c.98-.16,3.54-.59,4.52-1.23.71-.46.96-1.38.71-1.96-.25-.6-.99-1.17-1.8-1.12s-1.44.28-2.34.37c-.95.19-2.22.39-2.22.39-.08.01-.2,1.37-.37,2.46-.24,1.47-.35,2.97-.66,4.5"/>
    <g>
      <path class="d" d="M75.9,34.44l.1.05s-.03-.04-.1-.05Z"/>
      <path class="d" d="M71.53,33.49s0,.02,0,.03c0-.02,0-.03,0-.03Z"/>
      <path class="d" d="M80.28,35.25h0s-.01.02-.02.03l.02-.03Z"/>
      <path class="d" d="M74.92,36.28c1.31-.06,1.68.16,3.02-.08.14,0,.35-.04.58-.08.21-.05.43-.11.63-.2.41-.16.8-.39,1.12-.65.2-.38.83-.71.96-1.2l.2-.08c.03-.17.1-.34.22-.45l.03.02c.03-.25.18-.46.18-.59l.03.02c.03-.09.06-.18.08-.27l.03.06c.04-.41.1-.81.18-1.15h-.14c.2-.71-.08-.97-.06-1.71h.04c-.3-.4-.41-.74-.57-1.09-.16-.34-.38-.68-.83-.83.11.04.01-.09.04-.11-.34-.22-.69-.42-.84-.19-.22-.14-.14-.19-.11-.29-.07.1-.26.04-.48-.06h.12c-.2-.09-.4-.16-.6-.22l.03.25c-.27-.17.02-.29-.29-.34l-.05.18c-.4-.16-.59-.49-.99-.69-.88-.17-1.77-.09-2.64.04-.4.05-.79.09-1.18.11-.19,0-.39,0-.58,0-.24,0-.6-.02-.92-.05l-.18-.13c-.07-.1-.23-.02-.36.07-.14.08-.24.17-.37.08,0,.12.02.25.03.36-.05.05-.11.19-.13,0-.06.26-.03.3,0,.52l-.17.22c-.04.13-.07.26-.09.39-.03.14-.05.27-.06.32-.02.15-.02.3-.03.45-.01.3-.02.61-.1.93-.39.76-.41,2.19-.5,3.06,0,1.24-1.18,2.31-1.27,3.55-.04.03-.01.15,0,.16l-.41,1.06s-1.91,5.16,1.08,1.83l.03.04c.31-.55.46-.91.4-1.4.28.03.2-.47.33-.58l.02.02c-.08-.43.43-.68.38-1.1.02.02.08.05.06.14.06-.27.12-.64.28-.61.17-.63.5-1.49.36-1.96l.04.04c-.1-.27.06-.3.04-.58.02,0,.04-.02.05-.02-.1-.29.16-.74.13-.96h.11s.09-.5.09-.5l-.06.18c-.27-.13.26-.34.15-.75.1-.34-.48-.8-.27-1.13-.11-.19.19.18.13-.08.15.02.07.13.21.09-.03-.26.23-.37.18-.69h.12c-.15-.42.29-.71.13-.99-.05-.26.35.03.17-.26.05.02.1.04.15.07.03-.03-.16-.23-.02-.16.07.1.13.08.16.17.1.08.1.02.17-.03.25-.05.53-.09.84.03.12-.2.44-.1.53-.25.02.09.63-.01.29.19-.03.02-.08.02-.08-.02l-.03.12c.39.21.59-.16.91-.13-.09-.04-.22-.02-.14-.11h.29s-.06.11-.06.11l.43.06-.06-.12c.21.07.27.28.52.12.12-.09-.19-.18.04-.2.28.1.68.28.99.39,0-.14.09-.12.18-.12l-.02.12c.38-.07.06.28.39.26l-.05.07.17-.21c.37-.1,0,.26.45.14-.14-.06.07-.27.21-.12l-.1.08c.1.03.16,0,.2.06-.08.02-.11.13.02.19l-.16.07.34-.03c.11.21.43.29.37.46,0,0,.19.3.36.27-.13.01-.06.18-.2.21.14-.01.35.17.25.31h-.02c-.03.32.3.62.1,1.04.14,0,.03.2.22.17.1.5-.53.62-.09.98-.06.2-.22.15-.3.22v-.05c-.15.33-.22.42-.42.6-.05.13.09.34-.15.45,0-.13-.07-.05-.14,0,.04-.05.03-.09-.1-.08,0,.04,0,.07-.02.09,0,0-.01,0-.02-.02-.11.11-.08.12,0,.1,0,.02.02.03.05.04-.2-.03-.41.22-.5.06-.18.09-.37.19-.57.29-.2.09-.43.17-.66.23-.07-.08.04-.17.17-.22l-.34.07c-.01-.13.19-.09.29-.13-.43-.17-.81.29-1.31.15l-.09.11h-.03s-.09.12-.16.15c-.08-.1-.03-.26-.26-.23-.2-.09-.52.11-.76.19.13,0,.1.07.05.12-.12.02-.2-.09-.28-.03l-.03-.15c.06.14-.29.18-.33.25-.08-.1.17-.11.19-.2-.47.06-.23.03-.7.09-.24.14.06.14-.05.28-.22.05-.42.18-.67.1l.08.13c-.41.12-.67.09-.94-.06-1.6.46-1.76.83-1.54,1.07.17.24.8.38.8.38.63.18,1.12.19,1.7.1.32-.05.59-.13.86-.2.28-.08.6-.15.96-.21Z"/>
    </g>
    <g>
      <path class="d" d="M42.91,19.31l-.07.06s.05,0,.07-.06Z"/>
      <path class="d" d="M39.51,37.41s0,.01.01.02c0-.01-.01-.02-.01-.02Z"/>
      <polygon class="d" points="40.41 21.7 40.41 21.7 40.4 21.68 40.41 21.7"/>
      <path class="d" d="M41.43,18.09c-.29.94-.61,1.14-.74,2.16-.13.47-.2.99-.28,1.45.15.26-.14.61-.04.9l-.14.08c.04.1.05.21-.03.29h-.03c.05.14-.03.28,0,.35h-.03s-.02.15-.02.15l-.04-.04c.03.25,0,.49-.08.69h.14c-.24.43.01.65-.25,1.02h-.03c.26.58-.41.76-.17,1.36-.03-.08-.08.01-.11,0,0,.25-.04.52.23.58-.04.18-.11.13-.22.13.12.02.14.19.12.33l-.03-.07-.04.41.24-.04c-.1.2-.28,0-.27.22l.18.03c-.09.29-.4.41-.59.67-.3,1.17-.06,2.54-.58,3.59l-.15.03c-.21-.01.25.36.05.37l.07.15s-.09.1-.13.03c-.03.12,0,.13.05.22l-.15.11c-.17.46,0,.9-.12,1.39-.35.57-.25,1.74-.19,2.4.19.94-.75,1.93-.47,2.94-.03.03.03.12.05.12l-.07.89s-.05,1.09.19,1.76c.25.68.63.82,1.43-.74l.04.02c.1-.45.13-.73-.08-1.05.28-.04.04-.37.14-.48h.02c-.2-.28.21-.55.05-.83.02.01.1.02.1.09-.02-.2-.05-.47.11-.47,0-.47.15-1.12-.07-1.46l.04.03c-.15-.19,0-.23-.06-.43.02,0,.03-.02.04-.02-.15-.21.04-.56-.01-.72h.11s.02-.38.02-.38l-.04.14c-.29-.08.22-.27.06-.56.07-.25-.54-.6-.36-.84-.12-.15.21.14.13-.06.15.02.08.1.21.07-.05-.2.2-.28.13-.52h.12c-.17-.32.24-.53.07-.76-.05-.32.38-.15.2-.5l.18-.1c.05-.13-.18-.13-.08-.27.1.03.11-.18.19-.07.22-.31-.1-.73.24-1.14-.18-.13-.02-.34-.15-.44.09,0,.09-.45.23-.16.01.02,0,.06-.03.05l.11.05c.26-.22-.04-.49.04-.74-.05.07-.06.17-.13.09l.06-.23.09.07.12-.34-.13.03c.09-.16.31-.18.17-.41-.08-.11-.19.13-.2-.06.12-.21.31-.54.4-.82-.14,0-.12-.08-.13-.16h.12c-.1-.33.28-.05.21-.39l.08.04-.23-.13c-.18-.32.27-.1.01-.47,0,.13-.27,0-.19-.13l.11.06c0-.09-.05-.13-.02-.18.05.06.16.06.16-.07l.13.11-.16-.27c.16-.16.06-.47.23-.51,0,0,.15-.37,0-.49.09.1.18-.11.29-.02-.1-.12-.15-.44,0-.53v.03c.23-.41-.03-.78.21-1.15-.14,0-.03-.2-.21-.18-.11-.45.51-.67,0-.92.01-.19.18-.19.23-.28l.02.05c.04-.35.06-.45.13-.7-.02-.14-.27-.2-.15-.42.08.09.09,0,.11-.09,0,.06.04.08.13-.02-.03-.02-.04-.05-.05-.08,0,0,.02,0,.03,0,0-.15-.04-.13-.07-.07-.01,0-.04,0-.07.01.16-.12.09-.41.26-.4.06-.43-.04-.77-.02-1.14.1-.02.16.08.16.19l.03-.26c.13.03.04.16.04.24.28-.26-.06-.66.22-.97l-.08-.09.02-.02c-.05,0-.11-.1-.11-.16.12-.03.25.06.29-.12.14-.12.04-.4.02-.59-.04.09-.1.05-.12,0,.02-.09.14-.11.11-.19l.15.02c-.15,0-.1-.26-.15-.3.12-.03.06.16.14.19.07-.35.03-.18.1-.53-.07-.21-.15,0-.26-.11.01-.17-.05-.35.08-.52l-.15.03c-.03-.33.03-.51.21-.69-.51-2.55-1.34-.82-1.34-.82-.51.85-.24,1.41-.4,2.52Z"/>
    </g>
    <path class="b" d="M152.79,67.52c-.3,1.44-.71,2.87-.85,4.32-.05.6-.27,1.16-.47,1.59-.97,2.1-2.97,2.34-5.16.74-.48-.36-.78-.96-1.45-1.07"/>
    <g>
      <path class="d" d="M142.54,28.84l-.06.02s.05,0,.06-.02Z"/>
      <path class="d" d="M140,38.34h0s0,0,0,0Z"/>
      <polygon class="d" points="140.34 29.87 140.34 29.87 140.33 29.85 140.34 29.87"/>
      <path class="d" d="M140.97,28.01c-.19.48-.48.56-.5,1.1-.08.24-.09.52-.12.76.17.16-.08.32.06.49l-.13.03c.04.06.07.12,0,.16h-.03c.07.08,0,.15.03.19h-.03s0,.08,0,.08l-.04-.03c.06.14.03.27-.03.37l.14.02c-.21.2.05.35-.18.52h-.03c.29.34-.35.36-.08.71-.03-.04-.07,0-.11-.01,0,.14,0,.28.26.34-.03.09-.1.06-.21.04.12.03.15.12.13.19l-.04-.04v.22s.22.01.22.01c-.09.1-.28-.04-.25.08l.18.04c-.07.14-.37.17-.55.28-.23.59.07,1.36-.4,1.86h-.14c-.2-.04.26.22.07.2l.07.09s-.09.04-.13,0c-.02.06,0,.07.06.13l-.14.04c-.15.21.04.45-.08.67-.33.2-.29.79-.29,1.15.11.55-.87.73-.75,1.32-.03,0,0,.07.03.08l-.21.41s-.24.51-.19.91c.05.41.4.63,1.48.2l.04.03c.19-.18.27-.31.13-.55.26.09.11-.17.21-.19h.02c-.14-.21.29-.2.17-.41.02.01.09.05.08.08.01-.11.01-.27.16-.21.06-.25.28-.55.11-.81l.04.03c-.12-.16.02-.12-.02-.26.02,0,.03,0,.04,0-.12-.16.09-.29.05-.4l.1.03.05-.2-.05.07c-.27-.13.23-.08.1-.29.08-.12-.48-.47-.3-.56-.11-.11.19.13.13,0,.15.04.08.08.2.09-.04-.12.2-.12.14-.27l.12.03c-.16-.22.24-.27.06-.43-.05-.19.37-.03.19-.25l.17-.03c.04-.06-.18-.1-.08-.16.1.03.1-.08.19-.01.2-.14-.13-.41.19-.59-.18-.1-.04-.19-.17-.26.09.01.07-.23.22-.06.01.01,0,.03-.03.03l.11.04c.25-.08-.06-.27,0-.4-.05.03-.05.08-.12.03l.05-.12.09.05.1-.17h-.13c.08-.08.29-.06.15-.2-.08-.07-.18.05-.2-.06.11-.1.28-.25.35-.4-.14-.02-.12-.06-.14-.11l.12.02c-.12-.2.27,0,.18-.19l.08.03-.23-.1c-.19-.2.26-.02-.01-.26,0,.07-.26-.03-.19-.1l.11.05s-.06-.07-.03-.1c.05.04.16.05.16-.02l.13.08-.18-.17c.14-.07.03-.25.2-.25,0,0,.13-.18-.03-.27.1.07.17-.04.29.03-.11-.08-.17-.26-.02-.29v.02c.2-.2-.07-.43.14-.6-.14-.02-.04-.11-.22-.13-.12-.25.45-.3-.07-.5,0-.1.15-.08.19-.13l.02.03c0-.19,0-.24.06-.37-.04-.08-.28-.15-.19-.25.09.06.08,0,.09-.04,0,.03.04.05.12,0-.03-.02-.04-.03-.06-.05,0,0,.01,0,.02,0-.02-.08-.05-.08-.07-.05-.01,0-.03,0-.06,0,.15-.05.05-.22.22-.19.02-.23-.12-.43-.14-.64.09,0,.16.06.18.12v-.14c.13.03.05.09.07.14.24-.11-.12-.37.11-.51l-.09-.06h.02c-.05-.02-.11-.08-.12-.11.12,0,.25.06.27-.03.12-.05,0-.22-.04-.33-.03.05-.09.02-.12-.01,0-.05.12-.05.09-.09l.15.03c-.14-.01-.12-.15-.18-.18.12,0,.08.09.16.12.03-.19.02-.09.05-.28-.09-.12-.14-.01-.26-.09,0-.09-.09-.2.02-.28h-.14c-.06-.18-.02-.28.14-.36-.76-1.45-1.39-.58-1.39-.58-.41.41-.09.74-.13,1.33Z"/>
    </g>
    <path class="b" d="M249.23,75.44c.99-2.06,1.02-4.39,1.89-6.52.38-.92.63-1.27,1.53-1.23.36.02.72-.01,1.08,0,.87.05,2-.36,2.31.9.27,1.1-.19,1.88-1.21,2.55-1.31.86-2.66,1.15-4.16,1.04"/>
    <g>
      <path class="d" d="M122.29,31.94l-.07.02s.05.01.07-.02Z"/>
      <path class="d" d="M114.75,37.29h-.02s.02,0,.02,0Z"/>
      <polygon class="d" points="119.77 32.84 119.77 32.84 119.76 32.82 119.77 32.84"/>
      <path class="d" d="M121.05,30.6c-.35.52-.68.52-.94,1.3-.17.33-.24.63-.34.94.12.22-.17.37-.09.61h-.13c.03.09.03.17-.05.2l-.03-.02c.04.12-.05.19-.03.25l-.03-.02-.03.11-.03-.04c.01.18-.05.33-.15.45l.13.05c-.28.21-.07.44-.36.61l-.03-.02c.17.48-.48.39-.33.87-.02-.06-.07-.02-.1-.03-.04.17-.1.34.14.47-.06.11-.12.05-.22.02.11.05.1.17.07.26l-.02-.06-.09.26.23.05c-.12.1-.26-.09-.28.06l.17.08c-.13.16-.43.14-.65.25-.09.14-.18.33-.22.45,0,.06,0,.13,0,.2,0,.15-.06.38-.14.43-.02.04-.08-.11-.11-.18l-.03-.21c-.01-.29-.03.4-.04.13l-.03.11c0-.06-.01-.12,0-.17-.02-.03-.02.02-.05.08v-.17c0-.15-.18.04-.22-.09,0-.38-.56-.8-.86-1.1-.54-.39,0-1.31-.51-1.76.02-.03-.05-.06-.08-.05l-.12-.55s-.15-.67-.44-1.05c-.29-.38-.73-.45-1.3.8h-.05c-.03.34,0,.54.28.7-.26.11.04.27-.02.37h-.02c.26.13-.06.45.19.59-.02,0-.1.02-.12-.02.08.13.2.3.05.36.15.32.27.81.6.92h-.05c.21.05.1.15.24.24-.02.02-.02.03-.03.03.21.05.21.35.33.42l-.09.06c.05.08.11.16.17.23l-.04-.1c.27-.12-.04.28.23.35.08.19.72-.05.72.18.17-.02-.23.08-.06.12-.12.1-.12.01-.19.12.13.04.08.34.3.42l-.07.1c.33.02.36.55.59.49.25.08.08.52.39.46l.09.27c.12.12.09-.18.22.02,0,.12.18.23.1.29.2.26.42.32.6.35.07-.19.16-.34.3-.39-.04-.37.14-.46.1-.71.05.09.24-.46.22,0,0,.04-.03.08-.04.04l.05.16c.29-.08.2-.66.35-.89-.07.05-.12.17-.14.03l.14-.24.05.12.25-.36h-.13c.15-.16.38-.16.28-.34-.06-.1-.2.03-.17-.1.15-.1.37-.26.49-.42-.13-.05-.1-.09-.1-.16l.11.05c-.05-.27.27.05.25-.2l.07.05-.2-.16c-.12-.28.27.02.08-.32-.02.09-.25-.08-.16-.15l.09.08c0-.06-.03-.1,0-.13.04.06.14.09.16,0l.1.12-.12-.24c.17-.05.12-.3.29-.27,0,0,.19-.2.06-.34.07.1.18-.02.28.08-.08-.12-.08-.35.08-.36v.02c.27-.21.07-.55.34-.72-.13-.05,0-.15-.17-.19-.03-.33.55-.31.1-.64.03-.13.18-.08.24-.13v.04c.08-.24.1-.3.19-.46-.01-.1-.24-.22-.11-.34.07.09.08.02.11-.03,0,.04.03.07.12.02-.02-.02-.03-.05-.04-.07,0,0,.01,0,.02,0,0-.11-.03-.1-.06-.07-.01,0-.03-.01-.06-.01.16-.04.11-.27.28-.21.09-.3,0-.56.04-.79.09.02.14.1.14.17l.04-.16c.11.06.02.12.03.17.27-.07,0-.45.28-.57l-.06-.09h.02s-.08-.11-.08-.15c.12.02.22.13.28.02.14-.03.09-.27.1-.42-.05.05-.09,0-.12-.04.03-.06.14-.04.12-.11l.14.06c-.14-.04-.06-.22-.11-.27.12.01.04.13.11.19.1-.25.05-.13.15-.38-.05-.18-.14-.03-.24-.15.02-.13-.04-.27.1-.38h-.14c-.03-.25.01-.37.18-.5-.19-.48-.46-.67-.65-.75-.19-.08-.35-.07-.46,0-.23.1-.34.27-.34.27-.33.3,0,.56-.21,1.23Z"/>
    </g>
    <g>
      <path class="d" d="M130.92,32.21h-.06s.05.01.06,0Z"/>
      <path class="d" d="M128.95,38.98s0,0,0,0c0,0,0,0,0,0Z"/>
      <polygon class="d" points="128.78 32.6 128.78 32.59 128.77 32.58 128.78 32.6"/>
      <path class="d" d="M129.48,31.2c-.23.35-.51.35-.56.79-.09.18-.1.41-.13.6.16.15-.07.24.06.4h-.12c.04.06.07.11,0,.13h-.03c.07.07,0,.11.03.15h-.03s0,.06,0,.06l-.04-.02c.06.12.04.21-.02.28l.14.03c-.2.14.06.28-.16.39h-.03c.3.28-.32.25-.04.54-.04-.04-.07,0-.1-.02.02.1.01.21.28.28-.02.07-.1.04-.2.02.12.03.15.1.15.15l-.04-.04v.16s.23.02.23.02c-.08.07-.27-.04-.24.05l.18.04c-.06.1-.35.1-.51.18-.19.42.16,1.02-.27,1.33l-.14-.02c-.2-.05.26.19.08.16l.08.07s-.09.02-.12-.02c-.02.04.01.05.06.1h-.14c-.15.15.05.36-.05.52-.31.13-.22.57-.18.85.14.47-.76.71-.49,1.18-.03,0,.03.05.05.06l-.09.33s-.09.39.05.65c.14.26.52.48,1.48.03l.04.02c.14-.16.19-.27-.01-.43.28.03.05-.14.15-.16h.02c-.19-.14.21-.17.05-.3.02,0,.09.03.09.05-.02-.08-.06-.18.1-.15,0-.17.12-.35-.09-.52l.04.02c-.15-.11,0-.08-.06-.17.02,0,.03,0,.04,0-.14-.11.05-.21,0-.29l.1.03.03-.15-.04.05c-.27-.12.21-.05.07-.22.07-.09-.51-.4-.34-.45-.11-.09.2.11.12,0,.15.05.08.06.2.08-.05-.09.19-.07.12-.19l.12.03c-.17-.18.22-.17.04-.31-.06-.15.36.02.18-.17h.17c.04-.05-.18-.1-.09-.13.1.03.1-.05.18,0,.19-.09-.14-.33.16-.44-.18-.09-.05-.15-.18-.21.08.02.06-.17.21-.03.01.01,0,.03-.03.02l.11.04c.24-.05-.07-.21-.01-.3-.05.02-.04.06-.12.02l.04-.09.09.04.09-.12h-.12c.08-.06.28-.04.13-.15-.09-.06-.18.02-.2-.06.1-.07.26-.17.32-.27-.14-.02-.12-.05-.14-.09l.12.02c-.13-.16.27.02.17-.13l.08.03-.24-.09c-.2-.16.25,0-.03-.19,0,.05-.26-.04-.2-.08l.11.04s-.06-.06-.03-.07c.06.03.16.05.15,0l.13.06-.19-.14c.14-.04.01-.18.18-.17,0,0,.11-.13-.05-.2.1.06.16-.01.28.04-.11-.07-.18-.2-.04-.21h.01c.17-.11-.11-.31.09-.41-.14-.03-.04-.08-.22-.11-.13-.2.42-.17-.09-.37,0-.07.15-.04.18-.07l.02.02c0-.14,0-.17.04-.26-.04-.06-.28-.15-.19-.21.09.06.08.02.09-.01,0,.02.04.04.12.02-.03-.02-.04-.03-.06-.04,0,0,.01,0,.02,0-.02-.06-.05-.06-.07-.04-.01,0-.03-.01-.06-.01.14-.01.04-.15.21-.1.01-.16-.12-.33-.13-.48.09.02.15.08.17.12v-.1c.12.05.05.08.07.11.23-.03-.11-.29.11-.34l-.08-.06h.02s-.11-.08-.11-.1c.11.03.24.1.26.04.12,0,0-.15-.02-.24-.03.03-.08-.01-.11-.04,0-.03.12,0,.09-.05l.14.06c-.13-.05-.11-.14-.16-.18.11.03.07.09.14.13.04-.12.02-.06.07-.18-.07-.11-.13-.05-.24-.14,0-.07-.06-.17.05-.19l-.13-.04c-.04-.15,0-.21.17-.22-.48-1.35-1.18-.94-1.2-.92-.47.21-.22.59-.32,1.05Z"/>
    </g>
    <g>
      <path class="d" d="M133.37,31.64l-.04.05s.04-.03.04-.05Z"/>
      <path class="d" d="M137.04,37.96h.01s-.01,0-.01,0Z"/>
      <polygon class="d" points="132.03 33.39 132.03 33.39 132.01 33.39 132.03 33.39"/>
      <path class="d" d="M131.66,32.09c.09.32-.12.5.11.8.04.17.16.34.25.51.22.02.08.24.28.29l-.1.08c.07.02.12.05.07.1h-.03c.1.04.07.11.12.13h-.03s.04.07.04.07h-.05c.12.07.16.17.15.27l.13-.05c-.08.25.22.21.12.46h-.03c.42.08-.07.47.35.55-.05,0-.06.04-.09.06.09.09.17.19.41.06.04.08-.04.1-.13.16.1-.06.18-.02.23.03h-.06s.14.14.14.14l.17-.15c0,.12-.22.17-.12.22l.16-.11c.04.13-.13.36-.16.56.27.47.94.54.96,1.12l-.1.1c-.16.13.32-.08.18.05h.11s-.03.07-.09.08c.02.04.05.02.12.02l-.07.12c.04.22.34.2.43.4-.06.36.44.59.72.72.48.09.18.99.74,1.05-.01.03.06,0,.08,0,.08.1.17.19.26.29,0,0,.34.33.69.35.36.03.62-.27.68-1.31l.03-.03c-.07-.2-.13-.28-.37-.2.17-.22-.09-.12-.06-.21h.02c-.23.06-.03-.29-.24-.23.02-.01.07-.06.09-.05-.08-.03-.19-.06-.08-.18-.16-.1-.27-.34-.54-.26l.04-.02c-.18.06-.08-.05-.19-.05.01-.02.02-.03.03-.03-.18.05-.16-.15-.26-.15l.08-.07-.11-.1.02.06c-.24.17.07-.2-.14-.17-.03-.1-.61.21-.57.03-.14.04.2-.1.07-.1.12-.1.1-.03.18-.12-.1-.02.05-.19-.09-.21l.09-.08c-.25.03-.02-.28-.23-.22-.16-.04.23-.28-.04-.25l.1-.14c-.01-.06-.18.09-.16-.01.08-.06.02-.11.12-.14.04-.21-.36-.1-.26-.41-.18.09-.15-.06-.28,0,.07-.06-.11-.16.11-.19.02,0,.03.01,0,.03l.1-.06c.11-.22-.22-.08-.26-.19-.01.05.02.08-.06.1l-.05-.09.09-.04-.05-.16-.08.09c0-.1.15-.25-.04-.21-.1.03-.08.16-.16.12,0-.14.04-.29.01-.39-.11.09-.12.06-.16.06l.1-.07c-.19.01.2-.18.04-.19l.07-.04-.22.11c-.25.05.19-.17-.15-.09.04.02-.22.15-.2.08l.11-.05s-.08,0-.07-.03c.06-.01.15-.07.11-.1l.14-.05-.22.03c.08-.11-.11-.13.03-.23,0,0,.02-.16-.16-.11.11-.02.12-.11.25-.14-.13.02-.27-.04-.16-.13h.02c.07-.19-.28-.19-.17-.39-.13.05-.08-.05-.24.03-.22-.09.25-.4-.29-.28-.05-.06.09-.12.11-.17h.03c-.09-.11-.11-.15-.13-.26-.07-.03-.31.04-.28-.07.11,0,.08-.03.06-.07.02.02.06.01.11-.06-.03,0-.05,0-.07,0,0,0,.01,0,.02,0-.05-.05-.08-.03-.08,0-.02,0-.03.01-.06.03.1-.1-.06-.16.1-.23-.1-.17-.31-.23-.44-.35.08-.05.16-.04.21-.01l-.07-.09c.12-.05.09.03.13.06.14-.21-.29-.18-.19-.41h-.11s.01,0,.01,0c-.05.02-.13.02-.16,0,.09-.07.24-.11.2-.18.07-.11-.13-.15-.22-.19,0,.05-.06.06-.1.07-.02-.03.07-.11,0-.11l.13-.08c-.12.08-.19-.02-.25,0,.09-.08.11,0,.19-.02-.09-.14-.05-.07-.15-.21-.14-.02-.11.09-.25.12-.07-.05-.19-.05-.16-.17l-.1.1c-.17-.05-.2-.12-.15-.28-.75-.04-1.01.25-1.14.46-.13.21-.12.37-.12.37-.06.38.32.23.59.52Z"/>
    </g>
    <path class="b" d="M109.25,67.88c-.43-.5-.92-.53-1.44-.18-1.55,1.06-2.27,4.08-1.46,5.76.35.73,1.1.92,1.62,1.01,1.42.24,2.76-.06,3.62-1.38.93-1.43-.06-4.46-1.6-5.24-.6-.3-.59.06-.73.38"/>
    <path class="b" d="M46.9,68.15c-.8.26-1.75.34-2.38.83-1.37,1.06-2.02,5.12-.63,6.11,1.23.87,2.36.38,3.18-.44,1.37-1.35,2.45-3.1,2.05-4.92-.25-1.17-1.27-1.04-2.02-1.38"/>
    <path class="b" d="M180.88,67.63c-1.82-.18-5.77.41-5.77.41,0,0-.29,1.76-.31,2-.14,1.33-1.03,3.68-1.22,5.58"/>
    <path class="b" d="M213.43,68.42c-1.7-.45-3.38-.26-5.03.19-.61.17-1.27.47-1.24,1.24.03.7.55.9,1.22,1.13,1.02.35,1.95,1,2.89,1.58.68.42,1.26,1.01.92,1.83-.7,1.69-3.56,1.53-5.41-.22"/>
    <path class="b" d="M93.33,66.7s-.39,2.28-.54,3.51c-.16,1.33-.41,3-.48,4.35.89.07,3.56,0,5.42.16"/>
    <path class="b" d="M102.06,67.16c-.32,2.1-.7,4-.92,6.3l-.06,1.26"/>
    <g>
      <path class="d" d="M74.42,36.6v.06s.01-.04,0-.06Z"/>
      <path class="d" d="M81.1,39.64h.01s-.01,0-.01,0Z"/>
      <polygon class="d" points="74.38 38.83 74.38 38.82 74.36 38.83 74.38 38.83"/>
      <path class="d" d="M73.11,37.79c.3.31.25.58.68.75.17.13.39.2.58.29.19-.12.23.14.42.05l-.02.12c.06-.03.12-.04.13.03l-.02.03c.09-.05.13.03.17,0l-.02.03.07.02-.03.04c.13-.03.23.02.29.1l.06-.13c.1.23.3.01.37.26l-.02.03c.37-.22.21.38.57.18-.05.03-.02.07-.04.1.11.01.23.04.34-.2.07.04.02.11-.02.21.05-.11.13-.13.19-.11l-.04.03.18.03.06-.22c.06.1-.09.26.01.25l.08-.17c.1.09.05.38.11.55.45.28,1.13.03,1.46.51l-.03.14c-.06.2.23-.24.18-.06l.08-.07s.02.09-.02.12c.05.02.06,0,.11-.05v.14c.17.16.41-.02.6.09.16.33.7.24,1,.18.45-.19.67.72,1.15.48,0,.03.05-.02.06-.05l.34.11s.42.12.73-.01c.31-.13.48-.51.04-1.48l.02-.04c-.16-.15-.27-.2-.45-.01.04-.27-.14-.06-.17-.16v-.02c-.15.18-.18-.23-.33-.07,0-.02.03-.09.06-.09-.09.01-.21.04-.17-.11-.2,0-.44-.15-.63.06l.02-.04c-.11.15-.09,0-.19.06,0-.02,0-.03,0-.04-.12.14-.22-.04-.3.02l.03-.1-.15-.02.05.04c-.1.28-.06-.21-.22-.06-.09-.07-.38.52-.45.35-.09.12.11-.2,0-.12.04-.15.06-.08.08-.2-.09.05-.07-.19-.19-.12l.03-.11c-.18.17-.17-.22-.31-.05-.15.05.04-.36-.16-.18v-.17s-.1.17-.13.08c.04-.09-.05-.1.02-.18-.07-.2-.34.11-.42-.2-.11.17-.15.03-.23.16.03-.08-.17-.08,0-.22.01-.01.03,0,.01.03l.05-.1c-.02-.24-.22.04-.3-.03.01.05.05.05,0,.12l-.08-.05.06-.08-.11-.11-.03.12c-.04-.08.02-.29-.12-.15-.07.08,0,.18-.09.18-.05-.11-.13-.28-.22-.36-.05.13-.07.11-.11.13l.05-.11c-.18.1.07-.26-.1-.19l.04-.07-.13.21c-.2.17.05-.25-.2,0,.05,0-.09.25-.12.18l.06-.1s-.07.05-.08.02c.04-.05.08-.15.03-.15l.09-.12-.17.15c-.01-.14-.18-.05-.14-.21,0,0-.1-.14-.21,0,.08-.09.02-.16.1-.27-.09.1-.24.13-.22,0h.01c-.09-.21-.35.02-.41-.2-.06.13-.1.02-.16.19-.23.08-.08-.46-.4-.01-.08-.01-.01-.16-.03-.2l.03-.02c-.14-.03-.18-.05-.26-.11-.07.02-.21.23-.26.13.08-.07.04-.07,0-.09.03,0,.05-.03.05-.11-.02.02-.04.03-.06.04,0,0,0-.01.01-.02-.07,0-.08.03-.06.06,0,.01-.02.03-.03.06.02-.14-.15-.08-.06-.23-.17-.06-.37.03-.53,0,.04-.08.11-.13.16-.14l-.1-.03c.07-.11.09-.03.13-.03.02-.24-.32.03-.34-.21l-.08.07v-.02s-.1.09-.12.09c.05-.1.15-.21.09-.24.02-.12-.16-.05-.26-.04.02.04-.03.08-.06.1-.03-.02.02-.12-.03-.1l.09-.12c-.07.12-.17.07-.21.11.05-.1.1-.04.16-.11-.12-.07-.06-.04-.18-.11-.13.04-.08.12-.19.21-.07-.02-.19.03-.2-.09l-.06.12c-.17,0-.22-.06-.2-.22-.72.12-1.01.36-1.11.59-.1.23,0,.43,0,.43.13.49.55.32.99.52Z"/>
    </g>
    <path class="b" d="M228.72,67.88c-.3,1.98-.54,3.97-.93,5.93-.16.8-.08,1.57-.15,2.35"/>
    <path class="b" d="M203.54,68.24c-.47.67-1.05,4.31-1.61,6.31-.24.87-.26,1.2-.38,2.1"/>
    <path class="b" d="M246.35,68.24c-.48.36-1.13,2.95-1.43,4.5-.2,1.03-.43,2.7-.73,3.24"/>
    <g>
      <path class="d" d="M106.85,32.95l-.05.03s.05-.01.05-.03Z"/>
      <path class="d" d="M108.09,38.16s0,0,.01,0c0,0-.01,0-.01,0Z"/>
      <polygon class="d" points="105.17 34.15 105.17 34.15 105.16 34.14 105.17 34.15"/>
      <path class="d" d="M105.1,33.01c-.01.3-.25.44-.09.72,0,.15.1.29.16.42.21.02.04.18.23.22l-.11.06c.06.01.11.04.05.08h-.03c.09.03.05.08.1.09h-.03s.03.05.03.05h-.05c.11.05.13.12.1.19l.13-.04c-.12.17.17.15.02.31h-.03c.39.07-.19.3.19.38-.05,0-.07.02-.1.03.06.06.09.13.36.07,0,.05-.07.06-.17.09.12-.03.18,0,.19.04h-.05s.07.1.07.1l.21-.08c-.05.08-.26.08-.2.13l.18-.04c-.02.09-.28.21-.39.33,0,.36.56.61.32,1.01l-.13.05c-.2.06.32.02.14.07h.1s-.07.06-.12.06c0,.04.03.03.1.04l-.12.07c-.06.16.2.21.19.37-.21.23.1.49.28.65.36.19-.36.68.04.86-.03.02.04.02.07.02l.03.25s.19,1.19,1.65-.08h.04c.08-.16.08-.25-.16-.3.27-.08,0-.12.08-.17h.02c-.23-.04.13-.21-.07-.25.02,0,.1-.02.11,0-.05-.05-.13-.11.03-.16-.07-.13-.05-.34-.32-.36h.04c-.18-.01-.04-.06-.14-.1.02,0,.03-.01.04-.02-.18-.01-.06-.15-.15-.18l.1-.03-.05-.1v.05c-.3.06.15-.13-.06-.16.02-.08-.63,0-.51-.11-.14,0,.23-.02.11-.05.15-.04.1,0,.21-.04-.08-.04.13-.12.01-.17l.12-.03c-.23-.03.11-.2-.1-.21-.12-.06.33-.14.08-.18l.15-.07s-.2.02-.13-.04c.1-.02.07-.07.17-.07.13-.14-.27-.15-.04-.34-.2.02-.1-.07-.25-.06.08-.02-.02-.13.18-.11.02,0,.02.01-.02.02l.12-.02c.2-.13-.15-.11-.14-.19-.03.03-.02.06-.1.06v-.07s.1,0,.1,0l.03-.11-.12.04c.05-.06.25-.13.06-.15-.1,0-.15.09-.2.04.06-.09.16-.21.18-.31-.13.04-.13.02-.17,0l.12-.03c-.18-.05.25-.09.1-.15h.08s-.25.02-.25.02c-.25-.02.23-.1-.11-.11.03.03-.25.08-.21.02l.11-.02s-.08-.02-.06-.04c.06,0,.17-.03.14-.06h.15s-.22-.03-.22-.03c.11-.08-.06-.13.09-.18,0,0,.05-.13-.13-.11.11,0,.14-.07.27-.09-.13,0-.25-.06-.13-.13h.02c.1-.15-.23-.17-.1-.32-.13.04-.07-.04-.24.01-.2-.08.3-.29-.24-.21-.04-.05.11-.09.13-.12h.03c-.07-.08-.08-.11-.08-.19-.06-.02-.31.02-.26-.06.1,0,.08-.02.07-.05.02.01.06,0,.12-.04-.03,0-.05,0-.07,0,0,0,.01,0,.02,0-.04-.03-.07-.02-.08,0-.02,0-.03,0-.06.02.12-.07-.03-.12.13-.16-.06-.11-.26-.17-.35-.25.09-.03.17-.02.21,0l-.05-.07c.13-.02.08.03.11.04.19-.13-.24-.14-.07-.27h-.1s.02-.01.02-.01c-.05.01-.13,0-.15-.01.11-.04.25-.05.24-.1.1-.06-.07-.1-.14-.14-.01.03-.08.03-.12.03,0-.02.1-.06.05-.07l.15-.03c-.14.03-.16-.04-.22-.04.11-.03.1.02.19.01-.03-.09-.01-.05-.04-.14-.12-.03-.14.03-.27.03-.04-.04-.15-.07-.07-.14l-.13.04c-.11-.07-.11-.13.02-.21-.57-.27-.94-.39-1.18-.32-.24.06-.33.29-.33.29-.26.4.15.51.31.83Z"/>
    </g>
    <g>
      <path class="d" d="M90.51,36.23l.08-.03s-.05,0-.08.03Z"/>
      <path class="d" d="M98.62,36.64h.02s-.02,0-.02,0Z"/>
      <polygon class="d" points="93.33 35.2 93.33 35.2 93.33 35.22 93.33 35.2"/>
      <path class="d" d="M91.72,37.65c.36-.58.74-.69,1.06-1.46.11-.17.21-.36.3-.54-.03.02.04-.08.1-.18.06-.09.11-.19.16-.27-.05-.28.31-.45.3-.74h.15c0-.11.02-.21.11-.25l.03.02c0-.15.11-.24.1-.31l.03.02.06-.13.03.05c.03-.23.14-.42.27-.56l-.13-.06c.34-.28.16-.55.49-.78l.03.02c-.07-.27.12-.49.17-.45.08-.02.13.04.05-.19.02.06.05.06.07.1,0-.08.01-.16-.12-.52.03-.06.06.06.11.2-.04-.12-.05-.22-.04-.29,0-.03,0-.05.01-.07v.09s.06-.21.06-.21l-.08-.36c.07.03.06.43.12.32l-.03-.34c.17.11.23.64.24.9.09.13.2.12.32.27.03.04.05.08.08.12.03.06.08.22.11.33.07.24.1.49.09.74l-.12.08c-.19.08.36.17.19.25l.12.08s-.05.11-.11.07c.02.1.05.09.13.15l-.09.14c.01.42.34.67.41,1.1-.11.56.38,1.42.66,1.91.51.66-.03,1.76.52,2.43-.02.03.06.08.08.07l.17.71s.26.86.61,1.32c.36.47.8.53,1.2-.99h.05c-.02-.4-.07-.64-.37-.84.25-.12-.06-.32,0-.44h.02c-.27-.17.03-.53-.21-.7.02,0,.1-.01.12.04-.08-.15-.2-.36-.05-.42-.15-.38-.23-.95-.55-1.12h.05c-.21-.09-.08-.17-.21-.31.02-.01.02-.03.03-.03-.21-.11-.15-.45-.26-.55l.1-.04-.11-.3v.12c-.28.04.12-.29-.12-.46-.02-.22-.71-.25-.63-.51-.16-.07.24.03.09-.1.15-.05.11.05.22-.03-.11-.13.08-.3-.07-.45l.11-.04c-.28-.18.02-.51-.23-.61-.17-.23.29-.27,0-.47l.13-.15c0-.12-.21-.02-.17-.17.1-.02.03-.18.15-.14.07-.33-.38-.51-.23-.96-.11-.01-.14-.07-.18-.14-.03-.07-.08-.2-.16-.21.08-.05-.17-.63.1-.37.02.02.04.08,0,.09h.12c.08-.53-.34-.65-.47-.96.02.12.09.24-.01.22-.04-.1-.09-.19-.14-.29l.1-.03c-.07-.16-.15-.3-.24-.43l-.03.16c-.1-.22-.07-.49-.33-.47-.12.03.08.29-.09.19-.16-.26-.51-.6-.87-.73.03.15-.07.12-.16.12v-.13c-.36.08-.21-.34-.51-.26v-.09s-.02.28-.02.28c-.16.28-.18-.23-.33,0,0,.05-.01.11-.02.2.07-.2.14.32.03.42l-.03-.21c-.04.14-.04.24-.08.28,0-.15-.06-.26-.13-.07v-.3s-.06.59-.06.59c-.19.1-.27.64-.43.59,0,0-.33.49-.24.71-.04-.17-.22.1-.29-.05,0,.29.02.47-.16.52v-.02c-.29.25-.13.63-.44.83.13.06-.02.17.15.22-.02.38-.62.33-.22.73-.06.15-.21.08-.27.13v-.05c-.12.26-.17.34-.3.51-.02.12.18.28.02.4-.05-.11-.08-.03-.12.02.01-.05,0-.08-.12-.04.02.03.02.06.02.08,0,0-.01,0-.02-.01-.04.12,0,.12.04.08.01.01.03.02.06.02-.18.03-.19.27-.37.23-.19.4-.15.68-.25,1-.1-.01-.13-.12-.11-.21l-.08.21c-.11-.07,0-.15.01-.22-.31.13-.09.58-.41.75l.06.11h-.02s.08.13.07.18c-.12-.01-.23-.13-.29.01-.15.06-.12.34-.14.53.06-.09.1-.03.12.03-.03.08-.16.08-.15.21l-.15-.03s.05.01.06.04c.01-.01,0,.07,0,.2,0,.12.05.26.11.36l-.04-.57c0,.07,0,.16.02.19-.12,0-.04-.15-.11-.2-.11.28-.06.14-.17.42.04.2.14.03.23.16-.03.14,0,.31-.15.43h.14c-.02.3-.1.44-.3.55.17,2.28,1.19,1,1.19,1,.56-.56.43-1.06.65-1.86l-.95-.44c.08-.06.2-.05.28.03.15.06.4.11.59.19.04.01.14.05.12.05h0s0,0,0,0c0,0,0-.01,0-.02Z"/>
    </g>
    <path class="b" d="M181.22,71.06c-.94-.06-3.69.3-4.67.44-.63.08-1.09.06-1.63.16"/>
    <path class="b" d="M138.4,66.63l-2.16.33c-1.29.04-2.46.36-3.6.93"/>
    <path class="b" d="M66.43,68.06c.21,1.04-.07,2.96-.46,4.51-.18.71-.44,2.24-.44,2.24"/>
    <path class="b" d="M191.84,67.34c-.11,1.7-.76,3.26-1.25,4.86-.23.76-.56,2.89-.74,3.67"/>
    <path class="b" d="M127.07,68.42c.4.42.67.89.94,1.42.61,1.18.82,2.34.11,3.42-.87,1.32-2.32,1.39-3.75,1.27-.86-.08-1.33-.77-1.59-1.44-.63-1.61.23-3.79,1.77-4.85.21-.14.36-.35.54-.53"/>
    <g>
      <path class="d" d="M113.57,35.97l-.05-.03s.04.03.05.03Z"/>
      <path class="d" d="M109.48,40.18h0s0,0,0,0Z"/>
      <polygon class="d" points="111.58 35.36 111.58 35.36 111.57 35.35 111.58 35.36"/>
      <path class="d" d="M112.69,34.45c-.35.19-.62.09-.82.45-.14.12-.22.31-.3.46.11.19-.13.17-.05.34l-.11-.04c.03.06.04.11-.03.1l-.03-.02c.04.09-.03.09,0,.14l-.03-.02-.02.05-.03-.04c.03.12-.01.18-.09.2l.11.08c-.21.01-.01.23-.23.21l-.02-.02c.18.35-.34,0-.17.34-.02-.04-.06-.04-.08-.07-.01.08-.05.13.14.33-.04.03-.09-.03-.17-.11.08.09.09.15.06.18l-.02-.05-.07.12.17.15c-.1,0-.2-.19-.21-.1l.13.14c-.1.04-.33-.13-.5-.16-.34.21-.29.84-.77.84l-.11-.09c-.15-.14.14.29,0,.16l.04.1s-.08-.03-.09-.08c-.03.02,0,.04.01.11l-.12-.07c-.17.03-.1.29-.24.35-.31-.07-.4.32-.46.55-.03.42-.73-.09-.7.29-.02-.02,0,.04,0,.06-.05,0-.1.03-.12.01,0,.04-.04-.1.02.19,0,.03,0,.05,0,.09v.04s0,0,0,0h0s0,0,0,0c.02-.58,0-.16,0-.29h0s-.07,0-.07,0c-.05,0-.09,0-.16.02-.23.05-.44.23-.51.33-.08.12-.1.18-.12.24-.05.19-.02.24.01.32.07.13.2.23.43.27.11.02.25.02.43,0,.09-.01.18-.02.28-.04.05,0,.1,0,.15,0,0,0,.03.01,0,0l-.1-.04c-.05-.02-.1-.04-.15-.06-.08-.03-.14-.07-.17-.1h.01s-.04-.04-.04-.02h0c0,.26-.02.51-.03.75h.03s.04.01.05.02c.07.01.13.01.19,0,.13-.02.18-.1.23-.23.11.26.2-.03.26.03v.02c.04-.24.32.05.33-.18,0,.02.04.09.02.11.06-.07.12-.18.21-.05.14-.14.39-.22.31-.49l.02.04c-.05-.17.05-.07.05-.18.02.01.03.02.03.03-.06-.18.13-.14.13-.23l.07.08.08-.1h-.05c-.18-.22.19.09.14-.11.09-.03-.27-.57-.12-.52-.06-.13.12.19.1.07.1.11.04.09.14.17,0-.09.18.05.17-.08l.08.09c-.08-.23.24-.01.15-.21,0-.14.29.21.21-.03l.14.09c.05-.01-.11-.17-.02-.14.07.08.1.02.15.11.19.04,0-.32.3-.23-.11-.16.02-.13-.07-.25.06.06.12-.09.19.1,0,.02,0,.02-.03,0l.07.09c.21.1.02-.19.11-.22-.04-.01-.06.02-.1-.05l.07-.04.06.08.12-.04-.1-.08c.08,0,.24.14.17-.02-.05-.09-.15-.08-.14-.15.11,0,.28.03.37-.01-.1-.09-.08-.11-.08-.14l.08.08c-.04-.19.21.17.18,0l.05.07-.15-.2c-.09-.24.19.16.06-.16-.02.05-.2-.18-.12-.18l.07.09s-.02-.08.01-.08c.03.06.11.13.13.08l.08.13-.08-.21c.14.04.1-.15.24-.06,0,0,.16-.06.05-.2.06.09.15.06.23.17-.07-.11-.08-.26.05-.21v.02c.21-.04.03-.32.24-.32-.11-.08-.01-.09-.16-.18-.05-.22.43.03.03-.34.01-.06.14.02.19.02v.03c.04-.11.06-.14.12-.19-.02-.06-.21-.23-.12-.24.06.08.07.05.08.03,0,.02.03.05.1.07-.02-.02-.03-.04-.04-.06,0,0,.01,0,.02.02,0-.06-.03-.07-.05-.06-.01-.01-.03-.02-.05-.03.13.05.07-.1.21,0,.05-.12-.03-.31,0-.43.07.05.11.13.12.17l.03-.07c.09.09.03.08.03.11.2.08-.03-.27.18-.2l-.05-.09h.02s-.07-.1-.07-.12c.08.08.17.19.2.16.1.06.04-.11.04-.18-.03,0-.06-.05-.08-.09.02-.02.1.07.08.02l.09.12c-.09-.11-.04-.16-.07-.21.07.08.03.1.07.17.06-.06.03-.03.1-.09-.02-.12-.08-.12-.14-.24.02-.05.01-.16.1-.11l-.08-.11c.03-.14.1-.15.21-.05.11-.64.11-1.02-.03-1.22-.13-.2-.37-.22-.37-.22-.52-.11-.58.36-.87.72Z"/>
    </g>
    <path class="b" d="M263.44,68.24c1.05,1.32,1.22,2.93,1.41,4.5.13,1.06.38,2,1.11,2.79"/>
    <path class="b" d="M172.22,67.88c-1.62.12-3.24.26-4.86.34-.34.02-.55.12-.72.38"/>
    <path class="b" d="M138.4,69.86c-1.26.36-2.53.68-3.77,1.1-.61.2-1.16.58-1.8.16"/>
    <path class="b" d="M162.15,74.54c-1.85.46-3.69.93-5.58.18"/>
    <path class="b" d="M88.92,70.58c-.1,1.18-.53,2.58-1.79,3.44-1.53,1.05-3.56.52-3.92-1.29-.18-.9-.29-1.95.14-2.87.48-1.02,1.18-2.23,2.32-2.08,1.41.2,2.86.88,3.25,2.61"/>
    <path class="b" d="M197.99,67.96s-1,3.77-1,5.34c.03,1.09-.17,2.95-.17,2.95"/>
    <path class="b" d="M192.02,68.42c1.6,1.6,3.06,5.3,4.42,7.06"/>
    <path class="b" d="M79.47,70.86c-1.95.02-4.04.14-5.86.62l-.5,3.46"/>
    <path class="b" d="M263.62,66.98c-.4,1.7-2.08,2.55-2.76,4.11-.31.72-.63,1.48-1.02,2.19"/>
    <path class="b" d="M222.06,72.02c-1.74-.8-3.36.2-5.04.36"/>
    <path class="b" d="M240.59,67.52c.39,3-.28,5.84-1.26,8.64"/>
    <path class="b" d="M257.69,75.89c.3-.11.5-.49.58-.62.47-.75,1.63-1.77,1.8-1.63,1.11.38,3.38.06,4.64,0"/>
    <path class="b" d="M70.13,67.55c-2.8,0-5.83.23-7.72.6"/>
    <path class="b" d="M240.23,72.56c-2.01-.34-3.91.8-5.94.39-.37-.12-1.16.21-1.18.45-.05.72-.38,2.4-.44,3.12"/>
    <path class="b" d="M233.92,68.45s-.25,1.29-.33,2.14c-.08.77-.46,2.05-.33,2.34"/>
    <path class="b" d="M161.43,71.12c-1.38-.25-2.76.52-4.14,0"/>
    <path class="b" d="M131.92,67.52c1.91.94-.06,2.62.72,3.78-1.15,1.28-.54,3.14-1.44,4.5"/>
    <path class="b" d="M223.16,67.52s-.32,2.21-.44,3.23c-.2,1.64-.65,4.35-.65,5.13"/>
    <path class="b" d="M171.15,71.93c-.59,0-3.95.48-4.5.45"/>
    <path class="b" d="M166.11,68.6c.26,0,.61-.05.53.36-.41,2.22-.4,4.52-1.25,6.66"/>
    <path class="b" d="M217.2,68.24c-.46,2.32-.43,4.72-1.08,7.02"/>
    <path class="b" d="M162.51,67.7c-1.26-.48-2.52.03-3.78.04-1.1,0-1.47.97-1.62,1.94-.25,1.62-.48,3.24-.72,4.86"/>
    <path class="b" d="M79.39,66.99c-.9-.19-4.94.14-5.22.19,0,0-.49,3.45-.63,4.52"/>
    <g>
      <path class="d" d="M92.3,36.98l.02.06s0-.05-.02-.06Z"/>
      <path class="d" d="M96.55,36.79s0,0,0-.01c0,0,0,.01,0,.01Z"/>
      <polygon class="d" points="92.96 38.86 92.96 38.86 92.96 38.87 92.96 38.86"/>
      <path class="d" d="M92.05,38.7c.24.07.31.34.56.23.12.02.25-.04.36-.07.05-.2.15,0,.21-.18l.03.11c.02-.06.05-.1.07-.04v.03c.03-.09.07-.04.08-.08v.03s.04-.02.04-.02v.05c.05-.09.11-.1.16-.06v-.14c.11.15.14-.14.24.04v.03c.11-.37.21.24.32-.11-.01.04,0,.07,0,.11.06-.04.12-.07.11-.34.04,0,.04.08.05.19,0-.12.03-.17.06-.18v.05s.08-.04.08-.04l-.03-.23c.05.06.02.28.07.22v-.19c.06.03.12.32.19.45.29.07.57-.43.85-.11l.02.14c.02.21.06-.31.08-.12l.03-.1s.03.07.02.12c.03,0,.03-.03.04-.09l.04.13c.12.09.2-.16.32-.12.16.25.41,0,.55-.16.19-.32.5.48.7.11,0,.03.02-.04.02-.06h.2s.98,0,.1-1.63v-.04c-.12-.1-.19-.12-.24.11-.03-.27-.09-.02-.12-.11v-.02c-.05.22-.15-.17-.2.03,0-.02,0-.1.01-.1-.04.04-.1.1-.12-.06-.11.05-.27-.01-.32.25v-.04c-.03.18-.05.03-.09.12,0-.02,0-.03,0-.04-.03.17-.13.04-.16.11v-.11s-.1.03-.1.03l.03.02c0,.29-.08-.18-.13.01-.06-.03-.08.62-.15.48-.02.14.01-.22-.03-.12-.01-.15.01-.1,0-.22-.04.08-.08-.15-.13-.05v-.12c-.07.22-.15-.15-.19.06-.07.1-.07-.35-.13-.11l-.04-.16s-.01.2-.05.12c0-.1-.05-.08-.03-.18-.09-.15-.15.23-.27-.03-.01.2-.07.08-.08.23,0-.09-.11,0-.06-.2,0-.02.01-.01.01.02v-.12c-.07-.22-.1.13-.16.1.02.04.04.03.03.11h-.06s0-.11,0-.11l-.09-.05.02.12c-.04-.06-.07-.27-.1-.09-.02.1.05.16,0,.2-.06-.08-.14-.2-.22-.24.01.14,0,.13-.02.16v-.12c-.07.17-.05-.26-.11-.13v-.08s0,.25,0,.25c-.06.24-.05-.25-.1.08.03-.02.02.26-.01.21v-.12s-.02.07-.03.05c0-.06,0-.17-.03-.15v-.15s-.03.21-.03.21c-.05-.12-.11.04-.13-.13,0,0-.09-.08-.11.1.01-.11-.04-.15-.03-.28-.02.13-.08.23-.12.1v-.02c-.1-.13-.16.19-.26.03,0,.14-.04.06-.03.24-.09.18-.18-.36-.2.19-.04.03-.05-.13-.08-.15v-.03c-.07.05-.09.05-.15.04-.03.05-.03.31-.08.25.02-.1,0-.08-.03-.08.01-.02.02-.05-.01-.12,0,.03,0,.05-.01.07,0,0,0-.01,0-.02-.03.04-.03.07-.01.08,0,.02,0,.04,0,.06-.04-.13-.1.01-.1-.16-.1.04-.17.22-.25.29,0-.09.01-.17.03-.2l-.06.03c0-.13.03-.07.05-.1-.07-.21-.15.21-.23.02l-.02.1v-.02c0,.05-.02.13-.04.14,0-.11,0-.26-.03-.25-.03-.11-.09.05-.13.11.02.02.01.08,0,.12-.02,0-.03-.11-.05-.06v-.15c0,.14-.05.15-.06.21,0-.11.03-.09.04-.18-.08.01-.04,0-.12.02-.05.11,0,.14-.03.27-.04.03-.08.13-.12.04v.13c-.07.1-.12.08-.15-.06-.31.52-.5.85-.49,1.09,0,.24.18.37.18.37.28.33.44-.05.73-.15Z"/>
    </g>
    <g>
      <path class="d" d="M90.98,38.34h-.06s.04,0,.06,0Z"/>
      <path class="d" d="M89.3,41.41s0,0,0,.01c0,0,0-.01,0-.01Z"/>
      <polygon class="d" points="89.06 38.01 89.06 38.01 89.05 38 89.06 38.01"/>
      <path class="d" d="M89.5,37.43c-.14.14-.4.07-.39.3-.06.08-.05.19-.05.28.17.12-.05.11.09.22l-.11-.03s.07.07,0,.06h-.03c.07.04,0,.05.04.08h-.03s0,.02,0,.02l-.04-.02c.07.08.05.12,0,.15l.13.05c-.09.01-.07.05-.06.1,0,.06.02.1-.08.09h-.03c.31.2-.28,0,0,.22-.04-.03-.07-.03-.1-.04.02.05.02.1.27.21-.02.03-.09-.01-.18-.06.11.05.14.1.14.12l-.04-.03v.08s.22.09.22.09c-.07,0-.25-.11-.22-.06l.17.08c-.05.03-.32-.08-.46-.1-.15.12.15.55-.23.52l-.12-.07c-.17-.11.23.21.06.11l.07.07s-.07-.03-.11-.06c-.02.01,0,.03.05.08l-.12-.06c-.12,0,.04.2-.05.24-.27-.08-.18.21-.15.38.14.32-.6-.08-.44.27-.03-.02.01.04.03.05l-.12.09s-.13.11-.07.33c.06.21.31.54,1.14.91l.03.03c.14,0,.2-.02.07-.22.21.18.07-.04.15,0l.02.02c-.12-.18.21.03.1-.13.02.02.07.07.07.08,0-.05-.01-.13.11-.03.03-.1.17-.15.01-.36l.03.03c-.11-.14,0-.05-.04-.14.02.01.03.02.03.02-.11-.14.05-.1,0-.17l.08.07.03-.07h-.04c-.23-.18.18.08.06-.08.06-.02-.42-.45-.28-.4-.1-.1.17.15.1.06.12.09.07.07.17.14-.04-.07.16.04.1-.05l.1.07c-.14-.17.19,0,.05-.15-.05-.11.32.17.16-.02l.15.07s-.15-.13-.07-.11c.08.06.09.01.16.08.17.03-.11-.24.17-.18-.16-.12-.03-.1-.15-.19.07.04.06-.07.19.07.01.01,0,.02-.02,0l.1.07c.22.07-.05-.15,0-.18-.04,0-.04.02-.11-.04l.04-.03.08.06.09-.04-.11-.05c.07,0,.26.09.13-.03-.08-.06-.16-.05-.18-.1.1,0,.24,0,.3-.05-.13-.06-.11-.07-.13-.1l.11.05c-.12-.14.25.1.16-.02l.07.04-.22-.13c-.19-.16.24.08-.02-.12,0,.03-.24-.1-.18-.11l.1.06s-.06-.05-.03-.05c.05.04.15.08.14.04l.12.08-.17-.14c.13.02.01-.1.17-.05,0,0,.11-.05-.05-.13.1.06.15.03.27.09-.11-.07-.18-.17-.04-.14h.01c.17-.05-.14-.14.05-.16-.13-.05-.04-.06-.21-.12-.13-.14.38.03-.11-.22-.01-.04.13.02.17.01l.02.02c-.02-.07-.01-.09.02-.13-.04-.04-.27-.15-.2-.16.09.05.08.03.08.02.01.02.04.03.11.04-.03-.02-.04-.03-.06-.04,0,0,.01,0,.02,0-.02-.04-.05-.05-.07-.04-.01,0-.03-.01-.06-.02.13.03.02-.07.18,0,0-.09-.14-.21-.18-.3.08.03.15.08.17.11v-.06c.11.06.05.06.06.08.21.04-.14-.19.06-.16l-.09-.06h.02s-.11-.06-.12-.08c.1.04.23.11.24.08.11.03-.02-.09-.06-.14-.02,0-.08-.03-.11-.05,0-.02.11.03.07,0l.14.07c-.13-.06-.12-.1-.17-.14.1.04.08.06.15.11.01-.06,0-.03.02-.09-.09-.08-.13-.06-.24-.14-.01-.04-.09-.11,0-.1l-.12-.05c-.07-.1-.03-.12.1-.08-.2-.21-.32-.43-.43-.58-.11-.16-.23-.26-.33-.33-.18-.18-.48.06-.45.02-.42.11-.11.37-.12.62Z"/>
    </g>
  </g>
  <line class="c" x1="148.84" y1="40.5" x2="148.84" y2="41.34"/>
  <path class="b" d="M254.2,72.02s.22.64.47,1.53c.27.96.27,2.34.27,2.34"/>
  <line class="b" x1="32.27" y1="66.8" x2="33.48" y2="66.46"/>
  <path class="b" d="M56.75,71.44s1.12,1.09,1.54,1.67,1.35,2.15,1.35,2.15"/>
</svg>