<?xml version="1.0" encoding="UTF-8"?>
<svg id="Layer_1" data-name="Layer 1" xmlns="http://www.w3.org/2000/svg" viewBox="0 0 195.65 236.81">
  <defs>
    <style>
      .cls-1 {
        fill: #4a494a;
        stroke-width: 0px;
      }
    </style>
  </defs>
  <path class="cls-1" d="M86.63,125.35c23.51-35.02,48.65-66.02,67.38-94.04,2.91-4.35,4.67-9.46,8.25-13.27,7.31-7.79,11.58-25.67,27.65-14.41,13.17,9.22.48,20.35-6.57,29.6-25.54,33.47-59.52,71.21-85.4,105.19,16.01,22.88,52.98,57.42,51.98,98.34-22.35-22.95-44.7-45.91-70.3-72.2-20.3,21.91-39.2,42.29-58.09,62.68-2.54-1.6-5.08-3.2-7.62-4.8,17.48-25.08,34.96-50.16,53.66-76.99C47.81,111.83,26.72,76.11,5.83,40.29-2.42,26.13-2.75,13.56,12.87,7.02c8.4,9.92,23.34,30.96,33.81,53.02,5.95,20.09,23.51,43,39.95,65.31Z"/>
  <g>
    <polygon class="cls-1" points="87.03 125.05 86.76 124.64 85.94 123.66 87.03 125.05"/>
    <path class="cls-1" d="M81.89,118.39c.13.21.05.12.18.33l3.11,3.84c-1.21-1.85-2.5-2.95-3.29-4.17Z"/>
    <path class="cls-1" d="M81.05,117.21c-1.1-1.57-1.65-2.15-1.94-2.49.46.49,2.1,2.89,1.94,2.49Z"/>
    <path class="cls-1" d="M4.82,39.07c-.09-.16-.21-.36-.29-.52.14.27.24.43.29.52Z"/>
    <path class="cls-1" d="M27.36,76.86l.3.35c-4.28-7-8.84-15.06-13.29-22.52l.32.49c-2.79-4.75-5.52-9.4-8.23-14.01-.69-1.14-1.31-2.32-1.96-3.48l-.88-1.79c-.3-.59-.57-1.19-.82-1.81-1.07-2.42-1.84-4.96-2.26-7.56-.41-2.59-.4-5.29.32-7.84.73-2.55,2.2-4.85,4.11-6.69,1.91-1.85,4.18-3.35,6.63-4.44l.92-.44c.36-.35.57.17.78.38l1.3,1.56c.85,1.06,1.71,2.11,2.54,3.19-.22-.26-.3-.35-.53-.61.66.82,1.44,1.7,2.13,2.66.17.26-.23-.24-.46-.54,2.71,3.73,8.03,10.93,9.51,13.41.73,1.07,1.1,1.52.73.89,4.74,7.12,9.35,14.7,13.56,22.53,1.06,1.95,2.08,3.94,3.08,5.92l1.47,2.99.18.37c.09.19.1.28.15.43l.26.79.52,1.57c1.47,4.16,3.24,8.2,5.24,12.06.35.76.39.91.24.73,7.07,13.09,16.1,25.85,25.06,38.15.39.44-.87-1.29.07-.12-2.83-3.99-5.4-7.16-7.87-10.85l.37.43c-1.83-2.66-.49-.45-2.36-3.24-.71-1.12.25.23-.1-.28-3.93-5.62-7.81-11.64-11.18-17.15-.71-1.43-3.64-6.41-4.6-8.76-.41-.79-.81-1.58-1.15-2.24-.32-.68-.58-1.23-.75-1.52l-.91-2.06c-.3-.69-.55-1.4-.82-2.09l-.81-2.1-.7-2.14-.35-1.07c-.07-.2-.09-.31-.2-.59l-.25-.51-1-2.04c-.65-1.37-1.36-2.72-2.05-4.07-2.8-5.4-5.82-10.7-9.01-15.92-6.42-10.42-13.41-20.59-21.27-30.11l-.25-.3-.14-.16s-.04-.06-.07-.08l-.1.05-.66.32c-.33.16-.66.33-1,.49-.67.32-1.35.65-1.98,1.07-.64.42-1.33.76-1.94,1.24-.61.48-1.25.94-1.84,1.46C3.05,13.36,1.17,16.24.44,19.52c-.77,3.27-.47,6.77.42,10.07.89,3.32,2.32,6.48,3.99,9.48.04.09.02.08-.03,0,2.26,3.85,5.56,9.45,8.26,14.04l2.37,3.84c16.04,27.73,32.73,55.89,49.13,83.99.9,1.54,1.79,3.06,2.62,4.49-9.34,13.34-18.18,25.99-26.97,38.54-4.4,6.32-8.78,12.61-13.19,18.96-4.44,6.44-8.93,12.94-13.5,19.57,1.75,1.08,3.59,2.22,5.44,3.37-.05,0,.19.16-.6-.33,1.1.69,2.19,1.37,3.19,2,6.22-6.71,11.96-12.9,17.86-19.28v.04c6.53-7.16,13.32-14.51,20.12-21.85,6.76-7.3,13.52-14.6,20.07-21.67,3.45,3.51,6.81,6.91,10.08,10.24,9.94,10.21,20.53,21.08,31.26,32.11,5.37,5.51,10.78,11.05,16.16,16.57,2.69,2.76,5.38,5.51,8.05,8.24,1.34,1.37,2.68,2.74,4.01,4.1l.52.53.13.13.06.07s.04.05.04,0v-.37s-.01-1.46-.01-1.46c-.02-.95.02-1.89-.06-2.83l.05.07c-.3-6.03-1.36-11.96-3-17.69-1.67-5.72-3.9-11.24-6.51-16.57-5.23-10.67-11.95-20.52-19.28-30.06-3.74-4.94-7.69-9.82-11.67-14.74-1.99-2.46-3.99-4.92-5.96-7.42-.98-1.25-1.96-2.5-2.92-3.78-.48-.64-.96-1.27-1.43-1.92l-.7-.97c-.19-.34-.64-.61-.24-.89,7.69-10.17,15.68-20.16,23.66-29.77,9.98-11.8,22.68-27.64,32.12-38.66,9.66-11.36,18.98-22.72,27.91-34.39,1.12-1.46,2.22-2.92,3.38-4.34l3.48-4.28c2.27-2.87,4.53-5.85,5.93-9.29.67-1.72,1.09-3.57.91-5.42-.17-1.84-.94-3.61-2.12-5.04-1.16-1.44-2.61-2.62-4.16-3.64-1.54-1.03-3.18-1.93-4.94-2.52-1.61-.57-3.34-.85-5.03-.63-.85.08-1.67.35-2.46.66-.77.36-1.53.76-2.21,1.29-2.76,2.05-4.7,4.97-6.58,7.81-1.88,2.86-3.63,5.84-5.97,8.36-2.3,2.53-3.84,5.62-5.44,8.61-.8,1.51-1.63,3-2.56,4.43-.95,1.41-1.9,2.82-2.85,4.22-1.91,2.8-3.84,5.59-5.8,8.34-3.89,5.51-7.87,10.92-11.86,16.25-7.33,10.28-15.98,21.22-24.21,32.59l.34-.37c-3.12,3.97-6.39,9.24-8.43,11.65l.3-.44c-1.67,2.09-3.33,5.24-4.4,6.47l-.19.39c-1.85,2.65-.28.27-1.74,2.29-.53.78-.1.36-1.25,1.95-.47.19-4.45,6.54-4.81,6.57.99-1.46-1.65,2.23.52-1.09-.66.92-3.69,5.41-3.31,5.08-.14.46-1.23,2.28.7-.39l.29-.6c.71-.86.51-.67.8-.96,2.43-3.55,2.86-3.95,4.67-6.45-.02.02-.04.05-.02,0,1.11-1.8,2.81-4.16,3.79-5.51l.43-.51c.68-.76,2.63-4.13,2.04-2.94,5.01-7.16,10.9-15.27,16.69-23.14.75-1.15,4.44-6.01,3.06-4.38,1.59-1.87,5.94-7.69,7.54-9.86-.05.09-.1.19-.36.53,3.28-4.09,3.53-5.11,6.65-8.91.31-.72,5.32-7.16,6.77-9.54.39-.47.54-.61.43-.41,5.19-7.16,10.85-15.1,15-21.36,1.67-2.78,3.26-6.33,5.29-9.42.52-.77,1.05-1.51,1.62-2.19.56-.67,1.2-1.33,1.75-2.02,1.1-1.37,1.97-2.72,2.69-3.9,1.29-1.88,2.85-4.43,4.79-6.93,1.92-2.47,4.41-4.95,7.41-5.66l-.56.17c1.63-.5,3.5-.53,5.3-.04,1.8.47,3.53,1.33,5.1,2.29,1.58.97,3,2.04,4.11,3.19,1.12,1.15,1.9,2.37,2.34,3.48.26,1,.46,2.23.35,3.59-.09,1.36-.51,2.81-1.14,4.18-.83,2.18-2.79,5.2-5.23,8.25-1.24,1.52-2.52,3.11-3.78,4.67-1.27,1.56-2.46,3.16-3.55,4.61-.77.82-3.64,4.8-4,4.99-12.37,16.29-28.74,35.59-42.9,52.23l.19-.25c-1.73,2.25-3.72,4.85-5.48,7.14-.19.21-.19.17.2-.3-2.52,3.09-5.02,5.87-7.53,8.97t.39-.55c-2.33,2.93-5,5.9-7.69,9.4l-.19.17-1.73,2.22c0-.08.02-.22.97-1.37-2.69,3.34-5.4,6.68-8.06,10.08-1.33,1.7-2.68,3.39-4,5.11-1.36,1.77-2.72,3.54-4.09,5.32-.28.19.04.39.14.58l.29.4.48.66.96,1.32c.66.87,1.3,1.75,1.97,2.61,1.33,1.73,2.68,3.44,4.04,5.15,2.74,3.39,5.49,6.8,8.24,10.2,5.49,6.82,10.91,13.74,15.84,21.02,4.91,7.27,9.43,14.86,12.91,22.93l-.57-1.16c.97,2.05,1.84,4.15,2.67,6.26-.04-.03-.16-.33-.28-.63,3.02,8.11,5.14,16.95,5.4,25.4-.02-.04-.15-1.31-.1-.13.03.78.04,1.52.05,2.23,0,.23,0,.46,0,.68,0,.13.04.41-.1.19-.75-.79-1.43-1.5-2.05-2.15-1.47-1.54-2.67-2.79-3.86-3.82-.19-.22-.29-.4.17.04-12.23-12.43-24.72-25.26-36.94-37.88-4.36-4.33-8.86-8.93-13.42-13.6-4.59-4.7-9.24-9.47-13.8-14.14-1.73,1.9-3.43,3.76-5.1,5.6l.02-.09c-13.25,14.55-27.57,29.73-41.41,44.71-4.33,4.69-7.6,8.23-11.6,12.57-1.31-.82-2.91-1.83-4.66-2.92l-.15-.17c-.89-.55-1.79-1.1-2.71-1.66.94-1.36,1.89-2.74,2.85-4.13.98-1.4,1.97-2.81,2.96-4.24,2-2.83,4.02-5.7,6.05-8.58,4.06-5.75,8.14-11.55,12-17.29l-.52.89c1.22-1.97,5.21-7.39,4.52-6.79l1.56-2.13c5.57-8.49,10.68-15.08,17.63-25.4l-.42.7c1.86-2.74,4.04-5.92,5.48-7.9-.21.32-.1.18-.54.83.69-.95,1.38-1.92,2.11-2.93-1.19-2.04-2.4-4.13-3.63-6.25-1.24-2.09-2.49-4.2-3.74-6.32-2.52-4.24-5.06-8.52-7.53-12.7l.71,1.02c-2.77-4.5-7.59-12.91-11.15-18.88l.25.34-1.83-3,.03-.13c-4.6-7.78-8.93-15.1-13.42-22.7Z"/>
    <path class="cls-1" d="M18.31,13.76s-.04-.05-.06-.08c-.17-.21-.09-.11.06.08Z"/>
    <path class="cls-1" d="M93.56,115.95c-.24.34-.44.62-.65.9.06-.06.44-.61.65-.9Z"/>
  </g>
</svg>