<?xml version="1.0" encoding="UTF-8"?>
<svg id="Layer_1" data-name="Layer 1" xmlns="http://www.w3.org/2000/svg" viewBox="0 0 392.51 8.81">
  <defs>
    <style>
      .cls-1 {
        fill: #7b7a7a;
        stroke-width: 0px;
      }
    </style>
  </defs>
  <polygon class="cls-1" points="392.51 4.7 391.42 4.41 391.08 5.23 392.51 4.7"/>
  <path class="cls-1" d="M387.36,1.73l-1.86.34c1.06,2.38-.37,1.69,2.53,3.4,1.02-.37,3.27-1.2,2.97-2.13-.73.1-1.81,1.01-2.89.72.46-.69,1.63-.6,2.18-1.5-1.75-.73-1.11.59-3.04.26l.1-1.08Z"/>
  <path class="cls-1" d="M385.16,4.11c.17-.41.35-.82.32-1.16-.18.41-1.08.92-.32,1.16Z"/>
  <path class="cls-1" d="M384.03,4.35c-1.17-.09.02-.88-.1-1.01l-1.34,1.54,1.44-.53Z"/>
  <path class="cls-1" d="M379.15,4.25c-.19.04-.37.09-.55.14.19.24.35.04.55-.14Z"/>
  <path class="cls-1" d="M376.74,4.43c.48.53,1.09.21,1.85-.04-.02-.03-.04-.05-.07-.1-.67-.45-.04-1.55,1.05-1.25,1.14-.25,1.04.83,2.02.12l-1.35-.89c-1.78.14-2.8,1.72-3.5,2.16Z"/>
  <path class="cls-1" d="M379.15,4.25c.2-.04.41-.07.64-.07-.28-.18-.47-.07-.64.07Z"/>
  <polygon class="cls-1" points="381.6 4.38 382.21 4.15 382.06 3.69 381.6 4.38"/>
  <path class="cls-1" d="M372.74,4.51c.27-1.49,2.86.16,3.18-.99-1.58.06-2.85-1.03-2.5-1.85l-1.75.47c-.58.56.16,1.68,1.08,2.38Z"/>
  <path class="cls-1" d="M369.31.74c-.11.12-.25.21-.4.26.19-.06.35-.14.4-.26Z"/>
  <path class="cls-1" d="M360.46,3.31l4.08-1.5c-.38.48-.23.95-1.16,1.12,1.81.2,2.04-.75,3.54-.6.45,1.39-2.64.1-1.78,1.34,1.05-.04,2.63-.1,3.47-1.28l1.67.94-.57-1.52c-.67-.44-1.36,1.2-1.78.14-.21-.65.47-.78.94-.93-1.08.31-2.95-1.19-5.14-.99-2.31.16-1.77,2.56-3.28,3.29Z"/>
  <polygon class="cls-1" points="360.3 1.63 360.04 1.04 360.22 1.84 360.3 1.63"/>
  <path class="cls-1" d="M355.84,3.62l2.13-.95c.23.13.36.45.51.73-.09-.35.49-.94.4-1.24-.98-1.38-2.6.44-3.74.68-3.02-.62.14-.74-1.04-2.04.85.04.88.37,2.05.46-1.85-1.55-4.17-.12-5.35.26.34.14.43.57,1.08.44l-1.23.45c1.27,1.09,2.36,1.38,5.19,1.21Z"/>
  <path class="cls-1" d="M359.65,3.61c-.79.1-1.09,0-1.15-.19.21.37.47.64,1.15.19Z"/>
  <path class="cls-1" d="M350.15,1.55c.13.08.35.05.64-.04-.15-.06-.34-.07-.64.04Z"/>
  <path class="cls-1" d="M351.36,3.19l-1.49-.14.59.65c.21-.08.94-.17.91-.51Z"/>
  <path class="cls-1" d="M294.33,1.08c.14.56.68.84,1.84.73-.14.75-1.63.6-2.33,1.03,1.52.48-.03.87.36,1.6,1.7.08,2.45-.9,4.27-.7-.09.21-.06.54.18.8,2.19-.47,5.89-1.16,8.02-.52,2.06.28,3.58-.07,5.84-.41,7.43.39,15.18-.38,23.17.32l1.13-1.46c.39.72,1.9,0,1.67.94-.43-.18-.85-.03-1.38-.01,1.71,1.28,4.54-.11,6.59.35-.23-.26-.57-1.53.05-1.75-.16,1.62,2.43-.03,3.03,1.83,2.05.46.08-1.41,2.21-1.16.22-.96-2.05-.46-2.43-1.18.67-.77,1.93.32,1.83-.68-3.43-.47-9.79,1.52-15.03,2.05l.55-.9c-2.68.64-7.02.67-9.16-.79.5.86-3.96-.46-3.55,1.48-.68-.44-.88-.37-1.85-.54l-.26.62c-1.37-.02-1.15-.96-2.72-.9,1.03.84-.12,1.08-.57,1.77-1.8-.93-3.91-1.74-5.52-2.5.13.27.27.57.82.93-1.09-.3-.9.51-1.19.79-1.05.04-.94-1.04-.89-1.58-1.93-.33-2.8,1.72-4.24,1.04l.51.85c-1.99.21-3.66-.73-5.86-.45-1.06-1.17,1.8-1.01,2.71-1.52-.45-.25-1.39-.31-1.69-.7-.94.6-2.51,1.42-3.68,1.99,1.11-1.37-1.68-1.29-2.43-1.38Z"/>
  <path class="cls-1" d="M300.45.47c.27-.18.5-.34.63-.46-.21.07-.41.15-.73.09-.03.15.02.27.1.37Z"/>
  <path class="cls-1" d="M294.33,1.08s-.04-.08-.05-.13c-.22.08-.14.11.05.13Z"/>
  <path class="cls-1" d="M306.96,4.08c-.08-.03-.19-.05-.29-.07-.13-.02-.23-.01-.36-.04l.64.11Z"/>
  <path class="cls-1" d="M308.6.19c.43.3,1.01.61,1.67.92-.18-.39-.34-.69-1.67-.92Z"/>
  <path class="cls-1" d="M322,1.15c.41-.15.18-.41.47-.68-.85-.04-1.14.24-.47.68Z"/>
  <polygon class="cls-1" points="298.04 .25 296.37 .52 295.75 .75 298.04 .25"/>
  <path class="cls-1" d="M264.21,4.72c1.47,1.02,3.63.4,5.45.6,3.33-.53.42-2.24,3.58-2.36l-.54,2.11c3.15-.12,7.64.31,10.32-1.54.24.26.8.57-.03.88,2.11-.09,1.09-3.01,3.91-2.3-2.63,1.31.86,1.24.14,2.55l-.41.15c1.78-.14,4.15-.83,5.32-.74.05-.54-.98-1.37.6-1.44-.64-.11-.38-.72-.32-1.27-1.64.6-2.52.23-3.51.94-.91-.7.61-.23-.3-.93l-1.31.66c-.96-.17,1-.71-.51-.86-.17.41-1.39.86-2.57.77l.34-.24c-.9.28-2.17-.08-1.74,1.1l-1.06-1.17.18.8c-2.46-.31-3.39-2.22-6.57-1.23.76.24.07.67-.34.83,1.33.55,1.63-.61,2.89-.71.19.79-1.95,1.75-.42,2.23-1.67-.95-3.16.12-3.88-1.87-2.01-.13-2.78.85-4.83.38l.06-.29c-.38,1.31-1.67-.6-3.18.75l1.08.29c-.05.54-.57.56-1.31.65q.08-.2-.16-.47c-.22.95-2.53,1.11-2.82,1.39.97.17,2.16-.62,3.3-.87-.58.56-.4,1.36-1.36,1.2Z"/>
  <path class="cls-1" d="M285.02,1.23l-.65.46c.27-.08.51-.22.65-.46Z"/>
  <path class="cls-1" d="M255.07,3.05c-1.29-.21.35-.82-.86-1.24-1.31.66,1.5,1.36.22,2.34-.79-.57-2.07.42-2.6.44.58-.56.24-1.83.01-2.08-.5.35-1.61-.27-2.46-.31,2.08.79-1.75.48.13,1.34-.14.74-2.1,1.3-2.89.72.06-.54.7-.43,1.23-.45.43-1.02-1.32-.55-1.62-1.49-1.98,1.42-8.33,1.33-6.53,3.61.68.44,1.26-.12,2-.21-2.06-.46-.02-1.21.16-1.62.88.37,2.39-.36,2.04.46l-1.4.86c4.47.44,10.6.28,15.74-.06l-2.23-.04c.26-.62,1.31-.66,2.13-.96l-1.09-1.51c.64.11,1.25-.11,1.2.43.78-.64.43-1.03-.04-1.54,1.66-.27,1.93.33,3.22-.66-2.76-1.24-2.33,1.03-5.5-.06l-.87,2.05Z"/>
  <polygon class="cls-1" points="261.12 2.22 260.46 2.98 261.48 2.6 261.12 2.22"/>
  <path class="cls-1" d="M260.07,5.54c-.03-.33.37-.48.34-.81-1.29-.22-1.14.24-.34.81Z"/>
  <path class="cls-1" d="M244.53,2.25l-1.66.26,1.08.29c-.03-.34.37-.48.58-.56Z"/>
  <path class="cls-1" d="M232.86,6.19c2.31-.15,3.3-.87,5.9-.09,1.28-.99-.6-1.86-.05-2.75-1.3-.22-1.13,1.46-2.48,1.78-.5-.85-1.96.19-3.24,0,.16.35.16.75-.14,1.08Z"/>
  <path class="cls-1" d="M224.91,2.92c-1.06,0-2.12.65-2.96.25.12-.54.75-.73,1.38-.59-.41-1.21-1.17.19-2.31-.62.1.13.51.34.19.6-2.84-.28-1.59,1-5.28.31-.53.33-1.06.33-.97,1.13-2.09-1.02-1.04-1.01-3.55-1.91.1.47.92,1.55.9,2.56-3.55-1.42-3.63.2-5.9-.86.26-.06.56-.31,1.17-.18-.29-1.41-1.91.25-3.17-.02l.12-1.21c-1.17.2-3.18.98-4.64.1l.33-.6c-2.98.92-6.45.49-8.99.95l-1.37-.75c-3.49.92,3.47.43.92,2.22-.39-2.22-1.8.73-3.79-.16-.94-.88,2.01-.46.97-1.47-.44,1.14-1.06.33-2.12.66.23-1.07-2.22-.15-1.56-1.35l-3.73,1.99c-.6-.61-1.68-.51-2.48-.35,2.01.01-.55,1.6,1.7,2.09,3.29-.51,8.78-.88,12.88-.31.45-1.47,2.64.02,3.29-1.19.1.47.4.88.5,1.35,2.65-.32-.62-.81.02-1.34,1.16-.2,2.09.69,1.99,1.22,1.9.08.21-.4,1.18-1.2l1.24,1.62c5.92-.5,13.75-1.59,20.48-.67l-.51-1.01c3.05.56,5.11-2.25,7.81-.08l.92-.87c-.5.5.53,1.52-.27,2.21.83-.34,1.71.04,2.57-.27l-1.52-.48c1.06-.86,2.24-.33,2.6.42,2.28-1.03-1.35-1.75-1.86-2.61-3.2,1.88-3.23-1.83-6.3-1.05-1.91.59.2.94.08,1.48Z"/>
  <path class="cls-1" d="M228.88,5.69c.19-.08.35-.17.47-.27-.16.06-.32.15-.47.27Z"/>
  <path class="cls-1" d="M178.11,3.61c-.24,0-.52.01-.89.06-.3.26.18.08.89-.06Z"/>
  <path class="cls-1" d="M233,5.11s0,0,0-.01c0,0-.01,0-.02.01h.03Z"/>
  <polygon class="cls-1" points="234.53 2.62 233.67 2.59 233.82 3.06 234.53 2.62"/>
  <path class="cls-1" d="M169.12,2.34v.53c.07-.16.1-.34,0-.53Z"/>
  <path class="cls-1" d="M144.75,2.01l.53.03c-.17-.09-.36-.07-.53-.03Z"/>
  <path class="cls-1" d="M86.29,3.12c-1.59.32-3.71.64-4.88,1.51l.11-.53c-.85.26-3.6,1.12-1.83,2.07l.43-.46c2.01-.79,1.46.88,3.04,1.23,1.9-.25,2.99-2.26,4.67-1.78.74-.07.62.48.4.88,1.69.15,2.35-1.39,3.51-1.59.47,4.03,5.19-1.11,7.68,1.46,1.58-.32,3.69.03,5.71-.77-1.07,1,1.9.08,1.46,1.22.57-2.34,5.79,1.05,6.15-1.91,2.73.83.11-.2,3.26.5,0,.33-.53.33-.74.39,1.25.61,1.92-1.26,2.95.09,2.52.22.43-.8,1.93-1.59,2.63.35,1.89.74,3.34,1.97.24-1.41,1.8-.73,3.09-1.46-.32-.07-2.11-.35-.94-.88,3.05.22,2.44-.93,5.3-1.31,1.45,1.55-2.85.04-.34,1.27-1.81.72-3.18.65-4.15,1.78,2.43.09,5.38-.16,8.03-.82,1.47.21-.75.73.4.88,2.63.68,4.04-1.59,6.14-.9l-.43.8c1.28-1.06,4.64.23,7.08-.35-.31-.41-.51-.68-.19-.94-.04,2.02,3.39-1.05,5.79.37-.19-1.28,2.14-2,3.62-2.13.52.35.41.88.4,1.21-2.42-.75-2.34,1.4-4.26,1.99,1.59-.66,4.23.03,5.61-.9l-.55,1c2.21.15,1.93-2.27,4.24-1.31l-.23.73c4.65-.1,10.11,1.21,13.83-.43.32-.61-1.55-2.03-1.65-2.5-2.22.52-3.5,1.59-5.2,2.12l.02-1.15c-.39.79-2.43,1.26-1.3,1.88-1.38.59-1.05-1.01-2.64-.35.13-1.2,1.08-1.34,1.09-2.34l-1.38.59c.44-.47-.83-.41-.4-.88-2.56,1.46-3.57-.56-6.22.09l1.47.21c-.01.67-.85.6-1.49.8-.72-.94-1.15-.81-2.51-1.23-1.17.53-1.82,1.73-3.41,1.72.34-1.27-2.63-.69-2.93-1.76-.34,1.27-3.06.45-3.29,1.18-.85.26-2.01.12-2-.55.12-.04.37-.16.64-.22l-.84-.05c.08-.15.05-.25.15-.28-.75-.03-.76.89-1.74.27,0-.34.54-.34.97-.46-2.01-.22-3.52,1.92-5.19.77-.33.6-2.65.65-2.15,2-.63-.47-.39-1.54-2.08-1.35-.97,1.13-1.89-.42-3.18.31,1.71-1.19,0-.33,1.5-1.47-1.15-.47-2.86,1.06-4.87.84-.21-.27-.2-.61-.41-.87-.75.4-1.6,1.33-2.33.39l.09.8c-1.36-.41-3.26-.16-4.73-1.04l-1.71,1.53c-2.29-1.62-5.38-.17-7.19,1.23-.84-.07-2.1-.35-2.1-.68.19-.12.53-.36.91-.56-1.24-.06-2.75-.93-3.45.35-1.27.39-.93-.88-1.87-1.09-2.57,1.8-7.58-1.33-8.36,1.42,1.05,0,3.04.56,5.05.44-.53.33-.11.87-.86.93-2.01.12-3.04-.89-5.05-.43l.24-1.75c-3.45-1.77-6.58,2.37-9.28-.13Z"/>
  <path class="cls-1" d="M112.02,3.16l-1.46-.88.15.75c.45-.12.91-.13,1.31.13Z"/>
  <path class="cls-1" d="M110.72,3.03c-.3.08-.58.21-.85.36.32.02.63-.02.89-.17l-.04-.19Z"/>
  <path class="cls-1" d="M80.48,3.42c-.32-.07-.95-.21-1.58-.02.42.21,1.26.28,1.58.02Z"/>
  <polygon class="cls-1" points="78.78 3.94 79.51 4.21 79.62 4.01 78.78 3.94"/>
  <path class="cls-1" d="M36.13,5.46l-2.34,1.06c-.41-.54-3.06.11-2.2-.82-1.39,1.27-4.42.04-3.3,1.86,6.86-.62,16.34.45,24.28-1.18l-1.27.73c4.13-1.45,5.66,1.59,8.98-1.28l-.45,1.47c1.89.42,3.62-2.12,5.6-.57l-.19-.6c.52,0,.73.27,1.26.28l-.21-.27c1.38-.6,2.23-.52,3.59-.11.09.47-.64.2-1.06.33.63.48,1.7-.52,2.76-.52.83.41-.01.68-.13.88,3.18-.65,4.63.9,6.88-1.3.22-.4-.82-.75.34-.94-2.1-.68-3.8.18-5.71.78h.53c-1.52,2.14-1.15-.48-3.59.44.64-.87,1.71-.85,2.13-1.32-2.82-1.63-4.03,1.24-5.89-.85l.21-.07c-.42-.21-1.16.19-1.8.39.21.27.84.41,1.26.61-.64.2-.97,1.14-1.19,1.54-.72-.94-.96.46-2.11-.01-.41-.87.96-.8,1.39-1.27l-1.38.59c-1.27.06-1.25-.95-1.87-1.42-1.07.66.63.47-.24,1.41-1.35-1.08-7.16-.78-9.91.07.95-.13.34-.93,1.49-.79-.42-.2-1.9.26-1.91.93-1.91.59-4.33.17-6.12-.44l.52.67c-1.5,1.13-3.78-.83-6.43-.18l.06.02c-.85.14-1.58,1.78-3.14,1.44.43-.8,1.27-.73,1.19-1.54Z"/>
  <path class="cls-1" d="M26.82,7.01l.86-.93c-.95-.21-2.13.99-1.93,1.6.64-.2,1.48.21,1.59-.32-.11-.13-.09-.47-.52-.34Z"/>
  <path class="cls-1" d="M9.09,7.16c-.35.22-.25.57-.4.83,3.75-.12,8.38-.49,9.88.24,1.26.28,1.5-1.13,3.09-1.46l.72.95c.86-.6,3.48.43,2.55-1.12-.1-.14-.75.73-1.48.46l.12-.54-1.69.19.54-.66c-2.31-.95-1.62,2.01-4.46,1.38l.02-1.35c-1.9-.08-2.85.38-4.52-.44,0,0-.02.68.31.41.31.07.72.61.5,1.01-2.87,1.05.45-.8-1.56-1.35-2.44.92-7.1,1.69-8.45.61,1.15.81-.56,1.67-1.93,1.6-.63-.47.43-.8.66-1.21-.64-.14-1.16-.48-1.79-.28.82.74.28,1.74-1.2,2.2,3.25.83,5.83-1.63,9.09-1.48Z"/>
  <path class="cls-1" d="M8.13,8.29c.33-.05.48-.16.56-.31-.44.01-.89.02-1.3.03l.74.28Z"/>
</svg>