<?xml version="1.0" encoding="utf-8"?>
<!-- Generator: Adobe Illustrator 28.1.0, SVG Export Plug-In . SVG Version: 6.00 Build 0)  -->
<svg version="1.1" id="Layer_1" xmlns="http://www.w3.org/2000/svg" xmlns:xlink="http://www.w3.org/1999/xlink" x="0px" y="0px"
	 viewBox="0 0 392.7 276" style="enable-background:new 0 0 392.7 276;" xml:space="preserve">
<style type="text/css">
	.st0{fill:#615F59;}
</style>
<g>
	<g>
		<g>
			<g>
				<g>
					<polygon class="st0" points="538.8,271.2 538.5,271.1 537.8,271.3 					"/>
					<path class="st0" d="M533.7,271.6c0.2,0,0.1,0.1,0.2,0.1l3-0.6C535.6,270.9,534.6,271.9,533.7,271.6z"/>
					<path class="st0" d="M532.8,271.6c-1.2-0.1-1.7,0.1-1.9,0.2C531.3,271.6,533.1,271.9,532.8,271.6z"/>
					<path class="st0" d="M429.8,271.7c0.1,0,0.3,0,0.4,0C429.9,271.7,429.8,271.7,429.8,271.7z"/>
					<path class="st0" d="M402.9,272.7l-0.3,0.2c5-0.4,10.7,0,16-0.2l-0.4,0.1c13.5,0.1,25.9-0.3,39.2-0.5c-0.2,0-0.3,0.1-0.5,0.1
						c0.6-0.1,1.4-0.2,2.1-0.2c0.2,0-0.2,0.1-0.4,0.1c2.8,0.4,8.3-0.2,10,0.1c0.8,0,1.1-0.2,0.7-0.3c10.5-0.1,21.6-0.2,32.3-0.5
						c0.5,0.1,0.6,0.2,0.5,0.3c9.1-0.6,18.6-0.4,28-0.3c0.4-0.2-0.9-0.2,0-0.3c-3-0.2-5.5,0.4-8.2,0.1l0.3-0.2
						c-2-0.1-0.4,0.4-2.5,0.2c-0.8-0.1,0.2-0.2-0.2-0.2c-4.2,0.1-8.6-0.1-12.5,0.3c-1-0.3-4.5,0-6.1-0.3c-1.1,0.1-2.2,0.1-2.6,0.3
						c-14.7-0.2-29.7,0.1-44.8,0.1c-7,0.6-15.5-0.1-23.8,0.1c-0.1,0,0,0,0-0.1c-2.7,0.2-6.7,0.2-10,0.2l-2.8,0.3
						c-19.6-0.6-39.6-0.2-59.5-0.4c-22.6-0.2-42.4-0.6-64.4,0.2c0-0.1-0.1-0.1,0.4-0.1c-6.4,0.1-12.1-0.1-18.1,0l0-0.1
						c-14.8,0.5-30.9-0.1-45.2,0.5c-17.4-0.1-37.1,0-55.5,0.2l0-0.1c-14.8,0.3-29-0.4-43.7-0.2c-15.1-0.3-31.1,0.7-46.4,0.3
						c-9.4-0.6-21.8,0.7-30.7,0.1c-18.2-1-35.9-0.3-54.1,0.2c-16.8-0.3-33.6,0.5-49.9-0.2c-7.7,0.4-16.2-0.6-24.8-0.4l0.3,0.2
						c-3.1-0.5-6.9,0.7-8.8,0l0.3,0c-1.6-0.4-3.8,0.8-4.8,0.4l-0.3,0.2c-2,0.1-0.2-0.2-1.8-0.3c-0.6,0-0.2,0.3-1.4,0.2
						c-0.3-0.7-4.8,0.2-5-0.7c1.1,0-1.7-0.3,0.7-0.5c-0.7-0.1-4,0-3.7,0.3c-0.3,0.4-1.6,0.7,0.4,1l0.4-0.3c0.7,0.3,0.5,0.1,0.8,0.3
						c2.6,0,3,0.4,4.9,0.6c0,0,0,0,0,0c1.3-0.3,3.1-0.1,4.1-0.1l0.4,0.1c0.6,0.3,3-0.6,2.2-0.1c5.3-0.1,11.5-0.1,17.4-0.1
						c0.8-0.2,4.6,0,3.3-0.4c1.5,0.4,5.9,0.6,7.6,0.5c-0.1,0-0.1,0.1-0.4,0.1c3.2,0.6,3.8-0.5,6.8,0.2c0.5-0.5,5.4,0.2,7.1-0.4
						c0.4,0.1,0.5,0.2,0.4,0.3c5.4,0,11.4,0.2,15.9,0.2c3.9-0.4,9.5,0.2,12.8-0.4c2.8,0.1,7.3,0.4,11.2,0.1l-0.4,0.1
						c4.4,0,9.9-0.1,12.9-0.4c1.3,0.6,3.2,0.5,5.1,0.6c2.9-0.3,8.8-0.2,13.3-0.4c0.7,0.3,3.7-0.1,3.9,0.3c12.5-0.7,28-0.5,41.3,0.1
						l-0.2,0c1.7-0.2,3.7-0.7,5.5-1c0.2,0,0.2,0.1-0.2,0.1c2.4-0.1,4.7,0.3,7.2,0.2c0,0.1,0,0.1-0.4,0.1c2.3-0.2,4.7,0.3,7.4,0
						l0.2,0.1l1.7-0.1c0,0.1-0.1,0.3-1,0.3c20.9,0.1,42.6-0.5,64.1-0.4l-0.8,0.1l4.2-0.2c0,0.1-0.2,0.1-0.4,0.1
						c5.3,0.2,10.8-0.1,16-0.1c0,0.1-0.8,0.2-0.1,0.3c3.8-0.3,6.2,0.5,8.1-0.3c0.2,0,0.3,0.2-0.1,0.3c10.7-0.2,21.6-0.2,32.3-0.1
						c8.9-0.7,18.9-0.1,28.2-0.6l0,0.1c12-0.5,24.8,0,37.2-0.1c5.2,0.1,8.7-0.1,13.9-0.1l0.1,0.2c8.8-0.6,18.4,0.6,27.5-0.1
						l-0.6,0.2c1.4-0.3,5.5,0.1,5-0.5l1.6,0.2c6.2-0.8,11.3,0.4,18.9-0.1l-0.5,0.1c2-0.1,4.4-0.2,5.9-0.1c-0.2,0-0.1,0.1-0.6,0.1
						c6.3,0.6,13.4-0.1,20.1,0l-0.8,0.3c3.2-0.3,9.2,0,13.4-0.2l-0.3,0.1l2.1-0.2l0.1,0.2C392.3,272.9,397.5,272.7,402.9,272.7z"/>
					<path class="st0" d="M458.6,272.4C458.6,272.4,458.6,272.4,458.6,272.4C458.4,272.4,458.5,272.4,458.6,272.4z"/>
					<path class="st0" d="M-92,273.7c-0.3,0-0.5,0-0.7,0C-92.7,273.7-92.2,273.6-92,273.7z"/>
				</g>
			</g>
		</g>
	</g>
</g>
<g>
	<g>
		<g>
			<g>
				<g>
					<polygon class="st0" points="393,485.2 393.1,484.9 392.9,484.1 					"/>
					<path class="st0" d="M392.6,480.1c0,0.2-0.1,0.1-0.1,0.2l0.6,3C393.4,482,392.3,481,392.6,480.1z"/>
					<path class="st0" d="M392.6,479.2c0.1-1.2-0.1-1.7-0.2-1.9C392.6,477.7,392.3,479.4,392.6,479.2z"/>
					<path class="st0" d="M392,376.1c0,0.1,0,0.3,0,0.4C392.1,376.3,392.1,376.2,392,376.1z"/>
					<path class="st0" d="M391,349.3l-0.2-0.3c0.4,5,0,10.7,0.2,16l-0.1-0.4c0,13.5,0.4,25.9,0.6,39.2c0-0.2-0.1-0.3-0.1-0.5
						c0.1,0.6,0.2,1.4,0.2,2.1c0,0.2-0.1-0.2-0.1-0.4c-0.4,2.8,0.3,8.3,0,10c0,0.8,0.2,1.1,0.3,0.7c0.1,10.5,0.3,21.6,0.6,32.3
						c0,0.5-0.1,0.6-0.3,0.5c0.6,9.1,0.4,18.6,0.4,28c0.2,0.4,0.2-1,0.3,0c0.2-3-0.4-5.5-0.1-8.2l0.2,0.3c0.1-2-0.4-0.4-0.2-2.4
						c0.1-0.8,0.2,0.2,0.2-0.2c-0.1-4.2,0-8.6-0.3-12.5c0.3-1,0-4.5,0.3-6.1c-0.1-1.1-0.1-2.2-0.3-2.6c0.1-14.7-0.3-29.7-0.3-44.8
						c-0.7-7,0.1-15.5-0.2-23.8c0-0.1,0,0,0.1,0c-0.2-2.7-0.3-6.7-0.2-10l-0.3-2.8c0.5-19.6,0-39.6,0.1-59.5
						c0.1-22.6,0.4-42.4-0.5-64.4c0.1,0,0.1-0.1,0.1,0.4c-0.2-6.4,0-12.1-0.1-18.1l0.1,0c-0.6-14.8-0.1-30.9-0.7-45.2
						c0-17.4-0.2-37.1-0.4-55.5l0.1,0c-0.3-14.7,0.3-29,0-43.7c0.2-15.1-0.9-31.1-0.5-46.4c0.6-9.4-0.8-21.8-0.2-30.7
						c0.9-18.2,0.2-35.9-0.5-54.1c0.3-16.8-0.7-33.6,0-49.9c-0.5-7.7,0.5-16.2,0.3-24.8l-0.2,0.3c0.5-3.1-0.7-6.9,0-8.8l0,0.3
						c0.4-1.6-0.9-3.8-0.4-4.8l-0.2-0.3c-0.1-2,0.2-0.2,0.3-1.8c0-0.6-0.3-0.2-0.2-1.4c0.7-0.3-0.2-4.8,0.6-5c0,1.1,0.3-1.7,0.5,0.7
						c0.1-0.7,0-4-0.3-3.7c-0.4-0.3-0.7-1.6-1,0.4l0.3,0.4c-0.3,0.7-0.1,0.5-0.3,0.8c0,2.6-0.4,3-0.6,4.9c0,0,0,0,0,0
						c0.3,1.3,0.1,3.1,0.1,4.1l-0.1,0.4c-0.3,0.6,0.6,3,0.1,2.2c0.2,5.3,0.2,11.5,0.2,17.4c0.2,0.8,0,4.6,0.4,3.3
						c-0.4,1.5-0.5,5.9-0.5,7.6c0-0.1-0.1-0.1-0.1-0.4c-0.6,3.2,0.5,3.8-0.1,6.8c0.5,0.5-0.1,5.4,0.5,7.1c-0.1,0.4-0.2,0.5-0.3,0.4
						c0,5.4-0.1,11.4-0.1,15.9c0.5,3.9-0.2,9.5,0.5,12.8c-0.1,2.8-0.3,7.3-0.1,11.2l-0.1-0.4c0.1,4.4,0.1,9.9,0.5,12.9
						c-0.6,1.3-0.4,3.2-0.6,5.1c0.3,2.9,0.2,8.8,0.5,13.3c-0.3,0.7,0.1,3.7-0.3,3.9c0.8,12.5,0.6,28,0.1,41.3l0-0.2
						c0.2,1.7,0.7,3.7,1,5.5c0,0.2-0.1,0.2-0.1-0.2c0.1,2.4-0.3,4.7-0.2,7.2c-0.1,0-0.1,0-0.1-0.4c0.2,2.3-0.3,4.7,0,7.4l-0.1,0.2
						l0.2,1.7c-0.1,0-0.3-0.1-0.3-1c0,20.9,0.7,42.6,0.7,64l-0.1-0.8l0.2,4.2c-0.1,0-0.1-0.2-0.1-0.4c-0.2,5.3,0.2,10.8,0.2,16
						c-0.1,0-0.2-0.8-0.3-0.1c0.4,3.8-0.4,6.2,0.3,8.1c0,0.2-0.2,0.3-0.3-0.1c0.3,10.7,0.3,21.6,0.2,32.3c0.7,8.9,0.1,18.9,0.7,28.2
						l-0.1,0c0.5,12,0.1,24.8,0.2,37.2c0,5.2,0.1,8.7,0.2,13.9l-0.2,0.1c0.7,8.8-0.5,18.4,0.2,27.5l-0.2-0.6c0.3,1.4-0.1,5.5,0.5,5
						l-0.2,1.6c0.8,6.2-0.3,11.3,0.2,18.9l-0.1-0.5c0.1,2,0.2,4.4,0.1,5.9c0-0.2-0.1-0.1-0.1-0.6c-0.5,6.3,0.1,13.4,0.1,20.1
						l-0.3-0.8c0.3,3.2,0.1,9.2,0.2,13.4l-0.1-0.3l0.2,2.1l-0.2,0.1C390.7,338.7,390.9,343.9,391,349.3z"/>
					<path class="st0" d="M391.5,405C391.5,405,391.5,404.9,391.5,405C391.5,404.8,391.5,404.8,391.5,405z"/>
					<path class="st0" d="M387.9-145.6c0-0.3,0-0.5,0-0.7C387.9-146.3,387.9-145.9,387.9-145.6z"/>
				</g>
			</g>
		</g>
	</g>
</g>
<g>
	<g>
		<g>
			<g>
				<g>
					<polygon class="st0" points="6.6,477.2 6.7,476.9 6.5,476.1 					"/>
					<path class="st0" d="M6.1,472.1c0,0.2-0.1,0.1-0.1,0.2l0.6,3C6.9,474,5.9,473,6.1,472.1z"/>
					<path class="st0" d="M6.2,471.2c0.1-1.2-0.1-1.7-0.2-1.9C6.2,469.7,5.9,471.4,6.2,471.2z"/>
					<path class="st0" d="M5.6,368.1c0,0.1,0,0.3,0,0.4C5.6,368.3,5.6,368.2,5.6,368.1z"/>
					<path class="st0" d="M4.6,341.3L4.3,341c0.4,5,0,10.7,0.2,16l-0.1-0.4c0,13.5,0.4,25.9,0.6,39.2c0-0.2-0.1-0.3-0.1-0.5
						c0.1,0.6,0.2,1.4,0.2,2.1c0,0.2-0.1-0.2-0.1-0.4c-0.4,2.8,0.3,8.3,0,10c0,0.8,0.2,1.1,0.3,0.7C5.5,418.2,5.6,429.4,6,440
						c0,0.5-0.1,0.6-0.3,0.5c0.6,9.1,0.4,18.6,0.4,28c0.2,0.4,0.2-1,0.3,0c0.2-3-0.4-5.5-0.1-8.2l0.2,0.3c0.1-2-0.4-0.4-0.2-2.4
						c0.1-0.8,0.2,0.2,0.2-0.2c-0.1-4.2,0-8.6-0.3-12.5c0.3-1,0-4.5,0.3-6.1c-0.1-1.1-0.1-2.2-0.3-2.6C6.2,422,5.8,407,5.7,392
						c-0.7-7,0.1-15.5-0.2-23.8c0-0.1,0,0,0.1,0c-0.2-2.7-0.3-6.7-0.2-10l-0.3-2.8c0.5-19.6,0-39.6,0.1-59.5
						c0.1-22.6,0.4-42.4-0.5-64.4c0.1,0,0.1-0.1,0.1,0.4c-0.2-6.4,0-12.1-0.1-18.1l0.1,0C4.3,199,4.8,183,4.2,168.7
						c0-17.4-0.2-37.1-0.4-55.5l0.1,0c-0.3-14.7,0.3-29,0-43.7c0.2-15.1-0.9-31.1-0.5-46.4C4,13.6,2.6,1.2,3.2-7.6
						c0.9-18.2,0.2-35.9-0.5-54.1c0.3-16.8-0.7-33.6,0-49.9c-0.5-7.7,0.5-16.2,0.3-24.8l-0.2,0.3c0.5-3.1-0.7-6.9,0-8.8l0,0.3
						c0.4-1.6-0.9-3.8-0.4-4.8l-0.2-0.3c-0.1-2,0.2-0.2,0.3-1.8c0-0.6-0.3-0.2-0.2-1.4c0.7-0.3-0.2-4.8,0.6-5c0,1.1,0.3-1.7,0.5,0.7
						c0.1-0.7,0-4-0.3-3.7c-0.4-0.3-0.7-1.6-1,0.4l0.3,0.4c-0.3,0.7-0.1,0.5-0.3,0.8c0,2.6-0.4,3-0.6,4.9c0,0,0,0,0,0
						c0.3,1.3,0.1,3.1,0.1,4.1l-0.1,0.4c-0.3,0.6,0.6,3,0.1,2.2c0.2,5.3,0.2,11.5,0.2,17.4c0.2,0.8,0,4.6,0.4,3.3
						c-0.4,1.5-0.5,5.9-0.5,7.6c0-0.1-0.1-0.1-0.1-0.4c-0.6,3.2,0.5,3.8-0.1,6.8c0.5,0.5-0.1,5.4,0.5,7.1c-0.1,0.4-0.2,0.5-0.3,0.4
						c0,5.4-0.1,11.4-0.1,15.9C1.9-85.6,1.3-80,2-76.7c-0.1,2.8-0.3,7.3-0.1,11.2l-0.1-0.4C1.8-61.5,1.9-56,2.3-53
						c-0.6,1.3-0.4,3.2-0.6,5.1c0.3,2.9,0.2,8.8,0.5,13.3C1.9-34,2.3-31,1.9-30.7C2.7-18.2,2.5-2.8,2,10.6l0-0.2
						c0.2,1.7,0.7,3.7,1,5.5c0,0.2-0.1,0.2-0.1-0.2c0.1,2.4-0.3,4.7-0.2,7.2c-0.1,0-0.1,0-0.1-0.4c0.2,2.3-0.3,4.7,0,7.4L2.4,30
						l0.2,1.7c-0.1,0-0.3-0.1-0.3-1c0,20.9,0.7,42.6,0.7,64l-0.1-0.8l0.2,4.2c-0.1,0-0.1-0.2-0.1-0.4c-0.2,5.3,0.2,10.8,0.2,16
						c-0.1,0-0.2-0.8-0.3-0.1c0.4,3.8-0.4,6.2,0.3,8.1c0,0.2-0.2,0.3-0.3-0.1c0.3,10.7,0.3,21.6,0.2,32.3c0.7,8.9,0.1,18.9,0.7,28.2
						l-0.1,0c0.5,12,0.1,24.8,0.2,37.2c0,5.2,0.1,8.7,0.2,13.9L4,233.3c0.7,8.8-0.5,18.4,0.2,27.5L4,260.2c0.3,1.4-0.1,5.5,0.5,5
						l-0.2,1.6c0.8,6.2-0.3,11.3,0.2,18.9l-0.1-0.5c0.1,2,0.2,4.4,0.1,5.9c0-0.2-0.1-0.1-0.1-0.6c-0.5,6.3,0.1,13.4,0.1,20.1
						l-0.3-0.8c0.3,3.2,0.1,9.2,0.2,13.4l-0.1-0.3l0.2,2.1l-0.2,0.1C4.3,330.7,4.5,335.9,4.6,341.3z"/>
					<path class="st0" d="M5.1,397C5.1,397,5.1,396.9,5.1,397C5.1,396.8,5.1,396.8,5.1,397z"/>
					<path class="st0" d="M1.5-153.6c0-0.3,0-0.5,0-0.7C1.5-154.3,1.5-153.8,1.5-153.6z"/>
				</g>
			</g>
		</g>
	</g>
</g>
<g>
	<g>
		<g>
			<g>
				<g>
					<polygon class="st0" points="556.8,0.7 556.5,0.6 555.8,0.8 					"/>
					<path class="st0" d="M551.7,1.1c0.2,0,0.1,0.1,0.2,0.1l3-0.6C553.6,0.3,552.6,1.3,551.7,1.1z"/>
					<path class="st0" d="M550.8,1.1c-1.2-0.1-1.7,0.1-1.9,0.2C549.3,1.1,551.1,1.4,550.8,1.1z"/>
					<path class="st0" d="M447.8,1.2c0.1,0,0.3,0,0.4,0C447.9,1.2,447.8,1.2,447.8,1.2z"/>
					<path class="st0" d="M420.9,2.1l-0.3,0.2c5-0.4,10.7,0,16-0.2l-0.4,0.1c13.5,0.1,25.9-0.3,39.2-0.5c-0.2,0-0.3,0.1-0.5,0.1
						c0.6-0.1,1.4-0.2,2.1-0.2c0.2,0-0.2,0.1-0.4,0.1c2.8,0.4,8.3-0.2,10,0.1c0.8,0,1.1-0.2,0.7-0.3c10.5-0.1,21.6-0.2,32.3-0.5
						c0.5,0.1,0.6,0.2,0.5,0.3c9.1-0.6,18.6-0.4,28-0.3c0.4-0.2-0.9-0.2,0-0.3c-3-0.2-5.5,0.4-8.2,0.1l0.3-0.2
						c-2-0.1-0.4,0.4-2.5,0.2c-0.8-0.1,0.2-0.2-0.2-0.2c-4.2,0.1-8.6-0.1-12.5,0.3c-1-0.3-4.5,0-6.1-0.3c-1.1,0.1-2.2,0.1-2.6,0.3
						c-14.7-0.2-29.7,0.1-44.8,0.1c-7,0.6-15.5-0.1-23.8,0.1c-0.1,0,0,0,0-0.1c-2.7,0.2-6.7,0.2-10,0.2l-2.8,0.3
						c-19.6-0.6-39.6-0.2-59.5-0.4c-22.6-0.2-42.4-0.6-64.4,0.2c0-0.1-0.1-0.1,0.4-0.1c-6.4,0.1-12.1-0.1-18.1,0l0-0.1
						c-14.8,0.5-30.9-0.1-45.2,0.5c-17.4-0.1-37.1,0-55.5,0.2l0-0.1c-14.8,0.3-29-0.4-43.7-0.2C133.9,1.3,118,2.3,102.7,2
						C93.2,1.3,80.8,2.7,72,2c-18.2-1-35.9-0.3-54.1,0.2C1,1.9-15.8,2.8-32,2.1c-7.7,0.4-16.2-0.6-24.8-0.4l0.3,0.2
						c-3.1-0.5-6.9,0.7-8.8,0l0.3,0c-1.6-0.4-3.8,0.8-4.8,0.4L-70,2.4c-2,0.1-0.2-0.2-1.8-0.3c-0.6,0-0.2,0.3-1.4,0.2
						c-0.3-0.7-4.8,0.2-5-0.7c1.1,0-1.7-0.3,0.7-0.5c-0.7-0.1-4,0-3.7,0.3c-0.3,0.4-1.6,0.7,0.4,1l0.4-0.3c0.7,0.3,0.5,0.1,0.8,0.3
						c2.6,0,3,0.4,4.9,0.6c0,0,0,0,0,0c1.3-0.3,3.1-0.1,4.1-0.1l0.4,0.1c0.6,0.3,3-0.6,2.2-0.1c5.3-0.1,11.5-0.1,17.4-0.1
						c0.8-0.2,4.6,0,3.3-0.4c1.5,0.4,5.9,0.6,7.6,0.5c-0.1,0-0.1,0.1-0.4,0.1c3.2,0.6,3.8-0.5,6.8,0.2c0.5-0.5,5.4,0.2,7.1-0.4
						c0.4,0.1,0.5,0.2,0.4,0.3c5.4,0,11.4,0.2,15.9,0.2C-6,3-0.4,3.6,2.9,3c2.8,0.1,7.3,0.4,11.2,0.1l-0.4,0.1
						c4.4,0,9.9-0.1,12.9-0.4c1.3,0.6,3.2,0.5,5.1,0.6C34.6,3.1,40.5,3.2,45,3c0.7,0.3,3.7-0.1,3.9,0.3c12.5-0.7,28-0.5,41.3,0.1
						l-0.2,0c1.7-0.2,3.7-0.7,5.5-1c0.2,0,0.2,0.1-0.2,0.1c2.4-0.1,4.7,0.3,7.2,0.2c0,0.1,0,0.1-0.4,0.1c2.3-0.2,4.7,0.3,7.4,0
						l0.2,0.1l1.7-0.1c0,0.1-0.1,0.3-1,0.3c20.9,0.1,42.6-0.5,64.1-0.4l-0.8,0.1l4.2-0.2c0,0.1-0.2,0.1-0.4,0.1
						c5.3,0.2,10.8-0.1,16-0.1c0,0.1-0.8,0.2-0.1,0.3c3.8-0.3,6.2,0.5,8.1-0.3c0.2,0,0.3,0.2-0.1,0.3c10.7-0.2,21.6-0.2,32.3-0.1
						c8.9-0.7,18.9-0.1,28.2-0.6l0,0.1c12-0.5,24.8,0,37.2-0.1c5.2,0.1,8.7-0.1,13.9-0.1l0.1,0.2c8.8-0.6,18.4,0.6,27.5-0.1
						l-0.6,0.2c1.4-0.3,5.5,0.1,5-0.5l1.6,0.2c6.2-0.8,11.3,0.4,18.9-0.1l-0.5,0.1c2-0.1,4.4-0.2,5.9-0.1c-0.2,0-0.1,0.1-0.6,0.1
						c6.3,0.6,13.4-0.1,20.1,0l-0.8,0.3c3.2-0.3,9.2,0,13.4-0.2l-0.3,0.1l2.1-0.2l0.1,0.2C410.3,2.4,415.5,2.2,420.9,2.1z"/>
					<path class="st0" d="M476.6,1.9C476.6,1.9,476.6,1.9,476.6,1.9C476.4,1.9,476.5,1.9,476.6,1.9z"/>
					<path class="st0" d="M-74,3.1c-0.3,0-0.5,0-0.7,0C-74.7,3.1-74.2,3.1-74,3.1z"/>
				</g>
			</g>
		</g>
	</g>
</g>
</svg>
