<?xml version="1.0" encoding="utf-8"?>
<!-- Generator: Adobe Illustrator 28.1.0, SVG Export Plug-In . SVG Version: 6.00 Build 0)  -->
<svg version="1.1" id="Layer_1" xmlns="http://www.w3.org/2000/svg" xmlns:xlink="http://www.w3.org/1999/xlink" x="0px" y="0px"
	 viewBox="0 0 392.7 276" style="enable-background:new 0 0 392.7 276;" xml:space="preserve">
<style type="text/css">
	.st0{fill:#9A9A9A;}
</style>
<g>
	<g>
		<g>
			<g>
				<g>
					<g>
						<path class="st0" d="M6.7,7.3c-0.9,0-1.7-0.1-1.3-0.2c-1.8,0.1-1.9,0-2.1,0.3C2.1,7.6,0.9,7.4,2.2,7.2l-3.4,0.2l2,0
							C0.3,7.7-2.4,7.4-3,7.7l3.7,0L0.5,7.7c0.8-0.1,2.4,0,3,0c-0.1,0,0,0.1-0.7,0.1c4.4,0,1.2-0.4,4.8-0.5C7.4,7.3,7.1,7.3,6.7,7.3
							z"/>
						<path class="st0" d="M10.5,7.9L12,7.6l2.6,0.1c0-0.1,1.9-0.2,0.6-0.3c-0.2,0-0.7,0-1.1,0c0.3-0.2,3.4-0.1,2.7-0.3
							c-2,0.1-2.4,0-3.6,0.2c-1.9,0-3.2-0.1-4.1-0.2c-0.6,0-0.6,0.2-1.3,0.2c0.2,0,0.3,0,0.5,0l0.1,0.3c0.6-0.1,1.1,0,1.8,0L7.1,8
							c1,0.3,3.9,0.1,5.1,0.3C10.7,8,13.4,8.1,10.5,7.9z"/>
						<path class="st0" d="M7.7,7.3C7.7,7.3,7.7,7.3,7.7,7.3C7.7,7.3,7.7,7.3,7.7,7.3z"/>
						<path class="st0" d="M233.5,5.4c0.6,0,0.8-0.1,0.9-0.1l-7.2,0c0.2,0.1,2.3,0.2,0.9,0.3c0.6,0.1,2.5,0,2.8-0.1l-0.5,0.1
							c1.7-0.2,2.8,0.2,1.7,0.3l0.1,0l4.6-0.7C235.2,5.2,235.6,5.4,233.5,5.4z"/>
						<path class="st0" d="M382.1,5.8c-0.9,0-1.1,0.1-0.9,0.1C381.5,5.9,381.8,5.9,382.1,5.8z"/>
						<path class="st0" d="M238,5l1.4-0.2C238.8,4.9,238.3,5,238,5z"/>
						<path class="st0" d="M227.9,8.2C227.9,8.3,227.9,8.3,227.9,8.2l0.7-0.1c0,0,0,0,0,0C228.4,8.2,228.1,8.2,227.9,8.2z"/>
						<path class="st0" d="M270.8,4.3c0.2,0,0.3,0,0.5,0C271.1,4.2,270.9,4.3,270.8,4.3z"/>
						<path class="st0" d="M208.3,9.4l3.2-0.2c-0.4,0.1,1.1,0.1,0.4,0.2c0.2,0,1.4-0.1,1.1-0.1l-0.7,0c1.7-0.3,0.7-0.4,3.5-0.6
							c-1.7-0.2-2.5,0-3.4,0.1c-0.3,0-0.6,0-0.8,0L209,9.3L208.3,9.4z"/>
						<path class="st0" d="M337.3,7.4L337.3,7.4C337.3,7.4,337.3,7.4,337.3,7.4z"/>
						<path class="st0" d="M337.1,7.5l0.1-0.1C337.1,7.5,336.4,7.5,337.1,7.5z"/>
						<path class="st0" d="M237.4,5.2c0-0.1,0.2-0.1,0.5-0.2l-1.1,0.2C237,5.2,237.2,5.2,237.4,5.2z"/>
						<path class="st0" d="M235,5.8l-2.7,0l-1,0.1C232.3,6,233.5,5.9,235,5.8z"/>
						<path class="st0" d="M266.5,4.1c5.6,0-1.4,0.3,1.2,0.4c1.6,0,2.1-0.2,3.1-0.2c-4.5,0.1,0.6-0.5-3.9-0.4
							c0.6-0.3,3.2-0.3,4.8-0.2c1.7,0.3-1.5,0.2-1.9,0.5c1.8,0,1.5-0.1,2.2-0.2c2.8,0.1,5.9-0.3,7.5,0c2-0.1,1.9-0.2,3.1-0.3
							c0.2-0.3-3-0.2-3.8-0.4c0.2,0,0.5,0.1,0.4,0.1l-1.8-0.1c1.7,0.1-0.2,0.3-1.1,0.3c-0.7,0-2,0-1.8-0.1l1-0.1
							c-1.3-0.1-2.8,0.2-4.2,0.1c-0.1-0.1,0.4-0.1,0.5-0.1c-1.5,0.2-3,0.2-5.2,0.3l1.3-0.3c-1.8,0.3-5.8,0.2-8.6,0.1
							c0.3,0,0.9,0.1,0.5,0.1c-1.6,0.1-2.9-0.1-2.1-0.3c-1.6,0.2-6.1-0.2-8.3,0.1l-10.1,1.5c0.4,0,0.8-0.1,1.2-0.1
							c0.9,0.3,1.4,0.2-0.2,0.5c1.6-0.1,1-0.3,3.3-0.3c-0.9,0.1-1.2,0.4,1.1,0.4c5.7-0.3,9.4-1,14.7-1.3c0.2,0.2,4.3,0.1,6.4,0.2
							c-0.8,0.2-2.3,0.3-3.8,0.3c1,0,2.7,0,3.9,0L266.5,4.1z"/>
						<path class="st0" d="M253.4,4.7c0.1,0,0.3,0,0.4,0C253.7,4.8,253.6,4.8,253.4,4.7z"/>
						<path class="st0" d="M261.6,4.5C261.6,4.5,261.6,4.5,261.6,4.5c0.1,0,0.3,0,0.5,0C261.9,4.5,261.7,4.5,261.6,4.5z"/>
						<path class="st0" d="M238.8,5.7c-0.3,0.1-0.6,0.1-0.9,0.1c0.2,0,0.5,0,0.7-0.1C238.8,5.7,238.9,5.7,238.8,5.7z"/>
						<path class="st0" d="M237.6,5.3l0.2-0.1c-0.1,0-0.2,0-0.4,0C237.4,5.3,237.4,5.3,237.6,5.3z"/>
						<path class="st0" d="M288,5.9l0.5,0C288.2,5.8,288,5.8,288,5.9z"/>
						<path class="st0" d="M272.8,4.4c-2,0-0.2,0.3-3,0.3l0.8,0c-2,0.1-5.5,0.1-7.8,0.1c0.3-0.1-1.4-0.1-1.2-0.3
							c-1.6,0-3.2,0.1-4,0.3c-1-0.1-2.5,0.1-3.8,0c0.5,0.1-1.8,0.4,1.3,0.2c-0.2,0-0.1,0-0.3,0.1c2,0.2,2.8-0.1,4.5-0.1
							c1,0.1-1.7,0.2-0.7,0.2c2.1-0.1,6.7,0.1,6.6-0.3c1.6,0,1.8,0.1,2.2,0.1c2.5-0.4,9.1,0.2,9.1-0.4c-0.9,0-2.4,0-3.7,0.1
							L272.8,4.4z"/>
						<path class="st0" d="M242,5.6c0.1,0,0.3,0,0.4,0C242.3,5.6,242.2,5.6,242,5.6z"/>
						<path class="st0" d="M217.4,4l0.8-0.4c4.6-0.1,6.3,0,10.4,0c0.3,0-0.2,0.1-0.4,0.1c2.9,0,7.1,0,9.2-0.1c0.9,0,3.3,0.1,2.4,0.2
							c0.4,0,0.9-0.1,1.5-0.1c0.1,0.1-1.1,0-1.2,0.1c0.4,0,0.6,0,0.7,0c-0.7,0.1,0.7,0.4-2.5,0.4c-1.2-0.3,2.2,0,1.5-0.4
							c-1,0-0.9,0.1-1,0.2c-1.3,0-1.3-0.1-1.2-0.2c-0.5,0.1-2.2,0-2.9,0.1c-2.6,0,0.1-0.3-1.6-0.2l-1,0.3l-2.8-0.1
							c-4.1,0.1,0.6,0.6-4.1,0.8c0.6-0.2-1.3-0.5-3.4-0.5c1.3,0,3.7-0.2,5.4-0.1c-2.4-0.3,3.3,0,2-0.3c-1.2,0.1-3.1,0.2-4.6,0.1
							l0.5,0c-1.6,0-2.8,0.3-5.1,0.2c-1.1,0-0.9-0.1-0.7-0.2C218.2,4,217.4,4.1,217.4,4z M219.8,4l1.5,0C221,3.9,220.4,3.9,219.8,4z
							"/>
						<path class="st0" d="M31.3,7.9c-0.1,0-0.3,0-0.5,0C30.9,7.8,31.1,7.9,31.3,7.9z"/>
						<path class="st0" d="M163.1,8l-0.9,0C162.6,8,162.8,8,163.1,8z"/>
						<path class="st0" d="M143.8,9.2l-1.3,0.1C143,9.2,143.4,9.2,143.8,9.2z"/>
						<path class="st0" d="M41.5,7.9L41.5,7.9c0.1,0,0.2,0,0.2,0L41.5,7.9z"/>
						<path class="st0" d="M105.1,8.3c-0.2,0-0.4-0.1-0.7-0.1C104.4,8.3,104.7,8.3,105.1,8.3z"/>
						<path class="st0" d="M144,9.1C144,9.1,144,9.1,144,9.1c-0.1,0-0.2,0-0.2,0L144,9.1z"/>
						<path class="st0" d="M171.6,9c0.2,0,0.4,0,0.6,0C171.9,9,171.7,9,171.6,9z"/>
						<path class="st0" d="M170.4,8.1c0.2,0,0.4,0,0.5,0L170.4,8.1z"/>
						<path class="st0" d="M200.1,8.8l1.2,0C200.7,8.7,200.4,8.7,200.1,8.8z"/>
						<path class="st0" d="M173.5,8.3c0.1,0,0.1,0,0.2,0C173.5,8.3,173.4,8.3,173.5,8.3z"/>
						<path class="st0" d="M23.9,6.8C23.9,6.8,24,6.8,23.9,6.8L23.9,6.8L23.9,6.8z"/>
						<path class="st0" d="M21.1,7.3c-0.3,0-0.7,0-1,0C20.4,7.4,20.8,7.4,21.1,7.3z"/>
						<path class="st0" d="M88.2,7.8c-0.3,0-1-0.1-0.7-0.2C87,7.7,87,7.9,88.2,7.8z"/>
						<path class="st0" d="M29.6,4.7c-0.2,0-0.4,0.1-0.6,0.1C29.3,4.8,29.7,4.8,29.6,4.7z"/>
						<path class="st0" d="M28.9,4.8c-0.2,0-0.4,0-0.6,0.1C28.5,4.9,28.7,4.9,28.9,4.8z"/>
						<path class="st0" d="M96,5c0.1,0,0.2,0,0.4,0C96.3,5,96.2,5,96,5z"/>
						<path class="st0" d="M19.2,7.3c-0.2,0.1-4.6,0.3-0.9,0.3C18.2,7.9,16,7.7,15,7.8c0.7,0.1-0.4,0.2-0.1,0.3
							c0.5,0,1.1-0.1,1.9-0.1c0.4,0.1-0.9,0.2-1.8,0.1c1.2,0.1-1.5,0.2,0.2,0.3c3.6-0.1,6.1-0.2,8.7-0.5c-2,0.1-4.3,0.1-6,0l0.7-0.2
							c1.9,0.2,3.1,0,4.9,0.1l-4.2-0.1c-2-0.2-0.7-0.2,0.9-0.3C19.7,7.4,19.3,7.4,19.2,7.3z"/>
						<path class="st0" d="M22.1,5.4L22.1,5.4c-0.1,0-0.2,0-0.2,0L22.1,5.4z"/>
						<path class="st0" d="M199.9,4.3l0.4-0.1C200,4.3,199.9,4.3,199.9,4.3z"/>
						<path class="st0" d="M24.6,6.5L24.6,6.5C24.6,6.5,24.6,6.5,24.6,6.5z"/>
						<path class="st0" d="M191,4.3C191,4.3,191,4.3,191,4.3C191,4.3,191,4.3,191,4.3z"/>
						<path class="st0" d="M188.6,9C188.6,9,188.6,9,188.6,9C188.8,9,188.7,9,188.6,9z"/>
						<path class="st0" d="M191,4.3C191,4.3,190.9,4.3,191,4.3C191,4.3,190.9,4.3,191,4.3z"/>
						<path class="st0" d="M147.4,5.1c0,0,0.1,0,0.4,0.1C147.8,5.2,147.7,5.2,147.4,5.1z"/>
						<path class="st0" d="M156,5.5c0.1,0,0.1,0,0.2,0L156,5.5z"/>
						<path class="st0" d="M90.3,8.8c0.4,0,0.7,0,1,0C91,8.8,90.6,8.8,90.3,8.8z"/>
						<path class="st0" d="M191,4.3c0.1,0,0.2,0,0.4-0.1C191.2,4.3,191.1,4.3,191,4.3z"/>
						<path class="st0" d="M134.2,6.2c0.1,0,0.2,0,0.3,0c-0.1,0-0.1,0-0.2,0L134.2,6.2z"/>
						<path class="st0" d="M129.8,6.1c0.2,0,0.2-0.1,0.3-0.1c-1.6,0.1-4.5,0-4.9,0.2c0.5,0,3.4,0.1,2.9,0.3c1.1-0.1,2.8,0.1,3.4,0.1
							c-1.8-0.1-0.2-0.2,1-0.3c1.1,0.1-0.2,0.2,0.8,0.2l2.6,0l-2.3,0l0.7-0.2c-0.1,0-0.1,0-0.2,0C130.2,6.3,133.7,5.9,129.8,6.1z"/>
						<path class="st0" d="M130.1,6c0.2,0,0.5,0,0.6-0.1C130.3,5.9,130.2,6,130.1,6z"/>
						<path class="st0" d="M114.4,5.6c-0.2,0-0.4,0-0.7,0C113.8,5.6,114.1,5.6,114.4,5.6z"/>
						<path class="st0" d="M229.3,6c-0.1-0.1-2.3-0.2-2.3,0c0.7,0,1.3,0,2,0.1L229.3,6z"/>
						<path class="st0" d="M71.6,6.6c0.2,0,0.5,0,0.7,0c0.1,0,0.1,0,0.1,0C72.4,6.5,71.9,6.6,71.6,6.6z"/>
						<path class="st0" d="M127.4,6.6c0.4,0,0.6-0.1,0.7-0.1C127.8,6.5,127.5,6.5,127.4,6.6z"/>
						<path class="st0" d="M71.5,6.2c-0.3,0-0.8-0.1-0.9-0.2c-0.6,0-1.1,0.1-1.8,0.1C69.6,6.1,70.5,6.1,71.5,6.2z"/>
						<path class="st0" d="M68.8,6.1C68.9,6.1,68.9,6.1,68.8,6.1C68.9,6.1,68.9,6.1,68.8,6.1z"/>
						<path class="st0" d="M230.7,6c0.2,0,0.4,0,0.6,0l-0.3,0c0.5,0,1,0,1.5,0.1c0.2,0,0.4,0,0.6,0c-0.1,0-0.2,0-0.2,0
							c0.2,0,0.3,0,0.5,0c1.2-0.2,4.3-0.3,5.2-0.4c1.2-0.1,2.6-0.1,3.5-0.1c-0.8,0-1.9,0-1.6,0.1c1.7,0.1,2.5,0.4,5.4,0.1l-1.7,0
							l3.8-0.4c1.3,0.2-1.9,0.2-2.4,0.3c3-0.2,5.5,0.3,6.8,0c0.2,0.2,0.5,0.5,2.5,0.5c-1.4-0.2,1.2-0.1,0-0.4
							c0.7-0.1,2.2,0.1,2.3-0.1L257,6c3.3,0.3,4.4-0.2,5.9-0.3c4-0.1,5.8,0,9.1,0c0.1,0.1,1,0.5,2.3,0.5c0.6-0.2,3.6-0.3,3.9-0.5
							c-2.3-0.1-1.9,0.2-3.3,0.2c-1.2-0.2-0.1-0.2-1.7-0.4c1.3,0.1,5.8-0.1,7.2,0.1l-0.5,0c2.2,0.1,2.7,0.7,6.4,0.4l1.8-0.1
							c-0.1,0-0.1,0-0.1,0.1c2.9,0,2.1,0.3,5.3,0.1c-0.2,0-0.1,0-0.3,0.1c1.8,0.1,3.7-0.1,5.1-0.2c0.8,0.2-0.2,0.2-0.7,0.3
							c3.2,0.1,6.7-0.2,8.7-0.5l2.1,0.1c-1.2,0.1-2.7,0.3-2.4,0.4c1.1,0,0.9-0.1,2.5-0.1c-0.3,0.1-1,0.2-1.7,0.4
							c3.4,0.2,0.7-0.4,3.1-0.1c1.1,0,1.7-0.2,1.8-0.3l1.9,0.2c0.2-0.2,2.6-0.2,4.1-0.2c0.2-0.1-1.2-0.2-1.8-0.1
							c0.1-0.1,1.8-0.2,2.8-0.2c0.4,0.4,6.9-0.1,5.7,0.4c4.7-0.1,11.4-0.2,14.5-0.3c1,0.1,3.1,0.1,1.9,0.3c3.8,0,5.8-0.4,9.6-0.3
							c0.3,0-1.7,0-1.6,0.1c2.5-0.2,4.5,0.2,8.3,0.1c-0.6,0-0.8,0.1-0.9,0.1c-0.1-0.1,1.6-0.1,2.6-0.2c0.6,0-0.7,0-0.4,0.1
							c7.4,0.2,13.1-0.3,20.5-0.3c-2.1,0-2.9,0.3-2.9,0.4l2.1,0c0.8-0.1,2.3-0.1,3.6-0.2c0.2,0,0.8,0.1,0.1,0.2
							c4.1,0.3,6.4-0.5,11.4-0.3l-6.1,0.5l1.5,0.2l-2.7,0.2c1.6,0.1,3-0.2,3.2,0c-0.3,0.1-1.1,0-1.2,0.1c1.5,0.1,1.6-0.1,2.8-0.1
							c-3,0.4-9,0.4-12.1,0.5c-0.5,0,0.4-0.1,0.5-0.1c-1.3,0-2.1-0.1-3.7,0c-1,0.2,0.8,0.1,1.6,0.1c-0.1,0.1-0.5,0.1-1.4,0.2
							c-0.2-0.2-4.9-0.1-6.1-0.3c-4.8,0.1,0.8,0.5-3.9,0.4l-1.4-0.2c-2.7,0.2-6.2,0.3-9.3,0.3l0.6,0c0.4-0.1-0.3-0.2-0.6-0.2
							c-2.3-0.1-4.4,0.2-5.8-0.1c-2.7,0.2-7.1,0.4-10.1,0.5c-0.8-0.3,4-0.2,5.2-0.4l-2.8,0c1.7,0,2.4-0.1,3.4-0.3
							c-2.4-0.1-3.2,0.2-5.5,0.3c0.2-0.1-0.1-0.1-1.2-0.1l-0.3,0.2c0,0-0.1,0-0.5,0l-4.1,0.1c0.9,0.1,0.9,0.3,2,0.3
							c-0.4-0.1,0.5-0.1,1.6-0.1c-0.9,0.1,1,0.1,1,0.2c-2.1,0-4.7,0-6.1,0.1l-0.5-0.2c-2,0-4.2,0.1-5.5,0l0.4-0.1
							c-2.4-0.1-4.8,0.1-7-0.1c-2.2,0.2-4.9,0.4-6.6,0.6c-0.9,0.2-6.3-0.3-8.8,0c-0.2,0,1.7-0.2,2.5-0.3c-1.6,0-2.9,0.3-3.4,0
							c3.6,0.1-0.2-0.2,1.4-0.3c-1.7,0-3.5,0-4.3,0.1c2.8,0-1,0.3,1.8,0.2c-2.2,0.2-5.1,0.3-7.7,0.2c0-0.1-0.3-0.2-1.3-0.2l-0.8,0.2
							c-1.2,0,2.3-0.2-0.1-0.2c-2.5,0.3-7.5-0.2-8.6,0.3C281,8,286.5,8,283.6,7.8c1.7-0.2,4,0,4.5-0.2c-1.6,0.1-0.6-0.2-1.7-0.2
							l-1.8,0.1l0.4,0c-3.1,0.2-7.9,0.1-11.8,0.2c-3.3,0.2-5.6,0.6-9.6,0.6c1.2-0.1-3.3-0.1-0.8-0.4c-1.8-0.1-3.7,0-3.7,0.1
							c1.6,0,0.6,0,1.9,0.1c-0.9,0.1-3,0.1-3.9,0c0.4,0,0.2,0,0.3-0.1c-1.9-0.1-0.9,0.1-2.3,0.2c-0.4-0.2-3.1,0-4.4-0.1l-1.8,0.3
							c1-0.2-1.8-0.1-2.1-0.2c-1.3,0.1-2.4,0.3-4.5,0.3c0.8-0.1-1.8-0.1-1.9-0.3c-3.5-0.2-5.7,0.5-9,0.2c0.1,0,0.8-0.2-0.2-0.2
							c-0.8,0-2.1,0-2.9,0l0,0c0,0,0,0,0,0c-0.4,0-0.6,0-0.7,0.1c-1.4,0.2-2.1,0.3-4.8,0.5c0.2,0.2,2.5,0.1,3.5,0.1l0.9-0.2
							c0.8,0.3,2.4,0,3.1,0c-1.6,0.3-6.3,0.3-9.1,0.5c1.7,0.3,5.4,0.3,8.7,0.3l-1.4-0.1l1.7,0l-1.6-0.2c1.6,0,3,0,4.5,0
							c-1.7,0-2.4-0.3-1.4-0.2c1.9,0.2,2-0.1,3.4-0.1c-0.8,0-1.9,0-1.2-0.1c2.9,0.2,3.6,0.1,6.2,0.3c-0.3-0.3,3.3,0,3.6-0.3l-1.2,0
							l2.6-0.2c2.4,0.3-2.1,0.3,1.5,0.5c3.3,0,3.2-0.3,5.9-0.3c-0.9,0.2-2.9,0.4-5,0.4l1.3,0.1c-0.7,0.1-3.6,0.1-5,0.1
							c2.4-0.2-1.1-0.1-2.2-0.2C241.4,9,243,9,241.1,9.1c1.7,0,2,0,4.1,0.1c-4.7-0.1-4.2,0.6-8.3,0.5c1.9-0.1-0.7-0.3-0.9-0.4
							c-0.9,0-2.7,0.1-3.4,0.1l0.7,0.3c-2.4,0.1-3.2-0.5-6-0.2c-0.4,0.2,2.4,0.1,1.9,0.1c-3.8,0.2-5.1-0.3-8.5-0.5
							c-0.2,0.1-0.2,0.3-1.3,0.4c0.4-0.2-0.5-0.2,0.8-0.4c-1.1-0.1-2.4,0-3.4,0.1c2.3,0.1-1,0.2-1.4,0.3c-1.2,0,0.4-0.2,1.1-0.2
							c-1,0-2.1-0.3-2.7,0c0-0.2,2.7-0.4,4.5-0.5l-1.2,0c0.8-0.1,1-0.1,2.2,0c-1.2-0.1-1.1-0.3-0.8-0.4c0.2,0-0.1,0,0.1,0.1
							c1,0,1.7,0,1.5-0.1c0.9-0.2-1.3-0.1-2-0.3c-0.5,0-1,0-1.5,0l-5,0.7c-2.2,0.1-3.1-0.1-4.7-0.2l-0.4,0.2c-1.9,0-3.6-0.1-2.4-0.3
							c0.1,0.1,0.3,0.1,0.7,0.1c0.1,0,0.1,0,0.3-0.1c0,0,0.1,0,0.1,0c-2,0.1-3.3,0.1-3.4,0.1c3.4-0.3,0.2-0.4,0.7-0.7L199,8
							c2.1,0.1,0,0.2-0.7,0.2c-0.2-0.2-2.8,0-4,0l0.1,0c-1.1-0.1-3.1-0.1-4.5,0c0.1,0.1-1.7,0.4-2.6,0.6c2.4,0.1,1,0.2,1.2,0.3
							c-0.2,0-0.7,0-0.7,0c-0.3,0.1,0.5,0.1,0.5,0.1c2.5-0.1,5.1-0.1,6.2-0.4c-0.8-0.1-1.3,0.1-2.2,0c1.3-0.2,2.9-0.1,5-0.1l0.7,0.2
							l2.1-0.1c-0.9,0.1-0.4,0.3-2.6,0.3c0.3,0.2,2.2,0,3.6,0l0.7-0.2c-0.3,0.1,2.6,0.1,0.6,0.3L199,9.3l0.9,0.1l-2.9,0l0.7-0.1
							c-4.6,0.1-1.4-0.4-6-0.2c-1.4,0.3-3,0.3-5.8,0.2c2-0.1,0.2-0.2,1-0.3c-2.1-0.1-2.8,0.1-3.9,0.2c-0.5-0.1-0.9-0.3,1-0.2
							c0.2-0.3-2.5,0-2.6-0.3c-6.2,0-4.9,1-12.2,0.6l0.3-0.1c-4.6,0.1-7.2,0-11.5,0.1l-3.3-0.3c0.7,0,2.8-0.3,1.8-0.4
							c1.6,0.3,3.3,0.2,5.1,0.4c0.2-0.1-0.5-0.1-0.8-0.2c1.1,0,1.6,0.1,3,0.1c-0.1-0.1-1.6-0.1-0.4-0.2l1.9,0.2
							c2.5-0.1,1.3-0.5,4.2-0.4c-0.6,0.2-1.7,0.4-2.8,0.5c1.4,0-1.8,0.1-0.6,0.2c2-0.3,2.9-0.1,5.5-0.2c-0.3,0-0.4,0.1-1,0.1
							l3.8,0.1c-0.9-0.1,3.1-0.2,2.8-0.4c-4-0.1-2.9,0-7.5-0.1c1.3,0,3-0.3,3.8-0.5c0,0,0.1,0,0.2,0c0.7-0.2,0-0.3,0-0.7
							c-2.1,0.3-3.5,0-6,0.2c-0.5,0.2,1.4,0.3,2.7,0.2l-2.2,0.1l0.4-0.1L163.1,8c1,0,1.4-0.1,2-0.2c-0.7,0-1.4-0.1-2.2-0.1
							c0.2,0.2,0.1,0.3-0.6,0.3c-3.6,0-5.5-0.2-6.9-0.5c-0.1,0-0.3,0-0.4,0c0.6,0.2-2.5,0.4-3.6,0.6c0.1-0.2-1.8-0.1-2.9-0.2
							c-0.5,0.2,0.2,0.6,1.4,0.8c2.4-0.2,1.4-0.2,2.5-0.5l3.9-0.2l-0.9,0.2c1.9,0.1,3.8-0.2,3.6,0.1c-1,0.2-2.7,0.1-3.7,0.2l1.3,0.1
							c-2.3,0.2-1.2-0.2-3.9-0.1c1,0.2-0.2,0-1.4,0.2c0.9,0.1,4.8-0.1,4,0.3c-1.4,0.2-4.8-0.4-6.6-0.1l0.1,0c-2.8,0-3.7,0.2-4.8,0.3
							c-1.2-0.1-2.8,0-4.1,0.1l0-0.1l-1.8,0c0.9-0.2,2.1,0,3.7,0l-0.2-0.2c1.8,0.2,3-0.1,4.4-0.3c-2,0.2-5.7-0.1-6.2,0.3l-1.2-0.2
							l-0.6,0.1c-0.9-0.1,0-0.4,1.8-0.4c0.3,0,0.5,0.1,0.4,0.1c0.8-0.1,1.6-0.2,3.6-0.2l-1.1,0.1c2.5,0,4.8-0.1,5.7-0.3
							c-3.6-0.1-7.2-0.1-10.6-0.1c-1,0.4-2.2,0.7-2.7,1.1c-2.3,0.1-5.4,0.1-7.4,0l0.2-0.1c-1,0-1.9,0-2.6,0c-1-0.1,0.7-0.2,0-0.3
							L121.9,9c0.2-0.2,3-0.2,4.3-0.2c-0.2,0-0.7,0-0.6,0.1c1.5,0.1,4.4-0.2,5,0c0.7,0-1.5,0.2,1,0.2c1.7,0.1,2.2-0.1,2.4-0.2
							c0-0.1-2.6-0.1-1.7-0.3c-1.3,0-1.8,0.1-3.5,0c1.3,0,3.1-0.2,3.8-0.1c2.6-0.2,2.2-0.7,1-0.7c0.3,0.2-4.7,0.2-1.3,0.4
							c-1.5,0.2-4.3,0.2-6.3,0.3l0.1,0l-2.5,0c0.3-0.1,1.1-0.1,1.1-0.2l-3.4,0.3c1.9-0.2-1.2-0.1-2.1-0.2c-0.4,0.2-1.7,0.3-0.4,0.4
							c1.4,0.1,0.8-0.1,2.1-0.1L119.1,9l-0.2,0l-1.1,0.2c-2.5,0,1.1-0.5-2.1-0.3l0.4,0.3c-3.7,0-8.5-0.4-11.1-0.2
							c0.7-0.2,1-0.4,0-0.6c1.1,0,3.4,0,5,0c0.3,0.1-2,0.3-3.8,0.3c0.9,0.5,4.5-0.3,4.7,0.2c4.5,0.2,3.4-0.5,7.2-0.2
							c0.1-0.2,1.1-0.1,1.3-0.3c-1.1-0.3-5.1,0-7.6-0.1c0.2,0,0.7,0,0.8-0.1c-1.8-0.1-2.5,0-3.7,0.1l0.2,0c-2.2,0.2-1.3-0.2-2.6-0.3
							c-0.5,0-2.3,0-2,0.1l-2.3-0.2l0.1,0.2c-1.3,0-1.6-0.1-2.8,0l-0.1,0.2l3.2,0.1c-1.6,0.1-0.5,0.2-2.3,0.2c2-0.2-1.4-0.1-1.6-0.3
							l-1.3,0.1l0.3-0.1c-1-0.1-1.2,0.1-2.5,0c1.4,0.1,2.4,0.3,4.2,0.1c-1.3,0.1-4,0.2-4.6,0.3c-1.4,0.1-2.4-0.1-3.7-0.1
							c2.5-0.1-0.9-0.6,4.1-0.5c-0.1,0-0.5,0-0.7,0c0.7,0.3,3,0,4.1-0.1C98.6,8,99.7,8,97.8,7.9c0.6,0.1-1.6,0.3-3.5,0.2l0.3-0.3
							l-2.7,0l0.2,0c-1-0.2-2.9,0-4.7-0.1c-1.3,0.1-6.4,0-4.2,0.4c-1.7-0.2-3.1,0.1-4.9,0.1l2.2,0.1c-2.7,0.2-1.9,0.1-4,0.5
							c-0.2-0.1-0.7-0.2-0.3-0.3c-3.6,0-8.7-0.1-10.8,0.2c-2.5,0-2.9-0.4-6.4-0.3c-0.7,0,0.6,0.3-1.8,0.2c-0.2,0,2.2-0.2-0.4-0.2
							c-1.9,0.3-4.4-0.1-6.8,0.1c-1.3-0.1-3.5-0.1-3-0.3c2,0,4.9,0,5.3-0.1c-0.3,0.1,1.4,0.1-0.1,0.2c3,0.2,2-0.1,4.7,0
							c0.2-0.1-1.4-0.2-2-0.2c0-0.3,5.4-0.1,3-0.5c-2.9,0-3.8,0.5-6.3,0.3c1-0.2,2.6,0,3.9-0.3l-2.1-0.1l-1.5,0.2l0.1,0
							c-3.7-0.3-3.4,0.3-6.7,0.4c1.9,0.2-0.4,0.5,1,0.6c-2.2,0-3.8,0-3.8-0.3c4.1-0.2,0.2-0.3,4-0.6c-0.6-0.1,0.9-0.4-1.4-0.4
							c-2.6,0.2,0.8,0.2-1.8,0.3c-0.2,0-0.3,0-0.2-0.1c-1.2,0.1-1.4-0.1-2.8,0.1L41,7.6c-1.7-0.2-1.9,0.2-3.4,0
							c0.6,0.2-1,0.2-1.9,0.3C37.2,8,38,8.3,41,8.3c0.4-0.2,0.1-0.3,1.4-0.3l-2,0c0.4,0,0.7-0.1,1.1-0.1L43.4,8
							c-2.4,0.1-1.3,0.3-2.3,0.5c-2.2-0.1-1.8,0-3.2,0c0.1-0.2-4.2-0.4-6.7-0.6c0.4,0,0.9,0,1.2,0c1.8-0.1-1.3-0.2-1.3-0.3l-1.3,0.1
							c0.2,0,0.6-0.1,0-0.1c-1.8,0-1.7,0.3-3.5,0.3c-0.1-0.1,1.4-0.3,0.3-0.4c-0.4-0.1-1.6-0.4-4-0.3c-0.2,0.1-0.8,0.1-1.5,0.1
							c0.1,0,0.2,0,0.3,0l-1.6-0.1c1.3-0.2,2.7,0.1,4.1-0.1L24,6.8c1.1,0,2.5-0.1,3.1-0.2c-1.6,0-1.9,0-3.7,0.1
							c-0.3-0.1,1-0.2,1.2-0.2l-0.3,0.1c2.1,0.2,3.2-0.2,5.9-0.2c0.4,0,0.2,0,0.1,0.1c2.2-0.2,4.3,0.1,6.4-0.2L36,6.4
							c1.4-0.1,4.2-0.3,7-0.5l0-0.1c-0.3,0,0.7,0,1.3,0l0,0c1.4-0.1,2.7-0.2,3.9-0.3c-0.4-0.1-0.8-0.1-1.3-0.1c-0.4,0.1-3,0-2.7,0.2
							c-1.2-0.1-3.1,0.1-4,0c1.6,0.1-1.1,0.2-1.4,0.3c-0.5-0.1-2.4,0-2.1-0.2c-0.3,0,0.8,0.1,1.5,0c1.7-0.2-3-0.2-1-0.3
							c-2.6,0.1-6.1,0.1-8.8,0.2l1.5,0.1c-1.2,0-4.1,0-4.3-0.1c0.9,0,1.9,0,3.1-0.1c0.1-0.2-2.8,0-2.9-0.1l-3.3,0.3l1.5,0
							c-0.9,0.1-4,0-6.2-0.1c1.3-0.3,3.4,0,5.8-0.1c1.7-0.1-1.1-0.3,0.6-0.3c-0.4-0.1-1.5-0.1-2,0l-0.6-0.1c1.5-0.3,4.7-0.2,6.9-0.4
							c-0.2,0-0.4,0.1-0.4,0.1c1.7,0.1,3.4,0.1,5,0C32,5,31.7,5,31.2,5c-0.1-0.1,1.5-0.1,2.1-0.2C31.7,4.8,33,4.7,32,4.7
							c1-0.1,1.8,0,3,0c0.6,0.1-0.5,0.1-0.4,0.3c1.2-0.1,1.8,0.2,3.6,0.1c-2.4-0.1,0.6-0.3,1.5-0.4l-0.4,0c0.8-0.2,1.4-0.2,2,0
							c-1,0.1-2,0-1.7,0.2c0.7,0,1.3,0,2.1-0.1L41,4.8l3.3,0c0.5-0.1,1.4-0.3,1.8-0.5c0.8,0.1,1.9,0,2.6,0l-0.3,0.1
							c1.4,0.1,4.6,0,4.9-0.1c1,0.1-7.3,0.8,0,0.7c2.8,0,1.7-0.4,3.3-0.5c0,0-0.1,0,0.1,0.1c1.2,0,1.3-0.1,2.3-0.2
							c-0.7-0.1-1.8-0.1-2.1,0c0.4-0.2,2.5,0,3.4-0.1c-1.2,0.2,2.3,0.1,1.4,0.2c2.4,0.2,5,0,6.2-0.2c1.6,0.3,2.9,0,5.5,0.1
							c-0.4,0-1.1,0-1.7,0c-1.5,0.2,2.7,0.1,0.4,0.3c0.5,0,0-0.1-0.5-0.1c-0.9,0-1.7,0.1-1.5,0.2l2.2,0.2l-0.8,0l3.3,0.2
							c0.1,0-0.2-0.1-0.4-0.1c3.8,0.1,8.1,0,11.5,0c0.6-0.6,8.2-0.2,10.9-0.6C96,4.6,95.6,4.9,96,5c-0.6,0-1.8,0.2-3.2,0.2
							C92.6,5.1,91,5,92,4.9c-3.8,0.1,0.5,0.2-0.6,0.5c4.2-0.1,6.6-0.4,9.2-0.5l0.1,0.1l2-0.1c-1.6,0-1.5-0.4,0.5-0.2l-0.3,0
							c1.2,0.1,3.7,0,5.5,0l1.3-0.2c1.9,0,1.9,0.4,2.5,0.6c2.9,0,4.6-0.3,6.7-0.4c0.9,0.1,5.3,0.2,3,0.4c2.6-0.1,2.1-0.9,6.6-0.5
							l-1.2,0.1c4.3,0,10.5-0.3,12.5-0.2c-1.6,0.5,5.4,0.5,6.2,1c-0.2-0.1,1.4-0.2,1.6-0.2c0.4,0.1,0.9,0.1,1.6,0
							c-1.7-0.1,1.2-0.5-2-0.3c1.6-0.3,3.7-0.6,7.3-0.6l-0.1,0.2l-2.8-0.1c0.3,0.2-1.2,0.1-1.8,0.2c5.3,0.1-0.7,0.5,4.7,0.5
							c0.5-0.1,0.2-0.1,1.6-0.1c-0.7,0-0.8,0.2,0.3,0.2l1-0.2c1.9,0.4-3.1,0.2-1.5,0.5c-2.1,0.2-5.7,0.3-5,0.5
							c3.4,0.1,3-0.5,6.6-0.4l0.4,0.1c1.2-0.1,1.4-0.3,2.1-0.4c0.1,0.1,0.4,0.1,1.2,0.1c2.1-0.3,3.5-0.3,5.4-0.6
							c-5.2,0.2-4.4-0.2-9.7,0c0.8-0.1,4.6-0.1,4.8-0.4l0,0.2c1.7-0.1,3.5-0.2,5.6-0.1L166,4.6c2.9-0.1,4.8,0.3,7.1,0
							c-0.8,0-1.5,0-2,0c1.5-0.1,3.3-0.1,5,0l3.3-0.3c0,0.1,2.1,0.1,1.1,0.3c2.4,0.2,3.5-0.2,4.9-0.2c2.5,0.2-2.1,0.1-2.4,0.4
							c3.4,0.1,7,0,8.9-0.2c-0.7,0-1-0.1-1-0.1c0.1,0.1,1.5,0,2.2,0.1l0.5-0.1c1.3,0.1,1.1,0.2,0,0.3c1.2,0,2.7-0.2,3.9,0
							c-2.1,0.2-4.7,0-5.8,0.1c4.3-0.1,4.4,0.4,9.8,0.2c0.1,0.1-0.9,0.2,0.2,0.2c2.4,0,0.6-0.3,1.4-0.4c-1.9,0.1-2.8,0-3.9-0.2
							l0.5-0.1c0.1,0.1,1.3,0.1,1.6,0.1l0.3-0.2c-0.1,0.3,1.8,0.4,3.2,0.3c-1.5-0.2-1.1-0.2-1.5-0.5c2.1-0.3,2.4,0.3,4.7,0
							c-0.2,0.1-2.2,0.1-0.5,0.2c1.5,0,1.3-0.2,2.3-0.2c-1.1,0.2-0.8,0.4-2,0.6c-2.6,0-1,0-3.6,0.1l2.2,0.2c-2.2,0-1.6,0.2-1.8,0.3
							c3.8,0.2,2.8-0.3,5.3-0.3c1.2-0.1-2.3,0-0.4-0.2c2.3,0,0.5-0.1,3.1-0.2l-0.4,0.1c0.8,0.1,1.5,0,2.4,0c1-0.1-1.1-0.7,2.9-0.7
							C217.5,4,217.4,4,217.4,4l-4,1.8c4.1,0,8.9,0,13.6,0.2c1.1,0.3-3.4,0.3-3.1,0.4l-2.2-0.1c0.1-0.1,4.6,0,2.6-0.3
							c-3.8,0.1-5.6-0.1-9.2,0.2c1.1,0.3,4.8-0.1,7.2,0.2c-1,0-1.8,0-2.7,0.1c2.2,0,4.6,0.1,7.1,0.1l0.6-0.1c-1.7,0-2.9-0.1-3-0.1
							c2.3,0,4.2-0.2,4.3-0.4l-0.4,0l0.8-0.1C229.6,6,230.1,6,230.7,6z M377.5,6.2c-0.1,0-0.2,0.1-0.3,0.1
							C377.2,6.2,377.1,6.2,377.5,6.2z M186.3,6.9c3,0,6.1,0.1,9,0.1c-5.2-0.5-8.9-0.9-0.2-0.9l0.6,0c-1.1-0.1-3.1-0.1-5,0
							c-1.5,0.2-6.3,0.8-6.3,0.9c0.5,0.1,1.3,0,2.3,0L186.3,6.9z M184.2,6c-1.7-0.1-1.3,0.1-1.6,0.2c0.6,0,1.2,0,1.8,0
							C184.2,6.1,184,6.1,184.2,6z M182.7,6.3c0.2,0,0.4,0,0.4,0L182.7,6.3z M216,6.4c-0.1,0-0.1,0-0.2,0c0.4,0,0.8,0,1.2,0
							C216.9,6.4,216.6,6.4,216,6.4z M212.5,6.2l-0.4,0.2c0.4,0,0.8,0,1.2,0C213.1,6.3,213,6.2,212.5,6.2z M201.3,5.6
							c-0.7,0.2-3.1,0.2-3.2,0.5c-0.2,0.1,0.3,0.1,0.9,0.1c0.6,0,1.3,0,2,0c0,0,0.2-0.1,0.4-0.1c-0.7,0-1.2-0.1-0.9-0.2
							c1.8,0.3,1.6-0.2,3.5-0.2C204.7,5.5,201.9,5.5,201.3,5.6z M53,6.2c-0.1,0-0.2-0.1-0.5-0.1l1.4-0.1C56.3,6,58.2,6.3,60.4,6
							c1,0.1,1.6,0.2,2.1,0.4c-0.5,0-1,0-1.4,0C55,6.8,58,5.9,53,6.2z M80.9,6.6c-0.2,0-0.3,0.1-0.3,0.1c5.4-0.5,9.9-0.6,12.8-0.6
							c-0.6-0.2-3.2-0.3-4.4-0.4L90,5.5l0.7,0.2l1.9-0.2c-0.5-0.1-2.1-0.1-3.1-0.2c-0.1,0-3.4,0.3-4.3,0.4l2.6,0.1
							c-0.7-0.1-4.2,0-5.6,0c0,0.1,2.4,0.3,2.7,0c0.3,0.2-2.5,0.2-0.7,0.3c-2.1,0.2-5.4,0-6.9-0.1L77,5.9c-1.7-0.1-1.1,0.3-3.1,0.2
							c2.4,0-0.4-0.3,1.5-0.3c-0.6-0.1,0-0.3-2-0.3c-1.6,0.3-2.1-0.2-3.6,0.1c-1-0.1,1.1-0.2-0.9-0.3c-2.3,0.2-2.2,0.3-2.3,0.6
							c2.2,0.1,2.4-0.3,4.2-0.3l-3.5,0.4c0.6,0.1,1.1,0.1,1.5,0.1c-0.7,0-1.3,0.1-1.8,0.2c-0.3,0-0.6,0.1-0.8,0.1c2,0,3.8,0,4.1,0.1
							L70,6.7c0.7,0.1,1.9,0,2.4-0.1c1.8,0,3.6-0.2,4,0l-0.7,0.1C77.9,6.6,78.1,6.6,80.9,6.6z M153,6.9c-1.3-0.4-2.8-0.8-9-0.8
							l0.5,0c-3.1-0.3-6.1,0.4-9.9,0.1c1.8-0.2,1.8-0.2,3.8-0.5l-2,0.1c0.6-0.2-1.4-0.1-2.9-0.1l1.3-0.3c0.9,0.1,3.1,0.1,3.1,0
							c-0.5,0,3,0.4,4.9,0.3c-0.2-0.2-4.2-0.1-2.4-0.4c-1.6,0.1-1.8-0.1-3.4,0c1.6-0.1,0.4-0.3,1.6-0.4l-2.7,0.1
							c-0.1-0.1,3.9-0.1,1.7-0.4c-1.1,0.1-4,0-4,0.2l-0.1-0.1c-2,0-0.9,0.3-3.4,0.2c0,0.1,0.4,0.2,1.3,0.2c0.8,0,0.9-0.2,2.4-0.2
							c0.7,0.2-1.9,0-0.8,0.3c0.5,0.1,4.1-0.1,3,0.2l-2,0c-0.1,0.2-1.5,0.2-1.5,0.4c-1.2,0.1-2.4-0.2-3.7,0
							c-0.5,0.1,0.4,0.4-1.7,0.3c-1.6-0.3-6.4-0.3-8.2-0.2l-1.6,0.1c0.1,0.1,3,0,2,0.2l-2.5,0l0.2-0.1c-0.8,0-1.6,0.1-2.4,0.1
							c0.8-0.2,2.5-0.1,2.2-0.3c-1.2,0-1.3-0.1-2.4-0.1c0.2,0,0.4,0,0.4-0.1c-2.3-0.1-2.3,0.2-2.8,0.3c-2.3,0.3,2.4,0.3,2.1,0.5
							l-6.8,0.1c0.6-0.1,1.2-0.1,1-0.2c-1.7-0.1,0-0.2-2.4-0.2c0.2,0.3-3,0.2-4.6,0.4c-0.8-0.1-0.9-0.1,0.8-0.2
							c-0.2-0.2-2.5-0.1-3.3-0.1c-0.5,0-1.3,0.1-1.8,0.1c0.7,0.1,0.4,0.2-1.1,0.3l-0.1,0c2.4,0.1,6.2,0.3,7.7,0.1l-0.4,0.1
							c2.8,0.2,6.1-0.3,7.4,0c-0.1,0.1,0.6,0,0.5,0.2l2.1-0.2L112.4,7l3.5,0l-0.1,0c1.7-0.2,3-0.3,4-0.5c0-0.1-0.1-0.1,0.5-0.2
							c0.6,0,1-0.1,1.4,0c0,0,0,0,0,0c0,0,0,0,0,0c0.9,0,1.4,0.2,2.5,0.2l-3.3,0c-0.3,0.2,0,0.3,1.6,0.4c-0.7,0-0.9,0.1-0.1,0.1
							c0.1,0,2.1-0.1,1.4-0.2c3.1-0.1,8.1,0.4,12.8,0.1c-3.4,0.2,2.7,0.2-1,0.3c2.6,0.3,2.3-0.2,4.9-0.2c0.2,0.1-1.5,0-2.1,0.2
							c4.4,0.1,7.5-0.4,11.8-0.3l0.2,0.2C151.1,7,152,7,153,6.9z M161.5,6.7c0.8,0,1.7,0,2.5-0.1c-0.1,0-0.2,0-0.2,0l2.5-0.2
							c-1.5-0.1-2.5-0.3-0.4-0.4c-0.2,0.1,0.4,0.2-0.3,0.2c1.4,0.1,4.6,0.2,3.8-0.1c-2.7,0.3-0.6-0.4-2.8-0.2
							c1.2-0.2,2.3-0.1,3.4-0.2c-1.1,0.2,0.3,0.4,2,0.4c0.7,0,2.8,0,4-0.1c-0.4-0.2,0.6-0.3-1.4-0.3c0.7,0,1.9-0.1,3.2,0
							c-0.5,0-1.4,0.1-1.3,0.1c0.8,0.2,1.8,0.2,2.3,0.2c0.4,0,0.9,0,1.3,0c-0.1,0-0.2,0-0.3-0.1L181,6c-1.9,0.1-0.9-0.1-0.8-0.2
							c-0.1,0.2,1.2,0,1.9,0l-1.4-0.2c0.7-0.1,2.4,0.2,2-0.1c-3-0.1-4.1-0.1-6.8,0l1.1,0.2c-3,0.1-1.9-0.3-5.3-0.3
							c-1.4,0.2-5.1,0-5.2,0.3c0.4-0.1-2.1-0.3-3.3-0.1c-1.3,0.3-5.2,0.3-4,0.5c1.1,0,2.5-0.2,3.3,0l-2,0.1l1.3,0.2
							C161.1,6.3,161.1,6.5,161.5,6.7z M207.3,8.5C207.3,8.5,207.3,8.5,207.3,8.5C207.3,8.5,207.3,8.5,207.3,8.5L207.3,8.5z"/>
						<path class="st0" d="M22.7,6.8c-0.6,0.1-2,0.1-1.8,0.2C20.9,6.9,23.5,7,22.7,6.8z"/>
						<path class="st0" d="M21,6.7c-0.1,0,0,0.1-0.7,0.1l1.8,0L21,6.7z"/>
						<path class="st0" d="M19.1,5.5c-0.9,0.1-1.5,0.2-3,0.2c-0.5-0.4,2.4-0.1,3-0.5c-2.7,0-3.5,0.3-5.7,0.4
							C14.6,5.7,19.1,5.8,19.1,5.5z"/>
						<polygon class="st0" points="20.3,5 18.8,5.1 19,5.1 20.5,5 						"/>
						<path class="st0" d="M52.5,8.6c0.1,0.1,1.1,0,1.6,0C53.6,8.5,53.1,8.5,52.5,8.6z"/>
						<path class="st0" d="M344.1,8.8l11.3-0.1C352.2,8.8,349.2,8.8,344.1,8.8z"/>
						<path class="st0" d="M90,7.8c-3,0.1-4.4,0.3-7.5,0.4c4.1,0.3,5.4-0.4,8.8-0.1L90,7.8z"/>
						<path class="st0" d="M89,8.8c-0.5-0.2,2.3-0.3,1.9-0.5c-2,0.1-1,0.2-2.8,0.2L89,8.8z"/>
						<polygon class="st0" points="75.2,4.7 76.1,4.6 75.4,4.7 						"/>
						<polygon class="st0" points="102.8,8.6 102.5,8.6 104,8.7 						"/>
						<path class="st0" d="M102.1,8.7l0.3-0.1L102.1,8.7z"/>
						<polygon class="st0" points="76.4,4.2 75,4.2 74.3,4.3 						"/>
						<path class="st0" d="M88.5,5.5l-1.2,0.1C87.5,5.6,89.2,5.7,88.5,5.5z"/>
						<polygon class="st0" points="112.1,8.7 113.6,8.6 113.5,8.6 112,8.7 						"/>
						<path class="st0" d="M98.1,4.9c-0.8-0.2,2.4,0,0.7-0.2C97.2,4.7,97.8,4.8,98.1,4.9z"/>
						<path class="st0" d="M116.1,6.1c0.2,0,0.4,0,0.6,0C116.4,6.1,116.2,6.1,116.1,6.1z"/>
						<path class="st0" d="M116.1,6.1c-0.6,0-1.3-0.1-1.7,0C115.1,6.2,115.4,6.2,116.1,6.1z"/>
						<path class="st0" d="M123.5,6.1l-0.6,0c0.6-0.1,0.3-0.1-0.2,0c-0.6,0-0.6,0.1-0.7,0.1c-0.1,0-0.2,0-0.4,0.1
							c0.2,0,0.4,0,0.5-0.1C123.1,6.2,123.7,6.2,123.5,6.1z"/>
						<path class="st0" d="M151.1,9.3c-2.2-0.1-2.7-0.1-2.6-0.3c-2.1,0-1.7,0.2-3,0.3C147.9,9.3,148.3,9.3,151.1,9.3z"/>
						<path class="st0" d="M145.5,9.3c-0.3,0-0.5,0-0.8,0C145,9.3,145.3,9.3,145.5,9.3z"/>
						<polygon class="st0" points="114.8,4.5 116.1,4.3 115.7,4.3 						"/>
						<path class="st0" d="M154.4,9.4c-0.4,0-1,0-1.4-0.1C152.9,9.5,154.8,9.4,154.4,9.4z"/>
						<path class="st0" d="M146,6.5c-0.2-0.1-1.6,0-2.2-0.1C144.6,6.4,145.3,6.7,146,6.5z"/>
						<path class="st0" d="M160.6,8.8c-0.4,0-1-0.1-0.8-0.2C159.3,8.6,158.5,8.9,160.6,8.8z"/>
						<polygon class="st0" points="149.9,6.5 149.6,6.5 148.1,6.6 						"/>
						<path class="st0" d="M144.6,4.4c-1.7,0.2,2.7,0.4-0.2,0.6c3.7,0.2-0.3-0.2,2.5-0.2C145.3,4.7,144.5,4.4,144.6,4.4z"/>
						<path class="st0" d="M146.9,4.7c0.2,0,0.5,0,0.8,0C147.3,4.7,147.1,4.7,146.9,4.7z"/>
						<path class="st0" d="M170.4,5.8c-0.2,0-0.4,0-0.6,0.1C170.1,5.9,170.2,5.9,170.4,5.8z"/>
						<path class="st0" d="M155.6,4.6l-2.5,0.3c1.7-0.2,5.9-0.2,5.6-0.4c-1.4-0.1-3,0-3.7,0.1L155.6,4.6z"/>
						<path class="st0" d="M184.4,9.3l-1.1,0.1l1.4,0C184.3,9.4,185,9.2,184.4,9.3z"/>
						<path class="st0" d="M185,9.4l-0.3,0C184.7,9.5,184.8,9.5,185,9.4z"/>
						<path class="st0" d="M165.7,6c-0.8,0-1.5,0-2.2,0C163.8,6,165.8,6.1,165.7,6z"/>
						<polygon class="st0" points="192.1,8.9 190.3,9 192.2,9 						"/>
						<polygon class="st0" points="200.4,9.4 200.7,9.4 202.2,9.3 201.9,9.3 						"/>
						<path class="st0" d="M189.5,4.2c-1.2,0-2.2,0.2-1.8,0.3l2.4,0c-0.6-0.2-0.7,0-2,0L189.5,4.2z"/>
						<path class="st0" d="M262.4,9c-0.5,0.1-3.1,0.1-3.2-0.1c0.3-0.1,1.7-0.1,0.9-0.2l-2,0.3c-2.7-0.2,2.1-0.4,3.4-0.6
							c-2.8,0-3.6,0.2-6.5,0.2c0.9,0,1.4,0.1,1.9,0.2c0.1,0.2-2.6,0.1-4.6,0.1c1.2,0.1,0.5,0.2-0.4,0.3c-0.2,0-0.3,0-0.3,0
							c-0.1,0-0.2,0-0.3,0l0.2,0c0,0,0,0.1,0.2,0.1c1.6-0.1,2.9,0.1,3.9,0.1c-1-0.4,3.6-0.1,4.9-0.2l1.5,0l0.6,0
							c0.1,0,0,0.1-0.9,0.2c0.7-0.1,3.2,0,2.9-0.2l5.6,0c0.2,0,0.3,0,0.5,0.1c0.2,0,0.2,0,0.2-0.1l24.2,0c-1.2,0-2.2-0.1-3.5-0.2
							c1.8-0.3-2,0-1.5-0.3c0.8-0.1,2-0.1,2.8,0c0.3-0.1-0.8-0.2-0.6-0.4c-3.1-0.2-3.5,0.4-6.5,0.3c0.1-0.1,1-0.3-0.9-0.3l0.5,0
							c-3.1,0.2-2.4-0.3-4.4,0.1l0.1-0.2c-1.4,0.2-4.2,0.2-5.7,0.2l0.1,0c-4.4,0.2-2.4,0.1-7.3,0.1l2.3-0.2
							c-1.7-0.1-2.1,0.2-3.3,0.1c0.1,0-0.2-0.2,1-0.2l-5.9,0.4C260.4,8.9,262.1,8.9,262.4,9z"/>
						<path class="st0" d="M254.8,8.7c-0.3,0-0.7,0-1.1,0C254.2,8.7,254.5,8.7,254.8,8.7z"/>
						<path class="st0" d="M296.6,9.4l-1.7,0C295.5,9.4,296,9.4,296.6,9.4z"/>
						<path class="st0" d="M246.3,9.2c1,0.1-0.8,0.2-1,0.2l3.7,0c0-0.1,0.3-0.2,0.3-0.2L246.3,9.2z"/>
						<path class="st0" d="M250.1,9.5c0.1-0.1,0.5-0.1,1-0.2l-2,0C249.1,9.5,249.3,9.5,250.1,9.5z"/>
						<polygon class="st0" points="249.7,5.2 250.4,5.2 251.4,5.1 						"/>
						<path class="st0" d="M260,5.6c-0.8-0.1-2.3,0-2.8,0C258.9,5.6,258.2,5.6,260,5.6z"/>
						<polygon class="st0" points="257.9,4.3 259.5,4.2 259.4,4.2 						"/>
						<path class="st0" d="M309.2,8.5c0.3,0,0.5,0,0.8,0C309.6,8.5,309.4,8.5,309.2,8.5z"/>
						<path class="st0" d="M295.1,8.7c3.9,0.2-2.6,0.2-1.3,0.5l2.1-0.1l-0.2,0.1l2.6,0c-0.5-0.1-0.9-0.1-0.8-0.3
							c3.5,0.1,1.1,0.2,3.6,0.4l3.9,0l-0.3,0c0.3,0,0.5,0,0.6,0l13.1-0.1c2.4-0.1-1.3-0.3,0.4-0.5c-2.8,0-6.9-0.2-7.1,0.1
							c0.1,0,0.3-0.1-0.3-0.2l-1.6,0.2l1.5,0.1c-1.6,0.2-6.8,0.2-7.7,0c2.9-0.1,1.5-0.4,5.6-0.2c-0.2-0.1-0.9-0.2,0-0.2
							C304.4,8.6,300.1,8.5,295.1,8.7z"/>
						<path class="st0" d="M343.4,8.6L343.4,8.6C343.4,8.6,343.4,8.6,343.4,8.6z"/>
						<path class="st0" d="M341.7,8.6l-2.3,0.3l3.7,0l0.3-0.2c-0.3,0.1-1.6,0.2-2.1,0.1L341.7,8.6z"/>
						<path class="st0" d="M336.7,9c1.9-0.1,1.8-0.3,0.8-0.4c1.7-0.1,0.9,0.3,2.1,0c0-0.2-2.2-0.1-2.7,0L336.7,9z"/>
						<polygon class="st0" points="322.7,8.9 323.3,8.8 322,8.8 						"/>
						<path class="st0" d="M323.3,8.8l1.3,0c-0.1-0.1-0.2-0.1-0.4-0.2L323.3,8.8z"/>
						<path class="st0" d="M328,8.9c0.5,0,1.2,0,1.9,0L328,8.9z"/>
						<path class="st0" d="M326.5,8.8L326.5,8.8l1.5,0.1C327.4,8.9,327,8.9,326.5,8.8z"/>
						<path class="st0" d="M324.6,8.8c0.2,0.2,0.5,0.3,2.3,0.3l-0.4-0.3L324.6,8.8z"/>
						<polygon class="st0" points="269.8,4.5 271.3,4.4 271.1,4.4 269.7,4.5 						"/>
						<path class="st0" d="M278.4,4.7c0.4,0,0.6-0.1,0.9-0.1C278.9,4.6,278.6,4.6,278.4,4.7z"/>
						<path class="st0" d="M284.8,3.5c1.7,0.2-2.4,0.2,0.8,0.3c0.3,0.2-1.2,0.4-2.8,0.3c0.1-0.1,1.5-0.1,0.5-0.2
							c-1,0.2-1.4,0.1-1,0.3c-1.7,0.1-1.9,0.3-3,0.4c2.1-0.1,6.4,0.1,9-0.1c1.4-0.3,0.6-0.6,0.6-1C288.6,3.3,284.9,3.3,284.8,3.5z"
							/>
						<path class="st0" d="M282,3.2c-0.8,0-1.1,0-1.6,0C280.6,3.3,281.4,3.2,282,3.2z"/>
						<path class="st0" d="M300.6,6c0.2-0.1,1.6-0.1,1.3-0.2l-2.2,0.1C300.2,5.9,300.4,6,300.6,6z"/>
						<path class="st0" d="M298.7,5.9l1,0C299.4,5.9,299.1,5.9,298.7,5.9z"/>
						<path class="st0" d="M300.7,6.1c0,0-0.1,0-0.1,0C300.6,6,300.6,6.1,300.7,6.1z"/>
						<path class="st0" d="M333.4,9c0,0.1,1,0,1.5,0C334.4,9,333.8,9,333.4,9z"/>
						<path class="st0" d="M370.6,8.6l0.9,0.1C371.1,8.6,371,8.6,370.6,8.6z"/>
						<path class="st0" d="M384,5.8c0,0,0.1,0,0.2-0.1C384.1,5.7,384,5.7,384,5.8z"/>
						<path class="st0" d="M384.2,5.7c0.6-0.1,2.4,0,3.1-0.1l-0.1,0l1.2-0.1C387.3,5.6,384.9,5.6,384.2,5.7z"/>
					</g>
				</g>
			</g>
		</g>
	</g>
</g>
<g>
	<g>
		<g>
			<g>
				<g>
					<path class="st0" d="M388.8,266.4c-1.2-0.1-3.3-0.1-5.3-0.1C385,266.4,386.6,266.4,388.8,266.4z"/>
					<path class="st0" d="M383.4,266.3C383.4,266.3,383.4,266.3,383.4,266.3C383.4,266.3,383.4,266.3,383.4,266.3
						C383.4,266.3,383.4,266.3,383.4,266.3z"/>
					<path class="st0" d="M-4,269.6c0.5,0,1.1,0,1.6,0C-2.9,269.6-3.5,269.6-4,269.6z"/>
					<path class="st0" d="M286.7,266l-0.3,0.1c-4.7,0-1.4-0.1-5.8-0.1c-1.7,0.2-7.3,0-8.8,0.1c0,0-2.1,0-2-0.1c-0.7,0.1-2.2,0-3.6,0
						c-0.5,0,0.4,0,0.7,0.1l-3.1,0c-1.2,0-1.5-0.1-0.2-0.1c-8.1,0-47-0.1-55.7-0.1c1.1,0.1,3.8,0,4.8,0.1c-2.3,0.1-3.4,0-4.4,0
						c-0.9-0.2-5.1,0-6.8-0.2L201,266l-1.1-0.1c-10.1,0.1-2.3,0-11.3,0c-5.2,0-7.7,0.1-10.6,0.1c0.4,0,1.6,0.1,0.2,0.1
						c-0.2-0.1-3.6,0.1-4.2,0c-1.3,0-5.6,0-4.2,0.1c-0.7-0.1-4.5-0.1-2.3-0.1c-1.3,0-2.5,0-3.5,0l1.7,0c-4.3,0-6.7-0.1-9.5,0l1.6,0
						c-2.6,0-4.8,0-5.8-0.1l2.7,0c-4.3,0-6.9,0-10.5,0.1l1.3,0c-4.6,0.1-28.5,0.2-32.7,0.3l1.9,0.1l-3.6,0.1c0.4,0,1.8-0.3,2.1-0.3
						c-7.8,0-48.2,0.1-55.4,0c-2.9-0.1-0.5-0.1-0.5-0.2c-3.5,0-1.5,0.1-4.5,0.1c-0.8,0,0.2-0.1,0.6-0.1c-1.3,0-2.5,0-2.6,0
						c1.6,0,0.9,0.1,1.6,0.2l-3.9,0l0.2-0.1c-0.9,0-2.2,0.2-6,0.2c-6.4,0-13.3,0-19.8,0c0.1,0,1.4-0.1,2.8-0.1c-0.9,0-2.2,0-3,0
						c1.6,0.1-2.7,0-1.5,0.1c-4.7,0.2-10.8,0-14.9,0.1c-0.4,0.2-8.9,2.7-8.9,2.9c-1.3,0-2.6,0-3,0c0.3,0,2.9,0.1,4.2,0l0.2-0.1
						c3.1,0,0.7,0.1,3.8,0.1c0.2,0.1-2.6,0.1-5.1,0.1c2.2,0,4.4,0.1,5.3,0c2.1,0-0.2,0.1,2.3,0.1c1.8,0,4.1-0.1,6.2-0.1l0,0
						c5,0.1,7.6-0.1,12.1,0l-0.5,0c1.6,0,4.8,0,7.7,0c-0.8,0-1.5-0.1,0.2-0.1c3.3,0.1,5.6,0,8,0.1l2.3-0.1c11.6,0,57.4-0.1,69-0.1
						l-0.5,0c17.7,0,54.2,0,72.5-0.1c2.8,0.1,6.7,0.1,9.7,0.1c-1.6,0-1.1-0.1,0.2-0.1c9,0,0.6-0.1,9.7-0.1c10.5-0.1,50.7,0,60,0.1
						c5-0.1,11.3,0,16.2-0.1l-0.5,0c5.3,0,35.1,0.1,41.2,0l-0.8,0c5.3-0.1,4.6,0.1,8.8,0.1c-0.6-0.1,4-0.2,5.8-0.2l-0.1,0
						c2.6,0,8.6-0.1,12.9-0.1l-0.2,0.1c3.6-0.1,10.4,0,13,0c6,0,15.1,0.2,23.1,0.1l5.1,0.2l0.8,0c0,0,8.3-2.4-2.2-3l0.2-0.1l-2.1,0
						c-2.5,0-3.6,0-3.5,0l3.4,0c-2.5,0-0.8-0.1,0.2-0.1c-1,0-2.1,0-2.9,0c-0.5,0,0.4,0,0.8,0c-1.3,0-3.2,0.1-4.9,0.1
						c-2.6,0-0.2-0.1-3.2-0.1c-15.8-0.1-31.1-0.2-47.1-0.1c-0.4,0,0.1,0,0.5,0c-4.8,0-9.1,0-13.5,0c-1.2,0-1.5-0.1-1.9-0.1
						C312,266,287.1,266,286.7,266z"/>
				</g>
			</g>
		</g>
	</g>
</g>
<g>
	<g>
		<g>
			<g>
				<g>
					<path class="st0" d="M8.8,80.7C8.8,80.6,8.7,80.6,8.8,80.7L8.8,80.7z"/>
					<path class="st0" d="M9.2,171.3C9.2,171.3,9.2,171.3,9.2,171.3c0.1,0.2,0.1,0.2,0.1,0.3L9.2,171.3z"/>
					<path class="st0" d="M8.9,185.9C8.9,185.9,8.9,185.9,8.9,185.9C9,185.9,9,186,8.9,185.9z"/>
					<path class="st0" d="M8.7,137.7c0-0.1,0-0.2,0-0.2C8.7,137.6,8.7,137.6,8.7,137.7z"/>
					<path class="st0" d="M8.5,54.1C8.5,54.1,8.5,54.1,8.5,54.1C8.5,54.1,8.5,54,8.5,54.1L8.5,54.1z"/>
					<path class="st0" d="M8.6,54.3c0,0.3-0.1-0.1-0.1-0.2c-0.1,0.4-0.1,0.7,0,1.1C8.5,55.2,8.5,54.5,8.6,54.3z"/>
					<path class="st0" d="M8.5,5.6l0,0.1C8.5,5.7,8.5,5.7,8.5,5.6z"/>
					<path class="st0" d="M4.9,139.2c0-0.1,0-0.1,0-0.2C4.9,139.1,4.9,139.1,4.9,139.2z"/>
					<path class="st0" d="M8.3,13.3l0.1,0.1C8.4,13.3,8.4,13.3,8.3,13.3z"/>
					<path class="st0" d="M9.4,171.6l0,0.1C9.4,171.6,9.4,171.6,9.4,171.6z"/>
					<path class="st0" d="M8.9,199.3C8.8,199.3,8.8,199.4,8.9,199.3c-0.1,0.1-0.1,0.1-0.1,0.1L8.9,199.3z"/>
					<path class="st0" d="M6.7,267.2C6.7,267.1,6.7,267.1,6.7,267.2l0-0.3C6.7,267,6.7,267.1,6.7,267.2z"/>
					<path class="st0" d="M8.3,217.8C8.3,217.8,8.3,217.8,8.3,217.8c0.1-0.3,0.1-1.1,0.1-2.2l-0.2-0.1L8.3,217.8z"/>
					<path class="st0" d="M4.8,238l0.3-2c0.1,6.3-0.2,9.3,0,14.7L5,250.4c-0.1,0.8,0.6,1.2-0.3,9.9l0,0c0,0.3,0.1,0.3,0,0.9l0.2-1.5
						c0.1,0.9,0.2,1.7,0.2,2.9c0,0.3-0.1,0.3-0.1,0.4l0,2.9l-0.2,0.9c0.1,0.9,0.5,0.5,0.3,2.9c0.3-0.9,0.2,1.2,0.3,0.9
						c0,0.1-0.1,0.4-0.1,0.6c0,1.4,0.1,4.1,0.2,4.8c0,0,0.6-5.6,1-7.1c-0.1,2,0,0.5,0.1,0.1l-0.1-0.1c0.1-1.2,0.3-1.2,0.3-1.8
						c0,0,0,0-0.1,0l0,0.1c0,0.1-0.1,0-0.1,0c0,0-0.1,0-0.1-0.4l0,0.1c0-0.5,0-1.4,0-1.8l0.2,0c-0.3-0.9,0.5-6,0.5-7.2
						c0.2-1.2,0-2.7,0.1-4.2c0.1-2.4,0.2-1.2,0.4-2.4c0.1-1.5-0.2,0.3-0.2-0.3l0.2-1.8c0,1,0.1,0.5,0.2,0.3c0-1.6,0.3-4,0-4.5
						c0.2-2.1,0.3-2.1,0.3-3c-0.1,0.3-0.1,0.9-0.2,0.9c0.1-0.8,0-0.4-0.1-0.1c-0.1-1.3,0.6-6.7,0.2-6.9l0.1,0
						c-0.2-0.3-0.5,0.2-0.6-0.7l0.1-0.6l-0.1-0.9c0.1-0.6,0.1-0.3,0.2-0.3c-0.1-1.5,0-3.5,0.1-5.3l-0.7,1.9c0.2-1.5,0.5-4.2,0.3-4.5
						l0.2-0.9c0.4-3-0.2-2.1-0.1-3.3l0.2-1.5l0,1.5c0.1-1.5,0.2-2.1,0.4-3.3l0,0c0,0.1,0,0.1,0,0.1l0-0.2c-0.1-0.2-0.2-1-0.2-2
						c0-1.5-0.1-2.7,0.1-5.1L8,210.1l0.2-1.8l0.2,0c0,1.8,0,5.1,0.1,7.4l0.1,0c0-1.3-0.1-2.9-0.1-3.8c0-0.4,0.3-1.5,0.4-0.7
						l-0.2-0.8c0-4.5,0-4.5,0.2-9.2l-0.1,0.4c-0.1-0.9-0.1-1.9,0-2.1c0-2.8,0.2-5.7,0.4-7.6L9,191.4c0-0.6,0.4-1.5,0-1.8l-0.1-1.3
						c0-0.8-0.1-1.3,0-2.2h0l0,0c0-0.1,0-0.1,0-0.2c0,0,0,0,0,0c0.1-1.8-0.2,0-0.1-2.1c0.2-0.7-0.3-0.7-0.2-1.8l0.3-1
						c0.2-1.9-0.1-2.2-0.1-4.9c0.1-1.3,0.4-1.9,0.7-1.1c-0.3-1.2-0.2-0.5-0.4-2.1c0.1-0.2,0.2-0.1,0.3,0.3c0.1-1.4-0.1-0.9-0.1-1.9
						c-0.2-0.3-0.6-0.7-0.6-1l-0.1,0.4c-0.1-1.1-0.2-2.3-0.1-3.6l0.1,0l-0.1-1.4l0.2-0.1l-0.1-2l0,0.3c0-0.5-0.1-2,0-2.8l0.1,0
						c0.3-2.4-0.1-4.4-0.1-7.3l0.2,0.4c0.2-1-0.3-0.3-0.2-1.4l0.2-0.1c-0.3-1,0.1-1.3,0.2-2l-0.3,0.3l0.1-1.3
						c0.1-1.5,0.4-0.9,0.5-0.7l-0.2-1l0.2-0.2c-0.3-0.7,0-0.7-0.1-2c0.1-0.1,0.1,0.2,0.2-0.2l-0.4-2.1l0.2,1.3l-0.4-0.2
						c-0.3-1.3,0-1.8-0.1-2.7l0.1,0.6c-0.1-1.5,0.1-1.6,0.1-2.5c-0.1,0.3-0.2,0.7-0.2,0.1c0-0.5,0.1-0.2,0.2-0.7
						c-0.2-0.1-0.4-1.2-0.3-2.2c0,0,0.1,0,0.1,0.1c0-0.3-0.1-0.4,0-0.8l0.3,0.3l-0.3-0.9c0.1-0.6-0.1-1.4,0.1-1.3l0.1,0.3l0.1-4.3
						l0.2-0.1c-0.3-0.4,0.1-2.3-0.3-2.2c0.2-0.8-0.1-3.2,0.3-2.7c0-2.8-0.4-4.4-0.2-7.8c0.4-1.2,0.2-4.6,0.3-6.8
						C9,106.8,8.9,104,8.7,99.6C9.2,97,8.6,93,8.8,90.1l-0.2-0.8c0.3-1.9-0.1-4.8,0.2-7.5c-0.1-0.7-0.1-1-0.1-1.1
						c0,0.1,0,0.3-0.2,0.4c0.1-0.8,0-2.3,0.2-2.2l0,0.2c0.2,0.1-0.1-2.3,0.1-3.2l-0.3,0.5l0-1.4l0.1,0.4c-0.6-6.3,0.3-9.1-0.3-15
						c0.3,0.8-0.2-1.2,0.2-1.2c0.4-1.5-0.1-2.7-0.2-4c0,0,0,0-0.1-0.1l0-2.1c0.4,1.3-0.3-1.5,0-0.4c0.3-5.5,0-12.8,0.2-19.2
						l-0.1,0.3c0-1.6-0.1-3.7,0.1-4.9c0.2-1.2-0.3-2.7-0.3-3.2c-0.2-1.4,0.2-2.6,0.2-2c0-1.4-0.4-2.8-0.2-4.8
						c0.3-0.7-0.3-5.5,0.1-5.5l0,0c0.3-2.6-0.2-5,0.1-7.8c0,0,0,0.1,0.1,0.1L7.3,0L6,1.6L5,6.5l0.1,13.2L4.7,30.3L4.7,56L5,57.9
						c-0.5,5.1,0.1,11.5-0.3,17L5,74.9c0,1.5-0.1,1.4-0.2,1.8c0.1,14.3,0.4,29,0.1,41.8c-0.2,1.2-0.1,5-0.2,6
						C5,128.7,5,133.2,5,137.3l0-0.2l0.1,2c0,0.1,0,0.1-0.1,0c0.2,2.2,0,5.7-0.1,8.4l0-0.2c0,15.9,0.5,30.6,0.1,46.3
						c-0.4,7.3,0.2,15.8-0.2,24.2C4.5,219.5,4.7,236.5,4.8,238z"/>
					<path class="st0" d="M5,262.9L5,262.9C4.9,262.9,4.9,263,5,262.9z"/>
					<polygon class="st0" points="8,227.9 8,228 8.1,227.6 					"/>
					<path class="st0" d="M8,250.4c0-1,0-1.1,0-0.9C8,249.8,8,250.1,8,250.4z"/>
					<path class="st0" d="M5.1,271.2c0,0.5,0.1,0.3,0.1,0c0-0.5,0-0.9,0-0.9C5.2,270.6,5.1,270.9,5.1,271.2z"/>
					<path class="st0" d="M6.5,269l0.1,0.2C6.6,268.9,6.6,268.9,6.5,269z"/>
				</g>
			</g>
		</g>
	</g>
</g>
<g>
	<g>
		<g>
			<g>
				<g>
					<path class="st0" d="M388,83C388,82.9,388,82.9,388,83L388,83z"/>
					<path class="st0" d="M388.5,173.6C388.5,173.6,388.5,173.6,388.5,173.6c0.1,0.2,0.1,0.2,0.1,0.3L388.5,173.6z"/>
					<path class="st0" d="M388.2,188.2C388.2,188.2,388.2,188.2,388.2,188.2C388.2,188.2,388.2,188.3,388.2,188.2z"/>
					<path class="st0" d="M388,140c0-0.1,0-0.2,0-0.2C388,139.9,388,139.9,388,140z"/>
					<path class="st0" d="M387.7,56.4C387.7,56.4,387.7,56.4,387.7,56.4C387.8,56.4,387.8,56.3,387.7,56.4L387.7,56.4z"/>
					<path class="st0" d="M387.8,56.6c0,0.3-0.1-0.1-0.1-0.2c-0.1,0.4-0.1,0.7,0,1.1C387.8,57.5,387.8,56.8,387.8,56.6z"/>
					<path class="st0" d="M387.7,7.9l0,0.1C387.7,8,387.7,8,387.7,7.9z"/>
					<path class="st0" d="M384.2,141.5c0-0.1,0-0.1,0-0.2C384.2,141.4,384.2,141.4,384.2,141.5z"/>
					<path class="st0" d="M387.6,15.6l0.1,0.1C387.7,15.6,387.6,15.6,387.6,15.6z"/>
					<path class="st0" d="M388.6,173.9l0,0.1C388.7,173.9,388.6,173.9,388.6,173.9z"/>
					<path class="st0" d="M388.1,201.6C388.1,201.6,388,201.7,388.1,201.6c-0.1,0.1-0.1,0.1-0.1,0.1L388.1,201.6z"/>
					<path class="st0" d="M385.9,269.4C385.9,269.4,386,269.4,385.9,269.4l0-0.3C385.9,269.3,385.9,269.4,385.9,269.4z"/>
					<path class="st0" d="M387.6,220.1C387.6,220.1,387.6,220.1,387.6,220.1c0.1-0.3,0.1-1.1,0.1-2.2l-0.2-0.1L387.6,220.1z"/>
					<path class="st0" d="M384,240.3l0.3-2c0.1,6.3-0.2,9.3,0,14.7l-0.1-0.3c-0.1,0.8,0.6,1.2-0.3,9.9l0,0c0,0.3,0.1,0.3,0,0.9
						l0.2-1.5c0.1,0.9,0.2,1.7,0.2,2.9c0,0.3-0.1,0.3-0.1,0.4l0,2.9l-0.2,0.9c0.1,0.9,0.5,0.5,0.3,2.9c0.3-0.9,0.2,1.2,0.3,0.9
						c0,0.1-0.1,0.4-0.1,0.6c0,1.4,0.1,4.1,0.2,4.8c0,0,0.6-5.6,1-7.1c-0.1,2,0,0.5,0.1,0.1l-0.1-0.1c0.1-1.2,0.3-1.2,0.3-1.8
						c0,0,0,0-0.1,0l0,0.1c0,0.1-0.1,0-0.1,0c0,0-0.1,0-0.1-0.4l0,0.1c0-0.5,0-1.4,0-1.8l0.2,0c-0.3-0.9,0.5-6,0.5-7.2
						c0.2-1.2,0-2.7,0.1-4.2c0.1-2.4,0.2-1.2,0.4-2.4c0.1-1.5-0.2,0.3-0.2-0.3l0.2-1.8c0,1,0.1,0.5,0.2,0.3c0-1.6,0.3-4,0-4.5
						c0.2-2.1,0.3-2.1,0.3-3c-0.1,0.3-0.1,0.9-0.2,0.9c0.1-0.8,0-0.4-0.1-0.1c-0.1-1.3,0.6-6.7,0.2-6.9l0.1,0
						c-0.2-0.3-0.5,0.2-0.6-0.7l0.1-0.6l-0.1-0.9c0.1-0.6,0.1-0.3,0.2-0.3c-0.1-1.5,0-3.5,0.1-5.3l-0.7,1.9c0.2-1.5,0.5-4.2,0.3-4.5
						l0.2-0.9c0.4-3-0.2-2.1-0.1-3.3l0.2-1.5l0,1.5c0.1-1.5,0.2-2.1,0.4-3.3l0,0c0,0.1,0,0.1,0,0.1l0-0.2c-0.1-0.2-0.2-1-0.2-2
						c0-1.5-0.1-2.7,0.1-5.1l-0.3-0.6l0.2-1.8l0.2,0c0,1.8,0,5.1,0.1,7.4l0.1,0c0-1.3-0.1-2.9-0.1-3.8c0-0.4,0.3-1.5,0.4-0.7
						l-0.2-0.8c0-4.5,0-4.5,0.2-9.2l-0.1,0.4c-0.1-0.9-0.1-1.9,0-2.1c0-2.8,0.2-5.7,0.4-7.6l-0.2-0.4c0-0.6,0.4-1.5,0-1.8l-0.1-1.3
						c0-0.8-0.1-1.3,0-2.2h0l0,0c0-0.1,0-0.1,0-0.2c0,0,0,0,0,0c0.1-1.8-0.2,0-0.1-2.1c0.2-0.7-0.3-0.7-0.2-1.8l0.3-1
						c0.2-1.9-0.1-2.2-0.1-4.9c0.1-1.3,0.4-1.9,0.7-1.1c-0.3-1.2-0.2-0.5-0.4-2.1c0.1-0.2,0.2-0.1,0.3,0.3c0.1-1.4-0.1-0.9-0.1-1.9
						c-0.2-0.3-0.6-0.7-0.6-1l-0.1,0.4c-0.1-1.1-0.2-2.3-0.1-3.6l0.1,0l-0.1-1.4l0.2-0.1l-0.1-2l0,0.3c0-0.5-0.1-2,0-2.8l0.1,0
						c0.3-2.4-0.1-4.4-0.1-7.3l0.2,0.4c0.2-1-0.3-0.3-0.2-1.4l0.2-0.1c-0.3-1,0.1-1.3,0.2-2l-0.3,0.3l0.1-1.3
						c0.1-1.5,0.4-0.9,0.5-0.7l-0.2-1l0.2-0.2c-0.3-0.7,0-0.7-0.1-2c0.1-0.1,0.1,0.2,0.2-0.2l-0.4-2.1l0.2,1.3l-0.4-0.2
						c-0.3-1.3,0-1.8-0.1-2.7l0.1,0.6c-0.1-1.5,0.1-1.6,0.1-2.5c-0.1,0.3-0.2,0.7-0.2,0.1c0-0.5,0.1-0.2,0.2-0.7
						c-0.2-0.1-0.4-1.2-0.3-2.2c0,0,0.1,0,0.1,0.1c0-0.3-0.1-0.4,0-0.8l0.3,0.3l-0.3-0.9c0.1-0.6-0.1-1.4,0.1-1.3l0.1,0.3l0.1-4.3
						l0.2-0.1c-0.3-0.4,0.1-2.3-0.3-2.2c0.2-0.8-0.1-3.2,0.3-2.7c0-2.8-0.4-4.4-0.2-7.8c0.4-1.2,0.2-4.6,0.3-6.8
						c-0.2-4.3-0.3-7.1-0.4-11.5c0.5-2.7-0.2-6.6,0.1-9.5l-0.2-0.8c0.3-1.9-0.1-4.8,0.2-7.5c-0.1-0.7-0.1-1-0.1-1.1
						c0,0.1,0,0.3-0.2,0.4c0.1-0.8,0-2.3,0.2-2.2l0,0.2c0.2,0.1-0.1-2.3,0.1-3.2l-0.3,0.5l0-1.4l0.1,0.4c-0.6-6.3,0.3-9.1-0.3-15
						c0.3,0.8-0.2-1.2,0.2-1.2c0.4-1.5-0.1-2.7-0.2-4c0,0,0,0-0.1-0.1l0-2.1c0.4,1.3-0.3-1.5,0-0.4c0.3-5.5,0-12.8,0.2-19.2
						l-0.1,0.3c0-1.6-0.1-3.7,0.1-4.9c0.2-1.2-0.3-2.7-0.3-3.2c-0.2-1.4,0.2-2.6,0.2-2c0-1.4-0.4-2.8-0.2-4.8
						c0.3-0.7-0.3-5.5,0.1-5.5l0,0c0.3-2.6-0.2-5,0.1-7.8c0,0,0,0.1,0.1,0.1l-1.1-5.6l-1.3,1.6l-1.1,4.9l0.1,13.2l-0.5,10.6
						l0.1,25.7l0.3,1.8c-0.5,5.1,0.1,11.5-0.3,17l0.2,0.1c0,1.5-0.1,1.4-0.2,1.8c0.1,14.3,0.4,29,0.1,41.8c-0.2,1.2-0.1,5-0.2,6
						c0.3,4.2,0.3,8.6,0.3,12.8l0-0.2l0.1,2c0,0.1,0,0.1-0.1,0c0.2,2.2,0,5.7-0.1,8.4l0-0.2c0,15.9,0.5,30.6,0.1,46.3
						c-0.4,7.3,0.2,15.8-0.2,24.2C383.8,221.8,383.9,238.8,384,240.3z"/>
					<path class="st0" d="M384.2,265.2L384.2,265.2C384.1,265.2,384.1,265.3,384.2,265.2z"/>
					<polygon class="st0" points="387.2,230.2 387.2,230.3 387.4,229.9 					"/>
					<path class="st0" d="M387.2,252.6c0-1,0-1.1,0-0.9C387.2,252.1,387.2,252.4,387.2,252.6z"/>
					<path class="st0" d="M384.4,273.5c0,0.5,0.1,0.3,0.1,0c0-0.5,0-0.9,0-0.9C384.4,272.9,384.4,273.2,384.4,273.5z"/>
					<path class="st0" d="M385.8,271.3l0.1,0.2C385.9,271.2,385.8,271.2,385.8,271.3z"/>
				</g>
			</g>
		</g>
	</g>
</g>
</svg>
