<?xml version="1.0" encoding="UTF-8"?>
<svg id="a" data-name="Layer 1" xmlns="http://www.w3.org/2000/svg" width="195.46" height="48.23" viewBox="0 0 195.46 48.23">
  <defs>
    <style>
      .b, .c, .d {
        stroke-width: 0px;
      }

      .c {
        fill: #fff;
      }

      .d {
        fill: #020202;
      }
    </style>
  </defs>
  <path class="b" d="M188.78,39.64c1.26-.8,2.52-1.59,3.76-2.41.95-.62,1.58-.14,2.33.47,1.03.83.49,1.7,0,2.28-1.76,2.1-4.01,3.51-6.74,4.32,1.09,2.03-.79,2.71-1.95,3.93-1.63-.95-2.75-2.15-2.6-4.24-4.72.88-9.18,1.02-13.73.97-3.27-.03-6.89-.59-10.1.97-.57.28-1.02.16-1.28-.15-2.06-2.42-4.2-.82-5.81.27-2.38,1.62-3.47,1.01-4.15-1.4-4.26.6-8.36-.26-12.41-.78-6.77-.87-13.53-.54-20.26-.33-5.36.17-10.69-.16-16.03-.19-1.09,0-1.98-.06-2.91.6-.39.28-.97.99-1.54.45-2.36-2.21-3.67-.07-5.07,1.24-1.42,1.33-2.85,2.33-4.86,1.74-1.05-1.29.62-2.42.11-3.68-5.86.57-11.81-.92-17.61,1.33-2.15.83-4.79-.17-7.09,1.22-1.09.66-2-.21-1.83-1.61-1.81.3-3.58,3.01-4.83-.38-.08-.23-.91-.28-1.38-.25-3.79.27-7.59-.42-11.41.42-1.65.36-3.56-.65-5.38-.76-3.33-.19-6.8-1.3-9.87,1.1-.88.69-1.92.64-2.7-.09-2.15-1.99-4.56-1.33-7.01-.92-1.34.22-2.73.25-4.09.2-2.07-.08-4.18-.74-4.95,2.32-.27,1.07-1.99,1.45-2.9.48-1.58-1.68-3.22-3.58-2.58-6.16,1-4.01.24-8.15,1.09-12.17.44-2.08-.13-4.06-1.86-5.64,1.67-1.68,1.89-3.15-.35-4.41-.76-.43-1.14-1.57-.43-1.99,2.71-1.63,1.9-4.51,2.54-6.81.35-1.25.81-2.05,1.82-2.54-.05-1.15-.95-1.24-1.57-1.66-1.01-.68-.79-1.75-.65-2.69.17-1.1,1.08-1.26,2.03-1.21.29.01.59-.03.88,0,3.65.48,7.14-.51,10.69-.88,3.48-.36,7.24-.44,10.92.07,3.23.45,6.61-.11,9.91-.13,3.83-.02,7.59.66,11.44.43,8.18-.48,16.4-.57,24.6-.65,10.08-.1,20.18-.37,30.24.12,5.18.25,10.4.74,15.52.29,3.78-.33,7.42.58,11.06.26,4.75-.42,9.53.2,14.05.77,12.11,1.51,23.8-2.86,35.8-1.52,2.79.31,5.39,1.39,8.29,1.33,1.96-.04,2.59,1.47,1.94,3.58-1.26,4.11-2.03,8.19-1.03,12.65.74,3.28.19,6.86.15,10.3-.05,3.77,1.37,7.61-1.27,11.27.34.09.69.17,1.03.26ZM179.66,16.47q3.29-1.63,4.73.14c-6.61,4.91-12.54,10.55-18.13,16.6,5.55-4.49,10.41-9.82,16.93-13.41.49,1.35,1.02,2.17-.26,3.05-5.09,3.52-9.39,7.92-13.67,12.34-1.12,1.15-3.01,1.53-3.68,3.78,4.25-2.68,7.38-5.97,10.7-9.06,2.26-2.1,4.64-4.06,7.44-5.41.57-.27,1.1-.57,1.13-1.19.21-4.28-.21-8.58.08-13.03-1.12,2.68-3.69,4.03-5.26,6.18ZM146.67,6.3c-7.07,2.57-12.4,7.92-18.14,12.51-5.81,4.64-11.89,9.03-17.03,14.49,12.4-8.05,23.57-17.72,35.17-27ZM16.01,3.93c.69,2.06.68,2.17,1.14,2.2,8.13.47,16.12-.86,24.18-1.34-.01-.29-.02-.58-.03-.86h-25.28ZM68.5,41.45c.1.25.2.5.31.75.96-.32,1.9-.72,2.88-.93,0,0,.89-1.91,2.03-2.58,3.75-2.2,6.62-4.58,10.91-7.66,4.45-3.19,3.38-2.43,7.78-5.68-.17-.24,2.49-1.76,2.32-2-10.35,7.35-15.87,10.74-26.22,18.09ZM20.11,40.18c5.56.66,9.8-2.2,14.22-4.66,1.83-1.02,3.51-1.89,3.06-4.54-5.85,2.98-11.2,6.82-17.28,9.2ZM60.82,33.84c.18.26.35.52.53.78,8.74-5.05,16.33-11.66,24.24-17.82-.17-.23-.34-.46-.51-.69-8.09,5.91-16.17,11.83-24.26,17.74ZM151.7,18.54c1.6,0,1.94-.96,2.58-1.49,3.83-3.2,7.64-6.41,11.43-9.65.87-.75,1.74-.83,2.64-.24,1.1.71-.58,1.18-.08,2.21,2.05-1.48,4.04-2.92,6.02-4.35-.1-.3-.2-.59-.3-.89-2.8,1.71-6.3-.23-8.9,2.24-4.28,4.09-9.15,7.53-13.4,12.17ZM82.78,38.56c2.26-1.54,3.6-3.23,4.55-3.53-2.69.67-6.31,3.14-9.1,5.1,1.66-.17,3.05-.53,4.55-1.57ZM159.55,6.53c-.83,0-3.21,1.14-4.02,1.75-2.07,1.55-5.22,3.34-7.23,5.02-4.52,3.78-8.84,7.79-13.37,11.56.11.14.1.13.26.32,8.05-6.09,15.25-13.3,24.36-18.65ZM110.38,6.22c-1.27,0-2.12-.2-2.82.04-2.01.67-4.55-.25-6.1,1.21-2.97,2.8-5.93,5.57-9.26,7.95-1.08.78-1.97,1.83-2.95,2.76.17.2.34.4.51.59,3.89-3.03,7.83-5.98,11.64-9.11,1.36-1.12,2.87-2.26,4.42-1.57,2.14.95,2.92-.54,4.57-1.87ZM121.51,19.68c-.23-.31-.45-.62-.68-.93-7.36,3.11-12.13,9.66-18.52,14.04.15.2.3.4.45.6,6.25-4.57,12.5-9.14,18.75-13.71ZM123.53,15.83c.67.37,1.17,1.24,2.13.36.85-.78,1.8-1.45,2.72-2.15,3.15-2.42,5.65-5.85,9.99-6.46.43-.06,1.26-.27.8-1.26h-3.27c-4.24,3.53-8.75,5.74-12.38,9.51ZM182.12,6.04c-.76,2.56-3.08,3.61-4.62,5.39,3.28-.63,5.9-2.37,8.02-4.87,1.08-1.27.36-1.96-1.02-2.09-1.76-.16-3.52.52-5.31.03-.6-.16-1.11.39-1.24.98-.06.28.23.71.47.97.56.6,1.05.21,1.47-.23.53-.55,1.1-.77,2.24-.18ZM6.24,20.22c4.31-2.02,8.54-4.03,12.41-6.77-4.14,1.23-8.15,2.73-12.08,4.4-.71.3-1.88,1.15-.32,2.37ZM51.67,41.14c.8.22,7.39-6.22,7.39-6.22-1.95,1.99-4.8,4.15-7.39,6.22ZM51.7,9.04c-.83.15-5.77,1.85-8.89,3.42-.88.44-3,1.17-4.07,2.89,4.15-2.7,9.63-4.53,12.96-6.3ZM52.97,3.94c5.85,1.25,11.62.6,17.37-.31-5.8-.26-11.61-.6-17.37.31ZM68.84,15.25c-4.77,1.93-9.15,4.41-13.14,7.56,5.26-1.03,9.09-4.54,13.14-7.56ZM89.29,3.53c-4.74.39-9.52-1.08-14.26-.17,4.77,1.08,9.54,1.7,14.26.17ZM40.3,36.16c-2.26,1.73-4.69,3.02-7.05,4.47,1.81-.04,3.37-.34,5.13.26,1.23.42,2.73-.46,2.03-2.29-.31-.8.31-1.44-.1-2.44ZM104.62,13.84c.13.24.26.47.38.71,4.18-2.63,8.36-5.25,12.54-7.88-.18-.29-.35-.58-.53-.88-4.37,2.28-8.36,5.2-12.39,8.05ZM35.74,8.82c-5.87-.36-9.14,3.43-13.21,5.48,4.49-1.08,8.44-3.37,13.21-5.48ZM47.2,21.31c.16.26.33.53.49.79,3.93-2.94,8.9-4.22,12.45-7.78-.14-.23-.29-.46-.43-.69-4.17,2.56-8.34,5.12-12.51,7.68ZM95.54,9.19c.67-1.21,2.09-1.44,2.54-2.84h-8.05c-.22.8-.31,1.46.13,2.15,1.73-.4,3.54-1.24,5.38.69ZM114.72,39.12c-2.02-.29-3.18-.86-4.04-2.45-.96,2.09-2.84,2.24-4.22,3.38,2.57.13,5.18,1.27,8.26-.92ZM157.19,25.16c.14.19.28.39.43.58,3.73-3.03,7.42-6.09,10.18-10.21-3.54,3.21-7.07,6.42-10.61,9.63ZM176.34,12.2c-1.88,1.8-3.75,3.58-5.61,5.35,4.51-1,6.65-3.34,5.61-5.35ZM60.27,12.48c3.96,1.31,4.73-2.37,6.95-2.91-2.96-1.1-4.38,1.18-6.95,2.91ZM27.62,21.53c4.3-.36,7.75-2.54,7.66-4.55-2.4,1.43-4.74,2.82-7.66,4.55ZM125.49,6.19c-3.24-.65-6.45,1.64-6.96,4.3,2.19-1.33,3.83-3.21,6.96-4.3ZM150.1,24.09c.19.18.38.36.57.54,2.24-2.49,5.66-3.73,6.96-7.21-2.51,2.22-5.02,4.45-7.54,6.67Z"/>
  <path class="c" d="M179.66,16.47c1.58-2.14,4.14-3.49,5.26-6.18-.3,4.45.13,8.74-.08,13.03-.03.61-.56.91-1.13,1.19-2.8,1.35-5.18,3.3-7.44,5.41-3.31,3.08-6.45,6.38-10.7,9.06.67-2.25,2.56-2.63,3.68-3.78,4.28-4.42,8.58-8.82,13.67-12.34,1.28-.88.75-1.7.26-3.05-6.52,3.59-11.38,8.92-16.93,13.41,5.59-6.04,11.52-11.69,18.13-16.6q-1.45-1.77-4.73-.14Z"/>
  <path class="b" d="M146.67,6.3c-11.61,9.27-22.77,18.95-35.17,27,5.15-5.46,11.23-9.85,17.03-14.49,5.74-4.59,11.07-9.94,18.14-12.51Z"/>
  <path class="c" d="M16.01,3.93h25.28c.01.29.02.58.03.86-8.06.47-16.05,1.81-24.18,1.34-.45-.03-.45-.14-1.14-2.2Z"/>
  <path class="c" d="M20.11,40.18c6.09-2.38,11.43-6.22,17.28-9.2.45,2.65-1.23,3.52-3.06,4.54-4.42,2.46-8.67,5.32-14.22,4.66Z"/>
  <path class="b" d="M60.82,33.84c8.09-5.91,16.17-11.83,24.26-17.74.17.23.34.46.51.69-7.91,6.16-15.5,12.77-24.24,17.82-.18-.26-.35-.52-.53-.78Z"/>
  <path class="c" d="M151.7,18.54c4.26-4.64,9.12-8.08,13.4-12.17,2.59-2.48,6.1-.53,8.9-2.24.1.3.2.59.3.89-1.98,1.43-3.97,2.87-6.02,4.35-.5-1.03,1.17-1.5.08-2.21-.9-.58-1.77-.5-2.64.24-3.79,3.24-7.61,6.45-11.43,9.65-.64.53-.98,1.49-2.58,1.49Z"/>
  <path class="c" d="M159.55,6.53c-9.11,5.35-16.31,12.56-24.36,18.65-.16-.19-.1-.13-.26-.32,4.53-3.76,8.85-7.78,13.37-11.56,2-1.67,5.49-3.11,7.23-5.02"/>
  <path class="d" d="M110.38,6.22c-1.64,1.33-2.42,2.82-4.57,1.87-1.55-.69-3.06.45-4.42,1.57-3.8,3.13-7.75,6.09-11.64,9.11-.17-.2-.34-.4-.51-.59.98-.93,1.86-1.98,2.95-2.76,3.33-2.38,6.29-5.15,9.26-7.95,1.55-1.46,4.09-.55,6.1-1.21.71-.23,1.55-.04,2.82-.04Z"/>
  <path class="b" d="M121.51,19.68c-6.25,4.57-12.5,9.14-18.75,13.71-.15-.2-.3-.4-.45-.6,6.4-4.39,11.17-10.93,18.52-14.04.23.31.45.62.68.93Z"/>
  <path class="b" d="M123.53,15.83c3.63-3.77,8.13-5.98,12.38-9.51h3.27c.46.99-.37,1.2-.8,1.26-4.34.61-6.84,4.04-9.99,6.46-.92.7-1.87,1.37-2.72,2.15-.96.88-1.46,0-2.13-.36Z"/>
  <path class="d" d="M182.12,6.04c-1.14-.59-1.71-.36-2.24.18-.42.44-.91.83-1.47.23-.24-.26-.53-.69-.47-.97.13-.58.64-1.14,1.24-.98,1.79.48,3.55-.19,5.31-.03,1.38.13,2.1.82,1.02,2.09-2.12,2.5-4.73,4.24-8.02,4.87,1.54-1.78,3.86-2.83,4.62-5.39Z"/>
  <path class="c" d="M6.24,20.22c-1.55-1.22-.39-2.07.32-2.37,3.94-1.67,7.95-3.17,12.08-4.4-3.87,2.73-8.1,4.75-12.41,6.77Z"/>
  <path class="d" d="M51.7,9.04c-3.8,1.98-8.81,3.6-12.96,6.3.6-1.04,2.56-2.44,3.45-2.89,3.13-1.57,5.73-2.8,9.51-3.42Z"/>
  <path class="c" d="M52.97,3.94c5.76-.9,11.57-.57,17.37-.31-5.75.91-11.52,1.55-17.37.31Z"/>
  <path class="c" d="M89.29,3.53c-4.72,1.53-9.48.91-14.26-.17,4.73-.91,9.51.56,14.26.17Z"/>
  <path class="c" d="M40.3,36.16c.41,1-.2,1.63.1,2.44.7,1.83-.8,2.71-2.03,2.29-1.76-.6-3.32-.3-5.13-.26,2.36-1.45,4.8-2.74,7.05-4.47Z"/>
  <path class="c" d="M104.62,13.84c4.03-2.85,8.02-5.77,12.39-8.05.18.29.35.58.53.88-4.18,2.63-8.36,5.25-12.54,7.88-.13-.24-.26-.47-.38-.71Z"/>
  <path class="c" d="M35.74,8.82c-4.77,2.1-8.72,4.39-13.21,5.48,4.07-2.05,7.34-5.84,13.21-5.48Z"/>
  <path class="b" d="M47.2,21.31c4.17-2.56,8.34-5.12,12.51-7.68.14.23.29.46.43.69-3.56,3.56-8.52,4.84-12.45,7.78-.16-.26-.33-.53-.49-.79Z"/>
  <path class="d" d="M95.54,9.19c-1.84-1.93-3.65-1.09-5.38-.69-.43-.69-.35-1.35-.13-2.15h8.05c-.45,1.4-1.87,1.63-2.54,2.84Z"/>
  <path class="c" d="M114.72,39.12c-3.08,2.19-5.69,1.05-8.26.92,1.38-1.14,3.26-1.29,4.22-3.38.86,1.59,2.02,2.16,4.04,2.45Z"/>
  <path class="d" d="M157.19,25.16c3.54-3.21,7.07-6.42,10.61-9.63-2.76,4.12-6.45,7.19-10.18,10.21-.14-.19-.28-.39-.43-.58Z"/>
  <path class="c" d="M176.34,12.2c1.04,2.01-1.1,4.35-5.61,5.35,1.86-1.78,3.73-3.56,5.61-5.35Z"/>
  <path class="b" d="M60.27,12.48c2.57-1.72,3.99-4,6.95-2.91-2.22.53-2.99,4.21-6.95,2.91Z"/>
  <path class="c" d="M27.62,21.53c2.92-1.74,5.26-3.13,7.66-4.55.09,2.02-3.36,4.2-7.66,4.55Z"/>
  <path class="c" d="M125.49,6.19c-3.13,1.09-4.77,2.97-6.96,4.3.51-2.66,3.72-4.95,6.96-4.3Z"/>
  <path class="b" d="M150.1,24.09c2.51-2.22,5.02-4.45,7.54-6.67-1.31,3.48-4.72,4.72-6.96,7.21-.19-.18-.38-.36-.57-.54Z"/>
</svg>