<?xml version="1.0" encoding="UTF-8"?>
<svg xmlns="http://www.w3.org/2000/svg" width="90.19" height="89.97" viewBox="0 0 90.19 89.97">
  <defs>
    <style>
      .c, .d, .e, .f {
        stroke-width: 0px;
      }

      .d {
        fill: #282828;
      }

      .e {
        fill: #fff;
      }

      .f {
        fill: #fcfcfc;
      }
    </style>
  </defs>
  <g id="a" data-name="Layer 1">
    <path class="d" d="M38.15,86.67c-1.24.02-2.01.86-2.87,1.62-.85.76-1.53,2.49-3.04,1.24-1.21-1-1.82-2.4-.01-4.35-8.04.08-12.42-5.94-18.11-9.32-3.74-2.22-6.52-6.56-7.77-11.2-.57-2.1-1.89-3.78-2.65-5.74-.59-1.51-1.95-1.07-3.69-1.52,3.47-4.23-.17-8.52.77-13.07.75-3.59.95-7.35,2.22-10.9,1.83-5.13,4.68-9.62,7.91-14,3.9-5.29,9.55-8.18,14.44-12.14C32.07,1.83,39.81-.38,47.69.05c7.52.41,15.23,1.97,22.01,6.64,2.15,1.48,3.74,5.23,7.57,4.2.72-.19,1.44.75,1.39,1.51-.26,4.14,3.3,6.29,4.81,9.49,3.21,6.82,6.34,13.86,6.68,21.36.47,10.19-3.61,18.93-10.11,26.96-4.45,5.51-9.53,9.83-15.67,12.91-2.07,1.04-4.26,2.12-6.66,2.69-2.59.62-5.45.78-7.51,3.08-.94,1.04-2.82,1.72-3.46-.42-.82-2.75-2.08-1.48-3.22-.56-3.5,2.79-3.47,2.83-5.37-1.24ZM32.57,61.04c-3.33,4.86-5.68,10-9.25,14.46.16.12.32.24.76.57,3.5-5.61,6.98-11.2,10.44-16.8,2.33-4.18,5.61-7.79,7.29-12.37-2.28,2.88-2.82,4.84-4.84,7.89M33.73,79.63c-.3.47-1.02,1.29,0,1.91.95.58,1.43-.13,1.78-.79,4.02-7.61,8.62-14.87,13.1-22.2M60.16,39.9c3.2-5.57,6.8-10.94,9.31-16.89-.23-.15-.47-.3-.7-.44M47.89,83.06c3.18-3.25,4.6-7.64,6.85-11.5,2.46-4.21,5.22-8.26,7.74-12.44,2.47-4.09,5.07-8.14,7.13-12.43M25.47,26.22c5.65-6.08,9.13-13.88,15.57-19.54-1.3,1.29-1.78-1.14-4.58,1.55-.18.17-.42.48-.64.71-4.74,4.97-6.76,11.59-10.35,17.28ZM85.19,38.26c-2.82,6.91-8.08,12.57-10.21,19.87,4.53-6.01,9.21-11.94,10.21-19.87ZM71.27,50.42c4.06-6.96,8.12-13.92,12.18-20.89-.37-.21-.74-.41-1.11-.62-4.38,6.79-8.03,13.98-11.06,21.51ZM26.54,38.8c-.19-.19-.38-.39-.57-.58-3.87,5.1-7.75,10.19-11.62,15.29,5.8-3.54,8.36-9.63,12.19-14.7ZM13.22,54.81c-5.87,3.39-6.37,5.05-1.91,8.81-1.99-3.94,3.66-5.26,1.91-8.81ZM61.79,77.42c-4.65.25-5.79,1.17-6.05,5.08,2.25-1.58,5.36-1.61,6.05-5.08ZM8.63,38.17c-3.82,1.53-4.83,5.35-3.41,12.26.73-1.23,1.41-2.37,1.95-3.28-3.94-3.79,1.06-5.89,1.46-8.97ZM84.03,55.28c-1.97,3.76-4.58,7.16-6.09,11.12,2.44-3.51,5.46-6.71,6.09-11.12ZM67.35,76.46c1.8-2.89,4.45-5.31,4.91-8.9-1.77,2.91-4.44,5.3-4.91,8.9ZM51.21,28.89c1.98-3.26,3.95-6.53,5.93-9.79-2.93,2.7-5,5.93-5.93,9.79ZM45.55,8.03c.93-1.39,3.08-2.28,2.03-4.14-.47-.82-2.11-1.74-3.35.1,2.29.64,1.95,2.26,1.32,4.04ZM39.27,15.44c3.88-.47,3.49-3.65,4.58-5.66-1.09,2-3.4,3.05-4.58,5.66Z"/>
    <path class="e" d="M69.58,46.77c-2.06,4.3-4.66,8.34-7.13,12.43-2.52,4.18-5.28,8.22-7.74,12.44-2.25,3.86-3.67,8.24-6.85,11.5"/>
    <path class="e" d="M25.45,26.29c3.6-5.69,5.61-12.31,10.35-17.28.22-.23.46-.54.64-.71,2.83-2.69,3.28-.26,4.58-1.55-6.44,5.66-9.92,13.46-15.57,19.54Z"/>
    <path class="e" d="M85.17,38.33c-1,7.93-5.68,13.86-10.21,19.87,2.13-7.3,7.39-12.96,10.21-19.87Z"/>
    <path class="e" d="M71.24,50.49c3.03-7.53,6.69-14.72,11.06-21.51.37.21.74.41,1.11.62-4.06,6.96-8.12,13.92-12.18,20.89Z"/>
    <path class="e" d="M26.52,38.87c-3.84,5.08-6.4,11.16-12.19,14.7,3.87-5.1,7.75-10.19,11.62-15.29.19.19.38.39.57.58Z"/>
    <path class="e" d="M13.19,54.88c1.75,3.55-3.9,4.87-1.91,8.81-4.46-3.76-3.96-5.42,1.91-8.81Z"/>
    <path class="e" d="M34.25,58.81c-3.48,5.58-6.7,11.71-10.19,17.32-.44-.33-.6-.45-.76-.57,3.57-4.46,5.4-9.71,9.09-14.09.61-.72,1.99-2.16,2.09-2.13l-.22-.54Z"/>
    <path class="e" d="M61.76,77.49c-.69,3.47-3.8,3.5-6.05,5.08.26-3.91,1.4-4.83,6.05-5.08Z"/>
    <path class="e" d="M8.61,38.24c-.39,3.08-5.4,5.19-1.46,8.97-.54.91-1.22,2.05-1.95,3.28-1.42-6.91-.42-10.73,3.41-12.26Z"/>
    <path class="e" d="M84,55.35c-.63,4.4-3.65,7.6-6.09,11.12,1.51-3.95,4.12-7.36,6.09-11.12Z"/>
    <path class="e" d="M67.32,76.53c.48-3.6,3.14-5.99,4.91-8.9-.47,3.59-3.11,6.01-4.91,8.9Z"/>
    <path class="e" d="M51.18,28.96c.93-3.87,3-7.09,5.93-9.79-1.98,3.26-3.95,6.53-5.93,9.79Z"/>
    <path class="e" d="M45.52,8.1c.63-1.78.97-3.39-1.32-4.04,1.24-1.84,2.88-.92,3.35-.1,1.06,1.86-1.1,2.74-2.03,4.14Z"/>
    <path class="e" d="M39.24,15.51c1.17-2.61,3.48-3.65,4.58-5.66-1.08,2.01-.69,5.18-4.58,5.66Z"/>
  </g>
  <g id="b" data-name="close">
    <g>
      <path class="c" d="M25.18,21.27s16.11,19.98,22.07,26.71,18.46,20.82,18.46,20.82"/>
      <g>
        <path class="f" d="M32.2,27.04v.22s.06-.11,0-.22Z"/>
        <path class="f" d="M58.51,57.87s.03,0,.05,0c-.03-.01-.04-.01-.05,0Z"/>
        <path class="f" d="M32.35,34.98h0s-.03-.01-.05-.02l.06.02Z"/>
        <path class="f" d="M27.47,28.37c1.22,1.78,1.05,2.65,2.68,4.2.63.86,1.47,1.64,2.19,2.39.72.05.87,1.05,1.58,1.22l-.09.37c.24.06.47.18.48.44l-.08.05c.37.09.48.44.66.48l-.08.05.26.26-.14.03c.52.25.87.66,1.09,1.1l.26-.26c.34,1.04,1.15.85,1.37,1.87l-.08.05c1.48.28.67,1.83,2.14,2.17-.18-.04-.1.17-.18.22.43.36.85.78,1.41.32.25.31.04.39-.14.61.24-.2.56-.02.78.21l-.19-.03.66.62.34-.51c.18.47-.47.56-.07.81l.37-.32c.35.57.03,1.34.18,2.06.78,1.08,1.89,1.97,2.93,2.88,1.03.89,1.98,1.82,2.48,3.03l-.2.32c-.37.39,1.05-.02.74.38l.37.05c-.02.12.02.32-.17.29.16.21.23.16.48.19l-.06.43c.5.95,1.57,1.19,2.2,2.1.37,1.44,2.49,2.89,3.71,3.72,1.94.98,1.89,4.15,3.95,5.08-.01.1.23.12.28.08l1.2,1.46s5.92,6.98,4.63-1.17l.12-.04c-.47-.96-.86-1.49-1.77-1.63.46-.56-.51-.68-.49-1.02l.06-.02c-.83-.1-.52-1.28-1.29-1.4.06-.02.22-.14.32-.05-.36-.27-.88-.62-.59-.92-.78-.72-1.62-1.95-2.57-2.01l.12-.04c-.59.01-.38-.33-.84-.5.03-.05.03-.1.05-.11-.61-.02-.87-.87-1.23-1l.19-.2-.6-.58.16.27c-.65.43-.06-.79-.83-.92-.3-.49-1.96.19-2.07-.5-.46.03.6-.2.12-.33.29-.28.32-.02.48-.31-.42-.18-.14-.78-.68-.98l.22-.22c-.87-.12-.52-1.21-1.22-1.18-.65-.34.39-.96-.54-1.09l.13-.49c-.15-.27-.53.18-.6-.21.21-.16-.13-.46.19-.48-.2-.85-1.47-.77-1.62-1.99-.53.18-.64-.41-1.04-.27.15-.17-.65-.79.1-.68.06.01.11.08.04.13l.27-.15c.05-.81-.93-.57-1.23-1.05.03.19.2.34-.06.37l-.31-.42.27-.09-.39-.68-.17.29c-.13-.39.2-.85-.42-.88-.32.02-.09.56-.43.31-.17-.53-.42-1.32-.76-1.89-.23.28-.34.14-.51.04l.22-.22c-.78-.25.36-.64-.35-.94l.21-.09-.62.28c-.87-.08.28-.67-.81-.66.22.18-.44.54-.56.19l.29-.13c-.17-.1-.3-.07-.34-.2.2-.02.37-.24.16-.41l.41-.1-.76-.04c0-.51-.73-.74-.51-1.14,0,0-.39-.8-.87-.65.33-.05.11-.49.46-.6-.39.04-1.02-.3-.92-.73h.06c-.35-.96-1.44-.96-1.66-1.91-.25.26-.4-.22-.68.16-.93-.41-.33-1.88-1.64-1.22-.32-.27-.05-.59-.13-.8l.12.03c-.58-.52-.73-.69-1.07-1.15-.29-.13-.83.25-1.03-.25.31-.04.14-.17.02-.32.11.07.21.04.19-.27-.09.02-.16.01-.22,0,.01-.01.02-.03.05-.05-.28-.19-.3-.09-.24.04-.04.02-.07.06-.1.14.05-.47-.61-.7-.28-1.02-.69-.68-1.49-.92-2.14-1.43.12-.22.4-.2.62-.08l-.43-.39c.26-.21.36.13.52.23,0-.87-1.3-.74-1.42-1.67l-.31.04v-.06c-.1.09-.36.07-.47,0,.16-.27.53-.42.26-.71.02-.42-.67-.6-1.05-.82.1.2-.07.25-.21.24-.13-.15.02-.42-.17-.46l.29-.26c-.24.29-.64-.15-.81-.1.16-.27.39.08.59-.02-.53-.59-.26-.3-.79-.89-.5-.14-.24.29-.64.36-.29-.24-.74-.35-.82-.83l-.19.33c-.65-.37-.88-.72-.9-1.31-5.5-2.26-3.72,1.6-3.72,1.6.69,2.09,2.15,2.27,3.91,3.99Z"/>
      </g>
    </g>
    <g>
      <path class="f" d="M61.55,23.06l-.23.06c.06.04.14.04.23-.06Z"/>
      <path class="f" d="M33.89,59.27s0,.04,0,.06c0-.03,0-.05,0-.06Z"/>
      <path class="f" d="M53.12,25.78h0s0-.05,0-.07v.07Z"/>
      <path class="f" d="M58.49,18.51c-1.44,1.88-2.42,1.98-3.53,4.19-.7.94-1.26,2.07-1.84,3.07.18.78-.85,1.25-.81,2.06h-.42c.01.29-.04.57-.32.65l-.07-.07c.02.42-.32.64-.31.85l-.07-.07-.2.36-.07-.14c-.11.63-.44,1.13-.85,1.49l.36.2c-1.02.65-.57,1.48-1.61,1.99l-.07-.07c.11,1.69-1.76,1.17-1.73,2.83,0-.21-.21-.07-.28-.14-.28.55-.62,1.1,0,1.59-.28.34-.42.13-.69-.01.28.21.16.61-.04.89v-.21s-.53.85-.53.85l.64.26c-.48.3-.71-.39-.9.1l.43.33c-.54.51-1.45.33-2.21.62-2.01,2.14-2.95,5.47-5.44,6.98l-.39-.17c-.5-.34.2,1.15-.29.88v.42c-.13,0-.34.07-.34-.14-.21.21-.14.28-.13.56h-.49c-.96.72-1.05,1.94-1.95,2.78-1.53.64-2.77,3.21-3.49,4.7-.76,2.3-4.27,2.75-4.98,5.16-.11,0-.09.27-.04.32l-1.43,1.55s-.42.48-.92,1.15c-.2.25-.06.13-.26.36-.14.18-.29.36-.43.55-.28.38-.53.77-.71,1.15-.73,1.51-.34,2.79,4.17,1.83l.05.13c.26-.16.46-.23.8-.56.23-.21.36-.33.5-.51.26-.34.39-.73.4-1.24.69.43.68-.67,1.05-.71l.03.06c-.02-.94,1.33-.77,1.35-1.65.03.06.19.22.1.34.24-.44.54-1.08.93-.8.67-.98,1.9-2.1,1.82-3.16l.07.12c-.11-.66.3-.48.42-1.01.06.02.11.01.13.03-.08-.68.82-1.1.91-1.53l.25.18.55-.76-.28.23c-.58-.64.87-.2.88-1.07.49-.42-.53-2.13.21-2.37-.11-.5.32.63.39.07.35.27.07.35.42.48.13-.49.84-.29.97-.92l.28.2c-.01-.98,1.25-.78,1.1-1.55.27-.77,1.12.26,1.11-.79l.56.06c.28-.21-.29-.56.13-.7.21.21.49-.22.56.13.91-.37.6-1.76,1.93-2.14-.29-.56.34-.78.12-1.19.21.14.75-.86.77-.02,0,.07-.07.14-.14.07l.22.28c.91-.09.47-1.14.95-1.57-.21.08-.34.29-.42.01l.41-.43.15.28.69-.58-.35-.13c.41-.22.98.04.9-.66-.08-.35-.63.02-.43-.41.55-.3,1.38-.74,1.93-1.26-.36-.2-.22-.34-.16-.56l.29.2c.11-.92.78.25.96-.6l.15.2-.44-.61c-.1-.98.8.15.55-1.05-.14.28-.69-.36-.34-.57l.21.28c.07-.21,0-.35.15-.42.07.21.34.35.49.07l.2.42-.13-.85c.56-.14.65-.98,1.14-.85,0,0,.78-.66.5-1.15.14.35.57-.02.78.33-.13-.43.07-1.21.55-1.22v.07c.97-.67.66-1.85,1.62-2.38-.36-.2.13-.5-.37-.69.17-1.13,1.93-.92.83-2.14.19-.43.62-.24.83-.39v.14c.4-.79.53-1.01.92-1.52.05-.35-.53-.82-.05-1.19.14.32.23.1.35-.08-.04.14.03.24.35.11-.05-.08-.06-.17-.07-.24.02.01.04.01.06.03.12-.36,0-.36-.12-.24-.03-.03-.09-.05-.18-.06.53-.09.57-.88,1.01-.63.51-.97.51-1.9.85-2.76.27.06.35.36.29.64l.28-.59c.31.21-.03.43-.07.63.93-.3.37-1.64,1.33-2.09l-.15-.32.07-.02c-.13-.08-.2-.37-.17-.51.34.07.63.42.85.03.46-.13.41-.93.51-1.41-.18.18-.29.02-.33-.14.11-.19.45-.13.43-.35l.38.22c-.4-.15-.07-.73-.18-.9.34.07.05.44.23.62.44-.79.22-.39.66-1.18-.03-.58-.4-.14-.61-.54.15-.4.09-.92.57-1.2l-.42-.06c.13-.84.4-1.2.99-1.68-.01-.17-.05-.32-.11-.44-.29-.82-.66-1.26-.98-1.64-.33-.36-.64-.59-.92-.71-.56-.24-.97-.14-1.28.07-.31.18-.53.51-.67.77-.15.26-.22.45-.22.45-.13.29-.21.22-.26.21-.04,0-.06-.02-.06-.02h0s.02-.02-.02.09c-.12.31-.2.63-.31,1.02-.19.75-.41,1.65-.92,2.69Z"/>
    </g>
  </g>
</svg>