<?xml version="1.0" encoding="UTF-8"?>
<svg xmlns="http://www.w3.org/2000/svg" width="81.28" height="89.68" viewBox="0 0 81.28 89.68">
  <defs>
    <style>
      .c, .d {
        stroke-width: 0px;
      }

      .d {
        fill: #fff;
      }
    </style>
  </defs>
  <g id="a" data-name="Layer 1">
    <g>
      <path class="c" d="M72.87,35.37c-.03.26.02.52.27.61.4.15.66.39.8.79.05.14.19.27.33.34.42.23.19.76.5,1.04.04.03-.03.22-.07.32-.13.28-.28.55-.52.78-.61.59-.57.59-1.12.04-.44-.45-.96-.79-1.53-1.07-.6-.3-.83-.29-1.26.12-.23.21-.42.51-.81.41-.21.18-.43.36-.61.56-.05.06-.06.25,0,.31.58.69.95,1.54,1.61,2.17,0,.26.21.27.38.38.15.1.33.3.33.45,0,.33.23.49.38.71.18.25.65.17.65.61.06,0,.14.02.18-.01.16-.12.27-.28.26-.5,0-.33.2-.55.49-.56.5-.02.83-.41,1.29-.53.19-.05.09-.45.33-.43.42.03.75-.19,1.13-.27.35-.07.66-.23.95-.43.15-.11.3,0,.41.12.03.03.07.05.08.09.1.17.18.34.28.51.15.27.36-.02.46.03.2.11.36.32.52.49.11.12.07.31-.08.41-.23.15-.45.39-.7.41-.45.04-.73.27-.99.57-.14.16-.34.16-.52.23-.28.1-.54.3-.79.47-.52.35-1.06.67-1.49,1.14-.15.16-.09.25.01.39.09.12.13.28.21.41.17.26.57.37.55.74-.02.32-.43.43-.49.79-.04.2-.3.36-.48.52-.17.15-.16-.04-.21-.13-.21-.35-.62-.44-.89-.71-.03-.03-.17,0-.22.04-.23.19-.31.13-.36-.14-.01-.06-.22-.16-.28-.13-.24.12-.45.36-.73.06-.01-.01-.27.13-.32.25-.06.15.11.14.21.16.04,0,.1.04.09.06,0,.06-.04.16-.06.15-.42-.02-.73.25-1.08.41-.14.06-.34.11-.39.22-.07.17-.05.39-.05.58,0,.07.06.19.1.2.43.01.34.5.61.65.23.13.49.2.58.52.02.06.31.12.43.07.28-.12.59-.26.79-.48.27-.3.71-.11.96-.41,0,0,.12.06.18.11.16.12.35.09.4-.06.06-.2.16-.36.32-.48.04-.03.14-.01.18.02.19.15.35.15.52-.02.34-.35.74-.59,1.24-.58.32-.41.63-.12.94.02.07.03.16.08.18.13.16.44.72.46.9.86.02.05,0,.16-.03.18-.49.31-.95.7-1.57.72-.26.01-.45.09-.63.27-.24.26-.46.54-.9.49-.17-.02-.05.16,0,.25.02.03.05.08.05.09-.25.26-.49.53-.77.76-.1.08-.3.06-.46.07-.43.04-.48.11-.28.49.07.15.12.25.03.43-.18.34-.43.65-.43,1.07,0,.14-.25.29-.41.4-.09.05-.24.04-.35,0-.11-.04-.19-.14-.28-.21-.21-.17-.34-.49-.65-.48-.43,0-.87-.13-1.27.17-.14.11-.36.1-.55.15-.07.44-.4.38-.72.4-.26.01-.55.25-.46.39.17.29.06.31-.18.33-.11,0-.22.06-.33.09.04.06.07.14.12.19.14.15.29.28.42.43.07.09.14.21.13.31-.03.4.11.62.49.81.34.18.61.52.86.83.31.39.68.52,1.15.47.22-.02.37-.06.42-.31.02-.07.19-.18.26-.16.32.07.54-.17.76-.29.76-.41.74-.45,1.18-.44.21,0,.39-.02.43-.29,0-.07.1-.18.14-.17.42.06.71-.33,1.13-.27.33.05.53-.04.74-.38.22-.35.78-.27,1.15-.49.03-.02.08-.05.09-.04.46.38,1.25.36,1.4,1.12.21.19.13.44.14.68,0,.17-.06.31-.27.31-.2,0-.4,0-.6,0-.26,0-.31.15-.34.38-.04.3-.21.42-.47.34-.15-.05-.27-.16-.41-.21-.06-.02-.15.03-.22.04.01.06.01.14.05.19.07.1.16.18.25.26.09.07.09.13,0,.19-.13.09-.25.19-.38.26-.24.13-.54.2-.71.39-.28.31-.6.36-.97.34-.25-.01-.39.04-.52.33-.16.34-.52.6-.82.86-.37.32-.41.33-.14.55.35.29.56.67.74,1.06.1.2.18.3.38.37.14.05.29.2.33.33.07.22.17.3.38.39.16.06.3.26.37.44.1.24.25.39.48.49.14.06.28.15.38.26.1.11.12.3.23.4.14.13.34.19.51.28.22.12.55.56.58.79.01.08,0,.16,0,.24-.08.48-.07.5.1.66.32.29.78.39,1.02.78.09.14.09.3-.02.43-.25.27-.6.46-.92.47-.68.02-1.18.4-1.7.72-.5.31-.98.62-1.56.75-.38.08-.6.37-.75.69-.05.11-.01.35.07.44.32.36.66.7,1.03,1.01.62.51.7.86.37,1.58-.08.18-.13.38-.3.49-.09.06-.26.13-.32.08-.28-.21-.64-.28-.89-.58-.33-.4-.72-.75-1.1-1.11-.17-.16-.36-.31-.55-.44-.21-.15-.44-.28-.66-.42-.17.17-.36.32-.52.5-.19.22-.44.16-.67.15-.4-.01-.7.09-.82.51-.02.07-.09.19-.12.18-.47-.09-.57.3-.77.57-.1.13-.24.19-.41.19-.33,0-.55.26-.84.37-.12.05-.29.19-.22.38.03.09.16.14.23.21.08.08.16.15.22.24.19.29.32.68.59.85.26.17.47.46.76.54.43.13.69.44.9.75.41.59.79,1.17,1.47,1.48.14.56.73.8.94,1.33.26.68.18,1.15-.45,1.5-.09.05-.25.07-.35.02-.28-.13-.54-.32-.82-.44-.37-.15-.26-.79-.8-.76-.4.02-.5-.52-.91-.51-.19-.47-.64-.7-1.02-.9-.41-.22-.62-.63-1-.83-.62-.32-1.05-.84-1.53-1.31-.29-.28-.64-.45-1.02-.54-.1-.02-.25.03-.31.1-.05.06-.04.25.01.31.49.45.85,1.04,1.51,1.33.35.15.5.62.94.71.06.01.1.2.12.31.02.16.03.3.22.37.35.12.57.4.75.72.09.17.23.32.34.47.16.21.37.27.63.27.18,0,.22.1.12.2-.16.18-.35.33-.5.52-.18.24-.19.69-.57.67-.28-.02-.55-.27-.83-.39-.52-.2-.99-.47-1.36-.9-.15-.17-.3-.38-.58-.38-.5-.44-1.11-.74-1.56-1.27-.36-.43-.82-.77-1.17-1.2-.33-.41-.84-.38-1.23-.61-.11-.07-.19.07-.26.18-.16.27-.17.28-.51.14-.1-.04-.14-.08-.18.02-.01.04-.04.07-.04.11.01.49-.22.72-.71.75-.19.01-.31.26-.25.44.02.07.03.17.08.21.69.55,1.06,1.39,1.72,1.96.38.33.57.8,1.02,1.09.43.28.76.71,1.12,1.08.19.19.19.32,0,.51-.25.26-.51.51-.76.77-.13.13-.14.13-.38.01-.66-.33-1.38-.56-1.89-1.16-.09-.11-.27-.14-.41-.2-.33-.14-.6-.36-.86-.61-.57-.55-1.27-.94-1.8-1.54-.17-.19-.46-.3-.71-.39-.13-.05-.3.03-.45.07-.07.02-.18.12-.19.11-.41-.43-.62-.01-.88.2-.15.13-.29.09-.42-.02-.13-.12-.28-.13-.44-.13-.21,0-.26.05-.16.26.1.2.16.35-.11.46-.14.06-.27.15-.39.25-.14.12-.15.3-.04.42.25.25.43.58.87.56.12,0,.33.13.37.25.23.58.75.91,1.14,1.36.26.29.6.5.72.92.1.33.5.36.76.52.21.12.44.17.39.49-.01.07.02.16.06.22.13.19.27.38.4.57-.26.38-.17.93-.62,1.23-.13.08-.22.23-.37.05-.32-.38-.83-.43-1.2-.71-.15-.11-.19.07-.29.08-.11.01-.24.03-.32-.01-.13-.08-.25-.2-.35-.32-.38-.49-.99-.62-1.45-.98-.43-.35-.78-.8-1.31-1-.2-.07-.36-.15-.49-.3-.27-.32-.6-.48-1.04-.47-.15,0-.31-.21-.46-.33.41-.55-.28-.35-.4-.54-.11-.17-.42-.09-.64.08-.21.16-.45.15-.65-.02-.18-.15-.37-.12-.56-.13-.39,0-.48.11-.28.49.19.35.12.6-.14.85-.18.16-.35.33-.51.51-.23.26-.46.47-.79.13-.47-.04-.94-.17-1.38.1-.03.02-.07.07-.1.07-.64-.1-1.02.32-1.41.72-.08.09-.17.22-.27.23-.32.03-.45.41-.68.43-.23.02-.49-.18-.7-.33-.21-.15-.6.11-.67-.33-.04-.29-.38-.23-.56-.38-.21-.16-.49-.23-.74-.34-.03-.02-.08-.05-.08-.08-.07-.64-.68-.54-1.05-.77-.18-.11-.5-.1-.47-.44-.2-.13-.39-.25-.59-.38-.13-.08-.26-.2-.4-.21-.33-.02-.65,0-.85-.32-.14-.23-.56-.11-.58-.52,0-.13-.26-.27-.43-.37-.23-.14-.52-.2-.72-.38-.21-.18-.3.2-.5.02-.21-.19-.19.06-.27.17-.08.11-.27.14-.36.25-.06.07-.06.29-.04.3.57.24.91.76,1.34,1.16.24.21.42.48.81.42.1-.02.3.16.35.29.09.28.27.47.46.68.12.13.12.28,0,.42-.14.18-.33.32-.41.57-.11.34-.4.47-.76.42-.04,0-.08,0-.12,0-.22.07-.46.24-.64.19-.2-.05-.36-.3-.53-.47-.06-.05-.11-.13-.18-.16-.97-.42-1.78-1.11-2.66-1.68-.68-.43-1.47-.49-2.24-.07-.34.18-.69.41-1.05.47-.47.08-.96.03-1.44,0-.07,0-.17-.14-.2-.24-.13-.46-.12-.47-.5-.46-.37.01-.73,0-.95-.36-.18-.29-.51-.36-.78-.52-.09-.05-.28-.09-.31-.05-.32.4-.9,0-1.21.4-.03.04-.22-.01-.31-.06-.56-.26-1.19-.32-1.74-.62-.39.07-.57-.23-.79-.45-.12-.13-.36-.66-.32-.7.23-.21.37-.53.75-.54.11,0,.28-.03.32-.1.43-.84,1.19-1.35,1.92-1.87.03-.02.06-.05.09-.08.15-.15.2.03.28.09.19.13.17.34.19.54.03.28.17.16.3.07.04-.02.14.02.19.06.09.07.14.08.19,0,.02-.03.04-.08.03-.11-.11-.25-.19-.51-.35-.73-.2-.27-.05-.42.11-.61.24-.27.24-.28.05-.45-.17-.16-.3-.37-.56-.42-.08-.02-.17-.16-.19-.25-.09-.43-.72-.34-.77-.81,0-.04-.12-.1-.19-.11-.31-.03-.64.03-.9-.24-.06-.06-.28-.06-.34,0-.34.3-.75.19-1.14.23-.11.01-.22.08-.31.15-.16.12-.3.09-.42-.03-.23-.22-.45-.45-.69-.68-.2-.19-.39-.36-.66-.47-.51-.22-.5-1.1.04-1.37.03-.02.08,0,.12-.02.21-.1.42-.2.63-.31-.09-.28-.13-.59-.28-.85-.12-.21-.12-.53-.5-.59-.2-.03-.34-.32-.53-.47-.12-.09-.28-.19-.41-.18-.5.04-1.04-.18-1.5.21-.07.06-.26.06-.35,0-.2-.12-.36-.31-.57-.42-.16-.09-.37-.1-.55-.15-.04-.49-.63-.41-.82-.77-.07-.14-.18-.2-.04-.38.24-.29.57-.41.86-.61.2-.14.23-.36.09-.51-.35-.38-.7-.76-1.2-.95-.51-.19-.83-.57-1.11-1.01-.1-.16-.21-.33-.34-.47-.22-.24-.17-.54-.1-.79.03-.13.3-.2.45-.31.26-.2.3-.37.11-.59-.39-.45-.64-1-1.11-1.38-.11-.09-.14-.27-.22-.4-.16-.24-.35-.4-.68-.41-.16,0-.31-.21-.47-.32.31-.32-.03-.57-.14-.79-.14-.27-.44-.45-.65-.7-.17-.21-.28-.47-.45-.68-.18-.22-.39-.4-.59-.6-.05-.06-.11-.12-.13-.19-.15-.61-.6-1-1.01-1.43-.1-.11-.14-.27-.22-.41-.09-.18-.19-.05-.27,0-.18.13-.38.12-.56.04-.21-.1-.39-.24-.58-.36.15-.49-.41-.65-.48-1.03-.02-.14.03-.4.1-.42.43-.11.64-.47.91-.74.43-.41.83-.84,1.43-1.02.19-.06.17-.23.19-.39.06-.35.08-.36.46-.2.14.06.19.02.29-.04.29-.18.11-.54.29-.75.2-.23.19-.41-.03-.61-.23-.21-.42-.49-.81-.44-.05,0-.17-.14-.2-.24-.14-.53-.25-1.07-.89-1.26-.13-.04-.22-.22-.31-.35-.09-.12-.14-.28-.23-.4-.3-.41-.53-.88-.95-1.2-.12-.09-.2-.24-.27-.38-.63-1.14-.51-.98-1.64-1.78-.06-.05-.12-.11-.17-.16-.14-.15-.17-.51-.03-.66.33-.35.67-.69,1.01-1.03.07-.07.19-.17.27-.15.15.02.35.08.41.19.45.83,1.28,1.31,1.8,2.05.12.17.18.3.39.36.1.03.24.14.26.24.1.51.67.69.81,1.14.14.45.67.57.76,1.04.02.08.18.11.26.19.38.35.85.66,1.1,1.09.24.42.71.46.95.82.06.09.5,0,.53-.13.16-.61.69-.68,1.17-.82.11-.03.23-.07.31-.14.08-.06.17-.23.15-.26-.26-.3-.11-.77-.5-1.04-.32-.22-.55-.54-.73-.91-.15-.29-.44-.48-.85-.57-.52-.11-1.03-.38-1.22-.99-.04-.14-.18-.26-.3-.37-.16-.15-.11-.24.02-.37.27-.29.28-.31.04-.53-.31-.28-.52-.57-.48-1.03.01-.17-.17-.34-.22-.53-.05-.21-.18-.25-.35-.24-.19.01-.42,0-.57.09-.3.21-.73.05-.97.38-.48,0-.96,0-1.44,0-.04,0-.09.01-.12,0-.06-.05-.16-.13-.15-.16.11-.36-.26-.57-.27-.89,0-.18.08-.35.22-.36.24-.01.48,0,.72-.02.23-.01.32-.16.19-.41-.08-.15-.2-.25.08-.31.14-.03.28-.15.38-.26.06-.08.11-.28.08-.31-.41-.3-.39-.99-.99-1.11-.26-.42-.62-.78-.82-1.25-.02-.05.03-.13.05-.19.16-.42.42-.74.82-.96.78-.42.82-.26,1.23.14.14.14.28.29.41.44-.33.53.27.61.45.89.19.29.5.49.65.84.07.17.38.24.59.33.05.02.16-.01.21-.06.05-.05.06-.14.07-.21,0-.03-.02-.08-.04-.1-.12-.12-.18-.24-.01-.38.13-.11.12-.12.38-.01.25.1.39.04.41-.2,0-.08,0-.16,0-.24.04-.43.04-.44.38-.45.2,0,.4,0,.6,0,.19-.02.45-.29.46-.49,0-.27.08-.56-.18-.78-.19-.16-.33-.34-.3-.61.02-.2-.12-.28-.3-.27-.31.02-.42-.12-.42-.42,0-.26-.19-.36-.39-.31-.49.12-.87.53-1.4.53-.04,0-.11.12-.11.19.02.34-.13.44-.47.51-.34.07-.65.23-1.02.21-.31-.01-.31,0-.81-.46-.32-.01-.36-.22-.36-.49,0-.36-.01-.7.33-.96.2-.15.36-.29.63-.26.2.02.4,0,.59-.04.06-.02.12-.2.11-.3-.01-.1-.18-.24-.15-.28.08-.13.24-.33.33-.32.42.07.5-.24.71-.47.37-.42.4-.39.25-.72-.18-.38-.46-.73-.41-1.2.01-.13-.15-.27-.2-.41-.05-.15-.05-.33-.26-.34-.12,0-.28-.04-.35.02-.27.27-.59.19-.9.21-.21.01-.38-.06-.53-.21-.24-.22.08-.33.09-.49.02-.27-.07-.56.15-.8.19-.21,0-.56.27-.76.05-.04.01-.29-.02-.3-.42-.1-.49-.48-.62-.78-.11-.24-.25-.25-.45-.28-.1-.02-.28-.12-.27-.16.07-.44-.25-.65-.5-.9-.22-.23-.44-.47-.68-.68-.52-.44-.83-1.04-1.24-1.57-.09-.12-.15-.27-.24-.4-.15-.22-.57-.37-.46-.64.19-.45.18-1.03.7-1.31.21-.11.41-.23.62-.33.06-.03.17-.01.22.03.24.21.48.4.77.53.13.05.24.22.28.36.08.26.25.39.46.51.09.05.25.13.25.19,0,.58.39.82.83,1.03.06.03.14.13.13.17-.14.54.38.52.62.73.12.1.35-.01.34-.18-.01-.32.14-.52.34-.72.18-.18.36-.29.63-.28.08,0,.23-.13.23-.2,0-.33.09-.47.46-.53.32-.06.67-.17.98-.32.3-.15.31-.43.03-.61-.52-.33-.63-.65-.4-1.17.06-.14.1-.31.2-.42.21-.22.36-.53.72-.58.45-.06.86.06,1.24.27.08.04.09.21.16.29.13.14.28.27.43.38.04.03.16-.02.2-.07.04-.05.08-.17.05-.21-.14-.19-.3-.37-.46-.54-.24-.26-.54-.46-.51-.9,0-.13-.23-.35-.39-.4-.34-.11-.6-.34-.71-.6-.16-.4-.47-.63-.73-.92-.24-.27-.52-.5-.76-.77-.2-.24-.33-.54-.54-.76-.23-.24-.23-.5-.2-.77.01-.1.09-.26.16-.27.32-.05.42-.36.68-.47.21-.09.47,0,.67-.2.06-.06.26-.07.31-.02.34.35.78.52,1.2.73.05.03.09.13.09.2-.01.37.17.59.51.71.09.03.21.15.21.23,0,.35.14.45.49.5.29.04.55.28.89.22.31-.06.54-.35.89-.26,0,0,.07-.11.07-.16-.02-.1-.18-.16-.04-.29.25-.25.46-.57.89-.49.34-.29.83-.21,1.18-.47.45.09.45-.33.62-.56.02-.02-.05-.15-.08-.15-.36-.02-.7-.06-.98.27-.31.37-.74.16-1.13.17-.12-.2-.31-.39-.34-.6-.06-.34-.15-.73.09-1.04.21-.28.45-.55.88-.52.28.02.13-.42.45-.48.26-.04.49-.22.73-.36.24-.14.29-.38.09-.59-.36-.37-.52-.88-.94-1.21-.22-.17-.18-.52.03-.74.33-.34.64-.72,1.11-.86.34-.1.69-.18.99.14.22.24.46.45.67.69.08.08.2.21.18.29-.13.49.32.47.55.64.1.08.21-.02.18-.17-.02-.15-.06-.3-.11-.45-.12-.31-.12-.31.17-.5.22-.14.25-.39.04-.44-.31-.07-.47-.3-.66-.49-.18-.18-.36-.29-.63-.28-.14,0-.14-.03-.32-.54-.02-.06-.03-.14-.07-.19-.13-.15-.29-.28-.42-.43-.15-.17-.44-.29-.38-.56.04-.17.24-.3.35-.47.06-.09.1-.22.1-.33,0-.24.09-.36.35-.37.11,0,.24-.03.33-.09.18-.13.31-.14.53-.04.63.3,1.09.77,1.44,1.35.47.79,1.07,1.47,1.75,2.07.15.13.26.09.42-.19.06-.11.1-.23.25-.19.11.03.21.16.31.14.18-.03.37-.09.52-.2.28-.21.62-.32.89-.57.24-.21.66-.17.96-.37.1-.06.19-.13.29-.21.19-.15.2-.33.03-.51-.17-.17-.33-.35-.51-.51-.34-.29-.62-.63-.75-1.04-.12-.37-.38-.61-.66-.81-.16-.11-.37-.12-.35-.38.01-.23-.06-.48.16-.67.09-.08.21-.16.24-.26.16-.68.66-.69,1.2-.65.32.02.56.25.56.64,0,.46.12.77.65.81.11,0,.25.05.32.13.34.38.74.69,1.01,1.16.27.47.75.83,1.13,1.24-.02.33.27.34.46.45.09.05.15.17.29.05.12-.1.38-.13.39-.22.08-.49.77-.4.83-.91.03-.28.27-.24.45-.09.2.16.26-.03.37-.11.14-.11.05-.21-.04-.28-.24-.17-.28-.46-.44-.69-.2-.29-.39-.59-.61-.85-.23-.27-.5-.52-.76-.77-.22-.21-.19-.38-.02-.62.15-.22.07-.35-.19-.4-.18-.04-.4.03-.46-.26-.05-.24-.23-.4-.48-.47-.41-.13-.49-.45-.48-.84,0-.39.07-.72.49-.83.35-.09.46-.59.91-.48.13.03,1.23.73,1.22.86-.03.4.44.27.52.57.06.21.26.38.42.56.19.21.4.39.59.6.16.19.37.28.59.37.1.04.22.15.25.25.12.46.51.7.81,1.01.67.69,1.36,1.36,2.04,2.05.13.41.5-.14.65.16.41-.17.9-.17,1.21-.58.12-.16.06-.23.02-.39-.08-.3-.15-.66-.05-.93.1-.28.19-.61.47-.8.29-.21.62-.09.93-.1.1,0,.22.08.3.16.4.39.81.78,1.2,1.19.66.69,1.44,1.19,2.29,1.61.33.16.24-.03.35-.18.21-.29.49-.52.73-.79.2-.22.42-.29.73-.33.49-.06.96-.26,1.42-.48.09-.04.2-.15.21-.23.01-.42.2-.66.61-.75.15-.03.28-.13.41-.2.27.32.76.13,1.05.47.25.29.48.66.91.74.29.75,1.18.88,1.58,1.52.08.13.22.29.35.31.1.02.23-.16.36-.25.41-.29.95-.38,1.29-.79.02-.02.13.01.18.04.46.22.93.4,1.35.67.25.17.34.04.47-.1.11-.11.18-.2.38-.09.58.32,1.21.54,1.72.99.22.19.61.05.83.37.2.29.51.51.75.77.21.23.46.41.57.75.06.19.34.13.53.08.11-.03.1-.09.02-.18-.04-.05-.09-.16-.07-.18.05-.05.14-.05.21-.09.24-.15.47-.28.77-.24.16-.36.55.1.77-.22.14-.2.44-.31.68-.43.1-.05.23-.05.34-.06.28-.03.42-.22.51-.44.07-.17-.07-.43.19-.5.41-.11.62-.65,1.15-.51.22.06.47.05.66-.17.12-.14.26-.36.48-.26.11.05.14.27.25.36.18.14.41.22.61.33.33.17.32.33.04.6-.13.13-.68.05-.29.49-.3.1-.5.39-.77.51-.34.16-.59.39-.83.65-.16.17-.25.05-.39-.02-.08-.04-.25-.03-.32.03-.24.21-.46.44-.69.66-.09.08-.21.22-.28.2-.44-.11-.49.28-.7.47-.1.09-.3.07-.31.29-.01.21.03.39.19.53.21.19.38.42.61.58.25.17.55.28.83.41.05.35.39.5.53.76.18.33.71.23.74.69.32.13.57.39.96.4.23,0,.36.24.48.47.16.33.47.31.7,0,.04-.06.07-.19.11-.19.32-.02.58-.21.88-.28.3-.07.64-.03.96,0,.1,0,.21.11.29.18.15.13.28.29.43.42.21.16.17.3.01.47-.05.05-.01.19-.06.22-.29.21-.04.4.01.6,0,.04,0,.08,0,.12-.04.11-.1.13-.17.06-.16-.15-.35-.17-.56-.15-.04,0-.07.02-.11.04-.09.04-.09.1,0,.18.12.11.22.23.34.34.19.17.68.23.89.1.05-.03.08-.13.1-.2.05-.14.08-.3.14-.43.01-.03.15-.02.22,0,.11.03.11.09.03.18-.07.08-.16.21.02.25.09.02.24-.05.29-.13.05-.09.02-.23.03-.35.02-.37.02-.41.37-.45.32-.03.52-.36.89-.26.26.07.56,0,.84.02.31.03.54-.07.73-.31.07-.09.17-.17.25-.26.15-.13.3-.38.44-.37.25.01.52.15.74.29.29.2.53.47.64.83.03.1.15.18.02.29-.27.24-.53.47-.8.71-.45-.12-.6.41-.91.45-.38.04-.25.52-.57.51-.26-.02-.44.16-.65.23-.25.08-.48.22-.53.43-.07.36-.3.31-.53.32-.12,0-.24.01-.34.06-.05.02-.11.14-.09.19.18.59.57,1.02,1.05,1.38.08.06.23.05.34.05.22,0,.24.16.28.32,0,.04.13.09.15.07.16-.1.31-.23.46-.35.18.22.31.07.48-.03.13-.07.3-.06.34-.27.02-.09.13-.19.22-.22.49-.14.92.16,1.34.3.45.15.62.67.81,1.11.02.05-.02.16-.07.21-.18.2-1.02.66-1.4.78-.11.04-.2.11-.2.26,0,.16-.02.33.14.42.06.04.16,0,.23.03.34.14.79.14.88.63.32.28.55.64.98.84.34.16.69.49.83.83.16.39.42.54.75.67.34.14.57.42.86.6.89.56,1.54,1.37,2.29,2.08.17.16.38.33.46.54.11.29.27.45.55.56.27.11.27.44.41.67.02.04-.09.19-.16.26-.08.08-.23.11-.26.19-.03.09.06.21.09.32.02.06.05.15.02.19-.1.13-.21.24-.33.35-.29.26-.56.25-.84,0-.03-.03-.05-.06-.09-.08-.38-.26-.34-.93-.95-.97-.38-.28-.72-.65-1.14-.83-.57-.24-.86-.68-1.09-1.17-.14-.3-.28-.5-.62-.64-.61-.24-1.07-.78-1.72-.97-.17-.45-.59-.56-.97-.74-.16-.07.06-.18.07-.27,0-.11.02-.3-.02-.31-.48-.17-.74-.58-1.09-.9-.2-.19-.43-.33-.67-.47-.35-.22-.69-.13-1.04-.15-.1,0-.22.09-.3.16-.26.24-.48.52-.84.64-.03.01-.05.23,0,.31.13.24.36.39.46.68.12.36.55.43.86.58.23.11.49.24.51.44.04.4.14.67.56.81.27.09.32.43.41.67.1.25.25.25.45.28.1.02.25.1.27.17.05.27.26.4.41.57.23.26.49.49.65.83.14.31.46.55.75.76.24.18.75.15.43.68.25.26.49.53.76.77.17.16.05.25-.02.39-.08.17-.1.37-.15.55-.42.08-.4.4-.4.72,0,.27-.4.43-.61.26-.19-.15-.45-.31-.5-.5-.16-.71-.84-.6-1.27-.87-.08-.05-.26-.04-.35.01-.17.11-.31.24-.49.02-.34.25-.69.49-1.03.74-.12.09-.08.35.08.38.26.06.47.21.54.43.07.23.21.28.39.38.16.08.27.28.36.45.11.22.23.41.49.47h0ZM62.05,75.55c.11,0,.23,0,.34-.01.03,0,.08-.06.08-.07-.03-.05-.07-.13-.11-.14-.17-.03-.28.04-.3.23-.11,0-.23,0-.34.01-.03,0-.08.06-.08.07.03.05.06.13.11.14.17.03.29-.04.3-.23ZM47.37,33.45c.12,0,.24,0,.35-.02.03,0,.09-.05.09-.07,0-.16-.33-.39-.53-.37-.03,0-.08.11-.06.16.04.11.1.2.16.31-.07,0-.15,0-.22,0-.07.01-.13.05-.2.07.03.06.05.12.08.18.02.03.05.06.08.08.06.03.12.06.18.08.03-.07.06-.13.07-.2.01-.07,0-.15,0-.22ZM22.59,51.01c.41.1.72-.17,1.08-.27.11-.03.12-.11.01-.16-.2-.09-.4-.23-.61-.26-.32-.04-.18.38-.39.49-.05.03-.06.13-.08.2-.17-.08-.33-.18-.5-.22-.07-.02-.25,0-.13.19.04.06.09.12.09.18,0,.34,0,.36.22.32.1-.02.23-.06.28-.14.05-.09.02-.22.03-.34ZM41.61,37.55c-.07-.03-.14-.06-.21-.09-.06-.03-.13-.06-.19-.1-.07.3-.38.51-.31.85.02.1.09.25.17.27.14.03.3-.02.45-.04.01,0,.04-.07.03-.08-.37-.3-.03-.56.06-.83.19,0,.38.02.57-.02.07-.01.1-.17.15-.27,0-.02-.02-.09-.04-.09-.06,0-.14-.01-.17.02-.13.17-.48.04-.49.37ZM25.73,49.57c.03.07.04.16.09.21.12.13.22.33.47.12.1-.09.3-.05.45-.09.05-.01.09-.09.13-.14,0,0-.05-.06-.08-.08-.14-.07-.28-.18-.42-.19-.13,0-.26.11-.4.16-.07.02-.16.01-.24.01.03-.18-.06-.41.21-.48.07-.02.16-.04.2-.1.04-.05.06-.15.04-.21-.02-.06-.09-.16-.14-.16-.27-.02-.55-.02-.83,0-.06,0-.15.06-.18.12-.03.06-.03.18,0,.22.22.22.35.53.69.6ZM19.71,61.84s-.08,0-.12,0c-.51.09-.75.51-1.03.87,0,0,.04.07.07.09.11.09.16.23.37.11.46-.26.56-.38.7-1.08.11,0,.23,0,.34-.01.03,0,.08-.06.08-.07-.03-.05-.07-.13-.11-.14-.17-.03-.28.04-.3.23ZM40.88,26c0-.19,0-.39,0-.58,0-.34-.18-.45-.53-.38-.14.03-.24.27-.15.36.22.21.35.51.68.59.02.23-.07.47.09.69.21.3.43.34.68.11.09-.08.18-.16.25-.25.06-.08.23-.14.07-.28-.09-.08-.17-.21-.27-.23-.27-.04-.55-.03-.83-.03ZM32.94,35.37c.2,0,.41-.03.6.01.48.09.73-.23.99-.53.03-.03.01-.14-.02-.18-.39-.49-.45-.5-.87-.11-.17.16-.33.32-.58.39-.18.05-.09.28-.11.43-.24-.03-.46.02-.6.23-.03.05-.06.16-.04.17.06.04.15.08.2.06.21-.09.39-.22.43-.47ZM21.15,44.04c.12,0,.24,0,.36,0,.29-.02.51-.35.35-.56-.17-.22-.37-.41-.58-.6-.05-.04-.2-.05-.22-.02-.17.25-.44,0-.56.08-.22.16-.46.08-.66.19-.07.04-.13.23-.09.29.1.17.26.29.38.45.31.43.4.47.92.35.05-.01.07-.12.11-.19h0ZM37.04,38.26c.05.25.22.4.44.46.07.02.22-.08.24-.15.02-.08-.05-.26-.12-.27-.18-.04-.38-.02-.57-.02.03-.07.06-.14.1-.2.07-.11.37.04.29-.21-.04-.13-.22-.29-.34-.29-.32-.02-.73-.18-.84.37-.03.13-.2.24-.32.35-.25.24-.45.56-.9.49-.1-.01-.24.19-.34.31-.04.05-.07.18-.04.21.07.08.17.13.27.17.07.03.18.04.23,0,.2-.12.38-.26.59,0,.03.04.15.01.23.02.24.01.26-.02.15-.32-.07-.17-.06-.32.12-.38.16-.06.29-.09.32-.29.05-.29.29-.19.48-.22ZM44.97,38.51c-.02-.17.07-.42-.19-.45-.12-.02-.26.1-.38.18-.18.12-.16.33-.15.51-.2-.01-.38,0-.54.16-.13.13-.32.29-.48.29-.39,0-.54.29-.78.49-.12.1-.08.19.01.28.06.06.12.11.17.17.27.31.57.43.93.14.17-.14.37-.11.56-.06.47.11.53.1.59-.33.05-.36.18-.58.53-.68.27-.08.21-.31.19-.49-.04-.29-.29-.2-.47-.22ZM39.43,57.75h0s0-.07,0-.11c-.06-.38-.12-.42-.43-.27-.14.07-.27.17-.43.14-.29-.05-.52.1-.77.23-.34.19-.36.25-.16.5.22.27.58.43.64.83,0,.05.27.12.29.09.32-.4.88-.02,1.2-.39,0-.01.12.06.18.1.26.15.53.1.8.04.03,0,.07-.05.07-.07,0-.03-.04-.07-.06-.1-.11-.28-.52-.17-.62-.49-.11-.34-.49-.33-.72-.5ZM57.25,63.01c-.38-.04-.69.13-1.02.27-.27.12-.05.22,0,.34.03.07.07.19.03.22-.22.22-.2.43.07.55.45.2.79.47.98.95.06.15.3.23.45.36.08.07.17.15.21.25.05.12.09.2.24.2.23,0,.24-.17.24-.32,0-.24.08-.38.33-.39.21-.31.63-.12.85-.35.23-.24.54-.33.77-.53.22-.18.41-.34.72-.34.19,0,.5-.7.4-.85-.25-.39-.4-.88-.9-1.05-.3-.1-.29-.55-.66-.57-.03,0-.04-.15-.09-.2-.07-.07-.18-.17-.27-.16-.2.01-.43.31-.42.5.02.59.03.61-.35.67-.16.03-.31.04-.43.17-.14.14-.29.28-.42.42-.1.11-.18.06-.29,0-.13-.07-.29-.09-.44-.14ZM63.64,59.23s.06.07.06.1c0,.03-.06.06-.09.07-.07.02-.15.03-.23.03-.14,0-.13.01-.42.39-.14.19-.33.34-.49.52-.07.08-.19.14-.06.28.27.28.53.56.72.92.13.24.48.38.76.51.1.04.27-.14.42-.15.59-.01,1.04-.26,1.42-.7.08-.09.29-.09.44-.09.21,0,.38-.04.53-.2.11-.11.24-.2.37-.29.32-.21.34-.28.13-.5-.22-.23-.45-.46-.68-.68-.18-.18-.15-.5-.52-.57-.35-.06-.3-.52-.54-.74-.18-.16-.32-.21-.51-.05-.19.15-.33.49-.65.14-.03-.03-.2,0-.21.03-.14.28-.31.54-.53.76-.02.02.05.12.08.19ZM65.56,42.35c-.34-.06-.58.03-.7.41-.04.13-.21.24-.35.29-.16.06-.31.08-.14.28.26.3.62.55.79.89.13.26.43.41.47.66.06.44.38.31.62.38.06.02.13.12.13.18,0,.25.03.47.26.63.26.19.52.17.76-.03.09-.07.16-.08.17.03.03.21.14.36.3.49.17.15.37.11.56.06.05-.02.11-.12.11-.18-.01-.17-.32-.63-.47-.73-.06-.04-.13-.08-.2-.12.06-.04.13-.12.19-.11.26.02.48-.04.62-.26.06-.09.13-.28.09-.31-.23-.19-.16-.65-.58-.66-.53-.47-1.18-.79-1.63-1.36-.07-.09-.18-.16-.25-.26-.19-.25-.45-.31-.75-.28ZM52.9,54.36c-.03-.07-.05-.15-.1-.2-.45-.46-.91-.91-1.36-1.36-.13-.13-.28-.12-.42,0-.09.08-.17.18-.26.25-.25.19-.49.18-.75-.01-.12-.09-.24-.19-.36-.29-.07.14-.12.28-.2.42-.06.11-.11.18.04.26.14.06.28.14.4.23.05.03.1.16.08.18-.2.19-.41.37-.61.56-.51-.05-.84.38-1.29.49-.14.03-.17.13-.06.24.08.09.18.16.25.26.14.22.18.53.57.47.09-.01.21.08.3.16.15.13.29.28.43.42.11.11.18.04.29,0,.32-.13.67-.17.98-.35.05-.03.09-.09.13-.14-.07-.03-.14-.06-.21-.1-.03-.02-.07-.03-.1-.05-.09-.05-.09-.11.02-.17.35-.17.7-.34,1.05-.5.53.14.68-.52,1.13-.55.03,0,.06-.13.08-.2ZM59.37,46.81c-.11.16-.26.25.01.36.42.17.69.44.77.95.05.35.24.69.68.86.36.14.6.14.85-.13.25-.27.59-.43.92-.47.43-.05.6-.36.84-.61.05-.05.03-.26-.03-.31-.2-.17-.12-.49-.5-.6-.42-.12-.6-.76-1.18-.69-.04,0-.13-.1-.14-.17-.07-.43-.47-.48-.76-.67-.17-.11-.17.03-.22.12-.11.16-.2.4-.35.44-.3.09-.52.33-.87.32-.27-.01-.1.18-.04.3.04.09.03.21.03.28ZM12.24,29.56c-.04-.06-.08-.17-.13-.18-.2-.03-.4-.01-.59-.03-.37-.03-.69.04-.95.35-.16.2-.42.19-.65.06-.14-.08-.2-.19-.32.06-.28.62-.81.92-1.48.98-.05,0-.09.08-.13.14,0,.02.03.08.06.09.5.25.87.67,1.28,1.02.22.19.53.33.82.4.2.05.36.11.53.22.07.04.24,0,.31-.05.16-.12.29-.27.43-.41.12-.13.14-.28,0-.42-.11-.12-.22-.27-.09-.41.12-.14.29-.27.46-.33.18-.06.39-.01.59-.02.28-.01.46-.36.29-.59-.11-.15-.27-.3-.44-.36-.27-.08-.17-.18-.07-.32.04-.06.04-.14.06-.22ZM11.1,41.63c-.12.04-.19.06-.26.09-.72.37-1.36.88-2.04,1.32-.44.29-.43.37,0,.77.25.24.53.47.8.69.12.1.34.15.37.27.13.49.66.51.9.85.06.08.12.05.17-.05.06-.14.12-.28.2-.42.1-.17.03-.3-.07-.42-.13-.16.01-.22.11-.21.26,0,.46-.05.63-.25.1-.11.25-.18.39-.23.1-.04.28,0,.33-.07.14-.18-.11-.23-.17-.34-.05-.1-.14-.19-.19-.29-.15-.27-.35-.54-.4-.83-.06-.37-.48-.35-.57-.66-.03-.09-.13-.16-.18-.23ZM19.68,20.82s-.06-.06-.07-.1c-.13-.29-.26-.58-.53-.77-.08-.06-.15-.23-.27-.13-.27.24-.72.06-.94.43-.21.36-.61.54-.96.65-.46.15-.6.66-1.04.75-.23.05-.36.29-.65.27-.17-.02-.35.14-.53.22-.27.13-.37.44-.21.65.28.36.59.64,1.1.56.12-.02.24-.02.36,0,.23.03.38-.09.51-.24.29-.33.6-.33.94-.06.14.11.3.06.37-.12.09-.21.16-.43.24-.64-.24-.24-.22-.38.14-.42.36-.44.94-.54,1.38-.87.06-.05.1-.12.14-.18ZM55.04,52.69c.33.07.57-.09.71-.34.09-.17.16-.29.35-.4.37-.22.65-.59,1.16-.47.06.01.14-.06.21-.1.28-.16.29-.42.02-.61-.16-.11-.39-.22-.44-.37-.12-.43-.48-.62-.73-.91-.15-.18-.3-.13-.52-.06-.48.16-.75.72-1.33.67-.03,0-.08.12-.11.19-.09.24-.26.36-.48.48-.55.31-.47.3-.27.88.22.62.85.64,1.21,1.03.04.04.15,0,.22,0ZM67.64,53.66c.31,0,.39-.02.41-.29.03-.36.17-.59.54-.68.13-.03.2-.13.07-.23-.15-.12-.35-.17-.49-.3-.13-.13-.18-.35-.31-.48-.13-.13-.32-.2-.49-.3.02-.33-.3-.31-.46-.45-.24-.22-.52-.14-.79-.14-.06,0-.19.09-.18.11.08.43-.32.55-.5.81-.1.13-.14.27-.33.26-.23,0-.48.06-.68-.13-.16-.15-.18.02-.21.12-.02.07-.04.18,0,.24.33.48.55,1.04,1.04,1.4.17.13.68.08.89-.08.1-.07.17-.17.26-.25.14-.13.29-.12.42,0,.23.22.44.49.81.38ZM46.7,53.41c.07-.05.17-.1.25-.18.21-.18.42-.36.63-.54.53.11.96-.32,1.49-.26.27.03.12-.16.06-.3-.15-.38-.12-.45.2-.65.07-.04.15-.07.2-.12.1-.11.27-.19.23-.39-.04-.21-.2-.21-.36-.21-.25,0-.35-.12-.34-.36,0-.08,0-.16-.03-.23-.15-.34-.45-.4-.75-.19-.25.18-.5.4-.79.49-.29.09-.48.28-.66.48-.15.17-.22.42-.38.58-.16.16-.39.24-.58.38-.1.07-.17.17-.26.25-.16.16-.17.26.04.35.34.15.52.43.7.72.04.06.11.11.18.15.03.02.08.01.16.02ZM21.39,24.33c0-.27.01-.39,0-.51-.05-.38-.46-.53-.77-.3-.43.32-.87.63-1.35.89-.44.24-.93.38-1.31.76-.14.14-.44.12-.64.22-.26.13-.31.4-.13.59.33.34.68.67,1.01,1.02.24.24.3.11.34-.13.47-.16.68-.68,1.1-.85.69-.27.93-1.08,1.66-1.28.05-.18.09-.37.1-.41ZM13.86,36.6c.15-.02.33-.01.46-.08.12-.06.25-.21.27-.33.02-.1-.23-.3.04-.31.33-.01.47-.13.59-.43.15-.37.18-.36-.1-.69-.11-.13-.1-.12-.02-.47.02-.09-.03-.29-.08-.3-.26-.05-.41-.23-.59-.39-.08-.07-.2-.13-.31-.14-.45-.07-.83.11-1.14.43-.13.14-.21.33-.33.47-.18.21-.39.4-.58.61.07.34.42.44.57.7.1.17.17.35.28.5.23.3.52.49.92.42ZM12.25,20.18c0,.48.1.66.55.75.2.04.36.14.53.21.41.17.78-.09.84-.54.01-.08,0-.16,0-.24,0-.16.02-.28.2-.38.38-.22.94-.24,1.04-.83,0-.05.13-.13.18-.12.35.09.55-.28.88-.26.1,0,.29-.07.3-.12.03-.36.41-.48.51-.78.04-.11.04-.25,0-.35-.04-.08-.23-.18-.25-.16-.3.26-.66.22-1.01.21-.23,0-.38.05-.42.3,0,.06-.1.17-.15.16-.48-.07-.7.3-.98.57-.17.17-.33.35-.51.5-.18.14-.43.21-.58.37-.22.22-.45.27-.74.27-.34,0-.38.07-.38.43ZM56.17,58.2c-.19.05-.39.07-.55.16-.06.03-.06.21-.06.33,0,.21-.14.25-.31.27-.23.02-.47-.06-.67.14-.25.24-.44.57-.83.63-.13.4-.39.66-.78.8-.02,0,.02.28.06.29.3.06.47.29.66.47.12.11.12.11.66.09.07,0,.16.03.21.08.16.16.27.08.37-.06.06-.09.15-.2.15-.3,0-.28.08-.43.38-.49.18-.04.45-.14.49-.27.11-.36.45-.39.65-.6.2-.2.39-.4.58-.6.03-.03.06-.07.05-.1,0-.07,0-.18-.05-.22-.17-.14-.47-.14-.45-.46-.18-.05-.37-.1-.55-.15ZM66.57,26.73c-.23.14-.47.27-.76.25-.02,0-.08.11-.07.15.02.07.13.14.12.2-.07.46.26.59.57.75.17.09.34.18.5.28.06.04.13.16.12.17-.34.35.14.43.21.64.18.56.68.86,1.04,1.26.17.18.33.13.51,0,.08-.06.25-.11.31-.07.17.12.3.22.48,0,.09-.12.24-.23.38-.26.26-.06.22-.16.08-.3-.2-.18-.36-.4-.66-.47-.28-.07-.35-.4-.48-.63-.4-.07-.59-.35-.7-.7-.37-.09-.58-.38-.84-.62-.2-.19-.39-.39-.6-.58-.05-.04-.14-.04-.22-.06ZM62.3,55.67c-.02-.23,0-.45-.2-.65-.31-.31-.68-.51-1.09-.63-.07-.02-.16-.02-.23.01-.04.02-.1.12-.08.15.08.14.2.27-.07.31-.16.02-.32,0-.48,0-.36.01-.32.03-.51.44-.16.35-.19.88-.81.79-.08-.01-.19.13-.27.22-.17.2.08.25.14.36.11.2.23.4.36.59.19.28.62.36.82.11.41-.51,1-.74,1.56-1,.26-.12.58-.18.86-.3.26-.1.18-.18.07-.31-.02-.03-.05-.06-.07-.1ZM48.82,42.43c0-.24,0-.46-.21-.65-.24-.21-.45-.45-.68-.67-.03-.03-.06-.05-.09-.08-.12-.13-.19,0-.29.04-.66.33-1.25.78-1.79,1.28-.36.01-.31.28-.32.51-.03.58.52.75.8,1.11.01.02.08.02.09,0,.21-.3.64-.04.84-.34.21-.3.51-.31.84-.33.4-.02.79-.5.8-.88ZM42.97,44.52h0c-.12,0-.24,0-.36,0-.25-.02-.46.03-.64.23-.47.5-.96.97-1.44,1.45-.04.04-.07.16-.04.18.34.34.67.69,1.04,1,.09.07.32.03.45-.03.14-.06.33-.22.32-.33-.04-.41.46-.26.52-.57.08-.43.45-.21.69-.25.14-.02.23-.08.26-.2.04-.18.13-.26.31-.3.19-.05.21-.2.14-.37-.06-.14-.12-.29-.2-.42-.15-.24-.33-.45-.67-.4-.12.02-.24,0-.36,0ZM53.1,46.69c-.21.22-.64.13-.69.55-.02.13-.2.23-.31.35-.53-.33-.59.3-.89.43-.11.04-.23.06-.32.13-.13.09-.24.21-.34.33-.04.05-.04.21-.02.22.3.12.48.35.63.62.35-.11.57.25.88.25.11,0,.31-.04.31-.09.05-.4.45-.38.67-.58.05-.05.21,0,.32.04.1.03.17.17.29.04.11-.12.22-.23.34-.34.17-.16.2-.34.02-.51-.13-.12,0-.19.04-.29.15-.45.08-.69-.29-.89-.2-.11-.42-.17-.63-.26ZM24.29,28.31c-.17-.17-.36-.36-.56-.55-.02-.02-.08-.03-.09-.02-.39.31-1.03.31-1.24.81-.17.4-.3.39-.58.18-.03-.02-.12.03-.19.05-.11.04-.23.06-.32.13-.19.16-.21.5-.54.54-.03,0-.07.21-.03.3.19.49.55.85.93,1.19.16.14.16-.03.22-.11.11-.16.2-.35.35-.45.16-.1.32-.12.39-.36.1-.33.4-.46.76-.42.16.02.32.02.48,0,.14-.03.14-.13.06-.24-.11-.13-.16-.27-.03-.42.11-.12.22-.23.32-.35.04-.06.05-.14.09-.27ZM17.21,37.34s-.07.03-.1.06c-.37.28-.73.58-1.13.82-.17.1-.37.11-.36.37.02.23-.07.48.15.67.12.1.21.27.34.33.31.13.56.27.48.68-.01.05.09.12.13.19.12.17.23.18.36.06.52-.43.87-1,1.28-1.52.1-.12.02-.18-.01-.29-.13-.39-.38-.71-.73-.89-.19-.1-.34-.16-.36-.38,0-.03-.05-.06-.07-.09ZM52.95,15.42c-.07.02-.16.02-.22.07-.34.26-.57.66-1.03.77-.07.02-.14.1-.16.17-.03.1-.07.24-.03.32.13.2.29.38.57.35.16-.02.27.05.34.24.09.21.25.45.44.54.52.25.86.68,1.27,1.05.14.12.27.1.42,0,.13-.08.38-.12.39-.21.02-.16-.09-.33-.14-.51-.06-.26-.64-.32-.28-.74-.12-.25-.66-.69-.94-.88-.26-.17-.48-.4-.68-.64-.05-.06.11-.27.15-.41,0-.03-.09-.08-.13-.12ZM44.16,74.78c.23-.14.5-.25.68-.44.31-.32.69-.49,1.06-.71.1-.06.21-.1.3-.16.18-.11.21-.25.05-.36-.16-.11-.36-.17-.49-.3-.13-.13-.19-.33-.3-.48-.09-.12-.21-.29-.35-.31-.1-.02-.22.19-.35.23-.47.17-.74.71-1.32.67-.05,0-.14.1-.15.16-.04.36-.3.29-.53.31-.05,0-.11.08-.15.13,0,0,.04.07.06.1.13.16.32.21.48.31.14.09.18.34.31.47.13.13.33.19.5.28.06.03.13.06.19.1ZM6.02,27.44c-.25,0-.37,0-.49,0-.17,0-.16.08-.09.3.11.31.31.54.54.76.16.17.42.23.54.13.32-.26.67-.22,1.02-.22.35,0,.72-.08,1.02.21.04.04.23-.02.31-.09.12-.09.2-.08.29.01.08.08.13.08.18-.02.04-.08-.01-.29-.09-.31-.08-.02-.16-.06-.23-.04-.39.11-.66-.2-.99-.3-.04-.01-.08-.13-.08-.2,0-.07.06-.19.09-.19.3.01.45-.28.76-.31.33-.03.67-.18.92-.45.11-.12.06-.2-.03-.28-.3-.27-.57-.31-.83-.05-.23.23-.41.3-.66.09-.32.12-.64.23-.97.35.07.4-.45.27-.5.56-.03.18-.07.27-.28.15-.16-.09-.37-.09-.43-.11ZM67.33,69.33c-.17-.29-.2-.66-.5-.89-.18-.14-.17.04-.21.13-.04.07-.06.17-.11.19-.25.09-.52.09-.76.26-.17.12-.47,0-.65.21-.01.02-.13-.04-.18-.08-.2-.13-.34-.14-.45.13-.17.43-.33.92-.97.74-.27.15-.54.3-.8.46-.12.08-.22.45-.14.54.17.21.37.41.56.6,0,0,.1-.06.14-.11.07-.09.14-.28.17-.27.36.09.57-.26.89-.26.23,0,.35-.07.41-.31.03-.13.18-.31.31-.34.46-.13.7-.51,1.01-.81.27-.26.52-.35.85-.11.09.06.21.09.32.09.04,0,.09-.11.14-.18ZM51.5,58.96c.38.02.68-.33,1.08-.3,0-.06,0-.14-.03-.18-.09-.12-.05-.24.07-.23.36.02.65-.11.75-.44.15-.49.48-.57.91-.54.12,0,.24.01.36,0,.22-.02.53.11.64-.15.15-.36-.28-.28-.41-.43-.18-.21-.35-.42-.52-.63-.17-.23-.27-.28-.58-.2-.12.03-.11.08-.05.17.05.07.2.2.01.26-.49.15-.78.65-1.29.74-.14.03-.2.09-.24.22-.08.29-.27.45-.57.52-.18.04-.36.15-.51.26-.07.06-.13.22-.1.3.05.18.16.35.26.51.03.05.13.07.22.12ZM69.09,65.2c.13.01.24-.01.28.03.3.32.53.22.8-.06.15-.16.39-.25.59-.35.27-.14.56-.26.83-.39-.07-.37-.42-.51-.63-.78-.07-.09-.17-.17-.25-.25-.12-.13-.2-.02-.28.05-.17.16-.33.28-.59.34-.3.07-.72.08-.82.52-.02.06-.11.17-.15.16-.44-.1-.62.28-.92.46-.23.14-.49.21-.73.33-.05.03-.08.13-.08.2,0,.07.05.17.1.19.18.06.41.05.55.15.25.19.42.14.61-.06.13-.15.27-.29.43-.41.09-.07.21-.09.27-.11ZM28.85,35.34c-.12-.21-.26-.44-.39-.67-.35,0-.32-.27-.34-.5-.02-.16-.23-.3-.33-.21-.31.26-.85.27-.91.82,0,.05-.2.1-.3.11-.16.02-.31.02-.36.22-.03.11-.09.22-.17.3-.28.31-.28.39.01.67.2.19.39.39.59.58.2.19.35.21.5.04.35-.38.75-.66,1.24-.85.14-.05.26-.17.37-.28.05-.05.06-.14.09-.24ZM41.36,42.14c0-.23.03-.46-.31-.53-.17-.03-.3-.24-.45-.37-.15-.13-.29-.09-.42.02-.2.18-.36.44-.7.38-.07-.01-.16.02-.21.07-.37.36-.81.65-1.03,1.13-.08.18-.2.2-.34.26-.16.08-.19.27-.08.39.13.15.27.29.42.43.12.12.26.16.42.05.16-.11.33-.19.5-.28-.09-.25.46-.42.09-.7.04-.23.32-.36.47-.22.09.08.17.17.26.24.13.11.36.09.38-.07.06-.34.27-.32.51-.34.48-.03.48-.04.48-.45ZM75.25,67.5s-.04-.07-.07-.1c-.17-.17-.33-.35-.52-.49-.15-.11-.34-.23-.52-.24-.17,0-.35.14-.52.21-.44.18-.93.35-1.13.79-.23.51-.6.78-1.06,1.03-.17.09-.28.28-.41.43-.01.02,0,.06,0,.08.02.03.06.07.09.07.15-.01.33,0,.46-.06.15-.08.22-.11.4-.02.21.11.28-.2.44-.28.03-.02.09-.07.09-.07.33.35.45-.07.64-.18.03-.02.07-.06.1-.07.76-.02,1.23-.62,1.84-.93.07-.03.11-.12.16-.18ZM25.14,52.22c-.23,0-.47-.04-.67.15-.11.1-.27.14-.41.2-.28.13-.19.63-.6.63-.03,0-.06.05-.09.07.33.27.11.67.25.99.02.05.13.11.19.11.26-.02.43.15.65.23.19.07.48.12.57-.23.02-.09.14-.16.23-.22.29-.22.64-.24.99-.27.15-.01.27-.23.41-.36-.11-.11-.22-.23-.35-.32-.05-.04-.15-.03-.23-.02-.25,0-.31-.13-.35-.36-.08-.43-.25-.58-.58-.6ZM16.02,60.46c.27-.19.5-.4.78-.53.42-.2.66-.52.85-.92.09-.18.08-.27-.06-.38-.3-.22-.73-.28-.82-.77-.03-.16-.47-.16-.63,0-.29.27-.56.58-.88.81-.15.11-.35.11-.36.38,0,.23.12.36.24.52.17.21.28.47.45.67.09.11.26.15.43.23ZM43.01,8.89c.05-.01.14,0,.2-.05.46-.35.98-.48,1.54-.41.37.04.7-.03.95-.35.06-.08.2-.09.31-.13q.44-.15.26-.5c-.2-.39-.2-.39-.62-.61-.33-.17-.63-.39-.98.04-.15.19-.45.28-.67.44-.24.18-.54.29-.76.53-.07.07-.22.11-.32.1-.43-.05-.31.39-.51.54-.08.06-.05.12.06.17.18.07.35.15.54.23ZM35.51,64.07s.01.07.01.1c-.42.05-.41.52-.69.71-.16.11-.28.09-.42-.02-.1-.08-.23-.12-.25.04-.03.19.02.4-.13.56-.13.14,0,.22.1.21.26,0,.46.04.63.25.13.15.28.28.43.42.12.11.29.08.41-.07.14-.18.26-.38.38-.57.35.04.26-.39.45-.45.25-.08.41-.23.58-.39.06-.06.11-.12.17-.17.08-.07.08-.13,0-.19-.27-.19-.36-.5-.53-.76-.08-.13-.18-.18-.37-.09-.2.1-.45.08-.68.11-.28.04-.17.17-.07.3ZM51.04,77.49c-.07.02-.17.01-.22.06-.21.18-.39.4-.61.57-.3.24-.61.48-.94.69-.16.09-.37.09-.56.14-.13.04-.16.27-.07.4.24.33.57.53.93.69.1.04.23.08.32.04.21-.09.45-.18.6-.34.31-.31.65-.55,1.02-.78.13-.08.25-.21.33-.34.05-.08.08-.26.03-.31-.23-.27-.5-.51-.75-.77-.03-.03-.07-.03-.1-.05ZM15.76,47.03s-.01-.07-.06-.09c-.07-.03-.16-.03-.23-.01-.28.07-.42-.41-.75-.17-.22.16-.46.29-.69.44-.1.06-.2.21-.28.2-.39-.07-.58.2-.81.41-.12.12-.19.2-.04.37.28.32.69.53.83.99.1.32.52.05.72.3.16.2.25-.08.38-.13.28-.11.28-.13.1-.33-.13-.15-.38-.32-.24-.49.2-.24.14-.79.71-.65.05.01.17-.13.21-.22.07-.18.09-.37.15-.62ZM48.75,69.61c.03.09.05.22.12.31.19.24.43.45.51.77,0,.03.05.06.08.09.15.18.45.31.63.2.24-.15.5-.19.76-.26.25-.07.47-.25.69-.4.14-.09.21-.24.14-.41-.28-.63-.45-.82-1.03-1.02-.33-.12-.7-.17-.97.17-.2.25-.46.27-.74.26-.11,0-.22.06-.32.09.04.07.09.13.14.21ZM63.58,33.44c.05-.08.11-.16.15-.26.06-.14.09-.41.14-.41.3,0,.44-.33.76-.3.27.02.29-.06.18-.22-.18-.28-.22-.66-.67-.75-.21-.04-.37-.26-.43-.52-.04-.18-.21-.2-.37-.11-.34.18-.65.42-1.06.44-.13,0-.27.15-.37.27-.06.07-.07.21-.06.32,0,.07.1.12.15.18.18.21.45.39.51.63.11.43.51.13.67.35.07.09.08.22.15.31.04.05.14.05.25.08ZM33.58,60.88c-.1.09-.22.19-.33.3-.47.46-.89,1-1.58,1.16-.04,0-.09.14-.08.15.28.27.56.54.87.79.07.06.27.05.34,0,.3-.28.66-.22,1.01-.22.17,0,.32-.05.41-.19.16-.26.3-.53.42-.81.04-.09.02-.26-.04-.33-.23-.27-.49-.52-.74-.76-.05-.04-.14-.04-.25-.06ZM38,68.33h0c.24,0,.48,0,.71,0,.23-.01.36-.28.64-.24.3.04.3-.11.14-.32-.11-.14-.04-.28.11-.38.37-.25.38-.29.11-.57-.17-.17-.33-.34-.51-.5-.26-.24-.54-.2-.74.12-.12.21-.25.44-.5.44-.62,0-.82.55-1.17.89-.03.03-.01.18.03.22.14.13.29.29.46.33.22.06.47.01.71.01ZM26.01,31.53c-.3,0-.33,0-.53.3-.32.48-.76.78-1.31.89-.16.03-.29.07-.42.18-.22.19-.24.44-.02.59.22.15.46.3.7.42.1.05.26.07.34.01.43-.27.94-.36,1.32-.72.23-.21.41-.48.75-.56.04,0,.08-.23.04-.3-.12-.2-.34-.35-.41-.56-.09-.27-.26-.25-.45-.26ZM52.9,39.71c.12,0,.24-.01.36,0,.31.03.48-.23.74-.32.14-.05.22-.31.28-.49.02-.07-.09-.19-.16-.27-.31-.32-.62-.63-.93-.94-.21-.21-.53-.24-.74-.03-.29.28-.64.44-1,.6-.11.05-.23.08-.1.23.26.29.58.53.72.93.06.17.25.31.48.29.12-.01.24,0,.36,0ZM29.09,14.91c.01-.17,0-.36-.17-.51-.12-.1-.23-.23-.35-.33-.17-.16-.31-.11-.44.14-.04.08,0,.27-.21.15-.1-.06-.21-.12-.32-.12-.13,0-.17.11-.21.23-.05.14-.17.26-.28.37-.15.15-.24-.2-.38-.07-.32.3-.63.62-.94.93-.14.15-.09.29.03.42.14.15.27.3.43.41.08.05.23.07.32.03.2-.1.38-.25.57-.37,0-.37.58-.27.54-.67.26-.06.43-.36.81-.15.4.22.59.03.58-.45ZM27.27,57.77c.09-.04.27-.07.35-.17.08-.12.07-.27.27-.34.43-.15.65-.53.83-.93.19-.43.2-.54-.08-.84-.11-.12-.22-.24-.35-.32-.08-.05-.23-.05-.32,0-.13.08-.23.21-.35.32-.4.37-.7.87-1.33.88-.06,0-.12.1-.18.15-.19.17-.2.39.02.47.23.08.31.2.36.4,0,.03.07.07.07.07.31-.29.35-.01.44.19.02.05.13.06.27.11ZM13.6,53.64c-.09.04-.33.08-.34.16-.09.52-.47.55-.87.62-.18.03-.35.16-.51.26-.16.1-.1.32-.33.44-.54.28-.52.32-.14.69.25.25.51.5.79.72.15.12.52-.07.54-.26.01-.12,0-.24.01-.36,0-.17.06-.26.24-.34.29-.13.55-.27.89-.24.25.02.28-.05.2-.23-.06-.14-.1-.3-.2-.42-.23-.29-.21-.56-.01-.86.1-.15-.09-.14-.25-.19ZM35.22,31.04c.35,0,.61.03.63-.32.27-.14.54-.28.81-.41.1-.05.13-.1.04-.17-.21-.18-.39-.4-.63-.52-.18-.09-.21-.18-.24-.34-.06-.33-.32-.53-.54-.37-.29.21-.58.2-.89.23-.34.04-.48.38-.71.59.09.17.14.43.28.49.38.16.61.48.92.72.11.09.29.1.33.11ZM30.88,31.77c-.08,0-.16,0-.24,0-.25,0-.38.05-.18.33.03.04-.15.23-.24.35-.24.33-.21.54.01.84.23.3.59.38.87.59.07.05.24.04.31-.01.19-.14.35-.32.52-.49.12-.12.26-.14.43-.16.24-.03.23-.05.15-.32-.06-.18-.09-.37-.14-.55-.51-.17-.9-.64-1.5-.56ZM19.59,70.98s-.2.02-.32.1c-.22.16-.39.39-.68.46-.04,0-.09.16-.06.2.2.38.34.8.73,1.05.09.06.22.1.33.1.19,0,.41,0,.57-.09.19-.11.33-.18.53-.02.09.07.21.11.32.12.11,0,.28-.02.31-.09.07-.13.07-.3.06-.45,0-.05-.1-.15-.15-.15-.35.01-.25-.42-.45-.47-.26-.06-.5-.21-.54-.41-.07-.34-.27-.35-.64-.34ZM57.28,55.09c.06-.04.14-.07.18-.13.04-.06.02-.19.06-.22.44-.25.87-.59,1.4-.24.2.13.35.12.52-.03.06-.05.14-.07.21-.1.24-.12.29-.26.15-.43-.07-.09-.17-.17-.24-.26-.21-.26-.21-.32.12-.51.11-.06.21-.1.19-.25-.02-.14-.09-.19-.22-.23-.11-.03-.2-.11-.31-.17-.23-.12-.38-.06-.4.19-.03.41-.2.66-.63.7-.11.01-.29.06-.3.12-.05.22-.16.3-.37.38-.21.09-.39.23-.65.22-.09,0-.2.1-.29.18-.07.07-.2.15-.06.28.15.14.28.28.43.41.05.04.14.05.21.07ZM9.18,58.95s0,0,0-.01c.16,0,.33.03.48-.01.08-.02.19-.21.17-.25-.17-.27-.16-.45.19-.55.03,0,.04-.22,0-.31-.05-.1-.15-.22-.25-.25-.32-.08-.42-.27-.42-.59,0-.19-.2-.22-.36-.2-.11.02-.25.04-.32.11-.3.32-.65.57-1.02.78-.07.04-.24.13-.1.27.28.29.57.57.84.85.12.13.27.16.43.15.12,0,.24,0,.36,0ZM40.14,70.97s.16-.07.29-.14c.16-.1.31-.25.48-.32.63-.25,1.21-.61,1.55-.99.07-.08.09-.13.01-.19-.21-.18-.34-.45-.64-.51-.39-.08-.88.13-1.2.51-.07.08-.16.17-.25.19-.15.04-.32.01-.48.03-.19.02-.3.19-.19.34.2.28.32.53.09.86-.11.15,0,.25.34.22ZM59.4,43.76c-.13-.21-.26-.44-.4-.67-.35.11-.57-.22-.88-.23-.03,0-.1.13-.08.14.17.21.23.4-.01.61-.18.16-.35.33-.51.5-.15.17-.35.15-.54.17-.09,0-.24.04-.12.21.07.09.09.21.14.31.21.38.43.5.87.42.14-.03.31-.1.4-.21.19-.23.35-.25.57-.04.03.03.15,0,.21-.04.02-.01.01-.13-.02-.17-.09-.14-.17-.27-.05-.42.1-.12.22-.23.32-.35.04-.06.05-.14.09-.24ZM46.58,11.96c.45-.31.95-.06,1.39-.2.11-.03.11-.09.02-.17-.09-.09-.11-.18,0-.28.14-.15.29-.24.51-.24.1,0,.26-.07.28-.14.05-.16,0-.3-.21-.33-.07,0-.18-.07-.19-.11-.04-.26-.18-.46-.39-.56-.35-.16-.44.26-.67.35-.47.19-.81.57-1.25.81-.15.08-.16.29-.06.41.13.15.27.29.41.42.04.04.12.03.16.04ZM38.06,26.51c-.39.1-.65.17-.9.24-.12.03-.09.07-.04.17.15.32.3.67.61.83.41.21.61.53.75.93.04.1.13.19.2.28.11.13.25.19.41.1.1-.06.19-.13.3-.18.07-.04.14-.05.21-.08-.05-.09-.1-.19-.16-.27-.12-.14-.33-.25-.06-.45.09-.07.24-.2.22-.25-.05-.13-.15-.29-.27-.33-.31-.11-.5-.28-.66-.59-.12-.22-.48-.32-.61-.4ZM55.17,76.47c.14-.07.27-.16.42-.19.54-.1.99-.39,1.45-.67.23-.14.27-.38.04-.58-.12-.11-.22-.22-.34-.33-.43-.43-.45-.43-.98-.1-.16.1-.31.23-.46.36-.18.15-.3.36-.57.39-.05,0-.15.21-.12.28.11.24.25.47.39.7.04.06.12.11.16.15ZM42.55,61.16c-.02-.07-.02-.16-.06-.22-.19-.29-.53-.46-.67-.81-.1-.26-.46-.3-.67-.11-.11.1-.23.23-.27.37-.05.2-.17.24-.34.24-.12,0-.24,0-.36,0-.07,0-.14.06-.21.08.04.05.07.13.11.14.41.1.51.38.57.77.05.38.52.57.83.39.33-.19.71-.33.95-.67.04-.06.08-.13.12-.2ZM12.4,60.62c-.18.07-.46.17-.74.29-.13.06-.16.3-.04.4.2.17.48.28.6.49.12.21.23.46.45.49.33.05.24.38.44.48.2.1.42.17.64.24.04.01.15-.09.15-.13,0-.11-.04-.23-.1-.32-.09-.14-.16-.26-.05-.42.06-.09.13-.2.15-.3.02-.22-.21-.17-.31-.26-.23-.2-.48-.43-.61-.69-.12-.25-.28-.23-.59-.26ZM66.53,37.06c.15,0,.19,0,.23,0,.26,0,.58.08.62-.35,0-.05.19-.11.3-.12.24-.02.48.01.71-.03.17-.03.09-.16.02-.25-.13-.18.03-.18.13-.19.07,0,.14.04.21.07.07.03.13.06.19.1.02-.11.07-.23.04-.32-.06-.18-.15-.36-.27-.5-.1-.11-.28-.12-.4-.21-.19-.15-.35-.14-.51.03-.38.4-.76.78-1.37.82-.1,0-.26.1-.27.16-.02.23-.02.47.06.68.03.08.27.1.31.11ZM26.45,76.94c0-.34-.06-.44-.4-.42-.59.03-1.08-.14-1.48-.57-.16-.17-.26-.06-.37.06-.08.09-.17.17-.26.25-.11.1-.08.19.01.28.17.17.33.33.39.58.03.13.23.32.33.31.35-.03.58.23.88.28.59.09.98-.22.9-.78ZM31.68,17.96s-.07-.13-.12-.13c-.23-.01-.33-.2-.49-.31-.34-.25-.48-.26-.53.17-.02.16-.02.31-.21.37-.1.03-.19.12-.26.19-.07.08-.11.23-.19.25-.09.03-.23-.03-.31-.1-.2-.15-.36-.11-.51.06-.08.09-.18.16-.25.26-.06.08-.24.13-.09.27.09.08.17.22.27.23.43.04.88.16,1.27-.07.19-.11.33.07.38.05.15-.09.32-.24.37-.41.11-.33.42-.47.6-.72.02-.03.04-.07.07-.11ZM21.38,50.32c.14-.04.31-.05.42-.14.07-.05.05-.21.08-.32.03-.11.07-.23.14-.31.16-.2.09-.36-.07-.51-.09-.08-.17-.17-.24-.26-.12-.15-.05-.29.06-.42.12-.14.03-.21-.09-.22-.18-.01-.43-.09-.5.17-.06.26-.22.45-.44.51-.26.07-.39.25-.57.4-.22.2-.22.22,0,.45.33.32.61.77,1.2.65ZM25.41,67.14s-.08,0-.11,0c-.55.11-.91.58-1.41.79,0,0,0,.15.05.17.33.19.68.36,1.01.56.13.08.23.29.36.3.16.02.35-.09.51-.16.14-.06.27-.16.41-.23.23-.12.28-.28.13-.44-.26-.29-.59-.53-.72-.92-.01-.04-.14-.05-.22-.07ZM44.2,25.03c.51,0,.56-.13.4-.5-.13-.29-.29-.55-.53-.76-.15-.13-.27-.36-.44-.39-.38-.06-.3-.22-.17-.44-.17-.09-.34-.18-.52-.25-.03-.01-.14.06-.14.1,0,.28,0,.55-.38.6-.13.02-.13.3,0,.39.22.16.46.28.66.45.24.2.44.47.69.65.14.11.36.11.42.13ZM29.68,37.07c-.1,0-.22,0-.34,0-.21,0-.25.15-.25.32,0,.16,0,.35-.19.37-.33.03-.26.35-.41.51-.07.07.15.64.25.68.03.01.09.03.11,0,.28-.23.69-.13.95-.35.13-.11.69-.03.28-.47.15-.12.3-.24.45-.35.07-.05.3-.02.14-.2-.25-.3-.49-.64-.99-.52ZM35.86,44.52c-.43-.1-.82.09-1.13.5-.07.09-.08.11,0,.19.14.14.31.28.37.45.13.4.38.51.77.56.5.07.52.13.67-.22.12-.29.46-.6.03-.92-.04-.03-.02-.15-.02-.23,0-.25-.13-.34-.36-.33-.08,0-.16,0-.33,0ZM29.71,71.95s-.08,0-.12,0c-.07.02-.14.06-.21.09.04.06.06.15.12.19.3.19.21.4.09.67-.11.23.01.47.23.62.19.13.4.25.61.33.18.07.4.08.56-.08.16-.16.41-.33.43-.52.02-.19-.18-.42-.32-.6-.2-.24-.45-.45-.68-.67-.25.35-.47-.11-.71-.03ZM44.35,62.84c-.17.2-.46.12-.64.22-.26.15-.47.41-.64.67-.06.09,0,.37.08.42.21.12.36.23.46.47.07.17.57.14.61-.03.08-.43.41-.53.72-.69.1-.05.18-.16.24-.26.04-.06.04-.16.02-.22-.16-.37-.57-.37-.84-.58ZM57.61,34.42c-.35-.06-.63.03-.81.35-.06.1-.08.27.06.3.3.07.51.25.65.48.19.3.7.22.73.68,0,.09.08.06.18,0,.13-.07.29-.11.44-.14.31-.05.36-.22.25-.39-.21-.32-.36-.68-.67-.95-.25-.22-.47-.42-.83-.34ZM49.73,36.1c.48.07.72-.27.95-.58.08-.11.11-.37.04-.44-.24-.24-.54-.43-.82-.63,0,0-.07.04-.09.07-.17.23-.52.03-.64.21-.15.23-.31.4-.55.53-.04.02-.05.18-.02.22.18.21.4.39.56.61.2.28.38.14.57.01ZM45.69,82.34c.01-.39,0-.41-.31-.72-.39-.39-.58-.41-.99-.06-.19.16-.37.28-.62.26-.07,0-.3.01-.14.19.35.38.71.74,1.08,1.1.18.17.24.06.27-.13.02-.13.1-.19.23-.09.05.04.15.07.18.04.2-.14.36-.31.3-.59ZM15.25,42.6s.21,0,.26-.06c.14-.18-.11-.23-.17-.34-.14-.23-.27-.47-.44-.68-.17-.21-.39-.4-.59-.59-.23-.22-.45-.45-.69-.66-.05-.04-.15-.06-.21-.05-.12.02-.2.1-.19.25.01.27-.07.55.19.77.15.12.24.29.31.48.1.26.33.43.65.42.09,0,.25.1.26.17.06.36.31.29.61.3ZM49.54,21.72c0-.44,0-.44-.41-.53-.17-.04-.3-.07-.31-.28-.01-.27.05-.61-.08-.81-.2-.29-.6-.06-.9-.12-.04,0-.07-.02-.11-.04-.09-.04-.09-.09,0-.18.23-.23.11-.43-.09-.6-.05-.04-.12-.06-.19-.07-.02,0-.07.06-.07.09,0,.24,0,.48-.21.66.14.18.35.34.42.55.08.25.21.46.43.53.41.13.58.37.57.78,0,.06.08.17.13.18.23.03.48.02.67.2,0,0,.12-.07.13-.12.02-.07,0-.16,0-.24ZM68.27,21.32s-.05-.07-.06-.1c-.07-.14-.1-.33-.21-.41-.41-.29-.85-.55-1.28-.81-.05-.03-.18-.02-.22.02-.2.19-.4.39-.58.6-.03.04,0,.17.03.22.12.16.28.29.41.44.32.39.66.54,1.12.19.13-.1.39-.03.58-.05.07,0,.14-.06.21-.09ZM27.09,12.2s-.04-.13-.08-.15c-.34-.11-.7-.43-1.01.06-.04.06-.13.15-.18.14-.48-.07-.7.29-.99.56-.12.11-.23.22-.34.33-.16.16-.24-.17-.38-.07-.22.15-.36.43-.67.45-.09,0-.08.09,0,.18.21.24.54.37.73.22.55-.43,1.1-.84,1.78-1.05.2-.06.35-.31.52-.49.13-.14.19.02.29.05.1.03.33-.14.35-.24ZM33.9,52.23c.08-.38-.2-.57-.42-.79-.13-.14-.13-.11-.37-.02-.35.13-.55.33-.72.68-.14.29-.16.45.02.72.24.36.37.45.7.28.14-.07.29-.11.42-.2.24-.16.43-.35.37-.68ZM17.82,46.2c.33.18.65-.15,1.01-.25.04-.01.09-.11.08-.15-.05-.15-.09-.3-.19-.42-.06-.08-.2-.1-.3-.13-.07-.02-.16,0-.23-.02-.03,0-.09-.06-.09-.07.03-.05.06-.14.11-.14.24-.04.35-.16.24-.39-.08-.16-.22-.12-.49.08-.12.1-.23.22-.37.28-.35.17-.56.34-.65.49-.08.14-.17.27-.04.42.1.11.22.24.35.29.14.05.31.01.56.01ZM17.69,50.78c-.5,0-.5,0-.47.52,0,.06,0,.14-.04.19-.1.13-.22.23-.32.36-.1.14-.02.32.16.36.08.02.17,0,.24.02.14.05.28.18.41.18.14,0,.28-.12.41-.2.14-.07.27-.16.41-.23.2-.1.34-.43.23-.57-.27-.33-.5-.75-1.04-.63ZM47.6,65.91c-.07-.38-.44-.39-.68-.56-.19-.14-.27-.02-.37.09-.17.19-.39.21-.61.28-.55.16-.63.51-.25.83.06.05.11.11.17.17.28.25.56.26.83.03.26-.23.45-.55.83-.63.04,0,.06-.13.08-.2ZM27.5,71.22c.06,0,.15.03.21,0,.28-.13.41-.49.77-.51.03,0,.07-.05.08-.08.02-.07.05-.18.02-.22-.24-.27-.48-.53-.74-.77-.07-.06-.22-.09-.31-.06-.14.04-.27.14-.41.21-.27.14-.29.44-.41.66-.1.2.15.33.28.47.13.14.25.31.51.29ZM51.49,20.45c.07-.03.14-.06.2-.1.33-.27.32-.38-.09-.63-.1-.06-.12-.12-.03-.16.07-.03.15-.04.22-.07.03-.01.09-.06.08-.07-.03-.05-.07-.14-.11-.15-.31-.03-.59-.02-.9-.19-.27-.15-.38-.19-.16-.45-.24-.11-.48-.26-.73-.31-.1-.02-.24.17-.35.28-.02.02.01.14.05.18.53.54,1.06,1.07,1.6,1.6.05.05.14.05.21.08ZM28.68,29.46s-.05,0-.1.05c-.14.14-.29.28-.41.43-.04.05-.06.2-.04.22.33.23.11.71.42.95.08.06.15.22.28.06.14-.17.43-.09.52-.41.07-.24.34-.42.53-.63.13-.14.08-.38-.12-.44-.33-.09-.67-.15-1.08-.23ZM52.37,7.08s-.08-.03-.08-.02c-.27.31-.65.41-1.02.51-.15.31-.55-.03-.7.28.2.24.42.47.53.77.35.03.5.38.78.52.05.03.21,0,.21-.04.05-.24.38-.39.21-.7-.2-.38-.13-.75.12-1.1.03-.04-.03-.14-.04-.22ZM21.39,56.34c.15-.04.32-.04.43-.13.19-.14.34-.33.5-.5,0,0-.04-.06-.06-.09-.17-.23-.18-.64-.64-.53-.05.01-.16-.13-.22-.22-.2-.26-.28-.3-.43-.16-.15.13-.29.27-.42.41-.11.12-.15.26-.04.42.08.12.12.28.2.41.16.24.36.42.69.39ZM33.73,27.55c-.11-.32-.2-.61-.32-.88-.1-.24-.58-.29-.66-.04-.1.31-.27.33-.52.35-.1,0-.21.09-.29.16-.07.06-.22.12-.1.27.02.03.06.06.08.09.24.51.84.34,1.2.65.04.04.24-.03.3-.1.12-.13.21-.31.32-.48ZM36.16,24.31c-.32,0-.32,0-.62.38-.1.12-.2.26-.34.32-.18.08-.43.05-.16.33.11.11.23.23.29.36.06.16.1.29.3.29.2,0,.39.02.45-.25.02-.09.14-.15.22-.22.21-.17.43-.33.62-.52.17-.16-.05-.16-.12-.21-.08-.07-.22-.12-.24-.2-.06-.26-.23-.29-.41-.28ZM39.44,49.15q0-.62-.35-1.02c-.16-.17-.38-.3-.39-.58,0-.02-.13-.08-.16-.06-.29.19-.58.39-.86.6-.07.06-.21.22-.02.25.36.06.51.36.74.56.24.21.46.45.71.64.04.03.24-.04.29-.12.06-.09.03-.23.04-.28ZM39.84,36.58c.49,0,.57-.05.55-.37-.04-.56.05-1.01.68-1.16.07-.02.13-.1.17-.16.03-.05.04-.16.01-.17-.06-.03-.15-.05-.22-.04-.13,0-.16.23-.39.13-.39-.18-.41-.15-.49.25-.03.16-.06.27-.25.34-.28.11-.54.28-.8.44-.05.03-.12.16-.1.17.16.18.31.36.5.5.11.08.29.07.33.08ZM34.63,15.56c-.03.55.07.58.53.57.11,0,.25,0,.33-.06.32-.21.63-.44.94-.67.14-.1.15-.3.04-.41-.13-.15-.27-.29-.41-.42-.17-.16-.33-.13-.51.04-.15.15-.19.32-.22.52-.04.31-.1.33-.47.16-.16-.07-.2-.01-.23.1-.02.07,0,.16,0,.19ZM31.43,49.4c-.44-.06-.44-.51-.69-.74-.38-.34-.37-.38-.86,0-.17.14-.34.17-.54.18-.08,0-.29.02-.14.19.21.24.43.47.68.67.11.08.36.14.44.07.31-.25.67-.21,1.02-.24.03,0,.06-.1.09-.15ZM30.99,24.53s0-.1-.03-.11c-.39-.13-.64-.45-.92-.72-.13-.12-.26-.16-.42-.03-.09.07-.2.11-.31.17-.17.09-.27.3-.22.48.07.24.23.43.48.46.24.03.48,0,.5.35,0,.11.09.12.17.05.22-.16.36-.43.67-.46.03,0,.05-.13.07-.2ZM32.67,70.51c-.21.1-.42.19-.61.32-.05.04-.06.23-.02.3.08.13.21.28.34.31.37.08.5.32.62.63.02.06.21.1.3.07.18-.06.34-.17.51-.26.02-.01.04-.06.03-.08-.02-.03-.05-.07-.09-.08-.12-.02-.24,0-.35-.03-.07-.01-.12-.08-.19-.12.07-.04.13-.09.2-.11.07-.02.16,0,.24-.01.07-.02.14-.06.21-.09-.04-.06-.07-.14-.13-.19-.25-.24-.64-.3-.85-.6-.03-.05-.14-.05-.21-.07ZM60.08,27.93h0c-.12-.01-.24,0-.36-.02-.3-.04-.54.06-.73.3-.07.09-.16.18-.24.27-.1.12-.04.29.12.38.14.07.27.15.42.22.17.07.32.03.36-.16.04-.19.13-.27.32-.27.12,0,.24,0,.36,0,.24,0,.35-.17.47-.32.04-.05.06-.15.04-.22-.02-.06-.09-.15-.14-.16-.2-.02-.4,0-.6,0ZM32.81,22.62c.1,0,.35.05.36-.23,0-.34.1-.49.47-.5.21,0,.42-.17.63-.26.09-.04.08-.1,0-.18-.43-.49-.63-.52-1.13-.1-.27.22-.47.53-.83.65-.07.02-.09.28-.07.43,0,.08.14.15.24.2.07.03.16,0,.33,0ZM44.95,54.57c-.05-.06-.1-.17-.14-.16-.4.07-.53-.16-.68-.47-.1-.2-.31-.36-.51-.48-.11-.06-.34-.05-.44.03-.09.07-.14.28-.11.42.06.29.25.49.57.48.34-.01.38.19.38.45,0,.2.13.27.3.27.29,0,.52-.14.64-.42.01-.03,0-.08,0-.12ZM35.99,70.28c.15-.02.38,0,.44-.08.15-.22-.14-.29-.25-.42-.22-.27-.48-.51-.82-.63-.1-.6-.55-.26-.85-.3-.11-.02-.09.07-.05.16.16.36.4.65.67.94.25.26.51.35.84.32ZM19.95,41.05c-.17-.17-.34-.47-.56-.52-.19-.04-.47.16-.68.3-.22.16-.39.38-.59.58-.15.15.03.2.09.27.17.22.42.24.64.15.35-.14.69-.34,1.02-.53.05-.03.05-.14.09-.26ZM31.01,20.94c.45.12.85-.27,1.32-.27.14-.22.25-.47.55-.53-.03-.06-.05-.13-.09-.19-.05-.06-.11-.14-.18-.15-.15-.04-.31-.04-.46-.06-.16.4-.74.02-.88.46-.1.29-.27.47-.59.51-.03,0-.09.07-.08.08.04.05.08.12.14.14.07.02.16,0,.28,0ZM48.23,72.17s.1-.02.25-.04c-.05-.17-.06-.36-.17-.49-.27-.33-.59-.62-.87-.95-.2-.24-.32-.03-.47.04-.3.15-.3.15-.14.32.26.28.63.5.55.97,0,.04.1.13.17.14.15.02.31,0,.67,0ZM29.63,63.6c-.08,0-.25.28-.22.35.21.48.53.87.95,1.16.09.06.33-.09.49-.16.17-.08.19-.22.1-.38-.04-.09-.21-.14-.09-.28.06-.08.17-.25,0-.24-.46,0-.86-.07-1.14-.46,0,0-.06.02-.09.03ZM55.01,35.86c-.35,0-.47.16-.38.37.19.44.44.81.93.96.18.06.34.17.52.25.11.05.21-.01.19-.15-.02-.15-.02-.34-.1-.44-.29-.33-.6-.63-.92-.92-.08-.07-.21-.07-.24-.07ZM29.04,67.04c-.04-.06-.06-.14-.11-.19-.23-.26-.55-.46-.63-.84-.41-.11-.63-.46-.93-.71-.09-.08-.14-.09-.17.03-.01.04-.03.08-.03.11.03.15.01.34.1.44.18.2.39.41.63.51.27.11.14.2.05.32-.15.22,0,.36.14.5.09.09.16.09.29.03.17-.08.37-.09.55-.14.04,0,.06-.05.1-.07ZM27.61,50.53c-.33.01-.58-.05-.75.19-.06.08-.21.15-.06.28.23.21.4.49.75.54.1.01.25.13.27.11.19-.21.45-.12.66-.19.12-.04.09-.07.04-.17-.21-.43-.38-.9-.92-.76ZM32.16,12.75c.2,0,.4,0,.6,0,.14,0,.21-.19.14-.37-.04-.11-.27-.22,0-.33.21-.09.44-.16.63-.28.07-.04.13-.22.1-.3-.03-.07-.21-.16-.27-.13-.62.3-1.21.66-1.79,1.04-.04.03-.05.15-.03.21.02.06.1.14.15.15.16.02.32,0,.48,0ZM10.11,63.04c-.08.04-.15.07-.22.1.04.06.07.15.13.18.19.13.42.21.57.36.16.16.23.39.37.57.12.15.27.28.43.41.05.04.17.07.21.04.15-.12.32-.24.39-.41.04-.09-.08-.3-.19-.38-.44-.3-.97-.46-1.36-.85-.06-.06-.22-.03-.33-.04ZM20.96,27.44c.43.04.78-.03.93-.51.03-.09.15-.14.23-.21.21-.17.41-.35.62-.52.03-.02.04-.07.06-.1-.07-.03-.14-.1-.2-.09-.15.01-.36,0-.43.09-.27.31-.63.45-.98.6-.27.12-.43.33-.63.5-.04.03-.04.12-.04.18,0,.02.06.05.09.06.12,0,.24,0,.35,0ZM46.8,23.3c0-.06,0-.13-.02-.18-.39-.62-.77-1.25-1.18-1.85-.06-.09-.3-.1-.44-.07-.18.03-.22.21-.18.38.02.11.07.28.14.29.23.04.3.17.38.38.07.2.49.11.46.45.27.14.49.33.62.62.01.02.14-.01.23-.02ZM47.81,57.71c-.04-.1-.05-.17-.09-.22-.19-.2-.42-.37-.57-.59-.22-.31-.59-.35-.87-.57-.05-.04-.25.02-.29.09-.04.07-.02.24.04.31.26.29.53.58.83.84.17.15.38.27.59.33.09.03.24-.12.36-.19ZM39.31,77.43c.2-.11.4-.22.59-.34.03-.02,0-.2-.02-.21-.43-.14-.66-.52-1-.78-.15-.12-.28-.05-.41.06-.29.26-.29.36.01.6.08.07.2.14.22.22.08.34.47.23.6.45ZM51.47,14.63h0c0-.16.03-.33-.01-.47-.02-.08-.16-.15-.26-.17-.15-.04-.37-.03-.41.13-.08.36-.29.53-.62.62-.12.03-.12.12-.02.16.19.06.35.14.5.29.09.09.16.29.36.12.18-.16.57-.14.48-.54,0-.04,0-.08,0-.12ZM40.64,74.72c-.07.34.06.56.42.68.21.07.37.3.58.38.17.06.39,0,.58-.04.12-.03.11-.06-.25-.43-.14-.14-.29-.27-.42-.43-.16-.19-.37-.27-.59-.37-.27-.12-.31-.11-.31.19ZM40.15,11.11c0-.27-.25-.39-.4-.56-.13-.15-.29-.27-.43-.41-.19.15-.35.3-.41.56-.02.1-.26.14-.38.23-.04.03-.07.19-.04.21.14.11.32.19.46.31.14.12.21,0,.28-.07.23-.27.47-.44.78-.12.04-.05.08-.1.12-.15ZM40.97,21.92c.1-.03.25-.06.38-.14.19-.12.3-.35.57-.38.16-.02.1-.18.01-.24-.19-.13-.4-.23-.59-.36-.08-.06-.13-.09-.19,0-.17.23-.45.08-.65.21-.05.03-.11.14-.09.19.08.21.18.42.29.62.03.05.13.06.26.11ZM36.49,73.97s-.04-.07-.07-.1c-.23-.22-.45-.46-.7-.66-.06-.05-.24-.03-.31.02-.16.11-.3.27-.43.41-.03.04-.05.15-.02.18.1.13.22.23.33.35.11.12.26.22.42.17.26-.08.5-.19.75-.3.02,0,.02-.05.03-.08ZM36.24,79.14s.09.02.12,0c.26-.15.53-.29.78-.46.08-.05.14-.2.12-.3-.04-.27-.48-.52-.73-.42-.21.08-.41.19-.61.31-.05.03-.09.15-.07.2.08.21.19.41.29.61.01.03.06.04.09.06ZM35.97,8.65s.09.02.12,0c.19-.13.37-.28.56-.41.2-.13.49.05.65-.2.02-.03.07-.05.08-.09.02-.06.06-.14.04-.19-.11-.2-.4-.36-.6-.29-.25.09-.53.19-.71.36-.15.14-.19.41-.26.63-.01.04.07.12.12.18ZM26.21,26.02c-.35-.05-.48.1-.62.24-.08.08-.09.15,0,.17.42.08.59.48.91.68.12.07.29.07.44.07.06,0,.15-.06.18-.11.03-.06.04-.18,0-.22-.23-.26-.48-.52-.74-.76-.08-.07-.21-.08-.19-.08ZM32.73,41.62c.18-.08.36-.15.53-.24.04-.02.1-.12.09-.15-.13-.23-.41-.36-.44-.68,0-.11-.1-.12-.17-.02-.23.3-.55.4-.9.45-.03,0-.07.13-.07.2,0,.07.06.17.11.18.22.06.47,0,.65.2.04.05.14.04.2.06ZM35.97,59.17c-.16.17-.29.28-.36.41-.03.07.04.28.1.29.39.1.61.32.6.73,0,.14.08.21.19.26.1.05.22.08.31.15.09.06.15.08.18,0,.03-.07.06-.18.03-.22-.26-.29-.47-.57-.53-1-.03-.22-.33-.41-.52-.63ZM30.09,68.08c-.13-.02-.26.13-.4.27-.08.07-.09.12-.02.19.17.16.34.33.51.49,0,0,.06-.04.09-.07.18-.14.25-.07.28.13,0,.06.08.15.12.15.18-.01.43-.43.32-.54-.18-.2-.38-.39-.58-.57-.05-.04-.15-.02-.32-.04ZM37.96,16.71s-.06-.07-.09-.07c-.44-.01-.31-.36-.38-.6-.02-.06-.27-.14-.28-.12-.22.35-.43.7-.61,1.07-.02.04.15.16.23.25.08.09.13.08.17-.03.04-.1.06-.24.14-.3.15-.11.28,0,.41.09.09.06.42-.19.4-.29ZM45.21,31.47v.12c0,.15-.01.34.16.39.16.05.27-.03.33-.22.09-.34.34-.5.7-.48.04,0,.1,0,.11-.02.05-.1.1-.2.11-.3,0-.04-.09-.11-.16-.14-.35-.17-.56.2-.87.24-.39.05-.38.09-.39.41ZM30.42,53.43c-.19.2-.38.4-.56.6,0,0,.04.06.07.09.28.29.62.46,1.02.49.09,0,.25-.07.28-.14.03-.08-.03-.22-.09-.31-.06-.1-.16-.22-.26-.23-.24-.03-.34-.15-.37-.38,0-.03-.05-.06-.09-.12ZM37.73,32.6c.1.09.21.16.27-.1.02-.11.09-.21.16-.3.16-.22,0-.35-.11-.5-.14-.17-.23-.04-.37,0-.49.12-.48.66-.82.9,0,0,0,.06.03.08.03.02.07.06.1.05.11-.03.22-.06.31-.12.14-.09.27-.15.45,0ZM32.84,67.37c.12,0,.24.01.35,0,.07,0,.14-.06.2-.1-.02-.03-.04-.07-.06-.1-.22-.22-.44-.44-.66-.67-.14-.14-.19.04-.28.07-.07.02-.14.05-.21.07-.11.02-.28,0-.32.06-.13.18.1.23.17.34.2.29.48.38.81.32ZM39.42,18.26c-.04-.06-.08-.18-.13-.18-.31,0-.66-.07-.94.04-.27.11-.47.4-.77.51,0,0,0,.06.02.08.03.03.06.06.09.07.2.01.39.02.56-.12.2-.17.42-.13.66-.02.25.11.52-.1.5-.36ZM55.31,31.75s-.02-.09-.04-.12c-.26-.4-.63-.46-.99-.14-.08.07-.19.15-.05.28.15.13.27.3.43.41.08.05.24.07.31.02.16-.1.34-.22.33-.44ZM21.64,74.42h.01c0,.16-.03.33.01.47.02.07.23.18.25.16.24-.2.46-.41.67-.64.03-.03-.01-.18-.05-.2-.24-.1-.49-.19-.75-.27-.03,0-.12.07-.13.12-.02.12,0,.24,0,.36ZM12.43,25.04c.09-.04.2-.05.22-.1.04-.14.12-.37.06-.43-.21-.21-.47-.39-.78-.41-.08,0-.18.13-.27.21-.12.1-.07.19.02.28.14.14.27.29.44.4.09.06.22.05.31.06ZM34.07,42.36s0,0,0,0c-.12,0-.24,0-.36,0-.23,0-.23,0-.15.26.05.15.07.3.11.45.06.23.26.32.42.17.17-.16.34-.33.49-.51.04-.05.04-.16.02-.22-.03-.06-.11-.12-.18-.13-.12-.02-.24,0-.36,0ZM23.71,47.39c.08,0,.17.01.22-.02.16-.12.3-.26.44-.4.23-.24.22-.32-.04-.59-.08-.08-.16-.17-.28-.04-.13.15-.29.28-.41.43-.13.17-.1.37-.01.55.01.03.06.05.08.08ZM38.49,72.23c-.11-.22-.2-.48-.36-.68-.07-.09-.3-.11-.43-.07-.14.04-.28.16-.35.29-.09.17.11.27.22.33.23.13.48.21.72.3.03.01.1-.09.19-.17ZM33.3,75.33c-.36,0-.52-.01-.68,0-.05,0-.12.11-.13.17-.01.07,0,.18.06.21.13.09.27.14.41.21.3.16.59.02.69-.35.01-.06-.04-.18-.08-.2-.15-.05-.3-.06-.26-.05ZM30.24,60.87q.37,0,.55-.13c.28-.22.29-.4.01-.67-.05-.05-.16-.1-.18-.09-.26.25-.5.5-.74.76,0,0,.07.11.13.13.07.02.16,0,.24,0ZM38.56,39.94h0c.15,0,.31.02.46,0,.14-.03.12-.13.05-.24-.06-.09-.08-.21-.13-.31-.07-.16-.18-.09-.25-.02-.14.14-.19-.04-.28-.07-.26-.1-.39-.04-.41.18-.04.35.04.46.32.47.08,0,.15,0,.23,0ZM47.76,81.03s.04-.07.04-.08c-.28-.27-.55-.55-.85-.81-.03-.03-.26.07-.27.14-.03.14-.04.39.04.44.29.17.56.43.94.36.04,0,.07-.03.1-.05ZM12.35,46.43h0s.08,0,.12,0c.04,0,.08,0,.12,0,.34,0,.33,0,.16-.38-.06-.14-.05-.33-.26-.33-.15,0-.3.04-.45.09-.07.02-.14.1-.17.16-.05.1-.08.22-.07.32,0,.04.12.1.19.11.12.02.24,0,.36,0ZM44.12,67.38c-.16,0-.25-.01-.32,0-.07.01-.14.05-.21.08.03.06.06.13.1.19.15.22.3.45.46.66.03.03.18.03.22-.02.17-.2.17-.78,0-.86-.1-.05-.22-.05-.25-.05ZM41.83,65.49h0c0-.12.01-.24,0-.36,0-.04-.14-.1-.15-.09-.2.23-.33-.01-.49-.06-.08-.02-.21.06-.28.13-.03.03-.01.19.03.21.25.12.43.29.54.54.02.04.15.05.22.02.06-.02.12-.1.14-.17.02-.07,0-.16,0-.24ZM59.48,20.46c.2,0,.32,0,.44,0,.14,0,.26-.26.17-.36-.16-.17-.33-.34-.5-.51-.07-.07-.13-.05-.17.05-.08.17-.19.34-.23.52-.02.08.07.21.14.28.04.04.15.02.15.02ZM15.6,28.66s.02-.1,0-.11c-.29-.31-.52-.68-.93-.86-.03-.01-.1-.01-.11,0-.03.05-.08.14-.06.16.21.23.39.47.51.76.05.11.23.18.37.24.04.02.13-.05.19-.09.02-.02.02-.07.03-.11ZM28.61,46.9s-.01-.2-.05-.34c-.01-.05-.13-.1-.18-.09-.36.06-.6.46-.47.78.02.06.11.12.17.14.34.1.53-.04.53-.49ZM41.83,14.44s.17-.05.23-.13c.11-.15.18-.33.25-.51.02-.06-.01-.15-.05-.21-.01-.02-.12.02-.18.03-.15.04-.29.08-.44.12-.24.06-.29.13-.27.41.02.23.13.32.46.29ZM60.32,73.26s-.04-.07-.07-.1c-.24-.25-.46-.52-.83-.61-.11-.03-.2-.11-.24.04-.02.06,0,.17.04.22.15.18.31.36.5.49.11.08.29.07.44.07.05,0,.1-.08.15-.12ZM23.07,44.96c-.04-.06-.07-.15-.13-.18-.06-.03-.18-.02-.22.02-.09.11-.13.28-.23.38-.14.12-.32.19-.48.29-.04.03-.07.15-.05.17.05.04.14.07.21.07.4-.02.8-.37.9-.75ZM34.37,13.66c-.05-.05-.11-.16-.14-.15-.33.09-.67.18-.92.45-.09.1-.08.17.07.24.1.05.22.08.31.14.09.07.17.08.17-.01,0-.31.27-.34.45-.46.04-.03.04-.14.05-.21ZM18.9,53.66c.34.09.55-.09.65-.43.01-.04.04-.07.07-.1.08-.08.07-.13-.04-.17-.04-.01-.09-.02-.11,0-.26.16-.55.25-.86.3-.03,0-.08.13-.07.19,0,.07.05.15.11.18.06.04.15.02.26.04ZM63.34,16.91c-.03.07-.09.15-.07.21.06.18.15.35.23.52.1.19.36.24.6.13.07-.03.12-.24.08-.31-.19-.33-.56-.37-.85-.55ZM45.82,17.37s-.07.04-.1.06c-.14.14-.28.28-.42.41-.08.07-.06.11.01.19.2.23.45.33.72.22.05-.02.12-.13.11-.18-.07-.21-.16-.42-.25-.63-.01-.03-.05-.05-.07-.08ZM53.24,66.94s-.06.06-.07.1c-.01.04-.02.09,0,.12.17.21.34.43.53.61.06.06.21.06.31.03.13-.03.11-.27,0-.4-.2-.27-.53-.28-.77-.45ZM40.62,30.32c.45,0,.57-.13.49-.53-.03-.14-.25-.25-.36-.15-.17.15-.33.32-.5.48-.03.03-.04.06-.07.1.07.03.13.08.2.1.07.02.15,0,.23,0ZM52.84,33.6s0-.07-.02-.08c-.21-.09-.38-.17-.46-.44-.05-.18-.47-.16-.6,0-.04.05-.05.2-.03.21.3.14.54.44.91.39.07,0,.13-.06.2-.09ZM30.7,82.28h0c.08,0,.16,0,.23,0,.26-.02.33-.09.33-.36,0-.27-.06-.34-.33-.36-.08,0-.16-.02-.23,0-.05.02-.11.13-.09.14.18.23.1.32-.16.34-.03,0-.09.06-.08.07.02.06.05.13.1.15.07.02.15,0,.23,0ZM46,26.24c-.12,0-.24-.01-.36,0-.05,0-.08.09-.13.14.03.03.06.07.09.08.25.05.59-.07.61.37,0,.04.19.09.3.1.04,0,.11-.11.13-.18.07-.32-.03-.5-.29-.51-.12,0-.24,0-.36,0ZM26.51,20.22c-.07.02-.15.02-.21.07-.02.02,0,.13.02.17.16.17.32.33.51.46.05.04.21-.04.29-.1.04-.03.06-.17.03-.21-.15-.22-.32-.44-.64-.39ZM61.28,7.48c.13.15.21.3.34.37.17.09.4-.2.57.07.03-.03.07-.06.07-.09.01-.07.03-.2,0-.22-.23-.13-.47-.25-.72-.34-.05-.02-.15.12-.26.22ZM39.9,12.51c.29,0,.41.01.53,0,.12-.02.2-.08.2-.23,0-.15-.08-.22-.2-.23-.19-.02-.39-.02-.58,0-.05,0-.14.11-.13.16.01.1.06.21.13.28.04.04.15.01.05,0ZM11.52,38.05c-.06-.23-.29-.52-.56-.68-.02-.01-.13.06-.14.11-.09.35.09.59.37.76.05.03.16.02.22-.01.05-.03.08-.12.11-.18ZM26.9,44.9c-.07-.03-.18-.13-.25-.11-.14.03-.27.14-.41.21-.23.12-.25.2-.05.36.13.11.27.19.42.06.15-.12.33-.23.29-.52ZM38.7,62.8s.19-.06.22-.14c.03-.08-.02-.22-.08-.31-.06-.1-.16-.17-.25-.24-.12-.09-.32.02-.35.17-.07.37.05.53.46.52ZM31.67,39.13s-.07-.13-.1-.13c-.19-.01-.38-.03-.55.12-.2.17-.22.27-.02.45.25.22.36.19.51-.11.05-.1.11-.21.17-.32ZM38.92,23.51c.01-.11.03-.23.04-.34,0-.18-.08-.3-.28-.3-.16,0-.33-.02-.41.14-.03.06-.02.19.02.22.16.11.34.19.51.28.02.01.06,0,.12,0ZM29.59,16.41s.01.07.04.1c.12.14.51.15.61,0,.04-.07.03-.23-.02-.3-.08-.1-.21-.21-.33-.23-.1-.02-.3.31-.29.44ZM52.49,59.19c-.23,0-.26.05-.17.26.05.11.06.24.14.32.07.07.2.11.3.11.04,0,.12-.1.14-.17.09-.38-.03-.52-.41-.52ZM67.1,62.56c-.06-.1-.1-.21-.14-.21-.3-.02-.61-.02-.91-.02-.03,0-.06.04-.08.07,0,.02,0,.07.02.07.31.1.62.21.94.29.04.01.12-.14.18-.21ZM35.1,36.85s.02-.1,0-.12c-.13-.13-.28-.26-.42-.38-.02-.02-.09-.01-.11,0-.07.08-.15.16-.17.26-.03.14-.01.41.1.37.19-.07.33-.13.48.04.04-.06.08-.12.11-.17ZM28.42,75.55c-.07.02-.14.05-.21.07.02.05.05.16.07.16.25,0,.31.16.37.37.02.06.2.1.3.1.13-.01.16-.27.06-.39-.15-.18-.31-.36-.6-.3ZM28.45,78.92c-.32-.05-.57.03-.72.31-.02.03.04.14.08.15.39.1.64-.21.97-.32,0,0,0-.06-.02-.08-.02-.03-.06-.07-.09-.07-.08-.01-.16,0-.22,0ZM58.01,26.49c.24-.02.51-.03.79-.06.03,0,.06-.05.09-.07-.03-.03-.05-.07-.09-.08-.14-.07-.29-.12-.41-.21-.22-.16-.37-.02-.51.12-.05.05-.08.12-.12.19.07.03.14.06.25.11ZM15.53,43.78c.08,0,.17,0,.22-.03.18-.15.34-.33.5-.5.02-.02-.03-.11-.06-.16-.01-.02-.08-.02-.11,0-.3.12-.49.35-.64.62,0,0,.06.05.09.07ZM61.68,59.43c.21,0,.33,0,.44,0,.03,0,.09-.04.09-.06,0-.06-.01-.14-.05-.18-.29-.32-.43-.3-.73.04-.08.08-.08.14.02.17.11.03.22.04.23.04ZM49.53,59.85c-.1.14-.22.24-.2.3.04.14.14.27.24.38.13.17.2-.02.27-.08.07-.06.23-.14.08-.27-.11-.1-.23-.19-.39-.33ZM50.24,63.84c0-.1.02-.17,0-.18-.2-.12-.4-.23-.6-.34-.03.07-.09.15-.08.21.05.25.2.43.46.45.08,0,.16-.1.22-.14ZM66.12,68.38c-.02-.07-.02-.17-.06-.2-.17-.13-.36-.12-.53-.02-.05.03-.08.13-.08.19,0,.06.05.17.1.18.15.03.3.04.45.02.05,0,.08-.11.13-.17ZM69.66,72.43c-.24,0-.36,0-.47,0-.03,0-.09.05-.09.06,0,.06.02.13.06.18.3.32.42.3.73-.05.08-.09.08-.14-.03-.16-.11-.03-.22-.03-.21-.03ZM30.69,9.64c-.08,0-.19-.02-.23.02-.07.07-.12.18-.14.28,0,.05.08.16.13.16.15.01.3,0,.45-.04.04-.01.09-.12.09-.18,0-.06-.04-.15-.09-.19-.05-.04-.14-.04-.22-.05ZM47.87,12.99c.33.04.5-.1.63-.3.02-.03-.04-.14-.07-.15-.18-.03-.38-.06-.54.08-.03.03-.06.05-.08.08-.05.06-.09.12-.14.18.09.05.17.1.2.11ZM16.09,15.43c-.03-.07-.04-.16-.09-.2-.05-.04-.18-.07-.22-.04-.14.13-.27.28-.39.43-.02.02-.02.1,0,.11.04.04.12.09.16.08.15-.05.29-.11.42-.19.06-.03.08-.12.12-.19ZM62.57,23.34h0c.08,0,.16.02.23,0,.06-.02.12-.07.18-.11-.05-.06-.08-.13-.14-.18-.27-.25-.39-.25-.65.04-.04.04-.05.12-.05.18,0,.02.06.06.09.06.11,0,.23,0,.34,0ZM60.9,14.92c-.06.02-.16.07-.26.11.1.11.19.25.31.33.07.04.22.01.3-.04.11-.07.05-.34-.08-.37-.07-.02-.15-.01-.28-.02ZM42.14,43.07c-.15,0-.27.01-.39.03-.03,0-.1.06-.09.06.03.07.05.14.1.19.07.07.12.2.27.13.14-.07.27-.13.41-.2.03-.02.06-.05.09-.08-.03-.03-.06-.07-.09-.08-.11-.03-.22-.04-.3-.06ZM45.85,64.22c-.12.04-.23.06-.32.11-.05.03-.07.13-.06.2.01.06.06.15.12.17.15.06.56-.19.52-.33-.02-.07-.17-.1-.26-.15ZM58.08,55.57c.19-.2.38-.39.56-.59,0,0-.03-.06-.06-.08-.03-.02-.07-.04-.11-.03-.31.07-.51.3-.49.56,0,.03.05.06.1.13ZM43.41,28.4c.12-.13.31-.25.31-.36,0-.12-.2-.22-.3-.34-.11.11-.3.22-.31.33,0,.11.19.23.31.36ZM62.61,56.8h0c-.12,0-.24-.02-.36,0-.12.02-.21.1-.19.25,0,.04.01.08.03.11.04.09.1.08.18,0,.16-.16.37-.12.56-.14.04,0,.08-.09.1-.15,0-.01-.05-.07-.09-.07-.08-.01-.16,0-.24,0ZM66.2,63.57c.07-.12.14-.21.15-.3.02-.13-.06-.2-.2-.21-.16,0-.3.14-.23.29.04.08.15.13.27.22ZM57.29,30.1c-.11-.1-.18-.22-.25-.22-.08,0-.21.06-.25.14-.07.14.07.32.23.28.09-.02.16-.11.28-.19ZM48.88,28.85c-.12.09-.24.13-.28.21-.07.14.07.3.23.29.14,0,.22-.07.2-.2-.01-.09-.08-.17-.15-.3ZM13.67,65.88c-.09.12-.18.19-.2.28-.04.15.15.3.29.23.07-.04.15-.17.14-.25,0-.08-.12-.14-.23-.25ZM50.91,27.93s-.07.04-.09.07c-.01.02-.01.06,0,.08.11.14.21.32.43.31.06,0,.17-.07.17-.09-.03-.16-.32-.36-.51-.36ZM49.85,46.65c-.12.09-.24.13-.28.21-.07.14.06.3.23.29.14,0,.22-.07.2-.2-.01-.09-.08-.17-.15-.3ZM57.54,26.49c-.11-.1-.18-.21-.25-.22-.08,0-.21.07-.25.14-.07.14.07.32.23.28.09-.02.16-.11.28-.2ZM22.47,70.23s.09-.05.09-.07c-.02-.15-.32-.37-.51-.37-.03,0-.07.03-.09.05-.02.02-.03.06-.02.08.11.15.21.32.43.33.03,0,.07-.01.1-.02ZM43.68,19.93s.04-.06.03-.08c-.06-.14-.12-.29-.19-.42-.02-.04-.1-.06-.16-.07-.02,0-.07.06-.07.09.02.15.03.31.08.45.01.04.13.06.2.07.03,0,.07-.02.1-.04ZM47.84,16.08c-.09.12-.17.19-.2.28-.04.16.14.3.28.22.07-.04.15-.17.14-.25,0-.08-.12-.14-.23-.25ZM25.53,75.73c-.13-.07-.21-.14-.3-.15-.13-.02-.2.06-.21.2,0,.16.14.3.29.23.08-.04.13-.15.22-.27ZM24.05,58.73c.14-.02.25-.04.35-.06.03,0,.05-.04.08-.07-.1-.11-.19-.28-.31-.3-.08-.02-.21.17-.31.27.07.06.13.12.19.17ZM61.37,34.11c-.12-.07-.21-.14-.3-.15-.13-.02-.2.06-.21.2,0,.16.14.3.29.23.08-.04.13-.15.22-.27ZM56.92,61.43s-.06-.05-.09-.05c-.18,0-.5.22-.51.36,0,.03.12.08.18.09.22.01.32-.17.43-.31.01-.02,0-.05,0-.08ZM24.74,72.14c-.09.12-.17.19-.2.28-.04.15.15.3.29.22.07-.04.15-.17.14-.25,0-.08-.12-.14-.23-.25ZM44.61,25.25c-.07.04-.19.1-.3.17.08.09.15.21.25.25.07.02.19-.07.27-.13.05-.04.05-.12.08-.18-.07-.03-.14-.05-.29-.1ZM49.39,13.99c.11-.03.21-.07.32-.1-.08-.11-.14-.23-.23-.32-.02-.02-.13,0-.17.04-.08.07-.15.17-.22.26.1.04.2.08.3.13ZM64.46,66.55c-.07-.06-.09-.09-.13-.1-.14-.07-.3,0-.33.16-.01.06.03.14.04.21.13-.08.27-.17.42-.26ZM31.97,81.58c-.06.03-.17.05-.18.1-.02.1.01.2.02.3.06-.02.13-.03.18-.07.06-.04.1-.11.15-.17.02-.02.03-.08.03-.09-.06-.03-.13-.05-.2-.08ZM43.89,48.37c.07,0,.15-.01.22-.03.03,0,.06-.05.09-.07-.04-.05-.08-.12-.14-.13-.11-.02-.23-.02-.34,0-.05,0-.09.08-.14.13.03.02.05.06.09.07.07.02.15.02.22.03ZM19.6,47.4s.12,0,.19-.02c.03,0,.08-.06.08-.07-.02-.05-.06-.14-.1-.14-.11-.02-.23-.02-.34,0-.06.01-.11.08-.16.12.06.04.12.08.19.11.03.01.07,0,.14,0ZM59.1,45.95c.17.02.28-.07.29-.24,0-.06-.05-.13-.08-.19-.03.02-.07.03-.09.06-.08.08-.16.16-.22.25,0,.01.07.09.11.13ZM51.94,62.33c-.01-.17-.12-.26-.29-.24-.04,0-.12.12-.11.12.1.11.2.2.31.3.03-.06.06-.13.1-.19ZM57.41,61.37s-.11.12-.1.13c.06.09.14.17.22.24.02.02.06.03.09.05.03-.06.08-.13.08-.19,0-.16-.13-.25-.29-.23ZM47.25,61.09c.11-.04.12-.09.03-.16-.05-.05-.09-.12-.15-.16-.05-.03-.16-.05-.17-.04-.03.06-.06.14-.05.2.04.16.18.23.33.16ZM13.81,56.31c.06,0,.1.01.13,0,.07-.03.13-.07.19-.11-.05-.04-.1-.11-.16-.12-.11-.02-.23-.02-.34,0-.05,0-.08.09-.11.14,0,0,.05.06.08.07.07.02.15.02.2.02ZM24.06,42.59c.15,0,.23.02.29,0,.04-.02.07-.09.09-.14,0-.01-.05-.06-.08-.07-.03-.01-.07,0-.11-.01-.04,0-.08-.01-.11,0-.1.03-.2.08-.3.11.09.05.19.1.23.12ZM43.23,32.98s-.13.12-.12.12c.07.09.14.17.22.25.03.03.06.04.09.06.03-.06.08-.12.09-.19.02-.2-.12-.24-.28-.25ZM52.79,29.6c-.07,0-.15.01-.22.03-.03,0-.06.05-.09.07.04.05.08.12.14.13.11.02.23.02.34,0,.05,0,.09-.08.14-.13-.03-.03-.05-.06-.09-.07-.07-.02-.15-.02-.22-.03ZM55.96,25.27s.09,0,.16-.01c.03,0,.08-.06.08-.07-.02-.05-.06-.14-.1-.14-.11-.02-.23-.02-.34,0-.06.01-.11.08-.16.12.06.04.12.08.19.11.03.01.07,0,.18,0ZM61.37,21.42c-.11.04-.17.07-.24.1.02.03.03.07.05.09.05.06.09.12.15.16.05.03.12.03.17.05.02-.07.06-.15.04-.2-.04-.08-.12-.14-.18-.2ZM68.21,70.74s.11,0,.18-.02c.03,0,.08-.06.08-.07-.02-.05-.06-.14-.1-.14-.11-.02-.23-.02-.34,0-.06.01-.11.08-.16.12.06.04.12.08.19.11.03.01.07,0,.16,0ZM67.33,70.75c-.01-.17-.12-.26-.29-.24-.04,0-.12.12-.11.12.1.11.2.2.31.3.03-.06.06-.13.1-.19ZM43.7,15.18s-.11.12-.1.13c.06.09.14.17.22.24.02.02.06.03.09.05.03-.06.08-.13.08-.19,0-.16-.13-.25-.29-.23ZM53.51,77.21c.11-.04.12-.09.03-.16-.05-.05-.09-.12-.15-.16-.05-.03-.16-.05-.17-.04-.03.06-.06.14-.05.2.04.16.18.22.33.16ZM45.41,9.78c-.06-.08-.12-.17-.19-.24-.04-.04-.12-.05-.17-.07-.01.1-.07.23-.02.29.05.07.19.08.29.1.02,0,.06-.04.1-.08ZM44.29,50.65c.06.04.11.1.17.11.06,0,.15-.03.19-.07.06-.06-.05-.17-.19-.14-.06.01-.12.06-.18.1ZM59.2,49.82c-.07.02-.13.04-.19.07,0,0-.01.05,0,.07.08.13.18.08.28.04.03-.01.05-.05.08-.07-.06-.04-.11-.07-.17-.11ZM58.64,49.29c0-.13,0-.23,0-.32,0-.03-.05-.05-.07-.08-.04.09-.08.19-.1.28,0,.02.08.06.18.12ZM69.95,47.45c-.14,0-.23,0-.32,0-.03,0-.05.05-.08.07.09.04.19.08.29.1.02,0,.06-.08.12-.18ZM44.7,47.45c-.13,0-.23,0-.33,0-.03,0-.06.05-.08.07.1.04.19.09.29.11.02,0,.06-.09.12-.18ZM67.79,71.83c-.06-.04-.11-.1-.17-.11-.06,0-.15.03-.19.07-.06.06.05.17.19.14.06-.01.12-.06.18-.1ZM13.02,45.31c0,.1,0,.2,0,.29,0,.03.05.06.07.08.03-.03.08-.05.07-.08,0-.1-.02-.2-.03-.29,0,0-.05,0-.12,0ZM51.5,45.11c.06.04.11.1.17.11.06,0,.15-.03.19-.07.06-.06-.05-.17-.19-.14-.06.01-.12.06-.18.1ZM56.96,42.72c-.06-.04-.11-.11-.17-.11-.06,0-.15.03-.19.07-.07.07.05.17.19.14.06-.01.12-.07.18-.1ZM55.28,73.91c-.13,0-.23,0-.33,0-.03,0-.06.05-.08.07.1.04.19.09.29.11.02,0,.06-.09.12-.18ZM64.45,41.66c-.02-.07-.04-.13-.07-.19,0,0-.05,0-.07,0-.13.08-.08.18-.04.28.01.03.05.05.07.08.04-.06.07-.11.11-.17ZM48.37,24.8c-.07.02-.13.04-.2.07,0,0,0,.05,0,.07.08.13.18.08.29.04.03-.01.05-.05.08-.08-.06-.04-.12-.07-.17-.11ZM64.66,25.32c-.13,0-.23,0-.33,0-.03,0-.06.05-.08.07.1.04.19.09.29.11.02,0,.06-.09.12-.18ZM66.91,69.85c0,.1,0,.2,0,.29,0,.03.05.06.07.08.03-.03.07-.05.07-.08,0-.1-.02-.2-.03-.29,0,0-.05,0-.12,0ZM45.96,75.54c.06-.04.12-.07.18-.11-.1-.04-.19-.08-.29-.11-.02,0-.06.09-.09.14.06.03.13.05.19.08ZM46.69,18.79c-.07.02-.13.04-.19.07,0,0-.01.05,0,.07.08.13.18.08.28.04.03-.01.05-.05.08-.07-.06-.04-.11-.07-.17-.11ZM8.92,27.69c-.07.02-.13.04-.19.07,0,0,0,.05,0,.07.08.13.18.08.28.04.03-.01.05-.05.08-.08-.06-.04-.11-.07-.17-.11ZM15.9,67.97c.06.04.11.1.17.11.06,0,.14-.03.19-.07.07-.06-.05-.16-.18-.14-.06.01-.12.06-.18.1ZM20.64,28.05c-.06-.04-.11-.1-.17-.11-.06,0-.15.03-.19.07-.06.06.05.17.19.14.06-.01.12-.06.18-.1ZM63,67.41c-.02-.07-.04-.13-.07-.19,0,0-.05-.01-.07,0-.13.08-.08.18-.04.28.01.03.05.05.07.08.04-.06.07-.11.11-.17ZM56.24,66.45c-.13,0-.23,0-.32,0-.03,0-.05.05-.08.07.09.04.18.08.28.1.02,0,.06-.08.12-.18ZM41.64,78.69c-.06.02-.13.04-.19.07,0,0,0,.05,0,.07.08.12.18.08.28.04.03-.01.05-.05.08-.07-.06-.04-.11-.07-.17-.11ZM33.9,80.34c-.04-.06-.07-.12-.11-.18-.04.1-.08.19-.11.29,0,.02.09.06.14.09.02-.06.05-.13.07-.19ZM73.83,66.2c-.02-.06-.05-.13-.07-.19-.05.03-.14.06-.14.08.02.1.06.19.1.29.04-.06.08-.11.12-.17ZM54.62,81.56c.06-.04.12-.07.18-.11-.1-.04-.19-.08-.29-.11-.02,0-.06.09-.09.14.06.03.13.05.19.08ZM27.61,21.55c-.06-.04-.11-.1-.17-.11-.06,0-.15.03-.19.07-.06.06.05.16.19.14.06-.01.12-.06.17-.1ZM68.78,72.64c-.04-.06-.07-.12-.11-.18-.04.1-.08.19-.11.29,0,.02.09.06.14.09.03-.06.05-.13.07-.19ZM26.17,84.74c-.13,0-.23,0-.33,0-.03,0-.06.05-.08.07.1.04.19.09.29.11.02,0,.06-.09.12-.18ZM44.69,29.49c-.06-.04-.11-.1-.17-.11-.06,0-.15.03-.19.07-.06.06.05.17.19.14.06-.01.12-.07.18-.1ZM34.66,63.78c-.07.02-.13.04-.19.07,0,0,0,.05,0,.07.08.13.18.08.28.04.03-.01.05-.05.08-.07-.06-.04-.11-.07-.17-.11ZM35.37,63.52c.06-.04.12-.07.18-.11-.1-.04-.19-.08-.29-.11-.02,0-.06.09-.09.14.06.03.13.05.19.08ZM39.24,63.16c.06.04.11.1.17.11.06,0,.15-.03.19-.07.06-.07-.05-.17-.19-.14-.06.01-.12.07-.17.1ZM12.94,32.53c-.13,0-.23,0-.33,0-.03,0-.06.05-.08.07.1.04.19.08.29.11.02,0,.06-.09.12-.18ZM11.98,33.74c-.13,0-.23,0-.33,0-.03,0-.06.05-.08.07.1.04.19.09.29.11.02,0,.06-.09.12-.18ZM54.63,68.45c.06.04.11.1.17.11.06,0,.14-.03.19-.07.06-.06-.05-.17-.19-.14-.06.01-.12.06-.17.1ZM52.87,34.06c-.06-.04-.11-.1-.17-.11-.06,0-.15.03-.19.07-.06.07.05.17.19.14.06-.01.12-.07.17-.1ZM73.04,71.02c-.09,0-.19,0-.29,0-.03,0-.06.05-.08.07.03.03.05.07.08.07.1,0,.19-.02.29-.03,0,0,0-.05,0-.12ZM71.95,59.31c.06.04.11.1.18.11.06,0,.15-.03.19-.07.06-.06-.05-.17-.19-.14-.06.01-.12.06-.18.1ZM29.26,58.51c-.1,0-.2,0-.29,0-.03,0-.06.05-.08.07.03.03.05.07.08.07.1,0,.2-.02.29-.03,0,0,0-.05,0-.12ZM28.57,58.6c-.06-.04-.11-.1-.17-.11-.06,0-.14.03-.19.07-.06.06.05.16.19.14.06-.01.12-.06.18-.1ZM44.45,58.12c-.06-.04-.11-.1-.17-.11-.06,0-.15.03-.19.07-.06.06.05.16.19.14.06-.01.12-.06.18-.1ZM33.94,37.31c-.07.02-.13.04-.19.07,0,0,0,.05,0,.07.08.13.18.08.28.04.03-.01.05-.05.08-.07-.06-.04-.11-.07-.17-.11ZM50.71,37.58c-.13,0-.23,0-.33,0-.03,0-.06.05-.08.07.1.04.19.09.29.11.02,0,.06-.09.12-.18ZM53.66,55.58c.06-.04.12-.07.18-.11-.1-.04-.19-.08-.29-.11-.02,0-.06.09-.09.14.06.03.13.05.19.08Z"/>
      <path class="c" d="M69.26,55.72c-.19.18-.39.36-.58.54,0,0-.06-.02-.07-.05-.02-.03-.04-.07-.04-.1.03-.3.21-.46.5-.52.03,0,.07.01.1.03.03.02.06.05.1.09Z"/>
      <path class="c" d="M10.94,72.67s.12,0,.2.02c.03,0,.09.06.08.07-.03.05-.07.13-.11.14-.11.02-.23.02-.34,0-.06-.01-.1-.08-.16-.12.06-.04.12-.08.19-.1.03-.01.07,0,.14,0Z"/>
      <path class="c" d="M2.28,29.6c-.06,0-.13,0-.21-.01-.03,0-.09-.06-.08-.07.02-.05.05-.14.09-.14.11-.02.23-.02.34,0,.07.01.12.08.18.12-.06.04-.12.08-.19.11-.03.01-.07,0-.13,0Z"/>
      <path class="c" d="M10.77,51.38c-.06.03-.11.09-.17.1-.13.02-.25-.08-.19-.14.04-.04.13-.08.19-.07.06,0,.12.07.17.11Z"/>
      <path class="c" d="M73.08,18.42c-.06.03-.11.09-.18.1-.13.02-.25-.08-.19-.14.04-.04.13-.08.19-.07.06,0,.12.07.17.11Z"/>
      <path class="c" d="M34.18,84.22c.06.04.12.07.17.11-.03.03-.05.06-.08.07-.1.04-.21.08-.29-.04-.01-.02-.01-.07,0-.07.06-.03.13-.05.2-.07Z"/>
      <path class="c" d="M42.35,88.77c-.06-.02-.13-.05-.19-.07.03-.05.07-.14.09-.14.1.02.19.07.29.11-.06.04-.12.07-.18.11Z"/>
      <path class="c" d="M36.51,87.59c-.06.03-.11.09-.18.1-.14.02-.25-.08-.19-.14.04-.04.13-.08.19-.07.06,0,.12.07.17.11Z"/>
      <path class="c" d="M72.88,35.38c.02-.18.13-.26.3-.23.04,0,.08.09.11.14,0,0-.05.07-.08.07-.11.01-.23.01-.34.01h0Z"/>
      <path class="c" d="M51.64,54.37s-.12-.12-.11-.13c.06-.09.14-.17.22-.25.02-.02.06-.04.09-.06.03.06.08.13.08.19,0,.18-.11.26-.29.24Z"/>
      <path class="c" d="M27.92,35.15c.06.04.11.07.17.11-.03.03-.05.06-.08.07-.1.04-.21.08-.28-.04-.01-.02-.01-.07,0-.07.06-.03.13-.05.19-.07Z"/>
      <path class="c" d="M39.43,57.75c-.02.19-.14.26-.31.24-.11-.01-.21-.04-.32-.07-.01,0-.03-.06-.02-.07.02-.03.05-.07.08-.07.19-.01.38-.01.57-.02h0Z"/>
      <path class="c" d="M44.25,38.74c.25-.05.43-.32.73-.24-.02.18.05.42-.19.46-.2.04-.47.12-.53-.22Z"/>
      <path class="c" d="M36.1,45.96c-.07-.03-.13-.05-.2-.08.03-.05.07-.15.09-.14.1.02.2.07.29.11-.06.04-.12.07-.18.11Z"/>
      <path class="c" d="M21.16,44.03c-.08,0-.15,0-.23,0-.1,0-.23,0-.16-.16.02-.04.15-.08.19-.06.08.05.13.15.19.23h0Z"/>
    </g>
  </g>
  <g id="b" data-name="close">
    <g>
      <polygon class="d" points="62.56 66.98 62.9 66.57 62.21 66.82 62.56 66.98"/>
      <path class="d" d="M60.86,64.36c-.61.2-1.25.08-2.06.83l1.07-.32c-.57.63-.3.83.1.85l-.27-.2c.14-.02.49-.42.63-.44.03.66.96-.04.62.93l-.08.04.65-.11c-.01.17-.33.41-.46.49.55-.07,1.06-.21,1.32.14.87-1.3-1.53.11-.66-1.19l.08-.04c-.71.08-.33-.96-.93-.99Z"/>
      <path class="d" d="M61.04,66.43h-.05s0,.03.05,0Z"/>
      <path class="d" d="M50.63,51.91l-.19.15c.08-.04.16-.08.19-.15Z"/>
      <path class="d" d="M52,57.99v-.04c-.27.2-.19.16,0,.04Z"/>
      <path class="d" d="M31.21,29.84l.21-.31c-.24.23-.27.3-.21.31Z"/>
      <path class="d" d="M26.86,24.01h-.02s.02,0,.02,0Z"/>
      <path class="d" d="M25.24,29.57l-.23.21c.14-.1.21-.16.23-.21Z"/>
      <path class="d" d="M23.28,28.12c.02-.1.03-.19,0-.24-.11.14-.09.23,0,.24Z"/>
      <path class="d" d="M27,23.99c-.06.02-.1.02-.15.03.04,0,.09,0,.15-.03Z"/>
      <path class="d" d="M27.04,32.69l-.57.58c.2-.17.39-.38.57-.58Z"/>
      <path class="d" d="M22.41,28.07c.1-.12.14-.21.15-.28-.11.12-.18.23-.15.28Z"/>
      <path class="d" d="M60.49,64.05c.05.04.12.08.24.09-.02-.1-.11-.12-.24-.09Z"/>
      <path class="d" d="M35.03,43.4c-.08.04-.16.1-.26.17.09,0,.18-.08.26-.17Z"/>
      <path class="d" d="M30.09,37.34h-.04s-.05.06-.08.1l.12-.1Z"/>
      <path class="d" d="M31.65,39.01s-.1.06-.15.09c.07-.03.12-.06.15-.09Z"/>
      <path class="d" d="M28.34,36.55c-.07.02-.16.06-.26.11l.26-.11Z"/>
      <path class="d" d="M27.93,34.74c-.18.24-.43.35-.69.46-.04.56.83.03.56.81l.18-.41c.63-.16,1.05.15.61.84l-.25.11c.66-.21,0,.87.5.61.2-.31.43-.35.58-.69l.94.09-.81.74.5.04c.28-.35.04.58.84-.07-.17.41-.69.47-1.06.68.37-.05.02.27.62,0l-.6.76.86-.04c-.09.04-.12.11-.2.14.77-.34.02.76,1.28.1-.05.02-.08.05-.13.09.68-.36.52.3.5.52.31.08.77-.5,1.09-.75.31.75.2.52,1.48.28-.66,1.06-1.77.89-2.09,1.81.49-.32,1.06-.36,1.48-.21-.09.54.05,1.19-.35,1.98l.57-.53.65.1-1.05.52c.25-.11.8-.24,1.2-.37.85-.05-1.11,1.33.06.86-.06.07-.11.13-.16.19.54-.29.6.11,1.02.26l-.85.55v-.33c-.65.74.4.21.51.43.43-.03.97-.66,1.28-.74.03.1.34.01.17.25-.09.37-.88.79-1.25,1.01.91-.52.85-.38,1.45-.32-.35.33-.54.45-.65.47.16-.01.37-.09.73-.34l-.34.49c-.31.92,1.73-.84,1.88-.19-.51.23.43.3.06.86-.26-.05-1.05,1.03-1.58,1.34.04.6,1.02-.63,1.45-.5l-1.05.7c.65-.08.57-.37,1.11-.34-.34.16-.14.34-.59.44.23.45.23.28.4.71l.93-.76c.2.02-.17.41-.31.59-.06-.03-.09-.13-.2-.02-.67.81.63-.18.03.6.25-.29.62-.68.79-.59-.59.44-.33.66-.56.87.31-.42.43.14,1.05-.37-.28.52-.48.33-.79.59.82-.49.58.46,1.09.22-.05.05-.09.09-.12.12.57-.21.92-.03,1.83-.25l-.62.35c.06.53,1.27-.76,1.5-.48-.79.59.46.4-.47,1,.57-.21.91-.2,1.64-.66-.28.52-1.27.6-1.29,1l.59-.11-.36.39c.31-.26.51-.07.74-.29-.45.46-.7.85-1.07,1.16.27.02,0,.63.53.38l-.22.22c1.01-.64.58.29,1.56-.46l-.42.53c.29.14,1.18-.73,1.49-.82.11.06.31.07.32.24-.85.24-.58.78-.86,1.13.09.13.46.39,1,.08-.59.28-.89.71-1.16.49-.77.93.55.19.67.58l-.42.37c.63.15,1.36-.48,2.23-.96-.47.51-.64.59-1.26.94-.07.54.65.64.85.99-.28.42-.55.55-.79.59.67-.05.53.76,1.61.13-.43.25-.12.34-.2.61.19-.17.45-.37.43-.33.54-.15,1.25-.05,1.12.46l-.34.16c.31.64,2.06-.56,1.9.59-.1.27-.84.58-.63.76.42-.21,1.08-.87,1.12-.44l-.61.52.76-.37c.41-.54-.02-.66.71-.96-.34.73.73-.3.33.57-.12,0-.65.32-.93.5-.17,1.22,1.32.28,1.11,1.55.73-.14,1.17.15,1.79-.05-.6.53-1.12,1.01-1.71,1.3.16.32,1.59-.79.89.18.91-.63,1.15.21,2.33-.77-.22.22.24.27-.63.6.68,0-.57,1.36-.42,1.51.11.06.62-.76.83-.58-.03.07-.13.18-.16.25l.33-.17c-.18.32-.64.43-.94.7.02.5,1.07-.15,1.45.11l-.25.13.27.37-.08.04.65-.1-.3.26c.14-.01.34-.17.45-.12l-.38.31c.64-.44,1.23-.4,1.38-.25l-.13.18,1.07-.32c-.2.56-1.08.55-.45.68l-.82.59c.54,0,.19.41.61.37.29-.43.12-.51.53-.72-.63,1,.54.14,1.07.02-.11-.09-.17-.17-.66.16-.09-.12.35-.41.32-.5l-.56.23.46-.52-.65.11c.6-.53-.16-.32.56-.79-.42.05-.11-.45-.86-.07.23-.46.62-.2.55-.39-1.18-.3-1.82-1.16-2.34-2.13l.34-.17c-.34.17-.64.27-.9.4.35-.57.48-1.64-.58-1,.03-.07.19-.15.28-.2-.35-.16-.16-1.21-.59-1.5-1.09.71.07-1.1-1.34-.06l.34-.17c-.24.45-1.06.64-1.42.87.74-.87.63-.59,1.29-1.42l-.16.41.66-.66c-2.21,1.15,0-1.62-1.56-.74.08-.04.19-.15.28-.19.21-.55-.79.11-1.16.18.33-.33.64-.43.98-.59-.05-.59-1.51-.32-1.31-1.2-.59.29-.58.62-1.06.8.02-.24.32-.66.69-.73.57-1.11-1.55-.58-1.21-1.81-.76.2-.84.57-1.55.47.42-.2,1.05-1.12,1.31-.91l.39-.3c-.3-.47-.65-1.13-1.88-.43.75-.7.08-.21.35-.73-.14.01-.11.11-.14.18-.79.43-.18-.25-.37-.27l.17-.08-.74.13c.06-.14.14-.34.36-.56l-.53.48c-.15-.15.61-.68.3-.75l-.36.4c.14-.34-.6-.05-.04-.59.11-.11.08-.04.14-.01.64-.92-.71-.27-.55-.85l-.81.83c-.48,0,.05-.3.36-.56-.15-.15.11-.44.02-.73-.31.09-.37.23-.65.42l.02-.4.59-.28c-1.55.79-.58-.94-1.93-.14.14-.34.62-.35.7-.55.22-.88-1.59-.14-1.23-1.03.16-1.07-.98-1.15-1.07-2.1l-.23.21-.17-.58c-.62.34-.63-.15-1.39.2.2-.15.45-.43.62-.51-.23-.12-.65-.09-.43-.47l.25-.11c-.2-.52-.66-1.08-1.28-.9-.17-.09.25-.45.51-.73-.17-.25-.54-.2-1.08-.06.06-.14.11-.27.28-.51l-.65.41c0-.17.45-.43.54-.63-.99.23-.74-.71-.99-.93l-.26.28c-.31.09-.08-.46.31-.58-.08-.79-1.53.03-1.95-.77.97-.98-.82-.35.27-1.44-.54-.03-.22-.61-1.08-.23.11-.11.14-.17.2-.14.34-.48-.31-.57-.85-.61l.34-.31c-.86.54-1.05-.14-1.9.4.14-.17.37-.22.54-.29.6-.76-.57.03-.57-.3.2-.14.37-.38.55-.46.3-1.34-1.89-1.09-2.01-2.41-.16-.26-.75.76-.94.41.32-.41.92-.51.92-.84-.6.26-.54.13-.65-.1.29-.18.43-.35.72-.37.23-.37-1,.05-.53-.7-.23.21-.4.28-.57.36-.94.24.08-1.29-.32-1.01,0,0-.2-.02-.2.14-.08-.13-.11-.39.3-.67-.26.11-.63.33-.75.26l.49-.32c-.14.03-.47.2-.57.19l-.21.31c.26-.44-.85.03.01-.66l.06.03.18-.57c-.43.18-.86.37-.88.1.84-.79-.16-.59-.24-.88l.32-.24c-.57.19-.73-.4-.82-.2-.14-.16-.1-.56.25-.7-.29.01-.5-.28-1.08.07l.54-.88c-1.24.74-.03-.86-1.22.08.06-.3.35-.47.48-.74-.75.26-.82-.04-.9-.33l.12-.1c-.08-.29-.88-.07-1.18-.32l.85-.79c-.25-.06-.98.46-.91.16.11-.15.18-.15.27-.15-.3,0-.23-.39-.1-.68-.83.29-.73-.08-1.6.28.65-.81.57-.02,1.19-.76.17-.66-.54-.64-1.22-.69.15-.17.32-.24.52-.38,0,0-2.76.99-3.51,1.81-.67.38-1.1.56-1.35,1.26.43-.18,1.09-.22.47.35l.64-.48c.62.18-1.26,1.06-.85,1.55l.12-.27c.11.06.57-.18.45.09-.15.17-.29.17-.46.24l1.18-.26c-.35.31-.56.45-.9.59.33.36,1.09-.99,1.21-.33-.21.3-.41.28-.67.38-.36.64.24.39.76.34-.56.45-.61.25-.82.72.26-.27.73-.68.9-.59-.62.38-.22.35-.25.6.17-.18.44-.38.59-.41.14,0-.04.23.08.3l.42-.61c.72-.19.01.6-.08.96-.11.07-.21.09-.27.08-.08.37-.37.93.31.77l-.09.04c.91,0,.82-.89,1.76-.78.02.26-1.89,1.39-.92,1.26.33-.57,1.36-.67,1.75-.62l-1.27.64c.06.1.49.01.42.15l.23-.21c.9-.76.1.4.8.11-1.42.81-1.18.6-2.46,1.57.81-.39,1.58-.72,1.69-.32l-1.15.54c.1.56,1.89-.13,2.95-.47-.78.49-.93.83-1.65,1.19l.45.25-.86.53c.92-.5.51.11,1.52-.75-.17.07-.29.18-.31.08.32-.25,1.01-.7,1.12-.47-.15.34-.46.25-.72.52.52-.22-.15.34.25.22l.35-.48c.66-.39.2.19.6.07-.38.06-.68.39-1,.74l.07-.07c.11.06.63-.16.34.19l-.89.6.72-.36c-.06.14-.32.41-.55.45-.16.84,1.76-1.46,1.46-.29-.32.25-.58.36-.52.06-.52.38-.78.66-.84.96-.04.03-.06.05-.09.08.22.3.49.71,1.2.44Z"/>
      <path class="d" d="M26.73,34.3c-.12-.16-.23-.29-.39-.26-.14.16-.12.69.39.26Z"/>
      <path class="d" d="M46.71,55.8s-.08,0-.13.02l.13-.02Z"/>
      <path class="d" d="M48,56.76c.07-.09.1-.16.12-.22-.16.14-.26.26-.12.22Z"/>
      <path class="d" d="M36.71,44.98h.01s-.01,0-.01,0Z"/>
      <path class="d" d="M42.38,51.93c.35-.12.6-.27.81-.45-.12,0-.35.1-.81.45Z"/>
      <path class="d" d="M40.7,49.38c-.05.02-.1.04-.16.06.07,0,.12-.03.16-.06Z"/>
      <path class="d" d="M36,44.96c.35-.13.45.03.71.02-.23.02-.13-.39-.71-.02Z"/>
      <polygon class="d" points="50.16 57.39 49.65 57.64 50.05 57.5 50.16 57.39"/>
      <path class="d" d="M48.91,56.54c.05-.14-.37-.1-.54.15.25-.12.39-.13.54-.15Z"/>
      <polygon class="d" points="45.52 52.02 45.04 52.36 45.46 52.16 45.52 52.02"/>
    </g>
    <g>
      <polygon class="d" points="19.92 66.65 20.35 66.97 20.07 66.28 19.92 66.65"/>
      <path class="d" d="M22.55,64.65c-.23-.61-.13-1.27-.94-2.03l.37,1.06c-.67-.52-.87-.23-.87.19l.2-.29c.02.14.45.46.48.6-.68.1.09.99-.93.72l-.05-.08.14.65c-.18,0-.43-.3-.52-.43.09.56.26,1.06-.1,1.37,1.37.77-.18-1.56,1.19-.79l.05.08c-.11-.72.97-.44.98-1.06Z"/>
      <path class="d" d="M20.43,65.04s0-.03,0-.05c-.03-.03-.02,0,0,.05Z"/>
      <path class="d" d="M34.77,52.74l-.17-.18c.05.08.09.16.17.18Z"/>
      <path class="d" d="M28.62,54.87s.03,0,.04,0c-.22-.26-.17-.18-.04,0Z"/>
      <path class="d" d="M55.6,29.57l.34.16c-.26-.2-.34-.22-.34-.16Z"/>
      <path class="d" d="M61.02,24.09s0-.01,0-.02c0,0,0,.01,0,.02Z"/>
      <path class="d" d="M55.16,23.46l-.24-.2c.12.13.19.18.24.2Z"/>
      <path class="d" d="M56.38,21.21c.11,0,.19,0,.25-.05-.16-.08-.25-.05-.25.05Z"/>
      <path class="d" d="M61.06,24.24c-.03-.05-.04-.1-.04-.14,0,.04.01.09.04.14Z"/>
      <path class="d" d="M52.2,25.83l-.66-.48c.19.18.43.33.66.48Z"/>
      <path class="d" d="M56.33,20.32c.14.08.23.1.3.1-.13-.09-.25-.14-.3-.1Z"/>
      <path class="d" d="M22.85,64.24c-.04.06-.08.13-.08.26.11-.03.12-.13.08-.26Z"/>
      <path class="d" d="M42.17,35.64c-.05-.07-.11-.15-.2-.24.02.09.1.17.2.24Z"/>
      <path class="d" d="M47.83,29.69v-.04s-.07-.04-.12-.06l.12.1Z"/>
      <path class="d" d="M46.3,31.54s-.07-.09-.11-.14c.04.07.08.11.11.14Z"/>
      <path class="d" d="M48.43,27.78c-.03-.07-.07-.15-.15-.25l.15.25Z"/>
      <path class="d" d="M50.22,27.07c-.26-.14-.41-.38-.55-.63-.58.06.06.84-.76.7l.43.11c.24.61-.04,1.09-.78.76l-.14-.24c.29.64-.89.15-.56.61.34.16.4.38.77.47v.97s-.82-.7-.82-.7l.02.52c.38.23-.59.13.16.84-.43-.11-.55-.62-.81-.97.09.37-.27.07.06.63l-.84-.49.14.86c-.05-.08-.12-.1-.17-.18.43.73-.77.14.03,1.32-.03-.05-.06-.07-.11-.12.44.64-.25.58-.48.59-.05.33.59.71.88.99-.73.43-.51.28-.14,1.55-1.15-.51-1.09-1.66-2.05-1.84.38.44.47,1.02.37,1.47-.55,0-1.21.24-2.05-.05l.6.5-.03.68-.64-.99c.14.24.33.77.49,1.16.14.86-1.46-.93-.87.19-.07-.05-.15-.09-.21-.14.35.51-.05.62-.16,1.07l-.64-.78.34-.05c-.81-.56-.17.44-.39.59.07.43.76.89.88,1.19-.1.04.02.35-.24.21-.39-.03-.88-.78-1.15-1.12.62.85.47.81.47,1.43-.37-.31-.51-.48-.54-.59.03.16.13.36.42.7l-.53-.28c-.96-.18,1.02,1.64.37,1.89-.28-.49-.27.48-.87.19.03-.27-1.15-.92-1.51-1.42-.6.12.74.95.64,1.4l-.81-.97c.14.65.43.52.45,1.08-.19-.32-.36-.09-.5-.54-.44.3-.27.27-.68.51l.86.84c0,.21-.43-.11-.62-.23.03-.06.12-.11,0-.21-.89-.57.23.61-.61.12.31.22.74.54.67.73-.5-.54-.7-.25-.94-.45.45.26-.1.46.47,1.02-.55-.21-.38-.44-.67-.72.57.77-.42.65-.13,1.14-.06-.05-.1-.08-.14-.11.26.56.11.93.41,1.83l-.4-.59c-.53.14.88,1.19.61,1.47-.67-.73-.37.52-1.06-.34.26.55.28.9.8,1.59-.55-.21-.71-1.22-1.12-1.19l.16.59-.43-.32c.29.28.12.51.35.71-.5-.4-.92-.6-1.27-.94,0,.28-.64.08-.35.59l-.24-.2c.74.95-.25.62.59,1.53l-.57-.35c-.13.31.83,1.11.95,1.42-.05.12-.05.33-.22.36-.31-.84-.84-.49-1.22-.73-.12.11-.37.52-.01,1.03-.33-.57-.79-.82-.59-1.12-1.01-.67-.15.58-.54.76l-.41-.38c-.1.66.59,1.32,1.14,2.16-.55-.42-.65-.58-1.05-1.17-.55,0-.61.74-.95.99-.45-.23-.6-.49-.66-.74.1.68-.74.63-.02,1.66-.29-.41-.35-.09-.63-.13.19.17.4.41.37.4.19.53.13,1.27-.4,1.2l-.19-.33c-.63.39.7,2.04-.48,2.01-.29-.07-.64-.79-.81-.56.24.41.96,1.01.52,1.1l-.57-.56.43.73c.57.36.68-.1,1.03.61-.77-.27.35.71-.56.41,0-.12-.37-.63-.56-.89-1.26-.03-.21,1.38-1.52,1.32.18.74-.09,1.22.15,1.83-.57-.56-1.1-1.04-1.43-1.61-.32.19.9,1.54-.13.93.69.87-.16,1.2.92,2.3-.24-.2-.27.27-.65-.58.04.7-1.42-.44-1.56-.27-.05.12.81.56.64.78-.07-.02-.19-.12-.26-.14l.19.32c-.34-.16-.48-.61-.76-.89-.51.07.21,1.09-.04,1.5l-.14-.24-.37.32-.05-.08.14.65-.29-.28c.02.14.19.33.14.45l-.33-.36c.48.61.47,1.22.32,1.39l-.19-.12.38,1.06c-.58-.15-.62-1.06-.72-.39l-.64-.79c.02.56-.41.24-.35.67.46.25.53.07.77.47-1.06-.55-.12.57.02,1.1.09-.13.16-.19-.19-.67.12-.11.43.32.53.28l-.26-.55.55.42-.14-.66c.57.56.32-.19.84.49-.07-.43.46-.16.03-.89.48.19.24.61.43.52.26-1.24,1.11-1.98,2.08-2.63l.19.33c-.19-.33-.31-.63-.45-.88.6.29,1.71.31,1-.7.07.02.17.18.22.26.15-.38,1.23-.3,1.51-.78-.79-1.03,1.13-.05-.01-1.38l.19.32c-.48-.19-.71-1.01-.98-1.35.93.66.65.58,1.53,1.15l-.43-.11.72.6c-1.31-2.13,1.67-.19.67-1.68.05.08.17.18.21.26.58.15-.16-.8-.25-1.17.36.3.48.61.67.93.6-.12.23-1.59,1.15-1.49-.33-.57-.67-.52-.88-.99.24,0,.7.25.79.62,1.18.44.5-1.66,1.78-1.47-.26-.75-.64-.79-.59-1.53.24.4,1.22.94,1.02,1.23l.33.36c.46-.36,1.12-.81.31-1.99.77.68.22.06.77.27-.02-.14-.12-.1-.19-.12-.5-.75.24-.21.25-.42l.1.16-.19-.74c.14.04.36.09.6.3l-.53-.48c.15-.17.74.54.8.21l-.43-.32c.36.09,0-.62.61-.12.12.1.05.08.02.14.99.53.23-.77.83-.68l-.91-.72c-.04-.49.31.01.6.29.15-.17.46.05.75-.08-.12-.31-.26-.34-.48-.61l.41-.03.33.57c-.92-1.48.92-.72,0-2,.36.09.4.59.62.64.92.1.02-1.65.96-1.4,1.11.01,1.1-1.16,2.07-1.39l-.24-.2.58-.26c-.4-.59.1-.66-.32-1.39.17.18.48.4.57.56.1-.25.03-.68.44-.5l.14.24c.51-.28,1.05-.83.81-1.44.07-.19.48.19.79.41.24-.21.15-.58-.04-1.11.14.04.29.07.55.21l-.48-.6c.17-.03.48.4.7.45-.33-.98.66-.86.86-1.16l-.31-.22c-.12-.31.46-.15.62.23.8-.2-.18-1.56.6-2.11,1.1.84.28-.89,1.5.04-.02-.56.61-.33.13-1.14.12.1.19.12.17.18.53.27.56-.41.54-.96l.36.3c-.64-.79.04-1.09-.61-1.88.19.12.26.34.36.51.84.49-.09-.58.25-.63.17.18.43.32.53.48,1.4.09.92-2.11,2.24-2.45.25-.21-.86-.63-.52-.89.46.26.62.85.96.8-.33-.57-.19-.53.03-.68.21.26.41.38.45.67.41.17-.16-1.01.66-.66-.24-.2-.33-.36-.43-.52-.35-.92,1.33-.14.99-.5,0,0,0-.21-.17-.18.12-.11.39-.18.72.19-.14-.24-.41-.59-.36-.71l.38.44c-.04-.14-.26-.45-.26-.55l-.34-.16c.48.19-.13-.86.68-.1l-.02.06.6.09c-.24-.41-.47-.81-.21-.88.91.72.58-.26.87-.4l.29.28c-.26-.55.33-.81.11-.87.15-.17.56-.2.75.13-.05-.29.22-.56-.2-1.09l.96.39c-.9-1.13.87-.19-.23-1.23.31.01.53.27.82.35-.36-.71-.07-.84.23-.98l.12.1c.29-.13-.04-.9.18-1.26l.91.72c.03-.27-.59-.91-.28-.9.16.09.18.16.19.24-.03-.3.37-.3.68-.22-.4-.79-.01-.76-.49-1.57.91.51.09.57.93,1.07.7.04.59-.67.55-1.37.19.12.29.28.45.46,0,0-1.37-2.61-2.31-3.22-.48-.6-.71-1.01-1.46-1.13.24.41.37,1.06-.3.54l.57.56c-.1.66-1.24-1.08-1.68-.57l.29.08c-.05.13.26.55-.03.47-.19-.12-.21-.26-.31-.42l.42,1.14c-.36-.3-.53-.48-.72-.81-.32.4,1.15.92.49,1.16-.34-.16-.33-.36-.48-.6-.7-.25-.37.32-.25.83-.53-.48-.33-.57-.84-.7.31.22.79.62.71.81-.47-.56-.38-.15-.64-.14.21.14.45.38.49.52.02.14-.24,0-.29.13l.67.31c.28.69-.6.12-.99.09-.08-.1-.12-.2-.12-.26-.39-.01-.99-.21-.75.45l-.05-.08c.11.92,1.01.67,1.02,1.64-.27.07-1.65-1.67-1.39-.71.62.23.86,1.26.85,1.67l-.81-1.17c-.09.08.05.5-.1.45l.24.2c.88.78-.39.18,0,.83-1-1.29-.76-1.09-1.91-2.22.5.75.93,1.48.54,1.65l-.69-1.07c-.56.2.37,1.88.84,2.9-.6-.71-.95-.8-1.41-1.47l-.2.5-.64-.78c.62.85-.05.54.95,1.42-.09-.16-.21-.26-.12-.31.29.28.84.9.62,1.06-.36-.09-.31-.43-.62-.64.28.49-.36-.09-.2.3l.53.27c.48.61-.17.23,0,.62-.1-.37-.48-.63-.87-.88l.08.06c-.05.12.23.61-.15.37l-.72-.8.45.67c-.14-.04-.46-.26-.53-.48-.87-.02,1.7,1.54.47,1.43-.29-.28-.43-.53-.12-.51-.45-.46-.77-.68-1.08-.69-.04-.03-.06-.05-.09-.08-.28.28-.66.61-.31,1.29Z"/>
      <path class="d" d="M50.53,25.79c.15-.15.26-.28.21-.44-.18-.11-.71,0-.21.44Z"/>
      <path class="d" d="M30.51,49.21s-.01-.08-.03-.13c0,.04.02.09.03.13Z"/>
      <path class="d" d="M29.62,50.65c.1.06.17.09.23.1-.15-.14-.29-.23-.23-.1Z"/>
      <path class="d" d="M40.73,37.58s0,0,0,.01c0,0,0,0,0-.01Z"/>
      <path class="d" d="M34.13,44.31c.15.34.33.57.52.76,0-.13-.13-.35-.52-.76Z"/>
      <path class="d" d="M36.6,42.26c-.02-.05-.05-.1-.08-.15.01.07.04.12.08.15Z"/>
      <path class="d" d="M40.68,36.85c.16.34.01.47.05.72-.05-.23.39-.19-.05-.72Z"/>
      <polygon class="d" points="29.12 52.93 28.83 52.44 29 52.83 29.12 52.93"/>
      <path class="d" d="M29.9,51.55c.14.04.08-.39-.19-.53.14.24.16.39.19.53Z"/>
      <polygon class="d" points="34.29 47.52 33.91 47.08 34.15 47.48 34.29 47.52"/>
    </g>
  </g>
</svg>