<?xml version="1.0" encoding="UTF-8"?>
<svg id="a" data-name="Layer 1" xmlns="http://www.w3.org/2000/svg" width="265.7" height="24.25" viewBox="0 0 265.7 24.25">
  <defs>
    <style>
      .b {
        fill: #5f5f5f;
        stroke-width: 0px;
      }
    </style>
  </defs>
  <g>
    <path class="b" d="M156.55,11.97l.14-.04s-.05-.01-.14.04Z"/>
    <path class="b" d="M149.81,13.34s0,.02,0,.03c0-.02,0-.03,0-.03Z"/>
    <path class="b" d="M161.77,9.45h0s0,.03-.02.04l.02-.04Z"/>
    <path class="b" d="M155.78,14.08c.92-.44,1.49-.73,2.04-1.07.55-.33,1.08-.72,1.81-1.41.37-.31.73-.65,1.07-.99l.54-.53c.22-.23.37-.43.52-.63.16-.47.76-1.03.93-1.57l.19-.13c.06-.18.14-.39.28-.53l.02.02c.07-.28.26-.56.29-.71l.02.02c.05-.11.09-.22.13-.34v.07c.08-.26.16-.53.21-.84.04-.13.05-.35.06-.5v-.37s-.1.04-.1.04c.05-.51-.04-.86-.14-1.19-.11-.33-.18-.54-.38-1.12h.03c-.43-.49-.74-.89-1.15-1.25-.4-.34-.93-.61-1.58-.57.16-.01-.06-.07-.04-.1-.55-.04-1.06-.05-1.09.18-.36-.02-.29-.09-.33-.18,0,.1-.32.13-.6.13l.13-.04-.81.02.16.19c-.42-.05-.11-.23-.51-.18v.16c-.58-.02-.93-.25-1.5-.35-.59,0-1.18.04-1.77.08-.59.06-1.14.03-1.91.19-.36.09-.75.25-1.08.55-.33.29-.55.7-.64,1.08-.13.63-.25,1.12-.44,1.65l-.13.07c-.18,0,.12.63-.05.68l.02.26c-.04.06-.11.2-.12.07-.06.23-.03.24-.02.41l-.16.22c-.28.88-.25,1.69-.48,2.64-.46,1.1-.64,3.36-.62,4.65.01.23.01.46,0,.7,0,.18-.04.36-.11.55-.13.37-.42.86-.57,1.32-.34.91-.69,1.85-.78,2.77-.04.05-.02.2,0,.2-.16.51-.33,1.03-.52,1.55,0,0-.16.48-.36,1.11-.1.33-.2.67-.28,1.11-.06.36-.1.71-.13,1.02-.1,1.25.11,1.78,1.47-1l.03.05c.33-.79.56-1.34.57-2,.25-.02.26-.71.39-.9v.03c.01-.59.48-1.1.46-1.64.01.02.07.05.04.17.07-.38.15-.9.29-.89.11-.45.24-.97.36-1.47.13-.44.3-.93.27-1.32l.02.06c-.05-.42.07-.57.03-.93.02-.02.03-.04.04-.04-.12-.37.07-1.06.05-1.36h.09s.08-.73.08-.73l-.06.27c-.23-.13.23-.52.16-1.07.11-.48-.33-1.08-.11-1.57-.07-.26.14.25.13-.13.13.01.05.18.16.11.01-.37.24-.56.25-1.01h.1c-.06-.61.36-1.04.27-1.46.05-.61.38-.33.32-.99l.18-.21c.08-.26-.12-.22,0-.5.08.04.15-.36.19-.17.14-.32.16-.67.2-1.04.02-.19.04-.38.08-.58.02-.09.05-.22.08-.28.02-.06.06-.1.1-.13-.12-.16.07-.24.07-.37.02.04.51-.19.27.05-.02.02-.06.04-.07,0v.1c.3.08.49-.24,1.02-.21-.16-.03-.35-.02-.22-.09h.47s-.1.09-.1.09l.71.03-.1-.1c.34.04.47.21.85.05.17-.09-.33-.13.03-.17.46.05,1.14.13,1.71.15-.06-.11.1-.11.26-.14l.02.1c.6-.15.23.21.82.1l-.05.07.16-.21c.54-.19.29.2.88-.05-.23,0-.1-.22.19-.17l-.08.09c.16-.01.22-.05.32-.02-.1.05-.06.14.18.13l-.16.11.45-.15c.35.13.83.06.89.23.02-.01.47.24.64.19-.13.02.07.21-.06.25.16-.03.51.22.49.43l-.03-.02c.19.54.56,1,.45,1.68.12-.03.06.32.2.24.07.21-.11.52-.24.74-.13.23-.23.42-.09.65-.14.32-.29.31-.4.45l.02-.08c-.3.58-.41.74-.69,1.13-.1.22.05.38-.26.7.02-.16-.08-.01-.18.11.06-.09.05-.13-.13,0,0,.04-.02.09-.03.12,0,0-.02,0-.02,0-.15.21-.1.19-.01.11,0,.01.02.02.07,0-.23.11-.54.54-.67.46-.6.6-.95,1.11-1.44,1.61-.11,0-.02-.16.11-.31l-.36.34c-.07-.09.18-.23.28-.34-.56.24-.82.91-1.47,1.17l-.07.15h-.04s-.06.19-.14.25c-.13-.03-.11-.18-.39,0-.26.07-.61.42-.89.62.17-.07.14,0,.09.07-.15.08-.28.03-.37.13l-.07-.11c.11.09-.34.3-.38.36-.12-.05.21-.17.22-.25-.61.25-.29.15-.92.36-.31.2.1.09-.03.25-.29.13-.58.27-.95.29l.14.08c-.58.2-.95.25-1.37.17-1.11.33-1.77.46-2.08.61-.32.15-.3.27-.14.38.17.1.49.18.77.24.28.06.53.06.53.06.97.12,1.73-.02,2.5-.23.77-.23,1.56-.57,2.58-1.12Z"/>
  </g>
  <g>
    <path class="b" d="M260.7,10.34h-.09s.03.01.09,0Z"/>
    <path class="b" d="M262.44,22.03s-.01,0-.02.02c.02,0,.02-.02.02-.02Z"/>
    <polygon class="b" points="257.19 10.17 257.19 10.17 257.21 10.14 257.19 10.17"/>
    <path class="b" d="M261.17,8.65c-1.13.3-1.5.25-2.5.8-.25.1-.49.23-.73.34-.25.13-.5.25-.74.37-.13.16-.33.25-.58.47-.24.2-.45.49-.48.75l-.16.16c0,.2,0,.4-.04.59h-.03c.07.27.12.56.2.67h-.03c.04.1.08.17.12.26l-.06-.03c.33.42.44.57.65.84l.07-.1c.36.54.68.47,1.05.89l-.02.02c.72.07.94.69,1.71.56-.09.02.02.07.01.09.32.03.65.04.68-.19.22.02.17.08.19.18,0-.1.2-.13.36-.13l-.08.04.47-.02-.09-.19c.24.06.06.23.29.19v-.16c.34.03.51.27.78.41.58.08,1.1.15,1.45.41.36.25.55.82.46,1.37l-.11.06c-.17.03.27.29.11.34l.07.12s-.07.1-.1.04c-.01.1.02.11.06.19l-.12.1c-.14.39-.05.8-.31,1.2-.42.39-.95,1.23-1.46,1.5-.16.14-.37.17-.56.16-.25-.01-.56-.06-.84-.1-.57-.07-1.08-.14-1.54-.02-.03-.03-.11.02-.11.04-.28-.03-.54-.08-.79-.16,0,0-.28-.07-.64-.23-.48-.21-.91-.16-1.22-.1-.32.07-.57.18-.72.33-.21.19-.05.26.16.37.19.13.66.25,1.06.57l-.02.03c.05.03.08.06.11.08.32.21.65.3.99.24,0,.24.47.13.59.22l-.02.02c.37-.13.72.21,1.05.05-.01.02-.02.08-.1.08.24-.03.56-.09.58.04.28-.02.58-.04.88-.07.3-.03.5-.06.75-.19l-.03.04c.23-.16.31-.06.56-.19.02.01.04.02.04.03.2-.21.69-.29.82-.47l.06.07c.14-.09.27-.2.39-.31l-.16.1c-.1-.23.39-.11.54-.48.25-.23.02-.81.27-.99-.02-.19.09.21.13-.03.11.06.01.13.13.13.07-.22.3-.27.34-.57l.1.03c-.02-.41.37-.64.25-.94-.01-.39.34-.22.19-.66l.14-.16c.03-.19-.16-.13-.1-.32.09,0,.06-.24.14-.14.09-.46-.26-.86-.29-1.54-.19-.07-.28-.42-.45-.44.07-.07-.43-.55-.05-.35.04.02.07.07.04.08l.11-.02c-.13-.46-.61-.51-.93-.71.09.09.22.16.1.17-.1-.06-.2-.14-.3-.19l.1-.04c-.15-.09-.31-.19-.47-.25l.03.12c-.21-.13-.26-.32-.56-.24-.13.05.19.18-.06.16-.28-.13-.72-.29-1.09-.32.03.12-.07.11-.17.13v-.1c-.37.13-.14-.22-.48-.11l.03-.07-.09.21c-.3.19-.16-.21-.49.05.13-.01.05.22-.11.17l.05-.09c-.09.01-.12.05-.18.03.05-.05.04-.14-.09-.13l.09-.11-.25.15c-.16-.12-.45-.05-.49-.2,0,0-.32-.16-.44-.05.1-.06-.07-.16.02-.24-.12.07-.4.03-.43-.12h.02c-.26-.28-.67-.26-.8-.6-.07.09-.14-.08-.23.05-.17-.09-.19-.26-.19-.36-.02-.11,0-.11-.25-.12-.04-.1.1-.11.13-.14l.02.02c0-.14.02-.19.12-.25.01-.07-.08-.27.12-.31-.02.1.05.06.11.02-.03.03-.04.07.08.08,0-.03.03-.06.05-.08,0,0,.01,0,.01.02.14-.09.11-.11.03-.09,0-.01-.01-.03-.04-.04.2.03.44-.19.52-.07.44-.23.69-.51,1.04-.73.07.05.01.15-.08.22l.25-.14c.04.1-.12.12-.19.18.38.02.57-.44.99-.45l.04-.11h.03s.04-.13.09-.16c.08.07.07.2.25.13.17.04.38-.19.55-.29-.1.02-.09-.04-.05-.09.09-.03.17.04.23-.02l.04.12c-.07-.11.2-.18.22-.24.07.08-.12.11-.13.19.36-.09.18-.06.53-.13.18-.13-.06-.11.02-.24.17-.06.34-.15.55-.1l-.07-.1c.33-.11.55-.1.77.04.65-.18,1.07-.24,1.29-.35.23-.1.24-.22.19-.35-.07-.12-.25-.24-.42-.33-.16-.09-.32-.13-.32-.13-1.21-.43-1.93-.04-3.19.39Z"/>
  </g>
  <g>
    <path class="b" d="M10.73,1.54l-.12-.04s.04.04.12.04Z"/>
    <path class="b" d="M8.42,22.48s-.02,0-.03.01c.02,0,.03-.01.03-.01Z"/>
    <path class="b" d="M5.55,1.61h0s.02-.02.02-.04l-.03.04Z"/>
    <path class="b" d="M12.19.04C11.3,0,10.73,0,10.15.01c-.58.03-1.17.09-2.07.4-.88.22-1.77.68-2.53,1.2-.13.2-.39.36-.63.57-.23.23-.5.43-.61.7l-.21.11c-.07.19-.2.36-.32.53l-.02-.03c-.07.32-.27.57-.27.77l-.02-.02c-.03.15-.06.3-.08.45l-.03-.08c.01.63.14,1.17.26,1.59l.1-.07c.22.92.62,1.06.91,1.78h-.03c.8.6.76,1.34,1.63,1.86-.11-.06,0,.08-.04.09.33.3.67.62.84.47.22.23.13.23.1.32.07-.07.29.09.48.26l-.11-.05.54.46.03-.23c.24.29-.09.23.21.44l.1-.12c.18.19.29.37.39.56.07.12.04.14.11.27.05.11.1.21.17.32.74.79,1.6,1.38,2.28,2.1.72.73,1.39,1.51,1.45,2.28l-.1.09c-.16.05.33.34.16.43.03.05.06.11.08.17-.03.05-.06.15-.1.06-.01.16,0,.18.05.31-.04.05-.08.1-.13.13-.18.45-.37,1.07-.96,1.57-.42.22-.93.66-1.46.87-.59.26-1.3.47-1.82.62-.37.12-.76.18-1.17.21-.4,0-.9.07-1.11-.04-.84-.2-1.68-.38-2.46-.35-.05-.03-.18,0-.19.02-.47-.08-.92-.18-1.37-.3,0,0-.3-.08-.7-.18-.12,0-.18-.09-.19-.21-.01-.06-.01-.12-.01-.18v-.1s.06-.18.06-.18c.08-.25.16-.56.14-.77-.02-.23-.11-.31-.2-.26-.1.05-.23.22-.48.44-.12.12-.28.24-.46.5-.19.27-.36.7-.32,1.22l-.05-.04c.03.15.06.29.1.43.01.03.01.07.03.1l.09.05c.06.03.11.06.17.09.21.13.46.21.69.28.41.12.61.12.94.11.04.25.67.18.84.28l-.02.02c.53-.08,1.01.31,1.51.21-.02.02-.04.08-.15.07.35.02.83.02.84.15.21.02.43.04.66.06l.35.03.18.02c.1,0,.2.03.3,0,.55-.08.89-.15,1.17-.3l-.03.04c.29-.18.39-.07.72-.19.02.01.05.02.04.03.31-.19.97-.18,1.23-.3l.04.08c.22-.06.44-.12.67-.19l-.26.05c.02-.26.55.03,1-.34.52-.2.59-.93,1.02-1.12.1-.23-.03.27.17-.01.09.09-.07.16.06.19.22-.26.52-.27.75-.65l.09.05c.23-.53.78-.82.78-1.29.12-.61.44-.41.32-1.06.05-.08.09-.17.14-.25.02-.3-.17-.2-.13-.52.09,0,0-.42.11-.24-.03-.81-.67-1.35-.99-2.14-.24-.05-.43-.44-.61-.46.04-.07-.52-.62-.1-.38.04.02.08.08.05.09l.11-.02c-.16-.47-.63-.58-.94-.93.08.12.21.25.07.21l-.3-.32h.12s-.43-.47-.43-.47v.13c-.19-.25-.16-.45-.5-.57-.17-.04.11.29-.14.1-.12-.16-.27-.37-.43-.57-.08-.11-.16-.21-.24-.31l-.12-.15s-.09-.09-.12-.12l-.07-.07c-.04.12-.14.02-.26-.05l.05-.09c-.49-.25,0-.29-.46-.57l.08-.02-.24.06c-.48-.18-.04-.32-.61-.5.16.13-.08.23-.24.01l.11-.02c-.12-.09-.18-.09-.23-.17.1.02.13-.07-.03-.2h.18s-.4-.14-.4-.14c-.14-.29-.56-.55-.54-.74,0,0-.37-.53-.58-.54.15.04-.04-.26.11-.25-.19-.06-.55-.39-.57-.61l.03.02c-.3-.62-.79-.92-.86-1.49-.1.06-.13-.23-.25-.12-.14-.25-.09-.5-.03-.63.03-.1.12-.24-.04-.43.09-.25.23-.22.33-.32l-.02.06c.25-.42.38-.52.67-.78.12-.16.03-.34.36-.51-.05.14.06.04.17-.04-.06.06-.07.1.11.05,0-.03.04-.07.06-.1,0,0,.01,0,.01.02.19-.14.14-.14.04-.1,0-.01-.02-.02-.06-.03.26-.02.59-.33.68-.2.62-.31,1.07-.61,1.64-.81.08.06-.04.15-.2.22l.41-.12c.02.11-.22.11-.34.16.52.05.98-.4,1.6-.32l.11-.1h.04s.12-.1.21-.13c.09.09.01.21.31.19.24.06.65-.09.96-.13-.17-.01-.11-.07-.04-.1.15,0,.23.09.35.05v.13c-.04-.13.4-.11.46-.16.08.1-.23.07-.27.13.59.03.3.01.89.04.32-.05-.04-.13.12-.22.28.01.57-.03.88.09l-.08-.12c.54.01.86.1,1.18.29,1.02.05,1.62.13,1.94.08.32-.04.35-.15.26-.31-.1-.15-.35-.33-.57-.47-.22-.14-.42-.24-.42-.24C15.18-.13,14.19,0,12.19.04Z"/>
  </g>
  <g>
    <path class="b" d="M71.47,11.81l-.07-.03s.02.04.07.03Z"/>
    <path class="b" d="M71.65,21.14h.01s-.01,0-.01,0Z"/>
    <polygon class="b" points="68.3 11.49 68.3 11.49 68.31 11.47 68.3 11.49"/>
    <path class="b" d="M72.18,10.28c-1.08.02-1.45-.11-2.48.38-.51.19-.98.52-1.4.83-.09.29-.56.39-.67.7h-.15c-.04.11-.1.21-.21.24v-.02c-.08.15-.22.23-.24.32l-.02-.02-.11.14v-.05c-.12.25-.3.43-.47.6l.1.06c-.39.33-.32.59-.66.9l-.02-.02c-.02.62-.61.71-.56,1.37-.01-.08-.07,0-.09,0-.05.27-.12.56.1.62-.06.18-.11.13-.2.14.1.02.11.2.09.35l-.03-.08-.04.43.2-.06c-.09.21-.25.02-.22.25h.16c-.04.32-.3.49-.41.82.03.35.02.64.16,1.05.13.4.34.71.56.98.44.55.91.97,1.3,1.45l-.03.13c-.08.15.42,0,.37.15h.16c.02.06.07.13,0,.13.11.08.13.05.23.06l.07.16c.44.33.94.33,1.53.47.18.07.42.13.71.11.27-.01.43-.06.66-.11.42-.1.84-.25,1.15-.37.83-.41,1.99.05,2.82-.42.03.02.1-.05.09-.07l.82-.15s3.95-.75.67-1.53v-.04c-.45,0-.74.05-1.01.29-.1-.22-.37.05-.49,0v-.02c-.23.23-.58-.03-.81.18,0-.02,0-.08.06-.1-.18.07-.43.17-.47.04-.45.13-1.09.19-1.34.46v-.04c-.13.17-.2.06-.37.17-.01-.02-.03-.02-.03-.03-.16.17-.52.12-.66.2l-.02-.09-.36.08h.14c0,.25-.3-.11-.53.09-.26,0-.42.58-.67.45-.12.1.11-.18-.06-.1,0-.13.08-.07.05-.18-.16.05-.22-.16-.42-.12l.02-.1c-.29.1-.39-.28-.61-.19-.28-.06-.02-.33-.35-.31l-.02-.17c-.09-.08-.16.09-.23-.04.06-.06-.09-.15.02-.17-.14-.27-.6-.23-.69-.67-.18.05-.23-.16-.36-.13.04-.05-.21-.31.03-.23.02,0,.03.03.01.05l.09-.04c.03-.26-.28-.24-.35-.42,0,.06.04.12-.04.11-.03-.05-.05-.11-.06-.16h.09c-.01-.08-.04-.16-.03-.22l-.09.05c.03-.11.18-.15.03-.3-.09-.06-.12.16-.17,0,.05-.23.13-.55.17-.73-.12.02-.11-.05-.13-.12h.1c-.12-.27.21-.08.13-.34l.06.03-.19-.09c-.15-.27.23-.09,0-.4,0,.11-.22,0-.16-.12l.09.05c0-.08-.04-.11,0-.15.04.05.13.06.14-.05l.09.1-.11-.24c.15-.12.09-.4.25-.41,0,0,.2-.28.09-.41.06.1.16-.05.24.04-.07-.13-.01-.39.14-.42v.02c.27-.27.22-.63.53-.83-.1-.06.06-.17-.08-.22.14-.37.65-.29.43-.7.11-.13.22-.06.3-.1v.04c.19-.24.25-.31.45-.43.07-.1-.04-.29.16-.37,0,.11.05.05.12,0-.03.04-.03.08.09.06,0-.03,0-.05.02-.08,0,0,.01,0,.01.02.1-.09.06-.1,0-.08,0-.01-.02-.02-.05-.03.18.02.33-.2.41-.08.31-.24.52-.45.8-.65.06.06,0,.14-.06.21.07-.04.14-.08.21-.1.03.1-.11.09-.16.15.31.08.48-.35.83-.27l.05-.09h.02s.05-.11.09-.13c.06.08.04.21.19.18.13.06.34-.1.5-.15-.09-.01-.06-.07-.03-.1.08,0,.13.09.19.04v.13c-.02-.12.21-.14.25-.19.04.09-.13.09-.14.16.31-.02.15,0,.47.01.18-.08-.02-.12.07-.22.15,0,.32-.09.49.03l-.03-.12c.3-.03.5.04.58.23.25,0,.45.17.54.37.1.19.13.36.18.47.09.23.22.24.34.2.13-.08.28-.29.34-.57.07-.28,0-.59,0-.59-.06-.31-.23-.58-.41-.77-.18-.18-.36-.29-.52-.37-.32-.15-.57-.17-.79-.19-.42.02-.91,0-1.52.1Z"/>
  </g>
  <g>
    <path class="b" d="M232.43,9.92l-.07-.04s.02.04.07.04Z"/>
    <path class="b" d="M230.95,20.8h.02s-.02,0-.02,0Z"/>
    <polygon class="b" points="229.26 9.23 229.26 9.22 229.27 9.2 229.26 9.23"/>
    <path class="b" d="M233.38,8.53c-1.04-.13-1.38-.37-2.54-.03-.56.11-1.12.41-1.58.72-.14.27-.6.41-.74.72h-.15c-.04.12-.11.22-.22.26v-.02c-.08.16-.23.25-.25.34l-.02-.02-.11.15v-.05c-.13.25-.28.47-.45.64l.11.05c-.39.34-.28.62-.63.93l-.02-.02c.01.63-.58.7-.54,1.34,0-.08-.07,0-.09-.01-.06.25-.15.52.07.6-.07.17-.12.12-.21.11.09.03.08.2.04.34l-.02-.08-.1.41.2-.02c-.12.19-.24-.02-.25.2l.15.04c-.11.28-.39.4-.57.68-.17.63-.15,1.37.02,2.06.17.69.44,1.32.71,1.93l-.07.12c-.12.13.43.13.33.27l.15.07c0,.05.04.14-.04.11.09.1.12.09.23.12l.03.18c.36.44.87.55,1.35.82.51.53,1.86.67,2.55.55.5-.11,1.02-.02,1.58-.03.55.02,1.13-.07,1.54-.38.04.01.1-.07.09-.09.28-.1.55-.22.82-.33,0,0,.95-.44,1.44-.86.49-.4.58-.84-1.14-.79v-.04c-.45.12-.71.23-.91.53-.14-.19-.34.13-.47.1v-.02c-.18.27-.56.07-.74.3,0-.02-.01-.08.04-.1-.16.09-.38.19-.43.07-.39.16-.97.16-1.23.39l.02-.04c-.15.15-.2.02-.37.1,0-.02-.02-.03-.02-.03-.18.14-.5,0-.64.03v-.09s-.33-.04-.33-.04l.12.04c-.09.24-.22-.19-.49-.11-.2-.08-.61.33-.82.13-.16.05.17-.12-.03-.12.05-.12.11-.04.11-.15-.18-.02-.19-.23-.41-.26l.04-.09c-.33.02-.33-.37-.57-.35-.27-.11.07-.34-.26-.38,0-.06.01-.11.03-.17-.05-.1-.17.04-.2-.1.07-.05-.04-.16.07-.15-.04-.28-.47-.38-.39-.8-.18-.02-.14-.22-.28-.25.06-.03-.06-.37.13-.19.02.01.02.04,0,.05h.1c.14-.22-.16-.33-.14-.55-.03.06-.02.14-.09.09v-.2s.09.04.09.04c.01-.1.03-.19.05-.29l-.1.04c.06-.14.24-.17.11-.35-.07-.09-.15.12-.17-.04.09-.19.25-.47.35-.72-.12,0-.1-.07-.1-.15l.1.02c-.06-.31.24-.04.21-.34l.06.04-.18-.13c-.11-.31.24-.07.08-.44-.02.12-.23-.02-.14-.14l.08.07c0-.08-.02-.12.02-.17.03.06.12.07.15-.04l.09.11-.09-.27c.16-.12.13-.42.29-.43,0,0,.21-.3.11-.44.05.1.17-.06.24.04-.06-.13,0-.41.14-.45v.02c.28-.3.2-.67.52-.88-.1-.05.06-.17-.09-.22.1-.4.64-.31.39-.72.1-.13.22-.06.29-.1v.04c.18-.25.26-.28.44-.42.06-.1-.04-.28.17-.35-.01.11.05.05.11,0-.03.04-.03.07.08.07,0-.03,0-.06.02-.08,0,0,0,0,.01.02.1-.08.07-.1,0-.08,0-.01-.02-.02-.04-.04.17.04.33-.17.4-.05.33-.17.55-.39.87-.51.05.07-.01.14-.1.2.07-.03.14-.05.22-.07.02.11-.12.07-.18.12.29.12.53-.27.87-.12l.06-.09h.02s.07-.1.12-.11c.05.1,0,.22.16.22.12.1.36-.04.54-.06-.09-.03-.06-.07-.01-.1.08,0,.12.1.19.07v.13c-.03-.12.23-.11.26-.15.03.1-.13.06-.17.13.31.04.15,0,.43.07.17-.05,0-.12.11-.21.14.02.32,0,.43.15v-.12c.3.07.45.2.51.42.54.22.87.46,1.09.56.22.13.32.05.39-.06.03-.19.01-.39-.05-.57-.05-.18-.13-.32-.13-.32-.54-1.13-1.64-1.38-2.86-1.38Z"/>
  </g>
  <g>
    <path class="b" d="M120.09,9.57l.08.05s-.02-.04-.08-.05Z"/>
    <path class="b" d="M120.81,22.3v.02s0-.02,0-.02Z"/>
    <polygon class="b" points="122.61 11.52 122.61 11.52 122.59 11.53 122.61 11.52"/>
    <path class="b" d="M119.23,11.04c.95.02,1.18.23,2.07.25.43.08.9.14,1.31.24.25-.1.52.18.79.14l.04.12c.09-.01.19,0,.24.09l-.02.02c.14-.01.23.09.3.09l-.02.02.13.06-.04.02c.21.04.39.16.5.31l.06-.1c.21.34.48.29.58.65h-.03c.52.2.17.67.57.96-.05-.04-.05.04-.08.04.1.18.14.39.37.36.02.16-.06.14-.14.17.1-.01.16.12.17.24l-.04-.06c.01.12.03.24.04.36l.19-.07c-.06.2-.23.04-.2.23h.16c-.05.29-.31.41-.48.63-.27.97-.57,2.27-1.51,2.8l-.11-.05c-.12-.11-.03.38-.17.29l-.04.14s-.12.02-.1-.05c-.09.07-.07.09-.1.19h-.16c-.4.21-.58.6-1.01.82-.58.13-1.43.78-1.99,1.11-.75.57-1.93.19-2.75.63-.03-.02-.1.05-.1.07-.27.04-.55.08-.83.11,0,0-1.01.11-1.63.3-.62.19-.9.56.78,1.16l-.02.04c.49.05.81.03,1.12-.2.08.22.4-.03.53.02v.02c.26-.23.63.04.88-.18,0,.02,0,.08-.07.1.2-.07.47-.18.52-.06.49-.15,1.19-.29,1.43-.61v.04c.12-.2.21-.1.38-.24.02.01.03.02.03.02.14-.2.54-.24.67-.36l.05.08.36-.19-.14.05c-.06-.25.35.02.53-.27.26-.1.24-.7.53-.74.05-.17,0,.22.12.04.07.11-.04.12.06.18.14-.15.35-.06.5-.27l.06.08c.16-.33.57-.24.64-.52.21-.27.37.1.5-.28h.19c.13-.07-.03-.18.14-.24.05.07.2-.09.19.03.39-.19.43-.7.91-.98-.07-.19.16-.34.1-.49.07.03.28-.44.26-.11,0,.03-.03.07-.05.05l.06.08c.32-.16.19-.52.34-.77-.07.07-.11.17-.14.07l.13-.24.05.09c.08-.12.14-.24.21-.36h-.12c.13-.15.31-.16.25-.43-.04-.12-.19.14-.15-.07.15-.23.35-.6.43-.95-.12.02-.1-.08-.11-.18h.1c-.09-.39.23-.12.15-.51l.07.04-.2-.11c-.21-.34.21-.19-.08-.56.03.15-.21.09-.19-.09l.1.04c-.03-.1-.07-.13-.06-.2.05.05.15.01.1-.14l.14.08-.23-.25c.06-.24-.18-.54-.07-.67,0,0-.12-.48-.31-.51.13.04.03-.21.16-.19-.15-.07-.41-.34-.41-.52l.03.02c-.24-.53-.71-.62-.98-1.02-.06.1-.21-.1-.25.05-.45-.16-.57-.74-.94-.42-.19-.07-.17-.21-.26-.28h.06c-.37-.13-.48-.17-.74-.28-.15,0-.24.18-.46.06.1-.06,0-.07-.09-.1.06,0,.09-.02-.01-.11-.02.02-.05.03-.08.03,0,0,0-.01,0-.02-.16-.02-.14.02-.07.05,0,.01,0,.03,0,.06-.13-.15-.44-.11-.42-.25-.47-.07-.82.02-1.22.03-.04-.08.06-.13.18-.15h-.28c.01-.11.17-.05.26-.06-.32-.22-.7.1-1.08-.06l-.08.08h-.02s-.09.09-.14.11c-.05-.09,0-.22-.19-.21-.15-.09-.42.05-.61.12.1.01.07.06.03.1-.09,0-.15-.08-.22-.04l-.02-.13c.04.12-.23.14-.26.2-.06-.09.14-.09.16-.16-.37.04-.18.02-.55.06-.19.11.05.12-.04.23-.17.04-.33.14-.53.08l.07.11c-.31.12-.51.12-.73.03-1.15.55-1.29.85-1.1,1.04.19.19.69.24.69.24.99.17,1.44-.22,2.52-.37Z"/>
  </g>
  <g>
    <path class="b" d="M169.91,16.27l.07.03s-.03-.03-.07-.03Z"/>
    <path class="b" d="M167.23,12.47v.02s0-.02,0-.02Z"/>
    <polygon class="b" points="172.73 16.58 172.73 16.58 172.72 16.6 172.73 16.58"/>
    <path class="b" d="M169.64,17.85c.78-.18,1.08-.01,1.91-.48.42-.17.83-.49,1.18-.8.06-.27.46-.41.52-.71h.14c.02-.11.05-.22.15-.26l.02.02c.02-.15.15-.26.14-.31l.02.02.05-.09.02.04c.03-.17.14-.33.27-.45l-.1-.06c.34-.25.24-.5.57-.84l.02.02c-.02-.33.09-.54.17-.79.08-.25.11-.55-.11-.82.06.06.05-.05.08-.05-.11-.28-.26-.51-.46-.41-.08-.15,0-.15.07-.21-.09.05-.19-.06-.27-.17l.07.03c-.08-.1-.15-.21-.25-.3l-.11.17c-.08-.19.16-.18,0-.31l-.12.1c-.16-.23-.11-.52-.3-.8-.53-.42-1.26-.51-1.83-.46-.29.02-.57.07-.83.1-.22.03-.45.02-.68-.02l-.05-.11c-.03-.17-.22.28-.27.12l-.1.09s-.1-.05-.05-.1c-.1,0-.1.03-.16.09l-.12-.1c-.41-.04-.73.21-1.17.27-.14-.02-.32,0-.5.05-.09.02-.18.06-.29.1-.13.06-.26.16-.38.25-.46.39-.6.83-.69,1.11-.15.82-1.06,1.45-.98,2.3-.03.02,0,.1.03.1l-.19.68s-.67,3.32,1.16,1.06l.03.02c.16-.34.23-.56.1-.85.23.01.09-.29.18-.35h.02c-.12-.25.25-.39.16-.64.02.01.08.03.07.08.01-.16.02-.37.16-.34.07-.36.3-.8.19-1.08l.03.03c-.08-.17.04-.17.04-.32.02,0,.03,0,.04,0-.07-.2.17-.35.17-.46l.08.05c.04-.08.08-.12.12-.18l-.07.04c-.15-.18.21-.02.19-.17.05-.02.14-.61.36-.55.06-.14-.03.2.08.08.04.12-.04.1.02.18.12-.09.25.07.4-.04l.03.1c.19-.22.44.06.57-.13.23-.11.19.28.42.06l.11.12c.11.01.06-.17.19-.12,0,.09.16.05.1.14.28.11.58-.25.95-.07.05-.17.21-.09.26-.21.01.07.3,0,.14.16-.01.01-.04.01-.04-.02l-.02.1c.16.18.29-.1.44-.05-.04-.04-.1-.04-.05-.1.05,0,.09.02.14.03l-.04.08c.06.03.12.05.17.09v-.11c.08.07.04.25.18.15.08-.05-.03-.16.08-.15.09.12.17.29.25.41.07-.09.09-.06.14-.05l-.07.07c.21.04-.12.18.06.24l-.06.03.19-.09c.26.03-.12.18.21.2-.05-.06.17-.15.18-.03l-.1.02s.09.04.09.08c-.06,0-.13.05-.08.11h-.13s.21.05.21.05c-.05.13.1.22-.03.28,0,0-.04.14.09.18-.09-.03-.13.03-.24,0,.11.03.16.17.03.18h0c-.17.1-.05.41-.35.57.1.06-.05.15.09.21-.08.33-.65.39-.31.7-.06.12-.18.06-.23.1v-.04c-.12.2-.17.25-.29.37-.03.09.1.26-.06.33-.01-.1-.05-.04-.1,0,.02-.04.01-.06-.09-.06,0,.03,0,.05,0,.07,0,0-.01,0-.01-.02-.06.08-.04.09.01.08,0,.01.02.02.04.03-.15-.03-.24.18-.33.06-.24.19-.38.42-.61.58-.06-.06-.02-.14.04-.2l-.17.1c-.04-.1.08-.1.12-.14-.27-.07-.37.34-.69.28l-.03.1h-.02s-.03.11-.06.14c-.07-.08-.06-.21-.19-.16-.13-.05-.29.13-.41.22.08,0,.07.05.05.09-.07.02-.13-.06-.17,0l-.04-.12c.06.11-.15.17-.16.23-.06-.08.09-.11.08-.18-.28.09-.14.05-.41.14-.12.13.06.11.02.23-.12.06-.23.18-.4.16l.08.09c-.22.16-.37.2-.57.15-.74.77-.61,1.12-.42,1.23.2.12.52.07.52.07.69,0,.92-.4,1.77-.73Z"/>
  </g>
  <g>
    <path class="b" d="M204.34,12.32l-.05.05s.04,0,.05-.05Z"/>
    <path class="b" d="M197.91,22.71h-.01s.01,0,.01,0Z"/>
    <polygon class="b" points="202.49 14.02 202.49 14.02 202.48 14 202.49 14.02"/>
    <path class="b" d="M202.97,11.55c-.12.65-.36.79-.37,1.48-.06.32-.08.67-.11.99.14.18-.07.42.03.62l-.11.05c.04.07.05.15,0,.2h-.03c.05.1,0,.19.02.25h-.03s-.01.11-.01.11l-.04-.03c.04.18.02.34-.05.48h.12c-.19.3.02.46-.19.71h-.03c.23.41-.32.52-.11.95-.03-.05-.06,0-.09,0,0,.18-.02.37.2.41-.03.12-.09.09-.18.09.1.02.12.14.1.23l-.03-.05-.02.29.2-.02c-.08.14-.23,0-.22.15l.15.03c-.07.18-.32.23-.48.36-.24.61-.37,1.52-1.07,1.75l-.1-.07c-.11-.12.02.3-.1.19v.11s-.1-.01-.09-.07c-.06.03-.05.05-.06.12l-.12-.05c-.26.06-.37.34-.67.39-.36-.1-.98.19-1.38.27-.28.12-.57-.05-.79-.23-.23-.18-.4-.38-.7-.41,0-.03-.07,0-.08,0-.12-.1-.25-.21-.36-.34,0,0-.1-.1-.25-.25-.14-.14-.32-.33-.5-.45-.17-.13-.36-.19-.51-.07-.14.13-.29.45-.21,1.15h-.04c.15.35.31.56.62.6-.13.2.21.23.23.34h-.02c.28.01.3.42.59.4-.02.01-.05.06-.1.04.16.06.38.12.34.24.38.15.93.37,1.21.19l-.02.03c.16-.12.19.01.35-.05,0,.02.02.03.01.04.16-.12.44,0,.56-.06v.09s.31-.04.31-.04h-.11c.02-.26.24.13.43-.06.21,0,.3-.57.51-.5.06-.14-.03.2.08.08.04.12-.04.1.02.18.12-.1.27.06.41-.09l.04.09c.15-.25.48-.06.54-.3.17-.19.3.17.42-.14l.16.05c.11-.05-.03-.18.11-.21.05.07.17-.04.16.06.32-.09.31-.52.72-.66-.07-.17.12-.25.06-.38.06.04.23-.3.23-.04,0,.02-.02.05-.04.03l.06.08c.28-.08.14-.39.26-.56-.06.04-.09.12-.12.03l.1-.17.05.07c.06-.08.12-.16.18-.24h-.11c.1-.11.29-.09.22-.3-.05-.1-.18.07-.15-.08.13-.15.33-.39.42-.63-.12,0-.1-.07-.11-.14h.1c-.08-.27.24-.05.17-.29l.06.03-.19-.1c-.16-.23.22-.06,0-.33,0,.09-.22,0-.16-.1l.09.05c0-.06-.04-.09-.02-.12.04.04.13.05.13-.04l.11.08-.14-.2c.13-.1.04-.33.18-.35,0,0,.12-.25-.01-.34.08.07.14-.07.24,0-.09-.09-.13-.31,0-.37v.02c.18-.28-.04-.55.16-.8-.12-.01-.02-.14-.18-.14-.09-.31.4-.46-.03-.65,0-.13.13-.13.17-.2l.02.04c0-.25.02-.32.06-.5-.03-.1-.23-.15-.15-.3.07.07.07,0,.08-.06,0,.04.03.06.1-.01-.02-.02-.04-.04-.05-.05,0,0,.01,0,.02,0-.01-.11-.04-.09-.06-.05-.01,0-.03,0-.05,0,.13-.09.04-.29.19-.28.02-.31-.1-.56-.11-.82.08-.02.13.05.15.13v-.19c.11.02.05.11.06.17.21-.19-.11-.47.08-.7l-.08-.06h.02s-.1-.08-.11-.12c.1-.02.21.03.22-.1.1-.09-.01-.29-.05-.43-.02.07-.07.04-.1,0,0-.06.1-.09.06-.14h.13c-.12.02-.11-.17-.16-.2.1-.03.07.11.14.13,0-.26,0-.13.01-.38-.09-.14-.12.02-.23-.06-.02-.12-.1-.24-.01-.38l-.11.04c-.07-.23-.06-.36.06-.51-.44-.84-.76-.91-.95-.79-.2.12-.28.42-.28.42-.26.61.05.93.07,1.68Z"/>
  </g>
  <g>
    <path class="b" d="M103.25,15.42l-.07-.04s.02.04.07.04Z"/>
    <path class="b" d="M99.96,21.44h.01s-.01,0-.01,0Z"/>
    <polygon class="b" points="100.62 14.06 100.62 14.06 100.64 14.05 100.62 14.06"/>
    <path class="b" d="M103.92,13.92c-.86.02-1.11-.18-2-.02-.43.02-.88.1-1.3.17-.18.19-.55.05-.77.21l-.1-.09c-.08.06-.17.1-.26.05v-.03c-.11.08-.25.06-.31.1v-.03s-.15.03-.15.03l.02-.04c-.1.05-.21.08-.32.1-.14.02-.25.03-.41.05l.05.11c-.75-.03-.82.38-1.21.81l-.02-.02c-.06.48-.12.57-.24.76-.11.17-.22.35-.15.63-.02-.07-.06,0-.09,0-.03.23-.07.46.15.53-.04.16-.1.11-.19.11.1.02.1.17.08.3l-.02-.07-.06.36.2-.02c-.1.17-.23-.01-.24.18l.15.04c-.1.25-.36.34-.54.56-.17.51-.22,1.06-.31,1.61-.02.14-.05.28-.07.41-.05.22-.1.42-.15.62-.11.41-.24.8-.43,1.26l-.17.17c-.22.19.19.24,0,.42l.29-.1s.09.06-.05.11c.18,0,.21-.04.39-.1.03.03.06.07.09.1.66.03,1.52-.24,2.01-.23.55.18,1.54-.1,2.11-.26.79-.31,1.8.29,2.59-.07.03.02.09-.04.09-.06l.76-.04s3.67-.23.77-1.42l.02-.04c-.42-.06-.69-.06-.96.16-.06-.23-.34,0-.45-.06v-.02c-.23.2-.53-.1-.76.07,0-.02,0-.08.06-.09-.18.04-.42.11-.44-.02-.43.07-1.02.05-1.27.29v-.04c-.13.16-.18.04-.35.12-.01-.02-.02-.02-.02-.03-.15.15-.49.06-.62.13l-.02-.09-.33.05h.13c-.02.26-.27-.12-.5.05-.23-.01-.42.54-.67.44-.1.12.09-.19-.08-.09-.02-.13.07-.09.02-.18-.08.04-.15,0-.23-.02-.09-.02-.15-.04-.19,0v-.1c-.18.2-.17-.12-.34.07-.22.1.18-.31-.12-.09.04-.05.07-.1.12-.14,0-.02-.25.19-.15.07.11-.08.1-.12.2-.17.09-.09.04-.07,0-.1-.03-.02-.04-.09.09-.14-.16-.04-.06-.04-.15-.18.07,0,.11-.39.21-.13,0,.02,0,.06-.03.05l.09.05c.24-.18,0-.43.09-.65-.05.06-.06.15-.11.07l.07-.2.07.06.13-.3-.11.02c.09-.14.27-.15.17-.35-.06-.1-.17.11-.16-.06.12-.18.3-.46.39-.71-.12,0-.1-.07-.1-.15l.1.02c-.06-.31.24-.05.2-.34l.06.04-.18-.12c-.13-.29.23-.08.04-.42-.01.11-.23,0-.15-.13l.08.06c0-.08-.03-.11,0-.16.04.06.13.06.14-.05l.1.1-.12-.25c.14-.13.08-.4.23-.43,0,0,.16-.3.04-.41.07.09.16-.07.24.01-.09-.09-.05-.42.03-.32h.01c.06.01.03-.02.03-.07-.01-.05.03-.08.08-.02-.03-.11.03-.06,0-.2.33-.19.68.23.76-.24.16-.04.2.09.29.1l-.04.03c.3-.07.39-.08.62-.09.11-.05.11-.27.32-.23-.06.09.02.07.1.06-.05.02-.06.05.05.1.01-.03.03-.05.05-.06,0,0,0,.01,0,.02.13-.04.1-.07.04-.07,0-.01,0-.03-.02-.05.14.1.37-.04.4.1.38-.07.65-.24.97-.32.04.07-.03.14-.12.18l.23-.05c0,.11-.13.07-.2.1.29.15.55-.22.88-.09l.06-.09h.02s.06-.1.11-.12c.05.09.01.21.17.2.13.08.35-.07.51-.14-.09,0-.07-.06-.03-.1.08,0,.13.08.19.03l.02.13c-.04-.12.2-.15.22-.2.05.09-.12.09-.13.16.32-.04.16-.02.48-.06.16-.11-.04-.12.03-.23.15-.04.29-.14.47-.08l-.07-.11c.27-.11.44-.12.64-.03,1.11-.59.71-.93.55-1.01l.36.53h0s0,0,0,0h0s-.01-.02-.01-.02l-.02-.03-.04-.06-.09-.14c-.06-.1-.11-.2-.15-.32-.04-.14.04-.09.03-.13-.05-.03-.1-.05-.15-.06-.09-.03-.2-.04-.2-.04-.78-.15-1.19.21-2.15.38Z"/>
  </g>
  <g>
    <path class="b" d="M59.25,10.03l-.05-.04s.02.04.05.04Z"/>
    <path class="b" d="M51.97,17.68h0s0,0,0,0Z"/>
    <polygon class="b" points="57.03 8.82 57.03 8.82 57.04 8.8 57.03 8.82"/>
    <path class="b" d="M59.72,8.53c-.73.01-.95-.17-1.67.04-.35.04-.7.16-1.02.25-.12.2-.43.09-.58.26l-.09-.08c-.05.06-.12.11-.19.07v-.03c-.08.09-.19.07-.23.11v-.03s-.11.03-.11.03v-.04c-.13.11-.3.14-.45.13l.03.11c-.33-.08-.4.17-.7.06v-.03s-.08.07-.11.09c-.06.02-.13.04-.19.04-.13.01-.26,0-.39,0-.11.04-.22.11-.33.2-.11.09-.22.22-.22.33.01-.06-.06-.03-.07-.05-.12.16-.25.32-.08.48-.1.1-.13.03-.21-.02.07.07.02.18-.04.27v-.06s-.17.26-.17.26l.18.07c-.14.09-.2-.11-.27.04l.12.1c-.16.16-.43.13-.66.28-.15.22-.27.46-.33.78-.04.13-.05.36-.05.46,0,.1,0,.21,0,.3,0,.41-.05.81-.26,1.15h-.12c-.17-.02.2.27.04.26l.05.1s-.08.06-.11,0c-.03.08,0,.09.04.16l-.12.06c-.17.29-.04.61-.18.93-.33.33-.37,1.15-.39,1.63.06.69-.8,1.26-.65,2.02-.03.02.02.09.04.09-.04.21-.09.41-.12.63,0,0-.12.78.05,1.27.17.51.48.58,1.23-.44l.04.02c.11-.3.15-.48,0-.72.23,0,.06-.25.15-.31h.02c-.14-.21.21-.35.1-.56.02.01.08.03.07.07,0-.14-.01-.33.12-.31.04-.32.22-.74.07-1l.03.02c-.11-.16.02-.16-.01-.31.02,0,.03,0,.04,0-.1-.17.09-.38.06-.5l.09.02.06-.26-.05.09c-.22-.11.21-.15.11-.38.08-.16-.38-.5-.21-.65-.08-.12.16.13.11-.02.12.03.06.08.17.08-.02-.14.19-.17.15-.35l.1.02c-.11-.26.24-.36.11-.54-.02-.24.33-.07.2-.34l.15-.06c.05-.09-.14-.11-.05-.2.08.03.1-.12.16-.04.18-.23-.06-.54.21-.84-.15-.1-.02-.25-.14-.33.08,0,.06-.34.19-.13.01.02,0,.05-.02.04l.09.04c.21-.17-.06-.37,0-.56-.04.05-.04.13-.1.07.01-.06.02-.13.03-.14l.08.02.07-.09h-.1c.08-.07.23-.01.14-.15-.06-.07-.16.02-.15-.08.11-.08.29-.18.41-.3-.1-.05-.07-.09-.06-.14l.08.05c0-.23.21.08.24-.13l.04.06-.13-.17c-.03-.26.21.07.14-.26-.04.07-.19-.12-.09-.16l.05.08c.02-.05,0-.09.04-.11.01.06.09.11.13.04l.05.12-.02-.23c.15,0,.21-.24.31-.15,0,0,.07.02.02-.13.03.09.07.12.1.23-.02-.1-.05-.18.1-.09h-.02c.34.09.54-.21.84-.12-.03-.11.13-.07.07-.21.27-.19.59.2.61-.27.13-.05.17.08.25.09l-.03.03c.24-.08.31-.1.49-.13.08-.06.05-.27.23-.25-.04.09.03.06.09.05-.04.02-.04.05.05.09,0-.03.02-.05.03-.06,0,0,0,.01,0,.02.09-.05.07-.07.02-.07,0-.01,0-.03-.03-.05.12.09.29-.06.33.08.29-.09.48-.28.72-.37.04.07,0,.14-.07.18l.17-.06c.02.11-.09.08-.14.11.24.13.4-.24.67-.12l.04-.09h.02s.04-.1.08-.12c.05.09.02.21.14.19.1.08.26-.08.38-.13-.07-.01-.05-.06-.03-.1.06,0,.1.08.15.04l.02.13c-.03-.12.15-.14.17-.19.04.09-.09.08-.1.16.24-.02.12-.01.36-.04.13-.1-.03-.12.03-.23.11-.03.23-.12.36-.04l-.04-.11c.22-.09.35-.07.49.05.84-.4,1.01-.66.91-.88-.1-.21-.46-.33-.46-.33-.71-.3-1.11.02-1.93.17Z"/>
  </g>
  <g>
    <path class="b" d="M248.14,10.59l-.05.04s.04,0,.05-.04Z"/>
    <path class="b" d="M246.61,19.02s0,0,0,0c0,0,0,0,0,0Z"/>
    <polygon class="b" points="246.39 11.47 246.39 11.47 246.38 11.46 246.39 11.47"/>
    <path class="b" d="M246.7,10.17c-.06.41-.27.49-.24.83-.05.15-.04.31-.07.46.14.12-.11.28-.03.45h-.11c.03.07.04.14-.03.16h-.02c.04.08-.02.14,0,.18h-.03s-.02.07-.02.07l-.03-.03c.03.14,0,.26-.07.35l.11.03c-.2.18.01.33-.19.49h-.03c.23.32-.31.34-.08.67-.03-.04-.06,0-.09,0,0,.13,0,.26.22.31-.02.09-.08.06-.17.05.1.02.13.1.12.17l-.03-.04v.2s.19,0,.19,0c-.07.09-.23-.01-.2.09l.15.02c-.05.13-.3.18-.44.3-.15.57.18,1.22-.14,1.72h-.12c-.17,0,.24.18.08.19l.07.07s-.07.05-.1.01c-.01.06.02.06.06.1l-.11.05c-.1.21.09.42.03.65-.24.26-.08.79,0,1.08.2.45-.55.78-.36,1.22-.03,0,.02.05.04.06l-.12.34s-.15.4-.11.72c.04.29.28.62,1.24.16l.03.02c.17-.19.24-.33.11-.54.23.04.08-.18.16-.21h.02c-.13-.17.22-.24.1-.41.02,0,.08.03.07.06,0-.11-.03-.25.11-.23.02-.24.13-.56-.06-.74l.04.02c-.13-.1,0-.11-.07-.22.02,0,.03,0,.04,0-.13-.11.01-.27-.04-.35h.09s0-.18,0-.18l-.03.07c-.24-.05.17-.12.02-.27.04-.12-.49-.29-.36-.4-.11-.07.18.07.1-.03.13,0,.08.05.18.03-.05-.09.14-.13.06-.25h.1c-.17-.15.15-.25-.01-.36-.07-.15.3-.07.12-.24l.14-.05c.03-.06-.16-.06-.09-.12.08.01.08-.08.15-.03.15-.15-.16-.34.09-.53-.16-.06-.05-.16-.17-.2.07,0,.03-.21.18-.07.01.01,0,.03-.02.02l.1.02c.2-.1-.08-.22-.04-.34-.04.03-.03.08-.1.04l.03-.11.08.03.07-.15h-.1c.06-.06.24-.07.11-.17-.07-.05-.15.05-.17-.03.08-.1.21-.23.26-.36-.12,0-.11-.04-.12-.08h.1c-.11-.15.22,0,.14-.16l.07.02-.2-.07c-.17-.16.22-.03-.02-.21,0,.06-.22-.02-.17-.07l.09.04s-.05-.06-.03-.08c.05.03.13.04.13-.02l.11.06-.15-.14c.12-.06.02-.21.16-.21,0,0,.1-.15-.03-.22.08.06.14-.03.24.02-.09-.07-.14-.22-.02-.24h0c.16-.14-.06-.34.12-.46-.11-.03-.02-.09-.17-.12-.08-.22.39-.2-.02-.42,0-.09.13-.05.17-.08l.02.03c.02-.15.04-.2.09-.3-.02-.07-.21-.15-.12-.25.06.07.07.02.09-.03,0,.03.03.06.1.02-.02-.02-.03-.04-.04-.05,0,0,.01,0,.02,0,0-.09-.03-.08-.05-.05-.01,0-.03,0-.05,0,.13-.04.07-.22.21-.19.04-.25-.08-.44-.1-.64.08-.01.14.04.16.1v-.14c.1.02.04.09.06.13.2-.15-.13-.36.04-.53l-.08-.04h.01s-.1-.06-.12-.08c.09-.02.22,0,.21-.08.09-.07-.04-.2-.09-.29-.02.05-.07.03-.1.01,0-.04.09-.07.05-.1h.13c-.12.01-.13-.12-.18-.13.09-.03.08.06.15.07-.02-.17,0-.09-.03-.26-.1-.09-.12.02-.23-.02-.03-.08-.12-.15-.05-.24l-.11.03c-.09-.14-.08-.23.03-.33-.47-.53-.76-.62-.97-.54-.2.08-.28.33-.28.33-.24.49.11.7.21,1.17Z"/>
  </g>
  <g>
    <path class="b" d="M117.02,12.92l-.05.02s.04,0,.05-.02Z"/>
    <path class="b" d="M114.98,21.49s0,0,0,.01c0,0,0-.01,0-.01Z"/>
    <polygon class="b" points="115.16 13.85 115.16 13.85 115.16 13.84 115.16 13.85"/>
    <path class="b" d="M115.74,12.14c-.18.44-.42.51-.46,1.01-.08.22-.08.48-.11.7.14.14-.07.29.04.45l-.1.03c.04.05.06.11,0,.14h-.03c.06.07,0,.13.02.17h-.03s0,.07,0,.07l-.04-.02c.05.13.03.24-.03.34l.12.02c-.18.19.04.32-.15.48h-.03c.24.3-.29.33-.07.65-.03-.04-.06,0-.09,0,0,.12,0,.25.22.3-.02.08-.09.05-.17.04.1.02.12.1.11.17l-.03-.04v.2s.18,0,.18,0c-.08.09-.23-.03-.21.08l.15.03c-.06.13-.31.16-.45.27-.19.54.06,1.23-.33,1.69h-.12c-.17-.03.21.2.05.18l.06.08s-.07.04-.1,0c-.02.05,0,.06.05.11l-.12.03c-.13.2.02.43-.08.65-.28.22-.22.78-.19,1.11.13.49-.66.77-.52,1.26-.03,0,.01.06.03.06l-.15.36s-.17.44-.14.77c.04.32.29.61,1.25.15l.03.02c.17-.18.24-.32.11-.53.23.05.09-.17.18-.2h.02c-.12-.18.23-.22.12-.4.02.01.08.03.07.06,0-.1,0-.25.12-.21.04-.24.18-.53.02-.74l.03.02c-.12-.12,0-.11-.03-.22.02,0,.03,0,.04,0-.11-.13.05-.27,0-.35l.09.02.03-.18-.04.06c-.23-.09.18-.1.06-.26.06-.11-.43-.37-.28-.46-.1-.09.17.1.1-.01.12.03.07.06.17.06-.04-.1.16-.11.11-.24l.1.02c-.14-.18.19-.24.05-.37-.05-.16.31-.03.16-.23l.14-.03c.04-.06-.15-.08-.07-.14.08.02.09-.08.16-.01.17-.13-.1-.37.16-.54-.15-.08-.03-.17-.14-.23.07.01.06-.21.19-.06.01.01,0,.03-.02.02l.09.04c.21-.08-.05-.24,0-.36-.04.03-.04.08-.1.03l.04-.11.08.04.08-.16h-.1c.07-.07.25-.06.12-.18-.07-.06-.15.05-.16-.05.09-.09.23-.23.29-.37-.11-.01-.1-.05-.12-.09l.1.02c-.1-.18.23,0,.15-.18l.06.03-.19-.08c-.16-.18.22-.03-.01-.23,0,.06-.22-.02-.16-.08l.09.04s-.05-.07-.02-.09c.05.03.13.04.13-.02l.11.07-.15-.15c.12-.06.02-.23.16-.23,0,0,.11-.17-.03-.24.08.06.14-.04.24.02-.09-.07-.14-.23-.02-.26h0c.16-.17-.07-.37.11-.53-.11-.02-.03-.1-.18-.11-.1-.22.37-.28-.05-.45,0-.09.13-.08.16-.12l.02.03c0-.17,0-.22.05-.34-.03-.07-.23-.13-.16-.23.07.05.07,0,.08-.03,0,.03.03.04.1,0-.02-.01-.04-.03-.05-.04,0,0,.01,0,.02,0-.01-.07-.04-.07-.06-.04-.01,0-.03,0-.05,0,.12-.04.04-.2.18-.17.02-.21-.09-.39-.1-.57.08,0,.13.06.15.11v-.13c.11.03.05.08.06.13.2-.1-.09-.33.1-.46l-.07-.06h.02s-.09-.07-.1-.1c.1,0,.21.06.22-.03.1-.04,0-.19-.02-.29-.03.04-.07.01-.1-.02,0-.04.1-.04.07-.08l.12.03c-.12-.02-.09-.14-.14-.17.1,0,.06.08.12.11.03-.17.02-.08.05-.25-.07-.11-.12-.02-.21-.09,0-.08-.07-.18.03-.25h-.12c-.04-.17,0-.26.14-.32-.55-1.35-1.12-.59-1.12-.59-.37.37-.12.69-.18,1.23Z"/>
  </g>
  <g>
    <path class="b" d="M86.79,12.88l-.05.02s.04,0,.05-.02Z"/>
    <path class="b" d="M85.41,20.44s0,0,0,0c0,0,0,0,0,0Z"/>
    <polygon class="b" points="85.09 13.84 85.09 13.84 85.07 13.83 85.09 13.84"/>
    <path class="b" d="M85.41,12.32c-.12.4-.34.48-.31.91-.04.2-.02.41-.02.61.16.11-.03.25.1.38l-.1.03s.07.09.01.12h-.03c.07.06.01.12.05.15h-.03s0,.06,0,.06l-.04-.02c.06.11.06.2,0,.29h.12c-.15.17.07.28-.1.42h-.03c.27.25-.26.29,0,.55-.03-.03-.06,0-.09,0,.01.11.01.22.24.26-.02.07-.08.05-.17.04.1.02.13.09.12.15l-.03-.03v.17s.2,0,.2,0c-.07.08-.23-.02-.2.07l.15.03c-.05.12-.3.14-.43.24-.16.47.13,1.06-.23,1.45h-.12c-.17-.03.22.17.06.15l.06.07s-.07.03-.1,0c-.02.05,0,.05.05.1l-.12.03c-.12.17.04.37-.05.56-.27.18-.19.67-.15.95.15.43-.63.63-.47,1.07-.03,0,.01.05.03.06l-.14.31s-.16.38-.11.67c.05.29.32.55,1.23.19l.03.02c.16-.15.22-.27.09-.46.22.06.08-.15.16-.17h.02c-.13-.16.22-.18.11-.34.02.01.08.03.07.06,0-.09-.01-.22.12-.18.03-.21.17-.46,0-.65l.03.02c-.12-.11,0-.1-.04-.2.02,0,.03,0,.04,0-.11-.12.04-.23,0-.31l.09.02.02-.16-.03.05c-.23-.08.18-.08.06-.23.06-.1-.44-.34-.3-.42-.1-.08.17.09.1,0,.12.03.07.06.17.06-.04-.09.16-.09.1-.21l.1.02c-.15-.17.18-.2.03-.32-.05-.15.31-.02.15-.2l.14-.02c.03-.05-.15-.08-.07-.13.08.02.08-.07.15-.01.16-.12-.12-.33.14-.47-.15-.07-.04-.15-.15-.2.07,0,.05-.19.18-.05.01.01,0,.03-.02.02l.09.03c.2-.07-.06-.22-.01-.32-.04.03-.04.07-.1.03l.03-.1.08.04.08-.14h-.1c.07-.06.24-.05.11-.16-.07-.05-.15.04-.16-.04.09-.08.22-.21.27-.32-.12,0-.1-.04-.12-.08h.1c-.11-.14.22,0,.14-.14l.07.02-.2-.07c-.17-.15.21-.03-.03-.2,0,.05-.22-.01-.17-.07l.09.03s-.05-.06-.03-.08c.05.03.14.04.13-.02l.11.06-.16-.13c.11-.06,0-.2.15-.21,0,0,.09-.16-.05-.22.09.05.14-.04.24,0-.1-.06-.16-.2-.04-.23h.01c.14-.16-.11-.33.05-.48-.12,0-.04-.09-.19-.09-.12-.19.34-.27-.11-.39-.01-.08.12-.08.15-.12l.02.02c-.02-.15-.02-.19,0-.3-.04-.06-.25-.09-.18-.18.08.04.07,0,.07-.04.01.02.04.04.1,0-.03,0-.04-.02-.05-.03,0,0,.01,0,.02,0-.02-.06-.05-.06-.06-.03-.01,0-.03,0-.05,0,.12-.05.01-.17.16-.16-.01-.18-.14-.33-.18-.48.08,0,.14.04.16.08v-.11c.09.01.04.07.06.1.19-.1-.14-.28.04-.4l-.08-.04h.02s-.1-.05-.11-.08c.1,0,.21.03.22-.04.1-.04-.02-.17-.06-.25-.02.04-.07.02-.1,0,0-.04.1-.04.06-.08l.13.02c-.12,0-.11-.11-.16-.13.1,0,.07.07.14.09.01-.14,0-.07.02-.22-.08-.09-.12,0-.22-.06-.01-.07-.09-.15,0-.22h-.11c-.06-.14-.03-.21.09-.27-.34-.56-.6-.73-.82-.71-.21.02-.35.22-.35.22-.34.38-.06.66-.04,1.14Z"/>
  </g>
  <g>
    <path class="b" d="M40.94,11.35l-.05.02s.04,0,.05-.02Z"/>
    <path class="b" d="M38.78,19.53s0,0,0,.01c0,0,0-.01,0-.01Z"/>
    <polygon class="b" points="39.15 12.29 39.15 12.29 39.14 12.28 39.15 12.29"/>
    <path class="b" d="M39.6,10.68c-.14.42-.38.49-.38.95-.06.21-.06.44-.08.66.15.13-.06.27.06.42l-.1.02c.04.05.06.1,0,.13h-.03c.06.07,0,.12.03.16h-.03s0,.07,0,.07l-.04-.02c.05.12.03.23-.02.32l.11.02c-.17.17.04.3-.15.45h-.03c.24.29-.29.3-.07.61-.03-.04-.06,0-.09-.01,0,.12,0,.24.21.3-.02.08-.09.05-.17.04.1.02.12.1.11.17l-.03-.04v.19s.18.01.18.01c-.08.08-.23-.03-.21.07l.15.04c-.06.12-.31.14-.46.23-.2.5.02,1.17-.39,1.57h-.12c-.17-.05.2.19.04.16l.06.08s-.08.03-.1,0c-.02.05,0,.06.04.11l-.12.02c-.14.18,0,.41-.11.61-.29.19-.26.73-.25,1.04.11.48-.7.68-.58,1.18-.03,0,.01.06.03.06l-.16.35s-.19.42-.15.75c.04.33.3.58,1.24.18l.03.02c.17-.16.24-.28.12-.49.22.06.09-.16.18-.18h.02c-.12-.18.24-.19.14-.36.02.01.07.04.07.07,0-.1,0-.23.13-.19.04-.22.21-.49.06-.7l.03.02c-.11-.13.01-.11-.02-.22.02,0,.03,0,.04,0-.11-.13.06-.25.03-.34l.09.02.04-.17-.04.06c-.22-.1.19-.08.08-.25.07-.1-.41-.39-.26-.47-.09-.09.16.11.1,0,.12.04.06.06.17.07-.03-.1.17-.09.12-.22l.1.03c-.13-.19.2-.21.07-.35-.04-.16.31,0,.17-.2l.15-.02c.04-.05-.14-.09-.06-.14.08.03.09-.07.16,0,.17-.12-.09-.37.19-.51-.15-.09-.02-.16-.13-.23.07.01.07-.2.19-.04,0,.01,0,.03-.02.02l.09.04c.21-.07-.04-.24.02-.35-.04.03-.04.07-.1.02l.04-.1.07.04.09-.15h-.1c.07-.07.25-.05.13-.18-.07-.06-.15.04-.16-.05.1-.09.24-.21.3-.34-.11-.02-.1-.05-.11-.09l.1.02c-.1-.18.23,0,.16-.16l.06.03-.19-.09c-.16-.18.22-.02,0-.22,0,.06-.22-.03-.16-.09l.09.04s-.05-.07-.02-.09c.04.04.13.05.13-.01l.11.07-.15-.15c.12-.06.03-.22.17-.22,0,0,.11-.16-.03-.24.08.06.14-.03.24.02-.09-.07-.14-.22-.02-.25h0c.16-.16-.07-.36.11-.51-.11-.02-.03-.1-.18-.11-.1-.22.37-.27-.06-.44,0-.09.13-.08.16-.11l.02.03c0-.17,0-.21.04-.33-.03-.07-.24-.12-.16-.22.08.05.07,0,.08-.03,0,.03.04.04.1,0-.02-.01-.04-.03-.05-.04,0,0,.01,0,.02,0-.02-.07-.04-.07-.06-.04-.01,0-.03,0-.05,0,.12-.05.03-.19.18-.17,0-.2-.11-.37-.13-.55.08,0,.13.05.15.1v-.12c.1.02.04.08.06.12.2-.1-.11-.32.08-.45l-.08-.05h.02s-.1-.06-.11-.09c.1,0,.21.04.22-.04.1-.05,0-.19-.04-.28-.02.04-.07.02-.1,0,0-.04.1-.05.07-.08l.12.02c-.12,0-.11-.13-.15-.15.1,0,.07.08.13.1.02-.16,0-.08.03-.25-.08-.1-.12,0-.22-.07,0-.08-.08-.17,0-.24h-.12c-.06-.15-.03-.23.1-.31-.7-1.22-1.18-.45-1.18-.45-.32.37-.04.64-.05,1.15Z"/>
  </g>
  <g>
    <path class="b" d="M27.73,22.66l-.06-.05s.02.04.06.05Z"/>
    <path class="b" d="M21.92,14.61v-.02s0,.02,0,.02Z"/>
    <polygon class="b" points="25.57 21.07 25.58 21.07 25.59 21.06 25.57 21.07"/>
    <path class="b" d="M28.37,21.21c-.73-.04-.92-.26-1.68-.17-.36-.02-.76.02-1.12.03-.18.16-.48,0-.68.13l-.08-.1c-.07.05-.16.08-.23.03v-.03c-.1.07-.22.03-.27.06v-.03s-.12.01-.12.01l.02-.04c-.19.08-.38.08-.55.04v.12c-.35-.13-.48.11-.81-.04v-.03c-.2.16-.36.11-.53.06-.08-.05-.1-.11-.24.05.04-.04.01-.06.02-.09-.08.04-.13.06-.3.3-.07,0,0-.07.07-.16-.07.1-.18.17-.22.15.01,0,.03-.01.05-.03-.03-.01-.03-.06-.05-.1l-.19.19c.05-.15.23-.21.19-.25l-.16.11c.03-.17.27-.35.39-.41.02.02.01-.32.02-.51,0-.22-.02-.45,0-.68,0-.45.07-.9.29-1.28h.12c.17.01-.19-.29-.03-.28l-.05-.11s.08-.07.11-.01c.03-.09,0-.09-.03-.17l.13-.07c.17-.32.05-.66.2-1.02.33-.37.4-1.25.44-1.76-.04-.75.87-1.33.78-2.13.03-.02,0-.09-.02-.1l.19-.65s.22-.8.14-1.34c-.07-.55-.37-.74-1.29.28l-.03-.02c-.17.32-.23.53-.11.81-.23-.02-.1.27-.19.33h-.02c.12.24-.26.37-.16.62-.02-.01-.07-.03-.07-.08-.01.15-.02.37-.15.34-.07.36-.28.82-.15,1.11l-.03-.03c.1.17-.03.17,0,.34-.02,0-.03,0-.04,0,.09.18-.11.41-.09.55l-.09-.02-.07.29.05-.1c.22.11-.21.17-.12.42-.09.18.37.53.2.7.08.13-.15-.14-.11.03-.12-.03-.06-.09-.17-.08.02.16-.19.19-.16.39l-.1-.02c.11.28-.24.4-.12.59.01.25-.33.08-.2.38l-.15.06c-.05.1.14.11.05.22-.08-.03-.1.13-.16.05-.19.24.07.59-.23.91.15.11.02.27.14.35-.07,0-.07.36-.19.14,0-.02,0-.05.03-.04l-.09-.04c-.22.18.04.4,0,.6.04-.06.04-.14.1-.08l-.03.19-.08-.05-.08.29.11-.03c-.07.14-.25.17-.11.35.08.08.14-.12.17.03-.07.1-.22.68-.24,1.09.11-.08.11.03.14.12l-.1.06c.14.35-.22.29-.1.68h-.07c.07,0,.14-.01.21-.03.1.11.05.2,0,.3-.02.05-.04.1-.04.15.02.03.14-.03.29-.09-.18.03.13-.22.27-.19l-.13.1c.12-.03.19-.07.24-.05-.1.06-.14.15.04.12l-.2.13.43-.2c.19.1.58-.06.64.07,0,0,.49.04.6-.12-.07.1.13.12.07.23.07-.11.29-.2.39-.09h-.02c.33.12.57-.15.87-.01-.01-.12.15-.05.11-.2.31-.14.56.31.69-.15.14-.02.17.11.24.14l-.03.02c.27-.03.35-.03.55-.02.1-.04.12-.25.3-.2-.06.08.01.07.08.07-.04.01-.06.04.03.1.01-.03.03-.04.05-.05,0,0,0,.01,0,.02.11-.03.09-.05.04-.07,0-.01,0-.03-.02-.05.11.11.32,0,.34.15.34-.03.58-.17.87-.22.03.07-.04.14-.12.17l.2-.03c0,.11-.12.06-.18.08.24.18.49-.17.78-.01l.06-.09h.02s.06-.09.1-.11c.04.09,0,.22.14.21.11.09.32-.05.46-.11-.08-.01-.06-.07-.02-.1.07,0,.11.09.17.04v.13c-.02-.12.19-.14.21-.19.04.09-.1.09-.12.16.28-.03.14-.01.42-.04.14-.1-.04-.12.03-.23.13-.04.25-.13.41-.07l-.06-.11c.24-.1.38-.11.56-.02.85-.57.86-.91.7-1.08-.16-.17-.5-.2-.5-.2-.69-.16-.99.2-1.81.32Z"/>
  </g>
  <g>
    <path class="b" d="M33.42,10.45l-.02-.05s0,.04.02.05Z"/>
    <path class="b" d="M27.59,10.76s0,0,0,.01c0,0,0-.01,0-.01Z"/>
    <polygon class="b" points="32.56 8.84 32.56 8.84 32.57 8.83 32.56 8.84"/>
    <path class="b" d="M33.78,9.02c-.32-.07-.39-.29-.73-.22-.16-.02-.33.02-.49.04-.08.17-.21,0-.3.13l-.03-.1s-.07.08-.1.03v-.03c-.04.07-.09.03-.12.06v-.03s-.05.01-.05.01v-.04c-.07.07-.15.08-.22.04v.12c-.15-.13-.21.11-.35-.05v-.03c-.18.3-.28-.21-.46.08.02-.04-.01-.06,0-.09-.08.03-.17.05-.17.28-.06,0-.05-.07-.06-.16,0,.1-.05.14-.1.15l.02-.04-.14.04.03.19c-.07-.05-.02-.23-.09-.18v.16c-.1-.03-.16-.26-.26-.37-.42-.05-.82.38-1.23.15l-.03-.12c-.03-.17-.08.26-.11.11l-.04.08s-.05-.06-.03-.1c-.04,0-.04.03-.06.08l-.06-.1c-.18-.06-.28.16-.46.15-.24-.18-.6.09-.79.27-.23.32-.8-.22-1.03.17-.02-.02-.03.04-.02.06l-.3.09s-.35.14-.49.39c-.14.25,0,.56.74.99v.04c.17.02.26,0,.28-.2.1.21.12-.02.18.04v.02c.02-.2.22.07.24-.1,0,.02.02.08,0,.09.05-.05.11-.12.16,0,.13-.07.33-.08.36-.31v.04c.02-.15.07-.04.11-.12,0,.02.01.02.02.03.02-.15.16-.06.19-.13l.02.09.11-.05h-.05c-.04-.25.12.12.17-.05.08.02.06-.53.17-.43.02-.12,0,.19.04.09.02.13-.01.08.02.18.05-.07.12.11.17.01l.02.1c.07-.19.2.1.23-.08.09-.09.1.28.18.08l.06.13s.01-.17.07-.11c0,.08.07.06.05.14.12.12.2-.21.36,0,.02-.17.1-.08.11-.2,0,.07.15,0,.08.16,0,.01-.02.01-.02-.02v.1c.09.18.14-.11.22-.09-.03-.03-.06-.02-.04-.09h.08s-.01.09-.01.09l.11.04-.02-.1c.06.05.09.22.14.07.02-.08-.06-.13,0-.17.08.06.19.17.29.19-.01-.11.01-.11.04-.14v.1c.1-.14.05.22.14.1v.07s.01-.21.01-.21c.09-.2.05.21.15-.07-.04.02-.02-.22.03-.18v.1s.02-.06.04-.04c-.02.05,0,.14.03.12l-.02.12.07-.18c.06.1.15-.03.17.11,0,0,.12.07.15-.08-.03.09.04.13.02.24.03-.1.13-.19.17-.08h0c.14.13.24-.14.37,0,0-.12.06-.05.05-.2.14-.14.23.31.29-.15.06-.02.07.11.1.13l-.02.02c.11-.03.15-.04.23-.02.04-.04.06-.26.13-.2-.03.08,0,.07.03.07-.02.01-.03.04,0,.1,0-.03.01-.04.02-.05,0,0,0,.01,0,.02.05-.03.04-.05.02-.07,0-.01,0-.03,0-.05.04.11.14,0,.14.14.14-.03.25-.17.37-.22,0,.08-.02.14-.06.17l.09-.02c0,.11-.05.06-.08.08.09.18.22-.16.33,0l.03-.08h0s.03-.09.05-.1c.01.09-.01.22.05.21.04.09.13-.04.2-.09-.03-.02-.02-.07,0-.1.03,0,.04.09.07.05v.13c0-.12.08-.12.09-.18.01.09-.05.08-.06.15.12,0,.06,0,.18,0,.07-.09,0-.12.03-.23.06-.02.11-.11.17-.03v-.11c.09-.08.16-.07.22.05.81-.88.22-1.24.22-1.24-.29-.26-.46.06-.83.13Z"/>
  </g>
  <g>
    <path class="b" d="M218.51,21.16l-.03-.04s.02.04.03.04Z"/>
    <path class="b" d="M213.14,22.39s0,0,0,.01c0,0,0-.01,0-.01Z"/>
    <polygon class="b" points="217.31 19.85 217.31 19.85 217.31 19.83 217.31 19.85"/>
    <path class="b" d="M218.42,19.69c-.3.01-.43-.18-.7-.02-.14.02-.28.11-.41.17-.02.18-.18.05-.22.21l-.05-.08c-.01.05-.04.09-.08.05v-.03c-.03.08-.08.05-.09.09v-.03s-.05.02-.05.02v-.04c-.05.09-.12.12-.19.1l.04.11c-.16-.09-.15.16-.31.04v-.03c-.07.34-.29-.14-.37.18,0-.04-.02-.06-.03-.08-.06.05-.13.09-.08.31-.05.01-.06-.06-.09-.14.03.1,0,.15-.05.16v-.04s-.1.06-.1.06l.07.18c-.07-.04-.07-.22-.12-.16l.04.15c-.09,0-.2-.23-.31-.32-.35.02-.62.49-.99.28l-.04-.11c-.04-.17-.04.26-.08.11l-.02.08s-.04-.06-.03-.1c-.03,0-.03.03-.04.08l-.06-.1c-.14-.06-.22.17-.37.15-.2-.19-.47.05-.64.18-.24.29-.57-.38-.81-.08,0-.02-.03.03-.03.05l-.23-.02s-.28-.02-.46.13c-.18.15-.31.49.14,1.22v.04c.14.1.23.12.33-.07.02.23.12.02.16.1v.02c.08-.18.19.15.27-.01,0,.02,0,.08-.02.09.06-.03.15-.09.16.05.15-.04.37,0,.44-.22v.04c.04-.15.06-.03.12-.11,0,.02.01.03.01.03.04-.15.17-.04.21-.11v.09s.13-.03.13-.03h-.05c-.02-.26.11.13.17-.04.08.02.09-.53.18-.42.02-.12,0,.19.04.09.02.13-.01.08.02.18.05-.07.11.12.17.02l.02.1c.06-.19.19.1.22-.08.08-.1.12.28.18.07l.06.13s0-.17.06-.11c.01.08.07.06.06.14.13.11.17-.23.36-.04,0-.17.08-.09.08-.21.02.07.14-.02.1.15,0,.01-.02.01-.02-.01v.1c.13.16.13-.13.21-.12-.03-.03-.06-.01-.05-.08h.07s0,.08,0,.08l.12.02-.04-.1c.06.04.12.2.15.05,0-.08-.08-.12-.03-.17.09.05.21.13.31.13-.04-.11-.01-.11,0-.14l.03.1c.06-.16.09.2.15.07v.07s-.02-.21-.02-.21c.03-.21.1.19.12-.1-.03.03-.07-.21-.02-.18v.1s.03-.07.05-.05c0,.05.03.14.06.11v.12s.03-.19.03-.19c.08.09.13-.06.19.06,0,0,.13.03.12-.12,0,.1.07.11.08.22,0-.11.07-.21.13-.12h0c.16.09.18-.2.33-.09-.04-.11.04-.07-.01-.2.08-.17.29.23.21-.22.05-.04.09.09.12.1v.03c.08-.06.11-.08.19-.08.03-.05-.02-.26.06-.23,0,.09.02.06.05.06-.01.02,0,.05.04.09,0-.03,0-.04,0-.06,0,0,0,.01,0,.02.03-.04.02-.06,0-.07,0-.01,0-.03-.02-.05.07.09.12-.04.16.1.11-.06.17-.23.25-.31.03.07.02.14,0,.17l.07-.04c.03.1-.03.07-.04.1.13.15.14-.21.28-.08v-.09s.01.01.01.01c-.01-.04,0-.11,0-.13.04.09.05.21.1.19.06.08.1-.07.14-.13-.03,0-.03-.06-.03-.1.02,0,.06.08.07.03l.03.12c-.04-.11.04-.14.03-.19.04.09-.02.09-.01.16.1-.03.05-.02.15-.05.03-.11-.04-.11-.03-.23.04-.04.07-.13.14-.07l-.04-.11c.07-.1.13-.1.21,0,.25-.52.23-.83.14-1.01-.09-.18-.25-.24-.25-.24-.34-.19-.41.17-.72.33Z"/>
  </g>
  <g>
    <path class="b" d="M57.3,22.36l-.02-.05s0,.04.02.05Z"/>
    <path class="b" d="M51.79,22.18s0,0,0,.01c0,0,0-.01,0-.01Z"/>
    <polygon class="b" points="56.52 20.76 56.52 20.76 56.52 20.75 56.52 20.76"/>
    <path class="b" d="M57.62,20.93c-.29-.07-.36-.29-.66-.21-.14-.02-.3.02-.44.04-.07.17-.18,0-.27.13l-.03-.1s-.06.08-.09.03v-.03c-.04.07-.08.03-.11.06v-.03s-.05.01-.05.01v-.04c-.06.07-.14.08-.2.04v.12c-.13-.13-.19.1-.31-.05v-.03c-.17.3-.24-.22-.41.07.02-.04,0-.06,0-.09-.08.03-.16.04-.17.27-.05,0-.04-.07-.05-.16,0,.1-.05.14-.1.14l.02-.04-.12.03.02.19c-.06-.06,0-.23-.07-.19v.16c-.09-.03-.14-.27-.22-.39-.36-.08-.76.3-1.08.02v-.12c0-.17-.11.25-.12.09l-.04.08s-.03-.06-.01-.1c-.04,0-.04.02-.07.07l-.03-.11c-.14-.09-.27.11-.41.07-.17-.22-.52-.04-.72.07-.14.12-.29.01-.43-.1-.13-.11-.4-.22-.63-.02-.02-.02-.05.04-.05.06-.16.03-.36.1-.56.26,0,0-.19.16-.28.42-.09.26-.05.5.04.63.09.14.23.19.42.14.19-.02.43-.26.79-.28h.04c-.23-.04-.27-.11-.23-.06,0,0,.06.09.09.16h0s.01.03.02.04c0,0,0,0,0,0,0,0,0,.02.02.04.02.04.04.08.05,0,0,.02,0,.08,0,.09.02-.03.07-.08.07.05.07-.03.32.04.41-.17v.04c.05-.14.06-.02.12-.09,0,.02,0,.03,0,.03.06-.14.17-.02.22-.08v.09s.11-.02.11-.02l-.04-.02c.03-.24.08.16.17,0,.08.03.18-.5.25-.38.04-.11-.04.18.02.1,0,.13-.03.08-.02.18.06-.06.09.13.16.05v.1c.1-.18.16.14.23-.03.1-.08.05.3.16.11l.03.14s.04-.16.08-.1c0,.08.06.07.03.15.1.14.22-.18.35.05.04-.16.1-.06.13-.19,0,.07.14.02.05.17,0,.01-.02,0-.02-.02v.1c.06.19.13-.1.21-.07-.02-.03-.05-.03-.03-.09l.07.02-.02.08.11.05v-.1c.04.05.05.23.12.09.03-.08-.04-.14.01-.17.07.07.17.18.26.21,0-.12.02-.11.05-.13v.1c.1-.13.03.22.12.11v.07s.02-.21.02-.21c.09-.19.04.21.14-.06-.04.02,0-.22.04-.18l-.02.1s.04-.06.05-.04c-.02.05-.01.14.02.12l-.03.12.08-.17c.05.1.14-.02.16.12,0,0,.11.07.15-.08-.03.09.04.13.01.24.03-.1.13-.19.16-.07h0c.13.13.23-.13.35,0,0-.12.06-.05.05-.2.13-.14.21.31.28-.15.06-.02.06.11.09.13v.02c.09-.03.12-.04.2-.02.04-.04.05-.25.12-.2-.03.08,0,.07.03.07-.02.01-.02.04,0,.1,0-.03.01-.04.02-.05,0,0,0,.01,0,.02.04-.03.04-.05.02-.07,0-.01,0-.03,0-.05.04.11.13,0,.13.14.13-.03.23-.18.34-.23,0,.07-.02.14-.05.17l.08-.02c0,.11-.05.06-.07.08.09.18.2-.17.3,0l.03-.08h0s.03-.09.04-.1c.01.09,0,.22.04.21.04.09.12-.04.18-.09-.03-.02-.02-.07,0-.1.03,0,.04.09.06.05v.13c0-.12.07-.13.08-.18.01.09-.04.08-.05.15.11,0,.05,0,.16-.01.06-.09,0-.12.03-.23.05-.02.1-.11.16-.03v-.11c.08-.08.14-.07.2.05.74-.89.19-1.24.19-1.24-.27-.26-.42.06-.76.14Z"/>
  </g>
  <g>
    <path class="b" d="M218.38,14.32l-.05-.03s.02.04.05.03Z"/>
    <path class="b" d="M211.87,19.9h0s0,0,0,0Z"/>
    <polygon class="b" points="216.39 13.22 216.39 13.22 216.4 13.2 216.39 13.22"/>
    <path class="b" d="M218.52,12.79c-.56.09-.76-.08-1.31.15-.28.05-.55.18-.81.27-.08.2-.35.09-.46.27l-.08-.08c-.04.06-.09.11-.16.07v-.03c-.06.09-.16.07-.19.12v-.03s-.09.04-.09.04v-.04c-.11.11-.25.15-.38.15l.04.11c-.29-.06-.33.2-.6.11v-.03c-.23.38-.52-.08-.76.28.03-.05-.03-.05-.03-.08-.13.07-.28.13-.23.35-.1.02-.1-.05-.13-.13.02.1-.06.16-.13.19l.03-.05-.22.09.09.17c-.14-.02-.08-.22-.2-.14l.04.15c-.2.02-.39-.17-.66-.17-.47.16-.89.68-1.03,1.16-.16.48-.18.88-.36,1.23l-.12.02c-.17,0,.23.21.07.22l.07.08s-.07.06-.1.02c-.01.07.01.07.06.13l-.11.06c-.11.26.07.51-.01.8-.26.32-.15,1-.07,1.4.19.56-.55,1.15-.28,1.74-.02.02.03.07.05.07-.01.16-.02.14-.05.2,0,0-.02.04-.05.1-.02.03-.02.05-.08.11-.06.06-.15.15-.22.25-.16.2-.21.43-.04.53.08.06.21.09.37.14.17.04.34.13.69.11v.04c.41-.16.64-.45.57-.79.24.04.13-.33.2-.41h.02c-.07-.15-.04-.22,0-.31.04-.08.09-.16.01-.24.02,0,.08.01.08.05-.02-.11-.07-.27.07-.27-.02-.27.08-.64-.11-.84l.04.02c-.13-.12,0-.13-.07-.25.02,0,.03-.01.04,0-.13-.13.01-.32-.03-.42h.09s0-.22,0-.22l-.03.08c-.24-.06.17-.15.04-.33.05-.15-.47-.37-.33-.51-.1-.09.18.09.1-.03.13.01.07.06.18.05-.05-.12.15-.16.08-.31h.1c-.16-.19.17-.31.01-.45-.06-.19.31-.09.13-.31l.14-.06c.03-.08-.16-.08-.09-.16.08.01.08-.11.15-.05.15-.16-.15-.39.12-.54-.15-.08-.03-.15-.14-.21.07.01.08-.15.18,0,0,.01,0,.02-.02.01l.09.05c.2,0-.04-.17.03-.21-.04,0-.05.02-.09-.03l.05-.05.06.06s.06-.02.09-.03l-.08-.06c.08,0,.18.13.14,0-.03-.08-.12-.08-.09-.14.1.01.24.05.36.05-.05-.1-.02-.11,0-.14l.03.09c.09-.17.09.2.21.06v.07s0-.21,0-.21c.12-.23.14.18.25-.13-.07.04-.08-.2.01-.19v.1s.05-.08.09-.06c-.02.06.02.14.08.11l-.02.13.09-.21c.13.07.26-.1.34.02,0,0,.24,0,.25-.15-.02.1.11.1.1.22.03-.12.18-.24.28-.15v.02c.27.04.38-.26.64-.19-.04-.11.1-.08.03-.22.2-.2.5.18.47-.29.1-.05.15.07.21.08l-.02.03c.19-.09.25-.11.4-.14.06-.06.02-.27.17-.26-.02.09.03.06.08.05-.03.02-.03.05.05.09,0-.03.01-.05.02-.06,0,0,0,.01,0,.02.08-.05.05-.07.01-.07,0-.01,0-.03-.03-.05.11.08.24-.07.28.07.24-.1.38-.29.57-.4.04.07,0,.14-.04.19l.14-.07c.03.1-.07.08-.11.11.22.12.32-.26.56-.16l.02-.09h.02s.02-.1.05-.13c.05.08.05.21.15.18.1.07.22-.1.31-.18-.06,0-.06-.06-.04-.09.05-.02.1.07.13.02l.04.12c-.05-.11.1-.16.11-.21.05.08-.06.1-.05.17.2-.07.1-.03.3-.1.08-.12-.05-.11-.03-.23.09-.05.16-.16.29-.11l-.06-.1c.16-.13.27-.15.42-.07,1.1-1.23-.04-1.28-.04-1.28-.59-.1-.78.29-1.38.54Z"/>
  </g>
  <g>
    <path class="b" d="M91.28,10.91l-.03-.05s0,.04.03.05Z"/>
    <path class="b" d="M82.63,11.24s0,0,0,.01c0,0,0-.01,0-.01Z"/>
    <polygon class="b" points="89.96 9.33 89.96 9.33 89.97 9.31 89.96 9.33"/>
    <path class="b" d="M91.75,9.48c-.47-.07-.59-.29-1.08-.21-.23-.02-.48.03-.71.06-.11.17-.3,0-.42.15l-.05-.1s-.09.08-.14.03v-.03c-.06.07-.14.03-.17.07v-.03s-.08.01-.08.01v-.04c-.1.08-.22.09-.32.05v.12c-.21-.13-.29.12-.49-.03v-.03c-.24.32-.4-.2-.65.11.03-.04-.02-.06-.01-.09-.12.04-.24.06-.23.29-.09,0-.07-.07-.09-.16,0,.1-.07.14-.14.15l.03-.04-.19.04.05.19c-.1-.05-.04-.23-.13-.18v.16c-.13-.02-.23-.26-.37-.36-.57-.04-1.16.4-1.7.15l-.03-.12c-.02-.17-.13.26-.16.1l-.06.08s-.06-.06-.03-.1c-.06,0-.06.02-.09.08l-.07-.1c-.23-.07-.41.15-.64.12-.29-.2-.81.02-1.11.15-.42.27-.94-.39-1.36-.09-.01-.02-.05.03-.05.05h-.2c-.09,0-.19,0-.3,0,0,0-.18,0-.49.16-.15.08-.33.23-.44.44-.11.2-.14.42-.11.56.06.3.23.39.41.33.1-.03.2-.11.33-.18.07-.04.14-.07.22-.08.03,0,.1.01.1.02-.01,0-.02-.01,0,0h0s.05.05.08.1c.03.05.07.14.06.11,0-.02.02-.06.05-.16.04.23.09.02.17.09v.02c.13-.18.28.14.41-.02,0,.02,0,.08-.04.09.1-.03.22-.09.24.05.23-.04.55,0,.69-.21v.04c.07-.15.1-.03.19-.1,0,.02.01.03.01.03.08-.15.26-.03.33-.1v.09s.19-.03.19-.03l-.07-.02c.01-.25.14.15.27-.02.12.02.22-.52.35-.41.05-.12-.04.19.04.1,0,.13-.04.08,0,.18.09-.07.15.12.26.03v.1c.14-.19.29.12.37-.06.14-.09.11.29.26.09l.07.13c.07.02.04-.17.11-.11,0,.08.1.06.06.15.17.12.32-.21.55,0,.04-.17.15-.08.18-.2,0,.07.22,0,.11.16,0,.01-.03.01-.03-.02v.1c.12.18.21-.11.33-.09-.04-.03-.09-.02-.06-.09h.11s-.02.09-.02.09l.17.04-.03-.1c.09.05.12.22.21.07.04-.08-.09-.13,0-.17.11.06.28.16.42.18-.02-.11.02-.11.06-.14v.1c.15-.15.07.22.22.1v.07s.02-.21.02-.21c.12-.2.08.2.22-.07-.06.02-.04-.22.04-.18v.1s.04-.06.06-.04c-.02.05,0,.14.05.12l-.03.12.1-.18c.09.1.22-.04.26.1,0,0,.19.06.22-.09-.03.09.07.12.04.23.04-.11.18-.2.24-.09h-.01c.21.12.35-.16.54-.02-.01-.12.09-.05.06-.2.19-.15.36.29.42-.17.09-.03.11.1.15.13l-.02.02c.16-.04.21-.04.33-.03.06-.05.07-.26.18-.21-.03.08,0,.07.05.07-.03.01-.03.04.02.1,0-.03.02-.04.03-.06,0,0,0,.01,0,.02.07-.03.06-.06.02-.07,0-.01,0-.03-.01-.05.07.11.2,0,.21.14.2-.03.35-.18.52-.24.02.07-.02.14-.07.17l.12-.03c0,.11-.07.06-.11.08.14.17.3-.17.46,0l.04-.08h0s.04-.09.07-.1c.02.09,0,.22.08.21.06.09.19-.04.28-.09-.05-.02-.03-.07,0-.1.04,0,.06.09.1.05v.13c-.01-.12.11-.12.13-.17.02.09-.07.08-.08.15.17,0,.08,0,.25,0,.09-.09-.01-.12.04-.23.08-.02.16-.1.25-.03l-.02-.11c.15-.08.24-.06.34.06.59-.42.68-.72.61-.92-.07-.2-.29-.3-.29-.3-.44-.28-.69.03-1.23.1Z"/>
  </g>
  <g>
    <path class="b" d="M45.29,21.36h-.06s.04.01.06,0Z"/>
    <path class="b" d="M39.42,22.09s0,0,0,0c0,0,0,0,0,0Z"/>
    <polygon class="b" points="43.83 20.16 43.83 20.16 43.83 20.15 43.83 20.16"/>
    <path class="b" d="M44.05,20.21c-.09.03-.28-.19-.22-.1,0,0,0,0,0,0,0,.01,0,.04,0,.05.07.16-.15.03-.19.18l-.05-.09c-.02.05-.04.09-.08.04v-.03c-.03.08-.08.04-.1.08v-.03s-.05.02-.05.02v-.04c-.05.09-.13.11-.19.08l.03.11c-.16-.1-.16.14-.31.02v-.03c-.1.33-.28-.16-.38.16.01-.04-.02-.06-.02-.09-.06.05-.13.08-.09.3-.05,0-.05-.06-.08-.15.02.1-.02.15-.06.16v-.04s-.1.05-.1.05l.05.18c-.07-.04-.05-.22-.1-.17l.03.15c-.09-.01-.18-.24-.27-.34-.33-.01-.64.42-.96.16l-.02-.12c-.01-.17-.07.26-.09.1l-.03.08s-.03-.06-.01-.1c-.03,0-.03.02-.05.07l-.03-.11c-.12-.08-.23.12-.35.07-.14-.22-.41-.06-.6.02-.3.2-.34-.53-.64-.34,0-.03-.04.02-.04.03l-.18-.11s-.06-.03-.14-.05c-.08-.03-.18-.05-.3-.03-.21.06-.53.26-.46,1.14l-.02.03c.08.16.17.23.35.1-.09.21.11.08.11.16v.02c.15-.12.11.22.26.1-.01.02-.03.07-.06.07.08,0,.18-.02.14.11.16.03.37.15.53-.04l-.02.03c.09-.13.08,0,.16-.06,0,.02,0,.03,0,.03.09-.12.18.02.24-.04v.09s.11,0,.11,0l-.04-.03c.05-.24.07.17.18.02.08.05.22-.49.28-.36.05-.11-.05.18.02.1,0,.13-.03.08-.03.18.06-.06.09.14.17.06v.1c.1-.17.18.14.25-.04.1-.08.07.3.17.1l.04.13s.03-.17.08-.1c0,.09.06.06.04.15.12.13.21-.2.38.01.02-.17.1-.07.11-.2.01.07.14,0,.08.16,0,.01-.02.01-.02-.02v.1c.1.17.14-.12.22-.1-.03-.03-.06-.02-.05-.09h.08s0,.09,0,.09l.12.03-.03-.1c.06.04.1.21.14.06.02-.08-.07-.13-.02-.17.08.06.2.15.3.16-.03-.11,0-.11.02-.14l.02.1c.07-.15.07.21.15.08v.07s0-.21,0-.21c.05-.21.08.2.13-.09-.03.02-.06-.21,0-.18v.1s.03-.07.05-.05c0,.05.02.14.05.12v.12s.03-.19.03-.19c.07.09.13-.05.18.08,0,0,.13.04.12-.11,0,.09.06.12.07.23,0-.11.08-.21.14-.11h0c.15.1.19-.18.33-.07-.03-.11.04-.06,0-.2.09-.17.27.26.22-.2.05-.03.08.09.11.11v.03c.08-.06.11-.06.18-.07.03-.05-.01-.26.1-.22-.01.09.02.07.06.06-.02.02-.02.05.04.1,0-.03,0-.04.01-.06,0,0,0,.01,0,.02.06-.04.04-.06,0-.07,0-.01,0-.03-.02-.05.1.1.18-.03.24.1.03-.01.06-.02.09-.04.11-.09.15-.22.23-.28.06.06.07.12.05.16l.08-.05c.07.09-.02.07-.04.09.25.1.14-.2.36-.17l-.04-.08h.02s-.06-.09-.05-.11c.08.05.17.14.21.08.11,0,.06-.17.03-.26-.03.03-.07-.01-.09-.05,0-.03.1,0,.07-.05l.11.06c-.11-.05-.1-.15-.15-.19.09.02.07.09.13.13.01-.14.01-.07.01-.22-.09-.11-.12-.03-.23-.11-.02-.07-.12-.15-.05-.2h-.11c-.1-.14-.1-.18.01-.25-.26-.2-.42-.3-.56-.41-.14-.09-.27-.11-.37-.11-.22,0-.33.35-.32.34-.12.1-.1.01-.04.06.06.02.18.08.22.14Z"/>
  </g>
  <g>
    <path class="b" d="M59.46,15.16l-.03-.04s.01.04.03.04Z"/>
    <path class="b" d="M54.24,16.08s0,0,0,.01c0,0,0-.01,0-.01Z"/>
    <polygon class="b" points="58.46 13.7 58.46 13.7 58.47 13.69 58.46 13.7"/>
    <path class="b" d="M59.5,13.69c-.27-.02-.37-.22-.64-.1-.13,0-.27.07-.4.11-.04.18-.17.02-.23.17l-.04-.09c-.02.05-.05.09-.08.04v-.03c-.03.08-.08.04-.1.08v-.03s-.05.02-.05.02v-.04c-.06.08-.13.1-.19.07l.02.11c-.15-.11-.17.13-.31,0v-.03c-.11.32-.27-.17-.39.14.01-.04-.02-.06-.02-.09-.07.04-.14.07-.11.3-.05,0-.05-.06-.07-.15.02.1-.02.15-.06.16v-.04s-.1.05-.1.05l.05.18c-.07-.04-.05-.22-.11-.17l.03.15c-.09-.02-.18-.24-.29-.34-.37,0-.66.47-1.06.29l-.05-.11c-.05-.16-.02.27-.08.12l-.02.09s-.05-.05-.04-.09c-.04,0-.03.03-.04.09l-.07-.09c-.16-.04-.25.21-.34.19-.17-.17-.35.06-.5.18-.23.27-.42-.43-.64-.18,0-.03-.03.03-.03.04l-.18-.07s-.21-.08-.41,0c-.18.09-.49.33-.28,1.19l-.02.03c.12.14.22.19.37.04-.04.23.12.05.14.14v.02c.12-.15.16.19.28.05,0,.02-.02.08-.04.08.07-.02.17-.06.16.08.17-.02.41.06.51-.16v.04c.05-.14.07-.02.13-.1,0,.02,0,.03,0,.03.06-.14.18-.03.23-.1v.09s.14-.04.14-.04h-.05c-.02-.26.12.13.19-.05.1.01.06-.53.17-.43,0-.12.01.19.05.09.03.12,0,.08.03.18.04-.07.14.1.19,0l.03.09c.03-.2.19.08.19-.1.06-.1.14.27.16.05l.07.12s-.02-.17.04-.11c.02.08.07.05.07.14.12.11.13-.23.3-.04-.01-.17.07-.08.06-.21.02.07.12-.02.09.15,0,.01-.01.01-.02-.01v.1c.12.16.11-.13.19-.11-.03-.03-.05-.01-.05-.08h.07s0,.08,0,.08l.1.03-.03-.1c.06.04.1.21.13.06,0-.08-.07-.13-.03-.17.08.06.19.14.27.16-.03-.11,0-.11.01-.14l.02.1c.06-.15.07.21.13.09v.07s0-.21,0-.21c.05-.21.07.2.12-.08-.03.02-.05-.21,0-.18v.1s.03-.06.04-.05c0,.05.01.14.04.12v.12s.03-.18.03-.18c.06.1.13-.04.16.09,0,0,.12.05.12-.1,0,.09.05.12.05.23.01-.11.09-.2.13-.1h0c.14.11.19-.17.32-.04-.02-.11.05-.06.01-.2.1-.16.25.27.23-.19.05-.03.08.1.11.12v.03c.09-.05.11-.06.19-.05.03-.05.01-.26.09-.22-.01.09.01.07.04.06-.01.02-.02.05.02.1,0-.03,0-.04.01-.06,0,0,0,.01,0,.02.04-.03.03-.06,0-.07,0-.01,0-.03-.01-.05.06.1.12-.02.14.12.12-.05.19-.21.29-.28.02.07,0,.14-.02.17l.07-.04c.01.11-.03.07-.06.09.11.16.16-.2.29-.05v-.09s.02.01.02.01c0-.04,0-.11.02-.12.03.09.03.21.08.2.05.08.11-.06.16-.12-.03-.01-.03-.06-.02-.1.03,0,.05.08.07.04l.02.12c-.03-.12.05-.14.05-.19.03.09-.03.09-.02.16.1-.03.05-.01.15-.04.04-.1-.03-.12-.02-.23.04-.03.08-.13.15-.06l-.04-.11c.08-.1.13-.1.21,0,.25-.51.21-.82.13-1.01-.09-.18-.22-.24-.22-.24-.29-.2-.35.14-.64.28Z"/>
  </g>
  <g>
    <path class="b" d="M219.89,9.81l-.04-.04s.02.04.04.04Z"/>
    <path class="b" d="M213.35,12.56s0,0,0,0c0,0,0,0,0,0Z"/>
    <polygon class="b" points="218.2 8.75 218.21 8.75 218.21 8.73 218.2 8.75"/>
    <path class="b" d="M220.11,8.33c-.55,0-.76-.17-1.24.08-.25.07-.46.22-.66.33-.03.2-.26.12-.31.3l-.08-.07c-.02.06-.04.11-.1.08v-.03c-.03.09-.11.08-.12.13v-.03s-.07.04-.07.04v-.04c-.06.11-.15.16-.25.17l.06.1c-.22-.04-.19.21-.4.13v-.03c-.11.37-.33-.1-.5.26.02-.04-.03-.05-.04-.08-.1.07-.21.13-.14.34-.08.02-.09-.05-.13-.12.03.09-.02.16-.08.18v-.05s-.15.09-.15.09l.1.16c-.11-.02-.1-.21-.17-.13l.06.15c-.13.02-.29-.18-.45-.24-.49.11-.89.67-1.33.44l-.03-.11c-.02-.17-.07.26-.1.1-.02.03-.02.06-.05.08-.02-.03-.08-.07-.04-.1-.08-.01-.08.01-.13.06l-.1-.12c-.24-.09-.46-.07-.64-.06-.06.09-.11.24-.2.33-.18.09-.38.38-.51.7-.11.29-.1.48-.11.67.04.26-.13.46-.28.7-.15.24-.27.52-.13.78-.02.02.03.06.05.06,0,.15,0,.31,0,.46,0,0,.07.56.34.81.28.28.57.15,1.08-.63h.04c.05-.19.05-.28-.15-.38.23-.04,0-.14.08-.19h.02c-.18-.1.14-.2-.01-.3.02,0,.08.01.08.03-.03-.07-.07-.17.07-.16-.02-.17.09-.37-.08-.53l.03.02c-.12-.1,0-.09-.04-.18.02,0,.03,0,.04,0-.11-.12.05-.21.02-.28l.08.03.04-.14-.04.04c-.21-.12.19-.04.07-.15.04,0-.33-.46-.18-.47-.05-.13.11.19.08.06.09.11.04.09.12.17-.01-.1.12.06.1-.07l.06.1c-.02-.05,0-.06,0-.06.05,0,.14.17.13.03.06-.08.09.3.14.1l.04.13c.07.02.04-.17.13-.11,0,.09.11.06.07.14.22.11.35-.24.63-.07.01-.17.15-.11.15-.23.03.07.22-.05.14.13,0,.02-.03.02-.03,0v.1c.19.14.21-.16.33-.18-.05-.02-.09,0-.08-.07l.11-.02v.09s.18,0,.18,0l-.06-.09c.09.02.18.18.22,0,.01-.09-.12-.1-.05-.16.12.03.31.07.44.06-.05-.1-.02-.11,0-.15l.04.09c.08-.18.12.19.21.04v.07s-.03-.21-.03-.21c.05-.23.13.17.16-.13-.04.03-.1-.2-.02-.18l.02.1s.02-.07.05-.06c0,.06.04.14.08.1v.12s.04-.2.04-.2c.1.07.17-.08.25.03-.01,0,.19,0,.19-.15,0,.1.11.1.11.21.02-.12.13-.25.22-.17v.02c.25.02.28-.29.5-.24-.06-.1.06-.09-.03-.21.11-.21.44.12.3-.32.06-.06.13.05.18.06v.03c.11-.1.15-.12.25-.16.03-.06-.05-.26.06-.25,0,.09.04.06.07.04-.02.02,0,.05.06.08,0-.03,0-.05,0-.06,0,0,0,.01,0,.02.04-.05.02-.07,0-.07,0-.01-.01-.03-.03-.04.1.07.16-.08.22.06.15-.1.21-.28.33-.38.04.07.03.14,0,.18l.09-.06c.03.1-.04.07-.06.11.16.13.18-.24.35-.11v-.09s.02.01.02.01c0-.04,0-.11.03-.13.04.09.04.21.1.19.06.08.13-.06.2-.12-.04-.01-.03-.06-.02-.1.03,0,.06.08.08.04v.13c0-.12.09-.13.1-.18.02.09-.05.08-.05.15.12-.01.06,0,.19-.02.07-.09,0-.12.03-.23.06-.02.14-.1.21-.01v-.11c.13-.08.22-.03.27.1.6-.29.84-.5.83-.73,0-.21-.23-.39-.23-.39-.46-.4-.87-.15-1.48-.04Z"/>
  </g>
  <g>
    <path class="b" d="M109.46,10.4l-.04-.04s.01.04.04.04Z"/>
    <path class="b" d="M100.93,11.3s0,0,0,.01c0,0,0-.01,0-.01Z"/>
    <polygon class="b" points="108 8.97 108 8.97 108.01 8.95 108 8.97"/>
    <path class="b" d="M109.75,8.93c-.46-.02-.6-.22-1.07-.09-.23,0-.46.08-.68.12-.09.18-.29.03-.4.18l-.06-.09c-.04.05-.08.09-.13.04v-.03c-.06.08-.13.04-.16.08v-.03s-.08.02-.08.02v-.04c-.09.09-.21.1-.31.08l.02.11c-.23-.11-.28.14-.49,0v-.03c-.21.33-.41-.17-.63.15.03-.04-.02-.06-.02-.09-.11.05-.23.08-.21.3-.08,0-.08-.06-.1-.15.01.1-.06.15-.12.16l.03-.04-.18.05.06.18c-.11-.04-.05-.23-.14-.17l.02.16c-.14-.02-.25-.24-.39-.34-.56,0-1.12.45-1.66.23l-.04-.11c-.03-.17-.12.27-.15.11l-.05.08s-.06-.06-.03-.1c-.06,0-.05.03-.09.08l-.07-.1c-.23-.06-.39.16-.63.15-.3-.19-.8.06-1.09.21-.4.3-.95-.34-1.35-.01-.02-.02-.05.03-.05.05h-.39s-.48.03-.76.2c-.28.18-.39.53.39,1.19v.04c.22.08.36.08.5-.12.04.23.18,0,.24.08v.02c.12-.19.28.12.4-.05,0,.02,0,.08-.03.09.09-.04.22-.1.23.03.22-.05.54-.02.66-.25v.04c.06-.15.1-.03.18-.11,0,.02.01.03.01.03.08-.15.26-.05.32-.11v.09s.19-.04.19-.04h-.07c0-.26.15.13.26-.04.12.02.19-.53.33-.42.05-.12-.03.19.05.09.02.13-.03.08,0,.18.08-.07.16.12.25.02v.1c.14-.2.29.1.37-.08.14-.1.13.28.26.07l.07.13c.07.01.03-.17.11-.11,0,.08.1.06.06.14.18.11.31-.22.54-.02.03-.17.15-.08.17-.21.01.07.22-.01.11.16,0,.01-.03.01-.03-.01v.1c.14.17.21-.12.33-.11-.04-.03-.09-.01-.06-.09h.11s-.01.09-.01.09l.17.03-.03-.1c.09.04.13.21.21.06.03-.08-.09-.13,0-.17.12.06.29.14.43.16-.03-.11.01-.11.05-.14l.02.1c.13-.15.08.21.21.09v.07s.01-.21.01-.21c.11-.21.09.2.21-.09-.06.02-.05-.22.03-.18v.1s.04-.07.07-.05c-.02.05,0,.14.06.12l-.03.12.09-.19c.1.09.22-.05.26.08,0,0,.19.05.21-.11-.03.1.08.12.06.23.04-.11.17-.21.23-.1h0c.22.1.33-.18.53-.06-.02-.11.08-.06.04-.21.18-.17.38.26.4-.2.08-.03.11.1.16.11l-.02.03c.16-.05.21-.06.33-.06.06-.05.04-.26.16-.22-.03.09.02.07.06.06-.02.02-.03.05.03.1,0-.03.01-.04.02-.06,0,0,0,.01,0,.02.06-.04.05-.06.02-.07,0-.01,0-.03-.02-.05.08.1.19-.03.22.12.2-.05.33-.22.49-.29.03.07,0,.14-.05.18l.12-.04c0,.11-.06.07-.1.09.16.16.28-.2.46-.06l.03-.09h.01s.03-.1.05-.11c.03.09.02.21.1.2.07.08.18-.06.26-.12-.05-.01-.04-.06-.02-.1.04,0,.07.08.1.04v.13c-.01-.12.11-.14.12-.19.03.09-.06.08-.06.16.16-.02.08-.01.25-.04.08-.1-.03-.12,0-.23.08-.03.15-.12.24-.06l-.04-.11c.14-.1.23-.09.34.01,1.05-.98.15-1.26.15-1.26-.46-.22-.67.13-1.18.25Z"/>
  </g>
  <g>
    <path class="b" d="M28.71,15.48v-.05s-.01.04,0,.05Z"/>
    <path class="b" d="M24.3,16.23h0s0,0,0,0Z"/>
    <polygon class="b" points="28.08 13.85 28.08 13.85 28.09 13.84 28.08 13.85"/>
    <path class="b" d="M29.17,14.09c-.27-.1-.33-.33-.64-.27-.14-.03-.3.01-.44.03-.07.16-.18,0-.26.14l-.03-.1s-.06.08-.09.03v-.03c-.04.07-.08.03-.1.07v-.03s-.05.01-.05.01v-.04c-.06.08-.13.09-.2.06v.12c-.13-.12-.16.12-.29-.02v-.03c-.12.32-.27-.18-.38.13.01-.04-.02-.06-.02-.09-.07.04-.14.07-.1.3-.05,0-.05-.06-.07-.15.02.1-.02.15-.06.16v-.04s-.09.05-.09.05l.06.18c-.07-.04-.06-.22-.1-.17l.03.15c-.09-.01-.18-.24-.28-.34-.35,0-.6.48-.97.31l-.05-.11c-.06-.16,0,.27-.07.12v.09s-.06-.05-.05-.09c-.03,0-.03.03-.03.09l-.07-.09c-.15-.04-.19.19-.33.2-.23-.15-.45.15-.57.32-.13.33-.58-.24-.54.03,0-.02,0,.03,0,.05-.03,0-.05-.02-.07-.03,0,0-.06-.02-.2.07-.07.05-.19.12-.3.28-.1.16-.25.42-.1.88l-.02.03c.14.16.29.22.44.05-.01.23.15.04.19.11v.02c.11-.17.26.14.36-.04,0,.02,0,.08-.02.09.09-.04.16-.12.2.01.17-.08.38-.09.39-.32v.04c0-.15.06-.04.08-.13,0,.02.02.02.02.03,0-.15.13-.07.14-.14l.03.08.08-.05h-.04c-.08-.24.12.11.13-.06.07,0-.05-.52.06-.43,0-.12.04.19.05.09.04.12,0,.08.05.17.02-.07.12.1.14,0l.03.09c.01-.2.18.08.17-.1.05-.1.14.26.16.05l.07.12s-.03-.16.03-.11c.02.08.07.05.07.13.12.1.11-.23.28-.05-.02-.16.06-.08.04-.21.02.07.11-.02.09.15,0,.01-.01.01-.02-.01l.02.1c.11.16.08-.13.15-.12-.03-.03-.05-.01-.05-.08h.06s0,.08,0,.08l.09.03-.03-.1c.05.04.11.21.12.06,0-.08-.07-.13-.03-.17.07.06.17.14.25.16-.03-.11,0-.11,0-.14l.02.1c.05-.15.07.21.12.09v.07s-.01-.21-.01-.21c.03-.21.07.2.1-.08-.03.02-.05-.21,0-.18v.1s.02-.06.04-.05c0,.05.02.14.04.12v.12s.03-.18.03-.18c.06.1.11-.04.14.09,0,0,.1.05.1-.1,0,.09.05.12.04.23.01-.11.07-.2.11-.09h0c.11.12.16-.16.26-.03-.01-.12.04-.05.02-.2.09-.15.19.29.21-.17.04-.02.06.11.08.13v.02c.07-.04.1-.04.16-.03.03-.04.04-.26.1-.2-.02.08,0,.07.02.07-.01.01-.02.04,0,.1,0-.03.01-.04.02-.05,0,0,0,.01,0,.02.04-.03.03-.05.02-.07,0-.01,0-.03,0-.05.03.11.1,0,.1.14.11-.03.19-.17.29-.22,0,.08-.02.14-.05.16l.06-.02c-.01.11-.04.06-.06.08.05.18.17-.16.24.01l.03-.08h0s.03-.09.05-.1c0,.09-.03.21.01.21.02.09.1-.03.15-.07-.02-.02,0-.07.01-.1.02,0,.02.09.04.06l-.02.12c.01-.12.08-.12.1-.16,0,.09-.05.07-.07.14.09,0,.04,0,.13.01.06-.08.02-.12.06-.22.05-.02.11-.09.14,0v-.11c.11-.07.16-.04.18.08.85-.71.48-1.16.46-1.16-.21-.32-.44-.03-.77,0Z"/>
  </g>
  <g>
    <path class="b" d="M251.72,8.03l-.04-.04s.02.04.04.04Z"/>
    <path class="b" d="M243.93,9.54s0,0,0,.01c0,0,0-.01,0-.01Z"/>
    <polygon class="b" points="250.22 6.72 250.22 6.72 250.23 6.71 250.22 6.72"/>
    <path class="b" d="M251.82,6.54c-.42.02-.57-.17-.98,0-.21.02-.41.11-.61.18-.06.18-.26.05-.35.21l-.06-.09c-.03.05-.07.1-.12.05v-.03c-.05.08-.12.05-.14.09v-.03s-.07.03-.07.03v-.04c-.08.09-.18.12-.28.1l.03.11c-.22-.09-.25.16-.45.04v-.03c-.17.34-.39-.14-.57.19.02-.04-.02-.06-.03-.08-.1.05-.21.09-.17.32-.08.01-.08-.06-.1-.14.02.1-.04.15-.1.17l.02-.04-.17.07.07.18c-.1-.04-.07-.22-.15-.16l.03.15c-.13,0-.25-.22-.39-.31-.52.03-.99.53-1.51.35l-.04-.11c-.04-.17-.08.27-.13.12l-.04.09s-.06-.05-.04-.1c-.05,0-.05.03-.07.09l-.07-.09c-.22-.04-.35.19-.57.19-.29-.16-.73.12-.99.29-.34.33-.92-.26-1.26.11-.02-.02-.04.04-.04.06l-.37.05s-1.77.27-.17,1.41v.04c.21.05.34.05.44-.16.06.22.17,0,.23.06v.02c.09-.2.28.1.36-.08,0,.02,0,.08-.02.09.08-.04.19-.12.22.01.2-.07.49-.07.58-.3v.04c.04-.16.09-.04.16-.13,0,.02.02.02.02.03.05-.16.23-.07.28-.14l.02.09.16-.05h-.06c-.03-.25.15.12.24-.06.11,0,.13-.54.26-.45.03-.12-.01.19.05.09.03.12-.02.09.02.18.07-.07.15.1.24,0l.02.1c.09-.2.27.08.32-.1.12-.11.14.27.24.06l.08.12c.06.01.01-.17.09-.12.01.08.09.05.07.14.17.1.26-.24.5-.06.01-.17.13-.09.13-.22.02.07.2-.03.12.15,0,.01-.02.02-.03-.01v.1c.15.16.19-.14.3-.13-.04-.03-.08,0-.06-.08h.1s0,.08,0,.08l.16.02-.04-.1c.08.04.14.2.2.04.02-.09-.1-.12-.02-.17.11.05.28.12.41.13-.03-.11,0-.11.03-.14l.02.1c.11-.16.09.21.2.07v.07s0-.21,0-.21c.08-.22.1.19.19-.1-.05.03-.07-.21,0-.18v.1s.04-.07.07-.05c-.01.06.02.14.06.11v.12s.05-.19.05-.19c.1.09.19-.06.25.06,0,0,.18.03.19-.12-.02.1.08.11.08.23.02-.11.13-.22.21-.12h0c.21.09.29-.2.49-.1-.03-.11.07-.07.02-.21.15-.18.38.23.35-.23.07-.04.11.09.16.1v.03c.13-.07.17-.08.28-.09.05-.05.02-.26.12-.23-.02.09.02.07.06.06-.02.02-.02.05.04.1,0-.03,0-.04.02-.06,0,0,0,.01,0,.02.06-.04.04-.06,0-.07,0-.01,0-.03-.02-.05.08.09.18-.04.21.1.18-.07.28-.24.43-.33.03.07,0,.14-.03.18l.1-.05c.02.11-.05.07-.08.1.16.15.24-.22.42-.09l.02-.09h.01s.01-.1.03-.12c.04.09.04.21.11.19.08.08.16-.08.23-.14-.05,0-.04-.06-.03-.1.04-.01.08.08.1.03l.03.12c-.04-.11.07-.14.08-.2.04.09-.04.09-.04.16.15-.04.07-.02.22-.06.06-.11-.04-.11-.02-.23.07-.04.12-.14.22-.08l-.05-.1c.12-.11.2-.11.31-.02.05-.07.1-.14.15-.2.04-.08.01-.14,0-.2-.03-.11-.06-.21-.09-.3-.06-.17-.16-.25-.25-.29-.12-.02-.27.06-.31.03.01.01-.05-.04.03.03.07.06.13.12.19.17.08.07.14.13.19.18.08.08.09.1.1.11.05.07.07.11.07.12h0s0,0,0,0h0s-.18-.93-.18-.93h0s0,0,0,0h0s-.02,0-.02,0h-.04s-.09-.01-.13,0c-.08.01-.16.05-.23.09-.15.09-.3.22-.52.31Z"/>
  </g>
  <g>
    <path class="b" d="M163.98,20.91l.05-.03s-.04,0-.05.03Z"/>
    <path class="b" d="M169.35,20.44h.01s-.01,0-.01,0Z"/>
    <polygon class="b" points="165.75 19.66 165.75 19.66 165.76 19.67 165.75 19.66"/>
    <path class="b" d="M165.3,21.66c.17-.53.4-.64.4-1.2.06-.26.04-.54.05-.79-.15-.14.04-.32-.08-.48l.1-.04s-.06-.13-.01-.11h.03c-.07-.02-.03-.03-.06-.04h.03s0-.01,0-.01l.04.02c-.07-.05-.07-.1-.03-.09l-.11-.08c.12.05-.08-.22.07-.11l.02.04c-.11-.23-.06-.22-.01-.16.05.05.09.14.02-.16.02.08.04.11.05.16,0-.09,0-.15-.1-.64.03-.03.05.16.09.33-.04-.21-.03-.27-.01-.25v.06s.05.01.05.01h0s-.01-.08-.01-.08l-.05-.29s.01.04.02.06c.04.16.05.38.07.34l-.03-.28c.07.14.12.57.13.77.05.11.11.06.23.12.03.01.05.02.09.05.06.06.11.12.16.18.1.12.18.26.22.42l-.07.1c-.12.12.3-.04.19.08h.1s0,.09-.06.09c.04.05.06.04.13.04l-.04.12c.1.25.4.28.54.51.04.39.6.71.92.89.52.19.41,1.08.98,1.24,0,.03.06.02.08,0l.31.35s.39.41.76.53c.37.12.67-.06.56-1.13l.03-.02c-.11-.23-.21-.35-.46-.34.14-.18-.12-.16-.11-.25h.02c-.23,0-.11-.33-.32-.32.02,0,.06-.05.09-.03-.09-.05-.23-.12-.14-.22-.2-.16-.39-.45-.65-.43l.03-.02c-.17.03-.1-.07-.22-.1,0-.02.01-.03.02-.03-.17.02-.21-.2-.31-.22l.06-.06-.15-.13.04.07c-.2.14.02-.22-.2-.22-.07-.12-.57.13-.57-.06-.13.02.18-.08.05-.1.09-.09.09-.02.15-.1-.11-.04,0-.21-.15-.24l.07-.07c-.24,0-.09-.31-.3-.28-.17-.07.15-.27-.1-.28l.06-.14c-.03-.07-.16.07-.16-.04.07-.05-.01-.12.08-.14-.02-.22-.38-.16-.36-.49-.17.05-.14-.07-.3-.06.05-.05-.25-.33,0-.26.02,0,.04.04.02.06l.09-.05c-.04-.35-.36-.28-.49-.49.03.09.09.15.02.17l-.13-.18.07-.05-.2-.32v.15c-.09-.18-.08-.45-.24-.42-.07.04.06.3-.05.21-.11-.25-.31-.66-.5-.95.02.21-.03.14-.07.12v-.18c-.19,0-.12-.48-.3-.53v-.11s0,.16,0,.16v.21c-.05.41-.1-.28-.15.24.04-.06.08.32,0,.27v-.14c-.04.05-.03.09-.07.1,0-.1-.02-.2-.08-.1v-.2s-.05.36-.05.36c-.12-.01-.17.29-.26.18,0,0-.18.14-.13.35-.02-.15-.12-.07-.15-.23.01.16-.03.46-.14.41v-.03c-.12.07-.15.28-.16.47-.01.19-.04.34-.13.48.1.07.01.21.15.26.07.39-.41.55.02.81,0,.16-.13.17-.16.21l-.02-.03c.01.19,0,.25-.02.38.04.07.24.11.18.23-.08-.05-.07,0-.08.05,0-.03-.04-.04-.1,0,.02.01.04.03.05.04,0,0-.01,0-.02,0,.02.08.05.07.06.04.01,0,.03,0,.05,0-.12.06-.02.22-.17.21,0,.23.13.41.16.61-.08,0-.14-.04-.16-.1v.14c-.1-.02-.04-.08-.06-.13-.19.13.12.35-.07.51l.08.05h-.02s.1.07.11.1c-.1,0-.21-.04-.22.05-.1.05,0,.21.04.31.03-.05.07-.02.1,0,0,.05-.1.05-.07.09l-.12-.02c.12,0,.1.14.14.17-.1,0-.06-.09-.13-.11-.03.18-.01.09-.04.27.07.11.12.01.21.09,0,.09.06.19-.04.27h.12c.04.19-.01.28-.16.34.2.73.38.99.62.99.22,0,.43-.25.43-.25.46-.47.24-.88.29-1.5Z"/>
  </g>
  <g>
    <path class="b" d="M99.55,11.68h-.05s.04,0,.05,0Z"/>
    <path class="b" d="M98.85,14.41h0s0,0,0,0Z"/>
    <polygon class="b" points="97.93 11.69 97.93 11.69 97.92 11.69 97.93 11.69"/>
    <path class="b" d="M98.2,11.16c-.09.13-.31.12-.27.3-.04.07,0,.16,0,.24.15.08-.02.1.1.17h-.1s.07.04.02.04h-.03c.06.03.02.04.05.06h-.03s0,.02,0,.02h-.04c.07.04.06.08.02.1l.11.02c-.14.04.08.12-.08.15h-.03c.28.14-.24.07.02.22-.03-.02-.06,0-.09-.02.02.05.03.09.25.14-.01.03-.08,0-.16,0,.1.02.13.06.13.08l-.04-.02.02.07.19.03c-.06.02-.23-.04-.19,0l.15.03s-.28.03-.4.02c-.09.08.22.44-.08.52l-.12-.02c-.17-.04.23.12.08.08l.07.04s-.07,0-.1-.02c-.01.02.02.02.06.05h-.11c-.1.04.08.16.02.22-.23.03-.09.26,0,.38.21.2-.49.19-.25.4-.02,0,.02.02.04.03l-.06.12s-.23.6,1.27.49h.04c.11-.03.14-.07-.03-.17.23.05.04-.05.11-.05h.02c-.16-.08.17-.04.02-.12.02,0,.08.02.08.03-.02-.04-.06-.09.07-.06-.02-.08.07-.16-.12-.26h.04c-.13-.05-.01-.03-.08-.07.02,0,.03,0,.03,0-.13-.07,0-.09-.05-.13l.09.02v-.06s-.03.02-.03.02c-.23-.07.16,0,.02-.08.04-.03-.47-.21-.34-.22-.11-.05.18.07.1.01.12.03.07.03.17.05-.05-.04.14-.01.06-.07l.1.03c-.16-.09.15-.05-.01-.12-.07-.07.29.05.12-.05l.13.02s-.15-.06-.09-.06c.08.02.07-.01.15.02.14-.01-.15-.15.08-.16-.15-.06-.05-.07-.17-.11.07.02.03-.06.17.02.01,0,0,.01-.02,0l.09.03c.19.01-.08-.1-.04-.13-.03,0-.03.02-.09,0l.02-.03.08.03.06-.04-.1-.02c.06-.01.23.03.09-.04-.07-.04-.14-.01-.16-.05.04-.01.08,0,.13-.04.06-.08.09-.06.11-.09-.11-.02-.11-.03-.13-.05l.1.02c-.12-.08.22.03.12-.04l.07.02-.2-.06c-.18-.08.21.02-.04-.08.01.02-.22-.04-.17-.05l.09.03s-.05-.03-.03-.03c.05.02.14.04.12.01l.11.04-.16-.07c.11,0,0-.07.13-.05,0,0,.08-.04-.06-.09.09.03.13,0,.23.04-.1-.04-.17-.1-.06-.09h.01c.13-.03-.12-.14.03-.16-.11-.02-.04-.04-.19-.07-.13-.1.32-.04-.12-.17-.02-.03.11,0,.14-.01h.02s-.02-.06,0-.1c-.04-.03-.24-.09-.18-.11.08.03.07.01.07,0,.01.01.04.02.1.02-.02,0-.04-.02-.05-.02,0,0,.01,0,.02,0-.02-.03-.05-.03-.06-.02-.01,0-.03,0-.05,0,.11,0,0-.06.15-.03-.02-.07-.15-.16-.19-.22.07.01.13.04.16.07l-.02-.04c.1.03.05.04.07.05.18,0-.14-.14.02-.15l-.08-.03h.01s-.1-.04-.11-.05c.09.02.21.06.21.03.09,0-.03-.07-.07-.11-.02.01-.07,0-.1-.02,0-.01.09,0,.06-.02l.12.03c-.12-.03-.11-.07-.16-.09.09.02.07.04.14.06,0-.06,0-.03,0-.08-.08-.05-.12-.03-.22-.07-.02-.03-.1-.08-.01-.09l-.11-.02c-.07-.07-.05-.1.07-.1-.78-.61-1.17-.43-1.17-.43-.28.07.02.24.06.43Z"/>
  </g>
  <g>
    <path class="b" d="M181.61,14.4l-.08.03s.04,0,.08-.03Z"/>
    <path class="b" d="M190.75,14.74v-.02s0,.02,0,.02Z"/>
    <path class="b" d="M178.82,16.87h0s0-.02,0-.03v.03Z"/>
    <path class="b" d="M181.35,12.63c-1.02.86-1.44,1.09-1.98,2.38-.28.62-.42,1.22-.55,1.86.09.32-.15.85-.02,1.25-.04.05-.06.1-.09.16.06.14.09.29.06.45h-.03c.1.2.11.45.19.55h-.03s.1.26.1.26l-.05-.03c.22.34.44.68.65.95l.07-.1c.41.62.77.53,1.19.95l-.02.02c.77.05.93.64,1.73.58-.1.01.02.07,0,.09.33.05.68.09.72-.13.23.04.17.1.19.19.01-.1.22-.11.4-.09l-.09.03.51.02-.08-.2c.26.07.05.24.31.21v-.16c.38.05.58.29.99.39.26-.02.49-.01.9-.18l-.15.05c1.3-.33,2.5-1.1,3.6-1.75l.13.05c.14.11.14-.47.28-.39l.06-.18c.06-.01.15-.07.12.02.12-.11.09-.14.13-.26l.19-.06c.46-.44.6-1.01.92-1.61.27-.33.47-.93.5-1.53.04-.61-.07-1.21-.19-1.63-.1-.29-.17-.59-.24-.9-.07-.33-.2-.75-.42-1.08-.44-.69-1.16-1.11-1.82-1.15-.03-.04-.15,0-.16.01-.38-.1-.75-.17-1.13-.21,0,0-.09,0-.23-.01-.13,0-.37,0-.53,0-.34,0-.81-.03-1.21,0-.8.04-1.15.34.65,1.31l-.03.03c.28.08.58.12.77.11.19,0,.35-.04.54-.12.03.23.41.07.51.17v.02c.33-.12.54.28.83.24-.02.01-.05.07-.1.05.19.04.44.13.37.25.18.1.35.25.46.4.12.15.2.29.35.45h-.04c.19.13.08.22.19.41-.02.01-.02.03-.03.03.18.18.1.59.16.75h-.09c0,.15.02.28.01.42l.03-.15c.24.07-.16.3-.05.6-.07.25.38.68.15.94.06.18-.13-.18-.12.05-.12-.04-.04-.12-.15-.11-.02.22-.24.26-.28.51l-.09-.04c0,.37-.43.44-.42.72-.15.32-.37,0-.45.38h-.19c-.12.09.05.2-.12.26-.05-.07-.2.09-.18-.03-.34.13-.45.62-.99.67-.01.19-.27.22-.29.36-.04-.05-.46.19-.27-.06.02-.02.05-.04.06,0v-.1c-.33-.06-.43.28-.71.35.09,0,.19-.04.14.05l-.25.07.03-.1-.39.06.08.08c-.2,0-.3-.15-.48.03l-.05.32v-.03c-.1-.18-.06-.09,0,.03l.07-.23s.1.04.02.08l-.09.16s-.03-.07-.05-.11c-.05-.04-.47-.1-.76-.14.03.12-.06.11-.15.13v-.1c-.36.12-.12-.22-.46-.14l.04-.07-.11.2c-.33.16-.14-.22-.52,0,.14,0,.04.23-.13.16l.06-.09c-.1,0-.13.04-.19.01.06-.04.05-.13-.09-.14l.11-.1-.28.13c-.18-.14-.5-.09-.53-.24,0,0-.38-.2-.53-.09.11-.06-.09-.17.01-.25-.13.06-.47.02-.52-.14h.03c-.33-.29-.73-.24-.84-.57-.08.09-.14-.08-.22.04-.35-.23.01-.61-.45-.64-.06-.17.07-.22.09-.31l.03.04c-.06-.32-.04-.44,0-.7-.02-.14-.24-.2-.13-.44.06.1.07,0,.09-.1,0,.06.03.09.11-.02-.02-.02-.03-.05-.04-.08,0,0,.01,0,.02,0,.02-.16-.02-.14-.05-.07-.01,0-.03,0-.06.01.15-.13.12-.46.27-.44.13-.49.11-.86.24-1.25.09,0,.1.11.08.22.03-.09.06-.18.1-.27.09.05-.02.17-.04.26.29-.22.17-.69.54-.92l-.02-.11h.03s-.03-.14,0-.2c.11.02.16.14.28,0,.16-.05.26-.33.38-.51-.09.06-.1,0-.09-.06.07-.06.18-.03.21-.1l.09.09c-.11-.07.12-.26.13-.31.1.05-.08.15-.06.22.31-.22.15-.12.47-.33.13-.19-.09-.08-.06-.23.15-.12.29-.27.52-.3l-.11-.08c.31-.22.53-.28.8-.25.6-.41.98-.64,1.15-.83.17-.19.14-.31.03-.39-.12-.08-.34-.12-.53-.14-.19,0-.35,0-.35,0-1.28.06-1.9.59-3.04,1.59Z"/>
  </g>
</svg>