<?xml version="1.0" encoding="UTF-8"?>
<svg id="a" data-name="Layer 1" xmlns="http://www.w3.org/2000/svg" width="386.91" height="386.91" viewBox="0 0 386.91 386.91">
  <defs>
    <style>
      .b {
        fill: #f2f2f2;
        font-family: Rockwell-Regular, Rockwell;
        font-size: 50px;
      }

      .c {
        fill: #e57607;
        stroke-width: 0px;
      }
    </style>
  </defs>
  <circle class="c" cx="193.46" cy="193.46" r="193.46"/>
  <text class="b" transform="translate(117.67 287.2) rotate(-131.34)"><tspan x="0" y="0">V</tspan></text>
  <text class="b" transform="translate(92.41 256.56) rotate(-117.99)"><tspan x="0" y="0">I</tspan></text>
  <text class="b" transform="translate(84.02 242.72) rotate(-106.26)"><tspan x="0" y="0">E</tspan></text>
  <text class="b" transform="translate(72.89 212.7) rotate(-85.78)"><tspan x="0" y="0">W</tspan></text>
  <text class="b" transform="translate(79.7 158.36) rotate(-69.58)"><tspan x="0" y="0"> </tspan></text>
  <text class="b" transform="translate(84.42 145.68) rotate(-63.03)"><tspan x="0" y="0"> </tspan></text>
  <text class="b" transform="translate(89.75 133.67) rotate(-53.08)"><tspan x="0" y="0">S</tspan></text>
  <text class="b" transform="translate(106.15 111.18) rotate(-38.78)"><tspan x="0" y="0">E</tspan></text>
  <text class="b" transform="translate(131.24 91.14) rotate(-24.28)"><tspan x="0" y="0">L</tspan></text>
  <text class="b" transform="translate(156.95 79.13) rotate(-9.69)"><tspan x="0" y="0">E</tspan></text>
  <text class="b" transform="translate(188.34 72.98) rotate(7.33)"><tspan x="0" y="0">C</tspan></text>
  <text class="b" transform="translate(227.75 78.46) rotate(24.56)"><tspan x="0" y="0">T</tspan></text>
  <text class="b" transform="translate(256.84 91.58) rotate(39.87)"><tspan x="0" y="0">E</tspan></text>
  <text class="b" transform="translate(281.81 111.6) rotate(56.57)"><tspan x="0" y="0">D</tspan></text>
  <text class="b" transform="translate(301.96 144.49) rotate(68.96)"><tspan x="0" y="0"> </tspan></text>
  <text class="b" transform="translate(306.82 157.11) rotate(75.53)"><tspan x="0" y="0"> </tspan></text>
  <text class="b" transform="translate(310.89 169.56) rotate(85.97)"><tspan x="0" y="0">P</tspan></text>
  <text class="b" transform="translate(313.29 199.32) rotate(100.69)"><tspan x="0" y="0">R</tspan></text>
  <text class="b" transform="translate(308.31 230.88) rotate(118.36)"><tspan x="0" y="0">O</tspan></text>
  <text class="b" transform="translate(287.14 267.04) rotate(132.27)"><tspan x="0" y="0">J</tspan></text>
  <text class="b" transform="translate(276.75 279.8) rotate(143.94)"><tspan x="0" y="0">E</tspan></text>
  <text class="b" transform="translate(251.39 299.26) rotate(161.14)"><tspan x="0" y="0">C</tspan></text>
  <text class="b" transform="translate(213.57 311.73) rotate(178.3)"><tspan x="0" y="0">T</tspan></text>
  <text class="b" transform="translate(181.61 312.57) rotate(-167.46)"><tspan x="0" y="0">S</tspan></text>
</svg>