<?xml version="1.0" encoding="UTF-8"?>
<svg id="a" xmlns="http://www.w3.org/2000/svg" width="113.94" height="35.21" viewBox="0 0 113.94 35.21">
  <defs>
    <style>
      .b {
        fill: none;
        stroke: #4a4841;
        stroke-linecap: round;
        stroke-linejoin: round;
      }

      .c {
        fill: #615f59;
        stroke-width: 0px;
      }
    </style>
  </defs>
  <g>
    <path class="c" d="M48.23,19.41l-.08.1s.05-.02.08-.1Z"/>
    <path class="c" d="M61.31,18.49s-.01-.01-.02-.02c.01.01.02.02.02.02Z"/>
    <path class="c" d="M46.44,24.51h0s-.01-.03-.02-.04l.02.04Z"/>
    <path class="c" d="M47.56,17.29c-.6.87-.84,1.49-1.04,2.1-.2.62-.31,1.25-.3,2.22-.03.46-.02.93.01,1.39.02.47.11,1.03.22,1.49.27.4.32,1.21.68,1.64v.23c.1.15.23.32.26.5h-.03c.18.21.29.49.39.59h-.03s.17.28.17.28l-.06-.03c.31.35.58.74.81,1.1l.08-.1c.45.79.85.86,1.34,1.53h-.03c.49.24.78.53,1.11.8.32.28.7.55,1.29.61-.15-.02.04.08.02.11.58.15,1.16.16,1.18-.07.37,0,.3.08.35.17,0-.1.32-.15.59-.19l-.13.05c.27-.03.53-.09.79-.15l-.19-.17c.41-.02.16.23.53.08l-.04-.16c.55-.11.95.02,1.51-.08,1.1-.4,2.1-1.1,2.98-1.88.9-.78,1.61-1.73,2.29-2.56l.15-.02c.18.05.07-.65.25-.64l.04-.26c.06-.05.16-.17.14-.04.11-.21.08-.23.1-.41l.2-.19c.43-.85.43-1.69.55-2.67.16-.59.15-1.49-.1-2.34-.23-.86-.66-1.63-1.04-2.17-.57-.71-1.12-1.51-1.86-2.19-.73-.68-1.63-1.22-2.55-1.35-.05-.04-.21-.04-.22-.02-.53-.16-1.07-.28-1.62-.36,0,0-.12-.01-.33-.03-.21-.02-.49-.05-.82-.04-.65-.02-1.45.08-2.05.23-.59.17-.97.37-.84.55.13.2.79.31,2.16.63l-.03.04c.8.07,1.28.14,1.85.01.05.26.64.12.8.26l-.02.02c.52-.07.9.4,1.37.43-.02.01-.06.07-.15.03.32.09.74.25.69.39.72.32,1.46,1.05,1.93,1.3h-.05c.3.12.25.26.49.49,0,.02,0,.05,0,.05.31.17.47.78.61.99l-.08.05c.09.19.16.39.23.58l-.05-.23c.28,0,0,.5.25.9.04.41.66.82.52,1.3.12.23-.2-.2-.1.13-.13,0-.08-.15-.19-.07.05.32-.16.5-.13.89h-.11c.11.54-.33.88-.27,1.25-.1.52-.4.21-.43.79-.07.04-.15.08-.22.13-.13.19.08.23-.1.42-.07-.06-.23.24-.22.07-.39.4-.48,1.14-1.14,1.53.02.23-.32.43-.32.61-.07-.04-.58.5-.37.09.02-.03.07-.07.08-.05l-.03-.11c-.43.13-.52.58-.9.8.12-.04.26-.15.21-.03l-.34.22.02-.12c-.17.1-.35.18-.53.27l.12.05c-.28.11-.46-.02-.67.28-.09.15.31,0,.05.17-.39.11-.96.25-1.43.37.08.1-.04.14-.17.2l-.05-.1c-.45.27-.24-.16-.69.05l.03-.08-.08.24c-.41.29-.26-.18-.71.16.19-.05.11.24-.14.18l.06-.1c-.13.02-.17.06-.26.04.08-.06.04-.14-.14-.14.04-.04.08-.07.12-.12-.12.06-.22.1-.35.15-.13-.06-.26-.11-.4-.13-.14-.05-.27-.11-.29-.19,0,0-.13-.07-.27-.15-.15-.07-.32-.15-.42-.13.15-.01-.11-.23.04-.27-.19.02-.63-.21-.7-.43h.04c-.45-.53-1-.74-1.29-1.34-.08.1-.23-.22-.31-.06-.54-.48-.41-1.21-.94-1.2-.16-.27-.07-.39-.12-.54l.06.06c-.28-.52-.33-.68-.46-1.09-.1-.19-.33-.17-.37-.56.11.1.06-.05.04-.19.03.09.07.11.09-.09-.03-.02-.06-.06-.08-.09,0,0,.01-.01.02,0-.07-.23-.09-.19-.09-.07-.01,0-.03,0-.05.05.07-.26-.08-.68.08-.73-.05-.77-.21-1.32-.22-1.96.08-.07.14.09.16.27v-.45c.12.01.05.26.06.4.22-.5-.1-1.11.21-1.66l-.06-.14.02-.03s-.07-.15-.05-.24c.12-.05.21.07.3-.2.17-.17.2-.6.33-.87-.1.13-.12.06-.11-.02.07-.13.2-.14.23-.25l.11.07c-.13-.03.11-.38.13-.45.12,0-.09.22-.05.3.37-.43.17-.22.59-.61.18-.27-.12-.06-.08-.25.2-.21.4-.43.72-.54l-.15-.04c.44-.36.76-.5,1.15-.54.87-.63,1.39-.99,1.61-1.24.22-.25.16-.37-.02-.42-.18-.05-.49-.02-.75.01-.26.03-.48.1-.48.1-.88.17-1.52.51-2.15.94-.62.45-1.28,1.03-1.93,2.04Z"/>
  </g>
  <g>
    <path class="c" d="M84.75,20.17l-.07.09s.05-.02.07-.09Z"/>
    <path class="c" d="M70.55,23.72s0-.01-.01-.02c0,.02.01.02.01.02Z"/>
    <path class="c" d="M82.22,23.57h0s0-.02,0-.03v.03Z"/>
    <path class="c" d="M83.52,18.66c-.34,1.31-.63,1.6-.85,2.96-.17.63-.3,1.32-.45,1.94.08.34-.23.8-.21,1.18l-.14.1c.01.13,0,.28-.09.38l-.03-.02c.01.2-.1.38-.09.48l-.03-.02-.06.21-.03-.05c-.04.32-.15.64-.29.88l.12.03c-.35.49-.23.79-.63,1.16l-.02-.02c-.09.74-.73.7-.98,1.33.04-.08-.07-.03-.08-.05-.19.22-.44.4-.32.61-.19.11-.19.03-.26-.04.06.09-.09.23-.25.3l.05-.07c-.14.08-.29.16-.44.23l.16.15c-.28.04-.15-.2-.37-.07l.05.16c-.38.08-.65-.12-1.01-.19-.72.05-1.56.13-2.32.08-.76-.04-1.48-.31-1.82-.81l.04-.12c.12-.14-.41-.04-.31-.2l-.15-.06c0-.05-.02-.14.06-.1-.07-.1-.09-.1-.18-.15l.03-.18c-.14-.49-.47-.9-.52-1.54.13-.73-.09-2.32-.24-3.21-.29-1.26.43-2.7.21-3.97.03-.04-.02-.15-.04-.15.04-.38.08-.77.13-1.15,0,0,.19-1.38.22-2.25.05-.85-.25-1.37-1.43.68l-.03-.04c-.21.64-.28,1.07-.14,1.54-.25.05-.08.54-.17.69l-.02-.02c.15.42-.22.82-.07,1.22-.02-.02-.08-.03-.08-.12.01.29.05.68-.09.69,0,.68-.06,1.63.17,2.05l-.04-.03c.15.24.02.32.11.59-.02.02-.03.03-.04.03.15.26.04.78.11.99l-.09.02.04.53v-.2c.27.06-.14.4.04.78-.02.36.56.72.47,1.09.14.17-.21-.14-.09.12-.13.02-.1-.12-.2-.04.1.26-.09.47.07.79l-.1.03c.26.4.07.89.37,1.12.26.41-.14.44.29.81v.25c.14.21.23.04.36.27-.08.05.18.29.01.24.36.56,1.07.63,1.68,1.1.21-.11.54.1.68,0,0,.08.7.16.28.24-.04,0-.1,0-.09-.04l-.07.09c.38.28.76.02,1.14.08-.11-.04-.27-.04-.16-.11l.36.04-.08.08c.18.03.36.05.54.07l-.07-.11c.26.05.35.25.65.08.13-.09-.26-.13.02-.18.35.06.91.12,1.39.05-.07-.11.06-.13.18-.18l.04.1c.45-.28.25.19.71-.1l-.02.08.05-.25c.34-.35.32.1.67-.37-.17.1-.18-.15.04-.24v.12c.1-.09.12-.15.21-.17-.04.09.04.15.2.03l-.05.18c.08-.12.15-.25.21-.37.31-.08.57-.49.75-.48,0,0,.12-.1.25-.23.12-.13.22-.29.21-.4,0,.16.24-.08.27.06.01-.2.22-.63.41-.73v.04c.47-.54.43-1.1.79-1.58-.12-.02.06-.29-.11-.27.07-.6.68-.9.29-1.26.06-.26.21-.26.28-.38v.07c.12-.49.17-.62.28-.98,0-.19-.2-.28-.05-.58.05.13.08,0,.11-.13,0,.08.02.11.12-.03-.02-.03-.03-.07-.03-.1,0,0,.01,0,.02,0,.02-.21-.01-.18-.05-.09-.01,0-.03,0-.06.02.17-.17.15-.57.3-.56.12-.61.07-1.07.13-1.58.09-.04.13.09.12.25l.05-.36c.11.03.02.22.01.33.28-.38.02-.91.29-1.36l-.06-.12.02-.03s-.08-.13-.08-.21c.11-.05.22.05.27-.19.13-.17.07-.56.07-.82-.04.13-.09.08-.11.01.02-.12.13-.17.11-.28l.13.02c-.13.02-.07-.35-.11-.4.11-.05.04.21.11.25.09-.49.04-.25.13-.74-.04-.28-.13.02-.22-.13.02-.23-.02-.48.11-.72l-.13.06c0-.45.07-.7.25-.97-.12-1.7-.39-1.95-.65-1.76-.25.19-.48.81-.48.81-.53,1.22-.33,1.95-.55,3.47Z"/>
  </g>
  <g>
    <path class="c" d="M12.2,5.55l-.08.08s.05-.01.08-.08Z"/>
    <path class="c" d="M3.74,28.36s0,.01,0,.03c0-.02,0-.03,0-.03Z"/>
    <path class="c" d="M9.46,8.56h0s0-.02,0-.03v.03Z"/>
    <path class="c" d="M11.11,3.98c-.44,1.2-.76,1.45-1.09,2.74-.22.59-.38,1.25-.56,1.84.07.33-.27.77-.24,1.14l-.14.09c0,.13,0,.27-.1.37l-.03-.02c.01.19-.1.37-.09.47l-.03-.02-.06.21-.03-.05c-.03.32-.13.62-.27.88l.12.02c-.34.52-.17.82-.51,1.28l-.03-.02c.06.76-.59.95-.55,1.72,0-.1-.07.01-.1,0-.08.32-.19.65.03.74-.09.22-.14.16-.24.15.1.04.07.25,0,.42v-.09s-.16.51-.16.51l.22-.03c-.15.25-.25-.02-.3.25l.15.06c-.17.36-.49.48-.74.79-.63,1.45-.86,3.19-1.67,4.46l-.14.02c-.18-.04.1.48-.07.47v.19s-.1.12-.11.02c-.06.15-.04.16-.03.29l-.17.12c-.31.55-.3,1.13-.58,1.72-.5.66-.84,2.12-1.03,2.97-.18,1.22-1.34,2.29-1.48,3.56-.04.03-.02.15,0,.15l-.41,1.06s-.12.32-.26.75c-.14.43-.27.94-.36,1.29-.09.35-.16.62.04.7.18.09.75-.09,1.47-1.01l.03.04c.31-.57.45-.91.41-1.38.25.02.2-.47.32-.58v.02c-.03-.42.42-.67.39-1.07.01.02.07.05.05.13.06-.26.14-.62.28-.58.19-.6.55-1.41.49-1.86l.03.04c-.06-.27.08-.29.1-.56.02,0,.04-.02.04-.01-.05-.29.24-.69.25-.91l.09.02.16-.47-.09.17c-.22-.15.29-.3.26-.69.15-.31-.25-.84,0-1.12-.05-.2.13.21.13-.06.13.04.04.14.16.12.03-.25.27-.33.3-.64l.1.03c-.03-.44.4-.65.33-.96.07-.41.39-.14.35-.62l.19-.1c.09-.16-.11-.18.02-.35.08.04.16-.21.19-.07.3-.38.15-.94.59-1.42-.11-.19.09-.43,0-.57.08.01.23-.56.26-.19,0,.03-.02.08-.05.07l.08.08c.31-.25.13-.62.28-.93-.07.08-.11.21-.14.1l.13-.29.06.09.22-.42-.12.02c.13-.2.33-.21.29-.5-.04-.14-.21.15-.16-.09.18-.26.45-.65.62-1.01-.13,0-.08-.11-.07-.22l.1.03c.01-.44.27-.06.31-.49l.06.06-.17-.18c-.06-.42.27-.11.16-.6-.04.16-.24,0-.13-.18l.08.08c.02-.11,0-.16.04-.22.03.08.12.09.17-.08l.08.15-.06-.36c.19-.19.2-.59.36-.63,0,0,.25-.46.14-.63.05.13.19-.12.27,0-.06-.16,0-.57.16-.68v.03c.32-.51.2-1,.51-1.45-.12-.02.03-.26-.13-.25.04-.56.64-.83.25-1.18.06-.24.2-.24.27-.35v.06c.12-.45.16-.58.29-.9.01-.18-.19-.28-.04-.55.05.12.08,0,.12-.11-.01.07.01.11.12-.02-.02-.03-.02-.07-.03-.1,0,0,.01,0,.02,0,.03-.19,0-.17-.04-.09-.01,0-.03,0-.06.01.17-.15.17-.53.32-.51.15-.56.14-1,.23-1.48.09-.03.12.1.11.24l.08-.33c.11.04,0,.21-.01.31.3-.33.09-.86.39-1.26l-.05-.12.02-.02s-.07-.13-.07-.21c.11-.03.21.07.28-.15.15-.15.12-.52.14-.77-.05.12-.09.06-.11,0,.03-.11.14-.15.13-.25l.13.03c-.13,0-.04-.34-.08-.39.11-.04.03.2.09.25.13-.46.06-.23.19-.69-.02-.27-.13,0-.21-.14.04-.22.02-.46.17-.68l-.14.04c.04-.43.11-.67.3-.9-.07-3.26-1.08-.99-1.08-.99-.58,1.1-.43,1.79-.77,3.21Z"/>
  </g>
  <g>
    <path class="c" d="M38.74,22.45c.06.05.12.09.18.14,0-.02-.03-.07-.18-.14Z"/>
    <path class="c" d="M37.54,13.07s.03,0,.05,0c-.03,0-.05,0-.05,0Z"/>
    <polygon class="c" points="37.04 27.96 37.04 27.96 37.07 27.92 37.04 27.96"/>
    <path class="c" d="M36.47,23.65c1.1.03,1.69.24,1.78.44.06.07.04.08.07.14.02.05.05.16.06.26.03.16.02.55-.07,1.03-.11.45-.27.94-.46,1.36-.1.21-.21.4-.29.51-.17.19-.34.39-.51.57-.22.46-.96.9-1.35,1.33l-.24.05c-.14.15-.31.3-.51.36v-.03c-.22.22-.53.34-.64.45v-.03s-.32.17-.32.17l.04-.06c-.42.31-.91.52-1.37.66l.08.1c-.99.22-1.28.56-2.22.62v-.03c-.26.14-.51.22-.76.26-.12.02-.24.03-.36.04-.1,0-.29.01-.28,0-.13-.06-.21,0-.35-.13.04.02.06-.05.09-.06-.01-.03-.02-.06-.04-.11-.02-.11-.04-.22-.06-.33-.05-.21-.12-.36-.24-.36,0-.41.07-.33.16-.39-.1,0-.16-.35-.15-.66l.03.15v-.92s-.2.17-.2.17c.09-.49.25-.11.23-.59h-.16c.08-.69.36-1.07.55-1.72.33-2.72.37-5.79.82-8.32l.14-.1c.18-.02-.18-.72,0-.8l-.04-.31c.04-.08.1-.25.12-.09.05-.27.02-.28,0-.49l.16-.27c.04-.19.04-.15.05-.2v-.1c.05-.02.09-.04.13-.07.06-.03.32-.14.47-.21.35-.15.71-.31,1.11-.43,1.35-.25,3.74-1.16,5.08-1.17.97-.13,1.76.47,1.85,1.34.13.86-.23,1.7-.65,2.45-.05.03-.11.17-.1.19-.36.38-.88.74-1.42,1.09,0,0-.49.33-1.15.76-.17.11-.34.24-.52.36-.2.15-.34.22-.63.53-.14.24-.48.44-.78.68-.3.23-.56.44-.74.68-.09.13-.17.27-.17.46.02.14.08.08.13.07.14-.23.39-.21.82-.33.22-.05.49-.12.83-.23.17-.06.35-.12.57-.25.31-.23.29-.2.52-.29v.06c.87-.49,1.51-.84,2.03-1.44.24.14.77-.5,1.03-.63v.03c.45-.59,1.24-1.04,1.41-1.84,0,.03.06.08,0,.24.25-.51.34-1.28.48-1.3.11-.68.04-1.56-.33-2.29-.35-.75-1.05-1.21-1.5-1.31h.07c-.54-.08-.63-.25-1.17-.27-.03-.02-.06-.04-.05-.05-.52.08-1.43-.03-1.79.11l-.04-.09c-.31.04-.61.11-.91.17l.34-.04c-.07.27-.72-.04-1.32.29-.61.12-1.04.85-1.67.92-.25.21.19-.27-.21-.04-.06-.12.17-.15.03-.21-.4.2-.73.1-1.21.37l-.06-.09c-.25.17-.51.26-.75.32-.31.08-.75.17-1.04.27-.03.14-.03.28-.02.42-.05.55-.16.72-.24.81-.08.11-.15.23-.11.63l-.18.27c-.07.32.14.26.02.61-.09-.03-.13.45-.19.23-.12.4-.12.84-.11,1.31.01.42,0,.89-.18,1.39.15.25-.01.76.1.95-.08.02-.14,1.06-.23.45,0-.05,0-.14.03-.13l-.09-.08c-.26.58-.02,1.1-.12,1.7.05-.17.07-.41.12-.24l-.08.55-.07-.13-.15.82.12-.1c-.1.4-.3.52-.2,1,.06.22.19-.37.17.06-.13.53-.32,1.34-.42,2.04.13-.06.1.13.11.33h-.11c.09.77-.25.27-.19,1.02l-.07-.07.21.21c.18.69-.24.34.02,1.14-.01-.31.23-.14.19.23l-.1-.09c.02.21.07.27.05.41-.06-.12-.15-.06-.12.24l-.13-.2.21.57c-.02.13-.03.2-.01.42.01.2.05.42.08.62.08.4.22.68.25.84,0-.04.17.4.61.34.2.02.41.03.59.04.19-.01.37-.07.45-.12-.16.07-.02.09.13.1.19.01.22.04.17.11.23-.14.93-.35,1.24-.3l-.05.02c1.1-.11,1.76-.6,2.72-.81-.08-.1.42-.22.24-.32.86-.51,1.81-.51,1.89-1.11.38-.25.52-.19.73-.3l-.08.08c.7-.51.88-.67,1.38-1.08.22-.24.09-.45.54-.79-.07.19.09.03.23-.13-.08.11-.09.16.15,0,0-.05.04-.1.07-.16,0,0,.02,0,.02,0,.22-.28.16-.25.04-.14,0-.02-.03-.02-.08,0,.16-.08.35-.29.5-.51.14-.2.23-.36.31-.35.48-1.04.53-1.82.58-2.74.09-.1.14.13.13.4.02-.22.04-.44.03-.68.12,0,.05.41.03.61.14-.39.14-.83-.01-1.34-.14-.45-.46-.98-.87-1.37-.08-.02-.16-.04-.25-.06l-.05-.05s-.26-.01-.41-.04c-.1-.13.08-.23-.41-.34-.38-.18-1.04-.07-1.47-.02.24.02.16.07.06.11-.21,0-.33-.1-.5-.06l-.02-.13c.08.12-.55.14-.63.19-.12-.1.33-.09.38-.16-.85.03-.42,0-1.28.06-.45.13.09.12-.12.25-.39.05-.79.18-1.24.18l.16.09c-.72.2-1.15.28-1.67.26-2.58,1.08-2.7,1.57-2.28,1.63.43.08,1.46-.1,1.46-.1,1.04-.13,1.8-.29,2.62-.49.74-.19,1.64-.33,2.89-.37Z"/>
  </g>
  <g>
    <path class="c" d="M102.27,16.45l-.06.04s.04,0,.06-.04Z"/>
    <path class="c" d="M100.64,27.85h0s0,0,0,0Z"/>
    <polygon class="c" points="100.32 17.9 100.32 17.9 100.31 17.88 100.32 17.9"/>
    <path class="c" d="M100.89,15.61c-.18.59-.43.71-.46,1.36-.07.3-.08.63-.11.93.15.17-.07.39.05.58l-.11.05c.04.07.06.14,0,.19h-.03c.06.09,0,.18.03.23h-.03s0,.1,0,.1l-.04-.02c.05.16.03.32-.02.44h.12c-.18.27.05.42-.15.65h-.03c.26.37-.3.48-.05.86-.03-.05-.06,0-.09,0,.01.16,0,.33.24.37-.02.11-.09.08-.18.08.1.01.13.12.13.21l-.03-.05v.26s.2-.02.2-.02c-.08.13-.24,0-.21.14l.16.02c-.06.18-.32.26-.47.42-.17.74.14,1.6-.23,2.27l-.13.02c-.18,0,.24.23.07.23l.07.09s-.07.06-.11.02c-.02.07.01.08.06.14l-.12.07c-.12.29.06.57-.01.87-.27.35-.14,1.08-.05,1.5.21.6-.57,1.2-.31,1.82-.03.02.03.07.05.07l-.07.54s-.28,2.6,1.37.74l.04.02c.12-.28.15-.47-.02-.68.24-.01.05-.24.13-.3h.02c-.17-.19.19-.35.04-.53.02,0,.08.02.08.06-.02-.13-.06-.3.08-.3,0-.3.09-.71-.11-.92l.04.02c-.14-.12,0-.14-.07-.27.02,0,.03-.01.04-.01-.14-.13.01-.35-.04-.45h.09s0-.24,0-.24l-.03.09c-.25-.06.18-.16.03-.35.05-.16-.5-.38-.35-.54-.11-.09.19.09.11-.04.13.01.08.06.19.05-.05-.12.16-.18.08-.33h.1c-.17-.2.18-.33.01-.48-.06-.2.32-.09.14-.32l.15-.06c.03-.08-.16-.08-.09-.17.09.02.08-.11.16-.05.16-.2-.14-.46.13-.72-.16-.08-.04-.21-.17-.28.08,0,.05-.28.19-.1.01.02,0,.04-.02.03l.1.03c.21-.14-.07-.31-.02-.46-.04.04-.04.11-.1.06l.03-.15.08.04.08-.21-.11.02c.07-.1.25-.11.12-.26-.08-.07-.16.08-.17-.04.09-.14.23-.34.29-.52-.12,0-.11-.05-.13-.1h.1c-.12-.21.24-.03.15-.24l.07.03-.21-.08c-.18-.2.23-.06-.02-.3,0,.08-.23,0-.17-.09l.1.04c-.01-.06-.05-.08-.03-.11.05.04.14.04.14-.04l.12.07-.16-.17c.12-.1.02-.29.16-.32,0,0,.11-.23-.04-.31.09.06.15-.06.25,0-.1-.08-.16-.28-.03-.33v.02c.17-.25-.07-.49.11-.72-.12,0-.04-.13-.19-.12-.11-.28.39-.41-.07-.58,0-.12.13-.12.17-.17l.02.03c0-.22,0-.29.04-.45-.03-.09-.25-.14-.17-.27.08.06.07,0,.08-.05,0,.04.04.05.11,0-.03-.01-.04-.03-.05-.05,0,0,.01,0,.02,0-.01-.1-.04-.08-.06-.04-.01,0-.03,0-.06,0,.13-.07.04-.26.19-.24.02-.28-.11-.5-.12-.73.08-.01.14.05.16.13v-.16c.11.02.05.1.06.16.22-.15-.1-.42.1-.61l-.08-.06h.02s-.1-.08-.11-.12c.1-.01.22.05.24-.07.11-.07,0-.26-.03-.38-.03.06-.08.03-.11,0,0-.06.11-.07.08-.12l.13.02c-.13,0-.1-.17-.15-.2.1-.01.07.1.13.13.03-.22.02-.11.05-.33-.07-.14-.13,0-.23-.08,0-.11-.07-.23.03-.33h-.12c-.05-.2,0-.31.14-.42-.62-1.66-1.21-.58-1.21-.58-.38.52-.11.89-.16,1.6Z"/>
  </g>
  <g>
    <path class="c" d="M14.84,5.93l-.03.09s.04-.03.03-.09Z"/>
    <path class="c" d="M18.55,27.39v.02s0-.02,0-.02Z"/>
    <polygon class="c" points="13.78 9.5 13.78 9.49 13.76 9.47 13.78 9.5"/>
    <path class="c" d="M13.17,5.15c.14,1.15-.04,1.47.26,2.64.08.56.23,1.15.36,1.7.22.23.13.72.33,1l-.08.14c.07.1.12.22.09.33h-.03c.1.14.09.33.14.4h-.03s.05.19.05.19l-.05-.03c.13.26.18.55.19.8l.12-.04c-.04.56.24.71.17,1.23h-.03c.42.56-.05,1,.36,1.58-.05-.07-.06.04-.09.04.08.29.16.59.39.56.03.21-.04.18-.13.23.1-.02.18.16.21.32l-.05-.07.12.47.18-.12c-.01.26-.23.1-.14.34l.16-.03c.03.35-.18.6-.24.95.17,1.41.84,2.85.78,4.19l-.11.08c-.17.05.33.32.17.39l.11.14s-.04.14-.1.07c.02.14.05.14.12.23l-.08.17c0,.57.3,1,.36,1.59-.11.74.33,2,.58,2.77.45,1.03.03,2.42.59,3.44-.02.04.06.12.08.11l.22,1s.28,1.2.65,1.9c.37.7.78.88,1.02-1.11h.04c-.05-.54-.11-.88-.39-1.2.22-.12-.09-.45-.04-.59h.02c-.26-.28-.01-.7-.25-.98.02,0,.09,0,.11.07-.08-.22-.21-.52-.07-.57-.16-.54-.26-1.31-.54-1.62l.04.02c-.19-.17-.07-.25-.19-.46.02-.02.02-.03.03-.03-.19-.19-.13-.63-.22-.8l.09-.03-.1-.44v.17c-.26-.02.11-.36-.11-.66-.02-.31-.63-.53-.56-.86-.14-.13.22.1.09-.11.13-.03.1.09.2.02-.1-.21.07-.38-.06-.63l.1-.03c-.25-.32.02-.68-.2-.89-.15-.35.26-.29,0-.64l.11-.17c0-.17-.19-.09-.15-.28.09,0,.03-.24.13-.15.07-.43-.34-.79-.2-1.36-.19-.09-.14-.37-.28-.44.07-.03-.08-.54.13-.26.02.02.02.07,0,.07l.11.02c.14-.33-.2-.54-.22-.84-.02.09.01.21-.07.14l-.03-.28.1.04-.02-.42-.1.07c.02-.21.19-.31,0-.52-.1-.09-.11.22-.18,0,.02-.28.06-.71.03-1.06-.11.05-.13-.04-.17-.14l.1-.03c-.21-.35.2-.17.03-.52l.08.02-.23-.06c-.26-.3.18-.21-.16-.54.04.14-.22.11-.2-.08l.11.03c-.04-.1-.09-.12-.08-.19.06.05.15,0,.11-.13l.14.08-.23-.25c.07-.23-.12-.55,0-.65,0,0-.01-.47-.18-.55.11.08.1-.18.23-.13-.13-.1-.28-.44-.19-.6l.02.02c.03-.54-.31-.86-.25-1.35-.12.04-.09-.22-.24-.13-.23-.46.16-.93-.34-1.02-.06-.21.07-.28.07-.39l.03.05c-.11-.4-.13-.52-.18-.83-.07-.14-.3-.13-.29-.41.1.07.07-.03.05-.14.02.06.06.08.1-.07-.03-.01-.05-.04-.07-.07,0,0,.01,0,.02,0-.06-.16-.08-.13-.08-.05-.01,0-.03,0-.05.04.08-.19-.09-.49.05-.54-.12-.51-.34-.85-.47-1.26.07-.06.15.03.21.15l-.08-.3c.11-.02.09.16.13.25.12-.39-.31-.71-.22-1.16l-.1-.07v-.03s-.12-.08-.14-.14c.09-.08.22-.03.18-.24.06-.18-.13-.46-.22-.67,0,.12-.06.09-.1.05-.02-.1.07-.18.01-.25l.13-.03c-.12.06-.18-.25-.24-.28.09-.08.11.15.19.16-.08-.42-.04-.21-.12-.62-.13-.21-.12.06-.25-.03-.06-.19-.18-.37-.14-.61l-.1.09c-.15-.36-.17-.58-.09-.85-.7-1.27-.97-1.52-1.18-1.3-.1.19-.15.41-.17.58-.03.18-.03.32-.03.32-.09,1.15.34,1.66.65,2.94Z"/>
  </g>
  <g>
    <path class="c" d="M14.79,27.19l-.05-.04s.02.04.05.04Z"/>
    <path class="c" d="M4.21,27.64h-.01s.01,0,.01,0Z"/>
    <polygon class="c" points="13.04 25.69 13.04 25.69 13.05 25.68 13.04 25.69"/>
    <path class="c" d="M15.14,25.63c-.55,0-.72-.21-1.28-.07-.27,0-.56.08-.82.13-.11.19-.35.03-.49.19l-.07-.1c-.05.05-.11.09-.16.04v-.03c-.07.08-.16.04-.2.08v-.03s-.09.02-.09.02v-.04c-.12.09-.25.1-.38.08l.02.12c-.27-.12-.35.14-.59,0v-.03c-.28.34-.48-.19-.77.13.04-.04-.02-.06-.02-.09-.14.04-.29.07-.28.31-.1,0-.09-.07-.11-.16,0,.1-.08.15-.16.16l.04-.04-.23.05.05.2c-.13-.05-.04-.24-.16-.19v.16c-.16-.02-.27-.27-.44-.38-.68-.04-1.4.4-2.04.12l-.03-.12c-.01-.18-.17.27-.2.1l-.07.08s-.06-.07-.03-.11c-.07,0-.07.02-.12.08l-.07-.11c-.27-.09-.49.13-.78.09-.34-.23-.97-.02-1.34.08-.53.26-1.09-.49-1.63-.21-.02-.03-.06.03-.06.05l-.47-.06s-.57-.06-.95.06c-.37.13-.58.47.26,1.31l-.02.04c.26.13.44.15.64-.03.01.24.22.04.28.12v.02c.17-.17.33.18.5.02,0,.02-.01.09-.05.09.12-.02.28-.07.28.07.28-.02.67.06.85-.16v.04c.09-.15.12-.02.23-.09,0,.02.01.03.01.04.11-.15.32-.01.41-.08v.09s.22-.02.22-.02l-.08-.02c.03-.26.16.16.32,0,.15.03.31-.53.46-.4.07-.12-.07.2.04.1,0,.13-.05.08-.02.19.11-.06.18.14.31.05v.1c.18-.19.33.14.45-.05.18-.09.12.31.31.1l.07.14c.08.02.06-.17.14-.11,0,.09.11.07.06.15.2.13.4-.21.67.02.05-.17.19-.07.23-.21,0,.08.27,0,.12.17-.01.01-.04.01-.03-.02l-.02.1c.16.19.27-.12.42-.09-.05-.03-.1-.02-.07-.09h.14s-.03.1-.03.1l.21.04-.03-.11c.1.05.14.23.25.08.05-.09-.1-.14,0-.18.14.07.34.17.52.19-.02-.12.03-.12.07-.14v.1c.19-.15.09.23.26.1v.07s.03-.22.03-.22c.15-.21.1.21.27-.08-.07.02-.04-.23.05-.19l-.02.1s.06-.07.1-.05c-.03.06,0,.15.06.13l-.04.13.13-.19c.11.1.27-.04.32.1,0,0,.23.06.27-.1-.04.1.09.13.06.24.05-.11.22-.21.3-.1h-.01c.26.12.43-.18.67-.05-.02-.12.11-.06.07-.22.23-.17.45.29.51-.2.11-.03.14.1.19.12l-.02.03c.2-.05.26-.06.41-.06.07-.05.07-.28.2-.23-.04.09.02.07.07.07-.03.02-.04.05.03.1,0-.03.02-.05.03-.06,0,0,0,.01,0,.02.08-.04.06-.06.02-.07,0-.01,0-.03-.02-.05.1.11.24-.03.26.12.25-.06.41-.23.62-.31.03.08-.01.15-.07.18l.15-.04c0,.11-.08.07-.12.1.19.17.35-.21.57-.07l.03-.09h.01s.03-.1.06-.12c.04.09.02.23.12.21.09.09.23-.07.33-.13-.06-.01-.05-.07-.02-.1.05,0,.09.09.13.04l.02.13c-.03-.12.12-.15.13-.2.04.09-.07.09-.08.17.2-.03.1-.02.31-.05.1-.11-.03-.12,0-.24.09-.04.18-.14.3-.07l-.05-.11c.17-.11.28-.11.42,0,1.22-1.11.12-1.33.12-1.33-.55-.19-.78.17-1.39.33Z"/>
  </g>
  <g>
    <path class="c" d="M110.42,12.98l-.05-.05s.01.04.05.05Z"/>
    <path class="c" d="M95.88,14.46h-.01s.01,0,.01,0Z"/>
    <polygon class="c" points="108.17 11.28 108.18 11.28 108.19 11.26 108.17 11.28"/>
    <path class="c" d="M111.33,11.57c-.82-.18-1.04-.42-1.91-.37-.41-.02-.85.03-1.24.07-.18.18-.52.03-.73.19l-.09-.1c-.07.05-.16.1-.24.05v-.03c-.1.09-.23.05-.29.09v-.03s-.13.02-.13.02l.02-.04c-.19.1-.39.12-.56.1l.03.12c-.39-.1-.5.16-.85.04v-.03c-.39.36-.68-.15-1.08.19.05-.04-.03-.06-.03-.09-.19.05-.4.09-.39.33-.14.01-.12-.06-.15-.15,0,.1-.11.16-.22.17l.05-.04-.32.06.08.19c-.18-.04-.06-.24-.22-.18v.16c-.23-.02-.38-.26-.61-.37-1.02-.03-2.04.53-2.98.41l-.06-.11c-.05-.17-.2.31-.26.15l-.09.1s-.1-.05-.06-.1c-.1.01-.09.04-.15.11l-.13-.09c-.39-.01-.67.27-1.07.3-.52-.13-1.35.25-1.83.45-.68.39-1.57-.24-2.24.09-.02-.02-.08.03-.08.05-.22,0-.43-.02-.64-.03,0,0-.77-.05-1.27.02-.48.08-.85.4.37,1.34l-.02.04c.39.14.65.18.93-.01.04.24.33.04.42.11v.02c.23-.19.5.14.72-.03,0,.02,0,.09-.06.09.17-.04.39-.11.42.03.4-.06.97-.07,1.19-.33v.04c.11-.17.17-.05.32-.15.01.02.02.02.02.03.13-.17.45-.1.56-.18l.02.09.3-.08h-.12c0-.26.26.12.45-.09.21,0,.31-.6.55-.52.08-.14-.05.21.08.09.03.13-.05.1,0,.19.14-.09.27.09.43-.04l.03.1c.2-.24.47.04.6-.17.23-.13.22.27.44.02l.12.12c.11,0,.05-.18.18-.14,0,.09.16.04.11.14.29.09.51-.29.9-.11.05-.18.24-.11.28-.24.02.07.36-.04.18.15-.02.02-.05.02-.05-.01v.11c.21.16.34-.15.54-.14-.06-.03-.14,0-.09-.09h.18s-.03.08-.03.08l.27.03-.05-.1c.14.05.2.23.33.06.06-.09-.13-.14,0-.18.17.06.46.15.72.17-.03-.12.04-.12.1-.15v.1c.27-.16.13.23.38.09l-.02.07.05-.22c.22-.22.14.21.38-.1-.1.03-.07-.23.06-.19l-.02.1c.07-.03.09-.07.13-.05-.04.06,0,.15.09.12l-.06.13.18-.2c.16.09.38-.06.45.07,0,0,.32.04.38-.12-.05.1.12.12.09.24.07-.12.3-.23.41-.12h-.02c.37.1.59-.21.92-.09-.03-.12.15-.07.09-.22.32-.19.62.27.7-.22.15-.04.18.1.26.12l-.03.03c.27-.06.35-.06.56-.07.1-.05.11-.28.29-.23-.06.09.02.07.09.07-.04.02-.06.05.04.1.01-.03.03-.05.05-.06,0,0,0,.01,0,.02.11-.03.09-.06.04-.07,0-.01,0-.03-.02-.05.12.11.33-.02.35.13.34-.03.59-.2.87-.24.03.08-.04.15-.12.17l.2-.02c0,.11-.12.06-.18.08.23.2.5-.17.77.03l.07-.08.02.02s.07-.1.12-.12c.03.1-.03.22.11.23.1.1.31,0,.46-.04-.07-.03-.04-.08,0-.11.07,0,.09.11.15.08l-.02.13c0-.13.2-.1.24-.15.02.1-.12.07-.15.14.27.03.14.02.4.06.16-.07,0-.13.09-.23.13,0,.28-.06.41.05l-.02-.13c.26-.02.41.04.53.2,1.04-.15,1.29-.37,1.23-.63-.06-.24-.42-.47-.42-.47-.7-.52-1.23-.32-2.19-.38Z"/>
  </g>
  <line class="b" x1="27.46" y1="15.92" x2="29.47" y2="15.53"/>
</svg>