<?xml version="1.0" encoding="UTF-8"?>
<svg id="a" data-name="Layer 1" xmlns="http://www.w3.org/2000/svg" width="133.22" height="25.61" viewBox="0 0 133.22 25.61">
  <defs>
    <style>
      .b {
        fill: #5f5f5f;
        stroke-width: 0px;
      }
    </style>
  </defs>
  <g>
    <path class="b" d="M107.52,7.89l-.09-.02s.03.03.09.02Z"/>
    <path class="b" d="M106.89,21.56s.01,0,.02-.01c-.01,0-.02.01-.02.01Z"/>
    <polygon class="b" points="103.82 8.04 103.82 8.04 103.83 8.01 103.82 8.04"/>
    <path class="b" d="M108.24,6.2c-1.26.15-1.7.06-2.86.72-.57.29-1.1.71-1.55,1.11-.11.32-.6.51-.73.86l-.16.02c-.04.12-.12.23-.23.28l-.02-.03c-.06.18-.22.29-.25.38l-.02-.02c-.06.07-.15.16-.19.27v-.08c-.04.1-.08.19-.11.27-.03.07-.05.13-.09.19-.06.12-.14.24-.22.34l.12.04c-.39.42-.26.71-.63,1.09l-.02-.02c.01.71-.64.83-.6,1.57,0-.09-.07.01-.1,0-.08.3-.16.62.06.7-.07.21-.13.15-.22.15.1.03.09.23.04.39l-.02-.09-.1.49.22-.05c-.12.24-.25,0-.26.26l.16.03c-.11.34-.39.51-.56.87-.13.77-.03,1.62.24,2.4.26.79.7,1.48,1.1,2.13l-.04.13c-.11.15.48.12.42.27l.19.06c.02.06.08.15-.02.13.12.12.14.08.26.11l.06.18c.42.41.97.53,1.53.84.3.28.84.49,1.4.59.57.1,1.14.09,1.55.05.57-.1,1.17.01,1.79.06.07,0,.16.01.29.02.12-.01.25-.05.31-.05.15-.02.3-.05.45-.09.29-.08.57-.19.81-.37.04,0,.11-.08.1-.1.33-.13.65-.27.96-.42.07.02,4.26-2.35.35-1.81v-.05c-.51.18-.81.32-1.04.65-.16-.19-.4.16-.54.14v-.02c-.21.3-.65.11-.87.37,0-.02-.01-.09.05-.11-.19.1-.47.25-.53.12l-.19.07-.14.05-.35.04c-.29.04-.55.08-.72.2l.02-.04c-.19.15-.25.02-.46.09-.01-.02-.03-.03-.02-.04-.22.14-.6-.02-.77.01v-.09c-.13,0-.27-.03-.4-.05l.14.05c-.1.24-.27-.21-.59-.13-.24-.1-.71.34-.95.1-.18.05.19-.13-.04-.13.05-.13.12-.04.12-.16-.21-.03-.24-.26-.5-.3l.04-.1c-.38,0-.45-.43-.73-.41-.33-.13-.01-.39-.41-.43v-.19c-.08-.1-.19.07-.25-.08.07-.06-.08-.19.04-.18-.12-.31-.61-.39-.6-.88-.19,0-.19-.24-.33-.27.06-.04-.13-.42.1-.24.02.02.03.05,0,.06h.11c.11-.28-.22-.39-.23-.65-.02.08,0,.17-.08.12-.01-.08-.02-.15-.02-.23l.09.04c0-.12,0-.23.02-.35l-.11.05c.05-.18.22-.23.08-.43-.08-.09-.15.16-.18-.02.08-.24.22-.58.31-.88-.12,0-.1-.07-.11-.16h.1c-.08-.34.25-.06.21-.4l.06.05-.19-.14c-.12-.35.25-.1.07-.51-.02.13-.24,0-.15-.15l.08.07c0-.1-.02-.14.02-.19.03.07.13.07.16-.06l.09.13-.09-.3c.17-.15.15-.5.32-.52,0,0,.23-.37.12-.52.05.12.18-.08.26.02-.06-.15,0-.48.17-.55v.03c.32-.38.24-.83.58-1.15-.12-.04.06-.22-.11-.24.02-.12.08-.22.15-.3.06-.08.15-.18.17-.16.05,0,.19-.16.05-.36.12-.17.25-.11.34-.16l-.02.05c.24-.3.32-.38.54-.56.08-.13-.06-.32.18-.44,0,.12.06.04.14-.02-.04.05-.03.08.1.06,0-.03,0-.06.02-.09,0,0,.01,0,.02.02.11-.12.07-.13,0-.09,0-.01-.02-.02-.05-.03.2-.02.37-.28.47-.16.37-.3.58-.6.92-.82.07.05.02.15-.07.23l.24-.15c.04.1-.12.13-.18.19.36.02.55-.45.97-.41l.05-.11h.03s.05-.12.1-.16c.08.08.05.21.24.17.17.07.4-.15.59-.21-.11,0-.08-.06-.04-.1.1-.02.16.08.23.02l.02.13c-.05-.12.23-.17.27-.21.06.1-.14.09-.16.17.38-.03.19-.01.57-.04.21-.1-.04-.13.06-.24.19-.02.38-.1.59,0l-.06-.12c.37-.05.59,0,.8.15,1.42-.17,1.71-.34,1.57-.63-.14-.26-.69-.52-.69-.52-1.13-.52-1.87-.3-3.29-.05Z"/>
  </g>
  <g>
    <path class="b" d="M25.57,13.31l-.11.04s.05,0,.11-.04Z"/>
    <path class="b" d="M34.93,14.53s0-.01-.01-.03c0,.02.01.03.01.03Z"/>
    <path class="b" d="M22.39,16.63h0s0-.03,0-.04v.04Z"/>
    <path class="b" d="M25.56,11.28c-.66.47-1.08.8-1.47,1.18-.38.39-.78.81-1.12,1.66-.39.76-.56,1.75-.59,2.5.14.38-.07,1.03.11,1.48l-.09.18c.06.15.11.32.07.48h-.03c.09.21.1.47.15.58h-.03c.02.09.04.18.07.27l-.05-.04c.16.38.27.77.37,1.13l.1-.07c.15.78.5.93.74,1.61h-.03c.75.55.7,1.32,1.66,1.68-.13-.04,0,.08-.02.1.4.24.84.46.95.22.29.12.21.17.22.27.04-.11.3-.01.55.02l-.12.02.7.1-.1-.22c.34.12.06.27.41.24v-.16c.5.07.79.3,1.31.35,1.04-.12,2-.58,2.84-1.12.85-.54,1.59-1.17,2.32-1.76l.15.02c.17.1.13-.57.3-.52l.07-.22c.06-.03.17-.11.14,0,.13-.16.1-.19.13-.35l.21-.13c.26-.33.38-.73.47-1.14.03-.21.06-.42.09-.63.01-.18.03-.36.06-.55.35-.89.27-2.68.13-3.68-.13-.7-.04-1.49-.11-2.35-.06-.83-.39-1.86-1.22-2.37-.03-.06-.19-.12-.2-.1-.43-.34-.94-.6-1.45-.71,0,0-.46-.13-1.05-.13-.59-.02-1.27.1-1.77.25-.49.18-.8.37-.68.55.12.2.7.3,1.83.6l-.03.04c.65.07,1,.13,1.44.04,0,.24.44.17.52.31h-.02c.41.01.42.51.72.65-.02,0-.08.03-.12-.02.15.16.35.43.22.51.28.5.33,1.41.56,1.83l-.04-.03c.17.24.04.32.12.61-.02.02-.03.04-.04.03.15.28.02.82.07,1.05h-.09s0,.57,0,.57l.03-.21c.25.09-.18.42-.04.83-.06.38.47.83.3,1.22.1.2-.18-.19-.12.11-.13,0-.07-.14-.18-.08.03.29-.19.44-.15.79h-.11c.06.21-.03.37-.09.52-.09.14-.19.26-.16.42-.11.41-.4.09-.44.56-.07.02-.15.04-.22.05-.13.13.06.21-.12.33-.06-.07-.21.16-.2,0-.41.24-.52.84-1.18,1.03,0,.22-.33.32-.34.49-.06-.05-.56.31-.33,0,.02-.03.07-.05.08-.02l-.02-.11c-.4.01-.5.42-.84.53.11-.01.23-.08.18.02l-.3.13.03-.11c-.15.06-.31.09-.46.13l.1.08c-.24.02-.37-.11-.57.1-.09.11.25.09.02.18-.16,0-.37,0-.57,0-.2-.02-.41-.04-.6-.03.04.12-.06.12-.16.14v-.11c-.41.12-.15-.22-.52-.14l.04-.07-.12.2c-.38.12-.13-.22-.56-.07.14.04,0,.25-.17.13l.08-.08c-.1-.02-.15,0-.21-.04.08-.03.09-.12-.06-.16l.14-.08c-.11.03-.23.05-.33.05-.12-.21-.5-.27-.48-.47,0,0-.09-.09-.19-.19-.1-.1-.23-.19-.32-.18.14.01-.02-.22.12-.24-.17-.02-.48-.27-.47-.47l.03.02c-.21-.52-.64-.77-.69-1.33-.11.06-.14-.22-.26-.11-.33-.51.08-1.05-.43-1.18-.06-.26.08-.32.09-.46l.03.06c-.08-.48-.08-.63-.06-.99-.04-.18-.26-.23-.18-.56.08.12.07-.02.09-.15,0,.08.03.11.11-.05-.02-.03-.04-.06-.05-.1,0,0,.01,0,.02,0,0-.21-.04-.18-.06-.08-.01,0-.03,0-.06.03.13-.21.1-.58.25-.57.09-.58.13-1.03.31-1.52.1-.01.09.13.06.27.04-.11.09-.22.15-.32.1.06-.06.2-.08.31.34-.27.3-.84.75-1.13v-.14s.04-.01.04-.01c-.04-.03,0-.16.04-.22.12.02.16.16.33-.02.2-.07.38-.41.55-.62-.12.07-.12,0-.09-.06.1-.08.22-.05.27-.14l.09.1c-.12-.07.19-.31.2-.37.12.04-.12.18-.1.26.42-.29.21-.15.63-.43.19-.22-.11-.08-.05-.25.2-.14.37-.35.67-.39l-.13-.07c.38-.29.66-.38,1-.38.74-.52,1.21-.79,1.46-.99.24-.2.2-.32.06-.42-.16-.08-.47-.13-.71-.12-.25,0-.45.03-.45.03-.81.09-1.36.34-1.9.67-.54.33-1.07.75-1.77,1.34Z"/>
  </g>
  <g>
    <path class="b" d="M10.9,1.65l-.12-.03s.04.03.12.03Z"/>
    <path class="b" d="M9.18,24.04s.02,0,.03,0c-.02,0-.03,0-.03,0Z"/>
    <path class="b" d="M5.82,2.59h0s.01-.03.02-.04l-.02.04Z"/>
    <path class="b" d="M12.34.02c-.95-.06-1.56,0-2.17.07-.61.11-1.25.25-2.1.77-.84.43-1.62,1.08-2.24,1.73-.17.41-.77.78-.99,1.22l-.2.06c-.07.15-.18.32-.33.4v-.03c-.12.23-.34.41-.39.52l-.02-.03-.19.23v-.07c-.21.38-.49.72-.75,1.01l.12.05c-.62.58-.58.98-1.12,1.54l-.02-.02c-.21.98-.94,1.25-1.04,2.3,0-.13-.08.03-.1,0-.14.44-.26.92-.03,1-.1.32-.15.24-.25.26.1.02.08.32.02.57v-.12c-.06.24-.1.49-.13.73l.22-.11c-.12.37-.25.06-.27.43l.16.02c-.1.52-.4.8-.53,1.34-.01.56-.04,1.14.08,1.71.05.28.09.57.15.85.08.27.17.55.25.82.14.55.42,1.05.6,1.56.23.49.45.98.66,1.46l-.05.14c-.13.13.55.33.45.49l.2.15c.01.07.07.21-.03.14.12.19.16.16.31.25l.07.25c.26.36.54.66.89.9.34.27.67.52,1.03.8.19.2.44.45.76.65.32.19.68.39,1.05.57.39.14.78.27,1.15.39.38.09.74.14,1.03.19.85.07,1.73.28,2.67.36.93.07,1.91,0,2.71-.42.06,0,.19-.09.18-.11.53-.16,1.01-.4,1.47-.62,0,0,.42-.21.93-.53.51-.32,1.12-.74,1.55-1.11.86-.78,1-1.25-1.68-.45v-.05c-.72.33-1.16.55-1.55.97-.18-.17-.58.26-.78.26v-.02c-.33.36-.93.13-1.3.42.01-.02,0-.09.1-.12-.29.14-.72.22-.77.09-.37.08-.82.13-1.24.12-.21,0-.41.02-.59.05-.18,0-.34.02-.47.05l.04-.03c-.3.11-.36-.03-.69,0-.01-.02-.03-.04-.03-.04-.33.06-.88-.21-1.14-.23l.02-.09-.58-.22.21.11c-.17.19-.38-.3-.84-.37-.33-.24-1.04.07-1.33-.34-.24-.03.27-.05-.05-.16.07-.11.17.02.16-.12-.28-.14-.34-.39-.68-.57l.06-.09c-.48-.21-.61-.71-.93-.84-.4-.33.01-.46-.49-.72v-.25c-.11-.2-.23-.03-.32-.28.08-.04-.12-.3.03-.22-.11-.26-.29-.47-.45-.73-.17-.25-.37-.52-.38-.91-.22-.08-.25-.46-.42-.53.04-.04-.19-.72.07-.36.02.03.03.09,0,.1l.11.02c.09-.45-.28-.69-.36-1.1,0,.12.05.28-.05.19-.03-.12-.05-.25-.05-.38l.09.06-.02-.57-.1.09c.03-.28.17-.39.02-.69-.08-.14-.15.27-.18-.02.09-.38.15-.92.26-1.4-.12.03-.11-.1-.12-.23h.11c-.08-.53.25-.16.21-.67l.06.06-.19-.17c-.12-.49.26-.19.1-.75-.03.2-.25.04-.14-.2l.08.09c.01-.14,0-.19.04-.28.03.09.13.08.17-.12l.08.16-.07-.42c.2-.24.23-.73.41-.79,0,0,.31-.55.24-.74.03.16.22-.14.28,0-.03-.2.13-.67.33-.77v.04c.46-.55.52-1.13,1.04-1.57-.11-.05.15-.29-.02-.31.31-.64,1.04-.76.85-1.26.19-.25.34-.2.47-.31l-.03.07c.38-.46.5-.59.82-.9.12-.19,0-.38.31-.62-.03.15.07.03.18-.07-.06.07-.05.11.12.03,0-.04.02-.08.04-.11,0,0,.01,0,.02.01.15-.18.1-.18.02-.11,0-.01-.02-.02-.07-.02.25-.09.52-.45.64-.35.53-.46.9-.84,1.41-1.15.09.05,0,.15-.14.27.12-.08.24-.13.37-.2.04.11-.2.14-.3.23.5-.04.87-.57,1.48-.53l.1-.11h.04s.1-.13.19-.16c.1.09.03.21.31.18.23.06.62-.11.92-.15-.16-.02-.11-.07-.04-.11.15,0,.23.09.34.06v.13c-.04-.13.39-.1.45-.15.07.1-.23.06-.27.13.57.04.29.02.85.1.33-.04-.03-.13.14-.22.28.03.57.03.86.19l-.06-.14c.54.09.84.23,1.12.5,1.01.22,1.59.41,1.92.43.33.02.38-.1.33-.27-.07-.17-.28-.4-.47-.58-.19-.19-.38-.31-.38-.31C15.55.18,14.46.07,12.34.02Z"/>
  </g>
  <g>
    <path class="b" d="M126.87,9.05l-.05.03s.04,0,.05-.03Z"/>
    <path class="b" d="M125.6,19h0s0,0,0,0Z"/>
    <polygon class="b" points="125.02 10.33 125.02 10.33 125.01 10.32 125.02 10.33"/>
    <path class="b" d="M125.42,8.39c-.12.51-.36.61-.35,1.16-.06.25-.04.53-.06.79.16.15-.05.33.08.5l-.11.04c.04.06.07.12,0,.16h-.03c.06.08,0,.15.04.2h-.03s0,.08,0,.08l-.04-.02c.06.14.05.27,0,.38h.12c-.17.24.06.37-.13.57h-.03c.28.32-.28.42-.02.75-.03-.04-.06,0-.09,0,.02.14.02.29.25.32-.02.1-.08.07-.18.07.1.01.14.1.13.18l-.04-.04v.23s.21-.02.21-.02c-.07.11-.24,0-.21.12l.16.02c-.05.16-.31.23-.44.38-.14.66.22,1.38-.13,1.96h-.13c-.18,0,.25.21.08.21l.07.08s-.07.05-.11.01c-.01.06.02.07.06.12l-.12.06c-.11.24.08.48,0,.74-.27.29-.14.9-.08,1.26.18.53-.63.93-.45,1.47-.03,0,.02.06.04.07l-.14.42s-.16.51-.11.88c.05.36.34.65,1.32.04l.03.02c.17-.22.24-.38.09-.61.24.04.08-.2.17-.24h.02c-.14-.19.23-.27.1-.47.02.01.08.03.08.06,0-.12-.02-.28.12-.26.02-.27.16-.63-.03-.84l.04.02c-.13-.12,0-.13-.06-.25.02,0,.03,0,.04,0-.13-.13.03-.31-.02-.4h.09s.01-.2.01-.2l-.03.07c-.25-.07.18-.13.04-.31.05-.14-.49-.36-.35-.49-.11-.08.19.09.11-.03.13.01.08.06.19.05-.05-.11.16-.15.08-.29h.1c-.17-.18.17-.29,0-.42-.07-.18.32-.08.14-.28l.15-.05c.03-.07-.17-.07-.09-.15.09.01.08-.1.16-.04.16-.18-.16-.41.1-.63-.17-.07-.05-.19-.18-.24.08,0,.04-.25.19-.09.01.01,0,.03-.02.03l.1.03c.21-.12-.08-.27-.04-.41-.04.04-.03.09-.1.05l.03-.13.08.04.07-.19-.11.02c.06-.09.25-.11.11-.23-.08-.06-.15.07-.18-.03.09-.12.21-.29.26-.45-.12,0-.11-.04-.13-.09h.1c-.13-.18.24-.03.14-.21l.07.02-.21-.07c-.19-.17.23-.06-.04-.26,0,.07-.23,0-.18-.07l.1.03s-.06-.07-.03-.1c.05.03.14.03.14-.04l.12.06-.17-.15c.12-.08,0-.25.15-.27,0,0,.1-.2-.05-.27.09.05.14-.05.25,0-.1-.07-.17-.24-.04-.29h.01c.15-.2-.1-.41.07-.6-.12,0-.04-.11-.2-.11-.12-.24.37-.35-.09-.51-.01-.1.13-.1.16-.15l.02.03c0-.19,0-.25.03-.39-.04-.08-.25-.12-.18-.24.08.05.07,0,.08-.05,0,.03.04.05.11,0-.03-.01-.04-.03-.05-.04,0,0,.01,0,.02,0-.02-.08-.05-.07-.07-.04-.01,0-.03,0-.06,0,.13-.06.03-.23.18-.22,0-.24-.13-.44-.16-.64.08-.01.14.04.16.11v-.14c.1.02.04.09.06.14.2-.14-.13-.37.06-.55l-.08-.05h.02s-.1-.07-.12-.1c.1-.02.22.03.23-.07.1-.07-.02-.23-.06-.33-.02.05-.07.03-.11,0,0-.05.1-.07.07-.11h.13c-.13.01-.12-.13-.17-.15.1-.02.07.08.14.1.02-.19,0-.09.03-.28-.08-.11-.13,0-.23-.06-.01-.09-.09-.19,0-.28l-.12.02c-.06-.18-.03-.28.1-.38-.37-.71-.67-.86-.9-.8-.22.05-.35.3-.35.3-.34.48-.06.83-.05,1.44Z"/>
  </g>
  <g>
    <path class="b" d="M45.36,11.84l-.06.02s.04,0,.06-.02Z"/>
    <path class="b" d="M44.03,20.97h0s0,0,0,0Z"/>
    <polygon class="b" points="43.47 12.93 43.47 12.92 43.46 12.91 43.47 12.93"/>
    <path class="b" d="M43.99,11.04c-.18.49-.44.58-.45,1.12-.07.25-.06.52-.08.76.16.14-.05.31.07.47l-.11.04c.04.05.07.11,0,.15h-.03c.06.07,0,.14.04.18h-.03s0,.08,0,.08l-.04-.02c.06.13.05.26,0,.36h.12c-.17.22.07.34-.12.53h-.03c.28.3-.28.38-.01.69-.03-.04-.06,0-.09,0,.02.13.02.27.25.3-.02.09-.08.06-.18.06.1.01.14.1.13.17l-.04-.04v.21s.21-.01.21-.01c-.07.1-.24,0-.21.11l.16.02c-.05.14-.31.2-.45.33-.15.59.18,1.29-.18,1.81h-.13c-.18,0,.24.2.08.2l.07.08s-.07.05-.11.01c-.01.06.01.06.06.11l-.12.05c-.12.22.07.45,0,.69-.27.27-.14.85-.07,1.19.2.49-.6.91-.35,1.44-.03.01.02.06.05.06l-.08.43s-.08.53.05.87c.13.35.47.49,1.31-.21h.04c.12-.2.16-.35-.02-.53.24,0,.05-.19.13-.23h.02c-.17-.16.19-.26.04-.42.02,0,.08.02.08.05-.02-.1-.05-.25.09-.23,0-.24.12-.56-.08-.75l.04.02c-.14-.11,0-.12-.07-.22.02,0,.03,0,.04,0-.13-.12.02-.28-.03-.37h.09s0-.19,0-.19l-.03.07c-.25-.06.18-.12.04-.28.05-.13-.49-.34-.35-.45-.11-.08.19.08.11-.03.13.02.08.06.19.05-.05-.1.16-.14.08-.26h.1c-.17-.17.18-.26,0-.38-.06-.17.32-.06.14-.25l.15-.04c.03-.07-.17-.07-.09-.14.09.02.08-.09.16-.03.16-.16-.15-.38.11-.58-.17-.07-.05-.17-.17-.23.08,0,.04-.23.19-.08.01.01,0,.03-.02.03l.1.03c.21-.11-.08-.25-.03-.38-.04.03-.04.09-.1.04l.03-.12.08.04.07-.17h-.11c.07-.07.25-.08.11-.19-.08-.06-.15.06-.17-.03.09-.11.22-.27.27-.41-.12,0-.11-.04-.13-.09h.1c-.12-.17.24-.02.14-.19l.07.02-.21-.07c-.19-.17.23-.05-.03-.24,0,.06-.23,0-.18-.07l.1.03s-.06-.06-.03-.09c.05.03.14.03.13-.03l.12.06-.17-.14c.12-.08,0-.24.15-.26,0,0,.1-.18-.05-.25.09.05.14-.05.25,0-.1-.07-.17-.23-.05-.27h.01c.15-.19-.11-.39.06-.56-.12,0-.04-.1-.2-.1-.12-.23.37-.32-.09-.47-.01-.1.13-.09.16-.14l.02.03c-.01-.18,0-.23.03-.35-.04-.07-.25-.12-.18-.22.08.05.07,0,.08-.04,0,.03.04.04.11,0-.03-.01-.04-.03-.05-.04,0,0,.01,0,.02,0-.02-.08-.05-.07-.07-.04-.01,0-.03,0-.06,0,.13-.05.03-.21.18-.19,0-.22-.12-.4-.14-.59.08,0,.14.05.16.11v-.13c.11.02.05.08.06.13.21-.11-.12-.34.08-.48l-.08-.05h.02s-.1-.07-.11-.1c.1,0,.22.05.23-.03.11-.04,0-.2-.03-.3-.03.04-.08.01-.11-.01,0-.04.11-.04.08-.08l.13.03c-.13-.02-.1-.14-.15-.17.1,0,.06.09.13.12.03-.17.02-.08.05-.25-.07-.12-.12-.02-.22-.1,0-.09-.06-.19.05-.25h-.12c-.03-.18,0-.28.16-.32-.11-.34-.13-.62-.11-.85,0-.22-.08-.31-.17-.38-.27-.09-.79.37-.72.32-.15.12-.26.27-.32.4-.05.11-.07.23-.08.35-.03.25.03.48-.01.79Z"/>
  </g>
  <g>
    <path class="b" d="M46.31,10.29v.06s.01-.04,0-.06Z"/>
    <path class="b" d="M52.86,19.1h.01s-.01,0-.01,0Z"/>
    <polygon class="b" points="46.04 12.63 46.04 12.62 46.02 12.62 46.04 12.63"/>
    <path class="b" d="M44.81,10.83c.31.48.23.73.66,1.15.16.24.38.44.57.65.22,0,.22.29.43.33l-.04.11c.07.01.14.04.13.12h-.03c.11.03.13.13.18.14h-.03s.07.09.07.09h-.04c.15.08.24.19.28.32l.09-.08c.05.3.31.23.33.53h-.03c.44.08.11.54.55.63-.05-.01-.04.05-.07.07.11.1.22.22.42.08.06.09,0,.12-.08.18.08-.06.18-.01.23.05h-.06s.17.17.17.17l.13-.15c.03.14-.18.17-.07.24l.13-.1c.08.16-.06.39-.06.6.36.62,1.15,1,1.31,1.71l-.08.1c-.14.12.32,0,.2.11h.11c-.01.05-.01.11-.07.1.04.06.06.05.14.06l-.04.13c.1.28.42.35.56.61.04.42.61.84.95,1.07.55.26.4,1.22,1.01,1.46,0,.03.07.03.08.02l.33.41s.41.49.82.65c.41.17.73,0,.63-1.18l.04-.02c-.12-.25-.21-.4-.48-.41.16-.18-.13-.18-.11-.28h.02c-.25,0-.11-.37-.34-.38.02,0,.07-.05.1-.02-.1-.07-.24-.16-.14-.26-.21-.19-.4-.53-.69-.54h.04c-.18,0-.1-.1-.23-.15.01-.02.01-.03.02-.03-.19,0-.22-.24-.33-.27l.07-.06-.15-.17.03.08c-.22.13.02-.23-.21-.26-.07-.14-.61.08-.61-.13-.14.01.2-.06.05-.1.1-.08.1,0,.17-.1-.12-.05,0-.23-.15-.28l.08-.07c-.26-.03-.09-.35-.31-.34-.18-.1.18-.28-.1-.32l.07-.14c-.03-.08-.17.05-.17-.06.08-.05-.01-.14.09-.14,0-.25-.41-.22-.38-.58-.17.05-.17-.12-.3-.08.06-.05-.15-.23.07-.2.02,0,.03.02,0,.04l.09-.05c.07-.24-.25-.17-.32-.31,0,.06.04.1-.04.11l-.07-.12.09-.03-.08-.2-.07.09c-.02-.12.11-.25-.08-.26-.1,0-.06.16-.15.09-.02-.16-.05-.39-.13-.55-.09.08-.11.04-.16.02l.08-.07c-.23-.07.15-.19-.06-.28l.07-.03-.21.09c-.27-.02.12-.2-.22-.19.06.05-.17.16-.18.06l.1-.04s-.09-.02-.09-.06c.06,0,.13-.07.07-.12l.13-.03h-.23c.02-.16-.19-.22-.1-.34,0,0-.08-.23-.24-.18.11-.02.06-.14.17-.18-.12.01-.3-.08-.25-.2h.02c-.06-.28-.4-.27-.42-.55-.09.08-.11-.06-.22.06-.27-.11-.01-.55-.45-.34-.09-.07.01-.17,0-.24h.04c-.16-.14-.2-.19-.28-.32-.08-.03-.27.09-.31-.06.1-.02.05-.05.02-.09.03.02.06,0,.07-.08-.03,0-.05,0-.07,0,0,0,0-.01.02-.01-.08-.05-.09-.02-.08.02-.01,0-.02.02-.04.04.04-.14-.16-.2-.05-.3-.19-.19-.43-.24-.61-.38.05-.07.13-.07.2-.04l-.12-.11c.09-.07.11.03.15.06.03-.26-.38-.19-.38-.46l-.1.02v-.02s-.11.03-.15.02c.06-.09.18-.14.11-.22.02-.13-.19-.16-.3-.21.02.06-.03.08-.07.08-.04-.04.02-.13-.04-.13l.1-.09c-.08.1-.2-.02-.25,0,.06-.09.12.01.19-.03-.15-.16-.08-.08-.23-.24-.15-.02-.08.1-.21.13-.09-.06-.22-.08-.24-.22l-.06.1c-.19-.09-.26-.18-.26-.35-.83-.2-1.11-.02-1.19.2-.08.22.03.47.03.47.16.55.59.54,1.08.97Z"/>
  </g>
  <g>
    <path class="b" d="M89.4,8.86h-.07s.04.02.07,0Z"/>
    <path class="b" d="M83.38,20.03v.02s0-.02,0-.02Z"/>
    <polygon class="b" points="86.95 9.59 86.95 9.59 86.95 9.57 86.95 9.59"/>
    <path class="b" d="M88.56,7.46c-.44.5-.79.54-1.12,1.25-.18.26-.34.6-.49.89.07.23-.23.37-.2.61h-.12c0,.09,0,.17-.08.2l-.02-.02c.01.12-.08.19-.08.25l-.02-.02-.05.11-.02-.04c-.02.19-.11.34-.22.45l.11.05c-.29.21-.13.44-.42.61l-.02-.02c.09.48-.49.4-.41.89,0-.06-.06-.01-.09-.03-.06.17-.13.35.08.46-.07.11-.12.06-.21.02.09.05.08.17.03.26v-.06s-.12.27-.12.27l.2.05c-.12.11-.23-.08-.26.07l.15.08c-.13.17-.41.16-.61.28-.46.72-.5,1.71-1.11,2.28l-.13-.02c-.17-.07.14.31-.02.27l.03.12s-.1.04-.11-.02c-.04.07-.02.09,0,.17l-.14.04c-.23.28-.15.64-.33.94-.38.3-.49,1.13-.54,1.6.01.69-.92,1.14-.86,1.86-.03.01,0,.08.02.09l-.23.56s-1.05,2.71,1.1,1.14l.03.03c.2-.27.29-.46.18-.74.24.05.12-.24.22-.29h.02c-.11-.24.29-.32.2-.55.02.01.08.04.06.08.02-.14.04-.34.17-.3.08-.32.31-.73.18-1.01l.03.03c-.1-.17.04-.15.01-.31.02,0,.03,0,.04,0-.09-.18.12-.37.1-.49l.09.03.08-.25-.06.08c-.23-.13.22-.12.14-.36.1-.15-.36-.54-.17-.66-.08-.13.15.15.12-.01.13.05.05.09.17.1,0-.14.21-.14.19-.32l.1.04c-.09-.27.28-.3.17-.5.01-.23.34,0,.25-.27h.17c.06-.09-.12-.15-.01-.22.08.05.12-.09.17,0,.23-.15.04-.53.4-.7-.12-.14.04-.24-.05-.34.07.03.16-.28.22-.04,0,.02,0,.04-.04.03l.08.07c.25-.07.06-.34.17-.49-.05.03-.08.1-.12.02l.09-.14.06.07.16-.2-.11-.02c.1-.08.29-.04.21-.23-.05-.09-.18.03-.15-.09.14-.11.35-.27.48-.44-.12-.04-.09-.09-.08-.15l.1.04c-.02-.26.24.04.24-.21l.05.05-.16-.15c-.09-.27.24.01.1-.32-.03.08-.22-.08-.13-.15l.08.07c0-.06-.02-.1.02-.12.03.06.12.09.15,0l.08.11-.08-.23c.16-.06.13-.3.28-.27,0,0,.19-.2.09-.33.06.1.16-.02.24.08-.06-.11-.03-.34.11-.35v.02c.26-.2.13-.53.39-.69-.11-.05.02-.14-.13-.19.02-.32.54-.28.19-.62.05-.12.18-.07.23-.11v.04c.1-.23.14-.29.24-.44,0-.1-.17-.23-.04-.34.05.09.07.03.1-.02,0,.04.01.07.1.03-.02-.02-.02-.05-.02-.07,0,0,.01,0,.02,0,.03-.1,0-.1-.04-.07-.01,0-.03-.02-.06-.02.15-.03.15-.25.29-.18.13-.28.12-.55.21-.8.08.02.11.1.09.18l.07-.17c.1.06,0,.12,0,.18.27-.09.06-.43.35-.54l-.04-.09h.02s-.06-.11-.05-.15c.1.03.18.14.25.04.13-.02.13-.25.17-.38-.06.05-.09,0-.09-.05.04-.05.13-.02.13-.08l.11.08c-.11-.06,0-.21-.04-.26.1.03,0,.13.06.19.14-.21.07-.1.21-.31,0-.17-.11-.06-.17-.18.05-.11.05-.26.19-.32l-.12-.03c.06-.23.15-.33.33-.39.04-.46,0-.84-.19-.85-.08.05-.16-.03-.22-.02-.07,0-.13.01-.18.04-.03-.03-.05-.08-.06-.13v-.04s0-.02,0-.02h0s0-.02,0-.02h0s.32.11.32.11h0s0,0,0,0c-.1-.03-.19-.07-.29-.1-.04-.02-.08-.03-.11-.05,0-.01-.04,0-.05.01-.07.02-.12.07-.12.07-.51.3-.46.78-.85,1.45Z"/>
  </g>
  <g>
    <path class="b" d="M72.46,10.91l-.05.03s.04,0,.05-.03Z"/>
    <path class="b" d="M70.92,20.13h0s0,0,0,0Z"/>
    <polygon class="b" points="70.57 12.03 70.57 12.03 70.56 12.02 70.57 12.03"/>
    <path class="b" d="M71.05,10.18c-.15.48-.4.57-.4,1.1-.06.24-.06.51-.08.75.15.14-.06.31.07.47l-.11.03c.04.05.07.11,0,.15h-.03c.06.07,0,.14.03.18h-.03s0,.08,0,.08l-.04-.02c.06.13.04.26-.01.36h.12c-.17.22.06.35-.13.53h-.03c.27.31-.29.37-.03.69-.03-.04-.06,0-.09,0,.01.13,0,.27.24.31-.02.09-.09.06-.18.06.1.02.13.1.13.18l-.03-.04v.21s.2,0,.2,0c-.07.1-.24-.01-.21.1l.16.03c-.06.14-.32.19-.46.32-.17.59.13,1.31-.24,1.83h-.13c-.18-.01.24.2.07.2l.07.08s-.08.05-.11,0c-.02.06.01.07.06.12l-.12.05c-.12.23.06.46-.02.71-.27.27-.15.87-.07,1.22.2.5-.58.95-.33,1.47-.03.01.02.06.05.06l-.08.43s-.29,2.11,1.36.66h.04c.12-.21.16-.35-.02-.54.24,0,.05-.19.13-.24h.02c-.17-.16.19-.27.04-.43.02,0,.08.02.08.05-.02-.1-.05-.25.09-.24,0-.24.1-.57-.1-.75l.04.02c-.14-.11,0-.12-.07-.23.02,0,.03,0,.04,0-.14-.12.02-.28-.04-.37h.09s0-.19,0-.19l-.03.07c-.25-.06.18-.12.04-.28.05-.12-.49-.34-.34-.46-.11-.08.18.09.11-.02.13.02.08.06.19.05-.05-.1.16-.13.09-.26h.1c-.17-.17.18-.25.02-.38-.06-.17.32-.06.15-.25l.15-.04c.03-.07-.16-.08-.08-.14.09.02.09-.09.16-.03.17-.15-.14-.38.13-.58-.16-.08-.04-.18-.16-.23.08,0,.05-.23.19-.07.01.01,0,.03-.02.03l.1.03c.21-.1-.07-.25-.01-.38-.04.03-.04.09-.1.04l.03-.12.08.04.08-.17h-.11c.07-.07.25-.07.12-.2-.08-.06-.16.06-.17-.04.09-.11.23-.26.29-.41-.12,0-.11-.05-.13-.09h.1c-.12-.17.24,0,.15-.18l.07.03-.21-.08c-.18-.18.23-.04-.03-.25,0,.07-.23,0-.17-.08l.1.04s-.05-.07-.03-.09c.05.03.14.04.14-.03l.12.06-.16-.15c.12-.07.01-.24.16-.26,0,0,.1-.19-.04-.26.09.06.14-.05.25,0-.1-.07-.16-.24-.04-.28h.01c.16-.19-.1-.4.08-.57-.12-.01-.04-.11-.2-.11-.12-.23.38-.32-.08-.48,0-.1.13-.09.17-.14l.02.03c0-.18,0-.23.03-.36-.03-.07-.25-.12-.18-.23.08.05.07,0,.08-.04,0,.03.04.04.11,0-.03-.01-.04-.03-.05-.04,0,0,.01,0,.02,0-.02-.08-.05-.07-.06-.04-.01,0-.03,0-.06,0,.13-.06.03-.21.18-.19,0-.22-.12-.41-.14-.6.08,0,.14.05.16.11v-.13c.11.02.05.09.06.13.21-.12-.12-.35.08-.5l-.08-.05h.02s-.1-.07-.11-.1c.1,0,.22.04.23-.05.11-.05,0-.21-.04-.31-.03.05-.08.02-.11,0,0-.05.11-.05.07-.09l.13.02c-.13,0-.11-.14-.16-.17.1,0,.07.09.14.11.02-.18.01-.09.03-.27-.08-.11-.13,0-.23-.08,0-.09-.08-.19.01-.27h-.12c-.06-.17-.03-.26.11-.34-.71-1.38-1.23-.52-1.23-.52-.34.42-.05.73-.07,1.31Z"/>
  </g>
  <g>
    <path class="b" d="M57.76,10.8l-.05.03s.04,0,.05-.03Z"/>
    <path class="b" d="M56,20.46h0s0,0,0,0Z"/>
    <polygon class="b" points="55.96 12.12 55.96 12.12 55.95 12.11 55.96 12.12"/>
    <path class="b" d="M56.31,10.18c-.11.51-.36.62-.32,1.17-.05.25-.02.53-.03.78.16.14-.04.32.1.48l-.11.04c.04.05.07.11.01.16h-.03c.07.07.01.15.05.19h-.03s0,.08,0,.08l-.04-.02c.07.13.05.26,0,.37h.12c-.17.23.07.35-.12.55h-.03c.28.31-.28.39-.02.72-.03-.04-.06,0-.09,0,.01.13.01.28.25.32-.02.09-.09.06-.18.06.1.02.13.11.13.18l-.03-.04v.22s.2,0,.2,0c-.08.1-.24-.01-.21.1l.16.03c-.06.15-.32.2-.47.32-.18.6.08,1.35-.34,1.85h-.13c-.18-.04.22.22.05.2l.06.09s-.08.04-.11,0c-.02.06,0,.07.05.12l-.13.04c-.15.21,0,.47-.11.71-.15.12-.22.33-.25.56-.02.12-.02.23-.02.35-.04.18,0,.4.01.45.21.51-.57.98-.32,1.51-.03.01.02.06.05.06l-.08.45s-.33,2.18,1.35.72l.04.02c.12-.24.16-.39-.01-.59.24,0,.05-.2.13-.25h.02c-.17-.17.19-.29.04-.46.02,0,.08.02.08.05-.02-.11-.05-.26.09-.26,0-.26.1-.61-.1-.8l.04.02c-.14-.11,0-.12-.07-.24.02,0,.03-.01.04,0-.07-.06-.06-.14-.05-.2,0-.03.03-.07,0-.09l.09.03.04-.2-.04.07c-.24-.1.2-.1.09-.29.07-.13-.43-.42-.27-.53-.1-.1.17.11.11-.01.13.03.07.07.18.07-.03-.11.18-.12.13-.27l.1.02c-.14-.21.21-.26.07-.42-.04-.18.33-.03.18-.25l.15-.03c.04-.07-.15-.1-.07-.16.09.03.09-.09.16-.02.18-.15-.1-.42.19-.61-.16-.09-.03-.19-.15-.26.08,0,.07-.24.2-.07.01.01,0,.04-.03.03l.1.04c.22-.1-.05-.28,0-.41-.04.03-.04.09-.11.04l.04-.13.08.04.09-.18h-.11c.07-.08.26-.08.13-.21-.07-.06-.16.06-.17-.04.1-.11.24-.28.3-.43-.12,0-.11-.05-.12-.1h.1c-.11-.18.24,0,.15-.2l.07.03-.21-.08c-.18-.19.23-.05-.02-.26,0,.07-.23,0-.17-.08l.1.04s-.05-.07-.03-.1c.05.04.14.04.14-.03l.12.07-.16-.16c.12-.08.01-.26.16-.28,0,0,.1-.2-.05-.27.09.06.14-.05.25,0-.1-.07-.17-.24-.04-.29h.01c.15-.21-.11-.42.07-.61-.12,0-.04-.11-.2-.1-.12-.24.36-.36-.1-.5-.01-.1.13-.11.16-.15l.02.03c-.02-.19-.01-.25.01-.39-.04-.08-.26-.11-.19-.23.08.05.07,0,.08-.05.01.03.04.04.11-.01-.03-.01-.04-.03-.05-.04,0,0,.01,0,.02,0-.02-.08-.05-.07-.07-.04-.01,0-.03,0-.06,0,.12-.07.02-.23.17-.22,0-.24-.15-.42-.18-.62.08-.01.14.04.17.1v-.14c.1.01.04.09.06.13.2-.14-.14-.36.04-.53l-.08-.05h.02s-.11-.06-.12-.09c.1-.02.22.03.23-.07.1-.07-.02-.22-.07-.32-.02.05-.07.03-.11,0,0-.05.1-.06.06-.11h.13c-.13.01-.12-.12-.17-.14.1-.01.08.08.15.1.01-.18,0-.09.02-.27-.08-.11-.13,0-.23-.06-.01-.09-.09-.19,0-.27h-.12c-.06-.17-.02-.27.12-.35-.08-.17-.14-.35-.26-.42-.14-.08-.3-.03-.39-.04-.18,0-.26-.04-.35.04-.07,0-.12.01-.16.02-.02,0-.04.03-.05-.04v-.03s0-.01,0-.01h0s0,0,0,0l.44.06h0s0,0,0,0h-.05c-.13-.02-.19-.03-.19-.03-.07-.01-.14-.02-.21-.04h-.01s-.02,0-.02.02c-.02.01-.03.03-.04.06-.03.05-.05.1-.06.16-.03.11-.03.23-.02.35.02.24.09.5.1.82Z"/>
  </g>
  <g>
    <path class="b" d="M91.56,10.41l-.04.06s.04-.02.04-.06Z"/>
    <path class="b" d="M85.81,18.64h-.01s.01,0,.01,0Z"/>
    <polygon class="b" points="90.19 12.55 90.19 12.55 90.17 12.54 90.19 12.55"/>
    <path class="b" d="M89.97,10.06c.05.65-.16.85.03,1.51.02.33.12.66.19.98.2.13.05.42.22.58l-.09.08c.06.06.1.12.05.19h-.03c.09.08.05.19.1.23h-.03s.03.11.03.11h-.04c.1.14.13.3.11.46l.12-.03c-.1.33.17.42.05.72h-.03c.37.32-.14.6.22.94-.04-.04-.06.03-.09.03.06.14.1.3.34.28.01.11-.06.1-.15.12.11,0,.16.04.17.09l-.04-.02s.03.09.04.13c.07.01.14.02.2.02-.06.08-.25-.05-.21.04l.17.06c-.06.12-.35.03-.48-.04-.06.02-.1.04-.15.08-.06.04-.3.11-.49.16-.41.11-.81.19-1.21.1l-.05-.12c-.04-.18-.18.29-.23.13l-.08.09s-.08-.06-.05-.1c-.08,0-.08.03-.13.09l-.1-.1c-.33-.05-.58.2-.92.19-.43-.18-1.17.11-1.6.27-.6.33-1.38-.32-1.98.04-.02-.02-.07.04-.07.06l-.58.02s-.7.03-1.12.21c-.41.18-.61.55.52,1.25v.04c.32.08.53.09.74-.13.05.24.27,0,.35.08v.02c.18-.2.41.12.59-.06,0,.02,0,.09-.05.09.14-.04.32-.11.34.03.33-.06.79-.04.98-.29v.04c.09-.16.14-.04.27-.13,0,.02.02.03.02.03.12-.16.38-.06.48-.14l.02.09.26-.05h-.1c0-.27.21.13.38-.06.18.01.3-.57.5-.46.07-.13-.06.2.06.1.02.13-.05.09,0,.19.12-.08.22.11.37,0l.02.1c.18-.21.4.09.52-.1.2-.11.18.29.38.06l.1.13c.1.01.05-.18.16-.12,0,.09.14.05.09.15.25.11.46-.25.8-.06.05-.18.22-.1.25-.23.02.07.32-.03.16.16-.01.02-.04.02-.04-.01v.1c.2.17.29-.15.49-.14-.07-.02-.14,0-.1-.08h.18s-.03.08-.03.08c.1,0,.22,0,.37-.02l-.09-.09c.21,0,.37.16.53-.07.05-.11-.24-.06-.07-.17.28-.02.7-.17.92-.47-.12-.04-.06-.11-.04-.21l.1.04c0-.41.28-.03.26-.46l.07.06-.2-.16c-.19-.36.25-.17-.07-.56.03.15-.22.06-.2-.09.04,0,.07.02.11.03-.03-.08-.08-.09-.06-.13.06.03.15,0,.12-.09l.14.05-.21-.16c.08-.15-.08-.35.05-.41,0,0,.03-.27-.13-.31.1.04.12-.11.24-.08-.12-.05-.23-.24-.13-.34h.02c.08-.3-.23-.48-.12-.76-.12.03-.07-.12-.22-.07-.19-.26.25-.55-.24-.59-.04-.12.09-.16.11-.23l.03.03c-.07-.23-.08-.3-.09-.48-.06-.08-.28-.07-.25-.24.09.04.07-.02.06-.08.02.04.05.04.1-.04-.03,0-.05-.02-.06-.04,0,0,.01,0,.02,0-.04-.1-.07-.07-.07-.03-.01,0-.03,0-.05.02.1-.12-.04-.29.11-.32-.07-.3-.26-.49-.35-.73.07-.04.15.01.19.08l-.05-.17c.11-.01.08.09.11.14.15-.24-.24-.41-.11-.68l-.1-.04v-.02s-.11-.04-.13-.07c.09-.05.22-.03.2-.15.08-.11-.09-.27-.16-.39,0,.07-.06.06-.1.03-.01-.06.08-.11.03-.15l.13-.03c-.12.05-.16-.14-.22-.15.09-.05.1.08.18.08-.06-.25-.03-.12-.09-.37-.12-.11-.12.05-.24,0-.05-.11-.16-.2-.11-.35l-.1.07c-.14-.2-.15-.32-.08-.5-.34-.35-.63-.45-.81-.43-.18.01-.3.08-.35.19-.08.08-.13.16-.15.2-.02.08-.03.14-.03.14-.1.52.29.76.51,1.46Z"/>
  </g>
  <g>
    <path class="b" d="M66.38,8.42l.04.04s-.01-.04-.04-.04Z"/>
    <path class="b" d="M76.21,7.85h0s0,0,0,0Z"/>
    <polygon class="b" points="68.03 9.92 68.03 9.92 68.02 9.93 68.03 9.92"/>
    <path class="b" d="M66.07,9.97c.52,0,.68.22,1.2.08.25,0,.52-.09.76-.14.1-.19.32-.03.45-.2l.06.09c.04-.06.1-.1.15-.05v.03c.06-.08.15-.05.18-.09v.03s.09-.02.09-.02v.04c.11-.09.23-.11.35-.09l-.02-.12c.25.11.32-.15.55,0v.03c.25-.35.45.18.71-.16-.03.04.02.06.02.09.13-.05.27-.08.25-.32.1,0,.08.07.1.16,0-.1.07-.16.15-.17l-.03.04.21-.06-.05-.19c.12.05.04.24.15.19v-.16c.15.03.26.28.41.39.64.06,1.3-.37,1.9-.09l.03.12c.02.18.15-.27.18-.1l.07-.08s.06.07.03.11c.06,0,.06-.02.11-.08l.07.11c.25.08.46-.14.72-.1.32.22.91,0,1.25-.12.48-.28,1.05.43,1.54.12.02.03.06-.03.06-.05l.46.02s2.21.06.53-1.43v-.04c-.24-.09-.39-.11-.56.08-.03-.24-.2-.02-.26-.1v-.02c-.15.19-.31-.15-.46.02,0-.02,0-.09.04-.09-.11.03-.25.09-.26-.05-.26.04-.62-.02-.78.21v-.04c-.08.15-.11.02-.21.1,0-.02-.01-.03-.01-.04-.1.15-.3.03-.38.09v-.09s-.21.03-.21.03l.08.02c-.02.26-.16-.16-.3.01-.14-.03-.27.54-.41.42-.07.12.06-.2-.04-.1,0-.13.05-.08.02-.19-.1.07-.17-.13-.29-.04v-.1c-.16.19-.32-.13-.42.05-.16.09-.12-.31-.29-.1l-.07-.14c-.08-.02-.05.17-.13.11,0-.09-.11-.07-.06-.15-.19-.14-.37.2-.63-.03-.05.17-.17.07-.21.2,0-.08-.25,0-.12-.17.01-.01.03-.01.03.02v-.1c-.14-.19-.24.11-.38.08.04.03.1.02.06.09h-.13s.02-.1.02-.1l-.19-.05.03.11c-.1-.05-.14-.23-.24-.08-.04.09.1.14,0,.18-.13-.07-.32-.18-.49-.21.02.12-.02.12-.06.14v-.1c-.17.15-.09-.23-.25-.11v-.07s-.02.22-.02.22c-.14.22-.1-.21-.25.09.07-.02.05.23-.04.19v-.1s-.04.07-.07.05c.02-.06,0-.15-.06-.12l.04-.13-.11.2c-.1-.1-.25.05-.3-.09,0,0-.21-.05-.25.11.04-.1-.08-.13-.06-.24-.05.11-.2.22-.27.11h.01c-.25-.11-.39.19-.62.06.02.12-.1.07-.06.22-.21.17-.43-.28-.47.21-.1.04-.13-.1-.18-.12l.02-.03c-.18.06-.24.07-.38.07-.07.05-.06.28-.19.23.03-.09-.02-.07-.06-.07.03-.02.03-.05-.03-.1,0,.03-.02.05-.03.06,0,0,0-.01,0-.02-.07.04-.06.06-.02.07,0,.01,0,.03.02.05-.09-.11-.22.03-.25-.12-.23.06-.38.23-.57.31-.03-.08,0-.15.06-.18l-.13.04c0-.11.07-.07.11-.1-.18-.17-.32.21-.53.07l-.03.09h-.01s-.03.1-.06.12c-.04-.09-.02-.23-.12-.21-.08-.09-.21.07-.3.13.05.01.04.07.02.1-.05,0-.08-.09-.12-.04l-.02-.13c.03.12-.11.15-.12.2-.04-.09.06-.09.07-.17-.19.03-.09.02-.28.05-.09.11.03.12,0,.24-.09.03-.16.13-.28.07l.05.11c-.16.11-.26.1-.39,0-1.14,1.07-.11,1.32-.11,1.32.52.21.73-.15,1.3-.3Z"/>
  </g>
  <g>
    <path class="b" d="M92.47,18.22l-.05.02s.04-.01.05-.02Z"/>
    <path class="b" d="M93.02,22.39s0,0,.01,0h-.01Z"/>
    <polygon class="b" points="90.93 19.1 90.93 19.09 90.92 19.09 90.93 19.1"/>
    <path class="b" d="M90.95,18.22c-.03.23-.25.32-.12.55,0,.11.06.23.11.33.18.02.02.14.18.18l-.1.04c.05.01.09.03.04.06h-.03c.08.02.04.07.08.07h-.03s.02.04.02.04h-.04c.09.04.1.1.07.15l.12-.02c-.12.13.13.13-.01.25h-.03c.33.07-.19.23.13.31-.04,0-.06.02-.09.02.04.05.07.11.3.07,0,.04-.07.05-.16.07.1-.02.15,0,.16.04h-.04s.05.08.05.08l.19-.05c-.05.06-.24.06-.18.09l.16-.03c-.02.07-.26.16-.37.25-.03.29.41.49.16.8l-.12.03c-.18.04.27.02.11.06l.08.02s-.06.04-.1.03c0,.03.03.02.08.03l-.11.05c-.07.12.15.17.12.29-.21.17.03.39.17.51.29.17-.39.5-.06.67-.02,0,.03.02.06.02v.19s.04.94,1.44.06h.04c.08-.12.09-.19-.11-.24.24-.04.01-.09.09-.13h.02c-.19-.04.14-.16-.04-.2.02,0,.09,0,.09,0-.04-.04-.1-.1.04-.12-.05-.11,0-.27-.24-.31h.04c-.16-.02-.03-.05-.11-.08.02,0,.03,0,.03-.01-.15-.02-.04-.12-.11-.15l.09-.02-.03-.08-.02.04c-.26.03.15-.09-.02-.13.02-.06-.54-.04-.43-.12-.12-.01.2,0,.1-.03.13-.02.09,0,.19-.02-.07-.03.13-.09.03-.13l.1-.02c-.2-.04.12-.15-.07-.17-.09-.06.3-.1.09-.14l.14-.05s-.17,0-.11-.04c.09-.01.06-.06.15-.05.13-.1-.21-.13,0-.28-.17,0-.08-.06-.21-.06.07-.02,0-.11.17-.08.01,0,.01.01-.02.02h.1c.18-.11-.12-.1-.1-.17-.03.02-.02.05-.09.04v-.06s.09,0,.09,0l.04-.09-.1.03c.05-.05.23-.1.07-.12-.09,0-.14.06-.18.03.06-.07.16-.16.19-.24-.12.03-.12,0-.14,0l.1-.02c-.15-.04.22-.07.1-.12h.07s-.22.01-.22.01c-.21-.03.21-.07-.08-.09.02.02-.23.05-.18.01h.1s-.07-.02-.05-.04c.06,0,.15-.02.12-.04h.13s-.19-.02-.19-.02c.1-.06-.04-.1.1-.14,0,0,.06-.1-.1-.09.1,0,.13-.05.24-.06-.11,0-.21-.06-.1-.1h.01c.1-.12-.18-.14-.05-.25-.12.02-.06-.03-.21,0-.16-.07.29-.22-.19-.18-.03-.04.1-.07.13-.09h.03c-.05-.07-.06-.09-.05-.15-.05-.02-.27,0-.22-.05.09,0,.07-.02.07-.03.02.01.05,0,.1-.03-.03,0-.04,0-.06,0,0,0,.01,0,.02,0-.04-.03-.06-.02-.07,0-.01,0-.03,0-.05.01.11-.05-.02-.09.13-.12-.05-.09-.21-.14-.28-.21.08-.02.15-.01.18,0l-.04-.05c.11-.02.07.02.09.04.17-.09-.2-.12-.04-.22h-.09s.01-.01.01-.01c-.05,0-.11,0-.13-.01.1-.02.22-.03.21-.07.09-.04-.06-.08-.12-.12-.01.02-.07.02-.1.02,0-.02.09-.04.05-.05l.13-.02c-.12.02-.14-.03-.19-.03.1-.02.09.02.16.02-.02-.08-.01-.04-.03-.12-.1-.03-.12.02-.24.02-.03-.03-.13-.06-.05-.11l-.11.03c-.1-.06-.09-.1.02-.17-1.02-.42-1.31.05-1.31.05-.23.25.12.32.25.56Z"/>
  </g>
  <g>
    <path class="b" d="M120.29,5.93l.04.04s-.02-.04-.04-.04Z"/>
    <path class="b" d="M130.08,5.16h0s0,0,0,0Z"/>
    <polygon class="b" points="121.98 7.38 121.98 7.38 121.97 7.39 121.98 7.38"/>
    <path class="b" d="M120.02,7.49c.52,0,.68.2,1.2.05.26-.01.52-.1.76-.16.1-.19.32-.04.45-.21l.07.09c.04-.06.09-.1.15-.05v.03c.06-.08.15-.05.18-.09v.03s.09-.02.09-.02v.04c.11-.1.23-.12.35-.09l-.02-.12c.25.11.31-.15.54-.01v.03c.24-.34.44.18.7-.15-.03.04.02.06.02.09.13-.04.26-.07.25-.31.1,0,.08.07.1.16,0-.1.07-.15.15-.17l-.03.04.21-.05-.05-.19c.12.05.04.24.15.18v-.16c.15.02.25.26.41.38.63.03,1.29-.42,1.9-.16l.03.12c.02.18.15-.27.18-.11l.06-.09s.06.06.03.11c.06,0,.06-.03.11-.08l.07.11c.25.08.46-.15.72-.11.33.22.91-.02,1.25-.15.47-.29,1.06.41,1.54.09.02.03.06-.03.06-.05l.44.02s2.19.07.52-1.42v-.04c-.24-.1-.4-.12-.57.08-.03-.24-.2-.03-.27-.1v-.02c-.16.19-.32-.15-.46.03,0-.02,0-.09.04-.09-.11.03-.25.09-.26-.05-.25.04-.61,0-.77.22v-.04c-.08.15-.11.03-.21.11,0-.02-.01-.03-.01-.04-.1.15-.29.03-.37.1v-.09s-.21.03-.21.03l.08.02c-.02.26-.16-.16-.3.02-.14-.03-.26.54-.4.42-.06.12.05-.2-.05-.1,0-.13.04-.09.01-.19-.1.07-.17-.13-.29-.04v-.1c-.16.2-.32-.13-.42.06-.16.09-.12-.31-.29-.09l-.07-.14c-.07-.02-.05.18-.13.11,0-.09-.11-.07-.06-.15-.19-.13-.37.21-.62,0-.04.18-.17.08-.21.21-.01-.08-.25,0-.12-.17.01-.01.03-.01.03.02v-.1c-.14-.19-.24.12-.38.1.04.03.1.02.06.09h-.13s.02-.1.02-.1l-.19-.04.03.11c-.1-.05-.14-.23-.24-.07-.04.09.1.14,0,.18-.13-.07-.32-.17-.48-.19.02.12-.02.12-.06.14v-.1c-.17.16-.09-.23-.25-.1v-.07s-.02.22-.02.22c-.14.22-.1-.21-.25.08.07-.02.05.23-.04.19v-.1s-.04.07-.07.05c.02-.06,0-.15-.06-.13l.04-.13-.11.19c-.11-.1-.25.05-.3-.09,0,0-.22-.05-.25.11.03-.1-.09-.13-.06-.24-.05.11-.2.22-.28.11h.01c-.25-.11-.41.19-.63.07.02.12-.09.07-.05.22-.2.18-.43-.26-.45.22-.1.04-.13-.1-.18-.12l.02-.03c-.18.06-.23.07-.37.08-.06.05-.05.28-.18.24.03-.09-.02-.07-.07-.06.03-.02.03-.05-.03-.1,0,.03-.02.05-.03.06,0,0,0-.01,0-.02-.07.04-.06.07-.02.07,0,.01,0,.03.02.05-.09-.1-.22.04-.25-.11-.23.06-.37.24-.56.32-.03-.08,0-.15.06-.19l-.13.05c-.01-.11.07-.07.11-.1-.18-.16-.31.22-.52.08l-.03.09h-.01s-.03.1-.05.12c-.04-.09-.03-.22-.12-.21-.09-.08-.21.07-.3.14.05,0,.04.07.03.1-.05,0-.09-.08-.12-.04l-.02-.13c.03.12-.11.15-.12.2-.04-.09.06-.09.07-.17-.19.04-.09.02-.28.05-.09.11.03.12,0,.24-.09.04-.16.14-.27.07l.05.11c-.16.11-.26.11-.38,0-1.12,1.1-.1,1.33-.1,1.33.52.2.73-.17,1.3-.34Z"/>
  </g>
</svg>