<?xml version="1.0" encoding="UTF-8"?>
<svg id="a" data-name="Layer 1" xmlns="http://www.w3.org/2000/svg" width="77.24" height="29.81" viewBox="0 0 77.24 29.81">
  <defs>
    <style>
      .b {
        fill: #5f5f5f;
        stroke-width: 0px;
      }
    </style>
  </defs>
  <g>
    <path class="b" d="M2.92,4.33l-.04.08s.03-.02.04-.08Z"/>
    <path class="b" d="M1.34,23.64s0,.01,0,.02c0-.01,0-.02,0-.02Z"/>
    <polygon class="b" points="1.57 7.22 1.57 7.22 1.56 7.2 1.57 7.22"/>
    <path class="b" d="M1.88,3.36c-.08,1.01-.26,1.27-.25,2.33-.04.5-.05,1.04-.06,1.53.11.24-.05.64.03.93l-.08.1c.03.1.04.21,0,.3h-.02c.04.14,0,.3.02.37h-.02s0,.17,0,.17l-.03-.03c.04.25.02.51-.03.73h.09c-.14.46.02.65-.13,1.08h-.02c.18.56-.24.85-.08,1.43-.02-.07-.05.03-.07.02,0,.26-.02.54.15.56-.02.19-.07.15-.14.17.07,0,.09.17.08.32l-.02-.07-.02.43.15-.07c-.06.22-.18.04-.16.26h.12c-.05.32-.25.48-.36.78-.17,1.25,0,2.63-.29,3.79l-.09.05c-.13.01.16.34.04.37l.05.14s-.06.12-.08.05c-.01.13,0,.13.04.22l-.09.13c-.1.49.02.93-.05,1.45-.21.62-.15,1.81-.12,2.5.12.97-.48,2.05-.33,3.05-.02.03.01.12.03.12l-.08.9s-.09,1.09,0,1.78c.04.34.15.64.29.55.14-.09.34-.41.66-1.22l.03.02c.1-.48.14-.79.02-1.14.18-.04.05-.4.11-.51h.01c-.11-.3.16-.6.06-.89.01.01.06.02.06.09,0-.21-.02-.5.08-.51.01-.5.11-1.2-.02-1.54l.03.02c-.09-.19,0-.24-.04-.45.01-.01.02-.02.03-.02-.09-.21.03-.58,0-.75h.07s.02-.4.02-.4l-.03.15c-.18-.07.14-.29.04-.59.04-.27-.34-.58-.23-.85-.08-.14.13.13.08-.08.1,0,.05.1.13.05-.03-.2.12-.31.08-.56h.08c-.11-.33.14-.59.03-.81-.04-.33.24-.2.12-.55l.11-.12c.03-.14-.12-.11-.05-.27.06.01.07-.2.12-.1.13-.35-.09-.75.12-1.21-.11-.11-.02-.35-.11-.43.05,0,.05-.48.14-.2,0,.02,0,.06-.02.06l.07.04c.16-.26-.03-.5.01-.77-.03.08-.03.18-.08.11l.03-.25.06.06.07-.37-.08.04c.06-.18.19-.23.1-.45-.05-.1-.12.16-.12-.03.08-.24.19-.6.24-.91-.09.02-.08-.06-.09-.15h.08c-.07-.34.18-.11.13-.45l.05.03-.15-.1c-.12-.31.17-.15,0-.49,0,.13-.17.05-.12-.11l.07.05c0-.09-.03-.12-.01-.18.03.06.1.04.1-.09l.08.1-.11-.26c.1-.18.03-.5.14-.56,0,0,.09-.41-.01-.51.06.09.11-.13.18-.06-.07-.11-.1-.43,0-.55v.02c.14-.46-.03-.81.11-1.22-.09.01-.02-.21-.14-.16-.07-.44.29-.77-.03-.96,0-.2.1-.23.13-.33v.05c.02-.37.02-.48.05-.75-.02-.14-.18-.17-.12-.42.06.08.05-.02.06-.11,0,.06.03.08.08-.04-.02-.02-.03-.05-.04-.07,0,0,0,0,.02,0-.01-.16-.03-.13-.05-.06,0,0-.02,0-.04.02.09-.15.03-.44.14-.46,0-.46-.08-.8-.1-1.19.06-.04.1.05.12.17v-.27c.08,0,.03.16.04.24.15-.32-.09-.68.05-1.05l-.06-.08v-.02s-.06-.09-.07-.15c.07-.05.16.01.17-.18.07-.15-.01-.43-.05-.62-.02.11-.05.07-.08.02,0-.09.07-.15.04-.22h.09c-.09.03-.09-.26-.13-.29.07-.05.06.15.11.17,0-.38,0-.19,0-.57-.06-.2-.09.03-.17-.06-.01-.18-.08-.35-.02-.56l-.08.06c-.06-.34-.05-.53.04-.76-.69-2.48-.94-.52-.94-.52-.18.97.05,1.47.08,2.62Z"/>
  </g>
  <g>
    <path class="b" d="M22.32,18.68l-.07.07s.04-.01.07-.07Z"/>
    <path class="b" d="M32.22,17.67h-.02s.02,0,.02,0Z"/>
    <polygon class="b" points="20.68 22.38 20.68 22.37 20.67 22.34 20.68 22.38"/>
    <path class="b" d="M21.97,17.1c-.42.58-.65.98-.87,1.39-.21.42-.39.87-.5,1.64-.13.73-.08,1.53.08,2.24.18.31.25.93.5,1.25v.16c.08.11.17.23.19.37h-.02c.14.15.21.37.28.44h-.02s.13.21.13.21l-.05-.02c.22.27.43.57.61.84l.05-.07c.37.6.68.65,1.12,1.12h-.02c.78.25,1.09.8,1.98.75-.11,0,.04.05.02.07.39.03.78.03.79-.14.26,0,.21.06.24.13,0-.07.22-.1.43-.12l-.09.03c.19-.01.39-.03.58-.06l-.13-.13c.31.01.09.16.38.1l-.02-.12c.42-.03.7.09,1.13.07.86-.22,1.7-.69,2.37-1.3.67-.61,1.2-1.31,1.68-1.96l.11-.02c.13.03.04-.49.17-.49l.02-.2s.11-.13.1-.03c.07-.16.06-.17.07-.3l.15-.14c.29-.64.31-1.25.42-1.97.11-.43.15-1.1-.01-1.74-.14-.65-.44-1.25-.7-1.66-.39-.55-.75-1.17-1.24-1.73-.12-.14-.25-.28-.39-.4-.1-.11-.38-.31-.49-.35-.28-.17-.57-.32-.89-.42-.03-.04-.15-.05-.15-.04-.35-.19-.73-.37-1.14-.51,0,0-.37-.14-.89-.2-.53-.07-1.2.02-1.64.22-.45.19-.7.42-.57.52.12.13.65.01,1.61.24l-.02.03c.55.07.86.17,1.29.16,0,.18.44.19.55.3h-.02c.39.04.63.45,1.01.52-.02,0-.05.04-.13,0,.25.11.6.26.57.36.02,0,.21.15.32.23.12.11.26.21.37.33.24.22.44.44.62.55h-.04c.21.11.18.21.34.4,0,.02,0,.04,0,.04.22.15.33.62.43.78l-.06.03c.06.14.11.29.15.45l-.03-.18c.19.02,0,.37.15.69.02.31.45.64.34,1,.08.17-.13-.15-.08.1-.1,0-.06-.12-.13-.06.04.25-.14.38-.11.68h-.08c.06.4-.25.68-.22.95-.07.4-.28.18-.32.61l-.16.11c-.09.15.07.17-.07.32-.05-.04-.16.19-.16.06-.28.33-.33.85-.83,1.17.02.18-.24.33-.24.46-.04-.02-.43.37-.27.08.01-.02.05-.05.06-.04l-.02-.08c-.32.1-.38.42-.66.58.09-.02.19-.11.15-.02-.08.06-.17.1-.25.15l.02-.08c-.13.07-.26.13-.39.18l.09.04c-.21.06-.32-.02-.5.16-.08.1.23.02.03.13-.29.07-.72.11-1.08.16.05.08-.05.09-.15.13l-.02-.07c-.37.17-.16-.13-.54-.01l.03-.06-.09.17c-.35.18-.2-.14-.59.08.16-.02.08.17-.12.13l.05-.07c-.11.01-.15.04-.22.02.07-.04.04-.1-.12-.1l.11-.09-.3.12c-.21-.09-.56-.05-.63-.17,0,0-.42-.16-.55-.11.11-.03-.11-.15-.01-.19-.13.03-.47-.07-.54-.22h.03c-.36-.33-.76-.45-.99-.89-.06.07-.17-.16-.22-.05-.4-.36-.31-.9-.69-.91-.13-.21-.05-.3-.09-.41l.04.04c-.22-.4-.25-.52-.35-.82-.09-.14-.23-.13-.26-.42.08.08.05-.03.02-.14.02.07.05.08.06-.06-.03-.02-.04-.05-.05-.07,0,0,0,0,.02,0-.04-.18-.06-.14-.06-.06-.01,0-.02,0-.04.03.06-.2-.06-.53.06-.56-.03-.54-.1-.95-.03-1.42.07-.04.09.08.08.21l.05-.33c.08.02,0,.19,0,.3.2-.34.07-.82.36-1.2l-.02-.11.02-.02s-.03-.13-.02-.2c.09-.03.14.07.24-.13.14-.13.21-.47.31-.68-.08.1-.09.05-.08-.01.06-.1.16-.12.18-.21l.08.04c-.11-.02.1-.3.1-.35.1,0-.06.18-.04.23.28-.37.13-.19.42-.55.11-.23-.1-.03-.08-.17.13-.18.23-.39.46-.52h-.12c.26-.35.47-.5.75-.61.53-.61.88-.93,1.01-1.14.14-.21.08-.28-.05-.3-.14,0-.37.06-.57.13-.2.06-.35.15-.35.15-.63.29-1.04.65-1.41,1.07-.37.42-.71.91-1.14,1.6Z"/>
  </g>
  <g>
    <path class="b" d="M44.86,17.62l-.02.07s.03-.02.02-.07Z"/>
    <path class="b" d="M51.41,17.96v-.02s0,.02,0,.02Z"/>
    <polygon class="b" points="44.2 20.4 44.2 20.39 44.18 20.38 44.2 20.4"/>
    <path class="b" d="M43.66,17.03c.1.87-.02,1.13.19,2.01.03.21.07.43.12.65.06.25.15.5.22.7.18.16.18.54.36.73l-.04.11c.06.07.12.15.11.24h-.02c.09.1.11.24.16.29h-.02s.06.14.06.14h-.04c.13.17.21.37.25.56l.08-.05c.05.42.28.5.3.89h-.02c.19.18.22.37.25.56.05.25.15.61.38.89-.06-.07-.02.08-.03.1.16.34.32.71.4.45.09.23.05.27.04.41.03-.12.12.02.2.19l-.04-.03c.04.08.08.18.12.25l.15-.24-.04-.2c.14-.14.02.28.18-.01v-.21c.2-.25.36-.18.66-.46.65-.9.78-1.2,1.08-1.71.28-.47.56-.93.94-1.27l.1.02c.12.06,0-.33.12-.3l.02-.13s.1-.05.09,0c.07-.08.05-.1.06-.18l.13-.05c.3-.31.38-.69.67-1.03.44-.34.92-1.22,1.21-1.72.36-.76,1.35-1.18,1.7-1.97.03,0,.04-.09.03-.1l.49-.59s2.35-2.86-.24-1.33v-.03c-.32.28-.5.48-.57.79-.16-.07-.23.26-.33.3v-.02c-.06.28-.42.34-.48.61,0-.02-.04-.05,0-.1-.09.15-.22.37-.3.32-.25.35-.66.79-.7,1.1v-.03c-.02.19-.12.17-.19.34-.02,0-.03,0-.03,0-.02.2-.3.4-.35.54l-.06-.03-.2.28.09-.09c.12.15-.25.14-.3.41-.16.17.03.6-.19.74,0,.14-.05-.16-.1.01-.08-.05,0-.1-.09-.11-.06.16-.24.16-.31.37l-.07-.04c-.05.3-.38.36-.38.58-.11.26-.29.02-.34.34l-.15.03c-.09.09.05.14-.07.23-.05-.04-.14.11-.14.01-.26.2-.25.6-.62.84.05.14-.13.27-.09.38-.05-.02-.24.33-.21.08,0-.02.03-.05.04-.04l-.04-.06c-.25.11-.18.39-.33.57.06-.04.11-.12.11-.04l-.13.17-.03-.07-.21.24h.09c-.11.1-.28.12-.25.26.03.06.11.03.1.08-.09.03-.16,0-.19,0,.02.12.01.13,0,.17v-.11c-.04.22-.03-.27-.04-.1v-.1s-.02.31-.02.31c-.01.07-.02.1-.02.11-.02-.02.04-.32-.03-.06.02,0-.05.32-.06.2l.03-.11s-.03.04-.03,0c.02-.05.05-.16.03-.17l.05-.12c-.02.06-.05.11-.09.14.03-.14-.06-.1,0-.21,0-.01.01-.11-.12-.13.09.04.04-.15.14-.13-.11-.06-.26-.28-.22-.41l.02.02c-.06-.4-.35-.59-.38-.96-.08.05-.1-.15-.18-.06-.23-.31-.02-.7-.39-.71-.07-.15,0-.21,0-.3l.03.03c-.13-.28-.16-.37-.23-.59-.07-.1-.22-.06-.25-.27.08.04.04-.03.02-.1.02.04.05.05.06-.06-.02,0-.04-.02-.06-.04,0,0,0,0,.01,0-.06-.11-.07-.09-.06-.03-.01,0-.02,0-.03.03.04-.15-.09-.33,0-.37-.09-.38-.24-.63-.34-.95.05-.05.11.02.15.11l-.06-.22c.08-.01.07.12.09.19.08-.29-.22-.53-.16-.87l-.07-.05v-.02s-.08-.06-.1-.1c.06-.06.16-.03.13-.18.05-.14-.09-.35-.16-.5,0,.09-.04.07-.07.03-.02-.08.05-.14,0-.19l.09-.02c-.08.05-.13-.19-.17-.21.06-.06.08.11.13.12-.06-.31-.03-.16-.09-.47-.1-.16-.08.05-.18-.02-.04-.15-.13-.28-.1-.46l-.07.07c-.11-.27-.13-.44-.08-.64-1.02-1.98-1-.3-1-.3-.05.85.27,1.24.49,2.21Z"/>
  </g>
  <g>
    <path class="b" d="M17.02,5.18l-.05.07s.03-.01.05-.07Z"/>
    <path class="b" d="M14.82,23.49v.02s0-.02,0-.02Z"/>
    <polygon class="b" points="15.44 7.81 15.44 7.81 15.43 7.79 15.44 7.81"/>
    <path class="b" d="M16.08,4.14c-.19.96-.39,1.19-.47,2.2-.08.48-.12.99-.17,1.46.09.24-.09.62-.02.89l-.09.09c.02.1.03.21-.02.29h-.02c.04.13-.02.28,0,.35h-.02s-.01.16-.01.16l-.03-.03c.03.24,0,.49-.06.7h.09c-.16.44,0,.63-.17,1.03h-.02c.17.54-.26.8-.1,1.37-.02-.07-.05.02-.07.02,0,.25-.02.52.15.54-.02.18-.07.14-.14.16.07,0,.09.17.08.31l-.02-.07v.41s.13-.07.13-.07c-.06.21-.18.04-.16.25h.12c-.05.31-.25.46-.36.75-.15,1.22.07,2.5-.27,3.59l-.09.04c-.13,0,.16.33.03.35l.04.14s-.06.11-.08.04c-.02.12,0,.12.03.21l-.09.12c-.12.46-.01.88-.11,1.37-.24.57-.25,1.71-.26,2.36.06.93-.61,1.91-.53,2.87-.02.03,0,.11.02.11l-.14.85s-.64,4.12.86,1.14l.02.02c.13-.45.19-.74.1-1.08.18-.03.07-.38.15-.48h.01c-.09-.29.2-.55.12-.84.01.01.06.03.05.09,0-.2.01-.48.11-.48.05-.48.19-1.14.08-1.46l.02.02c-.08-.19.02-.23,0-.43.01,0,.02-.02.03-.02-.08-.21.06-.56.04-.71h.07s.04-.38.04-.38l-.03.14c-.17-.07.15-.27.08-.56.06-.25-.31-.57-.18-.83-.07-.14.12.13.08-.07.1,0,.05.1.13.06-.02-.19.14-.29.1-.53h.08c-.1-.32.17-.56.06-.77-.02-.32.25-.18.14-.52l.11-.11c.03-.14-.11-.11-.05-.26.06.02.07-.19.12-.09.14-.34-.07-.72.15-1.17-.11-.11-.02-.34-.11-.42.05,0,.05-.46.14-.19,0,.02,0,.06-.02.06l.07.04c.16-.25-.04-.49,0-.74-.03.08-.03.18-.08.11l.03-.24.06.05.06-.36-.08.04c.05-.17.19-.22.09-.42-.05-.09-.12.16-.13-.03.07-.23.17-.57.22-.86-.09.02-.08-.06-.09-.14h.08c-.07-.33.17-.1.12-.42l.05.03-.15-.1c-.12-.3.17-.14,0-.47,0,.12-.17.04-.12-.11l.07.05c0-.09-.03-.12-.01-.17.03.05.1.04.1-.09l.08.09-.11-.25c.1-.17.03-.47.14-.53,0,0,.1-.38,0-.48.06.09.11-.12.18-.05-.07-.11-.09-.41,0-.52v.02c.15-.43-.01-.77.14-1.15-.09,0-.01-.2-.13-.16-.05-.42.32-.71,0-.91,0-.19.11-.21.14-.3v.05c.03-.35.04-.45.09-.71-.01-.13-.17-.18-.1-.4.05.08.05-.01.07-.1,0,.06.02.08.08-.03-.02-.02-.03-.05-.03-.07,0,0,0,0,.02,0,0-.15-.02-.13-.04-.06,0,0-.02,0-.04.02.1-.14.06-.42.17-.42.04-.44-.03-.76-.01-1.13.06-.03.1.06.1.17l.02-.26c.08.01.02.15.03.24.17-.29-.03-.65.14-.99l-.05-.08v-.02s-.05-.09-.06-.15c.08-.04.16.03.18-.15.09-.13.03-.4.02-.59-.03.1-.06.06-.08.01.01-.09.09-.13.07-.2h.09c-.09.03-.06-.24-.09-.28.08-.04.04.15.09.18.05-.36.02-.18.07-.53-.04-.2-.09.02-.16-.08,0-.17-.03-.34.05-.53l-.09.05c-.02-.32.02-.51.14-.71-.16-1.24-.44-1.31-.58-1.15-.15.08-.27.53-.27.53-.31.88-.15,1.4-.25,2.5Z"/>
  </g>
  <g>
    <path class="b" d="M42.34,15.4l-.04.03s.03,0,.04-.03Z"/>
    <path class="b" d="M40.14,24.37s0,0,0,.01c0,0,0-.01,0-.01Z"/>
    <polygon class="b" points="40.81 16.46 40.81 16.46 40.81 16.45 40.81 16.46"/>
    <path class="b" d="M41.43,14.68c-.18.46-.38.55-.46,1.05-.08.23-.11.48-.16.72.09.14-.08.3-.01.46l-.08.03c.02.05.03.11-.02.15h-.02c.04.07-.02.14,0,.18h-.02s-.01.08-.01.08l-.03-.02c.03.13,0,.25-.05.35h.09c-.15.21,0,.34-.16.52h-.02c.16.3-.25.36-.11.68-.02-.04-.05,0-.07,0,0,.13-.03.26.14.3-.02.09-.07.06-.14.06.07.02.08.1.07.17l-.02-.04-.02.21h.15c-.06.09-.17-.02-.17.09l.11.03c-.06.14-.25.18-.37.31-.19.58-.05,1.28-.37,1.78h-.09c-.13-.01.15.2.03.19l.04.08s-.06.05-.08,0c-.02.06,0,.06.03.12l-.09.05c-.11.22,0,.45-.09.69-.23.26-.2.85-.19,1.19.09.49-.52.91-.4,1.42-.02.01.01.06.03.06l-.1.42s-.12.51-.05.87c.09.47.31.43.95-.19l.03.02c.11-.22.15-.35.04-.54.17,0,.06-.18.12-.23h.01c-.1-.16.17-.26.08-.42.01,0,.06.02.05.05,0-.1-.01-.24.09-.23.02-.24.14-.56.01-.74l.03.02c-.09-.11,0-.11-.02-.22.01,0,.02,0,.03,0-.08-.12.04-.28.02-.36h.07s.03-.18.03-.18l-.03.07c-.17-.06.14-.12.06-.28.05-.12-.32-.34-.2-.45-.07-.08.12.09.08-.02.09.02.05.06.13.05-.02-.1.13-.13.09-.26h.07c-.1-.17.16-.24.05-.37-.03-.17.24-.05.13-.24l.11-.04c.03-.06-.11-.08-.04-.14.06.02.07-.08.12-.03.14-.15-.06-.38.16-.56-.11-.08-.01-.17-.09-.23.05,0,.06-.22.15-.07,0,.01,0,.03-.02.03l.07.03c.16-.1-.02-.25.03-.37-.03.03-.04.08-.08.04l.04-.11.05.04.08-.17h-.08c.06-.07.19-.07.11-.19-.05-.06-.12.06-.12-.04.08-.1.2-.25.25-.39-.09,0-.07-.04-.08-.09h.07c-.06-.17.17,0,.13-.18l.05.03-.14-.08c-.11-.17.17-.04,0-.24,0,.06-.17-.01-.12-.08l.07.04s-.03-.07,0-.09c.03.03.1.04.1-.03l.08.06-.1-.15c.1-.07.04-.23.14-.25,0,0,.1-.18,0-.25.06.05.11-.04.18,0-.06-.07-.09-.23,0-.27h0c.14-.18-.02-.38.13-.55-.09-.01-.01-.1-.13-.11-.05-.23.31-.31,0-.47,0-.1.11-.09.13-.13v.03c.03-.18.04-.23.08-.35-.02-.07-.17-.12-.1-.23.05.05.05,0,.06-.04,0,.03.02.04.08,0-.02-.01-.03-.03-.03-.04,0,0,0,0,.02,0,0-.08-.02-.07-.04-.04,0,0-.02,0-.04,0,.1-.05.05-.2.16-.18.04-.22-.03-.4-.02-.59.06,0,.1.05.1.11l.02-.13c.08.02.02.08.03.13.17-.12-.04-.34.13-.48l-.05-.05h.01s-.07-.07-.07-.1c.07,0,.16.05.18-.04.09-.05.02-.2.01-.3-.03.04-.06.02-.08,0,.01-.04.09-.05.07-.09l.09.02c-.09,0-.06-.14-.09-.17.07,0,.04.08.09.11.04-.17.02-.09.06-.26-.04-.11-.09,0-.16-.08,0-.09-.03-.18.05-.26h-.09c-.02-.17.02-.25.13-.33-.31-1.34-.82-.51-.82-.51-.31.4-.15.71-.25,1.26Z"/>
  </g>
  <g>
    <path class="b" d="M75.63,12.6l-.03-.03s.01.03.03.03Z"/>
    <path class="b" d="M68.25,13.95h0s0,0,0,0Z"/>
    <polygon class="b" points="74.35 11.55 74.35 11.55 74.35 11.54 74.35 11.55"/>
    <path class="b" d="M75.9,11.5c-.41-.01-.53-.16-.94-.05-.2,0-.41.07-.61.11-.08.14-.26.03-.35.15l-.05-.07s-.07.07-.12.04v-.02c-.05.06-.12.04-.14.07v-.02s-.07.02-.07.02v-.03c-.08.07-.18.09-.28.08l.02.09c-.2-.07-.25.12-.44.03v-.02c-.18.26-.37-.1-.56.15.02-.03-.02-.04-.02-.06-.1.04-.21.07-.18.24-.07.01-.07-.04-.09-.11.01.07-.05.12-.1.13l.02-.03-.16.06.06.13c-.1-.02-.05-.17-.13-.12l.02.11c-.13,0-.23-.16-.36-.22-.5.05-.96.45-1.46.35l-.04-.08c-.04-.12-.08.21-.13.1l-.04.07s-.06-.04-.04-.07c-.05,0-.05.03-.07.07l-.07-.07c-.21-.02-.33.17-.54.19-.15-.04-.28-.03-.52.07-.13.07-.29.17-.4.24-.32.27-.82-.17-1.16.1-.01-.02-.04.03-.04.04l-.34.03s-.42.04-.66.19c-.24.15-.33.42.38.87v.03c.2.04.32.04.44-.11.04.17.16,0,.21.05h0c.1-.13.26.09.36-.05,0,.01,0,.06-.02.07.08-.03.19-.09.21,0,.19-.06.48-.06.58-.25v.03c.05-.12.09-.04.16-.11,0,.01.01.02.01.02.06-.12.23-.07.28-.13l.02.06.16-.06h-.06c-.03-.18.15.08.24-.07.04.01.1-.42.21-.35.03-.1-.01.15.05.06.02.09-.02.07.02.14.06-.06.14.07.22-.02l.02.07c.09-.16.25.04.3-.1.11-.09.13.2.23.03l.07.09c.06,0,.01-.13.08-.1.01.06.09.03.07.1.16.07.25-.2.47-.08.01-.13.12-.08.13-.17.02.05.19-.03.11.11,0,.01-.02.01-.03,0v.07c.13.11.18-.11.28-.11-.04-.02-.07,0-.06-.06h.1s0,.05,0,.05h.15s-.03-.06-.03-.06c.08.02.13.15.18.03.02-.07-.09-.09-.02-.13.1.03.26.08.38.08-.03-.08,0-.09.03-.11l.02.07c.11-.13.08.15.19.05v.05s0-.16,0-.16c.09-.17.09.14.18-.08-.05.02-.05-.16.01-.14v.07s.03-.05.06-.04c-.01.04,0,.11.06.08l-.02.09.07-.15c.09.06.18-.05.23.04,0,0,.16.02.18-.09-.02.07.07.09.06.17.03-.08.14-.17.2-.09h0c.19.07.28-.15.46-.07-.02-.08.07-.05.03-.16.15-.13.33.18.35-.17.07-.03.1.07.14.08l-.02.02c.14-.05.18-.05.28-.06.05-.04.04-.2.14-.17-.02.07.01.05.05.05-.02.01-.03.04.03.07,0-.02.01-.03.02-.04,0,0,0,0,0,.02.06-.03.04-.05.02-.05,0,0,0-.02-.01-.04.07.07.17-.02.19.08.17-.04.29-.17.43-.23.02.05,0,.11-.05.13l.1-.03c0,.08-.06.05-.09.07.14.12.24-.15.4-.05l.02-.07h0s.03-.07.05-.09c.03.07.01.16.08.15.06.06.16-.05.23-.09-.04,0-.03-.05-.02-.07.04,0,.06.06.09.03v.09c-.01-.09.1-.1.11-.14.03.07-.05.06-.06.12.14-.02.07,0,.22-.03.07-.08-.02-.09.01-.17.07-.02.13-.09.21-.04l-.03-.08c.13-.07.2-.07.3.01.93-.74.15-.94.15-.94-.4-.16-.58.09-1.04.2Z"/>
  </g>
  <g>
    <path class="b" d="M55.78,14.23l-.04.03s.03,0,.04-.03Z"/>
    <path class="b" d="M55.05,23.81s0,0,0,0c0,0,0,0,0,0Z"/>
    <polygon class="b" points="54.35 15.49 54.35 15.49 54.34 15.47 54.35 15.49"/>
    <path class="b" d="M54.82,13.55c-.14.5-.34.61-.37,1.15-.06.25-.08.53-.1.78.1.14-.05.33.03.49l-.08.04c.03.05.04.11,0,.16h-.02c.04.07,0,.15.02.19h-.02s0,.08,0,.08l-.03-.02c.04.14.02.27-.02.38h.09c-.13.23.04.35-.11.56h-.02c.19.3-.21.42-.03.74-.02-.04-.05.01-.07,0,.01.14,0,.28.18.3-.01.1-.06.07-.13.08.08,0,.1.09.09.17l-.03-.04v.22s.15-.03.15-.03c-.05.11-.17.01-.15.13h.12c-.04.17-.22.24-.32.39-.1.65.17,1.35-.04,1.95l-.09.03c-.13.01.19.17.07.19l.06.07s-.05.06-.08.03c0,.06.02.07.05.11l-.08.07c-.07.26.1.47.07.74-.16.33.03.94.13,1.28.23.47-.23,1.09.06,1.57-.02.02.03.06.04.05l.03.43s.03.45.08.74c.03.15.09.28.24.3.14,0,.4-.07.71-.54h.03c.08-.28.08-.47-.08-.63.17-.05,0-.22.04-.28h.01c-.15-.13.07-.32-.06-.45.01,0,.06,0,.07.03-.03-.1-.09-.24.01-.26-.06-.24-.04-.59-.21-.74h.03c-.12-.07-.03-.11-.09-.21.01,0,.02-.01.02-.01-.12-.09-.04-.29-.09-.37h.07s-.03-.21-.03-.21v.07c-.2-.02.1-.16-.03-.29.01-.13-.4-.26-.31-.4-.09-.06.14.05.07-.04.1,0,.06.04.14.02-.05-.1.09-.16.03-.28h.07c-.14-.16.09-.3-.04-.41-.06-.16.22-.11.08-.28l.1-.07c.02-.07-.12-.05-.07-.13.06,0,.05-.1.11-.05.1-.18-.14-.37.04-.6-.12-.06-.04-.17-.14-.22.05,0,.02-.24.13-.1,0,.01,0,.03-.01.03l.07.02c.14-.13-.07-.25-.04-.38-.03.04-.02.09-.07.05l.02-.12.06.03.05-.18-.08.02c.04-.09.18-.11.07-.22-.06-.05-.11.08-.13-.02.06-.12.15-.29.19-.45-.09,0-.08-.03-.09-.08h.07c-.09-.17.17-.05.1-.21l.05.02-.15-.06c-.13-.16.16-.06-.03-.25,0,.07-.17.01-.13-.06l.07.03s-.04-.06-.02-.09c.04.03.1.02.1-.04l.09.05-.12-.14c.09-.09,0-.25.11-.27,0,0,.07-.2-.03-.26.06.05.1-.06.18-.02-.07-.06-.11-.22-.02-.28h0c.11-.2-.07-.39.07-.59-.09,0-.02-.1-.14-.09-.08-.23.28-.35-.05-.48,0-.1.1-.1.12-.15v.03c.02-.19.02-.24.05-.37-.02-.07-.18-.11-.12-.22.06.05.05,0,.06-.05,0,.03.03.04.08,0-.02-.01-.03-.03-.04-.04,0,0,0,0,.02,0,0-.08-.03-.07-.05-.04,0,0-.02,0-.04,0,.09-.06.03-.22.14-.21.02-.23-.06-.41-.07-.61.06-.01.1.04.11.1v-.14c.08.02.04.09.04.13.16-.13-.06-.35.09-.52l-.05-.05h.01s-.07-.07-.07-.1c.07-.01.16.03.17-.06.08-.06,0-.21,0-.32-.02.05-.06.02-.08,0,0-.05.08-.06.06-.1l.09.02c-.09,0-.07-.14-.1-.17.07-.01.04.08.09.11.03-.19.02-.09.05-.28-.05-.11-.09,0-.16-.07,0-.09-.04-.19.03-.28h-.09c-.03-.17,0-.26.11-.35-.37-1.38-.85-.47-.85-.47-.3.44-.11.75-.18,1.34Z"/>
  </g>
  <g>
    <path class="b" d="M12.32,17.98l-.04-.03s0,.03.04.03Z"/>
    <path class="b" d="M3.35,18.01h0s0,0,0,0Z"/>
    <polygon class="b" points="10.95 16.79 10.95 16.79 10.96 16.78 10.95 16.79"/>
    <path class="b" d="M12.76,16.9c-.47-.04-.6-.21-1.09-.14-.23-.01-.48.02-.71.04-.11.13-.3,0-.43.1l-.05-.07s-.1.06-.14.02v-.02c-.06.05-.14.02-.17.05v-.02s-.08,0-.08,0v-.03c-.1.06-.22.06-.33.03v.09c-.22-.1-.3.08-.5-.04v-.02c-.26.23-.4-.16-.67.06.03-.03-.01-.04-.01-.07-.12.02-.25.04-.26.21-.09,0-.07-.05-.08-.12,0,.08-.08.11-.15.11l.03-.03-.2.02.04.14c-.11-.04-.03-.17-.13-.14v.12c-.14-.02-.23-.2-.37-.29-.59-.05-1.22.25-1.77.05l-.02-.09c-.01-.13-.15.19-.17.07l-.06.06s-.06-.05-.02-.08c-.06,0-.06.02-.1.06l-.06-.08c-.23-.06-.43.1-.67.07-.3-.16-.85,0-1.17.11-.44.21-.99-.28-1.44-.03-.02-.02-.05.03-.05.04l-.43.02s-2.05.19-.39,1.06v.03c.22.04.36.05.5-.11.04.17.18,0,.24.05h0c.13-.13.29.11.41-.02,0,.01,0,.06-.03.07.09-.03.22-.07.24.03.23-.04.55,0,.69-.18v.03c.07-.11.1-.02.19-.08,0,.01.01.02.01.03.09-.11.27-.03.34-.08v.07s.19-.02.19-.02h-.07c.02-.2.14.1.27-.02.13.02.24-.39.38-.3.06-.09-.05.14.04.07,0,.1-.04.06-.02.14.09-.05.15.1.26.03v.07c.15-.14.28.09.38-.04.15-.06.1.22.26.07l.06.1c.07.02.05-.12.12-.08,0,.06.09.05.05.11.17.1.34-.14.57.02.05-.12.16-.05.2-.14,0,.05.22,0,.1.13-.01,0-.03,0-.03-.01v.07c.11.14.22-.08.34-.05-.04-.02-.09-.02-.05-.07h.12s-.02.07-.02.07l.17.04-.02-.08c.09.04.11.17.21.06.04-.06-.08-.1,0-.13.11.05.28.13.43.15-.01-.09.03-.08.07-.1v.07c.16-.1.06.16.21.08v.05s.03-.16.03-.16c.14-.15.07.16.23-.05-.06.01-.03-.16.05-.13l-.02.07s.06-.05.08-.03c-.02.04-.01.1.05.09l-.04.09.12-.13c.09.08.23-.02.27.08,0,0,.19.05.24-.06-.04.07.07.1.04.18.05-.08.2-.14.25-.06h-.01c.22.1.37-.1.56,0,0-.09.09-.04.07-.15.2-.11.36.23.44-.11.09-.02.11.08.15.1l-.02.02c.17-.03.22-.03.35-.02.06-.03.08-.19.19-.15-.04.06,0,.05.05.05-.03,0-.04.03.02.08,0-.02.02-.03.03-.04,0,0,0,0,0,.02.07-.02.06-.04.03-.05,0,0,0-.02-.01-.04.07.08.21,0,.21.1.21-.02.37-.13.55-.18.02.06-.02.11-.07.13l.13-.02c0,.08-.07.05-.11.06.15.13.31-.13.49,0l.04-.06h.01s.04-.07.07-.08c.02.07,0,.16.09.16.07.07.2-.03.29-.07-.05-.01-.03-.05-.01-.08.04,0,.07.07.1.04v.09c-.01-.09.12-.1.13-.13.03.07-.07.06-.08.11.18,0,.09,0,.26-.01.09-.07-.02-.09.03-.17.08-.02.16-.09.26-.03l-.03-.08c.15-.07.25-.06.35.03,1.14-.7.23-.94.23-.94-.45-.18-.68.07-1.22.13Z"/>
  </g>
  <g>
    <path class="b" d="M70.95,19.26l-.02-.03s0,.03.02.03Z"/>
    <path class="b" d="M66.08,20.31h0s0,0,0,0Z"/>
    <polygon class="b" points="70.06 18.17 70.06 18.17 70.07 18.16 70.06 18.17"/>
    <path class="b" d="M71.15,18.17c-.28-.03-.37-.19-.66-.1-.14,0-.29.06-.42.09-.05.13-.18.03-.24.14l-.04-.07s-.05.07-.08.03v-.02c-.03.06-.08.04-.09.07v-.02s-.05.02-.05.02v-.03c-.05.07-.12.08-.19.07l.02.08c-.15-.07-.16.12-.3.03v-.02c-.1.26-.27-.1-.37.14.01-.03-.02-.04-.02-.06-.06.04-.13.07-.09.24-.05,0-.05-.04-.08-.1.02.07-.02.11-.05.13v-.03s-.09.05-.09.05l.06.13c-.07-.02-.06-.16-.1-.12l.03.11c-.09,0-.18-.16-.28-.22-.34.04-.6.43-.95.31l-.04-.08c-.04-.12-.03.21-.07.1l-.02.07s-.04-.04-.03-.07c-.03,0-.03.03-.04.07l-.06-.07c-.13-.03-.19.15-.32.15-.18-.12-.41.08-.56.18-.22.22-.46-.29-.66-.1,0-.02-.03.02-.03.03-.06-.02-.12-.03-.18-.05,0,0-.21-.07-.39-.01-.16.06-.41.24-.15.91l-.02.02c.12.11.22.16.35.04-.02.17.12.04.14.1h0c.11-.1.17.15.28.04,0,.01-.01.06-.03.06.07-.01.16-.05.16.05.16-.01.38.02.46-.14v.03c.04-.11.06-.02.12-.08,0,.01,0,.02,0,.02.05-.11.16-.04.2-.09v.07s.12-.03.12-.03h-.04c-.02-.19.1.09.16-.04.08,0,.07-.4.16-.33.01-.09,0,.14.04.07.02.09-.01.06.02.14.04-.06.11.07.16,0l.02.07c.05-.15.18.05.2-.09.07-.08.12.2.16.03l.06.09s0-.13.04-.09c.02.06.06.03.06.1.12.07.14-.19.31-.06,0-.13.07-.07.06-.17.02.05.12-.03.09.11,0,.01-.01.01-.02,0v.07c.12.11.11-.11.19-.11-.03-.02-.05,0-.05-.06h.06s0,.06,0,.06h.1s-.03-.06-.03-.06c.06.03.11.15.13.03,0-.06-.07-.09-.03-.12.07.03.18.08.27.09-.03-.08,0-.08,0-.11l.02.07c.06-.12.07.15.13.05v.05s-.01-.16-.01-.16c.04-.16.08.14.11-.08-.03.02-.05-.16,0-.13v.07s.03-.05.04-.04c0,.04.02.1.05.08v.09s.03-.14.03-.14c.06.06.12-.05.16.05,0,0,.11.03.11-.09,0,.07.06.09.06.17,0-.08.07-.16.12-.09h0c.13.07.17-.14.29-.06-.02-.08.04-.05,0-.15.09-.13.23.19.21-.16.05-.03.07.07.1.08v.02c.08-.04.1-.05.17-.05.03-.04.01-.2.08-.17-.01.07.01.05.03.05-.01.01-.01.04.02.07,0-.02,0-.03.01-.04v.02s.03-.05.01-.05c0,0,0-.02-.01-.04.05.08.11-.02.13.09.11-.04.18-.16.27-.21.02.05,0,.11-.03.13l.07-.03c0,.08-.03.05-.05.07.09.12.15-.14.26-.03l.02-.06h0s.02-.07.03-.08c.02.07,0,.16.05.15.04.06.1-.04.15-.08-.03-.01-.02-.05,0-.08.02,0,.04.07.06.04v.09c0-.09.06-.1.07-.14.01.07-.04.06-.04.11.09-.01.05,0,.14-.02.05-.07,0-.09.01-.17.04-.02.09-.08.14-.03l-.02-.08c.09-.06.14-.05.19.03.33-.33.39-.56.35-.71-.04-.15-.18-.22-.18-.22-.27-.2-.43.04-.74.12Z"/>
  </g>
  <g>
    <path class="b" d="M67.45,26.66l-.06-.03s.02.03.06.03Z"/>
    <path class="b" d="M64.32,16.84h0s0,0,0,0Z"/>
    <polygon class="b" points="65.3 25.55 65.3 25.55 65.31 25.54 65.3 25.55"/>
    <path class="b" d="M68.08,25.56c-.73-.02-.93-.18-1.68-.09-.36,0-.74.05-1.1.08-.16.13-.46.02-.66.13l-.08-.07c-.07.04-.15.07-.22.03v-.02s-.12.04-.13.04c0,0-.02,0-.02.02v-.02s-.02.01-.02.01v-.03c-.03.06-.09.06-.1.04l-.07.09c-.02-.06-.15,0-.02-.16h.02c-.12-.01-.06-.1-.01-.13.06-.13.14-.29.07-.51.02.06.05-.01.07,0,0-.19.03-.39-.14-.42.03-.13.07-.1.14-.11-.07-.01-.08-.13-.07-.24l.02.05.03-.31-.15.04c.07-.15.18-.01.17-.17l-.12-.02c.06-.22.26-.32.38-.52.2-.88.06-1.89.39-2.68l.09-.02c.13,0-.15-.26-.03-.27l-.04-.11s.06-.08.08-.02c.02-.09,0-.09-.03-.16l.09-.08c.11-.34,0-.66.09-1.03.23-.42.2-1.28.19-1.78-.09-.71.53-1.42.41-2.15.02-.02-.01-.08-.03-.09l.05-.27s.02-.05.04-.09l.06-.19s.07-.24.09-.51c.02-.27.03-.55.02-.77-.01-.22-.05-.4-.2-.41-.14-.01-.44.16-.78.75l-.03-.02c-.11.36-.15.52-.06.75-.09,0-.1.02-.13.13-.04.09-.02.26-.05.28h-.01c.1.22-.17.41-.08.63-.01,0-.06-.02-.06-.07,0,.15,0,.36-.09.36-.02.36-.14.85-.02,1.1l-.03-.02c.09.15,0,.17.02.32-.01,0-.02.02-.03.01.09.16-.04.41-.02.54h-.07s-.03.28-.03.28l.03-.1c.18.06-.15.2-.06.42-.05.19.32.44.2.63.07.11-.13-.1-.08.05-.1,0-.05-.07-.13-.05.02.15-.13.21-.09.39h-.07c.1.24-.16.4-.06.57.03.24-.24.12-.13.38l-.11.08c-.03.1.11.09.04.2-.06-.02-.07.14-.12.06-.14.24.06.54-.16.86.11.09.01.25.09.32-.05,0-.06.34-.15.13,0-.02,0-.05.02-.04l-.07-.03c-.17.17.02.36-.03.55.03-.05.04-.13.08-.07l-.04.18-.05-.05-.08.26.08-.02c-.06.12-.2.15-.11.31.05.08.12-.11.12.03-.08.16-.2.41-.26.63.09,0,.08.05.08.12h-.07c.06.25-.18.05-.13.3l-.05-.03.14.09c.11.23-.17.09-.01.35,0-.09.17-.01.12.09l-.07-.04c0,.07.03.09,0,.13-.03-.04-.1-.04-.1.06l-.08-.08.1.2c-.1.12-.04.35-.15.39,0,0-.1.27,0,.37-.05-.11-.13.16-.19.08.05.16.04.53-.08.72v-.03c-.15.61-.36,1.18.32,1.04.05-.09.29-.05.31-.16.29-.06.48-.01.68,0,.18.02.38.01.42-.16.14-.02.17.08.24.09l-.03.02c.26-.04.34-.04.53-.04.1-.04.11-.2.28-.16-.05.07.02.05.08.05-.04.01-.05.03.03.07.01-.02.03-.03.05-.04,0,0,0,0,0,.02.11-.03.09-.04.04-.05,0,0,0-.02-.02-.04.12.08.32-.02.33.09.33-.04.56-.16.83-.21.03.05-.03.11-.11.13l.19-.03c0,.08-.11.05-.17.07.24.12.47-.14.75-.03l.05-.07h.02s.06-.07.1-.08c.04.07,0,.16.14.15.11.06.3-.04.44-.09-.08,0-.05-.05-.02-.07.07,0,.11.06.16.03v.09c-.02-.09.18-.1.2-.14.04.07-.1.06-.12.12.27-.02.13,0,.4-.03.14-.08-.03-.09.04-.17.13-.02.25-.09.39-.04l-.05-.08c.24-.07.38-.07.54.01,1.75-.74.34-.94.34-.94-.7-.16-1.05.09-1.88.18Z"/>
  </g>
  <g>
    <path class="b" d="M26.6,14.95l-.03-.02s.02.02.03.02Z"/>
    <path class="b" d="M26.15,16.35h0s0,0,0,0Z"/>
    <polygon class="b" points="25.49 14.46 25.49 14.46 25.49 14.45 25.49 14.46"/>
    <path class="b" d="M25.86,14.16c-.11.06-.26-.02-.29.12-.05.04-.06.12-.08.18.09.09-.04.07.03.15l-.07-.03s.04.05,0,.04h-.02s0,.03.02.05h-.02s0,.01,0,.01l-.02-.02c.04.06.02.08-.01.1l.08.04c-.12,0,.04.11-.09.1h-.02c.19.14-.19.03,0,.17-.02-.02-.04-.01-.06-.02.01.04.01.07.18.13,0,.02-.06,0-.12-.02.07.02.09.05.09.07l-.03-.02v.05s.15.03.15.03c-.05.01-.17-.04-.14-.01l.11.03s-.21,0-.3,0c-.09.13.18.33-.04.41h-.09c-.13-.02.18.05.07.04l.06.02s-.05,0-.08,0c0,.01.01.01.05.03h-.08c-.07.04.08.11.04.15-.17.04-.03.17.05.24.18.11-.34.15-.13.25-.02,0,.02.01.04.01l-.03.07s-.03.09.08.16c.11.07.35.16.91.09h.03c.08-.03.1-.06-.04-.11.17.02.02-.04.08-.04h.01c-.13-.04.12-.04,0-.09.01,0,.06,0,.06.02-.02-.02-.05-.06.05-.04-.02-.05.03-.11-.12-.16h.03c-.11-.02-.01-.02-.07-.04.01,0,.02,0,.03,0-.1-.03-.01-.06-.05-.08h.07s-.01-.03-.01-.03h-.02c-.18-.01.12,0,0-.04.03-.02-.37-.09-.28-.11-.08-.02.14.03.07,0,.1.01.06.02.14.02-.04-.02.1-.02.04-.05h.07c-.13-.04.1-.03-.02-.07-.06-.04.22,0,.08-.04h.1s-.12-.02-.07-.03c.06,0,.05,0,.11,0,.1-.01-.13-.08.04-.09-.12-.03-.05-.04-.14-.06.05,0,.02-.03.13,0,0,0,0,0-.01,0l.07.02c.14,0-.07-.05-.04-.06-.02,0-.02,0-.07,0v-.02s.07.02.07.02l.04-.02h-.08s.17,0,.07-.03c-.06-.02-.1-.01-.12-.03.06,0,.14,0,.17-.02-.08-.02-.08-.03-.09-.04l.07.02c-.09-.05.16.04.09,0l.05.02-.15-.05c-.13-.06.15.04-.03-.04,0,.01-.16-.05-.12-.05l.07.03s-.04-.02-.02-.02c.04.02.1.04.09.02l.08.03-.12-.06c.08.01,0-.04.09,0,0,0,.06,0-.04-.05.06.03.09.03.17.06-.07-.03-.12-.08-.04-.05h0c.09.02-.09-.09.02-.06-.08-.04-.03-.03-.13-.08-.08-.08.22.07-.07-.11,0-.02.08.03.1.03h.01s0-.03,0-.04c-.02-.03-.16-.11-.11-.11.05.04.04.03.05.02,0,0,.02.02.06.04-.01-.01-.02-.02-.03-.03,0,0,0,0,.01,0-.01-.02-.03-.03-.04-.03,0,0-.02-.01-.03-.02.07.04.01-.03.1.03,0-.04-.07-.13-.09-.18.05.03.08.07.09.09v-.03c.06.05.03.04.03.05.12.06-.07-.12.04-.07l-.04-.05h0s-.06-.05-.06-.06c.06.04.12.11.13.09.06.04,0-.05-.02-.08-.01,0-.04-.03-.06-.05,0,0,.06.04.04.01l.07.06c-.07-.06-.06-.08-.08-.11.05.05.04.05.07.09.01-.03,0-.01.02-.04-.04-.06-.07-.06-.12-.12,0-.02-.04-.08.01-.05l-.06-.06c-.02-.07,0-.07.07-.02-.15-.33-.29-.52-.4-.62-.11-.1-.19-.11-.19-.11-.21-.06-.09.16-.13.3Z"/>
  </g>
</svg>