<?xml version="1.0" encoding="UTF-8"?>
<svg id="a" xmlns="http://www.w3.org/2000/svg" width="125.04" height="25.94" viewBox="0 0 125.04 25.94">
  <defs>
    <style>
      .b {
        fill: #5f5f5f;
        stroke-width: 0px;
      }
    </style>
  </defs>
  <g>
    <path class="b" d="M9.87,13.04l.15-.03s-.05,0-.15.03Z"/>
    <path class="b" d="M15.46,10.53h0s-.01.03-.02.04l.03-.04h-.01Z"/>
    <path class="b" d="M8.63,14.83c1.93-.78,2.54-.86,4.37-2.11.89-.6,1.75-1.3,2.45-2.18.24-.47.85-1.16,1-1.77l.16-.19c.05-.21.12-.44.22-.63l.02.02c.05-.31.17-.65.17-.81l.02.02.06-.38.02.07c.03-.56.06-1.12.05-1.64l-.08.05c0-.55-.09-.92-.23-1.26-.05-.18-.16-.34-.23-.52-.1-.2-.22-.4-.37-.62h.03c-.51-.42-.85-.72-1.22-1.04-.39-.31-.69-.58-1.4-.79.23.06-.08-.08-.04-.08-.52-.15-1.09-.31-1.14-.14-.38-.12-.29-.14-.33-.22-.02.08-.36.03-.66-.02h.15c-.29-.04-.58-.09-.87-.13l.15.17c-.45-.1-.08-.2-.54-.22v.13c-.64-.1-.99-.33-1.59-.46-.64-.09-1.29-.09-1.95-.09-.33,0-.65.02-.99.03-.38.02-.76.04-1.13.06l-.77.05c-.05.24-.08.5-.12.76-.05.37-.1.72-.16,1.07-.09.62-.21,1.22-.36,1.78l-.1.08c-.14.02.09.67-.04.73l.02.28c-.03.07-.08.23-.09.08-.04.25-.02.26,0,.44l-.13.25c-.21.98-.19,1.83-.39,2.85-.38,1.22-.56,3.6-.64,4.96-.06,1.93-.88,4.07-.92,6.03-.03.06,0,.23,0,.23l-.28,1.76s-.08.52-.19,1.23c-.05.35-.12.72-.18,1.11-.06.38-.13.68-.23,1.01-.21.68-.22,1.19-.04,1.11.09-.03.23-.21.45-.55.22-.3.62-.85.88-1.68l.02.05c.26-.97.37-1.58.33-2.28.2-.08.14-.8.23-1.02v.02c-.04-.62.3-1.21.25-1.8.01.02.06.04.04.18.03-.42.07-1,.18-1.02.1-1,.34-2.38.26-3.04l.02.05c-.06-.38.04-.47.04-.89.02-.02.03-.05.03-.04-.05-.41.14-1.15.14-1.48h.07l.09-.8-.05.29c-.18-.13.2-.58.17-1.16.1-.54-.23-1.14-.05-1.68-.04-.27.1.25.1-.15.1,0,.03.19.13.1.01-.4.2-.62.21-1.11h.08c-.03-.66.29-1.18.22-1.61.03-.65.29-.4.25-1.09l.15-.24c.06-.28-.09-.22,0-.54.06.03.12-.4.15-.2.21-.7.07-1.49.4-2.4-.05-.1-.03-.3-.02-.43,0-.05,0-.1-.04-.16.04.03,0-.1.1-.06.07,0,.08.02.06.08,0,0-.02,0-.04-.01l.06.08c.08.05.07.04.14,0,.21-.04.47-.09.73-.08-.16-.02-.37-.01-.23-.07h.49l-.1.07.73.04-.1-.08c.36.04.48.19.89.08.19-.05-.34-.12.04-.14.51.08,1.26.2,1.79.28-.05-.09.12-.07.28-.07v.08c.66-.03.23.19.87.2l-.06.04.19-.14c.59-.05.27.21.93.13-.25-.04-.08-.2.22-.09l-.09.05c.17.02.23,0,.34.05-.1,0-.07.09.17.16l-.18.04h.48c.17.1.39.18.59.24.07.01.29.15.31.21,0,0,.63.43.84.44-.17-.03.16.23.01.23.21.04.69.36.76.58l-.03-.02c.24.31.35.48.49.79.13.28.21.6.19.97.09-.04.05.35.17.25.13.81-.4,1.36-.13,1.73-.09.36-.21.39-.3.56l.02-.08c-.23.64-.34.81-.61,1.24-.13.22.01.37-.31.7.04-.16-.06,0-.18.13.06-.09.06-.13-.12,0,0,.03-.03.08-.05.12h-.02c-.18.22-.14.2-.03.12,0,.01.02.01.06,0-.25.16-.63.58-.71.52-.66.59-1.11,1.06-1.73,1.49-.1,0,.02-.15.19-.27l-.44.3c-.04-.07.23-.2.36-.3-.6.22-1.04.8-1.76,1.02l-.1.13h-.04s-.12.16-.21.21c-.13-.02-.06-.16-.4,0-.29.06-.74.37-1.08.56.2-.06.15,0,.07.05-.17.07-.29.04-.42.13l-.05-.08c.1.06-.41.27-.46.34-.13-.03.25-.16.27-.23-.69.27-.35.14-1.04.4-.35.2.1.06-.05.21-.33.14-.63.31-1.03.39l.15.04c-.61.27-1,.39-1.45.44-4.52,2.14-.71,1.25-.71,1.25,1.93-.4,2.84-.92,5.01-1.86h.04Z"/>
  </g>
  <g>
    <path class="b" d="M26.56,16.18h.1s-.03-.01-.1,0Z"/>
    <polygon class="b" points="30.54 15.46 30.53 15.46 30.52 15.5 30.54 15.46"/>
    <path class="b" d="M25.71,17.58c.65-.15,1.07-.21,1.5-.29.21-.04.43-.09.67-.16.14-.04.28-.09.44-.15.06-.02.13-.07.18-.09l.1-.06c.06-.04.14-.08.22-.14.6-.33,1.19-.77,1.71-1.23.17-.3.69-.62.87-1.03l.16-.08c.06-.14.13-.3.24-.41v.02c.07-.22.21-.45.22-.57l.02.02c.03-.08.05-.18.07-.27l.02.05c.05-.43.07-.8.07-1.22l-.09.05c-.04-.43-.1-.65-.24-.88-.1-.23-.25-.42-.42-.74h.02c-.38-.26-.61-.49-.87-.71-.26-.21-.56-.4-.99-.43.1,0-.03-.05-.01-.07-.37-.09-.76-.16-.8.01-.25-.06-.2-.09-.22-.17-.01.07-.24.07-.44.05l.09-.02-.58-.03.09.16c-.29-.06-.06-.19-.36-.17v.13c-.41-.05-.65-.24-1.05-.34-.83,0-1.64.01-2.47.04-.43,0-.71.02-1.46,0-.89-.3-.63.66-.82,1.21-.03.04-.06.05-.1.07-.14.01.16.43.03.47l.04.18s-.06.15-.08.05c-.02.16,0,.17.03.28l-.1.17c-.13.63-.02,1.19-.12,1.85-.24.79-.22,2.32-.21,3.21.09,1.25-.57,2.62-.45,3.91-.02.04.01.15.03.15l-.13,1.15s-.55,5.58.94,1.43l.03.03c.13-.62.18-1.02.06-1.46.19-.05.06-.51.14-.66h.01c-.1-.38.19-.77.09-1.14.01.01.06.03.05.12,0-.27,0-.64.1-.65.03-.64.16-1.53.02-1.96l.03.03c-.09-.24,0-.3-.02-.58.01-.01.02-.03.03-.03-.09-.26.05-.74.02-.97h.07l.03-.51-.03.19c-.19-.08.16-.37.06-.76.05-.35-.34-.74-.21-1.09-.07-.18.14.17.08-.09.1,0,.05.13.14.07-.02-.26.15-.4.1-.72h.08c-.1-.43.18-.76.06-1.04-.02-.42.26-.25.15-.71l.13-.16c.03-.19-.12-.15-.04-.35.06.02.07-.25.13-.13.02-.05.03-.12.04-.18v-.04s-.02-.06-.03-.1c-.06-.12.07-.1.16-.02.02-.06-.01-.07.1-.08.1,0,.21,0,.26-.05.01.05.63.03.27.14-.03,0-.08,0-.08-.02l-.04.07c.36.16.65-.06,1.01-.03-.1-.03-.24-.02-.15-.07l.33.02-.07.06.49.05-.06-.08c.24.05.33.19.59.08.13-.06-.23-.12.02-.14.31.05.78.13,1.16.16-.03-.09.07-.08.18-.09v.08c.42-.09.15.18.56.12l-.04.05.12-.16c.37-.12.18.17.59.02-.16-.01-.05-.18.14-.12l-.06.06c.1,0,.15-.03.22,0-.07.02-.05.1.09.13l-.12.07.31-.07c.19.14.56.14.59.28.01,0,.38.23.51.18-.1.02.07.16-.03.2.13-.02.42.14.43.28h-.02c.1.18.23.29.33.45.12.13.17.37.16.49.08-.05.05.18.16.12.1.48-.36.68-.1.98-.07.2-.2.18-.27.26v-.05c-.19.35-.28.44-.51.66-.08.14,0,.27-.25.44.03-.12-.05-.02-.15.04.05-.05.05-.08-.09-.03,0,.03-.02.06-.04.08h-.01c-.14.14-.09.13-.02.08,0,.01.02.02.05.01-.21.05-.44.33-.52.24-.44.34-.77.65-1.14.91-.05-.04-.03-.1.09-.21-.13.07-.15.1-.23.14.02-.09.05-.06.17-.16-.14.04-.12.03-.21.06-.09.04-.2.08-.29.14-.2.1-.41.2-.65.21l-.07.09h-.03s-.08.1-.15.14c-.08-.05-.04-.17-.27-.09-.2-.02-.5.18-.73.27.14-.02.1.03.05.06-.12.03-.2-.02-.28.03l-.03-.09c.07.08-.28.18-.31.22-.08-.05.17-.1.18-.17-.46.13-.23.06-.7.19-.23.14.07.08-.03.19-.22.07-.42.2-.68.2l.1.06c-.4.17-.65.22-.95.21-1.45.77-1.52,1.06-1.26,1.14s.87-.02.87-.02c1.24-.14,1.8-.52,3.24-.97l.04.03Z"/>
  </g>
  <g>
    <path class="b" d="M120.59,7.69h-.08s.03.02.08,0Z"/>
    <polygon class="b" points="117.24 8.32 117.24 8.32 117.26 8.29 117.24 8.32"/>
    <path class="b" d="M121.14,6.28c-1.15.33-1.51.36-2.49,1.01-.47.28-.93.6-1.42,1.03-.14.27-.63.63-.69,1.07-.04.03-.08.07-.13.12-.02.15-.03.3-.1.43h-.02c.01.2-.04.41,0,.51h-.02v.22l-.03-.04c.06.33.13.67.23,1l.07-.06c.08.35.27.56.45.7.18.16.37.26.6.45l-.02.02c.73.09.93.49,1.51.49-.07,0,.01.05,0,.07.25.07.51.17.6.01.18.08.12.12.12.19.03-.07.2-.03.34.03h-.07c.14.05.26.12.39.18v-.17c.18.15-.04.19.17.26l.06-.1c.26.19.33.44.5.68.47.38.97.74,1.32,1.23.37.47.59,1.05.55,1.61l-.08.06c-.13.03.23.27.1.34l.06.13s-.04.12-.07.05c0,.12.02.13.05.21l-.09.13c-.08.46,0,.9-.15,1.37-.16.27-.3.65-.48,1.02-.18.37-.42.68-.63.89-.28.33-.79.42-1.25.37-.47-.04-.91-.18-1.4-.19-.02-.02-.12,0-.12,0l-.86-.29s-1.11-.35-1.84-.44c-.73-.08-1.05.09.43,1.12l-.03.02c.47.22.77.33,1.15.28,0,.19.39.14.5.24h-.02c.36-.01.65.33,1.01.26-.01.01-.03.06-.1.05.25.01.59.02.6.13.6.05,1.51-.06,1.81-.39v.03c.15-.2.25-.14.44-.3h.04c.15-.22.57-.44.66-.62l.06.04c.09-.13.21-.24.29-.38-.03.04-.07.09-.12.14-.12-.16.31-.22.38-.59.18-.27-.09-.72.08-.98-.04-.17.1.17.09-.06.09.02.03.12.13.08.01-.22.21-.31.19-.6h.08c-.06-.37.21-.64.1-.89-.04-.37.25-.23.1-.63l.1-.16c.01-.17-.14-.12-.09-.3.07,0,.02-.24.1-.14.05-.45-.26-.84-.31-1.44-.16-.07-.22-.36-.35-.4.06-.05-.29-.49-.01-.28.02.02.05.06.03.07h.08c-.05-.38-.39-.48-.58-.74.04.09.13.19.03.16-.06-.08-.12-.17-.18-.24h.09l-.28-.35v.1c-.13-.19-.1-.34-.36-.41-.13-.02.08.21-.1.08-.18-.23-.46-.56-.76-.77-.02.09-.1.04-.19,0l.03-.07c-.38-.1-.03-.22-.4-.34l.05-.03-.17.09c-.37-.02-.08-.23-.51-.21.14.05-.01.19-.16.07l.07-.05c-.09-.03-.14-.01-.19-.05.07-.01.07-.08-.06-.14l.13-.04c-.1,0-.21.01-.3.02-.17-.16-.49-.19-.57-.33,0,0-.43-.2-.56-.12.1-.04-.1-.14-.02-.2-.13.05-.43.01-.47-.12h.02c-.26-.23-.51-.18-.52-.47-.08.05-.08-.1-.18-.04-.2-.31.17-.62-.17-.77,0-.17.13-.17.16-.23v.04c.07-.26.12-.34.26-.5.04-.1-.06-.24.14-.37-.01.09.05.03.12-.03-.03.04-.03.07.08.03,0-.02.01-.05.02-.07h.01c.1-.09.07-.09,0-.06,0,0-.01-.02-.04-.02.17-.02.36-.26.44-.18.38-.28.61-.57.93-.81.06.03.01.12-.07.2l.23-.16c.04.07-.12.12-.18.18.35-.05.52-.46.92-.51l.04-.09h.02s.04-.12.08-.15c.08.04.06.16.23.08.16,0,.37-.18.55-.27-.1.01-.08-.03-.04-.07.08-.03.16.03.22-.02l.03.09c-.06-.08.21-.15.23-.19.06.06-.13.08-.14.15.35-.07.18-.05.52-.09.19-.09-.04-.09.04-.19.17-.02.35-.1.55-.01l-.05-.09c.35-.04.56.02.74.17.65.01,1.05.1,1.28.08.22-.01.26-.1.22-.22-.05-.12-.2-.26-.34-.39-.14-.12-.27-.19-.27-.19-.51-.34-1.02-.45-1.52-.44-.51,0-1.04.12-1.7.34l-.05.05Z"/>
  </g>
  <g>
    <path class="b" d="M61.61,11.21l-.04.05s.03,0,.04-.05Z"/>
    <path class="b" d="M60.59,10.4c-.16.7-.35.86-.41,1.59-.07.35-.09.71-.14,1.06.1.19-.08.44-.01.65l-.08.05c.02.07.03.15-.02.21h-.02c.03.09-.02.2,0,.25h-.02l-.02.12-.02-.03c.02.19-.02.37-.07.51h.09c-.18.31-.02.48-.2.76h-.02c.15.42-.29.55-.17.98-.02-.05-.05,0-.07,0-.02.18-.05.37.13.42-.03.13-.08.09-.16.09.07.02.08.14.05.24l-.02-.05-.05.29.16-.02c-.08.14-.19,0-.19.15l.12.03c-.08.2-.29.27-.45.44-.3.78-.37,1.78-.93,2.36h-.09c-.12-.06.07.26-.05.22v.1s-.07.04-.08-.01c-.04.06-.03.07-.02.15l-.12.02c-.23.2-.26.49-.51.67-.36.09-.82.45-1.27.54-.61.23-1.25-.45-1.91-.41-.01-.02-.08,0-.08.01-.19-.07-.38-.13-.58-.2.01.03-2.81-1.12-1.05.76l-.02.02c.3.19.51.27.79.22-.02.19.27.1.34.19h-.01c.25-.06.39.26.64.19-.01.01-.03.06-.07.05.16.01.38.02.37.14.37.06.9.2,1.18.03l-.02.03c.15-.1.19,0,.35-.05,0,.01.02.02.02.02.16-.13.46-.04.59-.12l.02.06.31-.09h-.13c-.01-.19.27.09.46-.14.23-.06.21-.55.42-.58.03-.13.01.17.09.03.06.07-.02.09.06.14.1-.12.26-.08.36-.26l.06.05c.09-.26.39-.28.4-.49.1-.23.29,0,.3-.3l.15-.03c.07-.08-.06-.14.04-.21.05.04.13-.1.15-.01.21-.2.14-.56.43-.81-.08-.13.05-.25-.01-.35.05.01.15-.33.19-.09,0,.02-.01.04-.03.03l.06.05c.22-.13.06-.37.16-.55-.04.04-.06.12-.09.05l.07-.17.04.06.14-.24h-.08c.08-.1.23-.1.18-.28-.04-.08-.15.08-.13-.05.12-.15.27-.38.36-.6-.09,0-.07-.06-.07-.13h.07c-.04-.25.19-.02.17-.27l.04.03-.14-.1c-.09-.25.19-.07.04-.36-.01.09-.18,0-.12-.1l.06.05c0-.06-.02-.09,0-.14.03.04.1.04.12-.05l.07.08-.09-.21c.12-.12.06-.35.18-.38,0,0,.12-.27.02-.37.05.07.13-.07.19-.01-.06-.09-.08-.33.02-.39v.02c.17-.3,0-.58.18-.84-.09,0,0-.15-.14-.14-.04-.33.36-.48.03-.67.01-.15.12-.15.16-.21v.04c.04-.26.05-.34.09-.54-.02-.1-.18-.15-.1-.31.05.06.05,0,.06-.07,0,.04.02.06.08-.02-.02-.01-.03-.03-.03-.05h.02c0-.12-.03-.09-.04-.05h-.04c.1-.09.05-.3.17-.3.03-.33-.04-.58-.04-.85.06-.02.1.05.12.14v-.19c.09.01.04.12.04.18.17-.2-.05-.48.1-.73l-.05-.06h.01s-.07-.08-.07-.13c.07-.02.17.03.18-.1.08-.09.01-.3,0-.44-.02.07-.06.04-.08,0,0-.06.08-.09.06-.15h.09c-.09.02-.07-.18-.12-.21.07-.02.04.12.09.14.03-.26.01-.14.04-.4-.05-.15-.09.01-.17-.06,0-.13-.05-.25.03-.39l-.09.03c-.03-.24,0-.38.1-.52-.47-1.83-.92-.5-.92-.5-.28.65-.08,1.03-.14,1.85h-.01Z"/>
  </g>
  <g>
    <path class="b" d="M105.94,10.42l-.04.03s.03,0,.04-.03Z"/>
    <path class="b" d="M104.95,9.7c-.17.49-.36.59-.42,1.12-.06.25-.08.52-.12.77.1.14-.06.33.02.48l-.08.04c.03.05.04.12,0,.16h-.02c.04.07,0,.15.02.19h-.02v.08l-.03-.02c.03.14.02.26-.03.37h.09c-.14.23.03.35-.13.55h-.02c.19.3-.23.4-.05.71-.02-.04-.05,0-.07,0,0,.14,0,.27.18.3-.02.09-.06.07-.14.07.07.01.09.09.09.17l-.02-.04v.21l.15-.02c-.06.1-.18,0-.17.12l.13.02c-.04.15-.24.22-.36.36-.14.62.08,1.32-.2,1.88h-.09c-.14,0,.18.2.05.2l.05.07s-.05.05-.08.01c-.01.06,0,.06.04.12l-.09.05c-.09.24.04.46-.02.71-.21.28-.13.89-.08,1.24.14.49-.47.97-.3,1.48-.02.01.01.06.03.06l-.08.43s-.39,2.12.98.67h.03c.1-.22.15-.37.02-.56.18,0,.05-.2.12-.24h.01c-.12-.16.16-.28.05-.44.01,0,.06.02.06.05,0-.1-.03-.25.07-.25,0-.25.1-.59-.04-.78h.03c-.1-.09,0-.1-.04-.21h.03c-.09-.12.02-.29-.02-.38h.07v-.2l-.02.07c-.19-.05.14-.14.03-.29.04-.13-.37-.33-.25-.45-.08-.07.14.07.08-.03.1,0,.05.05.14.04-.03-.1.13-.15.07-.27h.07c-.13-.17.14-.27.02-.4-.04-.17.24-.07.12-.26l.12-.05c.02-.07-.13-.06-.06-.14.06.01.06-.09.13-.04.13-.17-.1-.38.1-.6-.13-.06-.03-.18-.13-.23.05,0,.04-.24.15-.08,0,.01,0,.03-.02.03l.07.02c.16-.12-.04-.25,0-.39-.03.03-.03.08-.07.04l.03-.13.06.03.06-.18h-.08c.05-.07.19-.08.09-.2-.05-.05-.12.07-.13-.03.07-.12.18-.28.22-.43-.09,0-.08-.04-.09-.08h.07c-.08-.17.18-.03.12-.2l.05.02-.16-.06c-.14-.17.17-.05-.01-.25,0,.06-.18,0-.13-.07l.07.03s-.04-.06-.02-.09c.03.03.1.03.1-.03l.08.05-.12-.14c.09-.08.02-.24.13-.26,0,0,.08-.19-.02-.25.06.05.1-.05.19,0-.07-.06-.12-.23-.02-.27h0c.13-.2-.05-.39.08-.58-.09,0-.02-.1-.15-.09-.08-.23.3-.34-.04-.48,0-.09.1-.09.14-.15v.02c.02-.18.02-.23.06-.37-.02-.07-.19-.12-.12-.22.05.05.05,0,.06-.04,0,.03.03.04.08,0-.02-.01-.03-.03-.03-.04h.02c0-.07-.03-.07-.04-.04h-.04c.1-.06.04-.21.15-.2.02-.23-.06-.41-.06-.6.06,0,.1.04.12.1v-.14c.09.02.04.08.04.13.17-.13-.06-.35.1-.5l-.05-.05h.01s-.07-.06-.07-.09c.07,0,.17.04.18-.05.08-.05.01-.21,0-.31-.02.04-.06.02-.08,0,0-.04.08-.05.06-.09l.09.02c-.09,0-.06-.14-.1-.17.07,0,.04.08.09.1.04-.18.02-.09.05-.27-.05-.12-.09,0-.17-.07,0-.09-.04-.19.04-.27h-.09c-.02-.17.02-.26.14-.35-.35-1.38-.87-.52-.87-.52-.33.42-.15.74-.23,1.33l-.02.03Z"/>
  </g>
  <g>
    <path class="b" d="M89.75,8.5l-.07-.02s.02.03.07.02Z"/>
    <polygon class="b" points="86.56 8.52 86.57 8.51 86.58 8.49 86.56 8.52"/>
    <path class="b" d="M90.6,7.32c-1.09-.01-1.44-.15-2.55.29-.54.19-1.06.52-1.49.9-.12.25-.57.52-.66.82l-.13.03c-.03.09-.08.2-.18.25v-.02c-.06.15-.19.26-.21.34v-.02l-.12.15v-.04c-.12.24-.25.47-.41.65l.08.03c-.35.38-.27.63-.58.99h-.02c-.02.6-.51.78-.46,1.43,0-.08-.05.02-.07,0-.04.27-.09.57.09.61-.03.19-.08.15-.16.17.08.01.08.19.06.34l-.02-.07v.44l.14-.07c-.06.22-.19.04-.17.27h.13c-.02.31-.23.5-.3.82,0,.68.15,1.27.36,2,.23.58.47,1.21.76,1.8l-.04.09c-.09.1.37.17.29.27l.14.07s.04.13-.03.09c.07.1.09.09.19.14l.02.16c.38.52.81.62,1.28.95.48.54,1.81.82,2.54.76.51-.05,1.04.02,1.59.03s1.15-.08,1.57-.36c.04,0,.1-.06.09-.07l.84-.3s1-.41,1.53-.77c.28-.18.38-.29.33-.44-.05-.16-.48-.24-1.33-.18v-.03c-.46.13-.73.22-.99.48-.12-.15-.37.13-.49.1v-.02c-.21.23-.58.09-.8.28,0-.02,0-.06.05-.08-.18.08-.42.19-.45.08-.4.14-1.05.14-1.32.29l.02-.03c-.17.12-.21.02-.4.06,0-.01-.02-.02-.02-.03-.19.1-.52-.04-.67-.02v-.07l-.35-.06.13.04c-.09.18-.23-.18-.5-.15-.21-.1-.62.18-.82-.03-.16.02.17-.07-.03-.1.04-.09.1-.01.1-.1-.19-.04-.2-.24-.42-.29l.04-.07c-.31-.04-.38-.42-.58-.41-.22-.16.04-.29-.26-.43v-.16c-.06-.12-.16,0-.2-.14.06-.03-.06-.18.04-.15-.09-.3-.46-.44-.45-.91-.16-.04-.16-.27-.27-.31.05-.03-.14-.44.06-.23.02.02.03.05,0,.06h.08c.03-.13-.05-.3-.07-.28-.05-.09-.13-.2-.14-.33-.01.07.01.17-.05.12l-.03-.23.07.03c0-.12-.02-.23-.01-.35l-.07.05c.02-.17.15-.24.01-.42-.07-.08-.08.17-.14,0,.04-.23.09-.57.13-.84-.09.02-.08-.05-.1-.13h.07c-.09-.3.17-.1.1-.4l.05.03-.16-.09c-.13-.28.17-.13,0-.44,0,.12-.18.03-.13-.1l.07.05c0-.08-.03-.12,0-.17.03.05.1.04.12-.07l.08.09c-.03-.08-.07-.16-.09-.24.12-.15.08-.44.21-.47,0,0,.15-.34.08-.45.04.09.14-.08.2,0-.04-.12,0-.41.13-.47v.02c.24-.34.21-.69.5-.95-.08-.03.06-.18-.06-.2.13-.4.61-.45.41-.79.09-.16.2-.13.27-.18v.04c.19-.29.25-.37.41-.51.05-.1-.04-.24.15-.35-.01.09.05.03.1-.02-.03.04-.03.07.07.04,0-.03.01-.05.02-.07h.01c.09-.08.06-.08,0-.06,0,0-.01-.02-.04-.02.17,0,.33-.23.4-.13.34-.22.56-.44.88-.59.05.04,0,.12-.09.17l.22-.09c.02.08-.12.09-.19.13.3.04.54-.3.9-.23l.06-.07h.02s.06-.08.12-.1c.05.06.02.17.19.15.14.05.38-.06.56-.09-.09-.01-.06-.05-.02-.08.08,0,.14.07.2.04v.09c-.02-.09.23-.08.26-.13.04.07-.14.05-.16.1.34.02.17,0,.51.03.19-.04-.02-.09.08-.17.17,0,.35-.04.51.06l-.04-.1c.33,0,.51.07.68.22.61.03.99.07,1.2.05.21-.03.24-.12.21-.23-.04-.12-.18-.25-.3-.36-.13-.12-.24-.18-.24-.18-.93-.59-1.58-.5-2.82-.48l.06.04Z"/>
  </g>
  <g>
    <path class="b" d="M76.32,8.96l-.06-.03s.02.03.06.03Z"/>
    <polygon class="b" points="73.76 8.25 73.76 8.25 73.78 8.23 73.76 8.25"/>
    <path class="b" d="M76.94,7.76c-.41.01-.67-.01-.93-.03-.15,0-.24-.01-.45,0-.25.04-.36.07-.59.15-.41.08-.83.24-1.21.37-.15.18-.49.15-.67.31l-.1-.05c-.06.05-.14.1-.22.08v-.02c-.09.08-.22.08-.26.13v-.02l-.13.04v-.03c-.16.1-.35.16-.52.17l.03.08c-.39-.02-.47.19-.84.14v-.02c-.39.31-.71-.03-1.11.28.05-.04-.03-.04-.03-.06-.21.07-.4.13-.4.3-.22.04-.2-.02-.26-.07.03.07-.16.15-.33.19l.06-.04c-.15.06-.4.02-.36.26.05,0,.09,0,.15.02-.07.21-.17-.06-.18.21l.12.06c-.04.16-.1.28-.19.42-.08.12-.16.19-.22.3-.05.25-.08.51-.1.79,0,.23-.01.49-.02.73-.02.5-.07,1.01-.24,1.45l-.09.03c-.14,0,.16.28.03.3l.04.12s-.06.08-.08.03c-.02.09,0,.1.03.18l-.09.09c-.12.38,0,.73-.09,1.14-.24.47-.21,1.43-.19,1.97.1.78-.54,1.61-.38,2.41-.02.02.01.09.03.09l-.07.72v.48s.02.08.03.13c-.01.04-.05.05-.07.08-.05.06-.13.14-.21.24-.06.1-.03.2.14.28.08.04.2.08.42.1.21.02.57.04.7-.24l.02.04c.03-.12.06-.21.09-.29.03-.51.03-.58-.07-.83.19-.03.04-.31.1-.4h.01c-.12-.23.16-.46.05-.69.01,0,.06.02.06.07,0-.17-.02-.4.08-.4.01-.4.13-.93,0-1.21l.03.02c-.09-.16,0-.19-.03-.36.01,0,.02-.02.03-.01-.09-.17.04-.46,0-.59h.07l.02-.31-.03.12c-.19-.06.15-.22.06-.46.05-.21-.34-.48-.21-.69-.07-.12.14.12.08-.05.1,0,.05.08.14.05-.02-.16.14-.24.09-.44h.07c-.1-.26.17-.45.05-.63-.03-.26.25-.14.14-.43l.12-.08c.03-.12-.12-.1-.05-.22.06.02.07-.16.13-.07.15-.27-.06-.6.17-.95-.12-.1-.01-.28-.1-.36.05,0,.06-.38.16-.15,0,.02,0,.05-.02.04l.07.03c.18-.2-.02-.41.02-.62-.03.06-.04.15-.08.08l.03-.21.06.05c.02-.1.04-.23.07-.31l-.08.03c.06-.14.21-.17.12-.34-.05-.07-.13.12-.13-.03.08-.18.21-.46.26-.66-.09,0-.08-.02-.09-.05l.07.02c-.09-.09.17.06.08,0l.05.04s-.09-.08-.15-.13c-.08-.17.13.14.04-.07-.02.02-.12-.16-.03-.14l.02.07s.01-.05.04-.04c0,.04.02.1.05.08v.09s.06-.1.1-.17c.17.05.38-.09.46,0,0,0,.33-.01.38-.15-.05.08.13.07.09.17.06-.09.29-.21.41-.15h-.02c.38.04.62-.23.97-.2-.03-.08.15-.07.08-.18.31-.19.68.07.71-.3.15-.06.2.03.28.03l-.03.03c.28-.1.36-.14.57-.19.09-.06.06-.23.26-.24-.04.08.03.05.1.03-.04.02-.05.05.05.06,0-.02.02-.04.04-.05h0c.1-.04.08-.06.03-.05,0-.01,0-.02-.03-.03.15.05.34-.09.38,0,.34-.12.56-.29.84-.4.04.05-.01.12-.09.16l.2-.06c.02.08-.1.07-.17.1.12.04.29-.03.35-.07.12-.04.26-.09.42-.05l.05-.07h.02s.05-.08.1-.09c.05.07.01.17.16.15.13.06.33-.06.47-.12-.08,0-.06-.05-.03-.07.07,0,.13.06.18.02l.02.09c-.04-.09.18-.12.21-.16.05.07-.1.07-.13.13.29-.03.15-.02.44-.05.15-.08-.04-.09.03-.19.14-.03.27-.12.43-.07l-.06-.08c.25-.09.42-.09.6-.02,1.91-.89.34-1.02.34-1.02-.8-.13-1.18.17-2.09.33h.03Z"/>
  </g>
  <g>
    <path class="b" d="M75.26,21.92l-.03-.03s0,.03.03.03Z"/>
    <path class="b" d="M75.38,20.75c-.3,0-.41-.16-.71-.04-.15,0-.3.07-.44.1-.05.15-.19.03-.26.15l-.04-.07s-.05.07-.08.03v-.02c-.03.06-.08.03-.1.06v-.02l-.05.02v-.03c-.06.07-.14.08-.21.06l.02.09c-.16-.08-.18.12-.33.01v-.02c-.13.26-.28-.13-.42.13.02-.03-.01-.04-.02-.06-.07.04-.16.06-.13.24-.05,0-.05-.05-.07-.12.01.07-.03.12-.07.13l.02-.03-.13.04.04.15c-.07-.03-.04-.18-.1-.14l.02.13c-.09-.01-.18-.19-.27-.26-.38,0-.73.36-1.1.19l-.02-.09c-.02-.14-.07.21-.09.08l-.03.06s-.04-.04-.02-.07c-.04,0-.03.02-.06.06l-.05-.08c-.15-.05-.26.13-.41.1-.2-.16-.52.03-.72.14-.27.22-.62-.29-.89-.05,0-.02-.03.02-.03.04h-.26s-.31-.02-.51.1c-.19.13-.28.4.22.95v.03c.15.07.24.08.34-.06.02.18.13.01.16.07h0c.08-.13.19.13.27,0,0,.01,0,.06-.02.07.06-.02.15-.07.16.03.15-.03.37,0,.45-.18v.03c.04-.12.06-.02.13-.08v.02c.05-.12.18-.03.22-.08v.07l.13-.02h-.04c0-.21.1.1.18-.03.08.02.13-.41.22-.33.03-.09-.02.15.03.07.01.1-.02.06,0,.15.05-.05.1.09.17.02v.07c.09-.16.2.08.25-.06.09-.07.09.22.18.06l.05.1s.02-.14.07-.08c0,.06.06.04.04.12.13.09.21-.17.37-.02.01-.14.09-.06.1-.17.01.05.15,0,.08.13,0,.01-.02.01-.02-.01v.07c.1.14.14-.09.22-.08-.03-.02-.06-.01-.04-.06h.07v.06l.12.02-.02-.07c.06.03.09.17.15.04.02-.06-.06-.1-.01-.14.08.04.2.12.29.13-.02-.08,0-.08.03-.12v.07c.09-.13.07.17.16.06v.05-.17c.06-.17.07.16.14-.07-.04.02-.04-.17,0-.14v.07s.03-.05.04-.04c0,.04,0,.1.04.09v.09l.04-.15c.06.07.15-.04.18.06,0,0,.13.03.14-.08-.01.07.05.09.05.18.02-.08.1-.17.16-.08h0c.15.08.22-.15.36-.05-.02-.09.05-.05.02-.16.12-.14.26.2.26-.16.05-.03.08.07.12.08v.02c.09-.04.13-.05.2-.05.03-.04.02-.21.09-.18-.01.07.01.05.04.05-.02.01-.02.04.02.07,0-.02,0-.03.01-.04v.02s.03-.05.01-.05c0,0,0-.02-.01-.04.06.07.13-.02.15.08.14-.04.21-.18.33-.24.02.05,0,.12-.03.14l.07-.03c.01.08-.04.05-.06.07.12.13.18-.17.3-.05v-.07h.02s.01-.08.03-.1c.02.07.02.17.07.16.05.06.12-.05.17-.1-.03,0-.03-.05-.02-.07.03,0,.05.06.07.03l.02.09c-.02-.09.06-.12.06-.15.02.07-.03.07-.03.13.1-.02.05-.01.17-.04.05-.08-.02-.09,0-.18.05-.03.09-.1.16-.05l-.03-.08c.08-.08.15-.08.23,0,.63-.82.01-.99.01-.99-.31-.15-.42.13-.76.24h.02Z"/>
  </g>
  <g>
    <path class="b" d="M76.04,13.16l-.03-.03s.01.03.03.03Z"/>
    <path class="b" d="M76.05,11.99c-.29.01-.41-.13-.68,0-.15.02-.28.09-.41.15-.03.15-.18.04-.22.17l-.05-.06s-.04.07-.07.04v-.02c-.03.06-.08.04-.09.07v-.02l-.05.02v-.03c-.05.07-.12.09-.19.08l.03.08c-.16-.06-.16.13-.3.04v-.02c-.09.27-.28-.09-.38.17.01-.03-.02-.04-.02-.06-.06.04-.14.07-.09.25-.05.01-.05-.04-.08-.1.02.07-.02.12-.05.14v-.03l-.09.05.06.14c-.07-.02-.06-.17-.1-.13l.03.12c-.09,0-.19-.17-.29-.23-.35.03-.63.43-1,.29l-.03-.08c-.04-.13-.04.21-.08.09l-.02.07s-.04-.04-.03-.07c-.03,0-.03.02-.04.07l-.05-.07c-.15-.03-.22.16-.37.15-.2-.14-.48.09-.64.21-.22.25-.59-.24-.8.01,0-.02-.02.03-.02.04h-.22s-.26,0-.4.1c-.13.12-.37.37.14.97v.03c.15.07.25.08.35-.06.03.18.13,0,.16.06h0c.07-.14.2.12.27-.02,0,.01,0,.06-.02.07.06-.03.14-.08.16.02.14-.05.36-.03.42-.21v.03c.03-.13.06-.03.1-.09,0,.01.01.02.01.02.03-.13.16-.05.2-.1l.02.06.1-.04h-.04c-.02-.2.1.09.16-.04.08,0,.06-.42.16-.35.02-.09,0,.15.04.07.02.09-.01.06.02.15.04-.06.12.08.16,0l.02.07c.05-.16.19.06.21-.08.07-.08.12.21.17.04l.06.09s0-.14.05-.09c.01.06.07.04.05.1.13.07.17-.19.34-.05,0-.14.08-.07.07-.18.02.05.14-.02.09.12,0,.01-.01.01-.02,0v.07c.12.13.13-.12.2-.1-.03-.02-.05,0-.05-.06h.07v.06h.12l-.03-.06c.06.03.12.16.14.03,0-.06-.07-.09-.03-.13.08.03.2.09.29.09-.03-.08,0-.08.01-.12l.02.07c.06-.13.07.16.15.05v.05-.17c.03-.17.07.15.1-.08-.03.02-.06-.17,0-.14v.07s.03-.05.05-.04c0,.04.02.1.05.08v.09l.03-.15c.07.06.13-.05.18.04,0,0,.13.02.12-.09,0,.07.06.08.06.18,0-.08.07-.18.13-.09h0c.15.06.18-.17.31-.08-.03-.08.04-.05,0-.17.08-.14.27.18.22-.18.05-.03.08.06.12.07v.02c.08-.05.12-.06.19-.07.03-.04,0-.21.07-.18,0,.07.02.05.04.04-.01.01-.01.04.03.07v-.04h0s.02-.03,0-.04c0,0,0-.02-.02-.04.06.07.12-.03.15.07.12-.05.18-.19.27-.26.02.05.01.12-.01.14l.06-.04c.02.08-.03.05-.05.07.12.12.15-.17.27-.07v-.07h.01s0-.08.02-.1c.03.07.03.17.08.15.05.06.1-.06.15-.1-.03,0-.03-.05-.02-.07.02,0,.05.06.06.03l.02.09c-.03-.09.04-.12.04-.16.03.07-.02.07-.02.13.09-.03.05-.01.15-.04.04-.08-.03-.09-.02-.18.04-.03.07-.1.15-.06l-.03-.08c.07-.08.14-.08.21,0,.56-.83-.02-.99-.02-.99-.31-.15-.41.14-.72.27h.01Z"/>
  </g>
  <g>
    <polygon class="b" points="26.63 18.98 26.63 18.97 26.62 18.98 26.63 18.98"/>
    <path class="b" d="M25.89,18.09c.19.24.13.41.4.59.09.12.23.2.35.29.15-.04.13.14.26.14l-.03.07s.08,0,.07.05h-.02c.07,0,.07.06.12.06h-.02l.04.04h-.03c.09.03.15.09.17.16l.06-.06c0,.18.2.1.18.28h-.02c.29,0,.03.31.31.33-.03,0-.03.03-.05.04.06.05.13.12.27,0,.03.05-.02.07-.07.12.06-.04.12-.02.15.01h-.04l.09.09.1-.1c0,.08-.14.12-.07.16l.1-.07c.03.09-.08.24-.1.38.18.35.67.52.69.95l-.06.06c-.1.08.22-.02.13.05h.07s-.02.06-.06.06c.02.03.03.02.08.03l-.04.08c.04.17.24.19.31.35.02.17,0,.15.12.3.09.12.22.21.31.28.33.17.02.73.37.89-.01.02.04.02.05.01l.12.25s.61,1.23,1.09-.22h.03c-.01-.18-.04-.27-.22-.29.15-.1-.04-.12,0-.18h.01c-.17-.02,0-.23-.15-.25.01,0,.06-.02.07,0-.05-.04-.13-.1-.04-.16-.1-.13-.17-.35-.36-.35h.03c-.13,0-.05-.06-.14-.09,0,0,.01-.02.02-.02-.13,0-.1-.16-.17-.18l.06-.03-.07-.1v.05c-.17.07.07-.14-.08-.16-.01-.08-.44.02-.41-.08-.09.02.14-.05.05-.06.08-.06.06-.01.13-.07-.07-.02.03-.14-.07-.16l.06-.04c-.17,0-.02-.21-.17-.19-.1-.05.16-.19-.03-.19l.06-.09s-.13.04-.12-.02c.05-.03,0-.08.07-.09.02-.15-.25-.12-.19-.34-.13.04-.1-.06-.2-.03.04-.03-.07-.14.07-.13.01,0,.02.01,0,.02l.07-.03c.07-.16-.16-.08-.18-.17,0,.03.02.06-.04.07l-.03-.07.06-.02-.03-.12-.05.06c0-.07.1-.17-.03-.16-.07.01-.06.1-.12.07,0-.09,0-.24-.03-.34-.07.06-.08.03-.12.02l.06-.05c-.15-.02.12-.13-.01-.17l.05-.02-.15.07c-.18.01.1-.14-.14-.1.03.03-.13.12-.14.05l.07-.03s-.06,0-.06-.03c.04,0,.09-.05.06-.08l.09-.03-.16.02c.03-.09-.1-.12-.04-.2,0,0-.04-.14-.15-.09.07-.02.05-.09.14-.14-.08.02-.2-.02-.16-.1h.01c-.02-.18-.26-.13-.26-.3-.06.06-.07-.02-.16.06-.18-.04.02-.35-.29-.16-.05-.03.01-.12,0-.15h.02c-.1-.07-.13-.09-.18-.17-.05,0-.19.09-.21,0,.06-.02.03-.04.01-.06.02,0,.04,0,.05-.06-.02,0-.03.01-.04.01h.01s-.06-.01-.05.01c0,0-.02.02-.02.03.03-.09-.1-.1-.02-.19-.12-.09-.28-.08-.4-.15.03-.05.08-.06.13-.05l-.07-.05c.06-.06.07,0,.1,0,.02-.17-.24-.06-.25-.23l-.06.03h0s-.07.03-.09.02c.04-.06.12-.13.07-.16.01-.08-.13-.07-.2-.08.02.03-.02.05-.04.06-.02-.02.01-.08-.02-.07l.06-.07c-.05.07-.13.02-.17.04.03-.06.07-.02.12-.05-.09-.07-.05-.03-.15-.1-.09.01-.05.08-.14.13-.05-.02-.15,0-.16-.09l-.04.08c-.13-.02-.17-.06-.17-.18-.54.04-.7.22-.76.38-.05.16.02.29.02.29.1.33.37.22.68.4v-.02Z"/>
  </g>
  <g>
    <path class="b" d="M109.89,7.89l-.03-.04s0,.03.03.04Z"/>
    <polygon class="b" points="108.57 6.64 108.58 6.64 108.58 6.63 108.57 6.64"/>
    <path class="b" d="M110.32,6.76c-.46-.05-.58-.22-1.05-.16-.23-.01-.47.02-.69.04-.1.14-.29,0-.42.12l-.05-.07s-.09.06-.14.02v-.02c-.06.05-.14.02-.17.05v-.02h-.07v-.03c-.09.06-.21.06-.31.04v.09c-.21-.1-.28.08-.48-.03v-.02c-.24.24-.39-.16-.64.07.03-.03-.01-.04-.01-.07-.12.03-.24.04-.24.22-.08,0-.07-.05-.08-.13,0,.07-.07.12-.14.12l.03-.03-.19.03.04.15c-.1-.04-.03-.18-.13-.15v.13c-.14-.02-.22-.21-.37-.29-.57-.04-1.16.29-1.7.1l-.03-.09c-.02-.14-.14.21-.16.08l-.06.06s-.05-.04-.03-.08c-.05,0-.05.02-.09.06l-.06-.08c-.23-.05-.41.12-.65.1-.29-.15-.82.04-1.12.17-.41.23-.97-.24-1.38.04-.02-.02-.05.03-.04.04l-.41.03s-.49.05-.78.23c-.28.18-.34.45.47.89v.03c.22.03.36.03.48-.14.05.18.18,0,.24.04h0c.12-.14.28.09.4-.04,0,.01,0,.06-.03.07.09-.03.21-.08.23.02.22-.05.52-.04.65-.22v.03c.06-.12.09-.02.18-.09,0,.01.01.02.01.02.07-.12.25-.04.33-.09v.07l.19-.03h-.06c0-.2.15.1.26-.03.13.02.21-.42.35-.34.05-.09-.04.15.04.07,0,.1-.04.06,0,.15.08-.05.15.09.25.02v.07c.14-.15.28.08.37-.05.14-.07.1.23.25.06l.06.1c.06.01.04-.14.12-.08,0,.06.09.05.05.12.17.09.33-.16.55,0,.04-.14.15-.06.18-.16,0,.05.22,0,.09.13,0,0-.03,0-.03-.01v.07c.12.14.21-.08.33-.07-.03-.02-.08-.02-.05-.07h.12l-.02.07.17.03-.02-.08c.08.04.12.18.2.05.04-.06-.08-.1,0-.14.12.05.27.13.42.15-.01-.09.02-.08.06-.1v.07c.15-.12.06.17.21.08v.05l.02-.17c.13-.16.07.16.22-.05-.06.01-.03-.17.04-.14l-.02.07s.05-.05.07-.03c-.02.04-.01.1.05.09l-.04.09.1-.14c.08.08.22-.02.25.08,0,0,.18.05.22-.06-.03.07.06.09.04.19.04-.08.19-.15.24-.06h-.01c.21.09.36-.12.54,0,0-.09.09-.04.06-.16.19-.12.35.23.42-.13.08-.02.1.08.15.1l-.02.02c.17-.03.21-.03.34-.02.06-.03.07-.2.18-.16-.03.06,0,.05.05.05-.02,0-.03.03.02.08,0-.02.02-.03.03-.04v.02c.07-.02.06-.04.03-.05,0,0,0-.02-.01-.04.07.08.2,0,.21.1.21-.02.36-.14.52-.19.02.06-.02.12-.07.14l.13-.02c0,.08-.07.05-.1.06.15.14.29-.14.46,0l.03-.06h0s.04-.07.06-.08c.02.07,0,.17.08.17.06.07.19-.03.27-.07-.04-.01-.03-.05,0-.08.04,0,.06.07.09.04v.09c-.01-.09.12-.09.13-.14.02.07-.06.06-.07.12h.25c.09-.07-.01-.09.03-.18.08-.02.16-.08.25-.02l-.03-.08c.15-.06.24-.05.34.03,1.12-.7.25-.98.25-.98-.43-.2-.66.05-1.19.12h-.02Z"/>
  </g>
  <path class="b" d="M20.24,9.98c.07.04.09.22.18.15.04.01.08-.02.12-.04.02-.14.05,0,.07-.12v.07s.02-.06.03-.02v.02c.01-.05.02-.02.03-.05v.02h.01v.03c.02-.06.04-.06.05-.03v-.09c.03.1.05-.08.08.03v.02c.04-.24.06.17.12-.06v.07s.04-.04.04-.22c.01,0,.01.05.01.13,0-.07.01-.12.03-.12v.03l.03-.02v-.15s0,.18.01.15v-.13s.03.21.05.3c.09.05.21-.25.29-.04v.09c0,.14.03-.2.03-.07v-.06s.02.05.01.08c0,0,0-.02.02-.05v.08c.04.06.08-.09.13-.06.04.17.14.02.19-.07.07-.2.16.34.23.1,0,.02,0-.02,0-.04l.07.02s.34.06.1-1.06v-.03c-.03-.07-.05-.08-.08.06,0-.18-.03-.02-.04-.07h0c-.02.13-.04-.14-.07,0v-.06s-.04.06-.04-.04c-.04.03-.09-.02-.12.15v-.03c-.01.12-.02.02-.03.07v-.03c-.02.12-.04.02-.06.06v-.07h-.03s.01.01.01.01c0,.21-.02-.1-.04.02-.02-.02-.05.4-.07.3-.01.09.01-.15,0-.07v-.15c-.02.05-.02-.1-.04-.03v-.07c-.03.15-.04-.1-.06.03-.03.06-.01-.23-.04-.08v-.1s-.02.13-.03.07c0-.06-.01-.05,0-.12-.02-.1-.06.15-.09-.03-.01.13-.03.05-.03.15,0-.05-.04,0-.01-.14h0s0-.06,0-.06c-.01-.15-.03.08-.05.05,0,.02.01.02,0,.07h-.02v-.07l-.03-.04v.08s-.01-.18-.03-.06c0,.06.01.1,0,.14-.02-.05-.04-.14-.06-.16,0,.09,0,.08-.01.1v-.07c-.03.1,0-.17-.03-.08v-.05.17c-.02.16,0-.17-.04.05,0-.01,0,.17-.01.14v-.07s0,.05,0,.03c0-.04,0-.1,0-.09v-.09.14c-.02-.08-.05.02-.05-.08,0,0-.03-.05-.04.06v-.19c0,.08-.03.15-.04.06h0c-.03-.1-.06.12-.09,0,0,.09-.02.04-.01.16-.03.12-.05-.24-.07.13-.01.02-.02-.08-.02-.1v-.02s-.03.03-.05.02c-.01.03-.02.2-.03.16,0-.06,0-.05,0-.05v-.08.04-.02s-.01.04,0,.05v.04c0-.08-.03,0-.03-.1-.03.02-.06.15-.09.19,0-.06,0-.12.01-.14l-.02.02c0-.08.01-.05.02-.06-.02-.14-.05.14-.08,0v.06h0s0,.07-.01.08c0-.07,0-.17-.01-.17,0-.07-.03.03-.05.07v.08s0-.07-.02-.04v-.09c0,.09-.02.1-.02.14,0-.07.01-.06.01-.12-.03,0-.01,0-.04.01-.02.07,0,.09,0,.18-.01.02-.03.08-.04.03v.08c-.02.06-.04.05-.05-.03-.21.71-.06.98-.06.98.07.2.12-.06.21-.13h-.04Z"/>
  <g>
    <path class="b" d="M40.8,11.59h-.12s.04.02.12,0Z"/>
    <path class="b" d="M36.7,13.39h0s0-.02.01-.03v.03h-.01Z"/>
    <path class="b" d="M41.79,10.13c-.76.15-1.27.26-1.77.43-.5.18-1.02.42-1.68.98-.66.5-1.21,1.2-1.63,1.84-.12.36-.57.9-.64,1.36-.05.04-.09.08-.14.13-.02.16-.05.34-.15.47l-.02-.02c-.03.23-.1.47-.12.59h-.02l-.06.25-.02-.05c-.01.4-.08.8-.14,1.15l.09-.02c-.16.76.04,1.03-.02,1.72h-.02c.36.8.09,1.42.68,2.18-.08-.09-.02.06-.04.06.21.38.49.74.64.64.18.25.1.24.07.31.05-.04.26.13.43.29l-.09-.06c.16.17.34.31.54.44v-.2c.24.25-.05.2.24.39l.06-.1c.41.26.59.57.98.83.89.4,1.94.6,2.95.57,1.02-.03,1.98-.23,2.89-.5l.12.05c.09.1.39-.4.5-.33l.16-.16c.06,0,.19-.05.12.03.17-.1.17-.13.26-.24.07-.02.16-.03.23-.05.35-.22.62-.49.85-.81.19-.25.42-.58.68-.87.2-.15.37-.4.56-.67.2-.26.36-.59.49-.92.16-.33.25-.68.34-1.01.1-.33.14-.64.17-.9.07-.74.18-1.53.2-2.36-.02-.82-.15-1.68-.6-2.35,0-.05-.09-.16-.1-.15-.23-.42-.45-.84-.77-1.22,0,0-.06-.08-.18-.23-.14-.13-.31-.29-.52-.49-.22-.19-.5-.36-.77-.52-.29-.14-.59-.25-.84-.34-.55-.09-.91-.09-.86.07.03.2.58.43,1.34,1.26h-.04c.25.21.44.39.6.56.18.15.35.28.54.43-.09.16.31.44.33.62h-.02c.35.27.26.78.51,1.08-.02,0-.06,0-.09-.08.1.25.24.62.15.66.18.65.2,1.57.28,2.02l-.03-.03c.08.26,0,.33,0,.61-.02.01-.03.03-.03.03.05.29-.14.79-.19,1.01h-.07l-.16.51.08-.19c.17.15-.26.34-.33.74-.16.33-.05.86-.34,1.15-.03.21-.03-.23-.13.05-.08-.05.02-.15-.08-.14-.13.25-.37.28-.54.59l-.06-.04c-.22.49-.61.54-.73.84-.3.33-.36,0-.64.38h-.2c-.18.07-.05.18-.26.24-.02-.06-.27.06-.18-.04-.45.1-.86.5-1.52.43-.12.17-.44.09-.54.21-.02-.04-.65,0-.28-.13.03,0,.08,0,.08.01l.04-.07c-.36-.14-.65.07-1.01.01.1.04.24.04.15.08-.12,0-.22-.03-.34-.05l.07-.05c-.16-.04-.33-.07-.48-.13l.05.09c-.23-.1-.27-.25-.57-.21-.14.02.19.18-.06.12-.29-.15-.73-.41-1.1-.62,0,.09-.09.04-.2,0l.03-.07c-.41-.1-.05-.2-.41-.37l.06-.02-.18.06c-.4-.1-.03-.24-.47-.38.13.1-.07.18-.19,0h.09c-.08-.08-.13-.1-.16-.17.07.03.1-.04,0-.17l.14.03-.29-.18c-.04-.25-.33-.55-.25-.69,0,0-.15-.5-.27-.6.09.08.05-.21.15-.15-.13-.1-.26-.5-.2-.68v.03c.03-.61-.2-1.05-.03-1.59-.09.02-.02-.27-.14-.21-.04-.61.42-.99.14-1.28.06-.26.19-.27.24-.4v.06c.14-.47.21-.61.39-.91.07-.17-.08-.29.16-.55-.01.13.06,0,.14-.09-.04.07-.03.1.09,0,0-.03,0-.06.02-.1h.02c.1-.19.06-.17,0-.09,0,0-.02-.01-.05,0,.2-.13.39-.48.48-.43.4-.48.66-.87,1.07-1.22.08.01,0,.13-.09.24.09-.08.19-.16.29-.23.04.07-.16.15-.23.24.42-.14.68-.61,1.22-.7l.07-.1h.03s.07-.12.15-.16c.09.04.05.16.29.07.21,0,.55-.2.81-.3-.15.02-.12-.03-.05-.06.13-.03.22.02.31-.03l.03.09c-.07-.08.33-.18.37-.23.09.05-.19.1-.22.17.55-.14.27-.07.82-.21.2-.13-.04-.08.03-.2.14-.05.47-.09.74-.04l-.09-.08c.09-.01.18-.02.25-.03.28.08.51.21.72.37,3.61.73,1.08-.61,1.08-.61-.27-.16-.51-.28-.76-.39-.13-.05-.23-.09-.35-.15-.17-.06-.34-.13-.5-.19-.76.05-.55,0-1.37.15-.3.13-.69.23-1.16.37l-.02.02Z"/>
  </g>
</svg>