<?xml version="1.0" encoding="utf-8"?>
<!-- Generator: Adobe Illustrator 28.1.0, SVG Export Plug-In . SVG Version: 6.00 Build 0)  -->
<svg version="1.1" id="a" xmlns="http://www.w3.org/2000/svg" xmlns:xlink="http://www.w3.org/1999/xlink" x="0px" y="0px"
	 viewBox="0 0 435.1 210.4" style="enable-background:new 0 0 435.1 210.4;" xml:space="preserve">
<style type="text/css">
	.st0{fill:none;stroke:#484848;stroke-width:2;stroke-linecap:round;stroke-linejoin:round;}
</style>
<path class="st0" d="M126.2,105.6c-2.2,3.1-5,5.6-8.3,7.6c-3.3,1.9-6.1,4.4-8,7.9c-1.5,2.8-4.2,4.9-5.7,7.8
	c-2.7,5-6.7,9.1-10.1,13.6c-4,5.4-8.4,10.7-13.3,15.5c-2.9,2.8-5.6,5.9-8.6,8.7c-2.9,2.8-6.2,5-9.8,6.7c-1.8,0.8-3.2,2.2-4.6,3.6
	c-2.2,2.1-4.5,4.1-6.8,6.2c-2.4,2.2-3.9,5.1-5.6,7.7c-0.3,0.4,0,0.6,0,0.9"/>
<path class="st0" d="M260.3,30.5c5.1-0.2,10-0.9,14.6-3.4c3.6-2,6.4-4.9,8-8.7c1.3-3.1-1-5.7-4.3-5.6c-2.2,0-4.6-0.8-6.8,0.4
	c-1.5-1.1-3.1,0.1-4.7-0.1c-0.8-0.1-1.6,0.3-2.4,0.4c-1.7,0.3-3.5,0.3-5.2,0.2c-0.3,0-1-0.2-1-0.1c-0.9,1.5-2.3,1.1-3.6,1.3
	c-2.4,0.4-3.8,2.3-4.4,4.3c-1.9,5.8-3.8,11.7-4,18c0,1.5,0.4,2.9,0.7,4.3c0.5,2.3,1,4.6,2.2,6.6c2.4,3.9,5.1,7.6,8.1,11.2
	c3.4,4.1,5.9,8.8,8.9,13.3c3.9,5.9,5.6,12.7,8.6,18.9c1.5,2.9,3.3,5.6,5,8.5c1,1.7,1.8,3.6,2.9,5.2c1.3,1.9,0.3,3.8,0.1,5.6
	c-0.6,6.1-2.7,12.1-2.4,18.4c0.1,1.6,0.6,3.1,0.9,4.7c0.6,4.3,1,8.6,1.4,13c0.5,5.7,0,11.4,0.5,17.1c0.3,3.7,0.8,7.3,1.1,11
	c0.3,3.9,0.5,7.8,0.7,11.7c0,1,0.2,1.9,0.7,2.7"/>
<path class="st0" d="M283.6,108.5c1.8,1.5,3.2,3.3,4.1,5.4c0.9,2,2,4,3.1,5.9c0.2,0.4,0.6,0.8,0.6,1.4c0.1,7,1.3,14,1.1,21
	c-0.1,3.3-0.5,6.6-1,9.9c-0.6,3.4-0.8,6.8-1.3,10.2c-0.5,3.2-0.8,6.5-1.3,9.7c-0.4,2.6-1,5.2-0.8,7.9c0.2,3.1-0.4,6.3-1.4,9.1
	c-1.2,3.4-0.3,6.6-0.4,9.9c0,0.6,0.3,1.1,1.1,0.9"/>
<path class="st0" d="M363,117.3c0.3,2.9,2.2,4.9,4,7c-0.7,2.1-1.3,4.3-1.5,6.5c-0.2,1.4-1.1,2.4-1.7,3.6c-2.5,5.1-4.7,10.4-6.6,15.8
	c-1.6,4.6-2.4,9.4-3.3,14.2c-0.9,4.7-1.3,9.4-1.9,14.1c-0.3,2.3-0.5,4.6-0.5,6.8c-0.3,6.9-1,13.8-0.8,20.7c0,1.3,0.4,2,1.7,2.2"/>
<path class="st0" d="M430.6,56.8c0.8-0.9,0.9-2.2,0.8-3.2c-0.2-2.5-0.2-4.9-0.1-7.4c0.3-5.8-1.3-11.2-3.9-16.1
	c-2.1-4.1-4.8-7.9-7.9-11.4c-1.2-1.3-2.7-1.6-4.5-1.3c-2.9,0.5-5,1.7-6.9,4c-2.3,2.8-4.1,5.9-5.9,9c-0.9,1.6-0.9,3.3-0.9,5
	c0,0.9,0.2,1.9-0.7,2.5"/>
<path class="st0" d="M246.4,40.5c-1.7,0.3-2.7-0.5-3.9-1.7c-1.9-2-1.8-4.3-1.8-6.6c0-3.5-0.7-6.8-1-10.2c-0.3-3.7-1.2-7.3-1.4-11
	c-0.1-2.4-0.9-4.7-2.9-6.3c-2.3-1.9-4.6-3.7-7.6-4.5c-1.5-0.4-2.8-0.2-4.3,0.1c-3.9,0.8-4.7,3.6-5.6,6.7c-1,3.4-1,6.8-0.9,10.3
	c0.1,1.4,0,2.8-0.5,4.1c-0.3,0.7-0.2,1.9,0.4,2.3c2.6,2,2.1,5,2.5,7.6c0.6,4-0.3,7.9-0.2,11.9c0.1,5.2,0.1,10.5,1.1,15.7
	c0.6,2.9,1.3,5.9,1.5,8.8c0.2,1.9,0.5,3.8,0.5,5.8c0,0.7-0.2,1.5,0.5,2.2c0.6,0.6,0.4,1.6,0.2,2.3c-0.4,1.3-0.1,2.7,0.2,3.8
	c0.4,1.5,0,2.5-0.8,3.6"/>
<path class="st0" d="M67.4,77c-0.3-0.3-0.2-0.3,0.2-0.6c2.3-1.6,4.2-3.7,6.6-5.3c2-1.3,3.2-3.6,4.7-5.5c2.3-3,4.6-5.9,6.5-9.1
	c0.7-1.1,1.7-2,3-2.4c1.4-0.4,1.7-1.9,2.7-2.7c2-1.9,2.2-2.4,4.6-3.5c1.7-0.8,3.9-1.8,5.6-2.6c4.2-1.9,8.2-2.1,12.1,0.2
	c3.5,2,6.2,6.1,7,10.2c0.4,1.9,1.4,3.7,2.3,5.7c0.6,1.2-0.4,2.8-1,3.9c-2,3.3-3.5,6.8-5.7,10c-0.8,1.2-1.2,2.8-1.8,4.1
	c-1.9,3.9-0.4,7.6,0.4,11.3c0.3,1.5,1,3,1.4,4.5c0.4,1.6,1.4,2.9,2.5,4.1c2.2,2.4,5.5,3.7,7.7,6.1c4.3,0.8,8,3.3,12,4.7
	c4.5,1.5,11,5.7,14,9.6c2.6,1.6,6.3,2.9,9.2,3.8c2.6,0.5,4.7,1.8,7.3,1.9c1.1,0.1,2.1,0.3,3.1,0.8c2.9,1.6,6.3,2.2,9.5,3.2
	c5,1.5,9.6,3.9,14.2,6.4c2.7,1.5,5.7,2.5,7.9,4.7c3.2,3.1,6.9,5.8,9.2,9.9c2.4,4.2,3.5,8.7,4,13.5c0.5,4.7,0.7,9.5,0.7,14.2
	c0,6.7,0.9,13.4,0.8,20.1c0,3,1,5.9,1.1,9c0,0.9,0.8,1.6,1.4,2.2"/>
<path class="st0" d="M383,34.7c2,1.6,4.2,3.1,5.9,5c2.9,3.3,4.8,7.2,5.8,11.5c0.4,1.8,1,3.5,1.6,5.2c0.5,1.4,1.7,2.5,2.9,3.2
	c1.8,1.1,3.4,2.5,4.6,4c1.7,2.2,3.9,3.9,6,5.5c1.9,1.5,3.5,3.3,5.6,4.7c3.2,2.2,6.7,3.7,10.5,4.5"/>
<path class="st0" d="M175.9,40.2c-0.8,1.7-1.1,3.6-1.6,5.4c-0.7,2.6,0.4,4.9,0.9,7.4c0.8,4,2.7,7.7,3.1,11.9
	c0.4,4.6,1.6,9.1,2.3,13.7c0.4,2.7,1.7,5.3,3,7.8c1.1,2,2.6,3.4,4.6,4.5c1,0.6,2.2,0.9,3.2,0.8c1.9-0.1,3.8-0.2,5.6-0.8
	c1.4-0.5,2.6-1.1,3.1-2.7c0.1-0.5,0.1-1.2,0.9-1.3"/>
<path class="st0" d="M297.1,28.5c-0.1,3.6,0.6,7.1,1.9,10.4c1.6,4,4.3,6.9,7.4,9.7c1.6,1.5,3.4,2.7,4.9,4.3c2,2.2,2.2,4.8,1.8,7.6
	c-0.4,3-0.6,6,0.5,9c0.4,1.2,0.9,2.2,1.8,3.1c1.6,1.4,3.1,2.9,4.7,4.3c0.9,0.8,4.8,1.2,5.9,0.5c2.6-1.4,4.1-3.3,4.6-6.5
	c0.6-4,0.1-7.9-0.7-11.7c-0.7-3.4-1.9-6.7-3.5-9.9c-1.6-3.3-2.4-7-3.6-10.4c-1.3-3.8-3.3-7.3-4.3-11.2c-0.7-2.7-1.8-5.3-3-7.7
	c-1.5-2.8-3.6-5.4-6.6-6.9c-2.8-1.4-5.7-0.5-8.2,0.9c-4.1,2.2-6.4,5.9-8.5,9.9c-2.6,4.7-5.1,9.5-7.4,14.4c-0.6,1.3-1.8,2.3-2.9,3.2
	c-1.3,1.1-2.7,0.9-4-0.2"/>
<path class="st0" d="M348.8,43.8c-1.5-1.4-1.7-3.5-2.3-5.2c-1.5-4.3-3.1-8.4-5.2-12.4c-1-1.9-1.9-4-2.9-5.9
	c-1.7-3.1-4.4-5.4-7.4-6.9c-2.3-1.1-5-0.3-7.5,0.6c-3.2,1.2-5.5,3.3-7.5,5.9"/>
<path class="st0" d="M83.4,59.2c-2-1.7-3.9-3.6-6-5.2c-2.1-1.7-4.7-2.3-7.4-2.3c-4.1-0.1-8.2-1-12.4-0.1c-4.7,1.1-7.6,4.2-9.8,8
	c-0.4,0.7-1,1.2-1.4,1.9c-1.9,3-4.2,5.8-5.7,9c-0.8,1.7-2.5,2.6-3.3,4.3c-1.2,2.6-2.8,5-3.9,7.6c-0.9,2.1-1.3,4.4-2,6.6
	c-0.5,1.5-0.7,3.1-2.3,4"/>
<path class="st0" d="M434.1,121.8c-1.4,1-2.8,1-4.5,0.4c-6.2-2.1-10.5-6.5-14.7-11.1c-2.2-2.5-4.7-4.5-7.3-6.6
	c-4.9-3.9-9.8-7.8-14.2-12.3c-3.3-3.3-6.8-6.5-9.9-10c-2.5-2.8-4.1-6.1-5.7-9.4c-1.1-2.3-2.3-4.7-2.8-7.2c-0.7-3-1.1-6.1-1.1-9.2
	c0.1-6.1-1.1-12-4.4-17c-1.7-2.6-1.7-5-1.9-7.6c-0.2-3.7-1.5-7.1-2.7-10.6c-1.1-3.2-3.2-5.9-6-7.4c-3.2-1.8-6.6-3.6-10.5-3.1
	c-2.5,0.3-4.2,2-5.4,4.1c-1.4,2.5-2.3,5.3-3.1,8.1"/>
<path class="st0" d="M54.8,52.3c-1.4-1.4-1.9-3.6-4-4.3c-1.2-0.5-1.3-2.1-2.5-2.7c-3.8-2-7.9-3.4-12.2-3.4c-2.1,0-4.2,0.8-5.5,2.2
	c-4.3,4.6-8.6,9.4-11,15.4"/>
<path class="st0" d="M48.3,179.9c-1.6,0.7-3.1,1.3-4.7,2c-0.3,0.1-0.7,0.2-1.1,0.2c-3.7-0.8-7.4-1.6-10.9-3.5
	c-4-2.1-7.5-4.6-11.1-7.3c-1.5-1.1-3.2-1.9-5-2.4c-1.6-0.4-3.1-1.2-4.7-1.5c-0.7-0.2-2-0.5-2,1"/>
<path class="st0" d="M201.1,79c1.2-2,0.8-4.3,1.1-6.5c0.4-2.7-0.5-5.3-1.1-7.9c-0.8-3.5-1.2-6.9-1.5-10.4c-0.2-2.7-0.8-5.4-1.2-8.1
	c-0.3-1.9-0.1-3.8-0.2-5.8c-0.4-5-0.8-10-5.2-13.5c-2-1.6-3.7-3.5-6.3-4.1c-1.1-0.2-2.1,0.1-3.1,0.2c-4.8,0.7-7.9,3.4-9.4,8.1
	c-1.2,3.8-2.9,7.4-4.3,11.2c-0.1,0.4-0.2,0.8-0.2,1.2c0.4,2.6-0.2,5.3,0.8,8c0.4,1,0.1,2.4-0.1,3.6c-0.2,1.4-0.2,2.8,0.5,4.1"/>
<path class="st0" d="M399.2,98c-1.9,2.6-3.9,5.2-5.8,7.9c-1.9,2.7-4.7,4.2-7.2,5.9c-3.9,2.7-7.9,5.3-12.2,7.2
	c-2.7,1.1-5.1,2.7-7.2,4.7"/>
<path class="st0" d="M153.8,89c2.7-6.6,0.7-12.6-3-18.1c-2.2-3.3-6-3.5-9.6-2.5c-3.7,1-7.4,2.4-10.6,4.5c-4.1,2.7-7.2,6.3-7,11.7
	c0.1,2.2,0.7,4.3,1.8,6.3c0.3,0.6,0.8,1.2,1.4,1.4c1.8,0.6,3.7,1.2,5.6,1.6c1.2,0.3,2.5,0.2,3.6-0.5c1.8-1.3,4.1-1.3,6-2.5
	c0.6-0.4,1.2-0.8,1.8-1.3c2.1-1.9,5.1-2.6,8.3-1.1c2.6,1.2,5.1,2.7,7.9,3.2c3.9,0.8,7.9,0.2,11.7-0.9c1.2-0.4,2.2-1.5,3.4-2.1"/>
<path class="st0" d="M42.4,123.4c-4.5,7.1-10.4,12.7-18,16.6c-1.9,1-3.3,2.7-5.2,3.6c-1.9,0.9-3.7,1.7-5.4,2.9
	c-0.6,0.4-1.4,0.4-2.1,0.6"/>
<path class="st0" d="M5.7,64c-0.3-0.8-0.3-1.5,0.7-1.8c2.5-0.7,4.9-1.5,7.4-2.1c3.1-0.8,6.1-0.3,9,0.7c3.6,1.3,5.8,3.7,6.9,7.4
	c0.7,2.2,0.2,4.3-0.1,6.3c-0.7,4.2-3.4,7.3-6.1,10.4c-2.4,2.8-5.5,5-8.8,6.6c-1.8,0.9-3.7,1.4-5.6,2.2c-2.8,1.2-5.6,2.4-7.6,4.8
	c-0.2,0.3-0.4,0.6-0.5,0.9"/>
<path class="st0" d="M14.5,81.3c3.2,0.1,6.1-0.8,8.8-2.4c3.5-2,4.5-7.3,1.5-11.5c-3.1-4.3-6-4-10.6-2.9c-0.7,0.2-1.5,0.3-2.2,0.6
	C8,66.8,7.6,69,7.9,73C8,73.9,8,74.8,8.2,75.7c0.7,3.3,2.7,5.2,6.1,5.6"/>
<path class="st0" d="M115.2,58.3c-2.9,3.6-5.2,7.8-6.4,12.1c-4.1,7-2.5,11.9-6.4,16.7"/>
<path class="st0" d="M259.7,30.3c0.8,0,0.6,0.5,0.4,0.9c-2,3.1-3.5,6.6-3.4,10.1c0.1,4.3-0.7,8.9,1.6,13c0.9,1.6,1.6,3.5,3.8,4"/>
<path class="st0" d="M329,57.3c-0.5,0-0.9,0.6-1.7-0.1c-1.7-1.6-3.9-1-5.9-0.2c-0.6,0.3-0.8,0.9-0.9,1.6c-0.3,1.9-0.3,3.7-0.4,5.6
	c-0.2,2.8,0.3,5.4,0.8,8.1c0.2,1.3,0.4,2.6,1.2,3.8c0.2,0.2,0.3,0.7,0,1.1"/>
<path class="st0" d="M345.9,26.6c0.7,2,2.3,3.7,2.4,5.9c0,0.2,0.2,0.5,0.4,0.7c2,2,1.4,4.3,0.8,6.7c-0.1,0.5,0.1,1.2,0.1,1.8
	c0.1,2.1-1,4.1-0.2,6.3c1.4,3.9,0.8,8,1.4,12c0.2,1,0.1,2.1-0.2,3c-1,3-0.5,6-0.4,9c0,2.4-0.7,4.6-2.6,5.7
	c-4.5,2.4-9.7,1.4-12.5-3.2c-2.2-3.4-2.2-7.4-2.7-11.3c-0.1-0.6,0.1-1.2-0.2-1.8"/>
<path class="st0" d="M98.3,80.2c-1.1-0.7-2.3-0.2-3.2,0.1c-1.8,0.6-3.7,1.1-5.6,1.5c-2.2,0.4-4.3,1.2-6.3,2.3c-2,1-4.3,1.2-6.5,1.2
	c-3.4,0.1-6.8,0.6-10.3,0.1c-2.4-0.3-4.2-1.4-5.9-2.8"/>
<path class="st0" d="M6.9,95.2c1,2.4,2.1,4.8,3.5,7.1c1.1,1.8,2.6,2.1,4.2,1.7c3.8-1,7.5-2.4,10.5-5.2c1.3-1.2,2.5-2.4,3.8-3.6"/>
<path class="st0" d="M349.9,63.4c-0.5-0.4-1-0.7-1.3-1.4c-0.8-1.9-2.2-3.2-3.9-4.2c-1.5-0.9-4.2,0-5.6,1.8c-1.3,1.8-1.2,4.1-2.1,6
	c-0.9,1.8-1,3.9-1.4,5.9c-0.1,0.6-0.2,1.1-0.8,1.4"/>
<path class="st0" d="M430.3,56.8c-1-1.4-0.8-3.1-1-4.7c-0.5-2.8-1.9-4.7-4.2-5.2c-2.8-0.6-4.5,0.3-6.1,3.4c-0.7,1.2-1.2,2.5-1.1,4
	c0.1,1-0.5,1.7-0.7,2.6"/>
<path class="st0" d="M58.4,79.9c0.7,0.8,1.3,1.5,2,2.3c-2.1,2-3.3,4.6-4.8,6.9c-1.8,2.6-3.9,4.9-5.7,7.5c-1,1.5-3,1.5-4.5,2.3
	c-2.2,1.2-4.7,2-7.2,1.6c-3.2-0.6-6.2-1.6-8.4-4.5c-0.9-1.1,0-2.3-1-3.1"/>
<path class="st0" d="M220.1,94.2c0.8,2.3,3.1,2.8,4.9,3.9c2.8,1.8,5.8,3.2,7.9,5.8c2,2.4,2.5,5.3,3.4,8.1c0.1,0.4-0.1,0.9-0.1,1.4"
	/>
<path class="st0" d="M275.9,44.4c-4.3-3.1-10.1-1.3-12.8,2.5c-1.7,2.5-1.5,5.2-1.1,7.9c0,0.2,0.2,0.5,0.2,0.7
	c-0.2,1.2-0.3,2.5,1.1,2.8c1.5,0.4,3,0.5,4.5-0.5c2.1-1.3,3.6-3,4.7-5.2c2.4-5.1,4.6-10.4,6.6-15.7c1.1-2.9,0.9-5.7-0.1-8.5
	c-0.4-1.3-0.7-2.7-1.2-4"/>
<path class="st0" d="M407.3,37.9c0.1,1.2,0.6,2.3,1.1,3.4c2.1,4.8,4,9.7,7.2,13.9c2.3,3.1,4.2,6.5,7,9.2c1.4,1.3,3,1.6,4.7,1.6
	c1.6,0,3.2-1.7,3-3.8c-0.2-1.7,0.2-3.4,0.3-5"/>
<path class="st0" d="M241.4,37.8c-0.3,0.3-0.5,0.6-0.6,1.1c-0.2,3.5-0.3,7.1-0.6,10.6c-0.3,4.5-1.2,8.8-2.9,13
	c-0.7,1.6-0.9,3.4-1.6,5.1c-0.9,2.2-2.3,3.7-4.2,5.1c-1.9,1.3-3.8,1.3-5.8,0.4c-1.1-0.5-2.1-0.7-3.3-0.7"/>
<path class="st0" d="M368.2,38.1c-0.9,0.9-0.8,2.2-0.8,3.2c-0.2,2.2-0.2,4.5-0.8,6.6c-0.8,2.8-1.4,5.7-3.9,7.6
	c-2.1,1.6-4.4,1.4-6.6,0.5c-1.7-0.7-3.3-1.6-4-3.5c-0.3-0.7-1.1-1.1-1.8-1.6"/>
<path class="st0" d="M359.8,56.8c1.2,4.8,3.8,8.5,7.9,11.4c1.7,1.2,3.6,2.3,5.1,3.8c0.8,0.8,2,1.5,3.4,1.5"/>
<path class="st0" d="M38.4,137.1c-2.2,3.7-5.3,6.6-8.8,9c-2.6,1.8-5.5,3.1-8.4,4.2"/>
<path class="st0" d="M290.7,42.7c0.3,0.4,0.6,0.8,1,1.2c1.9,2.2,3.9,4.1,7.1,4c1.3,0,2.3,0.6,3.3,1.5c1.4,1.4,2.8,3,5,3.1
	c0.5,0,1,0.7,1.4,1"/>
<path class="st0" d="M172.5,58.6c-0.1,0.2-0.2,0.6-0.4,0.7c-1.7,1-2,2.6-1.8,4.3c0.7,5.6,1.3,11.3,3.6,16.5c0.6,1.4,0.5,2.2-0.4,3.5
	c-1.2,1.8-1.5,3.8-0.4,5.9"/>
<path class="st0" d="M238.3,59.1c-1.6-0.6-3.2-1.2-4.9-1.8c-3.1-1.2-5-0.4-6.5,2.7c-1.1,2.2-2.7,4-2.7,6.7c0,1.8,0.4,3.5,0.8,5.2
	c0,0.2-0.1,0.4-0.2,0.5"/>
<path class="st0" d="M202,79.9c-0.3,0-0.8-0.1-0.7,0.3c0.3,1.3-0.1,2.5-0.3,3.8c-0.2,1.1-0.4,2.3,0.9,3.5c1.4,1.3,2,3.5,3.2,5.2
	c1,1.3,2.1,1.9,3.5,2.5c2.5,1,5.2,1.2,7.7,0.9c1.6-0.2,3.4-1.5,4.1-3.4c0.5-1.3,0.9-2.7,1.5-3.9c1.2-2.6-0.4-4.2-1.6-6.1
	c-1.3-2.1-3.3-2.6-5.6-2.3c-1.6,0.2-3.1,0.4-4.7,0.3c-1.4,0-1.9,0.8-1.9,1.8c-0.3,2.8-0.9,5.6-0.8,8.4c0,0.6,0.1,1.1,0.4,1.6
	c0.4,0.7,0.3,1.4-0.3,2"/>
<path class="st0" d="M122.4,57.5c3.9,0.9,6.7,3.5,9.4,6.3c1.8,1.9,2.9,4.1,3.9,6.5"/>
<path class="st0" d="M216.2,21.8c-1.4-0.9-2.5-2.2-4.1-2.9c-3.5-1.5-6.8-0.8-10.3,0.5c-4,1.5-5.9,4.7-7.9,8"/>
<path class="st0" d="M410.7,51.6c-0.2-0.1-0.6,0-0.7-0.2c-3.2-3.8-6.6-7.5-8.9-11.9c-1.7-3.2-3.2-6.6-4.4-10c-0.9-2.6-3.3-4.1-5-6.1
	c-0.9-1-3.4-0.4-4.6,1.1c-1.7,2.2-3.4,4.4-3.9,7.3c-0.1,0.9,0.6,1.9-0.4,2.7c-0.1,0-0.4,0-0.6-0.2c-2.3-2.2-5.7-1.9-8.4-3.4
	c-1.4-0.8-3.8-0.5-5.7,0.2"/>
<path class="st0" d="M356,41.9c0.1,2.8,0.2,5.5,0.5,8.3c0.2,2.5,0.6,3.2,2.9,4c0.2,0.1,0.4,0.1,0.5,0.2"/>
<path class="st0" d="M201.4,79.9c-0.5-1-1.3-1.8-1.9-2.8c-1-1.8-2.4-1.9-4.6-1.3c-2.7,0.7-5,1.9-6.8,4c1,1.8-0.4,3.5-0.4,5.2
	c0,1.7,0.1,3.5,0.1,5.2"/>
<path class="st0" d="M365,44.6c-0.1-1.8-1.1-3.2-2.5-4.3c-2.4-1.9-4.9-1.4-6.5,1.3c-0.2,0.3-0.5,0.1-0.7,0.2"/>
<path class="st0" d="M270,12.5c-4.2-3.6-8.1-3.4-11.1,0.9"/>
<path class="st0" d="M67.4,67.8c-1.7,0.3-1.7,1.7-2,3.1c-0.5,2.4-0.8,4.9-1.8,7.2c-0.8,1.6-2.2,2.4-3.2,3.7"/>
<path class="st0" d="M109.5,68.5c-1,0.2-1.4,1.2-2,1.8c-2,2.2-3.9,4.4-6.3,6.1c-0.5,0.4-0.6,0.8-0.5,1.3"/>
<path class="st0" d="M79.8,71.4c1.4,2,2.9,3.9,5.2,4.9c0.7,0.3,1.4,0.5,2.2,0.5c3,0.9,5.4,0.9,8.3,0.2c1.4,0,2.9,0.2,4.2-0.9
	c0.1-0.1,0.6,0.2,0.9,0.3"/>
<path class="st0" d="M264.4,14.1c0.6,3.8,4.1,4.7,6.6,3.9c1.2-0.4,2.1,0.3,3.2,0.3c2.9-0.1,5.6-1.1,8.5-1.5"/>
<path class="st0" d="M352,28.8c-0.7,1.8-1.3,3.6-2,5.4"/>
<path class="st0" d="M387.5,24.5c1.5,2,3.3,0.8,5,0.4"/>
<path class="st0" d="M66.3,63.7c-0.3,1.5-1.2,3-0.4,4.7"/>
<path class="st0" d="M363.4,50.4c-0.2,2.3-2.2,3-3.6,4.3c0.1,0.6,0.1,1.1,0.2,1.6"/>
<path class="st0" d="M276.1,21.4c0.8,0,0.7,0.5,0.7,1.1c0,1,0.2,1.9,0.9,2.7"/>
<path class="st0" d="M111.7,77c-0.1,1.6,1,2.6,1.8,3.8"/>
<path class="st0" d="M216.7,25c-0.6,0.8-0.4,1.6,0,2.3"/>
<path class="st0" d="M138.1,70.3c0.3,0.5,0.1,1.6,1.3,1.3"/>
</svg>
