<?xml version="1.0" encoding="UTF-8"?>
<svg xmlns="http://www.w3.org/2000/svg" width="435.1" height="210.4" viewBox="0 0 435.1 210.4">
  <defs>
    <style>
      .c {
        fill: none;
        stroke: #484848;
        stroke-linecap: round;
        stroke-linejoin: round;
      }
    </style>
  </defs>
  <g id="a">
    <path class="c" d="M126.2,105.6c-2.2,3.1-5,5.6-8.3,7.6-3.3,1.9-6.1,4.4-8,7.9-1.5,2.8-4.2,4.9-5.7,7.8-2.7,5-6.7,9.1-10.1,13.6-4,5.4-8.4,10.7-13.3,15.5-2.9,2.8-5.6,5.9-8.6,8.7-2.9,2.8-6.2,5-9.8,6.7-1.8.8-3.2,2.2-4.6,3.6-2.2,2.1-4.5,4.1-6.8,6.2-2.4,2.2-3.9,5.1-5.6,7.7-.3.4,0,.6,0,.9"/>
    <path class="c" d="M260.3,30.5c5.1-.2,10-.9,14.6-3.4,3.6-2,6.4-4.9,8-8.7,1.3-3.1-1-5.7-4.3-5.6-2.2,0-4.6-.8-6.8.4-1.5-1.1-3.1.1-4.7-.1-.8-.1-1.6.3-2.4.4-1.7.3-3.5.3-5.2.2-.3,0-1-.2-1-.1-.9,1.5-2.3,1.1-3.6,1.3-2.4.4-3.8,2.3-4.4,4.3-1.9,5.8-3.8,11.7-4,18,0,1.5.4,2.9.7,4.3.5,2.3,1,4.6,2.2,6.6,2.4,3.9,5.1,7.6,8.1,11.2,3.4,4.1,5.9,8.8,8.9,13.3,3.9,5.9,5.6,12.7,8.6,18.9,1.5,2.9,3.3,5.6,5,8.5,1,1.7,1.8,3.6,2.9,5.2,1.3,1.9.3,3.8.1,5.6-.6,6.1-2.7,12.1-2.4,18.4.1,1.6.6,3.1.9,4.7.6,4.3,1,8.6,1.4,13,.5,5.7,0,11.4.5,17.1.3,3.7.8,7.3,1.1,11,.3,3.9.5,7.8.7,11.7,0,1,.2,1.9.7,2.7"/>
    <path class="c" d="M283.6,108.5c1.8,1.5,3.2,3.3,4.1,5.4.9,2,2,4,3.1,5.9.2.4.6.8.6,1.4.1,7,1.3,14,1.1,21-.1,3.3-.5,6.6-1,9.9-.6,3.4-.8,6.8-1.3,10.2-.5,3.2-.8,6.5-1.3,9.7-.4,2.6-1,5.2-.8,7.9.2,3.1-.4,6.3-1.4,9.1-1.2,3.4-.3,6.6-.4,9.9,0,.6.3,1.1,1.1.9"/>
    <path class="c" d="M363,117.3c.3,2.9,2.2,4.9,4,7-.7,2.1-1.3,4.3-1.5,6.5-.2,1.4-1.1,2.4-1.7,3.6-2.5,5.1-4.7,10.4-6.6,15.8-1.6,4.6-2.4,9.4-3.3,14.2-.9,4.7-1.3,9.4-1.9,14.1-.3,2.3-.5,4.6-.5,6.8-.3,6.9-1,13.8-.8,20.7,0,1.3.4,2,1.7,2.2"/>
    <path class="c" d="M430.6,56.8c.8-.9.9-2.2.8-3.2-.2-2.5-.2-4.9-.1-7.4.3-5.8-1.3-11.2-3.9-16.1-2.1-4.1-4.8-7.9-7.9-11.4-1.2-1.3-2.7-1.6-4.5-1.3-2.9.5-5,1.7-6.9,4-2.3,2.8-4.1,5.9-5.9,9-.9,1.6-.9,3.3-.9,5,0,.9.2,1.9-.7,2.5"/>
    <path class="c" d="M246.4,40.5c-1.7.3-2.7-.5-3.9-1.7-1.9-2-1.8-4.3-1.8-6.6,0-3.5-.7-6.8-1-10.2-.3-3.7-1.2-7.3-1.4-11-.1-2.4-.9-4.7-2.9-6.3-2.3-1.9-4.6-3.7-7.6-4.5C226.3-.2,225,0,223.5.3c-3.9.8-4.7,3.6-5.6,6.7-1,3.4-1,6.8-.9,10.3.1,1.4,0,2.8-.5,4.1-.3.7-.2,1.9.4,2.3,2.6,2,2.1,5,2.5,7.6.6,4-.3,7.9-.2,11.9.1,5.2.1,10.5,1.1,15.7.6,2.9,1.3,5.9,1.5,8.8.2,1.9.5,3.8.5,5.8,0,.7-.2,1.5.5,2.2.6.6.4,1.6.2,2.3-.4,1.3-.1,2.7.2,3.8.4,1.5,0,2.5-.8,3.6"/>
    <path class="c" d="M67.4,77c-.3-.3-.2-.3.2-.6,2.3-1.6,4.2-3.7,6.6-5.3,2-1.3,3.2-3.6,4.7-5.5,2.3-3,4.6-5.9,6.5-9.1.7-1.1,1.7-2,3-2.4,1.4-.4,1.7-1.9,2.7-2.7,2-1.9,2.2-2.4,4.6-3.5,1.7-.8,3.9-1.8,5.6-2.6,4.2-1.9,8.2-2.1,12.1.2,3.5,2,6.2,6.1,7,10.2.4,1.9,1.4,3.7,2.3,5.7.6,1.2-.4,2.8-1,3.9-2,3.3-3.5,6.8-5.7,10-.8,1.2-1.2,2.8-1.8,4.1-1.9,3.9-.4,7.6.4,11.3.3,1.5,1,3,1.4,4.5.4,1.6,1.4,2.9,2.5,4.1,2.2,2.4,5.5,3.7,7.7,6.1,4.3.8,8,3.3,12,4.7,4.5,1.5,11,5.7,14,9.6,2.6,1.6,6.3,2.9,9.2,3.8,2.6.5,4.7,1.8,7.3,1.9,1.1.1,2.1.3,3.1.8,2.9,1.6,6.3,2.2,9.5,3.2,5,1.5,9.6,3.9,14.2,6.4,2.7,1.5,5.7,2.5,7.9,4.7,3.2,3.1,6.9,5.8,9.2,9.9,2.4,4.2,3.5,8.7,4,13.5.5,4.7.7,9.5.7,14.2,0,6.7.9,13.4.8,20.1,0,3,1,5.9,1.1,9,0,.9.8,1.6,1.4,2.2"/>
    <path class="c" d="M383,34.7c2,1.6,4.2,3.1,5.9,5,2.9,3.3,4.8,7.2,5.8,11.5.4,1.8,1,3.5,1.6,5.2.5,1.4,1.7,2.5,2.9,3.2,1.8,1.1,3.4,2.5,4.6,4,1.7,2.2,3.9,3.9,6,5.5,1.9,1.5,3.5,3.3,5.6,4.7,3.2,2.2,6.7,3.7,10.5,4.5"/>
    <path class="c" d="M175.9,40.2c-.8,1.7-1.1,3.6-1.6,5.4-.7,2.6.4,4.9.9,7.4.8,4,2.7,7.7,3.1,11.9.4,4.6,1.6,9.1,2.3,13.7.4,2.7,1.7,5.3,3,7.8,1.1,2,2.6,3.4,4.6,4.5,1,.6,2.2.9,3.2.8,1.9-.1,3.8-.2,5.6-.8,1.4-.5,2.6-1.1,3.1-2.7.1-.5.1-1.2.9-1.3"/>
    <path class="c" d="M297.1,28.5c-.1,3.6.6,7.1,1.9,10.4,1.6,4,4.3,6.9,7.4,9.7,1.6,1.5,3.4,2.7,4.9,4.3,2,2.2,2.2,4.8,1.8,7.6-.4,3-.6,6,.5,9,.4,1.2.9,2.2,1.8,3.1,1.6,1.4,3.1,2.9,4.7,4.3.9.8,4.8,1.2,5.9.5,2.6-1.4,4.1-3.3,4.6-6.5.6-4,.1-7.9-.7-11.7-.7-3.4-1.9-6.7-3.5-9.9-1.6-3.3-2.4-7-3.6-10.4-1.3-3.8-3.3-7.3-4.3-11.2-.7-2.7-1.8-5.3-3-7.7-1.5-2.8-3.6-5.4-6.6-6.9-2.8-1.4-5.7-.5-8.2.9-4.1,2.2-6.4,5.9-8.5,9.9-2.6,4.7-5.1,9.5-7.4,14.4-.6,1.3-1.8,2.3-2.9,3.2-1.3,1.1-2.7.9-4-.2"/>
    <path class="c" d="M348.8,43.8c-1.5-1.4-1.7-3.5-2.3-5.2-1.5-4.3-3.1-8.4-5.2-12.4-1-1.9-1.9-4-2.9-5.9-1.7-3.1-4.4-5.4-7.4-6.9-2.3-1.1-5-.3-7.5.6-3.2,1.2-5.5,3.3-7.5,5.9"/>
    <path class="c" d="M83.4,59.2c-2-1.7-3.9-3.6-6-5.2-2.1-1.7-4.7-2.3-7.4-2.3-4.1-.1-8.2-1-12.4-.1-4.7,1.1-7.6,4.2-9.8,8-.4.7-1,1.2-1.4,1.9-1.9,3-4.2,5.8-5.7,9-.8,1.7-2.5,2.6-3.3,4.3-1.2,2.6-2.8,5-3.9,7.6-.9,2.1-1.3,4.4-2,6.6-.5,1.5-.7,3.1-2.3,4"/>
    <path class="c" d="M434.1,121.8c-1.4,1-2.8,1-4.5.4-6.2-2.1-10.5-6.5-14.7-11.1-2.2-2.5-4.7-4.5-7.3-6.6-4.9-3.9-9.8-7.8-14.2-12.3-3.3-3.3-6.8-6.5-9.9-10-2.5-2.8-4.1-6.1-5.7-9.4-1.1-2.3-2.3-4.7-2.8-7.2-.7-3-1.1-6.1-1.1-9.2.1-6.1-1.1-12-4.4-17-1.7-2.6-1.7-5-1.9-7.6-.2-3.7-1.5-7.1-2.7-10.6-1.1-3.2-3.2-5.9-6-7.4-3.2-1.8-6.6-3.6-10.5-3.1-2.5.3-4.2,2-5.4,4.1-1.4,2.5-2.3,5.3-3.1,8.1"/>
    <path class="c" d="M54.8,52.3c-1.4-1.4-1.9-3.6-4-4.3-1.2-.5-1.3-2.1-2.5-2.7-3.8-2-7.9-3.4-12.2-3.4-2.1,0-4.2.8-5.5,2.2-4.3,4.6-8.6,9.4-11,15.4"/>
    <path class="c" d="M48.3,179.9c-1.6.7-3.1,1.3-4.7,2-.3.1-.7.2-1.1.2-3.7-.8-7.4-1.6-10.9-3.5-4-2.1-7.5-4.6-11.1-7.3-1.5-1.1-3.2-1.9-5-2.4-1.6-.4-3.1-1.2-4.7-1.5-.7-.2-2-.5-2,1"/>
    <path class="c" d="M201.1,79c1.2-2,.8-4.3,1.1-6.5.4-2.7-.5-5.3-1.1-7.9-.8-3.5-1.2-6.9-1.5-10.4-.2-2.7-.8-5.4-1.2-8.1-.3-1.9-.1-3.8-.2-5.8-.4-5-.8-10-5.2-13.5-2-1.6-3.7-3.5-6.3-4.1-1.1-.2-2.1.1-3.1.2-4.8.7-7.9,3.4-9.4,8.1-1.2,3.8-2.9,7.4-4.3,11.2-.1.4-.2.8-.2,1.2.4,2.6-.2,5.3.8,8,.4,1,.1,2.4-.1,3.6-.2,1.4-.2,2.8.5,4.1"/>
    <path class="c" d="M399.2,98c-1.9,2.6-3.9,5.2-5.8,7.9-1.9,2.7-4.7,4.2-7.2,5.9-3.9,2.7-7.9,5.3-12.2,7.2-2.7,1.1-5.1,2.7-7.2,4.7"/>
    <path class="c" d="M153.8,89c2.7-6.6.7-12.6-3-18.1-2.2-3.3-6-3.5-9.6-2.5-3.7,1-7.4,2.4-10.6,4.5-4.1,2.7-7.2,6.3-7,11.7.1,2.2.7,4.3,1.8,6.3.3.6.8,1.2,1.4,1.4,1.8.6,3.7,1.2,5.6,1.6,1.2.3,2.5.2,3.6-.5,1.8-1.3,4.1-1.3,6-2.5.6-.4,1.2-.8,1.8-1.3,2.1-1.9,5.1-2.6,8.3-1.1,2.6,1.2,5.1,2.7,7.9,3.2,3.9.8,7.9.2,11.7-.9,1.2-.4,2.2-1.5,3.4-2.1"/>
    <path class="c" d="M42.4,123.4c-4.5,7.1-10.4,12.7-18,16.6-1.9,1-3.3,2.7-5.2,3.6-1.9.9-3.7,1.7-5.4,2.9-.6.4-1.4.4-2.1.6"/>
    <path class="c" d="M5.7,64c-.3-.8-.3-1.5.7-1.8,2.5-.7,4.9-1.5,7.4-2.1,3.1-.8,6.1-.3,9,.7,3.6,1.3,5.8,3.7,6.9,7.4.7,2.2.2,4.3-.1,6.3-.7,4.2-3.4,7.3-6.1,10.4-2.4,2.8-5.5,5-8.8,6.6-1.8.9-3.7,1.4-5.6,2.2-2.8,1.2-5.6,2.4-7.6,4.8-.2.3-.4.6-.5.9"/>
    <path class="c" d="M14.5,81.3c3.2.1,6.1-.8,8.8-2.4,3.5-2,4.5-7.3,1.5-11.5-3.1-4.3-6-4-10.6-2.9-.7.2-1.5.3-2.2.6-4,1.7-4.4,3.9-4.1,7.9.1.9.1,1.8.3,2.7.7,3.3,2.7,5.2,6.1,5.6"/>
    <path class="c" d="M115.2,58.3c-2.9,3.6-5.2,7.8-6.4,12.1-4.1,7-2.5,11.9-6.4,16.7"/>
    <path class="c" d="M259.7,30.3c.8,0,.6.5.4.9-2,3.1-3.5,6.6-3.4,10.1.1,4.3-.7,8.9,1.6,13,.9,1.6,1.6,3.5,3.8,4"/>
    <path class="c" d="M329,57.3c-.5,0-.9.6-1.7-.1-1.7-1.6-3.9-1-5.9-.2-.6.3-.8.9-.9,1.6-.3,1.9-.3,3.7-.4,5.6-.2,2.8.3,5.4.8,8.1.2,1.3.4,2.6,1.2,3.8.2.2.3.7,0,1.1"/>
    <path class="c" d="M345.9,26.6c.7,2,2.3,3.7,2.4,5.9,0,.2.2.5.4.7,2,2,1.4,4.3.8,6.7-.1.5.1,1.2.1,1.8.1,2.1-1,4.1-.2,6.3,1.4,3.9.8,8,1.4,12,.2,1,.1,2.1-.2,3-1,3-.5,6-.4,9,0,2.4-.7,4.6-2.6,5.7-4.5,2.4-9.7,1.4-12.5-3.2-2.2-3.4-2.2-7.4-2.7-11.3-.1-.6.1-1.2-.2-1.8"/>
    <path class="c" d="M98.3,80.2c-1.1-.7-2.3-.2-3.2.1-1.8.6-3.7,1.1-5.6,1.5-2.2.4-4.3,1.2-6.3,2.3-2,1-4.3,1.2-6.5,1.2-3.4.1-6.8.6-10.3.1-2.4-.3-4.2-1.4-5.9-2.8"/>
    <path class="c" d="M6.9,95.2c1,2.4,2.1,4.8,3.5,7.1,1.1,1.8,2.6,2.1,4.2,1.7,3.8-1,7.5-2.4,10.5-5.2,1.3-1.2,2.5-2.4,3.8-3.6"/>
    <path class="c" d="M349.9,63.4c-.5-.4-1-.7-1.3-1.4-.8-1.9-2.2-3.2-3.9-4.2-1.5-.9-4.2,0-5.6,1.8-1.3,1.8-1.2,4.1-2.1,6-.9,1.8-1,3.9-1.4,5.9-.1.6-.2,1.1-.8,1.4"/>
    <path class="c" d="M430.3,56.8c-1-1.4-.8-3.1-1-4.7-.5-2.8-1.9-4.7-4.2-5.2-2.8-.6-4.5.3-6.1,3.4-.7,1.2-1.2,2.5-1.1,4,.1,1-.5,1.7-.7,2.6"/>
    <path class="c" d="M58.4,79.9c.7.8,1.3,1.5,2,2.3-2.1,2-3.3,4.6-4.8,6.9-1.8,2.6-3.9,4.9-5.7,7.5-1,1.5-3,1.5-4.5,2.3-2.2,1.2-4.7,2-7.2,1.6-3.2-.6-6.2-1.6-8.4-4.5-.9-1.1,0-2.3-1-3.1"/>
    <path class="c" d="M220.1,94.2c.8,2.3,3.1,2.8,4.9,3.9,2.8,1.8,5.8,3.2,7.9,5.8,2,2.4,2.5,5.3,3.4,8.1.1.4-.1.9-.1,1.4"/>
    <path class="c" d="M275.9,44.4c-4.3-3.1-10.1-1.3-12.8,2.5-1.7,2.5-1.5,5.2-1.1,7.9,0,.2.2.5.2.7-.2,1.2-.3,2.5,1.1,2.8,1.5.4,3,.5,4.5-.5,2.1-1.3,3.6-3,4.7-5.2,2.4-5.1,4.6-10.4,6.6-15.7,1.1-2.9.9-5.7-.1-8.5-.4-1.3-.7-2.7-1.2-4"/>
    <path class="c" d="M407.3,37.9c.1,1.2.6,2.3,1.1,3.4,2.1,4.8,4,9.7,7.2,13.9,2.3,3.1,4.2,6.5,7,9.2,1.4,1.3,3,1.6,4.7,1.6,1.6,0,3.2-1.7,3-3.8-.2-1.7.2-3.4.3-5"/>
    <path class="c" d="M241.4,37.8c-.3.3-.5.6-.6,1.1-.2,3.5-.3,7.1-.6,10.6-.3,4.5-1.2,8.8-2.9,13-.7,1.6-.9,3.4-1.6,5.1-.9,2.2-2.3,3.7-4.2,5.1-1.9,1.3-3.8,1.3-5.8.4-1.1-.5-2.1-.7-3.3-.7"/>
    <path class="c" d="M368.2,38.1c-.9.9-.8,2.2-.8,3.2-.2,2.2-.2,4.5-.8,6.6-.8,2.8-1.4,5.7-3.9,7.6-2.1,1.6-4.4,1.4-6.6.5-1.7-.7-3.3-1.6-4-3.5-.3-.7-1.1-1.1-1.8-1.6"/>
    <path class="c" d="M359.8,56.8c1.2,4.8,3.8,8.5,7.9,11.4,1.7,1.2,3.6,2.3,5.1,3.8.8.8,2,1.5,3.4,1.5"/>
    <path class="c" d="M38.4,137.1c-2.2,3.7-5.3,6.6-8.8,9-2.6,1.8-5.5,3.1-8.4,4.2"/>
    <path class="c" d="M290.7,42.7c.3.4.6.8,1,1.2,1.9,2.2,3.9,4.1,7.1,4,1.3,0,2.3.6,3.3,1.5,1.4,1.4,2.8,3,5,3.1.5,0,1,.7,1.4,1"/>
    <path class="c" d="M172.5,58.6c-.1.2-.2.6-.4.7-1.7,1-2,2.6-1.8,4.3.7,5.6,1.3,11.3,3.6,16.5.6,1.4.5,2.2-.4,3.5-1.2,1.8-1.5,3.8-.4,5.9"/>
    <path class="c" d="M238.3,59.1c-1.6-.6-3.2-1.2-4.9-1.8-3.1-1.2-5-.4-6.5,2.7-1.1,2.2-2.7,4-2.7,6.7,0,1.8.4,3.5.8,5.2,0,.2-.1.4-.2.5"/>
    <path class="c" d="M202,79.9c-.3,0-.8-.1-.7.3.3,1.3-.1,2.5-.3,3.8-.2,1.1-.4,2.3.9,3.5,1.4,1.3,2,3.5,3.2,5.2,1,1.3,2.1,1.9,3.5,2.5,2.5,1,5.2,1.2,7.7.9,1.6-.2,3.4-1.5,4.1-3.4.5-1.3.9-2.7,1.5-3.9,1.2-2.6-.4-4.2-1.6-6.1-1.3-2.1-3.3-2.6-5.6-2.3-1.6.2-3.1.4-4.7.3-1.4,0-1.9.8-1.9,1.8-.3,2.8-.9,5.6-.8,8.4,0,.6.1,1.1.4,1.6.4.7.3,1.4-.3,2"/>
    <path class="c" d="M122.4,57.5c3.9.9,6.7,3.5,9.4,6.3,1.8,1.9,2.9,4.1,3.9,6.5"/>
    <path class="c" d="M216.2,21.8c-1.4-.9-2.5-2.2-4.1-2.9-3.5-1.5-6.8-.8-10.3.5-4,1.5-5.9,4.7-7.9,8"/>
    <path class="c" d="M410.7,51.6c-.2-.1-.6,0-.7-.2-3.2-3.8-6.6-7.5-8.9-11.9-1.7-3.2-3.2-6.6-4.4-10-.9-2.6-3.3-4.1-5-6.1-.9-1-3.4-.4-4.6,1.1-1.7,2.2-3.4,4.4-3.9,7.3-.1.9.6,1.9-.4,2.7-.1,0-.4,0-.6-.2-2.3-2.2-5.7-1.9-8.4-3.4-1.4-.8-3.8-.5-5.7.2"/>
    <path class="c" d="M356,41.9c.1,2.8.2,5.5.5,8.3.2,2.5.6,3.2,2.9,4,.2.1.4.1.5.2"/>
    <path class="c" d="M201.4,79.9c-.5-1-1.3-1.8-1.9-2.8-1-1.8-2.4-1.9-4.6-1.3-2.7.7-5,1.9-6.8,4,1,1.8-.4,3.5-.4,5.2s.1,3.5.1,5.2"/>
    <path class="c" d="M365,44.6c-.1-1.8-1.1-3.2-2.5-4.3-2.4-1.9-4.9-1.4-6.5,1.3-.2.3-.5.1-.7.2"/>
    <path class="c" d="M270,12.5c-4.2-3.6-8.1-3.4-11.1.9"/>
    <path class="c" d="M67.4,67.8c-1.7.3-1.7,1.7-2,3.1-.5,2.4-.8,4.9-1.8,7.2-.8,1.6-2.2,2.4-3.2,3.7"/>
    <path class="c" d="M109.5,68.5c-1,.2-1.4,1.2-2,1.8-2,2.2-3.9,4.4-6.3,6.1-.5.4-.6.8-.5,1.3"/>
    <path class="c" d="M79.8,71.4c1.4,2,2.9,3.9,5.2,4.9.7.3,1.4.5,2.2.5,3,.9,5.4.9,8.3.2,1.4,0,2.9.2,4.2-.9.1-.1.6.2.9.3"/>
    <path class="c" d="M264.4,14.1c.6,3.8,4.1,4.7,6.6,3.9,1.2-.4,2.1.3,3.2.3,2.9-.1,5.6-1.1,8.5-1.5"/>
    <path class="c" d="M352,28.8c-.7,1.8-1.3,3.6-2,5.4"/>
    <path class="c" d="M387.5,24.5c1.5,2,3.3.8,5,.4"/>
    <path class="c" d="M66.3,63.7c-.3,1.5-1.2,3-.4,4.7"/>
    <path class="c" d="M363.4,50.4c-.2,2.3-2.2,3-3.6,4.3.1.6.1,1.1.2,1.6"/>
    <path class="c" d="M276.1,21.4c.8,0,.7.5.7,1.1,0,1,.2,1.9.9,2.7"/>
    <path class="c" d="M111.7,77c-.1,1.6,1,2.6,1.8,3.8"/>
    <path class="c" d="M216.7,25c-.6.8-.4,1.6,0,2.3"/>
    <path class="c" d="M138.1,70.3c.3.5.1,1.6,1.3,1.3"/>
  </g>
  <g id="b" data-name="lines">
    <path class="c" d="M180.49,81.92c-1.02-.03-2.71.04-3.54.67-.68.52-1.25,1.16-1.95,1.66-.62.44-1.03.7-1.43,1.4-.31.55-.9,1.26-.96,1.93l-.24.06"/>
    <path class="c" d="M180.13,80.32c-.11-.03-.21.06-.31.09-.13.04-.29.05-.43.09-.17.05-.31.1-.47.18-.14.07-.26.06-.4.11-.34.1-.59.35-.9.5-.28.14-.52.33-.78.5-.28.18-.6.29-.92.38-.42.11-.76.39-1.03.72-.18.22-.34.47-.5.71-.11.17-.41.31-.45.5"/>
    <path class="c" d="M174.56,81.67c.03-.14.42-.41.56-.52.11-.08.29-.23.43-.27.08-.03.18.01.25-.03.02-.06.06-.11.11-.15.04,0,.09-.02.13-.03.11-.08.21-.18.34-.24.83-.35,1.57-.9,2.49-.92"/>
    <path class="c" d="M174.11,80.5c.04-.16.19-.21.32-.27.19-.08.36-.17.54-.24.22-.09.42-.21.64-.3.2-.08.6,0,.74-.18"/>
    <path class="c" d="M173.48,79.33c.41,0,.67-.21.99-.43.06-.04.21-.17.27-.19.13-.05.26.03.36-.11"/>
    <path class="c" d="M172.76,78.17c.28.04.64-.26.85-.4.22-.15.44-.34.69-.44.17-.07.44-.06.53-.24"/>
    <path class="c" d="M173.21,76.55h-.05c-.09-.01-.22.06-.31.12.43-.26.79-.63,1.21-.91.31-.21.66-.39.94-.64"/>
    <path class="c" d="M172.94,75.29c-.08.07-.16.12-.26.14.14-.14.3-.39.53-.41"/>
    <path class="c" d="M171.96,74.76c.14-.14.28-.27.41-.41.09-.09.26-.41.39-.4"/>
    <path class="c" d="M175.55,56.44l-.02.07c-.38.09-.82.28-1.18.48-.2.11-.38.28-.54.43-.08.08-.23.25-.33.27"/>
    <path class="c" d="M175.64,55.19c-.29.13-.62.27-.89.45-.23.15-.55.37-.81.45"/>
    <path class="c" d="M175.1,53.12c-.44.08-.91.29-1.29.5-.16.09-.62.29-.68.49"/>
    <path class="c" d="M173.57,52.04c.2-.16.63-.33.72-.54-.27-.05-.62-.57-.9-.54"/>
    <path class="c" d="M173.75,49.44c-.14.02-.2.12-.32.17-.2.1-.41.1-.58.28"/>
    <path class="c" d="M174.74,54.38c-.04.2-.36.26-.52.29l-.02.07"/>
    <path class="c" d="M176.36,55.99c.01.18.64.42.76.45.18.03.4,0,.58,0"/>
    <path class="c" d="M176.36,57.34c-.02.12.24.2.32.24.31.17.59.27.94.36.41.1.76.12,1.17.12"/>
    <path class="c" d="M177.7,58.78c-.09.32.75.59.83.63.76.32,1.57.54,2.4.55-.3-.13-.53-.38-.87-.45-.21-.04-.33.04-.55.06-.2.02-.37-.11-.56-.07"/>
    <path class="c" d="M177.79,60.84c.13.16.42.09.59.09.19,0,.38,0,.57,0"/>
    <path class="c" d="M177.97,62.1c.71,0,1.41.27,2.12.27.19,0,.34-.08.53-.1,1.06-.07,2.13.19,3.17.08v-.08"/>
    <path class="c" d="M178.42,63.17c-.01.06,0,.11,0,.16.47.11.9.32,1.38.41.32.06.63.06.95.05.14,0,.28,0,.42,0,.21,0,.68.1.84-.09"/>
    <path class="c" d="M178.06,65.24c.17.04.3.12.48.15.53.11,1.07.2,1.6.3.46.08.92.2,1.39.18.31-.01.71-.06,1.01-.16.14-.05.22-.14.35-.21s.24-.06.37-.1v-.07"/>
    <path class="c" d="M178.69,67.48c.37,0,.7-.09,1.07-.09.21,0,.51.05.71-.02l.02-.07"/>
    <path class="c" d="M179.23,68.65c.89-.08,1.82-.17,2.69-.36"/>
    <path class="c" d="M179.32,69.91c.91,0,1.82,0,2.73-.02,1.36-.03,2.73-.2,4.09-.16"/>
    <path class="c" d="M184.17,71.25c.21,0,.42,0,.63,0-.35-.04-.82.06-1.16.09-.59.06-1.18.1-1.78.1-.46,0-.91,0-1.37,0,.73.19.72,1.14,1.48,1.21.88.08,1.77.04,2.65.05"/>
    <path class="c" d="M179.68,73.59c.13.12.31.14.47.16.63.08,1.28.09,1.92.14,1.24.1,2.48.16,3.71.33"/>
    <path class="c" d="M180.4,75.02l-.09.02c.09.19.69.17.85.18.62.06,1.25.08,1.88.07.17,0,.29-.03.45-.09.21-.08.36-.09.59-.09"/>
    <path class="c" d="M179.86,76.19c1.77,0,3.53.09,5.3.09"/>
    <path class="c" d="M180.93,77.99c.56,0,1.1.03,1.66.07.43.03.86.03,1.29.04s1.34.17,1.85.05l-.04-.08"/>
    <path class="c" d="M181.02,78.97l-.03.06c.92.28,1.91.38,2.87.49.74.08,1.45.15,2.19.17"/>
    <path class="c" d="M181.29,80.59c.66-.03,1.24.14,1.88.27.75.15,1.57.32,2.34.36"/>
    <path class="c" d="M182.01,81.94c1.27.28,2.58.25,3.86.45"/>
    <path class="c" d="M182.73,83.37c.14.19.62.09.82.09.37,0,.7-.06,1.07-.09"/>
    <path class="c" d="M182.91,84.45c.18-.02.26.05.41.09.24.06.52.05.76.06.56.04,1.12.08,1.67.11s1.09-.08,1.65-.08"/>
    <path class="c" d="M183.72,85.89c.86.23,1.77.21,2.64.36.29.05.57.08.86.09"/>
    <path class="c" d="M183.9,87.14c.45.12.9.05,1.35.13.2.04.39.1.59.13.19.03.39-.04.57.02v.07"/>
    <path class="c" d="M184.61,88.4c.43,0,.83.06,1.26.09"/>
    <path class="c" d="M201.49,76.46c-.11.3-.74.58-.98.76-.19.14-.38.37-.64.41"/>
    <path class="c" d="M202.03,75.02c-.17-.01-.42.29-.55.38-.34.22-.71.37-1.07.56-.48.26-.88.6-1.43.59"/>
    <path class="c" d="M202.21,73.5c-.76.19-1.34.82-2.12.99-.31.06-.64.12-.93.23-.22.08-.34.31-.52.39l-.02-.08"/>
    <path class="c" d="M201.67,71.61c-.07.24-.33.45-.51.6-.38.31-.88.53-1.3.79-.14.09-.66.22-.7.4"/>
    <path class="c" d="M201.67,69.91c-.33.15-.63.47-.94.67-.41.27-.82.59-1.28.77h.06"/>
    <path class="c" d="M199.7,69.46v.07c.49-.37,1.01-.71,1.44-1.14.3-.07-.19-.68.04-.86.11-.08.29-.16.32-.31-.17-.04-.61-.8-.75-.74-.24.09-.44.13-.67.26-.03-.03-.07-.04-.1-.06"/>
    <path class="c" d="M200.77,64.34c-.12.16-.27.19-.45.27"/>
    <path class="c" d="M207.24,93.07v.07c-.19.08-1.38.55-1.35.11"/>
    <path class="c" d="M206.61,91c-.3-.04-.6.15-.88.22-.17.05-.44,1.08-.56.85v-.07c.51-.17,1.13.09,1.63.15,0-.05.03-.07.08-.08"/>
    <path class="c" d="M207.06,89.3c-.27.21-.51.5-.8.68-.66.4-1.6.4-2.35.4"/>
    <path class="c" d="M207.33,88.31v-.08c-.18-.08-.47.04-.63.07-.35.08-.71.11-1.06.14-.93.08-1.89,0-2.79.22"/>
    <path class="c" d="M207.24,86.25c-.03.12-.17.18-.27.26-.41.33-.78.51-1.3.63-.48.12-.94.08-1.43.11-.31.01-.63.11-.94.08"/>
    <path class="c" d="M206.88,85.26c-.62.29-1.19.59-1.88.68-1.51.2-3.06.15-4.58.31"/>
    <path class="c" d="M185.42,82.66c.11.02.11.12.2.16.11.05.14-.03.24-.05.24-.07.5.02.75-.04.14-.03.19-.1.3-.16.2-.11.44-.1.65-.18.15-.06.32-.24.46-.27-.17-.02-.42-.83-.58-.78-.35.1-.72.05-1.08.11-.27.04-.55.14-.82.14-.23,0-.44-.13-.67-.1"/>
    <path class="c" d="M188.12,79.24c-.42-.06-.96.18-1.37.25-.29.05-.57.1-.87.11-.17,0-.3-.02-.46.09"/>
    <path class="c" d="M189.1,77.54c-.17-.02-.31.03-.47.08-.42.13-.86.28-1.3.36-.69.13-1.35.12-2.04.01-.28-.04-.57-.12-.86-.09"/>
    <path class="c" d="M186.41,75.83c-.26.04-.5.22-.77.27-.49.09-.98.09-1.47.09"/>
    <path class="c" d="M207.51,83.37c-.34.05-.66.26-1.02.31-.89.13-1.79.1-2.68.27-.35.06-.7.15-1.06.22-.69.14-1.45-.09-2.16-.07"/>
    <path class="c" d="M207.24,81.85c-.31.37-1.02.53-1.46.65-.9.23-1.86.55-2.78.62-.13,0-.19.05-.3.08-.28.07-.65,0-.94,0"/>
    <path class="c" d="M204.54,81.67c-.18.18-.48.21-.71.27-.35.09-.7.18-1.07.23-.51.06-1.03.04-1.54.04"/>
    <path class="c" d="M207.69,80.23c-.95.01-1.82.41-2.78.44-.36.01-.72,0-1.08.06-.28.04-.54.14-.81.21-.19.05-.4.02-.59.02-.34,0-.68,0-1.03,0"/>
    <path class="c" d="M205.35,79.24c-.16.01-.3.07-.46.11-.3.08-.61.07-.92.07-.65,0-1.31.03-1.96-.02-.25-.02-.54-.1-.79-.07"/>
    <path class="c" d="M204.36,77.36h-2.15"/>
    <path class="c" d="M203.65,76.01c-.58.09-1.12.09-1.71.09"/>
    <path class="c" d="M202.57,74.22c-.14-.12-.36-.15-.54-.18"/>
    <path class="c" d="M221.87,84.36c.13,0,.26.01.39,0,.32-.05.53-.26.78-.44"/>
    <path class="c" d="M220.07,82.66c.34,0,.68,0,1.02,0,.62,0,1.35.13,1.94-.09"/>
    <path class="c" d="M219.45,81.31c.52-.11,1.15-.19,1.62-.45"/>
    <path class="c" d="M215.41,79.69c.14.18.53.1.72.09.55,0,1.09-.05,1.64-.08.96-.04,1.91.02,2.87-.04.64-.04,1.27-.13,1.9-.29.21-.05.53-.1.72-.23.08-.05-.58.29-.48.27-.32.16-.65.31-.95.52-.17.12-.29.28-.46.38-.24.14-.71.15-.99.18-.65.09-1.3.09-1.95.09-.62,0-1.23,0-1.85,0"/>
    <path class="c" d="M218.01,78.08c.84.21,1.81.1,2.66.09.98-.01,1.97-.05,2.95-.15.63-.06,1.27-.12,1.84-.39"/>
    <path class="c" d="M218.91,76.64l-.06.02c.14.26,1.31.26,1.49.28.25.02.55.1.8.07.2-.02.37-.12.55-.19"/>
    <path class="c" d="M219.27,75.56c.48.12.99.16,1.48.22.53.06,1.16.17,1.66-.04"/>
    <path class="c" d="M219.45,74.49c.29.04.64-.1.91-.17.36-.09.8-.35,1.16-.37"/>
    <path class="c" d="M219.8,72.69c.42,0,.8-.05,1.21-.13.43-.08.9-.11,1.3-.32"/>
    <path class="c" d="M220.97,70.98c.03-.14.15-.17.27-.23.14-.08.33-.2.45-.31"/>
    <path class="c" d="M220.79,68.92c.11-.22.43-.32.63-.45"/>
    <path class="c" d="M240.16,48.9h-.42s-.46.64-.48.65c.1.13.34.08.48.08"/>
    <path class="c" d="M238.18,50.77c.23.02,1.01-.29,1.04,0"/>
    <path class="c" d="M237.97,52.23c.24-.04.47-.08.71-.1.2-.02.41-.11.61-.09l.04.09"/>
    <path class="c" d="M235.16,54.52c1.11,0,2.53-.73,3.64-.73h-1.56"/>
    <path class="c" d="M234.85,55.67c.32,0,.64-.02.96,0,.99.04,1.98.31,2.94.52h-.06"/>
    <path class="c" d="M233.49,56.5c1.4.79,3.01.93,4.58,1.15"/>
    <path class="c" d="M230.16,56.61c.6-.07,1.16-.11,1.77-.1"/>
    <path class="c" d="M223.19,71.7h.73"/>
    <path class="c" d="M224.2,70.48c-.23-.02-.47.03-.7.06-.13.02-.27.03-.4.09-.15.07-.23.06-.4.06"/>
    <path class="c" d="M223.73,69.54c-.16.02-.37.07-.52.13-.22.08-.44.08-.68.09"/>
    <path class="c" d="M223.56,68.6c-.09.02-.17.1-.25.14-.24.1-.5.19-.75.23-.21.03-.41.02-.62.02"/>
    <path class="c" d="M223.6,67.74c-.21,0-.4,0-.62.04-.33.06-.72.17-1.05.13"/>
    <path class="c" d="M223.52,66.37c-.24.08-.47.16-.73.17-.18,0-.37,0-.56,0"/>
    <path class="c" d="M223.9,64.58c-.08,0-.16.07-.24.1-.06.03-.11.03-.18.04-.56.07-1.11.16-1.68.08"/>
    <path class="c" d="M224.29,63.17c-.38.18-.8.3-1.2.41-.11.03-1.12.34-1.11.1"/>
    <path class="c" d="M225.36,61.28c-.01.09-.29.16-.31.17-.33.1-.68.13-1.02.17-.39.04-.77.04-1.16.04-.12,0-.22,0-.32-.05-.09-.05-.19-.1-.29-.14-.06-.02-.13-.03-.2-.04-.09-.02-.16-.02-.25-.02-.06,0-.16-.02-.21,0-.1.06-.03.13-.18.12"/>
    <path class="c" d="M226.3,59.92c-.1,0-.21.16-.28.22-.18.17-.46.19-.69.21-.43.05-.89.07-1.32,0-.38-.06-.75-.17-1.13-.28-.32-.09-.63-.17-.95-.24-.27-.06-.52-.07-.79-.1l-.02-.03"/>
    <path class="c" d="M226.64,58.89c-.06.02-.1.06-.16.08-.15.05-.32.06-.47.08-.47.05-.96.05-1.43.02-.95-.04-1.88-.25-2.82-.34-.14-.01-.31.02-.42-.06"/>
    <path class="c" d="M227.75,57.52s.08,0,.1.04c-.02.09-.16.12-.23.14-.29.11-.6.1-.91.11-.98,0-1.95-.25-2.91-.42-.29-.05-.58-.11-.86-.21-.14-.06-.3-.08-.45-.11-.33-.07-.65-.15-.98-.19"/>
    <path class="c" d="M228.99,56.54c-.2,0-.41.01-.61,0-1.02-.01-2.01-.39-3.03-.49s-2.02-.07-3.03-.11h-.34c-.08-.01-.15-.01-.23,0-.03,0-.06-.03-.08-.03-.23-.08-.5-.15-.7-.29-.16-.11-.37-.13-.57-.17-.42-.09-.85-.37-1.29-.36"/>
    <path class="c" d="M225.83,54.91c-.19.04-.36.05-.56.03-.55-.06-1.11-.17-1.65-.27-.73-.13-1.48-.23-2.21-.4-.11-.02-.22-.04-.33-.07-.22-.05-.39-.11-.58-.21-.21-.11-.5-.16-.74-.15"/>
    <path class="c" d="M224.5,53.24c-.09.03-.11.04-.24.04-.37.02-.76,0-1.13,0-.41,0-.82.03-1.23-.03-.34-.05-.63-.19-.95-.29-.23-.07-.49-.08-.72-.16-.07-.02-.14-.07-.21-.08v-.03"/>
    <path class="c" d="M222.79,51.45c-.14,0-.28.01-.42,0-.25,0-.49-.1-.72-.17-.69-.2-1.38-.41-2.06-.65v-.04"/>
    <path class="c" d="M221.04,48.88v.03c-.09,0-.11.05-.2.05-.4-.01-.84-.2-1.21-.34"/>
    <path class="c" d="M220.91,47.38c-.05-.06-.11-.03-.17-.05-.12-.03-.23-.11-.34-.16-.14-.06-.25-.15-.38-.22"/>
    <path class="c" d="M220.91,45.33c-.11-.02-.23-.1-.32-.15-.3-.15-.61-.27-.92-.4"/>
    <path class="c" d="M261.68,53.57c-.34.05-.65.26-1,.2.11-.56.67-.95.8-1.4.35-.15-.72-1.43-.4-1.6"/>
    <path class="c" d="M260.36,50.08c.18-.03.35-.06.54-.06"/>
    <path class="c" d="M260.18,49.42c.15-.08.28-.06.45-.06.45,0,.92-.11,1.37-.05l-.02.05"/>
    <path class="c" d="M260.36,48.34c.04-.16,1.37-.24,1.21-.22.62-.08,1.23-.2,1.85-.26"/>
    <path class="c" d="M260.66,46.54h2.64"/>
    <path class="c" d="M260.78,44.62c.06.09.18.13.28.17.33.11.68.13,1.02.16.77.07,1.53,0,2.29-.03"/>
    <path class="c" d="M261.08,42.22c-.02.25.57.41.71.47.78.31,1.59.71,2.45.67l.02-.05"/>
    <path class="c" d="M262.46,40.78c.44.08.89.14,1.33.2.36.05.71.1,1.07.12.09-.02.17,0,.24.04"/>
    <path class="c" d="M264.44,42.58c.4,0,.8.07,1.21.06.47-.02.93-.06,1.39-.06.31,0,.63-.02.94.06"/>
    <path class="c" d="M266.54,41.38c.78.13,1.55.19,2.34.18"/>
    <path class="c" d="M274.21,43.06h2.94"/>
    <path class="c" d="M273.37,41.62c.49.06,1.02-.08,1.49-.17.6-.12,1.2-.26,1.81-.36"/>
    <path class="c" d="M276.85,40.18c-.41.02-.82.06-1.23.06-.59,0-1.18,0-1.77,0"/>
    <path class="c" d="M173.36,58.98c-.29.28-.74.49-1.07.73-.25.17-.48.37-.71.58s-.64.33-.84.55c-.11.12-.31.45-.26.62"/>
    <path class="c" d="M173.46,60.41s-.07.03-.07.08l-.19.18c-.26.23-.6.36-.87.58-.23.18-.44.36-.7.52-.28.18-.6.18-.85.39-.07.06-.22.2-.22.29"/>
    <path class="c" d="M173.24,61.81c-.2.1-.39.21-.58.32-.21.13-.44.23-.65.36-.23.14-.4.35-.63.48-.15.09-.31.21-.43.32-.06.06-.11.12-.18.16-.05.03-.12.1-.17.12"/>
    <path class="c" d="M172.38,63.27c0,.15-.3.29-.4.37-.22.16-.42.32-.61.51-.16.17-.33.33-.5.49-.05.05-.13.2-.21.21"/>
    <path class="c" d="M172.19,64.9c-.14.02-.3.22-.41.3-.24.16-.47.32-.69.5-.05.04-.15.09-.16.16"/>
    <path class="c" d="M172.19,66.21c-.02.08-.11.15-.16.2-.23.22-.51.4-.74.61"/>
    <path class="c" d="M171.6,67.98c.01.07-.03.13-.05.19-.08.17-.17.33-.26.49"/>
    <path class="c" d="M202.11,139.06c.21,0,.54.06.74,0,.17-.05.35-.2.51-.28.39-.19.81-.33,1.23-.49.79-.29,1.56-.67,2.29-1.12.99-.61,1.6-1.63,2.53-2.3,1.63-1.18,3.13-2.51,4.66-3.83.45-.39.88-.73,1.31-1.14.34-.33.74-.73,1.13-.99.29-.19.68-.18,1.03-.27.26-.07.44-.31.7-.32l.03-.12"/>
    <path class="c" d="M212.97,133.05c-.71,1.16-1.8,2.16-2.2,3.48-.35,1.15-1.03,2.09-1.51,3.18-.23.52-.55.89-.94,1.3-.23.24-.44.59-.77.7"/>
    <path class="c" d="M188.46,132.61l.03-.12c.35-.03.69-.47.93-.69.26-.24.55-.44.8-.68.54-.51,1.02-1.03,1.46-1.63.5-.69.81-1.41,1.22-2.16.48-.86.93-1.74,1.4-2.61.34-.62.69-1.2.98-1.85s.48-1.27.7-1.93c.68-2.05,1.34-4.19,2.28-6.14.45-.93.67-1.92,1.2-2.82.22-.37.33-.67.46-1.09"/>
    <path class="c" d="M179.37,129.23c.25.07.78-.64.84-.71.39-.45.7-.94.97-1.47s.58-1.05.86-1.58c.3-.56.49-1.1.59-1.74.18-1.13.37-2.26.65-3.37s.61-2.08.99-3.1c.2-.54.3-1.1.52-1.64.24-.59.28-1.12.43-1.72.14-.56.28-1.12.46-1.68.08-.24.18-.48.14-.74"/>
    <path class="c" d="M162.41,124.49c.1-.54.54-.52.77-.94.2-.38.05-.79.07-1.2.07-1.16.45-2.17.44-3.38-.02-2.8.27-5.71-.32-8.41-.14-.66-.31-1.42-.43-2.07s.06-1.32-.07-1.92c-.09-.37-.35-.44-.46-.81-.17-.55-.22-1.16-.43-1.74-.71-2-1.49-4.24-2.12-6.38"/>
    <path class="c" d="M113.51,83.19c.04-.36.36-.77.5-1.09.18-.41.31-.83.5-1.25.05-.1.06-.25.11-.34.09-.17.25-.27.34-.45.22-.46.32-1,.48-1.49.09-.28.17-.55.27-.82.06-.16.06-.3.11-.46.05-.18.19-.36.28-.53s.29-.35.3-.55"/>
    <path class="c" d="M113.71,87.38c.02-.35.3-.68.4-.99.05-.15.07-.33.12-.49.04-.1.06-.19.09-.32.15-.63.38-1.22.58-1.84s.38-1.19.59-1.79c.1-.29.29-.56.41-.85.16-.4.34-.76.54-1.14.23-.43.28-.88.56-1.26"/>
    <path class="c" d="M114.01,89.47c.16-.16.22-.4.29-.6.15-.4.31-.78.49-1.17.1-.22.17-.49.22-.73.05-.25.01-.49.11-.75s.17-.5.26-.76.15-.34.31-.56c.14-.18.19-.4.31-.59.3-.45.48-.91.68-1.41.14-.36.26-.68.42-1.02"/>
    <path class="c" d="M114.8,91.67c-.03-.14.1-.38.14-.51.24-.73.44-1.47.75-2.18.08-.18.08-.33.12-.51.04-.15.12-.25.19-.39.17-.33.24-.72.4-1.06.2-.42.34-.85.54-1.27.13-.28.28-.58.4-.85.09-.2.16-.45.35-.6"/>
    <path class="c" d="M115.4,93.66c.15-.04.12-.14.19-.31.13-.32.34-.61.49-.92.21-.43.41-.87.62-1.3.27-.53.51-1.07.7-1.62.17-.48.31-.99.45-1.5.11-.41.44-.75.75-1.04"/>
    <path class="c" d="M116.2,95.95c0-.64.1-1.18.3-1.79.17-.53.41-.99.64-1.51.32-.74.69-1.5,1.06-2.23.18-.36.36-.74.62-1.05.24-.29.59-.46.88-.7"/>
    <path class="c" d="M116.9,97.45c.21-.04.38-.62.4-.8.04-.29.1-.59.09-.89,0-.59.05-1.1.3-1.65.15-.34.28-.7.44-1.04.04-.09.11-.17.15-.26.06-.12.04-.26.11-.38.12-.2.3-.4.44-.61.12-.18.28-.32.41-.49.17-.22.29-.55.55-.67"/>
    <path class="c" d="M117.4,98.65c.17-.04.29-.25.35-.4.17-.37.44-.73.59-1.11.18-.45.2-.95.36-1.41.18-.53.33-1.01.6-1.51.14-.26.25-.52.42-.76.12-.17.48-.47.48-.7"/>
    <path class="c" d="M118.99,99.94c0-.16-.03-.34.02-.49.07-.27.28-.52.38-.79.23-.61.37-1.26.65-1.85.22-.46.27-1.02.5-1.46.11-.21.3-.39.41-.61.1-.2.21-.63.45-.69"/>
    <path class="c" d="M120.29,101.34c.03-.26.25-.55.36-.8.23-.56.37-1.16.61-1.71s.45-1.15.73-1.67"/>
    <path class="c" d="M121.68,101.94c.2-.23.26-.52.47-.72.16-.15.31-.3.4-.49.08-.18.14-.36.25-.52.23-.36.43-.75.67-1.09.28-.39.71-.76.8-1.25"/>
    <path class="c" d="M123.18,102.74c.09-.67.33-1.3.56-1.93.09-.26.2-.52.32-.77.08-.18.16-.35.25-.53.1-.1.29-.08.27-.27"/>
    <path class="c" d="M125.67,104.83c.26-.58.3-1.36.38-2.01.04-.36.07-.72.12-1.08.04-.31-.4-1.29-.39-1.6-.53.59-.66,1.48-.9,2.2-.14.44-.27.9-.46,1.31-.09.2-.28.38-.34.57"/>
    <path class="c" d="M128.07,101.54c-.23.54-.48,1.08-.7,1.63-.2.5-.31,1.04-.5,1.54-.05.12-.12.18-.09.32.06.02.92.41.98.38.02-.22.12-.28.19-.48.08-.21.08-.43.17-.65.25-.62.48-1.24.75-1.85"/>
    <path class="c" d="M128.86,106.23l.08-.02c.05-.36.15-.71.23-1.08.04-.2.1-.39.17-.56.06-.15.16-.3.21-.44"/>
    <path class="c" d="M130.26,106.33c.15-.06.17-.16.29-.31.16-.2.32-.36.42-.59.05-.12.23-.35.19-.49"/>
    <path class="c" d="M131.56,107.02c.14-.15.52-.92.8-.9"/>
    <path class="c" d="M133.05,107.42c.21.06.72-.42.7-.6"/>
    <path class="c" d="M134.65,108.22c.21.06.64-.31.8-.4.1,0,.7.9.8.9"/>
    <path class="c" d="M208.37,144.23c.15.2.52.33.75.42.21.08.41.1.61.18.11.04.22.11.32.14.18.04.41-.02.6-.01.26.02.5.1.76.12.77.03,1.65.09,2.4-.03.52-.08,1.03-.18,1.56-.18.24,0,.31-.02.55-.11.22-.08.41-.04.61-.1.11-.03.2-.07.3-.11.17-.05.3-.09.44-.18.17-.1.32-.29.49-.36.11,0,.23.02.34.04.34.05.69.07,1.03.08"/>
    <path class="c" d="M208.79,145.7l.02.08c.2.03.33.14.5.23.21.11.48.18.72.21.51.06,1.06,0,1.58,0,1.07,0,2.15,0,3.22,0,.7,0,1.51-.06,2.17-.31.18-.07.29-.2.47-.27s.38-.06.57-.1c.35-.07.68-.04,1.03-.06.57-.03,1.12-.21,1.69-.21s1.15,0,1.73,0"/>
    <path class="c" d="M210.99,147.27c-.03.13.36.31.46.37.34.2.66.26,1.05.32.41.06.68.05,1.05-.05.29-.07.59-.08.88-.14.4-.07.8-.2,1.2-.27,1.19-.2,2.39-.05,3.57-.31.51-.11,1.03-.23,1.56-.24.36,0,.74.05,1.1,0,.41-.06.7-.1,1.15-.1"/>
    <path class="c" d="M223.44,148.63c-.65,0-1.31,0-1.96,0-.56,0-1.09-.11-1.64-.11-.43,0-.91-.06-1.34.02-.45.08-.87.23-1.33.28-.27.03-.54.02-.81.02-.34,0-.65-.02-.97.08-.27.09-.56.11-.84.13-.45.04-.87.11-1.33.11-.34,0-.81.03-1.08-.21.37.03.59,1.17.95,1.26.31.08.62.05.93.12.08.02.14.07.26.08s.25,0,.37,0c.64,0,1.24-.08,1.87-.21.8-.17,1.63-.3,2.45-.32.64-.01,1.26.11,1.91.12.46,0,.91,0,1.37,0,.65,0,1.39-.11,2.01.1.54.18,1.26.22,1.69.21"/>
    <path class="c" d="M213.71,151.56c.28.12.5.2.81.21.27,0,.56-.04.84-.01.51.05,1.03.23,1.55.22.16,0,.2-.07.32-.1.15-.04.24.01.36.04.41.11.94.07,1.39.05.51-.01,1.02-.21,1.54-.21.26,0,.48-.09.73-.11.21-.02.43,0,.63,0,1.48,0,2.92.3,4.39.31"/>
    <path class="c" d="M214.23,152.92c-.03.3.42.32.6.34.43.06,1.05.18,1.48.08.09-.02.23-.12.32-.12.14,0,.28.11.43.12.57.04,1.16,0,1.73,0,.35,0,.65.09,1,.11.57.04,1.18.18,1.76.1.41-.06.78-.11,1.2-.11.38,0,.77,0,1.15,0,.31,0,.59-.1.9-.11.19,0,.42.05.61-.01v-.09"/>
    <path class="c" d="M214.12,154.59c1.08,0,2.11.34,3.18.42.47.04.95,0,1.42,0,.43,0,.8-.1,1.22-.1.39,0,.74-.14,1.12-.2s.78,0,1.15,0h1.94"/>
    <path class="c" d="M214.96,155.95c.18-.03.38.05.55.1.42.11.78.19,1.21.22s.87.19,1.27.08c.46-.12.93-.05,1.41-.08.26-.01.43-.13.69-.08.7.13,1.43.19,2.15.19.24,0,.45-.01.67-.03.16-.01.14-.05.35,0,.81.18,1.64.13,2.47.14"/>
    <path class="c" d="M222.91,157.84c-.49,0-.96-.1-1.45-.11-.2,0-.36,0-.54-.05-.08-.02-.14-.06-.24-.06-.2,0-.38.11-.59.11-.15,0-.31,0-.47,0-1.24,0-2.47.1-3.71.1.69,0,1.57,1.05,2.26,1.05.38,0,.93.11,1.29,0,.16-.04.18-.1.37-.11.45-.02.87-.02,1.28.11.52.16,1.16.22,1.7.21"/>
    <path class="c" d="M216.01,159.82c.32.06.63.2.96.26.38.08.77.05,1.16.05.31,0,.62-.03.93,0,.13,0,.2.05.32.08.27.07.56.02.84.02.15,0,.32.02.47,0,.13-.03.21-.09.36-.1.28-.02.57,0,.85,0,.48,0,.95,0,1.43,0,.27,0,.55.01.82,0,.36,0,.99.01,1.29-.21"/>
    <path class="c" d="M215.8,161.18c.98,0,1.92.2,2.9.21.22,0,.26-.06.44-.11.28-.08.67.07.93.1.75.08,1.59.05,2.34.01.32-.02.62-.11.94-.11.3,0,.64.15.92.1"/>
    <path class="c" d="M216.74,162.65c.61.1,1.23.25,1.84.37s1.02.16,1.62.16c.55,0,1.07.11,1.61.11.77,0,1.54,0,2.31,0,1.28,0,2.54-.19,3.81-.36,2.12-.3,4.24-.46,6.38-.47"/>
    <path class="c" d="M217.16,164.01c.14.01.28.11.41.16.34.11.7.13,1.05.16.49.04.97.11,1.47.1.77,0,1.54,0,2.31,0,.66,0,1.31.09,1.96.11.49.01,1-.05,1.48.02.7.1,1.39.08,2.09.08.17,0,.36.02.53,0,.18-.02.33-.13.52-.11"/>
    <path class="c" d="M222.39,161.81c.78,0,1.57,0,2.35,0,.45,0,.87-.05,1.3-.1.72-.09,1.38-.31,2.1-.31"/>
    <path class="c" d="M216.95,165.16h2.26c.26,0,.62-.06.88,0,.23.05.46.1.69.16.3.08.52.29.84.35.58.1,1.29.02,1.86-.07.82-.13,1.73-.03,2.56-.02.34,0,.64-.09.96-.11s.65,0,.96,0c.62,0,1.14.11,1.76.1.23,0,.52.05.74,0,.26-.06.45-.11.73-.11"/>
    <path class="c" d="M232.02,166.73c-.9,0-1.78.11-2.68.1-.38,0-.7.11-1.09.1-.52,0-1.04.01-1.56,0-.38,0-.74-.1-1.12-.11-.44-.02-.89,0-1.34,0-.38,0-.74-.11-1.11-.11-.31,0-.61,0-.92,0h-1.7c-.36,0-.74.02-1.1,0-.92-.04-1.85-.26-2.77-.32.31.08,1.2,1.12,1.52,1.16.27.03.51.16.78.19.31.04.64-.05.94.03.23.06.39.08.65.08.4,0,.77.11,1.18.11.46,0,.92,0,1.38,0,.62,0,1.24,0,1.85,0,.29,0,.55.08.84.11,1.11.09,2.23.06,3.34.11.29.02.56.09.85.1.18,0,.37-.01.55,0,.19,0,.33.1.53.11.35.03.71,0,1.07,0"/>
    <path class="c" d="M231.6,169.55c0,.23-.26.02-.36,0-.2-.04-.46,0-.67,0-.43,0-.89.05-1.31-.02-.38-.07-.75-.12-1.13-.16-.69-.08-1.42-.02-2.12-.02-.35,0-.69,0-1.04,0-.2,0-.34-.09-.54-.11-.29-.03-.57-.02-.86-.08-.38-.07-.77-.16-1.16-.21-.66-.1-1.33-.23-2.01-.23-1.04,0-2.09,0-3.13,0,.2.13.64,1.04.86,1.06s.44.08.67.1c.28.01.54,0,.82.05.37.07.73.05,1.1.05,1.2,0,2.37.32,3.57.31.36,0,.79-.06,1.14.02s.73.12,1.11.16c.5.05,1.01.12,1.5.13.84.03,1.7,0,2.54,0,.17,0,.38-.04.54,0,.07.02.14.07.19.09.16.05.55.11.61-.08"/>
    <path class="c" d="M217.47,170.81c.29.05.56.17.87.21.46.05.94.06,1.38.2.2.06.34.12.55.12s.32.06.5.09c.39.08.87.01,1.27,0,.08,0,.18-.02.25,0,.05.01.07.08.1.09.34.08.71,0,1.05.08.26.05.5.01.75.05.17.02.31.1.49.11.26.02.53,0,.79,0h6.22c-.18-.02-.84,1.14-1.02,1.16-.2.02-.43,0-.64,0-.28,0-.57,0-.85,0-.61,0-1.22.02-1.83,0-.75-.02-1.46-.17-2.19-.31-.2-.04-.42,0-.62,0-.49-.02-1.02-.06-1.5-.14s-.93-.07-1.39-.16c-.23-.05-.46.02-.69-.05-.1-.03-.2-.13-.3-.16-.48-.14-1.13-.02-1.62-.02s-.98,0-1.47,0c.77,0,1.15,1.1,1.91,1.28.28.07.52.08.82.08.26,0,.48.08.73.11,1.17.12,2.35-.1,3.51.12.47.09.94.1,1.42.16.09.01.23,0,.31.02s.1.09.19.11c.28.08.64-.06.94.02.17.04.3.06.48.08.19.02.33.1.52.11.17,0,.35,0,.52,0,.23,0,.46.01.68,0,.25-.01.37-.11.62-.11"/>
    <path class="c" d="M217.68,174.05c.14.25.74.21.98.31.41.16.75.2,1.19.26.57.08,1.13.21,1.7.27.7.07,1.39.2,2.09.29.13.02.3,0,.42.02.11.02.19.09.31.12.18.04.38-.02.57.01.34.06.63.19.98.2.71.02,1.43,0,2.15,0h1.28c.2,0,.46.04.66-.02l.02-.09"/>
    <path class="c" d="M217.37,175.2c.25,0,.45.02.71.07.59.12,1.32.14,1.86.4s1.14.3,1.75.4c1.24.2,2.41.47,3.67.6.49.05.99.2,1.48.21.39.01.78,0,1.18,0,.41,0,.82,0,1.24,0,.18,0,.48.06.67,0,.13-.03.17-.15.32-.11"/>
    <path class="c" d="M218.94,176.88c.09.05.18.09.28.11.03,0,.37,0,.24,0"/>
    <path class="c" d="M218.21,178.13c.55.18,1.13.27,1.7.37.43.07.91.07,1.32.18.12.03.18.08.34.08.2,0,.4,0,.59.02.83.14,1.72.02,2.52.28.27.09.59.05.86.12.16.04.25.1.42.11.2,0,.31-.07.49-.11.25-.06.6,0,.85,0,.35,0,.81.07,1.15,0,.09-.02.23-.12.31-.12.14,0,1.18-.46,1.36-.51-.72-.2-1.45-.17-2.18-.31-.33-.06-.63-.18-.96-.21-.41-.04-.8-.11-1.21-.1-.78,0-1.52-.09-2.28-.26-.2-.05-.31-.04-.53-.05-.42,0-.78-.13-1.18-.19-.18-.03-.35,0-.52-.04-.11-.02-.18-.07-.33-.08-.2,0-.27-.05-.49-.13-.48-.16-.97-.19-1.46-.29-.44-.1-.85-.34-1.3-.42"/>
    <path class="c" d="M217.26,182.95c.54,0,1.04.02,1.55.13.05,0,.11.07.17.09.11.02.24-.04.36,0,.22.05.29.11.55.11.51,0,1.02.17,1.54.22.28.02.58-.01.86,0,.26,0,.48.1.73.11s.44.03.68.08c.14.03.31-.01.45.02.09.02.11.08.19.1.4.11,1,0,1.41,0,.97,0,1.11-1.05,2.08-1.05-.67,0-1.31.21-2,.21-.35,0-.7.03-1.03-.05-.35-.09-.72-.17-1.05-.25-.29-.08-.62.03-.93-.03-.19-.04-.32-.08-.52-.08-.84.01-1.65-.18-2.48-.22-.32-.01-.6.04-.9-.07-.11-.04-.19-.1-.29-.13-.07-.02-.16,0-.23-.01-.14-.03-.26-.14-.4-.17-.19-.04.07-.87-.1-.96.22.04.36.11.6.11.15,0,.34-.03.49,0,.07.02.06.07.13.09.12.04.28,0,.41,0,.18,0,.3.08.47.11.13.03.29-.02.43-.01.29.02.55.1.84.11.18,0,.29.08.45.11.15.03.35,0,.5,0,.43,0,.81,0,1.22.08.34.07.69-.04,1.02.02.2.03.34.1.56.11.64.02,1.25.11,1.89.1.41,0,.94-1.31,1.36-1.26-.31,0-.53.11-.84.1s-.65,0-.97,0c-.34,0-.68-.05-1.01-.1-.41-.07-.74-.1-1.16-.11-.56,0-1.1-.11-1.66-.11-.32,0-.65.03-.96,0-.22-.01-.41-.1-.62-.11-.14,0-.28.02-.42,0-.15-.02-.17-.07-.31-.11-.07,0-.14.01-.2.02-.28-.03-.55-.11-.81-.21-.49-.17-.99-.44-1.5-.53"/>
    <path class="c" d="M226.99,185.04c-.16,0-.37-.04-.53,0-.11.02-.2.09-.31.12-.34.06-.78,0-1.13,0-.66,0-1.39.07-2.05-.05-.72-.14-1.44-.15-2.17-.29-.28-.05-.53-.15-.81-.2-.54-.09-1.07-.19-1.61-.28-.2-.03-.5-.16-.72-.13.14.19.56,1.25.78,1.31.33.08.66.14,1,.21.25.05.5.09.74.15.15.03.13.09.32.11.22.03.46-.01.68,0,.23,0,.45.11.66.16.35.08.79.1,1.16.16.46.07.92.17,1.39.24.75.11,1.51.08,2.27.08"/>
    <path class="c" d="M217.79,186.71c.52-.01,1.05.18,1.54.29.29.07.56.09.86.12.22.03.42.1.64.11.11,0,.19,0,.3.02.41.09.84.04,1.26.13.81.17,1.63.54,2.46.58.23.01.45,0,.68,0,.09,0,.23.03.32,0,.13-.03.15-.16.31-.11"/>
    <path class="c" d="M280.12,126.92c-1-.34-1.33-.82-2.52-.84-1.05-.01-2.1,0-3.15,0-1.9,0-3.08.82-4.8,1.25-1.06.26-2.02.43-2.95.85-.86.39-2.04.7-2.96.86-.58.1-1.09-.08-1.68.07-.47.12-.76.27-1.26.33-.58.06-.92.23-1.47.38-.38.1-.96.37-1.29.42-2.27.39-4.51.45-6.89.45-.98,0-1.96,0-2.94,0-.49,0-.99-.02-1.47,0-.58.02-.82.28-1.29.39s-.89,0-1.34.13c-.23.07-.71.42-.93.53-.78.41-1.36.93-2.1,1.47-1.59,1.15-3.44,1.96-5.13,2.85-.88.46-1.93.72-2.81,1.13-1.94.92-4.22,1.01-6.27,1.65-.7.22-1.26.14-1.95.28-.64.13-.98.37-1.68.39-.97.03-3.31.41-3.99-.42"/>
    <path class="c" d="M280.06,131.71c-.08.41-.81.65-1.12.85-.28.19-.51.42-.78.63-.61.48-1.43.73-2.15,1-.54.21-1.04.45-1.53.73-.42.24-.84.3-1.31.46-.63.21-1.28.37-1.91.6-.42.15-.97.23-1.34.46"/>
    <path class="c" d="M280.98,132.12c-.2.14-.38.33-.55.51s-.37.26-.54.42c-.03.03-.07.08-.1.1-.05.03-.12.03-.17.07s-.07.1-.11.15c-.05.05-.14.1-.2.14-.21.16-.42.36-.63.49-.29.16-.6.37-.91.51-.22.1-.46.17-.68.28-.17.08-.35.17-.53.25-.16.07-.33.1-.49.14-.32.09-.57.31-.85.45"/>
    <path class="c" d="M280.98,133.51c-.24.18-.5.29-.76.44-.16.09-.3.23-.45.34-.11.08-.2.17-.33.23-.08.04-.17.06-.25.1-.1.05-.17.13-.26.18-.28.17-.54.41-.86.55-.29.12-.59.19-.87.33-.13.07-.25.2-.41.22"/>
    <path class="c" d="M281.31,134.44c-.23.3-.51.57-.85.74-.28.14-.63.24-.89.41-.09.06-.2.25-.32.24"/>
    <path class="c" d="M281.44,135.97c-.02.09-.13.11-.2.16-.12.08-.22.19-.34.27-.15.11-.28.31-.46.36"/>
    <path class="c" d="M280.05,129.99c-.02.11-.18.22-.26.28-.14.11-.29.21-.43.32-.1.08-.17.18-.26.25-.03.02-.1.03-.13.06-.08.05-.07.09-.13.15-.14.15-.36.25-.52.38-.22.18-.41.41-.66.56-.17.1-.4.16-.59.25-.14.06-.28.13-.41.2"/>
  </g>
</svg>