<?xml version="1.0" encoding="UTF-8"?>
<svg id="a" data-name="Layer 1" xmlns="http://www.w3.org/2000/svg" width="612" height="792" viewBox="0 0 612 792">
  <defs>
    <style>
      .b {
        fill: none;
        stroke: #484848;
        stroke-linecap: round;
        stroke-linejoin: round;
        stroke-width: 1.5px;
      }
    </style>
  </defs>
  <g>
    <path class="b" d="M308.86,236.26c3.66-.43,7.32-.17,10.98.03,1.21.07,2.39.12,3.6-.01,1.19-.14,2.36-.23,3.61.09,1.67.43,3.46,0,5.2.01,6.55.02,13.09.01,19.62.58,6.35.55,12.72.53,19.08.72,3.18.1,6.37.02,9.54.23,1.64.11,3.27.6,4.86,1.05,2.61.75,5.28.69,7.92.66,4.96-.05,9.85.73,14.76,1.17,3.5.32,7,.98,10.46,1.4,5,.6,10.01,1.47,15.1,1.47,3.24,0,6.38.88,9.55,1.54,2.84.59,5.76.83,8.63,1.31,2.47.41,4.92.96,7.38,1.42.41.08.84.02,1.26,0,3.53-.1,6.98.29,10.45,1.02,3.3.69,6.76.78,10.04,1.43,4.49.9,9.1,1,13.53,2.19,1.2.32,2.53.25,3.77.32,6.08.37,10.68,3.6,14.89,7.5,1.34,1.25,2.02,3.2,2.82,4.86,1.2,2.49,2.87,4.67,4.13,7.12,2.64,5.13,4.4,10.52,5.92,16.04.68,2.48,1.97,4.78,2.82,7.22,2.23,6.39,4.98,12.59,7.28,18.94,1.79,4.94,3.25,10.04,4.9,15.04,1.94,5.83,3.5,11.79,5.78,17.52,1.35,3.4,2.26,7.06,4.11,10.18,2.29,3.87,3.62,8.1,5.43,12.14,1.28,2.86,1.85,6.02,2.98,8.96,1.04,2.7,1.56,5.52,2.05,8.31.65,3.68,2.28,7.08,2.8,10.78.19,1.34,1.32,2.39,1.5,3.78"/>
    <path class="b" d="M126.88,263.08c-1.02,1.62-2.11,3.2-3.04,4.87-1.47,2.62-2.18,5.41-2.71,8.42-.61,3.44-.37,6.9-1.07,10.29-.86,4.15-.22,8.3.37,12.41.59,4.13,1.21,8.24,1.5,12.42.28,4.05,1.26,8.04,1.89,12.07.52,3.29.83,6.63,1.48,9.89.79,3.94.78,7.98,1.64,11.87.81,3.65,1.56,7.3,2.08,11,.53,3.76.71,7.58,1.33,11.33.67,4.03,1.24,8.12,3.01,11.89.93,1.99.92,4.21,1.45,6.3.84,3.29,1.28,6.65,2.23,9.93.68,2.37,1.26,4.85,1.53,7.35.04.41.1.77.37,1.08"/>
    <path class="b" d="M501.46,261.1c.35,1.36,1.42,2.07,2.52,2.69,3.58,2.01,6.44,4.8,8.79,8.13.35.5.63,1.08.8,1.77.59,2.46,2.57,4.39,3.26,6.7,1.4,4.69,4.56,8.41,6.33,12.89,1.13,2.86,1.86,5.78,2.78,8.68,1.18,3.73,2.36,7.45,3.61,11.16.95,2.82,1.1,5.81,1.95,8.65,1.68,5.56,3.22,11.16,4.89,16.73,1.3,4.34,2.19,8.79,3.45,13.13,1.33,4.56,3.17,8.94,4.97,13.34,2.5,6.1,5.45,12.03,7.39,18.35.7,2.29.84,4.68.17,7.01-.42,1.46-1.68,2.3-3.05,2.67-2.52.67-5.13,1.07-7.73.73-3.96-.52-7.98-.5-11.88-1.43-2.74-.65-5.57-.57-8.3-1.38-2.52-.75-5.14-1.17-7.73-1.65-1.54-.28-3.12-.34-4.68-.57-1.76-.25-3.48-.39-4.53-2.31-2.72-4.97-6.39-9.23-10.8-12.75-2.41-1.92-5.04-3.6-7.87-4.92-1.84-.86-3.62-1.88-5.4-2.87-1.8-1-3.57-1.78-5.76-1.81-1.45-.02-2.95-.69-4.49-.93-4.26-.67-8.62-1.39-12.76-.21-5.55,1.58-11.4,2.45-16.42,5.65-.99.63-1.75,1.51-2.7,2.16-1.49,1.03-2.66,2.5-4.48,3.12-.63.21-.75,1.09-.91,1.76"/>
    <path class="b" d="M176.02,313.84c-3.35-.41-4.49,2.37-6.09,4.34-2.02,2.5-2.36,5.47-2.05,8.62.2,1.96.01,3.96.04,5.94.05,3.84,1.27,7.43,2.98,10.75.86,1.68,2.66,2.97,4.25,4.15,1.75,1.3,3.85.62,5.92-1.39,1.75-1.7,2.29-3.95,2.61-6.14.36-2.43,1.1-4.84.81-7.37-.35-3.02-1.1-5.99-1.4-9-.34-3.53-1.92-6.28-4.4-8.61-.62-.59-1.54-.86-2.32-1.28"/>
    <path class="b" d="M133.36,299.08c-.6,3.04.76,5.71,1.63,8.46,1.71,5.41,3.87,10.72,5.09,16.23,1.03,4.65,2.24,9.22,3.94,13.64,2.25,5.88,4.73,11.67,7.19,17.46.45,1.07.7,2.15.85,3.25.41,2.99,1.53,5.74,2.74,8.45,2.45,5.5,3.95,11.33,6.07,16.94.99,2.62,1.6,5.39,2.38,8.09"/>
    <path class="b" d="M268.18,243.28c.71,5.47,2.61,10.66,3.86,16,.78,3.3,1.5,6.62,2.22,9.93.8,3.63,2.12,7.11,2.76,10.79.74,4.28,1.85,8.48,2.54,12.78.65,4.11,1.5,8.2,2.52,12.24,1.09,4.34,1.93,8.7,2.53,13.14.73,5.42,1.52,10.84,2.61,16.21.41,1.99.75,4.05.57,6.11-.13,1.51.47,2.89.78,4.31.32,1.45.28,2.88.31,4.33.05,2.62.38,5.19,1.04,7.75.37,1.44.37,2.99.39,4.49.04,3.14.23,6.26.72,9.36.09.58-.1,1.2-.16,1.8"/>
    <path class="b" d="M565.36,399.43c1.59-.58,3.23.13,4.87-.22,1.17-.25,2.46.04,3.6-.74,1.36,1.66,2.62,3.27,3.96,4.82,1.53,1.77,3.36,3.04,5.75,3.46,1.14.2,1.95,1.18,3.45.76,3.07-.86,6.14-1.82,8.01-4.44,2.11-2.97,3.58-6.38,4.2-10.03.8-4.75-.29-9.1-2.85-13.15-.97-1.53-1.46-3.34-3.22-4.37-.89-.52-1.72-.98-2.73-1.22-3.12-.73-6.21.03-8.75,1.42-2.63,1.43-4.65,3.95-5.69,7.05-.98,2.91-2.32,5.69-2.49,8.83-.06,1.12-1.27,1.55-1.61,2.52"/>
    <path class="b" d="M131.2,292.24c-1.81,1.3-2.14,2.92-2.1,5.22.15,7.16,1.88,14.12,2.35,21.23.18,2.76.53,5.55,1.26,8.31.76,2.88.59,6,1.17,8.97.8,4.09,1.39,8.21,2.48,12.25.63,2.33.66,4.81,1.15,7.18.88,4.22,1.92,8.4,2.85,12.61,1.17,5.27,2.41,10.54,3.37,15.85.41,2.31.94,4.57,1.51,6.83.34,1.36,1.02,2.87,2.2,3.28.87.3,2.24.13,3.37-.04,4.65-.68,9.26-1.55,13.86-2.51,3.52-.73,7.07-1.81,10.62-1.88,4.64-.08,9.12-1.06,13.67-1.59,3.8-.44,7.55-1.37,11.35-1.71,4.42-.39,8.69-1.75,13.13-1.87.48-.01.97-.19,1.44-.35,2.41-.82,4.94-.32,7.38-.75,1.18-.21,2.3-.78,3.42-1.23,2.35-.93,4.9-1.25,7.2-2.33,3.24-1.53,6.87-2.04,10.05-3.66.94-.48,1.71-.09,2.56-.27,4.87-1,9.89.03,14.74-.82,4.07-.71,8.21-.68,12.26-1.49,2.4-.48,4.97-.05,7.36-.81,2.1-.67,4.1-.35,6.13.2.28.07.6.02.9,0,6.18-.12,12.39.1,18.53-.49,3.59-.34,7.21-.77,10.82-1.08,2.13-.18,4.33.09,6.47.33,2.66.29,5.28-.17,7.92-.21,2.76-.04,5.52-.12,8.28-.18,3.3-.06,6.6-.11,9.9-.22.19,0,.48-.16.72-.13,3.43.35,6.84.02,10.26-.1,2.76-.1,5.52-.35,8.27-.49,3.42-.18,6.86-.48,10.27-.58,3.52-.1,7.12-.72,10.65.53.92.33,2.13.49,3.21.42,3.77-.24,7.41.98,11.16.95,1.56-.01,3.12.39,4.68.49,1.55.1,3.03.04,4.54.84,1.47.78,3.32.3,5.01.54,3.2.46,6.33,1.35,9.53,1.65,3.73.35,7.4,1.3,11.16,1.27,1.33,0,2.39.65,3.38,1.18,2.88,1.53,6.02,1.2,9.04,1.74,3.23.57,6.51.71,9.74,1.36,1.67.33,3.47.33,5.21.4,3.17.13,6.27.61,9.36,1.28,1.42.31,2.88.48,4.32.74,1.06.19,2.02.49,2.93,1.2.48.38,1.3,1.01,2.11.41.79-.59.96-1.28.8-2.34-.19-1.21.02-2.55.32-3.76.58-2.32-.47-4.45-.69-6.66-.12-1.19-.03-2.19.3-3.25"/>
    <path class="b" d="M252.16,269.74c.11-4.05-.57-8.04-1.72-11.85-.74-2.44-2.55-4.55-4.96-5.76-2.2-1.1-4.42-.38-6.23.94-.93.67-1.77,1.94-2.12,3.02-.69,2.11-1.56,4.2-1.26,6.64.31,2.54.44,5.13,1.23,7.53,1.06,3.18,2.06,6.45,4.95,8.69,2.61,2.02,5.56,1.7,7.8-.71,2.28-2.45,2.4-5.31,2.3-8.32"/>
    <path class="b" d="M292.84,242.2c-.33,1.09-1.27,1.92-1.27,3.15,0,.64-.52.78-1.07.81-.73.04-1.45-.21-2.02.69-.66,1.03-1.44,1.96-1.39,3.27.05,1.49.22,2.8-1.77,3.51-1.47.53-2.2,3.41-1.44,4.93,1.9,3.76,1.72,8.03,3.14,11.92,1.09,3.02,1.77,6.22,2.67,9.31,1.81,6.23,2.97,12.58,4.26,18.92,1.39,6.8,2.15,13.69,3.12,20.54.44,3.13.64,6.34.87,9.52.35,4.96.47,9.95,2.03,14.79.76,2.37.92,5.02.91,7.53,0,2.11.88,3.94,1.18,5.94.2,1.33.04,2.65.18,3.96.07.69.04,1.47.7,1.98"/>
    <path class="b" d="M229.12,273.34c1.21,1.89,1.71,3.93,1.06,6.12-.51,1.73.05,3.4.26,5.04.66,5.12,1.57,10.22,2.46,15.31.84,4.81,1.81,9.6,2.67,14.41.17.94-.01,1.93.13,2.87.53,3.67,1.26,7.31,1.66,10.99.43,4.01,1.53,7.87,2.65,11.67,1.44,4.87,2.23,9.86,3.26,14.8.94,4.52,2.24,8.96,3.11,13.49.38,1.95.55,3.95.71,5.94.04.45.34.69.4,1.08"/>
    <path class="b" d="M216.52,322.84c1.25.51,1.09,1.78,1.21,2.71.64,4.63,2.3,8.97,3.61,13.41.86,2.93,1.72,5.87,2.21,8.9.21,1.28.4,2.61.92,3.77,1.32,2.94,1.65,6.1,2.38,9.18.95,4.01,1.92,8.05,3.49,11.91.9,2.21,1.47,4.55,2.19,6.83"/>
    <path class="b" d="M464.56,323.74c3.81-.4,5.62-2.9,6.47-6.3.93-3.78,1.8-7.58,1.44-11.52-.35-3.83-.76-7.56-2.38-11.22-1.2-2.72-3.3-3.58-5.55-4.18-2.62-.7-4.89.71-6.81,2.45-1.84,1.66-2.45,3.94-2.9,6.29-.83,4.27,0,8.43.72,12.6.52,3.01,1.41,5.82,3.01,8.49,1.4,2.34,3.28,3.23,5.82,3.2"/>
    <path class="b" d="M368.98,298.9c-1.06-1.01-1.1-1.86.2-2.85,2.04-1.54,3.63-3.51,5.14-5.48,1.39-1.82,1.7-4.25,2.38-6.44,1.02-3.26,5.41-6.64,8.65-6.13,1.98.31,4.04,1.01,5.72,2.08,1.88,1.19,3.86,1.27,5.81,1.28,1.77,0,3.5-.13,5.22.43,3.17,1.04,6.38,1.98,9.53,3.08,4.32,1.5,8.54,3.29,12.96,4.52,1.2.33,2.32,1,3.42,1.6,1,.55,1.99.7,3.21.26.26-1.83-.57-3.62-.73-5.49-.12-1.43-.02-2.54.89-3.82,2.34-3.3,5.73-5.59,8.17-8.77,1.09-1.43,2.86-2.15,3.95-3.61.33-.44.8-.37,1.26-.36,3.24.09,6.45.52,9.53,1.47,3.25,1,6.6,1.01,9.91,1.39,3.11.36,6.24.65,9.36.9,2.95.24,5.85.94,8.82.91,2.33-.02,4.43,1,6.65,1.5,3.34.75,6.74.84,10.09,1.37,4.29.69,8.64.62,12.96.93.85.06,1.69.13,2.52-.1"/>
    <path class="b" d="M522.52,302.5c1,1.74.47,3.62.31,5.4-.64,7.38-1.63,14.71-1.86,22.14-.12,3.95-.19,7.93-.38,11.89-.26,5.39.2,10.83-.33,16.19-.6,6.18-.41,12.39-1.26,18.56-.6,4.38-.44,8.87-.62,13.31"/>
    <path class="b" d="M218.68,383.86c-.76,1.85-2.72,2.01-4.17,2.62-5.15,2.18-10.14,4.7-15.25,6.96-3.04,1.34-6.15,2.29-9.36,3.08-4.11,1.01-8.24,1.51-12.42,2-3,.35-6,.73-9.01,1-4.72.42-9.34,1.6-14.05,2.11-4.91.53-9.71,1.64-14.58,2.38-.18.03-.45-.07-.53.01-1.69,1.96-4.23,1.38-6.32,2.14-1.51.55-3.08.79-4.68.91"/>
    <path class="b" d="M371.5,321.94c-.84,2.7-1.66,5.41-2.52,8.1-1.26,3.96-2.23,8.01-3.76,11.89-1.61,4.06-3.24,8.12-4.66,12.25-1.78,5.18-4.56,9.93-6.33,15.11-.14.41-.24.84-.36,1.26"/>
    <path class="b" d="M381.94,306.64c-1.28.62-1.34,1.96-1.8,3.06-1.04,2.53-1.34,5.32-2.69,7.74-.31.56-.39,1.27-.76,1.78-.5.7-1.27,1.4-2.12,1.22-.87-.19-.6-1.2-.77-1.91-.46-2-.36-4.06.15-5.92.36-1.29-.39-1.54-.69-2.28-1.59.42-2.27,1.59-2.63,2.8-.9,3.09-2.61,5.78-4.01,8.62-.43.86-.41,1.83-.72,2.7-1.01,2.85-2.55,5.48-3.25,8.46-.88,3.74-1.73,7.5-2.91,11.15-1.23,3.84-2.75,7.57-4.55,11.21-1.81,3.66-3.04,7.61-4.36,11.49-.46,1.36-1.72,2.43-1.48,4.04"/>
    <path class="b" d="M117.52,269.2c-1.12,2.53-2.89,4.72-3.8,7.37-.95,2.81-1.3,5.74-1.55,8.65-.26,2.98-.29,6.02,0,8.99.35,3.48.54,6.97.87,10.44.39,4.09.9,8.19,1.63,12.23.57,3.12,1.23,6.22,1.54,9.37.41,4.11,1.48,8.11,1.89,12.23.29,2.91,1.34,5.74,1.69,8.65.51,4.27,1.35,8.48,1.78,12.76.34,3.36.87,6.73,1.32,10.09.39,2.88.78,5.75,1.06,8.64.12,1.27.49,2.2,1.82,2.52"/>
    <path class="b" d="M212.92,276.85c-3.67,2.79-7.73,4.85-12.06,6.39-4.13,1.46-8.26,2.95-12.42,4.31-6.24,2.03-12.47,4.25-19.08,4.65-6.02.36-11.94,1.76-18,1.66-4.87-.08-9.7.95-14.58.54-2-.17-3.99-.45-5.41-2.15-.63-.76-.42-1.33.18-1.99,2.11-2.33,4.96-3.35,7.75-4.5,3.15-1.3,6.45-2.16,9.73-3.02,4.04-1.05,8.15-1.86,12.23-2.73,2.27-.48,4.43-1.56,6.84-1.27"/>
    <path class="b" d="M179.08,206.2c-.58,1.94-1.05,3.95-1.02,5.94.06,4.03-.4,8.03-.46,12.06-.11,7.83-.44,15.66-.68,23.49"/>
    <path class="b" d="M502.54,260.74c-1.41.5-2.84-.14-3.91-.64-2.42-1.14-4.98-.96-7.44-1.24-2.74-.31-5.39-.96-8.09-1.35-4.48-.66-8.98-1.25-13.49-1.7-2.34-.23-4.72-.48-7.02-1.03-2.32-.55-4.69-.35-7.03-.65-3.83-.5-7.63-1.01-11.35-2.15-2.19-.66-4.54-.82-6.82-1.12-3.53-.46-7.08-.85-10.62-1.27-2.4-.29-4.8-.61-7.2-.9-4.19-.5-8.42-.49-12.6-1.06-5.81-.79-11.62-1.71-17.46-2.1-4.27-.29-8.53-.56-12.78-1.12-2.98-.39-5.97-.71-8.99-.78-3.54-.08-7.08-.53-10.62-.46-3.78.07-7.56-.58-11.34-.05-1.92.27-3.72-.55-5.58-.69-2.69-.21-5.4-.26-8.1-.38"/>
    <path class="b" d="M174.94,277.12c4.08-.78,8.14-1.67,12.24-2.31,5.02-.78,10.06-1.59,15.12-1.9,2.4-.15,4.99-.2,7.36.64,1.09.39,2.11.93,2.76,2.11.56,1.02,1.33,1.94,2.45,2.59,1.11.64,1.43,2.33.51,3.33-.96,1.05-.86,2.09-.86,3.29-.01,4.02-.12,8.04-.16,12.06-.04,4.15.5,8.28.71,12.42.12,2.4.27,4.8.35,7.2.03,1.06.41,2.04.53,3.06.15,1.37.86,2.79-.13,4.15-.14.2-.04.59-.02.89.36,5.4.81,10.8,1.05,16.2.16,3.71,0,7.44.04,11.16.03,2.52.26,5.07.22,7.56-.05,2.83.09,5.66.21,8.46.16,3.73.39,7.44-.06,11.17-.06.47.1.96.16,1.44"/>
    <path class="b" d="M172.06,205.66c.06,3.21-.41,6.37-.81,9.55-.24,1.94-.53,3.94-.43,5.93.22,4.57-.12,9.14-.49,13.67-.3,3.73.23,7.48-.57,11.18-.13.61-.22,1.34.15,1.97"/>
    <path class="b" d="M186.64,323.74c.53,4.95,1.48,9.77,4.88,13.66,1.07,1.23,2.11,2.73,3.94,2.87,2.39.19,4.84-1.41,5.55-3.76,1.23-4.11,2.23-8.3,2.52-12.59.16-2.41-.41-4.71-1.15-7.04-1.01-3.19-3.19-5.4-5.32-7.69-1.69-1.82-4-1.8-5.91-.2-2.75,2.29-4.07,5.24-4.16,8.82-.05,1.92-.34,3.84-.52,5.76"/>
    <path class="b" d="M214.18,283.24c-.42-.5-1.08-.08-1.22.04-3.02,2.56-6.69,3.89-10.33,5.08-2.45.8-4.9,1.61-7.35,2.44-3.07,1.05-6.1,2.22-9.19,3.21-2.39.76-4.84,1.28-7.37,1.5-2.41.2-4.79.76-7.2,1.03-5.12.59-10.14,1.81-15.29,2.25-3.9.33-7.84-.02-11.72.78-.9.19-1.91-.24-2.87-.3-.96-.06-1.88-.15-2.9.07-1.17.25-2.5-.26-3.76-.44-1.28-.18-2.53-.35-3.64-1.21-.35-.27-1.16.07-1.76.13"/>
    <path class="b" d="M203.2,346.42c.41.72.24,1.37.05,2.17-1.09,4.72-4.55,7.81-7.88,10.68-3.59,3.09-8.21,4.89-13.02,3.74-2.43-.58-5.22-1.29-6.84-4.09-.67-1.16-2.06-2.84-4.18-2.65-.57.05-1.2-.44-1.8-.68"/>
    <path class="b" d="M500.2,371.26c-.26-.47-.11-1.25-.73-1.42-1.56-.41-2.25-1.85-3.38-2.77-1.08-.88-2.08-1.68-3.44-2.15-2.41-.84-4.33-2.67-6.84-3.43-2.04-.62-4.16-.9-6.14-1.73-3.39-1.42-7.03-1.39-10.61-1.62-2.1-.13-4.2-.08-6.3-.33-2.65-.32-5.33.21-7.9.74-5.29,1.09-10.55,2.47-15.3,5.17-4,2.27-8.04,4.5-11.53,7.54-1.03.9-2.07,1.79-2.34,3.24"/>
    <path class="b" d="M349.36,307.54c-1.24-.22-2.31.33-3.42.71-3.98,1.37-8.11,1.37-12.24,1.23-1.21-.04-2.42.04-3.6-.02-2.41-.13-4.86-.21-7.21-.99-1.38-.46-2.81-.7-4.3-.82-1.81-.15-3.73-.3-5.32-1.45"/>
    <path class="b" d="M276.82,235.18c-1.18-3.65-2.49-7.24-4.67-10.45-.22-.33-.46-.63-.58-1.07-.45-1.72-1.65-2.64-3.39-2.89-1.73-.25-2.43.83-3.31,2.11-.96,1.39-.99,2.5-.51,4.02.93,3.01,1.61,6.11,2.39,9.17"/>
    <path class="b" d="M444.4,359.2c-.72-8.39,0-16.81-.44-25.2-.22-4.2,0-8.42-.47-12.6-.15-1.32.77-2.73-.39-4.01-.21.07-.52.08-.67.24-2.97,3.2-6,6.26-6.26,11.14-.1,1.88-.35,4.04-1.76,5.84-.72.92-.48,2.59-.07,3.88.23.73.12,1.24-.37,1.82-1.38,1.65-1.5,3.84-2.07,5.78-.59,1.99-1.18,3.97-1.91,5.91-1.42,3.81-2.34,7.78-3.92,11.54-.9,2.13-1.94,4.21-2.63,6.44-.27.85-.32,1.71-.55,2.54"/>
    <path class="b" d="M510.64,387.64c1.93-.61,2.51-2.28,2.85-3.97.71-3.5.95-7.04.59-10.62-.11-1.05-.39-2.03-.94-2.86-1.18-1.78-1.43-4.05-3.04-5.6-2.06-1.99-6.02-1.59-7.76.71-1.09,1.44-1.94,2.98-2.5,4.69"/>
    <path class="b" d="M260.98,236.8c-.43.5-1.02.69-1.62.71-3.61.09-7.23.22-10.79.77-4.85.75-9.78.61-14.6,1.71-2.7.61-5.41,1.12-8.11,1.77-2.06.49-4.31.09-6.46.29-3.31.31-6.54,1.28-9.9,1.23"/>
    <path class="b" d="M314.26,307.18c.72,2.94,1.34,5.91,2.19,8.81.79,2.66,1.29,5.35,1.63,8.1.31,2.51.66,5.02,1.71,7.41.49,1.11,1.29,1.97,2.09,2.61,1.39,1.11,2.13,2.43,2.91,3.99,1.25,2.48,3.81,3.49,6.38,4.4,2.62.93,5.18.59,7.75.1,1.25-.23,2.24-1.2,3.23-1.97,1.29-1.01,2.31-2.3,3.08-3.76.31-.59.71-1.22,0-1.79-.59-.48-.95.06-1.45.33-3.59,1.92-7.4,2.79-11.51,2.59-2.67-.13-5.12-1.2-7.74-1.48"/>
    <path class="b" d="M208.6,243.82c-3.34-.51-6.61.21-9.9.53-3.94.38-7.82,1.11-11.7,1.82-2.47.45-4.93.91-7.38,1.45-2.68.58-5.4.5-8.1.68-2.91.19-5.76.69-8.64,1.08-3.89.53-7.79.95-11.7,1.26-2.75.22-5.2,1.35-7.73,2.21-3.18,1.09-6.31,2.35-9.18,4.13-1.68,1.05-3.25,2.27-4.87,3.4-.28.2-.17.48-.17.72,0,1.37-1.42,1.75-1.95,1.53-2.03-.86-3.8-.01-5.61.47-2.09.56-4.32.48-6.3,1.42-1.89.9-3.95,1.11-5.94,1.61"/>
    <path class="b" d="M301.3,383.5c-.04-1.42,1.03-2.37,1.7-3.37.96-1.44,2.22-2.69,3.18-4.18.78-1.21,2.17-1.27,3.4-1.24,2.61.07,5.16-.42,7.74-.52,1.49-.06,3.06.25,4.48.72,1.17.39,2.32.38,3.43.27,4.04-.4,8-.55,12.09.05,2.24.33,4.76.2,7.19-.08,3.69-.42,7.45-.21,11.15-.83.35-.06.72-.03,1.08,0,6,.35,12.01.34,18,.42,4.19.06,8.4.05,12.6.03,4.2-.02,8.42.34,12.63,1.16,2.97.58,6.2.67,9.33.71,2.29.03,4.32.35,5.82,2.49.95,1.36,2.41,2.39,3.75,3.43.61.47,1.04.94,1.24,1.65"/>
    <path class="b" d="M401.74,326.62c-.27-3.78-2.58-6.2-5.79-7.48-3.01-1.2-6.31-1.8-9.51-.26-4.27,2.06-5.71,4.92-5.05,9.72.37,2.73,2.37,4.18,4.36,5.54,2.07,1.42,4.45,2.13,6.99,2.41,3.71.4,7.49-2.34,8.35-5.96.3-1.27.33-2.55.66-3.79"/>
    <path class="b" d="M253.96,261.82c.18,4.81,1.88,9.08,4.89,12.75,1.91,2.33,5.5,2.58,7.89.94,1.87-1.28,1.96-3.4,2.26-5.24.62-3.86.94-7.78.25-11.69-.71-4.04-1.73-7.9-5.38-10.46-1.93-1.35-5.68-.69-7.4,1.46-1.57,1.95-2.5,4.24-2.43,6.66.05,1.8-1.24,3.65.1,5.4"/>
    <path class="b" d="M340.18,346.42c-1.04-.46-1.63.03-2.17.89-1.84,2.92-3.25,6.06-4.65,9.2-1.67,3.72-3.84,7.15-5.94,10.62-.82,1.36-1.69,2.74-1.82,4.4"/>
    <path class="b" d="M222.82,227.44c-.58-.34-1.01-.78-1.28-1.43-.35-.84-.64-2.11-1.44-2.26-1.43-.27-2.77-.99-4.31-.84-1.13.11-1.69.82-2.15,1.65-1.62,2.93-2.54,6.09-3.29,9.35-.51,2.21-.88,4.43-1.27,6.66-.1.56-.31,1.33-.08,1.58.75.86-.15,1.36-.23,2.02"/>
    <path class="b" d="M352.42,345.52c-.44.47-.94.81-1.62.54-1.48-.59-2.04.14-2.75,1.41-2.66,4.74-4.45,9.89-7.14,14.62-1.34,2.36-2.51,4.81-3.82,7.18-.3.53-.52,1.03-.52,1.63"/>
    <path class="b" d="M229.66,202.78c-1.39-.07-1.6,1.04-1.98,1.98-2.4,5.95-3.59,12.16-3.97,18.54-.11,1.74-.5,3.48-.5,5.22,0,4.33-.35,8.68.69,12.96"/>
    <path class="b" d="M321.82,371.08c-.17-2.06.94-3.75,1.85-5.37,2.22-3.93,3.39-8.23,4.8-12.45.8-2.37,1.53-4.76,2.78-6.98-2.38-.59-4.04.3-4.77,2.29-1.45,3.94-3.19,7.75-5.02,11.53-1.73,3.58-3.54,7.14-4.7,10.97"/>
    <path class="b" d="M320.56,345.7c-1.32,1.57-1.58,3.59-2.32,5.41-.62,1.53-1.05,3.13-1.65,4.67-1.83,4.69-3.7,9.37-5.58,14.04-.22.54-.36,1.06-.35,1.63"/>
    <path class="b" d="M315.34,346.6c-1.72,3.36-2.54,7.09-4.28,10.46-1.32,2.55-2.31,5.27-3.46,7.9-.83,1.9-1.14,4.01-2.32,5.77-.06.1.1.35.16.53"/>
    <path class="b" d="M224.62,248.32c.36,2.89,1.17,5.68,1.37,8.63.24,3.45,1.39,6.84,2.03,10.27.42,2.25.89,4.45.3,6.86-.48,1.96-.05,4.11,1.52,5.74"/>
    <path class="b" d="M341.62,345.34c-1.63.58-1.42,2.28-1.91,3.45-2.04,4.83-4.49,9.51-5.98,14.56-.73,2.48-1.58,4.95-1.83,7.55"/>
    <path class="b" d="M370.78,297.82c-2.74,1.29-4.11,3.7-4.04,6.48.08,2.94-.41,5.7-1.18,8.46-.55,1.96-.57,4.01-1.36,5.97-.68,1.67.31,2.89,2.08,3.39"/>
    <path class="b" d="M311.38,345.34c-.68-.03-1.18.23-1.44.9-1.2,3.12-2.37,6.25-3.61,9.36-1.06,2.67-2.04,5.38-3.41,7.93-.34.62-.27,1.34-.15,1.97.27,1.5.07,3.01.15,4.51"/>
    <path class="b" d="M384.46,349.12c.61-.02,1.14.09,1.63.53,2.98,2.65,6.66,3.86,10.44,4.65,3.72.78,7.54,1.55,11.32.52,2.15-.59,4.43-.3,6.53-1.32,1.09-.53,1.99-1.08,2.67-2.04"/>
    <path class="b" d="M272.5,282.34c.07,4.76-1.4,8.98-4.51,12.59-2.41,2.8-5.28,4.63-9.17,4.94-3.36.27-6.45.12-9.18-2.05-1.8-1.43-3.73-2.71-5.22-4.5"/>
    <path class="b" d="M462.76,276.85c-1.45,3.43-4.63,4.02-7.75,4.56-2.59.45-5.19.75-7.56,2.01-2.32,1.23-3.62,3.02-3.24,5.76"/>
    <path class="b" d="M484.36,385.3c1.91,1.51,4.25,1.96,6.48,2.7,4.63,1.55,9.52,2.43,13.69,5.2.26.17.71.08,1.07.11"/>
    <path class="b" d="M374.38,341.38c1.66,1.27,2.99,3.01,5.4,3.11,1.28.05,2.31.65,2.96,2.08.62,1.39,1.44,2.7,1.91,4.17,1.05,3.3,4,4.6,6.67,6.09,3.02,1.69,6.29,2.11,9.71,1.32.8-.18,1.67-.04,2.51-.02,2.56.05,4.89-.88,7.19-1.83.64-.27,1.15-.9.91-1.77"/>
    <path class="b" d="M373.48,244.36c.14,2.44.57,2.93,2.88,3.24,2.32.31,3.42,1.74,3.25,4.14-.09,1.18-.17,2.31,1.42,2.73,1.25.33,1.64,1.55,1.77,2.67.11.99.07,1.89,1.3,2.17.21.05.48.32.53.53.4,1.96,1.44.94,2.36.54"/>
    <path class="b" d="M507.22,332.02c-.39,1.25-.92,2.4-1.78,3.44-1.45,1.76-1.82,4.09-3.2,5.96-2.44,3.31-5.43,5.84-9.26,7.08-2.77.9-5.6,1.93-8.62,1.87"/>
    <path class="b" d="M503.98,337.24c-1.76-.22-2.64,1.32-3.95,2-4.04,2.1-8.06,4.07-12.59,5.12-3.91.91-7.59.12-11.36-.27-2.71-.28-5.25-1.12-7.75-2.14-.34-.14-.83-.47-1.25-.03"/>
    <path class="b" d="M253.78,204.22c.69.81,1.24,1.69,1.64,2.69,1.06,2.62,2.99,4.72,4.38,7.17,1.53,2.71,2.28,5.65,3.31,8.52.14.39.37.61.57.89"/>
    <path class="b" d="M384.46,260.74c-.42.18-.86.55-1.26.51-3.05-.3-5.99.62-9,.84-3.55.25-7.09.09-10.62.32-3.18.21-6.39.2-9.53.45-4.32.35-8.73-.38-12.97.94-.11.03-.24,0-.36,0-5.46-.19-10.9.78-16.39.1-1.89-.23-3.95-.41-5.94.23-1.45.46-2.96-.24-4.49-.23-4.08.02-8.16-.44-12.24-.61-2.28-.1-4.56-.02-6.84-.02-1.26,0-2.52,0-3.78,0-.5,0-.56-.33-.54-.72"/>
    <path class="b" d="M347.2,307.54c-2.8-3.22-5.32-3.76-9.18-1.98-.85.39-1.72.78-2.51,1.27-.62.38-1.37.58-1.78.13-1.82-1.99-4.03-1.65-6.13-.99-1.52.48-3.21.66-4.52,1.74"/>
    <path class="b" d="M413.98,300.34c-1.06,1.56-1.65,3.51-3.77,4.16-1.65.51-2.54.75-3.26-1.46-.11-.35-.42-.64-.77-1.16-1.63,1.45-3.31,2.7-5.61,2.78-.61-.93-.97-1.78-.54-3.09.27-.82.82-2.43-.99-2.93-1.89,2.07-3.53,4.26-5.03,6.56-.61.94-1.08,2.26-2.51,1.76-1.47-.52-1.17-1.73-.97-3.03.25-1.58.99-3.49-1.29-4.54-1.09.57-1.67,1.49-1.91,2.75-.3,1.61-1.03,3.06-1.78,4.5-.51.97-.98,2.23-2.32,1.74-1.16-.43-1.21-1.68-1.01-2.82"/>
    <path class="b" d="M505.96,289.54c-.43-.39-.01-.99-.52-1.46-4.24-4.02-8.28-8.29-14.59-9.06-.8-.1-1.65-.45-2.53-.46"/>
    <path class="b" d="M205.9,341.38c-1.61,3.77-4.59,6.53-7.23,9.51-1.48,1.68-3.25,3.03-5.33,4.06-1.71.85-3.35,1.69-5.26,1.7-1.06,0-1.92.59-2.85.85-1.88.53-3.72.63-5.61.6-1.32-.02-2.55.31-3.78.73"/>
    <path class="b" d="M452.14,339.22c2.4-.11,4.79.09,7.05-1.2,1.11-.64,2.4.31,3.34.91.91.58,1.85,1.12,2.74,1.74.77.53,1.59.9,1.72,2.14.08.72,1.07,1.37,1.71,1.98,3.61,3.49,8.05,5,12.95,5.4.9.07,1.8.12,2.7.18"/>
    <path class="b" d="M499.93,371.8c.45-1.01.91-.42,1.35,0,3.02,2.86,4.98,6.46,6.78,10.11.8,1.62,1.25,3.44,2.22,5.01.28.46.15.96.18,1.44"/>
    <path class="b" d="M127.96,407.08c-1.72-.26-3.22.68-4.85.96-3.73.66-6.93-.57-10.09-2.23-.54-.28-.93-.83-1.62-.8"/>
    <path class="b" d="M168.82,309.7c-4.37.68-6.51,3.63-7.76,7.55-.66,2.08-.52,4.19-.61,6.31"/>
    <path class="b" d="M436.48,253.18c1.5,3,3.06,5.97,4.48,9.01,1.07,2.29,1.94,4.67,2.9,7.01"/>
    <path class="b" d="M331.72,242.02c-3.26.47-6.48-.24-9.72-.31-2.87-.06-5.76.43-8.64.46-3.48.04-6.99-.26-10.43-.16-3.31.09-6.6-.27-9.91-.13-3.87.15-7.79.15-11.69-.02-4.04-.18-8.06.25-12.06.73-4.69.57-9.4,1.01-14.05,1.91-1.2.23-2.51-.06-3.77-.14-3.76-.23-7.45.42-11.16.9"/>
    <path class="b" d="M137.86,400.42c-2.12.62-4.32.58-6.48.87-4.67.64-9.37,1.31-14.03,0-1.53-.43-2.85-1.34-3.96-2.5-.91-.96-1.85-1.83-3.25-1.97"/>
    <path class="b" d="M405.7,329.68c.28-4.67,4.33-7.83,9.35-6.98,4.22.72,7.53,3,9.32,7,.59,1.31.64,2.86.95,4.3.15.69-.29,1.06-.72,1.44"/>
    <path class="b" d="M441.88,271.54c.28.44.39.92.36,1.44-.21,4.51.26,9,.35,13.5.05,2.52-.09,5.05.28,7.56"/>
    <path class="b" d="M353.32,306.64c.56.94-.14,1.73-.39,2.51-1.33,4.05-1.94,8.25-2.71,12.42-.71,3.83-1.09,7.76-2.82,11.36-.45.93-.86,1.82-1.82,2.33"/>
    <path class="b" d="M470.68,381.34c-.06-2.1.26-4.3-.27-6.27-.73-2.66-1.74-5.41-4.07-7.2-1.94-1.49-4.85-1.02-6.25.89-.43.59-.74,1.19-1.47,1.42"/>
    <path class="b" d="M485.44,383.86c4.56.86,9.01,2.25,13.68,2.55.98.06,1.9.67,2.89.83.88.15,1.79.85,2.69.03"/>
    <path class="b" d="M327.22,286.66c-1.17-1.44-2.77-.66-4.14-.67-2.86-.03-5.56,1.32-8.46,1.2-.42-.02-.84-.11-1.26-.17"/>
    <path class="b" d="M279.16,242.2c-.03,1.74.82,3.25,1.29,4.85.68,2.31,1.53,4.57,2.32,6.85.2.59.27,1.26.9,1.62"/>
    <path class="b" d="M208.06,308.62c-.5-1.68-1.95-2.6-3.07-3.77-1.44-1.5-2.98-2.9-4.49-4.33-1.31-1.25-2.84-1.88-4.68-1.62"/>
    <path class="b" d="M413.8,301.42c.36-.03.49.37.9.39,1.85.09,2.56.83,2.7,2.67.03.48-.03.96.01,1.44.22,2.2,2.35,3.39,4.1,2.12,1.18-.86,2.49-1.68,3.27-3.02"/>
    <path class="b" d="M347.02,257.14c-.03-1.29,1.08-1.81,1.83-2.49,1.04-.93,1.3-2.11.63-3.04-.73-1.02-1.92-1.25-3.37-.84-1.69.47-2.3,1.7-3.04,2.95"/>
    <path class="b" d="M251.62,231.22c2.55-.04,4.3,1.84,6.46,2.74.42.18.97.34,1.29.85,1.77,2.9,4.5,1.88,7.01,1.62,2.41-.25,4.8-.77,7.2-.84,2.36-.07,4.68-.4,7.02-.54,3.29-.2,6.6.05,9.9-.07,4.59-.16,9.12.56,13.68.64,1.01.02,2.04.06,3.06.13.61.04,1.38.03,1.62.87"/>
    <path class="b" d="M412.54,328.96c-.98-.99-1.98-1.26-3.26-.39-1.11.76-2.44,1.08-3.76,1.28-.88.13-1.07.81-1.06,1.45.08,3.75,1.96,6.6,4.71,8.94.09.08,1.38,1.38,1.57-.3"/>
    <path class="b" d="M442.24,269.74c-1.8-1.84-4.04-3.14-6.11-4.94-3.66,3.13-7.43,6.24-10.81,9.8"/>
    <path class="b" d="M364.66,235.54c-.82-1.09-1.56-2.27-3.24-1.99-.59.1-.75-.34-.93-.87-.29-.83-.87-1.54-1.21-2.36-.5-1.22-1.5-1.81-2.42-2.64-2.03-1.83-3.3-1.42-4.81.3-.05.06-.23,0-.35,0"/>
    <path class="b" d="M386.44,261.1c.46.87.79,1.66.24,2.73-.36.69-.25,1.65-.22,2.49.1,3.12-.19,6.18-1.05,9.19-.2.71.08,1.55.14,2.33"/>
    <path class="b" d="M431.8,310.06c2.01.95.86,2.73,1.06,4.14.12.85-.21,1.77,1.09,2.11.91.23.57,1.2.53,1.85-.12,1.89.18,3.64,1.27,5.23.32.47.6.94,1.27.89"/>
    <path class="b" d="M320.56,276.94c-.52,3.69-2.57,6.29-5.74,8.13-.56.32-1.15.69-1.48,1.4-.69,1.47-2.29,2.19-3.58,2.24-2.52.09-4.65,1.33-7.02,1.71-1.8.29-3.51,1.11-5.4.92"/>
    <path class="b" d="M434.5,340.12c.63.66.75,1.55.69,2.34-.34,4.59.46,9.12.63,13.68.09,2.28.28,4.56.3,6.84"/>
    <path class="b" d="M415.42,329.68c1.65-.98,3.57-.74,4.99,1.12,1.17,1.53,2.69,2.76,3.69,4.44.36.61.48,1.18.12,1.62-2.68,3.3-8.09,6.16-13.3,3.8"/>
    <path class="b" d="M208.78,250.66c.06.3.26.66.16.89-1.62,3.56-1.54,7.43-1.69,11.17-.14,3.29-.76,6.59-.27,9.9"/>
    <path class="b" d="M431.26,291.52c2.4.95,4.45,2.54,6.99,3.34,2.31.72,4.52,2,6,4.2.85,1.26.85,2.65,1.01,3.99.33,2.88.03,5.7-1,8.47-.68,1.83-1.5,3.69-1.3,5.74"/>
    <path class="b" d="M385.18,361.36c.96.07,1.22,1.06,1.96,1.47,1.92,1.08,3.97,1.6,6.14,1.77,1.32.1,2.64.24,3.96.36"/>
    <path class="b" d="M309.76,289c-.55,1.18-1.7,1.65-2.68,2.37-2.53,1.85-4.19,4.37-5.15,7.35"/>
    <path class="b" d="M347.74,232.3c-.04-1.18-.82-1.99-1.39-2.86-1.41-.16-2.31.73-3.17,1.48-.68-.3-.52-.94-.84-1.32-.55-.65-1.1-.75-2-.59-1.75.31-3.08,1.31-4.49,2.22"/>
    <path class="b" d="M176.92,254.44c0,6.12-.04,12.24.03,18.36.01,1.28-.86,2.49-.21,3.78"/>
    <path class="b" d="M309.76,251.02c.24-.78.35-1.64.75-2.32.79-1.34.25-2.23-.75-3.08-1.03-.88-2.12-.64-3.04.03-1.05.77-1.94,1.77-2.9,2.67"/>
    <path class="b" d="M349.18,275.5c.12,2.4,1.1,4.5,2.36,6.46.79,1.23,1.65,2.4,2.14,3.8"/>
    <path class="b" d="M325.24,219.16c-3.97-2.25-5.11-1.82-7.24,2.5-.27.54-.56,1.1-.86,1.64"/>
    <path class="b" d="M424.96,305.74c.81.45.75,1.22.72,1.98-.05,1.58.74,2.77,2,3.57.69.44,1.52.77,2.35-.12.71-.78,1.65-1.34,2.49-2"/>
    <path class="b" d="M333.7,223.66c-.67-2.58-3.55-5.46-6.28-6.16-.37,1.35-2.87,1.49-2,3.64"/>
    <path class="b" d="M313.18,231.22c-1.43-2.36-4.16-5.47-7.57-4.94-1.58.25-2.15,1.1-2.67,2.25-.31.69-.53,1.42-.72,2.16-.24.89-.62,1.17-1.64.93-3.16-.75-4.46.12-4.85,3.21"/>
    <path class="b" d="M169,255.16c-.7,4.66-.61,9.35-.78,14.04-.14,3.78-.73,7.54-.68,11.34.01.9-.1,1.84-.37,2.69-.4,1.28.06,2.14,1.12,2.69,1.12.58,2.26,1.1,3.6.39,3.15-1.66,4.38-4.33,4.31-7.75,0-.42,0-.84,0-1.26"/>
    <path class="b" d="M401.02,330.04c-.91-.37-1.57-1-2.18-1.78-1.36-1.72-2.59-1.76-4.11-.19-1.03,1.07-2.14.82-3.24.33-.72-.32-1.33-.88-1.99-1.33"/>
    <path class="b" d="M359.98,202.06c-.03.48.17,1.16-.54,1.24-1.42.17-2.02,1.36-2.85,2.21-.5.52-.89,1.18-.61,2.14.47,1.61-.6,2.99-1.8,3.47-1.17.47-2.39,1.03-3.72,1.27-1.29.23-2.08-.14-2.49-1.17-.4-.99.48-1.52,1.23-1.96.42-.25.74-.57,1.09-.89,1.35-1.23.93-2.7.7-4.16-.07-.48-.12-.96-.18-1.44"/>
    <path class="b" d="M474.28,364.42c-1.17,2.21-2.57,4.33-3.04,6.84-.16.86.25,1.89-.92,2.34"/>
    <path class="b" d="M333.34,252.1c-1.49.45-3.05.64-4.51,1.25-2.41,1.01-2.34,2.34-.71,3.79"/>
    <path class="b" d="M309.76,346.06c-1.13-.8-2.11,1-3.47.01-1.2,3.24-1.82,6.66-3.73,9.53"/>
    <path class="b" d="M297.52,258.76c1.26.11,2.44.08,2.51-1.62.01-.3.19-.71-.17-.89-1.38-.67-.58-2.99-2.51-3.27-.82-.12-1.6-.4-2.34.2"/>
    <path class="b" d="M118.6,268.48c-3.19.49-6.14,1.98-9.36,2.33-.36.04-.69.04-.9.37"/>
    <path class="b" d="M319.12,225.82c-.7-2.45-4.51-3.65-6.68-2.74-1.18.49-2.03,1.11-2.11,2.38-.04.65-.63.9-.75,1.44"/>
    <path class="b" d="M330.46,231.4c-.51-.02-.82,0-1.15-.68-.58-1.2-1.22-2.52-2.66-3.2-1.47.96-2.5,2.27-3.39,3.7"/>
    <path class="b" d="M346.12,286.3c2.37-.57,4.8-.36,7.2-.53.41-.03.74.37,1.09.49,1.98.67,3.83,1.73,5.93,2.01,1.08.14,1.95.51,2.35,1.62.05.14.21.27.35.36,2.32,1.37,4.21,3.2,5.76,5.4"/>
    <path class="b" d="M444.04,367.3c.18.24.55.52.51.71-.67,3.43.55,6.85.03,10.27"/>
    <path class="b" d="M515.5,329.86c-2.57,1.75-5.39,2.44-8.46,1.87-.71-.13-1.46-.39-1.71-1.24"/>
    <path class="b" d="M316.6,253.54c-.2-.41-.48-.74-.57-1.25-.29-1.56-1.85-2-3.02-.9-.28.26-.56.56-.71.9-.69,1.47-1.89,2.15-3.43,2.33"/>
    <path class="b" d="M309.94,203.86c.1,2.15.76,4.09,2.15,5.77.81.98,1.93,1.56,2.93.83.85-.62,1.19-1.73.55-3.02-.6-1.21-.72-2.65.13-3.93"/>
    <path class="b" d="M136.06,329.86c.3.11.78-.28.91.36.56,2.78,1.7,5.36,2.86,7.93.26.57.54,1.2.52,1.79-.04,1.65.41,3.05,1.43,4.35.24.3.66.83.4,1.41"/>
    <path class="b" d="M348.1,353.8c-1.08,2.4-2.17,4.8-3.23,7.2-.16.36-.39.54-.72.73-1.35.75-1.56,2-1.46,3.41.11,1.5-.84,3.04-2.15,3.6"/>
    <path class="b" d="M119.14,393.04c.92-.78,1.95-1.44,3.07-1.76,2.8-.8,4.59-2.94,6.62-4.74.31-.27.44-.97.35-1.4-.34-1.73-.3-3.48-.36-5.22,0-.23-.2-.73-.92-.72-1.41,1.66-2.94,3.43-4.44,5.23-.67.81-1.45,1.03-2.52,1.13-3.29.29-6.65.32-9.83,1.41.04.46.07.85.1,1.24"/>
    <path class="b" d="M571.66,395.38c.5-1.12.08-1.6-1.08-1.43-.85.12-1.68.45-2.52.51-1.37.09-2.76.02-4.14.02"/>
    <path class="b" d="M330.28,256.69c-1.89,0-2.96,1.51-4.29,2.47-.87.62-.44,2.03.69,2.84.83.6,1.49.6,1.8-.54"/>
    <path class="b" d="M323.26,231.58c.01-.49-.47-.49-.72-.71-2-1.78-3.11-1.81-5.37.73-.33.38-.54.82-1.1.88"/>
    <path class="b" d="M425.14,350.38c-1.84,2.08-4.1,1.73-6.49,1.31-1.42-.25-2.2-.72-2.15-2.21"/>
    <path class="b" d="M375.1,324.64c.31.7.56,1.41.77,2.14.23.8,2.83,1.35,4.09,1.1,1.61-.32,3.17-.7,4.71-1.38,1.4-.62,3.05-.75,4.47.3"/>
    <path class="b" d="M177.46,253.18c.05.65-.19,1.04-.9,1.08-2.46.17-4.92.36-7.38.54"/>
    <path class="b" d="M351.34,346.42c-.78,2.01-1.9,3.85-2.83,5.78-.15.31-1.32,1.32.31,1.42"/>
    <path class="b" d="M372.13,259.48c.81-1.73.33-2.42-1.51-3.11-1.48-.56-2.91-.11-4.34-.31"/>
    <path class="b" d="M425.32,275.32c1.58,1.34,2.4,3.24,3.61,4.85.53.71,1.19,1.33,1.79,1.99"/>
    <path class="b" d="M170.17,351.28c-.68,1.95-.59,4.11-1.7,5.95-.77,1.26-1.29,2.68-2.87,3.28-.5.19-.99.73-1.1,1.4"/>
    <path class="b" d="M497.32,379.81c1.24,1.95,1.96,4.06,1.98,6.39"/>
    <path class="b" d="M363.76,252.46c-.41-2.37-.68-2.48-2.7-1.08-.77.53-1.56,1.02-2.34,1.53"/>
    <path class="b" d="M365.65,256.6c.5-.94.7-1.99,1.3-2.91.28-.42.07-1.55-.65-1.34-1.08.31-2.59-.58-3.26,1.01"/>
    <path class="b" d="M455.74,363.88c1.19,1.27,1.49,2.9,2.05,4.48,1.07,2.98-.41,5.56-.78,8.31-.06.41,0,.84,0,1.26"/>
    <path class="b" d="M231.82,247.42c-.17.78-.36,1.55-.91,2.15-1.04,1.14-.55,2.74-1.25,3.97"/>
    <path class="b" d="M325.06,252.1c-.54-.42-1.07-.86-1.62-1.26-1.12-.79-2.1-1.25-3.1.33-.7,1.11-2.08,1.6-3.08,2.48-.56.49-.37.88-.48,1.33"/>
    <path class="b" d="M465.46,333.46c-.59.03-1.36-.16-1.6.55-.58,1.72-2.26,2.45-3.26,3.77"/>
    <path class="b" d="M127.06,394.48c-2.68-.57-5.48.29-8.17-1.32-1.79-1.08-4.2-.18-6.21.49-.66.22-1.37.35-2,.65"/>
    <path class="b" d="M489.58,371.44c-2.21.51-2.63,2.66-3.78,4.14"/>
    <path class="b" d="M303.64,245.26c-1.9.71-3.35,1.85-3.78,3.96"/>
    <path class="b" d="M126.61,389.44c.33,2.22.66,4.44.99,6.66"/>
    <path class="b" d="M138.4,319.42c-2.1.42-4.2.84-6.3,1.26"/>
    <path class="b" d="M290.5,263.08c-.9.33-1.79.17-2.7.02-.66-.11-1.38-.13-1.98.34"/>
    <path class="b" d="M335.86,222.58c.58,1.5.96,1.64,1.98.72,1.62-1.45,1.89-1.44,3.24.18.25.29.48.6.76.96.46-.2.99-.32,1.39-.61,2.07-1.53,2.42-1.48,3.98.36.82.97,1.79,1.81,2.69,2.71"/>
    <path class="b" d="M395.08,326.98c-1.08-1.93-1.78-2.17-3.78-1.26"/>
    <path class="b" d="M370.78,289.18c-.23-1.03-1.37-.89-1.79-.82-2.16.38-4.39-.08-6.49.64"/>
    <path class="b" d="M411.28,331.3c.28,2.01.88,2.38,2.88,1.8"/>
    <path class="b" d="M417.76,331.48c.06,1.29-.95,1.9-1.83,2.27-.61.26-1.68.07-1.6-1.19.04-.66,0-1.32,0-1.98"/>
    <path class="b" d="M246.94,291.16c-1.11.87-2.3,1.59-3.58,2.2-1.05.51-2.08,1.32-1.46,2.84"/>
    <path class="b" d="M268.72,282.7c2.26-1.41,4.46-.94,6.67.16.48.24.3.59.35.92"/>
    <path class="b" d="M143.44,347.5c-.33,1.68.84,3.07.9,4.68"/>
    <path class="b" d="M133.54,320.68c.28,1.28,1.31,2.35,1.08,3.78"/>
    <path class="b" d="M345.4,257.59c.9-.47,1.75-.65,2.53.26.67.79.4,1.71.3,2.52-.12.99-.87.97-1.75,0"/>
    <path class="b" d="M355.12,305.2c-1.44.91-2.98,1.55-4.68,1.82-.5.08-1.15.25-.81,1.06"/>
    <path class="b" d="M319.66,346.42c-.81-.39-1.56.05-2.34.14-.65.07-1.53.48-1.98-.5"/>
    <path class="b" d="M204.1,340.48c2.38.22,3.75,2.04,5.4,3.42"/>
    <path class="b" d="M413.8,330.22c1.37.23,2.68.64,3.95,1.17.64-.2.99-.75,1.45-1.17"/>
    <path class="b" d="M432.7,334.18c-1.26-.19-2.16.75-3.22,1.14-1.54.57-2.78.46-3.98-.6"/>
    <path class="b" d="M429.1,332.02c.48.84-.23,1.92.54,2.7"/>
    <path class="b" d="M344.32,361.9c.66,1.58-.25,2.6-1.26,3.6"/>
    <path class="b" d="M177.64,253.72c2.46.02,4.82-.59,7.22-.96,3.14-.49,6.32-1.12,9.52-1.16,2.09-.03,4.13-.34,6.11-.82,2.52-.62,5.06-.07,7.59-.58,2.63-.53,5.38-.61,8.08-.85,3.98-.36,7.9-1.28,11.88-1.79,3.09-.39,6.14-1.08,9.18-1.8,1.02-.24,2.08-.17,3.07-.5"/>
    <path class="b" d="M416.23,349.03c.64.48,1.37.23,2.07.27"/>
    <path class="b" d="M242.98,296.38c-1.61-.65-1.46.46-1.44,1.44"/>
    <path class="b" d="M439.54,289.9c.26-.02.38.1.36.36"/>
    <path class="b" d="M290.32,209.08c-1.13.1-2.34.35-2.46,1.63-.09,1.02,0,2.16,1.17,2.91,1.13.73,1.56,1.89,1.13,3.3-.12.39.14.89.14,1.34.02.94.13,1.83,1.27,1.96,1,.12,1.84-.04,2.56-1.04,1.19-1.66.86-3.33.5-5.07-.42-2.01-1.49-3.58-3.05-4.87-.37-.3-.73-.08-1.09-.17"/>
    <path class="b" d="M489.94,288.64c-2.95,1.13-4.44,3.47-5.63,6.28-1.69,4-2.03,8.03-1.43,12.27.24,1.66.2,3.36.34,5.04.41,5.03,3.35,8.19,7.47,10.39,2.7,1.44,7.89-1.17,9.12-4.46,1.18-3.14,2.34-6.25,2.65-9.7.34-3.75-.08-7.3-1.2-10.8-1.51-4.76-6.53-8.73-11.14-9.01"/>
  </g>
  <path class="b" d="M175.53,327.31c-.06.34-.23,1.54.02,2.16.69-.42.78-1.84.7-2.54-.41.6-.88,1.59-.67,2.31.84-.6,1.9-1.79,1.67-2.9-.65.13-.93,1.23-.83,1.83.33-1.14.26-3.51-.79-4.24-1.39,1.68-.81,4.49.22,6.26,1.87-1.39,2.26-3.73,1.5-5.79-2.79-.3-1.89,3.82-1.26,5.52,2.4-.8,1.04-4.84-.06-6.17-.77.38-1.03,1.35-1.05,2.17-.03,1.2.24,3.53.79,4.63.56-.49,1.19-.42,1.67-1.04.88-1.13.49-2.86.11-4.03-.16-.51-.19-1.32-.61-1.68-.68-.58-1.8-.32-2.35.19-1.35,1.26-.61,4.36-.14,5.9.6,1.94,2.09,1.83,2.9.04.48-1.05,1.04-6.23-1.12-6.44-2.49-.25-1.43,4.99-1.23,6.09.21,1.16.93,3.24,2.1,1.89,1.08-1.24.28-3.66-.12-5.06-.24-.84-.75-2.3-1.74-2.04-1.32.34-.99,2.36-.92,3.3.08,1.13.41,3.59,1.74,3.96"/>
  <path class="b" d="M194.53,320.17c-.16.57-.36,1.37-.08,1.94.27-.32.2-.79.2-1.26-.27.47-.34,1.08-.1,1.53.77-.56.76-1.85.39-2.65-2.01-.37-.46,3.68-.08,4.46,1.74-.82,1.17-3.7.51-4.99-1.42.16-1.09,3.46-.51,4.43.62-.75.65-1.65.65-2.58-.77.71-.59,1.98-.55,2.94,1.83-.61,1-3.68.17-4.79-2.43,1.02-1.85,4.42-.5,6.03,1.02,1.22,2.34.76,2.35-1.18,0-1.48-1.19-3.9-2.38-4.84-.85.93-1.16,4.72-.01,5.26,2.17,1.01,1.95-3.2,1.31-4.28-1.47.2-1.07,4.33-.09,5.23,1.78-1.72.2-5.2-.77-6.86-2.55.15-2.27,5.63-.97,6.95,2.46,2.5,3.27-3.06,2.53-4.61-.28-.59-1.03-1.76-1.74-1.8-1.4-.09-1.5,2.93-1.53,3.79s-.26,3.36.96,3.68c.71.19,1.24-.45,1.54-.99.72-1.29.82-5.76-.96-6.5-.91-.38-1.58.71-1.42,1.55"/>
  <path class="b" d="M244.21,264.85c-.23-.19-.14-.48-.52-.55-.12.71-.13,1.57,0,2.27.4-.78.39-.55.31-1.41-.33,1.08-.41,1.54,0,2.52.51-1.1.61-2.4.45-3.62-.68.93-.73,2.09-.16,3.1.76-.87.68-2.18-.08-3.19-1.43.79-1.5,2.65-.8,4.06,1.24-.77,1.7-2.87,1.11-4.11-1.52,1.17-1.01,3.41.76,4.28.83-1.16.24-2.67-.81-3.63-1.41.85-2.27,3.7-1.35,5.19,1.97-1.13,1.58-4.41,1.05-6.34-3.8,1.1-2.74,4-1.06,6.03,3.24.1,1.94-4.88.02-6.01-1.66,1.77-.69,5,.87,6.6,1.42-.85,2.74-3.55,2.05-5.22-.49-1.17-2.81-2.63-3.29-1.13"/>
  <path class="b" d="M261.37,261.36c-.09.85-.03,1.83-.1,2.62.7-.9.82-1.92.33-2.9-.62.91-.89,2.02-.76,3.16,1.48-.27,1.68-2.19,1.06-3.43-.92.75-1.05,2.58-.53,3.73,1.46-1.15,1.01-3.7-.28-4.99-1.75,1.05-1.12,4.89.57,5.97,3.59-4.96-.79-8.1-1.15-3.64-.3,3.67,3.73,5.07,3.36.94-.45-4.88-5.57-1.49-3.57,2.87,2.31,5.04,4.21-2.61,2.25-5.2"/>
  <path class="b" d="M396.33,327.39c-2.52-.64-5.67-2.49-8.14-1.16"/>
  <path class="b" d="M411.75,328.55c1.96-.93,5.67.24,7.56,1.45-2.72.04-4.92,1.56-6.99,0-1.64,3.67,3.87,5.36,4.64,2.65-1.77-.17-5.03,1.35-4.59-1.41.45.23.98.47,1.35.76.08.09.09-.88.02-.8.02,0-1.1.09-.82.18.66.18,1.34.28,2.03.36"/>
  <path class="b" d="M393.72,328.55c.31,0,.63.58,1.13.05-1.14,1-2.54,1.14-3.97,1.37-.48-.88-1.12-1.94-1.42-2.83,1.17.33,2.42.39,3.6.02-.59-.02-1.18-.06-1.78-.06.68.06,1.41,0,2.09.01-.69-.55-.78-.06-1.1-.02"/>
  <path class="b" d="M463.53,304.12c-.79-1.27-.96,1.97-.45,2.83.76-.97,1.37-2.42.53-3.4-.75,1.29-.91,2.89-.38,4.25,1.11-1.03.68-2.75-.28-3.85-.5,1.07-.29,2.31.33,3.35,1.69-.84,2.03-5.81.25-4.77-1.45.84-.43,3.85.5,4.5,1.24-1.98.58-4.4-1.07-5.87-2.19,1.45-1.16,5.15.04,7.01,1.89-.92,2.71-6.53-.06-6.67-2.94-.15-2.19,4.77-1.12,6.26,1.34,1.87,3.36,2,4.01-.75.46-1.97-1.15-3.51-1.69-5.21-2.23,1.88-2.76,6.43-.3,8.51,1.52-2.02,2.41-6.82-.6-7.93"/>
  <path class="b" d="M490.45,303.54c.01-.27,0-.55,0-.82-.15,1.46-.79,3.09.36,4.2,1.43-.78,2.2-3.51.57-4.26-.6,1.3-.98,2.95-.15,4.08.89-1.41.79-3.01.17-4.5-2.04.8-2.14,5.24-.02,6.15,1.49-1.05,3.65-8.62.54-8.58-3.76.05-.54,7.63.56,8.74,3.04-1.16,2.18-7.85-1.4-6.7-.68,1.8-.32,3.7.82,5.21,1.86-1.16,1.21-4.52.22-6.09-2.44,1.29-2.03,4.45-1.36,6.66,1.89-1.42,4.1-6.3.62-7.24-3.41,3.54.29,10.97,1.64,5.47.91-3.72-3.82-7.29-4.32-2.61-.33,3.08,3.28,8.5,4.3,2.77.38-2.14-1.91-8.76-3.72-4.51"/>
</svg>