<?xml version="1.0" encoding="utf-8"?>
<!-- Generator: Adobe Illustrator 28.1.0, SVG Export Plug-In . SVG Version: 6.00 Build 0)  -->
<svg version="1.1" id="a" xmlns="http://www.w3.org/2000/svg" xmlns:xlink="http://www.w3.org/1999/xlink" x="0px" y="0px"
	 viewBox="0 0 410 299.9" style="enable-background:new 0 0 410 299.9;" xml:space="preserve">
<style type="text/css">
	.st0{fill:none;stroke:#484848;stroke-width:2;stroke-linecap:round;stroke-linejoin:round;}
</style>
<path class="st0" d="M2.4,158.9c-0.7,0.6-1.2,1.5-1.6,2.3c-0.6,1.2-0.7,2.2,0.2,3.4c1.6,2.3,1.3,5.1,1.8,7.7
	c0.7,3.3,1.9,6.4,3.8,9.2c1.1,1.5,3,1.5,4.5,2.3c0.3,0.2,0.7,0.2,1.1,0.4c0.8,0.4,1.8,0.4,2.3,1.1c0.6,0.7,0,1.6,0,2.3
	c0,1.2,0.5,2.2,1,3.2c0.7,1.2,2.4,1.6,3.7,0.9c3-1.5,5.8-3.1,8.8-4.5c4.6-2.1,9.4-3.4,14.6-3.3c4.3,0.1,8.5-0.1,12.8,0.2
	c1.2,0.1,2.4,0.6,3.6,0.5c1.8-0.2,3.6,0.1,5.3-1.1c2-1.4,4.4-0.4,7.1-0.4c-2.9,3-3.7,6.6-5.1,9.9c-1.5,3.6-3.3,7.1-4.2,10.9
	c-0.8,3.3-0.8,6.4,1,9.6c0.9,1.6,1.5,2.4,3.3,1.9c0.3-0.1,0.6,0,0.9,0.1c2.4,0.7,5,0.8,6.8,2.7c0.6,0.6,1.3,0.3,2,0.5
	c2.6,0.6,4.6,2.2,6.8,3.5c0.4,0.2,0.7,0.4,1.1,0.5"/>
<path class="st0" d="M51,120.7c4,1.9,7.8,4,11.2,7c6.5,5.8,12,12.5,17.1,19.6c1.3,1.8,2.9,3.2,4.7,4.5c2,1.4,3.6,3.2,5.6,4.7
	c1.4,1.1,2.4,2.5,2.9,4.3c0.8,2.4,2.7,3.9,4.5,5.4c4,3.5,7.5,7.4,10.8,11.5"/>
<path class="st0" d="M232.8,248.8c-1.8-1.7-1.5-3.9-1-5.9c0.6-2.6,0.8-2.6-1.7-3.4c-1.3-0.4-2.4-1.2-3-2.4c-1.4-2.6-3.5-4.9-5-7.4
	c-1.1-1.9-2.8-2.3-4.7-2.5c-1.4-0.1-2.6-0.7-3.9-1c-1.5-0.4-2.1-1.8-2.3-3.2c-0.6-3.8-3-6.6-5.9-8.7c-1.3-1-3.2-1.6-4.8-2.5
	c-1.8-1.1-3.6-2.1-5.3-3.4c-1.9-1.5-4.4-1.5-6.6-1c-3.9,0.8-7.6,0.7-11.4-0.5c-2.5-0.8-5-0.6-7.6-0.2c-1.5,0.2-3,0.6-4.5,0.6
	c-1.4,0-2.6-0.2-3.6-1.3c-1.7-1.8-3.4-3.6-4.3-5.9"/>
<path class="st0" d="M95.9,114.4c0.8-4.4-2.5-7.5-6.8-6.7c-4.7,0.9-8.9,2.7-13,5.1c-2.6,1.5-5.3,2.6-8.3,3.3c-4.1,0.9-7.8,0-11.3-2
	c-2.2-1.2-4.4-1.9-6.8-1.8c-1.8,0.1-3.1,1.2-4.3,2.2c-2.2,1.8-4.4,2-6.9,1.2c-4.9-1.5-9.5-0.4-13.8,1.8c-5.6,2.8-9.1,7.6-11.6,13.3
	c-1.3,2.9-3.2,5.5-5.4,7.9c-1.9,2.1-3.9,4.1-5.9,6.1c-0.5,0.5-1,0.9-1.4,1.4c-1.8,2.8-1.9,2.8,0,5.9c0.9,1.4,2,2.8,3,4.1"/>
<path class="st0" d="M248.7,142.1c-0.6,0.1-1,0.6-1.1,1.1c-0.6,3-2.7,5.2-4.2,7.7c-0.7,1.1-1.1,2.4-2.3,3.3c-0.2,0.2-0.4,0.8-0.4,1
	c0.9,3-0.3,5.9-0.5,8.8c-0.4,7.1-3.7,12.9-8.7,17.9c-1.7,1.7-3.2,3.8-4.9,5.5c-1,1-2.1,1.7-3.4,2.4c-3.7,1.9-7.6,3.2-11.4,4.8
	c-4.2,1.9-7.3,4.9-9.4,9c-0.4,0.8-0.8,1.6-1.3,2.3"/>
<path class="st0" d="M144.1,42.1c-1.3-2.2-3.4-2.6-5.8-2.7c-3.6-0.2-7.1-0.5-10.6,0.2c-1.2,0.3-2.5,0.8-3.8,0.4
	c0.1-1.2,0.9-1.4,1.8-1.8c2.2-1,3.9-2.5,4.7-5c-0.6-0.8-1.6-1.1-2.6-1.3c-0.5-0.1-1-0.2-1-0.6c-0.4-1.9-1.5-1-2.4-0.7
	c-1.1,0.4-2.1,0.5-2.9-0.7c-0.4-0.6-1.1-1-1.8-1.5c-1.2-0.8-2.4-1-3.6,0c-1.1,1-2.3,0.6-3-0.2c-1.6-1.8-3.2-1.9-5.3-1.1
	c-1.3,0.5-2.5,0.8-3.5-0.8c-0.6-1-1.9-1-3-0.6c-2.7,1.1-5.1,0.4-7.6-0.7c-2.6-1.1-5.2-0.2-7.7,0.4c-1.3,0.3-2.8,0.8-3.6,2.1
	c-2.1,3.1-5.4,3.5-8.6,3.9c-4.2,0.5-7.7,3.9-8.1,8.1c-0.2,2-0.5,4-0.9,5.9c-0.2,0.9-1.2,1.3-1.8,1.7c-0.7,0.5-1,1-1.4,1.7
	c2.2,3.2,3.2,6.7,3.6,10.5c0.1,1-0.4,1.5-1.3,1.6c-0.8,0.1-1.6,0-2.3-0.3c-1.7-0.7-3.5-1-5.2-1c-1.8-0.1-3.2,1.3-4.5,2.5
	c-0.7,0.6-1.2,1.4-2.2,1.6"/>
<path class="st0" d="M255.3,142.9c0.8-0.7,1.6-1.3,2.3-2c2.8-2.3,5.8-4.2,9.4-5c1.4-0.3,2.7-0.4,4.1,0c2.3,0.6,4.7,1,7,1.4
	c1.7,0.3,3,1.4,4.3,2.4c2.2,1.8,4.3,3.7,5.7,6.4c1.3,2.5,3.1,4.6,5.4,6.3c0.4,0.3,0.8,0.5,1,0.9c1.5,2.9,3.6,5.4,4.5,8.6
	c0.7,2.6,2.2,4.9,3.8,7c3.4,4.6,6.1,9.4,7.3,15.1c0.6,3,1.5,5.9,1.3,9c-0.3,3.1-0.5,6.1-2.5,8.9c-1.4,2-2.9,3.9-4.5,5.9
	c-0.3,0.4-0.7,0.3-1.1,0.4"/>
<path class="st0" d="M141.6,203.3c-0.9,1.3-1.6,2.2-3.6,1.8c-1.6-0.3-3.4,0.7-5.2,1.1c-0.6,0.1-1.2,0.4-1.8,0.3
	c-1.5-0.2-2.5,0.5-3.2,1.6c-0.3,0.5-0.6,1-1,1.4c-0.8-0.2-1.7-0.3-2.4-0.6c-2.4-0.9-4.4,0.1-6.3,1.4c-6.8,4.6-8.8,12-11.1,19.1
	c-1.1,3.4-1.2,7.1-1.9,10.6c-0.1,0.6-0.1,1.1,0.4,1.4"/>
<path class="st0" d="M60.1,164.4c0.1-0.6-0.4-1-0.7-1.4c-1.6-2-2.7-4.3-3.3-6.8c-1-4-2.3-7.9-4.5-11.3c-2.5-4-6.5-6.3-10.8-8.1
	c-5.5-2.3-11.2-3.7-17.1-4.6c-0.5-0.1-0.9-0.4-1.4-0.4"/>
<path class="st0" d="M117.3,202c-1.9,0.1-3.4-0.8-4.9-1.8c-4.2-2.8-7-7.1-11.2-9.8c-2.8-1.8-4.4-4.7-7.5-6.3
	c-4.2-2.2-8.6-3.3-13.2-3.5c-1.4-0.1-2.8-0.4-4.3,0.1c-1.1,0.4-2-0.8-3-1"/>
<path class="st0" d="M365.1,301.9c0.1-0.4,0-0.8,0.1-1.3c1-2.9,0.8-3.1-1.8-4.9c-2.5-1.8-5.1-3.5-7.5-5.4c-2-1.5-2-2.9-0.2-4.6
	c0.6-0.6,1.2-1.1,1.8-1.6c-1-1.8-0.6-3.5,1.2-4.1c2.5-0.8,4.7-2.4,7.5-2.3c1.3,0,2.7,0,3.9,0.5c1.2,0.4,2.2,0.6,3.4,0.3
	c3.1-0.8,6.4-0.8,9.5-1.1c2-0.2,4-0.5,5.9-0.3c1.5,0.1,2.4-1,2.4-2c0-0.9,0.2-1.3,0.8-1.8c1.2-0.9,1.4-2.2,0.9-3.4
	c-1-2.2-0.6-4.1,1.1-5.8c0.6-0.7,1.2-1.5,1.6-2.3c0.6-1.1,0.4-2.1-0.3-3.3c-1.3-2.4-2.3-4.8-4.3-6.9c-1.5-1.5-3.2-2.1-5-2.5
	c-2.5-0.6-4.9-2-7.5-2.3c-0.7-0.1-1.5-0.7-1.5-1.9c0-1.2-0.7-2.2-1.9-2.9c-1.2-0.8-2.3-1.7-3-3.1c-1.1-2.2-3.6-2.6-5.9-2.7
	c-1.1-0.1-2.1-0.1-3.1-0.7c-1.2-0.8-2.6-0.9-4-1.1c-2.1-0.2-2.7-1.1-1.8-3.1c0.2-0.4,0.5-0.7,0.7-1.1c0.6-1.4,0.1-2.5-1.2-3.2
	c-2.2-1.3-4.5-1.6-7-1.7c-2.6-0.1-5.2-0.6-7.8-1.7c-2.7-1.1-5.5-2-8.6-1.4c-1.5,0.3-3.3-0.4-4.8-1c-1.8-0.8-3.4-1-5.2-0.5
	c-1.4,0.3-2.9,0.2-4.3,0.4c-0.8,0.1-1-0.3-1.3-0.9c-1.1-2.6-1.1-2.6-3.9-3.8c-1.2,1.2-2.6,2.2-4.2,2.9c-1.6,0.7-3.1,0.4-4.1-0.9
	c-0.2-0.2-0.2-0.6-0.4-0.7c-2.8-1.4-1.6-3.6-1.2-5.6"/>
<path class="st0" d="M240.6,155.3c-0.6-0.1-1.2,0.3-1.4,0.7c-1.4,3.6-4.4,5.6-7,8.1c-2.6,2.5-5.5,4.7-8.7,6.4
	c-4.5,2.4-9,4.9-13.2,7.7c-2.7,1.8-5.9,2.9-8.2,5.5c-1.4,1.5-2.4,3.2-2.7,5.2"/>
<path class="st0" d="M6.5,153.3c-0.1-1.8,1.4-1.6,2.4-1.7c3.2-0.4,6.2-1.3,9.5-1.2c2.8,0.1,5.5,0.2,8.3,0.6
	c4.7,0.6,8.4,3.4,12.4,5.5c2.2,1.1,4.3,2.3,6.7,3c3.5,1.1,6.9,2.3,10.3,3.7c1.3,0.6,2.5,1,3.9,1.4c2.3,0.6,3.8,2.5,5.2,4.4"/>
<path class="st0" d="M124.9,236.2c-1.6,1.5-3.5,2.4-5.4,3.4c-0.7,0.3-1.3,0.6-2,1.1c-6.1,5.1-10.5,11.4-14.4,18.2
	c-2.6,4.5-4.9,9.1-7,13.9c-0.1,0.2-0.5,0.6,0,0.9"/>
<path class="st0" d="M239.7,20.9c-0.8,0.6,0,1.5-0.6,2.1c1.1,0.8,2.1,0.2,3,0c3.9-0.8,6.6,0.8,7.8,3.9c0.8,2,1.7,2.1,3.4,2.6
	c2,0.6,4.1,1.6,4.6,4.2c0.3,1.4,0,2.4-1.1,3c-1.7,0.9-3.4,1.9-5.2,2.5c-3.2,1-5.6,2.8-7.4,5.7c1,1.6,2.9,1.9,4.2,3
	c2.4,2,3,4.3,1.6,6.9c-0.4,0.8-1,1.2-1.7,1.4c-1.1,0.4-1.3,0.8-1.1,2c0.2,2.3,0,4.7-1.6,6.7c-1.7,2.1-3.8,3-6.5,2.9
	c-1.4-0.1-2.8,0.5-4.3,0.4c-2.8-0.1-5.5-0.9-8.3-0.9c-4.6,0.1-8.7,1.3-12.6,3.7c-0.5,0.3-1.1,0.6-1.7,0.6c-0.8-1.2,0.3-2.3,0.8-3
	c0.8-1.2,1.7-2.5,2.8-3.5c2.7-2.5,3.2-5.4,1.6-8.6c-0.1-0.3-0.2-0.6-0.4-0.9"/>
<path class="st0" d="M36.9,203.1c-0.9,1.8-1.7,3.7-2,5.8c-0.1,1.2,0.3,2.4,1.1,3c2.1,1.7,2.4,3.9,2.3,6.3c-0.1,3.4,2,6.2,5,7
	c1.9,0.5,3.7,0.2,5.4-0.6c1.8-0.7,3.4-1.7,5.2-2.3c1.3-0.5,2.7-0.7,4.1-0.7c0.5,0,1.1,0.1,1.6-0.3c1.4-1.1,2.7-0.2,4.1,0.3
	c4.4,1.7,7.6,5,10.8,8.3"/>
<path class="st0" d="M98.6,33.7c-1,0-1.7,0-2.4,1.1c-2.5,4-4.6,8.2-5.4,13C90.5,50,89.6,52,88.3,54c-1.8,2.8-2.5,6.2-3.2,9.5
	c-0.7,3.5-0.6,7-1.4,10.4c-0.3,1.1-0.2,2.4,0.1,3.6"/>
<path class="st0" d="M240.9,242.5c-0.7-0.5-0.5-1.3-0.5-2c-0.1-4.1,0.3-8.2,1-12.2c0.2-1.4-0.1-2.9-0.3-4.3c-0.1-0.7-0.1-1.3-0.1-2
	c-2.8-0.7-4.6-2.9-6.8-4.5c-1.1-0.8-2-2.2-3.3-2.6c-2.4-0.7-4.9-1.6-7.5-1c-2.3,0.5-2.7,0.4-3.7-1.8c-0.6-1.2-1.2-2.3-1.8-3.4
	c-1.9-3.6-5-5.2-9-5c-0.6,0-1.1,0-1.6,0.5c-1.1,1.2-2.4,2.2-3.7,3.4c-1.4-1.1-3-1.7-3.9-3c-0.6-0.8-1.5-0.7-2.2-0.9
	c-4.8-0.8-9.6-0.9-14.4,0.3c-1.3,0.3-2.7-0.1-3.9-0.4c-2.8-0.5-5.5-0.4-8.3,0.1c-2.4,0.4-4.6,0-6.9-1.1c-1.8-0.8-3.8-1.4-5.7-2"/>
<path class="st0" d="M254.1,182.1c-1.2-2.8-1.6-5.5-0.5-8.7c1-3,1.1-6.4,0.9-9.7c-0.4-4.5-1.5-8.8-3.3-12.9c-0.9-2-0.9-4.1-1.4-6.1
	c-0.7-2.6-1.5-5.3-3.1-7.6c-1.6-2.3-2.4-5-4-7.4c-1.6-2.4-3.7-4.2-6.2-5.5c-3-1.5-4.1-4.5-5.7-7.1c-0.3-0.5-1-0.8-0.4-1.9
	c-3.8,1.5-6.6,3.3-8.9,6.2c-3.4,4.3-6.3,8.9-9.5,13.4c-2.6,3.7-4.6,7.9-7.2,11.7c-1.2,1.8-3.2,2.8-4.3,4.7"/>
<path class="st0" d="M133.7,259.6c-0.5-0.4-1.2-0.3-1.6-0.1c-2.9,1.3-6.2,1.1-9.2,1.8c-1.8,0.4-3.7,0.8-5.4,1.9
	c-2.1,1.3-4.3,2.4-6.3,3.8c-0.9,0.6-1.8,1.2-2.5,2c-1.9,2-4.4,2.8-6.8,3.8c-2.3,0.9-5,0.6-7.2,1.9c-0.2,0.1-0.8-0.1-1.1-0.5"/>
<path class="st0" d="M131.4,268.4c-5.3-0.5-10.3,0.1-15.1,2.5c-4.3,2.1-8.2,4.8-12.8,6.3c-3.2,1.1-6.4,1.6-9.7,0.4"/>
<path class="st0" d="M97.2,254c0.3-1.1,0.1-2-0.9-2.7c-0.8-0.6-1.5,0.1-2.1,0.4c-2.7,1.4-4.8,3.5-7.1,5.5c-2.5,2.3-5.2,4.5-8.1,6.3
	c-1.4,1-3,1.3-4.7,1.2c-1.5,0-3-0.1-4.5-0.2c-2.1-0.1-3.8-1.2-5.4-2.5c-0.8-0.7-1.7-1.3-2.5-2"/>
<path class="st0" d="M297.8,183.5c-0.6-1.2-1.9-1.6-3.1-1.9c-2.2-0.7-4.4-1.7-6.8-1.5c-1.1,0.1-2.3-0.3-3.4-0.7
	c-4.4-1.6-8.7-1.1-13.1-0.2c-3.7,0.7-7.1,2.2-10.8,3.1c-2,0.5-3.8,0.3-5.8,0.1c-1.6-0.2-3.2,0.4-4.5,1.4c-2.4,2-5.4,2.9-8.2,3.8
	c-2.4,0.8-4.6,1.7-6.6,3"/>
<path class="st0" d="M133.7,66.2c-1.3-1.6-3.4-1.1-5-1.8c-0.3-0.1-0.7,0-0.9-0.2c-1.9-1.5-4.5-1.7-6.3-3.2c-0.3-0.3-0.8-0.6-1.1-0.5
	c-2.8,0.5-5.5-0.3-8.3,0.1c-3,0.5-6,0.9-8.8,2c-2.4,1-3.4,2.7-3.4,5.2c0,1.3,0,2.5,0,3.8"/>
<path class="st0" d="M58.7,184.9c0.1,1.4-1,2.4-1.5,3.6c-1.2,2.8-0.7,5.3,0.6,7.7c0.7,1.2,1.6,2.3,2.2,3.6c0.6,1.3,0.5,2.4,0,3.4
	c-0.6,1.3-1.3,2.6-2.2,3.8c-1.6,2-2.2,6.4-0.2,9.2c1.1,1.6,2.4,2.9,3.5,4.4"/>
<path class="st0" d="M239,156c-0.2,0-0.5,0-0.7,0.2c-2.7,2.3-6,3.9-9.2,5.3c-4.4,1.9-8.6,4.2-13.1,5.9c-4.2,1.7-8.1,4.1-11,7.7
	c-0.3,0.4-0.9,0.9-0.4,1.6"/>
<path class="st0" d="M67.9,169.6c-4.4-0.8-8.4,0.4-12.4,2.1c-6.1,2.5-11.4,6.4-17.1,9.6c-4.8,2.6-9.8,3.5-15.1,2.5
	c-2.4-0.5-4.1-2-5.9-3.4"/>
<path class="st0" d="M76.3,222.7c0.5,1.6,0.1,3.1-0.4,4.7c-1.7,5.8-4.7,10.9-7.9,16c-0.8,1.4-1.7,2.7-2.7,3.9
	c-2.4,2.9-3.7,6.5-5.2,9.9c-0.6,1.5,0,3,0.4,4.5c0.6,2.3-0.1,4.3-0.8,6.3c-0.6,1.8-1.2,3.4-0.4,5.2c0.3,0.7,0.3,1.7,0.2,2.5
	c-0.2,1.2-0.2,2.3,0.1,3.4c0.7,3.3,2.2,4.4,5.4,4c3.8-0.5,7.3-0.3,10.4,1.9c1.8,1.2,3.7,1.1,5.6,0.8c3.6-0.5,6.9-1.6,9.5-4.3
	c1.9-2,3.5-4.1,4.2-6.8"/>
<path class="st0" d="M89.1,178.1c0,1,0,1.7,1.4,2.2c5,1.8,9.7,4.4,14.1,7.4c3.1,2.1,6,4.5,8.2,7.4c1.6,2.1,3.4,4.2,4.8,6.6
	c1,1.6,2.9,2.7,4.8,3.4c0.9,0.4,1.9,0.5,2.9,0.7"/>
<path class="st0" d="M127.1,217c3.4,5.1,5,11,6.5,16.9c1.2,4.6,1.6,9.2,1.5,13.9c0,4-0.9,7.9-1.1,11.9c-0.2,4.1-1.4,8.3-0.4,12.4
	c0.4,1.8,0.8,3.6,1.2,5.4c0.7,2.6,3.1,3.5,5.2,4.3c4.1,1.5,8.2,1.6,12.2-0.3c3.1-1.5,5.1-4,7.1-6.7c1.2,0.7,2.5,1.3,3.7,2
	c1.3,0.7,2.4,0.8,3.4-0.5c0.3-0.4,0.7-0.6,1.1-1c1.2,0.2,2,1.1,2.9,1.6c1.6,1,3.4,0.7,4.9-0.5c1-0.8,2.3-1.2,3-2.4
	c0.4-0.7,0.9-0.2,1.3-0.1c0.7,0.1,1.4,0.4,2,0.7c2.9,1.8,5.6,0.6,8.3-0.4c1.8-0.6,2.2-2.7,1.5-4.5c-1-2.6-2.2-5.3-1.8-8.3"/>
<path class="st0" d="M212.5,37.4c1.6-3.4,2.6-7.1,5.8-9.5c0.4-0.3,0.8-0.8,0.5-1.2c-0.3-0.5-0.9-0.6-1.4-0.5
	c-1.2,0.1-2.4,0.2-3.5,0.8c-0.8-0.3-1.1-1.1-1.5-1.7c-1.2-2-2.9-3.1-4.9-2.1c-1.5,0.8-2.2,0.2-3.1-0.6c-1.7-1.5-2.1-1.4-3.6,0.1
	c-1.1,1.1-0.9,2.6-1.4,3.8c-1.1,2.4-2.5,4.7-3.5,7.2c-0.8,2-0.3,4-0.7,6"/>
<path class="st0" d="M231,122c0,0.7-0.1,1.1-0.7,1.7c-1.5,1.3-2.8,2.9-4.7,3.8c-0.3,0.1-0.6,0.4-0.7,0.7c-1.9,3.6-5.2,6-7.6,9.1
	c-2.9,3.6-5.4,7.6-6.4,12.3c-0.2,1-0.5,2-0.7,3.1c-0.1,0.5-0.2,1.2,0.7,1.3"/>
<path class="st0" d="M167.5,164.3c1.2,3,2.3,6.1,3.2,9.3c0.5,1.8,0.3,3.6-0.3,5.2c-0.5,1.2-0.5,2.5-1,3.6c-0.1,0.3-0.2,0.8-0.1,0.9
	c1.7,2,1.2,4.4,1.2,6.7c0,1.9-0.1,3.8-0.2,5.8"/>
<path class="st0" d="M229.6,115.3c-0.7-2.5-1.6-5-2.2-7.5c-0.7-2.8-3-4.5-5.7-4.6c-1.9-0.1-4.1,0.7-5.6,2.5
	c-1.8,2.2-3.8,4.1-5.7,6.1c-0.8,0.8-2.1,0.9-3.1,1.6c-0.6,0.4-1.2,0.8-1.8,1.3"/>
<path class="st0" d="M244.4,59.5c-1.9,1.1-3-0.5-4.3-1.3c-1.8-1.1-3.4-2.6-5.2-3.5c-3.4-1.7-6.9-2.7-10.6-3.3
	c-1.2-0.2-2.5-0.6-3.8-0.8c-2.7-0.5-5.3-0.2-7.7,1.3"/>
<path class="st0" d="M166.6,64.8c-0.4-2.1-3.5-4.4-6.1-4.5c-4.2-0.2-7.5,1.6-10.7,4.3c-3.8,3.3-6.1,7.5-8.2,11.9
	c-0.3,0.6-0.3,1.3-0.4,2"/>
<path class="st0" d="M233.2,192.1c1.3-2,3.3-0.9,4.7-0.6c5,1.1,9,3.9,12.4,7.7c0.9,1,1.6,2.3,2.1,3.6c0.3,0.8-0.2,1.9-0.7,2.5
	c-1.4,1.4-1.9,3.5-3.6,4.7c-0.2,0.2-0.4,0.4-0.4,0.7c0.1,1.2-0.3,2.2-0.7,3.2c-0.2,0.7-0.2,1.5,0.6,2.2c1.1,0.8,1.9,1.9,2.9,2.7
	c1.1,0.8,1.1,2.3,0.2,3.4c-0.4,0.5-0.8,1-1.3,1.4c-0.9,1-1.5,2.1-0.7,3.4c1.6,2.7,0.3,5.2-0.8,7.5c-0.9,2.1-2.6,3.6-4.5,4.9
	c-1.4,0.9-1.9,2.3-2.8,3.5c-0.5,0.7-0.5,2,0.1,3"/>
<path class="st0" d="M120.9,131c0.4,3,1.4,5.6,3.4,7.9c2.3,2.6,3.3,6,5.1,8.9c2.2,3.6,3.1,7.6,5.1,11.2c0.4,0.8,0.7,1.9,0.2,2.9"/>
<path class="st0" d="M294.7,214.8c0.1,1.1-0.9,1.6-1.5,2.1c-3,2.9-6,5.8-9.2,8.5c-2.2,1.9-5.1,1.9-7.9,1.9c-2.6,0-5.3-0.3-7.9,0.3
	c-0.5,0.1-1,0-1.4,0"/>
<path class="st0" d="M89.8,72.7c2-0.5,4-0.6,5.9,0.4c0.9,0.5,2.1-0.1,2.4-0.4c1.5-1.3,3.2-0.6,4.8-0.6c3.3-0.1,5.7,1.4,7.6,4.2
	c1.5,2.3,3.8,3.5,6.8,2.6c2-0.6,3.2,1,4.5,2.4c2.6-2.4,5.9-3.1,9.1-3c3.1,0.1,6.3-0.1,9.4,0.6c0.2,0.1,0.5,0.1,0.7-0.2"/>
<path class="st0" d="M164.8,57.9c0.2-0.6,0-1-0.4-1.5c-1.3-1.6-2-3.4-2.5-5.5c-0.9-4.6-3.5-8.3-7.8-10.4c-0.8-0.4-2-0.2-3,0
	c-2.1,0.3-4.1,0.7-6.1,1.3c-0.8,0.2-1.4,0.9-2.2,1.4"/>
<path class="st0" d="M172.4,100.6c0.4-3.6,0.9-7.2,0.6-10.8c-0.1-0.7-0.1-1.4-0.6-2c-1.3-1.7-1.6-3.6-2-5.6
	c-0.1-0.6-0.3-1.5-0.7-1.8c-2.5-1.7-2.5-4.5-3.3-6.9c-0.2-0.6-0.4-0.5-0.8-0.5"/>
<path class="st0" d="M175.3,34.2c-1.4-0.5-2.7-0.1-4,0.3c-3.1,1.1-9.7,5-11.8,7.1c1,1,2.1,1.8,3.5,2.3c2.1,0.8,3.8,2.2,5.2,3.9
	c0.6,0.8,0.3,1.5-0.2,2.2c-1.8,2.4-1.3,6.8,0.9,8.6c1,0.8,2.3,0.7,3.4,0.8c2.7,0.2,4.8,1.7,6.6,3.4c2.7,2.6,3.7,2.4,7.1,1.3
	c1.5-0.5,2.8-0.2,3.9,0.5c0.9,0.5,2,0.9,2.7,1.8c1.2,1.4,2.7,1,4.1,0.7c4.3-0.8,8.5-0.6,11.9,2.7c1.1,1.1,1.5,3.9,0.7,5.4"/>
<path class="st0" d="M254.8,35.5c-2.3,0.7-4.6,1.1-7,1c-1.7-0.1-3.5,0.7-4.8,1.8c-3.1,2.5-6.2,4.8-9.4,7.2c-2,1.5-4.4,2-6.3,3.4"/>
<path class="st0" d="M194.3,98.8c-2.2,0.1-3.9-1.3-5.9-1.9c-2.7-0.8-4.9-0.4-7,1.2c-2.2,1.6-4.8,2.4-7.2,3c-1.2,0.3-3.1,0.3-4.4-0.6
	c-1.8-1.1-3.4-1.3-5.2,0c-2.3,1.6-4.8,1.9-7.5,1.1c-2.3-0.6-4.6-0.7-6.9,0.3c-1.1,0.4-2.1,0.8-3.4,0.8c-1.2,0-2.1,1-2.7,1.9
	c-1.8,2.7-3.8,5-7.1,5.9c-1.2,0.3-1.4,1.6-2.3,2.2c-0.1,0.1-0.2,0.7,0.1,1.1c2.4,2.5,3.1,5.7,3.4,9c0.2,2.4,2.2,3.4,3.4,5.1
	c2.2,3,5.5,3.7,8.8,4.1c3.8,0.6,7.5,1.6,10.7,4.1c1.6,1.3,3.9,1,5.9,0.9c1,0,2-0.1,2.7,0.9"/>
<path class="st0" d="M199.4,216.8c0.7,1.9,1.8,3.6,3.2,5.1c1.3,1.4,1.5,3.3,1.4,5c-0.4,4.9-2.7,8.9-6.4,12c-1.6,1.3-2.4,2.7-2,4.9
	c0.3,1.8,0.4,3.4,2.3,4.6c1,0.6,0.8,2.4,0.4,3.7c-0.4,1.2-1.2,1.7-2.5,1.7c-1.3,0-2.4,0.5-3.2,1.6"/>
<path class="st0" d="M117.7,146.8c2,0.1,2.3,0.5,2,2.3c-1,5.1-1.6,10.1-1.4,15.3c0.2,4.4,0.2,8.8,0.8,13.1c0.6,4.7,2.8,8.8,5.1,12.9
	c0.6,1,0.3,2.4,1.7,3.2c0.8,0.4,1.5,1.1,2.4,1.4c3,1.1,5.9,2.5,8.6,4.1c0.6,0.4,0.8,0.9,1.1,1.5"/>
<path class="st0" d="M61.9,167.3c-4.2-0.4-8.3-1.5-12.2-2.9c-2.2-0.8-4.5-1.1-6.8-1.4c-5.7-0.8-11.3,0-16.9,0.1c-6,0.1-12,0.4-18,1
	c-1.4,0.1-2.5-0.1-2.7-1.8"/>
<path class="st0" d="M168.1,159c0.2-0.2,0.5-0.5,0.7-0.5c3.3-0.1,6.2-2.4,9.5-2.1c3,0.3,5.7,1.6,8.3,3.3c2.5,1.7,2.8,4.4,3.7,6.9
	c0.3,0.9,0.8,1.1,1.6,1.3c3.6,0.7,5.9,2.1,6.6,5.9c0.7,4-0.2,7.8-1.2,11.7c-0.8,3.2-2.9,5.8-4.2,8.8c-0.2,0.5-0.9,1.2,0.1,1.6"/>
<path class="st0" d="M104.2,109.4c0.7,5.7,0.4,11.3-1.7,16.8c-1.6,4.2-3.7,8.3-4.6,12.7c-0.4,1.9-0.8,3.6-0.6,5.6
	c0.2,2.1-1.1,4.1-0.8,6.3c0.2,1.7,0.4,3.4,0.8,5c0.2,1.2,2.2,1.9,3.4,1.4c2.2-1,4.3-2.2,5.9-3.9c2.1-2.2,4.5-4.2,5.6-7.2"/>
<path class="st0" d="M102.9,94.1c1.6,0.2,2.5,1.5,3.8,2.2c0.6,0.4,1.2,0.9,1.8,0.8c2.8-0.3,3.3,1.8,3.9,3.7c0.3,0.8,0.5,1.7,1.1,2.3
	c2.8,3,4.6,6.5,6.4,10.2c1,2.1,2.3,4.1,2.6,6.5c0.1,0.5,0.6,0.3,0.9,0.5"/>
<path class="st0" d="M123.3,40.5c-1.3,1.3-3.1,1.6-4.7,2.1c-5.5,2-11,4-15.8,7.4c-1.3,0.9-2.1,2.3-2.4,3.9"/>
<path class="st0" d="M68.4,170c0.8,0.9,1.9,0.9,2.9,1.2c5.5,2.1,11.3,3.2,16.9,5.1c1.7,0.6,3.4,1.3,5,2"/>
<path class="st0" d="M110.3,133.7c0.1,2.1,1.2,4,0.5,6.1c-0.7,2.3-1.9,4.3-3.9,5.8c-1.8,1.3-3.6,2.7-5.1,4.5c-1.6,2.1-2.4,4.4-3,6.9
	"/>
<path class="st0" d="M267.8,226.3c-0.2,0-0.7,0-0.7,0c-0.4,3-3.3,3.8-5.1,5.5c-1.5,1.5-3,2.8-2.7,5.1c0.2,1.2-0.3,2.2-1.3,2.7
	c-2.5,1.4-4.7,3.4-7.5,4.1c-1.2,0.3-2.5,0.4-3.8,0.6c-2.5,0.4-4.8,1.9-7.4,2.1"/>
<path class="st0" d="M236.1,135.6c-3.1-0.7-5.5,0.9-7.7,2.7c-2.4,2-5.1,3.8-7.5,5.8c-2.6,2.2-5,4.9-5.4,8.7"/>
<path class="st0" d="M38.2,168.4c-3.3-0.2-6.6,0.4-9.9,0c-1.5-0.2-2.9-0.5-4.3-0.8c-2.6-0.5-5.1,0.5-7.5,0.9
	c-0.8,0.1-1.7,0.1-2.3,0.7"/>
<path class="st0" d="M169.7,213c-0.6-1.6-2.2-1.7-3.4-2.1c-1.3-0.4-2.7-0.4-4.1-0.4c-0.7,0-1.4,0.2-2,0.8c-0.9,0.9-1.9,1.7-3,2.4
	c-2.1,1.3-4.3,0.7-6.5,1c-1.1,0.2-2.3,0.2-3.4-0.1"/>
<path class="st0" d="M95.4,125.9c-1.4,2.1-3.2,3.9-4.3,6.3c-1.6,3.5-2.1,7.2-2.3,11c-0.1,1.8-0.1,3.6-0.2,5.4c0,0.9-0.1,1.7,1.1,2"
	/>
<path class="st0" d="M41.8,108.5c-1.5-0.9-2.7-2.3-4.1-3.3c-2.6-1.9-5.2-1.8-8.2-1.6c-1.5,0.1-3,0.8-4.7,0.5
	c-1.3-0.3-2.5-0.5-3.2-1.7c-0.2-0.4-0.5-0.1-0.7-0.2"/>
<path class="st0" d="M138.8,125.4c-2,0.5-3.8,1.7-5.9,1.6c-0.5,0-1.1-0.1-1.6-0.1c-1.7-0.1-3.4-1.1-5.1,0.3c-0.3,0.3-1.1,0.1-1.6,0
	c-2.3-0.4-4.5-0.1-6.7,0.9c-0.6,0.3-1.1,0.4-1.3-0.5c-0.6-3.8-2.3-7.1-4-10.4c-1.1-2.1-1.5-4.2-2.1-6.3"/>
<path class="st0" d="M139.6,59.9c0.8,0.9,0.4,1.6-0.4,2.3c-3.5,3.4-7.5,5.9-12.2,7.2c-2.4,0.7-4.8,1.6-7,2.7c-2.8,1.3-5.3,3-6.8,5.7
	"/>
<path class="st0" d="M203.7,114.4c0.6,0.1,1.2-0.4,1.6,0.4c-0.1,3.4-3,4.6-5.2,6.3c-3,2.2-6.4,3.7-9,6.5c-2,2.1-2.2,3.9-0.7,6.5"/>
<path class="st0" d="M165.6,41.8c-0.2,0.9,0.3,1.4,0.9,1.8c3.7,2.5,7.6,4.8,12.1,5.7c2.1,0.5,4.4,1.1,6.6,0.7"/>
<path class="st0" d="M79.7,286.6c-0.6,2.9,0.6,5.4,2.7,5.7c1.6,0.2,3.2-0.3,4.7-0.9c1.7-0.7,3.4-1,5.2-1.1c1.7-0.1,3.3-0.3,5-0.3
	c2,0,3.6,0.9,3.7,2.2c0.1,0.8,0.3,1.6,0.4,2.3c0.2,1.2,0.5,2.3,1.8,2.7c1,0.3,3.6-0.8,3.9-1.6c0.7-1.7,2.5-2.2,3.5-3.6
	c0,0,0.3,0.1,0.5,0.2"/>
<path class="st0" d="M184.8,199c-0.7-2.3,0.4-4.4,1.4-6.2c1.1-2,1.5-4.2,2.6-6.2c0.3-0.6,0.4-1.2,0-1.8c-0.4-0.7-1.1-0.7-1.8-0.4
	c-0.6,0.2-1.3,0.2-2.2,0.4c-0.7-3.6-1.1-7.4-4.4-10c-1.5,1.9-1.6,4-2,6.1c-0.6,3.2-0.2,6.4-0.6,9.5c-0.3,2.4-0.3,4.7-0.1,7"/>
<path class="st0" d="M161.6,73.4c0,1.1,0.7,1.8,1.3,2.5c1.9,2.4,2.7,5.2,2.7,8.3c0,2.1,1.3,3.6,2.1,5.4c0.5,1.3,0.9,2.6,1.4,3.8"/>
<path class="st0" d="M135.5,174.5c-0.9-0.4-1.2-1.2-1.6-2c-3.4-6.1-7.9-11-14.2-14c-0.3-0.2-0.7-0.2-1.1-0.4"/>
<path class="st0" d="M108.9,230.8c-0.8,1.5-1.1,3.1-1.2,4.7c-0.2,2.2-1.1,4.1-1.9,6.1c-1.2,2.7-2.8,5.2-3.9,7.9
	c-1.5,3.5-3.2,6.8-4.8,10.3c-0.2,0.5-1,1-0.4,1.8"/>
<path class="st0" d="M105.5,166.9c2.5,2.4,3.2,5.6,4,8.8c1,4.2,2.9,7.8,6.8,10.1"/>
<path class="st0" d="M150.4,159c0.4,1.4,0.3,2.7-0.4,3.9c-1.9,3.6-2.5,7.3-0.9,11.2c0.4,1,0.4,2.1,0.4,3.2c-0.1,1.6-0.1,3.3,0.5,4.9
	c0.2,0.6,0.2,1.4,0,1.9c-1.3,2.9,0.4,5.6,0.9,8.3c0.1,1,0.9,2.1,1.1,3.1c0.5,2.4,2.6,3.2,4.2,4.4c0.2,0.2,0.9,0.2,1.1-0.3"/>
<path class="st0" d="M52.7,172.5c-0.1-0.2-0.2-0.5-0.4-0.5c-6.2-1.8-12.4-3.1-18.3,0.4c-2.7,1.6-5.3,3-8.3,3.7
	c-5.5,1.2-10.9,1.3-16.2-1c-0.9-0.4-2-0.6-2.9-1.1"/>
<path class="st0" d="M160.5,81c0.6,0.6,0.8,1.4,1.1,2.2c1.3,3.6,2.9,7,3.6,10.8c0.4,1.9-0.1,3.9,0.5,5.8"/>
<path class="st0" d="M347.6,193.6c1.1-0.2,2,0.5,3.1,0.4c0.5,0,0.9,0.4,0.9,1c0,0.6-0.2,0.9-0.7,1.1c-1.9,0.7-3.7,1.4-5.2,2.8
	c-0.5,0.5-1.6,0.8-2.3,0.2c-0.6-0.5-0.5-1.4-0.2-2.1c0.6-1.4,1.1-2.8,3.1-2.7c0.4,0,0.7-0.4,1.1-0.7"/>
<path class="st0" d="M233.6,146.1c-2.9,2.6-6.3,4.4-10.1,5.4c-2.9,0.8-5.9,1.9-9,1.6c-2.4-0.2-4.8-0.6-7.2-1.1
	c-1.8-0.4-3.5-0.5-5.2-0.5c-3.3,0-6.4,0.7-9.5,1.6c-0.2,0.1-0.5,0-0.7,0"/>
<path class="st0" d="M168.1,114.8c-0.8,2.6-1.9,5.1-1.8,7.9c0,1.3-0.4,2.5-0.6,3.8c-0.4,1.8-0.4,3.7-0.6,5.5c-0.2,1.6,0.4,3,0,4.5"
	/>
<path class="st0" d="M305.9,200.1c-0.2-0.8-0.9-0.5-1.4-0.5c-4-0.2-8.1,0-12-1.1c-1.5-0.4-3-0.7-4.5-0.5c-0.9,0.1-1.8-0.1-2.5-0.6
	c-3.3-2-7-2.9-10.8-2.4c-1,0.1-1.6-0.9-2.5-0.4"/>
<path class="st0" d="M231.8,248.1c-3.2,0-6,1.6-8.4,3.3c-2.5,1.9-5.2,3.9-5.8,7.4c-0.1,0.5-0.4,0.7-0.6,1.1"/>
<path class="st0" d="M83.2,59.7c-0.9-0.5-0.9-1.6-1-2.3c-0.6-3-2.4-5.3-4.4-7.5c-2.1-2.4-4.6-4.3-7.6-5.6"/>
<path class="st0" d="M172.8,7.4c-0.1,0.4-0.4,0.6-0.4,1.1c0.1,3.9,0.7,7.7,2.2,11.3c0.2,0.6,0.8,1.1,1.2,1.6c0.9,1,2,1.9,2.4,3.2
	c0.1,0.3,0.4,0.8,0.7,0.9c2.2,0.8,4.1,2.4,6.5,3.1"/>
<path class="st0" d="M183.2,75.6c-2.3,4.4-2.4,9.3-3.5,14c-0.7,3.2-1.1,6.6-3.8,9c-0.7,0.6,0.2,0.8,0.2,1.3"/>
<path class="st0" d="M60.1,139.2c3.1,3.5,3.5,7.6,2.7,12.1c-0.3,1.6-0.7,3.2-0.4,4.9"/>
<path class="st0" d="M205.1,79c-0.1,0.5-0.6,0.4-0.9,0.3c-1.7-0.5-3.1-0.2-4.2,1.6c-0.9,1.4-1.6,2.8-2.2,4.3
	c-0.3,0.9-0.9,1.9-1.4,2.7c-1,1.5-2.1,3-2.9,4.7c-0.7,1.5-2,2.4-3.6,3.1"/>
<path class="st0" d="M179.6,37.8c-1.1-3.5-3.4-6.3-5.2-9.4c-1.3-2.3-3-4.2-5.1-5.8c-0.5-0.4-1.5,0-1.5-1.1"/>
<path class="st0" d="M261.6,199.7c1.1,2.1,3,3.4,5,4.8c2.9,2.1,6.2,3,9.5,4.1c2.2,0.8,3.6,2.6,5.7,3.4c1.5,0.6,3.1,0.6,4.3,1.8"/>
<path class="st0" d="M211.1,54.3c-1.6,2.6-3.5,4.7-6.4,6c-2.1,1-4.1,2.1-6,3.5c-0.9,0.7-1.7,1.5-1.3,2.9"/>
<path class="st0" d="M238.4,115c0.4-2,1.4-3.9,2.5-5.6c1.1-1.6,2.9-2.7,5.6-1.4c0.7,0.3,1.1,0.1,1.6-0.2c2.2-1.2,3.1-1,4.7,0.7
	c0.8,0.9,1.5,2.2,3.1,0.9c0.3-0.2,1-0.2,1.4,0.3c0.6,0.6,1.4,1,2.1,1.5c1.1,0.8,2.1,1.2,3.5,0.9c1.2-0.3,2.4,0.2,2.6,1.6
	c0.3,1.5,1.4,1.5,2.4,1.2c1.8-0.6,3,0,4,1.5c0.7,1,1.5,1.7,2.7,2.2c1.2,0.5,2.5,1.5,2.4,3.3c-0.1,0.8,0.6,0.9,1.2,1.1
	c1.9,0.5,3.8,0.9,4.8,3c1-1.4,2.3-1.1,3.4-0.6c1.2,0.5,1.6,2.4,1.3,3.9c0.8,1,2.1,0.5,3.1,0.8c1.2,0.4,2.2,0.7,2.5,2.1
	c0.2,0.7,0.7,0.9,1.2,1.1c0.3,0.1,0.8,0,0.9,0.2c1.4,2.3,3.7,3.7,5.6,5.6c0.6,0.6,0.4,1.4,0.4,2.1c-0.1,0.7-0.3,1.5-0.5,2.2
	c-0.9,2.8-0.9,2.8,1.4,4.7"/>
<path class="st0" d="M217.4,260.5c-2.5-1.8-5.5-2.2-8.5-2.5c-1.2-0.1-2.6,0.3-3.8,0.7c-2.4,0.8-4.8,0.9-7.2,1.4
	c-1.6,0.3-3.2-0.1-4.7-0.9"/>
<path class="st0" d="M134.2,186.7c-0.8-1.2-0.1-2.3,0.2-3.4c0.6-2.5,1.1-5,1.2-7.6c0.1-1.9,1-3.6,0.8-5.6c-0.2-1.3,0-2.7-0.2-3.9
	c-0.4-1.8-1-3.4-2.3-5c-1.8-2.1-3.5-4.3-5.4-6.3c-2.5-2.6-5-5.2-8.4-6.7"/>
<path class="st0" d="M96.1,61.3c-2.8,2.7-5.5,5.7-6.3,9.6c-0.4,2-1.9,3.3-2,5.4c0,0.7-0.8,0.7-1.4,0.7c-1.1,0.1-2.2,0.2-2.9,1.4
	c-0.4,0.6-1.3,0.9-2.1,0.8c-1.2-0.1-2.2,0.2-2.5,1.4c-0.1,0.3-0.2,0.5-0.4,0.7c-1.2,1.3-2.5,2.4-3.3,4.1c-0.4,0.9-1.7,1.7-3,1.6
	c-0.9,0-1.4,0.3-1.8,1.1c-0.7,1.2-2,1-2.7-0.3"/>
<path class="st0" d="M100.8,293.4c-2.3-0.1-4.1,1-5.8,2.3c-0.9,0.7-1.9,1.1-3.1,0.9c-1.3-0.2-2.4,0.6-3.6,0.7
	c-0.8-0.3-1-1.1-1.6-1.6c-1.1-1-2.1-1-3.2,0c-0.7,0.6-1.4,1.2-2.2,1.8"/>
<path class="st0" d="M153.7,116c-0.4,0.2-1.1,0.1-1.1,0.9c0,0.8-0.1,1.7,0.6,2.3c4,4.2,7.6,8.7,10.8,13.5c0.1,0.2,0.4,0.2,0.5,0.4"
	/>
<path class="st0" d="M117.2,128.4c1.8,4.6,2.9,9.2,2.5,14.2c-0.1,1.5,0.6,3-0.2,4.5"/>
<path class="st0" d="M156.6,201.9c-1.9-0.1-3.4,1-5,1.6c-2.9,1.1-5.9,1.4-8.8,1.9c-0.8,0.1-1.6,0.1-2.3-0.3"/>
<path class="st0" d="M350,163.4c-0.8-1.9-2.5-1.5-4-1.6c-1.6-0.1-3.2,0-4.9-0.1c-0.6,0-1.1,0.1-1.6,0.4c-0.4,0.2-0.7,0.6-1.3,0.5
	c-2.1-0.6-2.7,0.9-3.4,2.4c0.8,0.6,1.4,0.9,2.5,0.7c1.6-0.3,3.2-0.3,4.7-0.9c0.2-0.1,0.6-0.4,1.1-0.1c2.6,1.7,4.8,0.8,6.8-1.2"/>
<path class="st0" d="M110,110.8c-1.8-1.1-3.2-2.7-5.2-3.7c-1.3-0.7-2.7-0.8-4-1.1c-0.9-0.2-1.3,0.4-1.8,1.2c-0.9,1.4-1.2,3.3-3,4"/>
<path class="st0" d="M144.7,218c-0.3,2.8,0.5,5.1,2.1,7.4c2.1,3.1,3.6,6.5,3.7,10.4c0.1,2.8,0.8,5.6,0.3,8.5"/>
<path class="st0" d="M171.7,38.3c0.8-0.1,1.6,0.2,2.4,0.5c4.8,2.3,7.9,6.5,11.1,10.5c0.2,0.2,0.1,0.5,0.5,0.7
	c2.6,1.2,3.9,3.8,5.8,5.7c2.1,2.1,4.8,3.2,7.7,4.1c1.3,0.4,2.8-0.3,3.8,0.8"/>
<path class="st0" d="M183.2,16.6c1.9-2.3,1.7-3.9-0.3-6.1c-2.2-2.4-4.8-4.3-8.1-4.6C171.3,5.5,168,6,164.7,7
	c-4.2,1.2-7.1,3.8-9.3,7.4c-0.9,1.4-1.9,2.6-2.5,4.3c-0.4,1.2-1.7,2.3-3.1,2.9"/>
<path class="st0" d="M199,141.8c-1.4,0-2.1,1.1-3,1.8c-2.3,1.8-4.6,3.7-6.8,5.6c-0.6,0.5-1.1,0.3-1.6,0.3c-1.5,0.1-3.1-0.1-4.5,0.6"
	/>
<path class="st0" d="M199.9,78.1c0-1-0.2-1.9-1.3-2.4c-0.6,0.2-1.2,0.5-1.8,0.8c-0.3,0.2-0.9,0.4-0.9,0.5c0.3,1.7-1.1,2.1-2,2.9
	c-1.2,1.1-2.4,2.2-3.8,3.3c-2,1.6-3.8,3.5-5.5,5.5c-0.9,1.1-1.3,2.1-0.9,3.4"/>
<path class="st0" d="M150.3,61.5c-0.6-0.4-1.2-0.7-1.8-1.1c0.2-3.8,2.4-6.2,6-8c-2.4-1.6-4-0.3-5.4,0.5c-2,1.1-4.1,2.3-5.3,4.4
	c-0.4,0.7-1.2,1.2-2,1.2c-1.6,0.1-2.8,1.6-4.5,1.1c-0.4-0.1-0.8-0.2-1.1-0.7c0.8-1.5,2.5-2.2,3.9-3c1.7-1.1,2.1-2.2,1.6-4
	c-0.1-0.6,0-1.2,0-2c-0.3-0.3-0.9-0.6-1.6-0.3c-3.9,1.2-7.7,2.6-10.8,5.4c-0.9,0.8-2.3,1-2.9,2.3"/>
<path class="st0" d="M217,14.4c-0.4,0-1,0-0.7-0.5c0.6-1.2,0.3-2.4,0-3.6c-0.7-2.4,1.3-5.7,3.9-6.1c3.3-0.5,6.5-0.1,9,2.3
	c2,1.9,4,3.7,6.3,5.2c0.8,0.5,1.4,1.4,2.1,2.1c0.7,0,1.2-0.6,1.8-0.9"/>
<path class="st0" d="M150.8,21.8c3.4,2.1,7.2,3.3,11.2,3.8c1.1,0.1,2.2,0.9,3.2,0"/>
<path class="st0" d="M80.1,75.9c-4.8-3.9-10.2-4.2-15.6-2.1c-2.3,0.9-4,1.3-6.4,0c-2.5-1.3-5.4-1.9-8.4-1.9c-1.2,0-2.2,0.2-3.1,1.1"
	/>
<path class="st0" d="M185.7,117.3c-3,0.5-5.3,2.1-7.6,3.9c-2.6,2-4.5,4.6-6.4,7.2"/>
<path class="st0" d="M210,75.2c1.9,2,4.5,1.7,6.8,2.4c2.2,0.7,5,0.2,6.4,2.9c2.1-1.9,4.4-2.5,6.9-2c2,0.4,3.1,1.8,4,3.4
	c0.2,0.5,0.4,1.1,0.7,1.4c0.8,0.8,0.4,1.7-0.1,2.1c-1.3,1.3-1.8,3.1-2.5,4.7c-0.9,2.3-0.3,3.2,1.4,4c0.9,0.4,1.8,1,2.7,1.4
	c1.1,0.5,1.3,1.2,0.6,2.2c-0.5,0.7-1.1,1.4-1.3,2.3c-0.4,1.6-0.2,2.4,1.3,2.7c2.9,0.5,4.8,2,5.6,4.9"/>
<path class="st0" d="M137.7,199.3c1.4-2.9-0.1-8.3-2.9-10.1c-1.6-1.1-3.1-2.4-5-3.1c-0.9-0.4-1.9-0.2-2.7-0.9"/>
<path class="st0" d="M170.4,138.7c0.7,0.8,1.4,1.5,2,2.3c0.8,1.1,1.8,2,3.4,2.4c2.5,0.6,4.3,2.5,6.2,4.2c0.8,0.7,0.1,1.7,0.9,2.2"/>
<path class="st0" d="M97.2,56.1c-0.2-0.3-0.5-0.2-0.7,0c-4.2,4-7.6,8.5-10.2,13.7"/>
<path class="st0" d="M142.5,122c0.5,0.8,1.1,1.3,2.2,1.6c0.9,0.3,1.8,0.5,2.7,0.7c3.7,1.1,6.5,3.7,9.2,6.3"/>
<path class="st0" d="M205.9,12.6c-0.2-0.5-0.6-0.9-0.7-1.4c-0.3-1.1-1-1.2-2-0.9c-1.4,0.4-2.9,0.8-4.3-0.3c-0.9-0.8-1.5,0.5-2.3,0.6
	c-0.6,0-1.1,0.8-1.6,1.2c-0.2,0.2-0.4,0.5-0.7,0.4c-3-1.1-5.4,0.4-7.9,1.6c-0.4,0.2-0.9,0.6-1.4,0.4"/>
<path class="st0" d="M249.2,26.1c-4.6,3.3-9.2,6.6-13.9,9.9"/>
<path class="st0" d="M146.8,180.6c-0.5,1.7-0.6,3.5-1,5.2c-0.4,1.8-1.4,2.9-2.6,3.9c-0.8,0.7-1.6,1.4-2.3,2.1c-0.6,0.6-1,1.1-0.5,2"
	/>
<path class="st0" d="M40.3,188.4c-3.5,1.7-5,4.7-5.2,8.5c-0.1,1.7,1.1,3,2,4.3"/>
<path class="st0" d="M200.3,79.9c-2-0.3-2.9,1.4-4.1,2.4c-3.2,2.6-5.5,6-8.1,9.2"/>
<path class="st0" d="M98.3,49.3c-0.4,0-0.8,0-1.1,0.3c-3.4,3.9-6.7,7.9-9,12.6"/>
<path class="st0" d="M130.6,50.2c-4.4-0.3-7.4,2-9.7,5.4c-0.7,1-1.2,2.5-2.9,2.5"/>
<path class="st0" d="M3.8,92.7c1.1-0.7,2.3-1.3,3.6-1.4c2.1-0.1,3.4,1.2,4.4,2.7c1.4,2,2.9,2.6,5.3,2c2.9-0.7,5.9-1.1,8.8,0.3"/>
<path class="st0" d="M113.4,155.3c-2.7-0.6-5.2-0.1-7.3,1.5c-2,1.4-4.5,2.5-5.1,5.3c-1.6,0.7-1.3,2.1-1.3,3.4"/>
<path class="st0" d="M169,158.1c-0.1-1.1-0.2-2.2-0.4-3.2c-0.1-0.8-0.3-1.1-1.3-1.3c-3.6-0.7-7.4,1.1-9.2,4.4"/>
<path class="st0" d="M35.3,88.5c-3.2-0.1-6.5,0.1-9.7-0.2c-2.1-0.2-4.1-1.1-6.1-1.5c-4-0.9-7.9-1-11.9,0.4c-2.2,0.8-4.4,1.6-6.8,1.9
	c-0.2,0-0.4,0.3-0.5,0.5"/>
<path class="st0" d="M49.7,64.1c-1.2-1.6-2.5-1.9-3.8-0.9c-1.8,1.5-3.2,3.1-5.7,3.7c-1.8,0.4-3.3,4.8-2.7,6.7
	c0.3,1.1,0.4,2.1,1.1,3.1c0.4,0.5,0.2,1.1-0.1,1.6c-0.5,0.9-0.5,1.9-0.2,2.7c-0.6,1.3-1.8,2-2.5,3.2c-1,1.5-0.1,2.8,0,4.3
	c0,0.2,1,0.5,1.7,0.5c4.2,0.3,8.5,0.5,11.9,3.7c1.2,1.1,2.9,1.6,4.5,2c0.9,0.2,1.7,0.6,2.5,0.8"/>
<path class="st0" d="M264.1,125.2c-1.5-0.1-2,1.2-2.5,2.2c-1.4,3.3-2.7,6.7-4,10.1"/>
<path class="st0" d="M135.7,87.6c-5,2.4-7.9,6.3-8.3,11.9c0,0.3-0.1,0.7,0.1,1.1c0.6,1.2,0.9,2.6,1.2,3.9c0.5,2,0.1,3.9-0.2,5.8
	c-0.3,1.3-0.2,2.6-0.3,3.9c-0.1,2.9-1.8,5.1-3.9,7c-0.2,0.2-0.2,0.5-0.4,0.7"/>
<path class="st0" d="M129.4,212.8c-1.3-1.5-3.7-2.1-5.6-0.9c-1.8,1.2-3.5,2.6-5,4.1c-1.1,1-0.8,2.3,0.5,4.3"/>
<path class="st0" d="M101.1,162.1c3.9,1.1,7.8,1.9,11.9,0.7c0.3-0.1,0.7-0.1,1.1-0.2"/>
<path class="st0" d="M255,188.7c0.9-0.1,1.7,0,2.5,0.5c1.2,0.8,2.6,1.2,4,1.2c2.1,0,3.7,1.6,5.8,1.7c0.1,0,0.2,0.4,0.4,0.7"/>
<path class="st0" d="M281.8,157.1c-1.3,0.5-2.4-0.2-3.6-0.5c-0.9-0.2-1.7-0.3-2.5,0c-2.1,0.9-4.1,1.8-6.1,2.7
	c-0.2,0.1-0.2,0.4-0.4,0.5"/>
<path class="st0" d="M144.3,149.1c-0.9,0-0.8-0.7-0.7-1.3c0.1-2.1-0.5-3.9-1.8-5.6c-1.3-1.7-2.8-1.8-4.1-0.2
	c-0.3,0.4-0.7,0.8-1.1,1.2c-1.9-2.6-2.3-5.8-4.2-8.2c-1.8,1.1-3.4,2.1-5,3.1"/>
<path class="st0" d="M177.8,113.3c-1.5-0.3-1.9,1-2.5,1.8c-1.5,2.1-2.9,4.2-4.7,6.1c-1,1.1-1.5,2.5-1.8,3.9"/>
<path class="st0" d="M162.7,70c-0.9-0.1-1.4-0.8-2.3-0.9c-2.2-0.2-3.1,0.3-4.1,2.9c-1,2.5-1.4,5,1.1,7c0.4,0.4,0.1,1.3,1.1,1.3"/>
<path class="st0" d="M106.9,134c-0.8-0.5-1.3,0-1.8,0.5c-2.1,2.4-4.4,4.6-6.2,7.4c-0.4,0.7-0.2,1.8-1.4,2"/>
<path class="st0" d="M143.8,152.9c0.9-1.7,1.7-3.5,3-5.1c2.1-2.4,3.6-2.4,5.4,0.4c0.6,1,1,1.9,1.1,3.1c0.1,1.4,0.4,2.7,1.2,3.8
	c0.5,0.6,1.1,1.2,1.1,2.2"/>
<path class="st0" d="M64.1,86.4c-1.4-0.8-2.9-0.4-4.3-0.3c-1.6,0.2-3.5-0.5-4.9,1c-0.1,0.1-0.1,0.2-0.2,0.4c1.2,2.1,3.5,3.1,5.4,4.9
	c-4.5,2.2-5.8,6.9-9.3,9.9c-1.6,1.4-2,3.8-2.6,5.9c-0.2,0.8-0.2,0.8-0.7,0.9c-2.9,0.6-5.4,1.6-5.9,5"/>
<path class="st0" d="M249.8,114.1c0.2,3.2-0.4,6.4-1.1,9.5c-0.2,0.9,0,1.9,0,2.9c0,1.3,0.1,2.6-0.5,3.8c-0.7,1.1-0.1,2.4-0.4,3.6
	c-0.3,0.9-0.6,1.5-1.2,2.1"/>
<path class="st0" d="M199,16.6c-0.4-0.6-0.1-1.6-1.1-1.8c-1.9,1.4-2.4,3.3-1.1,4.9c0.4,0.5,0.7,0.5,1.1,0c0.7-0.8,0.5-2,1.1-2.9"/>
<path class="st0" d="M299.2,185.5c-1.6,0.2-3.1-0.2-4.7-0.4c-3.8-0.5-7.4,0.4-11.2,0.7c-0.5,0-0.9,0.6-1.4,0.4"/>
<path class="st0" d="M72.9,155.3c1,0.9,2,1.8,3.1,2.7c1.9,1.7,2.2,4.1,2.5,6.5c0.1,0.7,0.6,1.4,0.2,2.1"/>
<path class="st0" d="M199.7,142.9c-1.4,1.5-3.5,2-4.9,3.6c-1.5,1.6-2.2,3.6-3.3,5.5c-0.2,0.3,0.1,0.8,0.2,1.3c-2.7,1.1-5.8,2-7,5.1"
	/>
<path class="st0" d="M140.4,66.4c-1.6,1.6-2.5,3.5-3.4,5.7c-0.8,2-1.4,4.2-2.9,6"/>
<path class="st0" d="M257.3,186.7c1.3-1.5,3.2-1.2,4.9-1.6c2.2-0.5,4.5-0.4,6.8-0.2c2,0.2,4.2-0.4,6.3-0.2c0.7,0.1,1.5,0.1,2.2,0.4"
	/>
<path class="st0" d="M377.3,219.8c0.3,0.5,0.9,0.2,1.2,0.4c1.4,0.7,1.3,1.6-0.1,3.8c-2.3-2.4-4.5-0.2-6.7,0.4
	c-0.7-2.5,2.2-4.9,5.4-4.5"/>
<path class="st0" d="M251.2,222.2c0.9,1,2.4,1.3,3.4,2.2c2.5,2.4,5.3,4.5,7,7.5"/>
<path class="st0" d="M34.2,150.6c-2-1-3.7-2.3-5.5-3.7c-1.3-1.1-3.3-1.3-5.1-1"/>
<path class="st0" d="M203.3,100.8c-1.3,1.2-1.3,2.8-1,4.3c0.4,2.7,0.3,5.6,2.4,7.8c0.2,0.2,0,0.9,0,1.4"/>
<path class="st0" d="M237.2,13.7c-0.7,0.4-1.4,0.4-2.2,0.4c-2.5-0.3-4,0.4-5.2,2.5c-0.5,0.9-1.1,1.8-1.7,2.7
	c-0.9,0.1-1.4-0.5-1.9-0.9c-2.6-1.7-5.8-0.5-7.3,1.8c-0.5,0.7-0.9,0.8-1.5,0.9"/>
<path class="st0" d="M223.7,31c-0.1,1.6-0.7,3.2-0.5,4.9c0.2,2.2-0.1,4.3-1.1,6.3"/>
<path class="st0" d="M144,177.8c0.3,2.1-1,3.6-1.6,5.4c-0.6,1.6-1.4,3.2-2.4,4.6c-0.7,1,0.1,1.5,0.2,2.2"/>
<path class="st0" d="M216.1,14c-0.9-0.3-1.3-1.1-1.6-1.8C214,11,213,10.9,212,11c-1.5,0.1-3,0.2-4.1,1.4c-0.4,0.4-0.9,0.8-1.4,0.5
	c-0.8-0.4-1.4,0-2,0.4c-0.2,0.1-0.9,0.4-1.1-0.3"/>
<path class="st0" d="M204.8,31c0.1,4.1-0.4,8.1-1.7,12.1c-1,3.1,0.1,6.2,2.9,8.2"/>
<path class="st0" d="M232.1,30.8c-1.7,0.6-3.4,0.8-5.2,0.1c-1.6-0.6-3.4-0.4-5,0.6c-2.4,1.4-3.6,3.7-5.6,5.4c-1,0.8-2,1.6-3.4,0.8
	c-1.1-0.5-1,0.7-1.4,1.2"/>
<path class="st0" d="M402.9,213c0.1,0.8,0.9,1.1,0.9,2c0.1,1.1,1,0.5,1.6,0.5c0.8,0,1.5-0.2,1.6-1.1c0.1-0.7-0.2-1.2-0.9-1.4
	c-1.1-0.4-2-1.4-3.3-0.2c-0.4,0.4-1.3-0.1-1.8-0.7"/>
<path class="st0" d="M161.6,8.5c0.5,0.8,0.5,1.8,0.7,2.7c0.2,0.8,0.4,1.5,0.9,2.2c3.6,4.8,8.2,8.5,13.7,11.2c0.3,0.1,0.6,0.2,0.9,0"
	/>
<path class="st0" d="M118.4,49.3c-2.8,0-4.8,1.4-6.5,3.6c-0.9,1.2-2.4,1.7-3.8,2.4"/>
<path class="st0" d="M267.4,126.1c-1.7-0.3-2,1.2-2.5,2.2c-1.2,2.3-2.2,4.8-2.9,7.4"/>
<path class="st0" d="M182.6,18.4c-1.1,1.8-0.6,3.7,0.2,5.4c1.4,2.8,3.2,5.4,4.8,8.1c0.4,0.6,0.9,1,1.6,1.3"/>
<path class="st0" d="M244.9,32.8c-0.1,0.2-0.2,0.7-0.4,0.7c-2.5,0.5-3.7,2.4-4.8,4.4c-0.9,1.5-2.4,1.7-3.6,2.5"/>
<path class="st0" d="M73.1,62.8c2.2-0.1,3.9,1.1,5.9,2.3c-2.1,1.7-5.1,1.3-6.3,4.1c2.3,0.6,4.1,2.8,6.8,2.4"/>
<path class="st0" d="M156.7,21.2c0.2,1.3,1.5,1.3,2.4,1.4c2.6,0.4,4.9,1.4,6.9,3.3c1.4,1.3,3.4,1.7,4.7,3.2c1.2,1.5,2.5,2.7,3.2,4.5
	"/>
<path class="st0" d="M145.4,94.6c-0.1,1.2-0.4,2.4-0.3,3.6c0.1,1.6,1.1,2.3,2.6,1.8c0.9-0.3,1.7-0.4,2.5-0.1"/>
<path class="st0" d="M44.8,80.4c-0.8-1.6-1.8-3-1.3-5.1c0.4-1.7,1.7-2.9,3.3-2.1c2,1,4.1,1.6,6,2.8c1.5,0.9,3.4,0.9,5.2,1"/>
<path class="st0" d="M38.9,123.6c-1-0.4-2.1-0.7-2.8,0.2c-1.1,1.3-2.8,2.4-2.2,4.5c0.2,0.8,0.6,1.5,1.8,1.7c1.7,0.3,3,1.4,4,2.8
	c0.4,0.6,0.6,1.5,1.4,1.8"/>
<path class="st0" d="M157.3,208c-1.9,1.2-4,1.1-6.1,1.4c-1,0.1-2.1,0.3-3.1,0.4c-0.3,0.6,0.1,1.3-0.3,1.7"/>
<path class="st0" d="M122.7,218.9c-3,1.9-6,3.7-9,5.6c-1.1,0.7-2.3,1.2-3.6,1.4"/>
<path class="st0" d="M45.7,95.7c-2.3-2.4-5.3-1.9-8.1-1.6c-1,0.1-2.1,0.7-2.8,1.4c-1.6,1.7-3.7,1.4-5.6,1.6"/>
<path class="st0" d="M329.1,209.1c2.3,1,2.4,1.1,2.1,3.3c-1.8-0.6-3.5,1.1-5.5,0.5c0.8-2,2.6-2.9,3.5-4.5"/>
<path class="st0" d="M224.6,61.9c1.9-0.9,3.8-0.6,5.8-0.5c2.7,0.2,5.5,1,8.3,0.1"/>
<path class="st0" d="M212,96.4c0.2-1.4-1.5-3.2-2.9-3.1c-0.2,0-0.6,0-0.7,0.2c-0.6,0.7-0.6,1.7-0.3,2.3c0.3,0.7,0.2,2.1,1.7,1.7"/>
<path class="st0" d="M56.5,77.2c-1.4,2.4-4,2.9-6.3,3.7c-0.8,0.3-1.5,0.6-2,1.7c0.5,0.5,1,0.9,1.4,1.4"/>
<path class="st0" d="M15,100c-0.6,0.7-1.2,1.3-1.8,2c-2.2,2.5-5.1,3.2-8.3,3.4c-1.3,0.1-2.5,0.1-3.6,0.8c-0.7,0.4-1.4,0.9-0.5,1.8"
	/>
<path class="st0" d="M62.1,298.9c2.1,0.8,5-0.6,4.9-3.3c-0.1-1-0.1-1.8-1.4-1.3"/>
<path class="st0" d="M325.5,139.6c1.5,0.6,3.6,0.1,4.8,1.8c-1.3,0.9-2.5,1.8-3.8,2.7c-0.7-0.7-1.7-0.8-2.6-0.2
	c-0.9,0.6-1.6,0.5-2.5,0c-0.6-0.3-1.4-0.5-2.1-0.4c-0.8,0.1-1.6-0.1-1.8-0.9c-0.2-0.7-0.1-1.4,0.7-2c1.8-1.4,3.6-2.6,6-1.1
	c0.3,0.2,0.8,0,1.2,0"/>
<path class="st0" d="M275.7,129c-3.4,1-6,3.2-8.6,5.2"/>
<path class="st0" d="M47.9,94.8c-3.7,2.1-7,4.6-7.9,9.2"/>
<path class="st0" d="M65.2,100.8c-0.3,0.7-0.6,1.3-1.6,1.5c-1.3,0.2-2.4,1.4-2.3,2.5c0.1,1.3,0.9,1.8,2.2,1.8c0.1,0,0.2,0.2,0.4,0.3
	"/>
<path class="st0" d="M302.8,208c0.8,0.5,0.2,0.9-0.2,1.3c-2.1,2.3-4.7,4-7,6.1c-0.1,0.1-0.5,0-0.7,0"/>
<path class="st0" d="M170.4,138c1.4-1.7,2.3-3.7,2.3-5.9c0-1.2,0.8-1.9,1.8-1.9c3.5-0.1,7.1-0.4,10.6,0.5c1.4,0.4,2.3,1.8,3.9,1.6"
	/>
<path class="st0" d="M217.9,93.6c-0.2-1.1-0.5-2.3,0-3.4c0.7-1.5,0-2.5-1-3.4c-0.6-0.6-1.5-0.7-2.5-0.3c-1.4,0.6-2.5,1.6-2.6,2.9
	c-0.1,1.4,0.3,3,1.9,3.8"/>
<path class="st0" d="M187.3,30.6c2-0.1,2.9,1.3,3.8,2.7c1.4,2.3,2.3,5,4.4,6.8c0.6,0.5,0,1.9,1.4,1.7"/>
<path class="st0" d="M296,215.5c1.5,1.9,2.2,2.2,4.7,1.4c1-0.3,2.1-0.6,3.1-0.9"/>
<path class="st0" d="M180.7,73.4c-1.2-1.2-2.4-2.1-4.3-1.5c-1.7,0.6-2,1.3-1.2,2.9"/>
<path class="st0" d="M67.5,189.1c-2.1-1.1-4-0.4-5.9,0.6c-0.7,0.3-1.3,0.8-2,1.2"/>
<path class="st0" d="M235.5,25.9c-0.6-1.6-1.8-1-2.7-0.5c-1.8,1-2.4,2.4-2.2,4.5"/>
<path class="st0" d="M284.3,159.8c-0.6,1.6-1.9,1.9-3.4,2c-2.4,0.1-4.7,0.5-7,0.9c-0.6,0.1-1.1,0.3-1.6-0.2c-0.5-0.4-1.2-0.7-2-0.6"
	/>
<path class="st0" d="M62.6,108.7c-0.9,0.4-1.5,0.9-1.3,2c0.2,1.2,1.3,1.5,2.2,1.6c0.9,0,1.9,0.1,2.7-0.7"/>
<path class="st0" d="M300,145.4c-2.3,2.1-4.7,4-5.9,7"/>
<path class="st0" d="M304.6,208c1.2,0.9,2.5,0.9,3.8,0.5c0.3,0.8,0.9,1.4,0.7,2.3c-0.1,0.7-0.4,1.6-1.1,1.4
	c-1.2-0.4-2.3,0.4-3.4,0.1"/>
<path class="st0" d="M211.1,39.2c-1.3,2.4-2.8,4.7-2.3,7.6"/>
<path class="st0" d="M70.7,218.6c-1.3,0.9-2.8,1.3-4.3,1.2c-1.3-0.1-2.1,0.5-2.5,1.6"/>
<path class="st0" d="M117.5,229.6c0.6,0.6,1.4,0.3,2.2,0.4c1.8,0,3.5,0.2,5.2,0.9c0.6,0.3,1.5,0.1,2.1-0.3"/>
<path class="st0" d="M30.1,123.8c0.3,0.6,0.7,1.2,0.9,1.8c0.7,2.6-0.2,3.4-3,3.1"/>
<path class="st0" d="M81.9,61.7c-2.2-0.8-4.3-0.8-6.3,0.4c-0.3,0.2-0.5,0.5-0.7,0.7"/>
<path class="st0" d="M303.7,148.2c-0.9-0.5-1.5-0.4-1.8,0.7c-0.4,1.7-1.7,3.4,0,5.1c0.2,0.2,0.3,0.6,0.7,0.7
	c0.8,0.3,1.7,0.7,2.3-0.1c0.7-0.9-0.2-1.7-0.7-2.5c-0.3-0.4-0.8-0.7-1.3-1.1c0.6-1.6,1-3.2,1.8-4.7c0.4-0.8,0.5-1.6-0.9-1.6
	c-1.1,0-2.2-0.4-3.2,0"/>
<path class="st0" d="M180.7,82.8c-0.8-0.1-1.4-0.8-2.3-0.8c-1.9,0-2.9,1.3-2.1,3.1c0.4,0.8,0.6,1.5,0.5,2.3"/>
<path class="st0" d="M138.6,80.6c0.8,2.6-0.1,4.8-1.2,7c-0.1,0.3-0.1,0.6-0.2,0.9"/>
<path class="st0" d="M238.1,14c0.9,1.4,1.2,3,0.9,4.7c-0.2,0.8-0.3,1.6,0.2,2.3"/>
<path class="st0" d="M51.1,99.8c-0.8,0.3-1.6,0.3-2.3,0.1c-1.5-0.4-2.3,0-2.9,1.3c-0.6,1.2-1.3,2.3-1.4,3.6c0,1.5,1.3,2.4,3.5,2.7"
	/>
<path class="st0" d="M259.6,116.9c-1.4,1.9-2.8,3.9-4.3,5.9c-0.4-0.5-0.8-0.8-1.1-1.2"/>
<path class="st0" d="M121.8,132.9c0.8,0.4,1.6,0.1,2.3,0.2c1.8,0.2,2.6,0.9,2.9,2.7c0.1,0.7,0,1.4,0.4,2"/>
<path class="st0" d="M103.5,88.3c0.1-1.2,0-2.2-1.4-2.5c-1.2-0.2-2.1,0.7-2.3,2"/>
<path class="st0" d="M253.4,118c0.9,2.4,0.2,4.5-1.1,6.5"/>
<path class="st0" d="M173.8,111.2c0.1,1-0.8,1.3-1.3,1.8c-1.3,1.3-3,2.3-3.4,4.3"/>
<path class="st0" d="M355,219.1c-0.5-2.5-0.9-2.7-3.8-1.4c0.5,2.3,1,2.6,3.1,1.8c1-0.4,2-0.3,2.9-0.9c-0.4-1.1-1.2-1.2-2.2-0.9"/>
<path class="st0" d="M132.4,247.5c-0.9,0.3-1.9,0.4-2.7,0.9c-1.1,0.9-2.4,1.5-2.8,3.2c-0.2,1.2-1.7,1.3-2.5,2"/>
<path class="st0" d="M143.8,64.7c-1,2-1.8,4-1.8,6.2"/>
<path class="st0" d="M133.4,235.1c-0.5,0.1-1.1,0.2-1.6,0.2c-1.6-0.2-3.1-0.4-4.5,0.7c-0.3,0.3-1,0.3-1.4,0.2
	c-1.7-0.5-3.4-0.7-4.9-1.7c0.8-1.7,3.2-1.6,3.8-3.5"/>
<path class="st0" d="M187.1,18.7c0,1.7,1.1,2.5,2.2,3.6c0.6-0.7,1.1-1.3,1.6-2c0.5-0.8,0.3-2.5-0.6-2.8c-0.8-0.4-1.9-0.8-2.5,0.5
	c-0.1,0.2-0.5,0.4-0.7,0.6"/>
<path class="st0" d="M18.4,102.6c0.3-1.9-1.3-1.9-2.3-2.5c-3.1-1.8-6.6-0.9-9.9-1.1c-1.3-0.1-2.2,1.3-3.6,0.9"/>
<path class="st0" d="M113,158.9c-1.1-0.5-2,0.2-2.9,0.7c-1,0.5-1.9,1.5-3.2,1.3"/>
<path class="st0" d="M74.2,168.4c-1.5,0.5-3.1,0.5-4.7,0.7c-0.6,0.1-1.4-0.1-1.3,0.9"/>
<path class="st0" d="M113.9,224.9c2.1,0.5,4.1,1,6.2,1.5c-1.3,1.3-2.4,2.6-3.6,3.8"/>
<path class="st0" d="M72.7,180.1c-0.3,0.4-0.7,0.6-1.3,0.6c-1.8-0.1-3.4,0.3-4.7,1.6"/>
<path class="st0" d="M106.9,36.2c-1.4-0.4-4,0.6-4.5,1.8c-0.1,0.4-0.1,0.8,0.3,1.1"/>
<path class="st0" d="M228.2,21.4c-1.9-0.1-4.4,1.8-5,3.8"/>
<path class="st0" d="M127.1,88.2c0-0.2,0.1-0.7,0-0.7c-2.6-0.9-5.1-2.1-7.9-0.8c-0.8,0.3-1.7-0.1-2.5-0.7c-1.7-1.1-2.2-1.1-3.5,0.4
	c-0.5,0.6-1,0.4-1.5,0.5"/>
<path class="st0" d="M105.5,41c-0.8,0.7-1.8,0.3-2.8,0.8c-1.6,0.9-2,1.9-1.6,3.5"/>
<path class="st0" d="M228.7,57.4c2,0.5,3.6,2,5.6,2.5"/>
<path class="st0" d="M238.4,248.6c-1.7-0.8-3.5-0.1-5.2,0c-0.5,0-0.3,0.4-0.4,0.7"/>
<path class="st0" d="M222.9,91.4c-0.8-2.3-2.6-3.3-4.5-2.7"/>
<path class="st0" d="M132.3,250.2c-1.4,1.3-3.3,1.3-5,1.6"/>
<path class="st0" d="M179.2,78.1c-0.4-0.5-1-0.8-1.7-0.9c-1.1,0.7-2.1,1.5-1.5,3.1"/>
<path class="st0" d="M194.3,260c-0.3,0.7-0.8,1.1-1.6,1.1c-1.3,0-2.5-0.1-3.8-0.2"/>
<path class="st0" d="M60.8,68.6c-1.7-0.8-3.4-0.7-5,0.2"/>
<path class="st0" d="M81.9,96.1c-0.4,1.2-1.6,1.8-2.5,2.5c-1.7,1.2-1.8,2.2-0.2,3.4c0.5,0.4,1.2,0.6,1.8,0.9"/>
<path class="st0" d="M124.9,57.2c2.5,0.4,4.3,1.6,4.7,4.3"/>
<path class="st0" d="M98.3,40c-0.5,0.4-0.4,1.2-1.1,1.4c-1.4,0.5-1.6,1.7-1.8,2.9"/>
<path class="st0" d="M64.6,192.1c-1.3,1.2-2.9,1.9-4.1,3.2"/>
<path class="st0" d="M169.5,12.8c-1.4,0.5-2,1.6-1.4,3c0.4,1,0.3,1.7-0.1,2.5"/>
<path class="st0" d="M138.2,200.8c-1.6,1.2-2.5,2.9-2.3,4.3"/>
<path class="st0" d="M81.3,102.9c-0.8,0.9-1.6,1.9-2.4,2.8c1.3,2.3,2.1,2.4,4,1"/>
<path class="st0" d="M223.9,56.9c1.4,0.7,2.9,1.3,4.3,2"/>
<path class="st0" d="M65.5,295.8c-1.7,0.6-3.2,1.5-3.8,3.3"/>
<path class="st0" d="M96.1,90c0-0.9-0.4-1.7-1.3-1.8c-1.3-0.1-2.4,0.4-3.1,1.6c-0.4,0.8-0.7,1.6-1.1,2.3"/>
<path class="st0" d="M347.8,209.4c-0.8,0.8-1.6,1.6-2.7,2c-0.4,0.1-0.6,0.6-0.5,0.9c0.1,0.3,0.4,0.7,0.9,0.6
	c0.2-0.1,0.5-0.1,0.7-0.1c1.7,0,3.7-0.7,4,2.3c1.4-1.2,1.7-2.6,1.3-3.7c-0.5-1.3-1.7-2.2-3.3-2"/>
<path class="st0" d="M169,59c-1.4,0.8-2.9,1.6-3.6,3.2"/>
<path class="st0" d="M67.9,177.9c1.7,0.1,3.3,0.6,4.9,1.4"/>
<path class="st0" d="M121.1,190c0.7,1.4,1.5,2.7,3.4,2.5"/>
<path class="st0" d="M50,84.2c-0.7,0-1,0.7-1.4,1.1c-1.1,0.8-2.1,1.8-3.6,2c-1.2,0.1-2.2,0.7-2.2,2.1"/>
<path class="st0" d="M203.3,13.5c0,1.3-0.2,2.7,0.7,3.8c2.4-0.1,2.5-0.3,1.6-1.8"/>
<path class="st0" d="M260.9,120.2c-0.2,1-0.9,1.7-1.4,2.5c-0.7,1.1-0.5,2.7,0.3,3.4"/>
<path class="st0" d="M72.9,295.2c0.7,2,3.8,2.7,5.2,1.3c0.3-0.3,0.4-0.5,0.3-0.9c-0.1-0.5-0.5-0.6-0.9-0.5c-1.9,0.1-3.8-0.6-5.8,0
	c-0.7,0.2-1.3,0.1-1.2,1.1"/>
<path class="st0" d="M110,107.5c1,1.7,0.4,3.3-0.5,4.8"/>
<path class="st0" d="M144.7,78.4c-1.2,0.1-2.4,0.1-3.6,0.2"/>
<path class="st0" d="M191.5,254.9c1.5,0.4,2.2,1.8,3.2,2.7c0.3,0.3,0.1,1.3-0.1,1.9"/>
<path class="st0" d="M140.9,79c-0.2,1.2-0.9,2-2,2.5"/>
<path class="st0" d="M59,286c-0.4,1-1.1,1.6-2.2,1.8"/>
<path class="st0" d="M57.1,95c1.3,0.8,2.6,1.1,4.1,0.7"/>
<path class="st0" d="M39.8,199.5c-1.8-0.4-2.2,1.1-2.8,2.2c-0.5,1,0.7,1.5,1.2,2.1"/>
<path class="st0" d="M49.5,98.4c1,0.4,2,0.1,3.1,0.2"/>
<path class="st0" d="M188.2,153.1c-0.6,0.4-1.1,0.8-0.9,1.6"/>
<path class="st0" d="M167,159c1.3,0,1.4,0.1,1.4,1.8"/>
<path class="st0" d="M111.9,68.9c1,0.4,1.9,0.7,2.9,1.1"/>
<path class="st0" d="M188.4,151.8c0.2,0.7,0.5,1.3,0.7,2"/>
</svg>
