<?xml version="1.0" encoding="UTF-8"?>
<svg id="a" data-name="Layer 1" xmlns="http://www.w3.org/2000/svg" width="737.35" height="516.33" viewBox="0 0 737.35 516.33">
  <defs>
    <style>
      .b {
        fill: none;
        stroke: #484848;
        stroke-linecap: round;
        stroke-linejoin: round;
        stroke-width: 2px;
      }
    </style>
  </defs>
  <path class="b" d="M249.22,5.11c.2,1.76,1.76,2.56,2.73,3.75,1.69,2.08,2.9,4.46,4.54,6.59,2.48,3.22,5.57,5.73,8.39,8.55,3.6,3.6,7.49,6.9,10.66,10.95,1.56,1.99,3.49,3.71,5.39,5.39.69.61,1.28,1.18,1.58,2.02.47,1.35,1.85,1.75,2.71,2.69,1.84,2,3.78,3.91,5.56,5.96,2.84,3.25,6.38,5.72,9.42,8.76,2.16,2.17,4.02,4.6,6.21,6.75,1.28,1.26,2.47,2.54,3.96,3.61,1.74,1.24,3.31,2.81,4.69,4.46,4.1,4.89,8.55,9.46,13.07,13.94,1.81,1.8,3.77,3.56,5.83,5.16,1.67,1.3,2.95,3.04,4.37,4.62,2.39,2.65,4.79,5.3,7.71,7.41,2.4,1.74,4.01,4.26,6.13,6.29.93.89,1.97,1.64,3,2.41,3.95,2.95,7.86,5.97,11.05,9.82,3.26,3.92,6.45,7.93,10.09,11.5,1.85,1.81,4.04,3.29,6.09,4.89,1.18.92,2.04,2.14,3.21,3.09,3.93,3.18,7.62,6.62,11.03,10.38,5.42,5.98,10.5,12.25,16.29,17.91,2.14,2.09,3.9,4.61,6.19,6.59,2.41,2.09,4.97,4.02,7.35,6.15,2.98,2.66,5.82,5.47,8.75,8.17,1.3,1.19,1.8,3.31,2.73,4.98.59,1.07-1.27,3.62-2.46,3.75"/>
  <path class="b" d="M625.96,220.21c.05-.24.6-.47.17-.7-1.68-.91-3.34-1.5-5.4-.96-5.51,1.44-10.15,4.45-14.75,7.6-3.71,2.54-7.39,5.13-11.18,7.53-2.3,1.46-4.21,3.36-6.28,5.07-4.52,3.73-7.98,8.25-10.69,13.47-1.13,2.17-3.01,3.95-3.9,6.33-1.9,5.11-3.75,10.23-5.78,15.29-1.87,4.66-4,9.23-5.89,13.88-1.08,2.66-2.26,5.29-3.01,8.09-1.75,6.46-3.53,12.91-5.63,19.27-1.83,5.54-4.68,10.67-6.45,16.21-1.96,6.11-4.62,11.97-5.92,18.32-.58,2.83-1.55,5.64-2.2,8.49-.16.69-.58,1.1-.93,1.61"/>
  <path class="b" d="M187.3,1.33c-1.33-.62-2.52-.28-3.79.34-4.9,2.37-9.41,5.4-14.2,7.96-3.28,1.75-6.86,2.84-10.08,4.67-4.47,2.53-8.76,5.4-13.36,7.67-5.69,2.81-11.34,5.74-16.65,9.16-4.55,2.93-9.32,5.45-14.16,7.69-4.89,2.26-9.46,5.11-14.36,7.29-2.3,1.02-4.19,2.82-6.65,3.44-4.49,1.13-7.76,4.4-11.66,6.56-1.52.84-2.83,2.03-4.52,2.67-3.39,1.28-6.2,3.57-9.18,5.56-4.17,2.78-8.24,5.71-12.44,8.43-3.3,2.14-7.14,3.27-10.55,5.15-3.15,1.74-6.31,3.61-9.05,6.03-.46.41-.81.89-1.08,1.44"/>
  <path class="b" d="M356.5,126.07c.91-1.87.42-3.44-1.28-4.47-1.61-.98-2.7-2.49-4.06-3.7-3.17-2.83-6.94-5.05-9.56-8.43-2.53-3.26-6.15-5.38-8.54-8.76-.7-.99-1.88-1.62-2.8-2.41-5.38-4.63-11.05-8.91-15.21-14.85-4.5-6.42-9.82-12.18-15.59-17.52-1.86-1.72-3.41-3.78-5.19-5.61-1.89-1.93-3.98-3.58-5.98-5.36-2.03-1.81-3.45-4.19-5.58-5.94-4.39-3.6-7.78-8.08-11.21-12.55-1.88-2.45-4.06-4.7-6.28-6.85-4.85-4.69-9.6-9.49-14.46-14.16-3.36-3.23-6.27-6.81-9.51-10.12-.58-.59-.4-1.81-1.57-1.84"/>
  <path class="b" d="M161.74,2.59c.2,1.2-.5,1.98-1.45,2.31-4.01,1.39-7.57,3.58-11.17,5.76-1.8,1.09-3.9,1.7-5.72,2.76-4.97,2.89-10.16,5.4-14.97,8.59-1.87,1.24-3.93,2.21-5.93,3.26-1.74.91-3.29,2.1-4.84,3.27-2.69,2.04-5.76,3.25-8.83,4.49-.62.25-1.22.56-1.8.9-4.43,2.64-9.12,4.82-13.52,7.53-5.4,3.33-11.12,6.13-16.37,9.73-1.25.86-2.66,1.38-4.12,1.84-1.75.54-3.34,1.48-4.86,2.51-2.15,1.45-4.72,1.83-7.03,2.87-5.21,2.35-10.23,5.03-14.59,8.81-.55.47-1.18.71-1.97.77-1.14.08-2.08.78-2.88,1.58-1.99,1.99-3.96,4-6.66,5.03-.72.27-.77.82-.72,1.45"/>
  <path class="b" d="M150.22,5.56c-.57.12-1.15.21-1.62.63-4.6,4.05-10.3,6.28-15.48,9.35-2.31,1.37-4.57,2.91-7.04,3.91-3.89,1.58-7.6,3.53-11.46,5.18-4.02,1.71-7.61,4.33-11.39,6.54-4.66,2.73-9.15,5.73-13.96,8.24-4,2.09-8.17,3.85-12.21,5.83-5.31,2.59-10.28,5.86-15.77,8.06-.69.28-1.11.78-1.56,1.17-2.65,2.28-5.96,3.36-8.88,5.13-.97.59-1.94,1.17-2.86,1.84-2.23,1.62-4.72,2.8-7.21,3.94-2.32,1.07-6.25,3.46-7.28,4.71"/>
  <path class="b" d="M351.28,371.59c2.21,2.25,5.2,1.91,7.93,2.3,2.58.37,4.62,1.74,6.63,3.13,2.6,1.8,5.34,3.33,8.11,4.85,1.82,1,3.58,2.2,5.17,3.48,2.05,1.65,4.33,2.41,6.72,3.17,1.83.58,3.67,1.16,5.39,2,3.11,1.51,6.13,3.21,9.2,4.83,1.42.75,3.04.9,4.53,1.54,3.08,1.32,5.63,3.32,8.25,5.3,4.19,3.17,8.34,6.48,13.34,8.2,2.8.96,5.5,2.03,7.86,3.72,2.16,1.55,4.35,3.03,6.69,4.27,2.92,1.55,5.94,2.88,8.95,4.25,3.1,1.41,6.48,2.4,9.1,4.88,1.33,1.26,3.28,1.85,4.79,2.97,1.73,1.28,3.84,1.92,5.42,3.4,1.02.95,2.25.67,3.6.72-.15,2.88,2.58,3.46,4.15,5.02.12.12.35.19.53.18,2.53-.1,4.84,1.26,7.38,1.09"/>
  <path class="b" d="M268.3,264.13c1.5-.48,3.02-.11,4.5.04,2.53.26,5.06.17,7.56-.08,1.65-.17,3.24.05,4.86.05,5.16,0,10.37-.38,15.47.44,4.79.77,9.66.4,14.42,1.33,1.1.21,2.28-.04,3.41.04,6.36.46,12.73.84,19.08,1.46,6.35.63,12.7,1.12,19.08,1.03,3.47-.05,6.88.55,10.24,1.19,1.45.28,2.96.45,4.34.52,3.94.19,7.76,1.22,11.69,1.4,3.85.18,7.68.54,11.52.88,3.69.34,7.42.42,10.97,1.63.97.33,1.92.09,2.9.29,3.28.66,6.58,1.26,9.89,1.63,3.16.35,6.36.4,9.54.57,1.25.07,1.89-.23,2.05-1.79.35-3.63-.04-7.21-.29-10.8-.14-2.05-.12-4.08-.14-6.12-.04-4.69-.22-9.36-.5-14.04-.2-3.35-.12-6.72.02-10.08.04-.89.2-1.84.08-2.7-.37-2.73.03-5.41.25-8.1.3-3.78.46-7.56.16-11.34-.1-1.35.05-2.33,1.77-2.78,1.59-.42,3.02-1.5,3.09-3.52,0-.3.05-.63.18-.9,1.66-3.37-.6-5.29-2.72-7.19-3.32-2.98-6.99-5.63-10-8.89-4.7-5.09-9.96-9.62-14.46-14.88-1.06-1.24-2.44-2.13-3.58-3.26-3.75-3.69-7.45-7.43-11.23-11.08-3.9-3.77-6.99-8.14-10.44-12.25-2.32-2.77-5.18-5.13-8.26-7.01-5.11-3.11-9.13-7.27-12.78-11.91-1.01-1.29-1.83-2.96-3.75-3.27"/>
  <path class="b" d="M663.04,220.75c-2.46,2.1-5.02,4.09-7.36,6.33-3.4,3.26-6.46,6.78-7.79,11.49-.36,1.28-1.1,2.59-1.85,3.54-3.64,4.57-5.24,10.01-6.88,15.38-2.54,8.32-4.88,16.7-6.99,25.16-1.1,4.43-2.11,8.88-2.9,13.36-.5,2.82-.32,5.78-.83,8.62-.58,3.23-.82,6.5-1.32,9.74-.41,2.64.02,5.39-.11,8.09-.18,3.66-.47,7.31-.33,10.98.12,3.19,1.14,6.32.7,9.54-.39,2.87-.1,5.76-.29,8.65-.38,5.81,1.42,11.19,3.45,16.59,1.97,5.26,3.59,10.66,4.33,16.33.5,3.84.49,7.72,1.11,11.54.14.88.5,1.5.95,2.15"/>
  <path class="b" d="M626.5,219.67c3.54.06,7,.72,10.43,1.48.37.08.77.2,1.08.12,3.49-.87,6.96.69,10.45.03,2.93-.56,5.92-.67,8.82-1.43,1.29-.34,2.67-.38,3.94-.78.71-.23,1.23.04,1.41.43.47.98,1.4,1.43,2.21,1.54,2.35.32,4.21,1.6,5.88,3,1.61,1.34,3.63,1.84,5.2,3.43,2.42,2.44,3.91,5.43,5.98,8.05,1.05,1.34,2.47,2.63,2.01,4.66,1.99,1.39,2.68,3.81,4.45,5.46,2.27,2.12,4.76,4.01,6.66,6.57,3.28,4.42,5.54,9.37,7.96,14.25.89,1.8.52,3.91,1.26,5.76.11.28-.04.58.17.91,2.75,4.17,4.1,8.86,5.28,13.66,1.09,4.46,2.15,8.93,4.02,13.18.86,1.97.93,4.28,1.32,6.45.07.39-.05.82.37,1.08"/>
  <path class="b" d="M636.4,320.47c-.32,1.77.99,3.17,1.09,4.86.45,7.73,3.04,14.91,6.01,21.93,1.12,2.63,2.32,5.23,3.12,7.96.52,1.78,1.83,3.04,2.59,4.65,1.22,2.55,2.39,5.11,3.48,7.72,1.23,2.92,2.8,5.77,4.77,8.31,1.95,2.51,3.41,5.29,4.87,8.1.7,1.34,1.35,2.74,2.5,3.79"/>
  <path class="b" d="M536.5,245.77c.54.72,0,1.46-.05,2.16-.17,2.18.97,3.97,1.49,5.94.89,3.34,2.99,6.02,4.88,8.81.66.98,1.87,1.52,2.33,2.71.32.84.35,1.59.05,2.54-1.38,4.34-3.43,8.46-4.38,12.94-.4,1.91-.44,3.85-.81,5.78-.72,3.74-1.91,7.29-3.33,10.78-1.76,4.35-3.92,8.54-5.07,13.13-.58,2.32-.59,4.68.03,6.82,1.2,4.15,1.72,8.39,2.33,12.63.68,4.73,1.24,9.47,1.81,14.22.51,4.24,1.13,8.48.92,12.78-.05,1.08-.06,2.03,1.2,2.78,1.1.65.89,2.35.51,3.31-.96,2.44-.42,4.96-.79,7.42-.64,4.23-.85,8.51-1.13,12.77-.2,3.13-.24,6.24,0,9.36.1,1.26.08,2.55-.34,3.78"/>
  <path class="b" d="M506.62,335.41c-1.58.86-1.96,2.36-1.96,3.96,0,2.65-.73,5.07-1.57,7.58-2.85,8.59-6.68,16.77-10.01,25.16-2.29,5.78-4.91,11.41-8.73,16.43-1.74,2.29-2.89,5.03-4.39,7.51-.64,1.06-.02,2.23-.55,3.32-3.72-.11-7.15,1.26-10.56,2.51-1.86.68-4.06.87-5.42,2.64"/>
  <path class="b" d="M511.48,458.53c-1.16,1.21-.25,2.57-.1,3.77.19,1.45-.02,2.78-.27,4.15-.58,3.23-.92,6.5-1.97,9.63-.81,2.42-1.48,4.89-2.37,7.28-1.17,3.18-1.51,6.6-2.86,9.73-.16.37-.17.8-.54,1.09-1.41,1.09-1.8,2.61-2.01,4.31-.44,3.61-2.08,6.91-2.89,10.43-.16.69-.25,1.41-.42,2.1-.55,2.18-2.55,2.87-3.93,4.13-.46.42-1.73-.04-2.63-.1"/>
  <path class="b" d="M692.02,389.41c-1.13-.62-2.28-.71-3.6-.59-3.46.32-6.83-.13-10.29-.85-2.81-.58-6.01-1.1-8.98.32-.84.4-1.9.65-2.86.04-.67-.43-1.17-.17-1.62.36-.52.61-1.18.91-1.98,1.01-.61.07-1.22.24-1.8.44-2.11.72-4.18,1.32-6.47,1.56-2.4.25-4.77,1.39-7.02,2.43-3.06,1.42-6.46,1.97-9.39,3.72-1.54.92-1.68,1.24-1.1,3.09.23.73.15,1.55.21,2.33"/>
  <path class="b" d="M579.16,116.71c-1.11-1.94-3.25-2.63-4.88-3.93-1.11-.89-2.26-1.75-3.56-2.4-1.26-.62-2.11-1.66-2.76-3.01-1.94-4.01-5.09-7.08-8.45-9.88-1.5-1.25-2.98-2.56-4.6-3.71-3.45-2.44-6.72-5.12-10.66-6.8-.46-.19-.86-.04-1.27-.16-5.12-1.42-10.39-1.78-15.66-1.92-1.97-.05-3.95.61-5.94.83-2.42.27-4.81.68-7.21,1.01-4.89.66-9.53,2.05-14.23,3.44-3.26.96-6.19,2.45-9.21,3.91-2.02.98-4.01,2.07-6.06,3-1.75.79-3.21,2.02-4.7,3.21-1.11.87-2.02,1.94-3.18,2.78-1.08.78-1.99,1.81-2.62,3.15-1.03,2.21-2.43,4.25-3.73,6.32-.44.71-.43,1.35-.41,2.17.07,2,.51,4.5-.47,5.91-1.19,1.71-.97,3.4-1.45,5.07-.04.13-.12.24-.18.36"/>
  <path class="b" d="M57.52,89.17c-.48,3.54-1.16,7.07-1.38,10.62-.23,3.72-.48,7.44-.77,11.16-.31,4.06-1.09,8.05-1.71,12.06-.5,3.24-1.28,6.43-1.59,9.71-.37,3.86-1.13,7.69-1.75,11.52-.33,2.04-.34,4.12-.88,6.13-.13.5.28.6.7.54"/>
  <path class="b" d="M665.56,459.07c-.6-1.02-.38-2.05,0-3.06.75-1.94,1.58-3.85,1.78-5.94.23-2.39,1.71-4.34,2.21-6.65.63-2.9.93-5.63.25-8.67-1.39-6.21-4.69-11.19-8.53-16.03-1.79-2.26-3.36-4.71-4.96-7.13-2.77-4.17-6.58-7.3-11.28-9.21-.56-.23-1.21-.4-1.79-.34-1.19.12-1.81-.38-2.07-1.47"/>
  <path class="b" d="M414.28,368.53c2.23.01,3.93,1.39,5.53,2.59,1.74,1.3,3.28,3.02,4.49,4.83,1.14,1.72,2.45,3.21,4.06,4.42.89.67,1.24,1.64,1.94,2.39,2.24,2.4,5.2,3.76,7.96,5.33,3.31,1.88,6.68,3.55,9.76,5.9,2.8,2.14,6.07,3.78,8.84,5.96,1.52,1.2,3.28,2.32,4.4,4.03"/>
  <path class="b" d="M715.78,307.51c-.95.28-.54,1.07-.52,1.62.12,2.62.89,5.15,1.22,7.74.36,2.87.52,5.77.93,8.64.9,6.32,2.4,12.49,4.39,18.57,1.11,3.38,2.37,6.67,3.66,9.97.1.25.24.43.38.62,1.39,1.87,1.58,4.14,2.24,6.27,1.07,3.47.11,7.04,1.01,10.46,1.07,4.08,1.04,8.37,2.21,12.41.74,2.57,1.21,5.03,1.03,7.76-.22,3.28.56,6.6.65,9.9.15,5.49,2.13,10.55,3.1,15.84.16.88-.1,1.81.25,2.65-.17.41-.41.6-.76.78-2.03,1.07-1.72,3.09-1.76,4.85-.04,1.66-.66,2.9-1.65,4.15-2.75,3.49-5.85,6.7-8.3,10.43-.12.18-.2.45-.37.53-3.43,1.64-5.58,5.05-9.16,6.53-1.6.66-3.25.98-4.88,1.16-2.84.32-5.47,1.44-8.27,1.85-1.39.2-2.67.53-4,1.17-2.59,1.24-3.42,3.83-5.12,5.72-2.35,2.6-4.95,4.34-8.66,4.42-.84-2.7-4.12-3.62-4.98-6.45"/>
  <path class="b" d="M570.16,119.77c1.8,3.48,4.1,6.8,5.25,10.49,1.09,3.48,3.45,6.3,3.93,10.19.65,5.22,1.2,10.46,1.87,15.67.39,2.98.1,5.9.05,8.83-.07,4.17.69,8.27.77,12.42.08,4.35,2.35,7.97,4.21,11.67,1.13,2.27,2.08,4.7,3.72,6.69,1.63,1.96,3.2,4.01,5.07,5.73,1.89,1.75,3.56,3.67,5.14,5.66.97,1.22,1.87,1.16,2.91.49,1.37-.89,2.62-1.95,3.98-2.85.88-.58,1.62-.73,2.75.09,1.66,1.2,2.53,2.91,3.69,4.42,1.69,2.21,3.82,3.99,5.64,6.07.91,1.04,2.73,1.1,3.21,2.73"/>
  <path class="b" d="M491.14,508.75c-.21,1.47-1.43.77-1.96.65-1.68-.38-3.33-.64-5.05-.68-1.35-.03-2.63-.34-3.8-1.21-3-2.21-6.83-2.96-9.7-5.42-3,.17-4.72-2.9-7.74-3-1.17-.04-2.31-1.4-3.42-2.23-2.32-1.72-5.01-2.5-7.73-3.27-1.74-.5-3.74-1.02-4.96-2.21-1.82-1.78-4.14-2.16-6.23-3.1-2.38-1.07-4.88-1.84-7.02-3.44-.99-.74-2.39-.66-3.59-1.05-3.8-1.23-7.41-2.63-9.88-6-.67-.91-1.58-1.21-2.7-1.1-.48.05-.94.02-1.46-.3-2.16-1.32-4.67-1.79-6.99-2.75-.88-.36-1.75-.67-2.71-.71-.9-.03-1.64-.59-1.93-1.28-.6-1.39-1.64-1.61-2.93-1.61-1.76,0-3.41-.84-4.79-1.57-1.9-1.02-3.97-1.52-5.86-2.52-4.12-2.18-8.32-4.25-12.6-6.11-2.4-1.05-4.81-2.02-7-3.47-.88-.59-1.82-.93-2.88-1.11-.95-.16-1.68-.69-2.41-1.53-1.61-1.85-4.04-2.51-6.24-3.48-.54-.24-1.22-.35-1.6-.74-2.81-2.95-6.65-4.28-10.17-5.75-3.93-1.65-7.51-3.7-11.17-5.78-1.95-1.11-4.29-2.47-6.94-1.97-1.08.21-1.9-1.06-3.06-.7"/>
  <path class="b" d="M600.94,208.15c-3.51,3.02-7.41,5.24-11.85,6.75-2.99,1.02-5.82,2.72-8.29,4.79-1.95,1.64-3.94,3.19-6.14,4.47-3.76,2.2-6.64,5.49-10.07,8.11-2.2,1.68-4.36,3.41-6.32,5.38-1.04,1.04-2.35,1.79-3.77,2.14-1.26.31-1.81,1.02-1.97,2.2"/>
  <path class="b" d="M269.02,193.03c-.93-.1-.7.58-.72,1.08-.19,7.17-1.21,14.27-1.57,21.42-.19,3.82-.21,7.68.18,11.52.31,3.04.14,6.12.2,9.18.03,1.55-.29,3.13.1,4.68"/>
  <path class="b" d="M554.68,147.49c-.13-3.73.87-7.02,3.78-9.53.32-.28.53-.65,1.07-.75,2.5-.49,5.8,1.01,7.22,3.26,1.5,2.38,3.18,4.63,4.7,7.01,1.67,2.62,2.2,5.48,2.51,8.48.31,3.06.1,6-.65,9.02-.55,2.21-1.45,3.72-3.5,4.68-2.61,1.22-3.36,2.76-2.67,5.37.15.57.05,1.09.14,1.63"/>
  <path class="b" d="M517.06,292.57c.57,1.23.17,2.47-.21,3.59-1.71,5.03-3.06,10.15-4.28,15.31-1.31,5.57-2.27,11.24-3.93,16.7-.62,2.04-1.32,4.08-1.83,6.16-.1.4-.17.94.01,1.24,1.32,2.15.38,4.45.52,6.68.04.65-.35.55-.73.54"/>
  <path class="b" d="M256.78,297.88c-.53.12-.67.43-.75.99-.5,3.41-.47,6.87-.95,10.25-.5,3.55-.16,7.11-.51,10.63-.48,4.74-.43,9.49-.57,14.23-.07,2.5-.28,5.02-.18,7.56.21,5.22-.25,10.45-.69,15.65-.02.27-.15.61-.13.9.26,3-.12,6.03.07,9,.6,9.36.06,18.73.28,28.09.01.57-.02,1.13-.36,1.62"/>
  <path class="b" d="M417.52,217.33c.37,1.25,1.58.69,2.34,1.06,0,3.38.28,6.77-.08,10.09-.37,3.49-.25,6.97-.41,10.45-.22,4.97.07,9.96-.13,14.93-.06,1.5.18,3-.07,4.51-.08.47-.39.48-.58.71"/>
  <path class="b" d="M196.3,283.39c-.24,1.38-1.09,2.48-1.83,3.58-3.38,5.09-6.55,10.34-10.16,15.24-3.08,4.18-6.08,8.48-9.63,12.31-1.44,1.56-2.52,3.45-4.31,4.69"/>
  <path class="b" d="M242.74,290.68c-3.04,3.01-5.52,6.45-8,9.93-1.75,2.44-3.73,4.76-5.68,7.08-2.3,2.73-4.02,5.84-5.91,8.84-2.03,3.22-5.01,5.57-7.43,8.43-.12.14-.52-.1-.7.19"/>
  <path class="b" d="M342.46,375.19c-1.18-.74-1.65-3.67-.72-4.5.1-.09.26-.2.35-.17.85.22,1.68.49,2.52.7.89.22,1.19.84,1.69,1.58,1.62,2.4,2.38,4.94,2.08,7.79-.23,2.13-.6,4.26-1.26,6.3-2.54,7.86-6.37,15.17-9.8,22.64-1.93,4.2-3.76,8.44-5.61,12.67-.5,1.14-.68,2.5-1.02,3.74-.82,2.92-1.46,5.91-2.8,8.66-.09.19-.01.47-.01.71"/>
  <path class="b" d="M209.8,287.35c-1.53,1.84-2.35,4.11-3.57,6.14-1.85,3.08-4.18,5.78-6.32,8.63-1.73,2.3-2.85,5.01-5.03,7.04-3.19,2.98-5.44,6.78-8.29,10.07-.54.62-.86,1.43-1.28,2.15"/>
  <path class="b" d="M233.02,289.87c.11,1.1-.75,1.77-1.29,2.5-4.35,5.82-9.01,11.42-13.3,17.29-2.31,3.17-5.38,5.71-7.56,9-.83,1.25-1.87,2.36-2.65,3.63-.4.65-.84.76-1.47.7"/>
  <path class="b" d="M187.3,122.83c.44.02,1.1-.14,1.05.54-.09,1.27.68,2.55,0,3.77-.39.72.04,1.33.02,1.99-.1,3.48,0,6.95-.31,10.44-.74,8.45-2.55,16.82-1.85,25.38-1.94,15.26-1.03,30.59-1.24,45.9-.03,1.98.22,3.96.34,5.94"/>
  <path class="b" d="M188.38,336.85c-.43,1.23-.29,2.55-.29,3.78-.01,3.07-.37,6.12-.41,9.18-.05,4.17-.68,8.29-1,12.43-.23,2.92-.62,5.86-.45,8.81.23,4.11-.75,8.16-.76,12.24-.01,5.04-.79,10.04-.42,15.13.33,4.59.16,9.23-.03,13.86-.12,3.17-.45,6.38.3,9.54"/>
  <path class="b" d="M341.83,375.37c-.5,4.39-2.18,8.39-3.82,12.44-2.25,5.53-4.96,10.87-6.92,16.53-.5,1.46-1.41,2.77-2.13,4.15"/>
  <path class="b" d="M678.34,455.65c-2.75.98-5.78.88-8.46,2.15-.1.05-.25-.03-.36.01-5.64,2.06-6.79,2.6-13.17,1.4-2.82-.53-5.98-.11-8.77-.96-4.4-1.34-8.93-.8-13.35-1.49-1.04-.16-2.15.31-3.23.3-3.54-.03-7.09.67-10.62,0-2.47-.47-4.9-1.28-7.39-1.56-3.75-.41-7.09-2.38-10.8-2.71-4-.36-7.7-2.07-11.7-2.38-1.8-.14-3.62-.21-5.39-.43-1.68-.22-3.42-.62-5.02-1.11-2.35-.72-4.7-.73-7.06-.94-1.36-.13-2.62-.61-3.94-.84-2.05-.35-4.1-.25-6.14-.39-2.91-.2-5.74-.88-8.64-1.11-.89-.07-1.81-.19-2.7.15-1.56.6-1.53.97-1.13,2.54.57,2.27,1.29,4.53,1.62,6.83.44,3.17,1.58,6.14,2.86,8.95,1.91,4.21,3.05,8.59,4.23,13,.85,3.19,1.58,6.43,3.58,9.19,1.03,1.43.98,3.23,1.45,4.85"/>
  <path class="b" d="M264.34,322.63c.05-1.95,1.74-2.77,2.92-3.73,4.76-3.83,8.73-8.33,12.4-13.17,1.85-2.44,3.85-4.78,5.95-7,1.01-1.07,2.41-1.7,3.5-2.8.58-.59,2.29-.26,3.49-.44,2.02-.3,4.07-.4,6.12-.57,1.4-.12,2.7,0,3.32,1.85-5.49,3.97-9.34,9.68-14.21,14.43-5.22,5.09-10.51,10.13-15.38,15.58-.16.18-.34.18-.54.18"/>
  <path class="b" d="M217.18,289.33c-1.76,3.72-4.24,6.97-6.68,10.25-1.35,1.82-2.9,3.5-4.11,5.42-1.05,1.68-2.42,3.13-3.54,4.72-2.57,3.65-5.85,6.75-8.12,10.6-.66,1.11-1.38,1.16-2.38.96-.25-.49-.16-1.02-.18-1.53"/>
  <path class="b" d="M551.8,172.51c.1-.41-.18-.86.17-1.27.52-.58.07-1.23-.21-1.59-1.24-1.63-1.65-3.59-2.26-5.44-.64-1.92-1.84-3.64-3.5-4.19-2.98-.98-3.87-3.1-4.05-5.7-.14-1.99-1.05-3.76-1.19-5.75-.11-1.72-1.92-2.22-3-3.25-1.56-1.5-3.41-1.06-5.23-.89"/>
  <path class="b" d="M508.42,206.44c-.7.38-1.28.92-2.16,1.02-1.18.13-1.89.98-1.76,2.13.13,1.1.22,2.66,1.59,2.81,1.75.19,2.9,1.72,4.67,1.73.3,0,.77.39.87.7.74,2.23,2.66,3.04,4.52,3.96.54.27.94.72,1.28,1.24,1.85,2.87,3.14,6.01,4.28,9.2,1.46,4.07,4.23,6.52,8.28,7.98,2.6.94,4.87.74,7.43.03,1.68-.47,3.51-.6,5.18-1.21,1.48-.55,2.68.41,3.73.88,1.28.58,2.78,1.43,3.32,3.1.41,1.24,1.49,1.81,2.68,2.17"/>
  <path class="b" d="M325,298.69c-.93-1.67-2.74-1.85-3.33-.15-.55,1.59-1.71,2.62-2.83,3.31-4.45,2.71-7.22,6.96-10.6,10.67-5.01,5.51-9.82,11.23-15.63,15.96"/>
  <path class="b" d="M321.4,298.15c-2.2-.6-4.34-.12-6.48.37-.67.15-1.36.38-1.97-.02-1.5-.98-2.15.32-2.85,1.12-.44.51-.76,1.17-1.31,1.58-5.49,4.14-9.9,9.43-14.9,14.08-2.76,2.57-5.26,5.43-7.74,8.28-.93,1.07-2.21,1.77-2.92,3.03"/>
  <path class="b" d="M342.46,373.03c-1.13-.1-2.01.29-2.91,1.05-2.8,2.37-4.88,5.18-6.64,8.44-1.81,3.36-4.22,6.45-6.7,9.37-2.4,2.82-3.66,6.16-5.14,9.42-.56,1.24-.37,2.61.71,3.57,1.42,1.26,2.69,2.78,4.84,2.94.68.05,1.32.56,1.98.86"/>
  <path class="b" d="M182.26,288.25c-3.49,6.3-7.42,12.33-11.35,18.35-2.17,3.33-4.47,6.58-6.63,9.92-.74,1.14-1.62,2.29-1.64,3.77"/>
  <path class="b" d="M375.22,305.71c.4,5.94.09,11.88.17,17.82.04,3-.34,6.05.09,8.99.65,4.46-.48,8.76-.54,13.15-.03,2.38-.2,4.8-.28,7.2-.05,1.73-1.68,2.54-2.75,3.13-2.22,1.22-4.31,2.71-6.76,3.57-5.55,1.96-10.23,5.58-15.35,8.36-1.71.93-3.11,1.91-3.93,3.66"/>
  <path class="b" d="M581.86,117.07c-.69-.45-1.36-.59-2.17-.19-2.32,1.12-5.05.64-7.35,1.68-2.4,1.08-4.95.73-7.39,1.25-1.12.24-2.26.66-3.23,1.26-2.58,1.57-5.55,2-8.32,2.96-3.53,1.22-6.91,2.73-10.23,4.4-.69.35-.81,1.03-.93,1.78-.47,2.73-3.33,3.91-5.51,2.11-1.31-1.09-2.16-.69-3.49-.19-2.92,1.09-5.47,2.77-8.08,4.38-3.12,1.92-6.27,3.8-9.35,5.78-2.21,1.42-4.26,3.1-6.52,4.44-1.4.83-1.87,2.78-3.75,2.92-4.68,4.5-10.09,8.12-14.96,12.4-3.58,3.14-7.1,6.34-10.65,9.51-4.55,4.06-8.64,8.47-11.57,13.78-1.43,2.58-3.33,3.97-6.05,4.6-.99-1.16-.88-2.75.2-4.29,2.61-3.72,4.85-7.76,7.71-11.22,2.34-2.82,1.87-5.34,1.29-8.22-1-5.04-2.53-9.98-3.04-15.12-.07-.66-1.28-1.59.34-1.98"/>
  <path class="b" d="M40.06,207.79c-2.45-.76-4.8-1.8-7-3.09-3.23-1.9-6.67-3.49-10.3-3.93-1.75-.21-4.44-.55-5.78,1.96-.37.69-1.23,1.18-1.94,1.63-3.62,2.25-7.38,4.27-10.81,6.83-.69.52-1.88.4-1.96,1.65"/>
  <path class="b" d="M357.04,201.13c-.52,1,.18,1.92.17,2.88-.02,2.52.07,5.06-.24,7.55-.15,1.26.07,2.46.67,3.2,4,4.89,6.92,10.52,10.69,15.57.8,1.07,1.52,1.54,2.75,1.4"/>
  <path class="b" d="M182.8,13.75c-3.88-.67-6.26,2.05-9,3.96-2.11,1.48-4.35,2.68-6.83,3.44-1.01.31-2.07.61-2.9,1.4-.46.44-1.03.97-1.61,1.06-2.9.45-2.79,2.72-2.84,4.72-.12,4.69-.3,9.37-.71,14.04-.23,2.56.53,5.12.04,7.75-.21,1.14,1.11,1.27,2.08,1.24,2.28-.06,4.32,1.04,6.49,1.39,3.35.53,6.47,2.07,9.89,2.2.53.02,1.12.24,1.62-.16"/>
  <path class="b" d="M147.52,299.59c-1.28,3.15-.62,6.48-.9,9.72-.47,5.51-.17,11.07-.98,16.55-.19,1.31-.05,2.68-.6,3.99-.7,1.64.03,3.45-.34,5.22-.64,3.08-.91,6.23-1.32,9.35-.67,5.2-1.04,10.4-.58,15.66.24,2.74,0,5.52.05,8.28.07,4.5.47,9.01-.05,13.5-.44,3.84-.62,7.69-1.04,11.52-.51,4.61-.86,9.24-1.32,13.85-.64,6.36-.83,12.71-.84,19.09"/>
  <path class="b" d="M158.86,196.63c.39-.02.82.06.7.54-.42,1.72-.32,3.54-.76,5.21-1.02,3.92-.98,7.93-1.35,11.9-.35,3.66-1.01,7.29-1.03,10.98-.02,3.55-.91,7.05-.63,10.62.05.64-.13,1.35.73,1.62"/>
  <path class="b" d="M399.34,305.35c-.08,3.31.43,6.61.4,9.9-.05,5.34,1.05,10.67.18,16.03-.22,1.34-.03,2.75-.03,4.13,0,4.08.1,8.16-.15,12.24-.03.46-.46,1.36.7,1.26"/>
  <path class="b" d="M337.06,299.86c-1.56.1-3.16-.04-4.67.47-.38.13-.75.38-1.08.14-1.5-1.11-2.29-.25-3.28.89-2.98,3.42-5.81,6.98-9.29,9.97-2.01,1.73-3.64,3.92-5.44,5.89-1.86,2.04-3.77,4.04-5.56,6.14-1.02,1.2-1.43,2.99-2.92,3.71-1.18.57-2,1.52-3.04,2.21"/>
  <path class="b" d="M207.01,367.09c-.03,8.04-.1,16.08-.07,24.12,0,3.12.35,6.24.31,9.36-.07,4.86-.33,9.72-.5,14.58,0,.24.11.48.17.72"/>
  <path class="b" d="M222.4,4.93c.06,2.94.29,5.89.14,8.82-.24,4.75-.77,9.48-1.11,14.22-.13,1.79-.21,3.61-.08,5.4.27,3.69-.51,7.31-.59,10.98-.04,1.83.08,2.37,1.83,2.68,4.96.86,9.63,2.67,14.38,4.21,1.32.43,2.2-.27,3.25-.58"/>
  <path class="b" d="M184.78,11.05c-1.09-.14-1.46.2-1.69,1.43-.59,3.19.08,6.37-.24,9.56-.43,4.24-.96,8.55-.66,12.77.38,5.44-.35,10.81-.3,16.21.02,2-.78,3.92-.71,5.94"/>
  <path class="b" d="M136.18,300.67c.11,2.36-.52,4.66-.6,7.02-.07,1.98-.3,3.96-.29,5.94.03,4-.64,7.93-1.02,11.89-.27,2.79-.37,5.64-.37,8.45,0,5.08-.88,10.08-1.19,15.12-.22,3.55-.66,7.08-1.04,10.62-.33,3.01-.98,5.99-1.2,9-.34,4.57-1.1,9.09-1.36,13.67-.34,6.18-.5,12.36-.73,18.54-.15,3.96.25,7.94-.31,11.88-.21,1.5-.07,3.03-.49,4.51-.12.4-.24,1.15.7.8"/>
  <path class="b" d="M272.35,359.53c-.09,5.22.14,10.44.24,15.66.13,6.66.12,13.33-.32,19.98-.08,1.14-.75,2.25-.19,3.42"/>
  <path class="b" d="M180.64,123.37c-1.02-.61-1.86-.82-3.11-.09-1.18.7-2.71.29-4.1-.25-3.11-1.22-6.39-1.52-9.67-1.57-.57,1.47-.13,2.87-.19,4.25-.29,7.68-1.15,15.33-1.18,23.04-.01,2.81.14,5.65-.29,8.46-.07.49-.07,1.04.71.9"/>
  <path class="b" d="M78.94,248.83c-.45,3.96.18,7.92.02,11.88-.16,3.95-.69,7.86-1.03,11.88h1.37"/>
  <path class="b" d="M46.81,123.01c.08,3.56-.25,7.08-.55,10.63-.25,3-.52,6-.81,8.99-.44,4.44-.92,8.88-1.44,13.32-.3,2.57.05,5.2-.55,7.74-.59,2.51-.14,5.05-.48,7.57-.11.79-.31,1.52-.59,2.22-1.36-.27-2.48.22-3.4,1.2-1.85,1.95-3.81,3.76-5.93,5.42-1.17.92-2.34,1.75-3.79,2.16-.4.11-.76.38-1.1.69-2.86,2.54-6.32,4.29-9.17,6.86-1.02.92-1.8.56-2.91-.12-3.46-2.13-6.06-5.34-9.52-7.41-1.78-1.06-3.44-2.41-5.56-2.82"/>
  <path class="b" d="M541.9,261.61c-2.4,2.16-4.87,4.25-7.18,6.5-2.71,2.64-5.31,5.39-7.59,8.43-.66.88-1.29,1.92-2.18,2.48-2.26,1.42-1.99,4.2-3.52,6.03-1.51,1.8-2.77,3.85-3.66,6.08-.26.66-.65,1.13-1.41,1.5-1.56.75-2.16,2.49-3.28,3.71-3.7,4.03-5.13,9.22-7.1,14.09-1.01,2.49-1.38,5.28-1,8.07.11.82.07,1.68,0,2.52-.15,1.83.12,3.58.92,5.22.58,1.18.22,2.79,1.61,3.61"/>
  <path class="b" d="M94.06,108.52c3.75.95,7.35,2.43,11.16,3.14,3.09.57,6.22.87,9.36.54,2.98-.32,5.77.69,8.64,1.12,2.72.42,5.4,1.05,8.1,1.59,4.65.93,9.41,1.25,14.01,2.3,1.98.45,3.94-.17,5.66.65.61-.31.48-.76.49-1.15"/>
  <path class="b" d="M245.62,295.99c-1.27,3.2-.94,6.46-.32,9.71.09.49.12.97.13,1.45.02,3.78.27,7.58-.06,11.33-.34,3.9-.32,7.82-.93,11.72-.65,4.15-.7,8.39-.97,12.59-.38,5.76-1.07,11.53-.98,17.28.08,5.03-.33,10.09.37,15.13.17,1.19.08,2.51.08,3.77-.02,8.64,0,17.28-.01,25.92,0,1.8.07,3.6.07,5.4,0,4.99-.58,9.95-.59,14.97.47.24.95.31,1.43-.03"/>
  <path class="b" d="M182.62,335.41c.62,1-.24,1.89-.21,2.88.17,5.74-.77,11.4-1.2,17.1-.18,2.45-.06,4.92-.02,7.38.04,2.76-.56,5.42-1.02,8.11-.32,1.86.12,3.85.04,5.75-.11,2.71-.04,5.47-.98,8.11-.47,1.33-.05,2.75-.05,4.13.04,5.16.16,10.33-.19,15.48-.18,2.65-.79,5.27-1.02,7.92-.19,2.21-.86,4.4-.4,6.66.18.87-.41.96-1.07.9"/>
  <path class="b" d="M210.16,47.23c.22,1.68-.43,3.38.47,5.08.48.9-.57,1.93-.75,3.01-.54,3.26-.07,6.5-.26,9.74-.21,3.66.19,7.33.32,10.97.15,4.1-.81,8.03-.99,12.06-.15,3.59-.61,7.19-.59,10.81,0,.72,0,1.43.14,2.17.28,1.56-.4,1.95-2.13,1.34"/>
  <path class="b" d="M57.61,369.97c-.33,5.58-.71,11.16-.97,16.74-.16,3.42.15,6.85-.36,10.26-.95,6.39-1.17,12.87-2.17,19.26-.49,3.13-1.53,6.16-1.63,9.36"/>
  <path class="b" d="M83.08,93.67c-.53,2.73-.62,5.52-.9,8.28-.13,1.31-.18,2.6-1.25,3.61-1.06,1-.57,2.41-.67,3.59-.29,3.65-.16,7.33-.46,10.97-.33,4.1-.79,8.19-1.51,12.26-.37,2.06-.53,4.19-.75,6.29-.12,1.1-.7,1.95-1.5,2.29-3.84,1.61-6.89,4.45-10.39,6.59-1.69,1.03-3.07,2.56-4.69,3.76-.71.52-1.43,1.08-2.2,1.36-1.21.43-1.99,1.23-2.68,2.21"/>
  <path class="b" d="M550,446.65c-1.28-.72-2.38-.32-3.62.32-2.14,1.11-4.56,1.6-6.65,2.9-2.65,1.64-5.29,3.32-8.27,4.34-.13.04-.26.1-.36.18-3.31,2.74-7.29,2.45-11.16,2.28-1.75-.08-3.28-.11-4.5,1.32-1.2,1.39-2.56,1.05-4.02.23-.37-.83-.15-1.79.06-2.75"/>
  <path class="b" d="M180.82,63.61c-.12,6.78-.2,13.56-.37,20.34-.1,4.08-.35,8.16-.53,12.24-.05,1.24-.67,2.3-1.08,3.42"/>
  <path class="b" d="M208,334.51c-.36,3.79-.03,7.57.23,11.34.14,1.98.68,3.92.32,5.95-.84,4.82-1.14,9.7-1.44,14.58-.03.52-.3.61-.73.54"/>
  <path class="b" d="M661.15,227.32c.24.21.42.41.81.47,5.18.82,9.42,3.4,13.38,6.75,1.98,1.68,4,3.34,6.06,4.93.7.54,1.46.8,2.34.72"/>
  <path class="b" d="M228.61,402.73c-.42,7.61-.81,15.23-.63,22.86"/>
  <path class="b" d="M412.39,302.11c.49.95.68,1.76.18,2.92-.4.94,0,2.24.09,3.38.36,4.08.12,8.16.16,12.24.05,4.32-.2,8.65.06,12.96.32,5.16.51,10.34.23,15.48-.28,5.15.09,10.21.6,15.31.09.9.18,1.85-.34,2.7"/>
  <path class="b" d="M141.4,252.07c.49,1.23-.2,2.41-.16,3.6.16,4.87-.58,9.64-1.44,14.4-.15.81-.02,1.68-.02,2.52"/>
  <path class="b" d="M394.39,230.47c.92,2.49.39,5.05.23,7.56-.19,3-.14,6-.11,9,.01,1.83-.29,3.61-.58,5.4-.14.82-.5,1.64.74,1.89"/>
  <path class="b" d="M213.4,5.11c.09,2.05-.9,3.92-.99,5.94-.13,2.9-.64,5.76-.94,8.65-.14,1.31-.38,2.72.62,4,.35.45.16,1.42.02,2.11-.12.61-.21,1.1.2,1.63.95,1.24.64,2.32-.53,3.23"/>
  <path class="b" d="M313.48,350.89c.27,5.04-.27,10.07-.24,15.12.03,4.32-.46,8.64-.65,12.96-.13,3.06-.17,6.12-.19,9.18-.04,6.43.73,12.84.83,19.26.04,2.63-.15,5.28-.1,7.92.04,2.04.22,4.08.34,6.12"/>
  <path class="b" d="M545.68,267.19c1.21.66,1.58,1.83,2,3.05,1.14,3.29,2.3,6.49,2.4,10.09.09,3.21-.44,6.36-.5,9.54-.02.95-.02,1.92-.12,2.88"/>
  <path class="b" d="M273.52,338.11c.23,2.06-.33,4.07-.4,6.12-.17,4.62-.57,9.24-.83,13.86-.03.46-.46,1.36.7,1.26"/>
  <path class="b" d="M150.94,118.15c.01,1.86.03,3.75-.1,5.57-.23,3.38.23,6.72.17,10.09-.05,2.59-.39,5.16-.41,7.74-.02,3.08-.4,6.12-.63,9.18-.27,3.69-1.08,7.29-1.46,10.97-.73,7.07-1.47,14.12-1.38,21.25.04,3.6-.07,7.21-.37,10.8-.27,3.12-.68,6.23-.68,9.36,0,2.58.02,5.16,0,7.74-.01,1.2-.13,2.4-.17,3.6-.02.52-.3.61-.73.54"/>
  <path class="b" d="M319.24,404.35c.41,1.4-.42,2.63-.57,3.96-.49,4.22-2.13,8.3-1.91,12.6.23,4.58.6,9.17,1.56,13.69.36,1.71.33,3.46.23,5.22-.05.95.05,1.92.1,2.88.22,4.34,1.19,8.6,1.12,12.96-.07,4.08-.38,4.1,3.97,3.09,2.88-.67,5.8-1.22,8.82-.95,1.13.1,2.29-.22,3.41-.4,1.62-.26,3.26.05,4.91-.56,1.2-.44,2.73.14,4.1.06,4.27-.26,8.55-.07,12.8-.97,1.71-.36,3.55-.69,5.38-.46,1.03.13,2.02-.05,2.88-.71"/>
  <path class="b" d="M292.87,400.21c-.09,4.98-.27,9.96-.23,14.94.02,2.28.48,4.56.67,6.84.09,1.16.91.24,1.28.54"/>
  <path class="b" d="M312.31,141.91c.35.93-.41.82-.8.7-3.12-.96-6.32-1.49-9.54-2.02-1.98-.33-3.98-.43-5.96-.75-3.05-.51-6.14-.78-9.19-1.43-1.45-.31-3.02-.74-4.7.02-1.48.67-3.31.61-4.81-.31-1.25-.77-2.69-.82-4-1.36-1.12-.46-2.9,1.05-2.84,2.29.27,5.42-.5,10.8-.62,16.2-.08,3.54-.87,7.05-.84,10.62.02,3.42-.23,6.84-.3,10.26-.11,5.34-.2,10.68-.4,16.02-.01.3.11.6.17.9"/>
  <path class="b" d="M62.47,333.25c-.59,1.94-.44,3.97-.74,5.95-.41,2.64-.94,5.26-1.32,7.91-.21,1.44-.4,2.88-.53,4.32-.05.54-.18.8-.74.72"/>
  <path class="b" d="M93.16,110.95c.99,2.37-.46,4.55-.64,6.83-.47,6.09-1.5,12.15-2.53,18.17-.89,5.21-.92,10.49-1.86,15.68-.32,1.78.13,3.58.05,5.4-.2,4.45-1.1,8.83-1.07,13.32.02,2.43-.65,4.91-.88,7.38-.33,3.59-.65,7.19-.8,10.8-.15,3.86-.43,7.7-1.02,11.52-.98,6.27-1.28,12.61-2.11,18.9-.35,2.62-.2,5.23-.47,7.84-.04.37.22.78.34,1.17"/>
  <path class="b" d="M266.86,67.03c-1.25.24-1.49-.66-1.22-1.43.96-2.7.81-5.54,1.14-8.3.31-2.54.35-5.14.36-7.73,0-2.23-.79-3.85-2.09-5.39-2.22-2.62-5.05-4.57-7.74-6.66-1.25-.97-2.42-1.99-3.44-3.23-.94-1.13-1.95-2.31-3.57-2.54"/>
  <path class="b" d="M46.54,208.51c4.73.57,8.81,2.77,12.54,5.48,1.52,1.11,3.36,1.43,4.73,2.63.74.65,2.1.86,1.81,2.33"/>
  <path class="b" d="M546.4,450.43c-.09,2.75,1.23,5.12,2.2,7.55,1.29,3.23,2.71,6.41,3.73,9.74.1.33.01.72.01,1.08"/>
  <path class="b" d="M90.64,250.45c-1.44,7.55-1.48,15.22-1.79,22.86-.02.43,0,.74-.55.45"/>
  <path class="b" d="M242.74,33.91c-1.17.16-.77-.87-.77-1.26,0-2.34.06-4.69.25-7.02.12-1.45-.46-2.86-.09-4.34.08-.31-.24-1.07-.82-1.44-2.99-1.89-5.41-4.42-7.55-7.2-2.2-2.85-5.48-4.29-8.12-6.56"/>
  <path class="b" d="M490.6,193.57c1.42,2.56,2.03,5.5,4.09,7.78,1.62,1.79,3.14,3.56,5.44,4.46,1.65.65,2.75,2.22,4.5,2.69"/>
  <path class="b" d="M46.9,266.11c-1.04.03-1.14-.69-1.07-1.44.22-2.66-.26-5.28-.41-7.92-.12-2.23-.57-4.44-.86-6.66-.1-.79-.62-.91-1.27-.9"/>
  <path class="b" d="M545.32,205.81c1.3,4.25,2.65,8.46,2.91,12.96.14,2.42-.68,4.42-2.02,6.3-.97,1.36-1.97,2.68-3.4,3.62-2.12,1.39-3.5,3.57-5.38,5.24-.64.57-1.24.76-2.01.69"/>
  <path class="b" d="M75.16,152.17c.4.69.24,1.4.22,2.16-.23,7.36-1.9,14.53-2.88,21.78-.56,4.11-.74,8.29-1.22,12.4-.55,4.74-.49,9.56-1.67,14.24-.25.97-.3,2.05-.18,3.05.42,3.61-.49,7.18-.16,10.82.1,1.06.1,2.27.14,3.41"/>
  <path class="b" d="M372.7,272.95c-.42.12-.92.13-1.25.38-4.2,3.16-8.92,5.52-13.18,8.59-.89.64-1.83,1.46-3.23,1.17-.64-.13-.91,1.13-1.79,1.03"/>
  <path class="b" d="M267.94,378.07c0,1.62.08,3.25-.18,4.86-.5,3.16-.44,6.36-.72,9.54-.27,3-.15,6-.18,9-.01,1.38-.11,2.76-.15,4.14-.14,5.76.12,11.53-.39,17.28-.04.42-.12.84-.18,1.26"/>
  <path class="b" d="M510.76,166.21c-3.77.64-7.27,1.97-10.44,4.14-1.77,1.21-3.63,2.32-5.21,3.79-.67.62-1.38,1.14-2.34,1.17"/>
  <path class="b" d="M241.12,83.05c-.23,3.06-.52,6.09-.45,9.18.08,3.29-.13,6.61-.57,9.91-.29,2.17.05,4.43.11,6.65"/>
  <path class="b" d="M62.56,222.55c.04-.56.02-1.03-.72-1.19-1.5-.32-2.8-1.13-3.94-2.08-2.99-2.49-6.62-3.68-10.09-5.22-.57-.25-1.09-.06-1.63-.16"/>
  <path class="b" d="M252.46,396.79c1.09-.06.75.78.7,1.26-.37,3.47-.44,6.98-.43,10.44.03,5.89-.55,11.76-.45,17.64"/>
  <path class="b" d="M106.57,285.37c.15,2.94.2,5.89.48,8.82.35,3.72.71,7.42.73,11.16.01,1.69-.1,3.36-.19,5.04-.03.58-.5,1.63.87,1.44"/>
  <path class="b" d="M41.14,186.37c.4.82.2,1.66.23,2.52.19,5.31-.57,10.56-.76,15.84-.08,2.22.13,4.45-.05,6.66-.18,2.22-.38,4.43-.32,6.66.02.61-.15,1.25.27,1.8"/>
  <path class="b" d="M55.36,88.81c5.74-.08,11.3,1.28,16.92,2.16,1.8.28,3.6.58,5.4.9,1.95.34,2.24.8,2.17,2.7-.11,3.06-.13,6.12-.2,9.18-.02.76.15,1.44.72,1.98"/>
  <path class="b" d="M158.41,57.85c.69,1.37-.15,2.66-.33,3.95-.24,1.67.33,3.26.21,4.87-.36,4.86-.23,9.73-.75,14.59-.34,3.17-.48,6.36-.81,9.54-.19,1.87.85,2.86,3.57,3.77,2.23.75,4.5,1.72,6.7,2.15,2.61.52,4.97,1.62,7.51,2.24,1.44.35,2.94.5,4.33,1.02"/>
  <path class="b" d="M210.97,399.85c-.25,2.75-.35,5.54-.35,8.28,0,4.07-.56,8.17.22,12.25.23,1.21-.08,2.51-.14,3.77"/>
  <path class="b" d="M333.19,193.03c.79.69.04,1.44.06,2.16.22,6.3.08,12.61.7,18.9.29,2.97-.13,6.01.1,8.99.2,2.58-.27,5.22.63,7.76.18.5-.01,1.18-.1,1.79-.33,2.44-.82,4.89-.25,7.38.14.63.11,1.33,0,1.97-.23,1.39-.19,2.75,0,4.15.33,2.32.3,2.16,2.53,2.38,2.22.22,4.49-.21,6.66.5,1.24.41,2.13-.35,2.65-1.12,1.18-1.72,2.55-3.18,4.16-4.5.74-.61,1-1.57.97-2.67-.07-2.46-.14-4.92.11-7.38.12-1.18-.21-2.41-.13-3.6.3-4.09-.18-8.16-.18-12.24,0-.52-.51-1.44.7-1.44"/>
  <path class="b" d="M362.62,271.15c-.22.98-1.06,1.33-1.8,1.81-4.61,3-8.94,6.39-13.32,9.73-.36.28-.61.71-.91,1.07"/>
  <path class="b" d="M296.02,333.43c0,.24.1.59-.02.7-1.22,1.14.19,2.64-.54,3.79-.8,1.26-.25,2.68-.56,3.96-.53,2.15-.04,4.36-.64,6.5-.26.95.05,2.03.11,3.05.33,6,.27,12,.04,18-.25,6.54-.16,13.1-.64,19.61-.25,3.42-.32,6.88-.99,10.27-.11.55.15.8.72.72"/>
  <path class="b" d="M221.68,53.17c.27.31.46.67.35,1.08-1.02,4.08-1,8.25-1.12,12.42-.09,3.18-.49,6.36-.73,9.54-.47,6.24-.52,12.48-.76,18.72-.08,1.96-.12,3.97-.42,5.95-.49,3.33.13,4.11,3.2,5.23,3.33,1.21,6.68,2.1,10.27,2,1.13-.03,2.18.93,3.42.68"/>
  <path class="b" d="M513.64,166.39c0,2.42,0,2.44-2.52,2.4-.28,0-.52.07-.71.14-4.46,1.79-8.83,3.75-12.62,6.81-.9.73-1.91,1.33-2.87,1.99"/>
  <path class="b" d="M364.24,306.79c-.41,3.36.8,6.58.81,9.9,0,.36.08.72.08,1.08.06,4.8.16,9.6.17,14.4,0,2.76-.6,5.51-.33,8.28.45,4.57-.28,9.12,0,13.68.03.49-.53.96-.02,1.44"/>
  <path class="b" d="M418.42,276.19c-.21,2.4-1.44,4.36-2.71,6.29-.71,1.07-.96,2.1-.76,3.43.42,2.73.74,5.47.45,8.28-.23,2.26.07,4.56.31,6.84.02.24,0,.48,0,.72-.01,1.76-1.38,1.62-2.52,1.8"/>
  <path class="b" d="M418.42,215.35c-.2,1.97-2.09,2.39-3.28,3.37-2.14,1.78-4.55,3.25-6.79,4.92-2.07,1.54-4.75,1.98-6.66,3.84.29,3.83.16,7.73.04,11.63-.1,3.11.26,6.24-.04,9.36-.12,1.25-.17,2.52-.18,3.78-.01,1.17.61,1.75,1.78,2.01,1.57.34,3.22-.01,4.66.28,1.93.4,3.83.62,5.78.84,1.69.19,3.36.24,5.05.29"/>
  <path class="b" d="M189.82,15.01c.06,1.38.08,2.76.19,4.14.1,1.25-.2,2.45-.57,3.59-1.07,3.31-.99,6.71-.82,10.08.07,1.4.09,2.78-.09,4.14-.32,2.43-.09,2.9,2.18,3.62.4.13.77.36,1.1.69.68.67,1.64.98,2.51,1.06,4.74.44,9.33,1.76,14.04,2.38,2.5.33,3.67-1.07,2.89-3.43-.56-1.67.08-3.36,0-5.04"/>
  <path class="b" d="M346.42,270.79c-1.44.25-2.41,1.28-3.4,2.18-3.3,2.97-6.69,5.83-10.27,8.45-.58.43-1.51.59-1.45,1.61"/>
  <path class="b" d="M222.04,55.15c6.27,1.41,12.53,2.88,18.7,5.5.35,1,.53,2.33.37,3.68-.46,3.84.14,7.68-.04,11.53-.1,2.11.28,4.3.07,6.48-.03.27.09.61.53.54"/>
  <path class="b" d="M185.86,216.79c-.74-.1-.78.38-.72.9.34,2.6-.35,5.17-.31,7.74.05,2.86-.2,5.66-.6,8.46"/>
  <path class="b" d="M528.4,198.61c1.26,1.49,1.54,4.13,1.32,6.13-.49,4.46-3.15,7.32-6.55,9.69-1.16.81-2.49,1.37-3.77,1.99-1.07.52-2.05,1.14-2.88,1.99"/>
  <path class="b" d="M187.93,47.05c.09.36.18.72.29,1.16,1.16-.61,2.35-.51,3.58-.27,3.22.63,6.51.84,9.73,1.58,2.7.62,5.51.77,8.27,1.13"/>
  <path class="b" d="M115.66,253.96c-.88,2.17-.38,4.37-.18,6.57.27,2.87.4,5.76.32,8.64,0,.34.15,1.31-.86.99"/>
  <path class="b" d="M16.48,194.2c-.44-.31-.95-.32-1.24.1-1.19,1.7-2.8,2.84-4.7,3.57-.42.16-.49.52-.69.76-1.01,1.26-2.15,2.08-3.78,2.59-1.7.53-3.08,1.86-3.99,3.51"/>
  <path class="b" d="M307.63,360.25c-.15,3.84-.3,7.68-.45,11.52-.14,3.72-.56,7.43-.34,11.16.03.48-.45,1.36.7,1.26"/>
  <path class="b" d="M162.19,158.29c-.64,2.84-.47,5.78-.98,8.64-.25,1.42-.35,2.86-.42,4.32-.09,1.98.14,2.38,2.02,2.72,2.92.52,5.86.71,8.82.73.98,0,1.97.17,2.9.65.41.21,1.06.95,1.6.04"/>
  <path class="b" d="M42.22,173.59c1.11,1.52-.05,3.12.13,4.69.11.99-.26,2.05-.5,3.05-.25,1.01-.1,1.9.56,2.71-.65,1.4-1.54,2.27-3.23,2.6-1.54.31-2.54,1.77-3.66,2.94-1.85,1.92-4.66,2.61-6.46,4.7-.6.7-1.42,1.22-2.14,1.82"/>
  <path class="b" d="M48.88,161.53c-1,1.94-.59,4.09-.85,6.13-1,7.88-.93,15.82-1,23.75-.04,4.44-.7,8.88-.79,13.32-.05,2.41-.4,4.79-.43,7.2-.03,2.16-.17,4.32-.26,6.48"/>
  <path class="b" d="M320.5,219.49c0,2.64-.12,5.29.02,7.92.3,5.7.17,11.4.11,17.1-.02,1.62-.28,3.24-.04,4.86"/>
  <path class="b" d="M329.14,348.19c-.74-.1-.69.38-.73.9-.57,8.09-.8,16.19-.71,24.3"/>
  <path class="b" d="M393.4,219.49c-1.61.37-2.97,1.21-4.35,2.12-2.14,1.4-3.92,3.38-6.45,4.19-1.14.37-1.67,1.83-3.06,1.79"/>
  <path class="b" d="M243.82,336.85c-1.88.35-3.64.14-5.42-.69-1.87-.87-3.9-.52-5.72.2-1.27.5-1.78,1.82-1.81,3.19-.15,7.14-.4,14.27-.42,21.42-.02,6.78-.55,13.56-.62,20.34-.03,3,0,6-.23,9-.31,3.9-.61,7.8-.89,11.7-.04.52-.3.61-.73.54"/>
  <path class="b" d="M334.54,270.43c-.04.25.06.48-.17.73-2,2.15-3.93,4.35-5.96,6.46-1.62,1.69-3.15,3.48-5.2,4.71-.26.16-.49.13-.73.16"/>
  <path class="b" d="M2.26,186.64c3.24,2.57,7.32,3.56,10.81,5.65.87.52,1.86.81,2.33,1.82"/>
  <path class="b" d="M151.12,252.07c2.48-.66,5.04-.13,7.35.32,3.92.76,7.83.59,11.73.94,3.84.35,7.75-.09,11.52,1.06,1.43.44,2.79,1.08,4.31,1.29,3.77.51,7.56.32,11.34.34,1.62,0,3.24.02,4.86,0,2.22-.04,4.44-.1,6.66-.18,1.4-.05,2.83.15,4.12.44,4.72,1.08,9.49,1.92,14.25,2.75,2.59.46,5.3.73,7.9.51,3.65-.31,7.2.46,10.81.5,3.77.04,7.36,1.3,11,2.19,2.01.49,4.21.32,6.27.83,1.61.4,3.32.38,4.86,1.06"/>
  <path class="b" d="M38.26,201.31c-1.47-1.55-3.78-.95-5.41-2.14-1.48-1.08-3.19-1.66-5.03-1.82-1.02-.09-1.43-1.36-2.52-1.35"/>
  <path class="b" d="M256.42,267.19c-1.02-.1-1.74.57-2.13,1.28-2.14,3.91-4.75,7.56-6.55,11.67-.26.58-.12.97.03,1.45"/>
  <path class="b" d="M413.92,370.87c-.06-.24-.23-.52-.16-.71.93-2.47-.64-3.29-2.54-3.77-2.32-.59-4.13-2.44-6.65-2.59-.56-.03-1.09-.77-1.62-1.21-.85-.69-1.79-1.14-2.88-1.26"/>
  <path class="b" d="M175.06,188.71c1.13.95.6,2.33.65,3.42.22,5.15.24,10.32.33,15.48.11,5.89-.62,11.78-1.42,17.64-.39,2.86-.72,5.74-.43,8.64.06.62-.53,1.2-.02,1.8"/>
  <path class="b" d="M521.02,168.19c-1.67.19-2.85,1.28-3.94,2.36-1.83,1.83-1.63,1.48-3.64,3.06-.99.77-.62.62-1.71,1.28-.44.27-.76.27-1.28.13-2.09-.57-7.89,2.99-9.56,4.02-.77.47-1.52.82-2.37.83-.97,0-1.12.53-1.08,1.29"/>
  <path class="b" d="M295.48,267.01c-3.44,2.81-6.08,6.4-9.17,9.55-.89.91-1.46,2.12-2.7,2.72-.33.16-.61.09-.91.15"/>
  <path class="b" d="M249.94,29.23c.04,6.97-.59,13.92-.99,20.87-.18,3.05-.23,6.14-.6,9.19-.18,1.43.7,2.31,2.13,2.71,2.3.64,4.61,1.24,6.88,2.03,2.13.74,4.52.94,6.8,1.38.43.08.84.23,1.26.35"/>
  <path class="b" d="M533.44,198.61c-.18-.66-.85-.83-1.27-1.25-1.69-1.74-1.96-1.76-3.58,0-.87.94-1.96,1.62-2.74,2.67-.55.74-.83,1.24-.37,2.2.77,1.62.42,3.14-.64,4.69-1.85,2.72-4.19,4.67-7.21,5.98-.88.38-2.19.72-2.37,2.09"/>
  <path class="b" d="M307.36,337.39c.89.96.54,2.13.54,3.24,0,4.2.13,8.41-.06,12.6-.09,2.1.5,4.23-.28,6.31-.18.47.27.6.7.53"/>
  <path class="b" d="M483.76,399.49c1.07-1.57,2.78-.88,4.15-1.01,3.87-.37,7.71-.91,11.51-1.7,1.23-.25,1.91.79,2.85,1.17,1.85.73,3.62,1.1,5.62.87,1.59-.18,3.24.14,4.85.12,7.57-.1,15.08.46,22.5,2.01,3.63.75,7.21,1.68,10.98,1.67,1.54,0,3.01-.29,4.5-.35,3.3-.15,6.64-.38,9.89.48,4.57,1.21,9.03,2.84,13.68,3.8,2.17.45,4.32.06,6.49.27,2.68.26,5.4.13,8.09-.12"/>
  <path class="b" d="M238.42,259.99c.44,2.14-1.43,3.13-2.4,4.46-2.56,3.49-5.67,6.57-7.71,10.47-.39.75-1.3,1.17-1.68,1.99"/>
  <path class="b" d="M314.2,335.23c-.83,1.21-.59,2.75-.59,3.96.01,3.54-.01,7.08-.12,10.62-.01.38-.2.93.53.9"/>
  <path class="b" d="M394.3,231.01c-1.6-.42-2.36.95-3.41,1.64-2.6,1.71-5.31,3.24-7.8,5.15-.62.47-1.2.98-1.74,1.52-.9.91-.57,1.77.34,2.5"/>
  <path class="b" d="M374.86,353.05c1.35,0,2.46-.69,3.6-1.26,1.87-.94,3.75-1.87,5.57-2.89,1.29-.72,2.26-.69,3.27.54,2.79,3.37,5.87,6.49,9.17,9.36.68.59,1.38,1.42,2.51.92"/>
  <path class="b" d="M484.48,413.35c-2.33.13-4.61.68-6.83,1.31-2.97.84-6.03,1.27-9.04,1.81-1.56.28-3.24.15-4.85.63-.58.17-1.07.22-1.07.94,0,2.16-.52,4.34.17,6.48.06.18.06.36.17.55.6,1.04,5.08,3.61,6.31,3.8,2.72.4,5.41.29,8.1-.21"/>
  <path class="b" d="M51.04,245.41c-.06,3.78-.16,7.56-.17,11.34,0,4.14-.22,8.29.22,12.42.13,1.26.36,2.52.49,3.78"/>
  <path class="b" d="M490.06,181.87c-1.01.03-2.13-.44-2.89.72-.61.93-2.25.88-2.33,2.35-.04.85-.13,1.72.89,2.17.93.4,1.28,1.21,1.67,2.13.85,2.01,2.73,2.2,4.63,2.18"/>
  <path class="b" d="M188.2,48.31c-.45,1.08.02,2.16.01,3.24-.03,3.72-.11,7.44.01,11.16.16,4.89-1.07,9.71-.69,14.58.21,2.71-.32,5.42.29,8.11.13.59.12,1.26-.34,1.8"/>
  <path class="b" d="M77.32,330.01c.36-.89,1.04-1.19,1.98-1.28,4.6-.42,9.12-.53,13.71.61,2.2.54,4.68.42,6.98.88,2.41.48,4.78.7,7.21.17.85-.19,1.7.13,2.51.36,2.72.77,5.55,0,8.29.67,1.82.45,3.72.59,5.57.94,1.53.29,3.04.23,4.49-.23.86-.27,1.38-.15,1.81.58"/>
  <path class="b" d="M315.64,270.43c-2.5,2.63-4.39,5.77-7.02,8.28-1.11,1.06-2.05,2.36-3.6,2.88"/>
  <path class="b" d="M282.97,267.01c-.87,2.17-3.01,3.31-4.26,5.2-1.68,2.54-3.95,4.66-5.37,7.4"/>
  <path class="b" d="M163.36,182.14c2.62,1.08,5.41.4,8.11.76,1.26.17,2.55.15,3.77.59"/>
  <path class="b" d="M306.64,268.99c-1.95,1.43-2.96,3.64-4.46,5.43-1.59,1.9-2.55,4.3-4.54,5.91"/>
  <path class="b" d="M272.62,398.59c-.53-.05-.76.17-.73.72.03.66.01,1.32,0,1.98-.06,4.56-.24,9.12-.13,13.68.06,2.4.11,4.8.13,7.2"/>
  <path class="b" d="M94.42,284.47c.51,1.9.19,3.84.3,5.76.26,4.62,1.16,9.22.92,13.85-.11,2.13-.04,4.21.23,6.3"/>
  <path class="b" d="M216.1,263.59c-2.82,3.87-5.64,7.74-8.46,11.61"/>
  <path class="b" d="M640.72,402.37c-1.19,1.52-2.89,1.17-4.5,1.28-3.44.24-6.75,1.7-10.26,1.23-3.29-.44-6.47.87-9.72.53-4.02-.42-8.05-.25-12.06-.1-4.03.15-8.05.74-12.06,1.24-.85.11-1.68.09-2.52.15-.85.07-.45-.56-.54-.91"/>
  <path class="b" d="M247.42,69.91c.8-.25,1.58-.13,2.27.15-.85,13.53-1.7,27.04-2.57,40.71h-1.51"/>
  <path class="b" d="M547.48,238.21c-2.88,2.65-5.48,5.61-8.8,7.76-.6.39-1.2.4-1.82.52"/>
  <path class="b" d="M48.07,88.81c-.28,2.87-.29,5.77-.53,8.63-.34,4.09.19,8.18-.28,12.25-.47,4.07-.35,8.16-.36,12.24,0,.5.06,1.04-.72.9"/>
  <path class="b" d="M180.1,125.44c.86.12.75.77.72,1.35-.27,4.86-.47,9.72-.84,14.58-.12,1.63.16,3.22,0,4.87-.39,4.24-.74,8.5-.28,12.78.14,1.35-.38,2.74-.33,4.14.02.43-.4.38-.7.36"/>
  <path class="b" d="M257.86,338.83c-.45-2.44.18-3.11,2.52-2.5,1.81.47,3.61-.36,5.41.14.63.18,1.32.13,2.08.19-.18,2.06-.63,4.06-.69,6.13-.11,4.04.47,8.03.46,12.06,0,2.39.2,4.83.56,7.19.38,2.51-.14,4.93-.08,7.39"/>
  <path class="b" d="M335.62,192.49c2.79.19,5.4,1.23,8.07,1.91,2.38.6,4.74.09,7.05.61.18.04.36.12.56.18-.66,6.95-.99,13.91-.02,20.87"/>
  <path class="b" d="M76.42,141.01c.63.77.55,1.6.38,2.52-.39,2.08-1.02,4.15-.38,6.43-.83,2.07-3.09,2.89-4.59,4.46-1.28,1.35-2.39,3.21-4.58,3.55-.34.05-.98.39-1,1.03"/>
  <path class="b" d="M485.74,441.43c.29,2.09-.57,4.19.14,6.31.46,1.37,1.56,2.14,2.6,2.58.78.33,1.57.48,2.11,1.19.55.72,1.38.69,2.14.96,3.49,1.19,7.17.12,10.63,1.04,3.62.97,7.41.98,10.98,2.14.76.25,1.62.36,1.98,1.26"/>
  <path class="b" d="M306.91,402.37c.36,3.83.11,7.69.57,11.53.25,2.06-.18,4.19-.3,6.29"/>
  <path class="b" d="M180.82,333.61c-2.04-.06-4.08.36-6.12,0-1.56-.27-3.14-.34-4.67.02-.91.21-1.85.29-2.7.12-5.34-1.07-10.69-.2-16.02-.06-2.04.05-3.96-.33-5.94-.44"/>
  <path class="b" d="M59.77,352.33c-.4,5.31-.94,10.61-2.02,15.83-.11.53.58,1.63-.77,1.63"/>
  <path class="b" d="M479.26,173.05c.87,2.5,2.48,4.58,3.76,6.85.66,1.16.61,2.69,1.82,3.59"/>
  <path class="b" d="M77.5,284.11v8.82c0,2.64,0,5.28,0,7.92,0,.38.38.46.54.72"/>
  <path class="b" d="M312.58,142.45c.26.43.88.33,1.07.3,4.27-.61,5.57,1.96,5.34,5.27-.21,2.89.28,5.75-.07,8.65-.65,5.43-.3,10.92-.44,16.37-.04,1.49-.09,3.01-.22,4.51-.19,2.06.27,4.18.37,6.29.03.59.27,1.34.23,1.98-.23,4.03.24,8.05.47,12.06.22,3.72.71,7.43.79,11.17.01.47.46,1.36-.7,1.26"/>
  <path class="b" d="M158.86,58.93c2.19-1,4.5-.24,6.44.33,3.17.92,6.39,1.21,9.58,1.85,1.89.38,3.77.84,5.4,1.96.87.6,2.18.15,2.88,1.17"/>
  <path class="b" d="M507.34,342.97c-.06,2.4-.16,4.8-.17,7.2,0,2.16-.13,4.32.16,6.48.36,2.69.19,5.4.17,8.1-.01,1.29.4,2.54.34,3.78-.27,5.95.45,11.88.38,17.82-.04,3.3.23,6.6-.13,9.9-.08.7.21,1.44.33,2.16"/>
  <path class="b" d="M250.12,70.27c3.3-.02,6.44.69,9.56,1.73,1.08.36,1.92,1.63,3.21,1.12,1.17-.47,1.85.35,2.71.75.32.15.38.38.37.72-.19,3.78-.37,7.56-.55,11.34,0,.2.04.41-.18.54"/>
  <path class="b" d="M370.9,241.99c.02.43.04.84.15,1.27.15.54-.1,1.05-.69,1.25-3.45,1.14-6.23,3.41-9.19,5.39-.74.49-1.31,1.68-2.51.82"/>
  <path class="b" d="M524.98,201.31c-.57-.07-1.02.13-1.45.53-2.54,2.34-5.63,3.61-8.76,4.99-2.75,1.21-5.65,2.76-7.07,5.82"/>
  <path class="b" d="M529.3,144.52c-2.34,1.52-4.85,2.75-7.41,3.8-1.54.64-3.34.4-5.01-.11-2.12-.65-4.05-.38-5.97.84-.94.6-2.25,1.17-3.39.05"/>
  <path class="b" d="M52.84,161.26c1.99.66,4.07.75,6.1,1.11,2.16.39,4.45.28,6.46,1.06,1.18.46,2.11.05,3.1.01,1.97-.07,3.79.94,5.76.6"/>
  <path class="b" d="M179.29,163.69c.27,5.23-.1,10.44-.27,15.66"/>
  <path class="b" d="M110.71,254.41c-.61,1.43-.16,2.88-.08,4.32.17,3.41-.31,6.76-1,10.08"/>
  <path class="b" d="M379.18,204.19c-.11,1.21.24,1.91,1.62,1.44,1.65-.57,3.13.21,4.69.52,2.61.53,5.19,1.34,7.92.94.28-.04.6.11.9.18.51,1.71-.58,3.34-.33,5.02.24,1.63.34,3.29.08,4.85-.29,1.73.23,3.37.08,5.05"/>
  <path class="b" d="M266.68,112.57c-1.58.06-2.91-.46-4.36-1.18-2.59-1.28-5.48-1.8-8.42-1.91-2.07-.07-4.17-.19-6.12-1.06"/>
  <path class="b" d="M379.9,205.99c-.3,3-.14,6-.18,9"/>
  <path class="b" d="M463.24,404.17c-1.03-.45-1.93-.24-2.7.54-.91.93-2.13,1.26-3.24,1.8-2.82,1.35-4.65,3.46-5.04,6.66-.22,1.73.19,2.39,1.8,3.07,2.71,1.13,5.46,2.02,8.46,1.61"/>
  <path class="b" d="M186.94,87.19c1.09-.06.77.79.69,1.25-.3,1.67-.12,3.38-.63,5.06-.42,1.4.21,2.96-.17,4.5-.18.73-.41,1.53-.43,2.32"/>
  <path class="b" d="M180.64,289.87c-.98-.71-2.07-.65-3.24-.68-3.07-.07-6.13-.23-9.19.29-.68.11-1.39-.48-2.15-.33"/>
  <path class="b" d="M380.62,240.37c-1.66-.01-1.89.25-1.81,1.8.17,3,.71,5.98.52,9-.06.91,1.16,1.8.03,2.7"/>
  <path class="b" d="M264.7,86.47c1.08,0,.92.94.86,1.44-.4,3.6-.4,7.2-.29,10.8.09,2.96-.57,5.87-.39,8.82"/>
  <path class="b" d="M560.98,222.55c-2.11.58-3.34,2.25-4.68,3.78-.73.83-1.46,1.66-2.15,2.53-.31.39-.68.38-1.09.35"/>
  <path class="b" d="M468.1,132.37c-.58,5.59-.92,11.17.18,16.74"/>
  <path class="b" d="M552.16,242.35c-.94,1.75-.89,3.67-1.01,5.58-.33,5.29-1.17,10.51-2.41,15.66"/>
  <path class="b" d="M566.38,159.91c.06-1.74.11-3.48.18-5.22.05-1.24-.14-2.4-.9-3.42-.94-1.24-1.69-1.35-3.07-.55-.59.34-1.19.93-1.97.37"/>
  <path class="b" d="M380.26,214.99c-.74-.1-.72.38-.73.9-.05,3.78-.15,7.56-.15,11.34,0,.79-.37,1.43-.48,2.16"/>
  <path class="b" d="M395.02,252.79c-3.68.45-7.32-.38-10.98-.36-1.35,0-2.67.11-3.96.54"/>
  <path class="b" d="M203.86,102.22c-2.74-.97-5.63-.96-8.46-1.33-.7-.09-1.16-.65-1.8-.72-1.07-.13-2.1-.42-3.25-.27-1.13.15-2.33-.31-3.41-.83"/>
  <path class="b" d="M529.3,196.27c-1.13-1.12-2.25-1.33-3.81-.6-1.45.68-3.01,1.11-4.51,1.78-2.45,1.1-5.08,1.97-7.88,1.7"/>
  <path class="b" d="M145.81,215.17c.29,4.92.53,9.83.29,14.76-.06,1.13.1,2.28.16,3.42"/>
  <path class="b" d="M159.94,183.67c.76-.12.78.36.72.9-.42,4.02-.84,8.04-1.26,12.06"/>
  <path class="b" d="M370.54,244.69c.9,2.08-.02,4.2.16,6.3.07.86,0,1.71.74,2.34"/>
  <path class="b" d="M399.79,349.09c-.54,5.03-.24,10.08-.27,15.12"/>
  <path class="b" d="M500.32,441.43c-.51-1.97-1.16-2.35-3.06-2-1,.18-2.03,0-3.06.17-2.73.43-5.47.71-8.1,1.64-.7.25-.88-.34-.98-.88"/>
  <path class="b" d="M314.2,337.57c1.52.25,2.97.71,4.32,1.45,1.32.73,2.66.82,4.15.58,1.29-.21,2.6.28,3.96.25,1.19-.03,1.48,1.51,1.78,2.59.12.42-.16.95.37,1.26"/>
  <path class="b" d="M510.16,176.38c-.23,1.37-4.21,3.72-5.35,4.2-1.87.78-3.83,1.35-5.75,2.01"/>
  <path class="b" d="M242.11,34.09c-.31,1.64-.63,3.27-1.11,4.88-.36,1.18-.22,2.46.04,3.78.46,2.31-.25,4.67-.49,7-.06.62-.25,1.2.03,1.8"/>
  <path class="b" d="M36.82,243.97c2.57.97,5.29.52,7.92.63,1.99.08,3.96.17,5.94.4,1.47.17,2.97-.07,4.5.18,4.35.7,8.75,1.14,13.13,1.68,2.94.36,5.87.79,8.82,1.04.8.07,1.25.7,1.98.76"/>
  <path class="b" d="M356.86,198.43c-.03.42,0,.86-.1,1.26-.24.91.1,1.31,1,1.26,3.75-.22,7.32,1,10.97,1.49,1.56.21,3.01,1.04,4.69.89.68-.06.79.74,1.08,1.23"/>
  <path class="b" d="M363.16,235.06c-1.29,2.09-2.93,3.65-5.58,3.69"/>
  <path class="b" d="M307.72,336.13c-.46,1.48-1.72,1.72-2.87,1.39-2.94-.83-5.89-.23-8.83-.31"/>
  <path class="b" d="M493.12,427.93c-1.54.39-3.11.46-4.48-.39-1.11-.69-1.97-.05-2.89.23-1.65.51-3.25,1.16-5.05.73-.5-.12-1.07-.13-1.65.27-.35.24-1.36.4-1.49-.66"/>
  <path class="b" d="M550.18,151.63c1.42,1.09,1.71,2.8,2.33,4.33.53,1.32.47,2.74.54,4.14.05.91.11,1.79.73,2.52"/>
  <path class="b" d="M356.41,228.49c.16.45,0,1.16.63,1.24,2.57.3,3.32,2.69,4.86,4.16.24.23.48.48.72.72"/>
  <path class="b" d="M467.38,126.07c1.38.14.76,1.29.66,1.79-.28,1.3.21,2.53.07,3.79-.06.52.29.61.71.54"/>
  <path class="b" d="M370.9,203.47c.25,2.94,0,5.88-.01,8.82-.04,5.47-.09,10.95.73,16.38.2,1.32-.27,2.53-.54,3.78"/>
  <path class="b" d="M56.17,155.23c-2.04-.56-4.14-.28-6.21-.36-.81-.03-.89.72-.86,1.08.14,1.77-.6,3.46-.4,5.22"/>
  <path class="b" d="M507.7,190.33c1.8,1.03,3.89,1.8,4.14,4.32"/>
  <path class="b" d="M127.72,418.39c-.06,2.12-1.29,4.11-.72,6.3"/>
  <path class="b" d="M415.36,210.58c-1.88.93-3.85.19-5.76.21-1.8.03-3.71.6-5.42-.63-.38-.27-.9.14-1.24.51-.51.57-1.18.32-1.8.36"/>
  <path class="b" d="M370.54,252.43c-2.76.2-5.53-.04-8.29.48-1.07.2-1.92-.66-2.33-1.74"/>
  <path class="b" d="M211.6,27.43c-1.69,1.7.03,3.2.44,4.66.41,1.46.85,2.66-.44,3.8"/>
  <path class="b" d="M460.54,408.85c1.27,1.64,1.87,3.53,1.96,5.58.04.94,0,1.88.56,2.7"/>
  <path class="b" d="M306.91,384.37c-.33,1.63.67,3.23.09,4.86"/>
  <path class="b" d="M306.46,389.23c1.21,0,.65.92.7,1.44.24,2.59-.32,5.15-.35,7.74-.01,1.08.33,2.15.03,3.25-.13.49.28.6.7.53"/>
  <path class="b" d="M551.98,146.95c-.42,1.56-.84,3.12-1.26,4.68"/>
  <path class="b" d="M357.4,230.29c-.41.68-.46,1.41-.27,2.16.56,2.14-.21,4.32.21,6.49.11.59-.23,1.45-.84,1.97"/>
  <path class="b" d="M69.94,156.85c1.4,1.06,3.15.59,4.68,1.08"/>
  <path class="b" d="M485.02,444.76c2.38.15,3.01.76,3.6,3.51"/>
  <path class="b" d="M412.03,213.37c-.09.24-.16.68-.27.69-1.82.22-3.32,1.58-5.22,1.46-.85-.05-1.57.33-2.34.55-1.6.45-2.01.03-1.93-1.62.05-1.03.09-2.04-.05-3.06"/>
  <path class="b" d="M460.9,407.23c-.22,1.33-.86,2.14-2.34,2.18-1.18.03-1.91.85-2.52,1.78"/>
  <path class="b" d="M502.84,426.49c-2.9.87-5.88.43-8.82.54"/>
  <path class="b" d="M210.88,40.93c-1.67.73-1.48,2.43-1.98,3.78"/>
  <path class="b" d="M190.36,7.45c-.18,2.1-.38,4.2-.53,6.3-.03.48-.28,1.21.71,1.08"/>
  <path class="b" d="M493.48,428.65c0-.12-.02-.24,0-.36.26-1.26.48-2.4-1.25-2.91-1.67-.49-2.7-.27-3.97,1.29-.08.1-.12.24-.18.36"/>
  <path class="b" d="M207.46,337.03c-2.41-.7-4.93-.56-7.37-.93-2.46-.38-4.91-.79-7.38-.65-1.41.08-2.89.24-4.13,1.06-.44.29-.86.07-1.27.16"/>
  <path class="b" d="M52.66,160.63c.07.42-.04.83-.54.7-1.37-.34-2.79.17-4.14-.25"/>
  <path class="b" d="M494.56,187.81c-.31.67-.71,1.29-1.26,1.8-.92.86-1.14,1.89-.72,3.06"/>
  <path class="b" d="M347.32,370.69c1.05,1.16,2.45.88,3.78.9,0-.06.02-.13,0-.18-.05-.12-.12-.24-.18-.36"/>
  <path class="b" d="M62.74,325.87c-.12,1.98-.27,3.96-.34,5.94-.01.46-.46,1.36.7,1.26"/>
  <path class="b" d="M268.12,370.51c-.03,2.29.5,4.63-.54,6.84"/>
  <path class="b" d="M211.24,32.11c-.78,1.13-1.76,2.25-.36,3.6"/>
  <path class="b" d="M180.28,67.93c-1.72.39-1.17,1.99-1.62,3.06"/>
  <path class="b" d="M698.5,390.31c0-.3.13-.74-.02-.88-1.25-1.13-5.06-1.01-6.45.17-.06.05,0,.23,0,.35"/>
  <path class="b" d="M320.05,211.93c.53,2.13.06,4.33.44,6.48.08.48-.05,1.03.73.9"/>
  <path class="b" d="M512.38,194.56c-.31.13-.75.17-.71.63.15,2.03-1.68,2.88-2.55,4.3-.25.4-.77.18-1.24.04-1.7-.51-2.54.29-2.33,2.14"/>
  <path class="b" d="M66.52,327.85c1.92.24,3.86.22,5.77.69.79.19,1.74.23,2.5-.01,1.16-.38,2.02-.05,2.9.59"/>
  <path class="b" d="M508.42,461.05c-1.35.75-2.25,1.73-1.8,3.42"/>
  <path class="b" d="M160.75,178.81c-.31,1.61.21,3.26-.27,4.86"/>
  <path class="b" d="M310.78,324.25c-.88.24-1.73.52-2.34,1.26-.49.6-.96.11-1.44,0"/>
  <path class="b" d="M419.32,364.93c-.72.65-1.31-.21-2.08-.19-.44,1.08-1.07,2.06-2.24,2.53"/>
  <path class="b" d="M562.96,144.43c.17-1-.54-1.31-1.22-1.76-1.1,1.32-2.27,2.46-1.48,4.28"/>
  <path class="b" d="M213.4,20.23c0,1.02.07,2.06-.72,2.88"/>
  <path class="b" d="M554.32,166.3c.94.71,1.02,1.4.17,2.06-.75.58-1.55,1.09-2.33,1.63"/>
  <path class="b" d="M515.98,165.4c-1.64.53-3.27,1.11-5.03.75-.53.84.08,1.62-.01,2.4"/>
  <path class="b" d="M453.52,410.29c1.01.65,2.72.26,2.98,2.15.04.28,1.46.37,2.24.55"/>
  <path class="b" d="M232.12,337.57c1.14,1.94.88,2.57-1.08,2.7"/>
  <path class="b" d="M244.72,297.97c-.73-.45-1.54-.36-2.34-.36"/>
  <path class="b" d="M207.46,415.87c-1.31.72-.88,1.99-.87,3.06.02.9.33,1.8.51,2.7"/>
  <path class="b" d="M242.02,1.69c-.97.11-.88,1.28-1.62,1.62"/>
  <path class="b" d="M57.52,65.23c.35.6.45,1.38,1.26,1.62"/>
  <path class="b" d="M295.84,265.21c0,.55-.61,1.16.18,1.62"/>
  <path class="b" d="M270.82,422.35h1.22c.14.49.27.96.4,1.44"/>
</svg>