<?xml version="1.0" encoding="utf-8"?>
<!-- Generator: Adobe Illustrator 28.1.0, SVG Export Plug-In . SVG Version: 6.00 Build 0)  -->
<svg version="1.1" id="a" xmlns="http://www.w3.org/2000/svg" xmlns:xlink="http://www.w3.org/1999/xlink" x="0px" y="0px"
	 viewBox="0 0 264.1 558.8" style="enable-background:new 0 0 264.1 558.8;" xml:space="preserve">
<style type="text/css">
	.st0{fill:none;stroke:#484848;stroke-width:1.5;stroke-linecap:round;stroke-linejoin:round;}
</style>
<path class="st0" d="M227.8,397.7c0,1.5,0.1,3-0.4,4.5c-0.5,1.6,0.2,3.2-0.1,4.9c-0.6,2.9-1.3,5.9-1.6,8.8
	c-0.6,4.8-2.2,9.3-3.8,13.9c-0.9,2.5-1.3,5.2-2.2,7.8c-1.2,3.4-3.1,6.4-4.4,9.7c-2.3,5.9-5.6,11.3-8.8,16.8c-2,3.6-4,7.2-5.7,10.9
	c-0.9,1.9-1.9,3.8-3.1,5.6c-2.2,3.2-3.5,6.8-4,10.6c-0.2,1.9-0.7,3.8-0.9,5.8c-0.2,1.3,0.3,2.4,0.2,3.6c0,4.9,0.1,9.8,0.2,14.8
	c0.1,5.5,0.6,10.9,1.1,16.4c0.2,2.5-0.1,5,0.1,7.6c0.2,4.5-0.5,8.9-0.2,13.3c0.1,1.9,0.4,3.7,0.5,5.6"/>
<path class="st0" d="M188.4,385.8c-1.3-1-1.6-2.6-2.3-4c-1.7-3.5-3.1-7.2-5.4-10.5c-1-1.5-2.1-3.1-3.5-4c-3.9-2.7-7.9-5.1-12.2-7.1
	c-2.7-1.3-5.8-2-7.8-4.4c-0.7-0.8-1.7-0.5-2.5-0.6c-3.3-0.7-6-2.6-8.6-4.5c-1.9-1.4-3.8-2.3-6.1-2.3c-0.9,0-1.7-0.3-2.6-0.8
	c-1.8-1-3.3-2.5-5.5-2.8c-0.8-0.1-1.6-1-2.3-1.6c-1.7-1.5-3.8-2.3-5.8-3.2"/>
<path class="st0" d="M153.7,239.1c-1.3,0.3-2.6,0.6-3.8-0.2c-0.6-0.4-1.3-0.1-2-0.2c-0.5-0.1-1.1,0.2-1.6-0.2
	c-1.9-1.5-4.1-1-6.1-0.9c-1.5,0.1-2.9,0.1-4.1-0.8c-0.3-0.2-0.7-0.4-1.1-0.4c-3.1,0.5-6.1-1.6-9.4-0.5c-0.7,0.2-2.1,0.3-2.9-0.8
	c-0.4-0.5-1.4-0.4-1.9-0.2c-1.4,0.7-2.4,0-3.4-0.6c-1.1-0.7-2.2-0.9-3.4-0.9c-2,0-4-0.2-5.9-0.3c-3.3-0.2-6.5,0.9-9.7,1.8
	c-2.9,0.9-5.9,1.6-8.3,3.7c-4.1,0.6-6.8,3.8-10.2,5.6c-0.2,0.1-0.4,0.4-0.5,0.5"/>
<path class="st0" d="M131,492.7c0.8-0.8,1.6-1.1,2.5-0.7c-0.8,0.7-1.4,1.9-2.7,0.7c-0.2-0.2-0.6,0.1-0.9,0.3
	c-3.1,2.4-6.3,4.5-10.2,5.3c-1.6,0.4-3,1.6-4.7,1.9c-4.2,0.6-8.2,2.4-12.6,2.4c-2.4,0-5,0.3-7.4,1c-0.6,0.2-1.1,0.4-1.3,0.9"/>
<path class="st0" d="M135,259.5c0.7-1.4-0.3-1.7-1.3-1.8c-1.1-0.1-2.3,0-3.4,0c-1.3,0-2.5,0.1-3.8-0.3c-2.4-0.8-4.8,0.1-7.2,0.4
	c-3.8,0.5-7.5,1-11.3,1.3c-2.9,0.2-5.9,0.3-8.6,1.4c-2.2,0.9-4.4,2.3-6.6,3.4c-4.3,2.3-6.8,6.4-9.9,9.9c-0.4,0.4,0.1,1-0.4,1.1
	c0.4,0.8,1.3,0.3,1.7,0.8"/>
<path class="st0" d="M116.6,32.3c-0.4,0.1-0.9,0.1-1.1,0.4c-2.5,3.1-6.1,3.6-9.6,4.5c-4.8,1.2-9.6,2.6-14.1,5
	c-2.7,1.4-5.1,3.1-7.5,5c-0.4,0.3-0.9,0.6-0.9,1.3"/>
<path class="st0" d="M54.7,264.3c-0.1,1.7,0.6,3.3,1.1,4.9c0.8,2.8,0.9,5.8,2.2,8.5c1.6,3.5,3.2,6.9,4.7,10.4
	c1.2,2.9,3.5,5.3,4.4,8.4c0.2,0.9,0.7,2,2.1,2"/>
<path class="st0" d="M127.4,411.5c0.2,1.2-0.2,1.7-1.6,2.1c-2.8,0.8-5.6,1.1-8.5,1.3c-2.3,0.2-4.7-0.4-7-0.6
	c-2.9-0.3-5.6-1.1-8.4-1.5c-3.1-0.5-6-0.4-9,0.2c-1.6,0.4-3.2,0.2-4.7-0.4c-0.8-0.3-1.5-0.5-2.3-0.3"/>
<path class="st0" d="M156.6,393.5c-2.8,5.5-7.2,9.5-12.2,13c-4.6,3.2-9.8,5.4-14.7,8c-1.1,0.6-2,1.8-3.4,1.7c-0.3,0-0.3,0.3-0.4,0.5
	c-0.6,2.2-2.4,3.3-4.3,4.1c-0.5,0.2-1.1,0.4-1.1,1.1"/>
<path class="st0" d="M68,296.2c0.5,0,0.8,0.3,0.9,0.7c0.8,3,3.1,5,4.8,7.4c1.7,2.4,3.3,4.9,4.8,7.4c1.6,2.7,3.5,5.2,4.9,8.1
	c1.3,2.5,2.8,5,3.6,7.7c0.2,0.6,0.6,1.1,0.9,1.6"/>
<path class="st0" d="M194.2,297.1c-0.7-2.3-1.5-2.9-4.3-3.1c-3.2-0.3-6.4-0.7-9.5-1c-1.1-0.1-2.2,0.3-3.2,0.4
	c-2.9,0.4-5.8,0.4-8.7,1.3c-2.2,0.7-4.1,2-6.4,2.5c-2.8,0.6-5.1,2.5-7.7,3.6c-1.2,0.6-2.4,1.2-3.8,1.4c-0.8,0.1-1.4,0.7-2,0.8
	c-3.1,0.5-6.3,1.5-9.5,1c-0.2,0-0.4-0.2-0.6-0.3c0.4-0.4,0.8-0.5,1.3-0.2"/>
<path class="st0" d="M135.5,258.9c2.8-1,5,0.5,7.2,1.6c5.1,2.6,9.7,6,15,8.2c2.5,1,5,2.1,7.4,3.4c0.9,0.5,0.6,0.8,0.3,1.3"/>
<path class="st0" d="M120.2,422.7c-2.1,1.4-4.2,2.9-6.3,4.3c-1.4,0.9-2.8,1.6-4.5,1.9c-2.4,0.4-4.5,1.8-6.7,2.8
	c-3.4,1.6-7.1,2.8-10.6,4.2"/>
<path class="st0" d="M192,394.3c-0.5,0.5-0.4,1.2-0.3,1.8c0.6,3.3,1.4,6.6,1.9,9.9c0.5,3.2,1.5,6.3,1.3,9.5c0,0.5,0.2,1,0.5,1.4
	c1,1.4,1.2,3,1.2,4.7"/>
<path class="st0" d="M158,442.1c0.6,1.6,0.2,3.4,0.4,5c0.5,5-0.4,10-0.4,14.9c0,2.9-1,5.7-1.2,8.6c0,0.5-0.1,0.8,0.1,1.3"/>
<path class="st0" d="M171.9,493.1c0.2,0.2,0.5,0.5,0.7,0.7c-3,4.3-6.9,7.7-10.5,11.5c-3.2,3.4-6.6,6.7-10.8,8.8
	c-3,1.5-4.9,3.7-6.6,6.4c0,0,0,0.1,0,0.2"/>
<path class="st0" d="M206.9,80.6c0.6,1.7,1,3.5,2.2,5c1.1,1.4,2.2,2.8,4.1,3.3c1,0.3,1.7,1.2,2,2.3c0.2,0.7,0.6,1.3,1.1,1.8
	c2.3,2,3.5,4.7,5.2,7.1c2.2,3.1,3.6,6.6,4.5,10.2c0.3,1.2,0.8,2.3,1.2,3.4c0.2,0.6,0.2,1.2-0.2,1.8"/>
<path class="st0" d="M204.6,125.7c2.8,4.8,5.1,9.8,7.2,14.9c1.1,2.7,1.9,5.5,2,8.5"/>
<path class="st0" d="M198.7,139.4c1.1,2,2.3,4.1,3.4,6.1c2.1,3.8,4.3,7.6,5.8,11.7c0.7,2,1.2,4,1.6,6.1"/>
<path class="st0" d="M128.9,251c-1.9,0-3.9,0.2-5.7-0.4c-0.8-0.3-1.5,0-2.2,0.1c-2.7,0.4-5.3,0.4-7.9,0c-1.5-0.2-2.9,0.3-4.3,0.8
	c-1.7,0.6-3.5,0.7-5,1.3c-1.9,0.8-4,0.9-5.6,2.2c-1,0.8-2,1.4-3.2,1.6c-3.1,0.5-4.7,3-6.6,5.1c-1.1,1.3-2.4,2.5-3.6,3.6
	c-1,1-2,1.9-3,3"/>
<path class="st0" d="M224.6,161c0.3,3.9,1.5,7.4,3.6,10.6c1.2,1.9,1.8,4,2.5,6.1c0.7,2.1,1.4,4.1,2.7,5.8"/>
<path class="st0" d="M30.1,11.4c-0.7-1.5-2.1-1.1-3.2-1c-2,0.1-4.1,0.5-6.1,0.9c-2.8,0.5-5.5,1.3-8.3,1.8c-2.7,0.4-4.8,1.9-7.2,3.1"
	/>
<path class="st0" d="M207.5,124.1c1.4,1.9,2.2,4.2,3.2,6.3c2.5,4.9,4.1,10.2,5.6,15.5"/>
<path class="st0" d="M250.7,248.8c4-1.4,8.5,0.8,10.1,4.7c1.1,2.8,1.4,5.6,1,8.5c-0.1,0.5,0,1.1,0.4,1.4c1.4,1.6,1.2,3.6,1,5.4
	c-0.1,1-0.2,1.9-0.3,2.9c0,2.8,0,5.7-0.7,8.5c-0.3,1.5,0,3.1,0.1,4.7c0.1,2.1,0.1,4.2-0.5,6.3c-0.5,1.9,0.1,4,0.4,5.9
	c0.5,3.9,0,7.7-0.6,11.5c-0.4,2.8-0.9,5.5-2,8.1c-1.1,2.7-0.7,5.7-0.9,8.6c-0.2,3.3-0.6,6.6-0.3,9.9c0.2,2.1-0.1,4.1-0.3,6.1"/>
<path class="st0" d="M154.9,458.7c-0.8,4.3-2.1,8.4-3.9,12.4c-1,2.3-1.9,4.7-3.3,6.8c-0.6,1-1.2,2-2.5,2.2c-0.4,0-0.7,0.3-0.9,0.7
	c-1.7,2.4-3.7,4.7-6,6.6c-1.6,1.4-3.1,3.1-4.8,4.4"/>
<path class="st0" d="M257.9,342.6c-0.7,0.5-0.5,1.4-0.5,2c-0.1,3.2-0.4,6.4-0.5,9.5c-0.1,2.9,0.6,5.8-0.1,8.6c-0.7,3-0.9,6-0.9,9
	c0,2.8-1.8,5-2.9,7.4c-0.6,1.5-1.8,2.7-2,4.3c-0.1,0.7-0.7,1-1.1,1.4c-2.3,2.4-4.7,4.7-7,7c-0.3,0.3-0.4,0.5-0.4,0.9"/>
<path class="st0" d="M224.2,247.9c1.5-0.4,2-1.3,1.6-2.9c-0.4-1.7-1-3.1-2-4.5c-1.3-2-2.8-3.9-3.5-6.3c-0.7-2.6-3-3.9-4.9-5.6"/>
<path class="st0" d="M60.5,358.6c-2,0.5-3.5,1.8-5.2,2.7c-1.9,1.1-3.7,1.6-5.8,0.6c-0.5-0.2-0.9-0.2-1.3-0.1c-3,0.9-5.5-0.3-8.1-1.5
	"/>
<path class="st0" d="M202.3,139.4c0.8,1.5,1.8,2.7,2.8,4.1c2.4,3.6,4.2,7.4,6,11.2c0.6,1.2,0.6,2.7,0.6,4.1"/>
<path class="st0" d="M99.3,9.2c-1.5,0.4-2.9,1.1-4.1,2c-2.5,1.9-5.4,2.7-8.3,3.6c-3.7,1.2-7.6,1.7-11.3,2.9
	c-2.2,0.7-4.3,1.5-6.5,2.1"/>
<path class="st0" d="M106.5,33.5c-0.4-1.2-1.5-0.4-1.8-0.3c-5.6,3-11.8,4.2-17.7,6.2"/>
<path class="st0" d="M33.1,0.8c-3.1-0.3-5.7,1-8.3,2.5c-3,1.8-6.4,2.9-9.7,4.1c-1.7,0.6-3.5,1.1-5.1,2.1c-1,0.6-2,0.8-3.2,0.6
	c-1-0.1-1.2-0.6-1.4-1.3"/>
<path class="st0" d="M28.3,26.2c-1.9,1.6-4.1,2.2-6.5,2.7C17.2,29.8,12.6,30,8,29.2"/>
<path class="st0" d="M177.1,423.2c-0.2,3.2,0.6,6.2,0.8,9.4c0.2,3.2,0.8,6.3,0.3,9.5"/>
<path class="st0" d="M40.3,2.2c-1.8-0.1-3.4,0.5-5,1.4c-3.5,1.9-7,4-11,4.9c-1.2,0.3-2.5,0.7-3.8,0.6"/>
<path class="st0" d="M144,461.4c1.6,3.5,2.8,7.2,3.5,11c0.4,2.2-0.5,4.3-1.6,6.3c-0.2,0.4-0.8,0.7-0.3,1.3"/>
<path class="st0" d="M96.8,27.8c-5.2,1.7-10,4.2-15.1,6.2c-1.2,0.4-2.5,0.7-3.4,1.6"/>
<path class="st0" d="M240.8,300.9c1.3,2.8,2.2,5.7,3.6,8.5c1,2,2.7,3.2,3.9,4.9c1.4,1.9,3,3.6,3.6,5.9c0.2,0.7,0.7,1.3,0.9,2
	c0.3,0.9,0.6,1.9-0.1,2.7c-0.7,0.7-0.5,1.4-0.5,2.2c0,1.9,0,3.6-1.6,5.1c-0.8,0.7-1.1,2-1.7,3c-0.3,0.4-0.4,1-0.9,1.3
	c-1.5,0.9-1.6,2.3-1.4,3.8c0.2,1.5-0.5,2.7-0.9,4c-0.3,1-1.3,0.8-1.9,1.4c-1.1,1.2-1.9,2.7-3.4,3.5"/>
<path class="st0" d="M189.5,378.6c1.2,2.3,1.9,4.8,2.9,7.2c1.4,3.5,3.1,6.9,4.1,10.6"/>
<path class="st0" d="M84.4,292.4c0.3,1.9,1.7,2.1,3.2,2.2c0.7,0,1.5-0.2,2,0.7c0.3,0.5,0.9,0.6,1.6,0.8c2.7,0.7,5.2,1.7,7.8,2.6
	c0.3,0.1,0.8,0,1.1,0.1c1.5,0.5,3,0.5,4.4,1.8c1.7,1.6,4.1,2.1,6.7,1.8c2.7-0.4,5.5,0.1,8.3,0.4c2.7,0.4,5.3,0.9,7.9,1.8
	c2.1,0.7,4.1,0.6,6.2,0.4c0.4,0,0.6,0.2,1,0.1c0.2,1.2,1.2,1.2,1.9,1c1.5-0.4,3.2-0.2,4.3-1.6"/>
<path class="st0" d="M131,201.7c-1.2-0.9-3-0.8-4.2-2.4c2.5-0.4,4.5,0.5,6.6,1.2c2,0.7,3.8,1.7,5.9,2c0.7,0.1,1.4,0.6,2,1
	c2.2,1.4,5,1.6,7.1,3.6c1.3,1.3,3,2.2,4.5,3.3c0.3,0.2,0.8,0.4,1.1,0.6c0.7,0.5,0.5-0.3,0.8-0.4"/>
<path class="st0" d="M157.3,521.3c-4.2,2.3-6.9,6.1-9.5,9.9c-1.2,1.7-2.3,3.5-3.4,5.2c-0.2,0.3-0.4,0.7-0.4,1.1"/>
<path class="st0" d="M173.6,101.9c0.1,0.9-0.4,1.6-0.7,2.3c-0.8,1.8-0.3,3.1,1.6,3.2c1.1,0.1,1.8,0.6,2.1,1.5c0.9,3,2.9,5.3,4.6,7.9
	c0.9,1.5,0.9,3.4,2.3,4.7c-0.4,2.8,1.5,4.8,2.8,7c1.3,2.3,2.4,4.7,3.5,7.1c0.1,0.2,0.1,0.4,0.2,0.5"/>
<path class="st0" d="M127.1,199.3c-2.5-0.6-4.9,0.2-7.4,0.4c-0.4,0-0.8,0.1-1.3,0.1c-4.5,0.2-9,0.7-13.5,0.5
	c-2.5-0.1-4.4,1.1-6.7,1.4c-2.8,0.4-5.1,1.9-7.6,3.1c-1.6,0.8-2.2,2.5-3.6,3.4"/>
<path class="st0" d="M77,13.6c-0.7-0.1-1.3,0.4-1.8,0.7c-6.2,5-13.3,8.5-20.3,12c0,0-0.1,0-0.2,0"/>
<path class="st0" d="M52.6,21.7c-0.5,1.2-1.9,1.5-2.9,1.9c-3.7,1.6-7.5,3.1-11.3,4.5c-1.1,0.4-1.8,1.4-3,1.3"/>
<path class="st0" d="M160.2,53c-1.4,2.6-1.9,5.6-3,8.3c-0.7,1.6-1.6,3-2.4,4.5c-0.4,0.8-0.8,1.7-1.1,2.5c-0.7,1.6,0.1,1.4,1.1,1.3"
	/>
<path class="st0" d="M206.4,211c2.7,3.6,5.7,6.9,8.1,10.8c1,1.7,2.1,3.4,2.5,5.4"/>
<path class="st0" d="M103.3,30.7c-2.8-1-4.7,1-6.8,2c-3.5,1.6-6.6,3.9-10.4,4.7"/>
<path class="st0" d="M225.5,267.9c1.5,2.6,2.7,5.2,3.4,8.2c-0.5,0.2-1,0.4-1.7,0.7c2,5,4.7,9.7,6.1,14.9"/>
<path class="st0" d="M250.8,273.3c0.4-1,0.1-1.8-0.5-2.5c-2.9,0.2-4.2,2.5-2.7,4.8c1,1.6,1.1,3.4,1.3,5.1c0.4,2.8,1.3,5.4,2.1,8
	c0.6,2.1,1.1,4.1,1.1,6.3c0,2.4,1.2,4.5,1.6,6.8c0.6,3,0.9,6.1,1.1,9.2c0,0.3,0.2,0.5,0.4,0.7"/>
<path class="st0" d="M206.6,139.2c3,4.4,5.1,9.3,6.9,14.4c0.2,0.7-0.7,1.8,0.7,2.2"/>
<path class="st0" d="M193.1,134c1.8,5.9,5.2,10.9,8.8,15.8"/>
<path class="st0" d="M25.4,310.2c-0.8,3.1-1.6,6.1-2.5,9.2c-0.6,2.1-1.5,4.2-1.4,6.5"/>
<path class="st0" d="M96.7,360.2c-1.5,0-3,0-4.5,0.3c-2.8,0.7-5.8,1.1-8.6,1.5c-1.2,0.2-2.5,0.2-3.8,0.5c-1.9,0.4-3.7-0.5-5.6-0.3"
	/>
<path class="st0" d="M119.9,417.1c0.2-1.5,1.2-0.8,2.1-0.7c0.1,0.6,0.4,1.2-0.3,1.6c-0.3,0.2-0.9,0.1-1.2-0.3
	c-0.6-0.7-1.5-0.4-2.2-0.3c-4.4,0.4-8.8,1.8-13.3,1.4c-3.3-0.3-6.4,0.6-9.6,1.2c-1.7,0.3-3.4,0.7-5-0.3"/>
<path class="st0" d="M69.5,14.8c-1.2-0.5-1.9-1.5-2.9-2.3c-2.6-2.2-5.5-3.7-9-2.8c-1.6,0.4-3.2,0.9-4.5,1.9
	c-0.6,0.4-0.4-0.2-0.5-0.4"/>
<path class="st0" d="M82.1,215.2c3,0.7,6.1,0.7,9.2,1.3c2.3,0.4,4.6,0.3,6.8,0.3c0.7,0,1.4,0,2-0.4"/>
<path class="st0" d="M40.7,10c-3.3,2.2-6.6,4.4-10.4,5.6c-0.8,0.2-1.5,0.7-2.4,0.8c-0.6,0.1-1.5,0.4-2-0.5"/>
<path class="st0" d="M103.3,291.7c2.3,1.6,4.8,3,7.4,3.4c1.8,0.3,3.6,1.6,5.8,0.8c0.6-0.2,1.8,0.4,2.7,0.6c1.8,0.5,3.6,0.1,5.4,0.1
	c0.9,0,1.7,0,2.5,0.4"/>
<path class="st0" d="M169,60.5c-0.5,4.4-1.4,8.7-2.7,13c-0.2,0.6-0.3,1.2-0.3,1.8"/>
<path class="st0" d="M170.9,265.6c-1-2.2-2.9-3.7-4.8-4.9c-2.6-1.7-4.4-4.7-7.8-5c-0.5-0.1-0.9-0.7-1.5,0c-0.2,0.2-1,0.2-1.4-0.3
	c-0.9-1.1-2.1-1.3-3.4-1.5c-1.7-0.2-3.2-1.1-4.9-1.5c-3.2-0.7-6.4-1.6-9.7-1.6c-1.5,0-3-0.5-4.5-0.7c-0.6-0.1-1.3-0.1-2,0.2"/>
<path class="st0" d="M81,415.3c1-0.9,2.3-0.7,3.4-1.1c0.5-0.2,1.3-0.3,1.4-0.9c0.2-0.7-0.5-1-1-1.5c-1.1-1-2.6-1.4-3.8-1.5
	c-3.9-0.5-7.9-1.1-11.9-0.8c-1.7,0.2-3.5,0.3-4.7,2"/>
<path class="st0" d="M228.7,124.6c0.7,2.7,2.2,4.7,4.1,6.7c1.7,1.9,3.3,4,2.8,7c-0.3,1.6,0.4,3.1,1,4.5c0.5,1.1,1.5,2.2,1.3,3.6"/>
<path class="st0" d="M43.2,10c-1.4,0.4-2.5-0.7-3.8-0.9c-2.2-0.4-4.1,0.7-6.1,1.3c-0.5,0.1-1,0.3-1.4,0.5c-1.1,0.5-2.1,1.2-3,2.2
	c-1.7,1.8-3.8,3.2-5.9,4.6c-3.2,2.1-6.4,4.3-9.9,6c-0.4,0.2-1.2,0.4-0.9,1.2"/>
<path class="st0" d="M158.7,49.2c-3,4.7-6.9,8.9-9.7,13.8c1.4,0.9,2.1,0.1,2.7-0.8"/>
<path class="st0" d="M104.4,227.4c-6.3,1.3-12.4,3.1-18.3,5.4"/>
<path class="st0" d="M81.7,288.8c0.3-1.3,1.4-1.1,2.3-1c0.8,0.1,1.7,0.2,2.5,0.7c1.3,0.8,2.6,1.1,4.1,0.8c1.3-0.3,2.5,0.6,3.7,1
	c1.3,0.4,2.6,0.6,3.8,0.4c0.7-0.1,1.2,0.7,1.8,0.1"/>
<path class="st0" d="M170.9,28.5c2,0.9,4.1,1.6,5.8,3.2c1.5,1.5,1.6,1.8,0.3,3.4c1.3,2.9,4,4.5,6.1,6.7c0.3,0.3,0.7,0.4,0.9,0.7
	c1.1,2.1,2.6,3.6,5.1,4c0.7,0.1,0.7,0.8,0.9,1.3c1.4,2.9,3.3,5.6,5.4,8.1"/>
<path class="st0" d="M134.4,305.9c-1,0.7-2,0.8-3.2,0.8c-1.6,0.1-3-0.2-4.5-0.2c-5,0-9.6-1.2-14.2-2.8c-0.7-0.2-1.5-0.1-2-0.7"/>
<path class="st0" d="M100.8,357.5c-2.2,0.3-4.4,0.6-6.7,0.9c-3.1,0.5-6.2,0.9-9.3,1.5c-2,0.4-4,0.6-5.9,1.4"/>
<path class="st0" d="M93.4,318c3.6,4.7,7.3,9.3,12.4,12.6"/>
<path class="st0" d="M257.7,301.8c-0.3-2.3,0.9-4.4,0.7-6.7c-0.1-0.9,0-1.8-0.3-2.7c-0.8-2.4,0.3-4.9,0.2-7.4
	c-0.2-5.2,1.1-10.3,0.6-15.5c-0.2-1.8,0.1-3.8-0.5-5.6c-0.3-0.8-0.7-1.3-1.8-1.3c-2.7-0.1-4.8,0.9-6.3,3.1c-0.6,0.9-1.2,1.7-2.3,2"
	/>
<path class="st0" d="M154.8,14.6c-0.6,0.3-1.1-0.4-1.4-0.6c-2.4-1.6-2.9-1.6-4.9,0.1c-0.1-0.1-0.3-0.1-0.3-0.2
	c-0.8-3.1-0.8-3.2-4.3-3.4c-1.8-0.1-3.1-0.8-4.3-2c-0.9-1-1.9-1.9-3.4-1.8c-0.9,0.1-1.1-0.7-1.6-1.1c-0.8-0.5-1.5-1.2-2.4-0.1
	c-1.7-4.6-5.2-2.2-8.1-2.2C123.1,1,123.1,1,120.6,1c-0.8,0-1.7-0.2-2.5,0.2"/>
<path class="st0" d="M213.8,125c0.6,1.1,1,2.3,0.7,3.6c-0.2,1,0.4,1.7,0.7,2.5c2.1,4.7,4.2,9.3,5.2,14.4"/>
<path class="st0" d="M117.2,209.4c-0.7,0.7-1.6,0.8-2.5,0.9c-3.2,0.4-6.3,1.4-9.3,2.5c-0.8,0.3-1.8,0.6-1.1,1.8"/>
<path class="st0" d="M149.5,51.2c-1.2,3.2-3,6.2-4.5,9.3c-0.3,0.5-0.3,1.2-0.6,1.7c-0.2,0.3-0.1,0.8,0.5,0.9
	c0.6,0.1,0.6-0.4,0.7-0.7"/>
<path class="st0" d="M184.3,266.1c-2.9,1-5.8,0.1-8.6-0.4c-1.1-0.2-2.4,0.1-3.5-0.4c-0.1,0-1.2-0.3-1.3,0.6"/>
<path class="st0" d="M89.1,327.7c2.1,1.6,3.9,3.5,6.1,4.9c1.5,1,2.2,2.9,3.6,4.1c0.8,0.7,0.9,2,2,2.5c0.1,0,0.2,0.1,0.2,0.2
	c0.8,3.7,4.1,6.3,4.6,10.2c0.2,1.9,1.3,3.7,1.1,5.8c-0.1,0.4-0.3,0.7-0.4,1.1"/>
<path class="st0" d="M155.1,350c0.9,0.3,1.8,0.5,2.7,0.4c3.3-0.4,6.3,0.9,9.4,1.8c2,0.6,4.1,1,5.9,2.2"/>
<path class="st0" d="M217.4,189.1l4.9,13"/>
<path class="st0" d="M194.2,56.6c1.1,3.3,3.2,5.8,5.6,8.3c1.6,1.7,2.5,3.6,3.2,5.8c0.4,1.3,1.6,2.1,2.1,3.3c0.1,0.3,1.3,1.3-0.3,1.4
	"/>
<path class="st0" d="M201.9,320.5c0.9,3.7,1.5,7.5,2,11.3c0.1,0.4,0.3,0.8,0.5,1.3"/>
<path class="st0" d="M115.2,218.6c-6.9,0.6-13.4,3-20,4.8c-1.1,0.3-2.3,0.4-3.4,0.6"/>
<path class="st0" d="M170.4,67.2c-0.5,2.6-1.6,5.1-2,7.7c-0.2,1.3-0.6,2.7-0.5,4.1c0,0,0.1,0.1,0.2,0.1c0.1,0,0.2-0.1,0.4-0.2"/>
<path class="st0" d="M39.2,65.9c-4.8,2.9-9.6,5.7-14.6,8.1c-0.3,2.3-1.3,4.3-3.8,5.4"/>
<path class="st0" d="M163.9,56.4c0,1.8-0.5,3.5-1.3,5c-1.3,2.4-2.4,4.9-3.6,7.4"/>
<path class="st0" d="M189.5,385.3c-0.6,0.9-1.2,1.7,0.1,2.8c0.8,0.6,1.4,1.8,1.5,3c0.3,2,1.6,3.5,2.4,5.2c1.1,2.2,0.9,4.8,1.3,7.2
	c0.5,2.8,1.2,5.6,1.5,8.5c0.1,1.2,0.3,2.5,0.8,3.6"/>
<path class="st0" d="M29.5,422c-1-0.2-1.9,0-2.9,0.1c-2.4,0.4-4.8,0.4-6.6-1.6c-0.7-0.8-1.5-0.6-2.4-0.4"/>
<path class="st0" d="M176.4,69.6c0.3,3-0.5,5.9-1.3,8.8c-0.3,1.1-0.1,2.4-1,3.3"/>
<path class="st0" d="M149.7,218.8c-2.9-0.3-5.9-0.7-8.8-0.9c-2.4-0.1-4.9-0.3-7.4,0.1"/>
<path class="st0" d="M198.5,422.4c0,3.3,0,6.6,0,9.9c0,0.8,0.1,1.5,0.4,2.2"/>
<path class="st0" d="M42.3,21.1c-2.1,1-3.3,3.1-5,4.6c-3.1,2.8-6.6,4.3-10.7,4.8"/>
<path class="st0" d="M120.9,346.4c1.7,1.6,3.2,3.4,4.6,5.2c1.4,1.8,3.2,3.2,4.8,4.8c0.4,0.4,0.4,0.8,0.7,1.1"/>
<path class="st0" d="M20.2,235.5c-3.3-2-7-3-10.4-4.7c-0.8-0.4-0.9,0.5-1.5,0.4"/>
<path class="st0" d="M35.1,24.4c-1.2,0.7-2.2,1.9-3.8,0.8c-0.3-0.2-0.8,0-1.2,0.1c-3.5,0.9-7.1,1.7-10.6,2.5c-3,0.7-6,0.4-9,0.2
	c-1.1-0.1-1.9-0.9-2.9-1.2"/>
<path class="st0" d="M25.6,296.7c-0.2,4.2-1.5,8.2-1.6,12.4c0,0.2,0.1,0.4,0.2,0.5"/>
<path class="st0" d="M23.2,243.8c-0.3,2.8-0.2,5.7-1.2,8.5c-0.5,1.4-1.4,2.3-2.4,3.2"/>
<path class="st0" d="M30.8,66.1c-1.8,0.4-3.3,1.4-4.9,2.3c-2.2,1.3-4.5,2.4-6.8,3.6"/>
<path class="st0" d="M100.2,298.5c-0.1-1.8-1.5-2.4-2.9-2.9c-2.6-0.9-5.1-2.1-7.9-1.1"/>
<path class="st0" d="M30.4,389.8c0.4,3.5,0.6,6.9,0.5,10.4c-0.1,1.9-0.4,3.7-0.4,5.6c0,0.8-0.1,1.8,0.9,2.3"/>
<path class="st0" d="M158.4,516c0.4,0.1,0.6,0.3,0.2,0.5c-2.3,1-3.9,3.1-6.1,4.3c-1.5,0.9-2.9,1.9-4.3,2.9"/>
<path class="st0" d="M84.6,444c-1.7,0.2-3.3,0.9-5,0.4c-1-0.3-1.7,0.5-2.7,0.6c-2.3,0.2-4.6,0.2-6.8,0.2c-2.6,0-5,1-7.5,1.2
	c-5.5,0.5-10.9,1.5-16.4,1.9c-1.1,0.1-2.1,0.5-3.2,0.3"/>
<path class="st0" d="M25.6,356.5c-0.7-1.7-2.2-0.8-3-0.6c-3.2,0.8-6.4,1.1-9.6,1.5"/>
<path class="st0" d="M88.7,504.4c1.4,2,3.7,2.2,5.8,2.6c1.7,0.3,3.5,0.6,5.2,1"/>
<path class="st0" d="M85.5,224.5c-2.5-0.9-5.2-0.9-7.7-0.3c-1.1,0.3-2.4,0.1-3.4,1c-0.3,0.3-0.8,0.4-0.9,0.9"/>
<path class="st0" d="M184.3,425.6c-0.4,1.9-0.6,3.9-0.3,5.8c0.5,3.4-0.1,6.6-0.4,9.9c-0.1,1.5,0.1,3.2-1,4.5"/>
<path class="st0" d="M236.4,185.3c0.8,0.6,0.8,1.5,1.1,2.3c1.2,2.6,2.3,5.2,3.9,7.6c0.2,0.3,0.3,0.8,0.7,0.9
	c1.1,0.1,1.3,0.9,1.5,1.8c0.1,0.7,0.4,1.3,0.7,2"/>
<path class="st0" d="M144.1,277.3c-2.1,0.1-4,0.6-5.7,1.7c-1.9,1.2-3.9,1.1-6,1c-1.8-0.1-3.5-0.4-5.2,0.3c-1.5,0.6-2.6-0.4-2.7-2.1
	c0-0.4-0.1-0.7-0.2-1.1"/>
<path class="st0" d="M105.6,263.8c0,1.6-1.4,2.4-2.4,2.1c-2.2-0.7-3.7,0.8-5.4,1.3c-2.6,0.9-4.8,2.6-7.4,3.5c-0.3,0.1-0.7,0.3-1,0.6
	c-1.2,1.5-2.6,2.8-3.9,4.2c-0.5,0.5-0.8,1.1-0.9,1.8"/>
<path class="st0" d="M80.3,459.1c-3.4,0.7-6.6,2.3-10.1,2.9c-0.5,0.1-1.1,0.2-1.6,0.2c-0.6,0-1,0.2-0.9,0.9"/>
<path class="st0" d="M153.3,15.9c0.4,1.1,1.2,1.5,2.3,1.6c2.7,0.2,5.1,1.2,7.4,2.7c1.4,1,2.8,1.5,4.5,0.9"/>
<path class="st0" d="M242.2,171.8c0.4,2.4,1.4,4.6,2.5,6.9c0.7,1.5,1.3,3.2,1.5,4.7c0.2,1.5,1.3,3.1,0.4,4.7"/>
<path class="st0" d="M22,0.8c-1.7,0.1-3.1,0.7-4.5,1.6c-1.6,1-3.5,1.1-5.4,1.1c-0.4,0-0.7-0.1-0.7-0.5"/>
<path class="st0" d="M101.5,449.5c-2.4-2.3-4.3-4.9-7.3-6.8c-2.3-1.5-4.5-2.9-6.9-4.2c-1.5-0.9-2.9-1-4.5-1c-1.5,0-3.1-1.3-4.5,0.3
	c-0.1,0.1-0.7,0.1-0.9,0c-1.3-1-2.4-0.3-3.5,0.4"/>
<path class="st0" d="M14.4,17c-3.5,0.3-6.7,1.3-9.4,3.6c-0.3,0.3-0.4,0.7-0.5,1.1"/>
<path class="st0" d="M83.3,357.5c-0.1-0.1-0.1-0.3-0.2-0.4c-2-0.7-4.2-1.5-6.3-1.4c-1.9,0.1-3.8,1-5.6,1.8c-0.7,0.3-1.5,0.6-2.2,0.8
	"/>
<path class="st0" d="M178.3,359.5c-0.7-1-1.7-1.6-2.7-1.9c-2.2-0.7-4.1-1.9-6.3-2.6c-0.6-0.2-1.1-0.3-1.6-0.1"/>
<path class="st0" d="M90.1,419.3c-0.2,0.1-0.4,0.4-0.6,0.3c-2-0.2-3.9,0.1-5.6,1.3c-0.8,0.6-1.8,0.4-2.6,0.6
	c-4.4,0.9-8.8,1.5-13.3,1.2c-2.1-0.1-4.2,0.1-6.3,0.4c-1,0.1-1.8,0-2.7-0.2c-1.8-0.3-3.5,0.6-5.4,0.5c-2.4,0-4.8-0.1-7.2-0.4
	c-0.3,0-0.5-0.3-0.7-0.5"/>
<path class="st0" d="M7.2,215.9c3.1,0.9,6.2,1.7,9.2,3.1c0.8,0.4,1.8,0,2.5,0.5"/>
<path class="st0" d="M138.4,45.8c-1.8,1.9-2.5,4.5-3.9,6.7c-0.8,1.2-1.5,2.5-2.4,3.7"/>
<path class="st0" d="M237,297.8c0.1,3.4,2.4,5.8,4,8.4c0.4,0.6,1.1,1.1,1.9,0.7"/>
<path class="st0" d="M239.1,218.6c1.8,3.4,3.2,6.9,5.4,10.1"/>
<path class="st0" d="M54.4,54.1c-0.1,0.7-0.5,1.3-0.9,1.6c-3.3,1.8-5.5,4.8-8.2,7.2"/>
<path class="st0" d="M208,210.1c1.3,0.4,1.8,1.6,2.5,2.5c1.6,2.2,3.4,4.4,4.7,6.8"/>
<path class="st0" d="M233.6,223.4c2.8,1.9,3.9,5,5.5,7.8c0.4,0.7,1.2,1.2,1.1,2.1"/>
<path class="st0" d="M48.2,372.7c-2.1-3.5-4.1-7-7.9-9"/>
<path class="st0" d="M223.7,174.3c-0.2,1.4,0.7,2.5,0.9,3.8c0.4,2,1.2,4,1.8,5.9c0,0.1-0.1,0.4-0.2,0.5"/>
<path class="st0" d="M38.9,362.2c-2-0.2-3.7,0.9-5.6,1.3c-2.6,0.5-5,1.7-7.7,2"/>
<path class="st0" d="M234.3,234.1c1.3,1.1,1.3,2.8,1.9,4.2c0.8,1.8,2,3.4,2.8,5.2c0.1,0.2,0.5,0.2,0.7,0.4"/>
<path class="st0" d="M20.7,417.3c-2.7,0.5-5.4,1.1-8.1,1.1c-0.7,0-1.5,0.2-1.8-0.7"/>
<path class="st0" d="M48.4,457.6c-0.1,0.5-0.3,1.1-0.4,1.6c2,1.4,3.8,3,5.9,4c1.3,0.7,2.6,0.8,4,0.7"/>
<path class="st0" d="M109.9,227.4c-2.7,0.7-5.5,1.1-8.2,2c-0.7,0.2-1.1-0.2-1.2-0.9"/>
<path class="st0" d="M70.9,71c-2.6,0.9-5,2.5-7.3,3.8c-1.1,0.6-2,0.8-3.1,0.5"/>
<path class="st0" d="M77.2,23.1c-0.9,1-2.3,1-3.4,1.4c-2.3,0.9-4.7,1.5-6.3,3.6"/>
<path class="st0" d="M192.9,110.9c1.3,4.3,5.1,5.6,8.6,7.2"/>
<path class="st0" d="M84.9,447.5c-1.8,0.4-3.7,0.5-5.6,1c-3.2,0.7-6.5,0.6-9.7,1.1c-2.6,0.4-5.4,0.9-8.1,0.2c-1.4-0.4-2.5,0-4.1,0.3
	c1.3,1.5,2.5,0.3,3.7,0.1"/>
<path class="st0" d="M50.2,505.7c-2.9,2.3-5.3,5.2-8.1,7.6c-0.3,0.3-0.6,0.7-1.1,0.5"/>
<path class="st0" d="M173.3,29c0.3-0.3,0.4-0.8,0.2-1.1c-2.3-2.3-4.4-4.8-5.9-7.8c0,0-0.2,0-0.5,0c-0.1,0.3-0.3,0.7-0.4,1.1"/>
<path class="st0" d="M133.9,203.8c0-1-1-0.2-1.3-0.7c-1.6,1.1-3.2,0.2-4.7-0.2c-1.5-0.5-3.2,0.1-4.6-0.6"/>
<path class="st0" d="M222.8,249.6c0.9,4.2,3.4,7.8,4.7,11.9"/>
<path class="st0" d="M198.7,439.3c-1.4,1-1.7,2.7-1.9,4.1c-0.6,3.6-0.5,7.4-1.7,11c-0.1,0.2,0,0.5,0,0.7"/>
<path class="st0" d="M84.1,26c-3.3,1.5-6.5,3.4-9.9,4.7"/>
<path class="st0" d="M6.5,231.7c3.4,0.8,6.2,2.8,9,4.6c0.4,0.3,0.3,0.5,0.3,0.8"/>
<path class="st0" d="M17.3,336c-0.9,2.6-2.6,4.6-4.9,6.1c-1.2,0.8-1,1.8-0.7,2.9"/>
<path class="st0" d="M179.6,296.7c2,0.8,4.2,1,6.3,1.4c1.2,0.2,2.2,0.9,3.4,1.1"/>
<path class="st0" d="M58,419.3c-2.5,1.1-5.1,1.4-7.7,1.8c-1.5,0.3-3.2-0.2-4.5,1"/>
<path class="st0" d="M240.8,334.3c-2.8,0.5-5.7-0.1-8.4,0.4c-0.6,0.1-0.6-1-1.3-0.4"/>
<path class="st0" d="M222.4,259.8c1.1,1,1.5,2.4,2.1,3.6c0.9,1.6,1.9,3,2.8,4.6c0.3,0.5,0.2,1.3,0.8,1.7"/>
<path class="st0" d="M9.2,240c0.2,1.5,1.6,2,2.6,2.8c1.8,1.6,3.7,3.1,6.1,3.8c0.2,0.1,0.5,0.1,0.7-0.2"/>
<path class="st0" d="M7.8,237.5c0.2,0.1,0.5,0.2,0.5,0.4c0.8,2.5,3.3,2.8,5.1,4.1c1.3,0.9,2.7,1.9,4.1,2.8c0.5,0.4,1.3,0.8,1.1,1.8"
	/>
<path class="st0" d="M148.6,19.1c-2.9-1.6-6-2.6-9.2-3c-1.7-0.2-3.6-0.4-5,1.2"/>
<path class="st0" d="M31.3,20.2c-2-1.2-3.6,0.2-5.2,1c-1.6,0.7-2.5,2.5-4.1,3.2c-0.3,0.1-0.6,0.7-0.4,1.2"/>
<path class="st0" d="M65.2,497.4c3.4,0.2,6.8,0.3,10.1,1.4c2.3,0.8,4.4,1.9,6.5,3.2"/>
<path class="st0" d="M180.9,74.6c-0.7,2.6-2,4.9-2.6,7.5c-0.2,0.8,0,1.2,0.1,1.8"/>
<path class="st0" d="M10.1,0.8H0.8"/>
<path class="st0" d="M76,457.3c-1.4-0.1-2.8,0.2-4.1,0.4c-1.7,0.2-3.3,0.9-5,0.5"/>
<path class="st0" d="M237,218.9c0.4,3.5,1.9,6.4,4,9.7c0.2-0.9,0.3-1.3,0.3-1.8"/>
<path class="st0" d="M241.5,180.4c0.9,3.9,2.5,7.5,3.9,11.2c0.4,0.9,0.7,1.6,1.8,1.1"/>
<path class="st0" d="M92.5,461.6c-2,0.3-4.1,0.7-6.1,0.9c-3.6,0.3-7.3,0-10.8,1.6c-2.9,1.3-6.1,1.3-9.2,0.1
	c-0.2,0.3-0.3,0.6-0.5,0.9"/>
<path class="st0" d="M187.3,134.4c1.3,2.1,2.6,4.3,4,6.3c0.9,1.3,0.5,1.9-0.8,2.4"/>
<path class="st0" d="M237.9,192.7c1.4,3,2.8,6,4.1,9"/>
<path class="st0" d="M145.2,362.2c-0.1,0.4,0.1,0.6,0.4,0.9c2.7,2.4,4.6,5.3,6.5,8.3"/>
<path class="st0" d="M71.3,412.8c-1.2,0.6-2.5,0.3-3.6,0.5c-2,0.5-4.2,0.4-6.1,1.1c-1.2,0.5-2.1,0.1-3.1-0.1"/>
<path class="st0" d="M47.2,65.6c-2.9,2-6,3.7-8.6,6c-1.5,1.3-3,2.8-4.1,4.6c-0.5,0.8-1.2,1.6-1.8,2.3"/>
<path class="st0" d="M188.4,410.3c0.6,0.9,0.6,2,0.6,2.9c0.1,2.9,1,5.6,1.2,8.5"/>
<path class="st0" d="M123.4,77.5c-1.1-0.2-1.8,0.6-2.5,1.3c-2.7,2.6-5.8,4.2-9.4,5.2"/>
<path class="st0" d="M86.8,458.2c-1.2,0.6-2.9,0.2-3.5-0.3c-2-1.9-3.9-1.3-5.9-0.2"/>
<path class="st0" d="M22,353.6c-3.1,0.2-6,1.2-9,2"/>
<path class="st0" d="M196.1,402.2c0.1,0.4-0.5,0.6-0.2,1.3c0.9,2.4,1.6,4.8,2.2,7.2c0.4,1.6,0.4,3.2,0.6,4.9"/>
<path class="st0" d="M190,263c-2.9,0.9-6,0.4-9,0.9"/>
<path class="st0" d="M23.6,21.7c-2.4,1-3.8,3.4-6.1,4.5c-1,0.5-2,1-2.7,1.8"/>
<path class="st0" d="M185.1,290c-0.6,0.9-1.6,0.3-2.2,0.3c-4.1-0.1-8.1-0.5-12.1,0.6c-0.4,0.1-0.8,0-1.3,0"/>
<path class="st0" d="M169.7,290.4c-1.4-0.7-2.6-0.2-4,0.3c-2.7,1-5.6,0.4-8.4,0.9c-0.6,0.1-1.3,0-1.8,0.5c-0.8,0.9-1.9,0.9-3,0.9"/>
<path class="st0" d="M75.2,495.2c3.2,1.2,6.2,2.8,8.8,5"/>
<path class="st0" d="M237,382.8c-0.5,1.3-1.7,1-2.7,1.3c-1.9,0.5-3.7,1.6-5.8,1.8"/>
<path class="st0" d="M146.8,419.6c-0.4,0-0.9-0.1-1.3,0.4c-1.7,2-3.5,3.8-5.2,5.8c-0.3,0.3-0.7,1-0.2,1.6"/>
<path class="st0" d="M79,246.3c-0.2,0.2-0.1,0.5-0.5,0.8c-2.3,1.3-4.5,2.8-6.4,4.4c-2.8,2.4-5.5,5.2-6.9,8.9"/>
<path class="st0" d="M190.2,301.9c3.9,4.4,7.4,9,9.9,14.2"/>
<path class="st0" d="M76.3,419.1c-2,0-3.9,0.6-5.8,0.8c-3.1,0.3-6.1,1.3-9.2,1.4c-1.1,0-2.1,0.2-2.5,1.5"/>
<path class="st0" d="M40.3,401.8c0.6,1.5,0.5,3.1,0.3,4.7c-0.1,0.9,0.1,1.4,0.8,1.9c-1.3,1.1-0.7,2.6-1.3,3.8
	c-1,0.8-2.3,0.7-3.6,0.8c-3,0.3-6,0.7-9,1.1c-0.5,0.1-1,0.4-0.5,1.1"/>
<path class="st0" d="M95.8,363c-2.2,0-4.3,0.2-6.5,0.6c-0.8,0.1-1.7,0.4-1.1,1.6"/>
<path class="st0" d="M76,413.5c-0.6-1.7-1-2-2.3-1.4c-0.3,0.1-0.6,0.4-0.9,0.3c-2.4-0.5-4.9-0.1-7.4-0.4c-2.7-0.4-4.7,0.7-6.7,2.2"
	/>
<path class="st0" d="M249.2,208c0.6,0.7,0.4,1.9,1.4,2.4c0.1,0,0,0.2,0,0.4c0.1,3,1,5.9,1.3,8.8c0.1,1.2,0.3,2.2,0.9,3.2"/>
<path class="st0" d="M40.2,514.7c-2.1,2.2-4.5,4-7.2,5.4c-0.3,0.2-0.9,0.3-0.9,0.9"/>
<path class="st0" d="M103.1,279.1c0.9,1.2,2.3,1.1,3.6,1.2c2.7,0.4,5.3,1.2,8.1,0.9c2.1-0.2,4.2-0.4,6.3-0.8
	c1.2-0.2,2.5,0.6,3.6-0.3"/>
<path class="st0" d="M29.5,438.7c3,1.1,6.1,1.6,9.4,1.1"/>
<path class="st0" d="M147,368.4c0.2,2.4,2,3.9,3.1,5.7c0.6,1,1.4,1.9,2.4,2.6"/>
<path class="st0" d="M98.4,365.3c-0.5,0.5-1,1.1-1.3,1.5c-3.4-0.5-6.7,0.1-10,0.6"/>
<path class="st0" d="M76.5,440.7c-0.7-1-2-0.8-2.5-0.5c-1.3,0.9-2.8,0.6-4,0.7c-4.4,0.4-8.8,1-13.3,1c-1.1,0-2.2,0.5-3.4,0.4
	c-1.2-0.1-2.3-0.3-3.4-0.8c0.2-1.4,1.1-1,2-0.8"/>
<path class="st0" d="M89.6,220.2c-4.1-0.4-8.2-0.6-12.2-1.6c-1.2-0.3-2.4-0.6-3.6-0.1c-0.5,0.2-0.3,0.6-0.5,0.8"/>
<path class="st0" d="M174.2,491.1c-2.4-0.2-3,1.8-3.9,3.3c-0.6,1-2.1,1.9-1.3,3.6"/>
<path class="st0" d="M130.8,23.8c-0.7,0-1.5-0.2-1.9,0c-2.2,1.4-4.8,1.4-7.2,1.8c-2.7,0.4-4.1,2.4-4.9,4.8"/>
<path class="st0" d="M169.1,93.5c-2,0.2-3.7,1.4-5.4,2.4c-1,0.6-1.9,0.8-2.9,0.7"/>
<path class="st0" d="M108.9,67.9c-3.1,1.5-5.5,3.7-7.1,6.8c-0.3,0.7-1.2,1.1-1.8,1.7c-0.7,0.8-1.9,1.2-2.3,2.3"/>
<path class="st0" d="M95.9,416.8c-4.4-0.1-8.8,1-13.1,1.6c-1.6,0.2-3.2,0.3-4.7,1.1c-1.1,0.6-1.6,0-1.8-1.2c0.7-0.9,2.1-1,2.8-2
	c0.2-0.3,1.3-0.2,1.9,0.3c0.5,0.4,1.1,0.8,1.8,0.4"/>
<path class="st0" d="M201.9,168.2c1.9,2.6,4,5,4.7,8.3"/>
<path class="st0" d="M65.3,445.2c-2,0-4-0.1-5.9,0c-4.1,0.3-8.2,0.7-12.2,1.1"/>
<path class="st0" d="M91.4,73.7c-1.6,0.1-2.4,1.4-3.6,2.2c-1.6,1-2.6,2.7-4.3,3.4"/>
<path class="st0" d="M235.5,265.8c0.7,2.2,1.4,4.3,2.2,6.5c0.2,0.5,0,1.3,0.9,1.3"/>
<path class="st0" d="M202.4,175.6c1.4,2.1,2.9,4.1,4,6.5c0.4,0.9,0.8,1.8,0,2.7"/>
<path class="st0" d="M227.6,116.3c-0.3,0.7-0.1,1.3,0.3,2c1.2,1.8,2.4,3.7,3.3,5.7c0,0.1-0.1,0.2-0.2,0.3"/>
<path class="st0" d="M29.9,359.9c-1.8-0.6-3.7-0.6-5.6-1c-1.6-0.3-3.1-0.6-4.7-0.3c0,0,0,0.1,0,0.2c0,0.1,0.1,0.1,0.2,0.2"/>
<path class="st0" d="M111.4,415.3c-2.5,1.4-5.3,1.7-8.1,2"/>
<path class="st0" d="M17.5,62.9c-0.9,0.8-1.7,1.7-2.3,2.7c0.1,0.5,0.8,0.6,0.7,1.5c-1.4,1.6-3.7,2.3-4.9,4c-0.9,0.3-1.4-0.8-1.5-0.6
	c-0.5,1-2,0.1-2.2,1.4c-0.2,1.2-1.3,1.5-2.3,1.8"/>
<path class="st0" d="M140.6,215.9c-2.1-1.9-4.1-3.9-7-4.5c-2.2-0.5-3-0.4-4.1,1.5"/>
<path class="st0" d="M64.1,438.9c-2.4,0-4.6,1.2-7,0.9c-0.3,0-1,0.3-0.9,1"/>
<path class="st0" d="M76,365.5c-2,0-3.9-0.5-5.9,0.1c-2.7,0.8-3.9,3-3.2,5.8"/>
<path class="st0" d="M246.5,240.9c-0.2,0.1-0.4,0.1-0.5,0.2c0.7,1.8,0.6,3.8,1.4,5.6c0.3,0.6,0.5,1.2,1.4,1.1c0.4-1,0.6-2.1,0.1-3.2
	"/>
<path class="st0" d="M37.8,71.9c-1-0.6-1.8,0.2-2.7,0.6c-2,0.8-3.8,1.8-5.9,2c-1.8,0.2-2.9,1.7-4.3,2.7"/>
<path class="st0" d="M154.6,211.2c1.9,2.3,4.9,2.9,7.1,4.6c1.6,1.2,3.1,2.6,5.1,3.2c0.4,0.1,0.9,0.1,1.3,0.1"/>
<path class="st0" d="M6.9,228.5c2.1-1,3.8,0.5,5.4,1.3c2,1,3.9,2.2,6.2,2.2c0.9,0,1.1,0.8,1.6,1.1"/>
<path class="st0" d="M102.9,212.1c-2.2-0.1-4.3,0.2-6.5,0.3c-2,0.1-4.1,0-6.1,0"/>
<path class="st0" d="M121.7,232.3c-2.4-1.6-5-2.4-7.9-1.8"/>
<path class="st0" d="M57.8,450.8c-1.8,0.9-3.8,0.6-5.6,1.2c-0.7,0.2-1.4,0.1-2.2,0.2"/>
<path class="st0" d="M83.9,412.5c-2,0.8-4.2,0.6-6.3,1.1c-2.6,0.6-5.4,0.6-7.8,2.1c-0.4,0.3-1.1,0.2-1.6,0.2
	c-0.7-0.1-1.2,0.2-1.6,0.7"/>
<path class="st0" d="M93.8,350c0.9,1.3,2.5,1.5,3.8,2.1c0.7,0.3,1.4,0.5,1.8,1.1c0.9,1.7,2.3,2.4,4.2,2.1"/>
<path class="st0" d="M186.1,367.6c1.5,1.3,1.6,3.4,2.9,4.9c2.3,2.5,3.2,5.8,5.2,8.5c0.3,0.4,0.1,0.7,0.2,1.1"/>
<path class="st0" d="M156.9,403.8c-1.6,2.1-3,4.4-5.1,6.1c-0.4,0.3-0.4,0.6-0.3,0.9"/>
<path class="st0" d="M124,202.9c2.2,1.7,5,1.8,7.6,2.3c0.2,0.1,0.6-0.1,0.5,0.4"/>
<path class="st0" d="M247.4,229.8c0.7,2.5,1.1,5.1,2.2,7.6"/>
<path class="st0" d="M42.1,18.4c-1.9,1.2-3.5,3-5.7,3.8c-0.6,0.2-1.1,0.9-1.6,1.4"/>
<path class="st0" d="M43,415.7c-0.1-0.4-0.2-0.7-0.3-1.1c-0.7,0-1.4-0.1-2,0.2c-0.8-0.6-0.5-1.4-0.3-2.5c2.6-0.1,5.2,0.6,7.5,2.2"/>
<path class="st0" d="M210.9,123.6c0.9,0.8,1.1,2,1.8,2.9c0.6,0.8,0.8,1.9,2.2,1.8c0.4,0,0.7,0.5,0.9,0.9c1.5,3.3,3.7,6.3,4.7,9.9"/>
<path class="st0" d="M144.3,344c2.5,1.1,4.9,2.3,7.6,3.1"/>
<path class="st0" d="M168.1,237.7c-2.5,0.6-5,0.4-7.6,0.2"/>
<path class="st0" d="M145.8,51.9c-1,2.2-3.1,3.8-3.6,6.3c-0.1,0.2-0.7,0.4-1,0.5"/>
<path class="st0" d="M238.4,340.1c-2.5-1.4-4.9-0.2-7.4,0.4"/>
<path class="st0" d="M27.9,59.7c-2.6,2.1-5.7,3.6-8.6,5.2c-0.1,0.1-0.4-0.1-0.5-0.2"/>
<path class="st0" d="M82.6,503.2c2.1,1.4,3.5,3.5,5.6,4.9c0.4,0.3,0.8,0.9,1.4,0.7"/>
<path class="st0" d="M198.5,160.3c-0.4,0.6-0.4,1.1,0.2,1.6c1.9,1.5,3,3.6,4.3,5.6"/>
<path class="st0" d="M16.9,364c0.2,0.1,0.6,0.2,0.7,0.4c1.6,2.4,3.8,2.5,6.3,1.8"/>
<path class="st0" d="M110,76.9c-0.2,0-0.6-0.1-0.7,0c-2,1.9-4.8,2.5-7,4.1"/>
<path class="st0" d="M88.2,225.2c-2.5,0.6-4.6,2.2-7.2,2.7"/>
<path class="st0" d="M22.2,239.1c1.2,2.6-0.1,4.9-0.9,7.2"/>
<path class="st0" d="M108.7,215.7c-2.5,0.5-5,1.2-7.2,2.5"/>
<path class="st0" d="M91.8,415.7c-1.3-0.7-2.5-0.1-3.8,0c-1.6,0.1-3.2,0.7-4.9,1"/>
<path class="st0" d="M180.1,358.8c2,2.1,4.4,3.9,7,5.2"/>
<path class="st0" d="M58.3,414.6c-1.5-0.4-2.7,0.5-3.9,1c-1.5,0.5-2.7,0.5-4-0.4c-1-0.6-1.9-0.9-3.5-0.2c-2.3,1.1-5.1,1.1-7.7,1.6
	c-0.6,0.1-0.9-0.4-1.1-0.9"/>
<path class="st0" d="M236.1,145.5c1.3,1,0.6,2.7,1.4,4c1.3,2,1.1,4.4,1.4,6.6c0.2,1.8,1.5,3.3,1.3,5.2c0,0.3,0.6,0.6,0.9,0.9"/>
<path class="st0" d="M73.4,215.5c-0.2,0-0.5-0.1-0.5,0c-1,1.7-3,2.1-4.5,3.1c-1.5,1-3.2,1.3-4.9,1.4"/>
<path class="st0" d="M94.7,253.9c-1.1,1.1-3.1,0.9-3.8,2.6c-0.6-0.5-0.5-1.3,0.2-2.3"/>
<path class="st0" d="M212.1,201.9c1.1,2.7,2.6,5.2,4.1,7.7"/>
<path class="st0" d="M60.5,455.1c-2.6,0.2-5.2,0.5-7.7,0.7c-0.7,0-1,0.7-1.6,0.7"/>
<path class="st0" d="M79.2,452.8c-2.3,1.4-4.9,1.4-7.4,1.8c-0.7,0.1-1.3,0.1-2,0.4"/>
<path class="st0" d="M156.6,526.8c-3,0.6-4.8,2.7-6.5,5"/>
<path class="st0" d="M111.2,301c-1.7-0.5-3.5-0.9-5.2-1.4c-0.9-0.2-1.2,0.1-1.8,0.3"/>
<path class="st0" d="M9.8,228.3c0-0.5,0.6-0.6,0.7-0.5c2.5,1.6,5.5,2,8.3,3c0.3,0.1,0.6,0.4,0.9,0.5"/>
<path class="st0" d="M22,64.9c-1.8,1.7-2.4,4.2-3.9,6c-0.1,0.1,0.1,0.6,0.2,0.9"/>
<path class="st0" d="M81.7,442c-2.6,0.7-5.3,0.1-7.9,0.7c-0.8,0.2-1.7,0.1-2.5,0.2"/>
<path class="st0" d="M78.5,73.2c-2,0.3-3.8,1.2-5.6,2.2c-0.8,0.4-1.4,0.7-2-0.2"/>
<path class="st0" d="M6.5,213.9c1.8-0.9,3.2,0.4,4.9,0.7c1.5,0.3,3,1.2,4.7,0.4"/>
<path class="st0" d="M8.7,221.3c2.2,0.9,4,2.4,6.1,3.5c0.8,0.4,1.9,1.3,1.8,2.6"/>
<path class="st0" d="M231.9,275.5c0.8,1,1.1,2.3,1.7,3.5c0.7,1.3,1.2,2.5,3.1,2.4c0.6,0,1.3,0.8,1.4,1.6c0.1,0.7-0.1,1.3-0.9,1.4"/>
<path class="st0" d="M231.1,337.9c2.3-0.4,4.7-0.4,7,0c0.4,0.1,0.8,0.1,1.1-0.4"/>
<path class="st0" d="M97.6,225.8c-1.7,0.4-3.5,0.6-5,1.4c-0.6,0.4-1.2-0.1-1.8,0"/>
<path class="st0" d="M117,72.4c-2.2,0.8-4,2.4-5.9,3.6c-1.2,0.8-0.9,2.3-1.5,3.4c1.6,0.6,3,0.9,4.2-0.5c0.6-0.7,1.4-1.2,2.1-1.8"/>
<path class="st0" d="M108.9,70.8c-1.8,0.6-3.2,1.9-4.9,2.9c-0.7,0.4-1.1,1-2,1.1"/>
<path class="st0" d="M42.1,420.7c-0.8,0-1.6,0.2-2.3,0.3c-1,0.1-2.3,1-3.1-0.6c0,0-0.2,0-0.3,0c-2.1,0.6-4.5,0.2-6.5,1.4"/>
<path class="st0" d="M116.6,279.6c-1.5,0-3,0-4.5,0c-0.2,0-0.6,0-0.7-0.2c-1.6-1.7-3.9-0.8-5.8-1.4c-0.3-0.1-0.8-0.1-1.3,0.1
	c-1.9,0.8-3.9,1.5-6.1,0.8c-1.4-0.4-3.1-0.1-4.7,0.1c-1,0.1-2.2,0.4-2.9-0.9"/>
<path class="st0" d="M106.5,414.6c-1.3,0.5-2.6,1-4,1.1c-1.4,0.1-2.6,0.9-3.9,1.3c-0.6,0.2-1-0.1-1.4-0.2"/>
<path class="st0" d="M128.5,17c-2.4,0.5-4.5,2-6.8,2.7"/>
<path class="st0" d="M210.9,209.6c1.7,2.1,3,4.5,4.3,6.8"/>
<path class="st0" d="M242.2,322.1c-2.6,0.6-5.2,1.4-7.9,1.4"/>
<path class="st0" d="M84.8,293.6c-2.3-0.3-4.5,0.4-6.7,1.3"/>
<path class="st0" d="M83.5,358.6c-3.2,0.4-6.4,0.7-9.5,1.1c-1.3,0.2-2.5,0.6-3.8,0.2"/>
<path class="st0" d="M124.7,200.9c1.9-0.1,3.4,1.1,5.2,1.4c0.5,0.1,1,0.2,1.4,0.4"/>
<path class="st0" d="M101.5,505.9c-1.8,0.1-3.4-0.9-5.2-0.4c-0.5,0.2-1.4,0.1-1.8-0.2c-1.2-1.1-2.9-0.7-4.2-1.4c-0.1,0-0.1,0-0.2,0
	c-3.2,0.9-5-2-7.4-3.1c-0.2-0.1-0.4-0.4-0.7-0.4"/>
<path class="st0" d="M60.7,387.4c0.6,3.5,1.1,7,2,10.4"/>
<path class="st0" d="M55.6,67.6c-1.7,1.2-3.5,2.4-5.2,3.6c-0.5,0.3-2,4.1-1.8,4.5c0.2,0.4,0.5,1.1,1.2,0.6c0.3-0.2,0.7-0.5,1.1-0.7
	c1.1-0.9,2.4-1.2,3.9-0.9c-0.8,1.5-1.4,3-1.7,4.7c0.6,0.6,1.3,0.3,2,0.3"/>
<path class="st0" d="M72.7,242.4c-1.9,1.9-4.1,3.6-5.4,6.1"/>
<path class="st0" d="M82.8,442.5c3.7,0.2,7.4,0.7,11.2,0.5"/>
<path class="st0" d="M86.8,209.6c0.1-0.6-0.1-0.9-0.6-1.3c-3.2,2.8-7.6,3.6-11.4,5.8c1.2,1.1,2,0.9,3.1,0.6c1.5-0.4,3-1,4.7-0.8"/>
<path class="st0" d="M62.3,216.8c0.1,0.5,0.2,1.1,0.4,1.6c0.8,1.7,0.5,2.9-1.3,3.8c-1.5,0.8-2.8,1.8-4,3.1"/>
<path class="st0" d="M245.4,201.3c0.2-1-0.2-1.4-1.1-1.3c0.3,1,1.6,1.6,1.4,2.9c-0.2,1.7,0.8,3.2,1.1,4.9c0.2,1.1,0.5,2.2,0.8,3.3
	c0.4,1.3,0.6,2.6,0.6,4.1c-0.1,2.2,0.6,4.6,3.3,5.4"/>
<path class="st0" d="M65.9,463.9c-1.8-0.7-3.4,0-5,0.6c-0.5,0.2-0.9,0.4-1.5,0.3"/>
<path class="st0" d="M241.7,319.2c-2,1.6-4.2,1.6-6.5,0.7"/>
<path class="st0" d="M80.1,77.5c-0.6-0.5-1.1,0.1-1.4,0.4c-0.9,0.8-1.8,1.7-2.5,2.7c-0.5,0.7-1.2,1.2-2,1.4"/>
<path class="st0" d="M231.6,264.7c1.6,1.5,1.6,3.7,2.3,5.6c1.5,3.9,2.7,8,2.8,12.2c0,0.3,0,0.6,0.2,0.9c0.2,0.4,0.6,0.6,0.4,1.1
	c-2.4,0.7-2.8,0.4-3.8-1.8c-0.5-1-0.9-2-1.2-3.1c-0.2-0.8-0.6-1.3-1.5-1.4"/>
<path class="st0" d="M86.9,250.3c-0.3-1.1-0.5-1.6-2-1.2c-1.2,0.3-2.4,1.2-3.8,0.8"/>
<path class="st0" d="M9.4,235c2.2,1.1,4.4,2.1,6.8,2.5c1.3,0.2,2,1.3,3.1,1.8"/>
<path class="st0" d="M244.9,185.8c0.3,0.8,0.7,1.4,1.2,2c1.1,1.3,1.9,2.7,1.4,4.5c-0.1,0.5,0,0.8,0.1,1.1c0.8,1.7,1.6,3.4,2.5,5
	c0.1,0.1,0.5,0,0.7,0"/>
<path class="st0" d="M240.9,328.2c-1.9,1.3-3.9,2.1-6.3,1.3"/>
<path class="st0" d="M246.2,228.1c-0.3,2.4,0.6,4.7,0.7,7c0,1.1,0.2,2.2-0.5,3.2c-0.3,0.4-0.4,0.1-0.6,0"/>
<path class="st0" d="M138.6,267.7c-1.4-1.1-0.9-3.1-1.9-4.3c-0.1-0.1,0.1-0.5-0.2-0.7c-0.6-0.4-4.6-0.4-5,0.2
	c-0.4,0.5-0.8,0.2-1.1,0.3c-1.2,0.4-2.7,0.1-3.8,1.1c-0.5,0.4-0.9,0.2-1.4-0.1c-1.7-1.1-3.7-0.9-5.6-1c-0.7,0-0.7,0.8-1.3,0.7"/>
<path class="st0" d="M139.8,209.9c-0.6,0.2-0.7,0.6-0.4,1.1c0.7,0.9,1.7,1.1,2.7,1.4c3.3,1,6.7,0.7,10.1,0.9"/>
<path class="st0" d="M77.8,244.9c-2,1.4-3.2,3.6-5.2,5c-0.5,0.4-0.3,0.8-0.3,1.3"/>
<path class="st0" d="M106.4,359.9c-1.1,1-1.9,2.2-2.6,3.6c-1.1,2.1-2.9,3.6-5.2,4.5"/>
<path class="st0" d="M96.7,416.2c-1,2-2.9,2.2-4.8,2.3c-0.7,0-1.1,0.5-1.6,0.8"/>
<path class="st0" d="M71,74.4c-0.4,1.1-1,1.2-2.1,0.8c-1.4-0.5-2.8-0.4-3.9,0.8"/>
<path class="st0" d="M238.6,161c0.9,0.3,0.5,1.2,0.8,1.8c0.4,1.1,1.1,2.1,1.6,3.3c0.2,0.6,0.7,1.3,0.2,2"/>
<path class="st0" d="M93.6,231.9c-2,0.5-4.1,1.1-6.1,1.6"/>
<path class="st0" d="M121.7,225.1c-3.7-0.2-7.1,1-10.6,1.6c-0.3,0.1-0.6,0.5-0.9,0.7"/>
<path class="st0" d="M164.1,277.6c0.3-0.1,0.1-0.8,0.5-0.7c2.1,0.6,4.3,0.3,6.3,0.1c2.8-0.3,5.9-0.1,8.5-1.6
	c1.2-0.7,2.2-0.8,3.2,0.2c0.4,0.5,0.9,0.4,1.4,0.3c1.9-0.5,3.8-1,5.8-1.3c1.2-0.2,2.6-0.8,3.2-2.1"/>
<path class="st0" d="M248.5,355.9c-0.9,1.4-2.2,2.7-2.5,4.5c-0.1,0.5-0.6,0.3-0.9,0.4"/>
<path class="st0" d="M131,262.3c-0.3-0.2-0.4-0.5-0.9-0.6c-2.9-0.3-5.9-0.7-8.8-1c-1-0.1-2,0.2-3.1,0.1c-1.1-0.1-1.3,0.9-1.2,1.9"/>
<path class="st0" d="M27,416.8c-1.3,0.2-2.6,0.6-4,0.7c-0.7,0-1.8,0.7-2.1-0.7"/>
<path class="st0" d="M127.4,227.8c1.7,1.3,3.8,1.4,5.8,1.8"/>
<path class="st0" d="M85.5,257.8c-0.1,0.2-0.1,0.6-0.2,0.7c-2.8,1.2-5.2,2.9-7.6,4.7"/>
<path class="st0" d="M93.1,443.8c-0.8,1-2.1,0.2-3.1,0.6c-0.8,0.3-1.9,0.5-2.8,0.7"/>
<path class="st0" d="M129.8,303.4c-1.4,0.2-2.7-0.2-3.9-0.7c-2.2-1.1-4.6-1.1-7-1.2"/>
<path class="st0" d="M95.9,278.7c0.1-1.3-1-1.4-1.8-1.4c-1.2,0-2.4-0.4-3.7,0.6c-0.6,0.4-1.8,0-2.8-0.1"/>
<path class="st0" d="M228.9,383.1c0.8,0,1.6-0.1,2.4-0.3c0.6-0.2,1.4,0.2,1.6-0.8c0.2-0.8-0.2-1.3-0.9-1.6"/>
<path class="st0" d="M123.8,220.8c-1.9-0.6-3.8-0.3-5.8-0.4"/>
<path class="st0" d="M117.7,208.9c1.4,1,3,1.6,4.7,1.9c0.2,0,1.8-0.2,0.7,1"/>
<path class="st0" d="M132.8,222.6c-1.3,0-2.5,0.1-3.8,0c-1-0.1-1.8,0.2-2.7,0.6"/>
<path class="st0" d="M102.8,30.9c-1.4,2-3.5,3-5.6,4.1"/>
<path class="st0" d="M107.6,333.2c0,0.5,0.2,0.9,0.6,1.1c1.8,1.1,2.9,2.8,4.3,4.3"/>
<path class="st0" d="M102.8,67.6c-0.7-0.1-1.2,0.4-1.6,0.7c-2.4,2.1-5.2,3.8-7,6.5c-0.8,1.2-2.3,1.5-3,2.8c0,0.1-0.7,0.2-1-0.2"/>
<path class="st0" d="M72.9,417.1c-1.8,1.1-3.7,1.2-5.8,0.8"/>
<path class="st0" d="M26.1,281.2c-0.8,1.9-0.1,3.8-0.2,5.8"/>
<path class="st0" d="M182.3,276.7c-1.2,1-2.8,1-4.1,1.6c-0.5,0.2-1.1-0.1-1.4-0.5"/>
<path class="st0" d="M6.9,251.4c0.2,0.2-0.1,0.4,0.3,0.8c1.4,1.1,2.5,2.7,4.1,3.7"/>
<path class="st0" d="M185.4,258.7c-1.4,0-2.4,0.8-3.6,1.4c-0.9,0.5-1.8,0.9-2.9,0.4"/>
<path class="st0" d="M14.1,252.1c-3.1-1.2-4.1-4.3-5.9-6.6c-0.9,0.3-0.5,0.8-0.6,1.2"/>
<path class="st0" d="M234.1,292.2c0.2,0.3,0.8,0.5,0.5,0.9c-0.8,1.5-0.6,3,0,4.5c0.2,0.6,0,1.3,0,2"/>
<path class="st0" d="M187.7,273.3c-2.1-0.2-3.9,0.4-5.4,1.8"/>
<path class="st0" d="M71.6,232.3c-1.7,1.6-3.2,3.4-4.5,5.4"/>
<path class="st0" d="M143.8,17.5c-1.6,1.2-3.4,1.6-5.4,0.9"/>
<path class="st0" d="M228.9,388.9c-0.7,1.8-1,3.7-0.5,5.6"/>
<path class="st0" d="M86.4,251.7c-1.9,1-3.6,2.3-5.2,3.7c0.2,0.8,1.1,1.2,0.6,2.1"/>
<path class="st0" d="M83.5,244.5c0.2,0.5,0.1,1-0.2,1.4c-2.7,3.8-5,7.9-7.4,11.9c-0.2,0.4-0.7,0.5-1.1,0.7"/>
<path class="st0" d="M118.8,202c-1.3-0.2-2.6-0.8-4-0.4c-0.6,0.2-0.9-0.7-1.4-0.9"/>
<path class="st0" d="M94.8,73.5c-1.3-0.5-2,0.6-2.7,1.3c-0.7,0.8-2.5,0.9-2,2.7"/>
<path class="st0" d="M146.1,39.1c-1.8,1-2.5,2.8-3,4.7c-0.6,2.3-1.9,4.3-3,6.4c-0.6,1.2-2,1.9-2.2,3.5"/>
<path class="st0" d="M26.7,414.6c-2,0.2-3.6,1.3-5.4,2.2"/>
<path class="st0" d="M36.9,415c-2.3-0.9-4.6,0-6.8,0.1c-0.5,0-1.1,0-1.6,0.1"/>
<path class="st0" d="M122.2,263.6c0,1.2,0.3,2.5-1.4,3.2c-0.3,0.1-1.3,1-0.8,2.1"/>
<path class="st0" d="M237,387.2c-0.4,0.5-0.9,0.8-1.4,0.7c-2.3-0.6-4.4,0.8-6.7,0.8c-0.6-0.5-0.6-1.3-0.6-2c0-2.9,0.5-5.8,1.1-8.6
	c0.3-1.3,0.4-2.6,0.6-4c0.1-0.5-0.3-0.6-0.6-0.9"/>
<path class="st0" d="M158,276c-0.3,0.3-0.6,0.5-1.1,0.5c-2.5,0-5,0-7.6,0.3c-1.2,0.2-2.3-0.5-3.6-0.2c-0.9,0.2-1.6,0.3-1.4,1.5
	c0.1,0.8-0.1,1.3-1.1,1.3c-1.2,0-0.8-0.8-0.9-1.5"/>
<path class="st0" d="M108,205.3c-1.7-0.2-3.3,0.3-4.6,1.1c-0.8,0.5-1.4,0.4-2.2,0.3"/>
<path class="st0" d="M51.7,503.5c-1.7,1-3.9,1-5.2,2.7"/>
<path class="st0" d="M19.5,358.5c-1.8,0.4-3.6,0.1-5.4,0.2"/>
<path class="st0" d="M116.4,206c-0.1-0.2-0.3-0.5-0.3-0.5c-3.1,0.6-6.2,0.6-9.2,1.6c-0.6,0.2-0.2,0.5-0.3,0.8"/>
<path class="st0" d="M221.3,242.5c1.7,2.2,2.5,4.8,3.2,7.4c0.2,0.6,0.2,1.2,0.6,1.8"/>
<path class="st0" d="M81,225.8c-1.3,0.7-2.7,1.4-3.9,2.2c-0.5,0.4-0.9,0.4-1.5,0.1"/>
<path class="st0" d="M187.3,139.6c2.2,1.9,3.8,4.4,5.4,6.9c0.4,0.6,1,1.4,0,2.1"/>
<path class="st0" d="M205.5,75.5c1.7,2.1,2.6,4.8,4.5,6.8c0.4,0.4,0,0.6,0,0.9"/>
<path class="st0" d="M102.6,450.8c0.3-0.3,0.9-0.3,0.7-0.9c-0.2-0.4-0.6-0.6-1.2,0c1.1,2.1,2.3,4.2,3.4,6.3"/>
<path class="st0" d="M7.8,240c-1,1.6,0.6,2.4,1.3,2.8c2.5,1.2,4.4,3.2,6.8,4.6"/>
<path class="st0" d="M135.1,301.2c-1.4,0.3-2.8,0.3-4.1,0.9c-0.3,0.1-0.5,0.3-0.6,0.6"/>
<path class="st0" d="M6.5,217.9c3.1,1.3,6.2,2.3,9.5,2.4c1.1,0,2.1,0.5,3.2,0.3"/>
<path class="st0" d="M13.7,71.7c-3,1-3.7,3.9-4.9,6.3"/>
<path class="st0" d="M203.3,273.7c-0.3,0.1-0.7-0.2-0.9,0.2c-0.8,1.2-1.9,0.8-2.7,0.1c-1.8-1.7-3.7-2.2-6.2-1.7
	c-1.4,0.3-2.8-0.2-4.3,0.4c-1.1,0.4-1.6,1.1-1.9,2.1"/>
<path class="st0" d="M125.2,222.9c-4.4-0.3-8.9,0.2-13.3,0.2"/>
<path class="st0" d="M7.2,224.5c1,0.4,1.8,1.3,2.9,1.7c1.8,0.6,3.6,0.8,5.4,1.1c1.9,0.4,3.5,1.5,5.4,1.4c-0.2,1.1-0.3,2-0.4,2.8"/>
<path class="st0" d="M150.3,87.6c2.2,1.1,6.8,1.2,8.5,0.4"/>
<path class="st0" d="M59.9,418.6c-0.6-1-1.2-0.5-2-0.1c-0.9-0.7-1.9-0.9-3.4-0.4c-1.2,0.4-2.9,0.8-4.3-0.2c-0.4-0.3-0.8-0.2-1.3-0.3
	"/>
<path class="st0" d="M57.6,450.1c-1.8-0.6-3.5,0.5-5.2,0.2"/>
<path class="st0" d="M78.8,368.2c-1.9,0.3-3.8,0.2-5.8,0.2"/>
<path class="st0" d="M17.8,79.4c-2.9-0.8-5.4-0.1-7.6,1.8"/>
<path class="st0" d="M232.5,345.5c2,0.5,4.1,1,6.1,1.4"/>
<path class="st0" d="M30.3,67.8c-0.9,1-1.5,2.2-2.7,3.1c-0.4,0.3-1,1-0.8,1.8"/>
<path class="st0" d="M24.1,58c-2.8,2.8-4.9,6.3-8.3,8.5"/>
<path class="st0" d="M248.3,228.7c0.7,1.7,2,3.4,2,5c0,1.5,0.4,2.7,1.2,3.8"/>
<path class="st0" d="M33.5,416.8c0.7-0.5,0.8,0.2,1.1,0.5c-2.7,0.1-5.2,0.8-7.6,1.6"/>
<path class="st0" d="M76.3,420c-1.6,0.9-3.3,0.9-5,1.1"/>
<path class="st0" d="M14.8,215.9c1.6,0.8,3.4,0.7,5,1.1"/>
<path class="st0" d="M140.4,225.1c-1.3-1.2-2.9-1.8-4.7-1.3"/>
<path class="st0" d="M131.2,225.1c0.6,2.1,2.6,2.6,4.1,3.6"/>
<path class="st0" d="M73.4,438.4c-1.6,0.7-2.8,0.5-4.4-0.4c-1.2-0.7-3.2-0.6-4.6,0.8"/>
<path class="st0" d="M6.2,262c1.5,2.3,4,3.3,5.9,5"/>
<path class="st0" d="M153.5,341.9c-1.5-1-3-2-4.9-2.2"/>
<path class="st0" d="M190.4,147.1c2.9,1.3,4.3,3.9,6,6.4c-0.7,0.4-1.4,0-1.8,0.4"/>
<path class="st0" d="M63.4,399.7c0.2,2.6,0.9,5.1,0.5,7.7"/>
<path class="st0" d="M129.9,302.5c0.9,0.8,1.9,1,3.1,0.7c1.1-0.2,2.3-0.3,3.4-0.4"/>
<path class="st0" d="M26.9,419.3c-0.4-1-1.6-0.7-1.8-0.5c-1.1,0.9-2.3,0.6-3.5,0.6c-0.6,0-1,0.3-1.4,0.6"/>
<path class="st0" d="M241.3,207.1c-0.6-0.5-0.4-0.8,0.4-1.2c0.3,2.4,1,4.6,1.8,6.8"/>
<path class="st0" d="M54.9,211.8c-0.4,3.2-1.1,6.5,0,9.7"/>
<path class="st0" d="M144,292c-1.1,1-2.4,0.6-3.6,0.6c-1.7,0.1-3.3-0.2-5.1,0.4c-1,0.4-2.2-0.6-3.4-0.1"/>
<path class="st0" d="M37.5,56.2c-1.7,0.8-2.9,2.2-4.7,2.9"/>
<path class="st0" d="M159.8,272.4c-3,0-6,0.2-9-0.2"/>
<path class="st0" d="M75.2,235.5c-1.4,2-3.2,3.4-5.8,3.8c-0.4,0.1-1.6,0.1-0.5,1.1"/>
<path class="st0" d="M69.1,438.7c-1.5,0.7-3.1,1-4.7,0.4"/>
<path class="st0" d="M77.4,216.1c-1.8,0.4-3.5,0.9-5.4,0.9"/>
<path class="st0" d="M241.7,214.3c0.4,1.2,0.6,2.5,1.2,3.6c0.2,0.3,0.4,0.8,0.3,1.1c-0.7,2.5,0.8,4.1,2.2,5.8"/>
<path class="st0" d="M40,22.6c-0.8-0.1-1.3,0.5-2,0.7c-1.2,0.2-2.1,1.5-3.7,0.5c-0.5-0.3-1.8,0.2-2.5,1"/>
<path class="st0" d="M129.6,417.3c-1.4,1.1-2.8,2.1-4.7,1.8"/>
<path class="st0" d="M242.2,255.9c-2.4,0.8-3.3,3-4.4,5c-0.9,1.6-0.8,2.9,0.1,4.2c0.3,0.4,0.6,0.5,0.9,0.5c0.1,0,0.1-0.6,0.2-0.9"/>
<path class="st0" d="M45,422.5c-1.2,1.1-2.6,0.5-4,0.5c-2.9,0.1-5.9,0-8.8,0c-0.7,0-1.4,0.1-2-0.5"/>
<path class="st0" d="M242,188.4c0.4,1.6,0.8,3.1,1.6,4.5"/>
<path class="st0" d="M210.7,191.6c-0.2-0.8-0.3-1.8-1.1-2.1c-0.6-0.3-0.8,0.9-1.6,0.9"/>
<path class="st0" d="M55.8,73c1.3,0,2.6,0.3,3.6-0.9c0.5-0.6,1.5-0.9,1.9-0.7c1.6,1.1,3.2,0.6,4.9,0.5"/>
<path class="st0" d="M232.7,377.7c-0.1,2.1-0.4,2.3-3.2,2"/>
<path class="st0" d="M12.1,361.5c0,1.8,0.6,2.9,2.7,2.7"/>
<path class="st0" d="M158,92.9c-0.6-0.1-0.9,0.5-1.2,0.8c-1.5,1.2-1.5,1.3-3.1,1.6c-0.4-0.4-0.4-0.8-0.2-1.3"/>
<path class="st0" d="M52,439.5c-0.9-1.4-2.5-0.7-3.6-0.8c-2.1,0-4.2,0.4-6.3,0.6c-0.4,0-0.5,0.4-0.8,0.5c1.2,2.2,3.2,1,4.9,1.2
	c1.1,0.1,2.3-0.3,3.5-0.1"/>
<path class="st0" d="M132.3,407.4c-0.8,0.2-1.6,0.5-2.3,0.7c-0.8,0.2-1.6,0.5-1.1,1.6"/>
<path class="st0" d="M114.1,203.1c-1.5,0.1-2.9,0.7-4.3,1.1"/>
<path class="st0" d="M135.5,85.2c-1.8,0.3-3,1.9-4.5,2.7"/>
<path class="st0" d="M172.4,296.4c1.3-2.1,3.3-1.2,5-1.1c0.6,0,1.2,0.2,1.8,0.4"/>
<path class="st0" d="M36.2,76.2c-0.4,0.6-0.9,1.2-0.1,2.1c1-0.8,2.3-0.9,3.5-1.3"/>
<path class="st0" d="M237,260.7c-0.4-0.3-0.7-1.3-1.4-0.9c-0.5,0.3-0.5,1.1-0.1,1.8c0.3,0.4,0.4,1.1,0.6,1.6"/>
<path class="st0" d="M244.4,249.6c-0.4,1.6,0.7,2.9,0.9,4.3"/>
<path class="st0" d="M63,418.9c-1.1-1.1-2.1,0-3,0.3c-0.9,0.3-1.3,0.1-1.8-0.5"/>
<path class="st0" d="M8.1,248.6c1.4,1.1,1.8,3,3.4,4c0.5,0.3,0.9,0.5,1.5,0.7"/>
<path class="st0" d="M58.3,501c-0.7-0.4-1.2-0.5-2,0c-1.1,0.7-2.1,1.6-3.4,2"/>
<path class="st0" d="M20,225.8c-0.9,0.5-1.8,0-2.7-0.2c-0.5-0.1-1-0.8-1.6-0.3"/>
<path class="st0" d="M71.3,502.3c1.6,1,3.6,0.5,5,1.8"/>
<path class="st0" d="M132.6,359.2c1.3,1.1,2.3,2.6,4.1,2.9"/>
<path class="st0" d="M84.6,420c-1.1-0.5-2.3-0.1-3.4,0.1c-1,0.2-1.6,0-2.2-0.6"/>
<path class="st0" d="M13.7,61.3c-1.7,0.9-2.7,2.6-4.1,3.8"/>
<path class="st0" d="M19.3,222c-1.6,0.3-2.9-0.7-4.3-1.1"/>
<path class="st0" d="M90,16.5c-1.6-0.9-2.9,0.1-4.3,0.5"/>
<path class="st0" d="M172,277.8c1.3,1.1,2.7,1.4,4.1,0.2"/>
<path class="st0" d="M148.8,90.2c-1.3,1-2.7,1.6-4.3,1.1"/>
<path class="st0" d="M251,237.1c-0.4,0.3-1,0.4-1.3,0.8c-0.1,1.7,1.5,2.3,2.3,3.1c1.3,1.2,1.2,2,0.3,3.1"/>
<path class="st0" d="M236.4,302.8c0.4,1.9,0.9,3.7,3.2,4.1"/>
<path class="st0" d="M141.3,456.4c-0.5-0.8-1.2-1.5-1.6-2.4c-0.3-0.7-0.7-1.1-1.5-1.1"/>
<path class="st0" d="M252.3,278c-0.3-0.9-0.8-1.3-1.8-0.9c-0.6,0.2-1.3-0.2-2,0.2"/>
<path class="st0" d="M232.1,389.6c1.6-0.4,3.2-0.1,4.9-0.2c0.7,0,1.4,0,2.2,0c-0.3,1.6-1.4,1.8-2.4,1.6c-1.9-0.5-3.6-0.3-5.4,0.4"/>
<path class="st0" d="M131,271.7c-0.8,0-1.5-0.1-2,0.8c0.2,1.2,1.3,1,2,0.8c2.2-0.6,4.3-0.3,6.5-0.3c1,0,1.6-0.3,1.4-1.5"/>
<path class="st0" d="M105.1,202.6c-2.3-0.3-4.4,0.7-6.7,1.1"/>
<path class="st0" d="M67.5,227.4c-1.7,0.9-2.8,2.3-3.8,4"/>
<path class="st0" d="M247.8,220.9c0.9,1.9,2.1,3.8,2.3,5.9"/>
<path class="st0" d="M77.2,506.6c4.9-2.7,4.4-2.2,8.1,1.4"/>
<path class="st0" d="M142,86.5c0.5,0.3,1,0.7,1.4,1.4c-1.4,0.1-2.6,0.4-3.9-0.2c-0.7-0.3-1,0.2-0.9,0.9"/>
<path class="st0" d="M150.6,86.5c-1,2.1-3,1.6-4.7,1.7c-0.7,0-1.7-0.2-2.5-0.6"/>
<path class="st0" d="M12.4,67.2c-1-0.5-2.2,0.8-3-0.4c-0.4,0.3-0.5,0.6-0.5,1"/>
<path class="st0" d="M10.6,209.9c-0.2,1.6,1,2.4,2,3c1.5,0.9,3.1,1.6,4.6,2.4"/>
<path class="st0" d="M101.1,209.2c-2.3,0-4.6,0.3-6.8-0.4c-0.6-0.2-1.2-0.3-1.3-1.1"/>
<path class="st0" d="M199.9,274.6c-0.7,1.6-2,0.5-2.9,0.4c-1.2-0.1-2.4-0.9-2.9-2.2"/>
<path class="st0" d="M87.5,72.2c-3.6,1-5.8,3.5-7.7,6.5c-0.5,0.8-0.8,1.8,0.1,2.7"/>
<path class="st0" d="M25.6,264.3c-0.2,1.3,0.5,2.6,0,4"/>
<path class="st0" d="M70.2,442.9c-1.3,0.1-2.6,0.5-4,0.4"/>
<path class="st0" d="M151,222.6c0.2-1.7-1-1.3-2-1.5c-2.7-0.4-5.3-0.1-7.9,0.4"/>
<path class="st0" d="M63,419.5c-0.1-0.9,0.5-0.5,0.9-0.5c0.7,0,1.5,0,2.2-0.4c0.4-0.2,1-0.4,0.8-1.2c-0.2-1-0.9-1-1.5-0.9
	c-1,0.2-1.9,0.7-2.9,1"/>
<path class="st0" d="M160.2,237.5c0.3,0.9,0.3,1.7-0.9,1.4c-0.9-0.2-1.6,0.7-2.4,0.1"/>
<path class="st0" d="M117.3,302.8c0.1,0.8,0.5,1,1.2,1.1c1.7,0.4,3.6,0.4,5.2,1"/>
<path class="st0" d="M69.5,230.5c-1.5,0.8-2.2,2.3-3.2,3.6"/>
<path class="st0" d="M74.2,274.4c-0.2,0.7-0.9,0.8-1.4,1.1c-0.7,0.4-1.6,0.7-1.4,1.8"/>
<path class="st0" d="M239,253.5c-0.1,1.4,0.1,2.7,0.7,4"/>
<path class="st0" d="M138.2,295.6c-2.4-0.5-4.5,0.7-6.8,0.8c-0.6,0-1.2,0.1-1.8,0"/>
<path class="st0" d="M77,272.6c-0.6,1.1-1.5,2.2-1.4,3.6"/>
<path class="st0" d="M133,217.9c-0.4,0.3-0.8,0.2-1.3,0.2c-1.3-0.2-1.6,0.6-1.4,1.6"/>
<path class="st0" d="M96.7,367.1c-0.8,1.4-1.9,2.4-3.4,2.9"/>
<path class="st0" d="M148.6,267c-1.2-2-3.4-1.5-5.2-2.2c-1.3-0.5-2.8-0.4-4-1.4c-0.6-0.5-1.6-0.9-2.5-0.4"/>
<path class="st0" d="M73.3,437.6c-1.4-1.2-2.6-0.4-3.8,0.4"/>
<path class="st0" d="M240.4,202c0.4,1.2,1.1,2.4,1.1,3.8"/>
<path class="st0" d="M38.9,370.1c-0.3-1.5-1.5-1-2.3-0.8c-0.7,0.1-1.3,0.3-2,0.3"/>
<path class="st0" d="M21.3,370.3c-1.3-0.2-2.5-0.2-3.8,0"/>
<path class="st0" d="M181.4,247c0.1,0.6,0.6,1,0.9,1.8c-1.5,0.5-2.6,1.5-4.2,1.4"/>
<path class="st0" d="M23.8,360.8c2.4,1,5,1.3,7.6,1.3"/>
<path class="st0" d="M78.7,416.4c-1.4-0.9-2.6-0.3-3.8,0.4"/>
<path class="st0" d="M155.5,88.8c0,2.1-1.9,1.9-2.9,1.8c-1.3,0-2.8,0.1-4-0.9"/>
<path class="st0" d="M146.7,46.7c-0.8,1.3-1.8,2.1-3.4,1.3"/>
<path class="st0" d="M110,276.9c0.6-0.2,1.1-0.4,1.7-0.6c-0.5-0.8-0.9-1.5-1.9-1.5"/>
<path class="st0" d="M5.1,209.6c0.7,0.2,0.8-0.4,1.1-0.7c0.9-1.3,2.1-1.2,3.4-0.7c2,0.7,3.9,1.5,5.4,3.1c0.3,0.3,0.3,0.6,0.2,0.9"/>
<path class="st0" d="M241.3,309.9c-1.1,0.8-2.1,2.1-3.8,1.6"/>
<path class="st0" d="M132.6,221.1c0.1,1.2,0.4,2.2,2,2.4c0.9,0.1,1.1,1.2,1.8,1.6c0.9,0.4,1.8,0.7,2.7,1.1"/>
<path class="st0" d="M93.9,356.1c-1.2-0.5-2.4,0.2-3.6,0.2"/>
<path class="st0" d="M252.1,227.6c-0.9,0.9-1.1,1.9-0.5,3.1c0.6,1.1,0.3,2.1-0.2,3.1"/>
<path class="st0" d="M110.5,272.6c1.3-0.2,2.4,0.4,3.5,1.1c1.4-1.5,3-2.2,5.1-1.2c0.6,0.3,1.4,0,2.2,0c-0.5,0.9-0.8,1.6-2,1.9
	c-1.3,0.4-2.7,1-4,1.5c-1,0.3-1.3,0.9-1.2,1.9"/>
<path class="st0" d="M76.3,383.3c-2,0.1-3.6,1.8-5.8,1.4"/>
<path class="st0" d="M105.3,264.1c-1.3-0.4-2.4,0-3.1,1.3"/>
<path class="st0" d="M234.3,394.3c0.5,0.9,1.1,1.6,2.3,1.3c0.4-0.1,0.9,0.1,1.3,0.4c0.9,0.5,1.7,0.4,2.5-0.2"/>
<path class="st0" d="M101.5,438.7c-0.9,1.2-2.1,1.6-3.6,1.4"/>
<path class="st0" d="M19.8,218.9c-0.7,2.4,0.3,4.7,0.4,7c0,0.8,0.6,1.6,0.2,2.5"/>
<path class="st0" d="M49.2,72.4c-1.4,0.2-2.7,0.8-4.1,0.8c-1.2,0-2.1,1.5-2.9,2.6c0.5,1.1,1.3,0.2,2,0.4"/>
<path class="st0" d="M70.2,239.5c-0.1,0.9-0.8,1.5-1.5,1.9c-0.6,0.4-1,0.7-0.9,1.5"/>
<path class="st0" d="M179.1,114.6c-0.3,2.7,0.1,3.3,2.7,4.7"/>
<path class="st0" d="M95.6,415.7c-1.7-1-2.9-0.7-4,0.9"/>
<path class="st0" d="M77,357.5c-1.2,0.2-2.4,0.5-3.6,0.7"/>
<path class="st0" d="M86.4,70.6c-1.2,0.8-2.5,1.6-2.7,3.2"/>
<path class="st0" d="M89.8,77.3c-0.8,0-1.1,0.5-1.4,1.1c-0.3,0.6-0.8,1.1-1.6,0.9"/>
<path class="st0" d="M248.9,199.7c0.3,1.1,0.8,2.1,0.6,3.2c-0.2,1.1,0.5,1.8,0.9,2.7"/>
<path class="st0" d="M99,437.6c-1.9-0.6-3.7-0.6-5,1.1c-0.2,0.2-0.1,0.6-0.2,0.9"/>
<path class="st0" d="M68,249.6c-0.8,1-2.5,1.4-2.3,3.1"/>
<path class="st0" d="M76.1,418.2c-1.4-0.8-2.7-1.9-4.5-1.8"/>
<path class="st0" d="M13.5,355.9c-0.9,0.4-2.1-0.2-2.9,0.8c0.4,0.4,0.2,1.2,1,1.4"/>
<path class="st0" d="M212.3,201.7c2.6-1,3.7,1,5,2.5"/>
<path class="st0" d="M112.1,263.8c-0.5,1.3-1.8,1-2.7,1.5c-0.4-1.5,0.6-1.9,1.6-2.2c0.5-0.2,1.2-0.9,1.4,0.3"/>
<path class="st0" d="M237.8,393.7c0.9,1.6,1.9,0.9,2.9,0.1c-0.6-0.7-1.2-1-1.9-0.8c-2.4,0.9-4.7,1.1-7.2,0.8c-0.9-0.1-2,0.3-2.9,0.7
	c-1.4,0.6-0.9,1.8-0.7,2.9"/>
<path class="st0" d="M86.8,253.9c-1,0.7-1.9,1.4-2.9,2.1c0.2,0.4,0.4,0.7,0.8,0.8"/>
<path class="st0" d="M101,446.1l1.6,3.2"/>
<path class="st0" d="M132.8,80.5c-2.2-0.6-3.7,1-5.4,2c-1.3,0.8-2.6,1.2-4,1.4c-0.7,0.1-1.2-0.1-1.5-0.7c0.4-0.9,1.8-0.7,2-1.8"/>
<path class="st0" d="M136.6,213.2c-1.1,0.2-2.4-0.2-3.4,0.7"/>
<path class="st0" d="M117,78.4c-1.2,0.5-2.3,1.2-3.1,2.3"/>
<path class="st0" d="M10.6,261.8c0.8,0.9,2.1,1.6,1.4,3.2"/>
<path class="st0" d="M36.4,417.9c0.4,0.4,0.9,0.2,1.2,0c0.1-0.1,0.2-0.6-0.2-0.9c-0.5-0.3-0.9-0.2-1.3,0.2"/>
<path class="st0" d="M138.4,303.7c-1.2,0.2-2.4,0.2-3.4,1.1"/>
<path class="st0" d="M31.5,76.4c-2,1.4-3.6,3.5-6.3,3.6"/>
<path class="st0" d="M108.2,271.3c1.4,2.1,1.6,4.4,1.6,6.8"/>
<path class="st0" d="M165.7,232.6c0.7,1.2,2.1,0.9,3.1,1.4"/>
<path class="st0" d="M198.3,278c-1.1,0.1-2.2,0.2-3.2,0.4"/>
<path class="st0" d="M44.8,418.6c-1.8,0.9-3.7,0.4-5.6,0.9c-0.8,0.2-1.7,0.3-2.3,1"/>
<path class="st0" d="M165.9,100.5c1.3,0,2.6-0.1,3.8,0.4c0,0.5,0,1,0,1.4"/>
<path class="st0" d="M5.6,209.8c1,0.5,1.9,1.1,3.1,0.4"/>
<path class="st0" d="M69.5,299.4c-0.6,1.3,0.2,2.3,0.9,3.2"/>
<path class="st0" d="M190.9,103.8c0.4-1.5-0.5-2.1-1.6-2.7"/>
<path class="st0" d="M253.4,277.8c-1.7,0.5-2.9,1.6-4.1,2.7"/>
<path class="st0" d="M147.6,34.6c-0.1,1.2-1.2,2-1.1,3.2"/>
<path class="st0" d="M74.5,272.2c-1.5-0.3-2.1,0.5-2.3,1.8"/>
<path class="st0" d="M12.1,212.8c-1,0.4-2.3-0.4-3.2,0.5"/>
<path class="st0" d="M118.8,205.8c2.9,1.1,6,1.2,9,1.8"/>
<path class="st0" d="M142.2,270.8c0.7,2,0.3,4.2,0.9,6.3"/>
<path class="st0" d="M100.4,212.3c0,1.2,0.5,2.2,1.4,3.1"/>
<path class="st0" d="M95.8,17.5c-0.7,0-1.4-0.2-2-0.4c-3.6-1.1-4.4-0.9-6.7,2.4"/>
<path class="st0" d="M199.7,290.8c1.1,0.8,1,2,1.4,3.1"/>
<path class="st0" d="M133.7,83.1c-0.8,0.8-1.4,1.7-2.2,2.5c-0.8,0.8-0.5,1.4-0.5,2.2c-0.4,0.6-1,0.1-1.4,0.2"/>
<path class="st0" d="M252.3,268.8c-1.1,0.2-2.3,0.4-2.5,1.8"/>
<path class="st0" d="M184.1,250.1c-0.9,0.8-2.1,0.8-3.1,1.4"/>
<path class="st0" d="M12.8,209.9c-0.1,0.3-0.2,0.6-0.3,1c1.5,1.7,4.3,1.4,5.7,3.4"/>
<path class="st0" d="M22.3,360.2c-1.8,0.9-3.7,0.5-5.6,0.9c-0.6,0.1-1.2,0-1.6,0.6"/>
<path class="st0" d="M154.6,271c-1-0.2-2-0.5-2.3,0.9"/>
<path class="st0" d="M130.8,276.5c-1,1.1,0.4,2,0.2,3.1"/>
<path class="st0" d="M53.3,453.7c-1,0.4-2.2-0.4-3.1,0.5"/>
<path class="st0" d="M152.2,293.5c0.4-0.6-0.7-0.8-0.4-1.4c0.2-0.3,0.3-1,0.5-0.9c1.1,0.4,2.5-0.4,3.4,0.7"/>
<path class="st0" d="M149.2,273.7c-0.2-0.3-0.6-0.1-0.9-0.2c-2.9-0.2-3.2,0.2-2.7,3"/>
<path class="st0" d="M120.9,214.6c-1-0.9-2-1.5-3.4-1.3"/>
<path class="st0" d="M127.2,276c-1.9,0.4-3.6,0.8-5.1,2.3c-0.7,0.7-0.4,1.2-0.3,1.8"/>
<path class="st0" d="M164.3,277.1c-1.8-0.2-3.5-0.9-5.2-1.2c-0.6-0.1-0.7-0.5-1-0.7c-1.4-1.1-3-0.3-4.6-0.2
	c-0.8,0.1-1.8,0.5-2.5,0.3c-1.3-0.4-2.3-0.1-3.2,0.8"/>
<path class="st0" d="M193.3,267.4c-1,0-1.9-0.1-2.9-0.4c-1-0.3-2.5,0-3.7,0.2c-0.6,0.1-1.1-0.1-1.6-0.1"/>
<path class="st0" d="M251.7,241.4c-0.6,1.3-0.1,2.2,0.9,3.1c0.4,0.4,0.9,0.8,0.9,1.5c-0.5,0.4-1,1-1.6,0.1"/>
<path class="st0" d="M123.4,265.4c0.4,0.5,0.4,1.1,0.7,1.6c0.3,0.7,0.6,0.8,1.1,0.5"/>
<path class="st0" d="M15.1,65.9c-2.5,0.5-3.3,3.1-5.2,4.3"/>
<path class="st0" d="M111.9,266.1c1.3-0.5,2.6-0.6,4-0.5"/>
<path class="st0" d="M18.7,81.4c-1,0.1-1.4-0.3-0.9-1.2c0.7-1.3,1.5-2.6,2.5-4.2c-2,0.1-3.7,0.2-5.2,1.5"/>
<path class="st0" d="M18.4,8c-1,0.2-1.9,0.5-2.9,0.4"/>
<path class="st0" d="M7.4,255.5c1.2,1.6,3,2.6,4.5,3.8"/>
<path class="st0" d="M142.5,265c-0.8,1.2,0.1,2.8-1,4c-0.3,0.3,0.2,1.4,0.9,1.5c1.8,0.4,3.6,1.7,5.6,0.4"/>
<path class="st0" d="M241.8,252.4c0.5,0.8,1.1,1.7,1.6,2.5"/>
<path class="st0" d="M198.7,416.2v5"/>
<path class="st0" d="M101.3,333.8c0.4,1,0.3,2.3,1.6,2.7"/>
<path class="st0" d="M134.1,219.1c0.8,1,2,1.5,3.2,1.8"/>
<path class="st0" d="M172.8,101.2c-1.4,0.5-2.8,1.1-4.1,1.6"/>
<path class="st0" d="M114.1,262.7c0.6,0.7,1.4,0.7,2.2,0.5c1.4-0.4,1.7-0.3,1.8,1.5"/>
<path class="st0" d="M151.7,268.3c-1.1-0.3-1.7-2-3.1-0.9"/>
<path class="st0" d="M189.3,291c-1.3-0.1-2.7,0.3-4-0.5"/>
<path class="st0" d="M135.5,265.6c0,2.1,0.7,2.7,2.9,2.5"/>
<path class="st0" d="M59.8,452.6c-1,0.2-1.9,0.2-2.9,0.2"/>
<path class="st0" d="M65.2,69.2c-1,0.4-1.7,1.3-2.9,1.3c-0.3,0-0.7,0.4-0.7,0.9"/>
<path class="st0" d="M10.5,266.1c-0.5,0.6,0.3,2.2-1.4,1.8"/>
<path class="st0" d="M131.6,493.5c-0.8,0.8-1.5,1.7-2,2.7"/>
<path class="st0" d="M118.4,261.8c-2.1-0.3-4,0.5-5.9,1.1"/>
<path class="st0" d="M63.7,457.6c-0.8,0.4-2-0.1-2.7,0.7"/>
<path class="st0" d="M142.5,295.5c-1-0.1-1.9,0.3-2.9,0.4"/>
<path class="st0" d="M194,258.4c-1,0.4-1.9,0.7-2.9,1.1"/>
<path class="st0" d="M15.5,72.1c0.1,0.6-0.7,0.4-0.7,0.9c-0.1,1.8-1,2.8-2.9,2.7c-0.7,0-0.9,1.2-1.8,0.6"/>
<path class="st0" d="M249,227.6c1,0.6,0.2,2,1.3,2.5"/>
<path class="st0" d="M97.2,230.8c-0.7,0.8-1.6,0.8-2.5,0.9"/>
<path class="st0" d="M230.7,394.1c0,1.9-1.1,3-3.2,3.4"/>
<path class="st0" d="M48.8,417.3c-0.8-1.3-2-0.7-2.9-0.3c-1.9,0.9-4,0.2-6,0.7"/>
<path class="st0" d="M8.1,269.7c0,1.6,0.3,1.8,1.6,1.2c-0.5-0.7-1-1.2-1.8-1.5c1.1-1.9,1.1-2-0.7-3.6"/>
<path class="st0" d="M126.7,206.2c-0.8,0.2-1.8-0.4-2.3,0.6"/>
<path class="st0" d="M129.4,81.8c0.5,0.7-0.1,1.1-0.4,1.6c-0.6,1.1-0.9,2.2-0.9,3.4"/>
<path class="st0" d="M27.4,366.5c-1,0.1-1.9,0.1-2.9,0.2c-0.8-0.6-0.3-1.6-0.7-2.3"/>
<path class="st0" d="M132.3,272.4c-0.3-1.1-0.7-2.3,1-2.9c0.5,0.8,1.3,1.2,2.3,1.4"/>
<path class="st0" d="M72.7,369.4c0.1,0.2-0.2,0.8,0.2,0.7c1.3-0.6,0.9,0.7,1.3,1.1c0.8,0.1,1.7-0.5,2.5,0"/>
<path class="st0" d="M102,342.8c-0.4,1,0.1,1.8,0.4,2.7"/>
<path class="st0" d="M120.9,271c-2.2,0.1-2.8,1.1-1.8,3.4"/>
<path class="st0" d="M166.6,290.8c0.8,0.5,1.7,1.1,2.5,1.6"/>
<path class="st0" d="M116.1,267.5c-1.3,0.2-2.3,0.6-3.5,1.3c-1.8,1.1-3.8,1.7-5.7,2.6"/>
<path class="st0" d="M174.6,500.8c-0.7,1.3-2.6,1.2-3.2,2.5"/>
<path class="st0" d="M69.1,375.9c-0.1,0.3-0.1,0.7-0.5,0.5c-0.6-0.2-1.2-0.3-1.8,0"/>
<path class="st0" d="M12.6,359.7c0.9,1.4,2.5,2.1,3.6,3.2c0.5,0.5,0.7,1,0,1.4"/>
<path class="st0" d="M124.7,268.8c-1.1,0.1-1.9,0.8-2.7,1.4"/>
<path class="st0" d="M250.7,233.7c2,0.4,2.4,2.2,3.4,3.6"/>
<path class="st0" d="M111.6,266.3c-0.8,0.9-1.7,1.2-2.7,0.4"/>
<path class="st0" d="M72.9,379c-1-0.9-1.8,0.1-2.7,0.2"/>
<path class="st0" d="M43.2,420.5c0.2,0.2-0.3,0.8,0.4,0.7c0.7-0.1,1.2,0.2,1.6,0.7"/>
<path class="st0" d="M70,220.9c-0.8,0.5-1.8,0.5-2.5,1.3"/>
<path class="st0" d="M97.9,15.2c-0.8,0.3-1.8,0-2.5,0.5"/>
<path class="st0" d="M245.1,196.3c-0.1-1-0.9-1.5-1.3-2.3c-0.3-0.8-0.2-1.2,0.8-1.3c0.2,0.9,1.1,1.7,0.1,2.6"/>
<path class="st0" d="M235.9,332.2c-0.6,0.8-1.8,0.4-2.5,1.1"/>
<path class="st0" d="M18.4,252.8c-1.1-0.1-1.3,0.5-1.3,1.4c0.1,1.4-0.3,2.6-1.2,3.6"/>
<path class="st0" d="M235,285c0.4,0.9,0.9,1.7,0.4,2.9c-0.4,0.9,0,2,0.3,3"/>
<path class="st0" d="M97.9,356.5c-1.4,0.4-2.9,0.2-4.3,0.7"/>
<path class="st0" d="M48.6,70.6c-0.8,0.6-1.8,0.9-2.5,1.6"/>
<path class="st0" d="M132.1,415.7c-0.8-0.1-1.6,0-2.3,0.4c-0.6,0.4-0.6-0.3-0.9-0.4"/>
<path class="st0" d="M120.2,227.2c0.8,0.5,1.7,1,2.5,1.4"/>
<path class="st0" d="M17.5,276.5c-0.1,1.3-0.3,2.6-0.9,3.8"/>
<path class="st0" d="M143.2,226.5c-0.2,1.6,1.1,0.9,1.8,1.3"/>
<path class="st0" d="M151.9,271c-0.2-0.3-0.6-0.1-0.9-0.2c-0.1,1.5-1.9,2.3-1.6,4"/>
<path class="st0" d="M149.7,408.9c-1,0-1.6,0.7-2.5,0.9"/>
<path class="st0" d="M251.2,353.2c-0.4,0.8-0.1,1.7-0.2,2.5"/>
<path class="st0" d="M87.3,277.6c-1,0-2.1-0.1-3.1-0.4c-0.1,0.6-1.1,0.8-0.5,1.6c0.2,0.3,0.4,0.5,0.9,0.2c0.8-0.5,0-1,0.2-1.5"/>
<path class="st0" d="M11.4,274c-0.7,1.7-2.2,2.7-3.4,4"/>
<path class="st0" d="M133.2,264.9c-1.1,1.2,0.3,1.6,0.7,2.3"/>
<path class="st0" d="M123.1,202.6c-0.8,0.5-1.8-0.2-2.5,0.5"/>
<path class="st0" d="M82.1,365.6c0.5,0,0.9,0,1.3-0.6c-1.4-0.9-2.9-0.4-4.3,0.1"/>
<path class="st0" d="M102.6,209.6c0.5,0.1,0.5,0.4,0.2,0.7c-0.4,0.4-0.8,0.2-1.2,0"/>
<path class="st0" d="M116.6,277.6c-1,0.2-2.1,0.2-3.1,0.7"/>
<path class="st0" d="M207.7,186.4c-1.6-0.5-1.7-2.5-3.2-3.1"/>
<path class="st0" d="M130.6,86.3c-0.8-0.6-1.5,0.5-2.3,0.2"/>
<path class="st0" d="M104,354.7c0.1,0.8-0.5,1.4-0.9,2c-0.4,0.7-0.1,1,0.6,1.1"/>
<path class="st0" d="M145.1,85.4c-0.9,0.1-1.7,0.3-2.3,0.9"/>
<path class="st0" d="M84.9,211.8c0,0.7,0.1,1,0.9,0.7c0.9-0.3,1.9-0.6,2.7,0.3"/>
<path class="st0" d="M140,265.8c-2.1,0.3-4.1-0.2-6.1-0.9c-0.9-0.3-1.7-0.7-2.3-1.5"/>
<path class="st0" d="M70.2,242.4c-0.8,0.6-1.7,0.5-2.5,0.7c-1.1,0.2-1.4,0.8-1.3,1.8"/>
<path class="st0" d="M190.7,429.9c0.9,0.6-0.2,1.5,0.2,2.2"/>
<path class="st0" d="M245.1,221.5c-1.6-1.5-3.7-2.6-4.1-5"/>
<path class="st0" d="M95.6,353.4c-0.6,0.9-1.7,0.3-2.3,0.9"/>
<path class="st0" d="M234.8,341.2c-0.8-0.1-1.6,0.1-2.3,0.4"/>
<path class="st0" d="M80.1,370.5c-0.8,0.3-1.6,0.1-2.3,0.2"/>
<path class="st0" d="M120,214.3c-0.8,0.3-1.6,0.5-2.3-0.2"/>
<path class="st0" d="M81.2,437.6c-0.6,1-1.4,0.5-2.2,0.4"/>
<path class="st0" d="M177.8,447.2c-0.3,0.7-0.4,1.6-1.1,2.2"/>
<path class="st0" d="M181.4,485.9c-0.4,0.4-0.8,0.7-1.3,1.1c-0.4,0.3-0.6,0.8-0.5,1.2c0.2,0.7,0.9,0.3,1.4,0.4"/>
<path class="st0" d="M211.3,84.3c-1.4-0.6-2.4-2-3.8-2.7"/>
<path class="st0" d="M28.3,439.5c0,1.2,0.9,0.9,1.6,0.9"/>
<path class="st0" d="M156.4,269.7c-0.1,1.2,1.1,1,1.6,1.4"/>
<path class="st0" d="M186.8,251.7c-1.2,0.5-2.4,1.1-3.6,1.6"/>
<path class="st0" d="M53.7,440.2c-0.8-0.8-1.2-0.3-1.6,0.4c-0.2,0.5-0.3,1-0.4,1.5"/>
<path class="st0" d="M18.7,73.7c0.2-0.6,0.9-1.2,0-1.8c-2.2,0.6-2.4,1-2.5,4.7"/>
<path class="st0" d="M156.4,395.7c0.4,1.1,1.3,0.6,2,0.7"/>
<path class="st0" d="M6,206.2c0.7,0.3,1.1,0.9,1.3,1.6"/>
<path class="st0" d="M103.7,363c-0.9,0.1-1.5,0.5-1.8,1.4"/>
<path class="st0" d="M8.9,259.3c0.6,0.6,1.1,1.3,1.6,1.8c0.3,0.9-1.1,1.4-0.3,2.1c1.2,1,1.6,2.9,3.6,2.9"/>
<path class="st0" d="M86.4,74.9c-0.7-0.2-1.5,0-2.2-0.5"/>
<path class="st0" d="M26.3,361.9c0.1,0.8,0,1.5-0.4,2.2"/>
<path class="st0" d="M32.4,406.1c-0.1,1.1-1.1,1.9-1.4,2.9"/>
<path class="st0" d="M85.1,233.7c-1.6,0.1-2.9,1.2-4.5,1.4"/>
<path class="st0" d="M100.1,339c-0.4,1-0.1,1.6,0.9,1.8"/>
<path class="st0" d="M123.1,78.6c-0.6,0.6-1.2,1.1-2.2,0.9"/>
<path class="st0" d="M243.5,243.6c-0.1-0.1-0.1-0.1-0.2-0.2c-0.8-0.9-1.7-1.8-2.9-0.7c-1.1,1-0.7,2.7,0.7,3.8"/>
<path class="st0" d="M132.8,16.3c-0.7,0.3-1.4,0.4-2.2,0.4"/>
<path class="st0" d="M79,508.9c0.7,0.6,0.8,1.6,1.6,2"/>
<path class="st0" d="M44.8,417.9c0.8,1.2,2.5,1.3,4,0.2"/>
<path class="st0" d="M159.8,95.5c-0.4,0.8-1,1-1.8,1.1"/>
<path class="st0" d="M104.6,361.5c-0.4-0.4-0.1-0.9,0-1.2c0.3-0.5,0.1-0.9-0.3-1.4c-0.8,0.6-1.5,1.1-2.3,1.7"/>
<path class="st0" d="M113.2,269.2c1.2,0.1,1,1.4,1.6,2c-0.4,0.3-0.7,0.6-1.1,0.9"/>
<path class="st0" d="M249,295.5c-0.7-0.1-1.4-0.2-2.2-0.4"/>
<path class="st0" d="M251.2,224.4c0.4,1.3,0.3,2.9,1.8,3.6"/>
<path class="st0" d="M104.9,330.7c-0.2,1,0.8,1.1,1.3,1.6"/>
<path class="st0" d="M238.6,390.9c0.6,0.5,1.3,1,2,1.5c-0.1,0.3-0.1,0.7-0.2,1"/>
<path class="st0" d="M45.2,71c0,0.7-0.1,1.3,0.2,2"/>
<path class="st0" d="M138,357.7c0.6,0.7,1.2,1.2,2,1.6"/>
<path class="st0" d="M21.8,236.6c0,0.7-0.4,1.3,0,2"/>
<path class="st0" d="M99.7,207.1c-1.2-0.4-2.4-0.1-3.6-0.2c-0.8-0.1-0.4,0.6-0.5,0.9"/>
<path class="st0" d="M42.7,20.8c0.4,0.9,0.4,0.9,2,0.5"/>
<path class="st0" d="M252.1,234.8c-0.5,0.6-0.4,1.3-0.7,2"/>
<path class="st0" d="M178,273.7c-1.2-0.6-2.4-0.3-3.6-0.2"/>
<path class="st0" d="M143.6,213c-0.5,1-0.2,1.9,0.2,2.9"/>
<path class="st0" d="M235.4,342.6c-1,0.5-2.5-0.1-3.1,1.4"/>
<path class="st0" d="M113,81.4c-0.7,0.2-1.3,0.7-2,0.2"/>
<path class="st0" d="M235.9,347.6c-1.2,0.9-2.7,0.9-4.1,1.1"/>
<path class="st0" d="M27,440c-1,0-2-0.1-2.9,0.4"/>
<path class="st0" d="M6.9,273.3c0.1,1.5-1.1,3.2,0.9,4.3"/>
<path class="st0" d="M143.6,230.1c0.3,0.8,1.1,1.1,1.6,1.6"/>
<path class="st0" d="M142,399.5c0.7,0.2,1.3,0.4,2,0.5"/>
<path class="st0" d="M84.1,445.6c-0.7,0-1.3-0.1-2,0.2"/>
<path class="st0" d="M119.7,278.5c-0.8-0.4-1.4-0.1-2,0.4"/>
<path class="st0" d="M96.5,78.6c0.7,0,1.2,0.2,1.6,0.7c0.4,0.6,1,0.6,1.6,0.5"/>
<path class="st0" d="M127.9,278.7c-1.3-0.9-1.9,0-2.5,0.9"/>
<path class="st0" d="M140.7,404.7c-0.6,0.5-1.3,0.3-2,0.4"/>
<path class="st0" d="M72.7,455.8c-1.3,1.1-3,0.4-4.3,1.1"/>
<path class="st0" d="M120.8,263.8c-0.5,0.6-0.8,1.4-1.8,1.4"/>
<path class="st0" d="M150.4,457.3c-0.5,0.5,0.3,1.5-0.7,1.8"/>
<path class="st0" d="M160.5,516.3c-0.5,0.4-0.5,1.4-1.4,1.3"/>
<path class="st0" d="M151.7,292.6c-0.7-0.2-1.3,0.5-2,0.4"/>
<path class="st0" d="M120.6,275.8c-1,1.2-2.7,0.6-3.8,1.4"/>
<path class="st0" d="M127.4,274v4.1"/>
<path class="st0" d="M82.6,458.2c-0.5,0.7-1.5,0.1-2,0.7"/>
<path class="st0" d="M44.7,77.7c-0.9-0.1-1.9,1-2.7-0.2c-0.3,0.6-1.5,0-1.4,1.1"/>
<path class="st0" d="M67.1,463.6c1.5-0.8,3-0.3,4.5-0.2"/>
<path class="st0" d="M153.3,296.5c-0.6,0.3-1.1,0.7-1.8,0.7"/>
<path class="st0" d="M40.2,415c-0.8,0.6-1.8,0.5-2.7,0.5"/>
<path class="st0" d="M100.4,415.7c-1.1,0.1-2.2-0.6-3.2,0.4"/>
<path class="st0" d="M74.2,222.9c-0.9-0.1-1,1.1-1.8,1.1"/>
<path class="st0" d="M140.4,274.8c-0.2,0-0.7,0-0.7,0c-0.1-0.6,0.2-1,0.9-0.9c0.6,0.4-0.1,1,0.4,1.4c-3.1,0.7-4,0.7-5,0.4
	c-0.5,1.1-1.2,1.6-2.3,1.1"/>
<path class="st0" d="M118.4,264.9c1,1.2-0.4,1.5-0.9,2c-0.4,0.4-1.3,0.3-1,1.5c0.2,0.7-1.2,1.1-2,1.4"/>
<path class="st0" d="M108.7,262.7c-1.2-0.2-2,0.6-2.9,1.1"/>
<path class="st0" d="M178.3,443c-0.2,1-0.4,2-0.5,3.1"/>
<path class="st0" d="M13,0.8h-1.8"/>
<path class="st0" d="M82.8,275.5c-0.2,1.1-0.7,2.1-1.3,3.1"/>
<path class="st0" d="M42,75.8c-0.8,0-1.7-0.3-2,0.9"/>
<path class="st0" d="M62.5,418.4c0.2-0.8-0.4-1.5-0.9-1.4c-1.6,0.4-3.2-0.7-4.7,0.1"/>
<path class="st0" d="M137.7,278.4c-0.7-0.9-1.6,0.1-2.3-0.2"/>
<path class="st0" d="M135.3,230.3c-0.5-0.2-1.1-0.9-1.4,0.2"/>
<path class="st0" d="M231.4,124.8c-0.8-0.6-1.8-0.5-2.7-0.5"/>
<path class="st0" d="M122.9,214.6c-0.4,1.1-1.1,0.2-1.6,0.2"/>
<path class="st0" d="M21.3,375.9c-1.2,0.1-2.4,0.2-3.6,0.4"/>
<path class="st0" d="M243.6,393c-1.1-0.3-1.9,0.6-2.9,0.7"/>
<path class="st0" d="M7.1,268.1c-0.1-0.7-0.4-1.2-1.3-1.1"/>
<path class="st0" d="M188.6,388c-0.6,0.4-1.2,0.1-1.8,0.2"/>
<path class="st0" d="M232.5,284.1c-0.3,1,0.6,2-0.2,2.9"/>
<path class="st0" d="M10.5,237.7c-0.1,0.8,1.2,0.2,1.1,1.1"/>
<path class="st0" d="M148.1,267.7c-1.1,1.2-2.9,0.6-4.1,1.6c-0.2,0.2-0.5,0.4-0.7,0.5"/>
<path class="st0" d="M73.4,447.9c-0.5,0-1.1-0.1-1.6,0.2"/>
<path class="st0" d="M9.4,276c-0.6-1.1-1.6-1.6-2.9-1.5c-0.5,0-1-0.2-1.4-0.3"/>
<path class="st0" d="M29.5,418.6c0,0.8-0.3,1.1-1.1,0.7"/>
<path class="st0" d="M135.1,268.3c0.5,0.9,1.4,1,2.2,1.4c0.7,0.4,0.8-0.5,1.1-0.9"/>
<path class="st0" d="M144.7,338.1c-0.4,0.4-0.6,0.8,0.2,0.9c0.7,0.1,1.4,0.2,2.2,0.4"/>
<path class="st0" d="M97.6,69.9c-0.7,0.3-0.9,0.8-0.5,1.4"/>
<path class="st0" d="M193.8,304.1c0.1,0.6,1.1,0.8,0.9,1.6"/>
<path class="st0" d="M89.6,256.2c-1.2,0.6-1.3,2.1-2.3,2.9"/>
<path class="st0" d="M65.2,455.5H68"/>
<path class="st0" d="M190.7,426c-0.2,0.6-0.5,1.1,0.4,1.4"/>
<path class="st0" d="M218.8,279.8c1.1,0,0.8,1.6,1.8,1.6"/>
<path class="st0" d="M75.6,369.4c-0.2,0.8-1.1,0-1.4,0.5"/>
<path class="st0" d="M150.4,270.6c-0.8-0.3-1.5-0.4-2.2,0.2"/>
<path class="st0" d="M133.2,216.1c-0.4,1-0.1,1.9,0.5,2.7"/>
<path class="st0" d="M78.1,365.1c0.4-0.4,0.7-0.1,0.9,0.2c0.2,0.3-0.1,0.5-0.4,0.8c-0.7-0.4-1-2-2.2-0.8"/>
<path class="st0" d="M131.7,276v1.6"/>
<path class="st0" d="M54.2,440.2c-0.7,0.1-0.8,1.4-1.8,0.7"/>
<path class="st0" d="M134.1,272.6c0.2-0.8-0.1-1.1-0.9-1.1"/>
<path class="st0" d="M145.9,269.9c0.5,0.1,1.1,0.2,1.6,0.4"/>
<path class="st0" d="M47.2,441.1c0.1,0.6,0.7,1.1,0.2,1.8"/>
<path class="st0" d="M245.1,220c0,1.4,0.9,2.7,0.4,4.1"/>
<path class="st0" d="M152.2,269.5c-1.1-0.3-2.1-0.5-3.1,0.4"/>
<path class="st0" d="M109.1,264.7c-1.1-0.9-2.3,0.2-3.4-0.2"/>
<path class="st0" d="M125.2,417.1c-0.5-0.1-1.2,0.3-1.4-0.4c-0.4-1.4-1.2-0.6-1.8-0.4"/>
<path class="st0" d="M241.8,168.9c-0.5-1-1.4-1.3-2.5-1.3"/>
<path class="st0" d="M144.3,272.6c-0.5-0.3-1.1-0.2-1.6-0.2"/>
<path class="st0" d="M8.7,79.3c-0.4,0.7,0.1,2-1.4,1.8"/>
<path class="st0" d="M79.9,447.5c-0.5,0-1.1,0-1.1,0.7"/>
<path class="st0" d="M81.2,255.9c-1.2,0.8-2.6,1.4-3.2,2.9"/>
<path class="st0" d="M8.7,280.9c-1,0.6-1.3,1.6-1.8,2.5"/>
<path class="st0" d="M52.6,504.4c-0.5,0.1-1,0.2-1.4,0.4"/>
<path class="st0" d="M158.4,517.8c-0.6,0.1-0.8,0.8-1.4,0.7"/>
<path class="st0" d="M140.4,264.3c-0.3,1-0.1,1.9-0.2,2.8c-0.2,0.8-1.8-0.1-1.5,1.3"/>
<path class="st0" d="M245.3,196.3c0.8,0.7,0.8,1.4-0.2,2c-0.6-0.5-0.3-1.2-0.2-1.8"/>
<path class="st0" d="M173.5,272.2c1.1,2.1,1,2.4-0.5,3.8"/>
<path class="st0" d="M194.7,383.5c0.5,0.4,0.5,0.9,0.7,1.4"/>
<path class="st0" d="M6.9,212.3c-0.6-0.2-0.9,0.4-1.4,0.5"/>
<path class="st0" d="M232.5,377c-0.6-0.3-0.9,0.4-1.4,0.4"/>
<path class="st0" d="M137.7,221.1c0.2,0.6,0.7,0.7,1.3,0.7"/>
<path class="st0" d="M27,0.8h-1.4"/>
<path class="st0" d="M79.7,356.6c-0.2,0.8-0.8,0.5-1.3,0.5"/>
<path class="st0" d="M55.3,266.3c0.4,0.1,0.8,0.1,1.3,0.2"/>
<path class="st0" d="M110.3,265.6c0.4,0.1,0.8,0.2,1.3,0.4"/>
<path class="st0" d="M166.6,274.2c-0.9,0.2-1.7-0.4-2.5-0.4"/>
<path class="st0" d="M49.5,442.7c0.4,0.1,0.8,0.4,1.3,0"/>
<path class="st0" d="M86.4,259.3c-0.3,0.2-0.9,0.2-1.1,0.7"/>
<path class="st0" d="M115.2,267.9c0,0.4-0.1,0.9,0.2,1.3"/>
<path class="st0" d="M117.5,279.6c0.4,0.1,0.8,0.2,1.3,0.4"/>
<path class="st0" d="M126.7,83.6c0.2,0.9,1.2,0.5,1.6,0.9"/>
<path class="st0" d="M249.9,280.7c0.7,0.9,2.1-0.2,2.7,0.9"/>
<path class="st0" d="M82.2,291.7c0.5-1.3,1.4-1.2,2.3-0.5"/>
<path class="st0" d="M228.9,117.1c-0.9-1-2.1-1.6-3.2-2.2"/>
<path class="st0" d="M74.9,417.9c-0.1,0.4-0.5,0.8-0.4,1.3"/>
<path class="st0" d="M244.2,190.3c-0.6,0.8,0.2,1.4,0.2,2.2"/>
<path class="st0" d="M76,411.7c1.3-0.6,2.5-0.4,3.6,0.4"/>
<path class="st0" d="M189.1,300.1c0.4,0.2,0.8,0.4,1.3,0.5"/>
<path class="st0" d="M101.5,220c0,0.4-0.1,0.9,0.2,1.3"/>
<path class="st0" d="M94.3,0.8c0.7,0,0,1.1,0.7,1.1"/>
<path class="st0" d="M150.1,461.2v2.2"/>
<path class="st0" d="M53.7,248.8c-0.5,0.6,0.1,1.2,0,1.8"/>
<path class="st0" d="M153.1,373.2c-0.2-0.6-0.5-0.7-0.9-0.2"/>
<path class="st0" d="M8.1,238c-0.5,0.2-0.2,1-0.9,1.1"/>
<path class="st0" d="M140.7,86.1c1.3,0,1.2,0.8,0.9,1.6"/>
<path class="st0" d="M84.6,356.8c0.8,0.2,1.6,0.2,2.3,0.2"/>
<path class="st0" d="M122.4,274.4c-1.7,0.2-1.6,1.3-1.3,2.5"/>
<path class="st0" d="M62.6,498.3c0.7,0.1,1.4,0.2,2.2,0.4"/>
<path class="st0" d="M83.2,368c-0.6-0.4-1.2,0-1.8,0"/>
<path class="st0" d="M162.3,239.1c-0.6-0.1-1.3,0.5-1.8-0.2"/>
<path class="st0" d="M14.8,368.7c-0.6,0-1.2,0.2-1.8-0.2"/>
<path class="st0" d="M27.7,10.7c0.4,0.7,0.5,1.5,1.4,1.6"/>
<path class="st0" d="M25,78.4c-0.6-0.1-1,0.6-1.6,0.4"/>
<path class="st0" d="M70.4,371.8c-0.2,0.3-0.6,0.1-0.9,0.2"/>
<path class="st0" d="M42.3,406.1c-0.4,0.6-0.5,1.5-1.1,2"/>
<path class="st0" d="M251.4,211.8c0.3,0.3,0.3,0.6,0,0.9"/>
<path class="st0" d="M4.9,209.9c-0.2,0.2-0.2,0.3,0,0.6c0.2,0.2,0.2,0.2,0.4,0"/>
<path class="st0" d="M77.9,453.7c0.3,0.1,0.3,0.7,0.7,0.5c0.1-0.1,0.5-0.6,0-0.9"/>
<path class="st0" d="M150.8,455.1c-0.3,0.5-0.3,1,0,1.4"/>
<path class="st0" d="M3.6,71c0.1,0.4-0.4,0.3-0.5,0.5"/>
<path class="st0" d="M95.6,366.9c0.2,0.5-0.6,0.7-0.4,1.3"/>
<path class="st0" d="M99.3,365.1c-0.1-0.4-0.2-0.5-0.5-0.2"/>
<path class="st0" d="M124.5,78.2c-0.3-0.1-0.5,0.1-0.7,0.4"/>
<path class="st0" d="M74.2,241.3c-0.3-0.1-0.5,0.1-0.7,0.4"/>
<path class="st0" d="M251.2,229.9c-0.8-0.1-1,0.6-1.3,1.1"/>
<path class="st0" d="M126.3,343.5c-0.2,0.2-0.4,0.4-0.7,0.4"/>
<path class="st0" d="M177.1,422.4c0,0.2-0.1,0.6,0.2,0.7c0.1,0,0.4-0.2,0.5-0.3"/>
<path class="st0" d="M58.7,501.9c0,0.3,0.1,0.4,0.4,0.4"/>
<path class="st0" d="M122,344.6c0.3,0,0.4,0.1,0.4,0.4"/>
<path class="st0" d="M173.8,100.9c-0.3,0-0.4,0.1-0.4,0.4"/>
<path class="st0" d="M135.3,230.8c-0.2-1.1,0.6-0.7,1.1-0.7"/>
<path class="st0" d="M240,312.9c-0.2-0.1-0.4-0.1-0.5-0.2"/>
<path class="st0" d="M251.9,284.1c0.3,0,0.4,0.1,0.4,0.4"/>
<path class="st0" d="M145.8,536.1c-0.2-0.1-0.4-0.1-0.5-0.2"/>
<path class="st0" d="M144.9,536.7c0.1,0.2,0.1,0.4,0.2,0.5"/>
<path class="st0" d="M135.7,492.2c0.2,0.5,0.4,0.9-0.4,1.1"/>
<path class="st0" d="M92,363.9c-0.2,0.1-0.4,0.1-0.5,0.2"/>
<path class="st0" d="M125.6,298.1c0,0.3-0.1,0.4-0.4,0.4"/>
<path class="st0" d="M92.2,368.4c0.3,0,0.4,0.1,0.4,0.4"/>
<path class="st0" d="M132.4,50.5c-0.1,0.2-0.1,0.4-0.2,0.5"/>
<path class="st0" d="M219.5,198.4c0,0.3,0.1,0.4,0.4,0.4"/>
<path class="st0" d="M101.7,8.2c-0.2,0.1-0.4,0.2-0.5,0.4"/>
<path class="st0" d="M149.7,460.1c0.3,0,0.4,0.1,0.4,0.4"/>
<path class="st0" d="M103.3,8c-0.2,0-0.2,0.6-0.5,0.2"/>
<path class="st0" d="M115.5,203.1c0.1,0.2,0.2,0.4,0.4,0.5"/>
<path class="st0" d="M236.4,385.3c-0.3,0-0.4,0.1-0.4,0.4"/>
<path class="st0" d="M92.5,205.3c0.3,0,0.4,0.1,0.4,0.4"/>
<path class="st0" d="M191.5,289.1c0,0.3-0.1,0.4-0.4,0.4"/>
<path class="st0" d="M8.1,268.1c-0.3,0-0.5-0.6-0.9,0c-0.3,0.4,0.2,0.4,0.2,0.6"/>
</svg>
