<?xml version="1.0" encoding="UTF-8"?>
<svg xmlns="http://www.w3.org/2000/svg" width="543.4" height="315" viewBox="0 0 543.4 315">
  <defs>
    <style>
      .g {
        stroke-linecap: round;
      }

      .g, .h {
        stroke-linejoin: round;
      }

      .g, .h, .i {
        fill: none;
        stroke: #484848;
      }

      .i {
        stroke-miterlimit: 10;
      }

      .j {
        fill: #484848;
        stroke-width: 0px;
      }
    </style>
  </defs>
  <g id="a" data-name="Layer 1">
    <g id="b" data-name="Layer 2">
      <path class="g" d="M367.3,218.6s-1.1-4.8-2-8-3.8-11.6-4.8-16.5c-1.1-4.9-2.8-18.2-2.8-18.2,0,0,.6-3.9,0-4.3s-3-2.2-3.6-2.2-9.4-.5-13.9-1.1c-4.6-.6-17.3-2.4-21.9-3s-10-1.6-10-1.6"/>
      <path class="g" d="M143.9,200.9s-1,2.3-2,3.9c-1,1.6,1,4.6,0,5.8s-.7,7.8-.3,9.1c.4,1.2-.7,7.4,1,11.2s4.9,7.8,4.9,9.5v6.1l1.1,3.6s2.2-2.5,4.9-3,13-1.1,14.9-.8,9.6,1.9,11.4,1.9,7.3-.8,7.3-.8"/>
    </g>
    <g id="c" data-name="a">
      <path class="g" d="M269.4,13.1c-6,3.5-12.2,6.3-18.1,10-2.8,1.8-6.1,2.8-8.9,4.6-3.9,2.4-8.2,4.2-12.1,6.7-2.2,1.4-4.7,2.4-6.9,3.8-6.5,4-13.4,7.4-19.9,11.6-4.8,3.1-9.9,5.8-15.2,7.8-2.6,1-4.8,2.8-7.4,4-3.6,1.8-7.2,3.7-10.8,5.5-5.8,2.9-11.4,6.3-17.1,9.5-5.5,3-11,6.1-16.5,9-7.4,4-14.8,7.9-22.1,11.9-6.5,3.6-13,7.4-19.7,10.7-4.1,2-8,4.5-12.1,6.5-5.9,2.9-11.4,6.4-17.1,9.7-2.7,1.6-5.7,2.6-8.6,3.7-4,1.6-7.8,3.4-11.5,5.6-4.5,2.6-9.2,4.9-13.6,7.8-2.6,1.7-5.7,2.8-8.6,4.2-3.9,1.9-7.6,4-11.5,5.9-2.1,1-4.2,2.1-6.5,2.7-1,.3-1.7,1.4-2.9,1.2"/>
      <path class="g" d="M273.3,23.1c2.1.1,3.8,1.5,5.8,2.2,3.9,1.5,7.8,3.1,11.7,4.6,4.7,1.9,9.8,2.8,14.4,4.9,2,.9,3.9,1.9,5.8,2.9,3.4,1.7,6.9,2.7,10.6,3.2,7.3,1,14.4,2.7,21.1,6,3.1,1.6,6.5,2.6,9.9,3.7,3.4,1,6.6,2.7,9.8,4.4,2.4,1.3,4.8,2.5,7.4,3.4,4.3,1.5,8.4,3.5,12.6,5,3,1.1,6.1,2.1,9.2,3.2,2.5.9,4.8,2.1,7.2,3.1,4,1.7,8,3.3,12.1,4.8,6,2.2,12,4.4,18,6.3,2.9.9,5.8,1.7,8.6,2.9,2.2,1,4.4,1.9,6.5,3,3.9,2.1,8.1,3.4,12,5.5,5.3,2.8,10.9,4.7,16.4,6.8,2.6,1,5,2.5,7.6,3.5,5.3,2.1,10.7,4.1,16,6.2,4.4,1.7,9,3.1,13.4,4.9,5.4,2.3,10.6,5.2,16.3,7,.7.2,1.4.5,2.2.5"/>
      <path class="g" d="M520.5,110.9c-1.4-1-3.1-1.1-4.7-1.6-2.8-.9-5.4-2.3-8.1-3.4-3.6-1.5-7.4-2.7-11.1-3.7-3.2-.9-6.3-2.1-9.2-3.9-5.5-3.4-11.6-5.5-17.6-7.7-4.7-1.7-9.3-3.6-13.8-5.6-3.9-1.7-7.9-3.1-12-4.2-3.9-1-7.6-2.5-11.5-3.5-4.1-1-7.5-3.3-11.3-4.9s-7.5-3.3-11.5-4.4c-3.2-.8-6.1-2.8-9.2-4-4.7-1.8-9.4-3.5-14.2-5.2-3.9-1.3-7.7-2.6-11.6-4-4.5-1.6-9.1-3.1-13.7-4.8-5.4-2-10.8-3.8-16.2-5.8-6.5-2.5-13-5.1-19.4-7.7-4-1.7-8.2-3-12.1-4.9-2.2-1-4.7-1.5-7-2.2-6.6-2.1-13.3-4.1-20-6.1-4.3-1.3-8.6-2.6-12.6-4.5-1.2-.6-2.4-1.3-3.4-2.2-1-.9-2-.9-3.1-.9"/>
      <path class="g" d="M267.9,1c-.4,1.4-1.7,1.7-2.7,2.1-5.3,2.4-10.6,4.8-15.8,7.4-5.1,2.5-10.2,5.2-15.2,8-3.6,2-7.3,3.9-11,6-3.9,2.2-7.8,4.4-11.7,6.7-2.4,1.4-4.6,3.1-7.1,4.3-5.7,2.8-11.1,6.1-16.6,9.2-4.5,2.5-9.2,4.7-13.8,6.9-5.2,2.5-10.6,4.7-15.7,7.2-6.4,3.2-12.6,6.6-18.9,10-4.7,2.5-9.2,5.5-13.9,8-4.1,2.2-8.1,4.6-12.1,6.8-3.6,2-7.1,4.1-11.1,5.3-1.9.6-3.2,2.2-5,3.1-3.6,1.7-7.1,3.5-10.4,5.6-3,1.9-6.4,2.9-9.2,5-2.7,2.1-5.8,3.1-8.7,4.5-5.8,2.7-11.2,6.3-17.4,8.5-4.2,1.5-8.1,4.2-12.1,6.4-1.4.8-2.9,1.4-4.5,1.9s-3.2,1.3-4.5,2.4c-1.1.8-2.1,2-3.8,1.8h-.2c-2,2.1-5,2.4-7.3,4-2.1,1.6-4.4,3.2-7,4-2.7.8-5,2.3-7.7,2.9-.9.2-1,.9-1.1,1.8-.3,2.7-.8,5.4-1.2,8.1-.3,2.1-.6,4.2-.4,6.3.1.8,0,1.4-1.1,1.3"/>
      <path class="g" d="M272.1,21.5c-.2-.1-.6-.2-.7-.2-4,2.9-8.7,4.6-12.8,7.5-4.6,3.2-9.9,5.2-14.7,8.1-3.2,2-6.6,3.8-9.9,5.6-3.5,1.8-7.1,3.4-10.6,5.3-3.6,1.9-7.5,3.1-11,5-4.9,2.8-10,5.2-14.8,8.2-6.9,4.3-14.1,8-21.2,12-5.1,2.9-10.2,5.7-15.2,8.6-2.7,1.6-5.5,3.1-8.4,4.4-4.5,2.1-8.8,4.6-13.2,6.9-3.8,2-7.7,3.9-11.3,6.2-4.2,2.6-8.6,4.9-13,7.1-4.4,2.3-8.9,4.2-13.3,6.5-3.1,1.6-6,3.6-9,5.4-1.6,1-3.2,2-5,2.7-1.4.6-2.7,1.4-4,2.3-2,1.5-4.5,1.8-6.7,2.9-3.2,1.5-6.5,2.8-9.5,4.6-2.7,1.6-5.7,2.9-8.3,4.6-2.8,1.8-5.6,3.5-8.5,5.2-2.4,1.5-4.3,3.8-7.2,4.5-.9.2-.8.8-.9,1.5-.8,4.7-1.5,9.4-2.3,14-.6,3.4-1.3,6.7-1.5,10.1,0,.2-.2.5-.3.7"/>
      <path class="g" d="M540.3,103.4c-1.7,0-3.3-.5-4.7-1.3-4.5-2.5-9.4-3.9-14.3-5.1-6.6-1.7-12.9-4.1-19.1-6.9-4.6-2.1-9.2-4-13.9-5.9-4-1.7-7.8-3.9-12.1-5-2.9-.8-5.9-1.6-8.8-2.3-3.3-.8-6.5-1.7-9.6-3.2-3.1-1.6-6.5-2.7-9.7-4.2-5.1-2.4-10.2-5.1-15.3-7.5-6-2.8-11.9-5.7-18.4-7-2.4-.5-4.8-.9-7-2-1-.5-2,.4-3,.3-2.3-.2-4.1-1.6-5.9-2.7-4.3-2.5-8.7-4.6-13.3-6.5-3.2-1.3-6.3-2.6-9.5-3.8-5.3-2.1-10.6-4.2-15.8-6.3-5.2-2.1-10.7-3.4-15.9-5.4-3-1.2-6.2-1.9-9.3-3-4-1.5-8-3-11.9-4.6-5.9-2.5-12-4.7-17.6-7.8-1.9-1.1-4.2-1-6.3-1.6-3.6-1-7.1-2.2-10.6-3.6-.4-.2-1.2-.7-1.4.3"/>
      <path class="g" d="M441.5,159c-.4,2.9-.4,5.7.4,8.4.1.3-.1,2.1.1,2.3,1.9,2.3,1.6,6.9,1.5,9.8-.1,3.3.2,5.8.2,8.5-.4,1.8-.9,5.2-.6,7.1.5,3.4-.3,6.1.5,9.5.5,1.9.7,4.2-.5,6.1-.7,1.2-.1,3.3-.1,4.6-.1,1.7-1.9,4.3-3.5,6.4-2.2,2.9-4.4,4.3-7.2,6.4-2,1.4-3.9,3-4.9,3.5-2.8.5-4.2,2.2-6.6,3.5-3.1,1.7-5.7,2.5-9.3,2.9-4.2.4-8.1.5-12.3,1-1.3.1-2.6-.1-3.6-1.1"/>
      <path class="g" d="M264.2,110c-.2-2.2.9-4.3,1.1-6.5.3-3.3.9-6.6.5-9.9-.4-3.4-1.7-6.6-3.6-9.5-.5-.8-1.1-1.6-1.6-2.4-2.1-3.4-5.7-4.6-8.8-6.5-3.6-2.2-7.6-2.6-11.7-2.1-3.9.4-7.3,2.3-10.2,4.8-4.7,4-6.6,9.6-8.8,15.1,0,.1.1.2.2.4"/>
      <path class="g" d="M180.1,124.1c-3.7.2-7.1,1.7-10.4,3.1-4.4,1.9-6.7,5.9-8.2,10.2-1,2.8-2.5,5.3-3.7,8.1-2,4.8-3.8,9.7-5.9,14.5-2.2,5.3-4.4,10.6-7.9,15.4-2,2.8-2.4,6.3-1.9,10,.4,2.8,1.1,5.5,1.8,8.2s2.2,5.1,3.1,7.8c2.1,5.9,5.8,10.9,9.2,16,.6.9,1.5,1.5,2.3,2.2,1.8,1.4,3.6,2.7,5.3,4.3,1.2,1.2,2.7,2.1,4.5,2"/>
      <path class="g" d="M212.9,110.7c-3.3-1.4-6.4-3.3-10.1-3.8-1.1-.2-2.1.2-3.1.3-1.1.1-1.3,1.7-.8,2.8,1.7,3.7,4.7,6,7.7,8.5,5.3,4.5,10.2,9.4,13.5,15.6,1.6,3.1,2.7,6.4,3.5,9.9.7,3,1.6,5.9,2.2,9,.3,1.8.7,3.6.7,5.4,0,1.7.6,3.3.7,5,.2,2.2.5,4.4,1.1,6.5.2.7.5,1.1.9,1.6"/>
      <path class="g" d="M383.9,138.5c1.9-1.9,4-3.4,6.5-4.5,1.6-.7,2.8-1.8,4.3-2.6,1.4-.7,2.4-.4,3.4.9.1.2.2.5.4.5,3.9.9,6.5,4.2,10.4,5.3,3.1.8,6.2,1.7,9.5,1.6,6.6-.1,11.2.8,16.9,4,2.1,1.2,3.5,4.7,4.2,7.1.6,2.6,1,5,.9,7.6"/>
      <path class="g" d="M428,234c.7.6.6,1.4.5,2.2-.4,3.7.2,7.4,1.5,10.7,1.4,3.6,2.1,7.5,3.5,11.1,1.2,2.8,1.7,6,2.4,9,.6,2.3,1,4.7,1.6,7,.8,2.7,1.2,5.5,1.8,8.3.5,2.5,0,4.9-.5,7.2-.3,1.4-1.6,2-3,2.4-1,.2-.8-1-1.4-1.3"/>
      <path class="g" d="M377,158.6c.8-.8,1.7-1.6,2.8-2,.5.7.4,1.5.2,2.2-1.1,4.1-1.5,8.4-2.4,12.6-.7,3.5-.7,7.1-.6,10.6.1,4,.1,8.1.1,12.1-.1,6.2.5,12.4.3,18.5-.1,1.7,0,3.4,0,5,0,.7-.1,1.5.9,1.6"/>
      <path class="g" d="M97.5,171.5c.6,1.3-.4,2.5-.4,3.8.1,2.5-.5,5-1.1,7.4-1.2,4.6-2,9.3-2.9,14-.9,5.1-1.5,10.3-2.4,15.5-.6,3.6-.8,7.3-1.2,11-.5,5.1-1.6,10.1-2.7,15.1-.8,3.5-2.1,6.9-2.4,10.4-.5,4.9-1.7,9.7-2.6,14.5-.8,4.6-1.5,9.1-2.4,13.7-1,4.6-1.7,9.2-2.6,13.9-.3,1.9-.9,3.8-1.2,5.8-.3,2.5-.6,4.9-.9,7.4-.3,1.8-.6,3.6-1.1,5.4-.4,1.5-.5,3.1-.5,4.7"/>
      <path class="g" d="M387.2,106.3c-.6-.9-.8-2.1-.8-3.1,0-1.6-1-2-2-2.1-2.4-.3-4.8-1-7.2-.2-2.1.7-4.3,1-6.3,1.8-4.7,1.9-9.7,2.7-14.6,3.9-3.6.9-7.3,1.8-11,2.5-2.1.4-4.1,1.2-6.2,1.2-.6.8.3,1.6-.2,2.2"/>
      <path class="g" d="M375,160.8c-.1,3.2-.5,6.3-1.2,9.4-1.1,4.6-2.1,9.3-2.1,14,0,3.8-.4,7.4-.7,11.1-.2,2.5.1,4.9-.3,7.4-.5,2.7-.5,5.4-.3,8.1.2,1.9.3,3.7-.2,5.6"/>
      <path class="g" d="M467.4,161.6c.5,1.2.3,2.5.4,3.8.2,2.8.6,5.5.5,8.3,0,1.3.1,2.5.3,3.8.2,1.8.4,3.8-.3,5.6-1,2.7-.4,5.4-.5,8.1,0,.8.1,1.7.1,2.5-.2,5.6.3,11.1.5,16.7.1,4.7-.1,9.5.1,14.2.3,5.6.5,11.3.8,16.9.2,2.7-.1,5.4-.1,8.1,0,2.5-.2,4.9.1,7.4.3,2.2.1,4.5.2,6.8.1,3.3.3,6.6.5,9.9.6,8.3,2.5,16.5,1.9,24.8-.3,4.2.3,8.4,0,12.6"/>
      <path class="g" d="M264.8,151.8c1.2.9,2.4,1.8,3.6,2.8,2.4,1.9,5.4,2.3,8.1,3.1,3.4,1,6.7,2.3,10.2,2.7,1.5.2,3,.4,4.5.5,3.3.2,6.4,1.4,9.7,1.6,2.1.1,4,1,6.1.7"/>
      <path class="g" d="M361.1,79c.6.7,1.4.4,2,.3,3.6-.4,6.7,1,9.7,2.6.9.5,1.8,1,2.7,1.6,3.4,2.1,5.4,5.3,6.7,9,.5,1.6,1.2,3.2,1.1,5,0,1.2.6,2.3,2.1,2.3.8,0,1.6.4,2.3.6,1.7.7,2.1,2.9.7,4.7-.8,1.1-1.4,2.4-2.5,3.3"/>
      <path class="g" d="M184.6,202.9c-1.9-1.1-3.7-.6-5.4.4-3.2,1.9-3.3,5.1-3,8.2.2,2,.9,4.1,2.2,5.8,1.1,1.4.6,3.2.5,4.8-.1,3.3,3.3,8.4,7.5,9.3,1.3.3,2.8.2,4.1.2h13.3c2.6,0,5.4-1.1,6.7-2.6-.7-.8-1.7-.4-2.6-.5"/>
      <path class="g" d="M417.5,159.8c-.9,1.5-.1,3,.2,4.5.6,2.8.5,5.6.2,8.3-.2,2.3-.4,4.4,0,6.7.3,1.6.4,3.4,0,5-.9,3.4.2,6.2,1.8,9,.6,1,.5,1.6.1,2.4-.9,1.6-1.1,3.3-.5,5.1.5,1.6.8,3.1-.7,4.5-.6.6-.9,1.6-.9,2.5,0,1.4-.4,2.1-1.7,2.5-.4.1-.9.4-1.1.7-1.3,2.4-3.8,2.6-6,3-2.1.4-4,1.1-5.5,2.6-.6.6-1.2.6-1.8.5-2-.2-4.1-.3-5.7,1.1-1.6,1.4-3.1.4-4.7.4-1,0-2.1-.5-2.9.7"/>
      <path class="g" d="M263,223.6c-1.6,4.4-4.1,8.4-6.1,12.6-2.3,4.7-5.4,9-8.3,13.3-1.8,2.7-3.6,5.4-5.7,8-1.4,1.7-1.8,4-3.3,5.7"/>
      <path class="g" d="M247.7,190.3c.6-.8,1.2-.3,1.8,0,2.4,1.3,4.6,2.8,7,4.2,4,2.3,6.5,4,10.9,5.6,2.2,1.2,3.9,3.1,3.7,6.1-.3,3.4-1.9,5-3.2,8.1-.9,2-4.2,7.3-4.8,9.4"/>
      <path class="g" d="M369.2,230.4c-.6.3-1.1.6-1.8.6-3.8-.3-7.3-.1-10.8.8-.9.2-1.4.7-1.2,2,.2,1.1.6,1.7,1.7,1.6,3.6-.4,7.2.9,10.8,1.4,1.2.1,2.6.3,3.3,1.6"/>
      <path class="g" d="M432.3,291.7c1.6,0,1.9-1.4,2.5-2.4.3-.6-.2-1-1-1.3-1.8-.5-3.8-1-5.4-.5-2.8.8-5.7.7-8.5,1.5-6.3,1.8-12.8,2.5-19.4,2.4-4.3-.1-8.5.3-12.8.3-2.8,0-5.7,0-8.3-1.4-2.7-1.4-4.9-3.2-5.8-6.3-.2-.9-.6-1.9-1.4-2.5"/>
      <path class="g" d="M271.7,230.4c.3,3,1.3,5.9,1.5,9,.3,4.6,1.3,9,1.1,13.7-.1,2.8.8,5.6.7,8.5,0,.7.1,1.4.1,2.2-.1,2.6.5,3.8,2.9,4.5,2.2.6,4.5,1.1,6.8,1.5,4,.7,7.9,2,11.7,3.2,2.5.8,5,1.9,7.4,3.1,1.1.6,2.2.7,3.4.7"/>
      <path class="g" d="M39.3,172.3c-.2.5-.6,1-.5,1.6,0,4.1-.9,8-1.2,12.1-.3,4.4-.6,8.8-.9,13.1-.2,2.8-.7,5.5-.9,8.3-.3,4.4-1.4,8.7-1.7,13.1-.2,3-.5,6-1.1,9-.8,4.2-1.8,8.4-1.8,12.8,0,3.8-1.1,7.5-1.5,11.3-.2,1.6.1,3.3-.5,4.9-.1.4-.2.7-.6.9"/>
      <path class="g" d="M228,164.1c1.4,0,2,.6,1.6,2,0,.2-.1.4,0,.5.8,1.9.7,3.9-.2,5.8-.2.3-.1.9,0,1.2.8,2.4.3,5,1,7.4.1.4.3,1-.4,1.5-2.8-1-6.2-1-9.1-2.6-.9-.5-1.8.1-2.5.4-1.5.8-2.9,1.8-4,3.2-2.4,3.1-4.4,6.4-6.5,9.7-1.7,2.6-3.6,5.1-5.2,7.8-2.2,3.8-3.5,5.6-4.8,9.9-1.3,0-2.7.7-3.1-.6-.4-1.3.9-2.1,1.7-3.1.7,1,1.8.3,2.5.8"/>
      <path class="g" d="M220.1,94.2c-2.9-.1-4.9.8-6.6,2.1-1.9,1.8-2.4,3.6-1.9,6.1.2,1.3,1.5,2.6,2.4,3.7,2.8,3.1,6.7,6,8.7,6.8,4,1.9,6.4,3,10.1,3.9.4.1.8.2,1.3.3,1.7.3,3.3.6,4.2,2.5,1,2,2.5,1.9,3.7,0"/>
      <path class="g" d="M374.7,161.5c-1-.3-1.8.4-2.7.7-3.8,1.5-7.8,1.5-11.7,1.9-6.3.6-12.6.7-18.9.7-2.8,0-5.6-.5-8.5-.1-.6.1-1.3-.1-1.8.6"/>
      <path class="g" d="M257.9,120.3c4.2-.4,8.3-1,11.9-3.6,1.1-.8,1.9-1.6,2.3-2.8.8-2-.6-4.9-2.9-5.3-1.9-.4-3.5-1.9-5.4-1.4-.7-.4-.7-1-.7-1.5"/>
      <path class="g" d="M211.1,106.2c-1.5.5-2.5-.4-3.6-1.1-1.9-1.2-3.8-2.2-6.1-2.6-2.1-.4-3.7.3-5,1.3-4,3-6.4,7.6-10.3,14-.5.9-2.6,4.5-2.8,5.6"/>
      <path class="g" d="M164.8,155.2c.9,1.3,2.4,1.2,3.6,1.6,4.4,1.4,8.4,3.6,12,6.4.6.4,1.1.9,1.8,1.2,2.5,1.1,3.2,3.3,3.4,5.8"/>
      <path class="g" d="M361.3,77.7c-.2,1-.7,1.6-1.8,1.4-.2,0-.6.2-.6-.4,0-1.8-1.2-1.6-2.3-1.3-1.4.4-2.9.7-4.3,1.1-2.5.6-2.7.9-2.1,3.6-3,.9-5.2,2.9-6.9,5.4-2.4,3.7-4.8,7.3-5.1,12-.1,2.2.5,4.2.3,6.3-.1,1.2,0,2.2-1.4,2.8-1,.4-1.9,1.3-2.2,2.4.8,1.1,2.8,1.7,6,1.9"/>
      <path class="g" d="M253.5,147.6c1.4,1.1.7,2.9,1.2,4.3,1.1,3.3,2.1,6.6,2.5,10.1.2,2,.1,4,.2,5.9.1,2,.7,2.5,2.7,2.4,1.5-.1,3-.4,4.5-.8"/>
      <path class="g" d="M213.8,222.8c-1.2-.6-2.4-.4-3.6,0-3.1,1-6.2.9-9.4,1-3.5.1-7.2-.8-10.6.6"/>
      <path class="g" d="M350.8,125.4c-1,1-.83,2.35-.03,3.65.85,1.72,1.95,3,2.75,4.6,1.5,3,3.06,4.78,5.46,7.08,1.2,1.2,2.92,1.98,4.52,2.88,0,0-.1,2-.3,2.4-.2.5-.7.6-1.2.6-1.3,0-2.7-.4-3.6,1.2-.1,1.2.9,2.3,1.5,3.4"/>
      <path class="g" d="M259.5,170.8c-.2,2.9-.5,5.9-.7,8.8-.3,4.6-.8,9.2-.5,13.9"/>
      <path class="g" d="M398.3,134.1c-2,3.9-4.4,7.4-7.1,10.7s-5,6.7-6.2,10.7c-1,3.4-2.9,6.6-3.2,10.2-.1.8.1,1.4.2,2.2"/>
      <path class="g" d="M251.9,151.8c1.3.6,1.9,2.4.9,3.7-.9,1.1-1.1,2.6-2.2,3.6,2.1,3,1.9,6,.2,9.1-.8,1.4-1.3,3.1-.4,4.9.2.5.2,1.3,0,1.8-1,2.4-.5,5-1.2,7.4-.7,2.2-.5,4.6-.5,6.8,0,.3-.1.6-.2.9"/>
      <path class="g" d="M146.1,171.7c-1.2-1.8-3.2-1.1-4.7-1-2.3.2-4.6.1-6.9,0-3.1-.1-6.2.3-9.4.5-6.4.4-12.8,1.6-19.3.6-.9-.1-1.8.1-2.7.3-1.8.4-3.5,0-5.2,0"/>
      <path class="g" d="M4.1,155.4c5.7,1.9,10.8,5.1,16.2,7.6,2.7,1.2,5.7,1.9,8.3,3.4,3.3,2,6.9,3.4,10.4,5.2.5.3,1.1.4,1.7.7"/>
      <path class="g" d="M183.9,158.2c-.1-1.7-1.5-2.4-2.7-3-2.5-1.3-5.3-1.4-8.1-1.2s-5.6.2-8.3,1.1c-.6.2-1.1-.2-1.4-.4-.7-.5-1.5-.6-2.2-1"/>
      <path class="g" d="M197.4,212.2c1.4.9,3,1.1,4.5,1,3.2-.1,6.3.4,9.4,1.3,1.2.3,1.9.9,2.4,2-.6,1.1-2.1,0-2.6,1.1"/>
      <path class="g" d="M371.1,218.9c1-.5,2.2-.2,3,.2,1.6.9,3.4,1.4,5.1,1.9.5.2,1.1.3,1.4.1,1.9-.9,4-.6,5.9-1.3.7-.2,1.2,0,1.6.2,2.7,2,4.4,4.5,5.3,7.9.9,3.5-.2,6.6-.6,9.9-.1.5-.9.6-.5,1.3"/>
      <path class="g" d="M468.3,161.1c-2.1.4-4.1-.2-6.1-.4-3.4-.4-6.8-.7-10.3-1.1-3.2-.4-6.4-.1-9.5.1"/>
      <path class="g" d="M230.7,182.6c2,1.4,4.4,2.2,6.7,2.8,3,.8,5.7,2.2,8.6,3.2,1,.4,2.4,0,3.1,1.2"/>
      <path class="g" d="M390,145.6c-.1-.1-.3-.2-.4-.4-.5-3.1-2.5-4.4-5.2-5.3-.9-.3-1.5-.3-2.2.2-4,3.2-7.2,7-9.8,11.5-.6,1-.5,2.1-1.1,3.1"/>
      <path class="g" d="M188.9,216.5c4.6.4,9.2.8,13.9,1.3,2.1.2,4.1.4,6.1-.1.8-.2,1.4.1,2,.3.8.4,1.6.8,2.6.8,1.1,0,1.7.4,2.2,1.4.6,1.4-.9,1.3-1.3,2"/>
      <path class="g" d="M362.9,150c-1.4-.1-2.4,1-3.5,1.6-1.8.9-3.7,1.5-5.4,2.4-2.5,1.2-4.8,2.7-6.9,4.6-.9.9-1.8,1.9-2.9,2.5-.4.2-.5.6-.4,1.1"/>
      <path class="g" d="M385,108.3c1.3.3,1.8,1.2,1.2,2.3-.7,1.5-.9,3.3-1.9,4.7-.2.3-.2.8-.2,1.2.6,3.3,1,6.7,2.3,9.9.6,1.4.6,3,1.9,4.2.5.5.9.6,1.5.7"/>
      <path class="g" d="M257.7,118.7c.4,4.3-.9,8.2-2.8,12.1-1.2,2.5-2.2,5.3-1.5,8.2,0,.2-.1.4-.2.5"/>
      <path class="g" d="M214.1,223c.9.8,2.4.8,3.1,1.9-.4,2.1-2.3,2-3.7,2.3-2.6.6-5.3.6-7.9,1.2-2.9.7-5.8-.2-8.7-.1-1.5.1-3.1-.7-4.5.4-.3.2-.9-.1-1.4-.1"/>
      <path class="g" d="M528.2,122.2c-.3,2.1.2,4.2.4,6.3.1.9.2,1.8.3,2.7.1,1.3.9,1.8,2.2,1.6,3.4-.4,6.8-.5,10.1.7.4.1.8.5,1.2,0"/>
      <path class="g" d="M374,225.6c.1-1.2-.8-1.3-1.6-1.4-2.6-.6-5.2-.2-7.7-.5s-4.9.2-7.2,1.2c-.9.4-1.7.6-1.6,1.8.1,1.3.9,1.7,2,1.8,2.8.2,5.6.8,8.5.7.5,0,1.2-.3,1.6.2,1.4,1.5,3.4,1.1,5.1,1.9.4.2,1.5.4,1.6-.7"/>
      <path class="g" d="M235.5,151.4c.5,3.3,1.3,6.5,2.6,9.5.6,1.5.5,3.1,1.4,4.5"/>
      <path class="g" d="M168.4,172.3c1.4,2,2.7,4.1,5.2,5.3,2.8,1.3,4.4,3.9,4.7,7.1"/>
      <path class="g" d="M240.9,109.3c-.2-2.4-2.1-2.8-3.8-3.2-1.3-.3-2.7-.7-4.1-.2-.1,0-.3.2-.4.2-1-.6-1.8-.6-2.3.6-.3.6.9,2.4,1.8,2.7,2.4.7,4.8.9,7.2.5,2.2-.3,4.3.1,6.5.1,2.9,0,5.9.4,8.8.7.2,0,.4-.1.5-.2,2.6-1.1,5.5-1.4,7.9-3.1"/>
      <path class="g" d="M521.4,110.7c1.8.6,3.7,1.2,5.8,1.9-.1,1.2.4,2.6.3,3.8-.1,1.6.8,3.1.5,4.7-.1.6.3.9.9.9,3.4.2,6.2,1.8,9,3.6"/>
      <path class="g" d="M222.8,93.7c-2.2-.1-2.4,0-2.7,2-.1.9-.6,1.7-.9,2.5-.5,1.2-.5,2.3.5,3.4,2.8,3.3,6.4,4.6,10.5,5.2"/>
      <path class="g" d="M245.4,148.6c-.1.1-.1.3-.2.4-2.8,1.5-3.1,4.4-3.5,7-.4,2.4-.4,5-1.1,7.3-1.1,3.8-.2,7.5-.6,11.2-.1.7.2,1.4.3,2.2"/>
      <path class="g" d="M370.4,130.1c-.6-.4-1.3-.8-1.8-1.3-1.8-1.8-5.63-1.81-7.04-.88-.8.6-1.73,1.7-2.61,2.1-.77.36-1.15,1.08-1.25,1.68-.1,1.3-.4,1.7.3,2.9"/>
      <path class="g" d="M177,170.6c4.4.9,5.6,6.9,4.7,9.9"/>
      <path class="g" d="M251.4,139.3c0,1.4.1,2.8.9,4.2,1.1,1.8.5,3.8.2,5.7-.1.8,0,1.6,0,2.3"/>
      <path class="g" d="M234.6,130.5c-1.5-.1-2-.8-1.8-2.3.1-1.3-1.1-4.2-2.3-5.8-.4.1-.8.1-1.3.2"/>
      <path class="g" d="M369.9,237.6c-1.3,2.6-.8,3,1.7,4.6,1.7,1.1,3,1.1,4.6.8"/>
      <path class="g" d="M199.7,204.6c-1.8-.5-3.6-1.1-5.4-1.7-2.5-.9-5.1-1-7.6.4-.8.5-2.1.3-2.5,1.5"/>
      <path class="g" d="M369,111.4c-5.2-1.2-8.6,1-10.9,3.6-.2.2-1.3,1.5-1.4,1.6"/>
      <path class="g" d="M261.8,5.1c1.3,1.3,1.2,3.3,2,4.9s1.3,3.2,2,4.8"/>
      <path class="g" d="M264.3,221.1c3.1,1.4,6.3,2.7,9.4,4.1,1.8.9,3.7.2,5.6.3.9,0,1.2-1,.7-1.9-.3-.5-.7-1-1.1-1.4"/>
      <path class="g" d="M253,120.6c-.9-1.1-2.1-.3-3.1-.5-2-.3-3.9-.7-5.9-.6-1.1.1-2.3-.1-3.2-.8s-2-1.2-3.2-.6"/>
      <path class="g" d="M265.9,217.8c1.6.2,2.7,1.5,4.1,2,1.9.7,4,.9,6,1.1,1,.1,1.6.5,2.3.8"/>
      <path class="g" d="M244.4,174.2c.5.2.9.4,1.4.5,1,.2,1.1.8,1.1,1.8.1,2.1.1,4.2-.1,6.3-.1.7.1,1.4-.4,2"/>
      <path class="g" d="M275.1,226c0,2.6-1.3,3.4-4.3,2.9-2-.4-3.9-1-5.9-1.1-.7,0-.8-.6-1.3-.9"/>
      <path class="g" d="M374.9,220.6c-1.1,1.4-2.9,1-3.9.6-2.6-1.1-5.2-.1-7.8-.4-.4,0-1.9.2-1.2,1.5"/>
      <path class="g" d="M340.6,110.6c.6,3.3,2.2,6.1,4.3,8.7,1,1.3,1.7,2.9,2.1,4.6,1.07,1.6,1.82,2.77,3,2.7"/>
      <path class="g" d="M271.1,210.6c1.9,1.4,4.3,1.9,5.6,4.1.2.9-.9,1.1-1.1,1.8"/>
      <path class="g" d="M237.2,180.9c-.7-1.6-.4-3.2-.7-4.9s-1.2-2.6-3.1-2.7"/>
      <path class="g" d="M242.69,133.76s1.51.04,2.21.04c2.1.4,3.76.48,5.2,1"/>
      <path class="g" d="M183.3,194.2c.6.8,1.4.2,2.2.4,3.9,1.2,4.1,4.7,5.2,7.6"/>
      <path class="g" d="M235.8,131c0,2.2.1,4.4,1.3,6.3.6,1,1.4,1.7,2.7,1.6.4,0,.9.1.9.4-.2,1.5,1.5,1.2,1.9,2.1.2.6.9.6,1.4.2.4-.3.9-.2,1.3-.1,1.9.4,2.9-.6,3.6-2.2"/>
      <path class="g" d="M367.3,130.6c-1.4.9-2.4,1.3-3.9,1.9-.9.4-2.3,1.5-2.7,2.3"/>
      <path class="g" d="M243.8,129.9c-1.1,0-1.9.5-2.7,1.1-1.4,1.1-4,4.9-4,6.7"/>
      <path class="g" d="M277.9,223.4c-.1-1.1.6-2,1.5-2.1,1.5-.2,1.8-1.1,1.6-2.2-.3-1.1-1.3-1.3-2.3-1.1"/>
      <path class="g" d="M245.8,164.3c.5,2.1.9,4.2.2,6.3"/>
      <path class="g" d="M277.1,3.9c3.5.8,6.6,2.3,9.7,4"/>
      <path class="g" d="M251.8,129.3c.1-.3-2.4-.6-2.7,1.7,2.6.4,4.5,1.4,3.3,3.4,1.3,1.5.3,2,1.1,1.5"/>
      <path class="g" d="M175.8,176.9c1.3.7,2.5,1.5,3.8,2.1,2.2,1.1,3,3,3.2,5.2.2,2.1.3,4.2.4,6.3,0,.2-.2.4-.3.5"/>
      <path class="g" d="M180.5,189.5c.3,1.7,2.1,1.6,3.1,2.4,1.8,1.4,2.7,2.9,2.4,5.1"/>
      <path class="g" d="M369.3,134.7c-.9,1.2-2.1,1.8-3.4,2.3-.7.3-1.2.5-.7,1.3"/>
      <path class="g" d="M371.5,155.2c-.8-.5-1.7-.6-2.5-1.2-.9-.8-2-.4-3,0"/>
      <path class="g" d="M242.2,178.6c.9-.4,1.4.2,2,.8-.7,1.6.2,3.5-.6,5.2"/>
      <path class="g" d="M244.5,126.4c-1.2,0-2.8,1.1-1.8,2.1"/>
      <path class="g" d="M177.8,184.9c1.4.2,2.6.5,3.3,2,.3.5.8,1.2,1.6,1.3"/>
      <path class="g" d="M405.3,53.3c1,1.6,3,1.4,4.3,2.5"/>
      <path class="g" d="M269.7,215.7c3,.4,5.6,2,8.5,1.8.4,1.1-.2,1.4-.6,1.8"/>
      <path class="g" d="M187.1,122.1c-2,.8-3.9,1.6-6.1,1.5-.3,0-.8.3-.7.9"/>
      <path class="g" d="M244,169.9c-.6.9-.3,1.9-.2,2.9.1,1.9.4,3.9-.3,5.8"/>
      <path class="g" d="M182.1,195.6c-.1.1.2.4-.2.4-1.6-.1-3.1,0-4.5.7"/>
      <path class="g" d="M248.4,130.3c-.7.3-1.2.3-2.1,0-.5-.2-1.2-.9-1.8-.9"/>
      <path class="g" d="M346.5,122c.4-.2,1-.4,1.2-.7,1.3-2.1,3.4-1.4,5.2-1.4,1.4.1,1,1.2.7,2.1"/>
      <path class="g" d="M352.7,123.5c.1-.8,1.2-1.1,1.2-1.1-.6-.4-1.3-.4-2.4,0-.7.4-1.3,1-1.5,1.5-.7,1.1-.2,1.8,1.7.6,1.3-1.1,3.3,0,3.7,1.8.1.5.2,1.6.3,2"/>
      <path class="g" d="M231.9,168.3c-.4.6.1,1.1.1,1.6.4,2.3,1.7,4.5.9,7"/>
      <path class="g" d="M235.4,165.8c-1.9.1-3.3-1.1-4.4-2.2-1-1-2-1.5-3.3-1.6"/>
      <path class="g" d="M364.1,125.5c-.4-1.6-1.8-1.6-3.1-.8"/>
      <path class="g" d="M230.3,176.6c.6,0,1.2-.1,1.6.4-.6,1.4.2,2.6.8,3.8.2.5.9.3,1.4,0-.8-1.2.9-3.7-2-3.8"/>
      <path class="g" d="M230,166.5c1.7.5,2.6,2.1,4.1,2.9.6.3,1.2.9,1.4-.4"/>
      <path class="g" d="M243.3,164.3c.1.8-.1,1.6.1,2.4.2.6.2,1.5-.9,1.6"/>
      <path class="g" d="M370,215.7c-.2.8-.4,1.6.4,2.3s.5,1.6.5,2.5"/>
      <path class="g" d="M243.1,168.5c.6.4.9,1.2,1.6,1.6,2.1,1.2,2.3,1.9,1.6,4.6"/>
      <path class="g" d="M239.1,150.6c1.2-.7,2.2.5,3.4.4"/>
      <path class="g" d="M249.6,172.3c-1,.3-1.7-.7-2.7-.7"/>
      <path class="g" d="M352.7,123.5c.4.8-.1.8,0,1.6"/>
      <path class="g" d="M236.4,179.3c-.5.1-.9-.2-1.1-.6-.3-.6-.7-.8-1.3-.7"/>
      <path class="g" d="M264.4,227.9c-.4,1.1-1.5,2-.9,3.4"/>
      <path class="g" d="M229.2,162.7c-.1.8-.2,1.6-.4,2.3"/>
      <path class="g" d="M244.2,137.7c1.4-.3,2.6.7,4,.4"/>
      <path class="g" d="M395.3,129.8c.1.7.1,1.4.2,2.2"/>
      <path class="g" d="M265,230.9c.6.4,1.6.5,1.8,1.4"/>
      <path class="g" d="M249.4,176.8c-.7-.3-1.4-.6-2.2-.9"/>
      <path class="g" d="M233.7,145.2c.9.6,0,1.4.3,2.2.7,1.4,1.9,2,3.4,2.1"/>
      <path class="g" d="M231.4,164.5c-.5.6.2,1.5-.4,2.2"/>
      <path class="g" d="M449.6,159.7c.1.7.1,1.4.2,2.2"/>
      <path class="g" d="M41,172.3c-.9.4.2.7,0,1.1"/>
      <path class="g" d="M265.9,150.4s2.1-2.5,4.8-3c2.2-.4,4.3-.7,8.5-.2s7.3.8,10.1,1.5c2.5.7,6.8,1.7,6.8,1.7,0,0-1.1,2.8-1.6,3.9-.5,1.1-1.5,5.4-1.5,5.4"/>
      <path class="g" d="M366.1,114.5s-4,1.1-4.8,1.6-2.2,1.5-2.5,1.8c-.3.4-.5,1.3,0,1.3.5.1,1.9-.8,2.3-1.1s.9-.7,1.6-1.3c.7-.5,1.4-1.1,1.4-1.1"/>
      <path class="g" d="M151,250s1.7,5.4,2.9,7.5,5.7,6.6,7,7.6,6.5,5.6,7.4,6.8,6.7,7,7.4,8,4.3,5.1,6.2,7.2,4.8,7,5.1,7.6.1,4.1-.1,4.9-2.3,1.7-.9,3.9c1.3,2.1,0,5.4,0,5.4"/>
      <path class="g" d="M215,256.2s6.4,16.3,7,17.9,4.9,9.5,4.1,12.6c-.8,3.1-1.7,14.2-1.7,15.5s.6,6.6.6,6.6"/>
      <path class="g" d="M170.3,279.5s-1.5,4.5-1.1,5.3-.7,9.3-.7,9.3c0,0,.3,10.5,0,11.7s-.8,4.3-.8,4.3"/>
      <path class="g" d="M311.6,274.7s-10.7,6.9-13.3,8.5-12,8.1-14.3,9.6-9.1,5.3-9.1,5.3c0,0-3.5,3-4.7,4.7s-1.7,6-1.7,6"/>
      <path class="g" d="M338.1,308.9s5.5-2.2,10.8-5.2,9-5.8,11.1-4.6c2.1,1.2,7.6,2.6,8.1,4.8.5,2.1,3.1,6.2,3.1,6.2"/>
      <path class="g" d="M417.9,291.9s.5,7.4,0,9.6c-.5,2.1-1.4,7.4-1.4,7.4"/>
    </g>
  </g>
  <g id="d" data-name="roof mods">
    <path class="i" d="M38.45,166.83c-8.71-4.46-19.13-8.5-27.05-13.53"/>
    <path class="i" d="M39.8,163.1c-1.73-1.33-4.67-1.75-6.7-2.62s-3.71-2.09-5.66-3.01c-4.53-2.15-9.58-5.15-14.4-6.39"/>
    <path class="i" d="M39.41,158.83c-2.33-1.29-4.92-2.06-7.39-3.05-2.07-.82-3.97-2.02-5.98-3.01-2.6-1.28-5.33-2.69-7.97-3.64"/>
    <path class="i" d="M40.77,154.37c-3.26-1.37-6.97-1.71-10.02-3.1-2.2-1.01-7.22-2.18-8.6-4.27"/>
    <path class="i" d="M41.74,150.1c-2.28.04-5.65-2.26-7.9-3.05-2.05-.72-4.26-1.58-6.26-2.19"/>
    <path class="i" d="M41.55,146.42c-3.42-1.07-7.32-2.09-10.28-3.88"/>
    <path class="i" d="M45.43,144.28c-1.61-.83-3.52-.66-5.17-1.15-1.95-.58-3.7-1.85-5.69-2.15"/>
    <path class="i" d="M48.92,142.15c-3.75-.93-7.29-1.9-10.86-3.3"/>
    <path class="i" d="M51.83,139.44c-1.78-.09-3.84-1.37-5.63-1.74s-3.59-.97-5.43-1.36"/>
    <path class="i" d="M55.12,137.11c-.99-.77-4.02-1.47-5.43-1.99s-2.92-.53-4.27-.92"/>
    <path class="i" d="M59.39,135.75c-1.82-.77-3.79-.92-5.63-1.55s-3.56-1.6-5.43-2.14"/>
    <path class="i" d="M61.91,133.62c-3.63-.39-6.74-1.93-10.09-3.1"/>
    <path class="i" d="M65.11,131.76c-2.92-1.2-7.17-1.08-9.67-2.97"/>
    <path class="i" d="M68.83,129.72c-2.83-.94-5.59-1.56-8.36-2.79"/>
    <path class="i" d="M72.92,128.23c-2.47-.92-7.15-1.01-9.11-2.6"/>
    <path class="i" d="M75.34,126.56c-2.56-1.52-6.29-1.25-8.92-2.6"/>
    <path class="i" d="M79.61,124.88c-3.27.04-7.24-1.78-10.22-2.97"/>
    <path class="i" d="M83.52,123.4c-2.86-.79-7.49-2.1-9.85-3.9"/>
    <path class="i" d="M86.12,121.35c-3.47-1.03-6.96-1.51-10.22-3.16"/>
    <path class="i" d="M90.02,119.68c-3.27-1.08-8-1.06-10.78-3.16"/>
    <path class="i" d="M93.55,117.63c-3.13-1.35-7.33-1.64-10.04-3.72"/>
    <path class="i" d="M96.15,115.4c-3.24-.72-6.93-1.68-9.85-3.16"/>
    <path class="i" d="M90.72,110.7c1.95,1.79,5.84,2.01,8.25,3.62"/>
    <path class="i" d="M93.74,109.29c2.75,1.16,6.07,1.64,8.66,3.02"/>
    <path class="i" d="M96.56,107.08c3.07,1.57,6.75,1.98,9.86,3.62"/>
    <path class="i" d="M99.38,104.86c1.95.98,4.19,1.48,6.17,2.39,1.09.5,2.68,1.21,3.9,1.43"/>
    <path class="i" d="M115.28,106.47c-3.91.07-9.41-1.22-12.68-3.22"/>
    <path class="i" d="M118.3,105.06c-1.87-1.15-4.4-1.19-6.46-1.6-1.85-.37-3.55-1.24-5.42-1.62"/>
    <path class="i" d="M121.72,103.05c-1.92-.91-4.15-1.07-6.15-1.91-1.6-.68-3.11-1.13-4.72-1.71"/>
    <path class="j" d="M526.17,113.83s-16.75-4.94-19.02-6.99-15.39-6.32-15.39-6.32c0,0-10.55-3.69-14.95-6.34s-25.52-9.88-25.52-9.88c0,0-16.62-4.38-19.5-5.31s-11.8-5.03-11.8-5.03l-17.09-8.91-23.67-8.67-27.28-9.63-15.52-4.33-13.73-5.54-19.02-6.98-8.87-4.06-10.39-2.75-7.3-4.75-7.7-3.55,2.3,4.51,1.6,2.48s3.47,1.41,4.42,1.98,6.13,2.26,6.69,2.73,7.16,2.36,7.92,2.73,5.66,1.89,6.6,2.26,5.56,1.51,6.22,1.89,5.09,3.11,5.75,3.21,1.23.28,2.17.66,1.7.38,2.55.85,4.62,1.13,5.56,1.51,3.68.75,4.71,1.23,4.15,2.26,5.75,2.73,3.68,1.41,5.18,1.89,8.96,3.39,8.96,3.39l6.32.94,2.35,1.43,4.48,1.97,3.45.84,2.83,1.13s1.89.57,3.11,1.23,4.15,2.26,4.9,2.36,2.21,1.86,3.1,2.23,3.78.6,4.54.79,4.71,1.58,5.66,1.54,4.05,1.29,4.62,1.57,3.21,2.17,3.96,2.55,6.32,2.26,6.98,2.45,4.57,1.13,5.39,1.51,4.32,2.07,5.54,2.45,10.76,3.69,12.1,4.93,10.3,4.72,11.25,5.56,12.39,3.32,14.49,4.08,11.06,4.71,11.82,5.31,1.56-.79,3.24,1.35.8,1.8,3.65,2.87,11.61,3.62,11.61,3.62c0,0,2.86,1.6,3.81,1.85s6.85,2.55,6.86,3.11,3.81,0,5.91.95,5.72,2.66,6.86,3.14,4.39.87,6.1,2.3,4,2.38,5.72,2.76,3.64,2.5,4.97,2.49,4.2.98,4.77,1.06-1.33-1.09,0-2.35,0-3.02,0-3.02Z"/>
    <path class="i" d="M113.9,98.2c3.32,1.28,7.01,2.59,10.52,3.42"/>
    <path class="i" d="M116.23,96.37c.78-.05,1.84.7,2.62.96.86.29,1.61.73,2.42.96,1.14.33,1.68.42,2.64,1.1.79.57,1.38.37,2.1.88"/>
    <path class="i" d="M118.92,94.29c1.74.96,3.62,1.44,5.38,2.26,1.62.76,3.03,1.89,4.77,2.26"/>
    <path class="i" d="M122.59,92.7c1.25,1.17,2.85,1.71,4.28,2.54,1.3.75,2.61,1.39,4.03,1.99"/>
    <path class="i" d="M135.06,96.49c-1.74-.44-3.26-1.82-4.94-2.45-1.54-.58-4.57-.97-5.34-2.69"/>
    <path class="i" d="M127.6,89.76c1.28,1.21,2.98,1.74,4.5,2.6,1.34.76,2.62,1.52,3.94,2.17"/>
    <path class="i" d="M130.41,88.78c2.61,1.85,5.8,3.09,8.44,4.77"/>
    <path class="i" d="M140.81,92.21c-1.49-.15-3.25-1.37-4.49-2.09-1.69-.98-3.11-1.89-4.68-2.93"/>
    <path class="i" d="M134.69,86.71c1.32.95,3.12,1.1,4.45,1.95.6.38,1.02.95,1.59,1.35s1.29.71,1.9,1.09"/>
    <path class="i" d="M137.75,84.5c.52,1.12,3.14,2.23,4.23,2.93,1.57,1.01,3.3,2.12,5.06,2.94"/>
    <path class="i" d="M148.14,87.93c-2.52-1.54-5.88-2.37-8.32-4.28"/>
    <path class="i" d="M151.32,86.71c-2.55-1.38-6.3-2.06-8.44-4.28"/>
    <path class="i" d="M154.63,85.36c-1.83-.32-3.66-1.32-5.31-2.21-1.43-.76-3.29-1.13-4.47-2.2"/>
    <path class="i" d="M146.55,79.25c1.84,1.17,4.03,1.79,6.04,2.58,1.78.7,4.26,1.13,5.57,2.55"/>
    <path class="i" d="M150.22,77.9c3.23,1.62,6.71,2.63,9.91,4.4"/>
    <path class="i" d="M153.28,76.68c3.11,1.76,6.42,3.06,9.66,4.65"/>
    <path class="i" d="M155.73,75.33c1.3.97,3.21,1.33,4.75,1.99,1.37.59,2.57,1.54,3.94,2.05"/>
    <path class="i" d="M166.98,77.78c-1.6-.01-3.37-.92-4.77-1.62-1.31-.66-4.16-1.36-5.01-2.53"/>
    <path class="i" d="M160.01,72.64c1.28.93,3.48,1.68,4.96,2.31s2.84,1.45,4.34,2.09"/>
    <path class="i" d="M162.58,71.42c2.72,1.83,6.15,3.23,9.05,4.77"/>
    <path class="i" d="M164.65,70.07c.55.5,1.48.72,2.14,1.16s1.38.98,2.08,1.45c1.19.8,2.49,1.48,3.85,2.03"/>
    <path class="i" d="M166.73,68.85c2.74,1.75,5.98,3.03,8.68,5.01"/>
    <path class="i" d="M169.55,67.51c.96.96,2.84,1.9,4,2.72,1.1.77,2.26,1.39,3.46,2.05"/>
    <path class="i" d="M180.19,71.42c-3.26-1.11-6.7-3.18-9.29-5.5"/>
    <path class="i" d="M173.7,65.67c1.76,1.41,4.05,2.47,5.99,3.67"/>
    <path class="i" d="M175.66,64.33c.78,1.23,3.01,2.12,4.25,2.84s2.54,1.41,3.7,2.17"/>
    <path class="i" d="M178.6,64.08c.96.76,2.13,1.37,3.15,1.99s2.6,2.01,3.82,2.17"/>
    <path class="i" d="M180.31,62.49c1.48.83,2.94,1.72,4.41,2.63.93.57,1.72,1.5,2.69,2.02"/>
    <path class="i" d="M182.63,60.66c2.13,2.12,5.19,3.16,7.34,5.26"/>
    <path class="i" d="M184.59,59.8c1.03.26,2.52,1.64,3.45,2.29,1.13.79,2.4,1.59,3.4,2.48"/>
    <path class="i" d="M186.91,58.7c2.43.96,4.34,3.38,6.6,4.77"/>
    <path class="i" d="M189.85,57.48c1.61,1.55,5.38,2.84,5.87,5.14"/>
    <path class="i" d="M191.93,56.13c.44,1.13,2.17,1.72,3.05,2.5.93.82,1.84,1.87,2.69,2.76"/>
    <path class="i" d="M194.37,55.15c.72,1.1,1.65,1.79,2.57,2.67.75.72,1.83,1.56,2.71,2.23"/>
    <path class="i" d="M196.08,54.52c.6.79,1.64,1.56,2.36,2.24.78.73,1.64,1.33,2.51,1.9"/>
    <path class="i" d="M197.79,53.54c.13.7,2.17,1.88,2.76,2.3.8.58,1.48,1.76,2.36,2.16"/>
    <path class="i" d="M198.84,52.57c.62.71,1.55,1.36,2.27,1.95.86.7,2.78,1.32,3.09,2.44"/>
    <path class="i" d="M201.03,51.35c.49.88,1.95,1.63,2.81,2.2.81.54,2.3,1.2,2.71,2.1"/>
    <path class="i" d="M203.22,50.13c.42.84,1.85,1.95,2.65,2.47.71.46,2.46,2.16,3.11,2.15"/>
    <path class="i" d="M205.09,48.99c1.73,1.27,3.68,3.22,5.52,4.38"/>
    <path class="i" d="M207.53,48.67c1.1.69,1.95,1.59,3.03,2.25.92.57,1.32,1.17,2.01,1.89"/>
    <path class="i" d="M208.66,46.72c.71.87,1.72,1.48,2.57,2.19.43.36.8.8,1.23,1.17.74.64,1.88.84,2.53,1.52"/>
    <path class="i" d="M210.94,45.91c.51.46,1.1.69,1.62,1.22.37.38.89.78,1.31,1.05,1.07.7,2.22,1.36,3.16,2.2"/>
    <path class="i" d="M212.97,44.61c.64,1.14,1.79,1.87,2.78,2.66,1.08.86,2.61,1.3,3.39,2.46"/>
    <path class="i" d="M214.02,42.42c.85,1.03,2.2,1.96,3.25,2.76,1.17.9,2.16,1.67,3.09,2.84"/>
    <path class="i" d="M217.27,42.74c1.11,1.27,2.71,2.07,3.94,3.25.43.41,2.05,2.28,2.48,2.03"/>
    <path class="i" d="M219.46,41.12c.66.98,1.58,1.46,2.42,2.22,1.1.99,1.92,2.49,3.26,3.22"/>
    <path class="i" d="M221.25,39.9c.39.51,1.1.87,1.61,1.32.78.71,1.22,1.34,1.8,2.2.54.8,1.12,1.85,1.95,2.4"/>
    <path class="i" d="M223.03,38.44c1.52.91,2.54,2.58,3.75,3.88.68.73,1.32,1.92,2.09,2.46"/>
    <path class="i" d="M266.23,15.3c.49,2.37,3.93,3.53,4.87,5.76"/>
    <path class="i" d="M264.12,16.52c.83,1.14,2.06,1.93,2.92,3.03.63.81,1.09,1.75,1.87,2.4"/>
    <path class="i" d="M261.52,17.74c1.08.99,2.34,1.82,3.41,2.81.86.8,1.33,2.04,2.19,2.79"/>
    <path class="i" d="M259.98,18.47c1.46,2.28,3.58,4.23,5.36,6.25"/>
    <path class="i" d="M258.43,20.17c.7.98,1.85,1.82,2.72,2.68.51.5.99.91,1.3,1.58.25.53.32,1.05.69,1.5"/>
    <path class="i" d="M256.4,20.66c.09.7,1.83,2.09,2.31,2.65.9,1.03,1.43,2.49,2.39,3.44"/>
    <path class="i" d="M254.29,21.39c.77,1.11,1.78,1.98,2.53,3.08.46.67.99,1.24,1.48,1.88.32.41.46,1.19.95,1.38"/>
    <path class="i" d="M252.42,22.85c.76.88,1.63,1.7,2.28,2.66.71,1.07,1.07,2.7,2.19,3.42"/>
    <path class="i" d="M249.99,23.91c.37.78,1.26,1.4,1.78,2.08.54.71,1.04,1.54,1.6,2.26.51.65,1.39,1.83,1.98,2.16"/>
    <path class="i" d="M247.8,25.29c.38.79,1.6,1.38,2.2,2.1.27.33.52.66.76,1.01.69,1,1.28,2.33,2.15,3.15"/>
    <path class="i" d="M245.77,26.18c.97,1.38,2.31,2.35,3.31,3.75.73,1.02,1.73,2.31,2.38,3.15"/>
    <path class="i" d="M243.58,27.4c.29,1.02,1.51,2.37,2.23,3.17,1.15,1.27,2.57,2.59,3.86,3.65"/>
    <path class="i" d="M240.81,28.29c.28.71,1.3,1.31,1.81,1.93.35.42.66.9,1,1.32.99,1.25,1.85,2.64,3.12,3.56"/>
    <path class="i" d="M238.7,29.67c.83,1.31,2.11,2.55,3.12,3.77.79.96,1.57,2.05,2.48,2.8"/>
    <path class="i" d="M236.35,30.97c.51.93,1.7,1.91,2.43,2.78.35.42.68.81,1.01,1.24.68.91,1.58,2.39,2.52,3.05-.1-.26-.28-.35-.52-.5"/>
    <path class="i" d="M234.56,31.78c.17.42.56.64.85.97.55.6.89,1.3,1.29,2.01.25.44.55.79.82,1.21.6.93,1.09,1.8,1.91,2.56"/>
    <path class="i" d="M232.45,33.41c.63.58,1,1.49,1.55,2.17.51.62,1.03,1.19,1.52,1.83.85,1.13,1.51,2.41,2.94,2.9"/>
    <path class="i" d="M230.42,34.06c1.44,1.13,2.58,2.03,3.35,3.6.58,1.19,1.58,1.96,2.26,3.06"/>
    <path class="i" d="M228.88,35.19c.4.95,1.22,1.72,1.76,2.6.46.75.78,1.47,1.39,2.1.38.39.81.69,1.18,1.07.46.47.69,1.08,1.12,1.52-.13-.23-.23-.47-.34-.72"/>
    <path class="i" d="M226.53,36.33c.13.44,1.31,1.26,1.69,1.74.32.4.69.71,1.04,1.07,1.37,1.41,1.5,3.53,2.82,4.88.1-.28.04-.6-.11-.87"/>
    <path class="i" d="M224.33,37.38c1.09,1.11,2.16,2.3,3.16,3.47.69.8,1.47,2.51,2.36,2.95"/>
  </g>
  <g id="e" data-name="roof right">
    <path class="i" d="M291.92,24.43c-.17-.27-.18-.79-.39-1.12.25,1.02,1.36,1.51,2.22,2.65"/>
    <path class="i" d="M306.3,33.3c1.62,1.64,4.34,6.01,5.51,4.89"/>
    <path class="i" d="M335.97,42.48c1.03.81,1.93,2.05,2.65,3-2.4-2.63-6.16-5.28-9.59-6.31.17,1.55,2.11,4.78,3.58,5.45"/>
    <path class="i" d="M358.3,51.35c.57-1.13.07-2.89-.31-4.28"/>
    <path class="i" d="M395.92,66.64c.74,1.03,1.4,2.45,1.53,3.67"/>
    <path class="i" d="M330.16,38.5c-.23-.78-.75-1.3-1.53-1.53"/>
    <path class="i" d="M272.04,16.78c-.18-.7-.47-1.35-.62-2.05,0,.68-.04,1.37,0,2.05-1.24,1.3-1.18,1.42-2.89,2.06"/>
  </g>
  <g id="f" data-name="workers">
    <path class="h" d="M381.09,101.08c-2.15.92-2.67,4.39-2.39,6.52"/>
    <path class="g" d="M373.46,102.57c1.12-.61,2.28-.39,3.49-.45.53-.03,1.6.03,1.99-.34"/>
    <path class="g" d="M373.46,103.48c.56-.29,1.26-.36,1.88-.4.78-.05,2.21.31,2.85-.11"/>
    <path class="h" d="M374.26,104.39c1.41-.42,2.87-.26,4.34-.29"/>
    <path class="g" d="M375.63,105.53c.68-.35,1.45-.4,2.23-.4"/>
    <path class="g" d="M376.71,107.02c.03-.27.25-.42.51-.4"/>
    <path class="h" d="M377.17,107.87c.18-.08.38-.17.57-.23"/>
    <path class="h" d="M358.95,118.66c.47-.55,1.4-.48,1.67-1.25"/>
    <path class="g" d="M351.13,123.35c-.47.42-1.08.76-1.46,1.25"/>
    <path class="h" d="M363.23,127.94c.18-.12,1.45.54,1.67.52-.42.03-1.77.99-2.19,1.04.1-.28-.67-1.05-.52-1.25-.12.35-1.31,1.12-1.46,1.46-.38.22-1.47.45-1.25.83-.41.16-.23,1-.63,1.15-.19.31-.14,1.47-.31,1.77-.13.22-.24.48-.31.73"/>
    <path class="h" d="M365.1,127.41c.47-.15.76.02,1.25.21"/>
    <path class="h" d="M365.52,128.98c.46.01.92.04,1.36-.1.79.33,2.41.65,3.13,1.04"/>
    <path class="g" d="M363.96,136.48c.38-.05.52-1.13.83-1.36-.57.54-1.29.89-1.98,1.25"/>
    <path class="g" d="M363.43,123.24c1.68.03,4.3.4,5.84-.21"/>
    <path class="g" d="M369.27,125.64c.91,1.16,1.51,3.01,2.29,4.38"/>
    <path class="g" d="M373.03,131.06c1.45.38,2.58.65,3.02,2.09"/>
    <path class="g" d="M341.02,112.5c.27-.07-.18-1.28.1-1.36.27-.07.56-.2.73-.31"/>
    <path class="g" d="M341.33,114.28c.45-.28.95-.41,1.46-.52"/>
    <path class="h" d="M342.58,116.26c.04-.22.14-.4.31-.52"/>
    <path class="g" d="M341.44,112.82c.37-.06.74-.22,1.04-.42"/>
    <path class="g" d="M359.61,132.68c0-.5.05-1.11.18-1.59.06-.24.16.11.42,0,.05.23.15.42.11.67-.03-.4.14-.75.44-1.03.35.27.25.14.34.56"/>
    <path class="g" d="M360.31,147.31c-.29-.01-.54.35-.59.75"/>
    <path class="g" d="M360.5,148.73c.21-.27.39-.64.57-.95.12-.2.37-.49.41-.71"/>
    <path class="g" d="M361.91,149.07c0-.75.41-1.33.52-2"/>
    <path class="g" d="M364.41,143.72c-.19.11-.7.38-.65.65"/>
    <path class="g" d="M365.61,143.75c-.44.31-.95.68-1.31,1.08-.17.18-.34.35-.51.53-.22.23-.26.48-.39.77"/>
    <path class="g" d="M366.22,144.8c-.49.22-.96.25-1.37.63-.21.2-.37.42-.56.63-.31.34-.55.47-.65.93"/>
    <path class="g" d="M363.18,147.63c-.19.42-.33.97-.31,1.45"/>
    <path class="g" d="M364.65,147.16c-.55.42-.66,1.21-.8,1.82"/>
    <path class="g" d="M364.77,148.89c.35-1,.59-2.1,1.06-3.05.24-.49.58-.64.97-.98"/>
    <path class="g" d="M368.04,144.52c-.54.37-1.03,1.31-1.29,1.91-.19.44-.45.93-.44,1.41"/>
    <path class="g" d="M369.45,144.03c-1.03.96-1.73,2.54-1.94,3.91"/>
    <path class="g" d="M366.34,144.03c.32.2.77.07,1.11.18"/>
    <path class="g" d="M372.9,148.89c-.43.39-.63,1.03-.92,1.52-.27.45-.53.89-.76,1.35-.19.38-.3.8-.47,1.19-.15.36-.34.75-.4,1.13"/>
    <path class="g" d="M371.17,149.23c-1.08,1.24-2.08,2.79-2.49,4.4"/>
    <path class="g" d="M369.27,150.12c-.52.23-.89,1.03-1.14,1.48-.27.49-.6,1-.77,1.53"/>
    <path class="g" d="M367.24,150.64c-.76.64-1.4,2.06-1.35,3.08"/>
    <path class="g" d="M366.41,149.01c-.48.22-.61,1.13-.8,1.57"/>
    <path class="g" d="M368.9,147.16c-.59.72-.97,1.38-1.14,2.29-.06.31-.14.61-.24.9"/>
    <path class="g" d="M370.25,147.04c-.12.4-.28.78-.39,1.19-.13.49-.44,1.13-.41,1.64"/>
    <path class="g" d="M370.53,144.33c-.51.63-1.01,1.54-1.23,2.31"/>
    <path class="g" d="M371.76,144.09c-.47.67-.68,1.44-.95,2.21-.16.47-.33.94-.51,1.39-.14.35-.34.71-.33,1.1"/>
    <path class="g" d="M378.56,142c-.13.48-.18,1.01-.34,1.48"/>
    <path class="g" d="M377.36,142.95c-.15.63-.34,1.22-.4,1.88"/>
    <path class="g" d="M376,143.53c-.24.05-.42.61-.49.79-.31.76-.67,1.74-.65,2.56"/>
    <path class="g" d="M373.88,144.09c-.21.24-.3.54-.4.84-.45,1.39-.88,2.77-1.36,4.14"/>
    <path class="g" d="M346.66,161.14c-1.88,1.04-3.22,2.79-3.77,4.85"/>
    <path class="g" d="M352.05,156.02c-2.32,2.12-5.22,6-5.66,8.62"/>
    <path class="g" d="M347.78,164.18c.46-2.07,1.41-3.88,2.89-5.36,1.29-1.28,2.67-2.84,3.49-4.47"/>
    <path class="g" d="M349.39,164.24c-.44-1.79,1.89-3.63,2.98-4.83,1.51-1.67,3.38-3.56,3.88-5.84"/>
    <path class="g" d="M350.76,164.12c1.01-2.43,2.68-4.38,4.56-6.2s2.21-3.92,3.13-6.14"/>
    <path class="g" d="M409.86,139.68c-.68,1.3-1.09,2.8-1.53,4.27"/>
    <path class="g" d="M408.44,139.95c-.41.62-.82,1.18-1.1,1.88s-.36,1.41-.58,2.01"/>
    <path class="g" d="M406.23,141.21c-.3.84-.45,1.66-.68,2.52"/>
    <path class="g" d="M404.55,142.52c-.16.4-.38.78-.47,1.21"/>
    <path class="g" d="M403.19,143.21c-.2.08-.33.26-.32.47"/>
    <path class="g" d="M369.57,187.02c-.47,2.7-1.31,5.29-1.19,8.05"/>
    <path class="g" d="M367.29,187.5c-.98,2.52-1.11,5.09-1.11,7.77"/>
    <path class="g" d="M365.37,187.61c-.67.86-.68,3.05-.81,4.16-.17,1.4,0,2.8,0,4.22"/>
    <path class="g" d="M363.05,188.21c-.72,2.21-.44,5.2-.4,7.57"/>
    <path class="g" d="M361.23,188.61c-.58,1.88-.1,4.09-.1,6.05"/>
    <path class="g" d="M201.41,108.31c-.88.6-1.97,1.46-2.12,2.57"/>
    <path class="g" d="M204.26,107.81c-.55.41-1.35,1.18-2.04,1.67-.8.56-1.21,1.32-1.78,2.02"/>
    <path class="g" d="M205.67,108.01c-.23.54-1.09,1.19-1.49,1.68-.96,1.17-1.8,2.58-2.8,3.63"/>
    <path class="g" d="M206.34,109.63c-1.24,1.92-2.75,3.74-4.23,5.44"/>
    <path class="g" d="M209.16,109.09c-1.2,2.51-4.23,4.2-5.1,6.91"/>
    <path class="g" d="M208.96,112.24c-.94.3-1.85,2.32-2.37,3.14-.43.68-.88,1.36-1.32,2.02"/>
    <path class="g" d="M210.97,112.18c-.7,1.06-1.53,2.08-2.27,3.12-.51.72-1.03,1.72-1.69,2.31"/>
    <path class="g" d="M213.66,111.64c-.39,1.87-1.91,3.64-2.92,5.22-.43.69-.8,1.39-1.31,2.03"/>
    <path class="g" d="M227.75,116c-.51.31-1.14.79-1.48,1.28"/>
    <path class="g" d="M227.62,117.08c-.23.56-.64,1.08-.94,1.61"/>
    <path class="g" d="M227.69,118.89c-.26.44-.48,1.08-.81,1.41"/>
    <path class="g" d="M227.89,120.43c-.2.55-.63,1.18-1.01,1.61"/>
    <path class="g" d="M228.29,122.18c-.14.24-.3.58-.54.81"/>
    <path class="g" d="M220.77,114.53c-.05,1.99,1.24,4.57,2.39,6.19.54.75,2.1,1.93,3.05,1.8"/>
    <path class="g" d="M219.5,114.93c-.57,1.21-1.79,1.72-2.51,2.75-.2.29-.28.66-.42.96-.48,1.01-1.09,2.03-1.63,3"/>
    <path class="g" d="M219.36,116.81c-.97,1.6-1.86,3.44-2.68,5.13-.2.41-.5.92-.55,1.38"/>
    <path class="g" d="M229.97,123.72c-.05,0-.07-.02-.07-.07-.21.47-.49.89-.74,1.34"/>
    <path class="g" d="M230.24,124.79c-.39.54-.73,1.04-1.07,1.61"/>
    <path class="g" d="M231.71,125.8c-.39.41-.93.92-1.14,1.48"/>
    <path class="g" d="M231.92,127.08c-.35.87-1.01,1.62-1.34,2.48"/>
    <path class="g" d="M232.05,128.89c-.3.43-1.3,1.62-1.14,2.01"/>
    <path class="g" d="M232.99,130.37c-.28.74-.84,1.36-1.14,2.08"/>
    <path class="g" d="M233.8,131.37c-.49.64-.85,1.42-1.34,2.08"/>
    <path class="g" d="M235.14,132.18c-.5.91-1.08,2.43-1.75,3.15"/>
    <path class="g" d="M235.61,134.53c-.57.7-1.06,1.82-1.28,2.68"/>
    <path class="g" d="M235.94,136.61c-.29.41-.53.81-.76,1.26-.28.55-.53,1.12-.82,1.67-.1.19-.6.86-.24.7"/>
    <path class="g" d="M236.55,138.82c-.22.78-.76,1.49-1.21,2.15"/>
    <path class="g" d="M238.63,138.96c-.73.91-1.2,2.16-1.88,3.13-.24.35-.87,1.15-.94,1.36"/>
    <path class="g" d="M239.7,140.17c-.69,1-1.13,2.38-1.79,3.47.05-.12.07-.24.11-.36-.13.4-.55.66-.81.99-.54.68-.91,1.54-1.14,2.35"/>
    <path class="g" d="M241.58,141.04c-1.35,1.92-2.04,4.11-2.82,6.24"/>
    <path class="g" d="M242.79,142.25c-.38,1.43-1.12,2.89-1.85,4.17-.26.45-.99,1.48-.9,1.94"/>
    <path class="g" d="M241.93,131.05c-.71.5-1.48,1.35-1.94,2.05"/>
    <path class="g" d="M243.19,130.71c-.3.66-.79,1.11-1.14,1.71"/>
    <path class="g" d="M244.5,130.31c-.24.61-.65,1.38-.85,1.88"/>
    <path class="g" d="M245.81,130.48c.02.66-.48,1.59-.68,2.22"/>
    <path class="g" d="M246.78,130.94c-.22.66-.46,2.01-.23,2.51"/>
    <path class="g" d="M248.2,131.11c-.29.77-.41,1.56-.4,2.39"/>
    <path class="g" d="M249.29,131.79c.09-.02.2-.01.28.02.08.86-.27,1.6-.56,2.38"/>
    <path class="g" d="M251.39,132.42c-.35.84-1.04,1.55-1.37,2.39"/>
    <path class="g" d="M252.42,133.16c-.45.45-.73,1.42-.97,1.99"/>
    <path class="g" d="M252.42,135.44c-.1.29-.21.58-.34.85"/>
    <path class="g" d="M245.47,138.8c.33.15.77.23,1.14.23"/>
    <path class="g" d="M245.41,139.77c.14.07.3.07.46,0"/>
    <path class="g" d="M249.86,141.31c-.58.76-1,1.65-1.25,2.56"/>
    <path class="g" d="M251.34,142.79c-.67,1.26-1.7,2.32-2.34,3.59"/>
    <path class="g" d="M252.08,145.01c-.66.96-1.57,2.01-1.94,3.13"/>
    <path class="g" d="M252.08,146.95c-.26.59-.54,1.14-.85,1.71-.34.63-.94,1.27-1.15,1.94"/>
    <path class="g" d="M251.68,150.03c-.09.26-.17.57-.23.85"/>
    <path class="g" d="M181.85,161.26c-.23.59-.41,1.29-.58,1.88"/>
    <path class="g" d="M180.77,160.1c-.15-.04-.86,1.38-.94,1.59"/>
    <path class="g" d="M178.1,159.81c-.29.39-.52.8-.87,1.16"/>
    <path class="g" d="M175.93,158.94c-.42.38-.82.69-1.37.87"/>
    <path class="g" d="M172.97,157.64c-.45.26-.92.33-1.44.43"/>
    <path class="g" d="M170.3,156.2c-.23.31-.6.53-.94.72"/>
    <path class="g" d="M166.9,155.77c0,.05-.02.08-.07.07"/>
    <path class="g" d="M154.84,154.97c-.13,1.03-1.21,2.25-1.69,3.24-.39.79-.76,1.56-1.18,2.33-.56,1.03-1.07,2.44-1.18,3.6"/>
    <path class="g" d="M155.56,156.78c-.74,1.58-1.17,3.25-1.98,4.8-.32.61-.66,1.31-.77,1.99"/>
    <path class="g" d="M156.72,157.79c-.15,1.04-.63,2.05-.98,3.03-.25.71-.32,1.64-.69,2.24"/>
    <path class="g" d="M158.6,158.8c-.21,1.33-1.25,2.83-.98,4.17l.18-.27"/>
    <path class="g" d="M160.26,160.32c.05.76-.19,1.48-.14,2.24"/>
    <path class="g" d="M162.06,161.26c-.05.29-.1.58-.14.87"/>
    <path class="g" d="M164.74,161.26c0,.41-.11.81-.07,1.23"/>
    <path class="g" d="M167.63,162.05v.43"/>
    <path class="g" d="M145.81,175.48c.15-.88,1.49-2.04,2.24-2.46-.17.34-.04,1.37-.15,1.7.7-.51,1.42-1.5,1.87-2.28-.48,1.32-1.4,2.63-2.22,3.75"/>
    <path class="g" d="M152.6,171.58c-.76,1.39-2.34,2.64-2.82,4.12"/>
    <path class="g" d="M154.34,171.01c-.68.97-1.01,2.31-1.59,3.37-.33.61-.77,1.17-1.1,1.77-.14.25-.02.04.02-.01"/>
    <path class="g" d="M156.58,170.28c-.28,1.38-1.37,2.67-1.81,4.04"/>
    <path class="g" d="M157.8,170c-.02.65.09,1.3.07,1.95"/>
    <path class="g" d="M159.75,182.71c.09.31.33.55.58.72"/>
    <path class="g" d="M158.53,183.57c.24.4.6.76.87,1.16"/>
    <path class="g" d="M156.79,184.44c-.07.78.62,1.74,1.16,2.24"/>
    <path class="g" d="M154.91,185.74c-.01,1.54,1.35,2.7,1.37,4.19"/>
    <path class="g" d="M152.82,186.75c-.14,2.57,1.92,5.27,3.11,7.37"/>
    <path class="g" d="M150.44,187.4c-.1,3.19,1.32,6.83,2.89,9.53"/>
    <path class="g" d="M148.2,189.21c-.1,2.9.86,5.69,2.74,7.94"/>
    <path class="g" d="M146.9,190.15c-1.02.38,2.03,10.09,3.32,10.98.01-.08,0-.14,0-.22"/>
    <path class="g" d="M144.44,191.3c-.04.65.22,1.33.34,1.96.26,1.35.51,2.7.91,4.02.27.89.5,1.83,1.14,2.55.3.34.66.62.93,1"/>
    <path class="g" d="M177.85,224.53c-2.56.49-5.23,1.55-7.8,1.66"/>
    <path class="g" d="M177.18,222.54c-2.5,1.27-5.22.8-7.8,1.66"/>
    <path class="g" d="M175.36,220.22c-1.12,1.32-3.18,1.01-4.64,1.66"/>
    <path class="g" d="M175.69,214.74c-.57.34-.56,2.24-1.16,2.49-.53.93-2.24,1.37-2.99,1.33"/>
    <path class="g" d="M145.83,202.3c-.64,1.66-2.58,2.65-2.99,4.48"/>
    <path class="g" d="M146.49,204.96c-1.42,1.92-3.2,3.46-4.15,5.81"/>
    <path class="g" d="M147.49,207.61c-1.01,1.19-5.67,5.85-5.47,6.47"/>
    <path class="g" d="M147.66,210.1c-1.69,2.58-3.75,4.9-5.47,7.46"/>
    <path class="g" d="M146.99,213.91c-.84.77-1.36,2.02-1.99,3.01-.81,1.29-1.8,2.52-2.56,3.83.1-.17-.94,1.94-.43.96"/>
    <path class="g" d="M145.33,219.39c-.38,1.92-1.99,3.41-2.49,5.31"/>
    <path class="g" d="M144.84,223.7c-.04,1.74-2.12,4.04-2.82,5.64"/>
    <path class="g" d="M147.49,227.35c-1.23,1.47-2.34,3.06-3.65,4.48"/>
    <path class="g" d="M152.3,228.84c-2.15,2.7-4.66,5.95-5.81,9.26.17-.21.21-.38.34-.63"/>
    <path class="g" d="M187.13,246.26c-.63-.05-1.96.93-2.65,1.49"/>
    <path class="g" d="M184.31,245.43c-1.21.69-2.37,1.45-3.48,2.32"/>
    <path class="g" d="M180.33,245.1c-1.31.43-3.43,1.42-4.48,2.32"/>
    <path class="g" d="M174.36,243.77c-1.75,1.15-3.62,2.46-5.47,3.48"/>
    <path class="g" d="M170.05,242.94c-2.01.53-4.47,1.27-5.97,2.65"/>
    <path class="g" d="M224.67,288.22c-1.18-1.65-.63-4.1-.73-6.08-12-5.35-24.79-2.76-32.82,7.37,1.24-.68,2.65-1.32,3.87-1.93-.09.38-.22.54-.27.93,3.49.25,7.24-.4,10.55.72-.95,2.84-5.28,5.35-7.47,7.2,1.09.54,2.42.75,3.64.73-3.38,4.5-7.62,12.84-8.81,18.01"/>
    <path class="g" d="M173.18,278.34c-.85.94-1.92,1.88-2.73,2.73"/>
    <path class="g" d="M174.15,279.69c-.89.69-5.74,4.17-5.64,4.33"/>
    <path class="g" d="M174.66,281.3c-1.26,1.17-2.35,2.33-3.72,3.43-.5.4-1.01.81-1.42,1.31"/>
    <path class="g" d="M175.77,283.01c-1.53,2.64-5.43,3.05-6.95,5.54"/>
    <path class="g" d="M177.18,284.82c-1.09,1.55-2.76,2.72-4.07,4.07-.58.6-1.13,1.42-1.77,1.87"/>
    <path class="g" d="M179.79,285.93c-1.85,1.99-4.16,3.56-6.17,5.38-1.13,1.02-2.83,2.24-3.5,3.58"/>
    <path class="g" d="M181.2,287.14c-2.79,2.9-5.91,5.37-9.03,7.88-1.09.88-1.95,1.78-2.75,2.89"/>
    <path class="g" d="M182.11,289.26c-2.14,1.32-3.55,3.73-5.7,5.14-1.78,1.17-3.17,2.09-4.64,3.58-.79.8-1.73,2.17-2.15,2.96"/>
    <path class="g" d="M183.42,290.26c-2.29,4.16-6.6,7.22-9.8,10.66-1.6,1.72-3.14,3.71-5,5.15"/>
    <path class="g" d="M185.23,292.58c-4.17,2.63-7.31,6.66-10.71,10.17-1.79,1.84-3.52,3.93-5.7,5.34"/>
    <path class="g" d="M185.23,295.1c-1.57,1.69-3.47,2.92-4.94,4.78-1.12,1.41-2.21,2.89-3.45,4.2-1.38,1.45-2.99,2.84-4.52,4.14-.6.51-1.26,1.31-1.93,1.72-.37.23-.26.31-.26.07"/>
    <path class="g" d="M184.63,297.81c.05.21-.13.42-.3.74-.69,1.24-1.66,2.53-2.48,3.7-.87,1.25-1.91,2.41-3.02,3.45s-2.34,1.99-3.26,3.28"/>
    <path class="g" d="M185.53,300.33c-1.45,2.41-3.22,4.59-5.08,6.7-.46.52-2.03,2.13-2.07,2.56"/>
    <path class="g" d="M185.03,303.75c-.55,1.4-1.38,2.66-2.26,3.88-.49.69-1.62,2.62-2.28,2.86"/>
    <path class="g" d="M185.83,306.47c-.56.91-1.18,1.86-1.81,2.72"/>
    <path class="g" d="M430.28,251.24c-2.36.41-4.85,1-7.14,1.58.43-1,.81-2.16.39-3.23-3.13.79-6.86,2.37-9.3,4.41-2.23,1.87-4.36,3.98-7.2,4.74-1.86.5-3.52.16-5.27.69-1.47.45-2.92,1.41-4.21,2.24-4.42,2.85-8.56,5.97-11.31,10.28-3.02,4.72-7.62,9.64-12.45,12.39"/>
    <path class="g" d="M391.26,239.88c-1.74.69-3.63.96-5.4,1.57"/>
    <path class="g" d="M392.08,237.63c-.6.73-1.97.99-2.85,1.22-.61.16-1.3.57-1.87.63"/>
    <path class="g" d="M392.15,236.05c-.99.21-1.82.92-2.74,1.23"/>
    <path class="g" d="M392.56,234.75c-.74.22-1.58.31-2.26.68"/>
    <path class="g" d="M392.56,232.97c-.27.26-.63.39-.96.55"/>
    <path class="g" d="M392.9,231.13c-.2.17-.49.31-.75.41"/>
    <path class="g" d="M386.06,243.15c-2.79,1.78-6.05,2.91-8.73,4.95-1.17.89-1.79,1.51-3.13,1.95.98-1.21.91-3.3,2.01-4.3"/>
    <path class="g" d="M345.48,289.05c-1.32-.03-2.64.33-3.97.34-1.64.02-3.11-.64-4.63-1.19-4.17-1.5-8.09-3.32-12.37-4.59"/>
    <path class="g" d="M325.08,285.99c.81.14,9.08,2.54,7.6,4.28-.41.48-2.24.54-2.82.71-1.38.4-2.57,1.08-3.87,1.7"/>
    <path class="g" d="M324.29,293.47c.74.84-.26,2.42-1.16,2.81-1.45.62-3.15-.56-4.55-.94-2.91-.79-6.21-1.66-9.25-1.64"/>
    <path class="g" d="M311.59,296.08c1.26.74,3.73,1.33,5.31,1.6.91,2.39-3.8,2.49-5.08,3.16"/>
    <path class="g" d="M308.07,300.67c-2.26.32-3.98-1.97-5.68-3.12-2.38-1.61-5.24-1.7-8.1-1.96-6.52-.61-14.12,1.72-20,4.23"/>
    <path class="g" d="M416.06,308.39c-.73.69-1.64,1.27-2.47,1.83"/>
    <path class="g" d="M416.22,306.64c-1.06,1.1-2.24,1.82-3.49,2.66-.88.6-2.15.95-2.8,1.8"/>
    <path class="g" d="M416.46,304.33c-.28,1.04-1.92,1.89-2.67,2.49-.61.48-1.22.93-1.91,1.3-1.88,1.01-3.19,2.73-5.06,3.78"/>
    <path class="g" d="M416.7,302.26c-2.13,1.53-4.19,3.24-6.38,4.7-1.61,1.08-3.06,2.32-4.63,3.46-1.22.88-2.72,1.43-4.04,2.11"/>
    <path class="g" d="M417.49,299.87c-1.12,1.21-2.98,2.19-4.38,3.14-1.69,1.15-3.3,2.37-5.08,3.38-1.95,1.1-3.98,2.05-5.88,3.25-1.06.67-1.9,1.62-2.98,2.26"/>
    <path class="g" d="M417.89,297.48c-1.54,2.04-4.64,2.64-6.67,4.08-1.83,1.3-3.41,2.93-5.22,4.24-2.3,1.66-5.24,2.3-7.56,3.89-1.17.8-2.42,1.79-3.41,2.76"/>
    <path class="g" d="M417.49,296.21c-1.46,1.48-3.59,2.48-5.37,3.52-1.97,1.15-4.29,1.7-6.13,3.06-2.32,1.71-4.86,2.98-7.27,4.58-1.17.78-2.32,1.54-3.57,2.22-.9.49-2.11,1.05-2.82,1.76"/>
    <path class="g" d="M417.89,293.82c-2.35,2.04-5.52,3.16-8.19,4.68-2.3,1.31-4.45,2.98-6.79,4.28-4.76,2.64-9.83,4.63-14.09,8.08"/>
    <path class="g" d="M417.02,292.94c-1.64.54-3.33,1.58-4.91,2.33-1.39.66-2.75,1.47-4.08,2.24-2.73,1.58-5.3,3.33-8.1,4.79-3.09,1.6-6.32,2.97-9.28,4.79-1.52.94-3.19,2.37-5.01,2.73"/>
    <path class="g" d="M415.9,291.35c-1.66,1.31-3.94,1.84-5.8,2.9-1.17.67-2.2,1.45-3.46,2.01-1.59.7-3.3,1.36-4.72,2.37-1.5,1.07-3.12,2.21-4.79,3-2.3,1.09-4.55,2.09-6.8,3.28-1.65.88-3.09,2.04-4.73,2.96-1.46.82-3.13,1.66-4.5,2.51"/>
    <path class="g" d="M411.44,291.43c-1.03.93-2.54,1.4-3.77,1.99s-2.15,1.51-3.31,2.08c-2.69,1.33-5.42,2.33-7.96,3.92-2.76,1.73-5.67,3.29-8.45,4.96-2.32,1.38-4.86,2.57-7.06,4.14-1.41,1.01-2.83,1.92-4.16,2.98"/>
    <path class="g" d="M406.74,292.15c-.81.83-2.15,1.2-3.14,1.76-.88.5-1.77.87-2.68,1.31-1.13.55-2.21,1.11-3.27,1.76-2.77,1.71-5.64,3.21-8.55,4.69-3.07,1.56-5.83,3.64-8.87,5.26-2.37,1.27-5.17,2.44-7.31,3.98.12-.03.24-.03.37-.05"/>
  </g>
</svg>