<?xml version="1.0" encoding="utf-8"?>
<!-- Generator: Adobe Illustrator 28.1.0, SVG Export Plug-In . SVG Version: 6.00 Build 0)  -->
<svg version="1.1" xmlns="http://www.w3.org/2000/svg" xmlns:xlink="http://www.w3.org/1999/xlink" x="0px" y="0px"
	 viewBox="0 0 543.4 315" style="enable-background:new 0 0 543.4 315;" xml:space="preserve">
<style type="text/css">
	.st0{fill:none;stroke:#484848;stroke-width:2;stroke-linecap:round;stroke-linejoin:round;}
</style>
<g id="Layer_2">
	<path class="st0" d="M367.3,218.6c0,0-1.1-4.8-2-8c-0.9-3.2-3.8-11.6-4.8-16.5c-1.1-4.9-2.8-18.2-2.8-18.2s0.6-3.9,0-4.3
		s-3-2.2-3.6-2.2s-9.4-0.5-13.9-1.1c-4.6-0.6-17.3-2.4-21.9-3s-10-1.6-10-1.6"/>
	<path class="st0" d="M143.9,200.9c0,0-1,2.3-2,3.9c-1,1.6,1,4.6,0,5.8c-1,1.2-0.7,7.8-0.3,9.1c0.4,1.2-0.7,7.4,1,11.2
		s4.9,7.8,4.9,9.5c0,1.7,0,6.1,0,6.1l1.1,3.6c0,0,2.2-2.5,4.9-3c2.7-0.5,13-1.1,14.9-0.8c1.9,0.3,9.6,1.9,11.4,1.9
		c1.8,0,7.3-0.8,7.3-0.8"/>
</g>
<g id="a">
	<path class="st0" d="M269.4,13.1c-6,3.5-12.2,6.3-18.1,10c-2.8,1.8-6.1,2.8-8.9,4.6c-3.9,2.4-8.2,4.2-12.1,6.7
		c-2.2,1.4-4.7,2.4-6.9,3.8c-6.5,4-13.4,7.4-19.9,11.6c-4.8,3.1-9.9,5.8-15.2,7.8c-2.6,1-4.8,2.8-7.4,4c-3.6,1.8-7.2,3.7-10.8,5.5
		c-5.8,2.9-11.4,6.3-17.1,9.5c-5.5,3-11,6.1-16.5,9c-7.4,4-14.8,7.9-22.1,11.9c-6.5,3.6-13,7.4-19.7,10.7c-4.1,2-8,4.5-12.1,6.5
		c-5.9,2.9-11.4,6.4-17.1,9.7c-2.7,1.6-5.7,2.6-8.6,3.7c-4,1.6-7.8,3.4-11.5,5.6c-4.5,2.6-9.2,4.9-13.6,7.8
		c-2.6,1.7-5.7,2.8-8.6,4.2c-3.9,1.9-7.6,4-11.5,5.9c-2.1,1-4.2,2.1-6.5,2.7c-1,0.3-1.7,1.4-2.9,1.2"/>
	<path class="st0" d="M273.3,23.1c2.1,0.1,3.8,1.5,5.8,2.2c3.9,1.5,7.8,3.1,11.7,4.6c4.7,1.9,9.8,2.8,14.4,4.9
		c2,0.9,3.9,1.9,5.8,2.9c3.4,1.7,6.9,2.7,10.6,3.2c7.3,1,14.4,2.7,21.1,6c3.1,1.6,6.5,2.6,9.9,3.7c3.4,1,6.6,2.7,9.8,4.4
		c2.4,1.3,4.8,2.5,7.4,3.4c4.3,1.5,8.4,3.5,12.6,5c3,1.1,6.1,2.1,9.2,3.2c2.5,0.9,4.8,2.1,7.2,3.1c4,1.7,8,3.3,12.1,4.8
		c6,2.2,12,4.4,18,6.3c2.9,0.9,5.8,1.7,8.6,2.9c2.2,1,4.4,1.9,6.5,3c3.9,2.1,8.1,3.4,12,5.5c5.3,2.8,10.9,4.7,16.4,6.8
		c2.6,1,5,2.5,7.6,3.5c5.3,2.1,10.7,4.1,16,6.2c4.4,1.7,9,3.1,13.4,4.9c5.4,2.3,10.6,5.2,16.3,7c0.7,0.2,1.4,0.5,2.2,0.5"/>
	<path class="st0" d="M520.5,110.9c-1.4-1-3.1-1.1-4.7-1.6c-2.8-0.9-5.4-2.3-8.1-3.4c-3.6-1.5-7.4-2.7-11.1-3.7
		c-3.2-0.9-6.3-2.1-9.2-3.9c-5.5-3.4-11.6-5.5-17.6-7.7c-4.7-1.7-9.3-3.6-13.8-5.6c-3.9-1.7-7.9-3.1-12-4.2c-3.9-1-7.6-2.5-11.5-3.5
		c-4.1-1-7.5-3.3-11.3-4.9s-7.5-3.3-11.5-4.4c-3.2-0.8-6.1-2.8-9.2-4c-4.7-1.8-9.4-3.5-14.2-5.2c-3.9-1.3-7.7-2.6-11.6-4
		c-4.5-1.6-9.1-3.1-13.7-4.8c-5.4-2-10.8-3.8-16.2-5.8c-6.5-2.5-13-5.1-19.4-7.7c-4-1.7-8.2-3-12.1-4.9c-2.2-1-4.7-1.5-7-2.2
		c-6.6-2.1-13.3-4.1-20-6.1c-4.3-1.3-8.6-2.6-12.6-4.5c-1.2-0.6-2.4-1.3-3.4-2.2c-1-0.9-2-0.9-3.1-0.9"/>
	<path class="st0" d="M267.9,1c-0.4,1.4-1.7,1.7-2.7,2.1c-5.3,2.4-10.6,4.8-15.8,7.4c-5.1,2.5-10.2,5.2-15.2,8c-3.6,2-7.3,3.9-11,6
		c-3.9,2.2-7.8,4.4-11.7,6.7c-2.4,1.4-4.6,3.1-7.1,4.3c-5.7,2.8-11.1,6.1-16.6,9.2c-4.5,2.5-9.2,4.7-13.8,6.9
		c-5.2,2.5-10.6,4.7-15.7,7.2c-6.4,3.2-12.6,6.6-18.9,10c-4.7,2.5-9.2,5.5-13.9,8c-4.1,2.2-8.1,4.6-12.1,6.8
		c-3.6,2-7.1,4.1-11.1,5.3c-1.9,0.6-3.2,2.2-5,3.1c-3.6,1.7-7.1,3.5-10.4,5.6c-3,1.9-6.4,2.9-9.2,5c-2.7,2.1-5.8,3.1-8.7,4.5
		c-5.8,2.7-11.2,6.3-17.4,8.5c-4.2,1.5-8.1,4.2-12.1,6.4c-1.4,0.8-2.9,1.4-4.5,1.9s-3.2,1.3-4.5,2.4c-1.1,0.8-2.1,2-3.8,1.8
		c-0.1,0-0.1,0-0.2,0c-2,2.1-5,2.4-7.3,4c-2.1,1.6-4.4,3.2-7,4c-2.7,0.8-5,2.3-7.7,2.9c-0.9,0.2-1,0.9-1.1,1.8
		c-0.3,2.7-0.8,5.4-1.2,8.1c-0.3,2.1-0.6,4.2-0.4,6.3c0.1,0.8,0,1.4-1.1,1.3"/>
	<path class="st0" d="M272.1,21.5c-0.2-0.1-0.6-0.2-0.7-0.2c-4,2.9-8.7,4.6-12.8,7.5c-4.6,3.2-9.9,5.2-14.7,8.1
		c-3.2,2-6.6,3.8-9.9,5.6c-3.5,1.8-7.1,3.4-10.6,5.3c-3.6,1.9-7.5,3.1-11,5c-4.9,2.8-10,5.2-14.8,8.2c-6.9,4.3-14.1,8-21.2,12
		c-5.1,2.9-10.2,5.7-15.2,8.6c-2.7,1.6-5.5,3.1-8.4,4.4c-4.5,2.1-8.8,4.6-13.2,6.9c-3.8,2-7.7,3.9-11.3,6.2c-4.2,2.6-8.6,4.9-13,7.1
		c-4.4,2.3-8.9,4.2-13.3,6.5c-3.1,1.6-6,3.6-9,5.4c-1.6,1-3.2,2-5,2.7c-1.4,0.6-2.7,1.4-4,2.3c-2,1.5-4.5,1.8-6.7,2.9
		c-3.2,1.5-6.5,2.8-9.5,4.6c-2.7,1.6-5.7,2.9-8.3,4.6c-2.8,1.8-5.6,3.5-8.5,5.2c-2.4,1.5-4.3,3.8-7.2,4.5c-0.9,0.2-0.8,0.8-0.9,1.5
		c-0.8,4.7-1.5,9.4-2.3,14c-0.6,3.4-1.3,6.7-1.5,10.1c0,0.2-0.2,0.5-0.3,0.7"/>
	<path class="st0" d="M540.3,103.4c-1.7,0-3.3-0.5-4.7-1.3c-4.5-2.5-9.4-3.9-14.3-5.1c-6.6-1.7-12.9-4.1-19.1-6.9
		c-4.6-2.1-9.2-4-13.9-5.9c-4-1.7-7.8-3.9-12.1-5c-2.9-0.8-5.9-1.6-8.8-2.3c-3.3-0.8-6.5-1.7-9.6-3.2c-3.1-1.6-6.5-2.7-9.7-4.2
		c-5.1-2.4-10.2-5.1-15.3-7.5c-6-2.8-11.9-5.7-18.4-7c-2.4-0.5-4.8-0.9-7-2c-1-0.5-2,0.4-3,0.3c-2.3-0.2-4.1-1.6-5.9-2.7
		c-4.3-2.5-8.7-4.6-13.3-6.5c-3.2-1.3-6.3-2.6-9.5-3.8c-5.3-2.1-10.6-4.2-15.8-6.3c-5.2-2.1-10.7-3.4-15.9-5.4c-3-1.2-6.2-1.9-9.3-3
		c-4-1.5-8-3-11.9-4.6c-5.9-2.5-12-4.7-17.6-7.8c-1.9-1.1-4.2-1-6.3-1.6c-3.6-1-7.1-2.2-10.6-3.6c-0.4-0.2-1.2-0.7-1.4,0.3"/>
	<path class="st0" d="M441.5,159c-0.4,2.9-0.4,5.7,0.4,8.4c0.1,0.3-0.1,2.1,0.1,2.3c1.9,2.3,1.6,6.9,1.5,9.8
		c-0.1,3.3,0.2,5.8,0.2,8.5c-0.4,1.8-0.9,5.2-0.6,7.1c0.5,3.4-0.3,6.1,0.5,9.5c0.5,1.9,0.7,4.2-0.5,6.1c-0.7,1.2-0.1,3.3-0.1,4.6
		c-0.1,1.7-1.9,4.3-3.5,6.4c-2.2,2.9-4.4,4.3-7.2,6.4c-2,1.4-3.9,3-4.9,3.5c-2.8,0.5-4.2,2.2-6.6,3.5c-3.1,1.7-5.7,2.5-9.3,2.9
		c-4.2,0.4-8.1,0.5-12.3,1c-1.3,0.1-2.6-0.1-3.6-1.1"/>
	<path class="st0" d="M264.2,110c-0.2-2.2,0.9-4.3,1.1-6.5c0.3-3.3,0.9-6.6,0.5-9.9c-0.4-3.4-1.7-6.6-3.6-9.5
		c-0.5-0.8-1.1-1.6-1.6-2.4c-2.1-3.4-5.7-4.6-8.8-6.5c-3.6-2.2-7.6-2.6-11.7-2.1c-3.9,0.4-7.3,2.3-10.2,4.8c-4.7,4-6.6,9.6-8.8,15.1
		c0,0.1,0.1,0.2,0.2,0.4"/>
	<path class="st0" d="M180.1,124.1c-3.7,0.2-7.1,1.7-10.4,3.1c-4.4,1.9-6.7,5.9-8.2,10.2c-1,2.8-2.5,5.3-3.7,8.1
		c-2,4.8-3.8,9.7-5.9,14.5c-2.2,5.3-4.4,10.6-7.9,15.4c-2,2.8-2.4,6.3-1.9,10c0.4,2.8,1.1,5.5,1.8,8.2s2.2,5.1,3.1,7.8
		c2.1,5.9,5.8,10.9,9.2,16c0.6,0.9,1.5,1.5,2.3,2.2c1.8,1.4,3.6,2.7,5.3,4.3c1.2,1.2,2.7,2.1,4.5,2"/>
	<path class="st0" d="M212.9,110.7c-3.3-1.4-6.4-3.3-10.1-3.8c-1.1-0.2-2.1,0.2-3.1,0.3c-1.1,0.1-1.3,1.7-0.8,2.8
		c1.7,3.7,4.7,6,7.7,8.5c5.3,4.5,10.2,9.4,13.5,15.6c1.6,3.1,2.7,6.4,3.5,9.9c0.7,3,1.6,5.9,2.2,9c0.3,1.8,0.7,3.6,0.7,5.4
		c0,1.7,0.6,3.3,0.7,5c0.2,2.2,0.5,4.4,1.1,6.5c0.2,0.7,0.5,1.1,0.9,1.6"/>
	<path class="st0" d="M383.9,138.5c1.9-1.9,4-3.4,6.5-4.5c1.6-0.7,2.8-1.8,4.3-2.6c1.4-0.7,2.4-0.4,3.4,0.9c0.1,0.2,0.2,0.5,0.4,0.5
		c3.9,0.9,6.5,4.2,10.4,5.3c3.1,0.8,6.2,1.7,9.5,1.6c6.6-0.1,11.2,0.8,16.9,4c2.1,1.2,3.5,4.7,4.2,7.1c0.6,2.6,1,5,0.9,7.6"/>
	<path class="st0" d="M428,234c0.7,0.6,0.6,1.4,0.5,2.2c-0.4,3.7,0.2,7.4,1.5,10.7c1.4,3.6,2.1,7.5,3.5,11.1c1.2,2.8,1.7,6,2.4,9
		c0.6,2.3,1,4.7,1.6,7c0.8,2.7,1.2,5.5,1.8,8.3c0.5,2.5,0,4.9-0.5,7.2c-0.3,1.4-1.6,2-3,2.4c-1,0.2-0.8-1-1.4-1.3"/>
	<path class="st0" d="M377,158.6c0.8-0.8,1.7-1.6,2.8-2c0.5,0.7,0.4,1.5,0.2,2.2c-1.1,4.1-1.5,8.4-2.4,12.6
		c-0.7,3.5-0.7,7.1-0.6,10.6c0.1,4,0.1,8.1,0.1,12.1c-0.1,6.2,0.5,12.4,0.3,18.5c-0.1,1.7,0,3.4,0,5c0,0.7-0.1,1.5,0.9,1.6"/>
	<path class="st0" d="M97.5,171.5c0.6,1.3-0.4,2.5-0.4,3.8c0.1,2.5-0.5,5-1.1,7.4c-1.2,4.6-2,9.3-2.9,14c-0.9,5.1-1.5,10.3-2.4,15.5
		c-0.6,3.6-0.8,7.3-1.2,11c-0.5,5.1-1.6,10.1-2.7,15.1c-0.8,3.5-2.1,6.9-2.4,10.4c-0.5,4.9-1.7,9.7-2.6,14.5
		c-0.8,4.6-1.5,9.1-2.4,13.7c-1,4.6-1.7,9.2-2.6,13.9c-0.3,1.9-0.9,3.8-1.2,5.8c-0.3,2.5-0.6,4.9-0.9,7.4c-0.3,1.8-0.6,3.6-1.1,5.4
		c-0.4,1.5-0.5,3.1-0.5,4.7"/>
	<path class="st0" d="M387.2,106.3c-0.6-0.9-0.8-2.1-0.8-3.1c0-1.6-1-2-2-2.1c-2.4-0.3-4.8-1-7.2-0.2c-2.1,0.7-4.3,1-6.3,1.8
		c-4.7,1.9-9.7,2.7-14.6,3.9c-3.6,0.9-7.3,1.8-11,2.5c-2.1,0.4-4.1,1.2-6.2,1.2c-0.6,0.8,0.3,1.6-0.2,2.2"/>
	<path class="st0" d="M375,160.8c-0.1,3.2-0.5,6.3-1.2,9.4c-1.1,4.6-2.1,9.3-2.1,14c0,3.8-0.4,7.4-0.7,11.1
		c-0.2,2.5,0.1,4.9-0.3,7.4c-0.5,2.7-0.5,5.4-0.3,8.1c0.2,1.9,0.3,3.7-0.2,5.6"/>
	<path class="st0" d="M467.4,161.6c0.5,1.2,0.3,2.5,0.4,3.8c0.2,2.8,0.6,5.5,0.5,8.3c0,1.3,0.1,2.5,0.3,3.8c0.2,1.8,0.4,3.8-0.3,5.6
		c-1,2.7-0.4,5.4-0.5,8.1c0,0.8,0.1,1.7,0.1,2.5c-0.2,5.6,0.3,11.1,0.5,16.7c0.1,4.7-0.1,9.5,0.1,14.2c0.3,5.6,0.5,11.3,0.8,16.9
		c0.2,2.7-0.1,5.4-0.1,8.1c0,2.5-0.2,4.9,0.1,7.4c0.3,2.2,0.1,4.5,0.2,6.8c0.1,3.3,0.3,6.6,0.5,9.9c0.6,8.3,2.5,16.5,1.9,24.8
		c-0.3,4.2,0.3,8.4,0,12.6"/>
	<path class="st0" d="M264.8,151.8c1.2,0.9,2.4,1.8,3.6,2.8c2.4,1.9,5.4,2.3,8.1,3.1c3.4,1,6.7,2.3,10.2,2.7c1.5,0.2,3,0.4,4.5,0.5
		c3.3,0.2,6.4,1.4,9.7,1.6c2.1,0.1,4,1,6.1,0.7"/>
	<path class="st0" d="M361.1,79c0.6,0.7,1.4,0.4,2,0.3c3.6-0.4,6.7,1,9.7,2.6c0.9,0.5,1.8,1,2.7,1.6c3.4,2.1,5.4,5.3,6.7,9
		c0.5,1.6,1.2,3.2,1.1,5c0,1.2,0.6,2.3,2.1,2.3c0.8,0,1.6,0.4,2.3,0.6c1.7,0.7,2.1,2.9,0.7,4.7c-0.8,1.1-1.4,2.4-2.5,3.3"/>
	<path class="st0" d="M184.6,202.9c-1.9-1.1-3.7-0.6-5.4,0.4c-3.2,1.9-3.3,5.1-3,8.2c0.2,2,0.9,4.1,2.2,5.8c1.1,1.4,0.6,3.2,0.5,4.8
		c-0.1,3.3,3.3,8.4,7.5,9.3c1.3,0.3,2.8,0.2,4.1,0.2c4.4,0,8.9,0,13.3,0c2.6,0,5.4-1.1,6.7-2.6c-0.7-0.8-1.7-0.4-2.6-0.5"/>
	<path class="st0" d="M417.5,159.8c-0.9,1.5-0.1,3,0.2,4.5c0.6,2.8,0.5,5.6,0.2,8.3c-0.2,2.3-0.4,4.4,0,6.7c0.3,1.6,0.4,3.4,0,5
		c-0.9,3.4,0.2,6.2,1.8,9c0.6,1,0.5,1.6,0.1,2.4c-0.9,1.6-1.1,3.3-0.5,5.1c0.5,1.6,0.8,3.1-0.7,4.5c-0.6,0.6-0.9,1.6-0.9,2.5
		c0,1.4-0.4,2.1-1.7,2.5c-0.4,0.1-0.9,0.4-1.1,0.7c-1.3,2.4-3.8,2.6-6,3c-2.1,0.4-4,1.1-5.5,2.6c-0.6,0.6-1.2,0.6-1.8,0.5
		c-2-0.2-4.1-0.3-5.7,1.1c-1.6,1.4-3.1,0.4-4.7,0.4c-1,0-2.1-0.5-2.9,0.7"/>
	<path class="st0" d="M263,223.6c-1.6,4.4-4.1,8.4-6.1,12.6c-2.3,4.7-5.4,9-8.3,13.3c-1.8,2.7-3.6,5.4-5.7,8c-1.4,1.7-1.8,4-3.3,5.7
		"/>
	<path class="st0" d="M247.7,190.3c0.6-0.8,1.2-0.3,1.8,0c2.4,1.3,4.6,2.8,7,4.2c4,2.3,6.5,4,10.9,5.6c2.2,1.2,3.9,3.1,3.7,6.1
		c-0.3,3.4-1.9,5-3.2,8.1c-0.9,2-4.2,7.3-4.8,9.4"/>
	<path class="st0" d="M369.2,230.4c-0.6,0.3-1.1,0.6-1.8,0.6c-3.8-0.3-7.3-0.1-10.8,0.8c-0.9,0.2-1.4,0.7-1.2,2
		c0.2,1.1,0.6,1.7,1.7,1.6c3.6-0.4,7.2,0.9,10.8,1.4c1.2,0.1,2.6,0.3,3.3,1.6"/>
	<path class="st0" d="M432.3,291.7c1.6,0,1.9-1.4,2.5-2.4c0.3-0.6-0.2-1-1-1.3c-1.8-0.5-3.8-1-5.4-0.5c-2.8,0.8-5.7,0.7-8.5,1.5
		c-6.3,1.8-12.8,2.5-19.4,2.4c-4.3-0.1-8.5,0.3-12.8,0.3c-2.8,0-5.7,0-8.3-1.4c-2.7-1.4-4.9-3.2-5.8-6.3c-0.2-0.9-0.6-1.9-1.4-2.5"
		/>
	<path class="st0" d="M271.7,230.4c0.3,3,1.3,5.9,1.5,9c0.3,4.6,1.3,9,1.1,13.7c-0.1,2.8,0.8,5.6,0.7,8.5c0,0.7,0.1,1.4,0.1,2.2
		c-0.1,2.6,0.5,3.8,2.9,4.5c2.2,0.6,4.5,1.1,6.8,1.5c4,0.7,7.9,2,11.7,3.2c2.5,0.8,5,1.9,7.4,3.1c1.1,0.6,2.2,0.7,3.4,0.7"/>
	<path class="st0" d="M39.3,172.3c-0.2,0.5-0.6,1-0.5,1.6c0,4.1-0.9,8-1.2,12.1c-0.3,4.4-0.6,8.8-0.9,13.1c-0.2,2.8-0.7,5.5-0.9,8.3
		c-0.3,4.4-1.4,8.7-1.7,13.1c-0.2,3-0.5,6-1.1,9c-0.8,4.2-1.8,8.4-1.8,12.8c0,3.8-1.1,7.5-1.5,11.3c-0.2,1.6,0.1,3.3-0.5,4.9
		c-0.1,0.4-0.2,0.7-0.6,0.9"/>
	<path class="st0" d="M228,164.1c1.4,0,2,0.6,1.6,2c0,0.2-0.1,0.4,0,0.5c0.8,1.9,0.7,3.9-0.2,5.8c-0.2,0.3-0.1,0.9,0,1.2
		c0.8,2.4,0.3,5,1,7.4c0.1,0.4,0.3,1-0.4,1.5c-2.8-1-6.2-1-9.1-2.6c-0.9-0.5-1.8,0.1-2.5,0.4c-1.5,0.8-2.9,1.8-4,3.2
		c-2.4,3.1-4.4,6.4-6.5,9.7c-1.7,2.6-3.6,5.1-5.2,7.8c-2.2,3.8-3.5,5.6-4.8,9.9c-1.3,0-2.7,0.7-3.1-0.6c-0.4-1.3,0.9-2.1,1.7-3.1
		c0.7,1,1.8,0.3,2.5,0.8"/>
	<path class="st0" d="M220.1,94.2c-2.9-0.1-4.9,0.8-6.6,2.1c-1.9,1.8-2.4,3.6-1.9,6.1c0.2,1.3,1.5,2.6,2.4,3.7
		c2.8,3.1,6.7,6,8.7,6.8c4,1.9,6.4,3,10.1,3.9c0.4,0.1,0.8,0.2,1.3,0.3c1.7,0.3,3.3,0.6,4.2,2.5c1,2,2.5,1.9,3.7,0"/>
	<path class="st0" d="M374.7,161.5c-1-0.3-1.8,0.4-2.7,0.7c-3.8,1.5-7.8,1.5-11.7,1.9c-6.3,0.6-12.6,0.7-18.9,0.7
		c-2.8,0-5.6-0.5-8.5-0.1c-0.6,0.1-1.3-0.1-1.8,0.6"/>
	<path class="st0" d="M257.9,120.3c4.2-0.4,8.3-1,11.9-3.6c1.1-0.8,1.9-1.6,2.3-2.8c0.8-2-0.6-4.9-2.9-5.3c-1.9-0.4-3.5-1.9-5.4-1.4
		c-0.7-0.4-0.7-1-0.7-1.5"/>
	<path class="st0" d="M211.1,106.2c-1.5,0.5-2.5-0.4-3.6-1.1c-1.9-1.2-3.8-2.2-6.1-2.6c-2.1-0.4-3.7,0.3-5,1.3c-4,3-6.4,7.6-10.3,14
		c-0.5,0.9-2.6,4.5-2.8,5.6"/>
	<path class="st0" d="M164.8,155.2c0.9,1.3,2.4,1.2,3.6,1.6c4.4,1.4,8.4,3.6,12,6.4c0.6,0.4,1.1,0.9,1.8,1.2
		c2.5,1.1,3.2,3.3,3.4,5.8"/>
	<path class="st0" d="M361.3,77.7c-0.2,1-0.7,1.6-1.8,1.4c-0.2,0-0.6,0.2-0.6-0.4c0-1.8-1.2-1.6-2.3-1.3c-1.4,0.4-2.9,0.7-4.3,1.1
		c-2.5,0.6-2.7,0.9-2.1,3.6c-3,0.9-5.2,2.9-6.9,5.4c-2.4,3.7-4.8,7.3-5.1,12c-0.1,2.2,0.5,4.2,0.3,6.3c-0.1,1.2,0,2.2-1.4,2.8
		c-1,0.4-1.9,1.3-2.2,2.4c0.8,1.1,2.8,1.7,6,1.9"/>
	<path class="st0" d="M253.5,147.6c1.4,1.1,0.7,2.9,1.2,4.3c1.1,3.3,2.1,6.6,2.5,10.1c0.2,2,0.1,4,0.2,5.9c0.1,2,0.7,2.5,2.7,2.4
		c1.5-0.1,3-0.4,4.5-0.8"/>
	<path class="st0" d="M213.8,222.8c-1.2-0.6-2.4-0.4-3.6,0c-3.1,1-6.2,0.9-9.4,1c-3.5,0.1-7.2-0.8-10.6,0.6"/>
	<path class="st0" d="M350.8,125.4c-1,1-1,2-0.2,3.3c1,1.5,1.3,3.4,2.1,5c1.5,3,3.9,5.4,6.3,7.7c1.2,1.2,2.7,1.7,4.3,2.6
		c0.4,0.2,0.1,1.6-0.1,2c-0.2,0.5-0.7,0.6-1.2,0.6c-1.3,0-2.7-0.4-3.6,1.2c-0.1,1.2,0.9,2.3,1.5,3.4"/>
	<path class="st0" d="M259.5,170.8c-0.2,2.9-0.5,5.9-0.7,8.8c-0.3,4.6-0.8,9.2-0.5,13.9"/>
	<path class="st0" d="M398.3,134.1c-2,3.9-4.4,7.4-7.1,10.7s-5,6.7-6.2,10.7c-1,3.4-2.9,6.6-3.2,10.2c-0.1,0.8,0.1,1.4,0.2,2.2"/>
	<path class="st0" d="M251.9,151.8c1.3,0.6,1.9,2.4,0.9,3.7c-0.9,1.1-1.1,2.6-2.2,3.6c2.1,3,1.9,6,0.2,9.1c-0.8,1.4-1.3,3.1-0.4,4.9
		c0.2,0.5,0.2,1.3,0,1.8c-1,2.4-0.5,5-1.2,7.4c-0.7,2.2-0.5,4.6-0.5,6.8c0,0.3-0.1,0.6-0.2,0.9"/>
	<path class="st0" d="M146.1,171.7c-1.2-1.8-3.2-1.1-4.7-1c-2.3,0.2-4.6,0.1-6.9,0c-3.1-0.1-6.2,0.3-9.4,0.5
		c-6.4,0.4-12.8,1.6-19.3,0.6c-0.9-0.1-1.8,0.1-2.7,0.3c-1.8,0.4-3.5,0-5.2,0"/>
	<path class="st0" d="M4.1,155.4c5.7,1.9,10.8,5.1,16.2,7.6c2.7,1.2,5.7,1.9,8.3,3.4c3.3,2,6.9,3.4,10.4,5.2
		c0.5,0.3,1.1,0.4,1.7,0.7"/>
	<path class="st0" d="M183.9,158.2c-0.1-1.7-1.5-2.4-2.7-3c-2.5-1.3-5.3-1.4-8.1-1.2s-5.6,0.2-8.3,1.1c-0.6,0.2-1.1-0.2-1.4-0.4
		c-0.7-0.5-1.5-0.6-2.2-1"/>
	<path class="st0" d="M197.4,212.2c1.4,0.9,3,1.1,4.5,1c3.2-0.1,6.3,0.4,9.4,1.3c1.2,0.3,1.9,0.9,2.4,2c-0.6,1.1-2.1,0-2.6,1.1"/>
	<path class="st0" d="M371.1,218.9c1-0.5,2.2-0.2,3,0.2c1.6,0.9,3.4,1.4,5.1,1.9c0.5,0.2,1.1,0.3,1.4,0.1c1.9-0.9,4-0.6,5.9-1.3
		c0.7-0.2,1.2,0,1.6,0.2c2.7,2,4.4,4.5,5.3,7.9c0.9,3.5-0.2,6.6-0.6,9.9c-0.1,0.5-0.9,0.6-0.5,1.3"/>
	<path class="st0" d="M468.3,161.1c-2.1,0.4-4.1-0.2-6.1-0.4c-3.4-0.4-6.8-0.7-10.3-1.1c-3.2-0.4-6.4-0.1-9.5,0.1"/>
	<path class="st0" d="M230.7,182.6c2,1.4,4.4,2.2,6.7,2.8c3,0.8,5.7,2.2,8.6,3.2c1,0.4,2.4,0,3.1,1.2"/>
	<path class="st0" d="M390,145.6c-0.1-0.1-0.3-0.2-0.4-0.4c-0.5-3.1-2.5-4.4-5.2-5.3c-0.9-0.3-1.5-0.3-2.2,0.2
		c-4,3.2-7.2,7-9.8,11.5c-0.6,1-0.5,2.1-1.1,3.1"/>
	<path class="st0" d="M188.9,216.5c4.6,0.4,9.2,0.8,13.9,1.3c2.1,0.2,4.1,0.4,6.1-0.1c0.8-0.2,1.4,0.1,2,0.3
		c0.8,0.4,1.6,0.8,2.6,0.8c1.1,0,1.7,0.4,2.2,1.4c0.6,1.4-0.9,1.3-1.3,2"/>
	<path class="st0" d="M362.9,150c-1.4-0.1-2.4,1-3.5,1.6c-1.8,0.9-3.7,1.5-5.4,2.4c-2.5,1.2-4.8,2.7-6.9,4.6
		c-0.9,0.9-1.8,1.9-2.9,2.5c-0.4,0.2-0.5,0.6-0.4,1.1"/>
	<path class="st0" d="M385,108.3c1.3,0.3,1.8,1.2,1.2,2.3c-0.7,1.5-0.9,3.3-1.9,4.7c-0.2,0.3-0.2,0.8-0.2,1.2c0.6,3.3,1,6.7,2.3,9.9
		c0.6,1.4,0.6,3,1.9,4.2c0.5,0.5,0.9,0.6,1.5,0.7"/>
	<path class="st0" d="M257.7,118.7c0.4,4.3-0.9,8.2-2.8,12.1c-1.2,2.5-2.2,5.3-1.5,8.2c0,0.2-0.1,0.4-0.2,0.5"/>
	<path class="st0" d="M214.1,223c0.9,0.8,2.4,0.8,3.1,1.9c-0.4,2.1-2.3,2-3.7,2.3c-2.6,0.6-5.3,0.6-7.9,1.2
		c-2.9,0.7-5.8-0.2-8.7-0.1c-1.5,0.1-3.1-0.7-4.5,0.4c-0.3,0.2-0.9-0.1-1.4-0.1"/>
	<path class="st0" d="M528.2,122.2c-0.3,2.1,0.2,4.2,0.4,6.3c0.1,0.9,0.2,1.8,0.3,2.7c0.1,1.3,0.9,1.8,2.2,1.6
		c3.4-0.4,6.8-0.5,10.1,0.7c0.4,0.1,0.8,0.5,1.2,0"/>
	<path class="st0" d="M374,225.6c0.1-1.2-0.8-1.3-1.6-1.4c-2.6-0.6-5.2-0.2-7.7-0.5s-4.9,0.2-7.2,1.2c-0.9,0.4-1.7,0.6-1.6,1.8
		c0.1,1.3,0.9,1.7,2,1.8c2.8,0.2,5.6,0.8,8.5,0.7c0.5,0,1.2-0.3,1.6,0.2c1.4,1.5,3.4,1.1,5.1,1.9c0.4,0.2,1.5,0.4,1.6-0.7"/>
	<path class="st0" d="M235.5,151.4c0.5,3.3,1.3,6.5,2.6,9.5c0.6,1.5,0.5,3.1,1.4,4.5"/>
	<path class="st0" d="M168.4,172.3c1.4,2,2.7,4.1,5.2,5.3c2.8,1.3,4.4,3.9,4.7,7.1"/>
	<path class="st0" d="M240.9,109.3c-0.2-2.4-2.1-2.8-3.8-3.2c-1.3-0.3-2.7-0.7-4.1-0.2c-0.1,0-0.3,0.2-0.4,0.2
		c-1-0.6-1.8-0.6-2.3,0.6c-0.3,0.6,0.9,2.4,1.8,2.7c2.4,0.7,4.8,0.9,7.2,0.5c2.2-0.3,4.3,0.1,6.5,0.1c2.9,0,5.9,0.4,8.8,0.7
		c0.2,0,0.4-0.1,0.5-0.2c2.6-1.1,5.5-1.4,7.9-3.1"/>
	<path class="st0" d="M521.4,110.7c1.8,0.6,3.7,1.2,5.8,1.9c-0.1,1.2,0.4,2.6,0.3,3.8c-0.1,1.6,0.8,3.1,0.5,4.7
		c-0.1,0.6,0.3,0.9,0.9,0.9c3.4,0.2,6.2,1.8,9,3.6"/>
	<path class="st0" d="M222.8,93.7c-2.2-0.1-2.4,0-2.7,2c-0.1,0.9-0.6,1.7-0.9,2.5c-0.5,1.2-0.5,2.3,0.5,3.4
		c2.8,3.3,6.4,4.6,10.5,5.2"/>
	<path class="st0" d="M245.4,148.6c-0.1,0.1-0.1,0.3-0.2,0.4c-2.8,1.5-3.1,4.4-3.5,7c-0.4,2.4-0.4,5-1.1,7.3
		c-1.1,3.8-0.2,7.5-0.6,11.2c-0.1,0.7,0.2,1.4,0.3,2.2"/>
	<path class="st0" d="M370.4,130.1c-0.6-0.4-1.3-0.8-1.8-1.3c-1.8-1.8-5.2-2.7-7.2-1.2c-0.8,0.6-1.5,2-2.8,2.3
		c-1,0.3-0.8,1.2-0.9,1.8c-0.1,1.3-0.4,2.7,0.3,3.9"/>
	<path class="st0" d="M177,170.6c4.4,0.9,5.6,6.9,4.7,9.9"/>
	<path class="st0" d="M251.4,139.3c0,1.4,0.1,2.8,0.9,4.2c1.1,1.8,0.5,3.8,0.2,5.7c-0.1,0.8,0,1.6,0,2.3"/>
	<path class="st0" d="M234.6,130.5c-1.5-0.1-2-0.8-1.8-2.3c0.1-1.3-1.1-4.2-2.3-5.8c-0.4,0.1-0.8,0.1-1.3,0.2"/>
	<path class="st0" d="M369.9,237.6c-1.3,2.6-0.8,3,1.7,4.6c1.7,1.1,3,1.1,4.6,0.8"/>
	<path class="st0" d="M199.7,204.6c-1.8-0.5-3.6-1.1-5.4-1.7c-2.5-0.9-5.1-1-7.6,0.4c-0.8,0.5-2.1,0.3-2.5,1.5"/>
	<path class="st0" d="M369,111.4c-5.2-1.2-8.6,1-10.9,3.6c-0.2,0.2-1.3,1.5-1.4,1.6"/>
	<path class="st0" d="M261.8,5.1c1.3,1.3,1.2,3.3,2,4.9s1.3,3.2,2,4.8"/>
	<path class="st0" d="M264.3,221.1c3.1,1.4,6.3,2.7,9.4,4.1c1.8,0.9,3.7,0.2,5.6,0.3c0.9,0,1.2-1,0.7-1.9c-0.3-0.5-0.7-1-1.1-1.4"/>
	<path class="st0" d="M253,120.6c-0.9-1.1-2.1-0.3-3.1-0.5c-2-0.3-3.9-0.7-5.9-0.6c-1.1,0.1-2.3-0.1-3.2-0.8s-2-1.2-3.2-0.6"/>
	<path class="st0" d="M265.9,217.8c1.6,0.2,2.7,1.5,4.1,2c1.9,0.7,4,0.9,6,1.1c1,0.1,1.6,0.5,2.3,0.8"/>
	<path class="st0" d="M244.4,174.2c0.5,0.2,0.9,0.4,1.4,0.5c1,0.2,1.1,0.8,1.1,1.8c0.1,2.1,0.1,4.2-0.1,6.3c-0.1,0.7,0.1,1.4-0.4,2"
		/>
	<path class="st0" d="M275.1,226c0,2.6-1.3,3.4-4.3,2.9c-2-0.4-3.9-1-5.9-1.1c-0.7,0-0.8-0.6-1.3-0.9"/>
	<path class="st0" d="M374.9,220.6c-1.1,1.4-2.9,1-3.9,0.6c-2.6-1.1-5.2-0.1-7.8-0.4c-0.4,0-1.9,0.2-1.2,1.5"/>
	<path class="st0" d="M340.6,110.6c0.6,3.3,2.2,6.1,4.3,8.7c1,1.3,1.7,2.9,2.1,4.6c0.4,1.6,1.2,3.1,3,2.7"/>
	<path class="st0" d="M271.1,210.6c1.9,1.4,4.3,1.9,5.6,4.1c0.2,0.9-0.9,1.1-1.1,1.8"/>
	<path class="st0" d="M237.2,180.9c-0.7-1.6-0.4-3.2-0.7-4.9s-1.2-2.6-3.1-2.7"/>
	<path class="st0" d="M243.4,132.5c-0.7,1.3,0.7,2.1,1.4,2.1c2.1,0.4,2.8,0.1,5.3,0.2"/>
	<path class="st0" d="M183.3,194.2c0.6,0.8,1.4,0.2,2.2,0.4c3.9,1.2,4.1,4.7,5.2,7.6"/>
	<path class="st0" d="M235.8,131c0,2.2,0.1,4.4,1.3,6.3c0.6,1,1.4,1.7,2.7,1.6c0.4,0,0.9,0.1,0.9,0.4c-0.2,1.5,1.5,1.2,1.9,2.1
		c0.2,0.6,0.9,0.6,1.4,0.2c0.4-0.3,0.9-0.2,1.3-0.1c1.9,0.4,2.9-0.6,3.6-2.2"/>
	<path class="st0" d="M367.3,130.6c-1.4,0.9-2.4,1.3-3.9,1.9c-0.9,0.4-2.3,1.5-2.7,2.3"/>
	<path class="st0" d="M243.8,129.9c-1.1,0-1.9,0.5-2.7,1.1c-1.4,1.1-4,4.9-4,6.7"/>
	<path class="st0" d="M277.9,223.4c-0.1-1.1,0.6-2,1.5-2.1c1.5-0.2,1.8-1.1,1.6-2.2c-0.3-1.1-1.3-1.3-2.3-1.1"/>
	<path class="st0" d="M245.8,164.3c0.5,2.1,0.9,4.2,0.2,6.3"/>
	<path class="st0" d="M277.1,3.9c3.5,0.8,6.6,2.3,9.7,4"/>
	<path class="st0" d="M251.8,129.3c0.1-0.3-2.4-0.6-2.7,1.7c2.6,0.4,4.5,1.4,3.3,3.4c1.3,1.5,0.3,2,1.1,1.5"/>
	<path class="st0" d="M175.8,176.9c1.3,0.7,2.5,1.5,3.8,2.1c2.2,1.1,3,3,3.2,5.2c0.2,2.1,0.3,4.2,0.4,6.3c0,0.2-0.2,0.4-0.3,0.5"/>
	<path class="st0" d="M180.5,189.5c0.3,1.7,2.1,1.6,3.1,2.4c1.8,1.4,2.7,2.9,2.4,5.1"/>
	<path class="st0" d="M369.3,134.7c-0.9,1.2-2.1,1.8-3.4,2.3c-0.7,0.3-1.2,0.5-0.7,1.3"/>
	<path class="st0" d="M371.5,155.2c-0.8-0.5-1.7-0.6-2.5-1.2c-0.9-0.8-2-0.4-3,0"/>
	<path class="st0" d="M242.2,178.6c0.9-0.4,1.4,0.2,2,0.8c-0.7,1.6,0.2,3.5-0.6,5.2"/>
	<path class="st0" d="M244.5,126.4c-1.2,0-2.8,1.1-1.8,2.1"/>
	<path class="st0" d="M177.8,184.9c1.4,0.2,2.6,0.5,3.3,2c0.3,0.5,0.8,1.2,1.6,1.3"/>
	<path class="st0" d="M405.3,53.3c1,1.6,3,1.4,4.3,2.5"/>
	<path class="st0" d="M269.7,215.7c3,0.4,5.6,2,8.5,1.8c0.4,1.1-0.2,1.4-0.6,1.8"/>
	<path class="st0" d="M187.1,122.1c-2,0.8-3.9,1.6-6.1,1.5c-0.3,0-0.8,0.3-0.7,0.9"/>
	<path class="st0" d="M244,169.9c-0.6,0.9-0.3,1.9-0.2,2.9c0.1,1.9,0.4,3.9-0.3,5.8"/>
	<path class="st0" d="M182.1,195.6c-0.1,0.1,0.2,0.4-0.2,0.4c-1.6-0.1-3.1,0-4.5,0.7"/>
	<path class="st0" d="M248.4,130.3c-0.7,0.3-1.2,0.3-2.1,0c-0.5-0.2-1.2-0.9-1.8-0.9"/>
	<path class="st0" d="M346.5,122c0.4-0.2,1-0.4,1.2-0.7c1.3-2.1,3.4-1.4,5.2-1.4c1.4,0.1,1,1.2,0.7,2.1"/>
	<path class="st0" d="M352.7,123.5c0.1-0.8,1.2-1.1,1.2-1.1c-0.6-0.4-1.3-0.4-2.4,0c-0.7,0.4-1.3,1-1.5,1.5
		c-0.7,1.1-0.2,1.8,1.7,0.6c1.3-1.1,3.3,0,3.7,1.8c0.1,0.5,0.2,1.6,0.3,2"/>
	<path class="st0" d="M231.9,168.3c-0.4,0.6,0.1,1.1,0.1,1.6c0.4,2.3,1.7,4.5,0.9,7"/>
	<path class="st0" d="M235.4,165.8c-1.9,0.1-3.3-1.1-4.4-2.2c-1-1-2-1.5-3.3-1.6"/>
	<path class="st0" d="M364.1,125.5c-0.4-1.6-1.8-1.6-3.1-0.8"/>
	<path class="st0" d="M230.3,176.6c0.6,0,1.2-0.1,1.6,0.4c-0.6,1.4,0.2,2.6,0.8,3.8c0.2,0.5,0.9,0.3,1.4,0c-0.8-1.2,0.9-3.7-2-3.8"
		/>
	<path class="st0" d="M230,166.5c1.7,0.5,2.6,2.1,4.1,2.9c0.6,0.3,1.2,0.9,1.4-0.4"/>
	<path class="st0" d="M243.3,164.3c0.1,0.8-0.1,1.6,0.1,2.4c0.2,0.6,0.2,1.5-0.9,1.6"/>
	<path class="st0" d="M370,215.7c-0.2,0.8-0.4,1.6,0.4,2.3s0.5,1.6,0.5,2.5"/>
	<path class="st0" d="M243.1,168.5c0.6,0.4,0.9,1.2,1.6,1.6c2.1,1.2,2.3,1.9,1.6,4.6"/>
	<path class="st0" d="M239.1,150.6c1.2-0.7,2.2,0.5,3.4,0.4"/>
	<path class="st0" d="M249.6,172.3c-1,0.3-1.7-0.7-2.7-0.7"/>
	<path class="st0" d="M352.7,123.5c0.4,0.8-0.1,0.8,0,1.6"/>
	<path class="st0" d="M236.4,179.3c-0.5,0.1-0.9-0.2-1.1-0.6c-0.3-0.6-0.7-0.8-1.3-0.7"/>
	<path class="st0" d="M264.4,227.9c-0.4,1.1-1.5,2-0.9,3.4"/>
	<path class="st0" d="M229.2,162.7c-0.1,0.8-0.2,1.6-0.4,2.3"/>
	<path class="st0" d="M244.2,137.7c1.4-0.3,2.6,0.7,4,0.4"/>
	<path class="st0" d="M395.3,129.8c0.1,0.7,0.1,1.4,0.2,2.2"/>
	<path class="st0" d="M265,230.9c0.6,0.4,1.6,0.5,1.8,1.4"/>
	<path class="st0" d="M249.4,176.8c-0.7-0.3-1.4-0.6-2.2-0.9"/>
	<path class="st0" d="M233.7,145.2c0.9,0.6,0,1.4,0.3,2.2c0.7,1.4,1.9,2,3.4,2.1"/>
	<path class="st0" d="M231.4,164.5c-0.5,0.6,0.2,1.5-0.4,2.2"/>
	<path class="st0" d="M449.6,159.7c0.1,0.7,0.1,1.4,0.2,2.2"/>
	<path class="st0" d="M41,172.3c-0.9,0.4,0.2,0.7,0,1.1"/>
	<path class="st0" d="M265.9,150.4c0,0,2.1-2.5,4.8-3c2.2-0.4,4.3-0.7,8.5-0.2s7.3,0.8,10.1,1.5c2.5,0.7,6.8,1.7,6.8,1.7
		s-1.1,2.8-1.6,3.9c-0.5,1.1-1.5,5.4-1.5,5.4"/>
	<path class="st0" d="M366.1,114.5c0,0-4,1.1-4.8,1.6c-0.8,0.5-2.2,1.5-2.5,1.8c-0.3,0.4-0.5,1.3,0,1.3c0.5,0.1,1.9-0.8,2.3-1.1
		s0.9-0.7,1.6-1.3c0.7-0.5,1.4-1.1,1.4-1.1"/>
	<path class="st0" d="M151,250c0,0,1.7,5.4,2.9,7.5c1.2,2.1,5.7,6.6,7,7.6s6.5,5.6,7.4,6.8s6.7,7,7.4,8c0.7,1,4.3,5.1,6.2,7.2
		c1.9,2.1,4.8,7,5.1,7.6s0.1,4.1-0.1,4.9s-2.3,1.7-0.9,3.9c1.3,2.1,0,5.4,0,5.4"/>
	<path class="st0" d="M215,256.2c0,0,6.4,16.3,7,17.9c0.6,1.6,4.9,9.5,4.1,12.6c-0.8,3.1-1.7,14.2-1.7,15.5s0.6,6.6,0.6,6.6"/>
	<path class="st0" d="M170.3,279.5c0,0-1.5,4.5-1.1,5.3c0.4,0.8-0.7,9.3-0.7,9.3s0.3,10.5,0,11.7c-0.3,1.2-0.8,4.3-0.8,4.3"/>
	<path class="st0" d="M311.6,274.7c0,0-10.7,6.9-13.3,8.5s-12,8.1-14.3,9.6s-9.1,5.3-9.1,5.3s-3.5,3-4.7,4.7c-1.2,1.7-1.7,6-1.7,6"
		/>
	<path class="st0" d="M338.1,308.9c0,0,5.5-2.2,10.8-5.2s9-5.8,11.1-4.6c2.1,1.2,7.6,2.6,8.1,4.8c0.5,2.1,3.1,6.2,3.1,6.2"/>
	<path class="st0" d="M417.9,291.9c0,0,0.5,7.4,0,9.6c-0.5,2.1-1.4,7.4-1.4,7.4"/>
</g>
</svg>
