<?xml version="1.0" encoding="UTF-8"?>
<svg id="a" data-name="Layer 1" xmlns="http://www.w3.org/2000/svg" width="441.43" height="214.07" viewBox="0 0 441.43 214.07">
  <defs>
    <style>
      .b {
        fill: none;
        stroke: #484848;
        stroke-linecap: round;
        stroke-linejoin: round;
        stroke-width: 2px;
      }
    </style>
  </defs>
  <path class="b" d="M193.84,1.08c4.26.97,8.73.84,12.79,2.84,2.73,1.34,4.89,3.49,7.55,4.88,4.38,2.29,7.2,6.22,10.44,9.71,4.16,4.48,7.31,9.65,10.2,14.97,2.13,3.93,2.99,8.3,3.48,12.75.37,3.37.95,6.72,1.41,10.08.4,2.9.15,5.77-.36,8.63-.91,5.18-2.91,10.02-4.65,14.94-1.37,3.87-3.51,7.31-5.61,10.78-3.18,5.29-7.11,9.9-12.02,13.71-3.45,2.68-7.47,4.13-11.34,5.94-3.95,1.85-8.09,3.12-12.27,4.22-3.74.99-7.56,1.59-11.5,1.77-4.61.21-9.04-.61-13.49-1.41-3.03-.54-5.93-1.72-8.63-3.21-3.23-1.77-6.64-3.35-9.48-5.64-4.39-3.53-8.59-7.3-12.18-11.74-2.69-3.32-4.91-6.95-7.35-10.4-2.06-2.9-3.64-6.33-4.5-9.97-.91-3.87-1.72-7.73-2.19-11.69-.6-5.12.08-10.09.7-15.13.33-2.67.97-5.27,1.44-7.89.76-4.25,3.1-7.88,5.64-11.37,2.8-3.83,5.86-7.42,8.98-10.99,1.25-1.43,2.91-2.2,4.41-3.12,2.23-1.37,4.18-3.1,6.51-4.39,2.49-1.38,5.22-2.03,7.66-3.41,2.35-1.33,4.98-2.2,7.56-2.61,3.29-.51,6.4-1.66,9.69-2.17,2.76-.43,5.41.06,8.11.08,2.52.01,5.04.09,7.56-.16.4-.04.88-.23,1.26.16"/>
  <path class="b" d="M38.39,87.07c-1.92-3-3.64-6.15-5.82-8.95-1.86-2.39-4.11-4.54-6.46-6.47-2.1-1.72-3.47-3.89-4.58-6.19-1.76-3.65-3.9-7.01-6.29-10.27-1.68-2.3-2.8-5-4.2-7.51-2.23-3.98-4.86-7.74-6.82-11.88-1.36-2.87-2.6-5.77-3.12-8.98-.46-2.84.69-4.57,3.12-5.56,3.04-1.23,6.23-1.99,9.52-1.26,3.8.84,7.66.99,11.52,1.24,6.85.43,13.75.44,20.51,1.82,5.01,1.02,9.98,2.33,14.38,5.05,2.55,1.58,4.88,3.52,7.37,5.23,2.02,1.39,4.19,2.46,6.35,3.51,6.34,3.08,12.47,6.49,18.13,10.68,5.66,4.19,11.79,7.57,17.82,11.14,1.49.88,2.83,2.01,4.34,2.84,2.77,1.52,5.61,2.93,8.46,4.32.48.24,1.13.14,1.7.2"/>
  <path class="b" d="M212.01,107.93c1.61,2.08,4.08,3.05,6.18,4.4,3.49,2.25,6.57,4.95,9.62,7.69,1.83,1.65,3.77,3.09,5.8,4.46,5.15,3.46,10.8,5.99,16.38,8.62,5.31,2.51,10.7,4.87,16,7.41,4.37,2.09,8.82,3.68,13.67,4.4,3.06.46,6.18.92,9.2,1,4.71.12,9.35.78,14.03,1.05,1.2.07,2.4.47,3.6,0"/>
  <path class="b" d="M85.53,137.44c2.62,4.64,6.04,8.73,9.08,13.07,1.58,2.25,4.04,3.88,6.38,5.47,3.87,2.62,6.99,6.09,10.05,9.55,4.77,5.4,10.11,9.82,17.11,12.08,1.93.63,3.76,1.62,5.77,2.11,1.54.38,3.09.65,4.68.72,1.74.08,3.46.52,5.22.35,1.11-.11,2.24-.17,3.06-1.08.81-.9.77-3.47-.2-4.85-.93-1.32-1.83-2.66-3.02-3.81-4.34-4.2-8.45-8.63-12.06-13.48-1.26-1.69-2.39-3.47-2.17-5.75"/>
  <path class="b" d="M380.06,44.25c.62-.54,1.28-.34,1.98-.19,4.97,1.02,9.74,2.63,14.42,4.63,3.65,1.56,7.16,3.35,10.57,5.31,5.71,3.28,11.29,6.75,15.34,12.18,1.23,1.65,2.87,3,4.28,4.53,4.16,4.52,6.42,10,8.14,15.81,1.98,6.71,3.51,13.53,4.88,20.36.91,4.55.97,9.38.36,13.99-.52,3.93-2.2,7.67-3.79,11.37-1.41,3.27-2.47,6.69-3.63,10.06-1.02,2.96-2.87,5.42-4.68,7.91-2.92,4.02-6.52,7.36-10.21,10.66-4.32,3.87-8.92,7.29-14.28,9.42-4.99,1.98-10.07,3.78-15.44,4.6-2.38.37-4.66,1.31-7.03,1.72-3.03.52-6.1.95-9.17,1.06-3.01.11-5.98.83-8.99.58-4.15-.34-8.3-.59-12.42-1.22-.83-.13-1.77-.35-1.73-1.1.09-1.47-1.19-1.31-1.7-1.36-1.31-.12-2.53-.53-3.76-.85-1.85-.48-3.82.13-5.64-.95-.77-.45-1.88-.7-2.61-1.22-1.28-.92-2.48-.85-3.82-.48"/>
  <path class="b" d="M378.8,44.61c-.48.12-1,.42-1.43.33-4.24-.91-8.54.48-12.79-.47-1.44-.32-2.99-.1-4.49-.23-2.4-.21-4.68.52-7.01.78-3.39.37-6.75,1.07-9.9,2.48-2,.9-4.01,1.82-5.93,2.89-3.52,1.97-7.18,3.77-10.39,6.17-3.87,2.89-7.74,5.9-10.32,10.17-1.49,2.45-3.41,4.57-5.36,6.69-2.06,2.24-3.84,4.68-5.1,7.52-1.33,3.01-2.78,6.01-4.51,8.8-1.96,3.16-3.15,6.62-4.01,10.12-.99,4.03-1.37,8.21-1.35,12.39.04,8.57,1.95,16.73,5.62,24.45,1.48,3.12,2.61,6.42,4.46,9.37,2.63,4.21,5.2,8.46,8.47,12.22,2.12,2.43,4.36,4.76,6.83,6.84,2.08,1.75,4.45,3.12,6.86,4.26,3.41,1.62,4.54,4.62,5.53,7.8.24.78-.55,1.32-1.05,1.2-1.73-.41-3.25.41-4.87.59"/>
  <path class="b" d="M35.15,189.61c1.15,5.86,3.86,10.79,9.02,14,3.75,2.33,7.84,3.71,12.39,3.47,6.33-.33,11.12-3.35,14.12-8.71,1.85-3.31,2.58-7.11,1.77-11.11-.86-4.21-2.42-8.16-5.01-11.42-2.27-2.86-5.56-4.73-9.43-5.13-4.03-.42-7.9.6-11.47,2.1-4.03,1.69-7.22,4.67-9.64,8.49-1.64,2.59-1.77,5.29-1.74,8.13"/>
  <path class="b" d="M128.71,150.03c.01.6-.18,1.35.55,1.6,2.63.91,4.8,2.63,6.77,4.4,3.21,2.89,7.15,3.71,11.04,4.78,3.67,1.01,7.48,1.44,11.13,2.43,5.52,1.5,11.13,1.55,16.75,1.96,4.27.31,8.52.34,12.78.12,5.88-.3,11.75-.83,17.63-.82,4.24,0,8.39-.65,12.59-.89,4.26-.24,8.53-.39,12.79-.7,4.17-.31,8.4.22,12.59.76,4.96.64,9.95.96,14.93,1.49,2.8.3,5.47,1.17,8.1,2.15,3.79,1.41,7.59,2.76,11.51,3.81,3.66.98,6.96,2.71,9.94,5.14,1.87,1.53,3.97,2.82,6.1,3.97,4.68,2.52,9.2,5.16,13.39,8.55,4.15,3.35,8.26,6.75,12.28,10.24,3.88,3.38,7.73,6.8,11.76,10,1.66,1.32,3.56,2.34,5.38,3.44,2.02,1.22,3.92.45,5.75-.54,1.68-.91,1.73-2.4,1.67-4.13-.1-3.32-1.85-5.76-3.85-8.07-1.22-1.41-2.01-3.22-3.75-4.17-.17-.09-.36-.36-.35-.53.22-3.24-2.29-5.28-3.4-7.93-1.16-2.75-3-5.09-4.35-7.72"/>
  <path class="b" d="M379.16,48.57c-3.72-.42-7.43-.64-11.16-.02-.93.15-1.92.04-2.87.02-3.09-.08-6.07.48-9,1.44-3.53,1.16-7.23,1.78-10.62,3.41-5.87,2.82-11.74,5.67-16.69,9.95-5.2,4.5-10.34,9.13-14.24,14.9-2.82,4.18-5.77,8.28-8.13,12.75-.19.36-.37.72-.51,1.09-1.59,4.42-2.5,9.02-2.78,13.68-.1,1.68-.13,3.46,0,5.22.25,3.1-.28,6.24-.22,9.35.07,3.97.06,7.96,1.13,11.89.93,3.42,1.87,6.8,3.25,10.08.65,1.55,2.07,2.68,2.27,4.47.02.15.75.63,1.55.63,5.79.06,11.56.15,17.29,1.44,3.16.71,6.47.95,9.71,1.46,2.54.4,4.99,1.08,7.34,1.94,4.03,1.47,8.05,3.04,11.71,5.34,2.46,1.55,4.95,3.12,6.81,5.41.53.65,1.25,1.39.77,2.5-.47,1.08-1.31,1.38-2.35,1.64-1.84.46-3.56-.34-5.19-.72-1.59-.37-2.83-.18-3.97.55-4.21,2.68-8.81,2.56-13.52,2.36-2.64-.11-5.07-1.34-7.74-1.15-1.11.08-2,.27-1.98,1.63"/>
  <path class="b" d="M430.98,111.53c.57,2.68.25,5.4.37,8.09.06,1.45-.34,2.74-1.08,3.96-2.1,3.42-3.87,7-5.23,10.79-.72,2-2.17,3.59-3.47,5.17-2.24,2.75-4.63,5.42-7.49,7.62-6.72,5.18-13.87,9.68-21.26,13.8-2.07,1.15-4.4,1.84-6.81,2.02"/>
  <path class="b" d="M336.16,71.42c1.89,1.27,4.13,1.79,6.17,2.77,3.27,1.57,4.66,4.23,5.69,7.31,1.36,4.07-1.12,10.91-5.72,13.53-2.85,1.62-5.7,2.85-9.01,3.25-5.13.63-11.43-3.21-12.53-8.67-.64-3.16-1.01-6.11-.08-9.2,1.36-4.51,5.02-6.32,9.02-7.7.62-.21,1.35-.39,1.75-.79,1.33-1.32,2.79-1.18,4.35-.69"/>
  <path class="b" d="M71.5,129.16c1.74-.36,3.61.1,5.25-1.04.54-.37,1.03.14,1.46.83,1.93,3.11,4.71,5.52,7.06,8.24,3.76-1.08,7.16-2.7,10.35-4.79,4.33-2.82,8.04-6.31,11.31-10.28.87-1.05,1.1-2.52,1.2-3.77.21-2.77,1.44-5.17,2.16-7.75.84-3.01,1.29-6.13,1.19-9.33-.22-7.74-3.03-14.53-7.23-20.87-3.47-5.24-8.55-8.14-14.4-9.88-3.4-1.01-6.81-2.01-10.26-2.87-3.84-.95-7.78-1-11.69-.71-5.03.37-9.55,2.35-13.84,4.85-2.96,1.73-5.91,3.56-8.09,6.29-1.08,1.35-1.94,2.89-2.81,4.35-2.01,3.37-4.19,6.73-5.28,10.57-.46,1.63-.75,3.34-.9,5.03-.19,2.22-.65,4.39-.7,6.65-.05,2.13.27,4.2.78,6.09,1.44,5.36,3.31,10.64,7.29,14.76,2.6,2.68,5.13,5.49,8.78,6.89,1.16.45,2.18,1.27,3.25,1.95,3.42,2.18,7.26,3.23,11.15,4.14,2.28.54,4.59.33,6.83.1,3-.3,6.08-.18,9.02-1.15.45-.15.96-.22,1.43-.4"/>
  <path class="b" d="M419.1,99.48c-.88-.5-1.86-.2-2.49.22-3.54,2.39-7.63,3.59-11.37,5.53-3.66,1.9-6.78,4.53-9.9,7.19-5.87,5.01-9.94,11.46-13.92,17.88-2.42,3.91-4.1,8.35-4.58,13.07-.09.88.1,1.8.16,2.7"/>
  <path class="b" d="M230.91,49.65c.44,2.41-.57,4.67-.7,7.02-.35,6.08-2.37,11.66-5.28,16.88-2.91,5.22-6.67,9.82-11.27,13.72-2.28,1.93-4.6,3.75-7.22,5.19-3.45,1.9-7.05,3.41-10.98,3.92-.62.08-.88.44-1.25.75"/>
  <path class="b" d="M212.55,29.68c-.92.45-1.56-.38-2.34-.52-4.13-.7-8.26-.58-12.42-.06-3.61.45-7.1,1.3-10.62,2.16-3.56.86-6.34,3.01-9.14,5.11-1.89,1.42-3.75,3.01-5.2,4.86-3.35,4.27-6.96,8.38-8.54,13.8-1.24,4.26-2.6,8.43-2.55,12.96.02,1.96-.41,3.92-.37,5.94.06,2.91,1.35,5.41,2.03,8.1.16.64.72,1.11.47,2-.18.63.72,1.5,1.37,1.73,5.59,1.94,10.99,4.41,16.72,5.99,3.06.84,5.78,2.47,8.63,3.79.43.2.73.7,1.09,1.06"/>
  <path class="b" d="M40.01,88.87c.9.66,1.91,1.21,2.68,2,3.52,3.58,7.96,6,11.57,9.48,2.95,2.83,5.73,5.8,8.39,8.87,4.76,5.5,8.89,11.5,13.33,17.25.34.45.61.95.91,1.43"/>
  <path class="b" d="M124.93,67.1c1.51-.52,2.62.66,3.95.94,1.42.3,2.75.99,4.15,1.37.76.21,1.16.53,1.45,1.28,1.65,4.29,3.19,8.64,5.91,12.43,2.31,3.21,4.62,6.43,6.83,9.72,1.79,2.67,4.34,4.56,6.71,6.61,2.01,1.73,3.99,3.56,6.44,4.73,1.33.64,2.67.99,4.15.9.57-.03.9-.22,1.08-.74"/>
  <path class="b" d="M51.35,82.75c-1.22.72-2.37,1.53-3.45,2.49-1.57,1.39-1.97,3.07-1.36,4.87.58,1.75,1.15,3.46,3.72,3.7,3.71.35,7.26-.81,8.64-3.51,1.27-2.49-.54-7.88-3.08-8.95-.23-.1-.69-.46-1.06-.04-.86.96-2.2.86-3.24,1.44"/>
  <path class="b" d="M148.32,22.66c.71-1.3,3.25-2.28,4.85-1.79,1.93.59,3.32,1.74,3.99,3.76.43,1.3.68,2.64.85,3.97.28,2.19-.35,4.14-2.13,5.57-2.52,2.02-5.17,3.56-8.64,3.09-2.49-.34-4-2.11-5.49-3.7-.82-.88-.37-2.49.28-3.7"/>
  <path class="b" d="M163.62,84.37c-2.38-.34-4.18-1.9-6.09-3.1-4.57-2.87-9.25-5.48-14.24-7.52-2.76-1.13-5.52-2.28-8.28-3.4-.08-.03-.24.11-.36.17"/>
  <path class="b" d="M97.77,96.06c.69,3.08.98,6.25.65,9.35-.37,3.46-1.59,6.78-3.55,9.71-3.52,5.26-8.31,8.99-14.18,11.37-.98.4-1.95.96-2.71,1.77"/>
  <path class="b" d="M58.54,176.29c-1.58,1.89-3.99,2.69-5.64,4.63-4.14,4.84-5.49,10.49-5.7,16.6-.04,1.09.16,2.12.72,3.06"/>
  <path class="b" d="M139.69,24.46c-2.97,3.09-4.65,6.94-6.29,10.8-1.29,3.04-1.7,6.29-1.95,9.53-.19,2.38-.98,4.62-1.16,7.01-.25,3.32.24,6.53.97,9.71.48,2.08.98,4.19,1.97,6.11.29.56.06,1.09.16,1.63"/>
  <path class="b" d="M187.01,96.78c1.36.53,2.77.59,4.13.15,1.35-.43,2.5-.12,3.4.78.91.9,2.06,1.31,3.1,1.93,4.11,2.45,8.27,4.81,12.4,7.22.33.19.6.47.9.71"/>
  <path class="b" d="M44.69,177.55c-.72.54-1.52,1-2.14,1.64-1.04,1.07-.99,2.17-.02,3.04,1.17,1.05,2.44.98,3.42-.18,1.51-1.79,1.15-3.28-1.08-4.5"/>
  <path class="b" d="M340.48,173.77c.43.92,1.29,1.17,2.16,1.45,1.93.63,3.86,1.26,5.94,1.07"/>
  <path class="b" d="M69.16,192.3c-.96,2.16-1.92,4.32-2.88,6.48"/>
  <path class="b" d="M373.76,42.99c.94.38,1.92.16,2.88.16,1.53,0,2.7.62,3.6,1.82"/>
  <path class="b" d="M339.22,70.52c-1.11.11-2.36-.43-3.24.72"/>
  <path class="b" d="M165.24,85.99c-.12.79.3,1.39.72,1.98"/>
  <path class="b" d="M54.23,81.13c-1.02-1.17-2.04.28-2.9-.17-.67.72.06,1.12.02,1.61"/>
</svg>