<?xml version="1.0" encoding="utf-8"?>
<!-- Generator: Adobe Illustrator 28.1.0, SVG Export Plug-In . SVG Version: 6.00 Build 0)  -->
<svg version="1.1" id="a" xmlns="http://www.w3.org/2000/svg" xmlns:xlink="http://www.w3.org/1999/xlink" x="0px" y="0px"
	 viewBox="0 0 764.5 501.6" style="enable-background:new 0 0 764.5 501.6;" xml:space="preserve">
<style type="text/css">
	.st0{fill:none;stroke:#484848;stroke-width:2;stroke-linecap:round;stroke-linejoin:round;}
</style>
<path class="st0" d="M473.5,391.7c-0.2,0.2-0.5,0.5-0.7,0.7c-0.1,0.1-0.4,0.2-0.4,0.4c-1.8,5.3-4.9,9.9-7.8,14.6
	c-3,4.7-6,9.2-9.8,13.4c-3.4,3.8-7,7.4-10.8,10.9c-3.2,3-6.8,5.6-10.2,8.3c-1.4,1-2,2.4-2.8,4c-0.7,0-1.4-0.2-1.6-1
	c-0.3-1-1-1.7-1.7-2.3c-3.1-2.9-5.5-6.4-8.8-9c-2.9-2.4-6.1-4.3-9.4-6c-2.1-1.1-4.4-1.9-6.4-3c-1.2-0.7-2.3-1.6-3.6-2.1
	c-3.9-1.6-8-2.6-12.2-3.3c-1.4-0.2-2.9-0.9-4.3-0.6c-2.2,0.4-4.2-0.6-6.3-0.5c-1.5,0.1-1.8-0.5-1.3-1.9c1.9-5.7,4.3-11.1,6-16.9
	c1.9-6.4,4.2-12.7,6-19.1c1.4-5.3,3.1-10.5,5-15.6c1.3-3.5,2.3-7.1,3.6-10.6c0.9-2.4,1.7-4.8,1.8-7.4c0-1.5,1-2.8,1.8-3.9
	c2.5-3.5,3.7-7.5,4.8-11.5c0.9-3.2,1.1-6.5,0.3-9.7c-0.1-0.5-0.5-1-0.7-1.5c-0.8-1.9-1.2-3.9-0.5-5.9c0.3-0.9,0.1-1.4-0.8-1.6"/>
<path class="st0" d="M406.9,314.8c1.7,0.2,3,1.1,4.3,2.2c1.4,1.2,2.9,2.3,4.5,3.2c1.1,0.6,2.4,0.9,3.8,1c4.8,0.2,8.9,1.9,12.5,5.1
	c2.9,2.6,6.4,4.4,10.4,5.1c0.2,0,0.4,0.1,0.5,0c2.7-1.4,5,0,7.2,1.1c1.5,0.8,2.9,1.3,4.5,0.8c2.3-0.7,3.9,0.8,5.6,1.8
	c0.6,0.4,1,1.1,1.6,1.6c1.5,1.1,2.7,2.6,5.1,1.2c1.9-1.2,4.5-1,6.6-0.2c4.3,1.7,8.6,3.5,12.2,6.9c2.5,2.4,4.9,5,8.4,6.2
	c0.7,0.2,1.4,0.7,1.8,1.4c0.7,1.1,1.9,1.6,2.8,2.4c2.8,2.3,5.2,5.1,5.4,9c0.1,2.1,0.9,3.9,2.1,5.1c2.4,2.2,3.3,5.1,4.3,7.9
	c2.2,6,3.9,12.3,6.1,18.3c0.9,2.5,1.8,5,3.1,7.5c1.3,2.4,2.7,5,2.5,8c0,0.4,0,0.9,0.2,1.2c1.9,2.7,1.4,5.9,2.1,8.8
	c0.6,2.3,0.6,4.8,1.8,7c0.7,1.3,0.4,2.8,0.7,4.1c0.9,4,1.8,8,3,11.9c0.6,1.9,1.3,3.9,1.7,5.9c0.1,0.6,0,1.2-0.3,1.8"/>
<path class="st0" d="M410,254c0.8,1.3,0.4,2.7,0.1,3.9c-0.6,2.6-0.5,5.3-1.6,7.8c-2.1,5-4,9.9-7.4,14.3c-2.4,3.1-5.1,5.7-8.1,8.2
	c-6.4,5.3-13.5,9.4-21.2,12.5c-3.9,1.6-7.9,2.5-11.9,3.6c-3.3,0.9-6.7,1-10.1,0.1c-3.1-0.8-6.5-0.8-9.5-1.8
	c-3.8-1.3-7.7-2.5-11.3-4.6c-4.8-2.9-9.7-5.7-14.1-9.2c-3.8-3-7.4-6.2-9.9-10.4c-1.1-1.9-2.1-3.9-2.4-6.1c-0.1-0.7-0.3-1.5-0.7-2
	c-1.9-1.8-1.8-4.2-2.1-6.5c0-0.3-0.1-0.6-0.2-0.9"/>
<path class="st0" d="M705.9,214.8c0.2,1.9,1.8,3.5,1.6,5.6c-0.6,6-1.4,11.9-4.4,17.3c-2.1,3.8-3.9,7.7-6.6,11.1
	c-1.6,2-3.4,3.9-5.4,5.6c-3.8,3.1-6.8,7-10.6,10c-5.4,4.2-10.8,8.3-17.1,11.2c-3.8,1.8-7.5,3.8-11.4,5.3c-2.6,0.9-5.2,1.6-7.9,2.2
	c-1,0.2-2.2,0-3.2,0c-2.4,0.1-4.6,0.9-6.8,1.6c-2.7,0.9-5.5,0.5-8.3,0c-3.4-0.6-6.8-1.2-10.2-1.8c-0.7-0.1-1.3-0.6-2-0.9
	c-3.7-1.3-7.2-3.3-10.4-5.5c-2.5-1.8-4.8-4.3-6.3-7.1c-1.9-3.5-3.8-7-5.3-10.8c-1-2.4-1.6-4.8-1.7-7.4c0-2.5-0.7-4.9-0.3-7.4
	c0.8-5.5,1.2-11.2,3.6-16.4c0.8-1.8,2-3.3,2.7-5"/>
<path class="st0" d="M58.6,225.2c0.3-1.1-0.8-1.3-1.3-1.4c-2.4-0.6-4.8-1.6-7.4-1.5c-3.2,0.1-5.2,1.9-4.4,4.8c0.8,3.1,0.9,6.4,2,9.4
	c0.4,1.1,1.2,1.9,1.7,2.9c3.2,6.4,7.7,11.8,11.7,17.7c3,4.4,6.3,8.6,10.5,11.8c3.7,2.9,7,6.3,10.8,8.9c2.7,1.8,5.8,3.1,9.1,3.7
	c2.4,0.5,4.7,1,7,1.6c2.7,0.7,5.4,0.7,8.1,0.7c1,0,2,0.1,3.1,0.2c3.9,0.4,7.7,0,11.5-0.5c2.6-0.4,5.3-0.3,7.9-0.9
	c1.2-0.2,1.9-1.1,2.9-1.5c4.3-1.9,7.2-5.2,10-8.9c4.1-5.6,7.6-11.5,11.6-17.2c1.2-1.7,2-3.7,3.2-5.4c0.6-0.9,0.2-2.4,1.1-3.4"/>
<path class="st0" d="M592.5,223.4c-3.3,2.8-6,6.3-9.5,8.8c-2.1,1.4-4.1,2.8-5.9,4.5c-0.5,0.5-1.3,0.9-2,1.1c-2.9,0.6-5.2,2.3-7.5,4
	c-2,1.5-4.4,1.9-6.5,3.2c-0.1,0.1-0.4-0.1-0.5,0c-3.1,3.3-7.7,3.6-11.5,5.4c-1.8,0.9-3.7,1.2-5.6,1.6c-1,0.2-1.8-0.2-2.7-0.2
	c-2.7,0-4.9,1.1-6.9,3c-2.7,2.7-5.7,4.8-9.4,5.9c-2.1,0.6-3.8,1.9-5.6,2.6c-3.2,1.3-5.5,3.7-8.4,5.4c-1.3,0.8-2.2,1.9-3.2,2.9
	c-0.9,0.9-1.9,1.5-3,2c-1.9,0.9-3.5,2.3-5.3,3.4c-2.2,1.4-4.5,2.8-6.9,3.9c-1.3,0.7-2.4,1.6-3.4,2.6c-4.7,4.7-7.8,10.2-9.2,16.7
	c-0.8,3.8-2,7.4-3,11.2c-0.3,1.1-0.5,2.3-0.5,3.4c0,4-1.2,7.9-1.5,11.9c-0.2,2.5-0.5,4.9,0.6,7.2c0.6,1.3,0.2,2.7-0.3,4"/>
<path class="st0" d="M159.4,244.1c4-0.8,8,1.7,8.7,5.2c0.2,1.3,1.4,2,2.5,2.7c6.8,4.3,13.1,9.2,19.3,14.4c2.5,2.1,5.2,4,7.9,6
	c3.9,2.8,7.4,5.9,11.2,8.8c4.7,3.5,9.9,6.2,14.1,10.3c4.6,4.5,9.4,8.9,14,13.3c0.2,0.2,0.2,0.5,0.4,0.7"/>
<path class="st0" d="M313.8,304.8c0.2-1.3-0.6-1.6-1.6-1.4c-0.2,0-0.5,0.3-0.7,0.3c-1.5,0.2-3.1-0.1-3.8,2c-0.5,1.4-1.3,2.7-1.1,4.3
	c0.2,1.4-0.8,2.6-0.9,4.1c-0.1,2,0.1,4-0.8,6c0,0.1,0,0.7,0.1,1c1.2,2.7,0.8,5.6,1.1,8.5c0.7,6.8,2.3,13.4,3.8,20
	c1,4.4,1.9,8.9,3.3,13.1c1.3,4.1,1.9,8.3,3.6,12.3c1.1,2.5,1.5,5.2,2,7.9c0.2,1.1,0.6,2.1,1,3c2.5,6.8,4.5,13.6,5.5,20.7
	c1,7,2.2,13.9,3.5,20.9c0.6,3.1,0.6,6.2,1.1,9.4c0.1,0.5-0.2,1-0.4,1.4"/>
<path class="st0" d="M337.1,136c1.6-1.6,3.8-2.1,6-2.5c1.6-0.3,3.2-0.6,4.9-0.7c2.6-0.3,5.2,0.3,7.7,0.7c1.2,0.2,1.8,1.8,3.2,2.1
	c4.2,1.2,8.5,2.5,12.6,3.9c2.2,0.8,4.5,1.6,6.1,3.6c0.8,1,1.6,1,3.1,0.9c3.1-0.2,6.2-0.7,9.4,0.7c6,2.6,11.6,5.7,16.1,10.6
	c1.8,2,3.9,3.9,5.9,5.8c1.1,1.1,1.7,2.5,2.4,3.9c0.4,0.8-0.3,0.5-0.4,0.7"/>
<path class="st0" d="M695.4,376.4c-1.3,0.7-2.7,1.4-2.7,3.2c0,0.2-0.1,0.4-0.2,0.5c-1.5,1.2-2.2,2.9-3.2,4.4c-1.6,2.3-3.9,4-5.6,6.1
	c-2.1,2.6-4.7,4.7-6.7,7.4c-1.8,2.5-4.5,3.8-7.2,5.3c-3.8,2.1-7.3,4.7-11.2,6.4c-3.6,1.5-7.1,3.5-10.9,4.4c-2.1,0.5-4,2-6.1,2.5
	c-1.9,0.5-3.8,1.1-5.8,1c-0.9,0-1.4,1.2-2.3,0.6"/>
<path class="st0" d="M278.6,210.1c-1.2,2.9-1.7,5.9-2.2,9c-0.5,2.9-0.8,5.9-1,8.8c-0.2,2.7,0.6,5.4,0.8,8.1c0.1,1.7,0.5,3.4,0.5,5.1
	c0,4,1.7,7.2,3.5,10.4c0.6,1.1-0.2,2.1-0.7,3.1c-2.8,5.8-7.5,10.1-10.8,15.5c-1.4,2.3-2.9,4.7-3.7,7.2c-0.9,2.9-1.4,6.1-1.5,9.1
	c-0.1,5.9,0,11.9,0.6,17.8c0.3,3.3,1,6.6,1.5,9.9"/>
<path class="st0" d="M699,377.2c0.2-2.6-1.8-4.2-3.1-5.9c-1.6-2-3.4-4-5.6-5.4c-3.2-2.1-6.1-4.6-9.8-5.9c-1-0.3-1.9-1.1-2.7-1.8
	c-2.2-2-5.1-2.7-7.8-3.9c-1.4-0.6-2.9-1-4.3-1.7c-2.4-1.1-4.9-1.9-7.4-2.2c-4-0.5-8.1-0.9-12.2-0.8c-2.6,0-5.2-0.2-7.7,0.1
	c-2.2,0.2-4.4,0.9-6.7,0.8c-2.9-0.1-5.6,1.2-8.5,1.4c-1.1,0-2.2,0.6-3.2,1c-6.1,2.2-11.8,5.2-17.5,8.4c-7.7,4.2-13.8,10.2-19.7,16.3
	c-1.4,1.4-2.4,3.2-3.6,4.8c-2.1,2.7-4.7,5-6.7,7.9c-1.3,1.9-2.5,3.8-3.4,6"/>
<path class="st0" d="M354.3,220.9c-0.2-0.4-0.2-0.9-0.9-0.9c-3.6-0.4-5.3,0.6-7.5,4.9c-1.5,3-3.1,6-5.8,8.3c-2.6,2.3-5.6,3-9,3.1
	c-2.8,0.1-5.5-0.2-8.3,0c-4.6,0.4-9.1-0.3-13.5-1.9c-3.3-1.2-4.9-3.9-6.1-6.9c-0.4-1.1-1.2-2.1-0.6-3.4"/>
<path class="st0" d="M547.1,407.8c1.8,0.4,2.9,2,4.1,3.1c1.6,1.5,3.5,2.5,5.3,3.7c1.3,0.8,2.2,1.8,2.5,3.3c0.1,0.4,0.2,0.6,0.4,0.9
	c1.7,2.6,1.8,5.5,2.2,8.4c0.5,3.5,1.5,6.9,2.5,10.3c1.1,3.8,2.2,7.5,3.2,11.3c1.1,4,3.2,7.4,5.2,11c0.8,1.5,1.2,3.2,1.8,5
	c-2.4,0.2-4.6,0.8-6.6,2"/>
<path class="st0" d="M756.1,327.5c-1.1,1.2-1.9,2.5-2.7,4c-0.7,1.2-1.5,2.2-2.6,3.1c-1.4,1-2.8,2.2-3.5,3.9
	c-0.2,0.4-0.5,0.9-0.9,1.1c-2.9,1.5-4.3,4.5-6.8,6.6c-3.2,2.7-6.4,5.3-9.1,8.6c-1.8,2.2-4.4,3.5-6.5,5.4c-2.4,2.2-5,4.1-6.9,6.8
	c-1.2,1.7-3.1,2.7-4.7,4.1c-2.3,2.1-4.3,4.6-7.5,5.7c-2.1,0.7-1.9,1.1-2.9-0.8c-0.1-0.2-0.1-0.4-0.2-0.5"/>
<path class="st0" d="M193.2,389.8c0.1,1.9-1.1,3.3-1.6,5c-0.8,2.6-1.8,5.2-2.2,7.9c-0.2,1.6-0.3,3.2-0.4,4.9
	c-0.2,4-1.7,7.7-2.4,11.5c-0.7,3.8-1.7,7.5-2.1,11.3c-0.4,4-0.8,8.1-1.6,12.1c-0.5,2.5-0.5,5-0.8,7.5c-0.3,3.3-0.6,6.6-0.9,9.9
	c-0.2,2.9-0.5,5.8-0.5,8.6c-0.1,4.4,0.2,8.8-0.1,13.1c-0.2,3,0.2,5.9,0.6,8.8"/>
<path class="st0" d="M683.9,201.8c-3.3,5-6.8,9.8-10.5,14.6c-1,1.2-2.2,2.4-3.6,3.2c-3,1.9-5.6,4.4-8.4,6.5c-2.5,1.9-4.9,4-7.9,5
	c-2.7,0.9-5.5,0.7-8.3,0.9c-3.7,0.2-7.3,0.5-11,0c-2-0.3-3.9-0.9-5.8-1.4c-1.8-0.5-3.6-0.8-5.2-1.9c-0.4-0.3-1.2-0.2-1.8-0.2
	c-1.2,0-2.4-0.2-3.2-0.9c-1.8-1.6-4.1-2.4-6-3.8c-2.6-1.9-5.7-3-7.9-5.4"/>
<path class="st0" d="M420.4,440.9c-1.7,1.3-3.5,2.4-4.6,4.2c-1.9,3.1-4.6,5.5-6.8,8.4c-1.9,2.5-4.5,4.3-7.5,5.7
	c-1.2,0.6-2.2,1.7-3.5,2.3c-5,2.1-9.7,4.9-14.9,6.5c-2.5,0.8-5,2.1-7.4,2.7c-3.5,0.9-6.6,2.7-10.2,3.3c-2.9,0.5-5.6,1.4-8.5,2.1"/>
<path class="st0" d="M225.1,93.3c-1,1-1.8,2.1-0.9,3.6c0.3,0.5-0.1,1-0.5,1.4c-1,0.9-1,1.9-0.8,3.2c0.2,2,0.6,4.2-0.4,6.3
	c-0.3,0.7-0.4,1.4-1.5,1.5c-1.1,0.1-1.2,1.4-0.8,2.1c0.4,0.8,0.1,1.3-0.3,1.8c-1.3,1.8-1.7,4.1-3.9,5.3c-1,0.6-1.6,1.8-0.8,3.2
	c0.6,1,0.4,2.1-1.2,2.4c-0.7,0.1-1.5,0.6-1.9,1.5c0.4,1,1.3,1.9,1.5,3.3c-0.8,1.5-2.5,2.1-3.7,3.3c-1,1.1-1.1,2.1-1,3.3
	c0.2,2.1-0.9,4.2-2.9,5c-0.5,0.2-1.1,0.6-1.6,0.7c-1.6,0.4-2.3,1.5-2.3,3.1c0,1.1-0.2,1.6-1.4,2.1c-1.5,0.5-2.4,2.1-2.5,3.7
	c-0.2,1.5-0.8,2-2.4,2c-3.9,0-5.9,1.7-6.2,5.5c-0.1,1.2,0.2,2.6,0.5,3.8c0.3,0.8,0.1,1.2-0.6,1.6c-1.6,0.9-2.5,2.1-2.2,4.1
	c0.1,1.1-0.1,2.3-1.9,2.2c-1.5-0.1-6.2,3.8-6.6,5.2c-0.3,1.1-0.1,2.3-0.2,3.4"/>
<path class="st0" d="M336.2,132.7c-0.3,1-1.1,1.1-2,1.3c-2.4,0.5-4.8,0.9-6.4,3.2c-0.4,0.6-1.5,1.1-2.5,0.9
	c-3.9-0.5-7.4,0.9-10.8,2.6c-4.7,2.2-9,5-12.4,9c-3.1,3.6-6.5,6.9-9.8,10.4c-3,3.1-4.9,6.9-7.3,10.4c-1,1.5-1.6,3.3-2.2,5
	c-0.6,1.9-0.3,3.1,1.5,4"/>
<path class="st0" d="M315.1,310.2c0.2,2.6,0,5.3,0.5,7.9c0.7,3.7,1,7.5,1.5,11.2c0.4,2.7,1,5.4,1.3,8.1c0.2,1.8,0.2,3.4,1.5,4.9
	c0.7,0.8-0.4,1.7-0.2,2.7c1.2,4.6,2.3,9.2,3.2,13.9c0.7,3.5,1.4,7.1,2.2,10.6c0.9,4.3,1.8,8.6,3.1,12.8c0.8,2.6,1.1,5.3,1.6,7.9
	c0.6,3.3,1.3,6.5,2,9.7c0.5,2.3,0.9,4.7,1.5,7c0.6,2.7,0.8,5.5,2,8.1c0.6,1.3,0.2,2.9,0.5,4.3c1.1,4.5,1.9,9.1,2.8,13.7
	c1.1,6.2,2.3,12.3,3.1,18.5c0.3,2.2,0.9,4.3,1.3,6.5c0.6,2.8,0.8,5.6,1.2,8.5"/>
<path class="st0" d="M603.3,31.7c-0.8,0.7-1.8,0.8-2.7,1.1c-4.2,1.1-7.5,3.9-11,6.3c-2.5,1.7-4.8,3.6-7.1,5.5
	c-4.4,3.7-8.3,8-8.4,14.3c0,0.8-0.2,1.7-0.7,2.3c-0.5-0.1-1-0.2-1.4-0.4c-4.5,4.9-6.7,10.9-8.5,17.1c-0.5,1.9-0.5,4.1,0.3,6.1
	c0.1,0.2,0.4,0.4,0.3,0.7c-0.3,3.2,0.6,6.3,0.7,9.5c0.1,3.8,0.4,7.7,1.7,11.4c0.1,0.3,0.3,0.8,0.1,1.4c-1.7,4.1-1.5,8.3-1,12.6
	c0.4,3.8,1.6,7.3,2.3,11c0.1,0.7,0.2,1.3,0.1,2c-0.1,0.8,0,1.4,0.6,2"/>
<path class="st0" d="M695.8,172c0.1,0.3,0.3,0.7,0.2,0.9c-2.2,3.9-3.4,8-4.3,12.4c-0.8,4.1-1.8,8.1-1.8,12.3c0,3.8,0.8,7.4,2.2,11
	c0.3,0.9,1,1.6,1.7,2.2c1.6,1.4,3.6,2.1,5.1,3.6c0.6,0.6,1.3,0.2,1.9,0.4c0.6-0.4,0-1.2,0.5-1.6"/>
<path class="st0" d="M127.5,118c0.1,3.4-1.9,5.7-4,7.8c-0.7,0.7-0.8,1.5-1.5,2.1c-2.4,2-5.3,2.9-8.3,3.1c-6.6,0.5-13.1-0.2-19.4-2.4
	c-3.3-1.1-6.9-2.1-9.4-5c-0.5-0.5-1.1-1.1-1.9-0.9c-0.8,0.1-1.2-0.3-1.6-0.9c-2.2-3-2.9-6.3-2.3-9.9c0.3-1.6-0.4-3.3,0.8-4.7
	c0.2-0.2,0.4-0.8,0.6-0.8c2.2-0.2,4.2-1.4,6.5-1.4c2.6,0,5.2,0.3,7.7,0.6c3.7,0.4,7.5,0.9,11.1,1.7c1.3,0.3,2.5,0.2,3.8,0.4
	c4.1,0.6,8.1,1.7,12.1,3.1c2.1,0.7,3.7,2.2,5,3.8c0.7,0.8,0.3,2.2,1.1,3"/>
<path class="st0" d="M213.9,343.3c2.3,2,3.5,4.7,5.1,7.1c1.2,1.7,2.5,3.1,3.9,4.4c2.6,2.3,4.8,5,7.3,7.3c2.6,2.4,4.8,5.1,7.6,7.1
	c4.3,3.2,6.6,8,10.2,11.8c0.3,0.3,0.4,0.9,0.6,1.4"/>
<path class="st0" d="M399.9,311.3c0.1,0.3,0.3,0.7,0.2,0.9c-1.9,3.9-3.4,8-5,12.1c-2.1,5.3-4.3,10.6-6,16c-1.5,4.7-3.1,9.4-5.3,13.9
	c-0.7,1.5-1.1,3.1-1.6,4.7c-1.8,5.1-3.2,10.3-5.2,15.3c-1.8,4.5-3.3,9.1-4.9,13.7c-1.6,4.8-3.2,9.7-4.7,14.6c-1.2,4-3.1,7.9-3.8,12
	c-0.1,0.6-0.6,1-1.2,0.9c-1.8-0.4-3.6,0.3-5.5-0.6c-1.3-0.6-3.2-0.3-4.8,0c-0.7,0.1-1.5,0.3-2.2,0.3c-4.1,0-8.2,0-12.2,0
	c-0.7,0-1.3,0.2-2,0.4"/>
<path class="st0" d="M324.8,417.5c-2.2,1.1-4.6,2-7,2.8c-1.6,0.5-3.1,1.4-4.5,2.3c-3.2,2-6.4,3.9-9,6.6c-0.5,0.6-1,1.1-1.6,1.6
	c-5.9,4.7-10.1,10.6-14,17c-0.4,0.7-1.6,1.3-1.1,2.5"/>
<path class="st0" d="M384.9,213.7c-0.2,1.1-1,2.1-0.9,3.2c0,0.4-0.1,0.7-0.4,0.7c-1.4,0.1-2.5,1-4,1c-2.8,0-3.6-1.7-4.1-4.1
	c1.6-1.2,3.4-1.9,5.6-1.8c3.6,0.1,6.9,1.5,10.4,2c0.5,0.1,0.9,0.2,1.3,0.5c1,0.9,2,0.7,3,0c0.2-0.8-0.5-1.3-0.9-1.4
	c-2-0.4-3.2-1.8-4.5-3.1c-0.1-0.1-0.1-0.1-0.2-0.2c-2.9-1-5.8-2.2-8.8-1.9c-1.5,0.2-3,0.2-4.5,0.5c-3.2,0.7-5.9,2.3-8.8,3.6
	c-0.8,0.3-1.4,1.1-2,1.8c-0.4,0.4-1.1,0.7-0.5,1.4c0.6,0.6,1.4,1.1,2.1,0.5c1.4-1,3.2-1.2,4.5-2.3c0.9-0.7,1.9-0.8,2.9,0"/>
<path class="st0" d="M757.4,329.3c0,1.9-1,3.5-1.1,5.4c-0.1,2.5-1.2,4.8-1.7,7.2c-0.4,1.9-1.5,3.6-2.4,5.4c-2.1,4-4.6,7.6-7.4,11.2
	c-1.4,1.8-2.6,3.7-3.6,5.8c-1,2-3,3.2-4.2,5c-0.5,0.7-0.3,2.3-1.9,2"/>
<path class="st0" d="M707.1,216.8c0.4,0,0.6-0.8,1.3-0.2c2.3,1.9,4.9,3.2,7.5,4.4c0.5,0.2,0.8,0.3,1.3,0.3c1.6,0.2,3.2,0.3,4.7,1.4
	c1,0.7,2.4,1.3,3.9,0.9c0.8-0.2,1.9,0.4,2.7,1c0.7,0.7,1.5,0.9,2.4,1.2c1.1,0.4,2.1,0.9,3.1,1.5c1.3,0.8,2.9,1.3,4.5,1.5
	c2.3,0.2,4.3,1,6.1,2.2c0.9,0.6,2,1.1,3.1,1.4"/>
<path class="st0" d="M710.7,132.9c2-0.4,2-0.4,2,1.4c-0.1,3.3,0.6,6.6,0.9,9.9c0.7,8.4-0.4,16.1-5.1,23.3c-1,1.6-2.5,2.9-3.5,4.4
	c-1.2,1.7-4.1,1.7-5.8,0.2c-0.4-0.4-1.1-0.1-1.3-0.7"/>
<path class="st0" d="M234.6,321.7c0.1,1.6,0.1,3.1,0.3,4.7c0.7,5.6,2.8,10.7,5.4,15.7c3.2,5.9,7.9,10.8,10.3,17.1
	c0.4,1,1.1,1.9,2.3,2.4c1.9,0.8,2.3,2.9,2.8,4.5c0.4,1.5,1.3,2.8,1.6,4.3"/>
<path class="st0" d="M253.2,361.3c0.4-0.4,0.3-1,0.1-1.2c-1.8-3.4-2.4-7.2-3.7-10.8c-1-2.9-2.5-5.7-4-8.5c-1.6-3.1-2.8-6.5-4.2-9.7
	c-0.9-2.1-2-4.2-2.8-6.3c-0.5-1.3-1.4-0.8-2.2-0.9"/>
<path class="st0" d="M248.3,391c-2.1,0-3.7-1.6-5.8-1.8c-2.1-0.2-4-0.9-6.1-0.9c-2.1,0-3.9-1.1-5.9-1.6c-1.9-0.5-3.8-0.9-5.8-0.8
	c-3.5,0-6.8-0.6-10.1-1.8c-1.3-0.5-2.5,0-3.8,0"/>
<path class="st0" d="M420.6,252.2c0.2,6.4-0.5,12.8-1.6,19.1c-0.9,4.9-2.4,9.7-4.3,14.4c-0.4,1-0.6,2.1-0.5,3.2"/>
<path class="st0" d="M603.6,31.6c0-0.9,0.6-1.3,1.3-1.6c2.6-1,5.1-2.1,7.7-2.9c5.4-1.6,11-1.6,16.5-1.5c1,0,1.9,0.4,2.9,0.5
	c1.9,0.2,3.8,0.6,5.6-0.8c1.8-1.4,4.1-0.2,5.9,0.4c4.9,1.6,10.2,2.3,14.8,4.8c1.8,1,3.7,1.4,5.6,1.6c1.7,0.2,2.2,2,3.6,2.7
	c0.8,0.5,1.6,0.9,2.5,1.3c3.2,1.4,6.7,2.3,9.5,4.9c1.1,1,2.5,2,4.1,2.4c0.5,0.1,0.9,0.4,1,0.8c1.4,3.3,4.7,5,6.9,7.5
	c1.1,1.3,2.2,2.6,3,4.3c0.8,1.6,2.6,2.7,3.3,4.5c0.1,0.3,0.1,0.6,0.2,0.9"/>
<path class="st0" d="M158.9,190.9c-1.1,0.3-2,0.9-2.7,1.8c-2.7,3.5-6.4,5.7-10.4,7.4c-1.8,0.8-3.7,0.9-5.6,1.3
	c-1.5,0.3-3,0.8-4.5,1.1c-6.3,1.2-12.7,1.5-19.1,0.8c-1.6-0.2-3.2-0.1-4.7-1c-0.3-0.2-0.7-0.1-1.1,0c-2.8,0.8-5-0.8-7.2-2
	c-2.2-1.2-4.5-2.4-6.9-3.1"/>
<path class="st0" d="M75.7,416.6c-2.7-2.2-6-3.5-9.2-4.8c-1.2-0.5-2.2-1.1-3.2-1.8c-3.1-2.4-6.6-3.9-9.9-5.7c-2.8-1.5-5.5-3.3-8.2-5
	c-1.7-1-3.7-1.5-5.2-2.6"/>
<path class="st0" d="M254.8,340.4c0.7,2.6,1.6,5.2,1.9,7.9c0.4,4,2,7.6,2.9,11.4c1,4.4,3,8.5,4.1,12.9c0.3,1-0.4,2.3,0.9,3.1"/>
<path class="st0" d="M295.7,455.8c0.3,0.4,0.5,0.9,0.9,1c4,1.5,7.4,4.1,11.3,5.9c5.2,2.4,10.6,4.5,15.6,7.3c2,1.1,4.1,2.4,6.4,2.8
	c0.6,0.1,1,0.3,1.2,0.8c0.8,1.3,2,1.1,3.3,1.1"/>
<path class="st0" d="M370.5,430.3c-0.9,0.3-0.9,1.3-1,2c-0.5,3-1.8,5.8-2.7,8.6c-0.9,2.8-1.6,5.7-2.6,8.5c-1.2,3.5-2.2,7.2-3.1,10.8
	c-0.4,1.4-0.4,2.9-0.8,4.3"/>
<path class="st0" d="M400.6,200.4c-0.8-0.8-1.5-1.6-2.2-2.5c-1.3-1.9-3.3-3-5.7-2.5c-0.7,0.1-1-0.6-1.8-0.5
	c-1.6,0.2-3.4-0.2-4.9,0.9c-1,0.8-2.3,0.5-3.4,0.5c-4.8,0.2-9.4,1.4-14.1,2.5c-2.9,0.7-5.5,1.6-7.7,3.5c-1,0.8-1.7,1.9-2.5,2.9"/>
<path class="st0" d="M257,332.5c1.2,1.4,1.2,3.2,1.7,4.9c0.8,2.6,1.3,5.2,2.2,7.7c1.2,3.4,2,6.8,2.2,10.4c0.2,3.2,1.6,6.2,2.2,9.4
	c0.6,3.2,1.7,6.4,1.8,9.7c0.1,2.5,0.9,4.9,1.3,7.4c0.2,1.2,0.6,2.4,0.5,3.6c-0.2,1.6,0.5,3.1,0.8,4.7c0.5,3,0.7,6.1,1,9.2
	c0.5,4.9,0.3,9.9,1,14.8c0.4,2.6,0.3,5.3,0.6,7.9"/>
<path class="st0" d="M567.6,133.1c-0.7-0.3-1.2-0.9-1.4-1.4c-0.7-2.1-2.2-2.3-4-2.1c-1.8,0.2-3.1,1-3.8,2.7
	c-0.9,2.1-0.6,4.6-1.6,6.7c1.2,1.7,0,3.6,0.4,5.4c0.6,2.4,0.5,4.8,0.3,7.2c-0.2,2.6,0.5,5,1.3,7.4c0.9,2.7,1.1,5.5,2.3,8.1
	c0.9,2,2.3,3.6,3.7,5.1c1.5,1.6,3.5,2.7,4.8,4.5c0.8,1.1,2.3,1.3,3.6,1.6c2.1,0.6,4.2,0.6,6.3-0.5c0.5-0.3,0.8-0.6,0.7-1.1"/>
<path class="st0" d="M577.4,401.6c0.8-0.1,1.5,0.5,1.6,0.9c0.1,2.4,2.2,2.6,3.7,3.4c2.1,1.1,4.3,2.3,6.3,3.7
	c1.3,0.9,2.6,1.6,4.3,1.9c1.8,0.3,3.6,1.2,5.2,2.1c3.3,1.9,6.7,3.5,10.5,4.1c1,0.2,2.2,0.3,2.7,1.4"/>
<path class="st0" d="M97.5,7.6c-1.2,0.4-2.8-0.3-4.7-2c-1.3,1.4-3.1,2.2-4.4,3.7c-2.1,2.4-4.6,3.8-8.1,2.8c-1.1-0.3-2.3-0.1-3.1,1.2
	c-0.8,1.3-1.8,2.3-3.6,1.8c-0.5-0.1-1.1,0.1-1.4,0.5c-0.9,1-2.2,1.8-2.9,3.1c-0.4,0.7-0.9,1.1-1.6,1.4c-0.2-0.1-0.5,0-0.6-0.1
	c-1.7-1.3-3.2-1.2-4.5,0.5c-0.1,0.1-0.2,0.2-0.4,0.4c-0.2,0-0.4,0-0.5,0c-3-1-3.2-0.8-4.3,2.2c-0.7,1.7-1.8,3.2-2.9,4.7
	C54,28.6,53,29,51.9,28.5c-1.6-0.7-2-0.6-2.7,0.9c-0.5,1.1-1,2.3-1.1,3.6c-0.1,1.8-1.1,2.4-2.9,2c-1.3,1.4-1.4,3.3-1.7,5
	c-0.1,1-0.6,1.7-1,2.5c-0.3,0.5-0.8,0.7-1.4,0.4c-1.2-0.6-2,0-2.5,1.1c-1,1.8-1.2,3.7-0.3,5.6c-1.2,0.6-2.8,0.4-3.7,1.6
	c0.6,1.7,1.8,3.8,0.5,5.3c-1.9,2.1-1.7,5.3-4.2,6.9c-0.2,0.2-0.3,0.7-0.2,1.4c-0.6,0.3-1.2,0.5-1.8,0.8c-0.8,0.4-0.9,1-0.5,1.8
	c0.9,2.3,0.9,2.3-1.2,3.2c-1.7,0.7-2.2,1.6-1.6,3c0.7,1.6,0.6,2.5-1.1,3.1c-0.5,0.2-0.9,0.6-1.2,0.8c0.3,1.7,1.5,2.2,2.3,2.9
	c1.4,1.4,1.4,2,0,3.3c-0.7,0.6-1.6,0.9-2,1.8c-0.1,0.2-0.2,0.3-0.3,0.6c1.3,0.9,2.4,2,3.4,3.3c1.9,2.5,1.7,5.3,1.9,8.1
	c0,0.4,0,1.2-0.5,1.6c-1.1,0.9-1,2.1-0.9,3.2c0.4,2.7-1.6,4.6-2.4,6.8c-0.5,1.7-0.8,3.4,0.4,4.8c0.8,0.1,1.1-0.5,1.6-0.7
	c0.9-0.3,1.6-0.6,2.4,0.4c0.6,0.8,1.3,1.6,2.3,2c-0.7,2.1-1,4.3-2.3,6.2c-0.4,0.6-1,1.9,1,2.2c1.8,0.2,3.7,3.7,3.6,5.7
	c-0.2,3.3,0,3.6,3.1,4.7c1.7,0.6,2.2,1.4,1.4,3c-0.7,1.4,0,2,1.1,2.1c1.6,0.2,2.4,0.8,2,2.6c-0.3,1.3,0.8,2.1,1.6,2.6
	c1.6,0.9,1.9,2.1,1.8,3.7c0,0.8-0.1,1.6,0,2.3c0.1,0.9-0.2,2.1,1.4,2.2c0.7,0.1,1.5,0.6,2.2,1c1.2,0.7,1.8,1.7,1.7,3.2
	c-0.1,2.2,0,2.2,2.1,2.7c0.8,0.2,1.7,0.4,1.8,1.4c0,0.6,0.4,0.9,0.8,1.1c1,0.5,1.2,1.3,0.7,2.2c-0.4,0.7,0,1.2,0.4,1.6
	c0.9,1,2,1.9,3.2,2.3c1.3,0.4,1.4,1,1.1,2.2c-0.6,2.2,0.8,3.6,3,3.4"/>
<path class="st0" d="M66,437.3c-0.1-0.3-0.2-0.9-0.7-0.7c-0.8,0.2-1.6,0.7-1.9,1.5c-0.5,1.3-1.7,1.9-2.8,2.3
	c-4.5,1.7-9.1,3.4-13.8,4.2c-3.4,0.6-6.4,2.3-9.7,3.3c-2.2,0.7-4.4,1.4-6.2,3c-0.4,0.3-1.2,0.2-1.8,0.2"/>
<path class="st0" d="M64.9,448.8c-0.6-1.4-1.6-0.5-2.3-0.3c-2.5,0.6-5.2-0.1-7.8,0.7c-4.4,1.4-9,0.4-13.5,1
	c-2.6,0.4-5.2,0.5-7.7,1.1c-0.8,0.2-1.8,0.2-2.5-0.5"/>
<path class="st0" d="M133.7,157.9c-0.5-0.6-1.4-0.8-1.9-0.5c-1.4,0.9-2.9,0.5-4.4,0.6c-1.2,0.1-2.8-0.2-3.7-0.9
	c-1.7-1.3-3.6-1.2-5.2-0.7c-3.7,1-7.5,1.8-11.2,3c-2.1,0.6-4.1,1.4-6.3,1.5c-0.5,0-0.7-0.1-0.9-0.4"/>
<path class="st0" d="M86.9,444.1c-1,0-1.5-0.7-1.8-1.5c-0.9-2.1-2.1-4.1-3.4-5.9c-2-2.8-4.4-5.2-7.1-7.3c-0.8-0.6-1.4-1.6-2.4-2.1
	c-3.5-1.7-7.1-2.8-11-2.5c-0.9,0.1-1.6,0.9-2.5,0.5"/>
<path class="st0" d="M150,400.6c-2.3-0.6-4.3,0.2-6.1,1.5c-3.3,2.3-6.5,4.8-9.7,7.2c-1.4,1-2.7,2-4,3c-1.1,1-2.5,1.4-3.9,1.8
	c-2.8,0.7-5.5,2-8.4,2.5c-3.1,0.6-6.3,1.1-9.3,1.8c-3.4,0.8-7,1.1-10.4,1.9c-1.9,0.5-4.2,0.6-5.6,2.6"/>
<path class="st0" d="M664.5,358.6c-1.8,0.4-2.2,2-2.6,3.3c-1.3,3.4-3.3,6.4-4.5,9.7c-1.4,4.1-3.4,7.9-4.8,12c-0.8,2.5-1.8,5-3.9,6.9
	"/>
<path class="st0" d="M425.6,269.2c0.8,1.6,0.6,3.5,0.9,5.2c0.3,2.2,0.4,4.6,0.4,6.8c0,3-0.2,6-0.5,9c-0.8,7.3-1.9,14.6-3.2,21.8
	c-0.6,3.1-0.4,6.2-0.7,9.4"/>
<path class="st0" d="M62.7,466.1c0.3,0.5,0.3,1,0.2,1.4c-0.3,1.1-0.2,2,0.7,2.9c0.6,0.6,0.5,1.4,0.3,2.3c-1.5,5-3.7,9.8-4.7,14.9
	c-0.4,2.1-1.4,4-2.1,6c-0.7,1.7-0.5,3.7-1.2,5.5"/>
<path class="st0" d="M647.4,359.5c-1,1.9-0.7,4-1.2,6c-0.2,1.1-0.4,2.2-0.8,3.2c-1,2.7-1,5.6-1.8,8.3c-0.9,3.1-0.7,6.4-1.6,9.5
	c-0.3,1.1-0.7,2.2-1.7,2.9c-0.2,0.2-0.5,0.4-0.3,0.5c0.6,0.4-0.5,1.5,0.5,1.6c1.1,0.1,1.5-0.7,1.4-1.8"/>
<path class="st0" d="M580.1,180.1c0.1,2,1.3,3.7,1.8,5.6c1.1,4.1,2.9,8,4.6,11.8c1.3,2.9,2.8,5.8,4.8,8.4c1.7,2.1,3.1,4.3,5.1,6.1"
	/>
<path class="st0" d="M200.6,31.6h2.1c0.1,1.9-1.7,3-1.8,4.7c0.4,0.5,0.9,0.3,1.4,0.4c1.8,0.2,2.1,0.7,1.6,2.3
	c-0.8,2.5-0.1,3.5,2.5,3.6c2.1,0.1,4.2,0.1,6.3,0.2c0.7,0,1.5,0,1.8,0.7c0.2,0.7-0.2,1.4-0.7,1.8c-1.7,1.3-2.8,3-3.8,4.9
	c-0.4,0.7-0.6,1.5-0.9,2.2c1,1.1,2.1,1.1,3.3,0.4c1.6-1,3.4-0.6,5-0.5c1.3,0.1,1.6,1.1,1.3,2.5c-0.3,1.2-0.8,2.3-1.5,3.2
	c-0.6,0.8-0.9,1.6-0.9,2.6c2.6,0.8,3.3,2.7,1.9,5c-0.7,1.2-1.2,2.4-2.1,3.5c-1.1,1.2-0.8,2.1,0.7,3c0.5,0.3,1.1,0.7,1.6,0.9
	c2.4,0.8,3.2,3.2,4.8,4.7c0.1,0.1,0,0.6,0,0.9"/>
<path class="st0" d="M763.5,356.1c-1.2,0.1-3.5,1.9-3.4,2.9c0.2,1.5-0.6,2.5-1.4,3.4c-1.5,1.8-2.6,3.6-3.4,5.8c-0.4,1-0.7,2.1-2,2.6
	c-0.5,0.2-1,0.6-1.2,1.1c-1.5,3.8-5.6,5.1-7.8,8.2c-0.5,0.8-1.8,0.9-2.6,1.5c-2,1.3-4.2,2.6-5.6,4.7"/>
<path class="st0" d="M658.4,199.1c-3.4,2.5-7,4.2-11.2,5.1c-6,1.2-12,1.1-17.8-0.8c-1-0.3-2.6-0.3-2.9-1.9"/>
<path class="st0" d="M108,361.1c-0.7,2.1-2.4,3.7-3.1,5.9c-1.1,3.8-2.7,7.4-4.3,11c-0.9,2.1-1.9,4.2-2.9,6.3c-1,2.1-1.9,4.3-3,6.3
	c-0.8,1.4-1.5,2.9-2.7,4"/>
<path class="st0" d="M391.6,200.4c-0.4-0.3-0.4-0.8-1.3-0.8c-3.5,0.2-7.1-0.1-10.6,0.4c-4.1,0.7-7.9,2-11.7,3.6
	c-2.8,1.2-5.8,2.1-8.3,4.1"/>
<path class="st0" d="M680,365.8c0,0.4,0.1,0.8,0,1.1c-2.5,4.8-4.3,10-7.1,14.6c-2.1,3.5-4,7.3-5.2,11.3c-0.2,0.8-0.8,1.4-1,2.2
	c-0.2,0.6-0.7,1.3-0.2,2"/>
<path class="st0" d="M64.4,214.4c-0.7-1.4,0-2.8,0.3-3.9c0.9-3.7,1.4-7.4,1.9-11.2c0.4-2.7,1.4-5.4,1.8-8.1c0.5-3.5,1.9-7,0.7-10.6
	c-0.1-0.3,0.4-0.9,0.3-1.2c-0.1-0.6-0.2-1.4-1-1.2c-1.4,0.2-1.6-0.8-1.8-1.8c-0.3-2-0.3-2-2.2-1.8c-0.3,0-0.7,0.2-0.9-0.2"/>
<path class="st0" d="M424.9,269.2c-0.7,1.4-0.5,3-0.7,4.5c-0.3,2.5-0.9,5-1.7,7.4c-1.4,4.1-3.1,8.1-4.6,12.3
	c-0.5,1.5-0.6,3.2-1.5,4.7c-0.4,0.8-0.6,1.7-1.5,2.1"/>
<path class="st0" d="M681.4,131.6c-0.2-0.4-0.4-0.7-0.9-0.7c-3.1,0.1-5.1-2.1-7.6-3.4c-1.9-1-3.8-2-6.1-1.9
	c-2.7,0.2-5.3,0.2-7.9,1.3c-2.8,1.2-4.4,3.6-6.6,5.5c-0.5,0.5-0.3,1.9-0.4,2.8"/>
<path class="st0" d="M48.3,380.4c2.1,0.5,3,2.4,4.5,3.6c1.2,1,2.6,1.7,4.2,2.2c1,0.3,1.9,0.8,2.8,1.5c1.9,1.7,4.1,3.2,6.3,4.5
	c3.3,2,6.3,4.6,9.7,6.6c1.2,0.7,2.1,0.7,3.1-0.1"/>
<path class="st0" d="M320.3,343c1.8,1.4,3.5,3,5,4.7c2.2,2.4,5.2,3.2,7.9,4.5c3.4,1.6,7.1,2.1,10.5,3.7c1.3,0.6,3,0.4,4.5,0.4
	c3.4,0,6.7-0.4,10.1-0.3c3.6,0.2,7.2,0,10.8-0.1c3.6,0,7.2-0.5,10.6-1.8c0.7-0.3,1.3-0.8,2-1.2"/>
<path class="st0" d="M77.7,354.7c0,0.6-0.1,1.3,0.6,1.6c1.5,0.8,1.5,2.5,2.3,3.7c0.2,0.3,0.5,1,0.1,1.6c-1.6,2.5-0.6,5.3,0.1,7.7
	c0.8,2.8,1.5,5.6,2,8.5c0.6,4,1.6,7.8,2.6,11.7c0.4,1.7,0.1,3.4,0.3,5"/>
<path class="st0" d="M188.7,407.2c-2.1,0.2-3.6,1.3-4.9,3c-2.2,3.1-2,6.7-2.7,10.1c-0.7,3.2-1.4,6.3-2.5,9.3c-1,2.5-3,4.4-5,6.3
	c-2,1.9-3.8,4.1-6,5.7c-1.5,1.1-2.9,2.5-4.8,3c-1.7,0.5-3.3,1.1-2.8,3.6h-1.9"/>
<path class="st0" d="M125.6,369.6c-1.8,1.6-1.5,4.2-2.6,6.1c-1.3,2.4-2.6,5-3.3,7.7c-1.5,5.7-4.3,10.6-7.7,15.3
	c-0.6,0.9-1.4,1.9-1.1,3.2"/>
<path class="st0" d="M61.1,368.9c1.2,1.2,2,2.6,2.6,4.3c0.7,2,2,3.9,3.2,5.8c2.6,4,4.6,8.3,6.9,12.5c1.1,2.1,2.9,3.7,3.8,5.9
	c0.2,0.5,0.5,1,0.7,1.4"/>
<path class="st0" d="M675.1,445.6c1.6-0.5,3.1,0.3,4.7,0.5c2.4,0.2,4.8,0.9,7.2,1.4c2.8,0.6,5.7,0.8,8.5,1.4
	c3.4,0.8,6.9,0.9,10.3,1.9c0.7,0.2,1.5,0,2.3,0"/>
<path class="st0" d="M284.9,176.8c-3.5,4.8-6.9,9.7-7.5,15.8c-0.2,1.9-1.3,3.5-1.4,5.4c-0.3,4-1.9,7.8-0.8,11.9c0.3,1,0,2.1,0,3.2"
	/>
<path class="st0" d="M403.5,212.3c0.6,2.1-0.5,4-0.9,5.9c-1.2,6.6-6.5,9-11.9,10.9c-5.6,2-11.5,2.6-17.4,2.6c-1.5,0-3-0.4-4.5-0.7
	c-1-0.2-2-0.5-3.1-0.3c-0.6,0.1-0.9-0.2-1.3-0.5c-2.9-2.2-4.9-5.2-6.5-8.5c0-0.1,0-0.2,0-0.4"/>
<path class="st0" d="M698,62.2c0.5,2.6,0,5.3,0.5,7.9c0.6,3,1.7,5.9,2.3,9c0.7,4.3,2,8.5,2.2,13c0.2,4.4-0.5,8.7,0,13.2
	c0.5,4.3,0.2,8.8,0.3,13.1c0,1.8,0,3.7,1.2,5.2c0.2,0.2,0.2,0.6,0.1,1.1c-0.5,1.6-0.6,3.2-0.8,4.8"/>
<path class="st0" d="M388.4,419.3c0.3,1.2-0.9,1.8-1,2.7c-0.5,2.9-2.2,5.4-3.1,8.2c-1,3.4-3.1,6.4-4.5,9.6c-1.4,3.1-3.5,5.7-4.7,8.8
	c-0.3,0.8-1.1,1.5-1.7,2.2"/>
<path class="st0" d="M471.9,395.3c0.5,0.5,0.4,1.1,0.4,1.6c0,3.2,0,6.5,0,9.7c0,1.9-1.2,3.4-1.5,5.2c-0.6,3.7-2,7.2-3.5,10.6
	c-1,2.1-2.1,4.1-3.5,5.9c-1.3,1.7-2.6,3.5-4,5.2c-0.5,0.6-0.2,1.3-0.2,2"/>
<path class="st0" d="M681,363.1c-0.1,1.3-0.6,2.2-1.8,2.7c-1.2,0.5-1.8,1.7-2.5,2.7c-2.6,3.3-5.6,6.2-7.8,9.9c-1,1.6-2.3,3-3.5,4.5
	c-2.1,2.6-3.6,5.5-5.7,8.1c-0.7,0.8-1,1.9-2.2,2.4c-0.5,0.2-1.1,0.5-0.9,1.2c0.2,0.8,0.8,0.7,1.4,0.7"/>
<path class="st0" d="M613.7,361.3c-0.1,1.2,0.3,2.3,0.9,3.2c1.2,2,0.4,4.4,1.1,6.5c0.6,1.7,1.4,3.4,1.7,5.4c0.7,5,2,9.9,3.1,14.8
	c0.3,1.2,0.6,2.3,1.1,3.4c0.3,0.7,0.1,1.2-0.4,1.6c-1-0.2-2-0.4-2.2-1.6c0-0.1-0.1-0.1-0.2-0.2c-3.3-2.7-5.8-6.3-8.8-9.4
	c-1.7-1.7-3.5-3.4-5-5.2c-1.7-2.1-4-3.5-5.6-5.6c-0.5-0.6-1.2-1.2-0.9-2.1"/>
<path class="st0" d="M656.6,446.6c2.2,3.3,5.5,4.4,9.2,4.9c2,0.2,4,0.5,6,1c1.6,0.4,3.4,0.5,5,0.5c1.8,0,3.2,0.8,4.8,1
	c1.1,0.1,2.2,0.7,3.4,0.5c0.5-0.1,1.3,0.2,1.5,1"/>
<path class="st0" d="M338.3,222.4c-2.3,0.4-4.3,1.6-6.4,2.4c-1.9,0.8-3.9,0.8-5.8,1.5c-2.7,0.9-5.5,0.3-8.3,0.6
	c-2,0.3-4.2-0.5-6.3-1c-0.7-0.1-1.2,0.1-1.8,0"/>
<path class="st0" d="M630.5,360.6c1.8,1.7,1.9,4.1,2.2,6.1c0.3,2.2,1.1,4.1,1.7,6.1c1.1,3.6,2,7.3,3.1,10.8c0.6,1.9,1.1,3.8,2.3,5.4
	"/>
<path class="st0" d="M421.8,195.4c-0.6-1.6-0.4-3.4-0.7-5c-0.6-3.2-1.2-6.5-1.8-9.7c-0.1-0.7-0.3-1-0.9-1.1
	c-0.7,0.1-0.7,0.8-0.7,1.1c0.2,5,0.6,10,0.9,14.9c0.2,3.6,1,7.1,2.2,10.4c0.2,0.6,0.1,1.4,1.1,1.4"/>
<path class="st0" d="M601.8,441.4c-1.7-0.3-3.1,0.5-4.5,1.3c-4.2,2.2-8.1,5.1-12.4,7.2c-2.4,1.1-4.9,1.9-7.2,3.3
	c-1.2,0.8-2.8,1.2-3.2,2.9"/>
<path class="st0" d="M46.2,378.8c3.1,3.8,6.1,7.6,8.9,11.6c1.8,2.6,4.2,4.8,6.4,7.1c2.7,2.9,5.6,5.7,8.2,8.7
	c0.5,0.6,0.6,1.5,0.9,2.3"/>
<path class="st0" d="M85.4,393c-1.9-0.7-2.9-2.4-4.1-3.8c-3.5-4.1-6.7-8.6-10.2-12.7c-2-2.3-4.2-4.4-6.5-6.5
	c-0.9-0.9-1.2-2.3-2.5-2.9"/>
<path class="st0" d="M117.3,454.9c0.9,1.3,2.3,1.6,3.8,2c3.1,1,6.2,2.3,9.2,3.8c3.7,1.8,7.5,3.3,11.2,5c1.4,0.7,2.8,1.5,4.4,1.6"/>
<path class="st0" d="M692.6,378.8c-1.8,0.3-3.1,1.6-4.3,2.8c-4.4,4.5-9.4,8.3-14.6,11.6c-2,1.3-4.4,1.9-6.3,3.4
	c-0.9,0.6-1.6,1.4-2.3,2.2"/>
<path class="st0" d="M584.6,384.9c6.1,3.1,11.6,7.1,17.3,11c1.9,1.3,3.8,2.5,5.9,3.3c1.2,0.4,1.9,1.8,3.4,1.6"/>
<path class="st0" d="M303.2,439.8c0.1,0.3-0.1,0.6,0.2,0.9c1.6,2,3.1,4.1,4.8,6c4.6,4.9,9.8,9.2,15.1,13.3c2,1.6,4.1,3.2,5.5,5.5
	c0.6,1,2.2,1.3,3,2.4"/>
<path class="st0" d="M685.7,122.1c-0.3-0.8-1-1.1-1.6-1.4c-2.6-1.6-4.4-4-6.8-5.8c-0.5-0.4-0.8-0.5-1.3-0.5
	c-1.6,0.2-2.9-0.9-4.5-0.9c-0.9,0-1.1-0.9-1.7-1.5c-3.9,0.7-7.4,2.8-11.4,3.5c-2.1,0.4-4.1,1.1-6.1,1.6c-2.3,0.5-3.8,2.2-5.6,3.4"/>
<path class="st0" d="M418.8,234.1c1.1,3.4,2.9,6.6,3.6,10.1c0.9,4.5,2.6,8.9,2.5,13.5c-0.1,2.9,0.1,5.6,0.3,8.5
	c0,0.8,0.1,1.7,0.2,2.5"/>
<path class="st0" d="M607.6,410.5c-1.5-1.8-2.4-4.2-4.3-5.8c-2.6-2.1-4.9-4.4-7.2-6.7c-3.3-3.3-6.7-6.6-10.1-9.9
	c-0.2-0.2-0.5-0.4-0.7-0.5"/>
<path class="st0" d="M89.6,423.2c0.2,3.2,0.4,6.4,0.5,9.5c0,0.9-0.5,1.5-1.1,2.1c-0.7,0.8-1.3,0.2-2-0.2c-0.2-0.1-0.6-0.1-0.9-0.1
	c-0.6-0.2-1.3-1-1.9-0.4c-0.6,0.6-0.2,1.5,0,2.1c0.5,1.9,1.7,3.5,2.5,5.2c0.3,0.7,0.5,1.4,0.7,2.1"/>
<path class="st0" d="M343.4,213.2c-0.9-0.6-1.9-0.2-2.9-0.2c-2.5,0-4.9-0.5-7.4-0.9c-0.6-0.1-1.2-0.2-1.8-0.2
	c-2.2,0-4.3-0.4-6.5-0.6c-1.5-0.2-3.2,0-4.8,0.3c-3.7,0.6-7.3,1.3-11,2.1c-2.4,0.5-4.2,2-6.3,2.9"/>
<path class="st0" d="M267.6,474.4c-0.1-0.2-0.1-0.4-0.2-0.5c-2-1.5-4-2.9-6.5-3.4c-4.5-1-9.1-1.7-13.7-2.2c-1.5-0.2-3,0.4-4.5,0
	c-2.3-0.5-4.4,0.3-6.5,0.9c-1,0.3-2.1,0.4-3.2,0.4c-2.6,0-5.1,1.4-7.7,1.1c-2.2-0.2-4.3,0-6.5-0.2c-1.4-0.1-2.5,0.4-3.6,1
	c-0.9,0.5-1.8,0.9-2.9,0.9c-2.5,0-4.6,1.3-6.8,2.2c-1,0.4-2,0.8-3.1,0.7c-0.2,0-0.6-0.1-0.7,0c-1.7,2-4.6,1.9-6.3,3.8
	c-1.1,1.3-3,1.5-4,3.1"/>
<path class="st0" d="M100.4,499.2c-0.8-3.8-1.9-7.6-2.2-11.5c-0.3-2.9-1.8-4.2-4.1-5.2c-0.1,0-0.2,0-0.7,0c-1.3,2,0,4.5-0.8,6.7
	c0.9,0.6,2,0.3,2.9,0.5c0.8,0.1,0.4,0.6,0.5,1"/>
<path class="st0" d="M750.3,384.2c0.3,0.2,0.3,0.6,0.2,0.7c-2.6,2.2-3.4,5.6-5.4,8.3c-1,1.5-2.6,2.5-3.4,4.1c-2,3.9-5,7.2-8.2,10
	c-2.6,2.2-4.3,5.3-7.3,7.1c-2.8,1.8-4.7,4.5-7.3,6.5c-1.1,0.9-2.5,1.2-3.7,1.9c-1,0.6-1.4,1-1.3,2.4c0.3,4.6,0.3,9.2-0.5,13.9
	c-0.6,3.3-1.2,6.6-2.1,9.9c-0.6,2.5-2.3,4.3-3.1,6.8c1.4,0.8,2.9,1.4,4.7,1.5c2.9,0.2,5.9,0.3,8.8,0.3"/>
<path class="st0" d="M380.1,266.3c-2.9,0.8-5.9,1.7-8.8,2.5c-2.6,0.8-5.2,1.2-7.9,1.5c-2.2,0.3-4.3,1.2-6.5,1.3
	c-2.2,0.2-4.4,0.8-6.7,0.2c-0.5-0.1-1.1,0-1.6,0.1c-1.8,0.3-3.7,0.5-5.6,0c-0.6-0.2-1.2,0-1.8,0.1c-2,0.5-4,0.5-5.7-0.8"/>
<path class="st0" d="M400.2,282.1c1.2,2,0,4,0.2,5.9c0.2,3.1-0.3,6.2,0.5,9.4c0.4,1.4-0.1,3,0.2,4.5c0.6,3.1,1,6.2,1.3,9.4"/>
<path class="st0" d="M105.4,162.2c0.2-0.3,0.4-0.1,0.7,0c3.4,1.2,6.9,1,10.4,1.4c2.6,0.3,5.3,0.4,7.9,0.8c1.2,0.2,2.5,0.4,3.6,0.4
	c2.7,0,5.1,1.3,7.7,1.4c0.6,0,1.4,0.3,2,0.1c2.6-0.7,5.1,0.1,7.6,0.2c1.3,0,2.6-0.1,4-0.2"/>
<path class="st0" d="M680.7,436.7c0.8,0.8,1.8,1.2,2.9,1.5c1.8,0.5,3.5,1.4,5.1,2.5c2.4,1.6,5.3,2.1,7.9,3.5
	c3.1,1.6,6.2,3.1,9.4,4.7"/>
<path class="st0" d="M629.9,449.2c-0.4-0.5-1.1-0.6-1.6-1.1c-3.8-3.4-8.6-4.5-13.3-5.8c-0.8-0.2-1.7,0-2.5,0.2
	c-1.6,0.3-3-0.6-4.7-0.5c-1.6,0.1-3.1,0.2-4.7,0.5"/>
<path class="st0" d="M170.9,123c-3.4,0.7-7,0.5-10.5,1.2c-2.4,0.5-5,0.2-7.5-0.1c-3.5-0.4-6.8-1.4-10.1-2.7
	c-0.4-0.1-0.7-0.2-1.1-0.4"/>
<path class="st0" d="M95.1,470c0-2.4-0.3-2.6-2.3-3.3c-1.7-0.5-3.2-0.9-4.9-0.2c-2.2,1-3.5,2.8-4.4,4.8c-1.2,2.5-1.9,5.4-2.8,8.1
	c-0.9,2.8-0.1,5.5,0.2,8.3c0.2,1.6,0.8,3.1,0.8,4.7c0,0.3,0,0.7,0.2,0.9c1.9,1.9,3.8,3.8,5.8,5.6c0.8,0.7,2.1,0.1,3,0.7"/>
<path class="st0" d="M121.6,448.1c0.6-0.1,1.2,0.1,1.6,0.5c2.1,1.9,4.7,3.1,6.7,5.2c1.5,1.6,3.4,2.8,5.2,4.2c3,2.4,6.2,4.6,9.4,6.9
	c0.6,0.5,1.6,1,1.2,2.1"/>
<path class="st0" d="M157.8,447c0.4,2.1-0.7,4-1.1,5.9c-0.9,4-2.1,7.9-3.4,11.7c-0.8,2.4-2.1,4.5-3.6,6.5c-1.2,1.6-2.3,3.2-3.4,4.9"
	/>
<path class="st0" d="M329,456.7c0.1-0.9-0.7-1.1-1.2-1.5c-2.4-1.5-5-2.6-7.4-4c-3.2-1.9-6.1-4.2-9.2-6.2c-1.4-0.9-3-1.7-4.5-2.5
	c-0.5-0.3-1.1-0.1-1.6-0.2"/>
<path class="st0" d="M579.9,113.6c0,2.9-0.8,5.8-1.1,8.6c-0.2,1.5-1.6,0.2-2,0.7c-1.5,4.4-1.8,8.8-2,13.1c-0.2,4.5-0.9,8.9-1.3,13.3
	c0,0.5,0.3,0.6,0.6,0.9c1-0.6,0.8-1.2,0-1.8"/>
<path class="st0" d="M226.7,345.5c1.2,0,1.9,0.7,2.7,1.4c2.7,2.4,4,5.9,6.3,8.6c3.1,3.6,5.4,7.6,7.8,11.7c0.4,0.7,0.6,1.3,0.9,2"/>
<path class="st0" d="M124.7,107.9c-1.7-2.5-4.6-3.3-7-4.7c-2.1-1.2-4.2-2.1-6.7-2.6c-3-0.6-6-1.8-9-2c-4.1-0.3-8.1-1-12.2-1.1
	c-2.4-0.1-4.7,0.1-7,0.3c-1.3,0.2-2.2,1.2-2.9,2.3c-0.4,0.7-0.8,1.3-1.3,2"/>
<path class="st0" d="M97.5,470.6c1.2-0.6,1.4,0.3,1.4,1.1c0.1,1.8,0.6,3.5,0.7,5.2c0.2,2.5,0.8,4.8,1.2,7.2
	c0.8,4.4,2.2,8.8,2.4,13.3"/>
<path class="st0" d="M461.8,473.1c2.5,0,5.1,0,7.6,0.9c3.5,1.1,7,2.2,10.4,3.4c2.9,1,5.8,1.4,8.7,2.4c0.6,0.2,1.2,0.3,1.8,0.3
	c4.5-0.4,9-0.1,13.5,0.2c4.2,0.3,8.4,0.2,12.4,1.6c1.6,0.5,3.2,0.7,4.9,0.9c1.7,0.2,3.5,0.8,4.9,2.1c1,0.9,2.1,1.6,3.2,2.4"/>
<path class="st0" d="M349.8,418.2c-0.2,1.3,0.3,2.4,0.7,3.6c1.1,3.1,1.5,6.3,2.2,9.5c0.7,3.2,0.6,6.6,1.5,9.7
	c0.9,2.7-0.1,4.9-0.8,7.2c-2.2,6.8-5,13.3-7.7,19.9c-2,4.8-3.2,9.9-5.5,14.5"/>
<path class="st0" d="M41.3,395.2c2.3,1.7,5,2.3,7.6,3.4c1.8,0.8,3.6,1.6,5.4,2.3c1.3,0.5,2.6,1,3.9,1.5c3.1,1.2,6.2,2.7,9.2,4.1
	c0.8,0.4,1.5,0.8,2.3,0.4"/>
<path class="st0" d="M287.4,449.5c-1.7-1.8-4.2-2.4-6.3-3.7c-3.4-2.2-5.5-5.7-6.5-9.6c-0.5-2.1-1.5-4.1-1.5-6.3c0-0.4-0.5,0-0.7-0.2
	"/>
<path class="st0" d="M134.6,386c-1.9-0.1-2.9,1.4-4.1,2.4c-4.4,3.4-8.8,6.6-13.1,10.1c-2,1.7-4.6,2.6-7,3.9c0.7,0.5,0.5,1.7,1.4,2"
	/>
<path class="st0" d="M615.7,367.3c1.2,0.8,1.6,2.1,2.1,3.3c1.6,4,4.3,7.3,6.3,11c1.4,2.5,3.4,4.8,4.3,7.6c0.2,0.7,0.4,1.1,1.1,1.2"
	/>
<path class="st0" d="M415.2,445.2c-2.1-0.1-3.9,1.2-5.3,2.3c-2.7,2-5.6,3.7-8.4,5.4c-2,1.2-4,2.5-6.2,3.4c-1.2,0.5-1.7,2.1-3.2,1.8"
	/>
<path class="st0" d="M75.3,469.7c-0.2,0.1-0.5,0.2-0.7,0.4c-2.7,1.9-2.4,1.9-1.7,4.7c0.6,2.2,0.8,4.6,1.7,6.6c1.2,2.9,1.4,6,2.3,8.9
	c0.5,1.6,1.2,3.4,1,5.2"/>
<path class="st0" d="M298.4,267.7c-1.3-0.1-1.1,1.1-1.4,1.8c-0.8,2-1.5,4.2-2.2,6.3c-0.6,1.9-0.4,3.8-0.6,5.8
	c-0.2,1.9,0.1,3.9-0.5,5.8c-0.3,1,0,2.1,0.5,3"/>
<path class="st0" d="M530.4,446.1c-0.6,0.1-1,0.5-0.9,1.1c0.4,1.5-0.5,3.6,1.8,4.4c0.3,0.1,0.7,0.8,0.7,1.2
	c0.3,4.5,2.1,8.9,1.4,13.5c-0.3,2.4-1,4.8-2,7c-1.7,4-3.4,7.9-2.7,12.5c0,0.2-0.2,0.5-0.3,0.7"/>
<path class="st0" d="M759.9,358.8c-2.3,0.9-3.9,2.9-6.1,4c-2.7,1.4-5.4,3-8.3,4.1c-0.5,0.2-1.2,0.3-1.6,0.7c-1.7,2-4.3,1.9-6.5,2.8
	c-0.1,0.1-0.3-0.1-0.5-0.2"/>
<path class="st0" d="M678.3,438c-0.1-1.4-0.5-1.9-2.2-1.7c-3.5,0.4-6.5,2-9.7,3c-2.3,0.7-4.6,1.6-6.8,2.5c-1.9,0.8-3.7,1.9-4.7,3.9"
	/>
<path class="st0" d="M140.9,117.2c2.6-2.2,5.8-3.1,9-3.6c2.6-0.3,5.2-0.3,7.7-0.2c1.9,0.1,3.9,0.3,5.8,1c1.1,0.5,2.5,0.7,3.6,0.2
	c1.2-0.6,2.2-0.4,3.3,0c1.5,0.6,2.9,1.3,4.7,1.4c1,0.1,2.2,0.3,3.1,1.2c0.5,0.5,1,0.6,1.6,0.7c2.4,0.6,3.1,2.1,2.4,4.5
	c-0.6,1.8-0.9,3.6-1.2,5.4c-0.5,2.7-2.5,3.8-4.6,4.6c-0.9,0.3-1.9,0.6-2.6,1.2c-1.9,1.4-4,1.6-6.1,1.7c-3.4,0.2-6.8,0-10.3-0.2
	c-2.6-0.1-5-0.6-7.6-0.8c-4-0.4-7-2-8.6-5.8c-0.1-0.3-0.5-0.3-0.6-0.5"/>
<path class="st0" d="M139.2,381.1c0,0.6,0.1,1.2-0.7,1.5c-0.8,0.3-1.3,1-1.8,1.6c-2,2-3.4,4.4-5.2,6.5c-1.6,1.9-3.3,3.6-5,5.5
	c-1.9,2.2-3.6,4.5-5.3,6.9c-0.8,1-1.6,2-2.6,2.9c-1.2,1.1-1.9,2.5-2.5,4"/>
<path class="st0" d="M15.2,396.6c0.3,3,2.3,5.3,3.4,7.9c1,2.4,2.2,4.5,4.1,6.3c1.1,1.1,1.8,2.6,2.5,3.9c0.9,1.5,1.9,2.8,3.8,3"/>
<path class="st0" d="M624.2,119.6c-0.2,0.1-0.4,0.2-0.5,0.2c-2.3-1.5-5.2-1.6-7.6-3.1c-0.3-0.2-0.5-0.4-0.9-0.3
	c-1.7,0.4-3.3-0.3-4.6-1.2c-2.1-1.4-4.2-1.1-6.3-1c-3.3,0-5.8,1.7-8.3,3.6c-1.2,1-2.5,1.9-3.8,2.7c-1.8,1.1-3,2.5-4,4.3
	c-0.7,1.3-1.6,2.6-2.6,3.6c-0.6,0.6-0.9,1.3-0.4,2.1"/>
<path class="st0" d="M467.4,451.3c0,2.3-1.3,4.2-2,6.3c-1.1,3.3-1.9,6.8-3.3,10.1c-0.9,2.1-2,4.2-2.8,6.4c-0.7,1.8-2.2,3.3-4.1,4.5
	c-2.5,1.5-5,3-7.5,4.7c-0.5,0.3-0.9,0.6-1.6,0.6c-1,0-1.6,0.6-1.6,1.6"/>
<path class="st0" d="M601.1,376.4c-0.3,1.9,1.1,3.1,1.8,4.5c2,3.8,4.3,7.4,6,11.2c1.1,2.4,1.6,5.1,2.2,7.7c0.2,0.9,0.4,1.6,1.1,2.2
	c0.3,0.2,0.8,0.5,0.4,1.1"/>
<path class="st0" d="M99.3,150.2c-0.7-0.5-1.3,0-1.8,0.2c-1.8,0.7-3.6,1.7-5.4,2.5c-3,1.3-4.9,3.8-6.4,6.5c-0.2,0.4-0.4,1.1-0.1,1.8
	c0.6,1.7,1,3.5,1.5,5.2"/>
<path class="st0" d="M70.1,458c-0.1-0.7,0.5-1.1,0.9-1.4c0.5-0.4,0.4-0.9,0.3-1.3c-0.2-0.5-0.8-0.4-1.2-0.4c-2,0-4,0.7-5.3,1.9
	c-2,1.9-4.5,1.8-6.8,2c-2.1,0.2-4.2,0.3-6.3-0.1"/>
<path class="st0" d="M309.9,257.3c-0.6-0.1-0.8,0.1-0.7,0.7c0.2,2.6,0.9,5.2,1.6,7.7c1.2,4.2,3,8,6,11.1c0.5,0.6,0.7,1.3,0.9,2"/>
<path class="st0" d="M114.7,172.2c1.7,1.1,3.7,1.4,5.5,1.6c4.1,0.5,8.2,1.1,12.4,0.9c1.6-0.1,2.9-1,4.5-0.8c0.2,0,0.5-0.1,0.7,0.2"
	/>
<path class="st0" d="M219.5,340.1c-0.6-1.3-1.4-2.4-2.4-3.3c0.2-0.5,0.4-0.9,0.6-1.4c1.1,0.5,2.2,0.2,3.3,0.4
	c2.9,0.6,5.7,1.5,8.4,2.6c2.5,1,4.9,2.6,6.8,4.7c1.1,1.2,2.4,2.4,3.9,3.1"/>
<path class="st0" d="M538.1,372.3c-0.8,0.2-1,0.6-0.5,1.2c1.6,1.8,1.7,4.4,3,6.3c0.4,0.6,0.5,1.4,0.7,2.1c0.3,1.2,0.8,2.2,2.2,2.5
	c0.9,0.2,1.5,0.8,2,1.5c1.9,2.9,4.1,5.5,6.6,8c-0.4,0.6,0,1.5-1,1.7c-0.8,0.1-1.1-0.4-1.7-0.8c-1.1-0.9-2.2-1.9-3.7-1.8
	c-0.8,0-1-0.6-1.4-0.9c-1.2-0.9-2.3-1.9-4-1.6"/>
<path class="st0" d="M623.3,459.9c-1.1,0.1-2.1,0.3-3.1,0.8c-2.4,1-5.1,1.3-7.7,1.6c-2.6,0.3-5.2,0.5-7.7,0.9
	c-2.2,0.4-4.4,0.6-6.5,0.9c-2.4,0.3-4.8,0.8-7.2,0.7c-1.9,0-3.4,1-5.2,1.2c-0.8,0.1-1.5,0.7-2.4,0.1c-0.2-0.1-0.6-0.3-1.1-0.1
	c-1.9,0.7-3.8,1.2-5.7,1.9c-2.2,0.7-3.4,2.2-3.4,4.5c0,3.3-0.1,6.6,0.7,9.9c0,0.2-0.1,0.5-0.2,0.7"/>
<path class="st0" d="M99.3,472.9c0.4-0.2,0.7-0.5,1.1-0.7c0.7-0.3,1.8,0.4,1.6,1c-0.8,2.1,0.5,4,0.8,6c0.7,5,2.4,9.8,3,14.8
	c0.2,1.4,1.1,2.7,0.9,4.1"/>
<path class="st0" d="M379.4,269.2c-4.6,4.5-9.7,8-16.4,8.5c-1.9,0.2-3.7,0.9-5.6,1.4"/>
<path class="st0" d="M668.8,120.5c-1.4-1.3-3.2-1-4.8-0.8c-2,0.2-3.9,0.8-5.8,1.5c-2.9,1.1-6,2-9,2.9c-0.7,0.2-1.2,0.4-1.4,1.1"/>
<path class="st0" d="M561.7,147.1c-1.4,2.4-0.5,4.9,0.2,7.2c0.6,2,1.4,3.9,1.8,5.9c0.2,1.1,1.2,1.6,1.7,2.5c0.7,1.1,1.8,1.9,2.5,3.1
	c0.7,1.1,1.3,0.8,2.1-0.7"/>
<path class="st0" d="M289.9,286.8c-0.5,0.5-0.5,1.3-0.3,1.8c0.9,2.1-0.3,3.4-1.5,4.9c-3,4-6,8.1-9,12.2c-1.6,2.2-2.5,4.7-2.4,7.5"/>
<path class="st0" d="M722.1,457.1c0.5,3,0.9,6,1.5,9c0.8,4.3,1.8,8.5,1.2,13"/>
<path class="st0" d="M419.5,222.2c1.5,3.4,3,6.8,4.5,10.3c2.1,5.2,3.4,10.6,3.6,16.2c0.1,2.8,0.2,5.5,0,8.3
	c-0.1,1.6-0.3,3.1-1.3,4.5"/>
<path class="st0" d="M613.7,125c-0.8-0.4-1.8-0.5-2.3-1.1c-0.9-1-2-0.9-3.1-1.1c-2.1-0.3-4.3-0.7-6.3-1.5c-1.2-0.5-2.3-0.3-3.5-0.4
	c-1.9-0.1-4,0.2-5.8,1.2"/>
<path class="st0" d="M339.4,429c0.7,0.5,1.3,1,2,1.4c1.5,1,2.7,2,2.9,4c0.2,1.4,1.5,2.2,1.9,3.4c1.1,3,2.7,5.9,3.1,9.2
	c0.1,0.6,0.2,1.4,1.2,1.1"/>
<path class="st0" d="M150.2,397c-5.8,2.1-11.5,4.2-17.3,6.3c-3.4,1.2-6.8,2.2-10.2,3.1c-1.2,0.3-2.4,1-3.4,1.8
	c-0.7,0.5-1.4,0.5-2.2,0.5"/>
<path class="st0" d="M388.9,261.1c-2.6,1.5-5.4,2.4-8.3,3c-4.3,1-8.7,2-13.1,2c-1.9,0-3.7,0.2-5.2,1.3c-0.5,0.3-1.1,0.5-1.2,0.3
	c-1.1-1.2-2.8-0.3-4-1"/>
<path class="st0" d="M90.3,359.2c1,3.1,0.3,6.4,0.3,9.5c0.1,5-0.2,10.1,0.3,15.1c0.3,3-0.1,6,0.4,9c0.1,0.4,0,0.9,0.2,1.2
	c0.4,0.7,0.6,1.3,0,2"/>
<path class="st0" d="M665.2,357.7c-0.9,1.1-0.8,2.6-0.9,3.8c-0.5,4-1.9,7.6-3.1,11.3c-1,3.3-1.5,6.7-2.1,10.1c-0.5,3-1.2,5.9-2,8.8
	c-0.2,0.6-0.1,1.1,0,1.6"/>
<path class="st0" d="M317.1,170.2c-0.7,1-1.6,1.5-2.7,2c-1.7,0.9-3.4,1.6-4.4,3.5c-1,1.9-3.4,2.3-4.6,4c-1.9,2.6-4.5,4.7-5,8.3
	c-0.2,1.6,0,2.4,1.2,3c0.6,0.3,1,0.8,0.8,1.1c-1.1,1.7-1.2,4-3.4,4.9"/>
<path class="st0" d="M406.4,427.2c-1.6,1.6-3,3.4-3.9,5.4c-0.3,0.7-0.9,0.9-1.4,1.4c-3.5,4.2-7.3,8.1-11.3,11.7
	c-2,1.8-4,3.5-6.3,4.9"/>
<path class="st0" d="M331.8,474.5c-1.8,1-4,0.7-5.9,1.4c-1,0.3-1.6,0.7-1.9,1.5c-0.4,0.9-0.8,1.1-1.8,1c-1.2-0.1-2.4,0.1-3.6,0.5
	c-1.1,0.4-2,1-2,2.5s-0.2,3-0.3,4.5"/>
<path class="st0" d="M317.6,428.3c-1.6,1.2-0.3,2.3,0.2,3.2c1,1.6,2.4,2.9,3.5,4.4c2,2.6,3.8,5.3,5.8,7.9c0.7,0.9,1.3,1.7,1.5,2.9
	c0.1,1,0.6,2,1.9,2"/>
<path class="st0" d="M144.3,484.8c0.5-1.3-0.5-2.4-0.6-3.6c-0.1-1.2-2.3-1.9-4-1.6c-1.7,0.2-3.2,1-4.6,1.9c-1.1,0.7-1.9,1.9-2.5,3
	c-1.1,2.3-2.1,4.6-2.6,7.2"/>
<path class="st0" d="M638.9,449c-2.5-0.8-5-1.7-7.2-3.2c-0.7-0.5-1.4-0.9-2-1.5c-3.2-3.3-6.7-6.4-9.5-10.1c-1.9-2.6-4.5-2.7-7.1-3.6
	c-2.5-0.9-5.6-0.6-7.6-3c-0.1-0.1-0.4-0.2-0.5-0.2c-1.6,0.8-3.3-0.6-4.9,0.3c-0.3,0.2-0.8,0.2-1.2,0.2c-2,0-3.2,0.9-3.4,2.9"/>
<path class="st0" d="M696.9,142.8c-1.1-0.1-0.7-1.1-0.7-1.4c0.1-4.5-1.3-9-0.3-13.5c0.3-1.7-1-3.2-0.9-4.8c-1.2-0.3-1.3,0.9-2.1,0.8
	"/>
<path class="st0" d="M79.3,111.5c2.6,0,5.3-0.9,7.9,0c0.2,0.1,0.4,0.1,0.5,0c1.5-1.4,3.1-1.2,4.9-0.8c0.7,0.2,1.4,0,2.2-0.1
	c4.7-0.6,9.3-0.4,13.9,0.9c2.8,0.8,5.4,2.1,7.9,3.6c1.6,0.9,1.8,1.8,1.1,4.5"/>
<path class="st0" d="M356.8,266.3c0.2,1-0.5,0.7-1,0.7c-1.8,0.2-3.6,0.4-5.4,0.5c-3,0.2-5.8,1.4-8.8,1.6c-1.8,0.2-3.4,0.6-5.2,0
	c-2.8-0.8-5.3,0.3-7.2,2.8"/>
<path class="st0" d="M80.4,360.6c-0.4,0-0.8,0-1.3,0c-0.1,0.6,0,1.2,0.6,1.4c2.1,0.8,2.2,2.8,2.6,4.4c0.8,3,1.8,6,2.7,9
	c0.5,1.6,0.7,3.4,0.9,5c0.1,0.5,0.4,0.6,0.6,0.9"/>
<path class="st0" d="M594.1,441.2c-0.7-2-2.8-2.7-4.2-3c-2.3-0.6-4.5-1.6-6.8-2.4c-2.3-0.8-4.2,0.1-6.3,0.3
	c-1.1,0.1-2.5,0.2-3.2,1.1c-0.7,0.9-1.6,0.9-2.4,1.4"/>
<path class="st0" d="M63.8,438c3.2,1.4,6.2,3,9.7,3.8c1.6,0.4,3.2,1.2,4.7,2.1c2.5,1.6,4.9,3.4,7.4,5c2.3,1.5,2.2,2.1,0.6,4
	c-1.3,1.5-3.1,2.8-3.8,4.8"/>
<path class="st0" d="M140.1,113.6c0-0.8,0.1-1.3,1.1-1.5c5.1-1,10.2-2.1,15.5-1.9c2,0.1,4.2-0.3,6.1,0.3c3.8,1,7.8,1,11.4,2.7
	c2.3,1.1,4.6,2,6.4,3.9"/>
<path class="st0" d="M147.2,478c0-1.1,0.3-2.4-1.6-1.5c-0.6,0.3-1.5,0.1-2.1-0.2c-1.8-0.9-3.8-0.9-5.5-2.2c-1.2-0.9-2.7-1.5-4.3-1.5
	c-1.3,0-2.4-0.8-3.4-1.3c-2.5-1.3-5.2-1.8-7.9-1.9c-2.8,0-5.4-0.8-7.9-1.9c-2.1-0.9-4.1-0.1-6.2-0.6c-0.3-0.1-0.4,0.4-0.3,0.7"/>
<path class="st0" d="M286.5,478.9c-2,1-4.2,0.2-6.3,0.9c-0.9,0.3-1.7-0.3-2.3-1c-2.1-2.6-3.8-5.4-5.4-8.3c-0.5-0.9-0.9-2-2.1-2.6
	c-1.4,2-0.8,4.4-1.4,6.8c-1-0.8-1.9,0.1-2.4,0.6c-0.9,0.8-0.4,2.2-0.2,3.2c0.6,3.1,1.1,6.2,1.5,9.4c0.3,2.2,0.3,4.3,0.1,6.5
	c-0.1,1.2,0.8,2.4,0.2,3.6"/>
<path class="st0" d="M647.9,156.7c0.3,1.4,0.5,2.8,0.9,4.1c0.6,1.7,1.4,3.2,2.5,4.7c2.7,3.7,2.6,5.9-0.4,9.4"/>
<path class="st0" d="M654,196.4c-1.8-0.4-3.6,0.2-5.4,0.2c-3.1,0-6.2,0-9.2,0.4c-5.1,0.6-10.1-0.4-15.1-0.3c-1.5,0-3-0.6-4.5-0.9"/>
<path class="st0" d="M151.1,5.3c2.1-0.7,2.3-0.6,2.5,1.6c0.1,0.8,0.3,1.3,1.1,1.5c0.8-0.1,1.3-0.8,1.6-1.3c1.1-1.7,2.3-3.2,3.8-4.5
	c0.6-0.5,1.1-1,1.6-0.8c0.6,0.2,1,0.9,0.9,1.7c0,1.1-0.7,2.4,0.4,3.4c0.4,0.1,0.8-0.3,1.2-0.5c1.2-0.8,1.9-0.4,1.9,1.1
	c0,1.5,0.2,2.2,2,2.2c2,0,2.2,0.5,2.2,3.5c1.5,1.3,2.4-0.8,3.8-0.5c0.4,0.8,0.8,1.7,1.3,2.5c0.9,1.4,1.8,1.7,3.2,0.9
	c1.5-0.9,3.2-0.8,4.7-1.4c0.9-0.4,1.4,0.5,2,1.1c0.6,0.6,0.8,1.6,2,1.5c0.7,0,0.9,0.6,0.6,1.4c-0.5,1-0.4,2.1,0.2,3
	c0.4,0.7,0.4,1.3,0,2c-0.6,1.3-0.4,1.8,1.1,1.9c1.1,0.1,2.2-0.1,3.2-0.3c1.2-0.2,2.4-0.2,3.6,0c-0.1,0.6-0.3,1.2-0.4,1.8
	c0.4,0.7,1.2,1,1.2,2.1c0,1,1.1,0.9,1.9,0.9c1.2,0,2,0.4,1.6,1.8"/>
<path class="st0" d="M397.7,206.7c-2.1,0.5-4.2-0.1-6.3,0c-4.9,0-9.7-0.3-14.6,0.5c-4.4,0.7-8.7,1.6-13,2.9
	c-1.2,0.4-2.2,0.9-3.2,1.5"/>
<path class="st0" d="M405.6,282.5c1.2,2.5,2.4,4.9,4.5,6.9c1.8,1.7,2.5,4.1,3.2,6.3c2.3,7.1,4.3,14.4,5.9,21.7
	c0.2,1.2,0.7,2.4,0.7,3.6"/>
<path class="st0" d="M289.9,261.4c-1.4,1.7-1.5,3.8-1.5,5.8c-0.2,3.8-0.4,7.7,0.7,11.5c0.1,0.2,0.3,0.4,0.5,0.5"/>
<path class="st0" d="M362.4,415.5c0.9,1.4-0.1,2.7-0.4,4c-1.1,4.4-2.4,8.8-3.6,13.1c-0.1,0.3-0.4,0.5-0.5,0.7"/>
<path class="st0" d="M282,251.3c1,1.4,2.1,2.6,2,4.5c-0.1,2.1,1.4,3,3,3.6c1.5,0.5,2.9,1.3,4.2,2.3c1.3,1,2.8,1.9,4.6,1"/>
<path class="st0" d="M77.7,460.7c-3.9,0.5-7.8,0.8-11.7,0.9c-3.5,0.2-7.1,0.1-10.6,0.3c-1.3,0.1-2.8-0.9-3.9-0.6
	c-2.6,0.7-5.2-0.4-7.8,0.6c-1.7,0.6-3.7,0.4-5.2,1.6c-0.2,0.1-0.6,0.2-1.1,0.1c-1.2-0.3-2.4,0.1-3.6,0.4c-1.2,0.3-2.6,0.9-4-0.1
	c-1.2-0.8-1.9-0.3-2.3,1"/>
<path class="st0" d="M338.5,246.1c-0.7,2.2,0.2,3.5,2.5,3.8c0.2,0,0.5,0.1,0.7,0c4-0.8,8,0.1,12.1-0.2c1.1-0.1,2.1-0.5,2.9-1.1
	c0.9-0.7,1.8-0.9,2.9-0.9c1.9,0,3.8,0.1,5.8,0c1.8-0.1,3.3-0.8,4.7-2"/>
<path class="st0" d="M107,363.5c1.3,1.9,0.1,3.6-0.2,5.4c-0.3,1.8-0.7,3.6-1,5.4c-0.5,2.9-0.5,5.9-1.4,8.8c-0.8,2.7-1.1,5.6-1.5,8.4
	c-0.3,1.7-0.7,3.4-0.3,5.2c0.2,1-0.4,1.5-1.5,1.4"/>
<path class="st0" d="M68,447.2c-2.9,2.3-6.3,3.8-9.2,6.2c-1.6,1.4-3.7,2.1-5.5,3.3c-0.6,0.4-1.4,0.6-1.9,1.5
	c-0.5,0.9-1.8,0.6-2.8,0.6"/>
<path class="st0" d="M402,433.5c0.9,0.7,0.2,1.5-0.1,1.9c-0.9,1.3-1.5,2.8-1.8,4.4c-0.2,1.1-1,2-1.4,3.1c-1.6,4.4-4.7,8.1-6.2,12.6
	c-0.1,0.4-0.5,0.7-1.1,0.5"/>
<path class="st0" d="M96.4,472.4c-0.5-0.1-1,0-1.4-0.2c-1-0.5-1.9-1.6-3.2-0.7c-2.2,1.6-4.7,3-4.8,6.1c-0.1,3.9,0.3,7.8,0.9,11.7
	c0.1,0.7,0.2,1.4,0.9,1.8c0.5,0.4,0.9,0.9,1.3,1.4c1.5,2.1,2.8,2.7,5.2,1.9c0.6-0.2,1.1-0.2,1.6-0.3"/>
<path class="st0" d="M115.8,343.3c-1.7,1.7-1.8,4-1.9,6.1c-0.1,1.1,0.8,1.7,1.8,1.9c0.8,0.2,1.7,0.2,2.3-0.7
	c1.2-1.6,1.3-3.5,1.8-5.2c0.1-0.3,0.2-0.5,0.4-0.7"/>
<path class="st0" d="M355.1,442.7c0.9-0.3,1.1-1.3,1.2-1.8c0.2-1.9,0.9-3.6,1.5-5.4c0.1-0.5,0-1.1-0.2-1.6c-0.8-1.6-1.2-3.4-2-5
	c-1.3-2.7-2-5.6-3-8.5c-0.5-1.4-1.2-2-2.6-1.8"/>
<path class="st0" d="M579.3,402.9c1.2-0.2,2.2,0.5,3.2,0.8c3.2,1,6.3,2.2,9.4,3.4c3.8,1.4,7.6,2.9,11.5,4c0.6,0.1,1.1,0.4,1.6,0.7
	c1.2,0.7,2.2,0.7,2.5-1c0-0.1,0.1-0.1,0.2-0.2l0.2,0.2"/>
<path class="st0" d="M720.6,479.8c-0.4-5.3-0.8-10.7-1.3-16c-0.2-2.3-1-3-3.2-3.1c-3.6-0.2-7.3-0.5-10.8-1.4c-3.6-1-7.3-0.1-10.8-1
	c-4.5-1.1-9.2-0.3-13.7-1.8c-0.9-0.3-2-0.3-2.8,0c-2.1,0.6-4,0.3-5.8-0.8c-0.8-0.4-1.3,0.2-2,0.2"/>
<path class="st0" d="M316.5,426.3c1,1.6,2.7,2.4,4.1,3.4c2.8,2,4.8,4.8,7.2,7.2c0.2,0.2,0.3,0.6,0.5,0.7c1.8,0.6,1.9,2.1,2,3.6
	c0.1,1.9,0.4,3.8,0.3,5.8c-0.1,2.3,0.8,4.5,0.9,6.8c0.1,2.8,1.1,5.6,1.3,8.5c0.1,1.8,0.7,3.6,0.9,5.4c0.4,2.9,0.5,5.8,1,8.7
	c0.3,1.9,0.2,3.9,0.7,5.8c0.2,0.7,0.5,1,1.1,1.2"/>
<path class="st0" d="M356.7,400.6c0.3,1.6,0.5,3.1,0.9,4.7c0.3,1.2,0.1,2.3-1,2.8c-1.1,0.5-2.2,0.5-3-0.7c-1.4-1.9-1.8-4.1-2.1-6.3"
	/>
<path class="st0" d="M297.8,455.5c4,1.7,8.4,2.6,12.3,4.8c1.8,1,3.9,1.2,5.9,1.7c3.8,0.9,7.5,2.2,11.1,3.6c0.6,0.2,1.1,0.1,1.6,0.2"
	/>
<path class="st0" d="M337.1,218.2c-2-1.6-4.4-2.2-6.8-2.8c-2.4-0.6-4.8-0.4-7.2-0.6c-1.4-0.1-2.9,0.8-4.1,1.4
	c-3.2,1.8-6.5,3.5-9.7,5.3c-2,1.1-3.8,0.4-5.5,1.1"/>
<path class="st0" d="M153.6,368.5c0.1-1.3-0.8-2.1-1.6-2.9c-0.5-0.5-1-0.5-1.4,0c-0.5,0.6-1.2,1-0.7,2c0.4,0.8,0.6,1.5,0.9,2.3
	c0.3,0.8,0.5,1.5-0.5,2c-0.8,0.4-1.6,0.7-2.4-0.2c-0.6-0.8-1.8-1.2-1.6-2.5"/>
<path class="st0" d="M136.9,448.6c1.8,1.7,4.3,1.5,6.5,2c2,0.5,4,0.8,6.1,0.9c0.8,0,1.7,0,2.3-0.2c1.1-0.4,2.2-0.2,3.3-0.3"/>
<path class="st0" d="M627.6,139.6c0.4,2.8,0.1,5.5-0.5,8.3c-0.6,2.5-1,5-0.8,7.6"/>
<path class="st0" d="M156.3,144.2c0.1,0.7,0.5,1,1.1,1.5c2.9,2.3,5.8,4.7,7.4,8.2c0.9,2.1,2,4.2,1.9,6.6c-0.1,1.1,0.3,2.3,0.5,3.4"
	/>
<path class="st0" d="M618,146.6c-4.7,0.9-9.4,2.1-14.2,0.6c-0.4-0.1-0.9,0.1-1.3,0.2"/>
<path class="st0" d="M122.3,134.9c-1.2,0-2.3,0.6-3,1.5c-0.6,0.7-1.2,0.7-1.8,0.7c-1.4,0-2.7,0.7-3.9,1.1c-0.9,0.3-1.6,1.1-1.4,2.1
	c0.1,1.2,0.9,2,2,2.3c1.3,0.4,2.6,1.2,4.2,0.4c0.4-0.2,1.1-0.3,1.6,0.1"/>
<path class="st0" d="M122.3,447.9c0.3-1.9,0.1-2.1-1.6-1.6c-2.7,0.8-5.6,0.9-8.1,2.3c-3.6-0.6-6.3,2.2-9.7,2.5
	c-1.3,0.1-2.2,1.5-3.8,1.2c-0.5-0.1-0.8,1.1-0.2,1.9"/>
<path class="st0" d="M470.6,431.3c-0.8,2.5-0.4,5-0.5,7.6c-0.2,2.9-1.2,5.6-2.6,8c-0.9,1.5-2.8,2.2-4.4,3.1"/>
<path class="st0" d="M223.5,80.7c-1.9,1.2-4.1,0.4-6.2,0.5c0.1,0.5-0.1,0.8,0.2,0.9c1.8,1.1,3.2,2.9,5.4,3.4
	c2.4,0.5,3.3,2.7,4.6,4.4c0.7,0.8-0.4,2.4-1.9,3.4c-0.8-0.4-0.7-1.2-0.7-2"/>
<path class="st0" d="M654,146.4c5,1.1,10.1,0.7,15.1,0.4"/>
<path class="st0" d="M289.7,292c0.9,1.9,0.6,4.1,1.8,6c0.1,0.2-0.1,0.7-0.3,0.9c-2.7,1.8-4.1,4.8-6,7.3c-1.5,2-1.9,4.5-1.9,7"/>
<path class="st0" d="M620.9,133.3c1.7-0.6,1.7,1.1,2.3,1.8c1,1.3,0.1,2.7,0,4.1c-0.1,1.2-1.4,1-2.1,1.2c-2.8,0.7-5.7,1.7-8.6,1.7
	c-2.2,0-4.5-0.2-6.7-1.3c-2-1-4.2-1.6-6.3-2.6c-1.3-0.6-2.5-0.9-3.8-0.2c-0.5,0.2-1.2,0.3-1.8,0"/>
<path class="st0" d="M707.3,154.7c-0.4-2,0.1-4.2-0.8-6.1c-1-2.1-0.2-4.2-0.5-6.3c-0.4-2.3-2-3.6-4.5-3.6"/>
<path class="st0" d="M606.5,449.7c-1.9-0.6-3.5,0.4-5.2,0.6c-3,0.3-5.8,1.1-8.6,2.1c-1.2,0.4-2.6-0.4-3.8,0.6"/>
<path class="st0" d="M198.3,370.5c1.2,2,1.4,4.5,0.6,6.4c-1.6,4-2.3,8.6-5.4,11.9c-1.2,1.3-2.4,2.7-3.7,4c-1.3,1.2-2.1,2.6-2.3,4.3
	c-0.2,1.9-1.6,3.6-0.9,5.6"/>
<path class="st0" d="M421.3,200.9c1.6,4.2,2.3,8.5,2,13c-0.1,1.6,0.4,3.4-0.4,4.8c-0.9,1.6-1.2,3.6-2.7,4.9"/>
<path class="st0" d="M52.8,356.8c1.9,0,2.9-0.6,3.4-2.2c0.5-1.5,0-3-1.4-4c-1.6-1.1-2.7-1.1-4.1,0c-2.3,1.8-2.2,3.9,0.4,5.4
	c0.5,0.3,0.9,0.9,1.6,0.7"/>
<path class="st0" d="M651.2,213.5c-0.9,0.6-1.6-0.3-2.5-0.2c-1.8,0.2-3.6,0.2-5.4,0.4c-2.9,0.4-6-0.2-8.8,1.1
	c-0.7,0.3-2.2,0.3-1.1,1.8"/>
<path class="st0" d="M629.6,361.7c0,2.2,0,4.3,0.3,6.5c0.2,1.2-0.2,2.4-0.3,3.6c-0.2,2.4,0.7,4.6,0.7,7c0.1,2.8-0.5,5.6,0,8.5
	c0.1,0.5,0,1.1-0.2,1.6c-0.5,1.2-0.5,2.5-0.5,3.8"/>
<path class="st0" d="M641.1,190.7c-0.3-0.9-1.3-1.5-2-1.4c-2.2,0.4-4.7-0.6-6.7,1c-0.2,0.2-0.8,0.3-1,0.2c-3-1.6-6-0.7-9-0.2
	c-2.3,0.4-4.7,0.7-6.8,1.9c-0.6,0.3-1-0.3-1.5,0"/>
<path class="st0" d="M161.7,185.1c-1.7,1.8-2.1,4.1-2.5,6.5c0,0.2-0.1,0.5-0.2,0.7c-1.6,5.4-1.4,11-1.3,16.6c0.1,4-0.5,8-0.8,12.1
	c-0.3,3.5-0.6,7-0.9,10.4c-0.1,1.3-0.1,2.5-0.4,3.8c-0.6,3.1,0.8,5.6,2.6,7.9c0.8,0.9,0.8,1.8,0.8,2.8"/>
<path class="st0" d="M29.4,473.3c-0.1,2.1-0.7,4.2-0.5,6.3c0.3,3.8-0.9,7.4-0.6,11.2c0.2,1.8,0.5,3.6,0,5.4"/>
<path class="st0" d="M414.6,165.8c1.8,3.2,2.2,6.8,3.2,10.3c0.1,0.5,0.4,1.2-0.1,1.8c-0.5,0.6-0.2,1.2,0.3,1.6"/>
<path class="st0" d="M342.3,203.8c-1.3,0.3-2.4-0.3-3.6-0.6c-0.9-0.2-1.9-0.4-2.7,0.1c-0.9,0.6-1.8,0.4-2.7,0.3
	c-2.6-0.2-5.3-0.9-7.9,0.3c-1.2,0.5-2.6,0-3.9-0.1c-4.2-0.1-7.8,1.6-11.5,3c-2.1,0.8-4.2,1.6-5.6,3.6c-0.3,0.5-0.5,1.1-1,1.5"/>
<path class="st0" d="M97.5,7.1c1.2,1,2.9,1.4,4.1,1.1c1.6-0.4,3.6-0.8,4.2-2.9c0.3-1,1-1.8,2.3-1.1c0.6,0.3,1-0.3,1.2-0.7
	c0.3-0.6,0.9-0.9,1.2-1.6c0.3-0.7,1.1-1.2,1.9-0.4c0.7,0.7,1.7,0.6,2.1,0.3c1.2-0.8,2.1-0.3,2.9,0.5c1,1,1.9,1,2.9,0.2
	c0.1-0.1,0.2-0.1,0.4-0.2c2.5-1.3,3.1-1,3.4,1.8c0,0.2,0.2,0.5,0.4,0.9c2.5-2.3,6.5-0.8,8.6-4c0.6,0.9,1,1.5,1.4,2.1
	c0.4,0.5,0.9,0.6,1.6,0.4c2.7-0.7,2.9-1,4.1,2.1c0.1,0.4,0.4,0.6,0.6,0.9c0.1,0,0.2,0,0.4,0c2.8-0.8,3.1-0.5,2.3,2.3
	c-0.2,0.8-0.4,1.4,0.2,2.4c1.9-1.8,4.1-3.2,6.3-4.5"/>
<path class="st0" d="M683.4,100.1c1,1.7,2.4,3.4,2.3,5.6c0,0.3,0.2,0.5,0.4,0.7c1.4,1.4,1.6,2.3,0.9,4.1c-0.3,0.8-0.2,1.4,0.5,2
	c2.3,1.8,2.6,4.3,2.5,7c0,0.8-0.2,1.6,0.5,2.3c0.3-0.1,0.8-0.2,1.3-0.4c0.1,1.3,1,2.3,0.7,3.7"/>
<path class="st0" d="M110.1,342.8c-0.9,0.5-1.4-0.2-2-0.7c-0.7-0.5-1.6-0.6-2.1,0.2c-0.4,0.7-0.9,1.5,0,2.3c0.5,0.5,0.9,1,1.4,1.4
	c0.7,0.6,0.9,1.4,0.5,2.1c-0.4,0.7-1.1,0.8-2,0.3c-0.3-0.2-0.8-0.3-1-0.6"/>
<path class="st0" d="M415.4,415.9c-0.3-0.5-0.8-0.4-1.3-0.5c-0.7-0.2-1.8-1-2.1,0.4c-0.2,1-0.4,2.5,1,2.8c1.6,0.4,1.4,1.3,1,2.4
	c-0.3,0.7-2.3,1.3-3,0.9c-0.3-0.2-0.6-0.4-0.4-0.9c0.3-0.6-0.5-0.7-0.7-1.1"/>
<path class="st0" d="M393.4,216.1c-2.7,2.1-5.9,2.9-9.2,3.6c-1.8,0.4-3.6,1-5.4,1c-3.5,0.1-7-0.2-10.1-2.1"/>
<path class="st0" d="M75.7,347.1c-0.4,0.2-0.7,0.4-1.1,0.5c-2-1.6-2.9-4-4.8-5.6c-0.4-0.4-0.7-0.6-1.1-0.5c-0.5,0.1-0.4,0.6-0.4,1
	c-0.1,1.9-0.1,3.8-0.2,5.8c-0.1,0.8,0.5,0.7,0.9,0.9"/>
<path class="st0" d="M86.5,339c2.6,0.4,3.9,2,4.5,4.5c0.3,1.2,0,2.2-0.6,3c-0.7,1.1-2.5,1.2-3.8,0.2c-2.6-2-2.8-5.3-0.4-7.7"/>
<path class="st0" d="M144.3,138.5c0.7,1.4,1.7,2.1,3.2,2.2c0.7,0.1,1.8,0.2,1.8,1.4c0,1-0.3,1.9-1.3,2.3c-1.8,0.7-3.5,1.5-5.6,1
	c-1.8-0.4-3.8,0.1-5.6-0.8c-0.5-0.2-0.8,0.2-1.1,0.4c-2.8,1.5-5.8,0.9-8.6,0.7c-1.7-0.1-3.5-0.8-5.2-1.5c-0.4-0.2-0.7-0.3-1.1,0"/>
<path class="st0" d="M586.9,99.8c-2,2.1-3.2,4.3-2.5,7.4c0.5,2.3-1.7,5.3-3.8,5.4"/>
<path class="st0" d="M148.4,153.4c1.5,2.1,3.2,3.8,5.8,4.7c1.2,0.4,2.1,1.2,2.6,2.6c0.4,1.2,1.5,2.1,1.2,3.6c-0.1,0.3,0.5,0.7,1,0.5
	"/>
<path class="st0" d="M655.8,195c0.2,1,1.2,0.6,1.6,0.5c1.9-0.8,4.1-0.9,5.8-2.3c0.3-0.3,0.7-0.5,0.5-0.9c-0.6-1.3-1.1-2.9-2.7-3.4
	c-3-0.8-6-0.8-9-0.2c-0.2,0-0.4,0.1-0.5,0.2c-2.9,2.2-6.2,1.9-9.5,1.9c-1.4,0-2.9,0.5-4.3,0.9c-2,0.5-3.7,0-5.2-1.1"/>
<path class="st0" d="M622.4,161.2c-1.3,2.9-2.8,5.6-2.2,9c0.4,2.2,2.8,4.3,5.1,4.3c0.7,0,1.4,0.2,2.2,0.3"/>
<path class="st0" d="M45.3,225.6c-1-0.6-2.1-0.5-3-0.2c-3.2,1.1-6.6,1.9-9.9,2.7c-0.7,0.1-1.4,0-2-0.4c-1-0.7-1.9-0.5-2.7,0
	c-3,1.8-6.2,3.4-9.6,4.4c-3.1,0.9-5.9,2.6-9.1,3.2c-0.5,0.1-1.1,0.3-1.6,0.7c-2,1.4-4.1,1.3-6.3,0.9"/>
<path class="st0" d="M386.7,404.3c-0.8,1.8-0.1,3.7-0.5,5.6c-0.2,0.8-0.4,1.2-1.3,1.5c-1.8-2.4-3.8-4.7-4.2-7.8"/>
<path class="st0" d="M752.3,383.6c0-0.9-0.6-0.7-1.1-0.7c-0.4,0-0.8,0.3-0.9,0.4c-1.7,2.1-4.3,2-6.5,2.4c-1.4,0.3-2.5,1.2-3.9,1.4
	c-1.4,0.2-2.7,0.2-3.8-0.8c-0.7-0.6-1.3-0.8-2.2-0.7"/>
<path class="st0" d="M163.4,67.6c-0.5-0.3-0.9-0.8-1.6-0.5c-2.7,1-5.6,0.9-8.3,1.9c-1.3,0.5-2.9,0-4.3,0.2c-3.2,0.4-6.4,1-9.7,0.4"
	/>
<path class="st0" d="M605.6,450.4c-0.7,1-1.5,1.7-2.7,2c-1,0.3-1.9,0.8-2.5,1.6c-1,1.2-2.3,2-3.5,3c-1,0.9-2.4,1.2-2.4,2.9
	c0,0.4-0.9,0.8-1.4,1.3"/>
<path class="st0" d="M573.2,438c1.5,0.7,3,1,4.7,0.9c1.5-0.1,2.9,0.2,4.3,0.7c1.4,0.5,3,0.6,4.5,0.7c1.9,0.1,3.9,0.6,5.8,1.4
	c0.3-0.3,0.6-0.6,0.9-0.9"/>
<path class="st0" d="M297.3,309.5c-1.6,0.4-3.5,0.3-4.9,1.2c-3,1.8-6.4,1.7-9.5,2.5c-3.2,0.8-6.6,0.2-9.9,0.3
	c-1.9,0-3.7,0.2-5.6,0.4c-0.5,0-1,0.5-1.4,0.7"/>
<path class="st0" d="M357.2,279.2c-0.9-0.7-1.9-0.4-2.9-0.3c-4.4,0.2-8.7-0.7-13-1.8c-0.2-0.1-0.6-0.5-0.9,0"/>
<path class="st0" d="M588.5,453.1c-0.6,0.1-1.1,0.6-1.8,0.2c-0.3-0.2-0.9-0.1-1.4,0.1c-2.3,1.2-4.8,1.8-7.4,2.4
	c-0.7,0.2-0.4,0.9-0.7,1.3"/>
<path class="st0" d="M404.9,285c-0.5,0.4-1,0.9-1.6,1.4c0.2,2.5,1.7,4.7,2.9,6.8c1.1,2.1,1.6,4.2,2,6.4c0.8,4.4,0.1,8.9,0.5,13.3
	c0,0-0.3,0.1-0.5,0.2"/>
<path class="st0" d="M120.2,466.4c-3.7-0.4-7.1-1.7-10.6-2.7c-0.8-0.2-1.6-1-2.3,0.2"/>
<path class="st0" d="M713.8,429.7c-3-0.5-5.9-1.7-9-1.8c-2.2-0.1-4.2,0.6-6.3,1.2c-1.8,0.5-3.7,0.8-4.9,2.5c0,0-0.3,0.4-0.9,0.3
	c-1.5-0.3-2.8,0.8-4.1,1.4"/>
<path class="st0" d="M710.4,135.2c0.1-0.4,0.4-0.8,0.3-1.1c-0.9-2-0.6-4.4-1.8-6.3c-0.4-0.6-0.7-1.2-0.9-2c-0.5-2-0.9-2.3-3-1.6"/>
<path class="st0" d="M381.9,170.9c1.2,1.4,2.7,2.5,3.6,4.1c1.5,2.6,2.8,5.1,3,8.1c0,0.7,0.5,1.1,1,1.4c0.6,0.4,1,0.8,1.2,1.5"/>
<path class="st0" d="M545.1,393.2c-1.3,2.9,0.8,4.5,2.6,6.1c1,0.8,2.2,1.5,3.5,1.7c1.8,0.3,3.3,1.7,5.2,1.4"/>
<path class="st0" d="M52.1,433.7c-3.8,0.1-7.6,0.1-11-2c-0.7-0.4-1.7-0.2-2.3-0.9"/>
<path class="st0" d="M114.4,381.7c-0.1,1.3-0.7,2.4-1.8,2.8c-0.9,0.4-1.4,1-1.7,1.7c-1.8,3.2-4.7,5.6-6.2,9
	c-0.3,0.6-0.9,1.3-1.8,1.5"/>
<path class="st0" d="M319.4,220.7c-1.5-0.3-2.7,0.6-3.9,1.1c-2,0.9-4.2,0.8-6.2,1.9c-0.6,0.3-1.4,0-1.8-0.9"/>
<path class="st0" d="M110.8,472.2c0.1,0.2,0.3,0.5,0.4,0.5c1.9-0.2,3.7,0.5,5.6,0.9c3.1,0.5,6.4,0.4,9.4,1.6
	c1.6,0.7,2.6,1.4,2.4,3.5c-0.2,1.6,0.2,3.4,0.3,5"/>
<path class="st0" d="M290.1,278.5c-0.9,3.2-0.6,6.1,1,9.2c1.2,2.4,1.6,5.1,2.4,7.7c0.8,2.5,1.5,5.1,2.2,7.7c0.4,1.6,0.8,3.2,1.3,4.9
	"/>
<path class="st0" d="M709.7,429.5c-0.4,0.7-1.2,0.5-1.8,0.5c-1,0.1-2,0.3-2.9,0.2c-3-0.1-5.8,0.9-8.7,1.5c-0.8,0.2-1.6,0.1-2.3-0.3"
	/>
<path class="st0" d="M82,338.6v5.4c0,2.9,2,4.1,4.6,2.7"/>
<path class="st0" d="M298.5,308.9c1,2.6,1.8,5.3,2.9,7.9c0.6,1.4,1.6,2.7,3.4,2.9"/>
<path class="st0" d="M567.3,466.8c1.1,1.2,0.9,2.8,1,4.1c0.2,3.5,0.2,7,0.2,10.4c0,1.9-0.8,3.7-0.2,5.6"/>
<path class="st0" d="M307.9,283.2c-2.5,0.1-2.3,2.4-2.6,3.8c-0.8,3.6-1.3,7.3-1.2,11"/>
<path class="st0" d="M669.2,455.3c1.6,1.9,3.2,3.8,4.6,5.8c0.3,0.4,0.2,1.2-0.5,1.8c-2.3-0.7-4.9-0.6-7.4-1.7
	c-2.7-1.2-5.7-0.1-8.6-0.1c-0.8,0-1.6,0.3-2.3,0.1c-5.3-0.8-10.5,0.4-15.7,0.7c-2,0.1-4.2-0.2-6.1,0.3c-3.2,0.7-6.5,0.5-9.6,1.9
	c-0.8,0.3-1.6,0.7-2.5,0.2"/>
<path class="st0" d="M619.5,175.4c-4.9,1.6-7.3,5.8-10.3,9.5"/>
<path class="st0" d="M116.7,154.9c-1.9-1.6-4-0.7-6.1-0.4c-2.5,0.4-4.9,0.8-7.2,2c-0.7,0.4-1.5,0.3-2.3,0.4c-0.7,0-1.3,0.2-1.8,0.6
	c-0.7,0.6-1.5,0.7-2.4,0.7c-1.2,0-2.3,0.3-2.7,1.6"/>
<path class="st0" d="M149.3,120.5c-0.6-1.4,0-2.8,0.4-4.1c0.1-0.5,0.8-0.6,1.4-0.6c2.9-0.1,5.8,0.4,8.6,0.8c1.2,0.2,2.6,0.7,2.9,2.3
	"/>
<path class="st0" d="M140,108.6c1.6-0.9,3.4-1.1,5.2-1.2c0.8-0.1,1.4-0.6,2.2-0.7c4.5-0.6,9.1-1.2,13.7-0.4c0.8,0.1,1.7,0.3,2.3,0
	c1.9-0.9,3.6,0.1,5.4,0.1c0.6,0,1.3,0.3,2,0.3c0.9,0,1.8,0.1,2.1,0.9c0.9,2.4,3.2,2.7,4.9,3.7c1.1,0.6,2.1,1.2,2.8,2.1
	c0.7,1,1.6,1.3,2.6,1.6"/>
<path class="st0" d="M682.1,136.1c-4.1,0.7-8.3,1.4-12.4,2.3c-2.6,0.6-5.3,0.9-7.8,2.1c-2.2,1-4.9,0.9-6.9-0.9
	c-0.9-0.8-2.3-0.6-2.8-1.9"/>
<path class="st0" d="M380.8,248.6c1.6,4,3.7,7.8,6.5,11.2"/>
<path class="st0" d="M93.2,338.6c0.2,1.9-0.6,3.7,0,5.6c0.3,0.9,0.4,1.8,0.8,2.7c0.5,1.3,1.8,0.6,2.7,0.8c0.4,0.1,1.4-0.1,1.6-1.2
	c0.4-2.4,0.9-4.8,1.1-7.2"/>
<path class="st0" d="M608.1,127.7c3.3-0.8,6.3,0,9.1,1.7c0.7,0.4,1.5,0.6,2.2,1c0.9,0.6,1.8,1.2,1.8,2.5"/>
<path class="st0" d="M91.4,115.4c2.4,2.2,5.5,2.7,8.3,4c1.7,0.8,3.6,0.8,5.4,1.2c1.4,0.3,2.6,1.2,4.2,1c1.2-0.2,2.4,0,3.4-0.9"/>
<path class="st0" d="M138.2,155c-0.1,1.3,1.1,0.9,1.6,1c1.6,0.2,2.8,1.3,4.1,1.9c0.7,0.3,1.2,1.3,0.1,2.1c1.2,1.7,3.1,2.4,4.9,3.2
	c1.1,0.5,1.8,1.7,3.1,2c0.9,0.2,1.7,0.8,2.7,0.7"/>
<path class="st0" d="M675.5,445.9c0.6,1.2,1.7,1.8,2.7,2.5c2.1,1.6,4.2,3.2,6.3,4.9c0.2,0.2,0.2,0.6,0.4,0.9"/>
<path class="st0" d="M51.6,467.2c-1.3-0.4-2.4-0.2-3.5,0.9c-1.2,1.2-2.9,1.4-4.5,1c-1.1-0.3-2-0.3-3.1-0.3c-1.1,0.1-2.3-0.1-3.4-0.2
	c-1.9-0.2-4,0.2-5.9,0.4c-1.4,0.1-2.8-0.3-4.2,0.3c0.5,1.5,0,3,0.3,4.4c0.5,0.6,1.1-0.4,1.5,0.3"/>
<path class="st0" d="M82.5,456.7c-0.5-0.5-1.3-0.5-1.8-0.3c-2.7,1.1-5.6,0.6-8.3,1.8c-1,0.4-2,0.2-3.1,0"/>
<path class="st0" d="M470.1,431.7c-3.2,1.8-6.7,3-10.3,4c-0.8,0.2-1.1,0.8-1.1,1.6"/>
<path class="st0" d="M327.2,257.8c-0.6,2.9-0.9,5.8-1.8,8.6c-0.1,0.5,0.1,1.1,0.1,1.6"/>
<path class="st0" d="M622.4,81.6c-1.6,0-3.1-0.1-4.2,1.4c-0.1,0.2-0.6,0.3-0.9,0.2c-1.7-0.6-3.2,0.2-4.8,0.7"/>
<path class="st0" d="M128.1,66.7c0.7,1,1.7,1.4,2.9,1.3c1.6-0.1,3.1,0.1,4.7-0.2c1.2-0.2,2.2,0.8,3.4,1.1"/>
<path class="st0" d="M647.4,359.2c1.1,0,1,0.9,0.9,1.5c-0.5,2.2,0.1,4.4-0.1,6.7c-0.3,3.4-0.2,6.8-0.2,10.2c0,3.4-0.5,6.8-0.8,10.3
	c-0.2,2.5-0.4,2.5,1.8,2.9"/>
<path class="st0" d="M148.6,473.5c2.4,2.5,5.5,4.2,7,7.5c0.5,1.1,1.3,2.2,1.6,3.4"/>
<path class="st0" d="M5.7,375c0.6,1,1.2,1.8,1.4,3c0.1,1,0.5,2.3,1.5,3.1c0.9,0.7,1.1,1.6,0.9,2.5c-0.3,1.1,0.1,1.8,0.9,2.4
	c1.6,1.2,3,2.5,4.7,3.5c1,0.6,1.9,1.2,2.6,2.3c0.8,1.1,2.2,1.9,3.5,2.5c0.5,0.3,0.7,0.6,1,1"/>
<path class="st0" d="M44.2,474c0.1-0.7-0.4-0.7-0.9-0.7c-1.9-0.2-3.7,0.4-5.6,0.4c-0.9,0-0.8,0.8-0.9,1.3c-0.1,1.3,0,2.5,0,3.8
	c0,1.1,0.7,1.7,1.8,1.8c2.2,0.1,4.3,0.2,6.5,0.4c0.5,0,1-0.1,1.5,0.5c0.2,1.5,0.4,3.2,0.6,4.9"/>
<path class="st0" d="M270.6,430.8c0.2,2,1.1,4,1.4,6c0.5,3.4,0.5,6.8-0.8,10.1c-0.3,0.7-0.5,1.4-0.2,2.2c0.8,1.6,0.4,3.1,0,4.7
	c-0.5,1.6,0,3.2-0.1,4.9c-0.1,2.4,0.3,4.6-0.9,6.9c-0.4,0.6,0.1,1.6,0.1,2.5"/>
<path class="st0" d="M144.8,159.4c2.5,0.9,5.1,1.6,7,3.6c0.2,0.2,0.5,0.5,0.6,0.5c2.2-0.3,2.2,1.3,2.5,2.7c0.1,0.3,0.3,0.5,0.5,0.7"
	/>
<path class="st0" d="M144.3,448.1c0-0.5-0.1-0.9,0.4-1.2c-0.8-0.9-2.1-0.8-2.9-0.5c-3,1.2-6.2,1.6-9.4,2.1"/>
<path class="st0" d="M117.6,118c-2.6-1.5-5.1-3.4-8.1-3.7c-1.9-0.2-4.1-1.1-5.9,0.7"/>
<path class="st0" d="M5.7,368c0.1,0.1,0.3,0.1,0.3,0.2c0.9,3.4,3.6,5.9,4.2,9.4"/>
<path class="st0" d="M420,418.9c1.3,1.7,2.6,3.5,4.9,4.1c0.8,0.2,1.3,0.9,1.1,1.8c-0.2,1,0.6,1.7,0.7,2.5"/>
<path class="st0" d="M342.4,206.7c-1.3-1.3-3.1-0.4-4.6-0.9c-1.5,1.5-3.3,0.7-4.6,0.2c-1.9-0.6-3.9-0.4-5.8-0.9
	c-0.5-0.1-0.8-0.4-1.2-0.6"/>
<path class="st0" d="M281.1,481.6c0,0.6-0.4,0.7-0.9,0.7c-2.1,0.4-2.8,1.8-2,3.8c0.4,0.9,0.6,1.8,0.7,2.7c0.1,0.9,0.5,0,0.7,0.2"/>
<path class="st0" d="M178.1,177.7c-3-0.7-4.4,1.1-5.4,3.4c-0.6,1.5-1.9,1.2-2.9,1.8c0,0-0.2-0.3-0.4-0.5"/>
<path class="st0" d="M47.4,486.6c-0.6-0.7-1.1-0.3-1.4,0.2c-1.1,1.7-2.9,1.5-4.5,1.6c-1.1,0.1-2.3,0-3.6,0c0.2,2.8,0,5.4,0.5,7.9"/>
<path class="st0" d="M128.1,184.2c-1.1-0.1-2.2-0.1-3.2-0.4c-2-0.7-4.1-0.6-6.1-0.3"/>
<path class="st0" d="M515.6,435.3c-0.1-0.2-0.1-0.4-0.2-0.5c-0.3-1.1-0.4-2.6,0.6-2.9c0.8-0.2,2.4-0.5,3.2,0.8
	c-2.9,1.2-0.6,3.4-1.2,5.3c1.6,0.2,2.7-0.2,3-1.5c0.6-2.4,0.2-3.4-1.6-4"/>
<path class="st0" d="M388.4,421.3c1,1.4-0.1,2.7-0.2,4c-1,7.2-1.9,14.5-4.2,21.4c-0.5,1.7-0.2,3.5-0.9,5.1c-0.2,0.6-0.6,0.8-1,1.2"
	/>
<path class="st0" d="M105.8,150.4c-0.1-0.3-0.2-0.8-0.7-0.4c-2.4,1.6-4.8,3-7.4,4.3c-0.5,0.2-0.6,0.6-0.5,1.1"/>
<path class="st0" d="M306.3,412.3c-1.8,0.1-2.4,1.5-2.6,2.9c-0.3,1.4,0.8,2,1.9,2.7c1.4,0.9,2.7,1.6,4.1,0.3c1.1-1,1.3-2.7,0.4-3.9
	c-0.5-0.8-1.2-1.5-1.8-2.2c-0.6-0.7-1.2-0.5-1.8,0.2"/>
<path class="st0" d="M331.7,165.8c-0.2-0.6-0.4-1.2-1.3-1.1c-3,0.6-6,1.4-9,2.4c-0.3,0.1-0.9,0.2-0.7,0.9c0.2,0.9-0.6,0.9-1.1,1.1"
	/>
<path class="st0" d="M320.5,220.7c0.9,0.3,1.8,0.6,2.7,0.9c0.5-0.5,0.9-1,1.3-1.5c0.3-0.3,0.7-0.4,0.5-0.9c-0.1-0.4-0.5-0.5-0.9-0.5
	c-1.5-0.1-2.9,0.3-4,1.4c-1,1.1-0.6,2.9,0.7,3.9c1.5,1.1,2.1,1,3.4-0.7"/>
<path class="st0" d="M123.8,485.3c-0.1-0.3-0.2-0.6-0.3-0.9c-0.5-2.5-2-3.8-4.5-3.8c-0.7,0-1.3-0.1-2-0.1"/>
<path class="st0" d="M564.8,136.9c-1.4-0.7-1.3-0.6-2.4,0.3c-1.9,1.8-1.6,4.1-1.6,6.3"/>
<path class="st0" d="M240.2,353c-0.1-1.9-1.6-2.8-2.9-3.8c-1.5-1.2-3.2-2.1-4.8-3.1"/>
<path class="st0" d="M62.2,344.4c1.4,1.2,1.8,3.2,3,4.5c0.1,0.1,0,0.8-0.2,0.8c-0.4,0.2-1,0.4-1.4,0.2c-1.4-0.7-3.1-0.8-4.2-2.1
	c-0.7-0.9-1.7-1.2-3.1-0.6c1.4,2,2.7,3.9,4,5.9"/>
<path class="st0" d="M673.8,92c0-2.1-1.7-3.5-2.5-5.2c-0.2-0.5-0.6-0.8-0.8-1.4c-0.2-0.9-1.1-1.3-2.1-1.1"/>
<path class="st0" d="M123.8,371.8c-1.8,0.5-2.7,2-3.6,3.4c-0.9,1.5-1.7,2.9-3.4,3.6c-0.5,0.2-0.6,0.7-0.9,1.1
	c-0.6,0.7-1.1,1.5-2.3,1.8c-1.1,0.3-2.2,1.5-1.7,3.1"/>
<path class="st0" d="M149.5,116.3c-2.1-0.3-3.9,0.6-5.8,1.4c-0.9,0.4-1.8,1.5-3,0.8"/>
<path class="st0" d="M146.4,365.5c1,0.4,1.8,0.3,2.5-0.5c0.7-0.8-0.1-1.6-0.3-2.3c-0.2-0.9-1-1.7-2-2.3c-3,0.9-3.4,4-5.1,6"/>
<path class="st0" d="M132.4,350.2c-1.8,2.5-2.5,5.5-3.6,8.3"/>
<path class="st0" d="M557.6,401.6v4c-3.3,0.2-6.5,0.5-9,2.7"/>
<path class="st0" d="M620.2,419.5c-2.1-0.1-4.2,0-6.3-0.2c-1.8-0.1-3.5,0.5-5.4,0.3c-1.7-0.3-3.5,0-5.2,0.8
	c-0.8,0.4-1.4,0.6-1.5,1.6c0,0.5-0.3,1.1-1.2,0.8c-0.7-0.2-1.5,0-2.3,0.1c-1.9,0.2-3.3,1.9-3.4,3.8c0,1.1,0.6,1.6,1.5,1.9"/>
<path class="st0" d="M76.6,470.4c-1.1,0.1-1.1-0.7-1.1-1.4c0-1,0.2-1.9-0.3-3.1c-1.3,0.2-2.6-0.1-4.1,0.3c-1.2,0.3-2.6,0.3-3.8,0
	c-1.5-0.3-2.7,0.7-4.2,0.6"/>
<path class="st0" d="M329.9,484.1c-1.4-0.2-3.1-0.1-4.2-0.5c-1.5-0.6-2.8-0.6-4.2-0.7c-0.6,0-1.3-0.1-1.6,0.7
	c-0.4,1.1-1.4,1-2.3,0.9"/>
<path class="st0" d="M83.1,419.5c-3.8-1-7.6-1.9-11.3-2.9c-0.4-0.1-0.9-0.1-1.2,0c-2.3,0.6-4.9,0.7-6.3,3.2c-0.5,1-1.5,0.8-2.3,0.7
	c-1.6-0.2-2.4,0.4-3,2c-0.5,1.4-0.3,2.9-1.2,4.2"/>
<path class="st0" d="M144.8,446.8c1.9,1,3.9,1.8,5.9,2.4c0.8,0.2,1.8,0.4,2,1.6"/>
<path class="st0" d="M166.4,66.8c0.2,1.6,1.6,1.3,2.5,1.4c1.1,0.1,2.2,0.2,3.2,0.4c0.1,0,0.3-0.1,0.4,0c2.3,2.7,6.5,3.1,8.1,6.6
	c0.1,0.3,0.1,0.6,0.2,0.9"/>
<path class="st0" d="M73.9,340c0.4,1.7,0.8,3.4,1.3,5.1c0.6,2,1.7,2.5,3.6,1.6c0.7-0.3,1.3-0.8,2.2-0.4"/>
<path class="st0" d="M90.1,359.5c-0.4,0.4-1,0.1-1.5-0.3c-0.8,4.2-0.2,8-0.6,11.8c-0.3,3.5-0.2,7.1-1.2,10.6
	c-0.4,1.3-0.1,2.8,0.4,4.1c0.2,0.5,0.2,1.2,0.2,1.8"/>
<path class="st0" d="M157.2,370c-2.1,2-4.1,4.2-6.4,5.9c-0.1,0-0.3-0.1-0.4-0.2"/>
<path class="st0" d="M159.9,119.4c0.1,0.5,0.3,0.9,0.3,1.4c0.1,0.7-0.8,1.2-1,1c-1.6-0.8-3.3-0.2-4.9-0.7c-0.4-0.1-0.5-0.3-0.7-0.6"
	/>
<path class="st0" d="M637.8,79.1c-1.1,0.8-2.1,1.8-3.2,2.5c-1.7,1.1-3.3,1.3-4.5-0.7"/>
<path class="st0" d="M707.7,154.7c-1.1,0.3-1.2,1.4-1.4,2.2c-0.4,1.7-1.2,3-2.9,3.6c-0.7,0.2-0.9,1.2-1.8,1.1"/>
<path class="st0" d="M568.5,152.9c-1.7,2.9-0.5,5.6,2.7,6.3"/>
<path class="st0" d="M144.1,159.9c-1.5-0.5-3-1-4.5-1.3c-1.1-0.3-2.1-0.4-3.3-0.5"/>
<path class="st0" d="M99.3,454.2c-0.9,0.3-0.4,0.9-0.2,1.2c1.6,2.2,3.2,4.5,4.8,6.7"/>
<path class="st0" d="M517.4,445.2c1.6-0.4,2.3-1.6,2.1-3c-0.2-1.5-1.7-1.6-3-1.8c-0.9,2.8,1.2,5.1,0.7,7.7"/>
<path class="st0" d="M76.6,107.5c-1.4-0.1-2.8,0.3-4.1,0.4c-1.9,0.2-3.7,0.4-5.6-0.1c-0.5-0.1-1.1-0.2-1.6,0.2"/>
<path class="st0" d="M309.7,287.5c0,0.5,0.1,1,0.4,1.4c1.5,2.1,1.1,4.7,1.1,7c0,2,0,4.2-0.2,6.3c0,0.4-0.1,0.8-0.2,1.3"/>
<path class="st0" d="M307.9,304.4c-0.1,0-0.1,0-0.2,0c-2.5,0.6-4.9,1.2-7.4,1.8"/>
<path class="st0" d="M140.9,118.9c0.7,1.8,0.4,3.7,0.6,5.6c0.2,2.8,1.8,4.8,4.3,5.9"/>
<path class="st0" d="M603.1,128.6c-1.2-0.8-2.8-0.8-4.5,0.4c-1,0.7-1.9,1.7-2.9,2.5"/>
<path class="st0" d="M630.9,419.9c0.8,2.4,1.6,4.8,2.2,7.3c0.5,1.7-0.3,3.4-0.8,5c-0.5,1.7-3.3,2.5-5.7,1.8
	c-0.8-0.2-1.7-0.3-2.4-0.3c-1,1.4,0.8,2.5,0.4,3.8"/>
<path class="st0" d="M381.5,224.7c-1.1-0.4-2.2-0.6-3.2-0.2c-2.1,0.8-4.2-0.2-6.3,0c-0.8,0.1-1.2-0.3-1.4-1.1"/>
<path class="st0" d="M52.1,466.4c-0.8,1,0,1.9,0,2.9c0.2,2,0.1,4,0.1,5.9c0,0.5,0.2,0.7,0.6,0.9"/>
<path class="st0" d="M335.4,400.6c0.4,2.7,1.7,5,2.9,7.5c1.3-1,3.1-0.8,4.5-1.7"/>
<path class="st0" d="M607.6,127.3c-2.1,0.2-3.9,1-5.6,2.5c-1.8,1.5-4.3,2.2-5.7,4.4"/>
<path class="st0" d="M614.6,130.7c1.2,1.7,1.7,3.5,0.4,5.4c-0.4,0.6-0.6,1.4-0.2,2.1c-1.7,1.1-3.7,0.7-5.4,0.3c-3-0.7-3.9-3-3.5-6.2
	c0.2-1.8,1.9-3,2-4.9"/>
<path class="st0" d="M666.3,139.2c0-0.5-0.2-1.2,0-1.4c1.8-1.3,2.4-3.4,3.2-5.4c-0.2-0.3-0.8-0.7-0.8-1.1c-0.2-2-2-2.3-3.1-2.2
	c-2,0.1-4.2-0.3-6.2,1.1c-1.5,1.1-2.6,3.2-2.1,5.1c0.3,1.2,0.5,2.4,1.8,3.1"/>
<path class="st0" d="M115.1,454.6c-0.2,1.8,0.5,3,1.8,4.4c1.9,2.1,3.5,4.5,5.3,6.8"/>
<path class="st0" d="M66.3,478.7c-0.8,0.6-0.9,1.6-1.3,2.5c-0.9,2.1-1.3,4.2-0.7,6.5"/>
<path class="st0" d="M650.4,190.1c0.3,0.2,0.6,0.6,0.9,0.5c1.7-0.4,3.2,0.3,4.9,0.5c2,0.3,3.8,1.3,5.8,1.5"/>
<path class="st0" d="M169.5,182.9c-1.1,0.5-1.9,1.7-3.4,1.3c-0.6-0.2-1,0.6-1.3,1.2c-0.8,2-2.3,2.6-4.3,2.3"/>
<path class="st0" d="M134.2,352c-0.5,2.3-1.6,4.5-1.5,7.2c2.4-1.1,4.6-2.4,6.4-4.1"/>
<path class="st0" d="M628.8,448.8c-0.4,1.4-1.2,2.5-1.5,4c-0.2,1.3-1.2,2-2.6,1.6c-1.1-0.3-1.9-0.2-2.2,1.1"/>
<path class="st0" d="M112.6,119.9c-0.2-0.2-0.5-0.6-0.7-0.5c-1.7,0.4-3.5,0.3-5.2,0.3c-0.5,0-0.8,0.4-1.1,0.7"/>
<path class="st0" d="M678.7,134.3c-0.6-0.6-1.3-0.5-2-0.5c-1.4,0-2.4-0.8-3.4-1.6c-0.5-0.5-0.8-1.3-1.8-1.1"/>
<path class="st0" d="M147.2,152.9c-1.9-2-4.2-3-6.8-3.4"/>
<path class="st0" d="M337.2,218.9c-0.8,0.9-1.8,0.7-2.7,0.3c-2.8-1.1-5.7-1-8.6-0.7c-0.2,0-0.4,0.2-0.5,0.4"/>
<path class="st0" d="M507.9,427.9c0.6,2.2,0.3,4.5,1,6.7c0.2,0.8,1.1,1.4,0.8,2.3"/>
<path class="st0" d="M69.2,493.1c0.6,2.5,1.7,5,2,7.6"/>
<path class="st0" d="M371.6,423.6c0.5,0.9,0,1.8-0.2,2.7c-0.8,4.4,0.3,8.6,0.6,13c0.2,3.2,0.5,6.4,0.7,9.5c0,0.5,0.1,0.9,0.6,1.3"/>
<path class="st0" d="M102.7,340.6c-0.3,2.2-0.9,4.4-1,6.7c0,0.6,0.4,0.5,0.4,0.7"/>
<path class="st0" d="M45.6,353.2c1.4,2.3,2.3,5,4.5,6.8"/>
<path class="st0" d="M349.5,406c-1.7,2.7-4.4,2.8-6.5,0.2c-0.4-0.5-0.6-1-1.1-1.4c-0.7-0.6-0.5-1.5-0.3-1.9c0.5-0.8,1.3-1.7,2.5-1.6
	c0.3,0,0.6,0.3,0.9,0.3c1.1,0.1,2.4-1.6,3.3,0.5c0.5,1.2,1.4,2.4,1.4,3.8"/>
<path class="st0" d="M599.3,135.1c2.3,0.9,4.4,2.3,7,1.9"/>
<path class="st0" d="M49.8,476.5c-0.4,0.4-0.9,0-1.2,0.2c-1.7,0.8-2.5,0.3-2.5-1.6c0-1-1-0.5-1.4-0.9"/>
<path class="st0" d="M23.3,395.5c-3.1,1.4-6.5,0.6-9.7,1.1"/>
<path class="st0" d="M604,459.1c-1.5-0.3-2.9-0.3-4.3,0.2c-1.6,0.5-3.2,0.7-4.9,0.7"/>
<path class="st0" d="M166.6,115.1c1.3,1.3,2.9,2.2,4.3,3.3c2.2,1.8,4.7,1.9,7.2,2.1c0.9,0.1,1.6,0.8,2.5,0.6"/>
<path class="st0" d="M66.5,476.5c-0.6,2,0.5,3.9,1.2,5.5c0.7,1.8,1.1,3.5,1.3,5.3"/>
<path class="st0" d="M346.4,162.4c-2.2-0.5-4.4,1.3-6.7,0"/>
<path class="st0" d="M112.6,148.7c-0.9-0.4-1.8-0.2-2.7,0c-1.4,0.4-2.9,0.4-4.2,1.2"/>
<path class="st0" d="M63.5,215.2c0.2,0.8,0,1.6-0.4,2.3c-0.9,1.6-1.3,3.3-1.2,5c0,1.2-0.7,2.2-0.4,3.4"/>
<path class="st0" d="M508.8,429.5c0.5,0.1,1.1,0.2,1.6,0.2c0.9-0.1,1.3,0.4,1.6,1.1c0.3,0.7,0.5,1.5-0.2,1.9
	c-0.6,0.3-0.5,1.4-1.4,1.3"/>
<path class="st0" d="M88.1,111.7c1.4,1,2.9,1.5,4.7,1.3c0.8-0.1,1.7,0.1,2.5,0.4c1.8,0.7,4-0.2,5.6,1.2"/>
<path class="st0" d="M403.5,409.2c-0.5-0.1-1-0.1-1.4-0.2c-1.7-0.4-2.4,0-2.7,1.6c-0.2,1.1-0.5,2.3-0.8,3.4c1.5,1.3,3.4,1.8,5.2,2.4
	c0.6-2.2,2.6-3.7,2.8-5.8c2.3-0.2,2.3,2,3.5,2.7c-0.5,1.2-1.5,1.8-2.4,2.3"/>
<path class="st0" d="M168.8,120.5c-1.6-0.3-3.3,0-4.7-1.4c-0.8-0.8-2-0.1-3,0c-1.1,0.1-2.1,0.1-3.2-0.1c-1.2-0.2-2.5-0.6-3.5,0.8
	c-0.2,0.3-0.6,0.8-1.2,0.8c-0.7-0.1-1.5,0.2-2-0.4c-0.6-0.8-0.6-1.8,0-2.7"/>
<path class="st0" d="M286.8,427c1.4,1.7,3,3.2,4.1,5.2c0.2,0.4,0.4,0.7,0.4,1.1"/>
<path class="st0" d="M670.2,188.5c-1.2,1.8-2.9,2.3-4.7,1.2c-1-0.6-1.9-0.6-2.9,0"/>
<path class="st0" d="M140.1,116.9c-1.1-0.8-2.2-1.8-3.6-0.4c-0.5,0.5-1.2,0.3-1.8,0.4c-2.3,0.3-4.6,0.1-6.8,0.9"/>
<path class="st0" d="M301.6,416.9c-0.7-0.2-0.9,0.5-1.6,0.8c0.9,1.4,1.9,2.7,2.7,4.1c0.6,1,1.4,0.8,2.2,0.7"/>
<path class="st0" d="M419.7,418.7c-0.4-0.7-1.1-0.2-1.2,0c-1.3,2.1-3.3,3.9-3.3,6.6"/>
<path class="st0" d="M123.1,346.7c-1.7,2.2-1.3,5.1-2.6,7.4"/>
<path class="st0" d="M271.5,452.9c1.6,2.3,4.4,3,6.3,4.9"/>
<path class="st0" d="M129.2,348c-0.4,2.3-2.1,4-3.2,6c-0.3,0.6-0.1,1-0.3,1.4"/>
<path class="st0" d="M611.2,454.9c-3.1,0.2-5.1,2.3-7,4.4c-0.3,0.3-0.2,0.9-0.2,1.4"/>
<path class="st0" d="M621.6,138.5c0.5-0.9,0.1-1.1-0.7-1.1c-1.8,0.1-3.5,0.4-5.2,0.9c-0.2,0.1-0.5,0.1-0.7-0.2"/>
<path class="st0" d="M123,347.8c0.8,1.7,0.9,3.6,1.8,5.2c0.2,0.5,0.6,0.7,0.9,1.1"/>
<path class="st0" d="M277.4,458c-0.4,0.6-0.8,0.9-1.5,0.9c-1,0-1.9,0.1-2.7,0.9c-0.5,0.5-1.2,0-1.8,0"/>
<path class="st0" d="M29.8,371.4c1.8-0.1,3.6,0,5.3,1.2c0.8-0.8,1-1.3,0-2.1s-1.9-1.7-2.7-2.7c-0.4-0.5-0.9-0.5-1.5-0.5"/>
<path class="st0" d="M268.5,399.1c0.1,2.3,0.1,4.7,0.2,7c0,1,0.2,1.7,1.3,2"/>
<path class="st0" d="M186.8,389.4c-0.4,2-0.8,4.1-1.3,6.1"/>
<path class="st0" d="M117.8,480.8c0,1.3-0.2,2.5,0.3,3.8c0.3,0.7,0,1.6-0.7,2.1"/>
<path class="st0" d="M291.3,299c0.9,1.1,0.7,2.6,1.3,3.8c0.3,0.7,0.6,1.4,0.9,2.2"/>
<path class="st0" d="M668.8,176.5c-1.6-0.3-2.2-1.8-3.2-2.7c-0.7-0.6-1.4-1.5-2.5-0.9"/>
<path class="st0" d="M381,405.8c-1.3,0.8-1,2.1-0.7,3.2c0.2,0.8,0.6,1.5,0.5,2.4"/>
<path class="st0" d="M638.7,78.4c0.1,0.1,0.3,0.1,0.3,0.2c0.8,2.2,2.5,3.2,4.9,3.2"/>
<path class="st0" d="M331.8,229.7c-2,0.4-3.9,0.6-5.8,1.4"/>
<path class="st0" d="M162.6,376.8c-0.9,0.3-1.3,1.1-1.4,1.8c-0.1,1.3-0.9,2.4-1.3,3.6"/>
<path class="st0" d="M42,357.2c1.1,1.9,2,4,3.6,5.6"/>
<path class="st0" d="M142.5,358.6c-1.3,0-1.6-1.6-3-1.9c-1.2,1.4-2.4,2.9-3,4.7c1.3,1,2.2,2.8,4.2,2.4"/>
<path class="st0" d="M282.9,431c2.1,1.3,4.8,0.5,6.8,2.2c0.7,0.6,1.9,0,2.5,0.9"/>
<path class="st0" d="M362.6,404.5c-0.1,0.6,0.1,1.1,0.8,1.5c0.7-0.5,1-1,0.8-1.9c-0.7-0.3-1.5,0.7-2.1-0.2c-0.4,0.2-0.9,0.1-1.1,0.7
	c-0.5,1.5-1.7,2.9-0.7,4.7c0,0.1-0.1,0.2-0.2,0.4"/>
<path class="st0" d="M35.4,362c0.4,1.5,0.8,3,1.3,4.5c0.3,1.3,1.7,2,1.8,3.4"/>
<path class="st0" d="M658,130.9c-1.1-0.4-1.7,0.5-2.5,0.9c-1,0.6-1.9,1.4-3.1,1.8"/>
<path class="st0" d="M112.8,62.3c-2-1.3-4.2-0.4-6.3-0.3c-0.4,0-0.9,0.4-1.4,0.3"/>
<path class="st0" d="M190.7,91c-0.5,1.3-1.1,2.6-1.4,4c-0.1,0.6-0.6,1.7,0.7,2"/>
<path class="st0" d="M360.6,283.6c-1.9,0-3.7-0.1-5.4,0.9"/>
<path class="st0" d="M316.5,407.9c0.1,1.9,1.4,3.5,1.5,5.4c-1.8,0.1-2.8-1.1-4.1-1.8c-0.8-0.4-1.4-1.3-2.5-0.9"/>
<path class="st0" d="M422,421.8c-1.1,1.8-2.8,3.1-3.1,5.4"/>
<path class="st0" d="M185.5,396.4c-0.5,1.7-1.3,3.4-1.3,5.2"/>
<path class="st0" d="M521,456.5c1.6-0.4,2.8-1.9,2.7-3.6c-0.1-1-1.2-1.7-2.3-1.4c-0.4,0.1-0.7,0.2-1.1,0.4"/>
<path class="st0" d="M392.1,406.5c1,1.5,1,3.4,1.6,5c0.1,0.4,0.2,0.7,0.4,1.1c0.2,0.3,0.1,0.7,0.2,1.1"/>
<path class="st0" d="M164.1,382.2c-0.1,0.4,0.2,1-0.5,0.9c-0.7-0.1-1.4,0.1-2.2-0.3c-1.6-0.9-3.2-0.4-4.5,0.9
	c-0.6,0.6-1.2,1.3-1.8,2"/>
<path class="st0" d="M401.3,214.6c-1.8,0-3.5,0.1-5.2,0.5"/>
<path class="st0" d="M159.6,375.3c-2.1,1.3-3.9,3-6.1,4"/>
<path class="st0" d="M362.1,163.5c0.7,0.2,1.4,0.2,2,0.6c1.4,0.9,2.8,0.9,4.2,0"/>
<path class="st0" d="M414.8,303.4c-1.2,1.5-1.1,3.7-2.3,5.2"/>
<path class="st0" d="M339.9,483.2c-0.7,1.8-2.2,3.2-1.8,5.3"/>
<path class="st0" d="M390.7,405.4c-0.2,2.2-0.4,4.4-0.5,6.7"/>
<path class="st0" d="M102.9,115.3c-0.7,0-1.6-0.2-1.8,0.7c-0.1,0.8-0.5,1.8,0.5,2.3c0.9,0.4,0.4,1.1,0.5,1.7"/>
<path class="st0" d="M332.9,476.9c-2.1-0.5-3.9,0.2-5.4,1.8"/>
<path class="st0" d="M177.8,127.3c-0.5,1.9-2.2,3.1-2.7,5"/>
<path class="st0" d="M137.1,115.8c-2-1.8-4.7-1.7-6.3,0.2c-0.3,0.3-0.1,0.6-0.2,0.9"/>
<path class="st0" d="M602.4,87.5c-1.2,1.6-2.2,3.4-4.3,4"/>
<path class="st0" d="M332.9,220.9c-0.1,0-0.3-0.1-0.4,0c-2.5,2.3-2.6,2.1-5.4,2.7c-1.9,0.4-3-0.2-3.8-1.9"/>
<path class="st0" d="M397.4,408.5c-0.9,0.8-1.3,1.9-1.8,2.9c-0.3,0.6-0.7,1.1-1.1,1.6"/>
<path class="st0" d="M114.4,63.6c1.6,0.5,3.3,0.9,4.8,1.5c0.8,0.3,1.4,0.2,1.8-0.6"/>
<path class="st0" d="M675.3,92c0.2,1.1,0.6,2.2,1.5,3.1c0.7,0.7,1,2,2.5,1.5c0.3-0.1,0.8,0.8,1.2,1.2"/>
<path class="st0" d="M35.9,362.4c2.6,0.4,4.7,2,6.8,3.2"/>
<path class="st0" d="M369.6,163.9c1.6,0.7,3.1,1.3,4.7,2"/>
<path class="st0" d="M119.3,64.9c0.5-1.3,1.4-0.7,2.2-0.3c2,1,4.2,1.5,6.3,2"/>
<path class="st0" d="M370.2,240.7c-0.3,1-0.2,2,0,3.1c0.1,0.5,0.7,1.1,0,1.6"/>
<path class="st0" d="M668.4,130c1-0.3,2.3-0.4,2.6,0.6c0.3,1,1.1,2.1,0.2,3.4c-0.8,1.2-1.5,2.7-1.7,4.3"/>
<path class="st0" d="M296.9,421.3c1.2,1.5,2.4,3,3.8,4.3"/>
<path class="st0" d="M374.9,416c-1.4,1.3-1.2,3.3-1.9,4.9c-0.3,0.7-0.7,1.4-1,2.1"/>
<path class="st0" d="M647.6,81.6c0.8,0.2,1.6,0.4,2.5-0.1c0.5,1.7,1.9,1.3,3.1,1.3c1.5,0.1,3.2-0.4,4,1.6"/>
<path class="st0" d="M118.9,120.1c-1.9-0.6-3.8,0.5-5.8,0.2"/>
<path class="st0" d="M519.4,449.9c0.8,3.1,1.3,6.2,1.4,9.4"/>
<path class="st0" d="M664.1,86.1c-1.3-1.2-2.8-1.9-4.3-2.5"/>
<path class="st0" d="M286.1,434.2c1.3,1.1,2.2,2.7,3.6,3.8"/>
<path class="st0" d="M290.8,424c1.3,0.7,1.1,2.2,1.8,3.2c0.9,1.4,0.9,3.1,1.5,4.7"/>
<path class="st0" d="M62.7,493.3c-0.5,0.9-0.3,2-0.9,2.9c-0.2,0.4-0.1,1,0.7,1.1"/>
<path class="st0" d="M517.6,420.7c0.5,2.8,2.2,5.3,1.8,8.3"/>
<path class="st0" d="M515.3,419.6c-0.1,0-0.2,0-0.4,0c-0.5,0-0.6,0.9-1.3,0.5c0.9,2.3,0.9,4.6,1.4,6.7c0.2,0.7,0.5,1.1,1,1.6"/>
<path class="st0" d="M188.7,485c-0.5-0.3-1.1-0.6-1.7-1c-1.6,1-1.9,2.6-1.8,4.4c3.2-0.6,4-3.4,5.4-5.6c0.2-0.2,0.4-0.5,0.5-0.7"/>
<path class="st0" d="M68.5,485.7c-1.4,0.4-2.9,0.1-4.3,0.2"/>
<path class="st0" d="M608.1,85.2c-2.1-1.2-2.8-1.1-4,0.5"/>
<path class="st0" d="M296,426.3c-1.1-1.3-2.4-1.9-4.1-1.6"/>
<path class="st0" d="M103.6,115.6c1.1,0.9,2.1,2.1,3.8,1.4c0.5-0.2,0.9,0.2,1.2,0.6c0.4,0.5,0.9,0.6,1.3,0.1c0.4-0.5,0.3-1-0.2-1.4
	c-0.2-0.2-0.5-0.5-0.8-0.7c-0.8,0.1-0.9,0.7-1.2,1.3"/>
<path class="st0" d="M173.8,109.3c-1.4,0.9-2.9-0.4-4.3,0"/>
<path class="st0" d="M80.9,461.4c-1.3,1.2-2.9,2-3.2,4"/>
<path class="st0" d="M549.1,381.8c1.3,1.5,2.5,3.1,4.1,4.3"/>
<path class="st0" d="M636.2,26.5c1.2,1,3.3,0.7,4,2.5"/>
<path class="st0" d="M525.7,455.3c-0.4,1.9-0.1,3.6,0.5,5.4"/>
<path class="st0" d="M27.6,370.9c0.8,0,1.6-0.2,2.1,1c0.5,1.4,2,2.1,3.3,2.9"/>
<path class="st0" d="M254.1,367.8c0.6,1.3,1.6,2.5,2.5,3.6"/>
<path class="st0" d="M594.1,97.1c-0.2,0.4-0.2,1.1-0.9,1.1c-1.4-0.1-1.6,0.8-1.6,1.8"/>
<path class="st0" d="M90.3,448.4c-0.8-0.7-0.8-1.8-1.3-2.7c-0.4-0.8-0.9-1.6-1.8-2c-0.8,1.9,0.1,3.4,2.2,3.6"/>
<path class="st0" d="M626.1,174.5c-0.5-2-2-1.5-3.4-1.3"/>
<path class="st0" d="M622.5,460.1c-0.6,1.8-1.9,3.2-2,5.2"/>
<path class="st0" d="M325.2,409.2c-1.2-0.6-1.7-1.9-2.7-2.7c-0.5-0.5-0.9-1.2-2.2-1c0.4,2.7,0.8,5.5,1.1,8.2"/>
<path class="st0" d="M44.6,354.8c-1.7,1.1-3.3,2.3-5,3.4c-0.5,0.3-1.1,0.8-1.8,0.4"/>
<path class="st0" d="M104.3,421.8c-1.3-0.4-2.7-0.1-4,0.2"/>
<path class="st0" d="M619.5,455.3c0.7-0.2,1.1,0.3,1.7,0.6c-0.7,0.8-1.8,0.8-2.6,0.8c-2.2,0.1-4.4,0.1-6.5,1.1
	c-0.4,0.2-1.1-0.1-1.6-0.1"/>
<path class="st0" d="M660.9,177.5c1.5,0.5,1.3,2,2,3.1"/>
<path class="st0" d="M360.1,466.3c-0.3,1.3-0.6,2.5-0.9,3.8"/>
<path class="st0" d="M654.9,139.4c0.5-0.4,1.2-0.8,1.8-0.5c2,1,2.7-0.1,3.1-1.8"/>
<path class="st0" d="M328.1,478.9c1.2,0.8,2.5,0.2,3.8,0.1c0.6,0,1.2,0.1,1.8,0"/>
<path class="st0" d="M181.4,114.5c-0.1,1.2,0.2,2.4-0.2,3.6"/>
<path class="st0" d="M149.9,480.8c1.1,0.2,2.1,0.6,2.9,1.3c1.1,0.9,2.3,1,3.6,0.9"/>
<path class="st0" d="M406,415c2.1,0.6,3.4,2.3,3.4,4.5"/>
<path class="st0" d="M138.2,359.2c1.1,0.8,2.2,1.7,3.2,2.5"/>
<path class="st0" d="M137.1,116.7c1.1,0.9,2,2,3.6,1.8"/>
<path class="st0" d="M662,190.1c-1,0.9-2.4,0.2-3.4,1.1"/>
<path class="st0" d="M148.2,478.5c1.8,0.7,1.5,2.4,1.1,3.6c-0.4,1.4,0.1,2.3,0.5,3.5"/>
<path class="st0" d="M40.8,364.9c-0.4,1.5-1.8,2-2.9,2.9"/>
<path class="st0" d="M276.6,206.5c-0.2,1.1-0.4,2.3-1.4,3.1"/>
<path class="st0" d="M158.7,372.1c0.5,1.8,1.3,3.5,2.7,4.9"/>
<path class="st0" d="M632.1,176.3c0.9,0,1.8,0.1,2.7,0.5c0.4,0.2,0.9,0.6,1.4,0"/>
<path class="st0" d="M299.4,193.6c-0.5,1.2-0.7,2.3-0.6,3.6c0,1.6-0.6,3.2-1.5,4.7"/>
<path class="st0" d="M544.8,378.4c0.8,1,2.2,1.5,2.7,2.7"/>
<path class="st0" d="M132,479.8c-0.4-0.7-0.9-1.4-1.2-2.1c-0.7,0-1.4,0.1-2,0.1"/>
<path class="st0" d="M7.3,377.2c2.3,0.4,4.4,1.2,6.1,2.9"/>
<path class="st0" d="M616.2,194.8c1,1,1.5-0.3,2.2-0.6c-1.2-0.9-2.4-1-3.8-0.5c-0.8,0.3-1.7,0.5-1.6-0.9"/>
<path class="st0" d="M556.7,389.2c0.9,0.8,1,2.4,2.5,2.5c1.2,0,1.7,1,2.5,1.5c0.1,0.1,0.3-0.1,0.5-0.2"/>
<path class="st0" d="M429.9,426.3c-2.6,0.5-4.6,1.8-5.2,4.5"/>
<path class="st0" d="M297.5,427.9c0-0.7,0.1-1.5-1-1.6c-1.6,0.3-1,2.6-2.6,3.1"/>
<path class="st0" d="M663.9,193c1.9-0.1,2-0.1,2.9,2.5"/>
<path class="st0" d="M659.6,138.8c0.9,0.7,2.2-0.1,3.1,0.9"/>
<path class="st0" d="M565.1,395.5c1.8,0.1,3.4,0.7,5,1.3c0.8,0.2,0.7,0.7,0.4,1.3"/>
<path class="st0" d="M123.7,485.7c2.3-0.7,4.3,0.1,4.8,2c0.2,0.6-0.1,0.6-0.4,0.7"/>
<path class="st0" d="M581.9,112.7c0.1,1.2-0.5,1.8-1.6,2.2"/>
<path class="st0" d="M363.3,266.6c-0.8-0.9-1.7-1.1-2.7-0.2"/>
<path class="st0" d="M462.9,450.8c1.5,1.1,3.1,0.3,4.7,0.2"/>
<path class="st0" d="M420.4,225.1c-0.9,0.6-0.6,2.2-2.2,2.2"/>
<path class="st0" d="M399.5,411.7c1.3,0,2.2,1.4,3.6,1.1"/>
<path class="st0" d="M96.2,490.9c0.7,0.8,0.6,1.9,0.9,2.9"/>
<path class="st0" d="M522.6,425.9c1.2,0.5,1.3,1.6,1.3,2.7"/>
<path class="st0" d="M329.9,218.9c0.2,1.7-1.7,2.5-1.6,4.1"/>
<path class="st0" d="M201.9,366.9c-1,0.5-1.4,1.8-2.7,2"/>
<path class="st0" d="M663.6,129.7c-0.1,1.2-0.8,1.8-2,1.8"/>
<path class="st0" d="M591.4,134c1.2,0.7,2.4,1.2,3.8,0.5c1.1-0.6,2.1,0.4,3,0.6c1.1,0.2,1-0.4,1.3-0.8"/>
<path class="st0" d="M317.1,487.1c-1.2,0.4-0.8,1.5-0.9,2.3"/>
<path class="st0" d="M526.1,443.4c0,2.1,0.7,4.1,1.3,6.1"/>
<path class="st0" d="M654.6,134.2c-0.8,0.6-1.6,1.3-2.7,1.1"/>
<path class="st0" d="M81.3,117.2c0,1.5,1,2.6,1.5,3.9c0.2,0.5,0.5,0.9,0.7,1.5"/>
<path class="st0" d="M613,136c0,1-0.5,1.9-0.9,2.7"/>
<path class="st0" d="M383.9,215.9c-2.4-0.4-4.8-0.1-7.2,0.5"/>
<path class="st0" d="M68.7,492.2c-0.9-0.2-1.6,0.8-2.5,0.5"/>
<path class="st0" d="M568.7,152.5c0.9,0.4,1.5,1.3,2.5,1.3"/>
<path class="st0" d="M624.5,453.8c0.4,1.2,0,1.7-1.3,1.6c-0.7,0-1.3,0.2-2,0.3"/>
<path class="st0" d="M299.4,419.8c-0.5,0-0.7-0.6-1.4-0.2c-0.9,1.3-2.3,2.5-3.8,3.5"/>
<path class="st0" d="M523.5,445.9c-0.5,0.3-1.2,0.1-1.4,0.7c-0.1,0.3,0,0.8,0.2,1c0.3,0.3,0.8,0.6,1.2,0.4c0.3-0.2,0.8-0.4,0.6-1.1
	c-0.2-0.8-0.4-1.5-0.6-2.3"/>
<path class="st0" d="M296.2,293.3c-0.6,1-1.5,1.7-2.3,2.3"/>
<path class="st0" d="M361,406.1c0.9,1.6,2.7,1,4,1.8"/>
<path class="st0" d="M11.8,385.1c0.1-1.8-1.3-1.1-2.2-1.3"/>
<path class="st0" d="M123.6,154.9c-1.1-1.2-2.6-0.1-3.8-0.7"/>
<path class="st0" d="M573.8,176.3c1.7-0.1,3.3,0.3,4.3,1.8"/>
<path class="st0" d="M79.1,80.5c-1.1,0.3-1.3,1.2-1.4,2.2"/>
<path class="st0" d="M323.8,408.3c-0.9,0.2-1.3,1.5-2.4,1.3"/>
<path class="st0" d="M680.7,98.2c0.4,0.6,0.4,1.5,1.4,1.6"/>
<path class="st0" d="M335.1,271.1c-0.5-0.5-1-1.2-1.8-0.4c-0.2,0.2-0.7,0-0.9-0.3"/>
<path class="st0" d="M539.4,373.7c1.6,1.1,3.2,2.3,4.3,4"/>
<path class="st0" d="M523.7,436.2c0.1,0.6,0.9,1.2,2.2,1.6"/>
<path class="st0" d="M134.6,490.6c-0.3,1.8,0.9,1.8,2.2,1.8"/>
<path class="st0" d="M155.6,483.5c-0.4,0.8,0.3,1.6-0.2,2.3"/>
<path class="st0" d="M570.5,473.6c-0.1,0.7-0.2,1.4-0.4,2.2"/>
<path class="st0" d="M139.4,119.4c-0.3,0.9-0.9,1.9-0.2,2.9"/>
<path class="st0" d="M610.5,455.3c0.3,1.2-0.2,2.3-0.9,3.2"/>
<path class="st0" d="M163.2,182.8c-0.1,0.9-1.2,1.2-1.1,2.2"/>
<path class="st0" d="M356.3,479.4c0.1,0.7,0.2,1.4,0.4,2.2"/>
<path class="st0" d="M117.1,154.5c0.3-0.4,0.3-1.1,0-1.2c-0.7-0.1-1.6-0.4-2.2,0.5"/>
<path class="st0" d="M573.9,483.7c-0.2,0.7-0.5,1.4-0.7,2.2"/>
<path class="st0" d="M395.6,459.2c-0.2-1-1.4-0.2-1.8-0.9"/>
<path class="st0" d="M525.9,444.3h-4.3"/>
<path class="st0" d="M80,103.2c-0.6,1.2,0.3,2.1,0.5,3.1"/>
<path class="st0" d="M527.1,447.2c1-0.2,1.5,0.6,2.2,0.9"/>
<path class="st0" d="M759.3,355.7c0.5,0.7,0.9,1.3,1.3,2"/>
<path class="st0" d="M78.4,356.6c0,0.7-0.2,1.5,0.9,1.4"/>
<path class="st0" d="M326.8,416.8c-0.7,0-1.2,0.2-1.9,0.6c1,0.6,0.2,1.3,0.1,1.9"/>
<path class="st0" d="M316.9,339.9c-0.5,0.7-0.2,1.4,0.2,2"/>
<path class="st0" d="M299.3,305.9c-0.2,0.4-0.6,1-0.5,1.2c0.7,1.3-0.4,1.6-1.1,2.2"/>
<path class="st0" d="M267.2,475.4c1,0.5,1.4,1.8,2.7,1.8"/>
<path class="st0" d="M359.2,401.6c0,1.3,0.9,2,1.8,2.7"/>
<path class="st0" d="M382.2,350.9c0.7,1-0.7,2,0.1,3.1c0.2,0.3,0.4,0.5,0.8,0.7"/>
<path class="st0" d="M187.1,78.4c-0.4,0.8-0.2,1.5,0.5,2"/>
<path class="st0" d="M146.1,364.6c0.6,1.5-0.4,3.1,0.2,4.7"/>
<path class="st0" d="M150.4,116.7c0.2,0.2,0.4,0.4,0.7,0.5c1.2,0.3,2.5,0.3,3.6,0.9"/>
<path class="st0" d="M629.9,357.7c0,1.1,0.6,2.2-0.3,3.3c-0.3,0.3-0.4,0.5-0.8,0.5c-0.4-0.1-0.4-0.4-0.3-0.7
	c0.2-0.7,0.7-0.1,1.1-0.2"/>
<path class="st0" d="M383,214.1c-0.7,0.3-1.1,0.8-1.1,1.6"/>
<path class="st0" d="M299.1,304.1c0.2,0.6-0.2,1.2,0.7,1.7c1.2,0.7,0.7,1.6-0.5,2.1"/>
<path class="st0" d="M183.9,403.1c0.6,0.5,1.6,0.1,2.2,0.7"/>
<path class="st0" d="M524.6,430.1c-0.3-1.2-0.3-1.2-1.1-1.2c-0.5,0-1.1,0-1.6,0"/>
<path class="st0" d="M350.2,163h-1.8"/>
<path class="st0" d="M283.1,479.8c-0.1,0.7-0.5,1.3-1.3,1.4"/>
<path class="st0" d="M293.3,296.7c-0.8-0.1-0.9,0.9-1.6,1.1"/>
<path class="st0" d="M78,73.1c1.1,0.8,0.4,1-0.4,1.3"/>
<path class="st0" d="M709.7,154.9c0,1.1,0.6,2.4-0.4,3.4"/>
<path class="st0" d="M518.7,425.2c-1.3,0.5-2.4-0.1-3.6-0.4"/>
<path class="st0" d="M93.9,159.9c-0.7,0.7-1.6,0.9-2.5,0.9"/>
<path class="st0" d="M628.8,127c0.5,0.8-0.4,1.4-0.4,2.2"/>
<path class="st0" d="M396.1,453.3c-0.4,0.5-0.8,1.1-1.3,1.6"/>
<path class="st0" d="M108.3,156.1c-0.5,0.2-1,0.5-1.4,0.7"/>
<path class="st0" d="M400.2,312.2c0.8,0.2,1.7,0.5,2.5,0.7"/>
<path class="st0" d="M528.8,457.8c-0.5,0.4-1,0.7-1.4,1.1"/>
<path class="st0" d="M143.2,484.1c0.7,0.9-0.8,2.4,0.7,3.1"/>
<path class="st0" d="M34.5,388.3c-0.4,0.1-0.8,0.1-1.3,0.2"/>
<path class="st0" d="M314.2,306.2c-0.2,0.7,0.7,0.5,0.7,1.1"/>
<path class="st0" d="M64.5,467c0.1,0.4,0.1,0.8,0.2,1.3"/>
<path class="st0" d="M385.5,452.8c-0.9,0-1.7,0.6-2.5-0.2"/>
<path class="st0" d="M296.9,454.9c1.4,0.5,0.4,1.3,0.2,2"/>
<path class="st0" d="M313.8,307.7c-0.1,0.6-0.1,1.2-0.2,1.8"/>
<path class="st0" d="M118.5,487.7c0.4,0.6,0.8,1.2,1.3,1.8"/>
<path class="st0" d="M379.9,265c0.5,0.3-0.2,1.1,0.5,1.3"/>
<path class="st0" d="M528,456.9c-0.8,0.2-1.5-0.2-2.2-0.5"/>
<path class="st0" d="M663,196.3c-0.1-0.4-0.3-0.6-0.7-0.5"/>
<path class="st0" d="M554.9,387.8c-0.4,0.3-0.8,0.6-1.3,0.9"/>
<path class="st0" d="M74.1,86.6c-0.4-0.1-0.3,0.4-0.5,0.5"/>
<path class="st0" d="M385.5,453.8c0.5,0.2,0.9,0.5,1.4,0.4"/>
<path class="st0" d="M150.6,5.8c-0.1,0.2-0.2,0.4-0.4,0.5"/>
<path class="st0" d="M303,285.7c0,0.3-0.1,0.4-0.4,0.4"/>
<path class="st0" d="M351.8,420.9c-0.1,0.1-0.1,0.2-0.2,0.4c0,0,0,0.1,0,0.2"/>
<path class="st0" d="M165.9,181.7c0.3,0,0.4,0.1,0.4,0.4"/>
</svg>
