<?xml version="1.0" encoding="utf-8"?>
<!-- Generator: Adobe Illustrator 28.1.0, SVG Export Plug-In . SVG Version: 6.00 Build 0)  -->
<svg version="1.1" id="a" xmlns="http://www.w3.org/2000/svg" xmlns:xlink="http://www.w3.org/1999/xlink" x="0px" y="0px"
	 viewBox="0 0 398.4 418.4" style="enable-background:new 0 0 398.4 418.4;" xml:space="preserve">
<style type="text/css">
	.st0{fill:none;stroke:#484848;stroke-width:1.5;stroke-linecap:round;stroke-linejoin:round;}
</style>
<path class="st0" d="M370.6,29.7c-0.7-0.1-0.9,0.4-0.9,1c0,1.7-0.7,3.2-1.7,4.5c-2.6,3.3-3.5,7.4-5.2,11.2c-0.6,1.4-1.5,2.7-2.1,4.2
	c-0.9,1.9-1.7,3.8-2.5,5.8c-1.7,4-3.9,7.9-5.1,12.1c-1.7,5.6-5.1,10.2-7.9,15.2c-3,5.3-6.8,10.2-9.2,15.7
	c-2.8,6.5-6.4,12.5-9.7,18.7c-1.3,2.5-2.3,5.1-3.4,7.7c-1,2.3-2,4.5-2.9,6.8c-1.1,2.9-2.1,5.8-3.3,8.6c-1.5,3.8-3.2,7.6-4.8,11.3
	c-2.1,4.9-4.1,9.7-6.3,14.6c-0.9,2-2.1,3.8-2.5,5.9"/>
<path class="st0" d="M88.3,1.2c-1.6,6.1-3.2,12.1-4.9,18.2c-1.2,4.6-2.4,9.3-3.8,13.8c-1.1,3.4-2.5,6.6-3.7,9.9
	c-2.2,5.9-4.4,11.8-6.7,17.6c-1.6,4.1-3.1,8.2-4.7,12.2c-1.6,4.1-3.2,8.2-4.6,12.4c-0.8,2.2-0.8,4.7-1.5,7c-0.9,2.8-2.2,5.4-3.4,8.1
	c-0.2,0.6-0.4,1.2-0.5,1.8c-0.7,2.1-1.4,4.2-2,6.3c-0.4,1.4-0.5,2.9-0.7,4.3"/>
<path class="st0" d="M204.4,66.8c4.5,1.8,9.1,3.6,13.6,5.4c2.9,1.1,5.9,2.1,8.8,3.3c1.4,0.6,2.5,1.5,3.8,2.3
	c2.3,1.5,4.9,2.3,7.6,2.9c4.7,1.1,9.3,2.6,13.7,4.7c3.6,1.8,7.2,3.6,10.6,5.8c7.3,4.7,13.3,10.8,18.4,17.8c2.4,3.3,4.9,6.5,7.3,9.7
	c0.7,0.9,1.1,2,1.6,3.1c2.8,5.6,5.8,11.2,8.2,16.9c1.6,3.8,2.5,8,3.7,12c1.1,3.8,1.7,7.6,1.6,11.5c0,1.6,0,3.1,0.2,4.7
	c0.1,0.9,0.3,1.7,0.5,2.5"/>
<path class="st0" d="M258.5,160.9c1.4,1,2.8,2,4.1,3.1c3.2,2.4,6.4,4.9,9.7,7.2c2.6,1.9,5.3,3.8,8.1,5.4c5.1,3,10.4,5.8,15.6,8.7
	c6.2,3.5,12.8,6.5,18.5,10.8c6.4,4.8,12.5,10,16,17.3c2.1,4.3,3.4,8.9,2.9,14c-0.4,3.4,0.2,6.8,0.2,10.2c0,0.8-0.2,1.7-0.3,2.5"/>
<path class="st0" d="M289.4,153.7c-3.8-4.8-9.3-7.2-14.6-9.9c-2.3-1.2-4.5-2.7-6.9-3.9c-2.2-1.2-4.4-2.2-6.6-3.3
	c-1.4-0.7-2.9-1.5-4.3-2.1c-5.8-2.7-11.8-4.7-18-6.1c-5.1-1.1-10.2-2-15.3-2.7c-2.7-0.4-5.5-0.2-8.3-0.2c-3.5-0.1-7-0.1-10.4-0.2
	c-3.7-0.1-7.3-0.1-11-0.2c-4.8-0.1-9.6-0.3-14.4-0.2c-6.5,0.2-13,0.5-19.4,2.1c-5,1.2-10.2,1.8-15.3,2.6c-5.2,0.8-10,2.6-14.9,4.3
	c-3.2,1.1-6.5,2-9.7,2.9c-6.4,1.8-12.3,4.6-17.8,8.3c-1.2,0.8-2.3,1.6-3.4,2.3"/>
<path class="st0" d="M131.8,362.4c-0.5-0.2-1-0.4-1.4-0.7c-3-2.1-4.5-5.6-6.8-8.3c-3.7-4.1-7.3-8.3-11-12.4
	c-4.2-4.9-7.5-10.4-9.9-16.4c-1.8-4.5-3.5-9.1-5.4-13.5c-1.5-3.3-3.6-6.4-5.1-9.8c-2.9-6.4-5.9-12.7-8.4-19.3
	c-1.2-3.3-1.3-7-1.9-10.6c-0.4-2.5-0.7-4.9,0-7.4c0.6-2.4,0.8-4.9,1.5-7.2c1.6-5.5,2.2-11,0.7-16.6c-0.3-1.3-0.4-2.6-0.6-3.9
	c-0.3-2.2-0.6-4.4-0.7-6.7c0-1.7,0.2-3.4,0.7-5c1.6-5,1-10.1,0.5-15.1c-0.7-6.2-0.5-12.4,0.7-18.5c0.4-2.2,0.3-4.4,0.6-6.6
	c0.3-2.7,0.8-5.4,1.3-8.1c0.8-4.5,1.7-9,2.8-13.5c0.2-0.9,1.2-1.7,1.9-2.5c1.5-1.6,3-3.2,4.5-4.7c1.2-1.2,2.8-2.1,4-3.4
	c1.2-1.2,2.9-2.5,4.4-2.6c3.1-0.2,5-2.5,7.6-3.6c1.2-0.5,2.5-0.9,3.8-1.4c2.5-1,4.9-2.1,7.4-3c1.3-0.5,2.8-0.7,4.1-1.1
	c2.5-0.7,4.9-1.4,7.4-2c3.3-0.7,6.6-1.4,9.9-2c4.4-0.8,8.7-1.7,13-2.9c2.8-0.8,5.7-1.2,8.4-2c4.4-1.3,8.9-1.7,13.3-1.9
	c4.3-0.2,8.6,0.6,12.9,0.8c1.1,0.1,0.9,0.8,1.1,1.3c1.4,4.1,2.6,8.3,4,12.4c0.8,2.3,2.1,4.4,3,6.7c1.6,4.3,3.6,8.4,6.3,12
	c2.4,3.2,3.7,7.1,6.6,9.9c3.1,3,6.1,6.1,9.2,9.2c6.8,6.9,13.7,13.7,19.7,21.4c2.4,3,5.3,5.5,8.1,8.1c1,0.9,2.3,1.6,3.6,2.2
	c0.9,0.4,1.6,0.9,2,1.8"/>
<path class="st0" d="M173.4,130.9c0.8,2.7,1.6,5.4,2.3,8.1c0.9,3.1,1.5,6.2,3.2,9c3.1,5.2,5.5,10.9,9.2,15.7
	c4.3,5.7,8.3,11.7,13.7,16.5c1.5,1.3,2.9,2.8,4.1,4.3c2.9,3.5,6.6,6,10.5,8.3c3.4,2,6.8,4.2,10.6,5.4c2.5,0.8,5,1.8,7.6,2.7"/>
<path class="st0" d="M241.7,324.5c-1.9,1.9-3.7,3.7-5.6,5.6c-0.9,0.9-1.9,1.7-2.9,2.5c-5.6,4.6-11.4,9.1-16.9,13.9
	c-5.6,4.9-12,8.5-18.1,12.6c-3.3,2.2-7.3,3.6-11.1,5.1c-2.8,1.1-5.8,1.9-8.6,2.9c-5.7,2-11.6,2.6-17.6,2.2c-6.5-0.5-12.8-2-19.1-4
	c-1.3-0.4-2.6-0.5-3.9-0.7"/>
<path class="st0" d="M193,130.9c2.2,0.2,4.3,0.3,6.5,0.6c2.9,0.4,5.8,0.9,8.6,1.2c5,0.6,10,0.8,14.9,1.7c3.3,0.6,6.5,2.1,9.7,3.1
	c2.4,0.8,4.8,1.5,7.2,2.4c6.7,2.4,13.5,4.6,20.1,7.3c3.3,1.3,6.2,3.6,9.2,5.5c3.7,2.4,7.3,5,11.2,7.1c3.1,1.7,6.4,2.9,9.7,4.4
	c3.6,1.6,6.3,4.4,9.4,6.6c3.7,2.7,6.3,6.7,10.6,8.7c3,1.4,6,3.1,9.2,4.1c4.6,1.4,8.3,4,11.8,6.9c1.3,1,2.5,2.1,3.1,3.8"/>
<path class="st0" d="M234,143.3c0.5,1,1,1.9,1.4,2.9c1.2,2.7,1.4,5.6,1.8,8.4c0.6,3.9,1.3,7.8,1.9,11.7c0.5,3,0.9,6.1,1.7,9
	c2.1,7.6,5.4,14.7,9.8,21.3c3.1,4.8,6.1,9.6,9.8,13.9c1.7,1.9,3.5,3.8,5.4,5.4c4.7,4,9.5,8,14.4,11.9c4.1,3.2,8.7,5.5,13.8,6.6
	c0.8,0.2,1.5,0.9,2.5,0.7"/>
<path class="st0" d="M47.8,155c0.5,2.9,1.2,5.9,1.6,8.8c0.4,2.4,0.5,4.9,0.8,7.4c0.4,2.9,0.8,5.9,1.2,8.8c0.1,0.5,0.1,1,0.2,1.4
	c0.2,2.9,0.5,5.9,0.7,8.8c0.3,4.3,0.4,8.6,0.8,12.9c0.5,5.5,0.5,11,2,16.4c0.8,2.7,0.8,5.6,1.2,8.4c0.9,7.6,1.6,15.3,4.1,22.7
	c1.1,3.3,1.6,6.9,2,10.4c0.5,4.6,0.7,9.4,1.2,14c0.4,3.7,1,7.3,1.4,11c0.1,1.1,0.1,2.2,0,3.2c-0.2,3,0.9,5.6,1.7,8.3
	c0.7,2.3,1.8,4.5,1.6,7.2c-0.2,1.9,0.4,3.8,0.6,5.8c0.2,1.4,0.3,2.9,0.4,4.3c0.2,3.8,0.5,7.5,0.7,11.3c0.1,2.3,0,4.7,0.2,7
	c0.1,1.3,0.6,2.5,0.9,3.8c0.5,2.3,1.2,4.7,1.4,7c0.3,3.1,1.6,5.9,3,8.6c0.8,1.6,0.4,3-0.1,4.5c-0.3,0.9-1.3,1.2-1.9,1
	c-1.2-0.3-1.5,0-1.7,1.1c-0.1,0.5-0.6,1-0.9,1.4c-0.3,0.5-0.8,0.5-1.1,0c-0.9-2-1.7-0.9-2.5,0c-0.2,0.2-0.5,0.4-0.4,0.2
	c-1.1-0.9-2.2-1.8-3.2-2.7"/>
<path class="st0" d="M181.3,130.5c0.6,1.6,1.1,3.1,1.8,4.7c2.7,5.9,5.4,11.9,8.1,17.8c2.1,4.5,4,9.1,6.4,13.5
	c2.2,4,4.8,7.7,7.8,11.2c3.6,4.2,7.5,8,11.9,11.3c1.1,0.8,2.2,1.4,3.4,2c3.6,1.7,7.2,3.4,10.8,5.1"/>
<path class="st0" d="M69.6,380c-0.8,1.1-1.6,2.4-2.5,3.4c-1.5,1.6-3.7,2-5.6,2.7c-3.6,1.4-7.2,2.9-10.6,4.7
	c-2.8,1.4-5.9,2.2-8.8,3.3c-3.1,1.2-6.1,2.5-9.2,3.6c-4.6,1.7-9.2,3-14,4c-4.5,1-8.9,2.6-13.3,3.9c-1.2,0.4-2.3,0.8-3.4,1.3
	c-1.2,0.5-1.5,1.7-0.5,2.7"/>
<path class="st0" d="M149.6,138.2c-0.4,3.4,0.9,6.4,2.9,9c4.1,5.4,9,9.8,14.7,13.6c8.3,5.5,15.8,12.1,21.5,20.4
	c2.2,3.2,4.8,6.2,7.2,9.4c4.1,5.4,8.1,11,11.6,16.9c0.9,1.5,2.4,2.6,3.3,4c0.6,0.9,0.8,2,1.1,3c0.2,0.9,0.4,1.3,1.6,1.3
	c4.9-0.1,9.6-0.8,14.2-2.4c0.7-0.3,1.6-0.3,2.3-0.4"/>
<path class="st0" d="M119.4,85.9c-2.2,2.2-4.5,4.4-6.7,6.7c-5.8,6.2-10.3,13.2-14.2,20.7c-0.7,1.4-1.1,3-1.7,4.5
	c-0.9,2.4-2,4.8-2.9,7.2c-1.4,4-3.1,7.9-4.8,11.7c-1.2,2.6-1.8,5.5-2.6,8.2c-0.1,0.3,0.1,0.6,0.2,0.9"/>
<path class="st0" d="M202.3,75.5c-1.2-0.4-2.4-0.4-3.6-0.2c-3.8,0.6-7.6,0.5-11-1.6c-3.2-2-6.6-2.8-10.3-2.9
	c-3.4-0.1-6.7-0.9-10.1-1c-2.6-0.1-5.2,0.4-7.7,0.7c-3.4,0.3-6.9,0.5-10.2,1.2c-2.7,0.5-5.4,1.5-7.9,2.7c-3.3,1.5-6.4,3.3-9.6,5
	c-0.7,0.4-1.7,0.6-2.5,0.5c-4.5-0.4-8.1,1.7-11.7,3.8c-2.6,1.6-5.2,3.4-7.5,5.4c-1.7,1.4-3.1,3.3-4.5,5c-1.2,1.5-2.4,3-4.2,3.9"/>
<path class="st0" d="M237.4,146.9c0.8,1.4,1.5,3.1,2.6,4.3c4.5,5.1,8.9,10.3,13.7,15.1c4.9,5,10.2,9.7,16.3,13.3
	c5.1,3,10.5,5.7,16.2,7.6c0.7,0.2,1.5,0.2,2.1,0.4c0.2,0.1,0.2,0.4,0.4,0.7"/>
<path class="st0" d="M206.9,286.9c0.8,3.5,0.2,6.5-2.5,9c-3.6,3.5-6.9,7.3-10.7,10.5c-4,3.4-8.3,6.4-12.6,9.6
	c-2.4,1.8-4.8,3.6-7.4,5.2c-2.7,1.7-5.9,2.3-9,3.3c-5.9,1.9-12,1.4-18,1.3c-1.4,0-2.9-0.6-4.3-1.2c-3.5-1.6-6.9-3.3-10.3-5
	c-0.3-0.1-0.7-0.4-0.9-0.3c-1.8,0.7-2.9-0.6-3.9-1.5c-2-1.8-3.9-3.7-5.6-5.8c-0.8-1-1.3-2.3-1.6-3.6c-0.4-1.7-1.3-3-2.3-4.4
	c-1.2-1.5-1.3-3.6-2.9-4.8c-0.1-0.1,0-0.5,0-0.7"/>
<path class="st0" d="M204.9,288.5c-0.4,0.9-1.2,1.1-2.1,1.3c-2.7,0.5-5.3,1.2-7.9,1.8c-1.7,0.3-3.4,0.4-5,0.8
	c-2.8,0.6-5.6,1.6-8.5,2.1c-4.1,0.7-7.9,1.2-12.6,1.8c-3,0.4-6,0.9-9,1.3c-2.7,0.4-5.4,0.7-8.1,1.1c-2.6,0.4-5.3,0.9-7.9,1.2
	c-3.4,0.4-6.7,0.6-10.1,0.7c-2.8,0.1-5.5,0.1-8.3,0.2c-2.6,0.1-5.2,0.5-7.7,0.7"/>
<path class="st0" d="M109.5,1.2c3.1-0.1,6.1-0.2,9.2-0.2s6.1,0.1,9.2,0.2c2.2,0,4.4,0,6.7,0c1.9,0,3.8,0,5.8,0
	c1.3,0,2.5,0.3,3.8,0.3c2.4,0.1,4.8,0.1,7.2,0.2c1.6,0.1,3.2,0.4,4.9,0.5c3.6,0.2,7.2,0.3,10.8,0.6c2.6,0.2,5.2,0.4,7.7,0.5
	c3.4,0.1,6.7-0.1,10.1,0c1.9,0.1,3.7,0.5,5.6,0.7c2.7,0.3,5.4,0.6,8.1,0.9c3.7,0.4,7.4,0.6,11.1,1.1c4.2,0.6,8.5,1.2,12.8,1.2
	c5.8,0.1,11.5,0.6,17.3,0.4c5.9-0.2,11.8,0.6,17.6,0.5c3.6-0.1,7,0.9,10.4,1.2c6.3,0.7,12.6,1.6,18.9,2.5c1,0.1,1.9,0.1,2.9,0.2
	c8.9,0.3,17.9,0.3,26.8,1c6.1,0.5,12.2,0.6,18.2,2c2.4,0.6,4.9,0.3,7.4,0.4c4,0.3,8,0.2,11.9,1c3,0.6,6.2,0.1,9,1.6
	c1.1,0.6,2.6,0.4,3.9,0.6c4.2,0.8,4.3,2.7,3.9,5.4c-0.2,1.2,0.7,2.7-0.8,3.6"/>
<path class="st0" d="M339.6,297.3c-0.6,1.1-1,2.4-1.8,3.2c-2.8,2.9-4.7,6.4-6.9,9.7c-3.4,5.3-5.9,11-8.7,16.6
	c-1.2,2.5-1.6,5.3-2.2,8.1c-0.8,3.1-1.5,6.2-2.1,9.4c-0.4,2-0.5,4-0.8,5.9"/>
<path class="st0" d="M162.2,136.8c1.1,3.6,3.5,6.4,5.9,9.2c3.2,3.6,5.9,7.6,8.5,11.7c2.4,3.8,5,7.5,7.5,11.2
	c3.1,4.6,6.2,9.2,9.4,13.9c1.4,2.1,2.9,4.1,4.3,6.1"/>
<path class="st0" d="M353.1,340.5c-3.3,4.3-2.6,8.9-0.7,13.3c1.4,3.2,3.1,6.4,5.2,9.1c3,3.8,6.3,7.3,10.3,10.2
	c4.8,3.6,9.6,7.5,12.6,12.9c1.7,3.1,2.8,6.6,4.2,9.9"/>
<path class="st0" d="M166.2,252.7c0.1,0.3,0.2,0.8,0.4,0.9c2.8,1,4.9,3,7.2,4.7c3.5,2.5,7.3,4.6,10.9,6.9c1.6,1,3.4,1.9,5,2.9
	c4.6,2.9,9.3,5.9,13.1,9.9c2.7,2.8,5.2,5.7,7.9,8.4c3.4,3.3,4.6,7.4,5.2,11.9c0.4,3.2-0.9,6.1-1.5,9.2c-0.5,2.3-1.3,4.4-1.9,6.7
	c-0.1,0.3,0.1,0.6,0.2,0.9"/>
<path class="st0" d="M286.2,207c-4.8-2.9-9.5-5.9-14.4-8.6c-5.7-3.3-10.5-7.7-15-12.3c-5.2-5.4-9.7-11.4-14.5-17.2
	c-0.7-0.9-1-2.4-2.7-2.2"/>
<path class="st0" d="M223.6,202.3c1.4-0.2,2.4,0.4,3.4,1.2c3,2.7,5.1,6,7.3,9.2c2.7,3.8,5,7.9,7.6,11.8c3,4.4,6.5,8.5,10.5,12
	c2.9,2.6,6.2,4.9,10.4,5.3c0.9,0.1,1.8,0.9,2.7,1.3"/>
<path class="st0" d="M100.7,2.8c2.1,0.8,4.1,1.2,6.3,0.6c1.3-0.3,2.8-0.1,4.1,0.1c2.2,0.3,4.4,0.9,6.7,1.2c1.6,0.2,3.1,0.4,4.7,0.5
	c4.8,0.3,9.6,0.6,14.4,0.9c1.4,0.1,2.9,0.5,4.3,0.7c3,0.3,6,0.6,9,0.7c3.6,0.2,7.3-0.1,10.8,0.5c3.6,0.6,7.2,0.6,10.8,0.8
	c1.7,0.1,3.4-0.2,5-0.1c3.4,0.2,6.8,0.6,10.3,0.9c2,0.2,4,0.2,5.9,0.4c1.4,0.1,2.8,0.4,4.1,0.5c2.3,0.2,4.6,0.3,6.8,0.6
	c4.2,0.5,8.4,1.2,12.6,1.6c2.1,0.2,4.3-0.4,6.5-0.3c3.9,0.2,7.7,0.7,11.5,1c1.7,0.1,3.4,0,5,0c5.2,0,10.4-0.1,15.7,0.7
	c2.2,0.3,4.4-0.2,6.7-0.1c4.5,0.3,9,0.9,13.5,1.2c6,0.5,12.1,0.8,18.2,1.3c1,0.1,1.9,0.4,2.9,0.5c4.7,0.5,9.4,1,14,1.5
	c3.5,0.4,7.1,0.7,10.6,1.1c3.6,0.4,7.2,0.8,10.8,1.1c4.1,0.4,8.1,0.9,12.2,0.5c2-0.2,4,0.9,6.1,1.1c3,0.4,6.1,0.4,9.2,0.8
	c2.2,0.3,4.4,0.8,6.5,1.6c2.2,0.9,3.6,2.7,4.3,5"/>
<path class="st0" d="M290.7,346.4c2.5,3.7,4.3,7.8,5.1,12.1c0.9,4.9,1.2,9.8,1.7,14.7c0.4,3.8-1.1,7.4-2.2,11c-1,3.1-2.4,6-3.5,9"/>
<path class="st0" d="M212.8,216.1c0.1,0.7,0.1,1.4,0.4,2c2.5,5.8,5.2,11.5,8.6,16.9c1.8,2.9,3.6,5.9,5.4,8.8
	c2.3,3.8,5.7,6.6,9.2,9.1c2.2,1.6,4.8,2.8,7.4,4c1,0.5,2.3,0.5,3.4,0.8"/>
<path class="st0" d="M347.2,291.9c-3.6,5.7-6.9,11.5-9.5,17.6c-2.7,6.3-4.8,12.9-6.2,19.6c-0.5,2.5-0.5,5.1-0.6,7.7
	c0,0.6,0.3,1.2,0.5,1.8"/>
<path class="st0" d="M208.5,136.4c1.9,6.1,3.5,12.4,5.9,18.3c2.6,6.5,5,13.1,9.3,18.7c1.5,2,3.3,3.8,4.8,5.8
	c0.5,0.7,0.9,1.5,1.3,2.3"/>
<path class="st0" d="M363.9,293c0.2-0.7,0.8-0.5,1.1-0.3c4.3,3.3,6.3,7.8,4.2,13.3c-1.9,5.1-5,9.5-7.1,14.6
	c-1.1,2.8-2.1,5.7-2.8,8.6c-0.3,1.1,0.4,2.5,0.2,3.8c-0.3,3.2,1.4,5.6,3,8.1c2.3,3.8,5.4,6.4,9.1,8.6c3.4,2,6.7,4.1,10.1,6.1
	c4.5,2.5,9,5,13.5,7.4c0.6,0.3,1.3,1.3,2.1,0.4"/>
<path class="st0" d="M203.4,293.8c-1.5,0.3-2.5,0.8-3.4,2.3c-1,1.5-2.6,2.8-4.1,3.8c-2.6,1.8-5.5,3.1-8.1,4.9
	c-4.1,2.9-8.2,4.9-12.8,6.7c-5,1.9-10.1,3.8-15.4,4.4c-0.8,0.1-1.6,0.4-2.3,0.3c-4.1-0.4-8.2,0.8-12.4,0.1
	c-4.7-0.7-9.5-0.9-14.2-1.3c-0.4,0-0.8,0-1.3,0"/>
<path class="st0" d="M309.6,283.8c-2.1,3-4.5,5.8-7.2,8.3c-1.5,1.3-2.9,2.6-4.3,4c-1.9,1.7-3.8,3.4-5.8,5c-0.6,0.5-1.2,1-1.8,1.4
	c-4.8,3.3-8,8-11.3,12.6c-1.2,1.6-2,3.6-2.9,5.4c-0.9,1.7-1,3.4,0.4,5"/>
<path class="st0" d="M215.1,372.9c-2.9,0-5.4,1.4-7.9,2.6c-4.9,2.4-9.9,4.1-15.3,4.6c-4.9,0.5-9.8,1.1-14.8,1.6
	c-1.8,0.2-3.7,0-5.6-0.2c-4.2-0.4-8.5-0.6-12.6-1.5c-4.5-1-8.9-2.4-13.1-4.6c-3.2-1.7-6.4-3.3-9.5-5.2c-0.4-0.2-1.2-0.4-1.2-0.4
	c-0.3,0.5-0.7,1.2-0.6,1.8c1.1,4.2,2,8.5,3.4,12.6c1.3,3.8,2.8,7.5,3.3,11.5c0.3,2.6,0.5,5.2,0.8,7.7c0.1,0.7,0.3,1.4,0.5,2.2"/>
<path class="st0" d="M346.8,359.2c1.3,2.7,2.4,5.4,3.8,8.1c2.8,5.4,6.7,9.9,11.9,13.1c4.8,3,9.1,6.5,13.2,10.2
	c1.4,1.3,2.2,3.3,3.3,5"/>
<path class="st0" d="M137.2,152.1c0.8,1.9,1.6,3.8,2.3,5.8c1.8,5.4,5.1,9.6,9.7,12.8c3.8,2.6,7.8,4.9,11.5,7.6
	c2.4,1.7,4.8,3.2,7.6,3.6c2,0.4,4.1,0.1,6.1,0.1c2.9,0,5.8-0.3,8.6,0.8c1.1,0.4,2,0.1,2.9-0.4"/>
<path class="st0" d="M296.3,291.2c-3.5,3.2-6.9,6.4-10.5,9.5c-1.1,1-2.5,1.8-3.8,2.5c-7,3.9-11.3,10-14.2,17.3
	c-0.6,1.5-1.3,3.1-1.8,4.7c-0.1,0.5-0.5,1.5,0.7,1.6"/>
<path class="st0" d="M117.5,271.3c-0.9,2.8-2.1,4.6-3,7.4c-1.1,3.4-2,7.7-3.1,11.2c-0.7,4-0.8,7.4,0.4,11.2
	c1.3,4.1,3.4,7.5,6.2,10.6"/>
<path class="st0" d="M299.5,257.7c-0.2-0.9-0.3-1.8-0.5-2.7c-0.5-1.9-0.8-3.8-1.5-5.6c-0.2-0.6-1.3-0.9-1.9-1.5
	c-3.3-2.8-7.2-3.9-11.3-4.5c-4.7-0.7-9.1-0.5-13.4,2.2c-3,1.9-5.5,3.9-7.5,6.8"/>
<path class="st0" d="M283.3,288.1c-0.2-0.1-0.6-0.2-0.7-0.2c-5.8,3.3-12,6.1-17.2,10.2c-6.3,4.9-12.2,10.5-15.7,18.1
	c-1.4,3.1-4.1,5.6-7.3,7.4"/>
<path class="st0" d="M337.5,199.8c2.2,3.8,4.4,7.7,5.2,12.1c0.3,1.3,0.5,2.6,0.7,3.9c0.2,0.9,0.4,1.7,1.4,2.4
	c1.4,1.1,2.4,2.8,3.3,4.4c2.1,3.8,3.6,7.8,4.8,12c1.3,4.6,2.8,9.1,4.7,13.5c0.8,1.8,2.6,3.4,4.3,4.6c0.7,0.6,2.2,0.1,3.4,0.1
	c3.4-0.1,6.7-0.5,10.1-0.3c3.9,0.3,7.6,1.5,10.2,4.6c0.8,0.9,1,2.2,1.5,3.4c0.5,1,1,2,1.4,3c0.2,0.5,0.5,1.2,0.4,1.7
	c-1,4.9-1.6,10-4.3,14.4c-1.7,2.9-3.4,5.7-5,8.6c-1.9,3.5-2.5,7.2-1.1,11.2c0.7,2.1,2,3.4,4,4.3"/>
<path class="st0" d="M95.8,369.2c0.5,2.2,1,4.3,1.4,6.5c0.8,4.4,2.3,8.6,4.3,12.5c1.5,3,2.3,6.2,3.2,9.3c1.2,3.9,2.9,7.2,5.8,9.9"/>
<path class="st0" d="M298.6,269.6c1-3.1,1.9-6.1,2.9-9.2c0.8-2.8,1.3-5.6,0.7-8.4c-0.1-0.7-0.3-1.5-0.7-2.1
	c-3.2-4.8-7.3-8.4-12.9-10.1c-0.5-0.1-1-0.1-1.4-0.2c-5.3-0.8-10.5-0.9-15.5,1.4c-0.7,0.3-1.8,0.5-2.9-0.2c-1.5-0.9-3.3-1.1-5-1.5
	c-4.6-1.3-8.6-3.7-12.1-7c-1.3-1.3-2.7-2.4-4.1-3.6c-1.4-1.1-2.4-2.3-3.1-4"/>
<path class="st0" d="M268.5,289.4c-2.8,2.2-5.5,4.5-8.3,6.6c-6.4,4.8-11.9,10.4-15.2,17.7c-1.6,3.5-2.9,7.3-2.9,11.3
	c0,1.6,0.4,3.2,0.9,4.7c1.1,3.2,2.5,6.2,5.2,8.5c0.6,0.5,1.1,1.3,1.6,2"/>
<path class="st0" d="M129.3,209.2c-2-2.5-4.5-3.9-7.7-4.6c-3.4-1.3-5.9-1.9-8.8-3c-4.2-1.2-8.3-1-12.2,0.1c-3.5,1-6.8,2.9-10.1,4.6
	c-1.4,0.7-2.5,2-3.8,3c-0.8,0.6-0.7,1.5-0.7,2.3"/>
<path class="st0" d="M259,256.8c-0.8,0.3-1.5,0.6-2.3,0.9c-0.5,0.2-1.2,0.4-1.6,0.2c-1-0.5-1.6,0.1-2,0.7c-2.3,3.7-3.8,7.7-4,12
	c-0.1,2.8-0.5,5.6-0.3,8.5c0.2,2.8,0.1,5.8,1.4,8.5c1.2,2.5,2.6,4.8,5.2,6.1c0.8,0.4,0.9,0.8,0.9,1.5"/>
<path class="st0" d="M234.6,199.8c0.7,1.7,1.4,3.4,2.2,5c1.6,3.1,4.4,5.1,7,7.4c5,4.4,11.2,6.6,17,9.6c2.7,1.4,5.6,2.3,8.4,3.5"/>
<path class="st0" d="M128.6,140.6c0,1,0.2,2.1,0,3.1c-1.1,4.6-2.2,9.1-4.3,13.3c-1.5,3.1-2.8,6.3-4.2,9.5c-1.1,2.8-2.4,5.5-4.1,7.9
	c-0.7,1-0.9,2.2-1.3,3.4"/>
<path class="st0" d="M340,329.6c-1.8,2.6-4.3,4.6-4.9,7.9c-1.9,1.5-2.2,3.8-3.3,5.7c-0.9,1.6-0.9,3.1-1,4.7c-0.3,2.9-0.8,5.8-1,8.6
	c-0.1,1.2,0.2,2.5,0.3,3.8c0.7,7.2,2.8,13.9,6.5,20.1c1.4,2.3,2.5,4.7,4.9,6.3"/>
<path class="st0" d="M257,349.1c-1.4,3-3.1,5.9-4.3,9c-1.2,3.1-2.9,6.2-3,9.7c-0.1,4.7-0.6,9.5,1.1,14c0.4,1.1,1.1,2.2,1.6,3.2"/>
<path class="st0" d="M36.6,140.8c3.9,0.3,7.1,2.1,9.1,5.4c1.2,2,2.2,4.4,2.1,6.6c-0.2,2.8,1.7,2.1,2.9,2.5c4.5,1.4,9,2.5,13.5,3.8
	c4.1,1.2,8,2.8,12.1,4.1c1.1,0.4,2.3,0.2,3.4,0.6c1.4,0.5,2.8,1.2,4.2,1.8c0.8,0.3,1.4,0.4,2.2-0.5c0.8-0.9,1.3-2.4,3-2.2"/>
<path class="st0" d="M305.3,293c-0.9,4.5-2.5,8.7-5.4,12.2c-4.3,5.2-8.9,10-13.2,15.2c-2,2.4-3.6,5-5.4,7.5"/>
<path class="st0" d="M198.9,194.4c-0.8,0.1-1.6,0.4-2.3,0.3c-3.2-0.1-6.4-0.4-9.5-0.3c-2.9,0.1-5.8,0.6-8.6,0.8
	c-5.3,0.5-10.1,2.4-14.8,4.8c-3.2,1.7-6.7,2.9-10.1,4.2c-1.4,0.5-2.9,0.7-4.3,1.1c-1.6,0.5-2.9-0.2-4-1.3"/>
<path class="st0" d="M249.7,340.5c-2.8,3.7-5.6,7.4-7,11.9c-1.5,4.9-3.3,9.8-4.6,14.8c-1.2,4.7-1.8,9.6-0.5,14.4
	c0.8,3,1.9,5.9,5.2,7.2c0.2,0.1,0.5-0.1,0.7-0.2"/>
<path class="st0" d="M314.1,245.8c0,2.3,0,4.6,0,6.8c0,0.3,0.5,0.7,0.9,0.9c1.5,0.7,3.2,1.2,4.6,2c4.3,2.4,9.1,3.2,13.7,4.6
	c1,0.3,1,0.4,0.8,1.5c-1.6,7.7-6.2,13.4-11.7,18.5c-1.6,1.5-3,3.2-4.3,5c-1.3,1.8-2.6,3.4-4.5,4.5c-1.4,0.9-2.2,2.2-2.3,3.8
	c-0.1,3.6-2,6.3-3.8,9.2c-0.6,0.9-1,1.9-1.5,2.9"/>
<path class="st0" d="M281.9,340.1c1.2,2.9,2.2,5.9,3.6,8.6c2.5,4.7,3.8,9.8,4.7,15c0.5,2.6,0.9,5.2,0.7,7.9
	c-0.1,1.9,0.3,3.7,0.3,5.6c0.1,4.2-1.5,8-2.9,11.9c-0.4,1-0.8,2-1.2,3.1"/>
<path class="st0" d="M103.2,150.7c0.5,1.8-0.4,3.3-1,4.8c-1.8,4.7-4,9.3-5.8,14.1c-0.8,2-1.1,4.2-1.7,6.3c-0.6,1.9-1,3.9-1.8,5.8
	c-2.3,5.3-1.9,10.8-1.6,16.4c0.1,2.2,0.1,4.3,0.2,6.5c0,0.6,0.1,1.2,0.2,1.8"/>
<path class="st0" d="M275.8,347.1c-0.1,2.7,0.9,5.3,1.8,7.7c2.4,6.1,4.2,12.5,5.7,18.9c1.2,4.9,0.7,9.9,0.1,14.9
	c-0.3,2.2,0,4.4,0,6.6"/>
<path class="st0" d="M297.3,355.2c0.1-0.1,0.3-0.2,0.4-0.2c0.3,0.5,0.5,0.9,0.7,1.4c1.9,5,3.4,10.2,3.3,15.6
	c-0.1,3.2-1.1,6.3-1.9,9.4c-0.4,1.7-1,3.4-1.6,5c-0.2,0.5,0,1.3-0.9,1.3"/>
<path class="st0" d="M239.9,387c-2.2,2.6-3.7,5.6-4.3,9c-0.4,2.1-1.1,4.2-1.2,6.3c-0.2,4.5,1.8,8.4,3.9,12.2c0.5,1,1.2,1.9,1.8,2.9"
	/>
<path class="st0" d="M364.8,253c0.2,0.4,0.3,0.9,0.5,1.1c2.9,1.8,4.9,4.3,6,7.4c0.7,1.9,0.9,4,1.1,6.1c0.4,4-0.6,7.9-1.5,11.7
	c-0.8,2.9-1.2,6-1.6,9c-0.2,1.1,0.1,2.2,1.2,2.9c0.5,0.4,0.8,1.2,1.1,1.8"/>
<path class="st0" d="M322.7,282.3c-0.3,1.9-0.6,3.7-0.9,5.6c-0.5,2.5-2.1,4.5-3.7,6.2c-3.4,3.9-6.9,7.8-11,10.9
	c-3.8,2.9-6.3,6.6-9,10.2c-2.3,3-4.3,6.3-5.9,9.8c-1.6,3.6-2.4,7.2-3.2,11c-0.1,0.5-0.3,1-0.3,1.4c0,0.9-0.3,2,1.1,2.3"/>
<path class="st0" d="M388.6,263.5c0.2-0.5,0.5-1,0.5-1.4c-0.3-4.2-2-8.1-5.6-10.1c-2.5-1.4-5.6-2.2-8.7-1.9c-0.9,0.1-1.8,0-2.7-0.1
	c-1.6-0.2-3.4,0.2-5,0.3"/>
<path class="st0" d="M322.9,229.3c0,2.2,1.6,3.1,3.1,4.1c3.5,2.3,6.1,5.3,8.5,8.6c4,5.6,6,12.1,8,18.5c0.9,2.8,2.5,5.4,3.7,8.1
	c2.1,4.8,5.9,8.3,9.5,11.9c2.1,2.1,4.3,4.1,6.5,6.1c0.5,0.4,1.2,0.6,1.8,0.9"/>
<path class="st0" d="M98,154.8c0.5,1.6-0.7,2.6-1.1,4c-0.8,2.7-1.5,5.4-2.2,8.1c-1,4.1-2.1,8.1-3.1,12.2c-0.3,1.3-0.5,2.7,0.2,3.9"
	/>
<path class="st0" d="M318.2,326.8c-0.6,0.8-1.5,1.6-1.8,2.5c-1.2,4.5-3.6,8.5-5.8,12.6c-1.7,3.3-3.2,6.7-4,10.4
	c-0.5,1.9,0.3,3.2,1,4.7"/>
<path class="st0" d="M297,262.7c0.7,1.7-0.6,2.9-1.5,3.5c-1.9,1.2-3.2,3-4.8,4.4c-3.1,2.7-6.2,5.4-9.4,8.1c-2.9,2.5-5.9,5-8.8,7.5
	c-1.2,1-2.4,1.9-3.6,2.9"/>
<path class="st0" d="M119.9,350c-2.8,3.2-5.6,6.5-8.5,9.7c-2.2,2.4-5,4.1-7.9,5.6c-4.1,2-8.2,3.8-12.2,5.8c-4.7,2.2-9.4,4.5-14,6.9
	c-2.3,1.1-4.4,2.5-6.7,3.7c-0.7,0.4-1.5,0.4-2.3,0.6"/>
<path class="st0" d="M197.1,191.8c-4.4-1.4-8.7-3.1-13.5-2c-1.5,0.3-3.1,0.1-4.7,0.1c-2.4,0-4.8,0-7.2,0c-3.6,0-7,1-10.2,2.5
	c-3.7,1.8-7.4,3.6-11,5.6c-2.3,1.3-3.6,3.5-4.7,5.9"/>
<path class="st0" d="M286.5,207.7c0.2,2,0.4,4.1,0.7,6.1c0.6,3.6,1.3,7.1,2.9,10.4c1.4,3,2.8,6.1,4.1,9.2c0.1,0.2,0,0.5,0,0.7"/>
<path class="st0" d="M243.7,218.5c-0.2,1.1,0.7,1.5,1.3,1.9c3.2,2.6,6.4,5.1,9.7,7.6c3.7,2.7,7.8,4.6,12.4,5.1
	c0.6,0.1,1.2,0.3,1.8,0.5"/>
<path class="st0" d="M65.2,385.1c-0.1,0.4-0.1,0.9-0.4,1.2c-2.5,3-4.3,6.6-5.6,10.1c-1.5,4-2,8.5-1.5,12.9c0,0.4,0.5,0.8,0.7,1.3"/>
<path class="st0" d="M284,294.2c-1.9,1.2-3.8,2.3-5.6,3.6c-6.3,4.8-10.9,11.2-14.8,18c-0.8,1.4,0.1,2.7,2,3.1"/>
<path class="st0" d="M348.1,348.4c-0.2,2.3-0.7,4.6-0.7,6.8c0,2.4-1.7,4.1-2,6.3c-0.2,1.6-0.2,3.2-0.2,4.9c0,1.1-0.2,2.2,0,3.2
	c0.5,2.1,0.9,4.2,1.8,6.1c2.2,5,4.7,9.8,8.2,14.1c1.1,1.3,2.4,2.1,3.8,2.8"/>
<path class="st0" d="M300.6,220.3c0.6,4.4,2.4,8.3,4.5,12.1c1.3,2.3,2.4,4.8,3.8,7c2.4,3.9,6.2,6.5,9.4,9.7c0.3,0.3,0.8,0.4,0.7,0.9
	c-0.3,1.5-0.6,3-0.9,4.5"/>
<path class="st0" d="M348.6,308.4c-4.6,4.9-7.8,10.6-9.7,17.1c-0.5,1.6-1.1,3.2-1.6,4.9c-0.2,0.8-0.7,1.6,0,2.3"/>
<path class="st0" d="M266.9,249.2c1.1,2.8,2.3,5.6,3.4,8.5c1.6,4.3,4,8,6.9,11.5c0.9,1.1,1.8,2.3,2.7,3.4"/>
<path class="st0" d="M171.2,268c-0.3-0.2-0.7-0.7-0.9-0.7c-2.4,0.8-4.8-0.2-7.2,0c-3.1,0.3-6.1,1-9,2.3c-0.9,0.4-2.1,0.5-2.8,1.1
	c-0.9,0.9-1.5,2.1-2.2,3.2"/>
<path class="st0" d="M197,214.5c-2.1,1.5-4.7,3-6.9,4.9c-1.7,1.1-3.5,1.9-6.8,3.3c-4,1.1-7.5,1.6-11.4,1.6c-2.3,0-4.7-0.1-7-0.2
	c-1.3,0-2.3-1.4-3.8-0.8"/>
<path class="st0" d="M272.1,276c-2.2-3.1-4.7-6-6.6-9.2c-1.9-3.3-3.1-7-4.6-10.6c-0.1-0.3-0.2-0.7-0.4-0.9c-0.2-0.2-0.6-0.4-0.9-0.6
	c-0.2,0.4-1,0.3-0.6,1.1c0.5,1.1,0.9,2.4,1.1,3.6c1.3,7,5.2,12.7,9.7,18c0.4,0.5,0.8,1.1,1.3,1.6"/>
<path class="st0" d="M300.9,310.9c-0.4,0.1-1,0.1-1.2,0.4c-2.7,2.8-5.5,5.6-8.1,8.5c-1.6,1.8-3.1,3.6-4.5,5.6
	c-1.1,1.5-1.9,3.1-2.9,4.7c-0.4,0.6-0.2,1.1,0.4,1.4"/>
<path class="st0" d="M295.5,235.4c1,2.6,2.4,5,4.5,6.8c3.7,3.2,7.5,6.2,11.3,9.2c0.7,0.6,1.7,0.8,2.5,1.1"/>
<path class="st0" d="M107,223.7c2.9,1.2,5.7,2.5,8.7,3.6c1.2,0.5,2.6,0.6,3.9,0.9c1.5,0.3,2.8,0.7,3.8,2c0.3,0.4,1.1,0.4,1.6,0.8
	c0.4,0.3,1.5-0.1,1.2,0.9c-0.2,0.6-0.7,1.2-1.6,1.3c-2.4,0.3-4.8,0.6-7.2,1.1c-1.8,0.4-3.6,1-5.4,1.6c-1.8,0.5-6.8,1.2-9,1.4"/>
<path class="st0" d="M137.6,141.1c-0.2,0.5-0.7,1.3-0.5,1.6c1.5,2,0.2,4.1,0.2,6.2c0.1,3.2-1.5,6.1-2.3,9.2c-1,3.9-1.9,7.9-2.9,11.9
	c-0.2,0.9-0.3,1.9-1.6,2.3c-0.5,0.2-0.7,1.6-0.9,2.4c-1.2,4.6-2.3,9.3-5.1,13.3c-0.1,0.1-0.2,0.2-0.4,0.4"/>
<path class="st0" d="M44.4,113.4c-3.5-2.2-6.3-0.9-7.2,3.2c-0.3,1.5-0.5,3-1.6,4.2c-0.3,0.3-0.3,0.8-0.4,1.2
	c-0.1,2.1,0.5,4.1,1.6,5.9c0.8,1.3,3.5,1.7,4.8,0.9c0.4-0.2,1-0.3,1.4-0.2c1.4,0.3,2.7,0.5,3.6-0.9c0.1-0.1,0.4-0.2,0.5-0.2
	c2.5,0.5,3.4-1.4,4.3-3.1"/>
<path class="st0" d="M359.2,335.6c-1.8-1.4-1.9-3.6-2.5-5.6c-0.9-3.4-1.4-7-2.3-10.4c-0.3-1.2-1.1-2.2-1.8-3.2"/>
<path class="st0" d="M214.8,164.1c2.1,3.3,4,6.8,6.4,9.9c2,2.6,4.4,5.2,7,7.1c1.7,1.2,3.5,2.4,4.9,3.9c0.6,0.7,1.3,1.4,1.8,2.2
	c1.1,1.6,1.7,1.8,2.7,0.7"/>
<path class="st0" d="M247.7,218.8c2.2,1.7,4.5,3.4,6.6,5.2c3,2.7,6.6,3.6,10.3,4.6c1,0.3,1.9,0.6,2.9,0.9"/>
<path class="st0" d="M84.9,215.7c0.9-0.7,1.8-1.3,2.7-2c2.1-1.5,4.3-2.6,6.8-3.3c2.4-0.7,4.7-2.1,7.2-2.6c3.2-0.6,6.5-0.5,9.7,0.1
	c1.7,0.3,3.5,0.1,5.2,0.4c3.4,0.6,4.5,0.5,8.3,1.8c0.5,0.3,1.2,0.1,3-0.2c0.6-0.1,0.9-0.6,1.5-0.7"/>
<path class="st0" d="M301.5,255.9c-0.8,0.7-1.6,1.4-2.3,2.2c-0.4,0.4-0.8,0.9-0.9,1.4c-0.2,1.6-0.9,2.7-2.5,3.5
	c-3,1.5-5.8,3.4-8.7,5.2c-2.6,1.6-5,3.6-7.8,5c-5.7,2.9-8.9,7.6-10.9,13.4c-0.3,0.8-0.7,1.7,0,2.5"/>
<path class="st0" d="M334.4,242.8c-0.1,0.8-0.3,1.7-0.1,2.5c1,5.2,2.5,10.3,5,14.9c0.1,0.2,0.1,0.5,0.2,0.7"/>
<path class="st0" d="M295.5,143.6c1.4,4.2,2.1,8.5,2.3,12.9c0.2,3.9,0.2,7.8,1.6,11.5c0.2,0.6-0.1,1.4-0.1,2.1"/>
<path class="st0" d="M112.7,221.4c-1.1,0.2-2.3,0.8-3.3,0.9c-1.5,0.1-3.3,1.5-4.8-0.2c-0.2-0.2-0.6-0.4-0.9-0.4
	c-3.2,0.1-6.4,0-9.1,1.8c-1.8,1.2-4,2.2-4,5c0,0.4-0.6,0.8-0.8,1.3c-0.3,0.5-0.6,1.1-0.7,1.6c-0.2,2.3-1.5,3.7-3.8,4
	c-0.5,0.1-1,0.2-1.4,0.4"/>
<path class="st0" d="M273.4,248.5c1.9,6,4.2,11.9,8.5,16.7"/>
<path class="st0" d="M318,226.8c-0.4,1.3-0.7,2.6-1.1,4c-0.9,3.3-1.8,6.6-2.7,9.9c-0.3,1.2-0.4,2.5-0.6,3.8"/>
<path class="st0" d="M87.4,134.6c-1.8,3.4-2.7,7.2-3.4,11c-0.5,2.7-0.7,5.4-0.7,8.1c0,3,0.6,6,0.6,9c0,1.4-0.5,2.9-0.8,4.3"/>
<path class="st0" d="M186.4,207.4c-2.2-1.1-4.9-1.2-6.8-1.4c-1.9-0.2-3.9-0.1-5.7,0.2c-3.3,0.5-6.4,1.6-8.9,3.9
	c-1.6,1.4-3.1,2.8-4.8,4.1c-0.8,0.6-0.5,1.3-0.5,2"/>
<path class="st0" d="M249.8,346.2c-1.8,3.1-2.5,6.6-3.4,10.1c-1.7,6.4-2.5,13-2.1,19.6c0.2,3,0.5,6.1,2.3,8.8"/>
<path class="st0" d="M278.6,248c1,2.4,2,4.8,2.9,7.2c0.9,2.6,2.5,4.8,3.8,7.2"/>
<path class="st0" d="M239.6,240.4c0.3,0.4,0.5,0.9,0.9,1.2c2.4,2,4.2,4.4,5.8,7c0.4,0.7,1,1.3,1.4,2c0.7,1.1,2.2,1.8,1.7,3.6
	c-0.1,0.6,0.8,1.4,1.2,2.1c0.7,1.4,0.5,1.5-1.1,1.7c-0.8,0.1-1.7-1.3-2.3,0.1c-0.3,0.7-0.4,1.5-0.6,2.3c-0.2,1-1.2,1.9,0,2.9"/>
<path class="st0" d="M227.5,209.8c-0.7,0.2-1.4,0.2-2,0.6c-2.7,1.7-5.9,2.1-8.8,3.2c-1.1,0.4-2.4,0.6-3.1,1.8"/>
<path class="st0" d="M155.4,225.9c1.2,4.7-1.9,8.4-3.3,12.4c-0.1,0.1-0.6,0.1-0.9,0.2"/>
<path class="st0" d="M269.3,241.3c-0.5,0.4-0.9,0.8-1.5,1.1c-4.5,2.2-8.8,4.8-12,8.7c-0.6,0.7-1.1,1.6-1.6,2.3"/>
<path class="st0" d="M297.3,273.5c-2.1,2.2-4.2,4.3-6.3,6.5c-1.2,1.3-2.3,2.7-3.4,4.1c-0.4,0.6-0.6,1.3-0.9,2"/>
<path class="st0" d="M177.7,209.3c-0.7-0.1-1.4-0.3-2-0.1c-3.1,1.1-4.1-0.2-9.1,3.2c-2.4,1.8-3.9,3.5-5.7,4.9
	c-0.7,0.6-0.9,1.3-1.8,2.5c-0.7,1.2-1.3,1.4-2.3,1.2"/>
<path class="st0" d="M43.5,129.1c-1,3.8-2,7.6-3.1,11.3c-0.1,0.4-0.2,0.7-0.4,1.1"/>
<path class="st0" d="M87.3,230.5c1.7-0.2,2.4-1.7,3.2-2.9c0.6-0.8,1-1.3,2-1.7c2.4-0.8,2.6-2,7.1-2.8c1.2-0.4,4-0.6,4.9,0.7
	c1.6,2.4,2.2,5.9,1.5,8.3c0.1,1.3-0.2,2-0.7,3.2c-0.2,0.5-0.9,0.8-3.1,1.4c-1.7,0.1-1.6,0.6-4.7,0.1c-1.2,0-2.1-0.5-3-1.6
	c-1.9-2.5-2.2-6.1-1-9.1c0,0,0.7-1.7,0.6-2.2"/>
<path class="st0" d="M118.1,216c4.4,1.9,7.2,5.6,10.1,9.2"/>
<path class="st0" d="M124.3,259.9c-1,3.4-2.1,6.7-3.1,10.1c-0.5,1.6,0.6,4,2.2,4.5c1,0.3,2.2,0.3,3.2,0.4"/>
<path class="st0" d="M200.2,296.2c-1.9,0.2-3.9,0-5.2,1.8c-1.3,1.6-3.2,1.8-5,1.7c-1.5,0-2.5,0-3.3,1.5c-0.6,1.2-4.6,2.2-6.1,1.8"/>
<path class="st0" d="M175.4,209.6c0.2,0,0.4,0.1,0.5,0c1.3-0.8,1.4-0.9,2.3,0.6c1.1,1.9,2.2,4,2.6,6.1c0.3,1.4-0.5,3.1-0.8,4.6
	c-0.1,0.6-0.2,1.2-0.4,1.8"/>
<path class="st0" d="M298.2,281.1c-4,2-7.8,4.2-12,5.5c-1.2,0.4-2.4,0.9-3,2.4c-0.4,0.9-1.6,1.4-2.4,2.2c-2,2-4.1,3.9-5.4,6.5"/>
<path class="st0" d="M264.6,250c-0.9-0.9-1.7-0.2-2.3,0.2c-2.4,1.7-5.1,3.2-6.9,5.7c-0.4,0.5-0.5,1.2-0.7,1.8"/>
<path class="st0" d="M39.2,129.4c-0.7,2.3-1.3,4.7-2,7c-0.4,1.4-0.6,2.9-0.9,4.3"/>
<path class="st0" d="M334.9,338.3c-0.1,1-0.1,1.9-0.2,2.9c-0.2,2.1-0.3,4.2-0.5,6.3c-0.4,3.1-0.8,6.1-1.2,9.2c0,0.4,0.1,0.7,0.2,1.1
	"/>
<path class="st0" d="M259.2,246.7c-2.5-0.8-3.9,1.2-5.6,2.4c-1.4,1.1-2.7,2.5-4,3.7"/>
<path class="st0" d="M173.1,259c0.1,1.8,0.1,3.6,0.2,5.4c0,2.2-1.4,3.4-3.2,4.1"/>
<path class="st0" d="M320,238.4c-0.2,3.1-0.5,6.2-0.7,9.4c0,0.4-0.3,0.8-0.5,1.3"/>
<path class="st0" d="M129.1,276.8c1.9,1.4,4.1,1.7,6.3,2c4,0.6,7.8-0.2,11.5-1.7c0.5-0.2,1-0.7,1.4-1.1"/>
<path class="st0" d="M225.4,217.4c-3.2,0.1-6.5,0.2-9.7,0.4"/>
<path class="st0" d="M122.1,224.2c2.5,1,5,2,7.5,3.1c0.2,0.1,0.2,0.6,0.4,0.9"/>
<path class="st0" d="M292.3,251.2c0.6,3.3,2.6,5.9,4.1,8.8"/>
<path class="st0" d="M193.4,210.4c0,1.4,1.2,1.5,2.1,2c2.6,1.4,5.1,2.9,8.1,3.5c1.8,0.4,3.1-0.5,4.7-0.6c1.1-0.1,2.3-0.2,3.4-0.3"/>
<path class="st0" d="M113.5,243.8c-0.5,0-1.2-0.2-1.6,0c-2.4,1.3-5,1.4-7.6,1.4c-3.5,0.1-7-0.1-10.3-1.5"/>
<path class="st0" d="M284.9,252.1c0.9,1.9,1.8,3.7,2.7,5.6c0.5,1,1,1.9,2.1,2.2"/>
<path class="st0" d="M257.8,332.2c-1.9,1.7-3.9,3.3-5.7,5c-0.6,0.6-1.1,1.3-1.6,2"/>
<path class="st0" d="M128.9,234.9c-0.7,0.2-0.7,0.7-0.7,1.3c-0.1,1.8-1.2,3.1-2.1,4.5c-0.4,0.6-0.8,1.3-1.3,2"/>
<path class="st0" d="M178.2,209.3c1.6-1.5,3.6-0.6,5.4-0.6c1.2-0.1,2.3,0.2,3.5-0.5c0.6-0.4,1.7-0.1,2.5,0.1c1.2,0.4,2.4,1,3.6,1.6
	c0.1,0.1,0.3,0.4,0.4,0.3c2.3-1,3.7,1.1,5.6,1.7c2.4,0.8,4.6,2.1,6.9,3.2"/>
<path class="st0" d="M51.9,111.8c-1-0.4-2-0.8-3.1-1.1c-2.1-0.4-3.2,1.4-4.7,2.3"/>
<path class="st0" d="M389.8,272.3c0.1-0.1,0.4-0.1,0.3-0.2c-0.1-2.2,0.3-4.5-1.2-6.5"/>
<path class="st0" d="M336.6,197.6c0.2,0,0.6-0.1,0.7,0c0.4,0.4,0.6,0.9,0.9,1.4c0,0.1-0.5,0.5-0.5,0.5c-0.5-0.4-1.2-0.8-1.2-1.2
	c-0.1-1.3-1.8-1.9-1.4-3.4c0-0.1-0.5-0.5-0.5-0.5c-1.5,1.1-2.2-0.5-3.1-1.1c-1-0.7-1.8-1.6-2.7-2.3c-0.7-0.5-1.5-0.9-2.3-1.3"/>
<path class="st0" d="M314.8,253.7c0,2.1,1,3.9,2,5.7c0.1,0.1,0.7,0,1,0"/>
<path class="st0" d="M187.1,209.7c2,0.6,3.7,2.5,6.1,1.3"/>
<path class="st0" d="M90.7,236.3c2.1,0.8,4.2,1.1,6.4,0.7"/>
<path class="st0" d="M337.8,338.6c-0.8,1.9-1.7,3.7-2.5,5.6"/>
<path class="st0" d="M243.2,380.4l-3.2,5.4"/>
<path class="st0" d="M164.9,214.5c0,1,0,1.9,0,2.9c0,2.1,0.6,4,2.3,5.4c0.3,0.2,0.4,0.7,0.6,1.1"/>
<path class="st0" d="M91,207.3c-0.1,0.8-0.1,1.7-0.2,2.5c0,0.9,0,1.8,0,2.7"/>
<path class="st0" d="M53.9,357c0.6-1,1.1-0.9,1.8,0c1.6,2,2.3,2.2,3.8,1.1"/>
<path class="st0" d="M208.8,209.8c-0.4,0.8-0.1,1.5,0.3,2.2c0.5,0.9,0.9,1.9,1.3,2.8"/>
<path class="st0" d="M342.3,261.1c-2.6,0.5-5.2,0.2-7.7-0.4"/>
<path class="st0" d="M247.9,319.4c-0.1,0.6-0.1,1.2-0.2,1.8c0,0.9-0.3,1.9,0.5,2.7"/>
<path class="st0" d="M63.5,357c-0.5,0.9-1.1,1.8-1.6,2.7c0,0.1-0.5,0-0.7-0.2c-0.6-0.6-1.1-1.2-1.6-1.8"/>
<path class="st0" d="M346.6,259.1c0,0.8,0,1.4-1.1,1.5c-0.9,0.1-1.7,0.6-2.5,0.9"/>
<path class="st0" d="M338.7,213.3c1.5,0.8,3,1.7,4.5,2.5"/>
<path class="st0" d="M120.5,244c-0.2-0.4-0.2-1.1-0.9-0.9c-1.5,0.6-2.9,1.3-4.3,2"/>
<path class="st0" d="M287.4,202.5c-0.4,1.1-0.7,2.3-1.1,3.4c-0.5,1.3,0.2,1.6,1.3,1.8"/>
<path class="st0" d="M334.8,256.6c-0.1,1.3-0.2,2.5-0.4,3.8"/>
<path class="st0" d="M250.2,340.3c1.5,1.6,3.4,1.5,5.4,1.3"/>
<path class="st0" d="M136.1,138.8c0.1,1.1-0.4,2.4,0.7,3.2"/>
<path class="st0" d="M249.4,254.6c-1.4,0.5-1.3,1.8-1.7,2.9"/>
<path class="st0" d="M319.1,249.8c1,0.7,2,1.4,3.1,2.2"/>
<path class="st0" d="M109.7,222.8c2.1,1.1,4.2,2.1,6.3,3.3c0.4,0.2,0.7,0.7,1.1,1.1"/>
<path class="st0" d="M318.8,255.5c-0.9,1.4,0.8,1.8,1.1,2.7"/>
<path class="st0" d="M209.5,287.6c-1.5,0.2-3,0.5-4.5,0.7"/>
<path class="st0" d="M131.3,172.2c0.1,1.3,0.1,2.5,0.2,3.8"/>
<path class="st0" d="M44.7,126.9c-1.1,0.1-1,1.2-1.4,1.8"/>
<path class="st0" d="M136.7,143.3c-0.1,0.7-0.1,1.4-0.2,2.2"/>
<path class="st0" d="M78.9,172.2c-0.5,0.3-1.6,0.1-1.1,1.3"/>
<path class="st0" d="M247.7,368.1c-0.2,0.1-0.5,0.1-0.7,0.2c0.1,0.3,0.2,0.6,0.4,0.9"/>
<path class="st0" d="M167.8,149.8c0.4,0.2,0.7,0.5,1.1,0.7"/>
<path class="st0" d="M34.2,141.1c-9.7,4.2-6.3,20.9-6.5,29.1c-0.3,14.2,1.3,29.1,2.5,43.6c1.3,15.3,4.8,30.7,6.2,46
	c1.6,18.2,3.7,36.1,5.7,54.2c0.9,8.5,1.8,17.5,2.2,25.9c0.3,5.5-2.7,14.9,1.7,19c0.6-0.7,1.7-1.3,2.3-2.1c0.5,0.5,1.1,1,1.6,1.4
	c0.5-2,1.4-0.9,2.4-1.6"/>
<path class="st0" d="M157.9,224.2c0.1,0.6,1.2,2.3,2.1,3.5c1.7,2.3,3.7,4.4,7.8,4.4c5.5-0.1,9.1-1.2,11.3-2.3c1.9-1,7.1-3.5,7.1-3.5
	l4-3.4"/>
<path class="st0" d="M207.3,286.1c-0.9-0.3-7,0.9-9.9,1.4c-2.9,0.5-26.7,2.4-29,2.8c-2.3,0.3-8.2,0.9-9.6,0.8c-1.4,0-2,1.2-5.3,1.8
	c-3.3,0.6-6.4,1.3-8.1,1.3s-8.6,0.4-11,0s-8.1,0.1-12.2,0.9s-6.2,2.3-6.7,2.5s-0.8,2-0.8,2"/>
</svg>
