<?xml version="1.0" encoding="UTF-8"?>
<svg xmlns="http://www.w3.org/2000/svg" width="398.4" height="418.4" viewBox="0 0 398.4 418.4">
  <defs>
    <style>
      .f, .g, .h, .i, .j, .k, .l, .m {
        fill: none;
        stroke: #484848;
        stroke-linecap: round;
        stroke-linejoin: round;
        stroke-width: 1.5px;
      }

      .g {
        opacity: .65;
      }

      .h {
        opacity: .59;
      }

      .i {
        opacity: .41;
      }

      .j {
        opacity: .37;
      }

      .k {
        opacity: .36;
      }

      .l {
        opacity: .48;
      }

      .m {
        opacity: .28;
      }
    </style>
  </defs>
  <g id="a">
    <path class="f" d="M370.6,29.7c-.7-.1-.9.4-.9,1,0,1.7-.7,3.2-1.7,4.5-2.6,3.3-3.5,7.4-5.2,11.2-.6,1.4-1.5,2.7-2.1,4.2-.9,1.9-1.7,3.8-2.5,5.8-1.7,4-3.9,7.9-5.1,12.1-1.7,5.6-5.1,10.2-7.9,15.2-3,5.3-6.8,10.2-9.2,15.7-2.8,6.5-6.4,12.5-9.7,18.7-1.3,2.5-2.3,5.1-3.4,7.7-1,2.3-2,4.5-2.9,6.8-1.1,2.9-2.1,5.8-3.3,8.6-1.5,3.8-3.2,7.6-4.8,11.3-2.1,4.9-4.1,9.7-6.3,14.6-.9,2-2.1,3.8-2.5,5.9"/>
    <path class="f" d="M88.3,1.2c-1.6,6.1-3.2,12.1-4.9,18.2-1.2,4.6-2.4,9.3-3.8,13.8-1.1,3.4-2.5,6.6-3.7,9.9-2.2,5.9-4.4,11.8-6.7,17.6-1.6,4.1-3.1,8.2-4.7,12.2-1.6,4.1-3.2,8.2-4.6,12.4-.8,2.2-.8,4.7-1.5,7-.9,2.8-2.2,5.4-3.4,8.1-.2.6-.4,1.2-.5,1.8-.7,2.1-1.4,4.2-2,6.3-.4,1.4-.5,2.9-.7,4.3"/>
    <path class="f" d="M204.4,66.8c4.5,1.8,9.1,3.6,13.6,5.4,2.9,1.1,5.9,2.1,8.8,3.3,1.4.6,2.5,1.5,3.8,2.3,2.3,1.5,4.9,2.3,7.6,2.9,4.7,1.1,9.3,2.6,13.7,4.7,3.6,1.8,7.2,3.6,10.6,5.8,7.3,4.7,13.3,10.8,18.4,17.8,2.4,3.3,4.9,6.5,7.3,9.7.7.9,1.1,2,1.6,3.1,2.8,5.6,5.8,11.2,8.2,16.9,1.6,3.8,2.5,8,3.7,12,1.1,3.8,1.7,7.6,1.6,11.5,0,1.6,0,3.1.2,4.7.1.9.3,1.7.5,2.5"/>
    <path class="f" d="M258.5,160.9c1.4,1,2.8,2,4.1,3.1,3.2,2.4,6.4,4.9,9.7,7.2,2.6,1.9,5.3,3.8,8.1,5.4,5.1,3,10.4,5.8,15.6,8.7,6.2,3.5,12.8,6.5,18.5,10.8,6.4,4.8,12.5,10,16,17.3,2.1,4.3,3.4,8.9,2.9,14-.4,3.4.2,6.8.2,10.2,0,.8-.2,1.7-.3,2.5"/>
    <path class="f" d="M289.4,153.7c-3.8-4.8-9.3-7.2-14.6-9.9-2.3-1.2-4.5-2.7-6.9-3.9-2.2-1.2-4.4-2.2-6.6-3.3-1.4-.7-2.9-1.5-4.3-2.1-5.8-2.7-11.8-4.7-18-6.1-5.1-1.1-10.2-2-15.3-2.7-2.7-.4-5.5-.2-8.3-.2-3.5-.1-7-.1-10.4-.2-3.7-.1-7.3-.1-11-.2-4.8-.1-9.6-.3-14.4-.2-6.5.2-13,.5-19.4,2.1-5,1.2-10.2,1.8-15.3,2.6-5.2.8-10,2.6-14.9,4.3-3.2,1.1-6.5,2-9.7,2.9-6.4,1.8-12.3,4.6-17.8,8.3-1.2.8-2.3,1.6-3.4,2.3"/>
    <path class="f" d="M131.8,362.4c-.5-.2-1-.4-1.4-.7-3-2.1-4.5-5.6-6.8-8.3-3.7-4.1-7.3-8.3-11-12.4-4.2-4.9-7.5-10.4-9.9-16.4-1.8-4.5-3.5-9.1-5.4-13.5-1.5-3.3-3.6-6.4-5.1-9.8-2.9-6.4-5.9-12.7-8.4-19.3-1.2-3.3-1.3-7-1.9-10.6-.4-2.5-.7-4.9,0-7.4.6-2.4.8-4.9,1.5-7.2,1.6-5.5,2.2-11,.7-16.6-.3-1.3-.4-2.6-.6-3.9-.3-2.2-.6-4.4-.7-6.7,0-1.7.2-3.4.7-5,1.6-5,1-10.1.5-15.1-.7-6.2-.5-12.4.7-18.5.4-2.2.3-4.4.6-6.6.3-2.7.8-5.4,1.3-8.1.8-4.5,1.7-9,2.8-13.5.2-.9,1.2-1.7,1.9-2.5,1.5-1.6,3-3.2,4.5-4.7,1.2-1.2,2.8-2.1,4-3.4,1.2-1.2,2.9-2.5,4.4-2.6,3.1-.2,5-2.5,7.6-3.6,1.2-.5,2.5-.9,3.8-1.4,2.5-1,4.9-2.1,7.4-3,1.3-.5,2.8-.7,4.1-1.1,2.5-.7,4.9-1.4,7.4-2,3.3-.7,6.6-1.4,9.9-2,4.4-.8,8.7-1.7,13-2.9,2.8-.8,5.7-1.2,8.4-2,4.4-1.3,8.9-1.7,13.3-1.9,4.3-.2,8.6.6,12.9.8,1.1.1.9.8,1.1,1.3,1.4,4.1,2.6,8.3,4,12.4.8,2.3,2.1,4.4,3,6.7,1.6,4.3,3.6,8.4,6.3,12,2.4,3.2,3.7,7.1,6.6,9.9,3.1,3,6.1,6.1,9.2,9.2,6.8,6.9,13.7,13.7,19.7,21.4,2.4,3,5.3,5.5,8.1,8.1,1,.9,2.3,1.6,3.6,2.2.9.4,1.6.9,2,1.8"/>
    <path class="f" d="M173.4,130.9c.8,2.7,1.6,5.4,2.3,8.1.9,3.1,1.5,6.2,3.2,9,3.1,5.2,5.5,10.9,9.2,15.7,4.3,5.7,8.3,11.7,13.7,16.5,1.5,1.3,2.9,2.8,4.1,4.3,2.9,3.5,6.6,6,10.5,8.3,3.4,2,6.8,4.2,10.6,5.4,2.5.8,5,1.8,7.6,2.7"/>
    <path class="f" d="M241.7,324.5c-1.9,1.9-3.7,3.7-5.6,5.6-.9.9-1.9,1.7-2.9,2.5-5.6,4.6-11.4,9.1-16.9,13.9-5.6,4.9-12,8.5-18.1,12.6-3.3,2.2-7.3,3.6-11.1,5.1-2.8,1.1-5.8,1.9-8.6,2.9-5.7,2-11.6,2.6-17.6,2.2-6.5-.5-12.8-2-19.1-4-1.3-.4-2.6-.5-3.9-.7"/>
    <path class="f" d="M193,130.9c2.2.2,4.3.3,6.5.6,2.9.4,5.8.9,8.6,1.2,5,.6,10,.8,14.9,1.7,3.3.6,6.5,2.1,9.7,3.1,2.4.8,4.8,1.5,7.2,2.4,6.7,2.4,13.5,4.6,20.1,7.3,3.3,1.3,6.2,3.6,9.2,5.5,3.7,2.4,7.3,5,11.2,7.1,3.1,1.7,6.4,2.9,9.7,4.4,3.6,1.6,6.3,4.4,9.4,6.6,3.7,2.7,6.3,6.7,10.6,8.7,3,1.4,6,3.1,9.2,4.1,4.6,1.4,8.3,4,11.8,6.9,1.3,1,2.5,2.1,3.1,3.8"/>
    <path class="f" d="M234,143.3c.5,1,1,1.9,1.4,2.9,1.2,2.7,1.4,5.6,1.8,8.4.6,3.9,1.3,7.8,1.9,11.7.5,3,.9,6.1,1.7,9,2.1,7.6,5.4,14.7,9.8,21.3,3.1,4.8,6.1,9.6,9.8,13.9,1.7,1.9,3.5,3.8,5.4,5.4,4.7,4,9.5,8,14.4,11.9,4.1,3.2,8.7,5.5,13.8,6.6.8.2,1.5.9,2.5.7"/>
    <path class="f" d="M47.8,155c.5,2.9,1.2,5.9,1.6,8.8.4,2.4.5,4.9.8,7.4.4,2.9.8,5.9,1.2,8.8.1.5.1,1,.2,1.4.2,2.9.5,5.9.7,8.8.3,4.3.4,8.6.8,12.9.5,5.5.5,11,2,16.4.8,2.7.8,5.6,1.2,8.4.9,7.6,1.6,15.3,4.1,22.7,1.1,3.3,1.6,6.9,2,10.4.5,4.6.7,9.4,1.2,14,.4,3.7,1,7.3,1.4,11,.1,1.1.1,2.2,0,3.2-.2,3,.9,5.6,1.7,8.3.7,2.3,1.8,4.5,1.6,7.2-.2,1.9.4,3.8.6,5.8.2,1.4.3,2.9.4,4.3.2,3.8.5,7.5.7,11.3.1,2.3,0,4.7.2,7,.1,1.3.6,2.5.9,3.8.5,2.3,1.2,4.7,1.4,7,.3,3.1,1.6,5.9,3,8.6.8,1.6.4,3-.1,4.5-.3.9-1.3,1.2-1.9,1-1.2-.3-1.5,0-1.7,1.1-.1.5-.6,1-.9,1.4-.3.5-.8.5-1.1,0-.9-2-1.7-.9-2.5,0-.2.2-.5.4-.4.2-1.1-.9-2.2-1.8-3.2-2.7"/>
    <path class="f" d="M181.3,130.5c.6,1.6,1.1,3.1,1.8,4.7,2.7,5.9,5.4,11.9,8.1,17.8,2.1,4.5,4,9.1,6.4,13.5,2.2,4,4.8,7.7,7.8,11.2,3.6,4.2,7.5,8,11.9,11.3,1.1.8,2.2,1.4,3.4,2,3.6,1.7,7.2,3.4,10.8,5.1"/>
    <path class="f" d="M69.6,380c-.8,1.1-1.6,2.4-2.5,3.4-1.5,1.6-3.7,2-5.6,2.7-3.6,1.4-7.2,2.9-10.6,4.7-2.8,1.4-5.9,2.2-8.8,3.3-3.1,1.2-6.1,2.5-9.2,3.6-4.6,1.7-9.2,3-14,4-4.5,1-8.9,2.6-13.3,3.9-1.2.4-2.3.8-3.4,1.3-1.2.5-1.5,1.7-.5,2.7"/>
    <path class="f" d="M149.6,138.2c-.4,3.4.9,6.4,2.9,9,4.1,5.4,9,9.8,14.7,13.6,8.3,5.5,15.8,12.1,21.5,20.4,2.2,3.2,4.8,6.2,7.2,9.4,4.1,5.4,8.1,11,11.6,16.9.9,1.5,2.4,2.6,3.3,4,.6.9.8,2,1.1,3,.2.9.4,1.3,1.6,1.3,4.9-.1,9.6-.8,14.2-2.4.7-.3,1.6-.3,2.3-.4"/>
    <path class="f" d="M119.4,85.9c-2.2,2.2-4.5,4.4-6.7,6.7-5.8,6.2-10.3,13.2-14.2,20.7-.7,1.4-1.1,3-1.7,4.5-.9,2.4-2,4.8-2.9,7.2-1.4,4-3.1,7.9-4.8,11.7-1.2,2.6-1.8,5.5-2.6,8.2-.1.3.1.6.2.9"/>
    <path class="f" d="M202.3,75.5c-1.2-.4-2.4-.4-3.6-.2-3.8.6-7.6.5-11-1.6-3.2-2-6.6-2.8-10.3-2.9-3.4-.1-6.7-.9-10.1-1-2.6-.1-5.2.4-7.7.7-3.4.3-6.9.5-10.2,1.2-2.7.5-5.4,1.5-7.9,2.7-3.3,1.5-6.4,3.3-9.6,5-.7.4-1.7.6-2.5.5-4.5-.4-8.1,1.7-11.7,3.8-2.6,1.6-5.2,3.4-7.5,5.4-1.7,1.4-3.1,3.3-4.5,5-1.2,1.5-2.4,3-4.2,3.9"/>
    <path class="f" d="M237.4,146.9c.8,1.4,1.5,3.1,2.6,4.3,4.5,5.1,8.9,10.3,13.7,15.1,4.9,5,10.2,9.7,16.3,13.3,5.1,3,10.5,5.7,16.2,7.6.7.2,1.5.2,2.1.4.2.1.2.4.4.7"/>
    <path class="f" d="M206.9,286.9c.8,3.5.2,6.5-2.5,9-3.6,3.5-6.9,7.3-10.7,10.5-4,3.4-8.3,6.4-12.6,9.6-2.4,1.8-4.8,3.6-7.4,5.2-2.7,1.7-5.9,2.3-9,3.3-5.9,1.9-12.38,1.81-18.38,1.71-1.4,0-8.91-.7-11.79-3.12-2.42-1.77-1.24-2.72-2.43-3.49-.36-1.13-.45-2.2-.65-2.1-2.44-1.89-3.65-2.03-4.65-2.93-1.32-.83-3.4-.47-5.1-2.57-.8-1-1.36-1.49-1.66-2.79-.52-1.63-.59-4.21-1.59-5.61-.85-2.18-1.95-3.21-3.55-4.41-.1-.1,0-.5,0-.7"/>
    <path class="f" d="M204.9,288.5c-.4.9-1.2,1.1-2.1,1.3-2.7.5-5.3,1.2-7.9,1.8-1.7.3-3.4.4-5,.8-2.8.6-5.6,1.6-8.5,2.1-4.1.7-7.9,1.2-12.6,1.8-3,.4-6,.9-9,1.3-2.7.4-5.4.7-8.1,1.1-2.6.4-5.3.9-7.9,1.2-3.4.4-6.7.6-10.1.7-2.8.1-5.5.1-8.3.2-2.6.1-5.2.5-7.7.7"/>
    <path class="f" d="M109.5,1.2c3.1-.1,6.1-.2,9.2-.2s6.1.1,9.2.2h12.5c1.3,0,2.5.3,3.8.3,2.4.1,4.8.1,7.2.2,1.6.1,3.2.4,4.9.5,3.6.2,7.2.3,10.8.6,2.6.2,5.2.4,7.7.5,3.4.1,6.7-.1,10.1,0,1.9.1,3.7.5,5.6.7,2.7.3,5.4.6,8.1.9,3.7.4,7.4.6,11.1,1.1,4.2.6,8.5,1.2,12.8,1.2,5.8.1,11.5.6,17.3.4,5.9-.2,11.8.6,17.6.5,3.6-.1,7,.9,10.4,1.2,6.3.7,12.6,1.6,18.9,2.5,1,.1,1.9.1,2.9.2,8.9.3,17.9.3,26.8,1,6.1.5,12.2.6,18.2,2,2.4.6,4.9.3,7.4.4,4,.3,8,.2,11.9,1,3,.6,6.2.1,9,1.6,1.1.6,2.6.4,3.9.6,4.2.8,4.3,2.7,3.9,5.4-.2,1.2.7,2.7-.8,3.6"/>
    <path class="f" d="M339.6,297.3c-.6,1.1-1,2.4-1.8,3.2-2.8,2.9-4.7,6.4-6.9,9.7-3.4,5.3-5.9,11-8.7,16.6-1.2,2.5-1.6,5.3-2.2,8.1-.8,3.1-1.5,6.2-2.1,9.4-.4,2-.5,4-.8,5.9"/>
    <path class="f" d="M162.2,136.8c1.1,3.6,3.5,6.4,5.9,9.2,3.2,3.6,5.9,7.6,8.5,11.7,2.4,3.8,5,7.5,7.5,11.2,3.1,4.6,6.2,9.2,9.4,13.9,1.4,2.1,2.9,4.1,4.3,6.1"/>
    <path class="f" d="M353.1,340.5c-3.3,4.3-2.6,8.9-.7,13.3,1.4,3.2,3.1,6.4,5.2,9.1,3,3.8,6.3,7.3,10.3,10.2,4.8,3.6,9.6,7.5,12.6,12.9,1.7,3.1,2.8,6.6,4.2,9.9"/>
    <path class="f" d="M166.2,252.7c.1.3.2.8.4.9,2.8,1,4.9,3,7.2,4.7,3.5,2.5,7.3,4.6,10.9,6.9,1.6,1,3.4,1.9,5,2.9,4.6,2.9,9.3,5.9,13.1,9.9,2.7,2.8,5.2,5.7,7.9,8.4,3.4,3.3,4.6,7.4,5.2,11.9.4,3.2-.9,6.1-1.5,9.2-.5,2.3-1.3,4.4-1.9,6.7-.1.3.1.6.2.9"/>
    <path class="f" d="M286.2,207c-4.8-2.9-9.5-5.9-14.4-8.6-5.7-3.3-10.5-7.7-15-12.3-5.2-5.4-9.7-11.4-14.5-17.2-.7-.9-1-2.4-2.7-2.2"/>
    <path class="f" d="M223.6,202.3c1.4-.2,2.4.4,3.4,1.2,3,2.7,5.1,6,7.3,9.2,2.7,3.8,5,7.9,7.6,11.8,3,4.4,6.5,8.5,10.5,12,2.9,2.6,6.2,4.9,10.4,5.3.9.1,1.8.9,2.7,1.3"/>
    <path class="f" d="M100.7,2.8c2.1.8,4.1,1.2,6.3.6,1.3-.3,2.8-.1,4.1.1,2.2.3,4.4.9,6.7,1.2,1.6.2,3.1.4,4.7.5l14.4.9c1.4.1,2.9.5,4.3.7,3,.3,6,.6,9,.7,3.6.2,7.3-.1,10.8.5,3.6.6,7.2.6,10.8.8,1.7.1,3.4-.2,5-.1,3.4.2,6.8.6,10.3.9,2,.2,4,.2,5.9.4,1.4.1,2.8.4,4.1.5,2.3.2,4.6.3,6.8.6,4.2.5,8.4,1.2,12.6,1.6,2.1.2,4.3-.4,6.5-.3,3.9.2,7.7.7,11.5,1,1.7.1,3.4,0,5,0,5.2,0,10.4-.1,15.7.7,2.2.3,4.4-.2,6.7-.1,4.5.3,9,.9,13.5,1.2,6,.5,12.1.8,18.2,1.3,1,.1,1.9.4,2.9.5,4.7.5,9.4,1,14,1.5,3.5.4,7.1.7,10.6,1.1,3.6.4,7.2.8,10.8,1.1,4.1.4,8.1.9,12.2.5,2-.2,4,.9,6.1,1.1,3,.4,6.1.4,9.2.8,2.2.3,4.4.8,6.5,1.6,2.2.9,3.6,2.7,4.3,5"/>
    <path class="f" d="M290.7,346.4c2.5,3.7,4.3,7.8,5.1,12.1.9,4.9,1.2,9.8,1.7,14.7.4,3.8-1.1,7.4-2.2,11-1,3.1-2.4,6-3.5,9"/>
    <path class="f" d="M212.8,216.1c.1.7.1,1.4.4,2,2.5,5.8,5.2,11.5,8.6,16.9,1.8,2.9,3.6,5.9,5.4,8.8,2.3,3.8,5.7,6.6,9.2,9.1,2.2,1.6,4.8,2.8,7.4,4,1,.5,2.3.5,3.4.8"/>
    <path class="f" d="M347.2,291.9c-3.6,5.7-6.9,11.5-9.5,17.6-2.7,6.3-4.8,12.9-6.2,19.6-.5,2.5-.5,5.1-.6,7.7,0,.6.3,1.2.5,1.8"/>
    <path class="f" d="M208.5,136.4c1.9,6.1,3.5,12.4,5.9,18.3,2.6,6.5,5,13.1,9.3,18.7,1.5,2,3.3,3.8,4.8,5.8.5.7.9,1.5,1.3,2.3"/>
    <path class="f" d="M363.9,293c.2-.7.8-.5,1.1-.3,4.3,3.3,6.3,7.8,4.2,13.3-1.9,5.1-5,9.5-7.1,14.6-1.1,2.8-2.1,5.7-2.8,8.6-.3,1.1.4,2.5.2,3.8-.3,3.2,1.4,5.6,3,8.1,2.3,3.8,5.4,6.4,9.1,8.6,3.4,2,6.7,4.1,10.1,6.1,4.5,2.5,9,5,13.5,7.4.6.3,1.3,1.3,2.1.4"/>
    <path class="f" d="M203.4,293.8c-1.5.3-2.5.8-3.4,2.3-1,1.5-2.6,2.8-4.1,3.8-2.6,1.8-5.5,3.1-8.1,4.9-4.1,2.9-8.2,4.9-12.8,6.7-5,1.9-10.1,3.8-15.4,4.4-.8.1-1.6.4-2.3.3-4.1-.4-8.2.8-12.4.1-4.7-.7-9.5-.9-14.2-1.3h-1.3"/>
    <path class="f" d="M309.6,283.8c-2.1,3-4.5,5.8-7.2,8.3-1.5,1.3-2.9,2.6-4.3,4-1.9,1.7-3.8,3.4-5.8,5-.6.5-1.2,1-1.8,1.4-4.8,3.3-8,8-11.3,12.6-1.2,1.6-2,3.6-2.9,5.4-.9,1.7-1,3.4.4,5"/>
    <path class="f" d="M215.1,372.9c-2.9,0-5.4,1.4-7.9,2.6-4.9,2.4-9.9,4.1-15.3,4.6-4.9.5-9.8,1.1-14.8,1.6-1.8.2-3.7,0-5.6-.2-4.2-.4-8.5-.6-12.6-1.5-4.5-1-8.9-2.4-13.1-4.6-3.2-1.7-6.4-3.3-9.5-5.2-.4-.2-1.2-.4-1.2-.4-.3.5-.7,1.2-.6,1.8,1.1,4.2,2,8.5,3.4,12.6,1.3,3.8,2.8,7.5,3.3,11.5.3,2.6.5,5.2.8,7.7.1.7.3,1.4.5,2.2"/>
    <path class="f" d="M346.8,359.2c1.3,2.7,2.4,5.4,3.8,8.1,2.8,5.4,6.7,9.9,11.9,13.1,4.8,3,9.1,6.5,13.2,10.2,1.4,1.3,2.2,3.3,3.3,5"/>
    <path class="f" d="M137.2,152.1c.8,1.9,1.6,3.8,2.3,5.8,1.8,5.4,5.1,9.6,9.7,12.8,3.8,2.6,7.8,4.9,11.5,7.6,2.4,1.7,4.8,3.2,7.6,3.6,2,.4,4.1.1,6.1.1,2.9,0,5.8-.3,8.6.8,1.1.4,2,.1,2.9-.4"/>
    <path class="f" d="M296.3,291.2c-3.5,3.2-6.9,6.4-10.5,9.5-1.1,1-2.5,1.8-3.8,2.5-7,3.9-11.3,10-14.2,17.3-.6,1.5-1.3,3.1-1.8,4.7-.1.5-.5,1.5.7,1.6"/>
    <path class="f" d="M117.5,271.3c-.9,2.8-2.1,4.6-3,7.4-1.1,3.4-2,7.7-3.1,11.2-.7,4-.8,7.4.4,11.2,1.3,4.1,3.4,7.5,6.2,10.6"/>
    <path class="f" d="M299.5,257.7c-.2-.9-.3-1.8-.5-2.7-.5-1.9-.8-3.8-1.5-5.6-.2-.6-1.3-.9-1.9-1.5-3.3-2.8-7.2-3.9-11.3-4.5-4.7-.7-9.1-.5-13.4,2.2-3,1.9-5.5,3.9-7.5,6.8"/>
    <path class="f" d="M283.3,288.1c-.2-.1-.6-.2-.7-.2-5.8,3.3-12,6.1-17.2,10.2-6.3,4.9-12.2,10.5-15.7,18.1-1.4,3.1-4.1,5.6-7.3,7.4"/>
    <path class="f" d="M337.5,199.8c2.2,3.8,4.4,7.7,5.2,12.1.3,1.3.5,2.6.7,3.9.2.9.4,1.7,1.4,2.4,1.4,1.1,2.4,2.8,3.3,4.4,2.1,3.8,3.6,7.8,4.8,12,1.3,4.6,2.8,9.1,4.7,13.5.8,1.8,2.6,3.4,4.3,4.6.7.6,2.2.1,3.4.1,3.4-.1,6.7-.5,10.1-.3,3.9.3,7.6,1.5,10.2,4.6.8.9,1,2.2,1.5,3.4.5,1,1,2,1.4,3,.2.5.5,1.2.4,1.7-1,4.9-1.6,10-4.3,14.4-1.7,2.9-3.4,5.7-5,8.6-1.9,3.5-2.5,7.2-1.1,11.2.7,2.1,2,3.4,4,4.3"/>
    <path class="f" d="M95.8,369.2c.5,2.2,1,4.3,1.4,6.5.8,4.4,2.3,8.6,4.3,12.5,1.5,3,2.3,6.2,3.2,9.3,1.2,3.9,2.9,7.2,5.8,9.9"/>
    <path class="f" d="M298.6,269.6c1-3.1,1.9-6.1,2.9-9.2.8-2.8,1.3-5.6.7-8.4-.1-.7-.3-1.5-.7-2.1-3.2-4.8-7.3-8.4-12.9-10.1-.5-.1-1-.1-1.4-.2-5.3-.8-10.5-.9-15.5,1.4-.7.3-1.8.5-2.9-.2-1.5-.9-3.3-1.1-5-1.5-4.6-1.3-8.6-3.7-12.1-7-1.3-1.3-2.7-2.4-4.1-3.6-1.4-1.1-2.4-2.3-3.1-4"/>
    <path class="f" d="M268.5,289.4c-2.8,2.2-5.5,4.5-8.3,6.6-6.4,4.8-11.9,10.4-15.2,17.7-1.6,3.5-2.9,7.3-2.9,11.3,0,1.6.4,3.2.9,4.7,1.1,3.2,2.5,6.2,5.2,8.5.6.5,1.1,1.3,1.6,2"/>
    <path class="f" d="M129.3,209.2c-2-2.5-4.5-3.9-7.7-4.6-3.4-1.3-5.9-1.9-8.8-3-4.2-1.2-8.3-1-12.2.1-3.5,1-6.8,2.9-10.1,4.6-1.4.7-2.5,2-3.8,3-.8.6-.7,1.5-.7,2.3"/>
    <path class="f" d="M259,256.8c-.8.3-1.5.6-2.3.9-.5.2-1.2.4-1.6.2-1-.5-1.6.1-2,.7-2.3,3.7-3.8,7.7-4,12-.1,2.8-.5,5.6-.3,8.5.2,2.8.1,5.8,1.4,8.5,1.2,2.5,2.6,4.8,5.2,6.1.8.4.9.8.9,1.5"/>
    <path class="f" d="M234.6,199.8c.7,1.7,1.4,3.4,2.2,5,1.6,3.1,4.4,5.1,7,7.4,5,4.4,11.2,6.6,17,9.6,2.7,1.4,5.6,2.3,8.4,3.5"/>
    <path class="f" d="M128.6,140.6c0,1,.2,2.1,0,3.1-1.1,4.6-2.2,9.1-4.3,13.3-1.5,3.1-2.8,6.3-4.2,9.5-1.1,2.8-2.4,5.5-4.1,7.9-.7,1-.9,2.2-1.3,3.4"/>
    <path class="f" d="M340,329.6c-1.8,2.6-4.3,4.6-4.9,7.9-1.9,1.5-2.2,3.8-3.3,5.7-.9,1.6-.9,3.1-1,4.7-.3,2.9-.8,5.8-1,8.6-.1,1.2.2,2.5.3,3.8.7,7.2,2.8,13.9,6.5,20.1,1.4,2.3,2.5,4.7,4.9,6.3"/>
    <path class="f" d="M257,349.1c-1.4,3-3.1,5.9-4.3,9s-2.9,6.2-3,9.7c-.1,4.7-.6,9.5,1.1,14,.4,1.1,1.1,2.2,1.6,3.2"/>
    <path class="f" d="M36.6,140.8c3.9.3,7.1,2.1,9.1,5.4,1.2,2,2.2,4.4,2.1,6.6-.2,2.8,1.7,2.1,2.9,2.5,4.5,1.4,9,2.5,13.5,3.8,4.1,1.2,8,2.8,12.1,4.1,1.1.4,2.3.2,3.4.6,1.4.5,2.8,1.2,4.2,1.8.8.3,1.4.4,2.2-.5.8-.9,1.3-2.4,3-2.2"/>
    <path class="f" d="M305.3,293c-.9,4.5-2.5,8.7-5.4,12.2-4.3,5.2-8.9,10-13.2,15.2-2,2.4-3.6,5-5.4,7.5"/>
    <path class="f" d="M198.9,194.4c-.8.1-1.6.4-2.3.3-3.2-.1-6.4-.4-9.5-.3-2.9.1-5.8.6-8.6.8-5.3.5-10.1,2.4-14.8,4.8-3.2,1.7-6.7,2.9-10.1,4.2-1.4.5-2.9.7-4.3,1.1-1.6.5-2.9-.2-4-1.3"/>
    <path class="f" d="M249.7,340.5c-2.8,3.7-5.6,7.4-7,11.9-1.5,4.9-3.3,9.8-4.6,14.8-1.2,4.7-1.8,9.6-.5,14.4.8,3,1.9,5.9,5.2,7.2.2.1.5-.1.7-.2"/>
    <path class="f" d="M314.1,245.8v6.8c0,.3.5.7.9.9,1.5.7,3.2,1.2,4.6,2,4.3,2.4,9.1,3.2,13.7,4.6,1,.3,1,.4.8,1.5-1.6,7.7-6.2,13.4-11.7,18.5-1.6,1.5-3,3.2-4.3,5s-2.6,3.4-4.5,4.5c-1.4.9-2.2,2.2-2.3,3.8-.1,3.6-2,6.3-3.8,9.2-.6.9-1,1.9-1.5,2.9"/>
    <path class="f" d="M281.9,340.1c1.2,2.9,2.2,5.9,3.6,8.6,2.5,4.7,3.8,9.8,4.7,15,.5,2.6.9,5.2.7,7.9-.1,1.9.3,3.7.3,5.6.1,4.2-1.5,8-2.9,11.9-.4,1-.8,2-1.2,3.1"/>
    <path class="f" d="M103.2,150.7c.5,1.8-.4,3.3-1,4.8-1.8,4.7-4,9.3-5.8,14.1-.8,2-1.1,4.2-1.7,6.3-.6,1.9-1,3.9-1.8,5.8-2.3,5.3-1.9,10.8-1.6,16.4.1,2.2.1,4.3.2,6.5,0,.6.1,1.2.2,1.8"/>
    <path class="f" d="M275.8,347.1c-.1,2.7.9,5.3,1.8,7.7,2.4,6.1,4.2,12.5,5.7,18.9,1.2,4.9.7,9.9.1,14.9-.3,2.2,0,4.4,0,6.6"/>
    <path class="f" d="M297.3,355.2c.1-.1.3-.2.4-.2.3.5.5.9.7,1.4,1.9,5,3.4,10.2,3.3,15.6-.1,3.2-1.1,6.3-1.9,9.4-.4,1.7-1,3.4-1.6,5-.2.5,0,1.3-.9,1.3"/>
    <path class="f" d="M239.9,387c-2.2,2.6-3.7,5.6-4.3,9-.4,2.1-1.1,4.2-1.2,6.3-.2,4.5,1.8,8.4,3.9,12.2.5,1,1.2,1.9,1.8,2.9"/>
    <path class="f" d="M364.8,253c.2.4.3.9.5,1.1,2.9,1.8,4.9,4.3,6,7.4.7,1.9.9,4,1.1,6.1.4,4-.6,7.9-1.5,11.7-.8,2.9-1.2,6-1.6,9-.2,1.1.1,2.2,1.2,2.9.5.4.8,1.2,1.1,1.8"/>
    <path class="f" d="M322.7,282.3c-.3,1.9-.6,3.7-.9,5.6-.5,2.5-2.1,4.5-3.7,6.2-3.4,3.9-6.9,7.8-11,10.9-3.8,2.9-6.3,6.6-9,10.2-2.3,3-4.3,6.3-5.9,9.8-1.6,3.6-2.4,7.2-3.2,11-.1.5-.3,1-.3,1.4,0,.9-.3,2,1.1,2.3"/>
    <path class="f" d="M388.6,263.5c.2-.5.5-1,.5-1.4-.3-4.2-2-8.1-5.6-10.1-2.5-1.4-5.6-2.2-8.7-1.9-.9.1-1.8,0-2.7-.1-1.6-.2-3.4.2-5,.3"/>
    <path class="f" d="M322.9,229.3c0,2.2,1.6,3.1,3.1,4.1,3.5,2.3,6.1,5.3,8.5,8.6,4,5.6,6,12.1,8,18.5.9,2.8,2.5,5.4,3.7,8.1,2.1,4.8,5.9,8.3,9.5,11.9,2.1,2.1,4.3,4.1,6.5,6.1.5.4,1.2.6,1.8.9"/>
    <path class="f" d="M98,154.8c.5,1.6-.7,2.6-1.1,4-.8,2.7-1.5,5.4-2.2,8.1-1,4.1-2.1,8.1-3.1,12.2-.3,1.3-.5,2.7.2,3.9"/>
    <path class="f" d="M318.2,326.8c-.6.8-1.5,1.6-1.8,2.5-1.2,4.5-3.6,8.5-5.8,12.6-1.7,3.3-3.2,6.7-4,10.4-.5,1.9.3,3.2,1,4.7"/>
    <path class="f" d="M297,262.7c.7,1.7-.6,2.9-1.5,3.5-1.9,1.2-3.2,3-4.8,4.4-3.1,2.7-6.2,5.4-9.4,8.1-2.9,2.5-5.9,5-8.8,7.5-1.2,1-2.4,1.9-3.6,2.9"/>
    <path class="f" d="M119.9,350c-2.8,3.2-5.6,6.5-8.5,9.7-2.2,2.4-5,4.1-7.9,5.6-4.1,2-8.2,3.8-12.2,5.8-4.7,2.2-9.4,4.5-14,6.9-2.3,1.1-4.4,2.5-6.7,3.7-.7.4-1.5.4-2.3.6"/>
    <path class="f" d="M197.1,191.8c-4.4-1.4-8.7-3.1-13.5-2-1.5.3-3.1.1-4.7.1h-7.2c-3.6,0-7,1-10.2,2.5-3.7,1.8-7.4,3.6-11,5.6-2.3,1.3-3.6,3.5-4.7,5.9"/>
    <path class="f" d="M286.5,207.7c.2,2,.4,4.1.7,6.1.6,3.6,1.3,7.1,2.9,10.4,1.4,3,2.8,6.1,4.1,9.2.1.2,0,.5,0,.7"/>
    <path class="f" d="M243.7,218.5c-.2,1.1.7,1.5,1.3,1.9,3.2,2.6,6.4,5.1,9.7,7.6,3.7,2.7,7.8,4.6,12.4,5.1.6.1,1.2.3,1.8.5"/>
    <path class="f" d="M65.2,385.1c-.1.4-.1.9-.4,1.2-2.5,3-4.3,6.6-5.6,10.1-1.5,4-2,8.5-1.5,12.9,0,.4.5.8.7,1.3"/>
    <path class="f" d="M284,294.2c-1.9,1.2-3.8,2.3-5.6,3.6-6.3,4.8-10.9,11.2-14.8,18-.8,1.4.1,2.7,2,3.1"/>
    <path class="f" d="M348.1,348.4c-.2,2.3-.7,4.6-.7,6.8,0,2.4-1.7,4.1-2,6.3-.2,1.6-.2,3.2-.2,4.9,0,1.1-.2,2.2,0,3.2.5,2.1.9,4.2,1.8,6.1,2.2,5,4.7,9.8,8.2,14.1,1.1,1.3,2.4,2.1,3.8,2.8"/>
    <path class="f" d="M300.6,220.3c.6,4.4,2.4,8.3,4.5,12.1,1.3,2.3,2.4,4.8,3.8,7,2.4,3.9,6.2,6.5,9.4,9.7.3.3.8.4.7.9-.3,1.5-.6,3-.9,4.5"/>
    <path class="f" d="M348.6,308.4c-4.6,4.9-7.8,10.6-9.7,17.1-.5,1.6-1.1,3.2-1.6,4.9-.2.8-.7,1.6,0,2.3"/>
    <path class="f" d="M266.9,249.2c1.1,2.8,2.3,5.6,3.4,8.5,1.6,4.3,4,8,6.9,11.5.9,1.1,1.8,2.3,2.7,3.4"/>
    <path class="f" d="M171.2,268c-.3-.2-.7-.7-.9-.7-2.4.8-4.8-.2-7.2,0-3.1.3-6.1,1-9,2.3-.9.4-2.1.5-2.8,1.1-.9.9-1.5,2.1-2.2,3.2"/>
    <path class="f" d="M196,213.5c-2.1,1.5-4.7,3-6.9,4.9-1.7,1.1-3.5,1.9-6.8,3.3-4,1.1-7.5,1.6-11.4,1.6-2.3,0-4.7-.1-7-.2-1.3,0-4.3-.4-5.8.2"/>
    <path class="f" d="M272.1,276c-2.2-3.1-4.7-6-6.6-9.2-1.9-3.3-3.1-7-4.6-10.6-.1-.3-.2-.7-.4-.9-.2-.2-.6-.4-.9-.6-.2.4-1,.3-.6,1.1.5,1.1.9,2.4,1.1,3.6,1.3,7,5.2,12.7,9.7,18,.4.5.8,1.1,1.3,1.6"/>
    <path class="f" d="M300.9,310.9c-.4.1-1,.1-1.2.4-2.7,2.8-5.5,5.6-8.1,8.5-1.6,1.8-3.1,3.6-4.5,5.6-1.1,1.5-1.9,3.1-2.9,4.7-.4.6-.2,1.1.4,1.4"/>
    <path class="f" d="M295.5,235.4c1,2.6,2.4,5,4.5,6.8,3.7,3.2,7.5,6.2,11.3,9.2.7.6,1.7.8,2.5,1.1"/>
    <path class="f" d="M107,223.7c2.9,1.2,5.7,2.5,8.7,3.6,1.2.5,2.6.6,3.9.9,1.5.3,2.8.7,3.8,2,.3.4,1.1.4,1.6.8.4.3,1.05,1.48,1.05,1.48-.2.6-.55.62-1.45.72-2.4.3-3.98.45-6.7.82-2.54.24-6.31.28-8.11.88-3.56.65-7.28,1.14-12.18,1.36"/>
    <path class="f" d="M137.6,141.1c-.2.5-.7,1.3-.5,1.6,1.5,2,.2,4.1.2,6.2.1,3.2-1.5,6.1-2.3,9.2-1,3.9-1.9,7.9-2.9,11.9-.2.9-.3,1.9-1.6,2.3-.5.2-.7,1.6-.9,2.4-1.2,4.6-2.3,9.3-5.1,13.3-.1.1-.2.2-.4.4"/>
    <path class="f" d="M44.4,113.4c-3.5-2.2-6.3-.9-7.2,3.2-.3,1.5-.5,3-1.6,4.2-.3.3-.3.8-.4,1.2-.1,2.1.5,4.1,1.6,5.9.8,1.3,3.5,1.7,4.8.9.4-.2,1-.3,1.4-.2,1.4.3,2.7.5,3.6-.9.1-.1.4-.2.5-.2,2.5.5,3.4-1.4,4.3-3.1"/>
    <path class="f" d="M359.2,335.6c-1.8-1.4-1.9-3.6-2.5-5.6-.9-3.4-1.4-7-2.3-10.4-.3-1.2-1.1-2.2-1.8-3.2"/>
    <path class="f" d="M214.8,164.1c2.1,3.3,4,6.8,6.4,9.9,2,2.6,4.4,5.2,7,7.1,1.7,1.2,3.5,2.4,4.9,3.9.6.7,1.3,1.4,1.8,2.2,1.1,1.6,1.7,1.8,2.7.7"/>
    <path class="f" d="M247.7,218.8c2.2,1.7,4.5,3.4,6.6,5.2,3,2.7,6.6,3.6,10.3,4.6,1,.3,1.9.6,2.9.9"/>
    <path class="f" d="M84.9,215.7c.9-.7,1.8-1.3,2.7-2,2.1-1.5,4.3-2.6,6.8-3.3,2.4-.7,4.7-2.1,7.2-2.6,3.2-.6,6.5-.5,9.7.1,1.7.3,3.5.1,5.2.4,3.4.6,4.5.5,8.3,1.8.5.3,1.2.1,3-.2.6-.1.9-.6,1.5-.7"/>
    <path class="f" d="M301.5,255.9c-.8.7-1.6,1.4-2.3,2.2-.4.4-.8.9-.9,1.4-.2,1.6-.9,2.7-2.5,3.5-3,1.5-5.8,3.4-8.7,5.2-2.6,1.6-5,3.6-7.8,5-5.7,2.9-8.9,7.6-10.9,13.4-.3.8-.7,1.7,0,2.5"/>
    <path class="f" d="M334.4,242.8c-.1.8-.3,1.7-.1,2.5,1,5.2,2.5,10.3,5,14.9.1.2.1.5.2.7"/>
    <path class="f" d="M295.5,143.6c1.4,4.2,2.1,8.5,2.3,12.9.2,3.9.2,7.8,1.6,11.5.2.6-.1,1.4-.1,2.1"/>
    <path class="f" d="M113.5,225.2c-1.1.2-3.25-1.6-4.25-1.5-1.5.1-2.25,0-5.08-.9-.2-.2-.94-.56-1.24-.56-3.2.1-5.63-.54-8.33,1.26-1.8,1.2-4,2.2-4,5,0,.4-.6.8-.8,1.3-.3.5-.6,1.1-.7,1.6-.2,2.3-1.5,3.7-3.8,4-.5.1-1,.2-1.4.4"/>
    <path class="f" d="M273.4,248.5c1.9,6,4.2,11.9,8.5,16.7"/>
    <path class="f" d="M318,226.8c-.4,1.3-.7,2.6-1.1,4-.9,3.3-1.8,6.6-2.7,9.9-.3,1.2-.4,2.5-.6,3.8"/>
    <path class="f" d="M87.4,134.6c-1.8,3.4-2.7,7.2-3.4,11-.5,2.7-.7,5.4-.7,8.1,0,3,.6,6,.6,9,0,1.4-.5,2.9-.8,4.3"/>
    <path class="f" d="M186.4,207.4c-2.2-1.1-4.9-1.2-6.8-1.4-1.9-.2-3.9-.1-5.7.2-3.3.5-6.4,1.6-8.9,3.9-1.6,1.4-3.1,2.8-4.8,4.1-.8.6-.5,1.3-.5,2"/>
    <path class="f" d="M249.8,346.2c-1.8,3.1-2.5,6.6-3.4,10.1-1.7,6.4-2.5,13-2.1,19.6.2,3,.5,6.1,2.3,8.8"/>
    <path class="f" d="M278.6,248c1,2.4,2,4.8,2.9,7.2.9,2.6,2.5,4.8,3.8,7.2"/>
    <path class="f" d="M239.6,240.4c.3.4.5.9.9,1.2,2.4,2,4.2,4.4,5.8,7,.4.7,1,1.3,1.4,2,.7,1.1,2.2,1.8,1.7,3.6-.1.6.8,1.4,1.2,2.1.7,1.4.5,1.5-1.1,1.7-.8.1-1.7-1.3-2.3.1-.3.7-.4,1.5-.6,2.3-.2,1-1.2,1.9,0,2.9"/>
    <path class="f" d="M227.5,209.8c-.7.2-1.4.2-2,.6-2.7,1.7-5.9,2.1-8.8,3.2-1.1.4-2.4.6-3.1,1.8"/>
    <path class="f" d="M155.4,225.9c1.2,4.7-1.9,8.4-3.3,12.4-.1.1-.6.1-.9.2"/>
    <path class="f" d="M269.3,241.3c-.5.4-.9.8-1.5,1.1-4.5,2.2-8.8,4.8-12,8.7-.6.7-1.1,1.6-1.6,2.3"/>
    <path class="f" d="M297.3,273.5c-2.1,2.2-4.2,4.3-6.3,6.5-1.2,1.3-2.3,2.7-3.4,4.1-.4.6-.6,1.3-.9,2"/>
    <path class="f" d="M177.7,209.3c-.7-.1-1.4-.3-2-.1-3.1,1.1-4.35-.83-9.35,2.57-2.4,1.8-2.94,2.45-4.74,3.85-1.8,1.26-2.51,4.37-2.51,6.18-.24.71-1.2,1.61-2.3,1.91"/>
    <path class="f" d="M43.5,129.1c-1,3.8-2,7.6-3.1,11.3-.1.4-.2.7-.4,1.1"/>
    <path class="f" d="M87.8,230.06c1.53-.19,2.15-1.6,2.87-2.73.54-.75.9-1.22,1.79-1.6,2.15-.75,2.33-1.88,6.37-2.64,1.08-.38,3.59-.57,4.4.66,1.44,2.26,1.97,5.56,1.35,7.82.09,1.22-.18,1.88-.63,3.02-.18.47-.81.75-2.78,1.32-1.53.09-1.44.57-4.22.09-1.08,0-1.88-.47-2.69-1.51-1.71-2.36-1.97-5.75-.9-8.57,0,0,.63-1.6.54-2.07"/>
    <path class="f" d="M118.1,216c4.4,1.9,7.2,5.6,10.1,9.2"/>
    <path class="f" d="M124.3,259.9c-1,3.4-2.1,6.7-3.1,10.1-.5,1.6.6,4,2.2,4.5,1,.3,2.2.3,3.2.4"/>
    <path class="f" d="M200.2,296.2c-1.9.2-3.9,0-5.2,1.8-1.3,1.6-3.2,1.8-5,1.7-1.5,0-2.5,0-3.3,1.5-.6,1.2-4.6,2.2-6.1,1.8"/>
    <path class="f" d="M175.16,209.93c.2.02.39.14.5.06,1.38-.65,1.49-.74,2.22.86.88,2.01,1.73,4.22,1.89,6.35.14,1.42-.85,3.02-1.32,4.48-.17.58-.49.4-.75.97"/>
    <path class="f" d="M298.2,281.1c-4,2-7.8,4.2-12,5.5-1.2.4-2.4.9-3,2.4-.4.9-1.6,1.4-2.4,2.2-2,2-4.1,3.9-5.4,6.5"/>
    <path class="f" d="M264.6,250c-.9-.9-1.7-.2-2.3.2-2.4,1.7-5.1,3.2-6.9,5.7-.4.5-.5,1.2-.7,1.8"/>
    <path class="f" d="M39.2,129.4c-.7,2.3-1.3,4.7-2,7-.4,1.4-.6,2.9-.9,4.3"/>
    <path class="f" d="M334.9,338.3c-.1,1-.1,1.9-.2,2.9-.2,2.1-.3,4.2-.5,6.3-.4,3.1-.8,6.1-1.2,9.2,0,.4.1.7.2,1.1"/>
    <path class="f" d="M259.2,246.7c-2.5-.8-3.9,1.2-5.6,2.4-1.4,1.1-2.7,2.5-4,3.7"/>
    <path class="f" d="M172.08,257.44c.34,1.76,2.23,2.75,1.97,5.87,0,2.2-2.15,4.5-3.95,5.2"/>
    <path class="f" d="M320,238.4c-.2,3.1-.5,6.2-.7,9.4,0,.4-.3.8-.5,1.3"/>
    <path class="f" d="M129.1,276.8c1.9,1.4,4.1,1.7,6.3,2,4,.6,7.8-.2,11.5-1.7.5-.2,1-.7,1.4-1.1"/>
    <path class="f" d="M225.4,217.4c-3.2.1-6.5.2-9.7.4"/>
    <path class="f" d="M122.1,224.2c2.5,1,5,2,7.5,3.1.2.1.2.6.4.9"/>
    <path class="f" d="M292.3,251.2c.6,3.3,2.6,5.9,4.1,8.8"/>
    <path class="f" d="M193.4,210.4c0,1.4,1.2,1.5,2.1,2,2.6,1.4,5.1,2.9,8.1,3.5,1.8.4,3.1-.5,4.7-.6,1.1-.1,2.3-.2,3.4-.3"/>
    <path class="f" d="M113.5,243.8c-.5,0-1.2-.2-1.6,0-2.4,1.3-5,1.4-7.6,1.4-3.5.1-8-2.1-11.3-3.5"/>
    <path class="f" d="M284.9,252.1c.9,1.9,1.8,3.7,2.7,5.6.5,1,1,1.9,2.1,2.2"/>
    <path class="f" d="M257.8,332.2c-1.9,1.7-3.9,3.3-5.7,5-.6.6-1.1,1.3-1.6,2"/>
    <path class="f" d="M128.9,234.9c-.7.2-.7.7-.7,1.3-.1,1.8-1.2,3.1-2.1,4.5-.4.6-.8,1.3-1.3,2"/>
    <path class="f" d="M171.96,209.11c3.2-2.08,9.84-.41,11.64-.41,1.2-.1,2.3.2,3.5-.5.6-.4,1.7-.1,2.5.1,1.2.4,2.4,1,3.6,1.6.1.1.3.4.4.3,2.3-1,3.7,1.1,5.6,1.7,2.4.8,4.6,2.1,6.9,3.2"/>
    <path class="f" d="M51.9,111.8c-1-.4-2-.8-3.1-1.1-2.1-.4-3.2,1.4-4.7,2.3"/>
    <path class="f" d="M389.8,272.3c.1-.1.4-.1.3-.2-.1-2.2.3-4.5-1.2-6.5"/>
    <path class="f" d="M336.6,197.6c.2,0,.6-.1.7,0,.4.4.6.9.9,1.4,0,.1-.5.5-.5.5-.5-.4-1.2-.8-1.2-1.2-.1-1.3-1.8-1.9-1.4-3.4,0-.1-.5-.5-.5-.5-1.5,1.1-2.2-.5-3.1-1.1-1-.7-1.8-1.6-2.7-2.3-.7-.5-1.5-.9-2.3-1.3"/>
    <path class="f" d="M314.8,253.7c0,2.1,1,3.9,2,5.7.1.1.7,0,1,0"/>
    <path class="f" d="M183.6,208.7c2,.6,7.2,3.5,9.6,2.3"/>
    <path class="f" d="M86.66,236.25c6.34-1.1,7.18.3,9.88-.05"/>
    <path class="f" d="M337.8,338.6c-.8,1.9-1.7,3.7-2.5,5.6"/>
    <path class="f" d="M243.2,380.4l-3.2,5.4"/>
    <path class="f" d="M164.17,213.61l-.33,2.88c-.24,2.09.14,4.04,1.67,5.63.28.23.32.74.47,1.16"/>
    <path class="f" d="M91,207.3c-.1.8-.1,1.7-.2,2.5v2.7"/>
    <path class="f" d="M53.9,357c.6-1,1.1-.9,1.8,0,1.6,2,2.3,2.2,3.8,1.1"/>
    <path class="f" d="M208.8,209.8c-.4.8-.1,1.5.3,2.2.5.9.9,1.9,1.3,2.8"/>
    <path class="f" d="M342.3,261.1c-2.6.5-5.2.2-7.7-.4"/>
    <path class="f" d="M247.9,319.4c-.1.6-.1,1.2-.2,1.8,0,.9-.3,1.9.5,2.7"/>
    <path class="f" d="M63.5,357c-.5.9-1.1,1.8-1.6,2.7,0,.1-.5,0-.7-.2-.6-.6-1.1-1.2-1.6-1.8"/>
    <path class="f" d="M346.6,259.1c0,.8,0,1.4-1.1,1.5-.9.1-1.7.6-2.5.9"/>
    <path class="f" d="M338.7,213.3c1.5.8,3,1.7,4.5,2.5"/>
    <path class="f" d="M120.5,244c-.2-.4-.2-1.1-.9-.9-1.5.6-2.9,1.3-4.3,2"/>
    <path class="f" d="M287.4,202.5c-.4,1.1-.7,2.3-1.1,3.4-.5,1.3.2,1.6,1.3,1.8"/>
    <path class="f" d="M334.8,256.6c-.1,1.3-.2,2.5-.4,3.8"/>
    <path class="f" d="M250.2,340.3c1.5,1.6,3.4,1.5,5.4,1.3"/>
    <path class="f" d="M136.1,138.8c.1,1.1-.4,2.4.7,3.2"/>
    <path class="f" d="M249.4,254.6c-1.4.5-1.3,1.8-1.7,2.9"/>
    <path class="f" d="M319.1,249.8c1,.7,2,1.4,3.1,2.2"/>
    <path class="f" d="M102.93,222.24c4.4.56,10.97,2.66,13.07,3.86.4.2,4.68,2.5,5.08,2.9"/>
    <path class="f" d="M318.8,255.5c-.9,1.4.8,1.8,1.1,2.7"/>
    <path class="f" d="M209.5,287.6c-1.5.2-3,.5-4.5.7"/>
    <path class="f" d="M131.3,172.2c.1,1.3.1,2.5.2,3.8"/>
    <path class="f" d="M44.7,126.9c-1.1.1-1,1.2-1.4,1.8"/>
    <path class="f" d="M136.7,143.3c-.1.7-.1,1.4-.2,2.2"/>
    <path class="f" d="M247.7,368.1c-.2.1-.5.1-.7.2.1.3.2.6.4.9"/>
    <path class="f" d="M167.8,149.8c.4.2.7.5,1.1.7"/>
    <path class="f" d="M34.2,141.1c-9.7,4.2-6.3,20.9-6.5,29.1-.3,14.2,1.3,29.1,2.5,43.6,1.3,15.3,4.8,30.7,6.2,46,1.6,18.2,3.7,36.1,5.7,54.2.9,8.5,1.8,17.5,2.2,25.9.3,5.5-2.7,14.9,1.7,19,.6-.7,1.7-1.3,2.3-2.1.5.5,1.1,1,1.6,1.4.5-2,1.4-.9,2.4-1.6"/>
    <path class="f" d="M157.9,224.2c.1.6,1.46,2.1,2.36,3.3,1.7,2.3,4.81,4.2,7.71,4.32,5.5-.1,8.74-1.73,11.43-3.23,3.62-2.8,5.59-4.38,5.59-4.38"/>
    <path class="f" d="M207.3,286.1c-.9-.3-7,.9-9.9,1.4s-26.7,2.4-29,2.8c-2.3.3-8.2.9-9.6.8-1.4,0-2,1.2-5.3,1.8-3.3.6-6.4,1.3-8.1,1.3s-8.6.4-11,0-8.1.1-12.2.9-6.2,2.3-6.7,2.5-.8,2-.8,2"/>
  </g>
  <g id="b" data-name="eyes">
    <path class="f" d="M93.55,236.2c-.66-1.32-1.37-2.33-1.36-3.84.02-1.73,0-3.47,0-5.2"/>
    <path class="f" d="M100.75,224.84c-.42.03-.57.27-.89.54-.36.3-1.02.56-1.3.84-.47.45-.51,1.03-.75,1.69-.29-.61.78-1.57,1.05-2.18.29-.65.44-1.39.66-2.06-1.12.52-2.54,2.05-3.05,3.26.59-.79,1.33-2.78,1.39-3.8-.8.13-1.86,4.66-2.09,5.35-.85-.66.48-2.96-.98-3.15-.16.74-.13,1.32-.49,2.01.08-.36,0-.64-.28-.73-.28.54-.76,1.55-.45,2.16.42.03.68-.33.74-.76.13.55,1.03,2.16.46,2.53-.49-.39-1.09-.37-1.5-.87.34-.52,1.3-.72,1.71-.3-.28.99-.71,1.94-1.24,2.8.33-.06.9-.53,1.33-.23-.06.49-.69.93-1.02,1.28.79-.58,1.8-.68,2.53-1.32-.37.73-1.32,1.16-1.43,2,.53-.17.93-.57,1.46-.69-.52.93-1.48,1.72-2.21,2.48,1.16-.87,2.15-2.32,3.38-3.01-.55.72-1.54,1.64-1.74,2.54.86.78,1.18-.96,1.8-1.15.28.91.14,2.22.79,2.94.8-.79.49-2.07.3-2.96-.13-.62-.17-2.48-.93-2.59-.29.56,1,2.87,1.45,2.99.3-.73-.03-1.74-.37-2.39.02.76.44,1.01.87,1.46.2.21.55.71.78.88s.67.27.9.4c.36.21.59.59,1.06.52.53-1.49-1.73-3.52-2.73-4.21.59,1.16,2.38,2.16,3.55,2.46.12-1.65-1.86-1.6-2.24-2.59.64-.82,1.04-.87,2.01-.94-.24.65-1.52,1.18-2.09,1.45,1.4-.39,1.22-.8,2.54-1.43-.29-1.14-.3-1.03-1.01-1.72-.6-.58-.3-1.56.31-2.25-1.21.43-2.28,1.21-3.36,1.93.86-.08,2.3-2.05,2.97-2.71-.49-.17-1.96,1.52-2.44,1.89-.71.55-1.81,1.73-2.68,1.82.86-.73,1.66-2.41,2.3-3.41.21-.34.35-.82.47-1.16-1.02.21-.84,3.5-.82,4.41,1.24.71,2.47.84,3.86.68.43-.05.41-.15.19-1.1-.73-.08.8-.94.43-1.58-.32-.54-.25-1.38-.63-1.81-1.21.49-1.08,2.27-2.09,2.87-.33-1.26.19-2.67-.15-3.91-.86.19-1.48,2.02-1.82,2.73.39-.7,1.04-1.98,1.87-2.03.23.83-.15,1.22-.28,1.91-.09.51.03,1.03-.05,1.51-.16.9-.64,1.12-1.36,1.59-.58.38-3.1,1.02-3.16,1.57.06-.72.07-1.42.36-2.1.17-.41.69-.53.49-1.05-.43.67-1,1.15-1.51,1.73-.25.28-.54.86-.86,1.05-.6.37-1.47.13-1.14-.71.28-.71,1.14-.53,1.69-.54.75,0,1.43-.52,2.13-.47-.64.33-1.3.84-2,1.01-.35-.96,2.46-2.64,3.11-3.17,1.51-1.22,2.92-2.58,4.42-3.82-.35,1.58-2.75,2.97-3.94,3.73-.59.38-4.11,1.58-4.29,2.56-.16.87.72.53,1.2.57.93.09,1.81.65,2.72.89-.7.52-1.29,1.32-1.89,1.97,1.35.16,2.39-3.75,2.41-4.59"/>
    <path class="f" d="M177.71,219.53c-.85,0-1.04.29-1.76-.05-.35-.16-.68-.59-1.03-.73-.5-.2-1.19-.03-1.65-.3-.16-.09-.97-1.03-.97-1.19,0-.63,1.87-.86,2.44-.92,1.06-.1,2.3.25,3.38.4-1.86-.51-5.93-1.7-7.9-2.41.93-1.59,4.88-1.75,6.38-2.65-2.53-.34-5.09,2.22-7.44,2.57-.03-.4.15-.71.54-.87-.04-1.13-1.62-.94-2.38-.57.5-.11,1.42-.49,1.19-1.09-1.33-.33-2.94.27-4.22.62.59-.35,1.49.12,1.83.63-.46.18-.98.5-.84,1.02,1.35.75,3.59.52,5.12.84-1.97-.65-3.36-1.36-5.4-1.6,1.33-.23,2.54-.09,3.87.14-1.67-.26-4.03-.17-5.4-1.24,1.12.42,5.73.91,5.76,2.09-.49.45-1.68,1.31-2.41,1.31-.81,0-1.09-.71-2.01-.74,1.46.73,3.14.89,4.58,1.61-.28.5-1.98.31-2.51.37-.39.04-.45.38-.9.23-.51-.17-.26-.81-.97-.9-.12,1.13,1.95,1.07,2.76,1.12-1.03.39-2.03.84-3.05,1.26.83.1,2.13-.13,2.7-.72-.32.49-1.01.63-1.48.97.3.73,1.87.05,2.34-.26-.72-.15-2.71,1.15-3.34,1.68,1.87-.38,3.73-.64,5.63-.91-1.2.86-2.9,1.31-3.93,2.37,2.01-.48,3.95-1.12,5.94-1.67.6-.17,2.32-.91,2.89-.72-.97.66-2.07,1.35-3.26,1.64-.71.17-1.6-.13-2.11.43,1.53-.65,3.62-.66,4.82-1.84-.44.28-.79.79-1.16,1.11s-.67.81-1.05,1.09c1.73.3,3.79.12,5.2-.89-.53.79-.92.6-1.87.62-.71.01-2.04.93-2.61.72-.23-.69.56-1.35,1.11-1.69-.3.31-1.3,2.31-.04,2.23.84-.06.55-1.33,1.26-1.64-.12.32-.17.69-.09,1.02.78.02,2.11-1.69.63-1.84-.66-.07-1.14.56-1.58.84-.53.34-1.02.54-1.63.76.47-.4,1.01-.91,1.25-1.47-1.85.54-3.61,1.43-5.36,2.19.25-1.08,3.06-1.64,2.97-2.99-.86-.19-1.27.79-2.25.47"/>
    <path class="f" d="M176.76,211.78c-.06,1.32-1.76,1.54-2.27,2.55,1.39-.47,2.73-1.02,4.02-1.74-1.46.73-3.59,1.35-4.76,2.42.77-1.09,2.45-2.4,3.88-1.77-.13.57-1.62.71-1.73,1.61.64.23,1.81.2,2.45-.01-.58-.62-2.74.08-2.94-.7,1.1-.34,2.62-.12,3.75-.08-1.54-.2-3.08-.47-4.64-.5-.9-.02-1.89.21-2.76-.01-.23-1.34,2.8-2.91,2.19-4.03-1.99.05-3.48,1.87-4.95,2.99.28-.92,3.07-1.72,3.97-1.67-.7.71-1.09,1.64-1.93,2.22.21-.15.5-.25.73-.38"/>
    <path class="f" d="M172.69,219.92c-.17-.87-1.82-1.18-2.25-2.15.74-.45,1.74-.64,2.6-.58-.43,0-1.36.21-1.74.04-.56-.24-.24-.8-.8-.91-.24,1.52,2.13,2.68,2.99,3.53-1.55.45-2.19-.33-2.16-1.75"/>
    <path class="f" d="M125.65,208.61c-1.5-.21-3.01-1.14-4.53-1.49-1.84-.42-4.16.22-5.87-.57.36.5,2,.39,2.58.5,1.73.32,4.67,1.66,6.38,1.04-.69-1.14-2.35-.85-3.46-1.29-.84-.34-1.09-.83-1.49-1.68-.13,2.78,6.88,2.91,8.35,3-.87-.85-2.83-.77-3.95-.99-.87-.18-1.65-.41-2.48-.65-1.56-.46-3.45-.87-4.83-1.74-.86-.55-.58-.79-1.21-1.47-.29-.32-1.24-.82-1.65-.48-.61.5.29,1.6.39,2,.15.57.81.86-.36,1.19-.7-.17-1.38-.38-2.06-.63-1.27-.38-2.55-.67-3.86-.86.62-.02,1.69.7,2.12.45-.68-.86-2.94-1.19-3.74-1.33s-3.39-.81-4.05-.44c1.66-.15,4.85,1.99,6.19.61,1.42-1.46-2.23-1.41-2.41-.72.73.36,1.65.37,2.2,1.04-2.29,1.22-5.28,1.04-7.81,1.25-.34.03-2.04-.14-1.76.71,1.86.68,3.61-1.12,5.44-1.09-1.68,1.2-4.62.25-6.1,1.86,2.97-.15,6.22.37,8.92-.6.45-.16.59-.27,1.37-.33.52-.04,1.27.27,1.33-.37-2.27.36-5.3.97-7.64.3-.02-.26-.06-.52-.11-.77-.62.14-1.33.94-1.84,1.33-.63.48-2.14,2.18-3.03,1.75.19-.76,1.4-1.38,1.95-1.84-1.55-1.4-5.79.37-7.44.7-1.37.28-2.13.09-2.48,1.47.48-.3,1.12-.77,1.61-.99,1.1-.49,2.43-.34,3.51-1.16-1.32,1.53-2.31,3.34-4,4.52-.42.29-.89.48-1.27.75-.62-.59-2.13.2-2.53-.42.86-.86,2.03-1.5,2.83-2.4-.33.22-.62.49-.86.82,1.3.96,4.19-.65,5.5-1.14,1.04-.39,2.36-.67,3.11-1.56-1.16-.44-2.3.2-3.4.45,1.48-.91,3.38-1,5.03-1.38.6-.14,1.51-.21,1.61-.95"/>
    <path class="f" d="M150.53,202.73c1.66-.75,2.8-2.33,4.38-3.24-2.38.51-4.72,1.21-7.1,1.7.39-.53.98-.51,1.56-.77.67-.31.95-.86,1.85-.79-.18.6-1.5,1.12-2.02,1.45-1.05.66-2.18,1.16-2.64,2.42.31.4.97.17,1.42.15,1.9-.06,3.83,0,5.72,0,.82,0,3.81.46,4.04-.82-2.27-.5-4.87-.22-7.22-.63-.56-1.25,3.14-2.42,3.51-2.55.87-.3,3.47-.49,3.95-1.4-.8.68-2.67,1.53-2.91,2.6,1.44.45,4.43-.63,4.97-2.12-2.26-.26-4.38.45-6.61.49.49-.63.97-1.7,1.61-2.15s1.35-.26,1.89-.98c.08,2.01-1.22,4.08-1.42,6.1.3.22,1.95-.67,2.55-.83,1.51-.4,3.81-1.05,4.76-2.43.25-.36.76-1.1.34-1.55-.25-.27-.84,0-1.13.02-1.9.16-3.8.46-5.69.69.41-1.11,3.33-2.38,4.26-2.75,1.04-.41,2.09-.4,3.06-1.09-.32,1.02-.84,2.04-1.24,3.05,1.2-.18,2.18-1.43,3.22-1.98.84-.45,1.73-.78,2.55-1.3-.79-.99-3.12.25-3.82-.99,1.31-.81,2.81-.8,4.03-.08-1.16,1.38-2.36,2.19-3.82,3.17,1.36.87,3.87.21,5.28-.1s3.62-.66,4.32-2.07c.18-.35.48-.6.28-1.05s-1.76-.62-2.17-.55c1.17.11,2.25-.29,3.4-.41s2.33-.01,3.5-.07c-1.79,1.2-4.13,1.45-6.24,1.4-1.08-.03-2.04.55-3.06.47,2.9-.43,5.8-1.09,8.72-1.37,0,.54-.43.74-.47,1.27,1.57.56,3.98.03,5.6.1,2.14.09,4.27.29,6.4.39.6.03,2.5.33,3-.32-.47-.18-.99-.13-1.48-.19-2.06-.23-4.08-.71-6.12-1.03s-4.23-.36-6.33-.22c1.15-.21,1.99-.49,3.2-.48,2.28.04,4.77.18,6.97-.5-.66.69-1.56.49-2.45.58-1.14.12-2.29.36-3.4.6-.66.14-2.63.41-3.39.8,2.01.52,4.07.22,6.11.54,1.44.22,2.91.84,4.38.71-1.3-.05-2.62-.01-3.92-.01"/>
    <path class="f" d="M109.79,225.96c-.25-.03-3.13-1.36-3.24-1.58-1.2-.25-2.73-.84-3.98-.82-1.85.02-3.61.35-5.46.61"/>
    <path class="f" d="M125.59,231.39c-.57,0-1.25.11-1.81.02-.68-.11-1.17-.6-1.81-.83-1.19-.43-2.32-.81-3.52-1.1-.11-.22-.28-.35-.53-.38-.31.02-.62.03-.93.05-.59-.1-1.22-.41-1.81-.59-.96-.29-1.69-.79-2.53-1.24-.9-.48-1.94-1.1-2.88-1.37"/>
    <path class="f" d="M156.86,218.56c.17-.6.91-.89,1.37-1.34s.81-1,1.23-1.49c.79-.91,1.86-1.43,2.71-2.25.74-.71,1.54-1.17,2.37-1.7.79-.5,1.88-.91,2.61-1.46.86-.64,1.71-1.28,2.81-1.62.62-.19,1.37-1,1.99-1.1.56-.09,2.62-.52,3.2-.57,2.31-.21,3.04-.03,5.85.68,1.25.32,2.31.05,3.42.44s2.08.69,3.18,1.01c.65.19,1.25.71,1.91.94.81.29,1.44.34,2.16.77,1.28.75,2.69,1.33,4.07,1.94.61.27,1.09.28,1.71.43.11.22.28.35.53.38l.95-.05c.38.08.84.42,1.22.59.62.27,1.07.28,1.82.44.61.13,1.21.32,1.81.45.08.22.24.34.48.37.55-.06,1.11-.03,1.65.09,2.22.41,4.39.42,6.55,1.26"/>
    <path class="f" d="M190.53,216.47c.41-.2.72-.37,1.03-.74.13-.15.24-.3.36-.47.05-.07.06-.17.11-.24.06-.09.17-.14.24-.23.16-.22.28-.4.47-.6.16-.17.31-.22.48-.35.35-.26.68-.53,1.06-.77-.16-.15-.48-.14-.69-.17-.4-.07-.81-.13-1.21-.22-.18-.04-.29-.13-.46-.2-.4-.17-.85-.22-1.21-.38-.34-.15-.76-.04-1.09-.26s-.61-.38-.96-.57c-.13-.07-.26-.15-.38-.24-.13-.11-.19-.29-.35-.34"/>
  </g>
  <g id="c" data-name="teeth">
    <path class="f" d="M117.7,302.07c1.9,1.01,3.22,1.54,5.32,2.04s1.18.37,4.05,1.06c0,0-.47-3.42.3-2.69.89.85,1.69,4.02,2.37,4.96,1.83,2.52,1.1,2.86,4.59,3.48.7.12,4.22.02,4.9.29.94.37,4.21-.03,5.17-.21.5-.09,1.51-.09,2.11,0"/>
    <path class="h" d="M131.51,311.3c-.53.05-.74.38-1.15.64-.69.44-1.53.48-2.26.81-1.07.48-1.82,1.32-3.06,1.47"/>
    <path class="f" d="M121.81,316.8c1.01,1.92,1.77,4.17,3.16,5.91.81,1.02,1.33,2.11,2.02,3.24.95,1.54,2.12,2.9,3.07,4.44,1.53,2.46,3.05,4.7,5.32,6.54,1.27,1.03,2.67,1.65,4.24,2.12.63.19,1.23.31,1.85.47.3.08.45.24.85.26.6.03,1.21,0,1.81,0"/>
    <path class="j" d="M122.45,334.6c-.02,2.12-.79,4.49-.3,6.62.07.29.24.64.33.98.09.36.25.84.45,1.15.41.65.99,1.3,1.46,1.93"/>
    <path class="l" d="M159.99,340.75c.86,0,1.73,0,2.6,0,.66,0,1.24-.21,1.86-.4,1.15-.34,2.15-1.49,3.31-1.87"/>
    <path class="m" d="M213.06,288.33c.02-1.04-.73-2.19-1.45-2.91-.42-.42-.94-.64-1.38-1.05-.37-.35-.71-.73-1.09-1.08.32.22.81.17.71.71-.29-.19-.44-.5-.35-.85.33.87,2.92,1,2.98,1.88l.26.06c.09.02-.47-2.87-.39-2.85.06.66.56.86,1.03,1.23"/>
    <path class="g" d="M239.6,275.7c.1.36-.28,1.13-.37,1.5-.23.9-.92,1.81-1.25,2.71-.39,1.07-1,2.08-.97,3.24"/>
    <path class="i" d="M235.07,277.97c-.38.62-.24,1.25-.5,1.95-.49,1.35-1.27,2.74-1.44,4.2"/>
    <path class="f" d="M237.65,299.97c-.66,1.6-.71,3.63-1.21,5.24-.23.74-.51,1.49-.73,2.18.08.26.04.51-.12.75-.27.29-.53.59-.79.9-.23.41-.31.94-.46,1.38-.39,1.17-1.14,2.22-1.71,3.32-1.29,2.49-2.47,5-3.62,7.55-.66,1.47-1.07,3.06-1.79,4.48-.3.58-.9,1.3-.95,1.96l-.26.06"/>
    <path class="f" d="M91.71,240.11c-.61-.45-1.11-.69-1.62-1.22-.37-.39-.84-.64-1.3-.88s-.83-.6-1.29-.82c-.57-.27-1.28-.3-1.95-.32"/>
    <path class="k" d="M162.58,233.31h-2.59c-.59,0-1.9.25-2.4-.01-1.13-.6-1.09-3.39-.78-4.46l.27-.06c-.06.6,2.44,2.87,2.91,3.24"/>
  </g>
  <g id="e" data-name="hair">
    <path class="f" d="M136.21,160.74c0,.29.05.62,0,.91-.05.34-.23.49-.28.77-.1.55-.03,1.21-.03,1.78,0,.63.09,1.34,0,1.96-.08.58-.27.86-.3,1.5-.02.36-.16.56-.24.9s.02.61-.05.92c-.06.27-.27.3-.33.57-.07.29.1.64.03.93-.06.26-.28.32-.33.57-.07.3.03.61-.05.92-.14.59-.39,1.1-.54,1.64-.14.51-.15,1-.28,1.52s-.41,1.08-.6,1.63c-.52,1.46-1.23,2.87-1.81,4.2-.44,1.02-.95,2.01-1.43,3.02-.37.79-1.45,2.42-1.27,3.3"/>
    <path class="f" d="M165.93,176.35c-.48.12-1.06-.42-1.49-.6-.73-.31-1.05-.53-1.58-1.12s-1.26-.76-1.81-1.28-1.08-.83-1.67-1.28c-.19-.15-.32-.38-.51-.53-.3-.23-.4-.2-.75-.36-.63-.29-1.17-.74-1.8-1.06s-1.28-.62-1.87-.9c-.45-.21-.96-.46-1.36-.74s-.66-.74-1.03-1.05c-.5-.42-1.04-.76-1.52-1.21-.86-.8-1.67-1.45-2.54-2.25-.48-.44-.9-.88-1.35-1.34-.25-.25-.54-.48-.77-.76-.27-.32-.68-.59-.92-.89-.17-.21-.3-.71-.46-.98-.24-.41-.57-.83-.73-1.29-.31-.89-.37-1.86-.74-2.73-.22-.52-.59-1.03-.89-1.53-.33-.54-.87-1.2-1.07-1.8-.12-.37-.14-.65-.29-.98-.11-.26-.22-.47-.34-.71-.32-.65-2.45-.27-2.44-1.01-.02.92.3,1.73.67,2.51.64,1.37,1.01,2.89,1.59,4.25.23.54.75.97.94,1.53.07.22.04.58.11.75.13.32.4.63.59.93.63.99,1.22,1.99,1.89,2.96,1.72,2.49,3.84,4.38,6.54,5.69,2.44,1.18,4.01,3.4,6.28,4.8,1.09.67,2.29,1.14,3.38,1.72.63.34.95.82,1.5,1.22.44.32,1.13.66,1.62.93.58.33,1.19.55,1.77.93.62.42,1.2.58,1.82.9.67.35,1.43.72,2.1.88.78.18,1.71-.18,2.48.08l.05.25"/>
    <path class="f" d="M152.12,165.25c-.15-.44-.53-.95-.78-1.35-.34-.55-.62-1.1-.94-1.67-.43-.76-1.06-1.41-1.43-2.23-1.29-2.87-1.58-5.92-2.45-8.9-.68-2.3-1.9-4.53-1.89-6.87,0-2.2,0-4.4,0-6.6"/>
    <path class="f" d="M156.63,168.55c-.05-.28-.64-1.04-.82-1.28-.31-.42-.53-.57-.76-1.04-.43-.88-.77-1.71-1.16-2.59s-.72-1.72-1.16-2.59c-.28-.54-.34-1.06-.6-1.62-.22-.47-.56-.89-.82-1.37-.63-1.14-1.04-2.52-1.28-3.76-.21-1.11-.6-1.92-.59-3.15,0-1.9-.52-3.61-.83-5.42-.2-1.15-.69-2.35-.67-3.58"/>
    <path class="f" d="M154.53,159.24c.19.54.92.99,1.28,1.49.21.3.33.65.59.91.14.15.29.28.48.37.05.15.09.3.13.46.82,1.04,2.04,1.79,3.01,2.69.6.56,1.28.9,1.96,1.35.78.51,1.43,1.2,2.25,1.66.65.36,1.37.63,2.03.97.57.3.93.87,1.56,1.13,1.28.52,2.37,1.46,3.54,2.18.54.33.96.5,1.43.98s.9.89,1.51,1.21c1.07.57,1.78,1.55,2.69,2.39.48.45.93.89,1.35,1.41.31.38.83,1.42,1.37,1.48l.07-.26"/>
    <path class="f" d="M179.74,176.35c-.5-.4-.76-.99-1.2-1.44-.35-.36-.87-.59-1.22-.96-.58-.62-1.23-1.23-1.79-1.87-.5-.58-1.13-.79-1.8-1.19s-1.2-.94-1.81-1.36c-.56-.39-.96-.97-1.48-1.36s-1.2-.72-1.8-1.04c-1.31-.71-2.46-1.19-3.76-1.88-.67-.35-1.14-.7-1.72-1.13-.46-.34-1.17-.43-1.66-.74-1.66-1.05-2.33-2.63-3.38-4.14-.84-1.2-1.79-2.49-2.48-3.83-.15-.29-.25-.68-.43-.98-.2-.33-.56-.48-.78-.81-.35-.51-.72-1.24-.81-1.88"/>
    <path class="f" d="M181.06,174.42c-.16-.32-.31-.59-.55-.86-.2-.23-.44-.37-.67-.56-.17-.14-.29-.35-.46-.48-.16-.11-.28-.16-.41-.29s-.21-.32-.34-.46c-.25-.25-.52-.48-.79-.72-.64-.54-1.25-1.14-1.91-1.66s-1.3-.87-1.99-1.3c-.54-.35-.98-.85-1.5-1.24-.34-.25-.7-.49-1.01-.77s-.63-.57-.99-.79c-.39-.25-.76-.53-1.16-.78-.43-.27-.76-.6-1.19-.85s-.92-.42-1.37-.64c-.48-.24-.87-.47-1.39-.62-.25-.07-.47-.19-.69-.33-.32-.19-.56-.42-.89-.59s-.44-.26-.68-.48c-.91-.81-1.7-1.79-2.47-2.75-.52-.65-1.07-1.27-1.54-1.96-.39-.57-.85-1-1.3-1.51-.53-.61-.97-1.31-1.3-2.03-.3-.64-1.02-1.16-1.52-1.63s-.98-.97-1.48-1.43c-.34-.32-.73-.62-1.06-.95-.24-.24-.4-.48-.68-.69"/>
    <path class="f" d="M199.32,192.4c.09.61.67,1.23,1.1,1.65.35.34.58.67.85,1.06.47.68,1.16,1.23,1.7,1.85.32.37.62.71.95,1.06.56.59.99,1.25,1.48,1.9.2.27.37.54.54.81.29.47.54,1.03.9,1.45.17.2.37.35.51.57s.3.43.46.64c.14.19.19.38.3.58.14.25.36.44.52.67.05.07.01.18.06.25s.18.1.22.16c.23.37.43.85.62,1.25.25.51.49,1.12.81,1.57.21.3.53.48.7.83.65,1.29,1.64,2.54,2.22,3.86.54,1.24,1.05,2.53,1.5,3.81.52,1.49,1.3,2.85,1.7,4.4.11.41.14.84.29,1.2.33.81.66,1.65.89,2.5.21.76.55,1.49.84,2.22.21.53.37,1.09.59,1.62.04.1.13.32.19.41.08.1.18.28.25.36.88.97,1.62,2.23,2.36,3.34.23.35.55.68.78,1.04.28.43.5.9.83,1.29,1.12,1.35,1.79,3.16,3.12,4.33.21.18.35.36.52.59.34.46.87.69,1.19,1.14.35.48.87.79,1.23,1.26.16.21.24.46.4.68.24.35.51.7.75,1.05.23.33.52.65.75.96.04.05,0,.15.04.2.1.12.24.16.35.26.18.16.3.39.48.56.42.4.9.69,1.34,1.06.62.53.85,1.33,1.64,1.68"/>
    <path class="f" d="M200.83,176.75c.49.7,1,1.47,1.5,2.09.15.19.4.32.56.51.2.24.36.44.58.66.35.32.7.63,1.08.92.57.42,1.03.98,1.62,1.35.54.33.83.92,1.31,1.33.2.17.33.37.51.54.04.04.16,0,.2.05.12.11.27.28.39.4.65.6,1.25,1.27,1.94,1.81,1.64,1.28,3.27,2.6,5,3.81.6.42,1.21.75,1.86,1.05.44.2.87.44,1.32.65.35.16.7.3,1.02.48.28.17.58.3.87.46.36.21.77.31,1.13.5.4.2.81.45,1.22.62.44.18.92.29,1.37.44.5.16.94.44,1.44.61.69.25,1.4.5,2.06.82.71.34,1.41.54,2.13.89.46.23.93.45,1.4.67.43.2,1.03.6,1.48.63"/>
    <path class="f" d="M216.88,186.22c.38.55,1.02.84,1.52,1.27.45.39.9.73,1.4,1.03.34.2.71.42,1.06.61.29.16.53.4.83.52s.54.29.82.41c.23.1.4.23.61.34.11.06.24.07.35.13.12.06.21.19.33.26.18.1.38.15.57.23.14.06.36.08.48.13.31.13.6.33.95.42.7.17,1.3.46,1.99.7.51.18,1.05.49,1.57.67.31.11.65.07.94.17.31.1.36.25.72.25"/>
    <path class="f" d="M284.41,233.16c-.42,0-.62.27-1.05.28-.88.03-1.73.14-2.6.3-.55.11-1.02.22-1.59.24-.48.02-.95.11-1.44.13s-.97.23-1.46.32c-.45.08-.87.1-1.32.1-.69,0-1.38,0-2.07,0"/>
    <path class="f" d="M281.11,231.1c-.62-.09-1.38.38-1.99.51-.76.16-1.44.54-2.21.69-1.49.3-3.07.17-4.59.17"/>
    <path class="f" d="M276.99,229.04c-.37.14-.75.18-1.14.24-.71.1-1.42.26-2.13.31s-1.39-.18-2.08-.13"/>
    <path class="f" d="M274.8,227.25c-.36,0-.72.01-1.08.01-.86,0-1.65-.21-2.49-.28"/>
    <path class="f" d="M273.43,225.2c-.21.05-.35-.11-.55-.14"/>
    <path class="f" d="M292.37,259.37c.38,0-.13-.56-.2-.65-.35-.46-.79-.85-1.18-1.28-.18-.19-.39-.41-.52-.62-.08-.13-.11-.28-.22-.41-.15-.2-.31-.4-.42-.63-.21-.42-.35-.92-.52-1.35-.12-.31-.26-.54-.34-.87-.15-.66-.43-1.25-.62-1.9-.12-.42-.22-.84-.33-1.26-.07-.28-.24-.61-.18-.91"/>
    <path class="f" d="M297.58,255.8c-.84-.96-1.4-2.03-2.06-3.09-.13-.21-.23-.39-.33-.61-.18-.41-.79-.93-.76-1.38"/>
    <path class="f" d="M293.19,275.29c-.16.04-.23.17-.34.27-.19.18-.4.31-.6.48-.76.64-1.57,1.2-2.32,1.86-.58.51-1.16.97-1.81,1.37-.73.46-1.48.91-2.22,1.37-.68.42-1.43.72-2.09,1.17s-1.21.93-1.9,1.32-1.22.7-1.8,1.17c-.48.38-.96.7-1.42,1.11-.51.45-1.1.83-1.64,1.23-.84.63-1.78,1.12-2.68,1.69-1.48.94-2.75,2.21-4.15,3.26-.89.66-2.82,1.04-3.23,2.1l.11-.02c.12-.37.24-.72.37-1.08s.4-.63.6-.97c.36-.63.64-1.3,1.17-1.82.48-.47.95-.95,1.43-1.43s.93-.81,1.48-1.19c.6-.42,1.16-.89,1.76-1.31.31-.22.62-.38.89-.66.79-.82,1.83-1.57,2.83-2.1.24-.13.51-.2.75-.32.46-.23.81-.54,1.23-.83.66-.46,1.25-1,1.9-1.46.3-.21.67-.34.94-.6s.48-.59.76-.85c.96-.9,2.09-1.62,3.14-2.41.94-.7,1.98-1.24,2.9-1.96.48-.38.93-.8,1.38-1.2.2-.18.5-.52.8-.52"/>
    <path class="f" d="M262.86,296.42c-.35.45-.7.89-1.07,1.32-.93,1.08-2.13,1.85-3.25,2.72-.95.74-1.98,1.4-2.88,2.19-.94.83-1.7,1.85-2.46,2.84-.83,1.08-1.64,2.17-2.44,3.26-.12.16-.18.35-.29.55-.39.73-.82,1.43-1.3,2.11-.17.24-.35.46-.45.74s-.09.56-.21.82c-.34.77-.59,1.55-.77,2.38-.29,1.27-.44,2.59-.6,3.87-.12.95.06,1.84.07,2.78,0,.16-.12.76.13.77"/>
    <path class="f" d="M256.96,339.79c-.26.26-1.03.23-1.32.15-.91-.24-1.82-.37-2.69-.74-.32-.14-.67-.28-.95-.47-.31-.2-.56-.47-.82-.69-.53-.44-.83-1.04-1.23-1.57-.6-.8-.88-1.81-1.52-2.58s-1.11-1.85-1.53-2.78c-.19-.42-.45-.8-.63-1.24-.12-.3-.18-.61-.33-.9-.21-.42-.41-.77-.53-1.23-.57-2.19-.99-4.55-.52-6.8.23-1.11.33-2.24.59-3.34.07-.29.01-1.12.24-1.29"/>
    <path class="f" d="M252.29,335.26c.1-.29-.33-.48-.49-.66-.69-.72-1.39-1.43-1.98-2.24-.48-.67-.78-1.29-1-2.07-.06-.22-.19-.38-.24-.58-.1-.48-.07-1.02-.14-1.51-.13-.9-.13-1.77-.13-2.68"/>
  </g>
</svg>