<?xml version="1.0" encoding="utf-8"?>
<!-- Generator: Adobe Illustrator 28.1.0, SVG Export Plug-In . SVG Version: 6.00 Build 0)  -->
<svg version="1.1" id="a" xmlns="http://www.w3.org/2000/svg" xmlns:xlink="http://www.w3.org/1999/xlink" x="0px" y="0px"
	 viewBox="0 0 558.2 312.4" style="enable-background:new 0 0 558.2 312.4;" xml:space="preserve">
<style type="text/css">
	.st0{fill:none;stroke:#484848;stroke-width:2;stroke-linecap:round;stroke-linejoin:round;}
</style>
<path class="st0" d="M1,225c1.1-0.8,2.5-0.6,3.5-0.3c3.5,1.3,7.2,2.1,10.8,2.4c2.8,0.2,5.2,1.5,7.7,2.4c2.5,0.9,4.7,2.4,7.2,2.9
	c4.1,0.9,8,2.7,12,3.8c2.5,0.7,4.9,1.6,7.4,2.4c3.6,1.2,7.5,1.5,11.2,2.5c3.8,1.1,7.8,1.6,11.5,2.8c1.5,0.5,3.2,0.5,4.8,0.8
	c3.8,0.7,7.7,1.6,11.5,2.3c6.7,1.3,13,4,19.6,5.4c4.9,1,9.8,2.6,14.9,2.8c5.2,0.1,10.1,1.4,14.9,3.1c2,0.7,4.1,0.9,6.1,1.2
	c2,0.2,3.9,0.9,5.9,1.2c5.4,0.9,10.6,2.5,15.9,3.8c4.3,1,8.6,1.8,12.9,2.7c2.6,0.6,5.1,1.5,7.6,2.5c5.7,2.4,11.6,4.3,17.6,5.7
	c6.1,1.5,12,3.7,17.9,5.5c3.1,0.9,6.1,1.8,9.2,2.5c3.5,0.8,6.9,1.5,10.4,2.1c2.5,0.5,5,1.2,7.6,1.8c1.5,0.3,2.9,0.9,4.3,1.5
	c2.9,1.2,6,1.3,9,1.4c3.1,0.1,6.1,0.6,9,1.7c2.1,0.8,4.5,0.7,6.7,1.2c4.2,1,8.4,1.6,12.6,2.6c2.7,0.6,5.4,0.8,8.1,1.2
	c4.6,0.7,9.2,1.2,13.7,2.6c5.4,1.7,10.9,3.1,16.5,4c3.2,0.5,6.4,1.4,9.7,1.3c1.8,0,3.6,0.2,5.4,0.8c2.1,0.8,4.4,0.8,6.7,1
	c3.2,0.4,6.3,1.2,9.5,1c1.5-0.1,3.1,0,4.7,0c0.5,0.6-0.1,1.2,0,1.8"/>
<path class="st0" d="M539,22.2c-4.4,2.5-9.4,3.1-14.2,4.5c-2.3,0.6-4.4,1.9-6.8,2.4c-4.3,0.9-8.4,2.4-12.6,3.5
	c-6.2,1.5-12.3,3.5-18.4,5.6c-4.7,1.6-9.4,3.3-14.2,4.7c-5.2,1.6-10.6,2.7-15.8,4.4c-3.5,1.1-7,1.9-10.5,2.8
	c-3.7,1-7.5,1.8-11.2,2.8c-2.6,0.7-5.5,1.3-8.4,1.2c-1.8-0.1-3.1,1.5-2.8,3.2c0.1,0.7-0.2,1.1-0.3,1.6c-0.3,1.3-0.9,2.5-1.4,3.8"/>
<path class="st0" d="M359.3,43.4c-0.7-0.7-1.6-1.1-2.5-1.5c-1.6-0.5-3.3-0.8-4.9-1.6c-1.8-0.9-3.8-0.2-5.8-0.5
	c-4.6-0.6-8.9,1-13.1,2.4c-4.5,1.5-9,3.1-13.7,4c-1.8,0.3-3.4,1.4-5.2,1.7c-6.6,1.1-12.8,3.6-19.1,6c-3.2,1.2-6.1,3.1-9.2,4.6
	c-3.7,1.9-7.1,4.3-10.3,7c-3.8,3.2-6.6,6.8-8.1,11.6c-0.4,1.4-0.4,2.6-0.1,3.8c1.1,4.4,3.1,8.3,6,11.9c1.8,2.3,3.3,4.8,5.3,6.9
	c1.4,1.5,3.3,2.2,4.6,3.7"/>
<path class="st0" d="M1.5,224.2c0.8-2.9,2.3-5.5,4-7.9c3.9-5.6,8.3-10.8,10.9-17.2c1-2.5,3-4.7,4.7-6.9c2.1-2.9,4.6-5.5,6.4-8.8
	c2.7-4.9,6.2-9.2,9.8-13.4c2.2-2.6,3.8-5.5,5.6-8.4c1.7-2.8,3.8-5.4,5.9-8c1.9-2.4,3.5-5,5.3-7.5c0.9-1.3,0.9-3,2.4-4.2
	c5.3,2.1,10.3,5.1,15.1,8.6c3.1,2.3,6.6,4.1,10.2,5.6c3.7,1.5,7.4,3,10.9,4.9c2.3,1.2,4.5,2.8,6.9,3.9c3.6,1.6,7.2,3.1,11.1,3.8
	c2.1,0.4,4.3,0.8,6.2,2.3c0.6,0.5,1.4,0.8,2.1,0.9c2.7,0.5,5.1,1.8,7.5,3c5.3,2.4,10.6,4.7,16,6.6c5.4,1.8,10.7,3.7,16.2,5.1
	c3.8,1,7.5,2,11.3,2.7c0.9,0.2,1.4,1.1,2.3,1"/>
<path class="st0" d="M336.6,114.8c0,0.8-0.2,1.3-0.7,2c-0.7,0.9-0.4,2.1,0.7,2.8c1,0.6,1.4,1.5,1.3,2.7c-0.2,1.2,0.7,1.8,1.5,2.3
	c4.4,3,9.2,5,14.4,6c1,0.2,1.9,0.1,1.8,1.5c0,0.9,1,0.7,1.2,0.7c2.4-0.2,4.6,0.5,6.8,0.8c3.4,0.4,6.8,0.5,10.1,1.1
	c4,0.7,8,0.8,12.1,1.2c5.1,0.6,10.2,1.4,15.3,2.1c2.5,0.3,4.9,0.4,7.4,0.7c3.1,0.4,6.3,0.9,9.4,1.5c1.1,0.2,2.2,0.1,3.2,0.3
	c3.2,0.4,6.2,1.2,9.3,1.8c6.2,1.2,11.2-0.2,17.8-1.5c3.4-0.7,6.8-1.4,10.1-2.5c4-1.4,8.1-2.5,12.2-3.6c1.3-0.4,2.3-1.5,3.9-1.1
	c-0.1,3.2,2.5,4.5,4.6,6.2c1.6,1.4,3.4,2.6,5,4c1.3,1,2,2.5,2.6,3.8c1.8,3.9,4.4,7.3,6.6,10.9c2.9,4.6,4.5,9.6,6.4,14.6
	c1.1,2.8,2.1,5.6,3.3,8.3c1.2,2.8,2.6,5.6,3.4,8.6c0.4,1.7,0,3.5,0.5,5.2c0.7,2.4,1.1,4.8,1.5,7.2c0.5,3.4,2,6.4,2.7,9.7
	c0.9,4.5,2.1,9,1.9,13.7c-0.2,3.4-0.1,6.8-0.8,10.1c-0.2,1,0,2,0,3.1"/>
<path class="st0" d="M405.3,158.4c1.9,1.4,3.2,3.4,4,5.6c1.2,3,2.9,5.7,4.3,8.6c1.2,2.5,1.8,5.1,2.3,7.7c0.3,1.4,0.8,2.7,1.5,3.9
	c1.6,2.9,2.4,5.9,4,8.8c2,3.7,3.5,7.6,4.8,11.5c0.9,2.6,1.9,5,3.1,7.4c0.8,1.5,1.5,3.1,1.6,4.9c0.1,1.4,1,2.6,1.5,3.9
	c1.3,3.2,1.8,6.5,1.8,9.9c0,2.3,0.8,4.6,1.1,6.9c0.1,0.6,0.5,0.9,0.8,1.2c1.7,2.2,2,4.7,2,7.4c0,3-0.2,5.6-0.7,8.5
	c-0.2,1.1-1.1,1.5-2,0.7c-1.1-1-2-2.1-2.6-3.6c-1.8-4.6-2.6-9.6-4.3-14.2c-0.1-0.4-0.4-0.8-0.7-1.1"/>
<path class="st0" d="M283.9,249.8c4.5,1.5,9.3,2,13.9,3.4c2.1,0.7,4.2,1.8,6.3,2.1c4.3,0.5,8.3,2.2,12.6,2.9c4,0.6,8,1.5,11.8,2.6
	c4.6,1.3,9.4,1.6,13.9,3.2c2.2,0.8,4.6,0.7,7,1"/>
<path class="st0" d="M436.5,233.3c-1.9,0.4-3.7,0.8-5.4,1.7c-2.5,1.3-5.4,2-8.2,2c-1.9,0-3.6,0.7-5.4,0.9c-3.5,0.4-6.7,2-10.2,2.3
	c-3.5,0.3-7.1,0.6-10.6,0.9c-3.6,0.4-7.2,0.5-10.9,1.5c-3.5,0.9-6.8,2.1-10.2,3.4c-2.7,1-5.2,2.4-8,3.1c-4.8,1.2-9.5,2.6-14.6,1.5
	c-1.6-0.4-3.2-0.4-4.9-0.4c-4.9,0.1-9.6-1.4-14.4-2.1c-2.7-0.4-5.4-0.8-8.1-1.2c-1.8-0.3-3.4-0.7-5-1.4c-3-1.3-6.1-2.6-9.5-2.8
	c-2.4-0.2-4.6-1.4-7-1.9c-4.4-0.8-8.4-2.5-12.6-3.9c-3.7-1.2-7.5-2.3-11.1-3.6c-3.4-1.2-6.7-2.8-9.7-4.9c-1-0.7-2.1-1-3.4-1.2
	c-2.7-0.4-5.3-1.4-7.8-2.6"/>
<path class="st0" d="M361.3,58.8c0.1-1.6,1.7-2.2,2.6-3.2c2.3-2.3,4.9-4.3,7.3-6.6c3.6-3.4,7.5-6.7,10.1-10.9
	c2.1-3.2,4.8-5.7,7.2-8.5c3.7-4.5,7.9-8.7,11.6-13.2c2.2-2.7,4.5-5.4,5.8-8.8c0.3-0.9,0.4-1.5-0.5-2.2c-2-1.4-3.9-3-5.8-4.5
	c-3.5,1.6-6.3,4.3-8.8,7.2c-1.4,1.6-3.2,3-4.6,4.7c-2.7,3.2-5.5,6.5-8.5,9.5c-2.6,2.7-5.2,5.5-7.7,8.4c-2.1,2.5-4.1,5.2-6,7.8
	c-2.5,3.4-5.5,6.5-8.2,9.8c-1.5,1.8-3.3,3.4-4.4,5.6c-0.1,0.3-0.3,0.6-0.5,0.7c-2.6,1.4-3.2,4.1-4.3,6.5c-0.1,0.2-0.2,0.4-0.4,0.5"
	/>
<path class="st0" d="M233.2,229.6c2.9,1.5,5.8,2.7,9,3.5c0.9,0.2,1.7,0.8,2.7,1c2.5,0.6,4.6-0.1,6.5-1.7c2.2-1.9,4.2-4,4.8-6.8
	c1.1-4.6-0.2-7.9-4.5-10.2c-0.6-0.3-1.2-0.8-1.8-1.2c-1.9-1.2-3.9-2.2-6.3-2.4c-1.9-0.2-3.6-1.3-5.4-2.1c-4.2-1.7-8.2-3.8-11.6-7
	c-1.1-1.1-2.6-1.8-3.9-2.7"/>
<path class="st0" d="M436.5,63.9c-0.8,0.6-1.7,0.1-2.5,0.1c-3.4,0-6.7,0.4-10.1,0.1c-5.1-0.5-9.8-2.2-14.6-3.8
	c-5.2-1.8-10.3-4.2-15.5-6.1c-4.3-1.6-8.5-3.2-13.1-3.6c-0.4,0-0.9,0-1.3-0.2c-2.3-0.8-4.7-1.5-7.2-1.6"/>
<path class="st0" d="M330.3,289.1c1.4-2.8,1-3.6-2.5-4.9c-2.6-0.9-5.4-1.2-8.1-1.9c-3-0.8-6-1.5-9-2.4c-3.4-1-6.8-1.7-10.2-2.6
	c-4.7-1.2-9.4-2-14.1-3.5c-4.1-1.4-8.3-2.4-12.7-2.9c-0.2,1.5-1.8,2.5-1.6,4.3c1.9,0.9,4,1.2,5.9,1.4c2.4,0.1,4.5,1.1,6.8,1.6
	c2.9,0.5,5.8,1.4,8.6,2.1c3.4,0.8,6.7,2,10.3,2.3c2.9,0.3,5.7,1.5,8.6,1.6c1.2,0,2,1,3.2,1.1c2.1,0.3,4.1,0.9,6.1,1.4"/>
<path class="st0" d="M222.2,150.9c0.9-1.7,2.9-2.3,4.2-3.6c1.2-1.2,2.6-2.3,3.9-3.3c1.3-0.9,2.4-1.9,3.7-2.9
	c6-4.5,11.7-9.4,17.5-14.2c4.8-3.9,9.3-8,14.2-11.8c0.6-0.4,1.2-0.8,2-1.4c-1.2-0.9-2-1.1-3.1-1c-2.2,0.3-4.5-0.2-6.8,0
	c-3.1,0.3-6.2,0.8-9.4,0.6c-1.9-0.1-3.7-0.3-5.6-0.3c-2.9,0-5.9,0.2-8.8,0.3c-3.2,0.1-6.5,0.3-9.7,0.5c-2.8,0.2-5.6,0.5-8.5,0.7
	c-3.5,0.2-7,0.4-10.4,0.6c-2.1,0.1-3.8,1.6-5.8,1.5c-3.4-0.1-5.3,2.4-7.3,4.2c-2.1,1.9-3.3,4.9-3.9,7.8c-0.7,3.5-2.2,6.9-2.7,10.4
	c-0.9,6.9-4.5,12.8-6.9,19.1c-1.1,2.9-1.7,5.8-1.8,8.8c-0.2,5.5-0.5,10.9-0.4,16.4c0,1.5,0.5,3-0.2,4.5c-0.1,0.3,0.4,0.9,0.6,1.3"/>
<path class="st0" d="M291.8,117.9c2.8,2.6,5.2,5.6,6.7,9.2c0.5,1.2,1.2,2.3,1.9,3.5c2.8,4.8,6.8,8.2,11.6,10.8
	c4.2,2.3,8.1,5.1,12.3,7.5c4.2,2.5,8.4,5,13,6.6c4.4,1.5,8.1,4.2,12.3,5.8c1.9,0.7,3.8,1.3,5.6,1.6c3.1,0.4,5.8,1.8,8.8,2.3
	c1.6,0.3,3.1,0.7,4.7,0.7c3.4,0,6.8-0.1,10.2,0c5.4,0.2,10.6-1.1,15.9-2.3c3.8-0.9,7.1-2.7,10.4-4.6"/>
<path class="st0" d="M366.3,93.4c2.4,3.9,4.3,8.2,7.4,11.7c2.6,3,5.5,5.9,8.9,8c1.8,1.1,4.1,1.6,6.3,2.2c5.1,1.6,10.5,2.3,15.6,3.6
	c0.9,0.2,1.9,0.1,2.9,0.2"/>
<path class="st0" d="M557.2,221.6c-4.7,1.5-9.2,3.4-13.7,5.3c-4.2,1.7-8.5,3.3-12.7,5.1c-4.1,1.7-8.4,2.8-12.3,5.1
	c-1.8,1-3.8,1.6-5.8,2c-5.1,1.1-9.9,3.1-14.7,4.8c-1.5,0.5-3,1.3-4.4,2.4c-2.1,1.7-4.8,2.3-7.4,3c-3.7,1-7.5,2.1-11.5,2.1
	c-3.4-0.1-6.9,0-10.2-0.4c-2.1-0.2-4,0.5-6,1c-0.5,0.1-1.1,0.4-1.6,0.3c-3-0.7-5.6,0.6-8.2,1.4c-3.6,1.1-7.2,1.4-10.8,1.3"/>
<path class="st0" d="M366,227.7c-3.7,1-7.3,2.6-11.2,2.8c-4.6,0.2-9.1,1.3-13.7,0.8c-2.6-0.3-5.3-0.6-7.9-1.1
	c-5.3-0.9-10.3-4.8-15.3-6.6c-4.4-3.2-8.2-4.9-12.4-8.9c-5.2-4.3-12.2-8.6-20.2-14c-3.1-2.4-6.2-5-9.7-6.6
	c-3.7-1.7-7.5-3.4-11.7-3.9c-1.7-0.2-3.3-0.9-4.9-1.8c-2.8-1.6-5.9-1.3-9-1.1c-2.3,0.2-4.6,0.3-6.8,0.3c-2.9,0-5.5,1.1-8.3,1.6
	c-2.9,0.5-5.9,0.7-8.8,0.6c-0.2,0-0.6-0.1-0.9-0.1c-3.3-0.1-3.3-0.1-3.3,3.1c0,1.9,0.2,3.7-0.1,5.6c-0.1,0.4-0.1,1.1,0.2,1.3
	c1,1.1,0.3,1.7-0.4,2.6c-2.3-1.2-4.6-2.6-7-0.5"/>
<path class="st0" d="M318.3,83.5c-1.6,2.7-3.6,5-5.6,7.4c-2.8,3.3-5.5,6.7-8.6,9.7c-5.2,4.9-10,10.2-15.2,15
	c-3.4,3.1-6.8,6.1-10.3,9.1c-1.6,1.4-3.5,2.1-5.4,2.8c-1.9,0.7-3.4,1.9-4.6,3.5c-0.9,1.1-0.3,1.9,1,2.5c1.7,0.8,3.1,0,4.5-0.6
	c2.8-1.2,5.2-3.1,7.2-5.4c2.8-3.1,5.9-6,9-8.8c3-2.6,6.1-5.2,8.8-7.9c2.7-2.7,5.4-5.5,7.9-8.5c2.2-2.6,4.4-5.3,7.1-7.5
	c1.5-1.2,2.4-3,3.4-4.6c0.7-1.1,1.2-2.2,2-3.2c0.4-0.4,0.7-1.1,0.5-1.6c-0.5-1.5,0.5-2.3,1.3-3.3c1.4-1.8,2.7-3.7,3.7-5.7
	c-1.9-1.4-3.4,0-5,0.3c-3.7,0.8-6.7,3.1-9.5,5.4c-4.2,3.5-8.4,7-13,10c-4.3,2.9-8.2,6.3-12.2,9.6c-2.7,2.2-5.2,4.6-8,6.8
	c-1.5,1.2-3.1,2.6-5.2,2.8c-0.3,0-0.8,0.3-0.9,0.9"/>
<path class="st0" d="M354.3,60.5c-2.5,1.5-5,2.5-7.9,1.5c-0.2-0.1-0.5,0-0.7,0c-1.9,0-3.7-0.2-5.6-0.5c-2.6-0.4-5.1,0.2-7.5,1.2
	c-4.1,1.7-7.6,4.3-11.2,6.8c-3.4,2.4-7,4.5-10.4,6.9c-2.4,1.7-4.6,3.6-6.9,5.4c-0.2,0.2-0.6,0.2-0.9,0.4"/>
<path class="st0" d="M270.1,228.4c-1.6,2.4-2.3,5.3-3.5,7.9c-1.1,2.3-2.1,4.8-3.5,6.9c-1.7,2.4-2.7,5.1-3.9,7.8
	c-0.6,1.4-1.4,2.6-2,4c-1.3,3-2.5,6-3.8,9c-0.3,0.8-0.6,1.6-1.3,2.2"/>
<path class="st0" d="M308.8,275.7c0.6-1.1,0.8-2.5,1.8-3.4c0.4-0.4,0.3-1.1,0-1.7c-4.1-0.2-8-1.6-11.8-3c-1.6-0.5-3.2-1.1-4.7-1.8
	c-1-0.5-2.1-0.4-3.1-0.6c-4.4-1-8.4-3.2-13.1-3c-1.4,0.1-1.8,0.7-2,1.9c-0.1,1.2,0.4,1.7,1.6,1.8c2.3,0.1,4.4,1.2,6.6,1.8
	c4.6,1.2,9.1,2.9,13.7,4.2c3.4,1,6.8,2.4,10.4,2.2c0.3,0,0.6,0.2,0.9,0.3"/>
<path class="st0" d="M435.6,64.4c1.7,3.6,4.3,6.6,6.9,9.5c4.3,4.9,7.8,10.4,10.3,16.4c1.6,3.7,2.5,7.7,2.6,11.8
	c0.1,2.1,0.6,4.1,1,6.1c0.6,2.8,0.9,5.6,1,8.5c0.2,4.2,0.1,8.4,0,12.6c-0.1,2.6-1.2,5-1.8,7.6c-0.2,0.7-0.4,1.3-0.1,2"/>
<path class="st0" d="M546.2,113.4c-1.5,0-3,0.1-4.5,0.3c-0.7,0.1-1.5,0.2-2.2-0.2c-2.1-1.2-4-0.2-6,0.3c-2.1,0.5-3.3,2.2-5,3.3
	c-0.8,0.6-1.7,1.2-2.3,2c-1.1,1.2-2.6,1.3-3.8,0.8c-2.7-1.1-4.7,0.4-6.7,1.6c-1,0.6-2,1.3-2.6,2.4c-0.6,1.1-1.9,1.1-3,1.5
	c-0.9,0.3-1.2-0.4-1.2-0.6c-0.2-1.5-1.4-1.5-2.4-1.8c-1.4-0.3-2.9-0.6-4.3-0.5c-1.4,0.1-2.9,0.6-3.6,1.9c-1.2,2.4-3,3.6-5.6,4
	c-2,0.3-3.9,1.1-5.6,2.2c-2,1.3-4.4,1.1-6.6,1.4c-2.2,0.3-4.4,0.5-6.5,1.3"/>
<path class="st0" d="M182.4,201.4c2.8,2.5,4.3,6,6.2,9.1c1.4,2.3,2.5,4.8,4.2,7c2,2.6,4.8,4.3,7.8,5.5c3.5,1.4,6.6-0.1,9.4-3.7
	c1.6-2,2.1-4.3,2.3-6.7c0.1-1.1,0.4-2.1,0.5-3.1c0.2-1.4,0.2-3-1-4.1c-1-0.9-1-2.2-1.6-3.2c-1.3-2.4-2.6-4.7-3.3-7.4
	c-0.3-1.3-1.8-2.2-1.7-3.8"/>
<path class="st0" d="M204.8,225c0.5,1.7-0.6,3.1-1.1,4.5c-1.5,4.1-3.6,8-5.7,11.9c-1.7,3.1-3.9,5.9-5.4,9.2
	c-0.1,0.1-0.5,0.1-0.7,0.2"/>
<path class="st0" d="M317.8,90.5c1.4,0.2,2.5,0.8,3.8,1.3c0.7,0.2,1.2,0.4,0.8,1.6c-1.3,4.5-3.8,8.1-7.7,10.8
	c-3.4,2.3-6.8,4.9-11,5.8c-1.1,0.2-2.3,0.7-3.4,0"/>
<path class="st0" d="M229.9,216.1c-0.1,0.3,0.1,0.6-0.2,0.9c-2.1,2.6-3.3,5.6-3.6,9c-0.1,1.4-1.2,2.3-2.1,3.2
	c-0.5,0.5-1,0.4-1.6,0.2c-4.4-1.3-7.1-4.5-9.1-8.3c-1.5-2.8,1-7.8,4.1-8.4c1.5-0.3,3.2-0.1,4.7,0.8c2.3,1.4,4.6,2.9,6.8,4.3"/>
<path class="st0" d="M274.2,194c-1.1,2.6-1.9,5.3-2.8,7.9c-1.7,4.7-3.2,9.4-5.5,13.8c-0.5,0.9-0.3,1.6-0.3,2.4"/>
<path class="st0" d="M431.8,143.1c-0.5,0.6-0.9,1.1-1.8,1.3c-1.8,0.5-3.4,1.6-5,2.6c-2.9,1.8-6.2,1.5-9.2,2.4
	c-4.2,1.3-8.9,1.2-12.6,4.1"/>
<path class="st0" d="M273.1,111.6c0.1,0.8-0.4,1.2-0.9,1.6c-5.8,5-11.4,10.3-17.5,15.1c-0.5,0.4-1,1-1.8,0.9"/>
<path class="st0" d="M222.2,201.7c1.1,2.8,3,5.1,4.3,7.8c0.7,1.5,1.7,2.6,3.1,3.4c3.5,2.2,4.7,5.6,4.9,9.5c0.1,1.2-0.1,2.4-0.1,3.6
	c0.1,1.1-0.2,2.1-1.1,2.9"/>
<path class="st0" d="M202.6,162.5c-0.6,1.9-2.6,1.1-3.8,2c-3.5,2.4-7.2,4.6-8.9,8.7c-1.6,3.6-1.5,7.3,1.2,10.6
	c0.6,0.8,1.2,1.7,1.8,2.5c1.1,1.3,2.1,2.6,3.9,2.9c0.6,0.1,1.1,0.8,1.6,1.2"/>
<path class="st0" d="M279.2,153.2c-1.2,0-2.4,0.6-3.4,1.2c-3.8,2-7.9,2.3-11.9,2.9c-3.7,0.6-7.4,0-11.1,0.3
	c-2.7,0.2-5.4-0.1-8.1-0.1c-2.4,0.1-4.7-0.5-7-0.6c-1.7-0.1-3.5,0-5.2,0.2c-3.5,0.5-7.1,0.8-10.6,1c-1.8,0.1-3.3,1.1-5,1.3
	c-0.9,0.1-1.7,0-2.5-0.2"/>
<path class="st0" d="M307,122c1.5-0.3,2.7,0.3,3.8,1.1c3.5,2.7,7.4,4.3,11.7,5c0.4,0.1,0.6,0.3,0.9,0.4c1.4,0.8,2.5,0.6,4,0.1
	c1.7-0.6,3.6,0.7,5.4,1.1c3.3,0.8,6.6,1.7,10.1,1.9c3.5,0.2,7.1,0.8,10.6,1.2c0.7,0.1,1.5,0.1,2.2-0.4"/>
<path class="st0" d="M280.5,258c1.9,0.7,3.8,1.7,5.8,2c2.9,0.4,5.5,1.4,8.1,2.5c1.9,0.8,3.9,1,5.9,1.6c0.6-1.1,1-2.2,1.2-3.3
	c-4.2-2.3-8.7-3.2-13.2-4.3c-1.9-0.4-3.5-1.7-5.6-1.5c-0.6,0.1-1.3-0.1-2,0.1"/>
<path class="st0" d="M222.9,178.9c0.1-2.3-0.4-4.6-0.4-7c0-1.6,0.6-4.2-2.3-5.1c-1-0.3-1.7-1.7-2.6-2.6c-0.8-0.8-1.6-1-2.9-0.8
	c-3.8,0.4-7.2,1.9-10.8,2.9c-1.7,0.5-3.5,1.4-4.9,2.7c-0.9,0.8-1.7,1.7-3.1,2c-1.4,0.3-1.6,2.2-1.8,3.6c-0.5,3.7,0.5,7.1,2.8,10.1
	c0.5,0.6,1,1.3,1.1,2.1"/>
<path class="st0" d="M347.4,87.5c2.6,4.5,6.6,6.8,11.7,7.3c1.3,0.1,2.6-0.1,4-0.2c0.2,0,0.5,0.1,0.7-0.2c1-1.2,2.6-1.3,3.8-2.2"/>
<path class="st0" d="M252.1,219.1c-3.2-1.4-6.6-2.1-10.1-1.3c-2.1,0.4-3.7,1.6-5.4,2.8c-0.6,0.4-1.1,0.9-1.8,1.2"/>
<path class="st0" d="M221.7,190.6c-1-0.9-2.3-0.6-3.4-0.6c-4.1,0-8.2,0.3-12.2,0.5c-2,0.1-4,0.1-5.9-0.3c-0.6-0.1-1.3,0.2-1.7,0.6
	c-4.5,4.2-9.9,6.7-15.2,9.5c-4.3,2.3-8.4,4.7-12.6,7.1c-4.3,2.5-8.2,5.8-13.1,7.2c-0.2,0.1-0.6,0.5-0.9,0"/>
<path class="st0" d="M339.2,232.2c0,0.5,0,0.9,0.5,1.1c4.5,1.9,9,3.7,14,3.6c0.2,0,0.5,0.1,0.7,0.2"/>
<path class="st0" d="M348.2,89.4c-3,2.2-5.8,4.5-8.6,7c-5.1,4.5-10.2,9.1-16.5,11.9c-1.4,0.6-1.9,1.4-1.4,2.9
	c0.5,1.6-0.7,2.8-1.5,3.7c-1.6,1.9-2.3,4-2.7,6.3c-0.2,1.1,0.6,1.9,0.2,2.9"/>
<path class="st0" d="M322.8,110.3c-1.5-0.6-2.9-0.8-4.4,0.3c-1,0.7-2.5,0.7-3.7,1.2c-1.8,0.8-2.6,2.7-3.9,4c-1.5,1.6-3,3.2-4.7,4.6
	c-2.7,2.1-4.5,4.9-7,7.2"/>
<path class="st0" d="M188.6,179.6c-4.2,4.3-9.1,7.8-13,12.4c-3.2,3.7-6.5,7.3-10.1,10.6c-1.3,1.2-2.9,2.4-3.3,4.4"/>
<path class="st0" d="M214.9,231.6c-1.7,5.2-4.3,9.9-6.8,14.8"/>
<path class="st0" d="M268.6,133.9c-3.5,2.3-6.9,4.9-10.5,7c-2.4,1.4-5,2.5-7,4.7c-0.6,0.7-1.9,1.1-2.8,1.7
	c-4.1,2.6-7.5,5.9-10.8,9.4"/>
<path class="st0" d="M207.9,208.1c-1.6-0.9-1.9-2.6-2.9-4c-1-1.5-1.8-3.1-3.4-4.2c-0.7-0.4-1.2-0.6-2-0.6c-1,0.1-2,0.4-3.1,0.5
	c-0.8,0-1.8,0.4-2.4,1.3c-1.4,2.2-3.1,4.3-2.7,7.2c0.4,2.4,1.3,4.6,2.7,6.5c0.7,1,1.7,1.8,2.5,2.7c0.9,1,2,1.3,3.2,0.9"/>
<path class="st0" d="M213.8,143.6c-1.7,0.3-2.9,1-4,2.5c-2.2,3.1-4.5,6.2-7.5,8.7"/>
<path class="st0" d="M259.1,231.8c-1.7,3.9-3.4,7.8-5.3,11.7c-0.4,0.8-0.5,1.6-0.7,2.4"/>
<path class="st0" d="M336.6,99.5c1.4,1.1,3.2,1.3,4.9,1.8c2.7,0.8,5,2.2,7,4c2.3,2.2,2,4.4,0.7,7.4c-1.4,3.3-4.3,4-7.1,5.2"/>
<path class="st0" d="M223.3,172.4c1.1,3.2,2.5,6.4-0.3,9.6c-0.5,0.5-0.8,1.3-1.1,2c-0.6,1.7-1.9,2.2-3.3,2.6
	c-3.4,1.1-6.9,1.1-10.4,1.1c-1.8,0-3.6-0.4-5.4-0.1c-1,0.2-1.9-1-3.1-0.9"/>
<path class="st0" d="M208.4,124.3c-0.1,0.8,0.6,1.2,0.9,1.8c2.4,3.8,4.5,7.6,4.7,12.2c0,1.7,0.1,3.4-0.2,5"/>
<path class="st0" d="M227.4,156.7c0.2-1.4-0.2-2.6-1.6-3.3c-1.1-0.5-2.1-1.2-3.1-2c-0.7-0.6-1.2-0.4-1.6,0.2
	c-1.2,1.5-2.9,2.4-4.3,3.6c-0.9,0.8-1.9,1.4-2.5,2.6c-0.6,1.2-2.3,2-3.7,2.1c-2.7,0.4-5.3,1.3-8.1,1.3c-0.3-0.6-0.3-1.4-0.1-2
	c1-3.2-0.2-5.8-2.4-8.1c-0.9-0.9-1.3-2.4-2.9-2.3"/>
<path class="st0" d="M243.6,235.2c-1.3,1.7-2,3.7-2.6,5.8c-0.5,1.8-1.6,3.4-2.1,5.2"/>
<path class="st0" d="M295.1,72.7c2.5,0.4,3.5,2.6,5.1,4.1c1.4,1.4,1.8,3.4,2.8,5.1c0.4,0.6-0.3,1.4-0.8,2c-1.7,1.9-3.4,3.8-5,5.8
	c-0.8,1-1.5,2-1.5,3.4"/>
<path class="st0" d="M207.2,209c-2.3,0.1-2.7,2.3-3.9,3.6c-1.4,1.5-1.9,3.6-2.9,5.4c-0.4,0.7-0.1,1.2,0.4,1.6
	c0.2-0.1,0.5-0.2,0.7-0.4"/>
<path class="st0" d="M328,107.3c0.2,1.4,1.6,1.4,2.4,1.7c3,1.2,4.1,3.6,4.6,6.4c0.1,0.4,0.4,0.6,0.6,0.9"/>
<path class="st0" d="M391,8.4c1.1,0.5,1.5,1.6,2.3,2.4c2,2.2,4.7,3.1,7.2,4.5"/>
<path class="st0" d="M260.9,146c-2.6,0.1-5.1,0.5-7.7,0.4c-0.7,0-1.4,0-2-0.4"/>
<path class="st0" d="M206,222.4c2.8,3.8,6.4,6.8,10.6,8.8c3.1,1.5,6.5,2,9.9,1.9c1.3,0,2.6-1,4-1.5c0.3-0.1,0.9-0.6,0.9,0.3"/>
<path class="st0" d="M228.1,235.8c0,1.4-0.8,2.4-1.3,3.6c-0.8,1.9-1.7,3.7-2.5,5.6c-0.2,0.4-0.6,0.8-0.2,1.3"/>
<path class="st0" d="M429.7,55.2c1.4,1.9,2.9,3.7,4,5.7c0.5,0.9,0.9,1.9,1.2,2.9"/>
<path class="st0" d="M164.8,210.4c-0.4-0.7-0.9-1.1-1.6-1.4c-0.7-0.4-0.6-1.2-0.9-1.9c-2.2,0.7-3.4,2.5-4.6,4.3
	c-0.6,0.9-1.8,1.7-1.4,3.2c0.2,0.6-0.9,0.5-1.5,0.5"/>
<path class="st0" d="M214.1,142.4c4.2,1.6,8.6,1.8,12.9,1.2c1-0.1,1.9-0.3,2.9,0.2"/>
<path class="st0" d="M337.7,123.6c-1.5,2-3.9,2.7-6,3.7c-0.7,0.3-1.4,0.6-2,1.1"/>
<path class="st0" d="M288.4,236.5c-1.1,2.1-1.8,4.4-1.6,6.8c0,0.7-0.3,1.4-0.8,1.8c-1.5,1.2-1.6,2.9-1.6,4.5"/>
<path class="st0" d="M236.8,226.1c0.7,2.2,2.9,2.4,4.5,3.2c0.3,0.1,0.6,0.2,0.9,0.4c2.8,1.6,5.7,1.5,8.4-0.2"/>
<path class="st0" d="M354.1,258.9c0.3,2.6-0.9,5-1.1,7.5"/>
<path class="st0" d="M252.8,217.9c-1.6,2.9-1.5,6.2-1.8,9.4c-0.1,1.1-0.5,2.2,0.2,3.2"/>
<path class="st0" d="M247.9,188.1c0.2,3.4,0.4,6.8,0.7,10.3c0.1,0.7-0.3,1.8,1.1,1.8"/>
<path class="st0" d="M300.1,112.3c-0.5,2.1-1.8,3.8-2.9,5.6c-0.2,0.4-0.4,0.7-0.5,1.1"/>
<path class="st0" d="M369.4,57c-2,0.1-3.7,1.1-5.6,1.6c-1.6,0.5-3.4,1.1-4.9,1.2c-1.7,0.2-3.8,1.4-5.6-0.3c-0.1-0.2-0.7,0-1,0.2
	c-0.8,0.3-1.6,0.3-2.3,0"/>
<path class="st0" d="M220.6,153.9c0.4,0.8,1.3,0.8,2,1.1c1.1,0.6,2.1,1.4,2.5,2.7"/>
<path class="st0" d="M321.7,287.3c1-1.3,2.4-0.5,3.2-0.2c1.3,0.4,2.7,0.8,4,1.3"/>
<path class="st0" d="M402.1,154.8c-1.3,1.9,0.1,3.5,0.5,5.2"/>
<path class="st0" d="M315.5,79.4c0.9,1,2,1.9,2.4,3.2c0.3,0.8,1.3,0.7,1.8,1.3"/>
<path class="st0" d="M368.5,299.5c0,1.2,0.2,2.5-0.5,3.6c-0.3,0.5-0.2,1,0,1.4"/>
<path class="st0" d="M271.9,112.8c-1.1-1.3-2,0.1-2.9,0.4c-0.7,0.2-1.2,0.9-2,1"/>
<path class="st0" d="M312.9,112.8c-0.5-0.4-1-0.7-1.6-0.5c-3.8,1-7.5,0.2-11.1-0.4c-0.2,0-0.4-0.3-0.5-0.5"/>
<path class="st0" d="M220.2,167c-0.4,1.6,0.5,2.4,1.8,3.1"/>
<path class="st0" d="M273.9,260.6c-0.2,0.8-0.4,1.7-0.7,2.5c-0.4,0.8,0.1,1.2,0.6,1.6"/>
<path class="st0" d="M341.3,119c-0.9,1.2-2.4,0.7-3.4,1.4"/>
<path class="st0" d="M403,154.6c1.2,0.8,1,2.4,2,3.4"/>
<path class="st0" d="M220.2,162.5c-1.2-0.4-2.3-0.2-3.1,0.9"/>
<path class="st0" d="M55.1,147c1.2,0.7,1.5,1.8,1.4,3.1"/>
<path class="st0" d="M267.7,223.5c-0.3,1.3,0.4,2.4,0.7,3.6"/>
<path class="st0" d="M276.5,262.2c-0.4-1.3-1.8-0.7-2.5-1.3"/>
<path class="st0" d="M341.7,118.6c-0.3-0.8-0.5-1-1.4-0.7c-1.5,0.4-2.8,0.2-3.6-1.3"/>
<path class="st0" d="M349.8,59.4c-0.4,1.4-1.5,1.5-2.7,1.4"/>
<path class="st0" d="M280.2,254.3c0.3,1.4,0.5,2.9-0.5,4.1"/>
<path class="st0" d="M478,136.6c-0.6-0.6-1.3-1.2-2.2-0.4"/>
<path class="st0" d="M350.9,102.6c0.2,0.6,0.5,1.3,0.3,2.2c-0.8-0.1-1.6,0-2.3,0.5"/>
<path class="st0" d="M330.3,123.6c-0.8-0.1-1.4,0.6-2.2,0.7c0.1,0.3,0.2,0.6,0.4,0.9"/>
<path class="st0" d="M479.3,138.2c0.5,0.5,0.6,1,0.2,1.6"/>
<path class="st0" d="M351.2,60.1c0,0.5-0.1,1,0.4,1.4"/>
</svg>
