<?xml version="1.0" encoding="UTF-8"?>
<svg xmlns="http://www.w3.org/2000/svg" width="558.2" height="312.4" viewBox="0 0 558.2 312.4">
  <defs>
    <style>
      .f, .g {
        fill: none;
        stroke: #484848;
        stroke-linecap: round;
        stroke-linejoin: round;
      }

      .g {
        stroke-width: .75px;
      }

      .h {
        fill: #484848;
        stroke-width: 0px;
      }
    </style>
  </defs>
  <g id="a">
    <path class="f" d="M1,225c1.1-.8,2.5-.6,3.5-.3,3.5,1.3,7.2,2.1,10.8,2.4,2.8.2,5.2,1.5,7.7,2.4s4.7,2.4,7.2,2.9c4.1.9,8,2.7,12,3.8,2.5.7,4.9,1.6,7.4,2.4,3.6,1.2,7.5,1.5,11.2,2.5,3.8,1.1,7.8,1.6,11.5,2.8,1.5.5,3.2.5,4.8.8,3.8.7,7.7,1.6,11.5,2.3,6.7,1.3,13,4,19.6,5.4,4.9,1,9.8,2.6,14.9,2.8,5.2.1,10.1,1.4,14.9,3.1,2,.7,4.1.9,6.1,1.2,2,.2,3.9.9,5.9,1.2,5.4.9,10.6,2.5,15.9,3.8,4.3,1,8.6,1.8,12.9,2.7,2.6.6,5.1,1.5,7.6,2.5,5.7,2.4,11.6,4.3,17.6,5.7,6.1,1.5,12,3.7,17.9,5.5,3.1.9,6.1,1.8,9.2,2.5,3.5.8,6.9,1.5,10.4,2.1,2.5.5,5,1.2,7.6,1.8,1.5.3,2.9.9,4.3,1.5,2.9,1.2,6,1.3,9,1.4,3.1.1,6.1.6,9,1.7,2.1.8,4.5.7,6.7,1.2,4.2,1,8.4,1.6,12.6,2.6,2.7.6,5.4.8,8.1,1.2,4.6.7,9.2,1.2,13.7,2.6,5.4,1.7,10.9,3.1,16.5,4,3.2.5,6.4,1.4,9.7,1.3,1.8,0,3.6.2,5.4.8,2.1.8,4.4.8,6.7,1,3.2.4,6.3,1.2,9.5,1,1.5-.1,3.1,0,4.7,0,.5.6-.1,1.2,0,1.8"/>
    <path class="f" d="M539,22.2c-4.4,2.5-9.4,3.1-14.2,4.5-2.3.6-4.4,1.9-6.8,2.4-4.3.9-8.4,2.4-12.6,3.5-6.2,1.5-12.3,3.5-18.4,5.6-4.7,1.6-9.4,3.3-14.2,4.7-5.2,1.6-10.6,2.7-15.8,4.4-3.5,1.1-7,1.9-10.5,2.8-3.7,1-7.5,1.8-11.2,2.8-2.6.7-5.5,1.3-8.4,1.2-1.8-.1-3.1,1.5-2.8,3.2.1.7-.2,1.1-.3,1.6-.3,1.3-.9,2.5-1.4,3.8"/>
    <path class="f" d="M359.3,43.4c-.7-.7-1.6-1.1-2.5-1.5-1.6-.5-3.3-.8-4.9-1.6-1.8-.9-3.8-.2-5.8-.5-4.6-.6-8.9,1-13.1,2.4-4.5,1.5-9,3.1-13.7,4-1.8.3-3.4,1.4-5.2,1.7-6.6,1.1-12.8,3.6-19.1,6-3.2,1.2-6.1,3.1-9.2,4.6-3.7,1.9-7.1,4.3-10.3,7-3.8,3.2-6.6,6.8-8.1,11.6-.4,1.4-.4,2.6-.1,3.8,1.1,4.4,3.1,8.3,6,11.9,1.8,2.3,3.3,4.8,5.3,6.9,1.4,1.5,3.3,2.2,4.6,3.7"/>
    <path class="f" d="M1.5,224.2c.8-2.9,2.3-5.5,4-7.9,3.9-5.6,8.3-10.8,10.9-17.2,1-2.5,3-4.7,4.7-6.9,2.1-2.9,4.6-5.5,6.4-8.8,2.7-4.9,6.2-9.2,9.8-13.4,2.2-2.6,3.8-5.5,5.6-8.4,1.7-2.8,3.8-5.4,5.9-8,1.9-2.4,3.5-5,5.3-7.5.9-1.3.9-3,2.4-4.2,5.3,2.1,10.3,5.1,15.1,8.6,3.1,2.3,6.6,4.1,10.2,5.6,3.7,1.5,7.4,3,10.9,4.9,2.3,1.2,4.5,2.8,6.9,3.9,3.6,1.6,7.2,3.1,11.1,3.8,2.1.4,4.3.8,6.2,2.3.6.5,1.4.8,2.1.9,2.7.5,5.1,1.8,7.5,3,5.3,2.4,10.6,4.7,16,6.6,5.4,1.8,10.7,3.7,16.2,5.1,3.8,1,7.5,2,11.3,2.7.9.2,1.4,1.1,2.3,1"/>
    <path class="f" d="M355.6,130.1c0,.9,1,.7,1.2.7,2.45.63,4.54,1.07,7.4,1.58,3.55.73,6.3.79,9.6,1.39,4,.7,7.9,1.73,12,2.13,5.1.6,10.2,1.4,15.3,2.1,2.5.3,4.9.4,7.4.7,3.1.4,6.3.9,9.4,1.5,1.1.2,2.2.1,3.2.3,3.2.4,6.2,1.2,9.3,1.8,6.2,1.2,11.2-.2,17.8-1.5,3.4-.7,6.8-1.4,10.1-2.5,4-1.4,8.1-2.5,12.2-3.6,1.3-.4,2.3-1.5,3.9-1.1-.1,3.2,2.5,4.5,4.6,6.2,1.6,1.4,3.4,2.6,5,4,1.3,1,2,2.5,2.6,3.8,1.8,3.9,4.4,7.3,6.6,10.9,2.9,4.6,4.5,9.6,6.4,14.6,1.1,2.8,2.1,5.6,3.3,8.3,1.2,2.8,2.6,5.6,3.4,8.6.4,1.7,0,3.5.5,5.2.7,2.4,1.1,4.8,1.5,7.2.5,3.4,2,6.4,2.7,9.7.9,4.5,2.1,9,1.9,13.7-.2,3.4-.1,6.8-.8,10.1-.2,1,0,2,0,3.1"/>
    <path class="f" d="M405.3,158.4c1.9,1.4,3.2,3.4,4,5.6,1.2,3,2.9,5.7,4.3,8.6,1.2,2.5,1.8,5.1,2.3,7.7.3,1.4.8,2.7,1.5,3.9,1.6,2.9,2.4,5.9,4,8.8,2,3.7,3.5,7.6,4.8,11.5.9,2.6,1.9,5,3.1,7.4.8,1.5,1.5,3.1,1.6,4.9.1,1.4,1,2.6,1.5,3.9,1.3,3.2,1.8,6.5,1.8,9.9,0,2.3.8,4.6,1.1,6.9.1.6.5.9.8,1.2,1.7,2.2,2,4.7,2,7.4,0,3-.2,5.6-.7,8.5-.2,1.1-1.1,1.5-2,.7-1.1-1-2-2.1-2.6-3.6-1.8-4.6-2.6-9.6-4.3-14.2-.1-.4-.4-.8-.7-1.1"/>
    <path class="f" d="M283.9,249.8c4.5,1.5,9.3,2,13.9,3.4,2.1.7,4.2,1.8,6.3,2.1,4.3.5,8.3,2.2,12.6,2.9,4,.6,8,1.5,11.8,2.6,4.6,1.3,9.4,1.6,13.9,3.2,2.2.8,4.6.7,7,1"/>
    <path class="f" d="M436.5,233.3c-1.9.4-3.7.8-5.4,1.7-2.5,1.3-5.4,2-8.2,2-1.9,0-3.6.7-5.4.9-3.5.4-6.7,2-10.2,2.3s-7.1.6-10.6.9c-3.6.4-7.2.5-10.9,1.5-3.5.9-6.8,2.1-10.2,3.4-2.7,1-5.2,2.4-8,3.1-4.8,1.2-9.5,2.6-14.6,1.5-1.6-.4-3.2-.4-4.9-.4-4.9.1-9.6-1.4-14.4-2.1-2.7-.4-5.4-.8-8.1-1.2-1.8-.3-3.4-.7-5-1.4-3-1.3-6.1-2.6-9.5-2.8-2.4-.2-4.6-1.4-7-1.9-4.4-.8-8.4-2.5-12.6-3.9-3.7-1.2-7.5-2.3-11.1-3.6-3.4-1.2-6.7-2.8-9.7-4.9-1-.7-2.1-1-3.4-1.2-2.7-.4-5.3-1.4-7.8-2.6"/>
    <path class="f" d="M361.88,58.99c1.99-2.19,3.16-3.53,4.06-4.53,2.3-2.3,2.86-3.16,5.26-5.46,3.6-3.4,6.21-6.33,8.38-9.33,2.1-3.2,6.52-7.27,8.92-10.07,3.7-4.5,7.9-8.7,11.6-13.2,2.2-2.7,4.5-5.4,5.8-8.8.3-.9.4-1.5-.5-2.2-2-1.4-3.9-3-5.8-4.5-3.5,1.6-6.3,4.3-8.8,7.2-1.4,1.6-3.2,3-4.6,4.7-2.7,3.2-5.5,6.5-8.5,9.5-2.6,2.7-5.2,5.5-7.7,8.4-2.1,2.5-4.1,5.2-6,7.8-2.5,3.4-4.41,5.19-7.11,8.49-1.5,1.8-3.27,3.75-5.03,5.51-.11.12-2.4,2.53-2.4,2.53,0,0-1.5,1.56-1.68,1.96-.1.2-4.38,4.9-4.38,4.9"/>
    <path class="f" d="M233.2,229.6c2.9,1.5,5.8,2.7,9,3.5.9.2,1.7.8,2.7,1,2.5.6,4.6-.1,6.5-1.7,2.2-1.9,4.2-4,4.8-6.8,1.1-4.6-.2-7.9-4.5-10.2-.64-.55-1.2-.8-1.8-1.2-1.9-1.2-4.35-2.16-6.73-2.93-2.37-.58-6.2-1.87-8.37-2.34-2.02-.03-5.09-3.42-7.57-7.23"/>
    <path class="f" d="M436.5,63.9c-.8.6-1.7.1-2.5.1-3.4,0-6.7.4-10.1.1-5.1-.5-9.8-2.2-14.6-3.8-5.2-1.8-10.3-4.2-15.5-6.1-4.3-1.6-8.5-3.2-13.1-3.6-.4,0-.9,0-1.3-.2-2.3-.8-4.7-1.5-7.2-1.6"/>
    <path class="f" d="M330.3,289.1c1.4-2.8,1-3.6-2.5-4.9-2.6-.9-5.4-1.2-8.1-1.9-3-.8-6-1.5-9-2.4-3.4-1-6.8-1.7-10.2-2.6-4.7-1.2-9.4-2-14.1-3.5-4.1-1.4-8.3-2.4-12.7-2.9-.2,1.5-1.8,2.5-1.6,4.3,1.9.9,4,1.2,5.9,1.4,2.4.1,4.5,1.1,6.8,1.6,2.9.5,5.8,1.4,8.6,2.1,3.4.8,6.7,2,10.3,2.3,2.9.3,5.7,1.5,8.6,1.6,1.2,0,2,1,3.2,1.1,2.1.3,4.1.9,6.1,1.4"/>
    <path class="f" d="M222.2,150.9c.9-1.7,2.9-2.3,4.2-3.6,1.2-1.2,2.6-2.3,3.9-3.3,1.3-.9,2.4-1.9,3.7-2.9,6-4.5,11.7-9.4,17.5-14.2,4.8-3.9,9.3-8,14.2-11.8.6-.4,1.2-.8,2-1.4-1.2-.9-2-1.1-3.1-1-2.2.3-4.5-.2-6.8,0-3.1.3-6.2.8-9.4.6-1.9-.1-3.7-.3-5.6-.3-2.9,0-5.9.2-8.8.3-3.2.1-6.5.3-9.7.5-2.8.2-5.6.5-8.5.7-3.5.2-7,.4-10.4.6-2.1.1-3.8,1.6-5.8,1.5-3.4-.1-5.3,2.4-7.3,4.2-2.1,1.9-3.3,4.9-3.9,7.8-.7,3.5-2.2,6.9-2.7,10.4-.9,6.9-4.5,12.8-6.9,19.1-1.1,2.9-1.7,5.8-1.8,8.8-.2,5.5-.5,10.9-.4,16.4,0,1.5.5,3-.2,4.5-.1.3.4.9.6,1.3"/>
    <path class="f" d="M291.8,117.9c2.8,2.6,5.2,5.6,6.7,9.2.5,1.2,1.2,2.3,1.9,3.5,2.8,4.8,6.8,8.2,11.6,10.8,4.2,2.3,8.1,5.1,12.3,7.5,4.2,2.5,8.4,5,13,6.6,4.4,1.5,8.1,4.2,12.3,5.8,1.9.7,3.8,1.3,5.6,1.6,3.1.4,5.8,1.8,8.8,2.3,1.6.3,3.1.7,4.7.7,3.4,0,6.8-.1,10.2,0,5.4.2,10.6-1.1,15.9-2.3,3.8-.9,7.1-2.7,10.4-4.6"/>
    <path class="f" d="M366.3,93.4c2.4,3.9,4.3,8.2,7.4,11.7,2.6,3,5.5,5.9,8.9,8,1.8,1.1,4.1,1.6,6.3,2.2,5.1,1.6,10.5,2.3,15.6,3.6.9.2,1.9.1,2.9.2"/>
    <path class="f" d="M557.2,221.6c-4.7,1.5-9.2,3.4-13.7,5.3-4.2,1.7-8.5,3.3-12.7,5.1-4.1,1.7-8.4,2.8-12.3,5.1-1.8,1-3.8,1.6-5.8,2-5.1,1.1-9.9,3.1-14.7,4.8-1.5.5-3,1.3-4.4,2.4-2.1,1.7-4.8,2.3-7.4,3-3.7,1-7.5,2.1-11.5,2.1-3.4-.1-6.9,0-10.2-.4-2.1-.2-4,.5-6,1-.5.1-1.1.4-1.6.3-3-.7-5.6.6-8.2,1.4-3.6,1.1-7.2,1.4-10.8,1.3"/>
    <path class="f" d="M366,227.7c-3.7,1-7.3,2.6-11.2,2.8-4.6.2-9.1,1.3-13.7.8-2.6-.3-5.3-.6-7.9-1.1-5.3-.9-10.3-4.8-15.3-6.6-4.4-3.2-8.2-4.9-12.4-8.9-5.2-4.3-12.2-8.6-20.2-14-3.1-2.4-6.2-5-9.7-6.6-3.7-1.7-7.5-3.4-11.7-3.9-1.7-.2-3.3-.9-4.9-1.8-2.8-1.6-5.9-1.3-9-1.1-2.3.2-4.6.3-6.8.3-2.9,0-5.5,1.1-8.3,1.6-2.9.5-5.9.7-8.8.6-.2,0-.6-.1-.9-.1q-3.3-.1-3.3,3.1c0,1.9.2,3.7-.1,5.6-.1.4-.1,1.1.2,1.3,1,1.1.3,1.7-.4,2.6-2.3-1.2-4.6-2.6-7-.5"/>
    <path class="f" d="M318.3,83.5c-1.6,2.7-3.6,5-5.6,7.4-2.8,3.3-5.5,6.7-8.6,9.7-5.2,4.9-10,10.2-15.2,15-3.4,3.1-6.8,6.1-10.3,9.1-1.6,1.4-3.5,2.1-5.4,2.8-1.9.7-3.4,1.9-4.6,3.5-.9,1.1-.3,1.9,1,2.5,1.7.8,3.1,0,4.5-.6,2.8-1.2,5.2-3.1,7.2-5.4,2.8-3.1,5.9-6,9-8.8,3-2.6,6.1-5.2,8.8-7.9,2.7-2.7,5.4-5.5,7.9-8.5,2.2-2.6,4.4-5.3,7.1-7.5,1.5-1.2,2.4-3,3.4-4.6.7-1.1,1.2-2.2,2-3.2.4-.4.7-1.1.5-1.6-.5-1.5.5-2.3,1.3-3.3,1.4-1.8,2.7-3.7,3.7-5.7-1.9-1.4-3.4,0-5,.3-3.7.8-6.7,3.1-9.5,5.4-4.2,3.5-8.4,7-13,10-4.3,2.9-8.2,6.3-12.2,9.6-2.7,2.2-5.2,4.6-8,6.8-1.5,1.2-3.1,2.6-5.2,2.8-.3,0-.8.3-.9.9"/>
    <path class="f" d="M354.3,60.5c-2.5,1.5-5,2.5-7.9,1.5-.2-.1-.5,0-.7,0-1.9,0-3.7-.2-5.6-.5-2.6-.4-5.1.2-7.5,1.2-4.1,1.7-7.6,4.3-11.2,6.8-3.4,2.4-7,4.5-10.4,6.9-2.4,1.7-4.6,3.6-6.9,5.4-.2.2-.6.2-.9.4"/>
    <path class="f" d="M270.1,228.4c-1.6,2.4-2.3,5.3-3.5,7.9-1.1,2.3-2.1,4.8-3.5,6.9-1.7,2.4-2.7,5.1-3.9,7.8-.6,1.4-1.4,2.6-2,4-1.3,3-2.5,6-3.8,9-.3.8-.6,1.6-1.3,2.2"/>
    <path class="f" d="M308.8,275.7c.6-1.1.8-2.5,1.8-3.4.4-.4.3-1.1,0-1.7-4.1-.2-8-1.6-11.8-3-1.6-.5-3.2-1.1-4.7-1.8-1-.5-2.1-.4-3.1-.6-4.4-1-8.4-3.2-13.1-3-1.4.1-1.8.7-2,1.9-.1,1.2.4,1.7,1.6,1.8,2.3.1,4.4,1.2,6.6,1.8,4.6,1.2,9.1,2.9,13.7,4.2,3.4,1,6.8,2.4,10.4,2.2.3,0,.6.2.9.3"/>
    <path class="f" d="M435.6,64.4c1.7,3.6,4.3,6.6,6.9,9.5,4.3,4.9,7.8,10.4,10.3,16.4,1.6,3.7,2.5,7.7,2.6,11.8.1,2.1.6,4.1,1,6.1.6,2.8.9,5.6,1,8.5.2,4.2.1,8.4,0,12.6-.1,2.6-1.2,5-1.8,7.6-.2.7-.4,1.3-.1,2"/>
    <path class="f" d="M546.2,113.4c-1.5,0-3,.1-4.5.3-.7.1-1.5.2-2.2-.2-2.1-1.2-4-.2-6,.3-2.1.5-3.3,2.2-5,3.3-.8.6-1.7,1.2-2.3,2-1.1,1.2-2.6,1.3-3.8.8-2.7-1.1-4.7.4-6.7,1.6-1,.6-2,1.3-2.6,2.4s-1.9,1.1-3,1.5c-.9.3-1.2-.4-1.2-.6-.2-1.5-1.4-1.5-2.4-1.8-1.4-.3-2.9-.6-4.3-.5s-2.9.6-3.6,1.9c-1.2,2.4-3,3.6-5.6,4-2,.3-3.9,1.1-5.6,2.2-2,1.3-4.4,1.1-6.6,1.4-2.2.3-4.4.5-6.5,1.3"/>
    <path class="f" d="M182.4,201.4c2.8,2.5,4.3,6,6.2,9.1,1.4,2.3,2.5,4.8,4.2,7,2,2.6,4.8,4.3,7.8,5.5,3.5,1.4,6.6-.1,9.4-3.7,1.6-2,2.1-4.3,2.3-6.7.1-1.1.4-2.1.5-3.1.2-1.4.2-3-1-4.1-1-.9-1-2.2-1.6-3.2-1.3-2.4-2.6-4.7-3.3-7.4-.3-1.3-1.8-2.2-1.7-3.8"/>
    <path class="f" d="M204.8,225c.5,1.7-.6,3.1-1.1,4.5-1.5,4.1-3.6,8-5.7,11.9-1.7,3.1-3.9,5.9-5.4,9.2-.1.1-.5.1-.7.2"/>
    <path class="f" d="M317.8,90.5c1.4.2,2.5.8,3.8,1.3.7.2,1.2.4.8,1.6-1.3,4.5-3.8,8.1-7.7,10.8-3.4,2.3-6.8,4.9-11,5.8-1.1.2-2.3.7-3.4,0"/>
    <path class="f" d="M229.9,216.1c-.1.3.1.6-.2.9-2.1,2.6-3.3,5.6-3.6,9-.1,1.4-1.2,2.3-2.1,3.2-.5.5-1,.4-1.6.2-4.4-1.3-7.1-4.5-9.1-8.3-1.5-2.8,1-7.8,4.1-8.4,1.5-.3,3.2-.1,4.7.8,2.3,1.4,4.6,2.9,6.8,4.3"/>
    <path class="f" d="M266.48,190.66c0,2.78.37,6.61-.32,7.92-1.7,4.7-3.53,10.59-5.83,14.99-.5.9-2.57,4.56-3.76,6.06"/>
    <path class="f" d="M431.8,143.1c-.5.6-.9,1.1-1.8,1.3-1.8.5-3.4,1.6-5,2.6-2.9,1.8-6.2,1.5-9.2,2.4-4.2,1.3-8.9,1.2-12.6,4.1"/>
    <path class="f" d="M273.1,111.6c.1.8-.4,1.2-.9,1.6-5.8,5-11.4,10.3-17.5,15.1-.5.4-1,1-1.8.9"/>
    <path class="f" d="M222.2,201.7c1.1,2.8,3,5.1,4.3,7.8.7,1.5,1.7,2.6,3.1,3.4,3.5,2.2,4.7,5.6,4.9,9.5.1,1.2-.1,2.4-.1,3.6.1,1.1-.2,2.1-1.1,2.9"/>
    <path class="f" d="M202.6,162.5c-.6,1.9-2.6,1.1-3.8,2-3.5,2.4-7.2,4.6-8.9,8.7-1.6,3.6-1.5,7.3,1.2,10.6.6.8,1.2,1.7,1.8,2.5,1.1,1.3,2.1,2.6,3.9,2.9.6.1,1.1.8,1.6,1.2"/>
    <path class="f" d="M279.2,153.2c-1.2,0-2.4.6-3.4,1.2-3.8,2-7.9,2.3-11.9,2.9-3.7.6-7.4,0-11.1.3-2.7.2-5.4-.1-8.1-.1-2.4.1-4.7-.5-7-.6-1.7-.1-3.5,0-5.2.2-3.5.5-7.1.8-10.6,1-1.8.1-3.3,1.1-5,1.3-.9.1-1.7,0-2.5-.2"/>
    <path class="f" d="M307,120c1.5-.3,2.7.3,3.8,1.1,3.5,2.7,7.4,4.3,11.7,5,.4.1.6.3.9.4,1.4.8,2.5.6,4,.1,1.7-.6,3.6.7,5.4,1.1,3.3.8,6.6,1.7,10.1,1.9s7.1.8,10.6,1.2c.7.1,1.5.1,2.2-.4"/>
    <path class="f" d="M280.5,258c1.9.7,3.8,1.7,5.8,2,2.9.4,5.5,1.4,8.1,2.5,1.9.8,3.9,1,5.9,1.6.6-1.1,1-2.2,1.2-3.3-4.2-2.3-8.7-3.2-13.2-4.3-1.9-.4-3.5-1.7-5.6-1.5-.6.1-1.3-.1-2,.1"/>
    <path class="f" d="M222.9,178.9c.1-2.3-.4-4.6-.4-7,0-1.6.6-4.2-2.3-5.1-1-.3-1.7-1.7-2.6-2.6-.8-.8-1.6-1-2.9-.8-3.8.4-7.2,1.9-10.8,2.9-1.7.5-3.5,1.4-4.9,2.7-.9.8-1.7,1.7-3.1,2-1.4.3-1.6,2.2-1.8,3.6-.5,3.7.5,7.1,2.8,10.1.5.6,1,1.3,1.1,2.1"/>
    <path class="f" d="M347.4,87.5c2.41,3.19,3.83,3.96,8.76,5.45,1.3.38,3.82.8,5.94.93.2,0,1.77-.05,2.11-.13,1.83-.71,2.19-.65,3.39-1.55"/>
    <path class="f" d="M252.1,219.1c-3.2-1.4-6.6-2.1-10.1-1.3-2.1.4-3.7,1.6-5.4,2.8-.6.4-1.1.9-1.8,1.2"/>
    <path class="f" d="M221.7,190.6c-1-.9-2.3-.6-3.4-.6-4.1,0-8.2.3-12.2.5-2,.1-4,.1-5.9-.3-.6-.1-1.3.2-1.7.6-4.5,4.2-9.9,6.7-15.2,9.5-4.3,2.3-8.4,4.7-12.6,7.1-4.3,2.5-8.2,5.8-13.1,7.2-.2.1-.6.5-.9,0"/>
    <path class="f" d="M339.2,232.2c0,.5,0,.9.5,1.1,4.5,1.9,9,3.7,14,3.6.2,0,.5.1.7.2"/>
    <path class="f" d="M348.2,89.4c-3,2.2-5.8,4.5-8.6,7-5.1,4.5-9.99,9.14-14.88,11.17-1.14.46-.91.4-3.24,1.51"/>
    <path class="f" d="M321.86,108.9c-1.62.92-2.54,1.07-3.46,1.7-1,.7-2.5.7-3.7,1.2-1.8.8-2.6,2.7-3.9,4-1.5,1.6-3,3.2-4.7,4.6-2.7,2.1-4.5,4.9-7,7.2"/>
    <path class="f" d="M188.6,179.6c-4.2,4.3-9.1,7.8-13,12.4-3.2,3.7-6.5,7.3-10.1,10.6-1.3,1.2-2.9,2.4-3.3,4.4"/>
    <path class="f" d="M214.9,231.6c-1.7,5.2-4.3,9.9-6.8,14.8"/>
    <path class="f" d="M268.6,133.9c-3.5,2.3-6.9,4.9-10.5,7-2.4,1.4-5,2.5-7,4.7-.6.7-1.9,1.1-2.8,1.7-4.1,2.6-7.5,5.9-10.8,9.4"/>
    <path class="f" d="M207.9,208.1c-1.6-.9-1.9-2.6-2.9-4-1-1.5-1.8-3.1-3.4-4.2-.7-.4-1.2-.6-2-.6-1,.1-2,.4-3.1.5-.8,0-1.8.4-2.4,1.3-1.4,2.2-3.1,4.3-2.7,7.2.4,2.4,1.3,4.6,2.7,6.5.7,1,1.7,1.8,2.5,2.7.9,1,2,1.3,3.2.9"/>
    <path class="f" d="M213.8,143.6c-1.7.3-2.9,1-4,2.5-2.2,3.1-4.5,6.2-7.5,8.7"/>
    <path class="f" d="M259.1,231.8c-1.7,3.9-3.4,7.8-5.3,11.7-.4.8-.5,1.6-.7,2.4"/>
    <path class="f" d="M223.3,172.4c1.1,3.2,2.5,6.4-.3,9.6-.5.5-.8,1.3-1.1,2-.6,1.7-1.9,2.2-3.3,2.6-3.4,1.1-6.9,1.1-10.4,1.1-1.8,0-3.6-.4-5.4-.1-1,.2-1.9-1-3.1-.9"/>
    <path class="f" d="M208.4,124.3c-.1.8.6,1.2.9,1.8,2.4,3.8,4.5,7.6,4.7,12.2,0,1.7.1,3.4-.2,5"/>
    <path class="f" d="M227.4,156.7c.2-1.4-.2-2.6-1.6-3.3-1.1-.5-2.1-1.2-3.1-2-.7-.6-1.2-.4-1.6.2-1.2,1.5-2.9,2.4-4.3,3.6-.9.8-1.9,1.4-2.5,2.6-.6,1.2-2.3,2-3.7,2.1-2.7.4-5.3,1.3-8.1,1.3-.3-.6-.3-1.4-.1-2,1-3.2-.2-5.8-2.4-8.1-.9-.9-1.3-2.4-2.9-2.3"/>
    <path class="f" d="M243.6,235.2c-1.3,1.7-2,3.7-2.6,5.8-.5,1.8-1.6,3.4-2.1,5.2"/>
    <path class="f" d="M295.1,72.7c2.5.4,3.5,2.6,5.1,4.1,1.4,1.4,1.8,3.4,2.8,5.1.4.6-.3,1.4-.8,2-1.7,1.9-3.4,3.8-5,5.8-.8,1-1.5,2-1.5,3.4"/>
    <path class="f" d="M207.2,209c-2.3.1-2.7,2.3-3.9,3.6-1.4,1.5-1.9,3.6-2.9,5.4-.4.7-.1,1.2.4,1.6.2-.1.5-.2.7-.4"/>
    <path class="f" d="M391,8.4c1.1.5,1.5,1.6,2.3,2.4,2,2.2,4.7,3.1,7.2,4.5"/>
    <path class="f" d="M260.9,146c-2.6.1-5.1.5-7.7.4-.7,0-1.4,0-2-.4"/>
    <path class="f" d="M206,222.4c2.8,3.8,6.4,6.8,10.6,8.8,3.1,1.5,6.5,2,9.9,1.9,1.3,0,2.6-1,4-1.5.3-.1.9-.6.9.3"/>
    <path class="f" d="M228.1,235.8c0,1.4-.8,2.4-1.3,3.6-.8,1.9-1.7,3.7-2.5,5.6-.2.4-.6.8-.2,1.3"/>
    <path class="f" d="M429.7,55.2c1.4,1.9,2.9,3.7,4,5.7.5.9.9,1.9,1.2,2.9"/>
    <path class="f" d="M164.8,210.4c-.4-.7-.9-1.1-1.6-1.4-.7-.4-.6-1.2-.9-1.9-2.2.7-3.4,2.5-4.6,4.3-.6.9-1.8,1.7-1.4,3.2.2.6-.9.5-1.5.5"/>
    <path class="f" d="M214.1,142.4c4.2,1.6,8.6,1.8,12.9,1.2,1-.1,1.9-.3,2.9.2"/>
    <path class="f" d="M288.4,236.5c-1.1,2.1-1.8,4.4-1.6,6.8,0,.7-.3,1.4-.8,1.8-1.5,1.2-1.6,2.9-1.6,4.5"/>
    <path class="f" d="M236.8,226.1c.7,2.2,2.9,2.4,4.5,3.2.3.1.6.2.9.4,2.8,1.6,5.7,1.5,8.4-.2"/>
    <path class="f" d="M354.1,258.9c.3,2.6-.9,5-1.1,7.5"/>
    <path class="f" d="M252.8,217.9c-1.6,2.9-1.5,6.2-1.8,9.4-.1,1.1-.5,2.2.2,3.2"/>
    <path class="f" d="M300.1,112.3c-.5,2.1-1.8,3.8-2.9,5.6-.2.4-.4.7-.5,1.1"/>
    <path class="f" d="M369.4,57c-2,.1-3.7,1.1-5.6,1.6-1.6.5-3.4,1.1-4.9,1.2-1.7.2-3.8,1.4-5.6-.3-.02-.1-.7,0-1,.2-.8.3-1.6.3-2.3,0"/>
    <path class="f" d="M220.6,153.9c.4.8,1.3.8,2,1.1,1.1.6,2.1,1.4,2.5,2.7"/>
    <path class="f" d="M321.7,287.3c1-1.3,2.4-.5,3.2-.2,1.3.4,2.7.8,4,1.3"/>
    <path class="f" d="M402.1,154.8c-1.3,1.9.1,3.5.5,5.2"/>
    <path class="f" d="M315.5,79.4c.9,1,2,1.9,2.4,3.2.3.8,1.3.7,1.8,1.3"/>
    <path class="f" d="M368.5,299.5c0,1.2.2,2.5-.5,3.6-.3.5-.2,1,0,1.4"/>
    <path class="f" d="M271.9,112.8c-1.1-1.3-2,.1-2.9.4-.7.2-1.2.9-2,1"/>
    <path class="f" d="M312.9,112.8c-.5-.4-1-.7-1.6-.5-3.8,1-7.5.2-11.1-.4-.2,0-.4-.3-.5-.5"/>
    <path class="f" d="M220.2,167c-.4,1.6.5,2.4,1.8,3.1"/>
    <path class="f" d="M273.9,260.6c-.2.8-.4,1.7-.7,2.5-.4.8.1,1.2.6,1.6"/>
    <path class="f" d="M403,154.6c1.2.8,1,2.4,2,3.4"/>
    <path class="f" d="M220.2,162.5c-1.2-.4-2.3-.2-3.1.9"/>
    <path class="f" d="M55.1,147c1.2.7,1.5,1.8,1.4,3.1"/>
    <path class="f" d="M267.7,223.5c-.3,1.3.4,2.4.7,3.6"/>
    <path class="f" d="M276.5,262.2c-.4-1.3-1.8-.7-2.5-1.3"/>
    <path class="f" d="M349.8,59.4c-.4,1.4-1.5,1.5-2.7,1.4"/>
    <path class="f" d="M280.2,254.3c.3,1.4.5,2.9-.5,4.1"/>
    <path class="f" d="M478,136.6c-.6-.6-1.3-1.2-2.2-.4"/>
    <path class="f" d="M479.3,138.2c.5.5.6,1,.2,1.6"/>
    <path class="f" d="M351.2,60.1c0,.5-.1,1,.4,1.4"/>
  </g>
  <g id="b" data-name="top hand">
    <path class="f" d="M310.04,119.89c1.22-1.25,2.72-1.94,4.16-2.8,1.19-.71,2.28-1.39,3.57-1.85,1.45-.52,2-.54,4.09-1.19.5-.15,1.6-.29,2.11-.36.79-.1,1.34-.04,2.12,0,1.7.08,3.17.49,4.75.76,1.44.24,2.85,1.01,3.87,2.04.84.85,1.7,1.71,2.41,2.61.37.47.96.95,1.28,1.53.21.4,2.36,5.54,2.25,5.93"/>
    <path class="f" d="M336.36,118.73c1.27-.29,2.28-1.82,3.47-2.33.37-.16.93-.3,1.35-.39.7-.16.95.17,1.45.32,1.93.58,3.77,1.23,5.53,2.4,2,1.33,2.69,3.08,3.63,5.24.38.87.96,1.74,1.17,2.7.13.59.32,1.15.44,1.74s-.13,1.26.05,1.87l.32.07"/>
    <path class="f" d="M350.46,119.35c.4-.06.81-.17,1.21-.25.36-.07.67-.31,1-.37.5-.09,1.11,0,1.62,0,.54,0,1.07,0,1.61,0,.2,0,.4-.02.6,0,.31.02.51.16.8.22.26.05.54-.05.79-.02.33.04.7.17,1.02.26.21.06.47.26.64.31.26.07.53.04.8.09.98.17,1.92.68,2.6,1.36.55.54,1.26.84,1.78,1.41.34.37.58.74.85,1.16.56.9,1.09,2.03,1.36,3.06.3,1.17.74,2.21.8,3.42.02.31.16.5.22.8.04.24,0,.56,0,.8,0,.56.2,1.19.6,1.61"/>
    <path class="f" d="M328.14,106.48c.46.6.91,1.09,1.36,1.65.47.59.51,1.57.67,2.26.03.13.16.17.19.31.04.17,0,.39.03.57.05.35.26.85.36,1.26s.15.79.19,1.21c.04.36.2.59.24.97l.17.03"/>
    <path class="f" d="M328.1,107.07c.15.15.33.24.47.39.11.12.19.27.29.4.16.2.27.37.37.61.11.26.21.48.28.76s.21.55.32.85c.22.56.47,1.1.53,1.74.02.25.08.46.08.72,0,.22.02.52.09.73.05.14.09.18.09.35,0,.26.12.51.09.77"/>
    <path class="f" d="M344.74,91.94c0,.12.1.18.16.26.12.16.21.37.31.54.2.34.41.71.64,1.04.15.23.33.44.45.68.41.79.62,1.68,1.13,2.42.05.07.13.12.18.19.1.13.14.29.22.42.12.21.23.42.35.63.14.26.33.5.42.79.08.26.18.52.28.78.28.73.46,1.5.81,2.18.11.22.18.47.26.7.05.14.12.28.17.42.12.33.3.64.36.99.08.46.32.92.46,1.36.12.35.22.72.28,1.08.05.31.07.63.13.94.07.38.18.75.24,1.13.05.3.09.59.16.89.04.2.02.38.06.58.05.29.05.57.09.86.03.21.07.42.07.64,0,.19-.04.43,0,.62.02.13.08.25.09.38.03.31.02.59.07.9.03.22,0,.44.04.65,0,.03.06.06.07.1.02.08-.03.18,0,.27.02.08.07.08.1.16.03.1,0,.25,0,.36,0,.16.03.27.09.43.07.22.09.4.09.63,0,.07-.03.25,0,.32.02.08.08.1.1.18s0,.18,0,.26c0,.12.05.21.07.33.03.16-.01.33.03.49.01.06.07.07.08.13.02.08,0,.19,0,.27,0,.18.12.36.09.52"/>
    <path class="f" d="M362.56,94.2c.12.12.16.3.22.44.2.47.47.89.73,1.32.23.38.4.78.61,1.16.6,1.07.98,2.22,1.48,3.34.2.46.33.95.48,1.43.2.65.42,1.26.68,1.89.32.78.59,1.61.85,2.42.23.72.47,1.44.66,2.18.08.29.16.83.38,1.03"/>
  </g>
  <g id="c" data-name="pens">
    <path class="h" d="M397.09,14.11c-.02-.57-1.7-.73-1.95-.81s-2.03,1.81-2.43,2-.89,1.08-1.13,1.49-.19.97-.58,1.22-.96.89-1.2,1.13-.73,1.22-.89,1.46-.89,1.59-1.13,1.61-.73.42-1.05.66-.41.49-1.05,1.38-4.78,5.43-5.51,6.48-.49,1.05-.73,1.46-.81,1.05-1.13,1.38-.73.65-1.13,1.05-1.13,1.54-1.7,2.35-1.3.97-1.78,1.54-.67,1.3-1.47,1.86-2.83,2.43-3.23,2.92-1.95,2.03-2.19,2.67-1.22,1.78-1.38,2.03-.73.81-.73.81c0,0-.65.81-.89,1.13s-.81.89-1.05,1.3-1.38.65-1.54.97-1.03,1.46-1.49,1.86.06,1.22-.4,1.54-1.19.9-1.19.9c0,0-.57.64-.81.88s-1.13,1.31-1.13,1.31l-.65.8s.89-.03,2.03-.1,2.11-.85,2.51-.7,1.41-.3,1.62,0,1.68-1.34,1.68-1.34c0,0,13.96-14.77,14.5-15.44s3.2-4.27,3.93-5.09,6.73-7.28,7.58-8.27,4.75-5.35,5.44-6.12,2.39-2.65,3.03-3.38,2.01-2.35,2.01-2.35l.65-.79-1.33-1.31-2.07-.49Z"/>
    <path class="h" d="M316.61,81.65s-.33,1.14-1.11,1.25-2.6,1-2.6,1l-1.48,2.25-2.6,2.01-1.82,2.35-1.32.92-1.63,1.68c-1.51,1.08-3.75,2.84-3.75,2.84,0,0-1.52,1.26-1.9,1.51s-.88,1.83-1.13,1.79-1.96.22-2.17.72-.84,1.69-1.22,1.85-2.08,1.17-2.08,1.17c0,0,.56.75,0,1.13s-2.44,1.91-2.94,2.15-1.13.14-1.38.82-.75,1.83-.75,1.83c0,0-2.64-.33-2.89.52s-1.13,2.55-1.63,2.89-1.93,1.35-1.93,1.35c0,0-.53,1.31-1.18,1.55s-1.63.18-2.12.76-1.95,1.44-1.95,1.44c0,0-1.59,1.08-2.56,1.7s-2.25,2.94-3.02,3.18-3.82,3.1-3.82,3.1c0,0-1.22.84-1.71,1.19s-1.46.12-2.07,1.02-2.07,2.14-2.44,2.5-2.44,1.58-2.44,1.58c0,0-1.83,1.03-2.2,1.55s-3.78,2.84-4.39,3.21-.71.61-1.58,1.1-1.84,1.1-2.57,1.46-2.2,1.46-2.2,1.46c0,0-.37.93-.85,1.44s-.98,1.37-1.34,1.25-1.95.76-1.95.76c0,0-.37,1.34-.73,1.39s-2.56,1.64-2.56,1.64c0,0-1.83,2.21-2.32,2.26s-2.32,1.22-2.69,1.68-2.32,2.32-2.32,2.32l-1.1.7-3.06.9-2.25,1.9s3.34.97,3.73,1,1.37-.04,2.71-.2,2.3-.44,2.91-.8,1.7-.97,2.07-.38,2.07-.12,2.07-.12l1.16-.4s4.7-4.71,5.92-5.45,3.47-3.6,4.48-3.94,3.83-1.76,5.54-2.82,1.69-3.62,5.24-4.47,7.28-3.43,7.28-3.43l2.65-1.9-.43-2.12.88-2.47,2.85-1.61,3.65-1.02,6.44-4.81,23.46-22.52,7.25-8.34,3.91-4.85v-4.4Z"/>
    <path class="h" d="M190.81,184.82s-3.66,2.8-4.15,3.28-2.47,1.85-2.47,1.85l-4.15,4.05s-1.68,2.49-2.77,3.28-5.54,4.42-5.54,4.42l-4.15,2.21-2.77,3.09-.79.86.79,1.08h2.87s11.77-7.3,13.55-8.29,5.14-3.27,5.83-3.76,5.04-2.6,5.34-2.73,3.34-2.5,3.34-2.5l1.92-1.25-4.04-3.26-2.81-2.32Z"/>
  </g>
  <g id="d" data-name="pen shadow etching">
    <path class="g" d="M165.2,207.56c-.22.06-.8-.38-.79-.59"/>
    <path class="g" d="M167.08,206.18c0-.49,0-.98,0-1.47,0-.26-.09-.39-.2-.61"/>
    <path class="g" d="M172.12,202.22c-.11-.02-.16-.13-.26-.19-.14-.08-.2-.1-.32-.24.58.48,1.23.94,1.95,1.13.02.43.38.88.79,1.03.35.13.8.14,1.18.14.25,0,.58.06.82-.02-.03-.06-.05-.1-.1-.14v.06"/>
    <path class="g" d="M178.74,202.32c-.53-.54-1.15-1-1.66-1.56-.32-.36-.6-.76-.86-1.16-.14-.21-.27-.56-.46-.74-.1-.09-.2-.13-.29-.26s-.13-.3-.3-.34"/>
    <path class="g" d="M176.47,198.07l.02.08c.16.03.32.09.48.15,0,.28-.74-.21-.85-.29-.27-.21-.52-.54-.85-.66.18-.23.63-.36.89-.22.08.05.14.18.22.24.14.11.31.18.45.31.23.21.35.28.64.39.18.07.32.18.4.37-.07-.17-.13-.33-.11-.52.03-.21.17-.34,0-.54-.14-.03-.08-1.06-.1-.79"/>
    <path class="g" d="M187.54,197.38c.01-.18-.23-.22-.36-.28-.09-.04-.82.56-.83.78-.35-.06-.67-.3-.98-.45-.29-.13-.63-.16-.92-.35-.13-.09-.25-.2-.37-.29"/>
    <path class="g" d="M190.21,189.27c-.49-.62-1.08-1.21-1.46-1.9-.12-.21-.15-.46-.22-.67-.07-.2-.27-.35-.3-.59"/>
    <path class="g" d="M223.93,157.24c-.09.11-.35.13-.49.17-.18.06-.41.15-.6.12"/>
    <path class="g" d="M238.17,146.46c-.05-.13-.16-.29-.25-.4-.13-.15-.44-.26-.44-.49"/>
    <path class="g" d="M241.53,143.79c-.06-.18-.22-.34-.28-.52s-1.02.4-1.11.22c0,.13-.69-.23-.69-.1,0,.15-.22.28-.4.3.18.28.54.54.59.89"/>
    <path class="g" d="M247.16,146.95v.08c.16.06.32.07.47.13.38.16.73.34,1.11.48"/>
    <path class="g" d="M255.47,141.52c.28,0-.03-.28-.1-.34-.24-.2-.57-.27-.79-.48.18-.17.77-.09.98-.06.19,0,.35.06.48.19.06.07.14.1.23.09-.05.23.04.05.3.1"/>
    <path class="g" d="M256.76,133.31c-.17-.19-.22-.03-.37-.01-.1.01-.4-.14-.51-.16-.46-.09-.92-.14-1.38-.24h.08"/>
    <path class="g" d="M244.69,140.63c-.34,0-.57-.27-.61-.58-.13-.02-.25-.1-.38-.12"/>
    <path class="g" d="M246.47,140.53c-.06-.31-.52-.44-.69-.64s-.39-.79-.69-.84"/>
    <path class="g" d="M263.08,127.97c-.29-.04-.61-.32-.79-.53-.14-.16-.25-.5-.49-.56"/>
    <path class="g" d="M263.68,126.98c-.26-.04-.28-.2-.42-.38-.07-.1-.28-.39-.37-.41"/>
    <path class="g" d="M265.06,126.78c0-.25-.04-.46-.1-.7-.03-.09-.02-.13-.07-.22-.04-.07-.11-.07-.13-.17"/>
    <path class="g" d="M270.6,122.34c-.23,0-.6-.08-.81,0-.07.02-.1.12-.18.11-.09,0-.11-.08-.17-.13-.1-.08-.22-.18-.32-.27"/>
    <path class="g" d="M271.19,120.95v-1.09"/>
    <path class="g" d="M277.42,115.32c0,.28,0,.31.16.51-.15-.1-.15-.32-.23-.48-.08-.17-.24-.42-.41-.5v.07"/>
    <path class="g" d="M280.29,114.13c.05-.21-.17-.29-.3-.4"/>
    <path class="g" d="M283.45,108.39c.12.02.13.12.22.18.08.06.2.02.28.09.06.05.27.34.29.43,0,.02-.59.63-.59.65-.12-.08-.38-.3-.4-.46"/>
    <path class="g" d="M283.35,110.97c-.03-.19-.21-.29-.22-.48l-.08-.02"/>
    <path class="g" d="M287.21,106.52c0-.06,0-.11,0-.17-.02.16.38.56.5.66,0-.18.27-.64.2-.79"/>
    <path class="g" d="M292.84,102.96c-.13-.17-.34-.18-.5-.31-.14-.12-.97.59-.99.41l.08.02c.05.29.22.47.22.77"/>
    <path class="g" d="M295.22,99.4c-.26.07-.38-.29-.41-.48l-.08-.02"/>
    <path class="g" d="M312.72,84.07c-.02-.1-.09-.18-.2-.2"/>
    <path class="g" d="M310.64,86.35c.12.03.24.21.35.29.16.11.36.22.54.3-.08-.08.04-.84-.05-.89-.09-.05-.28-.12-.35-.2"/>
    <path class="g" d="M308.07,89.81c-.03.21-.38.09-.48-.02-.07-.08-.18-.37-.21-.47"/>
    <path class="g" d="M316.28,83.38c-.03.23.39.96.4,1.19-.1-.07-.17-.15-.19-.26.1.03.18.09.25.17-.05-.01-.09,0-.14.01l-.02.08"/>
    <path class="g" d="M320.09,83.12c-.04-.13-.24-.12-.33-.21-.05-.05-.09-.1-.15-.15-.08-.06-.15-.11-.23-.17-.12-.08-.23-.16-.34-.25-.05-.04-.08-.06-.13-.09-.02-.01-.03-.02-.06-.04-.05-.04-.11-.06-.15-.1-.05-.05-.12-.12-.16-.18-.02-.03-.05-.07-.07-.1"/>
    <path class="g" d="M320.42,82.3c-.07-.05-.15-.1-.23-.12-.03,0-.07,0-.1-.02-.06-.03-.11-.07-.16-.11,0,0-.05-.02-.05-.03-.02-.02-.03-.05-.05-.06-.08-.08-.19-.13-.26-.21-.05-.06-.09-.11-.14-.17-.03-.03-.03-.08-.06-.11-.02-.03-.05-.04-.08-.07-.03-.04-.03-.05-.06-.09-.01-.02-.03-.02-.04-.04"/>
    <path class="g" d="M321.04,81.62s-.07-.03-.1-.04c-.11-.04-.21-.06-.32-.09-.12-.03-.23-.06-.35-.11-.03-.01-.05-.02-.07-.05-.04-.04-.06-.12-.09-.17s-.08-.08-.12-.13c-.05-.06-.13-.16-.15-.23"/>
    <path class="g" d="M321.61,80.76c-.15,0-.26-.03-.37-.13-.07-.06-.12-.12-.18-.19-.09-.09-.22-.15-.3-.25-.05-.06-.1-.1-.15-.15-.02-.02-.05-.09-.09-.08"/>
    <path class="g" d="M322.17,80.02s-.08,0-.12,0c-.03-.01-.06-.05-.09-.06-.08-.06-.2-.08-.27-.14-.05-.04-.11-.09-.17-.14-.05-.04-.07-.08-.11-.13-.06-.07-.13-.13-.19-.2-.05-.06-.13-.13-.16-.2"/>
    <path class="g" d="M322.7,79.28c-.13.06-.28,0-.41-.04-.06-.01-.04-.03-.09-.06-.06-.04-.14-.04-.19-.09-.08-.07-.11-.16-.17-.25"/>
    <path class="g" d="M323.1,78.96c-.04-.12-.18-.2-.27-.29-.07-.07-.15-.14-.22-.22"/>
    <path class="g" d="M323.63,78.17c-.1-.09-.2-.21-.27-.32-.06-.08-.05-.2-.1-.29"/>
    <path class="g" d="M391.8,15.22l.03-.11c.44.12.66.94,1.14,1.02-.12-.14-1.35-.08-1.53-.11l-.03.11"/>
    <path class="g" d="M395.74,13.48c-.24.04-.55-.07-.69-.25-.09-.12-.32-.39-.49-.39"/>
    <path class="g" d="M391.27,17.91s-.04.05-.05.08v-.03"/>
    <path class="g" d="M390.23,19.48v-.04c-.16-.04-.35.03-.5-.07-.06-.04-.22-.22-.24-.28"/>
    <path class="g" d="M388.81,22.82c-.08.02-.07-.03-.12-.05-.15-.08-.3-.21-.44-.3-.2-.13-.42-.26-.62-.38-.08-.05-.17-.07-.23-.15-.06-.07-.1-.16-.16-.25"/>
    <path class="g" d="M387.04,22.82c-.06-.02-.05-.04-.09-.09-.06-.08-.15-.14-.23-.21-.1-.09-.31-.38-.47-.34"/>
    <path class="g" d="M385.27,25.22c-.03-.12-.2-.19-.29-.24-.09-.06-.17-.15-.2-.25"/>
    <path class="g" d="M380.41,30.97c-.26.05-.58-.24-.78-.36-.21-.13-.38-.31-.6-.42"/>
    <path class="g" d="M379.92,31.76c-.14.04-.38-.23-.5-.29-.09-.05-.2-.12-.29-.15"/>
    <path class="g" d="M381,30.48c-.07,0-.13-.08-.2-.11-.08-.05-.18-.06-.26-.09-.09-.04-.17-.1-.22-.19-.04-.06-.03-.13-.11-.15"/>
    <path class="g" d="M377.22,34.66c-.15,0-.34.04-.47-.05-.09-.07-.17-.17-.26-.24-.21-.16-.47-.25-.69-.4"/>
    <path class="g" d="M378.05,34.61c-.05-.02-.1-.06-.14-.09-.11-.09-.25-.19-.34-.3s-.21-.26-.25-.39"/>
    <path class="g" d="M374.91,37.65c-.02.05-.04.1-.06.15-.06-.04-.14-.05-.2-.1-.07-.05-.11-.14-.18-.2"/>
    <path class="g" d="M374.07,38.14c-.1-.03-.13.09-.23-.01-.05-.05-.13-.16-.16-.24"/>
    <path class="g" d="M373.44,38.98c-.06-.04-.11-.1-.19-.11v-.04"/>
    <path class="g" d="M371.96,40.89c-.1-.09-.23-.09-.34-.15"/>
    <path class="g" d="M370.19,42.07h-.34"/>
    <path class="g" d="M368.77,43.35c-.19.05,0,.21.1.25"/>
    <path class="g" d="M367.3,45.56c-.08,0-.15-.07-.21-.12-.24-.19-.45-.33-.73-.47"/>
    <path class="g" d="M367.1,46.79c-.08.01-.13.06-.22.05-.1-.01-.17-.05-.27-.05-.08,0-.17.02-.25,0-.1-.02-.14-.05-.24-.05"/>
    <path class="g" d="M361.45,52.34c-.11-.05-.21-.12-.31-.18s-.19-.09-.28-.16"/>
    <path class="g" d="M362.04,52.04c-.04-.05-.11-.09-.16-.13-.04-.03-.09-.05-.12-.07-.07-.05-.12-.17-.21-.19"/>
    <path class="g" d="M362.78,51.7c-.04-.11-.33-.29-.44-.34"/>
    <path class="g" d="M360.66,53.22c-.06-.02-.11-.07-.17-.1-.07-.03-.17-.04-.22-.1"/>
    <path class="g" d="M360.32,53.86c-.09,0-.17-.09-.26-.12-.11-.03-.22-.03-.33-.08"/>
    <path class="g" d="M359.63,54.75c-.07-.09-.26-.25-.38-.26v-.04"/>
    <path class="g" d="M358.75,56.22c-.15-.09-.39-.32-.59-.29"/>
    <path class="g" d="M357.72,57.45c-.12-.16-.23-.05-.39-.11v-.04"/>
    <path class="g" d="M356.39,58.67c-.19-.03-.35-.09-.54-.1"/>
    <path class="g" d="M355.56,59.76c-.11,0-.28.04-.36-.05-.02-.03-.02-.08-.04-.1-.04-.05-.09-.06-.14-.1"/>
    <path class="g" d="M356.73,59.61c-.18.02-.36-.05-.54-.05"/>
  </g>
  <g id="e" data-name="inner hand">
    <path class="f" d="M255.88,187.4c-.14.03-.22.16-.32.26-.21.22-.26.22-.52.32-.39.16-.77.45-1.11.69-.3.21-.57.46-.87.68-.46.34-.97.58-1.47.83-.27.13-.58.38-.85.46-.17.05-.4.12-.57.15-.09.01-.18-.03-.27-.01-.09.02-.12.11-.2.13-.4.07-.81.11-1.22.14-.59.03-.73.48-1.07.88-.1.12-.26.31-.38.39-.22.14-.5.14-.73.28-.51.31-1.03.65-1.58.92-.48.24-.97.43-1.45.68-.67.34-1.34.38-2.03.62-.58.2-1.15.33-1.73.55-.64.24-1.27.6-1.94.75-1.04.25-2.1.46-3.15.75-.52.14-1.05.13-1.57.23s-1.02.29-1.52.44c-2.03.64-4.23.23-6.28.82-.42.12-.68.23-1.14.22s-.95,0-1.43,0"/>
    <path class="f" d="M239.76,209.76c.1-.55.23-1.09.32-1.64.18-1.08.13-2.19.13-3.28,0-.76.06-1.53-.1-2.28-.07-.33-.18-.65-.25-.98-.09-.39-.22-.78-.36-1.15-.08-.2-.17-.39-.27-.59-.07-.15-.09-.31-.17-.45-.17-.29-.31-.6-.47-.9-.14-.25-.23-.51-.34-.78-.08-.2-.21-.37-.31-.56s-.16-.38-.31-.54c-.05-.06-.18-.15-.17-.24,0-.06.09-.08.11-.14.04-.13,0-.37,0-.51,0-.26-.11-.55-.23-.78-.32-.6-.71-1.18-1.08-1.76-.26-.42-.51-.88-.84-1.25-.2-.23-.38-.48-.55-.74-.1-.16-.21-.36-.36-.48-.16-.13-.32-.29-.51-.4-.14-.09-.29-.16-.44-.25-.06-.03-.2-.1-.2-.17"/>
    <path class="f" d="M222.66,190.91c.42-.16.86-.27,1.29-.42.32-.11.58-.07.91-.15v-.11"/>
    <path class="f" d="M210.94,131.35l.11.02c.05.46.31.73.3,1.22,0,.26.08.39.14.62.06.21.06.42.13.62.09.25.14.42.14.69s.09.38.14.62c.13.54.09,1.12.29,1.66.17.48.09.94.12,1.45.03.55.27,1.09.28,1.66.02.69,0,1.38,0,2.07,0,.23,0,.46,0,.69s-.23.7,0,.83"/>
    <path class="f" d="M210.52,138.93c-.05.19.1.3.14.47.06.25,0,.58,0,.83,0,.21.01.42,0,.63-.01.25-.13.44-.14.7-.04.73-.2,1.43-.27,2.16-.03.31-.04.72-.13,1.01-.07.23-.15.27-.14.54"/>
    <path class="f" d="M227.07,144.86c-.98,0-1.94-.03-2.91.11-.3.04-.61,0-.91.04-.42.06-.78.13-1.21.13-.79,0-1.53-.12-2.31-.25-.27-.04-.54.01-.8-.02-.16-.02-.31-.1-.47-.13-.36-.07-.73-.15-1.07-.29-.27-.11-.54-.2-.84-.27-.28-.06-.64-.33-.93-.28"/>
    <path class="f" d="M212.18,146.65c-.32.24-.64.46-.97.69-.86.61-1.53,1.47-2.16,2.31s-1.29,1.66-1.89,2.52c-.56.8-1.12,1.58-1.7,2.35-.15.2-.27.4-.4.63-.18.33-.41.62-.61.93-.12.18-.61-.7-.82-.6.1-.23.33-.42.48-.64.22-.34.44-.68.66-1.02.25-.38.51-.75.72-1.16.23-.47.42-.89.76-1.28.56-.64,1.26-1.35,1.96-1.83,1.07-.72,1.62-1.62,2.17-2.76.21-.43.71-.94,1.07-1.25.39-.34.98-.8,1.53-.65,0,.04,1.26.49,1.26.53.38.05.71.19,1.06.28.61.16,1.27.02,1.87.15.2.09.41.17.61.26.3.1.61.16.92.2.65.09,1.39.05,2.02.22.34.09.59.14.96.14"/>
    <path class="f" d="M203.49,160.58c-.29-.02-.07-.27,0-.39.18-.36.29-.75.42-1.13.07-.22.53-1.19.83-1.1-.24.99.41.91.41,1.93"/>
    <path class="f" d="M256.49,218.6c.27-.06.45-.51.55-.73.16-.32.35-.66.51-.99.07-.15.15-.27.21-.42.08-.2.16-.4.25-.59.17-.35.34-.75.55-1.09.19-.31.4-.61.57-.91.15-.26.34-.49.48-.75.06-.11.14-.2.21-.3.08-.11.1-.22.19-.33.14-.17.27-.39.37-.58.08-.15.17-.32.21-.47.05-.16.15-.29.22-.43.12-.26.26-.51.37-.77.08-.19.15-.38.21-.57.1-.34.27-.62.39-.96.1-.28.2-.58.33-.85.08-.18.13-.33.2-.5.12-.26.18-.55.3-.82.07-.14.17-.25.22-.4s.05-.3.11-.46c.29-.64.43-1.32.64-1.99.05-.15.04-.3.08-.45.03-.11.07-.22.1-.33.05-.22.14-.42.19-.64.04-.18.16-.35.21-.51.06-.18.1-.37.18-.56.06-.13.16-.26.24-.39.09-.17.16-.33.23-.51.17-.5.46-.96.61-1.44.18-.6.15-1.24.15-1.87,0-.3.08-.56.08-.85,0-.22.05-.39.07-.61.03-.22,0-.45.01-.67.05-.49.15-1,.15-1.49,0-.32,0-.64,0-.96,0-.16.03-.35,0-.51,0-.03-.05-.04-.05-.06-.02-.08,0-.14-.02-.22-.01-.11-.05-.13-.08-.23-.02-.05-.09-.27-.08-.31"/>
    <path class="f" d="M254,187.66c-.13.03-.28.22-.41.29-.15.08-.25.19-.39.29-.22.16-.39.35-.63.49-.12.08-.23.16-.37.23-.66.32-1.34.65-2.03.94-.31.13-.62.19-.92.34-.47.24-.97.44-1.41.68-.33.18-.63.43-.95.63-.14.08-.3.16-.43.23-.15.07-.37.09-.53.15-.34.14-.7.25-1.04.39"/>
    <path class="f" d="M236.43,197.14c-.14-.02-.32.08-.45.12-.28.08-.5.19-.76.32-.18.09-.37.11-.57.15-.54.1-1.01.26-1.53.43-.45.15-.9.11-1.37.2-.55.1-1.11.1-1.66.21-.6.12-1.23.17-1.84.25-.71.1-1.45.2-2.16.19-.38,0-.75.07-1.13.08-.21,0-.38,0-.59.07-.33.12-.69.08-1.05.08-.2,0-.37-.03-.56-.06-.31-.05-.64-.02-.96-.02"/>
    <path class="f" d="M261.31,224.05c-.15.02-.36-.09-.51-.11-.45-.08-.9-.13-1.34-.22s-.84-.25-1.28-.31c-.4-.06-1.11.09-1.46-.06.25.11.53.23.78.37.41.23.84.39,1.29.53.31.1.62.2.93.29.41.12.85.21,1.27.32.52.14,1.02.29,1.54.46.26.08.51.19.77.22.14.01.21.04.34.09.28.11.67.11.97.14.11.01.15.05.24.07.15.04.34,0,.5,0"/>
    <path class="f" d="M278.56,196.54v4.29c0,.7.09,1.47-.09,2.15-.12.47-.12.95-.22,1.43-.12.56-.2,1.12-.31,1.69-.17.85-.35,1.74-.73,2.53-.12.25-.23.43-.26.7-.04.32-.03.58-.16.88-.44.99-.79,2.08-1.08,3.13-.13.46-.3.9-.43,1.36-.27.95-.82,1.78-1.37,2.59-.19.28-.33.57-.48.87-.17.35-.55.88-.58,1.25"/>
    <path class="f" d="M308.43,241.96c-.55.01-1.03-.29-1.59-.4-.78-.15-1.45-.36-2.2-.63s-1.52-.43-2.24-.75-1.25-.59-2.01-.77c-.49-.11-.94-.29-1.4-.5-.51-.23-1.05-.38-1.56-.62-.95-.44-1.81-1-2.75-1.43-.87-.39-1.66-.77-2.46-1.26-.5-.31-1.09-.45-1.61-.74-.72-.4-1.4-.87-2.13-1.25-.67-.35-1.44-.59-2.07-1.01-.49-.33-.86-.64-1.43-.85-.51-.19-1.02-.37-1.54-.53-.54-.18-.91-.44-1.41-.67-2.25-1.03-4.59-1.9-6.88-2.83-.82-.33-1.48-.9-2.31-1.29-.19-.09-.4-.3-.57-.37-.15-.06-.3,0-.45-.07-.09-.13-.2-.22-.34-.28-.21-.05-.41-.12-.6-.21-.28-.14-.83-.38-.89-.72"/>
  </g>
</svg>