<?xml version="1.0" encoding="utf-8"?>
<!-- Generator: Adobe Illustrator 28.1.0, SVG Export Plug-In . SVG Version: 6.00 Build 0)  -->
<svg version="1.1" id="a" xmlns="http://www.w3.org/2000/svg" xmlns:xlink="http://www.w3.org/1999/xlink" x="0px" y="0px"
	 viewBox="0 0 646 792" style="enable-background:new 0 0 646 792;" xml:space="preserve">
<style type="text/css">
	.st0{fill:#5F5F5F;}
</style>
<path class="st0" d="M93.8,201.2l0.1-0.1C93.8,201.2,93.8,201.2,93.8,201.2L93.8,201.2L93.8,201.2z"/>
<path class="st0" d="M93.8,200.7c-0.2-0.1-0.2-0.2-0.5-0.3l0.2,0.2c-0.2,0-0.2,0.1-0.2,0.2v-0.1c0,0,0.2,0,0.2,0
	c-0.1,0.1,0.2,0.1,0,0.2h0c0.1,0,0.1,0,0.2,0c0,0-0.1,0.1-0.2,0.1c0.1,0,0.3,0,0.3,0.1c0.2-0.1,0.1-0.1,0-0.1c-0.1,0-0.2,0,0-0.1h0
	C93.7,200.9,93.9,200.8,93.8,200.7z"/>
<path class="st0" d="M93.5,201.1L93.5,201.1C93.5,201.1,93.5,201.1,93.5,201.1z"/>
<path class="st0" d="M93.9,195.9L93.9,195.9C93.8,195.9,93.9,195.9,93.9,195.9z"/>
<path class="st0" d="M93.1,197.6L93.1,197.6C93.1,197.5,93.1,197.5,93.1,197.6z"/>
<path class="st0" d="M92.8,187.2L92.8,187.2C92.8,187.2,92.8,187.2,92.8,187.2z"/>
<path class="st0" d="M92.6,185.4L92.6,185.4L92.6,185.4z"/>
<path class="st0" d="M91.4,186.4L91.4,186.4C91.3,186.4,91.4,186.4,91.4,186.4z"/>
<path class="st0" d="M91.2,185.6C91.2,185.6,91.2,185.6,91.2,185.6C91.2,185.6,91.2,185.6,91.2,185.6z"/>
<path class="st0" d="M92.7,185.4C92.7,185.4,92.6,185.4,92.7,185.4C92.6,185.4,92.7,185.4,92.7,185.4z"/>
<path class="st0" d="M91.4,187.5l-0.2,0.1C91.3,187.5,91.4,187.5,91.4,187.5z"/>
<path class="st0" d="M91,185.4C91,185.4,91.1,185.4,91,185.4C91.1,185.4,91,185.4,91,185.4z"/>
<path class="st0" d="M93.8,200.6C93.8,200.6,93.8,200.6,93.8,200.6C93.9,200.6,93.8,200.6,93.8,200.6z"/>
<path class="st0" d="M92.1,191.2C92.1,191.2,92,191.2,92.1,191.2C92,191.2,92,191.2,92.1,191.2z"/>
<path class="st0" d="M91.7,189.1L91.7,189.1C91.7,189.1,91.7,189.1,91.7,189.1L91.7,189.1L91.7,189.1z"/>
<path class="st0" d="M91.9,189.7L91.9,189.7C91.9,189.7,91.9,189.7,91.9,189.7z"/>
<path class="st0" d="M91.4,188.7C91.4,188.7,91.3,188.7,91.4,188.7L91.4,188.7z"/>
<path class="st0" d="M91.5,188.1c-0.1,0-0.1,0-0.2,0c-0.1,0.1,0.2,0.1,0.1,0.3l0.1-0.1c0.2,0,0.2,0.2,0.1,0.3h-0.1
	c0.2,0-0.1,0.2,0.1,0.2c0.1-0.1,0.1,0,0.2-0.1l0.2,0.1l-0.3,0.1l0.1,0.1c0.1-0.1-0.1,0.1,0.2,0.1c-0.1,0.1-0.2,0-0.3,0
	c0.1,0,0,0.1,0.2,0.1l-0.2,0.1l0.2,0.1c0,0,0,0-0.1,0c0.2,0-0.1,0.2,0.3,0.2c0,0,0,0,0,0c0.2,0,0.1,0.1,0.1,0.2c0.1,0.1,0.2,0,0.3,0
	c0,0.2,0,0.1,0.3,0.3c-0.3,0.2-0.5,0-0.7,0.1c0.2,0,0.3,0.1,0.4,0.2c-0.1,0.1-0.2,0.3-0.4,0.4l0.2,0l0.1,0.1l-0.3,0
	c0.1,0,0.2,0.1,0.3,0.1c0.2,0.1-0.4,0.1-0.1,0.2l-0.1,0c0.2,0,0.1,0.1,0.2,0.2H92l0-0.1c-0.3,0.1,0.1,0.1,0,0.2c0.1,0.1,0.3,0,0.4,0
	c0,0,0.1,0.1,0,0.1c-0.1,0.1-0.3,0-0.4,0c0.3,0,0.2,0.1,0.4,0.2c-0.1,0-0.2,0-0.2,0c0,0,0.1,0,0.2,0l-0.2,0.1
	c-0.2,0.2,0.5,0.1,0.4,0.3c-0.1,0,0,0.1-0.1,0.2c-0.1-0.1-0.4,0.1-0.6,0c-0.1,0.1,0.3,0,0.4,0.1l-0.3,0c0.2,0.1,0.2,0,0.3,0.1
	c-0.1,0-0.1,0.1-0.2,0c0,0.1,0,0.1,0,0.2h0.3c0,0-0.1,0.1-0.2,0.1c0,0,0,0,0,0c-0.3,0.1,0.2,0.1-0.1,0.1c0.1,0,0.2,0,0.3,0
	c-0.2,0-0.2,0.1-0.3,0.1c0.1,0,0.1,0.1,0.3,0.1c-0.1,0.1-0.2,0-0.3,0c0.2,0,0.1,0.2,0.2,0.2c0,0,0,0-0.1,0c0.2,0.1,0.2,0.2,0.4,0.3
	l-0.2,0c-0.1,0.1,0.4,0.1,0.4,0.2c-0.3,0,0,0.2-0.3,0.1c0.2,0.1,0.2,0.1,0.5,0.2c-0.2,0.1-0.4-0.1-0.4,0l0.1,0.1l-0.1,0
	c0.1,0,0.1,0.1,0.2,0.1c-0.2,0-0.3,0.1-0.4,0.1c0.1,0.1-0.1,0.1,0,0.2h-0.1c0.3,0.1,0.1,0.2,0.4,0.2l-0.2,0c0,0.1,0.4,0.1,0.4,0.1
	c0,0,0.1,0.1,0,0.1c-0.2-0.1-0.2,0.1-0.4,0.1c0,0,0,0.2,0.2,0.2c-0.2-0.1-0.3,0-0.3-0.1c-0.3,0.1,0.1,0.1,0,0.2h-0.2
	c0.1,0.1,0.4,0.1,0.6,0.2c-0.2,0-0.2,0-0.4,0c-0.1,0.1,0,0.3,0,0.4c-0.1,0-0.2,0-0.3,0c0.1,0.1,0,0.3,0.3,0.3
	c-0.1,0-0.1,0.1-0.2,0.1c0.1,0,0.2,0,0.2,0c0.1,0.1,0.3,0.2,0.2,0.3l-0.1,0c0,0.2,0.5,0.3,0.3,0.5c-0.1,0-0.3,0-0.3,0.1
	c0.1,0,0.4,0,0.3,0.1h-0.2l0.2,0.1c0.2,0,0.1-0.1,0.3-0.1c-0.2,0.1,0.2,0.1,0,0.2c0,0-0.2-0.1-0.3-0.1c-0.2,0.2,0.2,0.3,0,0.6
	c0.2,0.1,0.2,0.2,0.4,0.3c-0.2,0-0.4,0-0.6,0c0,0.1,0.5,0.1,0.2,0.2c0.3,0,0.2,0.3,0.6,0.2c-0.1,0,0,0.1-0.2,0
	c0.1,0.1-0.3,0.2-0.3,0.3c0,0,0.3-0.1,0.3,0c0,0-0.1,0-0.1,0l0.1,0c-0.1,0-0.2,0-0.3,0c-0.1,0.1,0.2,0.2,0.3,0.3l-0.1,0v0.1h0
	l0.2,0.1h-0.1c0,0,0.1,0,0.1,0.1h-0.1c0.2,0,0.3,0.1,0.3,0.2l-0.1,0c0.1,0.1,0.2,0.1,0.3,0.2c-0.2,0.1-0.3-0.1-0.2,0.1l-0.3-0.1
	c0.1,0.1-0.1,0.1,0,0.2c0.1,0,0.1-0.1,0.2,0c-0.3,0.1,0.1,0.1,0.2,0.2c0,0,0-0.1-0.2-0.1c0,0,0.1,0,0.2,0l-0.1-0.1h0.2l-0.1-0.1
	c0.2,0,0-0.1,0.3-0.1c-0.1-0.1,0.1-0.2-0.2-0.3c0.1-0.1,0.2,0.1,0.2,0c-0.2-0.4-0.2-0.6-0.2-0.9l0.1,0c-0.1,0-0.2-0.1-0.2-0.1
	c0.2-0.1,0.4-0.3,0-0.3c0,0,0.1,0,0.1,0c-0.1-0.1,0.2-0.3,0.1-0.4c-0.3,0,0.2-0.2-0.3-0.3l0.1,0c-0.1,0.1-0.3-0.1-0.4-0.1
	c0.3-0.1,0.2,0,0.5-0.1l-0.1,0.1l0.2,0c-0.6-0.2,0.3-0.4-0.2-0.4c0,0,0.1,0,0.1,0c0.1-0.1-0.2-0.1-0.3-0.2c0.1,0,0.2,0,0.3,0.1
	c0.1-0.1-0.2-0.4-0.1-0.5c-0.2-0.1-0.2,0-0.3,0c0.1-0.1,0.2-0.1,0.3,0c0.3-0.1-0.2-0.4,0.1-0.6c-0.2-0.1-0.3,0-0.4-0.2
	c0.1,0,0.4,0,0.4,0.1h0.1c0-0.1,0.1-0.4-0.3-0.4c0.3,0,0,0,0.2-0.1c0,0,0,0-0.1,0c-0.2-0.1,0-0.1,0-0.1h0l-0.2-0.1
	c0,0,0.1-0.1,0.2-0.1h-0.2c0-0.1,0.2,0,0.2-0.1l-0.1,0c0.1-0.1-0.1-0.1,0.1-0.1c0,0,0,0,0,0c0.3-0.1-0.1-0.2,0-0.3l-0.3,0
	c-0.1-0.1,0.1-0.1,0.2-0.1c0-0.1,0.1-0.1,0.1-0.2c-0.1,0-0.1,0-0.2,0l0.1-0.1l0.2,0.1c-0.5-0.1,0-0.3-0.4-0.4c0.1-0.1,0.2,0,0.2,0
	c0.2-0.2-0.3-0.3-0.1-0.5c0.2-0.2,0-0.4,0.1-0.7h-0.1l0.1-0.2c-0.2,0-0.1-0.1-0.3-0.2c0.1,0,0.2,0,0.2,0c0-0.1-0.1-0.1,0-0.2l0.1,0
	c0-0.2,0-0.4-0.1-0.4c0-0.1,0.1-0.1,0.2-0.1c0-0.1-0.1-0.1-0.2-0.2c0,0,0.1-0.1,0.1-0.1l-0.2,0c0,0,0.2,0,0.2-0.1
	c-0.2-0.1-0.1-0.3-0.1-0.4l-0.1,0c-0.1,0,0.1-0.1,0.2-0.1c0.1-0.2-0.3-0.2-0.3-0.5c0.4-0.1-0.1-0.2,0.3-0.3c-0.1-0.1,0-0.2-0.2-0.2
	c0,0,0.1,0,0.1,0c0.1-0.1,0-0.2-0.1-0.3l0.1,0c-0.3,0-0.2-0.2-0.5-0.2c0.1,0,0.1,0,0.2,0c0.2-0.1-0.1-0.1-0.1-0.2
	c0.1,0,0.1-0.1,0.2,0c0.2-0.3-0.4-0.6-0.2-0.9c0-0.1-0.3,0.1-0.3,0c0.1-0.1,0.3,0,0.3-0.1c-0.2,0-0.1,0-0.1-0.1c0.1,0,0.1,0,0.2,0
	c0.1-0.1-0.2-0.1-0.1-0.2c-0.1,0-0.1,0-0.2,0c-0.3-0.1,0.2-0.3,0-0.3c0,0-0.1,0-0.1,0c0,0,0-0.1,0.1-0.1c-0.1,0-0.2,0-0.2,0l0.2,0
	c0,0-0.1,0-0.2,0l-0.1,0.1c0.1-0.1-0.2-0.1,0.1-0.2h0l0.1-0.1c-0.1,0-0.2,0-0.2-0.1c0.3-0.1,0-0.2,0.1-0.2l0.1,0
	c-0.2,0-0.1-0.2-0.2-0.1c0-0.1,0-0.1,0.1-0.1c-0.1,0-0.1-0.1-0.3-0.1l0.2-0.1c-0.4,0,0.1-0.2-0.3-0.1c0.1-0.1,0.2-0.1,0.2-0.1
	c-0.2-0.1-0.2-0.1-0.1-0.2h0c0-0.1-0.2-0.1-0.2-0.2h0.3c0-0.1-0.3-0.1-0.2-0.1c0,0,0.1,0,0.1,0c-0.1-0.1,0-0.1,0.1-0.1
	c-0.2-0.1-0.1-0.1-0.3-0.2c0.3,0,0.1,0.1,0.4,0.1c0.2-0.1,0-0.2-0.1-0.3c0.1,0,0.1,0,0.2,0.1c0,0-0.2-0.1-0.4-0.2
	c-0.2-0.1-0.4-0.3-0.6-0.3c-0.2-0.1-0.3-0.2-0.5-0.1c0.1,0.1,0.2,0.2,0,0.2l0.2,0.1c0.1,0.2-0.4-0.1-0.5,0.1l0.1,0
	c0,0,0.1,0.1,0,0.1c-0.1,0-0.1,0-0.1-0.1l0.2,0.2c-0.1,0-0.2,0-0.3-0.1c0,0.2,0.4,0,0.3,0.2c-0.1,0-0.1,0-0.2-0.1
	c-0.2,0.1,0,0.1,0.1,0.3c-0.2,0-0.2-0.1-0.3,0c0.1,0,0.3,0,0.3,0.1c-0.2-0.1-0.1,0-0.2,0.1c0.1,0,0.2,0,0.2,0s0,0.1,0,0.1l0.2-0.1
	c0.2,0.1-0.1,0.1-0.2,0.2c0,0-0.1,0-0.1,0c-0.1,0.1-0.2,0.2-0.1,0.3h0c0.2,0.2,0.3-0.1,0.5,0.1c0,0.1-0.6,0-0.4,0.1
	c0.2-0.1,0.4,0.1,0.5,0.1l-0.4-0.1c0,0,0.1,0.1,0.1,0.1h0.1c0.3-0.1,0,0.1,0.2,0.1c-0.4,0-0.4,0-0.8,0c0.2,0,0.5,0.1,0.4,0.2l-0.3,0
	c-0.1,0.2,0.5,0.3,0.8,0.3c-0.2,0-0.3,0.1-0.5,0.1l0.1,0.1l-0.3,0c0.3,0,0.1,0.1,0.5,0c0,0-0.1,0-0.1,0c0.1,0,0.3-0.1,0.3,0
	c-0.1,0.1-0.1,0-0.2,0c0.2,0-0.1,0.1,0,0.1l0.1-0.1c0.2,0,0,0.1,0.1,0.1c-0.1,0-0.2,0-0.3,0.1h0c0,0,0.2,0,0.1,0.1l-0.3,0h0.2
	c0,0-0.1,0.1-0.2,0.1c-0.1,0.2,0.6-0.2,0.4,0.1c-0.1,0-0.2,0-0.1-0.1c-0.2,0-0.3,0.1-0.3,0.1c0,0,0,0,0,0c0,0.1,0.1,0.2,0.3,0.3
	L91.5,188.1z"/>
<path class="st0" d="M91.2,187.9c0-0.1,0-0.1-0.1-0.1C91.1,187.8,91,187.9,91.2,187.9z"/>
<path class="st0" d="M92.4,196.1L92.4,196.1L92.4,196.1z"/>
<path class="st0" d="M92.5,196.5C92.5,196.5,92.6,196.5,92.5,196.5C92.5,196.5,92.5,196.5,92.5,196.5z"/>
<path class="st0" d="M92.2,191.8L92.2,191.8L92.2,191.8z"/>
<path class="st0" d="M92.2,194.4c0.1,0,0.2,0.1,0.2,0.1C92.5,194.4,92.4,194.4,92.2,194.4z"/>
<path class="st0" d="M92.3,193.5C92.3,193.5,92.3,193.5,92.3,193.5C92.3,193.5,92.3,193.5,92.3,193.5z"/>
<path class="st0" d="M92,191.7c0.1,0,0.1,0.1,0.2,0.1C92.1,191.8,92.2,191.7,92,191.7z"/>
<polygon class="st0" points="92.9,197.1 92.7,197 92.8,197.1 "/>
<path class="st0" d="M92.8,196.6c0,0-0.1-0.1-0.1-0.1C92.7,196.6,92.7,196.6,92.8,196.6z"/>
<polygon class="st0" points="92.9,195 92.7,195 92.8,195 "/>
</svg>
