<?xml version="1.0" encoding="utf-8"?>
<!-- Generator: Adobe Illustrator 28.1.0, SVG Export Plug-In . SVG Version: 6.00 Build 0)  -->
<svg version="1.1" id="a" xmlns="http://www.w3.org/2000/svg" xmlns:xlink="http://www.w3.org/1999/xlink" x="0px" y="0px"
	 viewBox="0 0 646 792" style="enable-background:new 0 0 646 792;" xml:space="preserve">
<style type="text/css">
	.st0{fill:#5F5F5F;}
</style>
<g>
	<polygon class="st0" points="89.3,225.3 89.5,225.3 89.4,225.1 	"/>
	<path class="st0" d="M90.7,223.8c0-0.2,0.2-0.6,0-0.8l0,0.4c-0.2-0.1-0.3,0.1-0.4,0.3l0.1-0.2c0,0.1,0.1,0.1,0.1,0.2
		c-0.3,0.2-0.2,0.5-0.5,0.6v0l-0.1,0.3c-0.1,0-0.1-0.1-0.2-0.1c0,0.3,0,0.5-0.2,0.7c0.4,0,0.1-0.7,0.6-0.6v0
		C90.1,224.1,90.6,224,90.7,223.8L90.7,223.8z"/>
	<path class="st0" d="M89.7,224.4L89.7,224.4C89.7,224.4,89.7,224.4,89.7,224.4z"/>
	<path class="st0" d="M95,212.5L95,212.5C94.9,212.5,95,212.5,95,212.5z"/>
	<path class="st0" d="M93.5,216.3L93.5,216.3C93.4,216.3,93.4,216.3,93.5,216.3z"/>
	<path class="st0" d="M92.5,191.5L92.5,191.5C92.5,191.4,92.5,191.5,92.5,191.5z"/>
	<path class="st0" d="M91.4,186.3L91.4,186.3L91.4,186.3z"/>
	<path class="st0" d="M90.7,188.9L90.7,188.9C90.7,188.9,90.7,188.9,90.7,188.9z"/>
	<path class="st0" d="M90.1,187.2c0-0.1,0-0.1,0-0.1C90.1,187.1,90.1,187.2,90.1,187.2z"/>
	<path class="st0" d="M91.5,186.3C91.5,186.3,91.4,186.3,91.5,186.3C91.4,186.3,91.4,186.3,91.5,186.3z"/>
	<path class="st0" d="M91.1,191.3l-0.2,0.1C91,191.4,91,191.4,91.1,191.3z"/>
	<path class="st0" d="M89.9,186.8c0,0,0-0.1,0.1-0.1C89.9,186.7,89.9,186.8,89.9,186.8z"/>
	<path class="st0" d="M90.9,223.5c0,0-0.1,0.1-0.1,0.1C90.9,223.6,90.9,223.5,90.9,223.5z"/>
	<path class="st0" d="M92.7,200.5C92.7,200.5,92.7,200.5,92.7,200.5C92.6,200.5,92.7,200.5,92.7,200.5z"/>
	<path class="st0" d="M90.8,195.4L90.8,195.4C90.8,195.4,90.8,195.4,90.8,195.4L90.8,195.4z"/>
	<path class="st0" d="M91.8,196.9C91.8,196.9,91.8,196.9,91.8,196.9C91.8,196.9,91.8,196.9,91.8,196.9z"/>
	<path class="st0" d="M90.7,193.8C90.7,193.8,90.7,193.8,90.7,193.8L90.7,193.8z"/>
	<path class="st0" d="M91.1,192.8c-0.1,0.1-0.2,0-0.2-0.1c-0.1,0.3,0.2,0.4-0.1,0.6l0.1-0.1c0.2,0.2,0.1,0.5-0.1,0.6l-0.1-0.1
		c0.1,0.2-0.2,0.4-0.1,0.5c0.1,0,0.1,0,0.3,0c0,0.1,0,0.1,0,0.3c0,0.1,0,0.3,0,0.4l-0.3,0.1c0,0.1,0.1,0.3,0.1,0.4
		c0-0.1,0.1,0.1,0.1,0.2c0.1,0.1,0.2,0.3,0.3,0.2c0.1,0.2-0.2,0.1-0.4,0c0.2,0.2,0.2,0.3,0.4,0.3l-0.1,0.3c0.1,0,0.2,0.1,0.3,0.1
		c0,0,0,0-0.1,0c0.3,0,0.1,0.4,0.5,0.3c0,0,0,0,0,0c0.2,0,0.2,0.3,0.2,0.4c0.1,0.1,0.2,0,0.3-0.1c0.1,0.5,0.1,0.3,0.5,0.7
		c-0.2,0.3-0.6-0.1-0.7,0.2c0.2,0,0.3,0.2,0.5,0.4c0,0.3-0.1,0.7-0.2,0.9l0.2-0.1l0.2,0.3l-0.3-0.1c0.1,0,0.2,0.2,0.3,0.3
		c0.2,0.3-0.4,0.3-0.1,0.5c0,0,0,0-0.1,0c0.2,0.1,0.1,0.3,0.2,0.6l-0.3-0.1l0-0.2c-0.2,0.1,0.1,0.3,0.1,0.5c0.1,0.2,0.3,0.1,0.4,0.1
		c0,0.1,0.1,0.2,0,0.2c-0.1,0.2-0.3,0.1-0.4,0c0.3,0.1,0.3,0.1,0.4,0.4c-0.1,0-0.2,0-0.2,0c0,0.1,0.1,0.1,0.2,0.1l-0.1,0.1
		c-0.2,0.4,0.5,0.3,0.5,0.7c-0.1-0.1,0.1,0.4-0.1,0.5c0-0.1-0.4,0.1-0.6,0c-0.1,0.3,0.3,0.1,0.4,0.4l-0.3-0.1
		c0.2,0.3,0.2,0.1,0.3,0.3c-0.1-0.1-0.1,0.1-0.2,0c0,0.4,0,0.3,0,0.6h0.3c0,0.1-0.1,0.2-0.2,0.2c0,0,0-0.1,0-0.1
		c-0.3,0.1,0.2,0.2-0.1,0.3c0.1,0,0.2-0.1,0.3,0.1c-0.2,0-0.2,0.2-0.3,0.2c0.1-0.1,0.1,0.3,0.3,0.3c-0.1,0.2-0.2,0-0.3-0.1
		c0.3,0.1,0.1,0.5,0.2,0.6c0,0,0,0-0.1,0c0.2,0.1,0.2,0.4,0.4,0.7l-0.2-0.1c-0.1,0.3,0.4,0.2,0.4,0.4c-0.3,0,0.1,0.4-0.2,0.3
		c0.2,0.1,0.2,0.3,0.5,0.4c-0.1,0.2-0.4-0.2-0.4,0l0.2,0.2l-0.1,0.1c0.1,0,0.1,0.2,0.2,0.2c-0.2,0.1-0.3,0.2-0.4,0.2
		c0.1,0.1-0.1,0.3,0.1,0.4l-0.1,0c0.3,0.1,0.1,0.4,0.4,0.5l-0.2,0.1c0,0.2,0.4,0.1,0.5,0.2c0,0.1,0.1,0.2,0,0.3
		c-0.2-0.3-0.2,0.1-0.4,0.2c0,0.1,0,0.4,0.2,0.5c-0.2-0.1-0.3-0.1-0.3-0.3c-0.3,0.1,0.1,0.4,0,0.6h-0.2c0.1,0.4,0.3,0.4,0.6,0.6
		c-0.2,0-0.2,0-0.4-0.1c-0.1,0.2,0,0.6-0.1,0.9c-0.1,0.1-0.2,0-0.3-0.1c0.1,0.3-0.1,0.6,0.2,0.9c-0.1-0.1-0.1,0.1-0.2,0.2
		c0.1,0,0.1,0,0.1,0.1c0.1,0.2,0.2,0.6,0,0.8l-0.1-0.1c-0.2,0.5,0.4,0.8,0,1.3c-0.1,0.1-0.2-0.2-0.3,0c0.1,0.1,0.3,0.1,0.2,0.4
		l-0.2-0.1l0.2,0.2c0.2,0,0.2-0.3,0.3-0.1c-0.2,0.2,0.1,0.2-0.2,0.4c0-0.1-0.1-0.2-0.2-0.3c-0.4,0.5,0,0.8-0.5,1.3
		c0.1,0.3,0,0.7,0.1,0.9c-0.2-0.1-0.4-0.1-0.5-0.3c-0.1,0.2,0.3,0.5-0.1,0.6c0.2,0.2-0.1,0.7,0.3,0.9c-0.1,0-0.1,0.2-0.2-0.1
		c0,0.4-0.5,0.3-0.6,0.4c0,0.1,0.3,0,0.2,0.2c0,0-0.1,0-0.1,0l0.1,0.1c-0.1,0-0.2-0.2-0.2-0.2c-0.2,0.2,0,0.5-0.1,0.8l0-0.1
		l-0.2,0.3v0v0.3l-0.1-0.1c0,0.1,0.1,0.1,0,0.2l-0.1-0.1c0.1,0.2,0.1,0.5,0,0.6h-0.1c0,0.2,0,0.3,0,0.5c-0.2,0.1-0.1-0.4-0.3,0
		l-0.2-0.2c-0.1,0.3-0.2,0.2-0.3,0.4c0.2,0,0.2-0.1,0.3,0.1c-0.4,0-0.2,0.3-0.2,0.6c0.1-0.1,0.1-0.1,0.1-0.3c0.1-0.1,0.1,0.1,0.2,0
		v-0.2l0.2,0.1l0.1-0.3c0.2,0.1,0.2-0.2,0.3,0c0-0.2,0.2-0.3,0.2-0.6c0.2-0.1,0,0.3,0.1,0.1c0.2-0.8,0.6-1.5,0.9-2.2l0.1,0.1
		c-0.1-0.1-0.1-0.2-0.1-0.3c0.2-0.1,0.6-0.5,0.4-0.8c0,0,0.1,0,0.1,0.1c0.1-0.3,0.4-0.6,0.5-1c-0.3-0.3,0.4-0.5,0-0.8l0.1,0.1
		c-0.2,0.1-0.2-0.3-0.4-0.4c0.3,0,0.2,0.1,0.5,0l-0.1,0.1l0.2,0c-0.5-0.6,0.5-0.8,0.2-1.2c0,0,0.1,0,0.1,0.1
		c0.2-0.2-0.1-0.4-0.1-0.5c0.1,0,0.2,0.1,0.2,0.2c0.2-0.3,0-1,0.2-1.3c-0.1-0.2-0.2,0-0.3-0.1c0.1-0.1,0.2-0.2,0.3,0
		c0.4-0.3,0-1.1,0.3-1.6c-0.2-0.3-0.3-0.1-0.3-0.6c0.1,0.1,0.4-0.1,0.4,0.2l0.1,0c0.1-0.4,0.1-1-0.2-1.2c0.3,0,0.1-0.1,0.2-0.2
		c0-0.1,0,0-0.1,0c-0.2-0.2,0-0.2,0-0.3l0.1,0l-0.2-0.3c0,0,0.1-0.1,0.2-0.1h-0.2c0-0.1,0.2-0.1,0.2-0.3l-0.1,0.1
		c0.1-0.1-0.1-0.3,0.1-0.4c0,0,0,0,0,0.1c0.3-0.2-0.1-0.5,0-0.8l-0.3,0.1c-0.1-0.2,0.1-0.1,0.2-0.1c0-0.2,0.1-0.2,0.1-0.4
		c-0.1-0.1-0.1,0-0.2-0.1l0-0.2l0.2,0.1c-0.5-0.3,0-0.8-0.5-0.9c0.1-0.1,0.2,0.1,0.2,0c0.2-0.4-0.3-0.8-0.1-1.1
		c0.2-0.5,0-1.1,0.1-1.7h-0.1l0-0.4c-0.2-0.1-0.1-0.4-0.3-0.5c0.1,0,0.2,0,0.2,0c0-0.2-0.1-0.4,0-0.5l0.1,0.1c0-0.4,0-0.9-0.2-1.1
		c0-0.1,0.1-0.1,0.2-0.2c0-0.2-0.1-0.4-0.3-0.5c0-0.1,0.1-0.1,0.1-0.2l-0.2-0.1c0-0.1,0.2,0,0.2-0.1c-0.3-0.3-0.1-0.7-0.2-1
		l-0.1,0.1c-0.1-0.1,0-0.3,0.1-0.2c0.1-0.5-0.4-0.7-0.5-1.3c0.4-0.2-0.2-0.6,0.1-0.8c-0.2-0.3-0.1-0.5-0.4-0.6c0,0,0-0.1,0.1,0
		c0.1-0.2-0.2-0.5-0.4-0.8l0.1-0.1c-0.3,0-0.5-0.5-0.8-0.4c0-0.1,0.1,0,0.2,0c0.1-0.3-0.2-0.2-0.3-0.4c0.1,0,0.1-0.1,0.2-0.1
		c0-0.2-0.1-0.4-0.3-0.5c-0.1-0.1-0.1-0.1-0.1-0.1c0,0,0,0-0.1,0c0-0.1-0.1-0.1-0.1-0.2c0-0.2,0.1-0.4,0.2-0.6
		c0.1-0.2-0.3,0-0.2-0.3c0.2-0.1,0.2,0.2,0.3,0c-0.2-0.2-0.1-0.2-0.1-0.4c0.1,0,0.2,0,0.2,0.2c0.1-0.1-0.2-0.5,0.1-0.7
		c-0.1,0-0.1,0-0.2-0.1c-0.2-0.3,0.2-0.8,0.1-0.8c0,0,0-0.1-0.1,0c0-0.1,0-0.3,0.2-0.3c-0.1-0.1-0.2-0.1-0.2-0.2l0.2,0
		c0-0.1-0.1-0.1-0.2-0.1l-0.1,0.1c0.1-0.1-0.2-0.4,0.1-0.4v0l0.1-0.3c-0.1-0.1-0.3-0.2-0.2-0.3c0.3-0.1,0-0.4,0-0.7h0.1
		c-0.2-0.1-0.2-0.6-0.2-0.5c0-0.2,0-0.4,0.1-0.3c-0.1-0.1-0.2-0.4-0.3-0.4l0.2-0.3c-0.4,0,0-0.5-0.4-0.4c0-0.1,0.1-0.1,0.2-0.2
		c-0.2-0.1-0.3-0.3-0.3-0.5h0c0-0.2-0.3-0.4-0.3-0.6l0.3-0.1c-0.1-0.1-0.3-0.1-0.3-0.3c0,0,0.1,0,0.1,0c-0.1-0.1,0-0.3,0-0.4
		c-0.2-0.2-0.2-0.3-0.4-0.5c0.3-0.1,0.1,0.2,0.4,0.1c0.1-0.3,0-0.5-0.1-0.8c0.1,0,0.1,0,0.2,0.1c0,0-0.6-0.7-0.9-0.7
		c-0.2-0.1-0.3-0.3-0.5,0c0.1,0.1,0.2,0.4-0.1,0.4l0.2,0.1c0,0.4-0.5,0-0.5,0.5l0.1-0.1c0,0.1,0.1,0.2,0.1,0.3c-0.1,0-0.1,0-0.1-0.1
		c0.1,0.1,0.2,0.3,0.3,0.4c-0.1,0-0.2,0-0.3-0.1c0,0.4,0.4-0.1,0.3,0.4c-0.1,0.1-0.1,0-0.2-0.1c-0.2,0.2,0,0.4,0.1,0.6
		c-0.2,0-0.2-0.1-0.3,0.1c0.1-0.1,0.3-0.1,0.3,0c-0.2,0-0.1,0.1-0.1,0.3c0.1,0,0.1,0,0.2,0c0,0.1,0,0.1,0,0.2l0.2-0.2
		c0.2,0.2,0,0.4-0.1,0.6c0,0-0.1,0-0.1-0.1c0,0.2-0.2,0.4,0.1,0.6h0c0.3,0.4,0.3-0.2,0.6,0.2c0,0.2-0.6,0.1-0.3,0.4
		c0.1-0.2,0.5,0.1,0.6,0.3l-0.4-0.1c0,0.1,0.2,0.2,0.1,0.2l0.1,0c0.3-0.1,0,0.3,0.2,0.4c-0.5-0.1-0.4-0.1-0.8,0
		c0.3,0.1,0.5,0.2,0.5,0.4l-0.4-0.1c0,0.4,0.6,0.6,0.9,0.9c-0.3,0-0.3,0.1-0.6,0l0.1,0.3l-0.3,0c0.3,0.1,0.1,0.2,0.5,0.2
		c0,0-0.1,0-0.1-0.1c0.1,0,0.3,0,0.3,0.2c-0.1,0.1-0.2-0.1-0.2,0c0.2,0.1-0.1,0.1,0,0.2l0.1-0.1c0.2,0.1,0,0.2,0.2,0.3
		c-0.1-0.1-0.2-0.1-0.3,0h0c0,0.1,0.2,0.2,0.1,0.2l-0.3,0l0.2,0.1c0,0.1-0.1,0.1-0.2,0c-0.1,0.4,0.6-0.1,0.4,0.4
		c-0.1,0-0.2-0.1-0.1-0.2c-0.2,0-0.3,0-0.3,0.2c0,0,0,0,0,0C90.8,192.3,90.8,192.6,91.1,192.8L91.1,192.8z"/>
	<path class="st0" d="M90.8,192.1c0-0.1,0-0.2-0.1-0.3C90.7,191.8,90.7,192.1,90.8,192.1z"/>
	<path class="st0" d="M93.5,212.6C93.5,212.6,93.5,212.6,93.5,212.6L93.5,212.6z"/>
	<path class="st0" d="M93.5,213.7C93.5,213.7,93.5,213.7,93.5,213.7C93.5,213.6,93.4,213.6,93.5,213.7z"/>
	<path class="st0" d="M93,202.1L93,202.1L93,202.1z"/>
	<path class="st0" d="M93.3,208.6c0.1,0.1,0.2,0.1,0.2,0.1C93.5,208.6,93.4,208.6,93.3,208.6z"/>
	<path class="st0" d="M93.2,206.4C93.2,206.4,93.2,206.3,93.2,206.4C93.2,206.3,93.2,206.4,93.2,206.4z"/>
	<path class="st0" d="M92.8,201.8c0.1,0.1,0.1,0.2,0.2,0.3C92.9,202,93,201.8,92.8,201.8z"/>
	<polygon class="st0" points="93.5,215.1 93.4,215 93.5,215.1 	"/>
	<path class="st0" d="M93.6,214.1c0,0,0-0.2-0.1-0.2C93.6,213.9,93.6,214,93.6,214.1z"/>
	<polygon class="st0" points="94,210 93.8,210 94,210.1 	"/>
</g>
<g>
	<polygon class="st0" points="44.7,192.1 44.8,192.1 44.6,192.1 	"/>
	<path class="st0" d="M44.4,191.2c-0.2,0-0.3-0.1-0.6,0l0.3,0c-0.2,0.1-0.1,0.2,0,0.2l-0.1-0.1c0,0,0.2-0.1,0.2-0.1
		c0,0.2,0.3,0.1,0.1,0.3h0l0.2,0c0,0.1-0.1,0.1-0.2,0.1c0.2,0,0.3,0.1,0.4,0.2c0.3-0.3-0.4-0.1-0.1-0.4h0
		C44.4,191.5,44.5,191.3,44.4,191.2L44.4,191.2z"/>
	<path class="st0" d="M44.3,191.8L44.3,191.8C44.3,191.8,44.3,191.8,44.3,191.8z"/>
	<path class="st0" d="M44.2,186.6L44.2,186.6C44.2,186.6,44.2,186.6,44.2,186.6z"/>
	<path class="st0" d="M43.4,188.3L43.4,188.3C43.3,188.2,43.4,188.2,43.4,188.3z"/>
	<path class="st0" d="M45.7,177.9h0.1C45.7,177.9,45.7,177.9,45.7,177.9z"/>
	<path class="st0" d="M46.2,175.6L46.2,175.6L46.2,175.6z"/>
	<path class="st0" d="M44.8,176.5L44.8,176.5C44.7,176.5,44.8,176.5,44.8,176.5z"/>
	<path class="st0" d="M44.7,175.8C44.7,175.8,44.8,175.7,44.7,175.8C44.7,175.7,44.7,175.7,44.7,175.8z"/>
	<path class="st0" d="M46.2,175.6C46.2,175.6,46.2,175.6,46.2,175.6C46.2,175.6,46.2,175.6,46.2,175.6z"/>
	<path class="st0" d="M44.4,177.4l-0.2,0C44.2,177.4,44.3,177.4,44.4,177.4z"/>
	<path class="st0" d="M44.6,175.6C44.6,175.6,44.6,175.6,44.6,175.6C44.6,175.6,44.6,175.6,44.6,175.6z"/>
	<path class="st0" d="M44.3,191.1C44.3,191.1,44.3,191.1,44.3,191.1C44.4,191.1,44.3,191.1,44.3,191.1z"/>
	<path class="st0" d="M43.1,181.4C43.1,181.4,43,181.3,43.1,181.4C43,181.3,43,181.4,43.1,181.4z"/>
	<path class="st0" d="M43.8,179L43.8,179C43.8,179,43.7,179,43.8,179L43.8,179L43.8,179z"/>
	<path class="st0" d="M43.6,179.7L43.6,179.7C43.5,179.6,43.6,179.7,43.6,179.7z"/>
	<path class="st0" d="M43.7,178.4C43.7,178.4,43.7,178.4,43.7,178.4L43.7,178.4z"/>
	<path class="st0" d="M44.1,178c-0.1,0-0.1,0-0.2-0.1c-0.1,0.1,0.1,0.2-0.1,0.3l0.1,0c0.1,0.1,0.1,0.3-0.1,0.3l-0.1,0
		c0.1,0.1-0.2,0.1-0.1,0.2c0.1,0,0.1,0.1,0.2,0l0.1,0.2l-0.3-0.1l0.1,0.1c0.1,0-0.1,0.1,0.1,0.2c-0.1,0-0.2-0.1-0.3-0.1
		c0.1,0.1-0.1,0.1,0.1,0.2l-0.3,0l0.1,0.2c0,0,0,0-0.1,0c0.2,0.1-0.2,0.1,0.2,0.3c0,0,0,0,0,0c0.2,0.1,0,0.2,0,0.2
		c0,0.1,0.2,0.1,0.3,0.1c-0.1,0.2-0.1,0.1,0.1,0.4c-0.3,0-0.5-0.3-0.7-0.2c0.1,0.1,0.2,0.2,0.3,0.3c-0.1,0.1-0.3,0.2-0.5,0.3l0.2,0
		l0.1,0.2l-0.3-0.2c0.1,0,0.2,0.1,0.3,0.2c0.1,0.2-0.5,0-0.2,0.2h-0.1c0.1,0.1,0.1,0.2,0.1,0.3l-0.2-0.1l0.1-0.1c-0.3,0,0,0.1,0,0.2
		c0.1,0.1,0.3,0.1,0.4,0.2c0,0,0,0.1,0,0.1c-0.1,0.1-0.3-0.1-0.4-0.1c0.3,0.1,0.2,0.1,0.3,0.3c-0.1,0-0.2,0-0.2-0.1
		c0,0,0.1,0.1,0.2,0.1l-0.2,0c-0.2,0.1,0.5,0.2,0.3,0.4c-0.1-0.1,0,0.2-0.2,0.2c0-0.1-0.4,0-0.6-0.1c-0.1,0.1,0.3,0.1,0.4,0.2
		l-0.3-0.1c0.1,0.1,0.2,0.1,0.3,0.2c-0.1-0.1-0.1,0-0.2,0c-0.1,0.1,0,0.1-0.1,0.2l0.3,0.1c0,0-0.1,0.1-0.2,0.1c0,0,0-0.1,0-0.1
		c-0.3,0,0.1,0.1-0.1,0.1c0.1,0,0.2,0,0.3,0.1c-0.2,0-0.2,0.1-0.3,0.1c0.1,0,0.1,0.1,0.3,0.2c-0.2,0.1-0.2,0-0.3-0.1
		c0.2,0.1,0,0.2,0.2,0.3c0,0,0,0-0.1,0c0.2,0.1,0.2,0.2,0.4,0.4l-0.2-0.1c-0.1,0.1,0.4,0.1,0.4,0.2c-0.3,0,0,0.2-0.3,0.1
		c0.2,0.1,0.2,0.1,0.4,0.2c-0.1,0.1-0.3-0.1-0.4-0.1l0.1,0.1h-0.1c0.1,0,0.1,0.1,0.2,0.1c-0.2,0-0.3,0-0.4,0c0,0.1-0.1,0.1,0,0.2
		h-0.1c0.3,0.1,0.1,0.2,0.4,0.2l-0.2,0c0,0.1,0.4,0.1,0.4,0.1c0,0,0,0.1,0,0.1c-0.2-0.1-0.3,0.1-0.4,0.1c0,0.1,0,0.2,0.2,0.2
		c-0.2-0.1-0.3,0-0.3-0.1c-0.3,0.1,0.1,0.2,0,0.3h-0.2c0.1,0.2,0.4,0.2,0.6,0.2c-0.2,0-0.2,0-0.4,0c-0.1,0.1,0,0.3,0,0.4
		c-0.1,0-0.2,0-0.3,0c0.1,0.1,0,0.3,0.3,0.4c-0.1,0-0.1,0.1-0.2,0.1c0.1,0,0.2,0,0.2,0c0.1,0.1,0.3,0.2,0.1,0.3l-0.1,0
		c-0.1,0.2,0.5,0.3,0.3,0.5c-0.1,0-0.3,0-0.3,0.1c0.1,0,0.4,0,0.3,0.1h-0.2l0.2,0.1c0.2-0.1,0.1-0.2,0.3-0.1c-0.2,0.1,0.2,0.1,0,0.2
		c0,0-0.2-0.1-0.3-0.1c-0.2,0.2,0.2,0.3,0,0.6c0.2,0.1,0.2,0.3,0.4,0.3c-0.2,0-0.4,0-0.6,0c0,0.1,0.5,0.1,0.2,0.2
		c0.3,0,0.2,0.3,0.6,0.3c-0.1,0,0,0.1-0.2,0c0.1,0.1-0.3,0.2-0.3,0.3c0,0,0.3-0.1,0.3,0c0,0-0.1,0-0.1,0l0.1,0c-0.1,0-0.2,0-0.3,0
		c-0.1,0.1,0.2,0.2,0.3,0.3l-0.1,0v0.1h0l0.2,0.1h-0.1c0,0,0.1,0,0.1,0.1h-0.1c0.2,0,0.3,0.1,0.3,0.2l-0.1,0c0.1,0,0.2,0,0.3,0.1
		c-0.1,0.1-0.3,0-0.2,0.1l-0.3,0c0.1,0.1,0,0.1,0.1,0.2c0.1-0.1,0.1-0.1,0.2-0.1c-0.3,0.2,0.1,0.1,0.3,0.1c0,0,0-0.1-0.2,0
		c0,0,0.1-0.1,0.1-0.1h-0.2l0.2-0.1l-0.2,0c0.2-0.1,0-0.1,0.2-0.1c-0.1,0,0-0.1-0.2-0.1c0.1,0,0.2,0,0.2,0c-0.2-0.2-0.2-0.6-0.1-0.9
		l0.1,0c-0.1,0-0.2-0.1-0.2-0.1c0.2-0.1,0.4-0.3,0-0.4c0,0,0.1,0,0.1,0c-0.1-0.1,0.2-0.3,0.1-0.5c-0.4,0,0.2-0.2-0.3-0.3l0.1,0
		c-0.1,0.1-0.3-0.1-0.4-0.1c0.3-0.1,0.2,0,0.5-0.1l-0.1,0.1l0.2,0c-0.6-0.2,0.3-0.4-0.2-0.5c0,0,0.1,0,0.1,0
		c0.1-0.1-0.2-0.1-0.3-0.2c0.1,0,0.2,0,0.3,0.1c0.1-0.1-0.3-0.4-0.1-0.5c-0.2-0.1-0.2,0-0.3,0c0-0.1,0.2-0.1,0.3,0
		c0.3-0.1-0.2-0.4,0.1-0.6c-0.2-0.1-0.3,0-0.4-0.2c0.1,0,0.4,0,0.4,0.1h0.1c0-0.1,0.1-0.4-0.3-0.5c0.3,0,0,0,0.2-0.1c0,0,0,0-0.1,0
		c-0.2-0.1,0-0.1,0-0.1l0,0l-0.2-0.1c0,0,0.1-0.1,0.2-0.1h-0.2c0-0.1,0.2,0,0.2-0.1h-0.1c0.1,0-0.1-0.1,0.1-0.1c0,0,0,0,0,0
		c0.3-0.1-0.1-0.2,0-0.3H44c-0.1-0.1,0.1,0,0.2,0c0-0.1,0.1-0.1,0.1-0.1c-0.1,0-0.1,0-0.2,0l0.1-0.1l0.2,0.1
		c-0.4-0.2,0.1-0.3-0.3-0.4c0.1,0,0.2,0.1,0.2,0c0.2-0.1-0.3-0.4,0-0.5c0.2-0.2,0-0.4,0.2-0.7h-0.1l0.1-0.2
		c-0.2-0.1-0.1-0.2-0.3-0.3c0.1,0,0.2,0,0.2,0c0-0.1-0.1-0.2,0-0.2l0.1,0c0.1-0.1,0.1-0.4,0-0.5c0-0.1,0.1,0,0.2,0
		c0-0.1-0.1-0.2-0.2-0.2c0,0,0.1,0,0.2,0l-0.2-0.1c0,0,0.2,0,0.2,0c-0.2-0.2,0-0.3,0-0.4h-0.1c-0.1-0.1,0.1-0.1,0.2,0
		c0.2-0.2-0.2-0.4-0.1-0.6c0.4,0.1,0-0.3,0.4-0.2c-0.1-0.1,0.1-0.2-0.1-0.3c0,0,0.1,0,0.1,0c0.2,0,0.1-0.2,0-0.3l0.1,0
		c-0.2-0.1-0.1-0.3-0.4-0.4c0.1,0,0.1,0.1,0.1,0.1c0.3,0-0.1-0.1,0-0.2c0.1,0,0.1,0,0.2,0.1c0.3-0.1,0-0.7,0.3-0.9
		c0-0.1-0.3-0.1-0.2-0.2c0.1,0,0.2,0.1,0.3,0.1c-0.1-0.1-0.1-0.1-0.1-0.2c0.1,0,0.1,0.1,0.2,0.1c0.1,0-0.2-0.2,0.1-0.3
		c-0.1,0-0.1-0.1-0.2-0.1c-0.2-0.2,0.3-0.2,0.2-0.3c0,0,0-0.1-0.1,0c0,0,0.1-0.1,0.2-0.1c-0.1,0-0.2-0.1-0.2-0.1l0.1,0.1
		c0,0-0.1-0.1-0.1-0.1h-0.1c0.1,0-0.1-0.2,0.2-0.1v0l0.2-0.1c-0.1-0.1-0.2-0.1-0.1-0.2c0.3,0.1,0.1-0.2,0.2-0.2l0.1,0
		c-0.1-0.1,0-0.3-0.1-0.2c0-0.1,0.1-0.1,0.2-0.1c0-0.1,0-0.2-0.2-0.2l0.3-0.1c-0.4-0.1,0.2-0.2-0.2-0.3c0.1-0.1,0.2,0,0.2-0.1
		c-0.2-0.1-0.1-0.2-0.1-0.3h0c0-0.1-0.1-0.2-0.2-0.4h0.3c0-0.1-0.3-0.1-0.2-0.2c0,0,0.1,0,0.1,0c-0.1-0.1,0-0.1,0.1-0.2
		c-0.2-0.1-0.1-0.2-0.4-0.3c0.3-0.1,0.1,0.1,0.4,0.1c0.1-0.1,0-0.3-0.2-0.4c0.1,0,0.1,0,0.2,0c0,0-0.8-0.3-1-0.2
		c-0.2,0-0.3-0.1-0.5,0.1c0.1,0,0.3,0.1,0,0.2h0.2c0.1,0.1-0.4,0-0.4,0.2l0.1,0c0,0,0.2,0.1,0.1,0.1c-0.1,0-0.1,0-0.1,0l0.3,0.1
		c-0.1,0-0.2,0-0.3,0c0,0.1,0.4,0,0.3,0.1c-0.1,0-0.1,0-0.2,0c-0.2,0.1,0,0.1,0.1,0.2c-0.2,0-0.2-0.1-0.3,0c0.1,0,0.3,0,0.3,0.1
		c-0.2,0-0.1,0-0.2,0.1c0.1,0,0.2,0,0.2,0c0,0,0,0,0,0.1l0.2-0.1c0.2,0.1-0.1,0.1-0.2,0.2c0,0-0.1,0-0.1,0c-0.1,0.1-0.2,0.1-0.1,0.2
		h0c0.2,0.2,0.3,0,0.5,0.2c0,0.1-0.6-0.1-0.4,0.1c0.2,0,0.4,0.2,0.4,0.3l-0.3-0.1c0,0,0.1,0.1,0,0.1h0.1c0.3,0.1-0.1,0.1,0.1,0.2
		c-0.4-0.2-0.3-0.1-0.8-0.2c0.2,0.1,0.4,0.2,0.3,0.3l-0.3-0.1c-0.1,0.1,0.3,0.4,0.6,0.6c-0.2-0.1-0.3-0.1-0.5-0.2l0,0.1l-0.2-0.1
		c0.2,0.1,0.1,0.1,0.4,0.2c0,0-0.1,0-0.1-0.1c0.1,0,0.3,0.1,0.3,0.2c-0.1,0-0.1-0.1-0.2-0.1c0.1,0.1-0.1,0,0,0.1h0.2
		c0.2,0.1,0,0.1,0.1,0.1c-0.1-0.1-0.2-0.1-0.3-0.1h0c0,0,0.1,0.1,0,0.1l-0.3-0.1l0.2,0.1c0,0-0.1,0-0.2-0.1
		c-0.2,0.1,0.6,0.2,0.3,0.3c-0.1,0-0.2-0.1-0.1-0.1c-0.2-0.1-0.3-0.1-0.3,0c0,0,0,0,0,0C44,177.8,43.9,177.9,44.1,178L44.1,178z"/>
	<path class="st0" d="M44,177.7c0-0.1,0-0.1,0-0.1C43.9,177.5,43.8,177.6,44,177.7z"/>
	<path class="st0" d="M42.7,186.7L42.7,186.7L42.7,186.7z"/>
	<path class="st0" d="M42.8,187.2C42.8,187.2,42.9,187.1,42.8,187.2C42.8,187.1,42.8,187.1,42.8,187.2z"/>
	<path class="st0" d="M43,182.1L43,182.1L43,182.1z"/>
	<path class="st0" d="M42.6,184.9c0.1,0.1,0.2,0.1,0.2,0.1C42.8,184.9,42.7,184.9,42.6,184.9z"/>
	<path class="st0" d="M42.8,183.9L42.8,183.9C42.7,183.9,42.8,183.9,42.8,183.9z"/>
	<path class="st0" d="M42.9,181.9C43,182,43,182,43,182.1C43,182,43,182,42.9,181.9z"/>
	<polygon class="st0" points="43.2,187.8 43,187.7 43.1,187.8 	"/>
	<path class="st0" d="M43,187.3c0,0-0.1-0.1-0.1-0.1C43,187.3,43,187.3,43,187.3z"/>
	<polygon class="st0" points="43.2,185.6 43,185.5 43.1,185.6 	"/>
</g>
<g>
	<polygon class="st0" points="56,179.2 56.2,179.3 56,179.2 	"/>
	<path class="st0" d="M56.3,179c-0.1-0.1-0.2-0.2-0.4-0.4l0.2,0.2c-0.2-0.1-0.2-0.1-0.2,0v-0.1c0,0,0.2,0.1,0.2,0.1
		c-0.1,0,0.1,0.2-0.1,0.1l0,0l0.1,0.1c0,0-0.1-0.1-0.2-0.1c0.1,0.1,0.2,0.2,0.2,0.2c0.4,0.1-0.2-0.2,0.1-0.1h0
		C56.1,179,56.4,179.1,56.3,179z"/>
	<path class="st0" d="M55.9,179L55.9,179L55.9,179z"/>
	<path class="st0" d="M58.1,178.3L58.1,178.3C58.1,178.2,58.1,178.3,58.1,178.3z"/>
	<path class="st0" d="M57.1,177.8L57.1,177.8C57.1,177.7,57.1,177.7,57.1,177.8z"/>
	<path class="st0" d="M62.3,177.6L62.3,177.6C62.3,177.6,62.3,177.6,62.3,177.6z"/>
	<path class="st0" d="M63.4,177.7L63.4,177.7L63.4,177.7z"/>
	<path class="st0" d="M62.9,176.4L62.9,176.4C62.9,176.4,62.9,176.4,62.9,176.4z"/>
	<path class="st0" d="M63.2,176.3C63.2,176.3,63.2,176.3,63.2,176.3C63.2,176.3,63.2,176.3,63.2,176.3z"/>
	<path class="st0" d="M63.3,177.8C63.3,177.8,63.3,177.7,63.3,177.8C63.4,177.7,63.4,177.8,63.3,177.8z"/>
	<path class="st0" d="M62.3,176.3l0-0.2C62.3,176.2,62.3,176.2,62.3,176.3z"/>
	<path class="st0" d="M63.3,176.1C63.3,176.1,63.3,176.2,63.3,176.1C63.3,176.2,63.3,176.1,63.3,176.1z"/>
	<path class="st0" d="M56.3,178.9C56.3,178.9,56.3,178.9,56.3,178.9C56.4,179,56.4,179,56.3,178.9z"/>
	<path class="st0" d="M60.3,176.2C60.3,176.2,60.3,176.1,60.3,176.2C60.3,176.1,60.3,176.2,60.3,176.2z"/>
	<path class="st0" d="M61.5,176.2L61.5,176.2C61.5,176.2,61.5,176.1,61.5,176.2L61.5,176.2z"/>
	<path class="st0" d="M61.1,176.2L61.1,176.2C61.1,176.2,61.1,176.2,61.1,176.2z"/>
	<path class="st0" d="M61.7,175.9C61.7,175.9,61.7,175.9,61.7,175.9L61.7,175.9L61.7,175.9z"/>
	<path class="st0" d="M62,176.1c0-0.1,0-0.1,0-0.2c-0.1-0.1-0.1,0.2-0.2,0l0,0.1c0,0.2-0.1,0.2-0.2,0v-0.1c0,0.2-0.1-0.1-0.1,0
		c0,0.1,0,0.1,0,0.2l-0.1,0.2l0-0.3l0,0.1c0,0.1-0.1-0.1-0.1,0.2c0-0.1,0-0.2,0-0.3c0,0.1,0,0-0.1,0.1l0-0.2l-0.1,0.2c0,0,0,0,0-0.1
		c0,0.2-0.1-0.1-0.1,0.2c0,0,0,0,0,0c0,0.2-0.1,0.1-0.1,0c0,0.1,0,0.2,0,0.4c-0.1-0.1-0.1,0-0.2,0.3c-0.1-0.3,0-0.5-0.1-0.7
		c0,0.2,0,0.3-0.1,0.4c-0.1-0.1-0.2-0.2-0.2-0.4l0,0.2l-0.1,0.1l0-0.3c0,0.1,0,0.2,0,0.3c-0.1,0.2-0.1-0.4-0.1-0.1v-0.1
		c0,0.2-0.1,0.1-0.1,0.2v-0.3l0,0.1c0-0.3-0.1,0.1-0.1,0c0,0.1,0,0.3,0,0.4c0,0,0,0.1-0.1,0c0-0.1,0-0.3,0-0.4c0,0.3,0,0.2-0.1,0.4
		c0-0.1,0-0.2,0-0.2c0,0,0,0.1,0,0.2l0-0.1c-0.1-0.2,0,0.5-0.1,0.4c0-0.1-0.1,0-0.1-0.1c0-0.1-0.1-0.4-0.1-0.6c-0.1-0.1,0,0.3,0,0.4
		l0-0.3c0,0.1,0,0.2,0,0.3c0-0.1,0-0.1,0-0.2c-0.1,0-0.1,0-0.1,0l0,0.3c0,0,0-0.1-0.1-0.2c0,0,0,0,0,0c-0.1-0.3,0,0.2-0.1-0.1
		c0,0.1,0.1,0.2,0,0.3c0-0.2-0.1-0.2-0.1-0.2c0,0.1-0.1,0.1,0,0.3c-0.1-0.1,0-0.2,0-0.3c0,0.2-0.1,0.1-0.1,0.2c0,0,0,0,0-0.1
		c0,0.2-0.1,0.2-0.1,0.4v-0.2c-0.1-0.1,0,0.4,0,0.4c0-0.3-0.1,0-0.1-0.2c0,0.1,0,0.2,0,0.4c-0.1-0.1,0-0.4-0.1-0.4l0,0.1l0-0.1
		c0,0.1,0,0.1,0,0.2c0-0.2-0.1-0.3-0.1-0.4c0,0.1-0.1-0.1-0.1,0.1l0-0.1c0,0.3-0.1,0.1,0,0.4l-0.1-0.2c0,0,0,0.4,0,0.4
		c0,0,0,0.1,0,0c0-0.2-0.1-0.2-0.1-0.4c0,0-0.1,0.1-0.1,0.2c0-0.2-0.1-0.3,0-0.3C58,176.6,58,177,58,177l0-0.1c0,0.1,0,0.4,0.1,0.6
		c-0.1-0.2-0.1-0.2-0.1-0.4c-0.1-0.1-0.1,0.1-0.2,0.1c-0.1-0.1-0.1-0.2-0.1-0.3c0,0.2-0.2,0-0.1,0.3c0-0.1,0-0.1-0.1-0.1
		c0,0.1,0,0.1,0,0.1c0,0.1,0,0.3-0.1,0.2l0-0.1c-0.1,0,0,0.5-0.2,0.3c0-0.1-0.1-0.3-0.1-0.2c0,0.1,0.1,0.4,0.1,0.3l-0.1-0.2l0,0.2
		c0.1,0.2,0.1,0.1,0.1,0.3c-0.1-0.2,0,0.2-0.1,0c0,0,0-0.2-0.1-0.3c-0.2-0.2-0.1,0.2-0.3,0.1c0,0.2,0,0.2,0,0.4
		c-0.1-0.2-0.2-0.4-0.2-0.5c-0.1,0,0.1,0.4,0,0.2c0.1,0.3,0,0.2,0.2,0.6c0-0.1,0,0-0.1-0.2c0,0.1-0.3-0.3-0.3-0.2
		c0,0,0.2,0.2,0.1,0.2c0,0,0,0,0-0.1l0,0.1c-0.1-0.1-0.1-0.2-0.2-0.3c-0.1,0,0.1,0.2,0,0.3l0-0.1l-0.1,0v0l0,0.1l-0.1-0.1
		c0,0,0,0.1,0,0.1l-0.1-0.1c0.1,0.2,0.2,0.3,0.2,0.3l0,0l0.1,0.2c-0.1-0.1-0.2-0.2-0.2-0.1l-0.2-0.2c0,0.1-0.1,0,0,0.1
		c0.1,0.1,0.1,0.1,0.2,0.1c-0.3-0.2,0,0.1,0.1,0.2c0,0,0,0-0.1-0.1c0,0,0.1,0.1,0.1,0.1l-0.1-0.1l0.2,0.1l-0.1-0.1
		c0.2,0.1,0,0,0.2,0.2c-0.1-0.1,0.1,0-0.1-0.1c0.1,0.1,0.1,0.1,0.1,0.1c0-0.2,0.1-0.2,0.2-0.2l0,0.1c0-0.1-0.1-0.2-0.1-0.2
		c0.1,0.1,0.3,0.3,0.1,0c0,0,0,0.1,0,0.1c0-0.1,0.2,0.1,0.2,0.1c-0.1-0.3,0.2,0.2,0-0.3l0,0.1c-0.1-0.1-0.1-0.3-0.1-0.4
		c0.1,0.3,0.1,0.2,0.2,0.5l-0.1-0.1l0.1,0.2c-0.2-0.6,0.2,0.2,0.1-0.2c0,0,0,0.1,0,0.1c0.1,0.1,0-0.2,0-0.3c0.1,0.1,0.1,0.2,0.1,0.3
		c0.1,0.1,0.1-0.3,0.2-0.1c0-0.2-0.1-0.2-0.1-0.3c0,0,0.1,0.2,0.1,0.2c0.2,0.3,0.1-0.3,0.3,0c0-0.2-0.1-0.3,0-0.4
		c0,0.1,0.1,0.4,0.1,0.4l0,0.1c0.1,0,0.2,0,0.1-0.4c0.1,0.3,0,0.1,0.1,0.2c0,0,0,0,0-0.1c0-0.2,0,0,0,0v0.1l0-0.2c0,0,0,0.1,0.1,0.2
		l0-0.2c0,0,0.1,0.2,0.1,0.2l0-0.1c0,0.1,0-0.1,0.1,0.1c0,0,0,0,0,0c0.1,0.3,0.1-0.1,0.1,0l-0.1-0.3c0-0.1,0,0.1,0.1,0.2
		c0,0,0.1,0.1,0.1,0.1c0-0.1,0-0.1,0-0.2l0.1,0.1v0.2c0-0.5,0.2,0,0.1-0.4c0,0.1,0,0.2,0,0.2c0.1,0.2,0.1-0.3,0.2-0.1
		c0.1,0.2,0.2,0,0.3,0.1v-0.1l0.1,0.1c0-0.2,0.1-0.1,0.1-0.3c0,0.1,0,0.2,0,0.2c0,0,0.1-0.1,0.1,0v0.1c0.1,0,0.2,0,0.2-0.1
		c0,0,0,0.1,0.1,0.2c0,0,0.1-0.1,0.1-0.2c0,0,0,0.1,0.1,0.1v-0.2c0,0,0,0.2,0,0.2c0-0.2,0.1,0,0.2-0.1l0-0.1c0-0.1,0.1,0.1,0,0.2
		c0.1,0.1,0.1-0.3,0.2-0.3c0,0.4,0.1-0.1,0.1,0.3c0-0.1,0.1,0.1,0.1-0.2c0,0,0,0.1,0,0.1c0,0.1,0.1,0,0.1-0.1v0.1
		c0-0.3,0.1-0.2,0.1-0.5c0,0.1,0,0.1,0,0.2c0,0.2,0-0.1,0.1-0.1c0,0.1,0,0.1,0,0.2c0.1,0.3,0.3-0.2,0.5,0c0,0,0-0.3,0-0.3
		c0,0.1,0,0.3,0,0.3c0-0.2,0-0.1,0.1-0.1c0,0.1,0,0.1,0,0.2c0,0.1,0.1-0.2,0.1,0c0-0.1,0-0.1,0-0.2c0.1-0.2,0.1,0.2,0.2,0.1
		c0,0,0,0,0-0.1c0,0,0.1,0,0,0.2c0-0.1,0-0.2,0-0.2v0.2c0,0,0-0.1,0-0.1l0-0.1c0,0.1,0.1-0.2,0.1,0.1l0,0l0.1,0.1
		c0-0.1,0-0.2,0.1-0.2c0,0.3,0.1,0.1,0.1,0.1v0.1c0-0.1,0.1-0.1,0.1-0.1c0,0,0.1,0.1,0.1,0.2c0-0.1,0.1-0.1,0.1-0.2l0,0.3
		c0-0.4,0.1,0.1,0.1-0.3c0,0.1,0,0.1,0,0.2c0-0.2,0.1-0.2,0.1-0.1v0c0,0,0.1-0.2,0.1-0.2v0.3c0,0,0-0.3,0.1-0.2c0,0.1,0,0.1,0,0.1
		c0-0.1,0.1,0,0.1,0.1c0-0.2,0.1-0.1,0.1-0.4c0,0.3,0,0.1,0,0.4c0.1,0.1,0.1,0,0.2-0.1c0,0.1,0,0.1,0,0.2c0,0,0.1-0.7,0.1-1
		c0-0.2,0-0.3,0-0.5c0,0.1-0.1,0.3-0.1,0v0.2c-0.1,0.1,0-0.4-0.1-0.4l0,0.1c0,0,0,0.1-0.1,0.1c0-0.1,0-0.1,0-0.1l-0.1,0.3
		c0-0.1,0-0.2,0-0.3c-0.1,0,0,0.4-0.1,0.3c0-0.1,0-0.1,0-0.2c0-0.2-0.1,0-0.1,0.1c0-0.2,0-0.2,0-0.3c0,0.1,0,0.3,0,0.3
		c0-0.2,0-0.1-0.1-0.1c0,0.1,0,0.2,0,0.2c0,0,0-0.1,0,0l0,0.2c0,0.2-0.1-0.1-0.1-0.2c0,0,0-0.1,0-0.1c0-0.1-0.1-0.2-0.1-0.1v0
		c-0.1,0.2,0,0.3-0.1,0.5c0,0,0-0.6-0.1-0.4c0,0.2-0.1,0.4-0.1,0.5l0-0.4c0,0,0,0.1-0.1,0.1v0.1c0,0.3,0,0-0.1,0.1
		c0-0.4,0-0.4,0-0.8c0,0.2-0.1,0.4-0.1,0.4l0.1-0.3c-0.1-0.1-0.2,0.4-0.2,0.7c0-0.2,0-0.3,0-0.5l-0.1,0.1l0-0.3c0,0.3-0.1,0.1,0,0.4
		c0-0.1,0-0.1,0-0.1c0,0.1,0,0.3,0,0.3c0-0.1,0-0.1,0-0.2c0,0.1,0-0.1,0,0l0,0.1c0,0.2,0,0-0.1,0.1c0-0.1,0-0.2,0-0.3v0
		c0,0,0,0.2,0,0V176l0,0.2c0,0,0-0.1,0-0.2c-0.1-0.2,0,0.6-0.1,0.4c0-0.1,0-0.2,0-0.1c0-0.2,0-0.3,0-0.3c0,0,0,0,0,0
		c-0.1,0-0.1,0-0.2,0.2L62,176.1z"/>
	<path class="st0" d="M62.2,176C62.2,176,62.2,176,62.2,176C62.2,175.9,62.2,175.8,62.2,176z"/>
	<path class="st0" d="M57.7,176.9L57.7,176.9L57.7,176.9z"/>
	<path class="st0" d="M57.4,177C57.4,177,57.5,177.1,57.4,177C57.5,177,57.4,177,57.4,177z"/>
	<path class="st0" d="M59.9,176.3L59.9,176.3L59.9,176.3z"/>
	<path class="st0" d="M58.5,176.5c0,0.1,0,0.2,0,0.2C58.5,176.7,58.5,176.6,58.5,176.5z"/>
	<path class="st0" d="M59,176.5C59,176.5,59,176.4,59,176.5C59,176.5,59,176.5,59,176.5z"/>
	<path class="st0" d="M60,176.1c0,0.1,0,0.1-0.1,0.1C59.9,176.2,60,176.3,60,176.1z"/>
	<polygon class="st0" points="57.3,177.4 57.2,177.3 57.2,177.4 	"/>
	<path class="st0" d="M57.5,177.3c0,0,0-0.1,0-0.1C57.5,177.2,57.5,177.2,57.5,177.3z"/>
	<polygon class="st0" points="58.3,177.1 58.3,177 58.3,177.1 	"/>
</g>
<g>
	<polygon class="st0" points="44.5,174 44.7,173.9 44.5,174 	"/>
	<path class="st0" d="M44.6,173.6c-0.2,0-0.3-0.1-0.6,0l0.3,0c-0.2,0.1-0.2,0.1-0.1,0.1l0,0c0,0,0.2,0,0.2,0c-0.1,0.1,0.2,0,0,0.2h0
		l0.2,0c0,0-0.1,0.1-0.2,0.1c0.1,0,0.3,0,0.3,0.1c0.4-0.2-0.4,0,0-0.2h0C44.5,173.7,44.7,173.6,44.6,173.6L44.6,173.6z"/>
	<path class="st0" d="M44.3,173.9L44.3,173.9C44.3,173.9,44.3,173.9,44.3,173.9z"/>
	<path class="st0" d="M45.3,172L45.3,172C45.3,171.9,45.3,171.9,45.3,172z"/>
	<path class="st0" d="M44.2,172.1L44.2,172.1C44.1,172,44.2,172.1,44.2,172.1z"/>
	<path class="st0" d="M48.5,168.9L48.5,168.9C48.5,168.9,48.5,168.9,48.5,168.9z"/>
	<path class="st0" d="M49.6,167.4L49.6,167.4L49.6,167.4z"/>
	<path class="st0" d="M48.2,167.6L48.2,167.6C48.1,167.5,48.2,167.6,48.2,167.6z"/>
	<path class="st0" d="M48.1,167.3L48.1,167.3C48.1,167.3,48.1,167.3,48.1,167.3z"/>
	<path class="st0" d="M49.6,167.5C49.6,167.5,49.6,167.4,49.6,167.5C49.6,167.4,49.6,167.5,49.6,167.5z"/>
	<path class="st0" d="M47.8,167.7l-0.1-0.2L47.8,167.7z"/>
	<path class="st0" d="M48,167.2C48,167.2,48,167.2,48,167.2C48,167.2,48,167.2,48,167.2z"/>
	<path class="st0" d="M44.5,173.5C44.5,173.5,44.5,173.5,44.5,173.5C44.6,173.5,44.6,173.5,44.5,173.5z"/>
	<path class="st0" d="M45.9,168.9C45.9,168.9,45.9,168.9,45.9,168.9C45.9,168.9,45.9,168.9,45.9,168.9z"/>
	<path class="st0" d="M47,168.1L47,168.1C47,168.1,47,168,47,168.1L47,168.1L47,168.1z"/>
	<path class="st0" d="M46.7,168.3L46.7,168.3C46.7,168.3,46.7,168.3,46.7,168.3z"/>
	<path class="st0" d="M47.1,167.7C47.1,167.7,47.1,167.7,47.1,167.7L47.1,167.7z"/>
	<path class="st0" d="M47.5,167.7c0-0.1-0.1-0.1-0.1-0.2c-0.1-0.1,0,0.2-0.2,0.1l0.1,0.1c0,0.2,0,0.2-0.2,0.1l0-0.1
		c0.1,0.2-0.2-0.1-0.1,0.1c0.1,0.1,0.1,0.1,0.2,0.2v0.2l-0.2-0.2v0.1c0.1,0.1-0.1,0,0,0.2c-0.1-0.1-0.1-0.2-0.2-0.3
		c0,0.1-0.1,0,0,0.1l-0.2-0.2l0,0.2c0,0,0,0,0-0.1c0.1,0.2-0.2,0,0,0.3c0,0,0,0,0,0c0.1,0.2,0,0.1-0.1,0.1c0,0.1,0.1,0.2,0.2,0.3
		c-0.1,0-0.1,0,0,0.3c-0.3-0.2-0.3-0.4-0.5-0.6c0.1,0.1,0.1,0.2,0.1,0.3c-0.1,0-0.2,0-0.4-0.2l0.1,0.1l0,0.1l-0.2-0.3
		c0,0.1,0.1,0.2,0.1,0.3c0.1,0.2-0.3-0.3-0.2,0l0,0c0.1,0.1,0,0.1,0,0.2l-0.2-0.2h0.1c-0.2-0.2,0,0.1-0.1,0.1c0,0.1,0.2,0.2,0.2,0.3
		c0,0,0,0.1,0,0c-0.1,0-0.2-0.2-0.3-0.3c0.2,0.2,0.1,0.2,0.2,0.3c-0.1-0.1-0.1-0.1-0.1-0.2c0,0,0,0.1,0.1,0.2l-0.1-0.1
		c-0.2-0.1,0.3,0.4,0.2,0.4c-0.1-0.1,0,0.1-0.2,0c0-0.1-0.3-0.3-0.4-0.4c-0.1,0,0.2,0.2,0.2,0.3l-0.2-0.2c0.1,0.1,0.1,0.1,0.2,0.2
		c-0.1-0.1-0.1,0-0.1-0.1c-0.1,0,0,0-0.1,0.1l0.2,0.2c0,0-0.1-0.1-0.2-0.1c0,0,0,0,0,0c-0.2-0.2,0.1,0.1-0.1,0
		c0.1,0.1,0.2,0.1,0.2,0.2c-0.1-0.1-0.2-0.1-0.2-0.1c0.1,0.1,0,0.1,0.2,0.2c-0.1-0.1-0.1-0.1-0.2-0.2c0.2,0.2-0.1,0.1,0,0.2
		c0,0,0,0,0,0c0.1,0.1,0.1,0.2,0.2,0.4l-0.1-0.1c-0.1,0,0.3,0.3,0.2,0.3c-0.2-0.2,0,0.1-0.2-0.1c0.1,0.1,0.1,0.2,0.3,0.4
		c-0.1-0.1-0.2-0.3-0.3-0.3l0.1,0.1l-0.1-0.1c0.1,0.1,0.1,0.1,0.1,0.2c-0.1-0.1-0.2-0.2-0.3-0.3c0,0.1-0.1,0,0,0.1l-0.1-0.1
		c0.2,0.2,0,0.1,0.2,0.3l-0.1-0.1c0,0.1,0.2,0.3,0.3,0.3c0,0,0,0.1,0,0.1c-0.1-0.2-0.2-0.1-0.3-0.2c0,0-0.1,0.1,0.1,0.2
		c-0.1-0.1-0.2-0.2-0.2-0.3c-0.3-0.2,0,0.1-0.1,0.1l-0.1-0.1c0,0.1,0.2,0.3,0.4,0.5c-0.1-0.1-0.2-0.2-0.3-0.3
		c-0.1,0-0.1,0.1-0.1,0.1c-0.1-0.1-0.2-0.1-0.2-0.2c0.1,0.1-0.1,0.1,0.1,0.4c-0.1-0.1-0.1,0-0.1-0.1c0,0,0.1,0.1,0.1,0.1
		c0.1,0.1,0.1,0.3,0,0.2l-0.1-0.1c-0.1,0.1,0.3,0.4,0.1,0.4c-0.1,0-0.2-0.2-0.2-0.1c0.1,0.1,0.3,0.2,0.2,0.2l-0.2-0.1l0.2,0.1
		c0.2,0.1,0.1,0,0.3,0.1c-0.2-0.1,0.2,0.1-0.1,0.1c0,0-0.2-0.1-0.2-0.2c-0.3,0,0.1,0.2-0.2,0.2c0.1,0.1,0.1,0.2,0.3,0.3
		c-0.2-0.1-0.4-0.1-0.5-0.2c0,0.1,0.4,0.2,0.1,0.2c0.3,0.1,0.2,0.2,0.6,0.3c-0.1,0,0,0.1-0.2,0c0.1,0.1-0.4,0-0.4,0.1
		c0,0,0.3,0,0.3,0.1c0,0-0.1,0-0.1,0l0.1,0c-0.1,0-0.2,0-0.3-0.1c-0.1,0.1,0.2,0.1,0.2,0.2H44l0,0.1h0l0.1,0.1H44c0,0,0.1,0,0.1,0
		h-0.1c0.2,0,0.3,0.1,0.3,0.1h-0.1l0.3,0.1c-0.1,0.1-0.3,0-0.2,0.1H44c0.1,0.1,0,0.1,0.1,0.1c0.1,0,0.1-0.1,0.2-0.1
		c-0.3,0.1,0.1,0.1,0.2,0.1c0,0,0,0-0.2,0c0,0,0.1,0,0.1,0h-0.1l0.2,0l-0.1,0c0.2,0,0,0,0.2-0.1c-0.1,0,0.1-0.1-0.2-0.1
		c0.1,0,0.2,0,0.2,0c-0.2-0.1-0.1-0.2-0.1-0.3l0.1,0c-0.1,0-0.2-0.1-0.2-0.1c0.2,0,0.4,0,0.1-0.1c0,0,0.1,0,0.1,0
		c0-0.1,0.2-0.1,0.2-0.1c-0.3-0.1,0.2,0-0.2-0.2l0.1,0.1c-0.1,0-0.3-0.1-0.4-0.2c0.3,0.1,0.2,0.1,0.5,0.2l-0.1,0l0.2,0.1
		c-0.5-0.3,0.3,0-0.1-0.2c0,0,0,0,0.1,0.1c0.1,0.1-0.1-0.1-0.2-0.2c0.1,0.1,0.2,0.1,0.2,0.2c0.1,0-0.1-0.2,0.1-0.2
		c-0.1-0.1-0.2-0.1-0.3-0.2c0,0,0.2,0.1,0.2,0.2c0.3,0.1,0-0.3,0.2-0.1c-0.1-0.2-0.2-0.2-0.2-0.4c0.1,0.1,0.3,0.3,0.3,0.3l0.1,0.1
		c0.1-0.1,0.2-0.1,0-0.4c0.2,0.2,0,0,0.2,0.1c0,0,0,0,0,0c-0.2-0.2,0,0,0-0.1l0,0l-0.1-0.2c0,0,0.1,0,0.1,0.1l-0.1-0.1
		c0,0,0.2,0.1,0.2,0.1l-0.1-0.1c0.1,0,0-0.1,0.1,0c0,0,0,0,0,0c0.2,0.2,0-0.1,0.1-0.1l-0.2-0.2c0-0.1,0.1,0,0.1,0.1c0,0,0.1,0,0.2,0
		c0-0.1-0.1-0.1-0.1-0.1l0.1,0l0.1,0.1c-0.3-0.4,0.1-0.1-0.1-0.4c0.1,0,0.1,0.1,0.2,0.2c0.2,0.1-0.1-0.3,0.1-0.2
		c0.2,0.1,0.2-0.2,0.3-0.2l-0.1-0.1l0.1,0c-0.1-0.1,0-0.1-0.1-0.3c0,0.1,0.1,0.1,0.1,0.1c0,0,0-0.1,0.1-0.1l0,0.1
		c0.1,0,0.2-0.1,0.1-0.2c0,0,0.1,0.1,0.2,0.1c0,0,0-0.1-0.1-0.2c0,0,0.1,0,0.1,0.1l-0.1-0.2c0,0,0.1,0.1,0.2,0.1
		c-0.1-0.2,0.1-0.1,0.1-0.2L47,170c0-0.1,0.1,0,0.1,0.1c0.1,0-0.1-0.3,0-0.4c0.3,0.3,0-0.2,0.3,0.1c0-0.1,0.1,0,0-0.2c0,0,0,0,0,0.1
		c0.1,0.1,0.1,0,0.1-0.1l0.1,0.1c-0.2-0.2,0-0.2-0.2-0.4c0,0,0.1,0.1,0.1,0.1c0.2,0.2,0-0.1,0-0.1c0,0.1,0.1,0.1,0.1,0.1
		c0.3,0.2,0.1-0.3,0.4-0.3c0,0-0.2-0.2-0.1-0.2c0.1,0.1,0.1,0.2,0.2,0.3c-0.1-0.1,0-0.1,0-0.1c0,0.1,0.1,0.1,0.1,0.2
		c0.1,0.1,0-0.2,0.1-0.1c0-0.1-0.1-0.1-0.1-0.2c-0.1-0.2,0.2,0.1,0.2,0c0,0,0,0,0-0.1c0,0,0.1,0,0.1,0.1c0-0.1-0.1-0.2-0.1-0.2
		l0.1,0.1c0,0,0-0.1,0-0.2l-0.1-0.1c0.1,0.1,0-0.2,0.2,0l0,0c0,0,0.1,0.1,0.1,0.1c0-0.1-0.1-0.2,0-0.2c0.2,0.2,0.2,0,0.2-0.1
		l0.1,0.1c-0.1-0.1,0.1-0.2,0-0.2c0,0,0.1-0.1,0.2,0c0-0.1,0-0.2-0.1-0.3c0.1,0,0.2,0.1,0.3,0.1c-0.3-0.2,0.2-0.1-0.1-0.3
		c0.1,0,0.2,0,0.2,0c-0.1-0.1-0.1-0.2,0-0.3h0c0.1-0.1-0.1-0.2-0.1-0.3l0.3,0.1c0-0.1-0.3-0.1-0.2-0.1c0.1,0,0.1,0,0.1,0
		c0-0.1,0-0.1,0.1-0.1c-0.2-0.1-0.1-0.1-0.4-0.2c0.3,0,0.1,0.1,0.4,0.1c0.2-0.1,0-0.2-0.1-0.3c0.1,0,0.1,0,0.2,0c0,0-0.7-0.2-1-0.1
		c-0.2,0-0.3,0-0.5,0c0.1,0,0.3,0.1,0,0.1h0.2c0.1,0.1-0.4,0-0.4,0.1h0.1c0,0,0.1,0,0.1,0c-0.1,0-0.1,0-0.1,0l0.3,0.1
		c-0.1,0-0.2,0-0.3,0c0,0.1,0.4,0,0.3,0.1c-0.1,0-0.1,0-0.2,0c-0.2,0,0,0.1,0.1,0.1c-0.2,0-0.2,0-0.3,0c0.1,0,0.3,0,0.3,0.1
		c-0.2,0-0.1,0-0.2,0c0.1,0,0.1,0,0.2,0c0,0,0,0,0,0l0.2,0c0.2,0.1-0.1,0-0.2,0c0,0-0.1,0-0.1,0c-0.1,0-0.2,0-0.1,0.1h0
		c0.2,0.1,0.3,0.1,0.4,0.2c0,0-0.6-0.3-0.4-0.1c0.2,0.1,0.3,0.2,0.4,0.3c-0.1-0.1-0.2-0.1-0.3-0.2c0,0,0.1,0.1,0,0.1l0.1,0
		c0.3,0.2-0.1,0,0.1,0.1c-0.3-0.3-0.3-0.2-0.6-0.5c0.2,0.1,0.3,0.3,0.3,0.3c-0.1-0.1-0.2-0.1-0.2-0.2c-0.1,0,0.3,0.3,0.4,0.6
		c-0.2-0.2-0.2-0.2-0.3-0.4v0.1l-0.2-0.2c0.2,0.2,0,0.1,0.2,0.4c0,0,0-0.1,0-0.1c0.1,0.1,0.2,0.3,0.2,0.3c-0.1-0.1-0.1-0.1-0.1-0.2
		c0.1,0.1-0.1-0.1,0,0l0.1,0.1c0.1,0.2,0,0,0,0.1c0-0.1-0.1-0.2-0.2-0.3l0,0c0,0,0.1,0.1,0,0.1l-0.1-0.2l0.1,0.2
		c0,0-0.1-0.1-0.1-0.2c-0.1-0.1,0.3,0.5,0.1,0.4c0-0.1-0.1-0.2,0-0.1c-0.1-0.1-0.1-0.2-0.2-0.3c0,0,0,0,0,0
		C47.4,167.4,47.4,167.5,47.5,167.7L47.5,167.7z"/>
	<path class="st0" d="M47.5,167.5C47.5,167.5,47.6,167.4,47.5,167.5C47.6,167.4,47.5,167.3,47.5,167.5z"/>
	<path class="st0" d="M44.2,171L44.2,171L44.2,171z"/>
	<path class="st0" d="M44.1,171.3C44.1,171.3,44.1,171.3,44.1,171.3C44.1,171.2,44.1,171.2,44.1,171.3z"/>
	<path class="st0" d="M45.7,169.2L45.7,169.2L45.7,169.2z"/>
	<path class="st0" d="M44.7,170.2c0.1,0.1,0.1,0.1,0.2,0.2C44.8,170.4,44.8,170.3,44.7,170.2z"/>
	<path class="st0" d="M45.1,169.9L45.1,169.9C45,169.9,45.1,169.9,45.1,169.9z"/>
	<path class="st0" d="M45.7,169.1c0,0.1,0,0.1,0,0.2C45.7,169.2,45.8,169.2,45.7,169.1z"/>
	<polygon class="st0" points="44.1,171.7 44,171.6 44.1,171.7 	"/>
	<path class="st0" d="M44.2,171.5c0,0,0-0.1-0.1-0.1C44.2,171.4,44.2,171.4,44.2,171.5z"/>
	<polygon class="st0" points="44.9,170.9 44.8,170.8 44.9,170.9 	"/>
</g>
<g>
	<polygon class="st0" points="42.6,177.2 42.7,177.2 42.5,177.2 	"/>
	<path class="st0" d="M42.8,177c-0.2-0.1-0.2-0.1-0.5-0.2l0.2,0.1c-0.2,0-0.2,0-0.2,0v0c0,0,0.2,0,0.2,0c-0.1,0,0.2,0.1-0.1,0.1h0
		l0.1,0c0,0-0.1,0-0.2,0c0.1,0,0.2,0.1,0.2,0.1C43,177.2,42.3,177.1,42.8,177L42.8,177C42.6,177,42.8,177,42.8,177L42.8,177z"/>
	<path class="st0" d="M42.4,177.1L42.4,177.1C42.4,177.1,42.4,177.1,42.4,177.1z"/>
	<path class="st0" d="M43.5,175.9L43.5,175.9C43.4,175.8,43.5,175.8,43.5,175.9z"/>
	<path class="st0" d="M42.5,175.9L42.5,175.9C42.5,175.8,42.5,175.8,42.5,175.9z"/>
	<path class="st0" d="M45.8,174.9L45.8,174.9C45.8,174.9,45.8,174.9,45.8,174.9z"/>
	<path class="st0" d="M46.6,174.4L46.6,174.4L46.6,174.4z"/>
	<path class="st0" d="M45.6,173.6L45.6,173.6C45.5,173.6,45.6,173.6,45.6,173.6z"/>
	<path class="st0" d="M45.7,173.3C45.7,173.3,45.7,173.3,45.7,173.3C45.7,173.3,45.6,173.3,45.7,173.3z"/>
	<path class="st0" d="M46.6,174.4C46.6,174.4,46.6,174.4,46.6,174.4C46.6,174.4,46.6,174.4,46.6,174.4z"/>
	<path class="st0" d="M45.3,173.6l-0.1-0.2L45.3,173.6z"/>
	<path class="st0" d="M45.6,173.1C45.6,173.1,45.7,173.2,45.6,173.1C45.6,173.2,45.6,173.1,45.6,173.1z"/>
	<path class="st0" d="M42.7,176.9C42.7,176.9,42.7,177,42.7,176.9C42.8,177,42.8,177,42.7,176.9z"/>
	<path class="st0" d="M44,173.6C44,173.6,44,173.5,44,173.6C43.9,173.5,43.9,173.5,44,173.6z"/>
	<path class="st0" d="M45,173.6L45,173.6C45,173.6,45,173.5,45,173.6L45,173.6z"/>
	<path class="st0" d="M44.8,173.6L44.8,173.6C44.8,173.5,44.8,173.6,44.8,173.6z"/>
	<path class="st0" d="M45,173.3C45,173.3,45,173.3,45,173.3L45,173.3z"/>
	<path class="st0" d="M45.1,173.5c0-0.1,0-0.1-0.1-0.2c0-0.1,0,0.2,0,0l0,0.1c0,0.2,0,0.2,0,0v-0.1c0,0.2,0-0.1,0,0
		C45,173.4,45,173.5,45.1,173.5c-0.1,0.1-0.1,0.1-0.1,0.2L45.1,173.5l-0.1,0c0,0.1,0-0.1,0,0.2c0-0.1,0-0.2,0-0.3c0,0.1,0,0,0,0.1
		v-0.2l0,0.2c0,0,0,0,0-0.1c0,0.2,0-0.1-0.1,0.2c0,0,0,0,0,0c0,0.2-0.1,0.1-0.1,0c0,0.1,0,0.2,0,0.4c-0.1-0.1-0.1-0.1-0.2,0.2
		c-0.1-0.3,0.1-0.5,0-0.7c0,0.2,0,0.3-0.1,0.4c-0.1-0.1-0.1-0.2-0.2-0.4l0,0.2c0,0,0,0.1,0,0.1l0-0.3c0,0.1,0,0.2,0,0.3
		c0,0.2-0.1-0.4-0.1-0.1l0-0.1c0,0.2,0,0.1-0.1,0.2l-0.1-0.3l0.1,0c-0.1-0.2,0,0.1-0.1,0.1c0,0.1,0.1,0.3,0.1,0.4c0,0,0,0.1,0,0
		c-0.1-0.1-0.1-0.3-0.1-0.4c0.1,0.3,0,0.2,0,0.4c0-0.1-0.1-0.2-0.1-0.2c0,0,0,0.1,0,0.2l-0.1-0.1c-0.2-0.2,0.1,0.5,0,0.4
		c0-0.1,0,0.1-0.1-0.1c0-0.1-0.2-0.3-0.3-0.5c-0.1-0.1,0.1,0.3,0.1,0.4l-0.2-0.3c0,0.1,0.1,0.2,0.1,0.3c0-0.1-0.1-0.1-0.1-0.2
		c-0.1,0,0,0-0.1,0l0.2,0.3c0,0-0.1-0.1-0.1-0.1c0,0,0,0,0,0c-0.2-0.2,0.1,0.1-0.1,0c0.1,0.1,0.1,0.2,0.1,0.2
		c-0.1-0.2-0.1-0.1-0.2-0.2c0.1,0.1,0,0.1,0.1,0.3c-0.1-0.1-0.1-0.1-0.1-0.2c0.1,0.2-0.1,0.1,0,0.2c0,0,0,0,0,0
		c0.1,0.1,0.1,0.2,0.2,0.4l-0.1-0.1c-0.1,0,0.2,0.3,0.2,0.3c-0.2-0.2,0,0.1-0.2-0.2c0.1,0.1,0.1,0.2,0.3,0.4
		c-0.1-0.1-0.2-0.3-0.3-0.3l0.1,0.1l-0.1-0.1c0.1,0.1,0.1,0.1,0.1,0.2c-0.1-0.1-0.2-0.2-0.3-0.3c0,0.1-0.1,0,0,0.1l-0.1-0.1
		c0.2,0.2,0,0.1,0.2,0.3l-0.1-0.1c0,0,0.2,0.3,0.3,0.3c0,0,0,0.1,0,0c-0.1-0.2-0.2-0.1-0.3-0.2c0,0,0,0.1,0.1,0.2
		c-0.1-0.1-0.2-0.2-0.2-0.2c-0.3-0.2,0,0.1,0,0.1l-0.1-0.1c0,0.1,0.2,0.3,0.4,0.4c-0.1-0.1-0.2-0.1-0.3-0.3c-0.1,0-0.1,0.1-0.1,0.1
		c-0.1-0.1-0.2-0.1-0.2-0.2c0.1,0.1-0.1,0.1,0.2,0.3c-0.1-0.1-0.1,0-0.1-0.1c0.1,0,0.1,0.1,0.1,0.1c0.1,0.1,0.2,0.2,0,0.2l-0.1-0.1
		c-0.1,0,0.4,0.4,0.1,0.3c-0.1,0-0.2-0.1-0.2-0.1c0.1,0.1,0.3,0.2,0.2,0.2l-0.2-0.1l0.2,0.1c0.2,0.1,0.1,0,0.3,0.1
		c-0.2-0.1,0.2,0.1-0.1,0c0,0-0.2-0.1-0.2-0.1c-0.3,0,0.1,0.2-0.1,0.1c0.1,0.1,0.1,0.2,0.3,0.2c-0.2-0.1-0.4-0.2-0.5-0.2
		c0,0,0.4,0.2,0.1,0.1c0.3,0.1,0.1,0.2,0.5,0.3c-0.1,0,0,0-0.2-0.1c0.1,0.1-0.4-0.1-0.4,0c0,0,0.2,0.1,0.2,0.1c0,0-0.1,0-0.1,0
		l0.1,0c-0.1,0-0.2-0.1-0.3-0.1c-0.1,0,0.2,0.1,0.2,0.2l-0.1,0l0,0h0l0.1,0.1l-0.1,0c0,0,0.1,0,0.1,0.1l-0.1,0
		c0.2,0.1,0.3,0.1,0.3,0.1h-0.1l0.2,0.1c-0.1,0-0.3-0.1-0.2,0l-0.3-0.1c0.1,0.1,0,0,0,0.1c0.1,0,0.1,0,0.2,0c-0.3,0,0.1,0.1,0.2,0.1
		c0,0,0,0-0.2-0.1c0,0,0.1,0,0.2,0l-0.2-0.1l0.2,0l-0.1-0.1c0.2,0.1,0,0,0.2,0c-0.1,0,0.1,0-0.1-0.1c0.1,0,0.1,0.1,0.2,0.1
		c-0.1-0.1-0.1-0.2,0-0.3l0.1,0c-0.1,0-0.2-0.1-0.2-0.1c0.2,0,0.4,0.1,0.1-0.1c0,0,0.1,0,0.1,0c0,0,0.2,0,0.2-0.1
		c-0.3-0.2,0.2,0-0.2-0.2l0.1,0.1c-0.1,0-0.3-0.2-0.4-0.2c0.3,0.1,0.2,0.1,0.5,0.2l-0.1,0l0.2,0.1c-0.6-0.3,0.3,0-0.1-0.2
		c0,0,0.1,0,0.1,0c0.1,0.1-0.1-0.1-0.2-0.2c0.1,0.1,0.2,0.1,0.2,0.2c0.1,0-0.2-0.2,0-0.1c-0.1-0.1-0.2-0.1-0.3-0.2
		c0,0,0.2,0.1,0.2,0.1c0.3,0.1-0.1-0.2,0.2-0.1c-0.1-0.1-0.2-0.2-0.3-0.3c0.1,0.1,0.3,0.2,0.3,0.3l0.1,0.1c0,0,0.1,0-0.2-0.3
		c0.2,0.2,0,0,0.2,0.1c0,0,0,0,0,0c-0.2-0.2,0,0,0-0.1l0,0l-0.1-0.1c0,0,0.1,0.1,0.1,0.1l-0.2-0.1c0,0,0.2,0.1,0.2,0.1l-0.1-0.1
		c0.1,0.1-0.1-0.1,0.1,0c0,0,0,0,0,0c0.2,0.2,0-0.1,0.1,0l-0.2-0.2c0-0.1,0.1,0,0.1,0.1c0,0,0.1,0.1,0.1,0.1c0-0.1-0.1-0.1-0.1-0.1
		l0.1,0l0.1,0.1c-0.3-0.4,0.1,0-0.2-0.3c0.1,0.1,0.1,0.1,0.2,0.2c0.2,0.1-0.1-0.3,0-0.1c0.2,0.1,0.1-0.1,0.2,0l0-0.1c0,0,0,0,0.1,0
		c-0.1-0.2,0-0.1-0.1-0.3c0,0.1,0.1,0.1,0.1,0.2c0,0,0-0.1,0,0l0,0.1c0,0,0.1,0,0-0.1c0,0,0.1,0.1,0.1,0.2c0,0,0-0.1,0-0.2
		c0,0,0,0.1,0.1,0.1l-0.1-0.2c0,0,0.1,0.2,0.1,0.2c0-0.2,0,0,0-0.1l0-0.1c0-0.1,0,0.1,0.1,0.2c0,0.1,0-0.3,0-0.3
		c0,0.4,0-0.1,0.1,0.3c0-0.1,0,0.1,0-0.2c0,0,0,0.1,0,0.1c0,0.1,0,0,0-0.1v0.1c0-0.3,0-0.2,0.1-0.5c0,0.1,0,0.1,0,0.2
		c0,0.2,0.1-0.1,0.1-0.1c0,0.1,0,0.1,0,0.2c0.1,0.3,0.3-0.2,0.5,0c0,0-0.1-0.3,0-0.3c0,0.1,0,0.3,0.1,0.3c0-0.2,0-0.1,0.1-0.1
		c0,0.1,0,0.1,0,0.2c0,0.1,0.1-0.2,0.2,0c0-0.1,0-0.1,0-0.2c0-0.2,0.2,0.2,0.2,0c0,0,0,0,0-0.1c0,0,0.1,0,0.1,0.1
		c0-0.1-0.1-0.2,0-0.2l0,0.1c0,0,0-0.1,0-0.1l-0.1-0.1c0.1,0.1,0-0.2,0.1,0.1l0,0l0.1,0.1c0-0.1-0.1-0.2,0-0.2c0.2,0.2,0.1,0,0.2,0
		l0.1,0.1c-0.1-0.1,0.1-0.1,0-0.2c0,0,0.1,0,0.2,0.1c0-0.1,0-0.1-0.1-0.2l0.2,0.2c-0.2-0.3,0.2,0.1-0.1-0.3c0.1,0,0.1,0.1,0.2,0.1
		c-0.1-0.2-0.1-0.2,0-0.1l0,0c0,0-0.1-0.2-0.1-0.2l0.2,0.2c0,0-0.2-0.2-0.1-0.2c0,0,0,0.1,0.1,0.1c0-0.1,0,0,0.1,0.1
		c-0.1-0.2-0.1-0.1-0.2-0.3c0.1,0.2,0,0.1,0.2,0.3c0.1,0.1,0,0,0-0.1c0,0.1,0,0.1,0.1,0.2c0,0-0.2-0.7-0.3-1
		c-0.1-0.2-0.1-0.3-0.2-0.5c0,0.1,0,0.3-0.1,0.1l0.1,0.2c0,0.1-0.2-0.4-0.3-0.3l0,0.1c0,0,0,0.1,0,0.1c0-0.1,0-0.1,0-0.1
		c0,0.1,0,0.2,0.1,0.3c-0.1-0.1-0.1-0.2-0.1-0.2c-0.1,0.1,0.2,0.3,0.1,0.3c-0.1-0.1-0.1-0.1-0.1-0.2c-0.1-0.1-0.1,0,0,0.1
		c-0.1-0.1-0.1-0.1-0.2-0.2c0.1,0.1,0.2,0.2,0.2,0.2c-0.1-0.2-0.1-0.1-0.1-0.1c0,0.1,0.1,0.1,0.1,0.1c0,0,0,0,0,0l0.1,0.1
		c0.1,0.2-0.1,0-0.2-0.1c0,0,0-0.1,0-0.1c-0.1,0-0.2-0.1-0.1,0v0c0.1,0.2,0.2,0.2,0.3,0.4c0,0-0.4-0.5-0.3-0.3
		c0.1,0.1,0.2,0.3,0.3,0.4l-0.2-0.3c0,0,0,0.1,0,0.1l0.1,0.1c0.2,0.2-0.1,0,0,0.1c-0.3-0.4-0.2-0.3-0.5-0.6c0.1,0.2,0.3,0.4,0.2,0.4
		l-0.2-0.3c-0.1,0,0.2,0.4,0.3,0.6C45.3,173.7,45.2,173.6,45.1,173.5L45.1,173.5l-0.1-0.2c0.1,0.2,0,0.1,0.2,0.4
		C45.2,173.6,45.2,173.6,45.1,173.5c0.1,0.1,0.2,0.3,0.2,0.3c-0.1-0.1-0.1-0.1-0.1-0.2c0.1,0.1-0.1-0.1,0,0l0.1,0.1
		c0.1,0.2,0,0,0,0.1c0-0.1-0.1-0.2-0.1-0.3v0c0,0,0.1,0.1,0,0L45.1,173.5L45.1,173.5C45.1,173.6,45.1,173.5,45.1,173.5
		c-0.2-0.2,0.2,0.5,0,0.3c0-0.1-0.1-0.2,0-0.1c-0.1-0.2-0.1-0.2-0.1-0.3c0,0,0,0,0,0c0,0,0,0,0,0.2L45.1,173.5z"/>
	<path class="st0" d="M45.1,173.4C45.1,173.4,45.1,173.4,45.1,173.4C45.1,173.3,45,173.2,45.1,173.4z"/>
	<path class="st0" d="M42.3,175L42.3,175L42.3,175z"/>
	<path class="st0" d="M42.2,175.2C42.2,175.2,42.3,175.2,42.2,175.2C42.2,175.2,42.2,175.2,42.2,175.2z"/>
	<path class="st0" d="M43.7,173.7L43.7,173.7L43.7,173.7z"/>
	<path class="st0" d="M42.6,174.4c0,0.1,0.1,0.1,0.1,0.2C42.8,174.5,42.7,174.5,42.6,174.4z"/>
	<path class="st0" d="M43,174.2L43,174.2C43,174.1,43,174.2,43,174.2z"/>
	<path class="st0" d="M43.7,173.6c0,0.1,0,0.1,0,0.2C43.7,173.7,43.7,173.8,43.7,173.6z"/>
	<polygon class="st0" points="42.4,175.6 42.3,175.5 42.3,175.6 	"/>
	<path class="st0" d="M42.4,175.4c0,0,0-0.1-0.1-0.1C42.3,175.3,42.4,175.4,42.4,175.4z"/>
	<polygon class="st0" points="42.9,175 42.8,174.9 42.8,174.9 	"/>
</g>
</svg>
