<?xml version="1.0" encoding="utf-8"?>
<!-- Generator: Adobe Illustrator 28.1.0, SVG Export Plug-In . SVG Version: 6.00 Build 0)  -->
<svg version="1.1" id="a" xmlns="http://www.w3.org/2000/svg" xmlns:xlink="http://www.w3.org/1999/xlink" x="0px" y="0px"
	 viewBox="0 0 646 792" style="enable-background:new 0 0 646 792;" xml:space="preserve">
<style type="text/css">
	.st0{fill:#5F5F5F;}
</style>
<g>
	<path class="st0" d="M84.6,225.2l-0.1,0.1c0.1,0.1,0.1,0.2,0.2,0.3L84.6,225.2z"/>
	<path class="st0" d="M86.8,226.6c0.2-0.2,0.6-0.4,0.5-0.7c-0.1,0.1-0.2,0.2-0.3,0.4c-0.1-0.2-0.3-0.1-0.6-0.1l0.3,0
		c-0.1,0,0,0.2-0.1,0.2c-0.4-0.1-0.6,0.2-1,0l0,0c-0.1,0-0.3,0.1-0.4,0.1c-0.1-0.1,0-0.1,0.1-0.2c-0.3,0-0.7-0.1-0.7-0.6
		c-0.2,0.3,0,0.5,0.2,0.6c0.3,0.1,0.5,0.1,0.6,0.3l0,0c0.3,0,0.6,0,0.8,0C86.4,226.7,86.6,226.7,86.8,226.6L86.8,226.6z"/>
	<path class="st0" d="M85.3,226.2L85.3,226.2C85.3,226.2,85.3,226.2,85.3,226.2z"/>
	<path class="st0" d="M94,216.1L94,216.1C93.9,216.1,94,216.2,94,216.1z"/>
	<path class="st0" d="M91.7,219.8L91.7,219.8C91.6,219.7,91.7,219.7,91.7,219.8z"/>
	<path class="st0" d="M91.4,193.8L91.4,193.8C91.4,193.7,91.4,193.8,91.4,193.8z"/>
	<path class="st0" d="M91.2,188.3L91.2,188.3L91.2,188.3z"/>
	<path class="st0" d="M90.2,190.9L90.2,190.9C90.1,191,90.2,191,90.2,190.9z"/>
	<path class="st0" d="M89.8,189.1c0-0.1,0-0.1,0-0.1C89.8,189,89.8,189.1,89.8,189.1z"/>
	<path class="st0" d="M91.2,188.3C91.2,188.3,91.2,188.3,91.2,188.3C91.2,188.3,91.2,188.3,91.2,188.3z"/>
	<path class="st0" d="M90,193.6l-0.2,0.1C89.9,193.7,89.9,193.6,90,193.6z"/>
	<path class="st0" d="M89.6,188.7c0,0,0.1-0.1,0.1-0.1C89.7,188.6,89.6,188.6,89.6,188.7z"/>
	<path class="st0" d="M87.2,226.5c-0.1,0-0.1,0-0.2,0.1C87.1,226.6,87.2,226.6,87.2,226.5z"/>
	<path class="st0" d="M92.3,203.5C92.3,203.5,92.3,203.5,92.3,203.5C92.3,203.5,92.3,203.5,92.3,203.5z"/>
	<path class="st0" d="M90.8,197.8L90.8,197.8C90.8,197.8,90.8,197.8,90.8,197.8L90.8,197.8L90.8,197.8z"/>
	<path class="st0" d="M91.4,199.5C91.4,199.5,91.3,199.5,91.4,199.5C91.3,199.5,91.4,199.5,91.4,199.5z"/>
	<path class="st0" d="M90.2,196.6C90.2,196.6,90.1,196.6,90.2,196.6L90.2,196.6z"/>
	<path class="st0" d="M90.1,195.3c-0.1,0.1-0.2,0-0.2,0c0,0.4,0.3,0.4,0.2,0.8l0.1-0.2c0.2,0.2,0.3,0.6,0.2,0.8l-0.1,0
		c0.2,0.1,0,0.6,0.2,0.6c0.1-0.1,0.1,0,0.2-0.2l0.3,0.4l-0.3,0.1l0.2,0.2c0.1-0.1,0,0.4,0.3,0.3c0,0.2-0.2,0-0.3,0
		c0.1,0.1,0,0.2,0.2,0.2l-0.2,0.2l0.3,0.3c0,0,0,0-0.1,0c0.3,0.1,0,0.5,0.4,0.6c0,0,0,0,0,0c0.2,0.1,0.2,0.4,0.2,0.5
		c0.1,0.2,0.3,0,0.4,0c0.1,0.6,0.1,0.4,0.5,0.8c-0.2,0.4-0.6-0.2-0.7,0.2c0.2,0,0.4,0.2,0.5,0.5c0,0.3,0,0.7-0.2,1l0.2-0.1l0.2,0.3
		l-0.3-0.1c0.1,0,0.3,0.2,0.4,0.3c0.3,0.3-0.4,0.3,0,0.5c0,0,0,0-0.1,0c0.2,0.1,0.2,0.3,0.3,0.6l-0.3-0.1l0-0.2
		c-0.2,0.1,0.1,0.3,0.1,0.5c0.1,0.2,0.3,0,0.4,0.1c0,0.1,0.1,0.2,0,0.2c0,0.2-0.3,0.1-0.4,0c0.3,0.1,0.3,0.1,0.4,0.4
		c-0.1,0-0.2,0-0.2,0c0,0.1,0.1,0.1,0.2,0.1l-0.1,0.1c-0.2,0.4,0.6,0.3,0.5,0.7c-0.2-0.1,0.1,0.4-0.1,0.5c-0.1-0.1-0.4,0.1-0.5,0.1
		c-0.1,0.4,0.3,0.1,0.4,0.4l-0.3-0.1c0.2,0.2,0.2,0.1,0.3,0.3c-0.1-0.1-0.1,0.1-0.2,0c0,0.4,0,0.3,0,0.6h0.3c0,0.1-0.1,0.2-0.2,0.2
		c0,0,0-0.1,0-0.1c-0.3,0.1,0.2,0.2-0.1,0.4c0.1,0,0.2-0.1,0.3,0c-0.2,0-0.2,0.2-0.2,0.2c0.1-0.1,0.1,0.3,0.3,0.3
		c-0.1,0.2-0.2,0-0.3,0c0.3,0.1,0.1,0.5,0.2,0.6c0,0,0,0-0.1,0c0.2,0.2,0.2,0.4,0.4,0.8l-0.2-0.1c-0.1,0.3,0.4,0.2,0.4,0.5
		c-0.3-0.1,0,0.5-0.3,0.3c0.1,0.2,0.2,0.4,0.4,0.5c-0.2,0.1-0.3-0.3-0.4-0.1l0.1,0.2l-0.1,0c0.1,0,0.1,0.2,0.2,0.2
		c-0.2,0-0.3,0.1-0.4,0.1c0,0.1-0.2,0.3,0,0.5h-0.1c0.3,0.2,0,0.4,0.3,0.6l-0.2,0.1c0,0.2,0.3,0.2,0.4,0.3c0,0.1,0,0.2,0,0.3
		c-0.2-0.3-0.3,0.1-0.4,0.1c0,0.1-0.1,0.4,0.1,0.6c-0.1-0.2-0.3-0.1-0.3-0.4c-0.3,0.1,0,0.4-0.1,0.6l-0.1,0c0,0.4,0.3,0.5,0.5,0.7
		c-0.2,0-0.2-0.1-0.4-0.2c-0.2,0.2-0.2,0.7-0.3,0.9c-0.2,0.1-0.2,0-0.2-0.1c0.1,0.3-0.2,0.6,0,0.9c-0.1-0.1-0.1,0.1-0.2,0.2
		c0.1,0,0.1,0.1,0.1,0.1c0.1,0.2,0,0.7-0.2,0.8l-0.1-0.1c-0.2,0.4,0.2,0.9-0.3,1.3c-0.1,0.1-0.2-0.2-0.3,0c0.1,0.1,0.3,0.2,0.1,0.4
		l-0.2-0.1l0.1,0.3c0.2,0,0.3-0.3,0.4,0c-0.3,0.1,0.1,0.3-0.3,0.4c0-0.1-0.1-0.2-0.1-0.3c-0.5,0.4-0.2,0.8-0.8,1.2
		c0,0.4-0.2,0.7-0.2,1c-0.2-0.1-0.3-0.2-0.4-0.4c-0.2,0.2,0.2,0.6-0.2,0.6c0.2,0.3-0.2,0.7,0.1,1c-0.1,0-0.2,0.2-0.2-0.1
		c-0.1,0.4-0.5,0.2-0.6,0.3c0,0.1,0.3,0.1,0.2,0.2c0,0-0.1,0-0.1,0l0,0.1c-0.1,0-0.1-0.2-0.2-0.2c-0.2,0.2-0.1,0.5-0.2,0.8l0-0.1
		l-0.2,0.3v0l0,0.3l-0.1-0.1c0,0.1,0,0.1,0,0.2l-0.1-0.1c0.1,0.2,0,0.5-0.1,0.7h-0.1c0,0.2-0.1,0.4-0.1,0.5c-0.3,0.1,0-0.4-0.3-0.1
		c0-0.1,0-0.2-0.1-0.3c-0.2,0.3-0.3,0.2-0.5,0.3c0.1,0.1,0.3,0,0.2,0.1c-0.4-0.1-0.3,0.2-0.6,0.4c0.1,0,0.2-0.1,0.2-0.2
		c0.1-0.1,0.1,0.1,0.2,0.1c0-0.1,0.1-0.1,0.1-0.2l0.1,0.1c0.1-0.1,0.2-0.2,0.2-0.3c0.1,0.2,0.3-0.2,0.3,0.1c0.1-0.2,0.4-0.3,0.3-0.6
		c0.2-0.1,0,0.3,0.1,0.2c0.3-0.8,0.8-1.4,1.3-2.1l0,0.1c0-0.1,0-0.2-0.1-0.3c0.2,0,0.7-0.4,0.5-0.7c0,0,0,0.1,0.1,0.1
		c0.1-0.2,0.6-0.6,0.8-0.9c-0.2-0.3,0.5-0.4,0.2-0.8l0,0.1c-0.2,0.1-0.2-0.3-0.3-0.4c0.3,0.1,0.2,0.1,0.5,0.1l-0.2,0.1l0.2,0.1
		c-0.3-0.8,0.7-0.7,0.4-1.2c0,0,0.1,0,0.1,0.1c0.2-0.1,0-0.4,0-0.6c0.1,0,0.1,0.2,0.2,0.3c0.3-0.3,0.2-1,0.5-1.3
		c-0.1-0.2-0.2,0-0.3-0.2c0.1-0.1,0.2-0.1,0.3,0c0.4-0.2,0.2-1.2,0.6-1.6c-0.1-0.3-0.2-0.2-0.2-0.6c0.1,0.1,0.4,0,0.4,0.3l0.1,0.1
		c0.1-0.4,0.3-1,0-1.3c0.3,0,0.1-0.1,0.2-0.2c0-0.1,0,0-0.1,0c-0.2-0.2,0.1-0.2,0.1-0.4l0,0.1c0-0.1-0.1-0.2-0.1-0.3
		c0-0.1,0.1-0.1,0.2-0.1l-0.2,0c0-0.2,0.2,0,0.2-0.3l-0.1,0c0.1-0.1-0.1-0.4,0.1-0.4c0,0,0,0,0,0.1c0.3-0.2,0-0.6,0.1-0.8l-0.3,0
		c-0.1-0.3,0.1-0.1,0.2-0.1c0-0.2,0.1-0.2,0.2-0.4c-0.1-0.1-0.1-0.1-0.2-0.1l0.1-0.2l0.2,0.2c-0.4-0.4,0.1-0.9-0.3-1.1
		c0.1-0.1,0.2,0.1,0.2,0.1c0.2-0.4-0.3-0.9-0.1-1.2c0.2-0.6,0-1.2,0.1-1.8l-0.1,0l0-0.4c-0.2-0.1-0.2-0.4-0.4-0.6c0.1,0,0.2,0,0.2,0
		c0-0.2-0.2-0.4-0.1-0.5l0.1,0.1c0-0.4-0.1-1-0.3-1.2c0-0.1,0.1-0.2,0.2-0.2c0-0.2-0.2-0.4-0.3-0.5c0-0.1,0.1-0.1,0.1-0.2l-0.2-0.1
		c0-0.1,0.2-0.1,0.2-0.1c-0.3-0.3-0.2-0.8-0.2-1l-0.1,0.1c-0.1-0.1,0-0.3,0.1-0.2c0-0.5-0.5-0.7-0.6-1.3c0.3-0.2-0.3-0.6,0.1-0.8
		c-0.2-0.2-0.1-0.5-0.3-0.6c0,0,0.1-0.1,0.1,0c0.1-0.1-0.1-0.5-0.3-0.7l0.1-0.1c-0.3,0-0.4-0.5-0.7-0.6c0.1-0.1,0.1,0,0.2,0
		c0.2-0.2-0.2-0.2-0.2-0.4c0.1,0,0.1-0.1,0.2-0.1c0.1-0.7-0.7-1.4-0.7-2.3c0-0.2-0.2,0.2-0.3-0.1c0.1-0.1,0.3,0.1,0.3-0.1
		c-0.2-0.1-0.2-0.1-0.2-0.3c0.1,0,0.2,0,0.2,0.1c0.1-0.1-0.3-0.4-0.1-0.6c-0.1,0-0.1,0-0.2,0c-0.3-0.2,0.1-0.7,0-0.7
		c0,0-0.1-0.1-0.1,0c0-0.1,0-0.3,0.1-0.3c-0.1,0-0.2-0.1-0.2-0.2l0.2,0c0,0-0.1-0.1-0.2-0.1l-0.1,0.1c0.1-0.1-0.2-0.4,0.1-0.4v0
		l0.1-0.2c-0.1-0.1-0.2-0.2-0.2-0.3c0.3-0.1,0.1-0.4,0.1-0.6l0.1,0c-0.1-0.2,0-0.5-0.1-0.5c0-0.1,0.1-0.3,0.2-0.2c0,0,0-0.1,0-0.1
		c0-0.1,0-0.2,0-0.3c0-0.2-0.1-0.3-0.2-0.3l0.2-0.4c-0.4-0.1,0-0.5-0.4-0.4c0.1-0.1,0.1-0.1,0.2-0.2c-0.2-0.2-0.2-0.4-0.2-0.6h0
		c0-0.2-0.2-0.4-0.3-0.8l0.3-0.1c-0.1-0.1-0.3-0.2-0.2-0.3c0,0,0.1,0,0.1,0c-0.1-0.1,0-0.3,0.1-0.5c-0.2-0.2-0.2-0.4-0.4-0.6
		c0.3-0.2,0.1,0.2,0.4,0.1c0.1-0.3-0.1-0.6-0.2-1c0.1,0,0.1,0,0.2,0c0,0-0.8-0.6-1.1-0.5c-0.2-0.1-0.3-0.2-0.5,0.1
		c0.1,0.1,0.3,0.4,0.1,0.4H90c0.1,0.4-0.4,0.1-0.4,0.6l0.1-0.1c0,0.1,0.2,0.1,0.1,0.3c-0.1,0-0.1,0-0.1-0.1l0.3,0.4
		c-0.1,0-0.2,0-0.3-0.1c0,0.4,0.4-0.1,0.3,0.4c-0.1,0.1-0.1,0-0.2-0.1c-0.2,0.2,0,0.4,0.2,0.6c-0.2,0-0.2-0.1-0.3,0.1
		c0.1,0,0.3-0.1,0.3,0.1c-0.2-0.1-0.1,0.1-0.1,0.2c0.1,0,0.2,0,0.2,0c0,0.1,0,0.1,0,0.2l0.2-0.2c0.2,0.2-0.1,0.4-0.1,0.6
		c0,0-0.1,0-0.1-0.1c-0.1,0.2-0.2,0.4,0,0.6l0,0c0.2,0.4,0.3-0.2,0.5,0.3c0,0.2-0.6-0.1-0.4,0.4c0.1-0.2,0.4,0.2,0.6,0.4l-0.4-0.1
		c0,0.1,0.2,0.2,0.1,0.3l0.1,0c0.3-0.1,0,0.3,0.2,0.4c-0.4-0.1-0.4-0.1-0.8-0.1c0.1,0,0.2,0.1,0.3,0.1c0.1,0,0.1,0.1,0.1,0.3
		c-0.1-0.1-0.2-0.2-0.3-0.3c-0.1,0.4,0.3,0.9,0.6,1.3c-0.2-0.1-0.3,0-0.5-0.1c0,0.1,0,0.3,0,0.4l-0.3-0.1c0.3,0.2,0.1,0.3,0.4,0.3
		c-0.1,0-0.1,0-0.1-0.1c0.1,0,0.3,0.1,0.3,0.3c-0.1,0.1-0.1-0.1-0.2,0c0.2,0.1-0.1,0.1,0,0.3l0.2-0.1c0.2,0.1,0,0.2,0.1,0.3
		c-0.1-0.1-0.2-0.1-0.3,0h0c0,0.1,0.2,0.2,0.1,0.3l-0.3-0.1l0.2,0.1c0,0.1-0.1,0.1-0.2,0c-0.1,0.5,0.6-0.1,0.4,0.5
		c-0.1,0-0.2,0-0.2-0.2c-0.2,0-0.3,0.1-0.3,0.2c0,0,0,0,0,0C89.9,194.8,89.9,195.2,90.1,195.3L90.1,195.3z"/>
	<path class="st0" d="M89.8,194.5c0-0.2,0-0.3-0.1-0.4C89.6,194.1,89.6,194.5,89.8,194.5z"/>
	<path class="st0" d="M92.5,215.9C92.5,215.9,92.5,215.9,92.5,215.9L92.5,215.9L92.5,215.9z"/>
	<path class="st0" d="M92.2,217.1C92.2,217.1,92.3,217.1,92.2,217.1C92.3,217,92.2,217,92.2,217.1z"/>
	<path class="st0" d="M92.7,205.1L92.7,205.1L92.7,205.1z"/>
	<path class="st0" d="M93.1,211.8c0.1,0.1,0.2,0.1,0.2,0.2C93.3,211.8,93.2,211.8,93.1,211.8z"/>
	<path class="st0" d="M93.2,209.5C93.2,209.5,93.2,209.5,93.2,209.5C93.2,209.5,93.2,209.5,93.2,209.5z"/>
	<path class="st0" d="M92.5,204.8c0.1,0.1,0.1,0.2,0.2,0.3C92.7,205.1,92.7,204.9,92.5,204.8z"/>
	<polygon class="st0" points="92,218.5 91.9,218.4 92,218.5 	"/>
	<path class="st0" d="M92.3,217.5c0.1,0,0-0.2-0.1-0.2C92.3,217.3,92.3,217.4,92.3,217.5z"/>
	<polygon class="st0" points="93.5,213.4 93.3,213.3 93.5,213.4 	"/>
</g>
<g>
	<path class="st0" d="M54.9,179.9l0,0.1c0-0.1,0.1-0.1,0.1-0.2C55.1,179.8,54.9,179.9,54.9,179.9z"/>
	<path class="st0" d="M56.3,179.4c0-0.2,0.1-0.4-0.1-0.6c0,0.1,0,0.2,0,0.3c-0.2-0.1-0.2-0.1-0.3,0.1l0.1-0.1c0,0,0.1,0.1,0.1,0.2
		c-0.2,0-0.1,0.3-0.4,0.2v0c0,0.1,0,0.1-0.1,0.2c-0.1,0-0.1-0.1-0.1-0.2c-0.1,0.2-0.2,0.3-0.4,0.4c0.1,0.2,0.2,0.1,0.3,0
		c0.1-0.1,0.1-0.2,0.3-0.1v0C55.8,179.5,56.2,179.6,56.3,179.4L56.3,179.4z"/>
	<path class="st0" d="M55.5,179.5L55.5,179.5C55.5,179.5,55.5,179.5,55.5,179.5z"/>
	<path class="st0" d="M61,177.4L61,177.4C61,177.3,61,177.4,61,177.4z"/>
	<path class="st0" d="M58.9,177L58.9,177C59,176.9,59,176.9,58.9,177z"/>
	<path class="st0" d="M70.4,178.4l0,0.1C70.4,178.5,70.4,178.4,70.4,178.4z"/>
	<path class="st0" d="M72.5,179.7L72.5,179.7L72.5,179.7z"/>
	<path class="st0" d="M72.2,178.1L72.2,178.1C72.3,178,72.2,178.1,72.2,178.1z"/>
	<path class="st0" d="M73.2,178.4C73.2,178.4,73.2,178.4,73.2,178.4C73.2,178.4,73.2,178.4,73.2,178.4z"/>
	<path class="st0" d="M72.5,179.7C72.5,179.7,72.5,179.7,72.5,179.7C72.5,179.7,72.5,179.7,72.5,179.7z"/>
	<path class="st0" d="M71.3,177.4l0.1-0.2C71.3,177.3,71.3,177.3,71.3,177.4z"/>
	<path class="st0" d="M73.5,178.4c0,0,0,0.1,0,0.1C73.5,178.4,73.5,178.4,73.5,178.4z"/>
	<path class="st0" d="M56.4,179.3C56.4,179.3,56.4,179.3,56.4,179.3C56.4,179.3,56.4,179.3,56.4,179.3z"/>
	<path class="st0" d="M66.8,175.1C66.8,175.1,66.9,175,66.8,175.1C66.8,175,66.8,175,66.8,175.1z"/>
	<path class="st0" d="M69.5,176.3L69.5,176.3C69.6,176.3,69.6,176.3,69.5,176.3L69.5,176.3L69.5,176.3z"/>
	<path class="st0" d="M68.9,176L68.9,176C68.9,176,68.9,176,68.9,176z"/>
	<path class="st0" d="M70.2,176.4C70.2,176.4,70.2,176.3,70.2,176.4L70.2,176.4z"/>
	<path class="st0" d="M70.6,176.8c0-0.1,0.1-0.1,0.1-0.2c-0.1-0.2-0.3,0.1-0.3-0.2l0,0.1c-0.2,0.1-0.3,0.1-0.3-0.2l0.1-0.1
		c-0.2,0.1-0.2-0.2-0.2-0.1c0,0.1-0.1,0.1-0.1,0.2l-0.3,0.1l0.1-0.3l-0.2,0c0,0.1-0.1-0.1-0.2,0.1c0-0.1,0.1-0.2,0.2-0.3
		c-0.1,0.1,0-0.1-0.2,0.1l0.1-0.2l-0.2,0.1c0,0,0,0,0-0.1c-0.2,0.1-0.1-0.2-0.4,0.1c0,0,0,0,0,0c-0.1,0.1-0.2-0.1-0.2-0.1
		c-0.1,0-0.2,0.2-0.2,0.2c-0.2-0.2-0.2-0.2-0.5,0c0-0.4,0.4-0.4,0.3-0.7c-0.1,0.1-0.3,0.2-0.5,0.2c-0.1-0.2-0.3-0.3-0.4-0.6l0,0.2
		l-0.2,0.1l0.2-0.3c-0.1,0.1-0.2,0.2-0.3,0.3c-0.2,0.1,0-0.5-0.2-0.2v-0.1c-0.1,0.1-0.2,0.1-0.3,0.1l0.1-0.3l0.1,0.1
		c0-0.3-0.2,0-0.2,0c-0.1,0.1-0.1,0.3-0.1,0.4c0,0-0.1,0.1-0.1,0c-0.1-0.1,0-0.3,0-0.4c-0.1,0.3-0.1,0.2-0.3,0.3c0-0.1,0-0.2,0-0.2
		c0,0-0.1,0.1-0.1,0.2l0-0.1c-0.2-0.2-0.2,0.5-0.4,0.4c0.1-0.1-0.2,0-0.3-0.1c0.1-0.1-0.1-0.4,0-0.6c-0.2-0.1-0.1,0.3-0.2,0.4l0-0.3
		c-0.1,0.1,0,0.2-0.2,0.3c0-0.1-0.1-0.1,0-0.2c-0.2,0-0.1,0-0.3,0v0.3c0,0-0.1-0.1-0.1-0.2c0,0,0.1,0,0,0c-0.1-0.3-0.1,0.2-0.2-0.1
		c0,0.1,0.1,0.2,0,0.3c0-0.2-0.1-0.2-0.1-0.2c0.1,0.1-0.1,0.1-0.1,0.3c-0.1-0.1,0-0.2,0-0.3c0,0.3-0.3,0.1-0.3,0.2c0,0,0,0,0-0.1
		c-0.1,0.2-0.2,0.2-0.3,0.5l0-0.2c-0.2-0.1,0,0.4-0.2,0.4c0-0.3-0.2,0.1-0.2-0.2c0,0.2-0.1,0.2-0.1,0.5c-0.1-0.1,0.1-0.4,0-0.4
		l-0.1,0.2l0-0.1c0,0.1-0.1,0.1-0.1,0.2c0-0.2-0.1-0.3-0.1-0.4c-0.1,0.1-0.2-0.1-0.2,0.1l0-0.1c0,0.3-0.2,0.1-0.2,0.4l-0.1-0.2
		c-0.1,0.1,0,0.4,0,0.5c0,0-0.1,0.1-0.1,0.1c0.1-0.2-0.1-0.2-0.2-0.3c0,0-0.2,0.1-0.2,0.2c0-0.2,0-0.3,0.1-0.3
		c-0.1-0.3-0.2,0.1-0.3,0.1l0-0.1c-0.2,0.1-0.1,0.4-0.1,0.7c-0.1-0.2-0.1-0.2,0-0.4c-0.1-0.1-0.3,0.1-0.5,0.1
		c-0.1-0.1-0.1-0.2,0-0.3c-0.1,0.2-0.3,0-0.3,0.4c0-0.1-0.1-0.1-0.1-0.1c0,0.1,0,0.1,0,0.1c-0.1,0.1-0.2,0.3-0.4,0.2l0-0.1
		c-0.2,0-0.2,0.6-0.5,0.4c-0.1-0.1,0-0.3-0.1-0.2c0,0.1,0,0.4-0.1,0.3l0-0.2l0,0.2c0.1,0.2,0.2,0.1,0.1,0.3c-0.2-0.2-0.1,0.2-0.2,0
		c0,0,0-0.2,0-0.3c-0.3-0.2-0.4,0.3-0.7,0c-0.1,0.2-0.3,0.2-0.3,0.4c-0.1-0.2-0.1-0.4-0.1-0.6c-0.2,0,0,0.5-0.2,0.2
		c0.1,0.3-0.2,0.3,0.1,0.7c-0.1-0.1-0.1,0.1-0.2-0.2c0,0.2-0.4-0.1-0.4,0c0,0,0.2,0.1,0.2,0.2c0,0,0,0-0.1,0l0.1,0.1
		c-0.1,0-0.1-0.2-0.2-0.2c-0.2,0.1,0,0.3-0.1,0.5l0-0.1l-0.1,0.1v0c0,0.1,0,0.1,0,0.2l-0.1-0.1c0,0,0,0.1,0,0.1l-0.1-0.1
		c0.1,0.2,0.1,0.4,0,0.4l-0.1,0l0.1,0.3c-0.2,0-0.1-0.3-0.2-0.1l-0.2-0.2c0,0.2-0.1,0.1-0.1,0.2c0.1,0.1,0.2,0,0.2,0.1
		c-0.3-0.1-0.1,0.2-0.1,0.4c0,0,0.1-0.1,0-0.2c0,0,0.1,0.1,0.1,0.1l0-0.2l0.1,0.1v-0.2c0.1,0.2,0.1-0.1,0.2,0.1c0-0.1,0.1-0.1,0-0.3
		c0.1,0.1,0.1,0.2,0.1,0.1c0-0.1,0.1-0.2,0.1-0.2c0.1-0.1,0.2-0.2,0.2-0.3c0.2-0.2,0.3-0.3,0.4-0.4l0,0.1c0-0.1-0.1-0.2-0.1-0.2
		c0.2,0.1,0.4,0.2,0.2-0.1c0,0,0,0.1,0,0.1c0-0.1,0.2,0.1,0.2,0.1c0-0.4,0.3,0.2,0.3-0.3l0,0.1c-0.1-0.1,0-0.3,0.1-0.4
		c0.1,0.3,0,0.2,0.1,0.5l-0.1-0.1l0.1,0.2c0.1-0.7,0.5,0.2,0.6-0.3c0,0,0,0.1,0,0.1c0.1,0.1,0.1-0.2,0.2-0.3c0,0.1,0,0.2,0,0.3
		c0.2,0.1,0.4-0.3,0.6-0.2c0-0.2-0.1-0.2,0-0.4c0.1,0,0.1,0.2,0.1,0.3c0.2,0.3,0.5-0.3,0.8-0.1c0.1-0.2,0-0.3,0.1-0.4
		c0,0.1,0.1,0.4,0,0.4l0,0.1c0.2,0,0.5,0,0.5-0.4c0.1,0.3,0,0,0.1,0.2c0,0,0,0,0-0.1c0-0.2,0.1,0,0.2-0.1v0.1l0.1-0.2
		c0,0,0.1,0.1,0.1,0.1l0-0.2c0.1,0,0.1,0.2,0.2,0.2l0-0.1c0.1,0.1,0.1-0.1,0.2,0.1c0,0,0,0,0,0c0.2,0.3,0.2-0.1,0.4,0l-0.1-0.3
		c0.1-0.1,0.1,0.1,0.1,0.1c0.1,0,0.1,0.1,0.2,0.1c0-0.1,0-0.1,0-0.2l0.1,0.1l0,0.2c0.1-0.5,0.4,0,0.4-0.4c0.1,0.1,0,0.2,0,0.2
		c0.2,0.2,0.3-0.4,0.5-0.2c0.3,0.2,0.5-0.1,0.8,0.1v-0.1l0.2,0.1c0-0.2,0.2-0.1,0.2-0.3c0,0.1,0,0.2,0,0.2c0.1,0,0.2-0.1,0.2,0
		l0,0.1c0.2,0,0.4,0.1,0.5-0.1c0.1,0,0,0.1,0.1,0.2c0.1,0,0.2-0.1,0.2-0.2c0,0,0,0.1,0.1,0.1l0-0.2c0,0,0,0.2,0,0.2
		c0.2-0.2,0.4,0,0.5,0v-0.1c0.1-0.1,0.1,0.1,0,0.2c0.2,0.1,0.4-0.3,0.6-0.1c-0.1,0.4,0.2,0,0.1,0.4c0.1-0.1,0.1,0.1,0.3-0.1
		c0,0,0,0.1,0,0.1c-0.1,0.1,0.1,0.1,0.2,0.1l-0.1,0.1c0.2-0.2,0.4,0.1,0.6-0.1c0,0.1-0.1,0.1-0.1,0.1c-0.1,0.3,0.2,0,0.2,0.1
		c0,0.1-0.1,0.1-0.1,0.2c0.2,0.4,0.8,0.2,1.1,0.6c0.1,0.1,0.1-0.3,0.2-0.2c0,0.1-0.2,0.2-0.1,0.3c0.1-0.1,0.1-0.1,0.2,0
		c-0.1,0.1-0.1,0.1-0.1,0.2c0,0.1,0.3-0.1,0.3,0.1c0-0.1,0.1-0.1,0.1-0.1c0.2-0.1,0.2,0.4,0.2,0.2c0,0,0.1,0,0-0.1
		c0,0,0.1,0.1,0,0.2c0.1-0.1,0.1-0.1,0.2-0.1l-0.1,0.1c0,0,0.1-0.1,0.1-0.1l0-0.1c0,0.1,0.2-0.1,0.1,0.2h0v0.2
		c0.1-0.1,0.2-0.2,0.3-0.1c-0.1,0.3,0.2,0.2,0.3,0.3l-0.1,0.1c0.2-0.1,0.3,0.1,0.3,0c0.1,0,0.2,0.1,0.1,0.2c0.1,0,0.2,0,0.3-0.1v0.3
		c0.2-0.3,0.2,0.2,0.3-0.1c0,0.1,0,0.2,0,0.2c0.1-0.1,0.2-0.1,0.3,0l0,0c0.1,0.1,0.2-0.1,0.3,0l-0.2,0.2c0,0,0.2-0.2,0.2-0.1
		c0,0,0,0.1-0.1,0.1c0.1,0,0,0.1,0,0.1c0.2-0.1,0.2,0,0.4-0.1c-0.2,0.2-0.1,0-0.3,0.1c-0.1,0.1,0,0.1,0.2,0.1c-0.1,0-0.1,0-0.2,0
		c0,0,0.8,0.1,1,0.1c0.2,0,0.3,0.1,0.5-0.1c-0.1-0.1-0.3-0.2-0.1-0.2l-0.2,0c-0.2-0.2,0.4-0.1,0.3-0.4l-0.1,0.1
		c0-0.1-0.2-0.1-0.1-0.1c0.1,0,0.1,0,0.2,0c-0.1-0.1-0.2-0.1-0.4-0.1c0.1-0.1,0.2-0.1,0.3-0.1c-0.1-0.2-0.3,0.2-0.4-0.1
		c0.1-0.1,0.1-0.1,0.2-0.1c0.1-0.2-0.1-0.2-0.3-0.2c0.1-0.1,0.2,0,0.2-0.2c-0.1,0.1-0.2,0.2-0.2,0.2c0.2-0.1,0-0.1,0-0.2
		c0,0.1-0.1,0.1-0.1,0.1s0-0.1-0.1-0.1l0,0.2c-0.2,0.1-0.1-0.2-0.1-0.3c0,0,0,0,0.1,0c0-0.1-0.1-0.3-0.3-0.2l0,0
		c-0.3,0.1-0.1,0.3-0.4,0.4c-0.1-0.1,0.3-0.6,0-0.4c0,0.2-0.3,0.3-0.4,0.3l0.2-0.3c0,0-0.2,0.1-0.2,0l0,0.1
		c-0.1,0.3-0.1-0.1-0.2,0.1c0.2-0.4,0.2-0.3,0.4-0.7c-0.2,0.2-0.3,0.4-0.4,0.3l0.2-0.3c-0.1-0.1-0.5,0.2-0.7,0.4
		c0.2-0.2,0.2-0.3,0.3-0.4l-0.1,0l0.2-0.2c-0.2,0.2-0.1,0-0.3,0.3c0,0,0.1-0.1,0.1,0c-0.1,0.1-0.2,0.2-0.3,0.2
		c0-0.1,0.1-0.1,0.2-0.2c-0.1,0.1,0-0.1-0.1-0.1l0,0.2c-0.2,0.1-0.1-0.1-0.2,0c0.1,0,0.2-0.1,0.2-0.3v0c-0.1,0-0.2,0.1-0.1-0.1
		l0.2-0.2l-0.2,0.1c0,0,0-0.1,0.1-0.2c-0.1-0.3-0.3,0.5-0.4,0.1c0.1-0.1,0.1-0.1,0.2,0c0.1-0.1,0.1-0.2,0.1-0.3c0,0,0,0,0,0
		C71,176.8,70.8,176.7,70.6,176.8L70.6,176.8z"/>
	<path class="st0" d="M71.1,176.9c0.1,0,0.1,0.1,0.2,0.1C71.3,176.9,71.2,176.7,71.1,176.9z"/>
	<path class="st0" d="M60.6,175.9L60.6,175.9L60.6,175.9z"/>
	<path class="st0" d="M60.1,176.2C60.1,176.2,60.1,176.2,60.1,176.2C60.1,176.2,60.1,176.1,60.1,176.2z"/>
	<path class="st0" d="M65.9,175.1L65.9,175.1L65.9,175.1z"/>
	<path class="st0" d="M62.6,175.3c0,0.1,0,0.2,0,0.2C62.6,175.5,62.6,175.4,62.6,175.3z"/>
	<path class="st0" d="M63.7,175.2C63.7,175.2,63.7,175.2,63.7,175.2C63.7,175.2,63.7,175.2,63.7,175.2z"/>
	<path class="st0" d="M66.1,174.9c-0.1,0.1-0.1,0.1-0.2,0.1C66,175,66.1,175.1,66.1,174.9z"/>
	<polygon class="st0" points="59.5,176.6 59.5,176.5 59.5,176.6 	"/>
	<path class="st0" d="M60,176.4c0,0,0.1-0.1,0.1-0.1C60,176.3,60,176.4,60,176.4z"/>
	<polygon class="st0" points="62,176.1 61.9,175.9 61.9,176 	"/>
</g>
<g>
	<polygon class="st0" points="44.7,193.9 44.8,193.9 44.7,193.8 	"/>
	<path class="st0" d="M45.1,192.6c-0.2-0.1-0.2-0.3-0.5-0.3l0.3,0.2c-0.2,0-0.2,0.1-0.1,0.3v-0.1c0,0,0.2,0,0.2,0.1
		c-0.1,0.2,0.2,0.3-0.1,0.4h0l0.1,0.2c0,0-0.1,0-0.2,0c0.1,0.1,0.2,0.3,0.1,0.5c0.4-0.1-0.2-0.5,0.2-0.5h0
		C44.9,193,45.2,192.8,45.1,192.6L45.1,192.6z"/>
	<path class="st0" d="M44.7,193.3L44.7,193.3L44.7,193.3z"/>
	<path class="st0" d="M44.1,186.4L44.1,186.4C44,186.4,44,186.4,44.1,186.4z"/>
	<path class="st0" d="M43.7,188.6L43.7,188.6C43.6,188.6,43.6,188.6,43.7,188.6z"/>
	<path class="st0" d="M45.8,175.5L45.8,175.5C45.8,175.5,45.7,175.5,45.8,175.5z"/>
	<path class="st0" d="M43.6,172.6L43.6,172.6L43.6,172.6z"/>
	<path class="st0" d="M44.4,174L44.4,174C44.3,174.1,44.4,174,44.4,174z"/>
	<path class="st0" d="M44.1,174C44.1,174,44.1,174,44.1,174C44.1,174,44.1,174,44.1,174z"/>
	<path class="st0" d="M43.6,172.6C43.6,172.6,43.6,172.6,43.6,172.6C43.6,172.6,43.6,172.6,43.6,172.6z"/>
	<path class="st0" d="M44.4,175.2l-0.2,0C44.3,175.2,44.3,175.2,44.4,175.2z"/>
	<path class="st0" d="M44,174.2C44,174.2,44,174.1,44,174.2C44,174.1,44,174.2,44,174.2z"/>
	<path class="st0" d="M45.1,192.4c0,0,0,0.1,0,0.1C45.1,192.5,45.1,192.5,45.1,192.4z"/>
	<path class="st0" d="M42.9,180C42.9,180,42.8,180,42.9,180C42.8,180,42.8,180,42.9,180z"/>
	<path class="st0" d="M43.8,177.1L43.8,177.1C43.8,177.1,43.8,177.1,43.8,177.1L43.8,177.1L43.8,177.1z"/>
	<path class="st0" d="M43.5,177.9L43.5,177.9C43.5,177.9,43.5,177.9,43.5,177.9z"/>
	<path class="st0" d="M43.8,176.4C43.8,176.4,43.8,176.4,43.8,176.4L43.8,176.4z"/>
	<path class="st0" d="M44.2,175.9c-0.1,0-0.2,0-0.2-0.1c-0.1,0.1,0.1,0.2-0.1,0.3l0.1,0c0.1,0.1,0.1,0.3-0.1,0.3l-0.1-0.1
		c0.1,0.1-0.2,0.2-0.1,0.3c0.1,0,0.1,0.1,0.2,0L44,177l-0.3-0.1l0,0.1c0.1,0-0.1,0.1,0.1,0.2c-0.1,0-0.2-0.1-0.3-0.2
		c0,0.1-0.1,0.1,0.1,0.2l-0.3,0l0.1,0.2c0,0,0,0-0.1,0c0.2,0.2-0.2,0.2,0.1,0.4c0,0,0,0,0,0c0.2,0.1,0,0.2-0.1,0.3
		c0,0.1,0.2,0.1,0.3,0.2c-0.2,0.3-0.1,0.2,0.1,0.5c-0.3,0.1-0.4-0.3-0.7-0.2c0.1,0.1,0.2,0.2,0.2,0.4c-0.1,0.1-0.3,0.3-0.5,0.4
		l0.2,0l0.1,0.2l-0.3-0.2c0.1,0.1,0.2,0.2,0.3,0.3c0.1,0.2-0.5,0-0.2,0.2h-0.1c0.1,0.1,0.1,0.2,0.1,0.4l-0.2-0.1l0.1-0.1
		c-0.3,0,0,0.2,0,0.3c0.1,0.1,0.3,0.1,0.4,0.2c0,0,0,0.1,0,0.1c-0.1,0.1-0.3-0.1-0.4-0.1c0.3,0.1,0.2,0.1,0.3,0.3
		c-0.1,0-0.2,0-0.2-0.1c0,0,0.1,0.1,0.2,0.1l-0.2,0c-0.2,0.1,0.5,0.3,0.3,0.5c-0.1-0.1,0,0.2-0.2,0.2c0-0.1-0.4,0-0.5-0.1
		c-0.1,0.2,0.3,0.1,0.3,0.3l-0.3-0.1c0.1,0.2,0.2,0.1,0.3,0.2c-0.1-0.1-0.1,0.1-0.2-0.1c-0.1,0.2,0,0.1-0.1,0.3l0.3,0.1
		c0,0.1-0.1,0.1-0.2,0.1c0,0,0-0.1,0-0.1c-0.3,0,0.1,0.1-0.1,0.2c0.1,0,0.2,0,0.3,0.1c-0.2,0-0.2,0.1-0.3,0.1c0.1,0,0.1,0.2,0.3,0.2
		c-0.2,0.1-0.2,0-0.3-0.1c0.2,0.1,0,0.3,0.2,0.4c0,0,0,0-0.1,0c0.2,0.1,0.2,0.2,0.4,0.4l-0.2-0.1c-0.1,0.2,0.4,0.1,0.4,0.3
		c-0.3,0,0,0.2-0.3,0.2c0.1,0.1,0.2,0.2,0.4,0.2c-0.1,0.1-0.4-0.2-0.4-0.1l0.1,0.1l-0.1,0c0.1,0,0.1,0.1,0.2,0.1
		c-0.2,0-0.3,0.1-0.4,0.1c0,0.1-0.1,0.2,0,0.2h-0.1c0.3,0.1,0.1,0.2,0.4,0.3l-0.2,0.1c0,0.1,0.4,0.1,0.5,0.1c0,0,0,0.1,0,0.1
		c-0.2-0.1-0.2,0.1-0.4,0.1c0,0.1,0,0.2,0.2,0.3c-0.2-0.1-0.3,0-0.3-0.1c-0.3,0.1,0.1,0.2,0.1,0.3h-0.2c0.1,0.2,0.4,0.2,0.6,0.2
		c-0.2,0-0.2,0-0.4,0c-0.1,0.1,0.1,0.4,0,0.5c-0.1,0.1-0.2,0.1-0.3,0c0.2,0.1,0,0.4,0.4,0.4c-0.1,0-0.1,0.1-0.1,0.1
		c0.1,0,0.1,0,0.1,0c0.2,0.1,0.3,0.3,0.2,0.4l-0.1,0c0,0.3,0.6,0.2,0.4,0.6c0,0.1-0.3,0-0.2,0.1c0.1,0,0.4-0.1,0.3,0.1l-0.2,0.1
		l0.2,0c0.2-0.1,0.1-0.2,0.3-0.2c-0.2,0.2,0.2,0,0,0.2c0,0-0.2,0-0.3,0c-0.2,0.4,0.3,0.3,0.2,0.7c0.2,0.1,0.3,0.3,0.5,0.3
		c-0.2,0.1-0.4,0.1-0.6,0.1c0,0.1,0.5,0.1,0.2,0.2c0.3,0,0.3,0.3,0.7,0.2c-0.1,0,0,0.1-0.2,0.1c0.2,0.1-0.3,0.3-0.3,0.4
		c0,0,0.2-0.1,0.3,0c0,0-0.1,0-0.1,0.1l0.1,0c-0.1,0.1-0.2,0-0.3,0c0,0.2,0.3,0.2,0.3,0.4l-0.1,0v0.2h0l0.2,0.1h-0.1
		c0,0,0.1,0,0.1,0.1h-0.1c0.2,0,0.3,0.2,0.4,0.3l-0.1,0l0.3,0.2c-0.1,0.1-0.3-0.1-0.2,0.1l-0.3,0c0.1,0.1,0,0.2,0.1,0.3
		c0.1-0.1,0.1-0.1,0.2-0.1c-0.3,0.1,0.1,0.2,0.2,0.3c0-0.1,0-0.1-0.2-0.1c0-0.1,0.1,0,0.2-0.1l-0.2-0.1l0.2,0l-0.1-0.1
		c0.2,0,0-0.1,0.2-0.1c-0.1-0.1,0-0.2-0.2-0.3c0.1-0.1,0.2,0.1,0.2,0c-0.2-0.4-0.3-0.8-0.3-1.3l0.1,0c-0.1,0-0.2-0.1-0.3-0.1
		c0.2-0.1,0.3-0.4,0-0.5c0,0,0.1,0,0.1,0c-0.1-0.1,0.1-0.4,0-0.6c-0.3,0,0.1-0.4-0.4-0.3h0.1c-0.1,0.1-0.3,0-0.5,0
		c0.3-0.1,0.2-0.1,0.5-0.2l-0.1,0.1l0.2-0.1c-0.7,0,0.2-0.5-0.3-0.5c0,0,0.1,0,0.1,0c0.1-0.1-0.2-0.1-0.3-0.2c0.1,0,0.2,0,0.3,0
		c0-0.2-0.4-0.4-0.2-0.6c-0.2,0-0.2,0.1-0.4,0c0-0.1,0.2-0.1,0.3-0.1c0.3-0.2-0.3-0.5-0.1-0.8c-0.2-0.1-0.3,0-0.4-0.2
		c0.1,0,0.4-0.1,0.4,0h0.1c0-0.2,0-0.5-0.4-0.5c0.3,0,0.1,0,0.2-0.1c0,0,0,0-0.1,0c-0.2-0.1,0-0.1,0-0.2l0,0l-0.2-0.1
		c0,0,0.1-0.1,0.2-0.1h-0.2c0-0.1,0.2,0,0.2-0.1l-0.1,0c0.1-0.1-0.1-0.2,0.1-0.2c0,0,0,0,0,0c0.3-0.1-0.1-0.2,0-0.4l-0.3,0
		c-0.1-0.1,0.1-0.1,0.2-0.1c0-0.1,0.1-0.1,0.1-0.2c-0.1-0.1-0.1,0-0.2,0l0.1-0.1l0.2,0.1c-0.5-0.2,0.1-0.4-0.4-0.5
		c0.1-0.1,0.2,0.1,0.2,0c0.2-0.2-0.3-0.4,0-0.6c0.2-0.2,0.1-0.6,0.2-0.8h-0.1l0.1-0.2c-0.2-0.1-0.1-0.2-0.3-0.3c0.1,0,0.2,0,0.2,0
		c0-0.1-0.1-0.2,0-0.2l0.1,0c0.1-0.2,0.1-0.4,0-0.6c0-0.1,0.1,0,0.2,0c0-0.1,0-0.2-0.2-0.3c0,0,0.1,0,0.2-0.1l-0.2-0.1
		c0,0,0.2,0,0.2,0c-0.2-0.2,0-0.4,0.1-0.5h-0.1c-0.1-0.1,0.1-0.1,0.2-0.1c0.2-0.2-0.2-0.4-0.1-0.7c0.4,0,0-0.3,0.4-0.2
		c-0.1-0.1,0.1-0.2-0.1-0.4c0,0,0.1,0,0.1,0c0.2,0,0.1-0.2,0.1-0.4l0.1,0c-0.2-0.1-0.1-0.3-0.3-0.5c0.1,0,0.1,0.1,0.1,0.1
		c0.3,0-0.1-0.2,0-0.2c0.1,0,0.1,0,0.2,0.1c0.4-0.2,0.1-0.8,0.4-1.2c0-0.1-0.3,0-0.2-0.2c0.1,0,0.2,0.2,0.3,0.1
		c-0.1-0.1-0.1-0.1-0.1-0.2c0.1,0,0.1,0,0.2,0.1c0.1,0-0.1-0.3,0.1-0.4c-0.1,0-0.1-0.1-0.2-0.1c-0.2-0.2,0.3-0.4,0.2-0.4
		c0,0,0-0.1-0.1,0c0-0.1,0.1-0.2,0.2-0.1c-0.1-0.1-0.2-0.1-0.2-0.1l0.1,0.1c0,0-0.1-0.1-0.1-0.1l-0.1,0c0.1-0.1-0.2-0.2,0.1-0.2v0
		l0.2-0.1c-0.1-0.1-0.2-0.1-0.2-0.2c0.3,0,0.1-0.3,0.1-0.4H46c-0.2-0.1-0.1-0.4-0.2-0.3c0-0.1,0-0.2,0.1-0.2
		c-0.1-0.1-0.1-0.2-0.3-0.2c0.1-0.1,0.1-0.1,0.2-0.2c-0.4,0,0-0.4-0.4-0.2c0-0.1,0-0.1,0.1-0.1l-0.4-0.5c0,0,0-0.1,0-0.1
		c-0.2,0.1-0.3,0-0.5,0v0c-0.2-0.1-0.4,0.1-0.7,0.1l-0.1-0.3c-0.1,0.1-0.1,0.3-0.3,0.3c0,0,0-0.1,0-0.1c-0.1,0.1-0.3,0.1-0.4,0.1
		c-0.1,0.3-0.2,0.3-0.2,0.6c-0.3-0.1,0.1-0.2-0.2-0.3c-0.3,0.1-0.4,0.4-0.4,0.7c-0.1,0-0.1-0.1-0.1-0.1c0,0,0.5,0.7,0.8,0.8
		c0.2,0.1,0.3,0.2,0.5,0.1c-0.1-0.1-0.2-0.3,0-0.2l-0.2-0.1c0-0.2,0.4,0.2,0.5,0.1l-0.1,0c0,0-0.1-0.1,0-0.1c0,0,0.1,0.1,0.1,0.1
		c0-0.1-0.1-0.2-0.1-0.3c0.1,0.1,0.1,0.1,0.2,0.2c0-0.1-0.3-0.3-0.1-0.3c0.1,0.1,0.1,0.1,0.1,0.2c0.1,0.1,0,0,0.1-0.1
		c0.1,0.2,0,0.2,0.1,0.3c0-0.1-0.1-0.2-0.1-0.3c0,0.2,0,0.1,0.1,0.1c0-0.1,0-0.2,0-0.2c0,0,0,0,0.1,0c0-0.1,0-0.1-0.1-0.2
		c0.1-0.2,0.1,0.1,0.2,0.2c0,0,0,0.1,0,0.1c0,0.1,0,0.2,0.1,0.1v0c0.2-0.1,0-0.3,0.3-0.4c0,0.1-0.2,0.4-0.1,0.4l-0.3-0.3
		c0,0,0,0,0.1,0.1c0.1-0.1,0.4,0,0.5,0.1h-0.4c0,0.1,0.1,0.1,0.1,0.1l0.1,0c0.3-0.1,0,0.1,0.2,0.2c-0.4,0-0.4,0-0.8,0.1
		c0.2,0,0.5,0,0.5,0.1l-0.4,0c0,0.1,0.5,0.2,0.8,0.4c-0.2,0-0.3,0-0.6,0c0,0.1,0,0.1,0.1,0.1l-0.3,0c0.3,0.1,0.1,0.1,0.5,0.1
		c0,0-0.1,0-0.1,0c0.1,0,0.3,0,0.3,0.1c-0.1,0.1-0.1,0-0.2,0c0.1,0.1-0.1,0.1,0,0.1l0.2-0.1c0.2,0.1,0,0.1,0.1,0.2
		c-0.1-0.1-0.2-0.1-0.3,0h0c0,0,0.1,0.1,0,0.1l-0.3-0.1l0.2,0.1c0,0-0.1,0-0.2,0c-0.2,0.2,0.6,0.1,0.3,0.3c-0.1,0-0.2-0.1-0.1-0.1
		c-0.2,0-0.3,0-0.3,0c0,0,0,0,0,0C44.1,175.7,44,175.8,44.2,175.9L44.2,175.9z"/>
	<path class="st0" d="M44,175.5c0-0.1,0-0.1,0-0.1C44,175.4,43.9,175.5,44,175.5z"/>
	<path class="st0" d="M42.6,186.7L42.6,186.7L42.6,186.7z"/>
	<path class="st0" d="M42.8,187.3C42.8,187.3,42.8,187.3,42.8,187.3C42.8,187.3,42.8,187.3,42.8,187.3z"/>
	<path class="st0" d="M42.8,180.9L42.8,180.9L42.8,180.9z"/>
	<path class="st0" d="M42.3,184.4c0.1,0.1,0.2,0.1,0.2,0.1C42.5,184.5,42.5,184.5,42.3,184.4z"/>
	<path class="st0" d="M42.5,183.2L42.5,183.2C42.4,183.2,42.5,183.2,42.5,183.2z"/>
	<path class="st0" d="M42.7,180.7c0.1,0.1,0.1,0.1,0.1,0.2C42.7,180.9,42.8,180.8,42.7,180.7z"/>
	<polygon class="st0" points="43.3,188 43.1,188 43.2,188 	"/>
	<path class="st0" d="M43,187.5c0,0-0.1-0.1-0.1-0.1C43,187.4,43,187.4,43,187.5z"/>
	<polygon class="st0" points="42.9,185.3 42.8,185.3 42.9,185.3 	"/>
</g>
<g>
	<path class="st0" d="M44.5,173.3l0.1,0c-0.1,0-0.1-0.1-0.2-0.1C44.5,173.2,44.5,173.2,44.5,173.3L44.5,173.3z"/>
	<path class="st0" d="M44.7,172.8c-0.1-0.1-0.2-0.3-0.4-0.4l0.2,0.2c-0.2-0.1-0.2,0-0.2,0.1v-0.1c0,0,0.2,0.1,0.2,0.1
		c-0.1,0.1,0.1,0.1-0.1,0.1h0c0,0,0.1,0,0.2,0.1c0,0-0.1,0-0.2,0c0.1,0.1,0.2,0,0.2,0.2c0.2-0.1,0.1-0.1,0-0.1c-0.1,0-0.2-0.1,0-0.1
		h0C44.5,172.9,44.8,172.9,44.7,172.8L44.7,172.8z"/>
	<path class="st0" d="M44.3,172.9L44.3,172.9C44.3,172.9,44.3,172.9,44.3,172.9z"/>
	<path class="st0" d="M46.8,170.2L46.8,170.2C46.7,170.1,46.8,170.2,46.8,170.2z"/>
	<path class="st0" d="M45.4,170.5L45.4,170.5C45.3,170.4,45.3,170.5,45.4,170.5z"/>
	<path class="st0" d="M52.3,167.6L52.3,167.6C52.3,167.6,52.3,167.6,52.3,167.6z"/>
	<path class="st0" d="M54,167.4L54,167.4L54,167.4z"/>
	<path class="st0" d="M53,166.3L53,166.3C53,166.2,53,166.3,53,166.3z"/>
	<path class="st0" d="M53.5,166C53.5,166,53.5,166,53.5,166C53.5,166,53.5,166,53.5,166z"/>
	<path class="st0" d="M54,167.4C54,167.4,54,167.4,54,167.4C54,167.4,54,167.4,54,167.4z"/>
	<path class="st0" d="M52.2,166.2l-0.1-0.2C52.1,166.1,52.2,166.2,52.2,166.2z"/>
	<path class="st0" d="M53.5,165.8C53.5,165.8,53.6,165.9,53.5,165.8C53.6,165.9,53.6,165.8,53.5,165.8z"/>
	<path class="st0" d="M44.8,172.7C44.8,172.7,44.8,172.8,44.8,172.7C44.8,172.8,44.8,172.8,44.8,172.7z"/>
	<path class="st0" d="M49.1,166.8C49.1,166.8,49.1,166.8,49.1,166.8C49.1,166.8,49.1,166.8,49.1,166.8z"/>
	<path class="st0" d="M50.9,166.3L50.9,166.3C50.9,166.3,50.9,166.3,50.9,166.3L50.9,166.3L50.9,166.3z"/>
	<path class="st0" d="M50.4,166.5L50.4,166.5C50.4,166.4,50.4,166.5,50.4,166.5z"/>
	<path class="st0" d="M51.2,166C51.2,166,51.2,166,51.2,166L51.2,166z"/>
	<path class="st0" d="M51.7,166.2c0-0.1,0-0.1,0-0.2c-0.1-0.1-0.1,0.2-0.2,0l0.1,0.1c0,0.2-0.1,0.2-0.2,0V166c0,0.2-0.2-0.1-0.2,0
		c0.1,0.1,0,0.1,0.1,0.2l-0.1,0.2l-0.1-0.3l-0.1,0.1c0,0.1-0.1-0.1-0.1,0.2c-0.1-0.1,0-0.2,0-0.3c0,0.1-0.1,0-0.1,0.1l-0.1-0.2
		l-0.1,0.2c0,0,0,0,0-0.1c0,0.2-0.2-0.1-0.1,0.3c0,0,0,0,0,0c0,0.2-0.1,0.1-0.2,0.1c0,0.1,0,0.2,0.1,0.4c-0.2,0-0.1,0-0.2,0.3
		c-0.2-0.3,0-0.5-0.2-0.7c0,0.1,0,0.3-0.1,0.4c-0.1-0.1-0.3-0.1-0.4-0.3l0.1,0.2l-0.1,0.1l0-0.3c0,0.1,0,0.2,0,0.3
		c-0.1,0.2-0.2-0.4-0.2-0.1l0-0.1c0,0.2-0.1,0.1-0.1,0.2l-0.1-0.3l0.1,0c-0.1-0.2-0.1,0.1-0.1,0.1c0,0.1,0.1,0.3,0.1,0.4
		c0,0,0,0.1-0.1,0c-0.1-0.1-0.1-0.3-0.2-0.4c0.1,0.3,0,0.2,0,0.4c-0.1-0.1-0.1-0.2-0.1-0.2c0,0,0,0.1,0,0.2l-0.1-0.1
		c-0.2-0.1,0.1,0.5-0.1,0.5c0-0.1-0.1,0.1-0.2-0.1c0-0.1-0.2-0.3-0.2-0.5c-0.1,0,0.1,0.3,0,0.4l-0.1-0.3c0,0.2,0.1,0.2,0,0.3
		c0-0.1-0.1-0.1-0.1-0.2c-0.1,0-0.1,0-0.2,0.1l0.2,0.3c0,0-0.1-0.1-0.1-0.1c0,0,0,0,0-0.1c-0.2-0.2,0,0.2-0.2,0
		c0.1,0.1,0.1,0.2,0.1,0.2c-0.1-0.2-0.1-0.1-0.2-0.2c0.1,0.1-0.1,0.1,0,0.3c-0.1-0.1-0.1-0.1-0.1-0.2c0.1,0.2-0.1,0.1-0.1,0.3
		c0,0,0,0,0,0c0,0.2,0,0.2,0,0.5l-0.1-0.2c-0.1,0,0.2,0.4,0.1,0.4c-0.1-0.2-0.1,0.1-0.2-0.2c0,0.1,0,0.2,0.1,0.4
		c-0.1-0.1-0.1-0.4-0.2-0.4l0,0.2l-0.1-0.1c0.1,0.1,0,0.1,0.1,0.2c-0.1-0.1-0.2-0.2-0.3-0.3c0,0.1-0.2,0-0.1,0.1l0-0.1
		c0.2,0.3-0.1,0.1,0.1,0.4l-0.1-0.1c0,0.1,0.2,0.3,0.2,0.4c0,0,0,0.1,0,0.1c-0.1-0.2-0.2-0.2-0.3-0.2c0,0-0.1,0.1,0,0.2
		c-0.1-0.1-0.2-0.2-0.1-0.3c-0.2-0.2,0,0.1-0.1,0.2l-0.1-0.1c0,0.2,0.1,0.4,0.3,0.6c-0.1-0.1-0.2-0.2-0.3-0.3
		c-0.1,0-0.1,0.2-0.2,0.2c-0.1-0.1-0.2-0.1-0.2-0.2c0,0.2-0.2,0.1,0,0.4c-0.1-0.1-0.1,0-0.2-0.1c0,0.1,0.1,0.1,0.1,0.1
		c0.1,0.1,0.1,0.3-0.1,0.3l-0.1-0.1c-0.1,0.1,0.2,0.5,0,0.5c-0.1,0-0.2-0.2-0.2-0.1c0.1,0.1,0.3,0.2,0.2,0.3l-0.2-0.1l0.1,0.2
		c0.2,0.1,0.2,0,0.3,0.1c-0.2-0.1,0.1,0.2-0.1,0.1c0,0-0.1-0.1-0.2-0.2c-0.3,0,0,0.3-0.3,0.3c0.1,0.2,0.1,0.3,0.2,0.4
		c-0.2-0.1-0.3-0.2-0.5-0.4c-0.1,0.1,0.3,0.3,0,0.2c0.2,0.2,0,0.3,0.4,0.5c-0.1,0,0,0.1-0.2-0.1c0.1,0.1-0.4-0.1-0.4,0
		c0,0,0.2,0.1,0.2,0.2c0,0-0.1,0-0.1,0l0.1,0.1c-0.1,0-0.2-0.1-0.3-0.2c-0.1,0,0.1,0.2,0.1,0.3l-0.1-0.1l-0.1,0.1l0,0l0.1,0.1
		l-0.1-0.1c0,0,0.1,0.1,0.1,0.1l-0.1-0.1c0.2,0.1,0.2,0.2,0.2,0.3l-0.1,0l0.2,0.2c-0.1,0-0.2-0.2-0.2-0.1l-0.2-0.1
		c0.1,0.1-0.1,0.1,0,0.2c0.1,0,0.1,0,0.2,0.1c-0.3-0.1,0,0.1,0.1,0.2c0,0,0-0.1-0.1-0.1c0,0,0.1,0.1,0.2,0l-0.1-0.1l0.2,0.1
		l-0.1-0.1c0.2,0.1,0-0.1,0.2,0.1c-0.1-0.1,0.1-0.1-0.1-0.2c0.1,0,0.1,0.1,0.2,0.1c-0.1-0.3,0.1-0.5,0.2-0.6l0.1,0.1
		c-0.1-0.1-0.1-0.1-0.2-0.2c0.2,0.1,0.4,0.1,0.2-0.2c0,0,0,0,0.1,0.1c0-0.1,0.3-0.1,0.3-0.2c-0.3-0.2,0.3,0-0.1-0.3l0.1,0.1
		c-0.1,0-0.2-0.2-0.3-0.3c0.3,0.1,0.2,0.1,0.4,0.3l-0.1,0l0.2,0.1c-0.4-0.5,0.4,0,0.1-0.4c0,0,0,0.1,0.1,0.1c0.1,0-0.1-0.2-0.1-0.3
		c0.1,0.1,0.1,0.1,0.2,0.2c0.1,0,0-0.4,0.2-0.3c-0.1-0.1-0.2-0.1-0.2-0.2c0.1,0,0.2,0.1,0.2,0.2c0.3,0.1,0.1-0.4,0.4-0.3
		c-0.1-0.2-0.2-0.2-0.2-0.4c0.1,0.1,0.3,0.3,0.3,0.3l0.1,0.1c0.1-0.1,0.2-0.1,0-0.4c0.2,0.2,0.1,0,0.2,0.1c0,0,0,0,0,0
		c-0.1-0.2,0,0,0-0.1l0,0l0-0.2c0,0,0.1,0.1,0.1,0.1l-0.1-0.1c0,0,0.2,0.2,0.2,0.1l-0.1-0.1c0.1,0.1,0-0.1,0.1,0c0,0,0,0,0,0
		c0.2,0.2,0-0.2,0.2-0.1l-0.2-0.2c0-0.1,0.1,0,0.1,0.1c0,0,0.1,0.1,0.2,0c0-0.1-0.1-0.1-0.1-0.2l0.1,0l0.1,0.2
		c-0.2-0.4,0.2-0.1,0-0.5c0.1,0.1,0.1,0.2,0.1,0.2c0.2,0.1,0-0.4,0.2-0.2c0.2,0.1,0.3-0.2,0.5-0.1l0-0.1h0.1c-0.1-0.2,0.1-0.1,0-0.4
		c0,0.1,0.1,0.1,0.1,0.2c0-0.1,0-0.1,0.1-0.1l0,0.1c0.1,0,0.3-0.1,0.2-0.2c0,0,0.1,0.1,0.1,0.2c0.1,0,0.1-0.1,0.1-0.3
		c0,0,0,0.1,0.1,0.1l-0.1-0.2c0,0,0.1,0.1,0.1,0.2c0-0.3,0.2-0.1,0.2-0.1l0-0.1c0-0.1,0.1,0,0.1,0.1c0.2,0.1,0.1-0.4,0.3-0.4
		c0.1,0.3,0.1-0.2,0.3,0.2c0-0.1,0.1,0,0.1-0.2c0,0,0,0.1,0,0.1c0.1,0.1,0.1,0,0.2-0.1l0,0.1c-0.1-0.3,0.1-0.2,0.1-0.5
		c0,0.1,0,0.1,0,0.2c0.1,0.2,0-0.1,0.1-0.1c0,0.1,0.1,0.1,0.1,0.2c0.2,0.2,0.4-0.3,0.7-0.2c0.1,0-0.1-0.3,0-0.3
		c0.1,0.1,0,0.3,0.1,0.3c0-0.2,0-0.1,0.1-0.1c0,0.1,0,0.1,0,0.2c0,0.1,0.1-0.2,0.2,0c0-0.1,0-0.1,0-0.2c0-0.2,0.2,0.2,0.2,0.1
		c0,0,0,0,0-0.1c0,0,0.1,0,0.1,0.2c0-0.1,0-0.2,0-0.2v0.2c0,0,0-0.1,0-0.2l0-0.1c0.1,0.1,0.1-0.2,0.1,0.1h0l0.1,0.1
		c0-0.1,0-0.2,0.1-0.2c0.1,0.3,0.1,0.1,0.2,0.1v0.1c0-0.2,0.2-0.1,0.2-0.2c0,0,0.1,0.1,0.1,0.2c0-0.1,0.1-0.1,0.1-0.3l0.1,0.2
		c0-0.4,0.2,0.1,0.1-0.3c0.1,0.1,0.1,0.1,0.1,0.2c0-0.2,0.1-0.2,0.2-0.2v0c0.1,0,0.1-0.2,0.2-0.2l0.1,0.3c0-0.1,0-0.3,0.1-0.2
		c0,0,0,0.1,0,0.1c0-0.1,0.1,0,0.2,0c0-0.2,0.1-0.2,0.1-0.4c0.1,0.2-0.1,0.1,0.1,0.4c0.2,0.1,0.2-0.1,0.3-0.3c0,0.1,0,0.1,0.1,0.2
		c0,0,0-0.2-0.1-0.4c-0.1-0.2-0.1-0.5-0.2-0.6c-0.1-0.2-0.1-0.3-0.3-0.4c0,0.1,0,0.3-0.1,0.1l0.1,0.2c-0.1,0.1-0.2-0.4-0.3-0.4
		l0,0.1c0,0,0,0.1,0,0.1c0-0.1,0-0.1,0-0.1v0.3c0-0.1,0-0.2-0.1-0.3c-0.1,0,0.2,0.4,0,0.3c-0.1-0.1,0-0.1,0-0.2
		c-0.1-0.2-0.1,0-0.1,0.1c-0.1-0.2,0-0.2-0.1-0.3c0,0.1,0.1,0.2,0.1,0.3c0-0.2,0-0.1-0.1-0.1c0,0.1,0,0.1,0,0.2c0,0,0,0-0.1,0
		l0.1,0.2c0,0.2-0.1-0.1-0.2-0.1c0,0,0-0.1,0-0.1c-0.1-0.1-0.1-0.2-0.2,0v0c-0.1,0.2,0.1,0.3,0,0.5c0,0-0.1-0.6-0.2-0.4
		c0.1,0.1,0,0.4-0.1,0.5v-0.4c0,0,0,0.1-0.1,0.1l0,0.1c0,0.3-0.1,0-0.1,0.2c0-0.4,0-0.4,0-0.8c0,0.2,0,0.5-0.1,0.4l0-0.3
		c-0.1-0.1-0.2,0.4-0.2,0.7c0-0.2-0.1-0.3,0-0.5l-0.1,0.1v-0.3c0,0.3-0.1,0.1,0,0.4c0-0.1,0-0.1,0-0.1c0,0.1,0,0.3,0,0.3
		c-0.1-0.1,0-0.1,0-0.2c0,0.1,0-0.1-0.1,0l0.1,0.1c0,0.2-0.1,0-0.1,0.1c0-0.1,0-0.2,0-0.3v0c0,0,0,0.2-0.1,0.1l0-0.3v0.2
		c0,0-0.1-0.1,0-0.2c-0.2-0.1,0.1,0.6-0.1,0.4c0-0.1,0-0.2,0-0.1c0-0.2,0-0.3-0.1-0.3c0,0,0,0,0,0C51.9,166,51.8,166,51.7,166.2
		L51.7,166.2z"/>
	<path class="st0" d="M51.9,165.9c0,0,0.1,0,0.1-0.1C52,165.8,51.8,165.8,51.9,165.9z"/>
	<path class="st0" d="M45.7,169.2L45.7,169.2L45.7,169.2z"/>
	<path class="st0" d="M45.5,169.5C45.5,169.5,45.5,169.5,45.5,169.5C45.5,169.5,45.5,169.5,45.5,169.5z"/>
	<path class="st0" d="M48.6,167.1L48.6,167.1L48.6,167.1z"/>
	<path class="st0" d="M46.7,168.1c0,0.1,0.1,0.2,0.1,0.2C46.8,168.3,46.7,168.3,46.7,168.1z"/>
	<path class="st0" d="M47.3,167.8C47.3,167.8,47.3,167.8,47.3,167.8C47.3,167.8,47.3,167.8,47.3,167.8z"/>
	<path class="st0" d="M48.7,166.9c0,0.1,0,0.1-0.1,0.2C48.6,167.1,48.7,167.1,48.7,166.9z"/>
	<polygon class="st0" points="45.4,170.1 45.3,169.9 45.4,170 	"/>
	<path class="st0" d="M45.6,169.7c0,0,0-0.1-0.1-0.1C45.6,169.6,45.6,169.7,45.6,169.7z"/>
	<polygon class="st0" points="46.6,168.9 46.5,168.8 46.6,168.9 	"/>
</g>
<g>
	<polygon class="st0" points="55.9,166.8 56,166.7 55.9,166.8 	"/>
	<path class="st0" d="M55.9,166.5c-0.1,0.1-0.2,0.1-0.5,0.3l0.2-0.1c-0.2,0.2-0.1,0.2-0.1,0.1h0c0,0,0.1-0.1,0.1-0.1
		c0,0.1,0.2-0.1,0,0.1l0,0l0.1-0.1c0,0-0.1,0.1-0.1,0.1c0.1-0.1,0.2-0.1,0.2-0.1c0.3-0.3-0.3,0.2,0-0.1L55.9,166.5
		C55.8,166.7,56,166.5,55.9,166.5L55.9,166.5z"/>
	<path class="st0" d="M55.7,166.8L55.7,166.8C55.7,166.8,55.7,166.8,55.7,166.8z"/>
	<path class="st0" d="M55.2,165.3L55.2,165.3C55.2,165.4,55.2,165.3,55.2,165.3z"/>
	<path class="st0" d="M54.8,166.2L54.8,166.2C54.8,166.2,54.8,166.2,54.8,166.2z"/>
	<path class="st0" d="M52.8,163.5L52.8,163.5C52.8,163.5,52.8,163.6,52.8,163.5z"/>
	<path class="st0" d="M53.2,163.9L53.2,163.9L53.2,163.9z"/>
	<path class="st0" d="M51.9,164.1L51.9,164.1C51.8,164.1,51.9,164.1,51.9,164.1z"/>
	<path class="st0" d="M51.8,163.9C51.8,163.9,51.8,163.9,51.8,163.9C51.7,163.9,51.7,163.9,51.8,163.9z"/>
	<path class="st0" d="M53.2,163.9L53.2,163.9C53.2,163.9,53.2,163.9,53.2,163.9z"/>
	<path class="st0" d="M52.4,164.8l-0.1,0.2C52.3,165,52.3,164.9,52.4,164.8z"/>
	<path class="st0" d="M51.6,163.8C51.6,163.8,51.6,163.8,51.6,163.8C51.6,163.8,51.6,163.8,51.6,163.8z"/>
	<path class="st0" d="M55.8,166.5C55.8,166.5,55.8,166.5,55.8,166.5C55.8,166.5,55.8,166.5,55.8,166.5z"/>
	<path class="st0" d="M53.1,165.4C53.1,165.4,53,165.4,53.1,165.4C53,165.5,53,165.4,53.1,165.4z"/>
	<path class="st0" d="M52.6,165.1L52.6,165.1C52.6,165.1,52.6,165.1,52.6,165.1L52.6,165.1L52.6,165.1z"/>
	<path class="st0" d="M52.8,165.1L52.8,165.1C52.8,165.2,52.8,165.1,52.8,165.1z"/>
	<path class="st0" d="M52.5,165.3C52.5,165.3,52.4,165.3,52.5,165.3L52.5,165.3z"/>
	<path class="st0" d="M52.4,165c0,0.1-0.1,0.1-0.1,0.2c0,0.1,0.1-0.1,0,0l0-0.1c0.1-0.1,0.1-0.2,0.1,0l0,0.1c0.1-0.1,0,0.1,0,0
		c0-0.1,0.1-0.1,0.1-0.2l0.1-0.1l-0.1,0.3l0.1-0.1c0.1-0.1,0,0.1,0.1-0.1c0,0.1-0.1,0.2-0.2,0.3c0-0.1,0,0,0.1-0.1l-0.1,0.2l0.1-0.1
		c0,0,0,0,0,0.1c0.1-0.2,0,0.1,0.2-0.2c0,0,0,0,0,0c0.1-0.2,0.1,0,0,0c0,0,0.1-0.2,0.2-0.3c0,0.1,0,0.1,0.2-0.2
		c-0.2,0.3-0.3,0.4-0.4,0.6c0.1-0.1,0.2-0.2,0.2-0.2c0,0.1-0.1,0.2-0.2,0.4l0.1-0.2l0.1-0.1l-0.2,0.2c0-0.1,0.1-0.1,0.2-0.2
		c0.1-0.1-0.3,0.4,0,0.1l0,0.1c0.1-0.1,0.1-0.1,0.1-0.1l-0.2,0.2l0-0.1c-0.2,0.2,0,0,0,0c0.1-0.1,0.2-0.2,0.3-0.3c0,0,0.1,0,0,0
		c0,0.1-0.2,0.2-0.3,0.3c0.2-0.2,0.2-0.2,0.3-0.2c-0.1,0.1-0.1,0.1-0.2,0.2c0,0,0.1-0.1,0.2-0.1l-0.1,0.1c-0.1,0.2,0.4-0.3,0.3-0.2
		c-0.1,0.1,0.1,0,0,0.1c0,0-0.3,0.3-0.4,0.4c0,0.1,0.2-0.2,0.3-0.2l-0.2,0.2c0.1-0.1,0.1-0.1,0.2-0.2c-0.1,0.1,0,0.1-0.1,0.1
		c0,0.1,0,0,0,0.1l0.2-0.2c0,0-0.1,0.1-0.1,0.1c0,0,0,0,0,0c-0.2,0.2,0.1-0.1,0,0.1c0.1-0.1,0.2-0.2,0.2-0.2
		c-0.2,0.1-0.1,0.1-0.2,0.2c0.1-0.1,0.1,0,0.2-0.2c-0.1,0.1-0.1,0.1-0.2,0.2c0.2-0.2,0.1,0,0.2-0.1c0,0,0,0,0,0
		c0.1-0.1,0.2-0.1,0.4-0.2l-0.2,0.1c0,0.1,0.3-0.2,0.3-0.2c-0.2,0.2,0,0-0.2,0.2c0.1-0.1,0.2-0.1,0.4-0.2c-0.1,0.1-0.3,0.2-0.3,0.3
		l0.1-0.1l-0.1,0.1c0.1-0.1,0.1-0.1,0.2-0.1c-0.1,0.1-0.2,0.2-0.3,0.3c0,0-0.1,0.1,0.1,0l-0.1,0.1c0.2-0.2,0.1,0,0.3-0.2l-0.1,0.1
		c0,0,0.3-0.2,0.4-0.3c0,0,0,0,0,0c-0.2,0.1-0.2,0.2-0.3,0.2c0,0,0,0,0.2-0.1c-0.1,0.1-0.2,0.2-0.3,0.2c-0.2,0.2,0.1,0,0.1,0
		l-0.1,0.1c0.1,0,0.3-0.2,0.5-0.3c-0.1,0.1-0.2,0.1-0.3,0.2c-0.1,0.1,0.1,0.1,0.1,0.1c-0.1,0.1-0.2,0.1-0.2,0.2
		c0.1-0.1,0,0.1,0.3-0.1c-0.1,0.1-0.1,0.1-0.1,0.1c0,0,0.1-0.1,0.1-0.1c0.1-0.1,0.2-0.1,0.2,0l-0.1,0.1c0,0.1,0.5-0.2,0.3-0.1
		c0,0.1-0.2,0.2-0.2,0.2c0.1-0.1,0.3-0.2,0.3-0.1l-0.2,0.1l0.2-0.1c0.1-0.1,0.1-0.1,0.2-0.2c-0.1,0.1,0.2-0.1,0,0.1
		c0,0-0.2,0.1-0.2,0.1c-0.2,0.2,0.2-0.1,0.1,0.2c0.1-0.1,0.2-0.1,0.3-0.1c-0.2,0.1-0.3,0.2-0.5,0.3c0,0,0.4-0.2,0.2,0
		c0.2-0.2,0.2-0.1,0.5-0.3c-0.1,0.1,0,0-0.2,0.1c0.1-0.1-0.2,0.3-0.2,0.3c0,0,0.2-0.2,0.2-0.2c0,0,0,0-0.1,0.1l0.1-0.1
		c-0.1,0.1-0.2,0.1-0.2,0.2c0,0.1,0.2-0.1,0.3-0.1l-0.1,0v0v0l0.1-0.1l-0.1,0.1c0,0,0.1-0.1,0.1-0.1l-0.1,0.1
		c0.2-0.1,0.3-0.2,0.3-0.2l0,0l0.2-0.1c-0.1,0.1-0.2,0.2-0.1,0.1l-0.2,0.2c0.1-0.1,0,0.1,0.1,0c0.1-0.1,0.1-0.1,0.2-0.2
		c-0.2,0.2,0.1,0,0.2-0.1c0,0,0,0-0.1,0.1c0,0,0.1-0.1,0.1-0.1l-0.1,0.1l0.1-0.1l-0.1,0.1c0.2-0.1,0,0,0.2-0.2
		c-0.1,0.1,0-0.1-0.1,0.1c0.1-0.1,0.1-0.1,0.1-0.1c-0.2,0.1-0.2,0-0.2-0.1l0.1-0.1c-0.1,0.1-0.1,0.1-0.2,0.1c0.1-0.1,0.3-0.3,0-0.1
		c0,0,0.1,0,0.1-0.1c0,0,0.1-0.2,0-0.2c-0.3,0.2,0.1-0.2-0.2,0.1l0.1-0.1c-0.1,0.1-0.3,0.2-0.4,0.2c0.2-0.2,0.2-0.1,0.4-0.3
		l-0.1,0.1l0.2-0.2c-0.5,0.4,0.2-0.3-0.2,0c0,0,0,0,0.1-0.1c0.1-0.1-0.2,0.1-0.2,0.1c0.1-0.1,0.2-0.1,0.2-0.2c0-0.1-0.3,0.1-0.1-0.1
		c-0.1,0.1-0.2,0.1-0.3,0.2c0,0,0.1-0.1,0.2-0.2c0.2-0.2-0.2,0,0-0.2c-0.2,0.1-0.2,0.2-0.3,0.2c0.1-0.1,0.3-0.3,0.3-0.2l0.1-0.1
		c0-0.1,0-0.1-0.3,0.1c0.2-0.2,0,0,0.1-0.1c0,0,0,0,0,0c-0.2,0.1,0,0,0,0l0,0l-0.2,0.1c0,0,0.1-0.1,0.1-0.1l-0.2,0.1
		c0,0,0.2-0.2,0.1-0.1l-0.1,0.1c0.1-0.1-0.1,0,0.1-0.1c0,0,0,0,0,0c0.2-0.2-0.1,0,0-0.1l-0.2,0.2c-0.1,0,0-0.1,0.1-0.1
		c0,0,0.1-0.1,0.1-0.1c-0.1,0-0.1,0.1-0.2,0.1l0-0.1l0.1-0.1c-0.4,0.3,0-0.1-0.4,0.1c0.1-0.1,0.1-0.1,0.2-0.1
		c0.1-0.2-0.3,0.1-0.1-0.1c0.1-0.2-0.1-0.1,0-0.3l-0.1,0.1v-0.1c-0.1,0.1-0.1,0-0.3,0.2c0-0.1,0.1-0.1,0.2-0.1c0,0-0.1,0.1-0.1,0
		l0.1-0.1c0-0.1-0.1-0.1-0.2,0c0,0,0.1-0.1,0.1-0.2c0,0-0.1,0-0.2,0.1c0,0,0-0.1,0.1-0.1l-0.1,0.1c0,0,0.1-0.1,0.1-0.2
		c-0.2,0.1-0.1-0.1-0.1-0.1l-0.1,0.1c-0.1,0.1,0-0.1,0.1-0.1c0-0.1-0.3,0.2-0.3,0.1c0.2-0.3-0.1,0,0.1-0.3c-0.1,0.1,0-0.1-0.2,0.1
		c0,0,0-0.1,0-0.1c0.1-0.1,0-0.1-0.1,0l0.1-0.1c-0.1,0.2-0.2,0.1-0.3,0.4c0-0.1,0.1-0.1,0.1-0.1c0.1-0.2-0.1,0.1-0.1,0
		c0-0.1,0.1-0.1,0.1-0.2c0-0.3-0.3,0.1-0.3-0.1c0,0-0.1,0.3-0.1,0.2c0-0.1,0.1-0.2,0.1-0.3c-0.1,0.1-0.1,0.1-0.1,0.1
		c0-0.1,0.1-0.1,0.1-0.2c0-0.1-0.1,0.2-0.1-0.1c0,0.1,0,0.1-0.1,0.2c-0.1,0.2,0-0.3-0.1-0.1c0,0,0,0,0,0.1c0,0,0-0.1,0-0.2
		c0,0.1-0.1,0.2-0.1,0.2l0-0.1c0,0-0.1,0.1-0.1,0.1l0,0.1c0-0.1-0.1,0.2,0-0.1l0,0v-0.1c0,0.1-0.1,0.2-0.1,0.2
		c0.1-0.3,0-0.1-0.1-0.1l0-0.1c0,0.1-0.1,0.1-0.1,0.1l0,0l0,0l0,0l-0.2,0.8l0,0l0,0l0,0c0,0,0,0,0,0c0,0,0.3-0.1,0.2-0.1
		c0.1,0,0.2,0,0.3,0c0,0,0.1,0,0.2,0c0.1,0,0.1,0,0.1,0h0.3c-0.4,0,0.1,0-0.3,0c0.1,0,0.2,0,0.2,0c-0.2,0-0.2,0-0.1-0.1h0
		c0,0-0.2-0.1-0.2-0.1h0.3c0,0-0.3,0-0.2,0c0.1,0,0.1,0,0.1,0c-0.1,0,0,0,0.1-0.1c-0.2,0-0.1-0.1-0.4-0.1c0.3,0,0.1,0,0.4,0
		c0.2,0,0-0.1-0.1-0.1c0.1,0,0.1,0,0.2,0c0,0-0.7-0.1-1-0.1c-0.2,0-0.3,0-0.5,0c0.1,0,0.3,0,0,0H52c0.1,0.1-0.4,0-0.4,0.1h0.1
		c0,0,0.1,0,0.1,0c-0.1,0-0.1,0-0.1,0l0.3,0.1c-0.1,0-0.2,0-0.3,0c0,0,0.4,0,0.3,0.1c-0.1,0-0.1,0-0.2,0c-0.2,0,0,0,0.1,0.1
		c-0.2,0-0.2,0-0.3,0c0.1,0,0.3,0,0.3,0c-0.2,0-0.1,0-0.1,0c0.1,0,0.2,0,0.2,0c0,0,0,0,0,0h0.2c0.2,0-0.1,0-0.2,0c0,0-0.1,0-0.1,0
		c-0.1,0-0.2,0-0.1,0.1h0c0.2,0.1,0.3,0,0.5,0.1c0,0-0.6,0-0.4,0c0.2,0,0.4,0,0.5,0.1l-0.4,0c0,0,0.1,0,0.1,0h0.1c0.3,0,0,0,0.1,0.1
		c-0.4,0-0.4,0-0.8,0c0.2,0,0.5,0,0.4,0.2c-0.1,0-0.2-0.1-0.3-0.1c0,0,0,0.1,0.1,0.2c0,0.1,0.1,0.1,0.2,0.2c0.1,0.1,0.2,0.2,0.3,0.2
		c0.2,0.1,0.2,0,0.2,0c0-0.1,0.1-0.3,0.2-0.4c-0.1,0.2-0.1,0.3-0.1,0.5l0,0l-0.1,0.3c0.1-0.3,0-0.1,0.1-0.4c0,0.1,0,0.1,0,0.1
		c0-0.1,0.1-0.3,0.1-0.3c0,0.1,0,0.1-0.1,0.2c0-0.1,0,0.1,0,0l0-0.1c0.1-0.2,0,0,0.1-0.1c0,0.1-0.1,0.2-0.1,0.3v0c0,0,0.1-0.1,0,0
		l-0.1,0.3l0.1-0.2c0,0,0,0.1-0.1,0.2c0,0.2,0.2-0.6,0.2-0.3c0,0.1-0.1,0.2-0.1,0.1c-0.1,0.2-0.1,0.3-0.1,0.3c0,0,0,0,0,0
		C52.3,165.1,52.3,165.2,52.4,165L52.4,165z"/>
	<path class="st0" d="M52.3,165.2C52.3,165.2,52.3,165.2,52.3,165.2C52.3,165.2,52.3,165.3,52.3,165.2z"/>
	<path class="st0" d="M54.1,166.2L54.1,166.2L54.1,166.2z"/>
	<path class="st0" d="M54.2,166.3C54.2,166.3,54.2,166.3,54.2,166.3C54.2,166.3,54.2,166.3,54.2,166.3z"/>
	<path class="st0" d="M53.2,165.5L53.2,165.5L53.2,165.5z"/>
	<path class="st0" d="M53.6,166c0.1-0.1,0.1-0.1,0.2-0.1C53.8,165.9,53.8,165.9,53.6,166z"/>
	<path class="st0" d="M53.6,165.7L53.6,165.7C53.5,165.8,53.5,165.8,53.6,165.7z"/>
	<path class="st0" d="M53.1,165.5c0.1-0.1,0.1-0.1,0.1-0.1C53.2,165.5,53.2,165.4,53.1,165.5z"/>
	<polygon class="st0" points="54.6,166.2 54.4,166.3 54.5,166.3 	"/>
	<path class="st0" d="M54.4,166.2c0,0-0.1,0-0.1,0.1C54.3,166.2,54.4,166.2,54.4,166.2z"/>
	<polygon class="st0" points="54.2,165.7 54.1,165.8 54.2,165.8 	"/>
</g>
</svg>
