<?xml version="1.0" encoding="utf-8"?>
<!-- Generator: Adobe Illustrator 28.1.0, SVG Export Plug-In . SVG Version: 6.00 Build 0)  -->
<svg version="1.1" id="a" xmlns="http://www.w3.org/2000/svg" xmlns:xlink="http://www.w3.org/1999/xlink" x="0px" y="0px"
	 viewBox="0 0 646 792" style="enable-background:new 0 0 646 792;" xml:space="preserve">
<style type="text/css">
	.st0{fill:#5F5F5F;}
</style>
<g>
	<path class="st0" d="M82.4,226.8l0,0.1c0.1,0,0.2-0.1,0.3-0.1L82.4,226.8L82.4,226.8z"/>
	<path class="st0" d="M84.9,227.4c0.3-0.1,0.8-0.1,0.8-0.4c-0.2,0.1-0.3,0.1-0.5,0.2c0-0.2-0.3-0.3-0.5-0.3l0.3,0
		c-0.1,0-0.1,0.2-0.1,0.2c-0.4-0.2-0.5,0.1-0.9-0.2l0,0l-0.3,0.1c-0.1,0-0.1-0.1,0-0.2c-0.3,0.1-0.5,0.2-0.9,0.1
		c0.3,0.4,0.9-0.2,1.1,0.2l0,0C84.2,227.1,84.5,227.4,84.9,227.4z"/>
	<path class="st0" d="M83.7,226.8L83.7,226.8C83.7,226.8,83.7,226.8,83.7,226.8z"/>
	<path class="st0" d="M94.2,217.7L94.2,217.7C94.1,217.6,94.2,217.7,94.2,217.7z"/>
	<path class="st0" d="M91.5,221.5L91.5,221.5C91.4,221.4,91.5,221.4,91.5,221.5z"/>
	<path class="st0" d="M91.9,193.2L91.9,193.2C91.9,193.1,91.9,193.2,91.9,193.2z"/>
	<path class="st0" d="M90.5,187.2L90.5,187.2L90.5,187.2z"/>
	<path class="st0" d="M90.2,190.1L90.2,190.1C90.1,190.2,90.2,190.2,90.2,190.1z"/>
	<path class="st0" d="M89.3,188.3c0-0.1,0-0.1,0-0.2C89.2,188.2,89.2,188.2,89.3,188.3z"/>
	<path class="st0" d="M90.5,187.2C90.5,187.2,90.5,187.2,90.5,187.2C90.5,187.2,90.5,187.2,90.5,187.2z"/>
	<path class="st0" d="M90.6,192.8l-0.2,0.1C90.4,192.9,90.5,192.9,90.6,192.8z"/>
	<path class="st0" d="M89,187.8c0,0,0.1-0.1,0.1-0.1C89,187.7,89,187.7,89,187.8z"/>
	<path class="st0" d="M85.3,227.4c-0.1,0-0.1,0-0.2,0C85.2,227.5,85.3,227.5,85.3,227.4z"/>
	<path class="st0" d="M93.1,203.7C93.1,203.7,93.1,203.7,93.1,203.7C93.1,203.7,93.1,203.7,93.1,203.7z"/>
	<path class="st0" d="M91.4,197.6L91.4,197.6C91.3,197.6,91.3,197.6,91.4,197.6L91.4,197.6L91.4,197.6z"/>
	<path class="st0" d="M92.1,199.3C92.1,199.3,92.1,199.3,92.1,199.3C92.1,199.3,92.1,199.3,92.1,199.3z"/>
	<path class="st0" d="M90.6,196.2C90.6,196.2,90.6,196.2,90.6,196.2L90.6,196.2z"/>
	<path class="st0" d="M90.5,194.8c-0.1,0.1-0.2,0-0.2,0c0,0.4,0.2,0.5,0.1,0.9l0.1-0.2c0.2,0.2,0.3,0.6,0.2,0.9l-0.1-0.1
		c0.2,0.2,0,0.6,0.2,0.7c0.1-0.1,0.1-0.1,0.2-0.2l0.4,0.5l-0.3,0.1l0.2,0.2c0.1-0.1,0.1,0.4,0.3,0.3c0,0.2-0.2,0-0.4,0
		c0.1,0.1,0,0.2,0.2,0.2l-0.2,0.2l0.3,0.3c0,0,0,0-0.1,0c0.3,0.1,0,0.5,0.5,0.6c0,0,0,0,0,0c0.2,0.1,0.2,0.4,0.2,0.6
		c0.1,0.2,0.3,0,0.4,0c0.1,0.6,0.1,0.4,0.5,0.9c-0.2,0.4-0.6-0.2-0.7,0.2c0.2,0,0.4,0.2,0.5,0.5c0,0.3,0,0.8-0.2,1.1l0.2-0.1
		l0.2,0.4l-0.3-0.2c0.1,0.1,0.2,0.2,0.4,0.3c0.3,0.4-0.4,0.3,0,0.6c0,0,0,0-0.1,0c0.2,0.1,0.2,0.4,0.3,0.7l-0.3-0.1l0-0.2
		c-0.2,0.1,0.1,0.3,0.1,0.5c0.1,0.2,0.3,0.1,0.4,0.2c0,0.1,0.1,0.2,0,0.2c-0.1,0.2-0.3,0.1-0.4,0c0.3,0.1,0.3,0.2,0.4,0.5
		c-0.1,0-0.2,0-0.2,0c0,0.1,0.1,0.1,0.2,0.1l-0.1,0.1c-0.2,0.4,0.6,0.3,0.5,0.9c-0.2-0.1,0.1,0.4-0.1,0.6c-0.1-0.2-0.4,0.1-0.5,0
		c-0.1,0.4,0.3,0.1,0.4,0.4l-0.3-0.1c0.2,0.3,0.2,0.1,0.3,0.4c-0.1-0.1-0.1,0.1-0.2,0c0,0.4,0,0.3,0,0.7H94c0,0.1-0.1,0.2-0.1,0.2
		c0-0.1,0-0.1,0-0.1c-0.3,0.2,0.2,0.2-0.1,0.4c0.1-0.1,0.2-0.1,0.3,0c-0.2,0-0.2,0.2-0.2,0.3c0.1-0.1,0.1,0.3,0.3,0.3
		c-0.1,0.2-0.2,0-0.3,0c0.3,0.1,0.1,0.6,0.2,0.7c0,0,0,0-0.1,0c0.2,0.2,0.2,0.5,0.5,0.8l-0.2-0.1c-0.1,0.4,0.4,0.2,0.4,0.5
		c-0.3-0.1,0,0.5-0.3,0.4c0.2,0.2,0.2,0.4,0.4,0.5c-0.2,0.2-0.3-0.3-0.4-0.1l0.1,0.3l-0.1,0c0.1,0,0.1,0.2,0.2,0.2
		c-0.2,0-0.3,0.1-0.4,0.1c0,0.2-0.1,0.4,0,0.5h-0.1c0.3,0.2,0,0.5,0.3,0.6l-0.2,0.1c0,0.2,0.3,0.3,0.4,0.4c0,0.1,0,0.2-0.1,0.3
		c-0.1-0.4-0.3,0.1-0.4,0.1c0,0.1-0.1,0.5,0,0.6c-0.1-0.2-0.3-0.2-0.2-0.4c-0.3,0-0.1,0.4-0.2,0.7l-0.1-0.1
		c-0.1,0.4,0.1,0.6,0.3,0.8c-0.2,0-0.2-0.1-0.3-0.3c-0.2,0.2-0.3,0.7-0.5,1c-0.2,0-0.2-0.1-0.2-0.2c0,0.4-0.4,0.7-0.2,1
		c-0.1-0.1-0.1,0.1-0.2,0.2c0.1,0,0.1,0.1,0.1,0.1c0,0.2,0,0.7-0.3,0.9l-0.1-0.1c-0.3,0.5,0.1,1-0.4,1.4c-0.1,0.1-0.2-0.2-0.3,0
		c0.1,0.1,0.3,0.2,0.1,0.5l-0.2-0.1l0.1,0.3c0.2,0,0.3-0.3,0.4,0c-0.3,0.1,0.1,0.3-0.3,0.5c0-0.1-0.1-0.2-0.2-0.3
		c-0.5,0.5-0.2,0.9-0.8,1.4c0,0.4-0.3,0.7-0.3,1c-0.2-0.1-0.3-0.3-0.4-0.5c-0.2,0.2,0.1,0.6-0.3,0.6c0.1,0.3-0.4,0.7-0.1,1.1
		c-0.1,0-0.2,0.2-0.2-0.1c-0.2,0.4-0.6,0.1-0.7,0.3c-0.1,0.1,0.3,0.1,0.1,0.3c0,0-0.1,0-0.1,0v0.1c-0.1,0-0.1-0.2-0.2-0.3
		c-0.3,0.2-0.2,0.6-0.4,0.8v-0.1l-0.3,0.3v0c0,0.1-0.1,0.2-0.1,0.3l-0.1-0.1c0,0.1,0,0.1-0.1,0.2l-0.1-0.1c0.1,0.2-0.3,0.6-0.5,0.6
		l-0.1,0c-0.1,0.1-0.3,0.3-0.5,0.4c-0.3-0.1,0.3-0.3-0.2-0.2l0.1-0.3c-0.3,0.1-0.4,0-0.6,0.1c0.1,0.1,0.3,0.1,0.1,0.2
		c-0.2-0.3-0.4,0-0.7,0.1c0.1,0,0.2,0,0.3-0.1c0.1,0,0,0.1,0.1,0.2l0.2-0.1l0.1,0.2c0.1,0,0.2-0.1,0.4-0.1c0,0.2,0.3,0,0.2,0.2
		c0.3-0.1,0.5,0,0.7-0.3c0.2,0.1-0.2,0.3,0,0.2c0.3-0.1,0.5-0.3,0.8-0.6c0.2-0.2,0.3-0.4,0.5-0.5c0.3-0.3,0.6-0.6,1-1v0.1
		c0-0.1,0-0.3,0-0.4c0.2,0,0.8-0.3,0.7-0.7c0,0,0,0.1,0.1,0.1c0.2-0.3,0.7-0.6,0.9-1c-0.2-0.4,0.6-0.4,0.2-0.9l0,0.1
		c-0.2,0.1-0.2-0.4-0.2-0.5c0.3,0.1,0.2,0.1,0.5,0.1l-0.2,0.1l0.2,0.1c-0.3-0.8,0.8-0.8,0.5-1.3c0,0,0.1,0,0.1,0.1
		c0.2-0.1,0-0.4,0-0.6c0.1,0,0.1,0.2,0.2,0.3c0.3-0.3,0.2-1.1,0.6-1.4c-0.1-0.2-0.2-0.1-0.3-0.2c0.1-0.1,0.3-0.1,0.3,0.1
		c0.4-0.2,0.3-1.2,0.8-1.6c0-0.4-0.2-0.2-0.1-0.7c0.1,0.1,0.4,0.1,0.3,0.3l0.1,0.1c0.2-0.4,0.5-0.9,0.3-1.3c0.3,0.1,0.1-0.1,0.3-0.2
		c0-0.1,0,0-0.1,0c-0.1-0.3,0.1-0.3,0.1-0.4l0,0.1l0-0.4c0-0.1,0.1-0.1,0.2-0.1l-0.2-0.1c0-0.2,0.3,0,0.3-0.3h-0.2
		c0.1-0.1,0-0.4,0.2-0.4c0,0,0,0,0,0.1c0.3-0.2,0-0.6,0.2-0.9l-0.3,0c0-0.3,0.1-0.2,0.2-0.1c0-0.2,0.1-0.2,0.2-0.5
		c-0.1-0.1-0.1-0.1-0.2-0.1l0.1-0.2l0.1,0.2c-0.4-0.4,0.1-1-0.3-1.2c0.1-0.1,0.2,0.1,0.2,0c0.2-0.5-0.3-1-0.1-1.4
		c0.2-0.6-0.1-1.3,0-2l-0.1,0l0-0.5c-0.2-0.1-0.2-0.4-0.4-0.6c0.1,0,0.2,0,0.2,0c-0.1-0.2-0.2-0.4-0.1-0.5l0.1,0.1
		c0-0.4-0.1-1.1-0.2-1.3c0-0.1,0.1-0.2,0.2-0.2c0-0.3-0.1-0.4-0.3-0.6c0-0.1,0-0.1,0.1-0.2l-0.2-0.1c0-0.1,0.2-0.1,0.2-0.1
		c-0.3-0.4-0.2-0.9-0.2-1.1l-0.1,0.1c-0.1-0.1,0-0.4,0.1-0.2c0-0.6-0.5-0.8-0.6-1.5c0.3-0.2-0.3-0.6,0.1-0.9
		c-0.2-0.3-0.1-0.5-0.4-0.7c0,0,0-0.1,0.1,0c0.1-0.2-0.1-0.6-0.3-0.8l0.1-0.1c-0.3,0-0.4-0.6-0.7-0.6c0-0.1,0.1,0,0.2,0.1
		c0.2-0.2-0.2-0.2-0.2-0.5c0.1,0,0.1-0.1,0.2-0.1c0-0.8-0.9-1.5-0.9-2.4c0-0.2-0.2,0.2-0.3-0.1c0.1-0.1,0.3,0.1,0.3-0.1
		c-0.2-0.1-0.2-0.2-0.2-0.4c0.1,0,0.1,0,0.2,0.1c0.1-0.1-0.3-0.4-0.1-0.7c-0.1,0-0.1,0-0.2,0c-0.3-0.3,0.2-0.8,0-0.8
		c0,0,0-0.1-0.1,0c0-0.1,0-0.3,0.2-0.3c-0.1-0.1-0.2-0.1-0.2-0.2l0.2,0.1c0-0.1-0.1-0.1-0.2-0.2l-0.1,0.1c0.1-0.1-0.2-0.4,0.1-0.4
		v0.1l0.1-0.2c-0.1-0.1-0.2-0.2-0.2-0.5c0.3-0.1,0-0.6,0-0.8h0.1c-0.2-0.2-0.3-0.7-0.3-0.6c-0.1-0.2-0.1-0.5,0-0.4
		c-0.1-0.1-0.2-0.4-0.4-0.4l0.1-0.4c-0.4,0-0.1-0.6-0.5-0.4c0-0.2,0.1-0.2,0.1-0.3c-0.3-0.1-0.3-0.3-0.3-0.5l0,0
		c0-0.2-0.3-0.4-0.4-0.7l0.3-0.1c-0.1-0.1-0.3-0.1-0.3-0.3c0,0,0.1,0,0.1,0c-0.1-0.1,0-0.3,0-0.4c-0.2-0.2-0.2-0.4-0.4-0.6
		c0.3-0.2,0.1,0.3,0.4,0.1c0.1-0.3,0-0.6-0.1-1c0.1,0,0.1,0,0.2,0c0,0-0.2-0.2-0.4-0.4c-0.2-0.2-0.4-0.4-0.6-0.4
		c-0.2-0.1-0.3-0.3-0.5,0c0.1,0.1,0.2,0.5,0,0.5l0.2,0c0.1,0.5-0.4,0-0.5,0.6l0.1-0.1c0,0.1,0.1,0.2,0.1,0.3c-0.1,0-0.1,0-0.1-0.1
		c0.1,0.2,0.2,0.3,0.3,0.5c-0.1,0-0.2,0-0.3-0.1c0,0.4,0.4-0.1,0.3,0.4c-0.1,0.1-0.1,0-0.2-0.1c-0.2,0.3,0,0.4,0.2,0.6
		c-0.2,0-0.2-0.1-0.3,0.1c0.1-0.1,0.3-0.1,0.3,0.1c-0.2-0.1-0.1,0.1-0.1,0.3c0.1,0,0.2-0.1,0.2,0c0,0.1,0,0.1,0,0.2l0.2-0.2
		c0.2,0.2,0,0.4,0,0.6c0,0-0.1,0-0.1-0.1c0,0.2-0.1,0.5,0.1,0.7h0c0.4,0.4,0.2-0.3,0.6,0.2c0,0.2-0.6,0.2-0.2,0.5
		c0.1-0.3,0.5,0.1,0.7,0.3l-0.4-0.1c0,0.1,0.2,0.2,0.2,0.3l0.1-0.1c0.3-0.1,0.1,0.3,0.3,0.4c-0.5,0-0.4-0.1-0.8,0.1
		c0.3,0.1,0.6,0.1,0.6,0.4l-0.4-0.1c0.1,0.4,0.6,0.6,1,0.9c-0.3-0.1-0.3,0.1-0.5,0c0,0.1,0.1,0.2,0.1,0.3l-0.3-0.1
		c0.3,0.1,0.1,0.3,0.5,0.2c0,0-0.1,0-0.1-0.1c0.1,0,0.3,0.1,0.3,0.2c-0.1,0.1-0.1-0.1-0.2,0c0.1,0.1-0.1,0.1,0,0.3l0.2-0.1
		c0.2,0.1,0,0.2,0.1,0.4c-0.1-0.2-0.2-0.1-0.3-0.1h0c0,0.1,0.2,0.2,0,0.3l-0.3-0.1l0.2,0.2c0,0.1-0.1,0.1-0.2,0
		c-0.2,0.5,0.6,0,0.4,0.6c-0.1,0-0.2-0.1-0.1-0.2c-0.2,0-0.3,0-0.3,0.2c0,0,0,0,0,0C90.4,194.1,90.4,194.5,90.5,194.8L90.5,194.8z"
		/>
	<path class="st0" d="M90.3,193.8c0-0.2,0-0.3,0-0.4C90.1,193.4,90.1,193.8,90.3,193.8z"/>
	<path class="st0" d="M92.7,217.3C92.7,217.3,92.7,217.2,92.7,217.3L92.7,217.3z"/>
	<path class="st0" d="M92.3,218.5C92.3,218.5,92.3,218.5,92.3,218.5C92.3,218.4,92.2,218.4,92.3,218.5z"/>
	<path class="st0" d="M93.5,205.6L93.5,205.6L93.5,205.6z"/>
	<path class="st0" d="M93.9,212.9c0.1,0.1,0.2,0.2,0.2,0.2C94.1,213,94.1,212.9,93.9,212.9z"/>
	<path class="st0" d="M94,210.5C94,210.5,94,210.4,94,210.5C94,210.5,94,210.5,94,210.5z"/>
	<path class="st0" d="M93.3,205.2c0.1,0.1,0.1,0.2,0.2,0.4C93.4,205.5,93.4,205.3,93.3,205.2z"/>
	<polygon class="st0" points="91.9,220.1 91.8,219.9 91.8,220.1 	"/>
	<path class="st0" d="M92.3,218.9c0.1,0,0.1-0.3,0-0.2C92.3,218.8,92.3,218.8,92.3,218.9z"/>
	<polygon class="st0" points="94.3,214.7 94.1,214.6 94.2,214.7 	"/>
</g>
<g>
	<path class="st0" d="M53.8,162.7c0,0.1,0,0.1-0.1,0.2c0.2,0.1,0.4,0.2,0.6,0.2C54.2,163.1,53.9,162.9,53.8,162.7L53.8,162.7z"/>
	<path class="st0" d="M56.4,163.8c0.3-0.1,0.7-0.1,0.8-0.4l-0.4,0.2c0-0.2-0.3-0.3-0.5-0.3l0.3,0.1c-0.1,0-0.1,0.2-0.1,0.2
		c-0.4-0.2-0.6,0-0.8-0.3l0,0l-0.3,0c-0.1-0.1,0-0.1,0-0.2c-0.1,0-0.2,0-0.3,0c0,0-0.1,0-0.1,0c0,0,0,0-0.3,0
		c0.1,0.1,0.1,0.1,0.2,0.1c0,0,0,0,0.1,0c0,0,0.1,0,0.1-0.1c0.1,0,0.4,0,0.5,0.2h0C55.7,163.4,56,163.8,56.4,163.8L56.4,163.8z"/>
	<path class="st0" d="M55.2,163.1L55.2,163.1C55.2,163.1,55.2,163.1,55.2,163.1z"/>
	<path class="st0" d="M69.2,164.9L69.2,164.9C69.2,164.9,69.2,164.9,69.2,164.9z"/>
	<path class="st0" d="M64.9,163.9L64.9,163.9C65,163.9,65,163.9,64.9,163.9z"/>
	<path class="st0" d="M87.3,176.3l-0.1,0.1C87.3,176.4,87.3,176.4,87.3,176.3z"/>
	<path class="st0" d="M89.1,181.6L89.1,181.6L89.1,181.6z"/>
	<path class="st0" d="M89.6,178.7L89.6,178.7C89.7,178.7,89.6,178.7,89.6,178.7z"/>
	<path class="st0" d="M90.3,180.4c0,0.1,0,0.1,0,0.2C90.3,180.6,90.3,180.5,90.3,180.4z"/>
	<path class="st0" d="M89.1,181.5C89.1,181.5,89.1,181.6,89.1,181.5C89.1,181.5,89.1,181.5,89.1,181.5z"/>
	<path class="st0" d="M88.7,176l0.2-0.2C88.8,175.9,88.7,175.9,88.7,176z"/>
	<path class="st0" d="M90.6,180.9c0,0-0.1,0.1-0.1,0.1C90.6,180.9,90.6,180.9,90.6,180.9z"/>
	<path class="st0" d="M56.8,163.9c-0.1,0-0.1,0-0.2,0C56.7,163.9,56.7,163.9,56.8,163.9z"/>
	<path class="st0" d="M81.8,167.9C81.8,167.9,81.8,167.8,81.8,167.9C81.8,167.8,81.8,167.8,81.8,167.9z"/>
	<path class="st0" d="M86.3,172.2L86.3,172.2C86.4,172.2,86.4,172.2,86.3,172.2L86.3,172.2z"/>
	<path class="st0" d="M85.1,170.8C85.1,170.8,85.1,170.8,85.1,170.8C85.1,170.8,85.1,170.8,85.1,170.8z"/>
	<path class="st0" d="M87.4,173.1c0,0,0.1,0,0.1,0L87.4,173.1L87.4,173.1z"/>
	<path class="st0" d="M87.9,174.4c0-0.1,0.1-0.1,0.2-0.1c-0.1-0.3-0.4-0.3-0.4-0.7v0.2c-0.2-0.1-0.5-0.4-0.5-0.7h0.1
		c-0.3-0.1-0.2-0.5-0.4-0.5c0,0.1-0.1,0.1-0.1,0.2l-0.5-0.3l0.2-0.2l-0.2-0.2c0,0.1-0.2-0.4-0.4-0.2c0-0.2,0.2-0.1,0.3-0.1
		c-0.2-0.1-0.1-0.2-0.3-0.2l0.1-0.3l-0.4-0.2c0,0,0,0,0.1,0c-0.3,0-0.2-0.4-0.7-0.4c0,0,0,0,0,0c-0.2,0-0.4-0.3-0.4-0.4
		c-0.2-0.1-0.2,0.1-0.3,0.2c-0.4-0.5-0.3-0.3-0.8-0.4c0-0.4,0.6-0.1,0.5-0.6c-0.1,0.1-0.4,0-0.7-0.2c-0.1-0.3-0.5-0.6-0.5-1
		l-0.1,0.2l-0.4-0.2l0.4-0.1c-0.1,0-0.3,0-0.5,0c-0.4-0.1,0.1-0.5-0.3-0.4c0,0,0-0.1,0-0.1c-0.2,0.1-0.4-0.1-0.6-0.3l0.2-0.1
		l0.1,0.2c0.1-0.3-0.3-0.2-0.4-0.3c-0.2-0.1-0.3,0.2-0.4,0.2c0-0.1-0.2-0.1-0.2-0.1c-0.1-0.2,0.2-0.3,0.3-0.3
		c-0.3,0.1-0.3,0.1-0.7,0c0.1-0.1,0.1-0.1,0.2-0.1c-0.1,0-0.2,0-0.3,0.1v-0.2c-0.2-0.4-0.6,0.2-0.9-0.1c0.2-0.1-0.3-0.2-0.4-0.4
		c0.2,0.1,0.1-0.4,0.3-0.5c-0.3-0.3-0.3,0.2-0.6,0.1l0.3-0.2c-0.3,0-0.1,0.1-0.5,0.1c0.1-0.1-0.1-0.1,0.1-0.1
		c-0.4-0.2-0.3-0.1-0.6-0.3l-0.2,0.3c-0.1,0-0.1-0.2-0.1-0.2c0,0,0.1,0.1,0.1,0c0-0.3-0.3,0.1-0.3-0.2c0,0.1,0,0.3-0.2,0.2
		c0.1-0.2-0.2-0.2-0.1-0.3c0,0.2-0.3-0.1-0.4,0.1c-0.1-0.2,0.1-0.1,0.1-0.2c-0.2,0.2-0.6-0.1-0.7-0.1c0,0,0,0,0-0.1
		c-0.2,0.1-0.5,0.1-0.9,0.2l0.2-0.1c-0.3-0.2-0.3,0.3-0.6,0.2c0.1-0.2-0.5-0.1-0.3-0.4c-0.2,0.1-0.4,0.1-0.6,0.3
		c-0.1-0.2,0.4-0.3,0.2-0.4l-0.3,0.1v-0.1c0,0.1-0.2,0.1-0.3,0.1c0-0.2-0.1-0.3,0-0.4c-0.2,0-0.3-0.2-0.5-0.1V164
		c-0.2,0.3-0.5-0.1-0.6,0.2l-0.1-0.2c-0.2,0-0.3,0.3-0.4,0.4c-0.1,0-0.2,0-0.3,0c0.3-0.2-0.1-0.3-0.2-0.4c-0.1,0-0.5,0-0.6,0.1
		c0.2-0.1,0.1-0.3,0.3-0.3c-0.1-0.3-0.4,0-0.7,0v-0.1c-0.4,0.1-0.4,0.3-0.6,0.6c-0.1-0.2,0-0.2,0.1-0.4c-0.3-0.1-0.7,0-1,0
		c-0.1-0.1,0-0.2,0.1-0.3c-0.3,0.1-0.7,0-0.9,0.3c0.1-0.1-0.1-0.1-0.2-0.1c0,0.1,0,0.2,0,0.1c-0.2,0.1-0.6,0.3-0.9,0.1l0.1-0.1
		c-0.5-0.1-0.8,0.5-1.3,0.2c-0.1-0.1,0.1-0.2-0.1-0.3c-0.1,0.1-0.1,0.4-0.4,0.2l0.1-0.2l-0.2,0.2c0.1,0.2,0.4,0.2,0.1,0.3
		c-0.2-0.2-0.3,0.1-0.5-0.1c0.1,0,0.2-0.1,0.3-0.2c-0.6-0.4-0.9,0-1.5-0.3c-0.3,0.1-0.7,0.1-1,0.3c0-0.2,0-0.4,0.2-0.6
		c-0.3-0.1-0.4,0.4-0.6,0.1c-0.1,0.3-0.7,0.2-0.8,0.6c0-0.1-0.3,0,0-0.2c-0.4,0.1-0.5-0.4-0.6-0.4c-0.1,0,0.1,0.3-0.1,0.3
		c0,0,0-0.1-0.1-0.1l-0.1,0.1c-0.1-0.1,0.1-0.2,0.1-0.3c-0.3-0.1-0.5,0.2-0.8,0.2l0.1-0.1l-0.4,0l0,0l-0.3,0.1v-0.1
		c0,0-0.1,0.1-0.2,0.1l0-0.1c-0.1,0.2-0.5,0.3-0.6,0.3l0-0.1l-0.4,0.2c-0.2-0.2,0.3-0.3-0.1-0.2l0.1-0.2c-0.3,0.1-0.3-0.1-0.5,0
		c0.1,0.1,0.2,0.1,0.1,0.2c-0.2-0.3-0.4,0-0.7,0.1c0.1,0,0.2,0,0.3-0.1c0.1,0,0,0.1,0.1,0.2l0.2-0.1l0,0.2l0.3-0.1
		c0,0.2,0.3,0.1,0.1,0.3c0.2-0.1,0.3,0.1,0.5-0.1c0.1,0.1-0.2,0.1-0.1,0.2c0.9-0.1,1.7-0.1,2.5,0l-0.1,0.1c0.1-0.1,0.2-0.2,0.3-0.2
		c0.1,0.2,0.7,0.4,0.9,0.1c0,0,0,0.1,0,0.1c0.3,0,0.8,0.2,1.1,0.2c0.2-0.3,0.5,0.3,0.7-0.2l-0.1,0.1c-0.1-0.1,0.2-0.3,0.3-0.4
		c0.1,0.3,0,0.2,0.1,0.5l-0.1-0.1v0.2c0.6-0.6,0.8,0.4,1.2,0.1c0,0,0,0.1-0.1,0.1c0.2,0.2,0.4-0.1,0.6-0.2c0,0.1-0.1,0.2-0.2,0.3
		c0.4,0.2,1.1-0.1,1.5,0.1c0.2-0.2-0.1-0.2,0.1-0.4c0.1,0.1,0.2,0.2,0.1,0.3c0.4,0.3,1.2-0.2,1.7,0.1c0.3-0.2,0.1-0.3,0.5-0.4
		c-0.1,0.1,0.1,0.4-0.2,0.4l0,0.1c0.4,0,1,0.1,1.2-0.3c0,0.3,0.1,0.1,0.2,0.2c0.1,0,0,0,0-0.1c0.2-0.2,0.2,0,0.3,0l0,0l0.3-0.1
		c0,0,0.1,0.1,0.1,0.2l0-0.2c0.2,0,0,0.2,0.2,0.2v-0.1c0.1,0.1,0.3,0,0.3,0.2c0,0,0,0-0.1,0c0.1,0.3,0.5,0,0.7,0.2l0-0.3
		c0.3,0,0.1,0.1,0.1,0.2c0.2,0.1,0.2,0.2,0.4,0.3c0.1,0,0.1-0.1,0.1-0.2l0.2,0.1l-0.2,0.1c0.5-0.3,0.8,0.3,1.2-0.1
		c0.1,0.1-0.2,0.1-0.1,0.2c0.3,0.3,1-0.1,1.2,0.3c0.4,0.4,1.1,0.4,1.6,0.7l0-0.1l0.3,0.2c0.2-0.1,0.4,0.1,0.6,0
		c0,0.1-0.1,0.2-0.1,0.2c0.2,0.1,0.4,0.1,0.4,0.2l-0.1,0c0.3,0.2,0.8,0.6,1,0.6c0.1,0.1,0,0.2,0,0.3c0.2,0.1,0.4,0.2,0.6,0.2
		c0,0.1,0,0.1,0.1,0.2l0.2-0.1c0.1,0.1-0.1,0.1-0.1,0.2c0.4,0,0.7,0.4,0.9,0.6l0-0.1c0.1,0,0.2,0.2,0.1,0.2c0.3,0.4,0.8,0.2,1.3,0.7
		c-0.2,0.3,0.5,0.3,0.3,0.7c0.3,0.1,0.3,0.4,0.6,0.3c0,0,0,0.1-0.1,0c0,0.2,0.3,0.4,0.6,0.5l-0.1,0.1c0.3-0.1,0.6,0.3,0.8,0.2
		c0,0.1-0.1,0-0.2,0c-0.1,0.3,0.3,0.1,0.4,0.3c-0.1,0-0.1,0.1-0.1,0.1c0.2,0.7,1.2,1,1.5,1.9c0.1,0.2,0.2-0.2,0.3,0
		c-0.1,0.1-0.3,0-0.2,0.2c0.2,0,0.2,0.1,0.3,0.2c-0.1,0-0.1,0.1-0.2,0c0,0.1,0.4,0.3,0.3,0.6c0.1-0.1,0.1-0.1,0.2,0
		c0.4,0.1,0.2,0.7,0.3,0.7c0,0,0.1,0.1,0.1,0c0,0.1,0.1,0.3,0,0.3c0.1,0,0.2,0,0.3,0.1l-0.2,0c0.1,0,0.2,0,0.2,0.1l0-0.1
		c-0.1,0.2,0.3,0.3,0.1,0.4l0,0v0.3c0.1,0,0.3,0.1,0.3,0.2c-0.2,0.2,0.1,0.4,0.2,0.6l-0.1,0c0.2,0.1,0.3,0.5,0.3,0.4
		c0,0.1,0.1,0.4-0.1,0.3c0.1,0.1,0.2,0.4,0.4,0.4l-0.2,0.3c0.4,0,0,0.6,0.4,0.4c0,0.2-0.1,0.2-0.2,0.3c0.2,0.1,0.3,0.4,0.3,0.6l0,0
		c0,0.2,0.3,0.4,0.4,0.7l-0.3,0.1c0.1,0.1,0.3,0.1,0.3,0.3c0,0.1-0.1,0-0.1,0c0.1,0.1,0.1,0.3,0,0.4c0.3,0.2,0.2,0.4,0.5,0.5
		c-0.2,0.2-0.2-0.2-0.4,0c-0.1,0.3,0.1,0.6,0.3,0.9c-0.1,0-0.1,0-0.2,0c0,0,0.2,0.1,0.4,0.3c0.2,0.1,0.5,0.3,0.7,0.2
		c0.2,0.1,0.3,0.2,0.5-0.2c-0.1-0.1-0.3-0.4-0.1-0.5h-0.2c-0.2-0.4,0.4-0.1,0.3-0.6l0,0.1c0-0.1-0.2-0.1-0.1-0.3
		c0.1,0,0.1,0,0.2,0.1l-0.4-0.4c0.1,0,0.2,0,0.3,0c-0.1-0.4-0.4,0.2-0.4-0.3c0.1-0.1,0.1,0,0.2,0.1c0.1-0.3-0.1-0.4-0.2-0.6
		c0.2-0.1,0.2,0.1,0.3-0.1c-0.1,0.1-0.2,0.1-0.3,0c0.2,0,0.1-0.1,0.1-0.3c-0.1,0.1-0.2,0.1-0.2,0c-0.1-0.1,0-0.1,0-0.2l-0.1,0.2
		c-0.2-0.2,0-0.4,0-0.6c0,0,0.1,0,0.1,0.1c0-0.2,0.1-0.4-0.1-0.6h0c-0.3-0.4-0.3,0.2-0.6-0.2c0-0.2,0.6-0.1,0.3-0.4
		c-0.1,0.2-0.5-0.1-0.6-0.3l0.4,0.1c0-0.1-0.2-0.2-0.2-0.3l-0.1,0c-0.3,0.1-0.1-0.3-0.3-0.4c0.5,0.1,0.4,0.1,0.8,0
		c-0.3-0.1-0.5-0.2-0.6-0.5l0.4,0.1c-0.1-0.4-0.7-0.7-1.1-0.9c0.3,0,0.3-0.2,0.5-0.1l-0.2-0.3h0.3c-0.3,0-0.2-0.3-0.5-0.1
		c0.1,0,0.1,0,0.1,0.1c-0.1,0-0.3,0.1-0.4-0.1c0-0.2,0.2,0,0.2-0.1c-0.2-0.1,0-0.2-0.1-0.2l-0.1,0.2c-0.2,0-0.1-0.2-0.2-0.3
		c0.2,0.1,0.2,0,0.3-0.1l0,0c0-0.1-0.2-0.1-0.2-0.2l0.3-0.1l-0.2,0c0-0.1,0.1-0.1,0.2-0.1c-0.1-0.5-0.5,0.3-0.6-0.3
		c0.1,0,0.2,0,0.2,0.1c0.2-0.1,0.2-0.1,0.2-0.3c0,0,0,0,0,0C88.4,174.8,88.2,174.4,87.9,174.4L87.9,174.4z"/>
	<path class="st0" d="M88.5,175.1c0.1,0.1,0.2,0.3,0.2,0.3C88.8,175.3,88.7,175,88.5,175.1z"/>
	<path class="st0" d="M69,163.4C69,163.4,69,163.4,69,163.4L69,163.4z"/>
	<path class="st0" d="M67.7,163.6C67.7,163.6,67.8,163.6,67.7,163.6C67.8,163.6,67.8,163.5,67.7,163.6z"/>
	<path class="st0" d="M80.2,166.8L80.2,166.8L80.2,166.8z"/>
	<path class="st0" d="M73.6,163.9c-0.1,0.1-0.2,0.1-0.2,0.2C73.5,164.1,73.6,164.1,73.6,163.9z"/>
	<path class="st0" d="M75.9,164.7C75.9,164.7,75.9,164.7,75.9,164.7C75.9,164.7,75.9,164.7,75.9,164.7z"/>
	<path class="st0" d="M80.6,166.9c-0.1,0-0.3-0.1-0.4-0.1C80.4,166.9,80.5,167.1,80.6,166.9z"/>
	<polygon class="st0" points="66.2,163.9 66.4,163.7 66.2,163.8 	"/>
	<path class="st0" d="M67.4,163.8c0,0,0.2-0.1,0.2-0.1C67.5,163.7,67.4,163.8,67.4,163.8z"/>
	<polygon class="st0" points="71.8,164.1 71.9,163.9 71.8,164 	"/>
</g>
<g>
	<polygon class="st0" points="44.3,193.4 44.4,193.4 44.3,193.3 	"/>
	<path class="st0" d="M44.5,192.3c-0.2-0.1-0.2-0.3-0.5-0.3l0.3,0.2c-0.2,0-0.2,0.1-0.1,0.2v-0.1c0,0,0.2,0,0.2,0.1
		c-0.1,0.2,0.2,0.2-0.1,0.4h0l0.1,0.1c0,0-0.1,0-0.2,0c0.1,0.1,0.2,0.2,0.2,0.4c0.4-0.1-0.3-0.4,0.1-0.5h0
		C44.3,192.7,44.6,192.5,44.5,192.3L44.5,192.3z"/>
	<path class="st0" d="M44.1,192.9L44.1,192.9C44.1,192.9,44.1,192.9,44.1,192.9z"/>
	<path class="st0" d="M45,186.4L45,186.4C44.9,186.4,45,186.4,45,186.4z"/>
	<path class="st0" d="M44.2,188.4L44.2,188.4C44.1,188.4,44.2,188.4,44.2,188.4z"/>
	<path class="st0" d="M46,176.2L46,176.2C46,176.2,46,176.2,46,176.2z"/>
	<path class="st0" d="M47.2,174L47.2,174L47.2,174z"/>
	<path class="st0" d="M45.5,174.4L45.5,174.4C45.4,174.4,45.5,174.4,45.5,174.4z"/>
	<path class="st0" d="M45.8,173.6C45.8,173.6,45.8,173.6,45.8,173.6C45.8,173.6,45.8,173.6,45.8,173.6z"/>
	<path class="st0" d="M47.2,174C47.2,174,47.2,174,47.2,174C47.2,174,47.2,174,47.2,174z"/>
	<path class="st0" d="M44.8,175.6l-0.2-0.1C44.7,175.6,44.7,175.6,44.8,175.6z"/>
	<path class="st0" d="M45.7,173.3C45.7,173.3,45.8,173.3,45.7,173.3C45.8,173.3,45.7,173.3,45.7,173.3z"/>
	<path class="st0" d="M44.5,192.1C44.5,192.1,44.5,192.2,44.5,192.1C44.5,192.2,44.5,192.2,44.5,192.1z"/>
	<path class="st0" d="M43.3,180.3C43.3,180.3,43.3,180.3,43.3,180.3C43.2,180.3,43.3,180.3,43.3,180.3z"/>
	<path class="st0" d="M44,177.5L44,177.5C44,177.5,44,177.5,44,177.5L44,177.5z"/>
	<path class="st0" d="M43.8,178.3L43.8,178.3C43.7,178.3,43.8,178.3,43.8,178.3z"/>
	<path class="st0" d="M44,176.8C44,176.8,43.9,176.8,44,176.8L44,176.8z"/>
	<path class="st0" d="M44.4,176.3c-0.1,0-0.1-0.1-0.2-0.1c-0.1,0.1,0.1,0.2-0.1,0.3l0.1,0c0.1,0.1,0.1,0.3-0.1,0.4l-0.1-0.1
		c0.1,0.1-0.2,0.2-0.1,0.3c0.1,0,0.1,0.1,0.2,0l0.1,0.3l-0.3-0.1l0.1,0.1c0.1,0-0.1,0.1,0.1,0.2c-0.1,0-0.2-0.1-0.3-0.1
		c0.1,0.1-0.1,0.1,0.1,0.2h-0.3l0.1,0.2c0,0,0,0-0.1,0c0.2,0.1-0.2,0.2,0.2,0.4c0,0,0,0,0,0c0.2,0.1,0,0.2-0.1,0.3
		c0,0.1,0.2,0.1,0.3,0.1c-0.1,0.3-0.1,0.2,0.2,0.5c-0.3,0.1-0.5-0.3-0.7-0.1c0.2,0.1,0.2,0.2,0.3,0.4c-0.1,0.1-0.2,0.3-0.5,0.4
		l0.2,0l0.1,0.2l-0.3-0.1c0.1,0,0.2,0.1,0.3,0.2c0.1,0.2-0.5,0-0.2,0.2h-0.1c0.2,0.1,0.1,0.2,0.1,0.3l-0.3-0.1l0.1-0.1
		c-0.3,0,0,0.2,0,0.2c0.1,0.1,0.3,0.1,0.4,0.1c0,0,0.1,0.1,0,0.1c-0.1,0.1-0.3,0-0.4-0.1c0.3,0.1,0.2,0.1,0.3,0.3
		c-0.1,0-0.2,0-0.2-0.1c0,0,0.1,0.1,0.2,0.1l-0.2,0c-0.2,0.2,0.5,0.2,0.4,0.4c-0.1-0.1,0,0.2-0.1,0.2c0-0.1-0.4,0-0.5-0.1
		c-0.1,0.2,0.3,0.1,0.4,0.2L43,182c0.1,0.1,0.2,0,0.3,0.2c-0.1,0-0.1,0.1-0.2,0c0,0.2,0,0.1-0.1,0.3l0.3,0c0,0.1-0.1,0.1-0.2,0.1
		c0,0,0-0.1,0-0.1c-0.3,0.1,0.2,0.1-0.1,0.2c0.1,0,0.2,0,0.3,0c-0.2,0-0.2,0.1-0.3,0.1c0.1,0,0.1,0.1,0.3,0.2c-0.1,0.1-0.2,0-0.3,0
		c0.2,0.1,0,0.3,0.2,0.3c0,0,0,0-0.1,0c0.2,0.1,0.2,0.2,0.4,0.4l-0.2-0.1c-0.1,0.2,0.4,0.1,0.4,0.2c-0.3,0,0,0.2-0.3,0.2
		c0.1,0.1,0.2,0.1,0.5,0.2c-0.1,0.1-0.4-0.1-0.4,0l0.1,0.1l-0.1,0c0.1,0,0.1,0.1,0.2,0.1c-0.2,0-0.3,0.1-0.4,0.1
		c0.1,0.1-0.1,0.2,0.1,0.2h-0.1c0.3,0.1,0.1,0.2,0.4,0.2l-0.2,0.1c0,0.1,0.4,0,0.5,0.1c0,0,0.1,0.1,0,0.1c-0.2-0.1-0.2,0.1-0.4,0.1
		c0,0.1,0,0.2,0.2,0.2c-0.2,0-0.3,0-0.3-0.1c-0.3,0.1,0.1,0.2,0.1,0.3l-0.1,0c0.1,0.2,0.4,0.1,0.6,0.2c-0.2,0.1-0.2,0-0.4,0
		c-0.1,0.1,0,0.3,0,0.5c-0.1,0.1-0.2,0-0.3,0c0.2,0.1,0,0.3,0.3,0.4c-0.1,0-0.1,0.1-0.1,0.1c0.1,0,0.2,0,0.1,0
		c0.1,0.1,0.3,0.3,0.2,0.4l-0.1,0c0,0.2,0.5,0.4,0.3,0.6c-0.1,0-0.3-0.1-0.3,0c0.1,0.1,0.4,0.1,0.3,0.2l-0.2,0l0.2,0.1
		c0.2,0,0.1-0.2,0.3-0.1c-0.2,0.1,0.2,0.1-0.1,0.2c0,0-0.2-0.1-0.3-0.1c-0.3,0.2,0.1,0.4-0.2,0.7c0.1,0.2,0.2,0.4,0.3,0.5
		c-0.2,0-0.4-0.1-0.6-0.1c0,0.1,0.4,0.2,0.1,0.3c0.3,0.1,0.1,0.4,0.6,0.4c-0.1,0,0,0.1-0.2,0c0.1,0.2-0.4,0.2-0.4,0.3
		c0,0,0.3,0,0.3,0.1c0,0-0.1,0-0.1,0l0.1,0c-0.1,0-0.2-0.1-0.3-0.1c-0.1,0.1,0.2,0.2,0.2,0.4l-0.1,0l0,0.2h0l0.1,0.1H44
		c0,0,0.1,0,0.1,0.1l-0.1,0c0.2,0.1,0.3,0.2,0.3,0.3h-0.1l0.3,0.2c-0.1,0.1-0.3-0.1-0.2,0.1l-0.3-0.1c0.1,0.1,0,0.2,0.1,0.2
		c0.1,0,0.1-0.1,0.2-0.1c-0.3,0.1,0.1,0.2,0.2,0.3c0-0.1,0-0.1-0.2-0.1c0-0.1,0.1,0,0.2-0.1l-0.1-0.1l0.2,0l-0.1-0.1
		c0.2,0,0-0.1,0.3-0.1c-0.1-0.1,0.1-0.1-0.2-0.2c0.1-0.1,0.2,0.1,0.2,0c-0.2-0.4-0.1-0.8,0-1.1l0.1,0c-0.1-0.1-0.2-0.1-0.2-0.1
		c0.2-0.1,0.4-0.3,0.1-0.4c0,0,0.1,0,0.1,0c0-0.1,0.2-0.3,0.2-0.5c-0.3-0.1,0.2-0.2-0.2-0.4l0.1,0.1c-0.1,0-0.3-0.1-0.4-0.2
		c0.3,0,0.2,0,0.5,0l-0.1,0.1l0.2,0c-0.6-0.3,0.4-0.4-0.1-0.7c0,0,0.1,0,0.1,0c0.1-0.1-0.2-0.2-0.2-0.3c0.1,0,0.2,0.1,0.3,0.1
		c0.1-0.2-0.2-0.5,0-0.7c-0.2-0.1-0.2,0-0.4,0c0-0.1,0.2-0.1,0.3,0c0.3-0.2-0.2-0.6,0-0.9c-0.2-0.1-0.3,0-0.4-0.2
		c0.1,0,0.4-0.1,0.4,0h0.1c0-0.2,0-0.5-0.4-0.6c0.3,0,0,0,0.2-0.1c0,0,0,0-0.1,0c-0.2,0,0-0.1,0-0.2h0l-0.2-0.1c0,0,0.1-0.1,0.2-0.1
		l-0.2,0c0-0.1,0.2-0.1,0.2-0.2l-0.1,0c0.1-0.1-0.1-0.1,0.1-0.2c0,0,0,0,0,0c0.3-0.1-0.1-0.2,0-0.4l-0.3,0.1
		c-0.1-0.1,0.1-0.1,0.2-0.1c0-0.1,0.1-0.1,0.1-0.2c-0.1,0-0.1,0-0.2,0l0.1-0.1l0.2,0.1c-0.5-0.1,0-0.4-0.4-0.4c0.1-0.1,0.2,0,0.2,0
		c0.2-0.2-0.3-0.4-0.1-0.6c0.2-0.2,0-0.5,0.2-0.8h-0.1l0.1-0.2c-0.2-0.1-0.1-0.2-0.3-0.3c0.1,0,0.2,0,0.2,0c0-0.1-0.1-0.2,0-0.2
		l0.1,0c0.1-0.2,0.1-0.4-0.1-0.5c0-0.1,0.1-0.1,0.2-0.1c0-0.1-0.1-0.2-0.2-0.3c0,0,0.1,0,0.2-0.1l-0.2-0.1c0,0,0.2,0,0.2,0
		c-0.2-0.2,0-0.4,0-0.5h-0.1c-0.1-0.1,0.1-0.1,0.2-0.1c0.1-0.2-0.3-0.4-0.2-0.7c0.4,0-0.1-0.3,0.4-0.3c-0.1-0.1,0.1-0.2-0.1-0.3
		c0,0,0.1,0,0.1,0c0.2,0,0.1-0.2,0-0.4l0.1,0c-0.2-0.1-0.1-0.3-0.4-0.4c0.1,0,0.1,0.1,0.1,0.1c0.3,0-0.1-0.1,0-0.2
		c0.1,0,0.1,0,0.2,0.1c0.4-0.2,0-0.8,0.3-1.1c0-0.1-0.3-0.1-0.2-0.2c0.1,0,0.2,0.1,0.3,0.1c-0.1-0.1-0.1-0.1-0.1-0.2
		c0.1,0,0.1,0.1,0.2,0.1c0.1,0-0.1-0.3,0.1-0.3c-0.1,0-0.1-0.1-0.2-0.1c-0.2-0.2,0.3-0.2,0.2-0.3c0,0,0-0.1-0.1,0
		c0-0.1,0.1-0.1,0.2,0c-0.1-0.1-0.1-0.1-0.1-0.2l0.1,0.1c0,0-0.1-0.1-0.1-0.1h-0.1c0.1,0-0.1-0.2,0.2-0.1v0l0.2-0.1
		c-0.1-0.1-0.2-0.2-0.1-0.2c0.3,0.1,0.1-0.1,0.2-0.2l0.1,0.1c-0.1-0.1,0-0.3,0-0.3c0-0.1,0.1-0.1,0.2-0.1c0-0.1,0-0.2-0.1-0.3h0.3
		c-0.3-0.2,0.2-0.1-0.1-0.3c0.1,0,0.2,0,0.2,0c-0.1-0.2-0.1-0.2,0-0.3l0,0c0.1-0.1,0-0.3,0-0.4l0.3,0.1c0-0.1-0.2-0.2-0.1-0.2
		c0,0,0.1,0,0.1,0.1c0-0.1,0.1-0.1,0.2-0.1c-0.1-0.2,0-0.2-0.2-0.4c0.3,0.1,0,0.2,0.3,0.2c0.2-0.1,0.2-0.2,0.1-0.5
		c0.1,0,0.1,0.1,0.1,0.1c0,0-0.5-0.7-0.7-0.8c-0.1-0.1-0.2-0.2-0.4-0.2c0.1,0.1,0.1,0.3-0.1,0.2l0.2,0.1c0,0.2-0.4-0.2-0.5,0h0.1
		c0,0,0.1,0.1,0,0.1c-0.1,0-0.1-0.1-0.1-0.1l0.1,0.3c-0.1-0.1-0.2-0.1-0.2-0.2c-0.1,0.2,0.3,0.2,0.2,0.3c-0.1,0-0.1-0.1-0.1-0.1
		c-0.2,0-0.1,0.1,0,0.3c-0.2-0.1-0.1-0.1-0.3-0.1c0.1,0,0.2,0.1,0.2,0.2c-0.1-0.1-0.1,0-0.2,0c0.1,0,0.1,0.1,0.2,0.1
		c0,0-0.1,0-0.1,0.1l0.2,0c0.1,0.2-0.2,0.1-0.3,0.1c0,0,0-0.1,0-0.1c-0.1,0-0.3,0.1-0.2,0.2l0,0c0.1,0.3,0.3,0.1,0.4,0.4
		c-0.1,0.1-0.5-0.3-0.4-0.1c0.2,0,0.3,0.3,0.3,0.4l-0.3-0.3c0,0,0,0.1,0,0.2l0.1,0c0.3,0.1-0.1,0.1,0,0.3c-0.3-0.3-0.3-0.2-0.6-0.4
		c0.2,0.2,0.3,0.3,0.2,0.4l-0.2-0.2c-0.1,0.1,0.2,0.5,0.4,0.8c-0.2-0.1-0.3-0.1-0.5-0.3l0,0.2l-0.2-0.1c0.2,0.2,0,0.2,0.3,0.3
		c0,0-0.1-0.1,0-0.1c0.1,0.1,0.3,0.2,0.2,0.2c-0.1,0-0.1-0.1-0.2-0.1c0.1,0.1-0.1,0,0,0.1h0.2c0.2,0.1,0,0.1,0,0.2
		c0-0.1-0.2-0.1-0.3-0.1h0c0,0.1,0.1,0.2,0,0.1l-0.2-0.1l0.2,0.1c0,0-0.1,0-0.2-0.1c-0.2,0.1,0.6,0.2,0.2,0.4
		c-0.1,0-0.2-0.1-0.1-0.1c-0.2-0.1-0.3-0.1-0.3-0.1c0,0,0,0,0,0C44.3,175.9,44.2,176.1,44.4,176.3L44.4,176.3z"/>
	<path class="st0" d="M44.3,175.8c0-0.1,0.1-0.1,0-0.2C44.3,175.7,44.2,175.8,44.3,175.8z"/>
	<path class="st0" d="M43.5,186.6L43.5,186.6L43.5,186.6z"/>
	<path class="st0" d="M43.7,187.2C43.7,187.2,43.7,187.1,43.7,187.2C43.7,187.1,43.6,187.1,43.7,187.2z"/>
	<path class="st0" d="M43.3,181.2L43.3,181.2L43.3,181.2z"/>
	<path class="st0" d="M43.1,184.6c0.1,0,0.2,0.1,0.2,0.1C43.3,184.6,43.3,184.6,43.1,184.6z"/>
	<path class="st0" d="M43.2,183.4C43.2,183.4,43.2,183.4,43.2,183.4C43.2,183.4,43.2,183.4,43.2,183.4z"/>
	<path class="st0" d="M43.2,181c0.1,0.1,0.1,0.1,0.1,0.2C43.2,181.1,43.3,181,43.2,181z"/>
	<polygon class="st0" points="44,187.8 43.9,187.8 44,187.8 	"/>
	<path class="st0" d="M43.9,187.3c0,0-0.1-0.1-0.1-0.1C43.8,187.2,43.9,187.3,43.9,187.3z"/>
	<polygon class="st0" points="43.8,185.3 43.7,185.3 43.8,185.3 	"/>
</g>
<g>
	<polygon class="st0" points="68,176.4 68,176.6 68.1,176.4 	"/>
	<path class="st0" d="M68.9,176.6c0.1-0.1,0.3-0.2,0.4-0.5c-0.1,0.1-0.2,0.1-0.2,0.2c0-0.2-0.1-0.2-0.2-0.2H69c0,0,0,0.2-0.1,0.2
		c-0.1-0.1-0.2,0.2-0.3-0.1v0l-0.1,0.1c0,0,0-0.1,0-0.2c-0.1,0.1-0.2,0.2-0.3,0.2c0.1,0.4,0.3-0.3,0.4,0.1v0
		C68.6,176.4,68.8,176.7,68.9,176.6L68.9,176.6z"/>
	<path class="st0" d="M68.4,176.2L68.4,176.2C68.4,176.2,68.4,176.2,68.4,176.2z"/>
	<path class="st0" d="M73.5,179.6L73.5,179.6C73.6,179.5,73.5,179.6,73.5,179.6z"/>
	<path class="st0" d="M72.3,177.8L72.3,177.8C72.4,177.8,72.4,177.8,72.3,177.8z"/>
	<path class="st0" d="M82.7,185.1v0.1C82.8,185.1,82.8,185,82.7,185.1z"/>
	<path class="st0" d="M85.3,185.8L85.3,185.8L85.3,185.8z"/>
	<path class="st0" d="M84.5,184.2L84.5,184.2C84.5,184.2,84.5,184.2,84.5,184.2z"/>
	<path class="st0" d="M85.3,184.3C85.3,184.3,85.4,184.3,85.3,184.3C85.4,184.3,85.4,184.3,85.3,184.3z"/>
	<path class="st0" d="M85.3,185.8C85.3,185.8,85.3,185.8,85.3,185.8C85.3,185.8,85.3,185.8,85.3,185.8z"/>
	<path class="st0" d="M83.3,183.8l0-0.2C83.4,183.7,83.3,183.8,83.3,183.8z"/>
	<path class="st0" d="M85.6,184.2C85.6,184.2,85.6,184.2,85.6,184.2C85.6,184.2,85.6,184.2,85.6,184.2z"/>
	<path class="st0" d="M69,176.6C69,176.6,69,176.6,69,176.6C69,176.7,69,176.6,69,176.6z"/>
	<path class="st0" d="M79.4,181.4C79.4,181.4,79.5,181.3,79.4,181.4C79.5,181.3,79.5,181.3,79.4,181.4z"/>
	<path class="st0" d="M81.8,182.9L81.8,182.9C81.8,182.9,81.8,182.9,81.8,182.9L81.8,182.9L81.8,182.9z"/>
	<path class="st0" d="M81.1,182.5L81.1,182.5C81.1,182.5,81.1,182.5,81.1,182.5z"/>
	<path class="st0" d="M82.4,183C82.4,183,82.4,182.9,82.4,183L82.4,183z"/>
	<path class="st0" d="M82.8,183.4c0-0.1,0.1-0.1,0.1-0.2c-0.1-0.1-0.2,0.1-0.3-0.1v0.1c-0.1,0.1-0.3,0.1-0.3-0.2l0.1-0.1
		c-0.2,0.1-0.1-0.2-0.2-0.1c0,0.1-0.1,0.1-0.1,0.2l-0.3,0l0.1-0.3l-0.2,0c0,0.1-0.1-0.2-0.2,0.1c0-0.1,0.1-0.2,0.2-0.3
		c-0.1,0,0-0.1-0.2,0l0.1-0.2l-0.2,0.1c0,0,0,0,0-0.1c-0.2,0.1-0.1-0.2-0.4,0c0,0,0,0,0,0c-0.2,0.1-0.2-0.1-0.2-0.1
		c-0.1,0-0.2,0.2-0.2,0.3c-0.2-0.2-0.1-0.1-0.5,0c0.1-0.3,0.4-0.3,0.4-0.6c-0.1,0.1-0.3,0.1-0.4,0.1c0-0.2-0.2-0.4-0.2-0.6l-0.1,0.2
		h-0.2l0.2-0.2c-0.1,0.1-0.2,0.1-0.3,0.2c-0.2,0.1,0.2-0.4-0.1-0.2l0-0.1c-0.1,0.1-0.2,0-0.3,0l0.2-0.2l0,0.1c0.1-0.2-0.1,0-0.2-0.1
		c-0.1,0-0.2,0.2-0.3,0.3c0,0-0.1,0-0.1-0.1c0-0.1,0.2-0.3,0.2-0.4c-0.2,0.2-0.2,0.1-0.4,0.2c0.1-0.1,0.1-0.2,0.1-0.2
		c0,0-0.1,0.1-0.2,0.1l0-0.2c0-0.3-0.4,0.3-0.5,0.1c0.1-0.1-0.2-0.1-0.1-0.2c0.1,0,0.2-0.4,0.3-0.5c-0.1-0.2-0.2,0.2-0.4,0.2
		l0.2-0.3c-0.2,0.1-0.1,0.1-0.3,0.1c0.1-0.1,0-0.1,0.1-0.2c-0.1-0.1-0.1-0.1-0.2-0.2l-0.2,0.3c-0.1,0,0-0.1,0-0.2c0,0,0,0,0.1,0
		c0.1-0.3-0.2,0.1-0.1-0.2c0,0.1-0.1,0.2-0.2,0.2c0.1-0.2,0-0.2,0.1-0.3c0,0.1-0.2,0-0.3,0.2c0-0.2,0.1-0.1,0.2-0.2
		c-0.2,0.2-0.2-0.1-0.4,0c0,0,0,0,0,0c-0.2,0.1-0.3,0.1-0.5,0.2l0.1-0.1c-0.1-0.1-0.3,0.3-0.4,0.2c0.2-0.2-0.2-0.1,0-0.3
		c-0.1,0.1-0.2,0.1-0.4,0.3c0-0.2,0.3-0.2,0.3-0.4l-0.2,0.1l0.1-0.1c-0.1,0.1-0.2,0-0.2,0.1c0.1-0.1,0.1-0.3,0.2-0.4
		c-0.1,0-0.1-0.2-0.2-0.1l0-0.1c-0.2,0.2-0.2-0.1-0.4,0.2l0.1-0.2c-0.1,0-0.3,0.3-0.3,0.3c0,0-0.1,0-0.1-0.1
		c0.2-0.1,0.1-0.2,0.1-0.4c0,0-0.2-0.1-0.3,0c0.1-0.1,0.2-0.2,0.3-0.2c0.1-0.3-0.2,0-0.3-0.1l0.1-0.1c-0.2,0-0.3,0.2-0.6,0.4
		c0.1-0.2,0.1-0.2,0.3-0.3c0-0.2-0.3-0.2-0.4-0.2c0-0.1,0.1-0.2,0.2-0.2c-0.2,0-0.3-0.2-0.5,0c0.1-0.1,0-0.1,0-0.2
		c0,0.1-0.1,0.1-0.1,0.1c-0.2,0.1-0.4,0.1-0.4-0.1l0.1-0.1c-0.2-0.2-0.6,0.2-0.7-0.1c0-0.1,0.2-0.2,0.1-0.2
		c-0.1,0.1-0.2,0.3-0.3,0.2l0.1-0.2l-0.2,0.1c-0.1,0.2,0.1,0.2-0.1,0.3c0-0.2-0.2,0.1-0.2-0.1c0,0,0.2-0.1,0.2-0.2
		c-0.1-0.4-0.4,0-0.5-0.4c-0.2,0.1-0.4,0-0.6,0.1c0.1-0.2,0.2-0.3,0.4-0.4c-0.1-0.1-0.4,0.3-0.3,0c-0.2,0.2-0.4,0-0.6,0.3
		c0-0.1-0.1-0.1,0.1-0.2c-0.2,0,0-0.4-0.1-0.5c0,0-0.1,0.2-0.2,0.2c0,0,0-0.1,0-0.1l-0.1,0.1c0-0.1,0.1-0.1,0.2-0.2
		c-0.1-0.1-0.3,0.1-0.5,0l0.1-0.1l-0.1-0.1l0,0l-0.2,0.1l0-0.1c0,0-0.1,0.1-0.1,0.1l0.1-0.1c-0.1,0.2-0.3,0.2-0.4,0.2v-0.1
		c-0.1,0.1-0.2,0.1-0.2,0.2c0-0.2,0.2-0.2,0-0.2l0.1-0.2c-0.2,0.1-0.1-0.1-0.2,0c0,0.1,0.1,0.1,0,0.2c0-0.3-0.2,0-0.3,0.1
		c0,0,0.1,0,0.1-0.1c0,0,0,0.1,0,0.2l0.1-0.1l0,0.2l0.2-0.1c-0.1,0.2,0.1,0.1,0,0.3c0.1-0.1,0.1,0.1,0.2-0.1c0,0.1-0.1,0.1-0.1,0.1
		c0.4,0,0.6,0.2,0.9,0.4l-0.1,0.1c0.1-0.1,0.2-0.1,0.2-0.1c0,0.2,0.1,0.5,0.3,0.3c0,0,0,0.1-0.1,0.1c0.1,0,0.2,0.4,0.4,0.4
		c0.2-0.2,0.1,0.3,0.4,0l-0.1,0.1c0-0.1,0.2-0.2,0.3-0.3c-0.1,0.3-0.1,0.2-0.2,0.5v-0.1l-0.1,0.2c0.5-0.4,0.2,0.5,0.6,0.2
		c0,0,0,0.1-0.1,0.1c0,0.2,0.2-0.1,0.3-0.1c-0.1,0.1-0.1,0.1-0.2,0.2c0.1,0.2,0.5,0,0.6,0.3c0.1-0.1,0.1-0.2,0.2-0.3
		c0,0.1,0,0.2-0.1,0.2c0,0.4,0.6,0.1,0.6,0.5c0.2-0.1,0.2-0.2,0.4-0.2c-0.1,0.1-0.2,0.4-0.3,0.3l-0.1,0.1c0.2,0.1,0.3,0.3,0.6,0.1
		c-0.1,0.2,0,0.1,0,0.2c0,0,0,0,0-0.1c0.2-0.2,0.1,0.1,0.2,0.1l0,0l0.2-0.1c0,0,0,0.1,0,0.2l0.1-0.2c0.1,0-0.1,0.2,0,0.2l0.1-0.1
		c0,0.1,0.2,0,0.1,0.2c0,0,0,0,0,0c-0.1,0.3,0.3,0.1,0.3,0.2l0.1-0.3c0.2,0,0,0.1,0,0.2c0.1,0,0,0.1,0.1,0.2c0.1,0,0.1-0.1,0.1-0.1
		l0.1,0.1l-0.1,0.1c0.4-0.3,0.3,0.2,0.6,0c0,0.1-0.1,0.1-0.1,0.2c0.1,0.3,0.5,0,0.5,0.2c0.1,0.3,0.4,0.3,0.6,0.6l0-0.1l0.1,0.2
		c0.1-0.1,0.2,0,0.4-0.1c0,0.1-0.1,0.1-0.1,0.2c0.1,0,0.2,0,0.2,0.1l-0.1,0.1c0.1,0.1,0.3,0.3,0.5,0.2c0.1,0,0,0.1-0.1,0.2
		c0.1,0.1,0.2,0,0.3,0c0,0,0,0.1,0,0.2l0.1-0.1c0,0-0.1,0.1-0.1,0.2c0.3-0.1,0.3,0.2,0.4,0.2l0-0.1c0.1,0,0.1,0.1,0,0.2
		c0.1,0.2,0.5-0.1,0.7,0.1c-0.2,0.3,0.3,0.1,0.1,0.4c0.2,0,0.1,0.2,0.4,0c0,0,0,0.1,0,0.1c0,0.2,0.2,0.2,0.3,0.1l-0.1,0.1
		c0.2-0.2,0.3,0,0.5-0.2c0,0.1-0.1,0.1-0.1,0.1c-0.1,0.2,0.2,0,0.2,0.1c0,0.1-0.1,0.1-0.1,0.2c0.1,0.4,0.8,0.2,1,0.6
		c0.1,0.1,0.1-0.3,0.2-0.2c0,0.1-0.2,0.2-0.1,0.3c0.1-0.1,0.2-0.1,0.2,0c-0.1,0.1-0.1,0.1-0.2,0.2c0,0.1,0.3-0.1,0.3,0.2
		c0-0.1,0.1-0.1,0.1-0.1c0.2-0.1,0.2,0.4,0.3,0.2c0,0,0.1,0,0-0.1c0.1,0,0.1,0.1,0.1,0.2c0.1-0.1,0.1-0.1,0.2-0.1l-0.1,0.1
		c0,0,0.1-0.1,0.1-0.1v-0.1c0,0.1,0.2-0.1,0.2,0.2h0l0.1,0.2c0.1-0.1,0.2-0.2,0.2-0.1c-0.1,0.3,0.2,0.1,0.3,0.2l0,0.1
		c0.1-0.1,0.3,0,0.3-0.1c0.1,0,0.2,0.1,0.1,0.2c0.1-0.1,0.2,0,0.3-0.2l0.1,0.3c0.1-0.4,0.2,0.2,0.3-0.2c0,0.1,0,0.2,0,0.2
		c0.1-0.2,0.2-0.1,0.3-0.1v0c0.1,0.1,0.2-0.1,0.4-0.1l-0.1,0.3c0.1,0,0.2-0.2,0.2-0.2c0,0.1,0,0.1,0,0.1c0.1,0,0.1,0.1,0.2,0.1
		c0.1-0.2,0.2-0.1,0.4-0.3c0,0.3-0.1,0.1-0.2,0.3c0.1,0.2,0.2,0.1,0.4,0c0,0.1-0.1,0.1-0.1,0.2c0,0,0.1-0.1,0.3-0.3
		c0.2-0.2,0.3-0.4,0.4-0.5c0.1-0.2,0.2-0.2,0.2-0.5c-0.1,0.1-0.3,0.2-0.2-0.1l-0.1,0.2c-0.2,0,0.2-0.4-0.1-0.5l0,0.1
		c0,0-0.1,0.1-0.2,0c0-0.1,0.1-0.1,0.1-0.1l-0.3,0.2c0-0.1,0.1-0.2,0.1-0.3c-0.2-0.1-0.1,0.4-0.3,0.2c0-0.1,0.1-0.1,0.1-0.2
		c-0.1-0.2-0.2-0.1-0.3,0c0.1-0.2,0.1-0.1,0.1-0.3c0,0.1,0,0.3-0.1,0.3c0.1-0.2,0-0.1-0.1-0.2c0,0.1,0,0.1-0.1,0.2
		c0,0-0.1-0.1-0.1-0.1l0,0.2c-0.2,0.1-0.1-0.1-0.2-0.2c0,0,0-0.1,0.1-0.1c-0.1-0.1-0.1-0.3-0.3-0.1v0c-0.2,0.1,0,0.3-0.3,0.4
		c-0.1-0.1,0.2-0.6-0.1-0.4c0.1,0.2-0.2,0.4-0.3,0.4l0.2-0.3c0,0-0.1,0.1-0.2,0v0.1c-0.1,0.3-0.1-0.1-0.2,0.1
		c0.2-0.4,0.2-0.3,0.3-0.7c-0.1,0.2-0.2,0.4-0.4,0.3l0.2-0.3c-0.2-0.1-0.4,0.3-0.7,0.6c0.1-0.2,0-0.3,0.2-0.5h-0.2l0.1-0.2
		c-0.1,0.2-0.1,0.1-0.2,0.4c0,0,0-0.1,0.1-0.1c0,0.1-0.1,0.3-0.2,0.3c0-0.1,0.1-0.1,0.1-0.2c-0.1,0.1,0-0.1-0.1,0v0.2
		c-0.1,0.2-0.1,0-0.2,0.1c0.1-0.1,0.1-0.2,0.1-0.3v0c0,0-0.1,0.1-0.1,0l0.1-0.3l-0.1,0.2c0,0,0-0.1,0.1-0.2
		c-0.1-0.2-0.2,0.6-0.3,0.2c0-0.1,0.1-0.2,0.1-0.1c0.1-0.2,0.1-0.3,0.1-0.3c0,0,0,0,0,0c-0.1-0.1-0.2-0.1-0.4,0L82.8,183.4z"/>
	<path class="st0" d="M83.1,183.4c0.1,0,0.1,0,0.1,0C83.3,183.3,83.2,183.2,83.1,183.4z"/>
	<path class="st0" d="M74.2,178.3C74.2,178.3,74.3,178.3,74.2,178.3L74.2,178.3L74.2,178.3z"/>
	<path class="st0" d="M73.7,178.1C73.7,178.1,73.7,178.1,73.7,178.1C73.8,178.1,73.8,178,73.7,178.1z"/>
	<path class="st0" d="M78.7,181L78.7,181L78.7,181z"/>
	<path class="st0" d="M76.1,179.2c-0.1,0.1-0.2,0.1-0.2,0.2C75.9,179.4,76,179.4,76.1,179.2z"/>
	<path class="st0" d="M76.9,179.9L76.9,179.9C77,179.9,76.9,179.9,76.9,179.9z"/>
	<path class="st0" d="M78.9,180.9c-0.1,0.1-0.1,0-0.2,0C78.8,181,78.8,181.1,78.9,180.9z"/>
	<polygon class="st0" points="73,177.9 73.1,177.9 73,177.9 	"/>
	<path class="st0" d="M73.5,178.1c0,0,0.1,0,0.2-0.1C73.6,178.1,73.5,178.1,73.5,178.1z"/>
	<polygon class="st0" points="75.1,179.3 75.2,179.2 75.1,179.3 	"/>
</g>
<g>
	<polygon class="st0" points="53.8,193.8 54,193.8 53.8,193.6 	"/>
	<path class="st0" d="M54,192.4c-0.2-0.1-0.2-0.4-0.5-0.4l0.2,0.3c-0.2,0-0.2,0.2-0.2,0.3v-0.1c0,0,0.2,0,0.2,0.1
		c-0.1,0.2,0.2,0.3-0.1,0.5h0l0.1,0.2c0,0.1-0.1,0-0.2,0c0.1,0.2,0.2,0.3,0.2,0.5c0.4-0.1-0.3-0.5,0.1-0.6h0
		C53.9,192.8,54.1,192.6,54,192.4L54,192.4z"/>
	<path class="st0" d="M53.7,193.1L53.7,193.1C53.6,193.1,53.6,193.1,53.7,193.1z"/>
	<path class="st0" d="M56.3,185.1L56.3,185.1C56.2,185.1,56.3,185.1,56.3,185.1z"/>
	<path class="st0" d="M55,187.5L55,187.5C54.9,187.5,54.9,187.5,55,187.5z"/>
	<path class="st0" d="M63.3,177L63.3,177C63.4,177,63.4,177,63.3,177z"/>
	<path class="st0" d="M66.4,176.9L66.4,176.9L66.4,176.9z"/>
	<path class="st0" d="M65,175.5L65,175.5C65,175.4,64.9,175.5,65,175.5z"/>
	<path class="st0" d="M66.1,175.4c0,0,0.1,0,0.1,0.1C66.2,175.4,66.2,175.3,66.1,175.4z"/>
	<path class="st0" d="M66.3,176.9C66.3,176.9,66.3,176.8,66.3,176.9C66.4,176.8,66.3,176.8,66.3,176.9z"/>
	<path class="st0" d="M63.2,175.6l-0.1-0.2C63.1,175.5,63.2,175.6,63.2,175.6z"/>
	<path class="st0" d="M66.5,175.2C66.5,175.2,66.6,175.3,66.5,175.2C66.6,175.3,66.6,175.2,66.5,175.2z"/>
	<path class="st0" d="M54,192.2c0,0,0,0.1,0,0.1C54.1,192.2,54.1,192.2,54,192.2z"/>
	<path class="st0" d="M57.4,177.4C57.4,177.4,57.4,177.4,57.4,177.4C57.4,177.4,57.4,177.4,57.4,177.4z"/>
	<path class="st0" d="M60.6,176.4L60.6,176.4C60.6,176.4,60.6,176.4,60.6,176.4L60.6,176.4L60.6,176.4z"/>
	<path class="st0" d="M59.6,177C59.6,177,59.6,177,59.6,177C59.6,177,59.6,177,59.6,177z"/>
	<path class="st0" d="M61.3,175.9C61.3,175.9,61.3,175.8,61.3,175.9L61.3,175.9z"/>
	<path class="st0" d="M62.1,175.8c-0.1-0.1,0-0.1,0-0.2c-0.2,0-0.2,0.2-0.5,0.1l0.1,0.1c-0.1,0.2-0.3,0.3-0.5,0.2v-0.1
		c0,0.2-0.4,0-0.4,0.2c0.1,0.1,0.1,0.1,0.2,0.2l-0.2,0.3l-0.2-0.2l-0.1,0.2c0.1,0.1-0.2,0-0.1,0.3c-0.1-0.1-0.1-0.2-0.1-0.3
		c0,0.1-0.1,0-0.1,0.2l-0.2-0.2l-0.1,0.3c0,0,0,0,0-0.1c0,0.2-0.3,0-0.3,0.4c0,0,0,0,0,0c0,0.2-0.2,0.2-0.3,0.2
		c-0.1,0.1,0.1,0.2,0.2,0.3c-0.3,0.1-0.1,0.1-0.3,0.4c-0.1-0.1-0.1-0.3-0.1-0.4c0-0.1,0-0.2-0.1-0.3c0,0.1,0,0.1,0,0.2
		c0,0.1-0.1,0.1-0.2,0.1c-0.2-0.1-0.5-0.2-0.7-0.4l0,0.2l-0.2,0.1l0.1-0.3c0,0.1-0.2,0.2-0.2,0.3c-0.2,0.2-0.2-0.4-0.4-0.1l0-0.1
		c0,0.2-0.2,0.1-0.4,0.3v-0.3c0.1,0,0.1,0,0.2,0c-0.1-0.2-0.2,0.1-0.4,0.1c-0.1,0.1,0,0.3,0,0.4c-0.1,0-0.1,0.1-0.2,0.1
		c-0.1,0-0.1-0.3-0.1-0.4c0,0.3,0,0.3-0.2,0.5c-0.1-0.1-0.1-0.2-0.1-0.2c0,0.1,0,0.1,0,0.2l-0.2-0.1c-0.4,0.1,0.1,0.6-0.1,0.8
		c-0.1-0.1-0.1,0.2-0.3,0.3c0-0.1-0.4-0.1-0.5-0.2c-0.2,0.2,0.2,0.2,0.2,0.4l-0.3-0.2c0.1,0.2,0.1,0.1,0.2,0.3
		c-0.1-0.1-0.1,0.1-0.2-0.1c-0.1,0.2-0.1,0.2-0.2,0.4l0.3,0.1c0,0.1-0.1,0.1-0.2,0.1c0,0,0-0.1,0-0.1c-0.3,0,0.1,0.2-0.2,0.2
		c0.1,0,0.2,0,0.2,0.1c-0.2-0.1-0.2,0.1-0.3,0.1c0.1,0,0,0.2,0.2,0.3c-0.2,0.1-0.1-0.1-0.2-0.1c0.2,0.1,0,0.4,0.1,0.5c0,0,0,0,0,0
		c0.1,0.1,0.2,0.3,0.4,0.6l-0.2-0.1c-0.1,0.2,0.4,0.2,0.4,0.3c-0.3-0.1,0,0.3-0.3,0.2c0.1,0.1,0.2,0.2,0.5,0.3
		c-0.2,0.1-0.4-0.2-0.4-0.1l0.1,0.1l-0.1,0c0.1,0,0.1,0.1,0.2,0.1c-0.2,0-0.3,0.1-0.4,0.1c0.1,0.1-0.1,0.2,0.1,0.3l-0.1,0
		c0.3,0.1,0.1,0.3,0.4,0.3l-0.2,0.1c0,0.1,0.4,0.1,0.5,0.1c0,0.1,0.1,0.1,0,0.2c-0.2-0.2-0.2,0.1-0.4,0.1c0,0.1,0,0.3,0.2,0.3
		c-0.2-0.1-0.3,0-0.3-0.2c-0.3,0.1,0.1,0.2,0,0.4h-0.1c0.1,0.2,0.3,0.2,0.6,0.4c-0.2,0-0.2,0-0.4-0.1c-0.1,0.1,0,0.4-0.1,0.6
		c-0.1,0-0.2,0-0.3-0.1c0.1,0.2-0.1,0.4,0.2,0.6c-0.1-0.1-0.1,0.1-0.2,0.1c0.1,0,0.2,0,0.1,0.1c0.1,0.1,0.2,0.4,0,0.5l-0.1-0.1
		c-0.1,0.3,0.4,0.6,0.1,0.8c-0.1,0-0.2-0.1-0.3,0c0.1,0.1,0.3,0.1,0.2,0.3l-0.2-0.1l0.2,0.2c0.2,0,0.2-0.2,0.3,0
		c-0.2,0.1,0.1,0.2-0.1,0.3c0-0.1-0.2-0.1-0.2-0.2c-0.3,0.3,0.1,0.6-0.3,0.8c0.1,0.2,0,0.5,0.1,0.6c-0.2-0.1-0.4-0.1-0.5-0.3
		c-0.1,0.1,0.4,0.4,0,0.4c0.2,0.2,0,0.5,0.4,0.7c-0.1,0-0.1,0.2-0.2-0.1c0,0.2-0.4,0.1-0.5,0.2c0,0.1,0.3,0,0.2,0.2c0,0-0.1,0-0.1,0
		l0.1,0.1c-0.1,0-0.2-0.1-0.3-0.2c-0.1,0.1,0.1,0.4,0.1,0.6l0-0.1l-0.1,0.2l0,0l0.1,0.2l-0.1,0c0,0,0.1,0.1,0.1,0.1l-0.1-0.1
		c0.2,0.1,0.2,0.3,0.2,0.4h-0.1l0.2,0.3c-0.2,0.1-0.3-0.2-0.2,0l-0.2-0.1c0.1,0.2-0.1,0.2,0,0.3c0.1,0,0.1-0.1,0.2,0
		c-0.3,0.1,0,0.2,0.1,0.4c0-0.1,0-0.1-0.1-0.2c0-0.1,0.1,0,0.2,0l-0.1-0.1h0.2l-0.1-0.2c0.2,0.1,0.1-0.1,0.3,0
		c-0.1-0.1,0.1-0.1-0.1-0.3c0.1,0,0.1,0.1,0.2,0.1c-0.1-0.5,0.1-0.9,0.4-1.3l0.1,0.1c-0.1-0.1-0.1-0.2-0.2-0.2
		c0.2,0,0.5-0.2,0.3-0.5c0,0,0.1,0,0.1,0.1c0-0.2,0.4-0.4,0.4-0.6c-0.3-0.2,0.3-0.3-0.1-0.5l0.1,0.1c-0.2,0-0.3-0.2-0.4-0.3
		c0.3,0,0.2,0.1,0.5,0.1l-0.1,0.1l0.2,0.1c-0.5-0.5,0.5-0.5,0.1-0.8c0,0,0.1,0,0.1,0.1c0.2-0.1-0.1-0.3-0.2-0.4
		c0.1,0,0.2,0.1,0.3,0.2c0.2-0.2-0.1-0.7,0.2-0.9c-0.1-0.1-0.2,0-0.3-0.1c0.1-0.1,0.2-0.1,0.3,0c0.3-0.2-0.1-0.8,0.3-1.1
		c-0.2-0.2-0.3-0.1-0.4-0.4c0.1,0.1,0.4,0,0.4,0.1l0.1,0c0.1-0.3,0.1-0.7-0.2-0.8c0.3,0,0.1-0.1,0.2-0.2c0,0,0,0-0.1,0
		c-0.2-0.1,0-0.2,0-0.2l0.1,0l-0.2-0.2c0,0,0.1-0.1,0.2-0.1h-0.2c0-0.1,0.2-0.1,0.2-0.2l-0.1,0c0.1-0.1-0.1-0.2,0.1-0.2c0,0,0,0,0,0
		c0.3-0.1-0.1-0.4,0-0.5l-0.3,0.1c-0.1-0.1,0-0.1,0.2-0.1c0-0.1,0.1-0.1,0.1-0.2c-0.1-0.1-0.1,0-0.2,0l0.1-0.1l0.2,0.1
		c-0.5-0.2,0-0.5-0.4-0.6c0.1-0.1,0.2,0.1,0.2,0c0.2-0.2-0.3-0.5,0-0.7c0.2-0.3,0.1-0.6,0.3-0.9l-0.1,0l0.1-0.2
		c-0.2-0.1,0-0.2-0.2-0.4c0.1,0,0.2,0.1,0.2,0.1c0-0.1,0-0.2,0.1-0.2l0,0.1c0.1-0.1,0.2-0.2,0.1-0.4c0,0,0.1,0.1,0.2,0.1
		c0,0,0-0.1,0-0.3c0,0,0.1,0.1,0.1,0.1l0-0.2c0,0,0.1,0.1,0.1,0.2c0.1-0.3,0.3-0.1,0.4-0.1l0-0.1c0-0.1,0.2,0,0.1,0.1
		c0.3,0.1,0.3-0.4,0.8-0.3c0.1,0.4,0.4-0.1,0.4,0.3c0,0,0.1,0,0.2,0c0.2,0,0.5,0,0.6-0.3c0,0,0,0,0,0.1c0.1,0.1,0.2,0,0.4-0.1
		c0.1-0.1,0.2-0.2,0.2-0.3l0.1,0.1c-0.1-0.3,0.1-0.3,0-0.6c0,0,0,0.1,0,0.2c0.2,0.2,0.1-0.2,0.2-0.2c0,0.1,0.1,0.1,0.1,0.2
		c0.5,0.1,0.7-0.6,1.3-0.6c0.1,0-0.2-0.2,0-0.3c0.1,0.1,0,0.3,0.2,0.3c0-0.2,0-0.2,0.2-0.2c0,0.1,0.1,0.1,0,0.2
		c0.1,0.1,0.2-0.3,0.4-0.1c0-0.1,0-0.1,0-0.2c0.1-0.3,0.5,0.1,0.4,0c0,0,0-0.1,0-0.1c0.1,0,0.2,0,0.2,0.1c0-0.1,0-0.2,0.1-0.2v0.2
		c0,0,0-0.1,0.1-0.2l-0.1-0.1c0.1,0.1,0.2-0.2,0.2,0.1h0l0.2,0.1c0-0.1,0.1-0.3,0.2-0.2c0.1,0.3,0.2,0,0.4,0v0.1
		c0.1-0.2,0.3-0.1,0.3-0.2c0.1,0,0.2,0.1,0.2,0.1c0.1-0.1,0.2-0.1,0.2-0.3l0.2,0.2c0.1-0.4,0.3,0.1,0.3-0.3c0.1,0.1,0.1,0.1,0.1,0.2
		c0.1-0.2,0.2-0.2,0.3-0.1v0c0.1,0,0.1,0,0.2-0.1s0.1-0.1,0.2-0.1l0,0.3c0.1,0,0.2-0.2,0.2-0.2c0,0.1,0,0.1,0,0.1
		c0.1,0,0.2,0.1,0.3,0.2c0.2-0.2,0.4-0.1,0.6-0.4c0.3,0.2-0.3,0.2-0.1,0.4c0.2,0.1,0.5,0,0.7-0.2s0.3-0.4,0.4-0.7
		c0.1,0,0.1,0.1,0.1,0.1c0,0-0.1-0.3-0.2-0.5c-0.2-0.2-0.4-0.4-0.6-0.3c-0.2-0.1-0.3-0.2-0.5-0.1c0.1,0.1,0.2,0.2,0,0.2l0.2,0.1
		c0,0.1-0.1,0-0.2-0.1c0,0-0.1-0.1-0.1-0.1c0,0,0.1,0.1,0.1,0.1l0,0c0,0,0,0,0,0c0,0,0,0,0,0c0-0.1,0,0.1,0,0.1c0-0.1,0-0.2,0-0.3
		c-0.1,0,0.1,0.4-0.1,0.3c0-0.1,0-0.1,0-0.2c-0.1-0.2-0.1,0-0.3,0.1c0-0.2,0.1-0.1,0-0.3c0,0.1,0,0.3-0.1,0.3c0.1-0.2,0-0.1-0.1-0.2
		c0,0.1,0,0.2-0.1,0.2c0,0-0.1-0.1-0.1-0.1c0,0.1,0.1,0.1,0.1,0.2c-0.2,0.1-0.3-0.1-0.4-0.2c0,0,0-0.1,0.1-0.1
		c-0.1-0.1-0.2-0.2-0.4-0.1v0c-0.3,0.2,0.1,0.3-0.2,0.5c-0.1,0,0.1-0.6-0.2-0.4c0.1,0.2-0.2,0.4-0.3,0.5l0.1-0.4
		c-0.1,0-0.1,0.1-0.2,0.1v0.1c0,0.3-0.2,0-0.3,0.2c0.1-0.4,0.1-0.4,0.1-0.8c-0.1,0.2-0.2,0.5-0.4,0.4l0.1-0.3
		c-0.3-0.1-0.5,0.5-0.6,0.8c0-0.2-0.1-0.3,0-0.6l-0.2,0.1l0-0.3c0,0.3-0.2,0.1-0.1,0.5c0-0.1,0-0.1,0-0.1c0,0.1,0,0.3-0.1,0.3
		c-0.1-0.1,0-0.1,0-0.2c-0.1,0.2-0.1-0.1-0.2,0.1l0.1,0.1c0,0.2-0.1,0-0.2,0.1c0.1-0.1,0-0.2,0-0.3v0c0,0-0.1,0.2-0.2,0.1l0-0.3
		l0,0.2c0,0-0.1-0.1,0-0.2c-0.3-0.1,0.2,0.6-0.2,0.4c0-0.1,0-0.2,0.1-0.1c0-0.2-0.1-0.3-0.2-0.3c0,0,0,0,0,0
		C62.4,175.5,62.2,175.5,62.1,175.8L62.1,175.8z"/>
	<path class="st0" d="M62.6,175.4c0.1,0,0.2-0.1,0.2-0.1C62.8,175.3,62.5,175.3,62.6,175.4z"/>
	<path class="st0" d="M54.8,185.1L54.8,185.1L54.8,185.1z"/>
	<path class="st0" d="M54.8,185.8C54.8,185.8,54.8,185.8,54.8,185.8C54.8,185.7,54.8,185.7,54.8,185.8z"/>
	<path class="st0" d="M56.1,177.9L56.1,177.9L56.1,177.9z"/>
	<path class="st0" d="M54.6,182.5c0.1,0.1,0.2,0.1,0.2,0.1C54.8,182.5,54.7,182.5,54.6,182.5z"/>
	<path class="st0" d="M54.8,180.9L54.8,180.9C54.7,180.9,54.7,180.9,54.8,180.9z"/>
	<path class="st0" d="M56.3,177.7c0,0.1-0.2,0.2-0.2,0.3C56.2,177.9,56.4,177.9,56.3,177.7z"/>
	<polygon class="st0" points="54.9,186.7 54.8,186.6 54.9,186.7 	"/>
	<path class="st0" d="M55,186c0,0,0-0.2-0.1-0.1C54.9,185.9,54.9,186,55,186z"/>
	<polygon class="st0" points="55.3,183.4 55.1,183.4 55.2,183.5 	"/>
</g>
<g>
	<polygon class="st0" points="83.6,180.8 83.5,180.8 83.7,180.9 	"/>
	<path class="st0" d="M83.5,181.4c0.2,0,0.3,0.1,0.6,0.1l-0.3-0.1c0.2,0,0.2-0.1,0.1-0.1l0,0.1c0,0-0.2,0-0.2,0
		c0.1-0.1-0.2-0.1,0-0.2h0l-0.2-0.1c0,0,0.1,0,0.2,0c-0.1-0.1-0.2-0.1-0.2-0.2c-0.4,0.1,0.3,0.2-0.1,0.2h0
		C83.6,181.2,83.4,181.3,83.5,181.4z"/>
	<path class="st0" d="M83.8,181.1L83.8,181.1C83.8,181.1,83.8,181.1,83.8,181.1z"/>
	<path class="st0" d="M85.6,183.7L85.6,183.7C85.6,183.6,85.6,183.6,85.6,183.7z"/>
	<path class="st0" d="M85,182.6L85,182.6C85,182.6,85,182.6,85,182.6z"/>
	<path class="st0" d="M90.1,185.1v0.1C90.1,185.1,90.1,185.1,90.1,185.1z"/>
	<path class="st0" d="M91.4,185.2L91.4,185.2L91.4,185.2z"/>
	<path class="st0" d="M90.8,183.9L90.8,183.9C90.8,183.8,90.8,183.9,90.8,183.9z"/>
	<path class="st0" d="M91.2,183.8C91.2,183.8,91.2,183.8,91.2,183.8C91.2,183.7,91.2,183.7,91.2,183.8z"/>
	<path class="st0" d="M91.4,185.2C91.4,185.2,91.4,185.2,91.4,185.2C91.4,185.2,91.4,185.2,91.4,185.2z"/>
	<path class="st0" d="M90.3,183.7v-0.2C90.3,183.6,90.3,183.6,90.3,183.7z"/>
	<path class="st0" d="M91.2,183.6C91.2,183.6,91.2,183.6,91.2,183.6C91.2,183.6,91.2,183.6,91.2,183.6z"/>
	<path class="st0" d="M83.5,181.4C83.5,181.4,83.5,181.4,83.5,181.4C83.5,181.4,83.5,181.4,83.5,181.4z"/>
	<path class="st0" d="M88.5,183.1C88.5,183.1,88.6,183,88.5,183.1C88.6,183,88.5,183,88.5,183.1z"/>
	<path class="st0" d="M89.6,183.4L89.6,183.4C89.6,183.4,89.6,183.4,89.6,183.4L89.6,183.4z"/>
	<path class="st0" d="M89.3,183.4L89.3,183.4C89.3,183.3,89.3,183.4,89.3,183.4z"/>
	<path class="st0" d="M89.9,183.3C89.9,183.3,89.9,183.2,89.9,183.3L89.9,183.3z"/>
	<path class="st0" d="M90.1,183.5c0-0.1,0-0.1,0-0.2c0-0.1-0.1,0.1-0.1-0.1v0.1c-0.1,0.1-0.1,0.2-0.1,0l0-0.1
		c-0.1,0.2-0.1-0.2-0.1,0c0,0.1,0,0.1,0,0.2l-0.1,0.1l0.1-0.3l-0.1,0.1c0,0.1,0-0.1-0.1,0.2c0-0.1,0.1-0.2,0.1-0.3
		c-0.1,0.1,0-0.1-0.1,0.1l0-0.2l-0.1,0.2c0,0,0,0,0-0.1c-0.1,0.2,0-0.1-0.2,0.2c0,0,0,0,0,0c-0.1,0.2-0.1,0-0.1,0
		c0,0-0.1,0.2-0.1,0.3c-0.1-0.1-0.1-0.1-0.2,0.2c0.1-0.3,0.2-0.5,0.2-0.7c-0.1,0.1-0.2,0.2-0.2,0.3c0-0.1-0.1-0.2,0-0.4l-0.1,0.2
		l-0.1,0.1l0.1-0.3c0,0.1-0.1,0.2-0.2,0.3c-0.1,0.1,0.1-0.4-0.1-0.2l0-0.1c-0.1,0.1-0.1,0.1-0.2,0.1l0.1-0.2v0.1
		c0.1-0.2-0.1,0-0.1,0c-0.1,0.1-0.1,0.3-0.2,0.4c0,0-0.1,0.1,0,0c0-0.1,0.1-0.3,0.2-0.4c-0.1,0.2-0.1,0.2-0.2,0.3
		c0-0.1,0.1-0.2,0.1-0.2c0,0-0.1,0.1-0.1,0.2l0-0.1c0-0.2-0.3,0.4-0.3,0.3c0.1-0.1-0.1,0,0-0.2c0,0,0.1-0.4,0.2-0.5
		c0-0.1-0.1,0.3-0.2,0.3l0.2-0.3c-0.1,0.1-0.1,0.2-0.2,0.2c0-0.1,0-0.1,0.1-0.2c-0.1-0.1,0,0-0.1-0.1l-0.1,0.3c0,0,0-0.1,0-0.2
		c0,0,0,0,0,0c0.1-0.3-0.1,0.1,0-0.1c0,0.1-0.1,0.2-0.1,0.2c0.1-0.2,0-0.2,0.1-0.3c0,0.1-0.1,0-0.2,0.2c0-0.1,0.1-0.1,0.1-0.2
		c-0.1,0.2-0.1,0-0.2,0.1c0,0,0,0,0,0c-0.1,0.1-0.2,0.1-0.3,0.3l0.1-0.2c0-0.1-0.2,0.4-0.2,0.3c0.1-0.2-0.1,0,0-0.3
		c-0.1,0.1-0.2,0.2-0.2,0.4c0-0.1,0.2-0.3,0.2-0.4l-0.1,0.1l0-0.1c0,0.1-0.1,0.1-0.1,0.2c0.1-0.2,0.1-0.3,0.1-0.4
		c-0.1,0,0-0.1-0.1,0l0-0.1c-0.1,0.3-0.1,0-0.2,0.3l0-0.2c-0.1,0-0.2,0.3-0.2,0.4c0,0-0.1,0-0.1,0c0.1-0.2,0.1-0.2,0.1-0.4
		c0,0-0.1,0-0.2,0.1c0.1-0.1,0.1-0.3,0.2-0.3c0.1-0.3-0.1,0-0.1,0l0.1-0.1c-0.1,0.1-0.2,0.3-0.3,0.5c0-0.2,0.1-0.2,0.2-0.4
		c0-0.1-0.1,0-0.2-0.1c0-0.1,0.1-0.2,0.1-0.2c-0.1,0.1-0.1-0.1-0.3,0.2c0.1-0.1,0-0.1,0-0.2c0,0.1,0,0.1,0,0.1
		c-0.1,0.1-0.2,0.2-0.2,0.1l0-0.1c-0.1-0.1-0.3,0.5-0.3,0.2c0-0.1,0.1-0.3,0-0.3c-0.1,0.1-0.1,0.4-0.1,0.3l0.1-0.2l-0.1,0.2
		c0,0.2,0.1,0.1,0,0.3c0-0.2-0.1,0.2-0.1-0.1c0,0,0.1-0.2,0.1-0.2c0-0.3-0.2,0.1-0.3-0.2c-0.1,0.1-0.2,0.1-0.4,0.2
		c0.1-0.2,0.3-0.3,0.4-0.4c0,0-0.4,0.3-0.2,0c-0.2,0.2-0.2,0-0.6,0.2c0.1-0.1-0.1-0.1,0.2-0.1c-0.2,0,0.2-0.3,0.2-0.3
		c0,0-0.2,0.1-0.2,0.1c0,0,0.1,0,0.1-0.1l-0.1,0c0.1-0.1,0.2-0.1,0.3-0.1c0-0.1-0.2,0-0.3-0.1h0.1l0-0.1h0l-0.2,0l0.1,0
		c0,0-0.1,0-0.1,0l0.1,0c-0.2,0-0.3,0-0.3-0.1l0.1,0l-0.3,0c0.1-0.1,0.3,0,0.2-0.1l0.3,0c-0.1-0.1,0-0.1-0.1-0.1
		c-0.1,0-0.1,0.1-0.2,0.1c0.3-0.1-0.1-0.1-0.2-0.1c0,0,0,0.1,0.2,0.1c0,0-0.1,0-0.2,0.1l0.2,0l-0.2,0l0.2,0.1c-0.2,0,0,0.1-0.2,0.1
		c0.1,0-0.1,0.1,0.2,0.1c-0.1,0.1-0.2,0-0.2,0c0.2,0.2,0.2,0.4,0.3,0.7l-0.1,0c0.1,0,0.2,0,0.2-0.1c-0.1,0.1-0.2,0.4,0.1,0.3
		c0,0-0.1,0-0.1,0.1c0.1,0,0.1,0.3,0.2,0.4c0.2-0.3,0.1,0.3,0.3-0.1l-0.1,0.1c0-0.1,0.2-0.3,0.2-0.4c-0.1,0.3-0.1,0.2-0.2,0.5v-0.1
		l-0.1,0.2c0.2-0.3,0.2-0.2,0.3-0.1c0,0.1,0.1,0.2,0.2,0c0,0,0,0.1,0,0.1c0,0.1,0.1-0.2,0.2-0.2c0,0.1-0.1,0.2-0.1,0.3
		c0,0.1,0.2-0.2,0.2,0c0.1-0.2,0.1-0.2,0.1-0.3c0,0.1,0,0.2-0.1,0.3c0,0.3,0.3-0.1,0.3,0.2c0.1-0.2,0.1-0.2,0.2-0.4
		c-0.1,0.1-0.1,0.4-0.2,0.4l-0.1,0.1c0.1,0,0.2,0.1,0.3-0.2c-0.1,0.3,0,0.1,0,0.2c0,0,0,0,0-0.1c0.1-0.2,0,0,0.1,0l0,0l0.1-0.1
		c0,0,0,0.1,0,0.2l0.1-0.2c0,0-0.1,0.2,0,0.2l0-0.1c0,0.1,0.1-0.1,0,0.1c0,0,0,0,0,0c-0.1,0.3,0.1-0.1,0.1,0.1l0.1-0.3
		c0.1-0.1,0,0.1,0,0.2c0,0,0,0.1,0,0.1c0-0.1,0-0.1,0.1-0.2v0.1l-0.1,0.1c0.2-0.4,0.1,0.1,0.3-0.3c0,0.1-0.1,0.2-0.1,0.2
		c0,0.2,0.3-0.2,0.2,0c0,0.2,0.2,0.1,0.3,0.3l0-0.1l0.1,0.1c0.1-0.2,0.1-0.1,0.2-0.2c0,0.1-0.1,0.2-0.1,0.2c0,0,0.1-0.1,0.1,0l0,0.1
		c0.1,0.1,0.2,0.1,0.3,0c0,0,0,0.1,0,0.2c0,0,0.1,0,0.2-0.1c0,0,0,0.1,0,0.1l0.1-0.2c0,0-0.1,0.2-0.1,0.2c0.2-0.2,0.2,0,0.2,0l0-0.1
		c0-0.1,0,0.1,0,0.2c0.1,0.1,0.3-0.2,0.4-0.1c-0.1,0.4,0.2-0.1,0,0.3c0.1-0.1,0.1,0.1,0.2-0.1c0,0,0,0.1,0,0.1c0,0.1,0.1,0.1,0.2,0
		l0,0.1c0.1-0.2,0.2-0.1,0.3-0.4c0,0.1,0,0.1-0.1,0.1c0,0.2,0.1-0.1,0.1,0c0,0.1,0,0.1,0,0.2c0.1,0.3,0.4-0.1,0.5,0.1
		c0,0,0-0.3,0.1-0.2c0,0.1-0.1,0.3-0.1,0.3c0.1-0.2,0.1-0.1,0.1-0.1c0,0.1,0,0.1-0.1,0.2c0,0.1,0.1-0.2,0.2,0c0-0.1,0-0.1,0-0.2
		c0.1-0.2,0.1,0.3,0.2,0.1c0,0,0,0,0-0.1c0,0,0.1,0.1,0,0.2c0-0.1,0-0.2,0.1-0.2l0,0.1c0,0,0-0.1,0.1-0.1V185c0,0.1,0.1-0.2,0.1,0.1
		h0l0,0.1c0-0.1,0.1-0.2,0.1-0.2c0,0.3,0.1,0.1,0.1,0.1v0.1c0-0.1,0.1-0.1,0.1-0.1c0,0,0.1,0.1,0.1,0.2c0-0.1,0.1-0.1,0.1-0.2
		l0.1,0.3c0-0.4,0.1,0.1,0.1-0.3c0,0.1,0,0.1,0.1,0.2c0.1-0.2,0.1-0.2,0.2-0.1v0c0.1,0,0.1-0.2,0.2-0.2l0,0.3c0,0,0-0.3,0.1-0.2
		c0,0.1,0,0.1,0,0.1c0-0.1,0.1,0,0.1,0.1c0-0.2,0.1-0.1,0.1-0.4c0.1,0.3-0.1,0.1,0,0.4c0.1,0.1,0.2,0,0.2-0.2c0,0.1,0,0.1,0,0.2
		c0,0,0-0.8-0.1-1c0-0.2,0-0.3-0.1-0.5c0,0.1,0,0.3-0.1,0.1l0,0.2c-0.1,0.1-0.1-0.4-0.2-0.4l0,0.1c0,0,0,0.1,0,0.1
		c0-0.1,0-0.1,0-0.1l0,0.3c0-0.1,0-0.2,0-0.3c-0.1,0,0.1,0.4,0,0.3c0-0.1,0-0.1,0-0.2c-0.1-0.2-0.1,0-0.1,0.1c0-0.2,0-0.2,0-0.3
		c0,0.1,0,0.3,0,0.3c0-0.2,0-0.1-0.1-0.1c0,0.1,0,0.2,0,0.2c0,0,0-0.1,0,0l0,0.2c0,0.2-0.1-0.1-0.1-0.2c0,0,0-0.1,0-0.1
		c0-0.1-0.1-0.2-0.1-0.1v0c-0.1,0.2,0,0.3,0,0.5c0,0,0-0.6-0.1-0.4c0,0.2,0,0.4-0.1,0.5l0.1-0.4c0,0-0.1,0.1-0.1,0.1v0.1
		c0,0.3,0-0.1-0.1,0.1c0.1-0.4,0.1-0.4,0.1-0.8c0,0.2-0.1,0.4-0.1,0.4l0.1-0.3c-0.1-0.1-0.2,0.4-0.2,0.7c0-0.2,0-0.3,0.1-0.5l-0.1,0
		l0-0.3c-0.1,0.3-0.1,0.1-0.1,0.4c0-0.1,0-0.1,0-0.1c0,0.1-0.1,0.3-0.1,0.3c0-0.1,0-0.1,0-0.2c0,0.1,0-0.1-0.1,0v0.1
		c0,0.2,0,0-0.1,0.1c0-0.1,0-0.2,0-0.3v0c0,0-0.1,0.1-0.1,0l0.1-0.3l-0.1,0.2c0,0,0-0.1,0-0.2c-0.1-0.2-0.1,0.6-0.2,0.3
		c0-0.1,0-0.2,0.1-0.1c0-0.2,0-0.3,0-0.3c0,0,0,0,0,0C90.2,183.4,90.2,183.4,90.1,183.5L90.1,183.5z"/>
	<path class="st0" d="M90.2,183.4C90.2,183.4,90.3,183.4,90.2,183.4C90.3,183.3,90.3,183.2,90.2,183.4z"/>
	<path class="st0" d="M86,182.2L86,182.2L86,182.2z"/>
	<path class="st0" d="M85.7,182.2C85.7,182.2,85.7,182.3,85.7,182.2C85.7,182.2,85.7,182.2,85.7,182.2z"/>
	<path class="st0" d="M88.2,183L88.2,183L88.2,183z"/>
	<path class="st0" d="M86.9,182.4c-0.1,0.1-0.1,0.1-0.1,0.2C86.8,182.6,86.9,182.5,86.9,182.4z"/>
	<path class="st0" d="M87.3,182.7L87.3,182.7C87.3,182.6,87.3,182.7,87.3,182.7z"/>
	<path class="st0" d="M88.3,182.9c-0.1,0.1-0.1,0.1-0.1,0.1C88.2,183,88.2,183.1,88.3,182.9z"/>
	<polygon class="st0" points="85.3,182.5 85.4,182.3 85.3,182.4 	"/>
	<path class="st0" d="M85.6,182.4c0,0,0.1,0,0.1-0.1C85.6,182.4,85.6,182.4,85.6,182.4z"/>
	<polygon class="st0" points="86.4,182.8 86.4,182.7 86.4,182.8 	"/>
</g>
</svg>
