<?xml version="1.0" encoding="utf-8"?>
<!-- Generator: Adobe Illustrator 28.1.0, SVG Export Plug-In . SVG Version: 6.00 Build 0)  -->
<svg version="1.1" id="a" xmlns="http://www.w3.org/2000/svg" xmlns:xlink="http://www.w3.org/1999/xlink" x="0px" y="0px"
	 viewBox="0 0 646 792" style="enable-background:new 0 0 646 792;" xml:space="preserve">
<style type="text/css">
	.st0{fill:#5F5F5F;}
</style>
<g>
	<polygon class="st0" points="91.5,196.7 91.7,196.7 91.5,196.6 	"/>
	<path class="st0" d="M91.8,196.1c-0.2-0.1-0.2-0.2-0.5-0.2l0.2,0.1c-0.2,0-0.2,0.1-0.2,0.1v-0.1c0,0,0.2,0,0.2,0.1
		c-0.1,0.1,0.2,0.1-0.1,0.2h0l0.1,0.1c0,0-0.1,0-0.2,0c0.1,0.1,0.2,0.1,0.2,0.2c0.4,0-0.3-0.2,0.1-0.3h0
		C91.6,196.3,91.8,196.2,91.8,196.1L91.8,196.1z"/>
	<path class="st0" d="M91.4,196.4L91.4,196.4L91.4,196.4z"/>
	<path class="st0" d="M92,192.7L92,192.7C92,192.7,92,192.7,92,192.7z"/>
	<path class="st0" d="M91.3,193.9L91.3,193.9C91.2,193.9,91.2,193.9,91.3,193.9z"/>
	<path class="st0" d="M91.1,186.8L91.1,186.8C91.1,186.8,91.1,186.8,91.1,186.8z"/>
	<path class="st0" d="M91.1,185.4L91.1,185.4L91.1,185.4z"/>
	<path class="st0" d="M89.9,186.1L89.9,186.1C89.8,186.1,89.8,186.1,89.9,186.1z"/>
	<path class="st0" d="M89.6,185.7C89.6,185.7,89.7,185.7,89.6,185.7C89.6,185.7,89.6,185.7,89.6,185.7z"/>
	<path class="st0" d="M91.1,185.4C91.1,185.4,91.1,185.4,91.1,185.4C91.1,185.4,91.1,185.4,91.1,185.4z"/>
	<path class="st0" d="M89.8,186.9l-0.2,0.1C89.7,186.9,89.7,186.9,89.8,186.9z"/>
	<path class="st0" d="M89.5,185.6C89.5,185.6,89.5,185.6,89.5,185.6C89.5,185.6,89.5,185.6,89.5,185.6z"/>
	<path class="st0" d="M91.8,196C91.8,196,91.8,196,91.8,196C91.8,196,91.8,196,91.8,196z"/>
	<path class="st0" d="M90,189.6C90,189.6,89.9,189.6,90,189.6C89.9,189.6,90,189.6,90,189.6z"/>
	<path class="st0" d="M89.8,188L89.8,188C89.8,188,89.8,188,89.8,188L89.8,188L89.8,188z"/>
	<path class="st0" d="M89.9,188.5L89.9,188.5C89.8,188.5,89.9,188.5,89.9,188.5z"/>
	<path class="st0" d="M89.5,187.7C89.5,187.7,89.5,187.7,89.5,187.7L89.5,187.7z"/>
	<path class="st0" d="M89.7,187.3c-0.1,0-0.2,0-0.2,0c-0.1,0.1,0.2,0.1,0,0.2l0.1-0.1c0.2,0,0.2,0.1,0,0.2h-0.1c0.2,0-0.1,0.1,0,0.1
		c0.1,0,0.1,0,0.2-0.1l0.2,0.1l-0.3,0.1l0.1,0.1c0.1,0-0.1,0.1,0.2,0.1c-0.1,0.1-0.2,0-0.3,0c0.1,0,0,0.1,0.1,0.1l-0.2,0.1l0.2,0.1
		c0,0,0,0-0.1,0c0.2,0-0.1,0.1,0.3,0.1c0,0,0,0,0,0c0.2,0,0.1,0.1,0,0.1c0.1,0.1,0.2,0,0.3,0c0,0.2,0,0.1,0.3,0.2
		c-0.3,0.1-0.5,0-0.7,0.1c0.2,0,0.3,0,0.4,0.1c-0.1,0.1-0.2,0.2-0.4,0.3l0.2,0l0.1,0.1h-0.3c0.1,0,0.2,0,0.3,0
		c0.2,0.1-0.4,0.1-0.1,0.2l-0.1,0c0.2,0,0.1,0.1,0.2,0.1h-0.3l0.1-0.1c-0.2,0.1,0.1,0.1,0.1,0.1c0.1,0,0.3,0,0.4,0c0,0,0.1,0,0,0.1
		c-0.1,0.1-0.3,0.1-0.4,0.1c0.3,0,0.2,0,0.4,0.1c-0.1,0-0.2,0-0.2,0c0,0,0.1,0,0.2,0l-0.2,0.1c-0.2,0.1,0.5,0,0.4,0.2
		c-0.2,0,0,0.1-0.1,0.2c0,0-0.4,0.1-0.5,0.1c-0.1,0.1,0.3,0,0.4,0.1l-0.3,0c0.2,0.1,0.2,0,0.3,0.1c-0.1,0-0.1,0.1-0.2,0
		c0,0.1,0,0.1,0,0.2l0.3,0c0,0-0.1,0.1-0.2,0.1c0,0,0,0,0,0c-0.3,0.1,0.2,0-0.1,0.1c0.1,0,0.2-0.1,0.3,0c-0.2,0-0.2,0.1-0.3,0.1
		c0.1,0,0.1,0.1,0.3,0c-0.1,0.1-0.2,0-0.3,0c0.2,0,0.1,0.1,0.2,0.1c0,0,0,0,0,0c0.2,0,0.2,0.1,0.4,0.1h-0.2c-0.1,0.1,0.4,0,0.4,0.1
		c-0.3,0,0,0.1-0.3,0.1c0.2,0,0.2,0.1,0.5,0.1c-0.1,0.1-0.4,0-0.4,0l0.1,0.1l-0.1,0c0.1,0,0.1,0,0.2,0c-0.2,0-0.3,0.1-0.4,0.1
		c0.1,0-0.1,0.1,0.1,0.1h-0.1c0.3,0,0.1,0.1,0.4,0.1l-0.2,0c0,0.1,0.4,0,0.4,0c0,0,0.1,0.1,0,0.1c-0.2-0.1-0.2,0.1-0.4,0.1
		c0,0,0,0.1,0.2,0.1c-0.2,0-0.3,0-0.3-0.1c-0.3,0.1,0.1,0.1,0,0.2h-0.1c0.1,0.1,0.4,0.1,0.6,0.1c-0.2,0-0.2,0-0.4,0
		c-0.1,0.1,0,0.2,0,0.3c-0.1,0-0.2,0-0.3,0c0.2,0.1,0,0.2,0.3,0.2c-0.1,0-0.1,0-0.1,0.1c0.1,0,0.2,0,0.2,0c0.1,0,0.3,0.1,0.1,0.2
		l-0.1,0c-0.1,0.1,0.5,0.2,0.3,0.3c-0.1,0-0.3,0-0.3,0c0.1,0,0.4,0,0.3,0.1H91l0.2,0c0.2,0,0.1-0.1,0.3-0.1c-0.2,0.1,0.2,0.1,0,0.1
		c0,0-0.2,0-0.3-0.1c-0.2,0.2,0.2,0.2-0.1,0.4c0.2,0.1,0.2,0.2,0.4,0.2c-0.2,0-0.4,0-0.6-0.1c0,0.1,0.5,0.1,0.1,0.1
		c0.3,0,0.2,0.2,0.6,0.2c-0.1,0,0,0.1-0.2,0c0.1,0.1-0.4,0.1-0.4,0.1c0,0,0.3,0,0.3,0c0,0-0.1,0-0.1,0l0.1,0c-0.1,0-0.2,0-0.3,0
		c-0.1,0.1,0.2,0.1,0.3,0.2l-0.1,0l0,0.1h0l0.1,0.1h-0.1c0,0,0.1,0,0.1,0l-0.1,0c0.2,0,0.3,0.1,0.3,0.2h-0.1l0.3,0.1
		c-0.1,0-0.3-0.1-0.2,0l-0.3-0.1c0.1,0.1,0,0.1,0,0.1c0.1,0,0.1-0.1,0.2,0c-0.3,0,0.1,0.1,0.2,0.2c0,0,0-0.1-0.2-0.1
		c0,0,0.1,0,0.2,0l-0.1-0.1h0.2l-0.1-0.1c0.2,0,0-0.1,0.3,0c-0.1-0.1,0.1-0.1-0.1-0.1c0.1,0,0.2,0.1,0.2,0c-0.2-0.2-0.1-0.4,0-0.7
		l0.1,0c-0.1,0-0.2-0.1-0.2-0.1c0.2,0,0.4-0.2,0.1-0.2c0,0,0.1,0,0.1,0c0-0.1,0.2-0.2,0.2-0.3c-0.3,0,0.2-0.2-0.3-0.2l0.1,0
		c-0.1,0-0.3-0.1-0.4-0.1c0.3,0,0.2,0,0.5,0l-0.1,0h0.2c-0.7-0.1,0.3-0.3-0.2-0.4c0,0,0.1,0,0.1,0c0.1-0.1-0.2-0.1-0.3-0.1
		c0.1,0,0.2,0,0.3,0c0.1-0.1-0.3-0.2-0.1-0.4c-0.2,0-0.2,0-0.4,0c0.1,0,0.2-0.1,0.3,0c0.3-0.1-0.2-0.3,0.1-0.5
		c-0.2-0.1-0.3,0-0.4-0.1c0.1,0,0.4-0.1,0.4,0h0.1c0-0.1,0.1-0.3-0.3-0.3c0.3,0,0.1,0,0.2-0.1c0,0,0,0-0.1,0c-0.2,0,0-0.1,0-0.1h0
		l-0.2-0.1c0,0,0.1,0,0.2-0.1l-0.2,0c0,0,0.2,0,0.2-0.1l-0.1,0c0.1,0-0.1-0.1,0.1-0.1c0,0,0,0,0,0c0.3-0.1-0.1-0.1,0-0.2l-0.3,0.1
		c-0.1-0.1,0.1-0.1,0.2-0.1c0,0,0.1-0.1,0.1-0.1c-0.1,0-0.1,0-0.2,0l0.1-0.1l0.2,0c-0.5,0,0-0.2-0.4-0.2c0.1,0,0.2,0,0.2,0
		c0.2-0.1-0.3-0.2-0.1-0.3c0.2-0.2,0-0.3,0.1-0.5h-0.1l0-0.1c-0.2,0-0.1-0.1-0.3-0.1c0.1,0,0.2,0,0.2,0c0,0-0.1-0.1,0-0.1h0.1
		c0-0.1,0-0.2-0.1-0.3c0,0,0.1-0.1,0.2-0.1c0-0.1-0.1-0.1-0.2-0.1c0,0,0.1,0,0.1-0.1h-0.2c0,0,0.2,0,0.2-0.1
		c-0.2-0.1-0.1-0.2-0.1-0.3l-0.1,0c-0.1,0,0.1-0.1,0.2-0.1c0.1-0.1-0.3-0.1-0.3-0.3c0.4-0.1-0.1-0.1,0.3-0.2c-0.1-0.1,0-0.1-0.2-0.1
		c0,0,0.1,0,0.1,0c0.2-0.1,0-0.1-0.1-0.2l0.1,0c-0.3,0-0.2-0.1-0.5-0.1c0.1,0,0.1,0,0.2,0c0.2-0.1-0.1-0.1-0.1-0.1
		c0.1,0,0.1,0,0.2,0c0.3-0.2-0.3-0.4-0.1-0.6c0-0.1-0.3,0.1-0.3,0c0.1,0,0.3,0,0.3-0.1c-0.2,0-0.1,0-0.1-0.1c0.1,0,0.2,0,0.2,0
		c0.1,0-0.2-0.1,0-0.2c-0.1,0-0.1,0-0.2,0c-0.2-0.1,0.2-0.2,0.1-0.2c0,0,0,0-0.1,0c0,0,0-0.1,0.2-0.1c-0.1,0-0.2,0-0.2,0h0.2
		c0,0-0.1,0-0.2,0l-0.1,0c0.1-0.1-0.2-0.1,0.1-0.1l0,0l0.1-0.1c-0.1,0-0.2,0-0.2-0.1c0.3-0.1,0.1-0.1,0.1-0.2h0.1
		c-0.2,0-0.1-0.1-0.2-0.1c0,0,0.1-0.1,0.2-0.1c-0.1,0-0.1-0.1-0.2-0.1l0.2-0.1c-0.4,0,0.1-0.1-0.3-0.1c0.1,0,0.2-0.1,0.2-0.1
		c-0.2,0-0.2-0.1-0.1-0.1h0c0-0.1-0.2-0.1-0.2-0.2l0.3-0.1c0,0-0.3,0-0.2-0.1c0.1,0,0.1,0,0.1,0c-0.1,0,0-0.1,0.1-0.1
		c-0.2,0-0.2-0.1-0.4-0.1c0.3-0.1,0.1,0.1,0.4,0c0.1-0.1,0-0.2-0.2-0.2c0.1,0,0.1,0,0.2,0c0,0-0.8-0.1-1.1-0.1c-0.2,0-0.3,0-0.5,0.1
		c0.1,0,0.3,0.1,0,0.1h0.2c0.1,0.1-0.4,0-0.4,0.2l0.1,0c0,0,0.2,0,0.1,0.1c-0.1,0-0.1,0-0.1,0l0.3,0.1c-0.1,0-0.2,0-0.3,0
		c0,0.1,0.4-0.1,0.3,0.1c-0.1,0-0.1,0-0.2,0c-0.2,0.1,0,0.1,0.1,0.1c-0.2,0-0.2,0-0.3,0c0.1,0,0.3,0,0.3,0c-0.2,0-0.1,0-0.2,0.1
		c0.1,0,0.2,0,0.2,0c0,0,0,0,0,0.1l0.2-0.1c0.2,0-0.1,0.1-0.2,0.2c0,0-0.1,0-0.1,0c-0.1,0.1-0.2,0.1,0,0.2h0c0.2,0.1,0.3-0.1,0.5,0
		c0,0.1-0.6,0-0.4,0.1c0.2-0.1,0.4,0,0.5,0.1l-0.4,0c0,0,0.1,0.1,0.1,0.1H90c0.3-0.1,0,0.1,0.2,0.1c-0.4,0-0.3,0-0.8,0
		c0.2,0,0.5,0,0.4,0.1l-0.3,0c-0.1,0.1,0.4,0.2,0.7,0.2c-0.2,0-0.3,0.1-0.5,0l0.1,0.1h-0.3c0.3,0,0.1,0.1,0.4,0c-0.1,0-0.1,0-0.1,0
		c0.1,0,0.3,0,0.3,0c-0.1,0-0.1,0-0.2,0c0.1,0-0.1,0.1,0,0.1l0.2-0.1c0.2,0,0,0.1,0.1,0.1c-0.1,0-0.2,0-0.3,0h0c0,0,0.2,0,0.1,0.1
		l-0.3,0h0.2c0,0-0.1,0.1-0.2,0c-0.2,0.1,0.6-0.1,0.4,0.1c-0.1,0-0.2,0-0.1,0c-0.2,0-0.3,0-0.3,0.1c0,0,0,0,0,0
		C89.5,187.2,89.5,187.3,89.7,187.3L89.7,187.3z"/>
	<path class="st0" d="M89.5,187.1C89.5,187.1,89.5,187.1,89.5,187.1C89.4,187.1,89.3,187.2,89.5,187.1z"/>
	<path class="st0" d="M90.6,192.9L90.6,192.9L90.6,192.9z"/>
	<path class="st0" d="M90.7,193.2C90.7,193.2,90.7,193.2,90.7,193.2C90.7,193.2,90.6,193.2,90.7,193.2z"/>
	<path class="st0" d="M90.1,190L90.1,190L90.1,190z"/>
	<path class="st0" d="M90.3,191.8c0.1,0,0.2,0,0.2,0C90.5,191.8,90.4,191.8,90.3,191.8z"/>
	<path class="st0" d="M90.3,191.2C90.3,191.2,90.3,191.2,90.3,191.2C90.3,191.2,90.3,191.2,90.3,191.2z"/>
	<path class="st0" d="M90,189.9c0.1,0,0.1,0.1,0.2,0.1C90.1,190,90.2,189.9,90,189.9z"/>
	<polygon class="st0" points="91,193.6 90.8,193.5 90.9,193.6 	"/>
	<path class="st0" d="M90.9,193.3c0,0-0.1-0.1-0.1,0C90.8,193.2,90.8,193.3,90.9,193.3z"/>
	<polygon class="st0" points="90.9,192.1 90.8,192.1 90.9,192.2 	"/>
</g>
<g>
	<polygon class="st0" points="94.6,208.4 94.7,208.4 94.5,208.4 	"/>
	<path class="st0" d="M94.6,207.8c-0.2,0-0.3-0.1-0.6-0.1l0.3,0.1c-0.2,0.1-0.2,0.1-0.1,0.2l0-0.1c0,0,0.2,0,0.2,0
		c-0.1,0.1,0.2,0.1,0,0.2h0l0.2,0c0,0-0.1,0-0.2,0c0.1,0,0.3,0.1,0.3,0.1c0.4-0.1-0.3-0.1,0-0.3h0C94.5,208,94.7,207.8,94.6,207.8
		L94.6,207.8z"/>
	<path class="st0" d="M94.3,208.2L94.3,208.2C94.3,208.2,94.3,208.2,94.3,208.2z"/>
	<path class="st0" d="M94.6,204.4L94.6,204.4C94.5,204.4,94.6,204.4,94.6,204.4z"/>
	<path class="st0" d="M93.8,205.6L93.8,205.6C93.8,205.6,93.8,205.6,93.8,205.6z"/>
	<path class="st0" d="M92.6,198L92.6,198C92.6,198,92.6,198,92.6,198z"/>
	<path class="st0" d="M91.6,196.6L91.6,196.6L91.6,196.6z"/>
	<path class="st0" d="M91.1,198L91.1,198C91.1,198,91.1,198,91.1,198z"/>
	<path class="st0" d="M90.7,197.7C90.7,197.7,90.7,197.7,90.7,197.7C90.7,197.7,90.7,197.7,90.7,197.7z"/>
	<path class="st0" d="M91.7,196.6C91.7,196.6,91.6,196.6,91.7,196.6C91.6,196.6,91.6,196.6,91.7,196.6z"/>
	<path class="st0" d="M91.4,198.6l-0.2,0.1C91.3,198.7,91.4,198.7,91.4,198.6z"/>
	<path class="st0" d="M90.5,197.7C90.5,197.7,90.5,197.7,90.5,197.7C90.5,197.7,90.5,197.7,90.5,197.7z"/>
	<path class="st0" d="M94.6,207.7C94.6,207.7,94.6,207.7,94.6,207.7C94.6,207.7,94.6,207.7,94.6,207.7z"/>
	<path class="st0" d="M92.3,201.1C92.3,201.1,92.3,201.2,92.3,201.1C92.3,201.2,92.3,201.2,92.3,201.1z"/>
	<path class="st0" d="M91.8,199.7L91.8,199.7C91.8,199.7,91.8,199.7,91.8,199.7L91.8,199.7L91.8,199.7z"/>
	<path class="st0" d="M92,200.1L92,200.1C92,200.1,92,200.1,92,200.1z"/>
	<path class="st0" d="M91.4,199.5C91.4,199.5,91.4,199.5,91.4,199.5L91.4,199.5z"/>
	<path class="st0" d="M91.5,199.1c-0.1,0.1-0.1,0.1-0.2,0.1c0,0.1,0.2,0,0.1,0.2l0.1-0.1c0.2,0,0.2,0.1,0.1,0.2l-0.1,0
		c0.2,0-0.1,0.2,0.1,0.1c0.1-0.1,0.1-0.1,0.2-0.1l0.2,0l-0.3,0.1l0.1,0c0.1-0.1,0,0.1,0.2,0c-0.1,0.1-0.2,0.1-0.3,0.1
		c0.1,0,0,0.1,0.2,0l-0.2,0.1l0.2,0c0,0,0,0-0.1,0c0.2-0.1-0.1,0.2,0.3,0.1c0,0,0,0,0,0c0.2-0.1,0.1,0.1,0.1,0.1
		c0.1,0,0.2-0.1,0.3-0.1c0,0.2,0,0.1,0.3,0.1c-0.3,0.2-0.5,0.1-0.7,0.3c0.2,0,0.3,0,0.4,0c-0.1,0.1-0.1,0.2-0.3,0.4l0.2-0.1l0.1,0.1
		l-0.3,0c0.1,0,0.2,0,0.3,0c0.2,0-0.4,0.2-0.1,0.2l-0.1,0c0.2,0,0.1,0.1,0.2,0.1l-0.3,0.1l0-0.1c-0.2,0.1,0.1,0.1,0.1,0.1
		c0.1,0,0.3-0.1,0.4-0.1c0,0,0.1,0,0,0.1c-0.1,0.1-0.3,0.1-0.4,0.1c0.3,0,0.2,0,0.4,0c-0.1,0-0.2,0.1-0.2,0c0,0,0.1,0,0.2,0
		l-0.1,0.1c-0.2,0.1,0.5,0,0.5,0.1c-0.2,0,0.1,0.1-0.1,0.2c-0.1,0-0.4,0.1-0.5,0.1c-0.1,0.1,0.3,0,0.4,0l-0.3,0c0.2,0,0.2,0,0.3,0
		c-0.1,0-0.1,0.1-0.2,0c0,0.1,0,0.1,0,0.2l0.3-0.1c0,0-0.1,0.1-0.2,0.1c0,0,0,0,0,0c-0.3,0.1,0.2,0-0.1,0.1c0.1,0,0.2-0.1,0.3,0
		c-0.2,0-0.2,0.1-0.2,0.1c0.1-0.1,0.1,0.1,0.3,0c-0.1,0.1-0.2,0-0.3,0c0.2,0,0.1,0.1,0.2,0.1c0,0,0,0,0,0c0.2,0,0.2,0.1,0.4,0.1
		h-0.2c-0.1,0.1,0.4,0,0.4,0.1c-0.3,0,0,0.1-0.2,0.1c0.2,0,0.2,0.1,0.5,0.1c-0.1,0.1-0.4,0-0.4,0l0.2,0l-0.1,0c0.1,0,0.1,0,0.2,0
		c-0.2,0-0.3,0.1-0.4,0.1c0.1,0-0.1,0.1,0.1,0.1h-0.1c0.3,0,0.1,0.1,0.4,0.1l-0.2,0.1c0,0.1,0.4,0,0.5,0c0,0,0.1,0.1,0,0.1
		c-0.2-0.1-0.2,0.1-0.4,0.1c0,0,0,0.1,0.2,0.1c-0.2,0-0.3,0-0.3-0.1c-0.3,0.1,0.1,0.1,0.1,0.2h-0.2c0.1,0.1,0.4,0.1,0.6,0.1
		c-0.2,0-0.2,0-0.4,0c-0.1,0.1,0,0.2,0,0.3c-0.1,0-0.2,0-0.3,0c0.2,0.1,0,0.2,0.3,0.2c-0.1,0-0.1,0-0.1,0.1c0.1,0,0.2,0,0.2,0
		c0.1,0,0.3,0.2,0.1,0.2l-0.1,0c-0.1,0.1,0.5,0.2,0.3,0.4c-0.1,0-0.3,0-0.3,0c0.1,0,0.4,0,0.3,0.1h-0.2l0.2,0.1
		c0.2,0,0.1-0.1,0.3-0.1c-0.2,0.1,0.2,0.1,0,0.1c0,0-0.2,0-0.3,0c-0.2,0.2,0.2,0.2,0,0.4c0.2,0.1,0.2,0.2,0.4,0.2
		c-0.2,0-0.4,0-0.6,0c0,0.1,0.5,0.1,0.1,0.1c0.3,0,0.2,0.2,0.6,0.2c-0.1,0,0,0.1-0.2,0c0.1,0.1-0.3,0.1-0.3,0.2c0,0,0.3-0.1,0.3,0
		c0,0-0.1,0-0.1,0h0.1c-0.1,0-0.2,0-0.3,0c-0.1,0.1,0.2,0.1,0.3,0.2H94v0.1h0l0.2,0.1h-0.1c0,0,0.1,0,0.1,0H94
		c0.2,0,0.3,0.1,0.3,0.1l-0.1,0l0.3,0.1c-0.1,0.1-0.3,0-0.2,0.1h-0.3c0.1,0.1,0,0.1,0.1,0.1c0.1,0,0.1-0.1,0.2-0.1
		c-0.3,0.1,0.1,0.1,0.2,0.1c0,0,0-0.1-0.2,0c0,0,0.1,0,0.2-0.1l-0.2,0l0.2,0l-0.2-0.1c0.2,0,0-0.1,0.2-0.1c-0.1,0,0.1-0.1-0.2-0.1
		c0.1-0.1,0.2,0,0.2,0c-0.2-0.2-0.2-0.4-0.1-0.6h0.1c-0.1,0-0.2,0-0.2,0c0.2-0.1,0.4-0.2,0.1-0.2c0,0,0.1,0,0.1,0
		c0-0.1,0.2-0.2,0.1-0.3c-0.3,0,0.2-0.2-0.3-0.2l0.1,0c-0.1,0-0.3,0-0.4-0.1c0.3,0,0.2,0,0.5-0.1l-0.1,0.1l0.2,0
		c-0.7-0.1,0.3-0.3-0.2-0.3c0,0,0.1,0,0.1,0c0.1-0.1-0.2-0.1-0.3-0.1c0.1,0,0.2,0,0.3,0c0.1-0.1-0.3-0.3-0.1-0.4c-0.2,0-0.2,0-0.4,0
		c0,0,0.2-0.1,0.3,0c0.3-0.1-0.2-0.3,0.1-0.5c-0.2-0.1-0.3,0-0.4-0.1c0.1,0,0.4-0.1,0.4,0h0.1c0-0.1,0.1-0.3-0.3-0.3
		c0.3,0,0.1,0,0.2-0.1c0,0,0,0-0.1,0c-0.2,0,0-0.1,0-0.1h0.1l-0.2-0.1c0,0,0.1-0.1,0.2-0.1l-0.2,0c0,0,0.2-0.1,0.2-0.1l-0.1,0
		c0.1-0.1-0.1-0.1,0.1-0.1c0,0,0,0,0,0c0.3-0.1-0.1-0.1,0-0.2l-0.3,0.1c-0.1-0.1,0.1-0.1,0.2-0.1c0-0.1,0.1-0.1,0.1-0.1
		c-0.1,0-0.1,0-0.2,0l0.1-0.1l0.2,0c-0.5,0,0-0.2-0.4-0.3c0.1-0.1,0.2,0,0.2,0c0.2-0.1-0.3-0.2-0.1-0.3c0.2-0.2-0.1-0.3,0.1-0.5
		l-0.1,0l0-0.1c-0.2,0-0.1-0.1-0.3-0.1c0.1,0,0.2,0,0.2,0c0-0.1-0.1-0.1,0-0.1h0.1c0-0.1,0-0.3-0.2-0.3c0,0,0.1-0.1,0.2-0.1
		c0-0.1-0.1-0.1-0.2-0.1c0,0,0.1-0.1,0.1-0.1l-0.2,0c0,0,0.2-0.1,0.2-0.1c-0.3,0-0.1-0.2-0.1-0.3l-0.1,0c-0.1,0,0-0.1,0.1-0.1
		c0.1-0.2-0.4-0.1-0.4-0.3c0.3-0.1-0.2-0.1,0.2-0.3c-0.1,0,0-0.2-0.2-0.1c0,0,0.1,0,0.1,0c0.1-0.1,0-0.1-0.1-0.2l0.1-0.1
		c-0.3,0.1-0.2-0.1-0.5,0c0,0,0.1,0,0.2,0c0.2-0.1-0.1,0-0.1-0.1c0.1,0,0.1-0.1,0.2-0.1c0.2-0.3-0.4-0.3-0.3-0.6
		c0-0.1-0.2,0.2-0.3,0.1c0.1-0.1,0.3-0.1,0.3-0.2c-0.2,0-0.1,0-0.2,0c0.1,0,0.1-0.1,0.2-0.1c0.1-0.1-0.2,0-0.1-0.2
		c-0.1,0-0.1,0.1-0.2,0.1c-0.2,0,0.1-0.3,0-0.2c0,0-0.1,0-0.1,0c0,0,0-0.1,0.1-0.2c-0.1,0-0.2,0.1-0.2,0.1l0.1-0.1c0,0-0.1,0-0.2,0
		l-0.1,0.1c0.1-0.1-0.2,0,0-0.2h0l0.1-0.1c-0.1,0-0.2,0.1-0.2,0c0.2-0.2,0-0.1,0-0.2l0.1-0.1c-0.1,0-0.2-0.1-0.2-0.1
		c0,0,0-0.1,0.1-0.2c-0.1,0-0.1-0.1-0.3,0l0.2-0.2c-0.3,0.2,0-0.2-0.3,0c0-0.1,0.1-0.1,0.1-0.2c-0.2,0.1-0.2,0-0.2-0.1l0,0
		c0-0.1-0.2,0-0.3-0.1l0.2-0.2c-0.1,0-0.2,0.1-0.2,0.1c0,0,0.1,0,0.1-0.1c-0.1,0-0.1-0.1,0-0.2c-0.2,0.1-0.2,0-0.4,0.1
		c0.2-0.2,0.1,0,0.3-0.2c0-0.2-0.1-0.1-0.3-0.1c0-0.1,0.1-0.1,0.1-0.1c0,0-0.7,0.4-0.9,0.6c-0.2,0.1-0.3,0.2-0.3,0.4
		c0.1-0.1,0.3-0.1,0.1,0.1l0.1-0.1c0.2,0-0.3,0.3-0.2,0.4l0-0.1c0,0,0.1-0.1,0.1,0c0,0.1-0.1,0.1-0.1,0.1l0.3-0.1
		c-0.1,0.1-0.1,0.1-0.2,0.2c0.1,0.1,0.3-0.3,0.3-0.1c0,0.1-0.1,0.1-0.2,0.1c-0.1,0.2,0.1,0.1,0.2,0c-0.1,0.1-0.2,0.1-0.2,0.2
		c0.1-0.1,0.2-0.2,0.2-0.2c-0.2,0.1-0.1,0.1-0.1,0.1c0.1-0.1,0.1-0.1,0.2-0.1c0,0,0,0.1,0,0.1l0.1-0.2c0.2-0.1,0,0.1,0,0.2
		c0,0,0,0-0.1,0c0,0.1-0.1,0.2,0,0.2h0c0.2,0,0.2-0.2,0.4-0.2c0,0.1-0.5,0.4-0.3,0.3c0.1-0.1,0.3-0.2,0.4-0.2l-0.3,0.2
		c0,0,0.1,0,0.1,0l0.1-0.1c0.2-0.2,0,0.1,0.2,0c-0.4,0.2-0.3,0.2-0.7,0.4c0.2-0.1,0.4-0.2,0.4-0.1l-0.3,0.1c0,0.1,0.5-0.1,0.7-0.2
		c-0.2,0.1-0.3,0.2-0.5,0.3l0.1,0.1l-0.2,0.1c0.2-0.1,0.1,0,0.4-0.2c-0.1,0-0.1,0-0.1,0c0.1-0.1,0.3-0.2,0.3-0.1
		c0,0.1-0.1,0.1-0.2,0.1c0.1-0.1-0.1,0.1,0.1,0.1l0.1-0.1c0.2-0.1,0,0,0.1,0c-0.1,0-0.2,0.1-0.3,0.2l0,0c0,0,0.2,0,0.1,0l-0.2,0.1
		l0.2-0.1c0,0-0.1,0.1-0.2,0.1c-0.1,0.2,0.5-0.3,0.4-0.1c-0.1,0.1-0.2,0.1-0.1,0c-0.2,0.1-0.2,0.1-0.3,0.2c0,0,0,0,0,0
		C91.3,199,91.3,199.1,91.5,199.1L91.5,199.1z"/>
	<path class="st0" d="M91.2,199C91.2,199,91.2,198.9,91.2,199C91.1,199,91.1,199.1,91.2,199z"/>
	<path class="st0" d="M93.1,204.5L93.1,204.5L93.1,204.5z"/>
	<path class="st0" d="M93.2,204.9C93.2,204.9,93.3,204.9,93.2,204.9C93.2,204.8,93.2,204.8,93.2,204.9z"/>
	<path class="st0" d="M92.5,201.6L92.5,201.6L92.5,201.6z"/>
	<path class="st0" d="M92.8,203.4c0.1,0,0.2,0,0.2,0C93,203.4,93,203.3,92.8,203.4z"/>
	<path class="st0" d="M92.8,202.7C92.8,202.7,92.8,202.7,92.8,202.7C92.8,202.7,92.8,202.7,92.8,202.7z"/>
	<path class="st0" d="M92.4,201.5c0.1,0,0.1,0,0.2,0.1C92.5,201.6,92.6,201.5,92.4,201.5z"/>
	<polygon class="st0" points="93.6,205.2 93.4,205.2 93.5,205.2 	"/>
	<path class="st0" d="M93.5,204.9c0,0-0.1-0.1-0.1,0C93.4,204.9,93.4,204.9,93.5,204.9z"/>
	<polygon class="st0" points="93.5,203.7 93.3,203.8 93.5,203.8 	"/>
</g>
</svg>
