<?xml version="1.0" encoding="utf-8"?>
<!-- Generator: Adobe Illustrator 28.1.0, SVG Export Plug-In . SVG Version: 6.00 Build 0)  -->
<svg version="1.1" id="a" xmlns="http://www.w3.org/2000/svg" xmlns:xlink="http://www.w3.org/1999/xlink" x="0px" y="0px"
	 viewBox="0 0 646 792" style="enable-background:new 0 0 646 792;" xml:space="preserve">
<style type="text/css">
	.st0{fill:#5F5F5F;}
</style>
<polygon class="st0" points="92.9,218.3 93.1,218.3 93,218.1 "/>
<path class="st0" d="M93.8,216.6c-0.1-0.2-0.1-0.5-0.3-0.7l0.1,0.4c-0.2-0.1-0.3,0.1-0.3,0.3l0.1-0.2c0,0.1,0.2,0.1,0.2,0.1
	c-0.2,0.2,0,0.4-0.3,0.6l0,0l0,0.3c-0.1,0.1-0.1,0-0.2-0.1c0,0.2,0.1,0.4,0,0.6c0.4,0-0.1-0.6,0.4-0.7l0,0
	C93.4,217.1,93.8,216.9,93.8,216.6L93.8,216.6z"/>
<path class="st0" d="M93.1,217.4L93.1,217.4C93.1,217.4,93.1,217.4,93.1,217.4z"/>
<path class="st0" d="M95.9,207.1L95.9,207.1C95.9,207.1,95.9,207.1,95.9,207.1z"/>
<path class="st0" d="M95,210.4L95,210.4C94.9,210.3,94.9,210.3,95,210.4z"/>
<path class="st0" d="M93,190.4L93,190.4C93,190.3,93,190.4,93,190.4z"/>
<path class="st0" d="M91.2,186L91.2,186L91.2,186z"/>
<path class="st0" d="M91.5,188.2L91.5,188.2C91.4,188.3,91.5,188.3,91.5,188.2z"/>
<path class="st0" d="M90.6,187.4C90.6,187.4,90.6,187.3,90.6,187.4C90.6,187.4,90.6,187.4,90.6,187.4z"/>
<path class="st0" d="M91.2,186C91.2,186,91.2,186,91.2,186C91.2,186,91.2,186,91.2,186z"/>
<path class="st0" d="M91.7,190.1l-0.2,0.1C91.5,190.2,91.6,190.2,91.7,190.1z"/>
<path class="st0" d="M90.3,187.3c0-0.1,0-0.1,0-0.1C90.2,187.3,90.3,187.3,90.3,187.3z"/>
<path class="st0" d="M93.9,216.4c0,0,0,0.1,0,0.1C93.9,216.5,93.9,216.4,93.9,216.4z"/>
<path class="st0" d="M91.2,198.1C91.2,198.1,91.2,198.1,91.2,198.1C91.1,198.1,91.2,198.1,91.2,198.1z"/>
<path class="st0" d="M91.5,193.4L91.5,193.4C91.5,193.4,91.5,193.4,91.5,193.4L91.5,193.4L91.5,193.4z"/>
<path class="st0" d="M91.5,194.7L91.5,194.7C91.4,194.6,91.5,194.7,91.5,194.7z"/>
<path class="st0" d="M91.3,192.4C91.3,192.4,91.2,192.3,91.3,192.4L91.3,192.4z"/>
<path class="st0" d="M91.5,191.4c-0.1,0-0.1,0-0.2-0.1c-0.1,0.2,0.2,0.3,0,0.6l0.1-0.1c0.2,0.2,0.2,0.5,0,0.6l-0.1,0
	c0.2,0.1-0.1,0.4,0,0.5c0.1-0.1,0.2,0,0.2-0.1l0.2,0.4l-0.3,0l0.1,0.2c0.1-0.1-0.1,0.3,0.2,0.3c-0.1,0.1-0.2-0.1-0.3-0.1
	c0.1,0.1,0,0.1,0.1,0.2l-0.3,0.1l0.2,0.3c0,0,0,0-0.1,0c0.2,0.1-0.1,0.3,0.2,0.5c0,0,0,0,0,0c0.2,0.1,0,0.3,0,0.4
	c0,0.1,0.2,0.1,0.3,0.1c-0.1,0.4-0.1,0.3,0.1,0.7c-0.3,0.2-0.5-0.3-0.7-0.1c0.2,0.1,0.2,0.3,0.2,0.5c-0.2,0.1-0.3,0.6-0.5,0.9l0.2,0
	l0.1,0.4c-0.1-0.1-0.2-0.1-0.3-0.2c0.1,0.1,0.2,0.2,0.3,0.3c0.2,0.3-0.4,0.3,0,0.5l-0.1,0c0.2,0,0.2,0.3,0.4,0.5l-0.3,0v-0.2
	c-0.2,0.2,0.1,0.3,0.2,0.4c0.2,0.1,0.3-0.1,0.4,0c0,0.1,0.1,0.1,0.1,0.2c0,0.2-0.3,0.2-0.4,0.2c0.3,0,0.3,0,0.5,0.2
	c-0.1,0.1-0.2,0.1-0.2,0.1c0.1,0,0.1,0.1,0.2,0l-0.1,0.1c0,0.4,0.6,0,0.7,0.3c-0.2,0,0.2,0.2,0.1,0.4c-0.1-0.1-0.3,0.2-0.5,0.3
	c0,0.3,0.3-0.1,0.5,0.1l-0.3,0.1c0.2,0.1,0.2,0,0.4,0.1c-0.1,0,0,0.1-0.2,0.1c0.1,0.2,0.1,0.2,0.1,0.4l0.3-0.1
	c0.1,0.1-0.1,0.1-0.1,0.2c0,0,0-0.1-0.1-0.1c-0.2,0.2,0.2,0.1,0,0.3c0.1-0.1,0.2-0.1,0.3-0.1c-0.2,0.1-0.1,0.2-0.2,0.2
	c0.1-0.1,0.2,0.2,0.3,0.1c-0.1,0.2-0.2,0-0.3,0.1c0.3,0,0.2,0.4,0.3,0.4c0,0,0,0,0,0c0.2,0.1,0.3,0.2,0.6,0.4l-0.2,0
	c0,0.3,0.4,0,0.5,0.2c-0.3,0,0.1,0.3-0.2,0.3c0.2,0.1,0.3,0.2,0.5,0.2c-0.1,0.2-0.4-0.1-0.4,0.1l0.2,0.1l-0.1,0.1
	c0.1,0,0.2,0.1,0.2,0.1c-0.2,0.1-0.3,0.2-0.4,0.2c0.1,0.1,0,0.3,0.1,0.3l-0.1,0c0.3,0,0.1,0.3,0.5,0.3l-0.2,0.1
	c0.1,0.2,0.4,0.1,0.5,0.1c0,0.1,0.1,0.1,0.1,0.2c-0.2-0.2-0.2,0.2-0.3,0.2c0,0.1,0.1,0.3,0.2,0.4c-0.2-0.1-0.3,0-0.3-0.2
	c-0.3,0.1,0.1,0.3,0.1,0.5h-0.2c0.1,0.3,0.4,0.3,0.7,0.4c-0.2,0.1-0.2,0-0.4-0.1c-0.1,0.2,0.1,0.5,0,0.8c-0.1,0.1-0.2,0-0.3,0
	c0.2,0.2,0,0.5,0.3,0.7c-0.1-0.1-0.1,0.1-0.1,0.2c0.1,0,0.1,0,0.1,0c0.1,0.1,0.2,0.5,0.1,0.6l-0.1-0.1c-0.1,0.4,0.5,0.6,0.2,1
	c-0.1,0.1-0.3-0.1-0.3,0.1c0.1,0.1,0.4,0.1,0.3,0.3l-0.2,0l0.2,0.2c0.2-0.1,0.2-0.3,0.3-0.1c-0.2,0.2,0.2,0.2-0.1,0.4
	c0-0.1-0.2-0.1-0.2-0.2c-0.3,0.4,0.1,0.7-0.2,1.1c0.1,0.3,0.1,0.6,0.2,0.8c-0.2-0.1-0.4-0.1-0.5-0.2c-0.1,0.2,0.4,0.4,0,0.4
	c0.3,0.2,0,0.6,0.4,0.7c-0.1,0-0.1,0.2-0.2-0.1c0.1,0.3-0.4,0.2-0.5,0.4c0,0.1,0.3,0,0.2,0.1c0,0-0.1,0-0.1,0l0.1,0.1
	c-0.1,0-0.2-0.1-0.3-0.2c-0.2,0.2,0.1,0.4,0.1,0.7l0-0.1l-0.1,0.2l0,0l0.1,0.2l-0.1,0c0,0.1,0.1,0.1,0.1,0.2l-0.1-0.1
	c0.2,0.1,0.2,0.4,0.2,0.5H94l0.1,0.4c-0.2,0.1-0.2-0.3-0.2,0l-0.2-0.2c0,0.2-0.1,0.2-0.1,0.4c0.2,0,0.2-0.1,0.3,0
	c-0.3,0.1,0,0.3,0,0.5c0-0.1,0.1-0.1-0.1-0.2c0-0.1,0.1,0,0.2,0l-0.1-0.2l0.2,0l0-0.3c0.2,0.1,0.1-0.2,0.3,0c0-0.2,0.1-0.2,0-0.4
	c0.2-0.1,0.1,0.2,0.1,0.1c0.1-0.6,0.3-1.2,0.5-1.9l0.1,0.1c-0.1-0.1-0.1-0.2-0.2-0.2c0.2-0.1,0.5-0.4,0.2-0.6c0,0,0.1,0,0.1,0.1
	c0-0.2,0.3-0.6,0.4-0.9c-0.3-0.2,0.3-0.4-0.1-0.6l0.1,0.1c-0.1,0.1-0.3-0.2-0.4-0.3c0.3,0,0.2,0,0.5,0l-0.1,0.1l0.2,0
	c-0.6-0.5,0.4-0.7,0-1c0,0,0.1,0,0.1,0c0.2-0.1-0.1-0.3-0.2-0.4c0.1,0,0.2,0.1,0.3,0.2c0.1-0.3-0.2-0.8,0-1.1
	c-0.2-0.1-0.2,0-0.3-0.1c0.1-0.1,0.2-0.2,0.3,0c0.3-0.3-0.2-0.9,0.1-1.3c-0.2-0.2-0.3-0.1-0.4-0.4c0.1,0.1,0.4-0.1,0.4,0.1l0.1,0
	c0-0.3,0-0.8-0.4-1c0.3,0,0-0.1,0.2-0.2c0-0.1,0,0-0.1,0c-0.2-0.1,0-0.2-0.1-0.3l0,0l-0.2-0.2c0,0,0.1-0.1,0.2-0.1l-0.2,0
	c0-0.1,0.2-0.1,0.1-0.2l-0.1,0.1c0.1-0.1-0.2-0.2,0-0.3c0,0,0,0,0,0.1c0.2-0.2-0.2-0.4-0.1-0.6l-0.3,0.1c-0.1-0.2,0-0.1,0.1-0.1
	c0-0.1,0.1-0.2,0.1-0.4c-0.1-0.1-0.1,0-0.2,0l0-0.2l0.2,0.1c-0.5-0.1-0.1-0.7-0.6-0.7c0.1-0.1,0.2,0,0.2,0c0.1-0.4-0.5-0.6-0.4-0.9
	c0.1-0.5-0.3-0.9-0.4-1.4l-0.1,0l-0.1-0.3c-0.2,0-0.2-0.3-0.5-0.3c0.1,0,0.1-0.1,0.2-0.1c-0.1-0.1-0.2-0.2-0.2-0.4h0.1
	c-0.1-0.3-0.3-0.7-0.5-0.7c-0.1-0.1,0.1-0.1,0.1-0.2c-0.1-0.1-0.2-0.2-0.4-0.2c0-0.1,0-0.1,0.1-0.2l-0.2,0c0-0.1,0.1-0.1,0.2-0.2
	c-0.3-0.1-0.2-0.4-0.3-0.6l-0.1,0.1c-0.1,0,0-0.2,0.1-0.1c0.1-0.3-0.4-0.4-0.3-0.8c0.2,0,0.2-0.1,0.2-0.2c0-0.1,0-0.3,0.2-0.3
	c-0.1-0.3,0.1-0.4-0.1-0.6c0,0,0.1,0,0.1,0c0.2-0.1,0.1-0.4,0-0.6h0.1c-0.3-0.1-0.2-0.5-0.4-0.6c0.1,0,0.1,0.1,0.2,0.1
	c0.3-0.1-0.1-0.2,0-0.4c0.1,0,0.1,0,0.2,0c0.3-0.5-0.2-1.3,0-1.9c0-0.2-0.3,0.1-0.3-0.2c0.1-0.1,0.3,0.1,0.3,0
	c-0.2-0.1-0.1-0.1-0.1-0.3c0.1,0,0.2,0,0.2,0.1c0.1-0.1-0.2-0.4,0-0.5c-0.1,0-0.1,0-0.2-0.1c-0.2-0.2,0.2-0.5,0.1-0.6
	c0,0,0-0.1-0.1,0c0-0.1,0-0.2,0.2-0.2c-0.1-0.1-0.2-0.1-0.2-0.2l0.2,0.1c0,0-0.1-0.1-0.2-0.1l-0.1,0.1c0.1-0.1-0.2-0.3,0.1-0.3v0
	l0.1-0.2c-0.1-0.1-0.2-0.2-0.2-0.3c0.3-0.1,0-0.4,0-0.6h0.1c-0.2-0.1-0.2-0.5-0.2-0.4c0-0.1,0-0.4,0.1-0.3c-0.1-0.1-0.2-0.4-0.4-0.4
	c0-0.1,0.1-0.2,0.1-0.3c-0.4,0-0.1-0.5-0.5-0.3c0-0.1,0.1-0.2,0.1-0.3c-0.3-0.1-0.4-0.2-0.5-0.4l0,0c-0.1-0.2-0.4-0.2-0.7-0.3
	c0-0.1,0.1-0.2,0.2-0.3c-0.1,0-0.2,0.2-0.2,0.1c0,0,0.1,0,0.1-0.1c-0.1,0,0-0.1,0-0.1c-0.2,0.1-0.1,0-0.4,0c0.3-0.1,0.1,0.1,0.4,0
	c0.1,0,0-0.2-0.1-0.5c0.1,0,0.1,0,0.2,0.1c0,0-0.2-0.2-0.3-0.4c-0.2-0.2-0.4-0.3-0.6-0.3c-0.2-0.1-0.3-0.2-0.5,0
	c0.1,0.1,0.2,0.3,0,0.3l0.2,0.1c0,0.4-0.4-0.1-0.5,0.4c0,0,0.1-0.1,0.1-0.1c0,0.1,0.1,0.2,0.1,0.3c-0.1,0-0.1,0-0.1-0.1
	c0.1,0.1,0.2,0.3,0.3,0.4c-0.1,0-0.2,0-0.3-0.1c0.1,0.4,0.3-0.1,0.4,0.4c-0.1,0.1-0.1,0-0.2,0c-0.1,0.3,0.2,0.4,0.4,0.5
	c-0.1,0.1-0.2,0-0.2,0.2c0-0.1,0.2-0.2,0.3-0.1c-0.2,0.1,0,0.2,0.1,0.3c0-0.1,0.1-0.1,0.2-0.1c0.1,0,0.1,0.1,0.1,0.1
	c0-0.1,0-0.1,0-0.2c0.2,0,0.1,0.2,0.2,0.4c0,0-0.1,0-0.1,0c0,0.1,0,0.3,0.2,0.3h0c0.3,0.1,0.2-0.3,0.5-0.1c0,0.1-0.5,0.3-0.2,0.4
	c0.1-0.2,0.4-0.1,0.6,0.1c-0.1,0-0.3,0-0.4,0c0,0.1,0.2,0.1,0.1,0.1l0.1,0c0.3-0.1,0,0.2,0.3,0.2c-0.5,0-0.4,0-0.8,0.1
	c0.2,0,0.5,0,0.5,0.2c-0.1,0-0.2,0-0.4-0.1c0,0.2,0.5,0.4,0.8,0.6c-0.2,0-0.3,0.1-0.5,0l0.1,0.2l-0.3,0c0.3,0.1,0.1,0.2,0.5,0.2
	c0,0-0.1,0-0.1-0.1c0.1,0,0.3,0,0.3,0.2c-0.1,0.1-0.1-0.1-0.2,0c0.2,0.1-0.1,0.1,0,0.2l0.1-0.1c0.2,0.1,0,0.1,0.1,0.2
	c-0.1-0.1-0.2-0.1-0.3,0h0c0,0.1,0.2,0.1,0,0.2l-0.3-0.1l0.2,0.1c0,0-0.1,0.1-0.2,0c-0.2,0.3,0.6,0,0.3,0.4c-0.1,0-0.2-0.1-0.1-0.2
	c-0.2,0-0.3,0-0.3,0.1h0C91.4,191,91.3,191.3,91.5,191.4L91.5,191.4z"/>
<path class="st0" d="M91.3,190.7c0-0.1,0-0.2,0-0.3C91.2,190.4,91.1,190.7,91.3,190.7z"/>
<path class="st0" d="M94.5,207.3C94.5,207.3,94.4,207.3,94.5,207.3L94.5,207.3z"/>
<path class="st0" d="M94.6,208.2C94.6,208.2,94.6,208.2,94.6,208.2C94.6,208.2,94.5,208.2,94.6,208.2z"/>
<path class="st0" d="M91.9,199.5L91.9,199.5L91.9,199.5z"/>
<path class="st0" d="M93.8,204.1c0.1,0.1,0.2,0.1,0.3,0.1C94,204.2,94,204.1,93.8,204.1z"/>
<path class="st0" d="M93.4,202.5C93.4,202.5,93.4,202.5,93.4,202.5C93.4,202.5,93.4,202.5,93.4,202.5z"/>
<path class="st0" d="M91.6,199.3c0.1,0,0.2,0.1,0.3,0.2C91.8,199.4,91.8,199.2,91.6,199.3z"/>
<polygon class="st0" points="94.8,209.3 94.7,209.2 94.8,209.3 "/>
<path class="st0" d="M94.8,208.5c0,0-0.1-0.2-0.1-0.1C94.7,208.4,94.8,208.4,94.8,208.5z"/>
<polygon class="st0" points="94.7,205.2 94.5,205.2 94.6,205.3 "/>
</svg>
