<?xml version="1.0" encoding="utf-8"?>
<!-- Generator: Adobe Illustrator 28.1.0, SVG Export Plug-In . SVG Version: 6.00 Build 0)  -->
<svg version="1.1" id="a" xmlns="http://www.w3.org/2000/svg" xmlns:xlink="http://www.w3.org/1999/xlink" x="0px" y="0px"
	 viewBox="0 0 646 792" style="enable-background:new 0 0 646 792;" xml:space="preserve">
<style type="text/css">
	.st0{fill:#5F5F5F;}
</style>
<g>
	<path class="st0" d="M55.5,165.7l0.1-0.1c-0.1-0.1-0.2-0.3-0.3-0.4C55.4,165.3,55.4,165.5,55.5,165.7z"/>
	<path class="st0" d="M54.3,163.2c-0.1-0.2,0-0.5-0.1-0.8c-0.1,0.2-0.1,0.3-0.1,0.5c-0.2-0.1-0.4,0.2-0.3,0.5c0-0.1,0-0.2,0-0.3
		c0,0.1,0.2,0.1,0.2,0.1c-0.1,0.1,0,0.3,0.1,0.3c0.1,0.1,0.1,0.2,0.2,0.4h0l0.3,0.2c0.1,0.1-0.1,0.1-0.1,0.1
		c0.3,0.2,0.6,0.2,0.9,0.8c0.1-0.3-0.2-0.6-0.4-0.7c-0.2-0.1-0.5-0.3-0.4-0.5h0c-0.2-0.1-0.2-0.3-0.3-0.4
		C54.3,163.3,54.3,163.3,54.3,163.2L54.3,163.2z"/>
	<path class="st0" d="M54.5,164.3L54.5,164.3C54.4,164.3,54.4,164.3,54.5,164.3z"/>
	<path class="st0" d="M69.4,164L69.4,164C69.4,163.9,69.4,164,69.4,164z"/>
	<path class="st0" d="M63.8,163.7L63.8,163.7C63.9,163.6,63.9,163.6,63.8,163.7z"/>
	<path class="st0" d="M89.4,181.6l-0.1,0.1C89.4,181.7,89.4,181.7,89.4,181.6z"/>
	<path class="st0" d="M86.7,181.7L86.7,181.7L86.7,181.7z"/>
	<path class="st0" d="M89.3,184.4v0.1C89.3,184.5,89.4,184.5,89.3,184.4z"/>
	<path class="st0" d="M87,183.4c0-0.1-0.1-0.1-0.1-0.1C86.9,183.3,86.9,183.4,87,183.4z"/>
	<path class="st0" d="M86.8,181.7C86.8,181.7,86.7,181.7,86.8,181.7C86.7,181.7,86.8,181.7,86.8,181.7z"/>
	<path class="st0" d="M90.8,181.7l0.2-0.1C90.9,181.6,90.9,181.6,90.8,181.7z"/>
	<path class="st0" d="M86.4,183.3c0-0.1,0-0.1-0.1-0.1C86.4,183.3,86.4,183.3,86.4,183.3z"/>
	<path class="st0" d="M54.4,163c0,0,0,0.1,0,0.1C54.4,163.1,54.4,163,54.4,163z"/>
	<path class="st0" d="M84.3,169.8C84.3,169.8,84.4,169.8,84.3,169.8C84.4,169.7,84.4,169.7,84.3,169.8z"/>
	<path class="st0" d="M88.8,176.4L88.8,176.4C88.9,176.4,88.9,176.4,88.8,176.4L88.8,176.4z"/>
	<path class="st0" d="M87.6,174.4L87.6,174.4C87.7,174.4,87.6,174.4,87.6,174.4z"/>
	<path class="st0" d="M89.8,177.9c0,0,0.1,0,0.1,0.1L89.8,177.9z"/>
	<path class="st0" d="M90.3,179.5c0-0.1,0.1-0.1,0.2,0c0-0.4-0.4-0.5-0.4-1l0,0.2c-0.2-0.2-0.5-0.7-0.4-1l0.1,0
		c-0.3-0.2-0.2-0.7-0.3-0.8c0,0.1-0.1,0.1-0.1,0.3l-0.5-0.5l0.2-0.2l-0.2-0.3c-0.1,0.1-0.2-0.5-0.4-0.3c0-0.2,0.2,0,0.4,0
		c-0.2-0.1-0.1-0.2-0.3-0.3l0.1-0.3l-0.4-0.4c0,0,0,0,0.1,0c-0.3-0.1-0.2-0.6-0.7-0.7c0,0,0,0,0,0c-0.3,0-0.4-0.5-0.4-0.6
		c-0.2-0.2-0.3,0-0.4,0.1c-0.4-0.7-0.3-0.5-0.9-0.8c0-0.5,0.7,0.1,0.6-0.5c-0.2,0-0.5-0.2-0.8-0.5c-0.1-0.4-0.4-0.9-0.5-1.3
		l-0.1,0.2l-0.4-0.3l0.4,0c-0.1,0-0.4-0.1-0.6-0.2c-0.5-0.3,0.2-0.5-0.3-0.6c0,0,0-0.1,0-0.1c-0.2,0-0.4-0.3-0.7-0.6l0.3-0.1
		l0.1,0.2c0.1-0.3-0.3-0.3-0.4-0.5c-0.2-0.1-0.3,0.1-0.5,0c-0.1-0.1-0.2-0.1-0.2-0.2c-0.1-0.2,0.2-0.2,0.4-0.2
		c-0.3,0-0.3-0.1-0.7-0.3c0.1-0.1,0.2-0.1,0.2-0.1c-0.1-0.1-0.2-0.1-0.3,0v-0.2c-0.2-0.5-0.7-0.1-1.1-0.5c0.2,0-0.4-0.3-0.4-0.6
		c0.2,0.1,0.2-0.4,0.4-0.4c-0.3-0.4-0.4,0.1-0.7-0.1L81,166c-0.4-0.1-0.2,0.1-0.6-0.1c0.2,0-0.1-0.2,0.2-0.1
		c-0.4-0.4-0.3-0.2-0.7-0.5l-0.2,0.2c-0.2-0.1-0.1-0.2-0.1-0.3c0.1,0,0.1,0.1,0.2,0.1c0-0.3-0.3,0-0.4-0.4c0,0.1,0,0.3-0.2,0.2
		c0.2-0.1-0.1-0.3-0.1-0.4c0,0.2-0.4-0.2-0.5,0c-0.1-0.2,0.1-0.1,0.2-0.2c-0.3,0.1-0.7-0.3-0.9-0.3c0,0,0,0,0-0.1
		c-0.3,0-0.6-0.1-1.1-0.1L77,164c-0.4-0.3-0.4,0.2-0.7,0.1c0.2-0.2-0.6-0.2-0.3-0.4c-0.3,0.1-0.5,0.1-0.7,0.2
		c-0.2-0.2,0.5-0.2,0.2-0.4l-0.3,0v-0.1c-0.1,0.1-0.3,0-0.3,0.1c0-0.2-0.1-0.3,0-0.4c-0.2,0-0.5-0.2-0.7-0.1v-0.1
		c-0.3,0.3-0.6-0.1-0.8,0.2l-0.1-0.2c-0.3,0-0.3,0.3-0.5,0.4c-0.1,0-0.3,0-0.4,0c0.4-0.2-0.2-0.3-0.2-0.4c-0.2,0-0.6,0-0.8,0.1
		c0.2-0.2,0.1-0.3,0.4-0.3c-0.2-0.3-0.5,0-0.9,0v-0.1c-0.5,0.1-0.5,0.4-0.8,0.6c-0.1-0.2,0-0.2,0.1-0.4c-0.4-0.1-0.9,0.1-1.3,0.1
		c-0.1-0.1-0.1-0.2,0.1-0.3c-0.4,0.2-0.9,0.1-1.2,0.4c0.1-0.1-0.2-0.1-0.3-0.1c0,0.1,0,0.2,0,0.1c-0.2,0.2-0.8,0.4-1.1,0.3l0.1-0.1
		c-0.7,0-0.9,0.6-1.7,0.4c-0.1-0.1,0.1-0.3-0.1-0.3c-0.1,0.1-0.1,0.4-0.4,0.3l0-0.2l-0.2,0.2c0.1,0.2,0.5,0.1,0.2,0.3
		c-0.3-0.2-0.3,0.2-0.7,0c0.1,0,0.2-0.2,0.3-0.3c-0.8-0.2-1.1,0.2-1.9,0c-0.4,0.2-0.9,0.2-1.2,0.4c0-0.2,0-0.4,0.2-0.6
		c-0.3,0-0.5,0.5-0.7,0.1c-0.2,0.3-1,0.2-1.1,0.6c0-0.1-0.4,0,0-0.2c-0.5,0.1-0.6-0.4-0.8-0.4c-0.1,0,0.1,0.3-0.2,0.2
		c0,0,0-0.1-0.1-0.1l-0.1,0.1c-0.1-0.1,0.2-0.2,0.2-0.3c-0.3-0.1-0.7,0.1-1.1,0l0.1,0l-0.4-0.2h0l-0.4,0l0-0.1c-0.1,0-0.1,0.1-0.3,0
		l0.1-0.1c-0.2,0.1-0.7,0-0.8-0.1v-0.1l-0.3,0c-0.1,0-0.1,0-0.2,0.1c-0.1-0.2,0.3-0.2,0-0.2c0-0.1,0.1-0.2,0.2-0.2
		c-0.3,0-0.4-0.1-0.6,0.1c0.1,0.1,0.2,0.1,0.2,0.2c-0.1-0.1-0.2-0.1-0.2,0c0,0.1,0,0.2,0,0.3c0-0.1,0.1-0.1,0-0.2
		c0.1,0,0.1,0.1,0.1,0.1c0-0.1,0-0.1,0-0.2c0,0.1,0,0.1,0.1,0.2c0-0.1,0.1-0.1,0.2-0.1c0,0.2,0.1,0.1,0,0.3c0,0,0.1,0,0.1,0
		c0.1,0.1,0.2,0.2,0.4,0.1c0.1,0.2-0.3,0-0.2,0.1c1,0.5,2.2,0.9,3.3,1.1l-0.1,0.1c0.1-0.1,0.3-0.1,0.4-0.2c0.2,0.2,0.9,0.5,1.2,0.1
		c0,0,0,0.1,0,0.1c0.4,0,1,0.2,1.6,0.1c0.2-0.4,0.8,0.2,1-0.3l-0.1,0.1c-0.2-0.1,0.2-0.3,0.3-0.4c0.1,0.3,0,0.2,0.2,0.5l-0.2-0.1
		l0,0.2c0.6-0.7,1.2,0.3,1.6-0.2c0,0,0,0.1,0,0.1c0.3,0.1,0.5-0.2,0.7-0.3c0,0.1-0.1,0.2-0.2,0.3c0.5,0.1,1.3-0.3,1.8-0.2
		c0.2-0.2-0.1-0.2,0.1-0.4c0.2,0,0.3,0.1,0.1,0.3c0.5,0.3,1.5-0.4,2.2-0.1c0.3-0.2,0.1-0.3,0.7-0.4c-0.1,0.1,0.2,0.4-0.2,0.4l0,0.1
		c0.5,0,1.2,0,1.5-0.4c0,0.3,0.1,0.1,0.3,0.2c0.1,0,0,0,0-0.1c0.2-0.2,0.3,0,0.4,0l0,0.1l0.4-0.1c0.1,0,0.2,0.1,0.2,0.2l0-0.2
		c0.2,0,0.1,0.2,0.3,0.2l0-0.1c0.1,0.1,0.4-0.1,0.4,0.2c0,0,0,0-0.1,0c0.2,0.3,0.7,0,0.9,0.2V164c0.3,0,0.2,0.1,0.1,0.2
		c0.2,0.1,0.2,0.2,0.5,0.2c0.2,0,0.1-0.1,0.2-0.2l0.2,0.1l-0.2,0.1c0.5-0.3,1,0.4,1.4,0.1c0.1,0.1-0.2,0.1-0.1,0.2
		c0.4,0.4,1.2,0.1,1.4,0.5c0.5,0.5,1.3,0.7,1.8,1.2l0-0.1l0.4,0.4c0.2-0.1,0.5,0.2,0.8,0.2c-0.1,0-0.1,0.1-0.2,0.1
		c0.2,0.1,0.4,0.2,0.5,0.4h-0.1c0.3,0.4,0.8,0.9,1.1,1c0.1,0.1,0,0.2,0,0.3c0.2,0.2,0.4,0.3,0.6,0.4c0,0.1,0,0.1,0,0.2l0.2,0
		c0.1,0.1-0.1,0.1-0.1,0.2c0.5,0.2,0.7,0.8,0.9,1l0.1-0.1c0.1,0.1,0.2,0.4,0,0.3c0.3,0.6,0.8,0.6,1.3,1.3c-0.2,0.3,0.6,0.6,0.3,0.9
		c0.3,0.2,0.3,0.5,0.7,0.6c0,0,0,0.1-0.1,0c0,0.2,0.3,0.5,0.6,0.8l-0.1,0.1c0.3,0,0.6,0.6,0.9,0.5c0,0.1-0.1,0-0.2,0
		c-0.1,0.3,0.3,0.2,0.4,0.5c-0.1,0-0.1,0.1-0.2,0.1c0.2,0.9,1.2,1.7,1.5,2.7c0.1,0.3,0.2-0.2,0.4,0.1c-0.1,0.2-0.3-0.1-0.3,0.2
		c0.2,0.1,0.2,0.2,0.3,0.4c-0.1,0-0.1,0.1-0.3-0.1c-0.1,0.2,0.4,0.5,0.3,0.8c0.1,0,0.1,0,0.2,0c0.4,0.3,0.1,0.9,0.2,0.9
		c0,0,0.1,0.1,0.1,0c0,0.1,0.1,0.4-0.1,0.4c0.1,0.1,0.2,0.1,0.3,0.2l-0.2,0c0.1,0.1,0.2,0.1,0.2,0.2l0.1-0.1c-0.1,0.2,0.3,0.4,0,0.5
		l0-0.1l-0.1,0.3c0.2,0.1,0.3,0.2,0.3,0.4c-0.1,0-0.1,0.1-0.1,0.1c0,0,0,0,0,0c0,0,0.1,0.1,0.1,0.1l-0.1-0.1
		c0.2,0.1,0.1,0.2,0.1,0.2c0,0.1-0.1,0-0.2-0.2c0,0.1,0,0.1,0,0.1c0,0,0,0.1,0,0.1c0-0.1-0.1-0.2,0-0.3c0,0.2-0.1,0.1-0.1,0.1
		c-0.1-0.1-0.2-0.2-0.3,0c-0.2-0.1-0.1-0.2-0.2-0.3c-0.3,0.1-0.6-0.1-0.8-0.3v0c-0.2-0.1-0.6-0.1-1-0.3l0-0.3c-0.2,0-0.4,0.2-0.5,0
		c0-0.1,0-0.1,0.1-0.1c-0.2,0-0.4-0.2-0.5-0.3c-0.3,0.1-0.5-0.1-0.8,0c0-0.3,0.3,0,0.3-0.3c-0.2-0.3-0.5-0.3-0.8-0.5
		c0-0.1,0.1-0.1,0.2-0.1c0,0-0.2,0-0.5-0.1c-0.3-0.1-0.6-0.2-0.7-0.1c-0.2,0-0.4-0.2-0.4,0.3c0.2,0.1,0.5,0.4,0.3,0.6l0.2-0.1
		c0.2,0.2,0.2,0.3,0.1,0.4c-0.1,0.1-0.2,0.2,0.2,0.5c0-0.1,0-0.1-0.1-0.2c0.1,0.1,0.3,0.1,0.4,0.2c0,0.1-0.1,0-0.2,0
		c0.2,0.1,0.5,0.1,0.7,0.1c0,0.1-0.1,0.2-0.2,0.2c0.5,0.3,0.1-0.4,0.6,0c0.1,0.1-0.1,0.1-0.2,0.1c0.2,0.3,0.5,0.2,0.8,0.2
		c-0.1,0.2-0.2,0.1-0.1,0.3c0-0.1,0-0.3,0.2-0.2c-0.2,0.1,0.1,0.1,0.2,0.2c0-0.1,0-0.1,0.1-0.2c0.1,0,0.1,0.1,0.2,0.1l-0.1-0.2
		c0.3-0.1,0.4,0.3,0.5,0.4c0,0-0.1,0-0.1,0c0.2,0.2,0.3,0.4,0.7,0.4h0c0.6,0.1,0-0.4,0.7-0.2c0.2,0.1-0.4,0.5,0.2,0.5
		c-0.1-0.3,0.5-0.2,0.8-0.1c-0.1,0.1-0.3,0.1-0.4,0.2c0.2,0.1,0.4,0.1,0.5,0.2v-0.1c0-0.3,0.3,0.1,0.5,0.2c0,0,0.1,0,0.1,0
		c0,0.1,0,0.2,0,0.3c-0.2,0.2-0.2,0.1-0.2,0.6c0.1,0,0.2-0.1,0.3-0.1c0.1-0.1,0.1-0.2,0.2-0.3c0.1,0,0.2-0.2,0.3-0.3
		c0,0.2-0.1,0.4-0.2,0.6c0.3-0.2,0.6-0.6,0.7-1c0.1-0.4-0.1-0.9-0.2-1.1c0.2,0.2,0.3,0,0.5,0.3c0-0.3,0-0.5-0.1-0.8
		c0.1,0.1,0.2,0.1,0.3,0.2c-0.2-0.2-0.2-0.4-0.3-0.5c0-0.1-0.1-0.1-0.3-0.1c0.1,0.1,0.1,0,0.1,0.1c-0.1,0-0.4-0.1-0.4-0.3
		c0-0.2,0.2,0.1,0.2,0c-0.2-0.1,0-0.2-0.1-0.3l-0.1,0.2c-0.2-0.1-0.1-0.3-0.2-0.4c0.1,0.2,0.2,0.1,0.3,0l0,0c0-0.1-0.2-0.2-0.1-0.4
		l0.3,0l-0.2-0.1c0-0.1,0.1-0.1,0.2-0.1c0-0.6-0.6,0.2-0.5-0.6c0.1,0,0.2,0,0.2,0.2c0.2,0,0.3-0.1,0.3-0.3c0,0,0,0,0,0
		C90.8,180.1,90.6,179.7,90.3,179.5L90.3,179.5z"/>
	<path class="st0" d="M90.8,180.6c0.1,0.2,0.1,0.4,0.2,0.4C91.1,180.9,91,180.5,90.8,180.6z"/>
	<path class="st0" d="M69,162.6C69,162.6,69,162.6,69,162.6L69,162.6z"/>
	<path class="st0" d="M67.4,162.8C67.4,162.8,67.4,162.9,67.4,162.8C67.5,162.8,67.5,162.8,67.4,162.8z"/>
	<path class="st0" d="M82.8,168L82.8,168L82.8,168z"/>
	<path class="st0" d="M75,162.9c-0.2,0.1-0.2,0.1-0.3,0.2C74.8,163.1,74.9,163.1,75,162.9z"/>
	<path class="st0" d="M77.9,164.2C77.9,164.2,78,164.2,77.9,164.2C77.9,164.2,77.9,164.2,77.9,164.2z"/>
	<path class="st0" d="M83.2,168.3c-0.2,0-0.3-0.2-0.4-0.3C83,168.1,83.1,168.3,83.2,168.3z"/>
	<polygon class="st0" points="65.5,163.3 65.7,163.2 65.5,163.3 	"/>
	<path class="st0" d="M67,163.1c0.1,0,0.3-0.1,0.2-0.2C67.1,163,67.1,163,67,163.1z"/>
	<polygon class="st0" points="72.7,163.1 72.8,162.9 72.6,163 	"/>
</g>
<g>
	<polygon class="st0" points="79.8,226.8 79.8,227 80.2,226.9 	"/>
	<path class="st0" d="M82.6,227.4c0.3-0.1,0.7-0.2,0.7-0.6l-0.4,0.3c-0.1-0.2-0.3-0.2-0.6-0.1h0.3c-0.1,0,0,0.2-0.1,0.2
		c-0.4-0.1-0.6,0.2-1-0.1l0,0l-0.3,0.1c-0.1-0.1,0-0.1,0-0.2c-0.3,0.1-0.6,0.2-1,0.1c0.2,0.5,0.9-0.1,1.2,0.3l0,0
		C81.8,227.2,82.2,227.5,82.6,227.4L82.6,227.4z"/>
	<path class="st0" d="M81.2,226.9L81.2,226.9C81.2,226.9,81.2,226.9,81.2,226.9z"/>
	<path class="st0" d="M93.5,219.1L93.5,219.1C93.5,219.1,93.5,219.1,93.5,219.1z"/>
	<path class="st0" d="M90.4,222.9L90.4,222.9C90.4,222.8,90.4,222.9,90.4,222.9z"/>
	<path class="st0" d="M91.8,193.9L91.8,193.9C91.8,193.9,91.8,193.9,91.8,193.9C91.8,193.8,91.8,193.8,91.8,193.9l0.1-0.1
		C91.9,193.7,91.8,193.8,91.8,193.9C91.8,193.8,91.8,193.9,91.8,193.9L91.8,193.9L91.8,193.9z"/>
	<path class="st0" d="M90.4,187.2L90.4,187.2L90.4,187.2z"/>
	<path class="st0" d="M90,190.3L90,190.3C89.9,190.4,90,190.3,90,190.3z"/>
	<path class="st0" d="M89.2,188.4c0-0.1,0-0.1,0-0.2C89.2,188.3,89.2,188.3,89.2,188.4z"/>
	<path class="st0" d="M90.4,187.3C90.4,187.3,90.4,187.3,90.4,187.3C90.4,187.3,90.4,187.3,90.4,187.3z"/>
	<path class="st0" d="M90.5,193.2c-0.1,0-0.2,0-0.2,0C90.4,193.3,90.5,193.3,90.5,193.2z"/>
	<path class="st0" d="M88.9,187.9c0,0,0-0.1,0-0.1C88.9,187.8,88.9,187.9,88.9,187.9z"/>
	<path class="st0" d="M83.1,227.4c-0.1,0-0.1,0-0.2,0C83,227.4,83,227.4,83.1,227.4z"/>
	<path class="st0" d="M93,204.6C93,204.6,93,204.5,93,204.6C93,204.6,93,204.6,93,204.6z"/>
	<path class="st0" d="M91.1,198.2L91.1,198.2C91,198.2,91,198.2,91.1,198.2L91.1,198.2L91.1,198.2z"/>
	<path class="st0" d="M91.8,199.9C91.8,199.9,91.8,199.9,91.8,199.9C91.8,200,91.8,200,91.8,199.9z"/>
	<path class="st0" d="M90.2,196.8C90.2,196.8,90.2,196.8,90.2,196.8L90.2,196.8z"/>
	<path class="st0" d="M90.1,195.1c-0.1,0.1-0.1,0-0.2-0.1c-0.1,0.5,0.2,0.6,0.1,1c0-0.1,0-0.1,0.1-0.2c0.2,0.3,0.4,0.7,0.3,1
		l-0.1-0.1c0.2,0.2,0.1,0.7,0.3,0.7c0.1-0.1,0.1-0.1,0.2-0.2l0.4,0.5l-0.2,0.2l0.2,0.2c0.1-0.1,0.1,0.4,0.3,0.3c0,0.2-0.2,0-0.4,0
		c0.1,0.1,0,0.2,0.2,0.3l-0.2,0.2l0.3,0.3c0,0,0,0-0.1,0c0.3,0.1,0.1,0.5,0.5,0.6c0,0,0,0,0,0c0.2,0.1,0.2,0.4,0.2,0.6
		c0.1,0.2,0.3,0,0.4,0c0.1,0.7,0.1,0.4,0.5,0.9c-0.2,0.4-0.6-0.2-0.7,0.2c0.2,0,0.4,0.3,0.5,0.6c0,0.3,0,0.8-0.1,1.2l0.2-0.1
		l0.2,0.4l-0.4-0.2c0.1,0.1,0.3,0.2,0.4,0.3c0.3,0.4-0.4,0.4,0,0.6c0,0,0,0-0.1,0.1c0.2,0.1,0.2,0.4,0.3,0.7l-0.3-0.1V205
		c-0.2,0.2,0.1,0.3,0.1,0.6c0.1,0.2,0.3,0.1,0.4,0.2c0,0.1,0.1,0.2,0,0.3c-0.1,0.2-0.3,0.1-0.4,0c0.3,0.1,0.3,0.2,0.5,0.5
		c-0.1,0-0.2,0-0.2,0c0,0.1,0.1,0.1,0.2,0.1l-0.1,0.1c-0.2,0.4,0.5,0.4,0.5,0.9c-0.2-0.1,0.1,0.4-0.1,0.6c-0.1-0.2-0.4,0.1-0.6,0
		c-0.1,0.4,0.3,0.1,0.4,0.5l-0.3-0.1c0.2,0.3,0.2,0.1,0.3,0.4c-0.1-0.1-0.1,0.1-0.2,0c0,0.4,0,0.3,0,0.7l0.3,0
		c0,0.1-0.1,0.2-0.2,0.2c0-0.1,0-0.1,0-0.1c-0.3,0.1,0.2,0.2-0.1,0.4c0.1,0,0.2-0.1,0.3,0.1c-0.2-0.1-0.2,0.2-0.3,0.2
		c0.1-0.1,0.1,0.3,0.3,0.4c-0.2,0.2-0.2-0.1-0.3-0.1c0.3,0.1,0,0.6,0.2,0.8c0,0,0,0-0.1,0c0.1,0.2,0.2,0.5,0.3,0.9l-0.2-0.1
		c-0.1,0.4,0.4,0.3,0.3,0.6c-0.2-0.1-0.1,0.5-0.3,0.4c0.1,0.2,0.2,0.4,0.4,0.6c-0.2,0.2-0.3-0.4-0.4-0.2l0.1,0.3l-0.1,0
		c0.1,0,0.1,0.3,0.2,0.3c-0.2,0-0.3,0.1-0.4,0.1c0,0.2-0.2,0.4-0.1,0.5h-0.1c0.3,0.2,0,0.5,0.3,0.7l-0.2,0.1c0,0.2,0.3,0.3,0.3,0.4
		c0,0.1,0,0.2-0.1,0.3c-0.1-0.4-0.3,0.1-0.4,0.1c0,0.1-0.1,0.5,0,0.7c-0.1-0.2-0.3-0.1-0.2-0.4c-0.3,0.1-0.1,0.4-0.2,0.7l-0.1-0.1
		c-0.1,0.5,0.2,0.6,0.3,0.9c-0.2,0-0.2-0.1-0.3-0.3c-0.2,0.2-0.3,0.7-0.5,1c-0.2,0-0.2-0.1-0.2-0.2c0,0.4-0.4,0.7-0.2,1
		c-0.1-0.1-0.1,0.1-0.3,0.2c0.1,0,0.1,0.1,0.1,0.1c0,0.2-0.1,0.7-0.3,0.9l0-0.1c-0.3,0.5,0,1-0.6,1.4c-0.1,0.1-0.2-0.2-0.3-0.1
		c0,0.2,0.3,0.3,0,0.5l-0.2-0.1l0.1,0.3c0.2,0,0.3-0.3,0.4,0c-0.3,0.1,0,0.3-0.4,0.5c0-0.1,0-0.3-0.1-0.4c-0.6,0.4-0.5,0.9-1.2,1.2
		c-0.2,0.4-0.5,0.7-0.5,1c-0.1-0.2-0.3-0.3-0.2-0.5c-0.2,0.2,0,0.6-0.4,0.6c0.1,0.3-0.4,0.7-0.1,1c-0.1,0-0.2,0.2-0.2-0.1
		c-0.1,0.4-0.6,0.2-0.7,0.4l0,0c0,0.1,0.3,0.1,0.1,0.3c0,0-0.1,0-0.1,0v0.2c-0.1,0,0-0.3-0.1-0.4c-0.1,0.1-0.2,0.2-0.3,0.3
		s-0.3,0.2-0.5,0.2l0.1-0.1l-0.4,0l0,0l-0.3,0.1v-0.1c-0.1,0-0.1,0.1-0.2,0.1l0-0.1c-0.1,0.2-0.5,0.3-0.7,0.3l0-0.1l-0.4,0.3
		c-0.2-0.1,0.3-0.3-0.2-0.2l0.1-0.3c-0.3,0.1-0.4,0-0.6,0.1c0.1,0.1,0.3,0.1,0.2,0.2c-0.3-0.3-0.4,0.1-0.7,0.2c0.1,0,0.2,0,0.3-0.2
		c0.1,0,0.1,0.1,0.1,0.1l0.2-0.1l0.1,0.2l0.3-0.1c0,0.2,0.3,0,0.2,0.2c0.2-0.1,0.4,0.1,0.6-0.2c0.2,0.1-0.2,0.2-0.1,0.2
		c0.4-0.1,0.8-0.1,1.2-0.1h0.3c0.2,0,0.4,0,0.5,0s0.3-0.1,0.5-0.1c0.1-0.1,0.2-0.3,0.3-0.4c0.1-0.1,0.2-0.2,0.2-0.3c0,0,0,0.1,0,0.2
		c0-0.2,0-0.3-0.1-0.4c0.2,0,0.7-0.3,0.6-0.6c0,0,0,0.1,0,0.1c0.2-0.2,0.7-0.4,1-0.8c-0.1-0.4,0.7-0.3,0.5-0.8v0.1
		c-0.2,0-0.1-0.4-0.1-0.5c0.3,0.1,0.2,0.2,0.5,0.2l-0.2,0.1l0.2,0.1c0-0.4,0.2-0.6,0.5-0.8c0.2-0.1,0.5-0.3,0.4-0.6
		c0,0,0,0.1,0.1,0.1c0.2-0.1,0.1-0.4,0.1-0.6c0.1,0.1,0.1,0.2,0.1,0.3c0.3-0.3,0.4-1.1,0.8-1.4c-0.1-0.2-0.2-0.1-0.2-0.3
		c0.1-0.1,0.3-0.1,0.3,0.1c0.5-0.2,0.5-1.3,1-1.7c0-0.4-0.2-0.2-0.1-0.7c0.1,0.1,0.4,0.1,0.3,0.3l0.1,0.1c0.2-0.4,0.5-1.1,0.3-1.5
		c0.3,0.1,0.1-0.1,0.3-0.2c0-0.1,0,0-0.1,0c-0.2-0.2,0.1-0.3,0.1-0.4l0,0.1l-0.1-0.4c0-0.1,0.1-0.1,0.2-0.1l-0.2-0.1
		c0-0.2,0.3,0,0.3-0.3h-0.2c0.1-0.1,0-0.4,0.2-0.4c0,0,0,0,0,0.1c0.4-0.2,0.1-0.6,0.3-0.9h-0.3c0-0.3,0.1-0.1,0.2-0.1
		c0-0.2,0.1-0.2,0.2-0.4c-0.1-0.1-0.1-0.1-0.2-0.1l0.1-0.2l0.1,0.2c-0.4-0.5,0.2-1-0.2-1.3c0.1-0.1,0.2,0.2,0.2,0.1
		c0.3-0.4-0.2-1.1,0.1-1.4c0.3-0.6,0-1.4,0.2-2.1h-0.1c0-0.1,0-0.3,0-0.5c-0.2-0.1-0.1-0.5-0.4-0.7c0.1,0,0.2,0,0.2,0
		c0-0.2-0.1-0.4,0-0.6l0.1,0.1c0-0.5-0.1-1.1-0.3-1.4c0-0.2,0.1-0.2,0.2-0.2c0-0.3-0.2-0.4-0.3-0.6c0-0.1,0.1-0.1,0.1-0.2l-0.2-0.1
		c0-0.1,0.2-0.1,0.2-0.1c-0.3-0.4-0.2-0.9-0.3-1.2l-0.1,0.1c-0.1-0.1,0-0.4,0.1-0.2c0-0.6-0.5-0.8-0.7-1.6c0.3-0.2-0.3-0.7,0.1-0.9
		c-0.2-0.3-0.1-0.6-0.4-0.7c0,0,0-0.1,0.1,0c0.1-0.2-0.1-0.6-0.3-0.9l0.1-0.1c-0.3,0-0.4-0.6-0.7-0.6c0-0.1,0.1,0,0.2,0.1
		c0.2-0.2-0.2-0.2-0.2-0.5c0.1,0,0.1-0.1,0.2-0.1c0-0.9-1-1.7-1.1-2.5c-0.1-0.2-0.2,0.2-0.3-0.1c0.1-0.1,0.3,0.1,0.3-0.1
		c-0.2-0.1-0.2-0.1-0.2-0.3c0.1,0,0.2,0,0.2,0.1c0.1-0.1-0.3-0.4-0.1-0.6c-0.1,0-0.1,0-0.2-0.1c-0.2-0.3,0.3-0.6,0.1-0.7
		c0,0,0-0.1-0.1,0c0-0.1,0.1-0.2,0.2-0.2c-0.1-0.1-0.2-0.1-0.1-0.2l0.1,0.1c0-0.1-0.1-0.1-0.1-0.2l-0.1,0.1c0,0,0-0.1,0.1-0.1
		c0.1-0.3-0.1-0.6,0.2-0.6v0.1c0.1-0.2,0.1-0.3,0.1-0.4c-0.1-0.1-0.3-0.2-0.3-0.5c0.3-0.1-0.1-0.5-0.1-0.8l0.1,0
		c-0.2-0.2-0.2-0.6-0.3-0.5c0-0.2,0-0.5,0.1-0.4c-0.1-0.2-0.2-0.5-0.4-0.5l0.2-0.4c-0.4-0.1-0.1-0.6-0.5-0.5c0-0.2,0.1-0.2,0.1-0.3
		c-0.3-0.2-0.3-0.4-0.3-0.6l0,0c0-0.2-0.3-0.4-0.4-0.7l0.3-0.1c-0.1-0.1-0.3-0.1-0.3-0.3c0,0,0.1,0,0.1,0c-0.1-0.1,0-0.3,0-0.4
		c-0.2-0.2-0.2-0.4-0.4-0.6c0.3-0.1,0.1,0.2,0.4,0.1c0.2-0.3,0-0.6,0-0.9c0.1,0,0.1,0,0.2,0.1c0,0-0.1-0.2-0.3-0.4
		c-0.1-0.2-0.3-0.5-0.5-0.5c-0.1-0.2-0.2-0.4-0.5-0.1c0,0.2,0.1,0.5-0.2,0.5l0.2,0.1c0,0.5-0.5-0.1-0.6,0.6l0.1-0.1
		c0,0.1,0.1,0.2,0,0.4c-0.1,0-0.1-0.1-0.1-0.1c0.1,0.2,0.2,0.4,0.2,0.5c-0.1,0-0.2,0-0.3-0.1c0,0.5,0.4-0.1,0.3,0.5
		c-0.1,0.1-0.1,0-0.2-0.1c-0.2,0.3,0,0.5,0.2,0.7c-0.2,0-0.2-0.1-0.3,0.1c0.1-0.1,0.2-0.1,0.3,0.1c-0.2-0.1-0.1,0.1-0.1,0.3
		c0.1-0.1,0.2-0.1,0.2,0c0,0.1,0,0.1,0,0.3l0.1-0.2c0.2,0.2,0,0.4,0,0.7c0,0-0.1,0-0.1-0.1c0,0.2-0.1,0.5,0.2,0.7h0
		c0.3,0.4,0.2-0.3,0.6,0.2c0,0.2-0.6,0.1-0.3,0.5c0.1-0.2,0.5,0.1,0.6,0.4l-0.4-0.1c0,0.1,0.2,0.2,0.2,0.3l0.1,0
		c0.3-0.1,0.1,0.3,0.3,0.4c-0.5-0.1-0.4-0.1-0.8-0.1c0.3,0.1,0.5,0.2,0.5,0.5l-0.4-0.2c0,0.2,0.2,0.4,0.3,0.6
		c0.2,0.2,0.4,0.4,0.6,0.5c-0.3,0-0.3,0.1-0.5,0l0.1,0.4l-0.3-0.1c0.3,0.1,0.2,0.3,0.5,0.2c-0.1,0-0.1,0-0.1-0.1
		c0.1,0,0.3,0,0.4,0.2c-0.1,0.1-0.2-0.1-0.2,0c0.2,0.1-0.1,0.1,0.1,0.2c0,0,0.1-0.1,0.1-0.1c0.2,0.1,0,0.2,0.1,0.3
		c-0.1-0.1-0.2-0.1-0.3,0h0c0,0.1,0.1,0.1,0,0.2c-0.1,0-0.2-0.1-0.3-0.1c0.1,0,0.1,0.1,0.2,0.1c0,0.1-0.2,0.1-0.2-0.1
		c-0.3,0.5,0.6,0.1,0.2,0.8c-0.1,0-0.2-0.1-0.1-0.3c-0.2-0.1-0.3-0.1-0.4,0.1c0,0,0,0,0,0C89.9,194.3,89.9,194.8,90.1,195.1
		L90.1,195.1z"/>
	<path class="st0" d="M90,193.9c0-0.2,0.1-0.4,0.1-0.5C90,193.5,89.8,193.9,90,193.9z"/>
	<path class="st0" d="M92.1,218.7C92.1,218.7,92.1,218.7,92.1,218.7L92.1,218.7z"/>
	<path class="st0" d="M91.6,220C91.6,220,91.6,220,91.6,220C91.6,219.9,91.6,219.9,91.6,220z"/>
	<path class="st0" d="M93.5,206.4L93.5,206.4L93.5,206.4z"/>
	<path class="st0" d="M93.4,214c0.1,0.1,0.1,0.2,0.2,0.2C93.6,214.2,93.5,214.1,93.4,214z"/>
	<path class="st0" d="M93.8,211.5C93.8,211.5,93.8,211.5,93.8,211.5C93.7,211.5,93.8,211.5,93.8,211.5z"/>
	<path class="st0" d="M93.2,206.1c0.1,0.1,0.1,0.2,0.2,0.4C93.4,206.4,93.4,206.1,93.2,206.1z"/>
	<polygon class="st0" points="91,221.6 91,221.4 91,221.6 	"/>
	<path class="st0" d="M91.6,220.4c0.1,0,0.1-0.3,0-0.2C91.6,220.2,91.6,220.3,91.6,220.4z"/>
	<polygon class="st0" points="93.6,215.9 93.4,215.9 93.5,216 	"/>
</g>
<g>
	<polygon class="st0" points="36.5,232.6 36.7,232.6 36.5,232.5 	"/>
	<path class="st0" d="M36.8,231.3c-0.1-0.1-0.2-0.4-0.4-0.5l0.2,0.3c-0.2,0-0.2,0.1-0.2,0.3l0-0.1c0,0,0.2,0.1,0.2,0.1
		c-0.2,0.2,0.1,0.3-0.1,0.5l0,0l0.1,0.2c0,0-0.1,0-0.2,0c0.1,0.2,0.2,0.3,0.2,0.5c0.4-0.1-0.3-0.4,0.1-0.6h0
		C36.6,231.7,36.9,231.6,36.8,231.3L36.8,231.3z"/>
	<path class="st0" d="M36.4,232L36.4,232L36.4,232z"/>
	<path class="st0" d="M38.7,223.6L38.7,223.6C38.6,223.6,38.7,223.6,38.7,223.6z"/>
	<path class="st0" d="M37.6,226.2L37.6,226.2C37.5,226.2,37.5,226.2,37.6,226.2z"/>
	<path class="st0" d="M41,210.1h0.1C41.1,210.1,41,210.1,41,210.1z"/>
	<path class="st0" d="M42.9,207.5L42.9,207.5L42.9,207.5z"/>
	<path class="st0" d="M40.9,207.9L40.9,207.9C40.8,207.8,40.9,207.9,40.9,207.9z"/>
	<path class="st0" d="M41.6,206.8C41.6,206.8,41.6,206.8,41.6,206.8C41.6,206.8,41.6,206.8,41.6,206.8z"/>
	<path class="st0" d="M42.9,207.6C42.9,207.6,42.9,207.6,42.9,207.6C42.9,207.5,42.9,207.6,42.9,207.6z"/>
	<path class="st0" d="M39.9,209.3l-0.2-0.1C39.7,209.3,39.8,209.3,39.9,209.3z"/>
	<path class="st0" d="M41.7,206.5C41.7,206.5,41.7,206.5,41.7,206.5C41.7,206.5,41.7,206.5,41.7,206.5z"/>
	<path class="st0" d="M36.9,231.1c0,0,0,0.1,0,0.1C36.9,231.2,36.9,231.2,36.9,231.1z"/>
	<path class="st0" d="M37.3,215.4C37.3,215.4,37.3,215.4,37.3,215.4C37.3,215.4,37.3,215.4,37.3,215.4z"/>
	<path class="st0" d="M38.7,211.7L38.7,211.7C38.7,211.7,38.6,211.7,38.7,211.7L38.7,211.7L38.7,211.7z"/>
	<path class="st0" d="M38.2,212.7L38.2,212.7C38.2,212.7,38.2,212.7,38.2,212.7z"/>
	<path class="st0" d="M38.8,210.9C38.8,210.9,38.8,210.8,38.8,210.9L38.8,210.9z"/>
	<path class="st0" d="M39.3,210.2c-0.1,0-0.1-0.1-0.2-0.1c-0.2,0.1,0,0.3-0.2,0.4l0.1-0.1c0.1,0.2,0,0.4-0.2,0.4l0-0.1
		c0.1,0.2-0.3,0.2-0.2,0.3c0.1,0,0.1,0.1,0.2,0l0,0.4l-0.3-0.1l0,0.2c0.1,0-0.2,0.2,0.1,0.3c-0.1,0-0.2-0.1-0.3-0.2
		c0,0.1-0.1,0.1,0,0.2l-0.3,0l0,0.3c0,0,0,0-0.1,0c0.1,0.2-0.2,0.2,0,0.5c0,0,0,0,0,0c0.1,0.1-0.1,0.3-0.1,0.3
		c0,0.1,0.2,0.1,0.3,0.2c-0.2,0.3-0.1,0.2,0,0.6c-0.4,0.1-0.4-0.4-0.7-0.2c0.1,0.1,0.2,0.3,0.2,0.5c-0.2,0.1-0.3,0.4-0.6,0.5l0.2,0
		l0,0.3l-0.3-0.2c0.1,0.1,0.2,0.2,0.2,0.3c0.1,0.3-0.5,0.1-0.2,0.3h-0.1c0.2,0.1,0,0.2,0.1,0.5l-0.2-0.1l0.1-0.1c-0.3,0,0,0.2,0,0.3
		c0.1,0.1,0.3,0.1,0.4,0.2c0,0,0,0.1,0,0.1c-0.1,0.1-0.3,0-0.4-0.1c0.2,0.1,0.2,0.2,0.3,0.4c-0.1,0-0.2,0-0.2-0.1
		c0,0.1,0.1,0.1,0.2,0.1l-0.2,0.1c-0.2,0.2,0.5,0.3,0.3,0.6c-0.1-0.1,0,0.2-0.2,0.3c0-0.1-0.4,0-0.5-0.1c-0.1,0.2,0.3,0.1,0.4,0.3
		l-0.3-0.1c0.1,0.2,0.2,0.1,0.3,0.2c-0.1-0.1-0.1,0.1-0.2,0c0,0.2,0,0.2-0.1,0.4l0.3,0c0,0.1-0.1,0.1-0.2,0.1c0,0,0-0.1,0-0.1
		c-0.3,0.1,0.2,0.1-0.1,0.2c0.1,0,0.2,0,0.3,0.1c-0.2,0-0.2,0.1-0.3,0.1c0.1-0.1,0.1,0.2,0.3,0.2c-0.2,0.1-0.2,0-0.3,0
		c0.2,0.1,0,0.4,0.2,0.4c0,0,0,0,0,0c0.1,0.1,0.2,0.3,0.4,0.5l-0.2-0.1c-0.1,0.2,0.4,0.1,0.4,0.3c-0.3,0,0,0.3-0.3,0.2
		c0.1,0.1,0.2,0.2,0.4,0.3c-0.1,0.1-0.4-0.2-0.4,0l0.1,0.1l-0.1,0c0.1,0,0.1,0.1,0.2,0.1c-0.2,0-0.3,0.1-0.4,0.1
		c0.1,0.1-0.1,0.2,0.1,0.3h-0.1c0.3,0.1,0.1,0.3,0.4,0.3l-0.2,0.1c0,0.1,0.4,0.1,0.4,0.2c0,0.1,0.1,0.1,0,0.2
		c-0.2-0.2-0.2,0.1-0.4,0.1c0,0.1,0,0.3,0.2,0.3c-0.2-0.1-0.3,0-0.3-0.2c-0.3,0.1,0.1,0.2,0,0.4h-0.2c0.1,0.2,0.4,0.3,0.6,0.4
		c-0.2,0-0.2,0-0.4-0.1c-0.1,0.2,0,0.4,0,0.6c-0.1,0.1-0.2,0-0.3-0.1c0.1,0.2,0,0.4,0.3,0.6c-0.1-0.1-0.1,0.1-0.2,0.1
		c0.1,0,0.1,0,0.1,0c0.1,0.1,0.2,0.4,0.1,0.5l-0.1-0.1c-0.1,0.3,0.5,0.5,0.2,0.9c-0.1,0.1-0.3-0.1-0.3,0c0.1,0.1,0.4,0.1,0.3,0.2
		l-0.2,0l0.2,0.1c0.2,0,0.2-0.2,0.3-0.1c-0.2,0.1,0.2,0.2-0.1,0.3c0-0.1-0.2-0.1-0.2-0.2c-0.3,0.3,0.1,0.6-0.2,0.9
		c0.1,0.2,0.1,0.5,0.2,0.6c-0.2-0.1-0.4-0.1-0.5-0.2c-0.1,0.1,0.4,0.3,0.1,0.4c0.3,0.1,0.1,0.5,0.5,0.6c-0.1,0,0,0.2-0.2-0.1
		c0.1,0.3-0.4,0.2-0.5,0.3c0,0.1,0.3,0,0.2,0.1c0,0-0.1,0-0.1,0l0.1,0.1c-0.1,0-0.2-0.1-0.3-0.1c-0.1,0.1,0.1,0.4,0.1,0.6l-0.1-0.1
		l-0.1,0.2l0,0l0.1,0.2l-0.1,0c0,0,0.1,0.1,0.1,0.1l-0.1-0.1c0.2,0.1,0.2,0.4,0.2,0.4h-0.1l0.2,0.3c-0.2,0.1-0.2-0.2-0.2,0l-0.2-0.1
		c0,0.2-0.1,0.2,0,0.3c0.2,0,0.2-0.1,0.2,0c-0.3,0,0,0.2,0.1,0.4c0-0.1,0-0.1-0.1-0.2c0-0.1,0.1,0,0.2,0l-0.1-0.1l0.2,0l-0.1-0.2
		c0.2,0.1,0.1-0.1,0.3,0c0-0.1,0.1-0.2,0-0.3c0.1,0,0.1,0.2,0.2,0.1c0-0.5,0.2-1,0.4-1.5l0.1,0.1c-0.1-0.1-0.1-0.2-0.2-0.2
		c0.2,0,0.5-0.3,0.2-0.5c0,0,0.1,0,0.1,0c0-0.2,0.3-0.4,0.3-0.7c-0.3-0.2,0.3-0.3-0.2-0.5l0.1,0.1c-0.1,0.1-0.3-0.2-0.4-0.2
		c0.3,0,0.2,0,0.5,0l-0.1,0.1l0.2,0c-0.6-0.4,0.4-0.6,0-0.8c0,0,0.1,0,0.1,0c0.2-0.1-0.1-0.2-0.2-0.4c0.1,0,0.2,0.1,0.3,0.1
		c0.1-0.2-0.2-0.7,0.1-0.9c-0.2-0.1-0.2,0-0.3-0.1c0-0.1,0.2-0.1,0.3,0c0.3-0.2-0.1-0.8,0.2-1.1c-0.2-0.2-0.3-0.1-0.4-0.4
		c0.1,0.1,0.4-0.1,0.4,0.1l0.1,0c0-0.3,0.1-0.7-0.3-0.8c0.3,0,0-0.1,0.2-0.2c0,0,0,0-0.1,0c-0.2-0.1,0-0.1,0-0.2l0.1,0l-0.2-0.2
		c0,0,0.1-0.1,0.2-0.1h-0.2c0-0.1,0.2-0.1,0.2-0.2l-0.1,0c0.1-0.1-0.1-0.2,0.1-0.2c0,0,0,0,0,0c0.3-0.1-0.1-0.3,0-0.5l-0.3,0.1
		c-0.1-0.1,0.1-0.1,0.2-0.1c0-0.1,0.1-0.1,0.1-0.3c-0.1-0.1-0.1,0-0.2-0.1l0.1-0.1l0.2,0.1c-0.5-0.2,0-0.5-0.4-0.6
		c0.1-0.1,0.2,0.1,0.2,0c0.2-0.2-0.3-0.5-0.1-0.8c0.2-0.3,0-0.7,0.2-1.1h-0.1l0.1-0.2c-0.2-0.1-0.1-0.2-0.3-0.4c0.1,0,0.2,0,0.2,0
		c0-0.1-0.1-0.2,0-0.3l0.1,0c0.1-0.2,0.1-0.6,0-0.7c0-0.1,0.1-0.1,0.2-0.1c0-0.1-0.1-0.2-0.2-0.4c0,0,0.1-0.1,0.2-0.1l-0.2-0.1
		c0-0.1,0.2,0,0.2,0c-0.2-0.2,0-0.5,0.1-0.6h-0.1c-0.1-0.1,0.1-0.2,0.2-0.1c0.2-0.3-0.2-0.5-0.1-0.9c0.4,0.1,0-0.4,0.4-0.3
		c-0.1-0.2,0.1-0.2,0-0.4c0,0,0.1,0,0.1,0c0.2,0,0.1-0.3,0.1-0.4l0.1,0c-0.2-0.1,0-0.4-0.3-0.6c0.1,0,0.1,0.1,0.1,0.1
		c0.3,0,0-0.2,0-0.3c0.1,0,0.1,0,0.2,0.1c0.4-0.2,0.2-1,0.6-1.4c0.1-0.1-0.3-0.1-0.2-0.2c0.2,0,0.2,0.2,0.3,0.1
		c-0.1-0.1-0.1-0.2,0-0.3c0.1,0.1,0.1,0.1,0.2,0.2c0.1,0-0.1-0.4,0.2-0.4c-0.1,0-0.1-0.1-0.1-0.1c-0.1-0.3,0.4-0.3,0.3-0.4
		c0,0,0-0.1-0.1,0c0-0.1,0.1-0.1,0.2-0.1c0-0.1-0.1-0.1-0.1-0.2l0.1,0.1c0,0-0.1-0.1-0.1-0.2h-0.1c0.2,0-0.1-0.3,0.2-0.2v0l0.2-0.1
		c-0.1-0.1-0.2-0.2-0.1-0.3c0.3,0.1,0.2-0.2,0.3-0.3l0.1,0.1c-0.1-0.2,0.1-0.3,0-0.3c0-0.1,0.2-0.1,0.2-0.1c0-0.1,0.1-0.2,0-0.4
		l0.3,0c-0.3-0.3,0.3-0.1,0-0.4c0.1,0,0.2,0,0.2,0c-0.1-0.2,0-0.3,0.1-0.4l0,0c0.1-0.1,0-0.3,0.2-0.4l0.2,0.2c0-0.1-0.1-0.3,0-0.3
		c0,0,0,0.1,0,0.1c0-0.1,0.2-0.1,0.2-0.1c0-0.2,0.1-0.2,0-0.5c0.2,0.2,0,0.2,0.2,0.3c0.2,0,0.3-0.2,0.4-0.4c0,0,0.1,0.1,0.1,0.2
		c0,0,0-0.2,0-0.4c0-0.2,0-0.5-0.2-0.6c0-0.2,0-0.4-0.3-0.4c0,0.1-0.1,0.4-0.2,0.2l0.1,0.2c-0.2,0.2-0.2-0.4-0.5-0.2l0.1,0
		c0,0,0,0.2-0.1,0.2c-0.1,0,0-0.1,0-0.1l-0.1,0.4c-0.1-0.1-0.1-0.1-0.1-0.3c-0.2,0.2,0.3,0.3,0,0.4c-0.1,0-0.1-0.1-0.1-0.2
		c-0.2-0.1-0.2,0.1-0.2,0.3c-0.1-0.1,0-0.2-0.2-0.2c0.1,0.1,0.2,0.2,0.1,0.2c-0.1-0.2-0.1,0-0.2,0c0.1,0,0.1,0.1,0.1,0.2
		c0,0.1-0.1,0-0.1,0.1l0.2,0.1c0,0.2-0.2,0.1-0.4,0.1c0,0,0-0.1,0-0.1c-0.1,0-0.4,0-0.3,0.3v0c-0.1,0.4,0.3,0.1,0.2,0.5
		c-0.1,0.1-0.5-0.4-0.4-0.1c0.2,0,0.2,0.4,0.2,0.5l-0.2-0.3c0,0,0,0.2-0.1,0.2l0.1,0c0.3,0.2-0.1,0.1,0,0.3
		c-0.3-0.3-0.2-0.3-0.6-0.6c0.1,0.2,0.2,0.4,0.1,0.6l-0.2-0.3c-0.2,0.2,0.1,0.7,0.2,1c-0.2-0.2-0.3-0.1-0.5-0.3l-0.1,0.2l-0.2-0.2
		c0.2,0.2,0,0.2,0.3,0.4c0,0-0.1-0.1,0-0.1c0.1,0.1,0.3,0.2,0.2,0.3c-0.1,0-0.1-0.1-0.2-0.1c0.1,0.1-0.1,0-0.1,0.1h0.2
		c0.2,0.1-0.1,0.1,0,0.2c0-0.1-0.2-0.1-0.3-0.2h0c0,0.1,0.1,0.2,0,0.2l-0.2-0.2l0.2,0.2c0,0-0.2,0-0.2-0.1c-0.3,0.2,0.6,0.2,0.2,0.5
		c-0.1-0.1-0.2-0.1-0.1-0.2c-0.1-0.1-0.2-0.1-0.3-0.1c0,0,0,0,0,0C39.2,209.8,39.1,210,39.3,210.2L39.3,210.2z"/>
	<path class="st0" d="M39.4,209.7c0-0.1,0.1-0.2,0.1-0.2C39.4,209.4,39.2,209.6,39.4,209.7z"/>
	<path class="st0" d="M37.2,223.7L37.2,223.7L37.2,223.7z"/>
	<path class="st0" d="M37.2,224.4C37.2,224.4,37.3,224.4,37.2,224.4C37.3,224.4,37.2,224.4,37.2,224.4z"/>
	<path class="st0" d="M37.2,216.5L37.2,216.5L37.2,216.5z"/>
	<path class="st0" d="M37,221c0.1,0.1,0.2,0.1,0.2,0.1C37.2,221,37.1,221,37,221z"/>
	<path class="st0" d="M37,219.5C37,219.5,37,219.5,37,219.5C37,219.5,37,219.5,37,219.5z"/>
	<path class="st0" d="M37.1,216.3c0.1,0.1,0.1,0.2,0.1,0.3C37.2,216.5,37.3,216.4,37.1,216.3z"/>
	<polygon class="st0" points="37.5,225.4 37.3,225.3 37.4,225.4 	"/>
	<path class="st0" d="M37.5,224.7c0,0,0-0.2-0.1-0.1C37.4,224.6,37.4,224.6,37.5,224.7z"/>
	<polygon class="st0" points="37.6,222 37.5,221.9 37.6,222 	"/>
</g>
<g>
	<path class="st0" d="M53.5,195.3l0.1,0c0-0.1,0-0.2,0-0.3C53.7,195.1,53.6,195.2,53.5,195.3z"/>
	<path class="st0" d="M54.2,192.4c-0.2-0.2-0.4-0.6-0.7-0.5l0.4,0.3c-0.2,0.1-0.1,0.4,0,0.6c0-0.1-0.1-0.2-0.1-0.3
		c0,0.1,0.2,0,0.2,0.1c0,0.5,0.3,0.6,0,1l0,0c0,0.1,0.1,0.2,0.1,0.4c-0.1,0.1-0.2,0-0.2,0c0,0.3,0.1,0.6-0.2,1
		c0.3,0,0.3-0.3,0.3-0.6c0-0.3,0-0.5,0.2-0.7l0,0C54.2,193.3,54.4,192.8,54.2,192.4L54.2,192.4z"/>
	<path class="st0" d="M54,194L54,194C54,194,54,194,54,194z"/>
	<path class="st0" d="M56.1,179.9L56.1,179.9C56,179.9,56.1,179.9,56.1,179.9z"/>
	<path class="st0" d="M55,184.2L55,184.2C55,184.2,55,184.2,55,184.2z"/>
	<path class="st0" d="M77.2,181.9l0,0.1C77.3,182,77.3,181.9,77.2,181.9z"/>
	<path class="st0" d="M82.5,185.6L82.5,185.6L82.5,185.6z"/>
	<path class="st0" d="M80.6,183L80.6,183C80.6,182.9,80.6,183,80.6,183z"/>
	<path class="st0" d="M82.1,184c0,0,0.1,0.1,0.1,0.1C82.2,184,82.2,184,82.1,184z"/>
	<path class="st0" d="M82.4,185.6C82.4,185.6,82.4,185.6,82.4,185.6C82.4,185.6,82.4,185.6,82.4,185.6z"/>
	<path class="st0" d="M78.3,181l0.1-0.2C78.3,180.8,78.3,180.9,78.3,181z"/>
	<path class="st0" d="M82.6,183.9c0,0,0,0.1,0.1,0.1C82.6,184,82.6,184,82.6,183.9z"/>
	<path class="st0" d="M54.1,192c0,0.1,0,0.1,0.1,0.2C54.2,192.1,54.2,192.1,54.1,192z"/>
	<path class="st0" d="M68.3,175.4C68.3,175.4,68.4,175.4,68.3,175.4C68.3,175.3,68.3,175.4,68.3,175.4z"/>
	<path class="st0" d="M74.3,178.6L74.3,178.6C74.3,178.6,74.3,178.6,74.3,178.6L74.3,178.6z"/>
	<path class="st0" d="M72.7,177.6L72.7,177.6C72.8,177.6,72.7,177.6,72.7,177.6z"/>
	<path class="st0" d="M75.6,179C75.6,179,75.7,179,75.6,179L75.6,179z"/>
	<path class="st0" d="M76.8,179.9c0-0.1,0.1-0.1,0.2-0.2c-0.3-0.3-0.5-0.1-0.8-0.4l0.1,0.2c-0.3,0-0.7-0.1-0.8-0.4l0.1,0
		c-0.3,0.1-0.4-0.4-0.6-0.3c0,0.1-0.1,0.1,0,0.3c-0.2,0-0.4-0.1-0.6-0.1l0.1-0.3l-0.3-0.1c0,0.1-0.3-0.3-0.4,0
		c-0.1-0.2,0.2-0.1,0.3-0.2c-0.2,0-0.1-0.1-0.3-0.1V178l-0.5-0.1c0,0,0,0,0.1-0.1c-0.3,0.1-0.3-0.4-0.8-0.2c0,0,0,0,0,0
		c-0.2,0.1-0.4-0.2-0.5-0.3c-0.2-0.1-0.2,0.2-0.3,0.2c-0.5-0.4-0.3-0.3-1-0.3c-0.1-0.4,0.6-0.2,0.3-0.6c-0.1,0.1-0.4,0.1-0.8,0
		c-0.2-0.2-0.7-0.5-0.8-0.9l-0.1,0.2c-0.1,0-0.3,0-0.4-0.1l0.3-0.2c-0.1,0-0.3,0.1-0.5,0.1c-0.5,0-0.1-0.5-0.6-0.3c0,0,0-0.1,0-0.1
		c-0.2,0.1-0.5,0-0.8,0.1l0.1-0.3l0.2,0.1c-0.1-0.3-0.4,0-0.6,0c-0.2,0.1-0.1,0.3-0.2,0.4c-0.1,0-0.2,0.1-0.3,0
		c-0.2-0.1,0-0.3,0-0.4c-0.1,0.3-0.2,0.3-0.6,0.4c0-0.1,0-0.2,0-0.2c-0.1,0-0.1,0.1-0.2,0.2l-0.1-0.1c-0.4-0.2-0.3,0.6-0.8,0.5
		c0.1-0.1-0.4,0-0.6-0.1c0.2,0-0.1-0.4,0.1-0.6c-0.4-0.1-0.2,0.3-0.5,0.4l0.1-0.3c-0.3,0.1-0.1,0.2-0.4,0.3c0.1-0.1-0.2-0.1,0-0.2
		c-0.4,0-0.3,0-0.7,0v0.3c-0.1,0.1-0.2-0.1-0.2-0.1c0.1,0,0.1,0,0.1-0.1c-0.2-0.3-0.2,0.2-0.4-0.1c0,0.1,0.1,0.2,0,0.3
		c0-0.2-0.3-0.1-0.3-0.2c0.1,0.1-0.3,0.1-0.3,0.3c-0.2-0.1,0-0.2,0-0.3c-0.1,0.3-0.6,0.1-0.7,0.3c0,0,0,0,0,0
		c-0.2,0.2-0.5,0.3-0.7,0.6l0.1-0.2c-0.4,0-0.1,0.4-0.4,0.5c0-0.3-0.5,0.2-0.5-0.1c-0.1,0.2-0.3,0.4-0.3,0.6
		c-0.2-0.1,0.2-0.5-0.1-0.4l-0.2,0.2L59,177c0,0.1-0.2,0.2-0.1,0.3c-0.1-0.1-0.3-0.2-0.3-0.3c-0.1,0.1-0.4,0.1-0.5,0.3l0-0.1
		c0,0.4-0.4,0.3-0.3,0.6l-0.2-0.1c-0.2,0.1,0,0.4-0.1,0.5c-0.1,0.1-0.2,0.1-0.3,0.2c0.2-0.3-0.3-0.2-0.4-0.2
		c-0.1,0.1-0.5,0.2-0.5,0.4c0.1-0.2-0.1-0.3,0.2-0.4c-0.3-0.2-0.4,0.3-0.7,0.4l-0.1-0.1c-0.4,0.3-0.2,0.6-0.2,0.9
		c-0.2-0.1-0.2-0.2-0.2-0.4c-0.2,0.1-0.5,0.4-0.6,0.6c0,0.2,0.1,0.4,0.1,0.5c-0.1,0.1-0.2,0.1-0.3-0.1c0.1,0.3,0.1,0.4,0.1,0.6
		c0,0.2,0.1,0.3,0.2,0.4c-0.1-0.1-0.1,0.1-0.2,0.2c0.1,0,0.1,0,0.1,0.1c0.1,0.2,0.1,0.7,0,0.9l-0.1-0.1c-0.1,0.6,0.4,0.9,0.1,1.5
		c-0.1,0.1-0.3-0.1-0.3,0.1c0.1,0.1,0.4,0.1,0.3,0.4l-0.2,0l0.2,0.2c0.2-0.1,0.1-0.4,0.3-0.2c-0.2,0.3,0.2,0.2,0,0.5
		c0-0.1-0.2-0.1-0.3-0.2c-0.2,0.7,0.3,0.9,0.1,1.6c0.2,0.3,0.2,0.8,0.3,1.1c-0.2-0.1-0.4-0.1-0.5-0.3c-0.1,0.2,0.4,0.5,0,0.6
		c0.2,0.3-0.3,0.8-0.1,1.1c-0.1-0.1-0.3,0.2-0.2-0.2c-0.1,0.2-0.3,0.2-0.4,0.2s-0.3-0.1-0.4,0c-0.1,0.1,0.3,0.1,0.1,0.3
		c0,0-0.1,0-0.1,0l0,0.1c-0.1,0-0.1-0.2-0.2-0.3c-0.3,0.2-0.1,0.6-0.2,0.9l0-0.1c0,0.1-0.1,0.2-0.1,0.4l0,0l0.1,0.3l-0.1,0
		c0,0.1,0.1,0.1,0.1,0.2l-0.1,0c0.2,0.1,0.3,0.4,0.3,0.6l-0.1,0c0.1,0.1,0.2,0.2,0.3,0.4c-0.1,0.2-0.3-0.2-0.2,0.2l-0.3-0.1
		c0.1,0.3,0,0.4,0.2,0.6c0.1-0.1,0.1-0.3,0.2-0.2c-0.3,0.3,0.2,0.4,0.3,0.5c0-0.1-0.1-0.2-0.2-0.2c0-0.1,0.1-0.1,0.1-0.1l-0.2-0.1
		l0.2-0.1l-0.2-0.3c0.2,0,0-0.3,0.2-0.2c-0.1-0.2,0-0.3-0.2-0.5c0.1-0.1,0.2,0.2,0.2,0.1c-0.2-0.7,0-1.5,0.6-1.9l0,0.1
		c0-0.1,0-0.2,0-0.3c0.1,0,0.3-0.1,0.5-0.2c0.2-0.2,0.4-0.4,0.3-0.6c0,0,0,0.1,0,0.1c0.1-0.2,0.3-0.4,0.4-0.7s0.2-0.6,0.2-0.9
		c-0.3-0.2,0.1-0.8-0.4-0.9l0.1,0.1c-0.1,0.2-0.3-0.1-0.5-0.2c0.3-0.2,0.2,0,0.5-0.2l-0.1,0.2l0.2-0.1c-0.7-0.4,0.2-0.9-0.3-1.2
		c0,0,0.1,0,0.1,0c0.1-0.2-0.2-0.4-0.2-0.5c0.1,0,0.2,0.1,0.3,0.2c0.1-0.4-0.2-1,0.1-1.4c-0.1-0.2-0.2,0-0.3-0.1
		c0.1-0.1,0.2-0.2,0.3,0c0.1-0.1,0.1-0.2,0.2-0.3c0-0.2,0-0.4,0-0.6c0-0.4-0.1-0.8,0-1.1c-0.2-0.1-0.3,0-0.4-0.2c0,0,0,0,0,0
		c0.1,0.1,0.3,0.1,0.4,0.2c0,0,0,0,0,0l0.1,0l0,0c0,0,0,0,0,0c0.1-0.1,0.2-0.3,0.2-0.5c0.1,0.2,0.1,0,0.3,0.1c0-0.1,0,0,0,0
		c0-0.3,0.2-0.1,0.3-0.2v0.1l0.2-0.3c0.1,0,0.2,0,0.2,0.1l-0.1-0.2c0.2-0.1,0.2,0.2,0.4,0.1l-0.1-0.1c0.2,0,0.3-0.3,0.4-0.1
		c0,0,0,0-0.1,0.1c0.3,0.2,0.5-0.4,0.8-0.4l-0.2-0.2c0.2-0.2,0.2,0,0.2,0.1c0.2-0.1,0.2,0,0.4-0.1c0.1-0.1,0-0.1,0-0.2l0.2,0
		l-0.1,0.2c0.1-0.6,0.8-0.3,0.9-0.8c0.1,0,0,0.2,0,0.2c0.4,0.1,0.8-0.6,1.2-0.4c0.6,0.1,1.2-0.2,1.8-0.1l0-0.1l0.4,0
		c0.1-0.2,0.4-0.1,0.6-0.3c0,0.1,0,0.2,0,0.2c0.2,0,0.4-0.1,0.5,0c0,0-0.1,0.1-0.1,0.1c0.5,0.1,1.2,0,1.4-0.1c0.2,0,0.2,0.1,0.2,0.2
		c0.3,0,0.4-0.1,0.6-0.3c0,0,0.1,0.1,0.2,0.1l0.1-0.2c0.1,0,0,0.2,0.1,0.2c0.3-0.3,0.7,0,0.9,0v-0.1c0.1-0.1,0.2,0.1,0.1,0.2
		c0.3,0.2,0.8-0.1,1.4,0.3c-0.1,0.4,0.6,0.2,0.5,0.6c0.3,0.1,0.4,0.3,0.7,0.2c0,0,0,0.1-0.1,0.1c0,0.2,0.4,0.3,0.7,0.4l-0.1,0.1
		c0.2-0.2,0.7,0.2,0.9,0c0,0.1-0.1,0.1-0.2,0.1c0,0.3,0.3,0.1,0.5,0.2c0,0.1,0,0.1-0.1,0.2c0.4,0.6,1.6,0.8,2.4,1.4
		c0.2,0.1,0-0.3,0.3-0.1c0,0.2-0.3,0.2-0.1,0.3c0.2-0.1,0.2,0,0.4,0.1c-0.1,0.1-0.1,0.1-0.2,0.1c0.1,0.1,0.5,0,0.6,0.3
		c0-0.1,0.1-0.1,0.2-0.1c0.4-0.1,0.5,0.6,0.6,0.5c0,0,0.1,0,0-0.1c0.1,0.1,0.2,0.2,0.1,0.3c0.1,0,0.2-0.1,0.3-0.1l-0.1,0.1
		c0.1,0,0.2-0.1,0.2,0l0-0.1c0.1,0.2,0.5,0.1,0.3,0.3l0,0l0.1,0.3c0.1,0,0.3-0.1,0.4,0.1c-0.1,0.3,0.3,0.3,0.5,0.5l-0.1,0.1
		c0.2,0,0.5,0.3,0.5,0.2c0.1,0.1,0.3,0.3,0.1,0.3c0.2,0,0.4,0.2,0.5,0.1l0,0.4c0.4-0.2,0.3,0.5,0.6,0.2c0.1,0.2,0,0.2,0.1,0.4
		c0.3,0,0.5,0.2,0.8,0.4v0c0.2,0.2,0.6,0.1,1,0.2v0.3c0.2,0,0.3-0.2,0.5-0.1c0,0.1,0,0.1-0.1,0.1c0.2,0,0.4,0.1,0.6,0.2
		c0.3-0.2,0.5-0.1,0.8-0.4c0.2,0.3-0.3,0.1-0.1,0.4c0.4,0.1,0.8-0.1,1.2-0.3c0,0.1,0,0.1,0,0.2c0,0,0.7-0.9,0.4-1.2
		c0.1-0.2,0.1-0.4-0.2-0.4c-0.1,0.1-0.3,0.4-0.4,0.1l0,0.2c-0.4,0.2-0.1-0.4-0.6-0.4l0.1,0.1c-0.1,0-0.2,0.2-0.3,0.1
		c0-0.1,0-0.1,0.1-0.1c-0.1,0.1-0.2,0.2-0.4,0.3c0-0.1,0-0.2,0.1-0.3c-0.3,0,0.1,0.4-0.4,0.3c-0.1-0.1,0-0.1,0.1-0.2
		c-0.2-0.2-0.3,0-0.6,0c0-0.2,0.2-0.1,0-0.3c0,0.1,0,0.3-0.1,0.3c0.1-0.2-0.1-0.1-0.2-0.2c0,0.1,0,0.2-0.1,0.2
		c-0.1,0-0.1-0.1-0.2-0.1c0,0.1,0.1,0.2,0.1,0.2c-0.3,0.1-0.3-0.2-0.4-0.4c0,0,0.1,0,0.1,0c-0.1-0.1-0.2-0.4-0.5-0.3h0
		c-0.4-0.1-0.1,0.4-0.6,0.2c-0.1-0.1,0.5-0.4,0-0.5c0,0.2-0.5,0.1-0.7,0l0.4-0.1c-0.1-0.1-0.3-0.1-0.3-0.2l0,0.1
		c-0.2,0.2-0.2-0.2-0.5-0.2c0.4-0.2,0.4-0.1,0.7-0.4c-0.3,0.1-0.6,0.1-0.8-0.2l0.4-0.1c-0.3-0.3-1-0.3-1.4-0.3
		c0.2-0.1,0.2-0.3,0.4-0.4l-0.4-0.2l0.3-0.1c-0.3,0.1-0.3-0.1-0.5,0.2c0.1,0,0.1-0.1,0.1,0c-0.1,0.1-0.3,0.2-0.4,0.1
		c-0.1-0.1,0.2-0.1,0.2-0.2c-0.2,0-0.1-0.2-0.2-0.1v0.2c-0.2,0.1-0.2-0.1-0.3-0.1c0.2,0,0.2-0.1,0.2-0.2v0c-0.1-0.1-0.3,0-0.3-0.1
		l0.2-0.2l-0.2,0.1c0-0.1,0-0.2,0.1-0.2c-0.3-0.4-0.3,0.5-0.7,0c0.1-0.1,0.2-0.1,0.3,0c0.1-0.1,0.1-0.2,0-0.4c0,0,0,0,0,0
		c-0.3-0.2-0.6-0.4-0.9-0.3L76.8,179.9z"/>
	<path class="st0" d="M77.7,180.2c0.2,0.1,0.3,0.2,0.3,0.2C78.1,180.3,77.8,180.1,77.7,180.2z"/>
	<path class="st0" d="M54.6,179.9c0,0,0-0.1,0-0.1L54.6,179.9z"/>
	<path class="st0" d="M54.7,181.2C54.7,181.2,54.8,181.2,54.7,181.2C54.8,181.1,54.7,181.1,54.7,181.2z"/>
	<path class="st0" d="M66.2,175.5L66.2,175.5L66.2,175.5z"/>
	<path class="st0" d="M58.7,176.7c-0.1,0.1-0.1,0.2-0.1,0.3C58.7,176.9,58.7,176.8,58.7,176.7z"/>
	<path class="st0" d="M61.2,175.9C61.2,175.9,61.2,175.8,61.2,175.9C61.2,175.8,61.2,175.9,61.2,175.9z"/>
	<path class="st0" d="M66.6,175.3c-0.1,0.1-0.3,0.1-0.4,0.2C66.3,175.4,66.6,175.4,66.6,175.3z"/>
	<polygon class="st0" points="54.8,182.8 54.7,182.7 54.8,182.8 	"/>
	<path class="st0" d="M54.9,181.6c0-0.1,0-0.3-0.1-0.2C54.9,181.4,54.9,181.5,54.9,181.6z"/>
	<polygon class="st0" points="57.3,178 57.3,177.9 57.2,178 	"/>
</g>
<g>
	<path class="st0" d="M49.2,196.4l0-0.1c-0.1,0-0.1,0.1-0.2,0.1L49.2,196.4z"/>
	<path class="st0" d="M48.6,195.6c-0.2,0-0.4-0.2-0.7,0c0.1,0,0.2,0.1,0.3,0.1c-0.2,0.1-0.1,0.3,0,0.3l-0.1-0.1c0,0,0.1-0.1,0.2-0.1
		c0,0.2,0.3,0.1,0.2,0.4h0c0.1,0,0.1,0,0.2,0c0,0.1-0.1,0.1-0.1,0.1c0.2,0,0.3-0.1,0.4,0c0-0.2,0-0.2-0.2-0.2c-0.1,0-0.2,0-0.1-0.2
		h0C48.6,195.9,48.7,195.6,48.6,195.6L48.6,195.6z"/>
	<path class="st0" d="M48.7,196.3L48.7,196.3C48.7,196.3,48.7,196.3,48.7,196.3z"/>
	<path class="st0" d="M45.3,190.9L45.3,190.9C45.2,190.9,45.2,190.9,45.3,190.9z"/>
	<path class="st0" d="M44.6,193.2L44.6,193.2C44.5,193.2,44.5,193.2,44.6,193.2z"/>
	<path class="st0" d="M46.1,178h0.1C46.1,178,46.1,178,46.1,178z"/>
	<path class="st0" d="M47.3,175L47.3,175L47.3,175z"/>
	<path class="st0" d="M45.6,175.9L45.6,175.9C45.5,175.9,45.6,175.9,45.6,175.9z"/>
	<path class="st0" d="M45.8,174.9C45.8,174.9,45.9,174.8,45.8,174.9C45.8,174.8,45.8,174.8,45.8,174.9z"/>
	<path class="st0" d="M47.3,175C47.3,175,47.3,175,47.3,175C47.3,175,47.3,175,47.3,175z"/>
	<path class="st0" d="M44.9,177.4l-0.2,0C44.7,177.3,44.8,177.4,44.9,177.4z"/>
	<path class="st0" d="M45.8,174.5C45.8,174.5,45.8,174.5,45.8,174.5C45.8,174.5,45.8,174.5,45.8,174.5z"/>
	<path class="st0" d="M48.5,195.4C48.5,195.4,48.5,195.5,48.5,195.4C48.5,195.4,48.5,195.4,48.5,195.4z"/>
	<path class="st0" d="M43,183.3C43,183.3,43,183.3,43,183.3C43,183.3,43,183.3,43,183.3z"/>
	<path class="st0" d="M43.9,179.7L43.9,179.7C43.9,179.7,43.9,179.7,43.9,179.7L43.9,179.7z"/>
	<path class="st0" d="M43.6,180.7L43.6,180.7C43.6,180.7,43.6,180.7,43.6,180.7z"/>
	<path class="st0" d="M43.9,178.9C43.9,178.9,43.9,178.8,43.9,178.9L43.9,178.9z"/>
	<path class="st0" d="M44.4,178.2c-0.1,0-0.1-0.1-0.2-0.1c-0.2,0.1,0.1,0.3-0.2,0.4l0.1-0.1c0.1,0.2,0.1,0.4-0.2,0.4l-0.1-0.1
		c0.1,0.2-0.2,0.2-0.1,0.4c0.1,0,0.1,0.1,0.2,0l0.1,0.4l-0.3-0.1l0,0.2c0.1,0-0.1,0.2,0.1,0.3c-0.1,0.1-0.2-0.1-0.3-0.2
		c0,0.1-0.1,0.1,0.1,0.2h-0.3l0.1,0.3c0,0,0,0-0.1,0c0.2,0.2-0.2,0.2,0.1,0.5c0,0,0,0,0,0c0.2,0.1,0,0.3-0.1,0.3
		c0,0.1,0.2,0.1,0.3,0.1c-0.2,0.3-0.1,0.2,0.1,0.6c-0.3,0.1-0.5-0.3-0.7-0.1c0.1,0.1,0.2,0.2,0.2,0.4c-0.1,0.1-0.3,0.4-0.5,0.5h0.2
		l0.1,0.3l-0.3-0.2c0.1,0.1,0.2,0.2,0.3,0.3c0.2,0.3-0.5,0.1-0.2,0.3l-0.1,0c0.2,0.1,0.1,0.2,0.1,0.4l-0.3-0.1l0.1-0.1
		c-0.3,0.1,0,0.2,0,0.3c0.1,0.1,0.3,0.1,0.4,0.1c0,0,0.1,0.1,0,0.1c-0.1,0.1-0.3,0-0.4,0c0.3,0.1,0.2,0.1,0.4,0.3
		c-0.1,0-0.2,0-0.2,0c0,0,0.1,0.1,0.2,0.1l-0.1,0.1c-0.2,0.3,0.5,0.2,0.5,0.4c-0.2-0.1,0.1,0.2-0.1,0.3c-0.1-0.1-0.4,0.1-0.5,0.1
		c-0.1,0.2,0.3,0,0.4,0.2h-0.3c0.2,0.1,0.2,0,0.3,0.1c-0.1,0-0.1,0.1-0.2,0c0,0.2,0,0.2,0,0.4l0.3-0.1c0,0.1-0.1,0.1-0.1,0.1
		c0,0,0-0.1,0-0.1c-0.2,0.1,0.2,0.1,0,0.2c0.1-0.1,0.2-0.1,0.3,0c-0.2,0-0.2,0.2-0.2,0.2c0.1-0.1,0.1,0.1,0.3,0.1
		c-0.1,0.1-0.2,0-0.3,0c0.3,0,0.1,0.3,0.3,0.3c0,0,0,0,0,0c0.2,0.1,0.2,0.2,0.5,0.4l-0.2,0c0,0.2,0.4,0.1,0.4,0.2
		c-0.3,0,0,0.3-0.2,0.2c0.2,0.1,0.2,0.2,0.5,0.2c-0.1,0.1-0.4-0.1-0.4,0l0.1,0.1l-0.1,0c0.1,0,0.1,0.1,0.2,0.1
		c-0.2,0-0.3,0.1-0.4,0.1c0.1,0.1-0.1,0.2,0,0.3H44c0.3,0.1,0.1,0.3,0.4,0.3l-0.2,0.1c0,0.1,0.4,0.1,0.4,0.2c0,0.1,0,0.1,0,0.2
		c-0.2-0.2-0.3,0.1-0.4,0.1c0,0.1,0,0.3,0.2,0.3c-0.2-0.1-0.3-0.1-0.3-0.2c-0.3,0.1,0.1,0.2,0,0.4H44c0.1,0.2,0.3,0.3,0.6,0.4
		c-0.2,0-0.2,0-0.4-0.1c-0.1,0.1,0,0.4-0.1,0.6c-0.1,0-0.2,0-0.3-0.1c0.1,0.2-0.1,0.4,0.2,0.6c-0.1-0.1-0.1,0.1-0.2,0.1
		c0.1,0,0.1,0,0.1,0c0.1,0.1,0.2,0.4,0.1,0.5l-0.1-0.1c0,0.2,0.1,0.3,0.2,0.4c0.1,0.1,0.2,0.2,0.1,0.4c0,0.1-0.3,0.1-0.2,0.2
		c0.1,0,0.3-0.1,0.4,0l-0.2,0.1c0.1,0,0.2,0,0.2-0.1c0.1-0.2,0-0.2,0.2-0.3c-0.1,0.2,0.2-0.1,0.1,0.1c0,0-0.2,0.1-0.3,0.2
		c0.1,0.2,0.2,0.2,0.4,0.2c0.1,0,0.2-0.1,0.4,0.1c0.2-0.2,0.4-0.2,0.6-0.4c0,0.2,0,0.4-0.1,0.6c0.1,0,0.3-0.4,0.3-0.1
		c0.1-0.3,0.5-0.1,0.7-0.4c0,0.1,0.2,0.1-0.1,0.2c0.3,0,0,0.5,0.1,0.5c0,0,0.1-0.2,0.2-0.1c0,0,0,0.1,0,0.1l0.1,0
		c0,0.1-0.2,0.1-0.3,0.2c0,0.2,0.4,0.1,0.5,0.2h-0.1l0.1,0.2h0l0.2,0.1l-0.1,0.1c0,0,0.1,0,0.1,0l-0.1,0c0.2-0.1,0.4,0.1,0.4,0.2
		l0,0l0.3,0.1c-0.1,0.2-0.3,0-0.2,0.2l-0.3,0.1c0.2,0.1,0.1,0.2,0.2,0.3c0.1-0.1,0.1-0.2,0.2-0.2c-0.2,0.2,0.2,0.1,0.3,0.2
		c0-0.1,0-0.1-0.2-0.1c0-0.1,0.1-0.1,0.1-0.1l-0.2,0l0.2-0.1l-0.2-0.1c0.2-0.1,0-0.1,0.2-0.2c-0.1-0.1,0-0.2-0.3-0.2
		c0.1-0.1,0.2,0.1,0.2,0c-0.4-0.4-0.6-0.9-1-1.4l0.1,0c-0.1,0-0.2,0-0.3,0.1c0-0.2-0.4-0.7-0.6-0.4c0,0,0-0.1,0.1-0.1
		c-0.2,0-0.7-0.3-0.9-0.2c0,0.2-0.1,0.1-0.2,0.1s-0.1-0.1-0.1,0.2c0,0,0-0.1,0-0.1c0,0.1-0.1,0.3-0.1,0.4c0-0.3,0-0.2,0.1-0.5
		c0,0,0,0.1,0,0.1l0-0.2c-0.1,0.3-0.2,0.2-0.1,0.1c0-0.1,0.1-0.2-0.1,0c0,0,0.1,0,0.1-0.1c0.1-0.1-0.2,0.1-0.3,0.1
		c0.1-0.1,0.2-0.1,0.3-0.1c0,0,0,0-0.1,0c-0.1,0-0.1-0.2,0-0.2c-0.2-0.1-0.2,0-0.3-0.1c0-0.1,0.2-0.1,0.3,0c0.3-0.1-0.1-0.6,0.2-0.9
		c-0.2-0.2-0.3-0.1-0.3-0.4c0.1,0.1,0.4,0,0.4,0.1l0.1,0c0.1-0.2,0.1-0.6-0.2-0.8c0.3,0,0.1,0,0.2-0.1c0,0,0,0-0.1,0
		c-0.2-0.1,0-0.1,0-0.2l0,0l-0.2-0.2c0,0,0.1-0.1,0.2-0.1h-0.2c0-0.1,0.2-0.1,0.2-0.2l-0.1,0c0.1-0.1-0.1-0.2,0.1-0.2c0,0,0,0,0,0
		c0.3-0.1-0.1-0.3,0-0.5l-0.3,0c-0.1-0.1,0.1-0.1,0.2-0.1c0-0.1,0.1-0.1,0.1-0.3c-0.1-0.1-0.1,0-0.2-0.1l0.1-0.1l0.2,0.1
		c-0.5-0.2,0-0.6-0.4-0.6c0.1-0.1,0.2,0.1,0.2,0c0.2-0.3-0.4-0.5-0.2-0.8c0.1-0.4-0.2-0.7-0.1-1.1l-0.1,0v-0.2
		c-0.2,0-0.1-0.2-0.4-0.2c0.1,0,0.2-0.1,0.2,0c-0.1-0.1-0.2-0.2-0.1-0.3l0.1,0c0-0.2,0-0.5-0.2-0.6c0-0.1,0.1-0.1,0.2-0.1
		c0-0.1-0.1-0.2-0.2-0.3c0,0,0.1-0.1,0.1-0.1l-0.2,0c0-0.1,0.2,0,0.2-0.1c-0.2-0.2,0-0.4,0-0.5h-0.1c-0.1-0.1,0.1-0.1,0.2-0.1
		c0.1-0.2-0.3-0.4-0.2-0.8c0.4,0,0-0.4,0.4-0.3c-0.1-0.2,0.1-0.2-0.1-0.4c0,0,0.1,0,0.1,0c0.2,0,0.1-0.3,0-0.4l0.1,0
		c-0.2-0.1-0.1-0.4-0.3-0.5c0.1,0,0.1,0.1,0.1,0.1c0.3,0-0.1-0.2,0-0.3c0.1,0,0.1,0,0.2,0.1c0.4-0.3,0.1-0.9,0.4-1.3
		c0-0.1-0.3,0-0.2-0.2c0.1,0,0.2,0.2,0.3,0.1c-0.1-0.1-0.1-0.1,0-0.2c0.1,0.1,0.1,0.1,0.2,0.1c0.1,0-0.1-0.3,0.1-0.4
		c-0.1,0-0.1-0.1-0.2-0.1c-0.2-0.2,0.4-0.3,0.2-0.4c0,0,0-0.1-0.1,0c0-0.1,0.1-0.1,0.2-0.1c-0.1-0.1-0.2-0.1-0.2-0.2l0.1,0.1
		c0,0-0.1-0.1-0.1-0.1h-0.1c0.2,0-0.1-0.3,0.2-0.2v0l0.2-0.1c-0.1-0.1-0.2-0.2-0.1-0.3c0.3,0.1,0.2-0.2,0.2-0.3l0.1,0
		c-0.1-0.1,0-0.4,0-0.3c0-0.1,0.1-0.2,0.2-0.1c0-0.1,0-0.2-0.1-0.4l0.3-0.1c-0.3-0.2,0.2-0.2-0.1-0.4c0.1-0.1,0.2,0,0.3,0
		c-0.1-0.2-0.1-0.3,0-0.4h0c0.1-0.1-0.1-0.3,0-0.5l0.3,0.1c0-0.1-0.2-0.2-0.1-0.3c0,0,0.1,0,0.1,0.1c0-0.1,0.1-0.2,0.2-0.2
		c-0.2-0.2,0-0.3-0.2-0.5c0.3,0,0.1,0.2,0.3,0.2c0.2-0.1,0.1-0.4,0.1-0.6c0.1,0,0.1,0,0.2,0.1c0,0-0.5-0.7-0.9-0.7
		c-0.2-0.1-0.3-0.2-0.5-0.1c0.1,0.1,0.2,0.3-0.1,0.2l0.2,0.1c0,0.3-0.4-0.1-0.5,0.1l0.1,0c0,0.1,0.1,0.1,0,0.2
		c-0.1,0-0.1-0.1-0.1-0.1l0.2,0.3c-0.1,0-0.2-0.1-0.2-0.1c-0.1,0.2,0.4,0.1,0.2,0.3c-0.1,0-0.1-0.1-0.2-0.1c-0.2,0.1-0.1,0.2,0,0.4
		c-0.2-0.1-0.1-0.1-0.3-0.1c0.1,0,0.3,0.1,0.2,0.1c-0.2-0.1-0.1,0-0.2,0.1c0.1,0,0.2,0.1,0.2,0.1c0,0.1-0.1,0.1-0.1,0.1l0.2,0
		c0.1,0.2-0.2,0.2-0.3,0.2c0,0-0.1-0.1-0.1-0.1c-0.1,0.1-0.3,0.1-0.2,0.3l0,0c0.1,0.3,0.3,0,0.4,0.4c-0.1,0.1-0.6-0.3-0.4,0
		c0.2,0,0.3,0.3,0.3,0.4l-0.3-0.3c0,0,0,0.2,0,0.2l0.1,0c0.3,0.1-0.1,0.1,0,0.3c-0.4-0.3-0.3-0.2-0.7-0.4c0.2,0.2,0.3,0.4,0.2,0.5
		l-0.3-0.2c-0.1,0.2,0.2,0.6,0.4,0.9c-0.2-0.1-0.3-0.1-0.5-0.2l0,0.2l-0.2-0.1c0.2,0.2,0,0.2,0.3,0.3c0,0-0.1-0.1,0-0.1
		c0.1,0,0.3,0.2,0.2,0.3c-0.1,0-0.1-0.1-0.2-0.1c0.1,0.1-0.1,0,0,0.1h0.2c0.2,0.1,0,0.1,0,0.2c-0.1-0.1-0.2-0.1-0.3-0.1h0
		c0,0.1,0.1,0.2,0,0.2l-0.2-0.1l0.2,0.1c0,0-0.1,0-0.2-0.1c-0.2,0.2,0.6,0.2,0.2,0.4c-0.1,0-0.2-0.1-0.1-0.2c-0.2-0.1-0.3-0.1-0.3,0
		c0,0,0,0,0,0C44.3,177.9,44.2,178.1,44.4,178.2L44.4,178.2z"/>
	<path class="st0" d="M44.4,177.7c0-0.1,0.1-0.2,0-0.2C44.4,177.5,44.2,177.6,44.4,177.7z"/>
	<path class="st0" d="M43.8,190.9C43.8,190.9,43.8,190.9,43.8,190.9L43.8,190.9z"/>
	<path class="st0" d="M43.8,191.6C43.8,191.6,43.8,191.6,43.8,191.6C43.8,191.6,43.8,191.6,43.8,191.6z"/>
	<path class="st0" d="M43.1,184.4L43.1,184.4L43.1,184.4z"/>
	<path class="st0" d="M43.7,188.4c0.1,0.1,0.2,0.1,0.2,0.1C44,188.4,43.9,188.4,43.7,188.4z"/>
	<path class="st0" d="M43.7,187.1C43.7,187.1,43.7,187.1,43.7,187.1C43.7,187.1,43.7,187.1,43.7,187.1z"/>
	<path class="st0" d="M43,184.2c0.1,0.1,0.1,0.1,0.2,0.2C43.1,184.4,43.2,184.2,43,184.2z"/>
	<path class="st0" d="M44,192.6c0,0-0.1-0.1-0.1-0.1L44,192.6L44,192.6L44,192.6z"/>
	<path class="st0" d="M44,191.8c0,0,0-0.2-0.1-0.1C43.9,191.7,44,191.8,44,191.8z"/>
	<polygon class="st0" points="44.4,189.3 44.2,189.3 44.3,189.4 	"/>
</g>
<g>
	<polygon class="st0" points="46.7,208.4 46.8,208.3 46.6,208.3 	"/>
	<path class="st0" d="M46.1,207.5c-0.2,0-0.4,0-0.6,0.2l0.3-0.1c-0.1,0.2-0.1,0.2,0,0.3l-0.1-0.1c0,0,0.1-0.1,0.2-0.1
		c0,0.2,0.3,0,0.2,0.3h0h0.2c0,0.1-0.1,0.1-0.1,0.1c0.2,0,0.3,0,0.4,0.1c0.2-0.4-0.5-0.1-0.2-0.4h0
		C46.2,207.9,46.3,207.6,46.1,207.5L46.1,207.5z"/>
	<path class="st0" d="M46.2,208.2L46.2,208.2C46.2,208.2,46.2,208.2,46.2,208.2z"/>
	<path class="st0" d="M43.9,203.1L43.9,203.1C43.8,203.1,43.9,203.1,43.9,203.1z"/>
	<path class="st0" d="M43.7,205.1L43.7,205.1C43.6,205.1,43.6,205.1,43.7,205.1z"/>
	<path class="st0" d="M41.7,194.4l0.1,0C41.7,194.4,41.7,194.4,41.7,194.4z"/>
	<path class="st0" d="M43.1,193.3L43.1,193.3L43.1,193.3z"/>
	<path class="st0" d="M41.6,192.8L41.6,192.8C41.5,192.7,41.6,192.8,41.6,192.8z"/>
	<path class="st0" d="M42.2,192.1C42.2,192.1,42.3,192.1,42.2,192.1C42.3,192.1,42.2,192.1,42.2,192.1z"/>
	<path class="st0" d="M43.1,193.3C43.1,193.3,43.1,193.3,43.1,193.3C43.1,193.3,43.1,193.3,43.1,193.3z"/>
	<path class="st0" d="M40.6,193.7l-0.2-0.1C40.4,193.6,40.5,193.6,40.6,193.7z"/>
	<path class="st0" d="M42.3,191.9C42.3,191.9,42.4,191.9,42.3,191.9C42.4,191.9,42.4,191.9,42.3,191.9z"/>
	<path class="st0" d="M46,207.4C46,207.4,46,207.4,46,207.4C46.1,207.4,46,207.4,46,207.4z"/>
	<path class="st0" d="M40.5,198.4C40.5,198.4,40.4,198.4,40.5,198.4C40.4,198.5,40.5,198.5,40.5,198.4z"/>
	<path class="st0" d="M39.9,195.7L39.9,195.7C39.9,195.7,39.9,195.7,39.9,195.7L39.9,195.7L39.9,195.7z"/>
	<path class="st0" d="M40,196.6L40,196.6C40,196.6,40,196.6,40,196.6z"/>
	<path class="st0" d="M39.7,195C39.7,195,39.7,194.9,39.7,195L39.7,195z"/>
	<path class="st0" d="M40.1,194.4c-0.1,0-0.1-0.1-0.2-0.1c-0.1,0.1,0.1,0.3-0.1,0.4l0.1-0.1c0.1,0.1,0.1,0.4-0.1,0.4l-0.1,0
		c0.1,0.1-0.2,0.3,0,0.3c0.1,0,0.2,0,0.2,0l0.2,0.3h-0.3c0,0.1,0.1,0.1,0.1,0.1c0.1,0-0.1,0.2,0.2,0.2c-0.1,0.1-0.2,0-0.3-0.1
		c0.1,0.1,0,0.1,0.1,0.1l-0.2,0.1c0.1,0.1,0.1,0.1,0.2,0.2c0,0,0,0-0.1,0c0.2,0.1-0.1,0.2,0.3,0.3c0,0,0,0,0,0
		c0.2,0,0.1,0.2,0.1,0.3c0.1,0.1,0.2,0,0.4,0c0,0.3,0,0.2,0.3,0.3c-0.3,0.2-0.5,0-0.7,0.2c0.2,0,0.3,0.1,0.4,0.2
		c-0.1,0.2-0.1,0.4-0.2,0.6l0.2-0.1l0.2,0.1l-0.3,0c0.1,0,0.2,0,0.3,0.1c0.2,0.1-0.4,0.2,0,0.3l-0.1,0c0.2,0,0.1,0.1,0.2,0.2
		l-0.3,0.1l0-0.1c-0.2,0.1,0.1,0.1,0.1,0.2c0.1,0.1,0.3-0.1,0.4-0.1c0,0,0.1,0.1,0,0.1c0,0.1-0.3,0.1-0.4,0.1c0.3,0,0.2,0,0.4,0.1
		c-0.1,0.1-0.2,0.1-0.2,0.1c0,0,0.1,0,0.2,0l-0.1,0.1c-0.2,0.2,0.5,0,0.5,0.2c-0.2,0,0.1,0.1,0,0.3c-0.1-0.1-0.4,0.2-0.5,0.2
		c0,0.2,0.3-0.1,0.4,0.1l-0.3,0.1c0.2,0.1,0.2,0,0.3,0.1c-0.1,0-0.1,0.1-0.2,0.1c0,0.2,0,0.1,0,0.3l0.3-0.1c0.1,0-0.1,0.1-0.1,0.1
		c0,0,0-0.1-0.1,0c-0.2,0.1,0.2,0,0,0.2c0.1-0.1,0.2-0.1,0.3-0.1c-0.2,0.1-0.1,0.1-0.2,0.2c0.1-0.1,0.1,0.1,0.3,0
		c-0.1,0.1-0.1,0-0.3,0.1c0.2,0,0.1,0.2,0.3,0.2c0,0,0,0,0,0c0.2,0,0.2,0.1,0.5,0.2l-0.2,0c0,0.2,0.4-0.1,0.4,0.1
		c-0.3,0.1,0.1,0.2-0.2,0.2c0.2,0,0.2,0.1,0.5,0c-0.1,0.1-0.4,0-0.4,0.1l0.2,0.1l-0.1,0.1c0.1,0,0.1,0.1,0.2,0
		c-0.2,0.1-0.2,0.2-0.4,0.2c0.1,0,0,0.2,0.1,0.2l-0.1,0c0.3-0.1,0.1,0.2,0.4,0.1l-0.1,0.1c0.1,0.1,0.4-0.1,0.5,0
		c0,0,0.1,0.1,0.1,0.1c-0.2-0.1-0.2,0.1-0.3,0.2c0,0.1,0.1,0.2,0.2,0.2c-0.2,0-0.3,0.1-0.3,0c-0.3,0.2,0.1,0.1,0.1,0.3l-0.1,0.1
		c0.1,0.1,0.4,0,0.7,0c-0.2,0.1-0.2,0.1-0.4,0.1c-0.1,0.1,0.1,0.3,0.1,0.4c-0.1,0.1-0.2,0.1-0.3,0.1c0.2,0.1,0.1,0.3,0.4,0.3
		c-0.1,0-0.1,0.1-0.1,0.1c0.1,0,0.1-0.1,0.1,0c0.1,0,0.3,0.2,0.2,0.3h-0.1c0,0.2,0.6,0.1,0.4,0.4c-0.1,0.1-0.3,0.1-0.2,0.1
		c0.1,0,0.4-0.1,0.3,0l-0.2,0.1h0.2c0.2-0.1,0.1-0.2,0.3-0.2c-0.2,0.2,0.2,0,0,0.2c0,0-0.2,0-0.3,0c-0.1,0.3,0.3,0.3,0.2,0.6
		c0.2,0,0.3,0.2,0.5,0.2c-0.2,0.1-0.3,0.2-0.5,0.2c0,0.1,0.5-0.1,0.2,0.1c0.3-0.1,0.3,0.1,0.7-0.1c-0.1,0.1,0.1,0.1-0.2,0.1
		c0.2,0-0.2,0.4-0.1,0.4c0,0,0.2-0.2,0.2-0.1c0,0,0,0.1,0,0.1l0.1,0c-0.1,0.1-0.2,0.1-0.3,0.2c0,0.1,0.3,0,0.4,0.1l-0.1,0l0.1,0.1h0
		h0.2l-0.1,0.1c0,0,0.1,0,0.1,0l-0.1,0.1c0.2-0.1,0.4-0.1,0.4,0l0,0.1l0.3-0.1c0,0.2-0.3,0.1-0.1,0.2l-0.2,0.1
		c0.2,0,0.1,0.1,0.2,0.1c0.1-0.1,0-0.1,0.1-0.2c-0.2,0.3,0.2,0.1,0.3,0c0,0-0.1-0.1-0.2,0c0,0,0.1-0.1,0.1-0.1l-0.2,0.1l0.1-0.1
		h-0.2c0.2-0.1-0.1-0.1,0.1-0.2c-0.1,0,0-0.1-0.2-0.1c0.1-0.1,0.2,0,0.2-0.1c-0.4-0.1-0.6-0.4-0.7-0.7l0.1,0c-0.1,0-0.2,0.1-0.3,0.1
		c0.1-0.1,0.2-0.4-0.1-0.3c0,0,0.1,0,0.1,0c-0.1-0.1,0-0.3-0.1-0.4c-0.3,0.1,0.1-0.3-0.3-0.1h0.1c-0.1,0.1-0.3,0.1-0.4,0.1
		c0.3-0.1,0.2-0.1,0.5-0.2l-0.1,0.1l0.2-0.1c-0.7,0,0.1-0.5-0.3-0.4c0,0,0.1,0,0.1,0c0.1-0.1-0.2-0.1-0.3-0.1c0.1-0.1,0.2,0,0.3,0
		c0-0.2-0.4-0.3-0.2-0.5c-0.2,0-0.2,0.1-0.3,0.1c0-0.1,0.1-0.1,0.2-0.1c0.2-0.2-0.3-0.4-0.2-0.7c-0.2-0.1-0.3,0.1-0.4-0.1
		c0.1,0,0.4-0.2,0.4-0.1l0.1,0c0-0.2-0.1-0.4-0.4-0.4c0.2-0.1,0-0.1,0.1-0.2c0,0,0,0,0,0c-0.2,0,0-0.1-0.1-0.1h0.1l-0.2-0.1
		c0,0,0.1-0.1,0.1-0.1l-0.2,0.1c0-0.1,0.2-0.1,0.1-0.2l-0.1,0.1c0.1-0.1-0.1-0.1,0-0.2c0,0,0,0,0,0c0.2-0.2-0.2-0.2-0.1-0.3
		l-0.3,0.1c-0.1-0.1,0-0.1,0.1-0.1c0-0.1,0.1-0.1,0.1-0.2c-0.1,0-0.1,0-0.2,0l0-0.1h0.2c-0.5,0-0.1-0.4-0.5-0.3
		c0.1-0.1,0.2,0,0.2-0.1c0.1-0.2-0.4-0.3-0.2-0.5c0.1-0.3-0.2-0.5-0.1-0.8l-0.1,0v-0.2c-0.2,0-0.1-0.1-0.4-0.1
		c0.1,0,0.1-0.1,0.2-0.1c0-0.1-0.2-0.1-0.1-0.2h0.1c0-0.2-0.1-0.4-0.3-0.4c0-0.1,0.1-0.1,0.2-0.1c0-0.1-0.1-0.1-0.3-0.2
		c0,0,0-0.1,0.1-0.1l-0.2,0c0,0,0.2-0.1,0.2-0.1c-0.3-0.1-0.1-0.3-0.2-0.4l-0.1,0.1c-0.1,0,0-0.1,0.1-0.1c0-0.2-0.4-0.2-0.4-0.5
		c0.3-0.2-0.2-0.2,0.2-0.4c-0.1-0.1,0-0.2-0.2-0.2c0,0,0,0,0.1,0c0.1-0.1,0-0.2-0.1-0.3l0.1,0c-0.3,0-0.2-0.2-0.5-0.2
		c0.1,0,0.1,0,0.2,0c0.2-0.1-0.1-0.1-0.1-0.2c0.1,0,0.1,0,0.2,0c0.3-0.2-0.2-0.6,0-0.8c0-0.1-0.3,0-0.2-0.1c0.1,0,0.3,0.1,0.3,0
		c-0.2-0.1-0.1-0.1-0.1-0.1c0.1,0,0.2,0,0.2,0.1c0.1,0-0.2-0.2,0.1-0.2c-0.1,0-0.1-0.1-0.2-0.1c-0.2-0.2,0.3-0.1,0.2-0.2
		c0,0,0-0.1-0.1,0c0,0,0.1-0.1,0.2,0c-0.1-0.1-0.1-0.1-0.1-0.1l0.1,0.1c0,0-0.1-0.1-0.1-0.1l-0.1,0c0.1,0-0.1-0.2,0.2-0.1v0h0.1
		c-0.1-0.1-0.2-0.2-0.1-0.2c0.3,0.2,0.1-0.1,0.2-0.1l0.1,0.1c-0.1-0.1,0.1-0.2,0-0.2c0,0,0.1,0,0.2,0.1c0-0.1,0.1-0.1,0-0.3l0.2,0.1
		c-0.2-0.3,0.2,0,0-0.3c0.1,0,0.1,0.1,0.2,0.1c-0.1-0.2,0-0.2,0.1-0.2l0,0c0.1,0,0.1-0.2,0.2-0.3l0.2,0.3c0-0.1-0.1-0.3,0-0.2
		c0,0,0,0.1,0,0.1c0-0.1,0.1,0,0.2,0c0-0.2,0.1-0.2,0.1-0.4c0.2,0.2,0,0.1,0.1,0.4c0.2,0.1,0.2-0.1,0.3-0.2c0,0.1,0,0.1,0,0.2
		c0,0,0-0.2,0-0.4c0-0.2,0-0.5-0.1-0.6c0-0.2,0-0.3-0.2-0.5c0,0.1-0.1,0.3-0.2,0.1l0.1,0.2c-0.2,0.1-0.1-0.4-0.4-0.4l0.1,0.1
		c0,0,0,0.2-0.1,0.1c0-0.1,0-0.1,0-0.1l-0.1,0.3c-0.1-0.1-0.1-0.2-0.1-0.3c-0.2,0.1,0.2,0.4-0.1,0.4c-0.1-0.1,0-0.1,0-0.2
		c-0.2-0.1-0.2,0-0.2,0.2c-0.1-0.2,0-0.2-0.1-0.3c0.1,0.1,0.1,0.2,0.1,0.3c0-0.2-0.1-0.1-0.2-0.1c0,0.1,0.1,0.1,0.1,0.2
		c0,0-0.1,0-0.1,0l0.2,0.1c0,0.2-0.2,0-0.3-0.1c0,0,0-0.1,0-0.1c-0.1,0-0.3-0.1-0.3,0.1v0c-0.1,0.3,0.2,0.2,0.1,0.5
		c-0.1,0-0.3-0.6-0.3-0.2c0.2,0.1,0.1,0.4,0.1,0.5l-0.1-0.4c0,0,0,0.1-0.1,0.1l0.1,0.1c0.2,0.2-0.1,0-0.1,0.2
		c-0.2-0.4-0.2-0.3-0.4-0.7c0.1,0.2,0.2,0.5,0,0.5l-0.1-0.3c-0.2,0.1,0,0.6,0.1,0.9c-0.2-0.2-0.3-0.2-0.4-0.4l-0.1,0.2l-0.2-0.2
		c0.2,0.2,0,0.2,0.3,0.4c0,0-0.1-0.1,0-0.1c0.1,0.1,0.2,0.2,0.2,0.3c-0.1,0-0.1-0.1-0.2-0.1c0.1,0.1-0.1,0-0.1,0.1l0.2,0
		c0.2,0.1,0,0.1,0,0.2c0-0.1-0.2-0.1-0.3-0.2h0c0,0.1,0.1,0.2,0,0.1l-0.2-0.2l0.2,0.2c0,0-0.1,0-0.2-0.1c-0.2,0.1,0.5,0.3,0.2,0.4
		c-0.1-0.1-0.2-0.1-0.1-0.1c-0.1-0.1-0.2-0.1-0.3-0.1c0,0,0,0,0,0C40,194,40,194.2,40.1,194.4L40.1,194.4z"/>
	<path class="st0" d="M40.1,193.9c0-0.1,0.1-0.1,0-0.2C40.1,193.7,39.9,193.8,40.1,193.9z"/>
	<path class="st0" d="M42.5,203.7C42.5,203.7,42.5,203.7,42.5,203.7L42.5,203.7L42.5,203.7z"/>
	<path class="st0" d="M42.8,204.1C42.8,204.1,42.8,204.1,42.8,204.1C42.8,204.1,42.7,204.1,42.8,204.1z"/>
	<path class="st0" d="M40.8,199.1L40.8,199.1L40.8,199.1z"/>
	<path class="st0" d="M41.7,201.9c0.1,0,0.2,0,0.2,0C41.9,201.9,41.9,201.9,41.7,201.9z"/>
	<path class="st0" d="M41.5,201C41.5,201,41.5,201,41.5,201C41.5,201,41.5,201,41.5,201z"/>
	<path class="st0" d="M40.6,199c0.1,0,0.1,0.1,0.2,0.1C40.7,199.1,40.8,199,40.6,199z"/>
	<polygon class="st0" points="43.3,204.6 43.1,204.6 43.2,204.6 	"/>
	<path class="st0" d="M43,204.2c0,0-0.1-0.1-0.1,0C43,204.2,43,204.2,43,204.2z"/>
	<polygon class="st0" points="42.5,202.4 42.4,202.4 42.5,202.4 	"/>
</g>
<g>
	<polygon class="st0" points="95.4,238.3 95.5,238.3 95.3,238.2 	"/>
	<path class="st0" d="M95.4,237.5c-0.2,0-0.3-0.1-0.6-0.1l0.3,0.1c-0.2,0.1-0.2,0.1-0.1,0.2l0-0.1c0,0,0.2,0,0.2,0
		c-0.1,0.1,0.2,0.1,0,0.3h0l0.2,0.1c0,0-0.1,0.1-0.2,0.1c0.1,0.1,0.3,0.1,0.3,0.2c0.4-0.2-0.4-0.2,0-0.3h0
		C95.3,237.8,95.5,237.6,95.4,237.5z"/>
	<path class="st0" d="M95.1,238L95.1,238C95.1,238,95.1,238,95.1,238z"/>
	<path class="st0" d="M93.6,233.5L93.6,233.5C93.6,233.5,93.6,233.5,93.6,233.5z"/>
	<path class="st0" d="M93.9,235.1L93.9,235.1C93.8,235.2,93.8,235.2,93.9,235.1z"/>
	<path class="st0" d="M90.8,227L90.8,227C90.8,227,90.7,227,90.8,227z"/>
	<path class="st0" d="M89.9,225.4L89.9,225.4L89.9,225.4z"/>
	<path class="st0" d="M89.2,226.8L89.2,226.8C89.2,226.8,89.2,226.8,89.2,226.8z"/>
	<path class="st0" d="M88.8,226.3C88.8,226.3,88.8,226.3,88.8,226.3C88.8,226.3,88.8,226.3,88.8,226.3z"/>
	<path class="st0" d="M90,225.4C90,225.4,89.9,225.4,90,225.4C89.9,225.4,90,225.4,90,225.4z"/>
	<path class="st0" d="M89.5,227.6l-0.2,0.1C89.4,227.7,89.5,227.6,89.5,227.6z"/>
	<path class="st0" d="M88.6,226.3C88.6,226.3,88.6,226.2,88.6,226.3C88.6,226.2,88.6,226.3,88.6,226.3z"/>
	<path class="st0" d="M95.3,237.4C95.3,237.4,95.3,237.4,95.3,237.4C95.4,237.4,95.4,237.4,95.3,237.4z"/>
	<path class="st0" d="M90.7,230.6C90.7,230.6,90.6,230.6,90.7,230.6C90.6,230.6,90.6,230.6,90.7,230.6z"/>
	<path class="st0" d="M90,228.9L90,228.9C90,228.9,90,228.9,90,228.9L90,228.9L90,228.9z"/>
	<path class="st0" d="M90.3,229.3L90.3,229.3C90.2,229.3,90.2,229.3,90.3,229.3z"/>
	<path class="st0" d="M89.6,228.6C89.6,228.6,89.6,228.6,89.6,228.6L89.6,228.6z"/>
	<path class="st0" d="M89.6,228.1c-0.1,0.1-0.1,0.1-0.2,0.1c0,0.1,0.2,0,0.1,0.2l0.1-0.1c0.2,0,0.3,0.1,0.1,0.2l-0.1,0
		c0.2,0-0.1,0.2,0.1,0.2c0.1-0.1,0.1-0.1,0.2-0.1l0.2,0.1l-0.3,0.1l0.1,0c0.1-0.1,0,0.1,0.2,0c-0.1,0.1-0.2,0.1-0.3,0.1
		c0.1,0,0,0.1,0.2,0l-0.2,0.1l0.2,0c0,0,0,0-0.1,0c0.2,0-0.1,0.2,0.3,0.1c0,0,0,0,0,0c0.2-0.1,0.1,0.1,0.1,0.1
		c0.1,0,0.2-0.1,0.3-0.1c0,0.2,0,0.1,0.3,0.2c-0.3,0.2-0.5,0.1-0.7,0.3c0.1-0.1,0.3,0,0.4,0.1c-0.1,0.1-0.1,0.3-0.3,0.4l0.2-0.1
		l0.2,0.1l-0.3,0c0.1,0,0.2,0,0.3,0c0.2,0.1-0.4,0.2-0.1,0.2l-0.1,0c0.2,0,0.1,0.1,0.2,0.1l-0.3,0.1l0-0.1c-0.2,0.1,0.1,0.1,0.1,0.1
		c0.1,0,0.3-0.1,0.4-0.1c0,0,0.1,0,0,0.1c-0.1,0.1-0.3,0.1-0.4,0.1c0.3,0,0.2,0,0.4,0.1c-0.1,0-0.2,0-0.2,0c0,0,0.1,0,0.2,0
		l-0.1,0.1c-0.2,0.2,0.5,0,0.5,0.2c-0.2,0,0.1,0.1-0.1,0.2c-0.1,0-0.4,0.1-0.6,0.1c-0.1,0.1,0.3,0,0.4,0.1l-0.3,0
		c0.2,0.1,0.2,0,0.3,0.1c-0.1,0-0.1,0.1-0.2,0c0,0.1,0,0.1,0,0.2l0.3,0c0,0-0.1,0.1-0.2,0.1c0,0,0-0.1,0,0c-0.3,0.1,0.2,0.1-0.1,0.2
		c0.1,0,0.2-0.1,0.3,0c-0.2,0-0.2,0.1-0.2,0.1c0.1-0.1,0.1,0.1,0.3,0.1c-0.1,0.1-0.2,0-0.3,0.1c0.3,0,0.1,0.2,0.2,0.2c0,0,0,0,0,0
		c0.2,0,0.2,0.1,0.5,0.1l-0.2,0c0,0.1,0.4-0.1,0.4,0c-0.2,0.1,0.1,0.1-0.2,0.2c0.2,0,0.2,0,0.5-0.1c-0.1,0.1-0.4,0.1-0.4,0.2H92
		l-0.1,0.1c0.1-0.1,0.1,0,0.2,0c-0.1,0.1-0.2,0.2-0.3,0.2c0.1,0,0,0.2,0.1,0.1l-0.1,0.1c0.3-0.1,0.1,0.1,0.4-0.1l-0.1,0.1
		c0.1,0.1,0.3-0.1,0.4-0.2c0,0,0.1,0,0.1,0.1c-0.2,0-0.2,0.2-0.3,0.3c0,0,0.1,0.1,0.3,0c-0.2,0.1-0.2,0.2-0.3,0.1
		c-0.2,0.2,0.1,0.1,0.2,0.2l-0.1,0.1c0.2,0.1,0.4-0.1,0.6-0.2c-0.1,0.1-0.2,0.1-0.3,0.2c0,0.1,0.2,0.2,0.2,0.3
		c-0.1,0.1-0.1,0.1-0.2,0.2c0.2,0,0.1,0.2,0.4,0c-0.1,0.1,0,0.1-0.1,0.1c0-0.1,0.1-0.1,0.1-0.1c0.1-0.1,0.3,0,0.3,0.1l-0.1,0
		c0.1,0.1,0.6-0.1,0.5,0.2c0,0.1-0.2,0.1-0.2,0.2c0.1,0,0.3-0.2,0.3-0.1l-0.2,0.1l0.2-0.1c0.1-0.1,0-0.2,0.2-0.2
		c-0.1,0.2,0.2,0,0.1,0.2c0,0-0.2,0.1-0.3,0.1c-0.1,0.3,0.3,0.1,0.2,0.4c0.2,0,0.3,0.1,0.5,0.1c-0.2,0.1-0.4,0.2-0.5,0.2
		c0,0.1,0.5-0.1,0.2,0.1c0.3-0.1,0.3,0.1,0.7,0c-0.1,0,0,0.1-0.2,0.1c0.2,0.1-0.3,0.3-0.3,0.3c0,0,0.2-0.1,0.3-0.1c0,0,0,0-0.1,0
		h0.1c-0.1,0.1-0.2,0-0.3,0.1c0,0.1,0.3,0.1,0.3,0.2h-0.1l0,0.1h0l0.2,0.1l-0.1,0c0,0,0.1,0,0.1,0l-0.1,0c0.2,0,0.3,0.1,0.4,0.1
		l-0.1,0l0.3,0.1c-0.1,0.1-0.3,0-0.2,0.1l-0.3,0c0.1,0.1,0,0.1,0.1,0.1c0.1-0.1,0.1-0.1,0.2-0.1c-0.3,0.1,0.1,0.1,0.2,0.1
		c0,0,0-0.1-0.2-0.1c0,0,0.1-0.1,0.1-0.1l-0.2,0l0.2-0.1l-0.2-0.1c0.2-0.1,0-0.1,0.2-0.1c-0.1,0,0-0.1-0.2-0.1c0.1-0.1,0.2,0,0.2,0
		c-0.2-0.2-0.3-0.5-0.3-0.8h0.1c-0.1,0-0.2,0-0.3,0c0.1-0.1,0.3-0.4,0-0.3c0,0,0.1,0,0.1,0c-0.1-0.1,0.1-0.3,0-0.4
		c-0.3,0.1,0.1-0.3-0.4-0.1l0.1,0c-0.1,0.1-0.3,0.1-0.4,0.1c0.2-0.2,0.2-0.1,0.4-0.3l-0.1,0.1l0.2-0.1c-0.7,0.1,0.1-0.5-0.4-0.3
		c0,0,0.1,0,0.1,0c0.1-0.1-0.2,0-0.3,0c0.1-0.1,0.2-0.1,0.3-0.1c0-0.2-0.4-0.2-0.3-0.4c-0.2,0.1-0.2,0.2-0.3,0.2
		c0-0.1,0.1-0.2,0.2-0.2c0.2-0.3-0.5-0.2-0.3-0.5c-0.2,0.1-0.2,0.2-0.4,0.2c0.1-0.1,0.3-0.3,0.3-0.2l0.1-0.1
		c-0.1-0.1-0.1-0.2-0.4-0.1c0.2-0.2,0-0.1,0.1-0.2c0,0,0,0,0,0c-0.2,0.1,0-0.1-0.1-0.1l0,0l-0.2,0c0,0,0-0.1,0.1-0.1l-0.2,0.1
		c0,0,0.2-0.2,0.1-0.2l-0.1,0.1c0.1-0.1-0.2,0,0-0.1c0,0,0,0,0,0c0.2-0.2-0.2-0.1-0.1-0.2l-0.3,0.2c-0.1,0,0-0.1,0.1-0.1
		c0,0,0.1-0.1,0.1-0.2c-0.1,0-0.1,0-0.2,0.1l0-0.1l0.2-0.1c-0.4,0.1-0.1-0.2-0.5-0.1c0.1-0.1,0.2-0.1,0.2-0.1
		c0.1-0.2-0.4-0.1-0.2-0.3c0.2-0.2-0.1-0.3,0-0.5l-0.1,0c0,0,0-0.1,0-0.1c-0.2,0-0.1-0.1-0.3-0.1c0.1,0,0.2,0,0.2,0
		c0-0.1-0.1-0.1,0-0.2h0.1c0-0.1,0-0.3-0.2-0.4c0,0,0.1-0.1,0.2-0.1c0-0.1-0.1-0.1-0.2-0.1c0,0,0.1-0.1,0.1-0.1l-0.2,0
		c0,0,0.2-0.1,0.2-0.1c-0.3-0.1-0.1-0.3-0.2-0.3l-0.1,0c-0.1,0,0-0.1,0.1-0.1c0-0.2-0.4-0.1-0.4-0.4c0.3-0.2-0.2-0.2,0.2-0.3
		c-0.1-0.1,0-0.2-0.3-0.1c0,0,0.1,0,0.1,0c0.1-0.1,0-0.2-0.2-0.2l0.1-0.1c-0.3,0.1-0.3-0.1-0.5,0c0,0,0.1,0,0.2,0
		c0.2-0.1-0.2,0-0.1-0.1c0.1,0,0.1-0.1,0.2-0.1c0.2-0.3-0.4-0.4-0.4-0.7c0-0.1-0.2,0.2-0.3,0.1c0.1-0.1,0.3-0.1,0.3-0.2
		c-0.2,0-0.2,0-0.2-0.1c0.1,0,0.1-0.1,0.2-0.1c0.1-0.1-0.3,0-0.1-0.2c-0.1,0-0.1,0.1-0.2,0.1c-0.3,0,0.1-0.3,0-0.3c0,0,0,0-0.1,0
		c0,0,0-0.1,0.1-0.2c-0.1,0-0.2,0.1-0.2,0l0.1-0.1c0,0-0.1,0-0.2,0l-0.1,0.1c0.1-0.1-0.2,0,0-0.2h0l0.1-0.1c-0.1,0-0.2,0.1-0.2,0
		c0.3-0.2,0-0.2,0-0.2l0.1-0.1c-0.2,0-0.2-0.1-0.2-0.1c0-0.1,0-0.1,0.1-0.2c-0.1,0-0.1-0.1-0.3,0l0.2-0.2c-0.4,0.1,0-0.2-0.3,0
		c0-0.1,0.1-0.1,0.2-0.2c-0.2,0-0.2,0-0.2-0.1l0,0c0-0.1-0.2-0.1-0.3-0.1l0.3-0.2c-0.1,0-0.3,0.1-0.2,0c0,0,0.1,0,0.1,0
		c-0.1,0,0-0.1,0-0.2c-0.2,0-0.2-0.1-0.4,0c0.2-0.2,0.2,0,0.4-0.1c0.1-0.2-0.1-0.2-0.3-0.2c0.1,0,0.1-0.1,0.2-0.1c0,0-0.8,0.1-1,0.3
		c-0.2,0.1-0.3,0.1-0.4,0.2c0.1,0,0.3,0,0.1,0.1l0.2-0.1c0.1,0.1-0.4,0.2-0.3,0.4l0-0.1c0,0,0.2,0,0.1,0c0,0-0.1,0-0.1,0l0.3,0
		c-0.1,0.1-0.2,0.1-0.3,0.1c0.1,0.1,0.3-0.2,0.3,0c-0.1,0.1-0.1,0.1-0.2,0.1c-0.1,0.1,0,0.1,0.2,0.1c-0.2,0.1-0.2,0-0.2,0.1
		c0.1-0.1,0.2-0.1,0.3-0.1c-0.2,0.1-0.1,0.1-0.1,0.1c0,0,0.1-0.1,0.2-0.1c0,0,0,0.1,0,0.1l0.1-0.1c0.2,0,0,0.1-0.1,0.2
		c0,0-0.1,0-0.1,0c0,0.1-0.1,0.2,0,0.2h0c0.2,0,0.3-0.2,0.5-0.1c0,0.1-0.6,0.3-0.3,0.3c0.1-0.1,0.4-0.1,0.5-0.1l-0.4,0.1
		c0,0,0.1,0,0.1,0.1l0.1,0c0.3-0.2,0,0.1,0.2,0.1c-0.4,0.1-0.3,0.1-0.7,0.3c0.2-0.1,0.4-0.1,0.4,0l-0.3,0.1c0,0.1,0.5,0,0.8,0
		c-0.2,0.1-0.3,0.2-0.5,0.2l0.1,0.1l-0.2,0.1c0.3-0.1,0.1,0.1,0.4-0.1c0,0-0.1,0-0.1,0c0.1-0.1,0.3-0.1,0.3-0.1
		c-0.1,0.1-0.1,0.1-0.2,0.1c0.2,0-0.1,0.1,0.1,0.1l0.1-0.1c0.2-0.1,0,0.1,0.2,0c-0.1,0-0.2,0.1-0.3,0.1l0,0c0,0,0.2,0,0.1,0.1
		l-0.3,0.1l0.2-0.1c0,0-0.1,0.1-0.2,0.1c-0.1,0.2,0.5-0.3,0.4,0c-0.1,0.1-0.2,0.1-0.1,0c-0.2,0.1-0.2,0.1-0.3,0.2c0,0,0,0,0,0
		c0,0.1,0.1,0.2,0.3,0.1L89.6,228.1z"/>
	<path class="st0" d="M89.3,228C89.3,228,89.3,227.9,89.3,228C89.2,227.9,89.2,228.1,89.3,228z"/>
	<path class="st0" d="M92.6,234.6C92.6,234.6,92.6,234.6,92.6,234.6L92.6,234.6z"/>
	<path class="st0" d="M92.9,234.8C92.9,234.8,92.9,234.8,92.9,234.8C92.9,234.8,92.9,234.8,92.9,234.8z"/>
	<path class="st0" d="M90.9,231.1L90.9,231.1L90.9,231.1z"/>
	<path class="st0" d="M91.5,233.4c0.1,0,0.2,0,0.2-0.1C91.7,233.3,91.6,233.3,91.5,233.4z"/>
	<path class="st0" d="M91.3,232.5C91.3,232.5,91.2,232.5,91.3,232.5C91.2,232.5,91.2,232.5,91.3,232.5z"/>
	<path class="st0" d="M90.7,231c0.1,0,0.1,0.1,0.2,0.1C90.8,231,90.9,230.9,90.7,231z"/>
	<polygon class="st0" points="93.4,234.9 93.3,235 93.4,235 	"/>
	<path class="st0" d="M93.1,234.7c0,0-0.1,0-0.1,0C93.1,234.7,93.1,234.7,93.1,234.7z"/>
	<polygon class="st0" points="92.3,233.6 92.2,233.6 92.3,233.6 	"/>
</g>
<g>
	<polygon class="st0" points="44.7,174.3 44.8,174.3 44.6,174.2 	"/>
	<path class="st0" d="M44.9,173.7c-0.1-0.1-0.2-0.2-0.5-0.4l0.2,0.2c-0.2-0.1-0.2,0-0.2,0.1c0,0,0-0.1,0-0.1c0,0,0.2,0.1,0.2,0.1
		c-0.1,0.1,0.2,0.2-0.1,0.2h0l0.1,0.1c0,0-0.1,0-0.2,0c0.1,0.1,0.2,0.2,0.2,0.3c0.4,0-0.3-0.2,0.1-0.3h0
		C44.7,173.9,45,173.8,44.9,173.7L44.9,173.7z"/>
	<path class="st0" d="M44.5,174L44.5,174L44.5,174z"/>
	<path class="st0" d="M47.4,170.5L47.4,170.5C47.4,170.4,47.4,170.5,47.4,170.5z"/>
	<path class="st0" d="M45.9,171.1L45.9,171.1C45.8,171,45.9,171,45.9,171.1z"/>
	<path class="st0" d="M54.2,166.8L54.2,166.8C54.2,166.8,54.2,166.8,54.2,166.8z"/>
	<path class="st0" d="M55.6,166.5L55.6,166.5L55.6,166.5z"/>
	<path class="st0" d="M54.8,165.3L54.8,165.3C54.8,165.2,54.8,165.3,54.8,165.3z"/>
	<path class="st0" d="M55.5,165.1C55.5,165.1,55.6,165.1,55.5,165.1C55.6,165.1,55.6,165.1,55.5,165.1z"/>
	<path class="st0" d="M55.6,166.6C55.6,166.6,55.6,166.5,55.6,166.6C55.6,166.5,55.6,166.5,55.6,166.6z"/>
	<path class="st0" d="M53.7,165.5l-0.1-0.2C53.7,165.4,53.7,165.4,53.7,165.5z"/>
	<path class="st0" d="M55.8,164.9C55.8,164.9,55.8,165,55.8,164.9C55.8,165,55.8,164.9,55.8,164.9z"/>
	<path class="st0" d="M44.9,173.6C44.9,173.6,44.9,173.6,44.9,173.6C44.9,173.6,44.9,173.6,44.9,173.6z"/>
	<path class="st0" d="M50.3,166.7C50.3,166.7,50.3,166.6,50.3,166.7C50.2,166.6,50.2,166.7,50.3,166.7z"/>
	<path class="st0" d="M52.3,165.9L52.3,165.9C52.3,165.9,52.3,165.9,52.3,165.9L52.3,165.9z"/>
	<path class="st0" d="M51.7,166.2L51.7,166.2C51.7,166.1,51.7,166.2,51.7,166.2z"/>
	<path class="st0" d="M52.7,165.5C52.7,165.5,52.7,165.5,52.7,165.5L52.7,165.5z"/>
	<path class="st0" d="M53.1,165.6c0-0.1-0.1-0.1-0.1-0.2c-0.1-0.1-0.1,0.2-0.2,0.1l0.1,0.1c0,0.2-0.1,0.2-0.3,0.1v-0.1
		c0,0.2-0.2-0.1-0.2,0.1c0.1,0.1,0,0.1,0.1,0.2l-0.1,0.2l-0.1-0.3l0,0.1c0.1,0.1-0.1,0-0.1,0.2c-0.1-0.1-0.1-0.2-0.1-0.3
		c0,0.1-0.1,0-0.1,0.2l-0.1-0.2l-0.1,0.2c0,0,0,0,0-0.1c0,0.2-0.2-0.1-0.1,0.3c0,0,0,0,0,0c0,0.2-0.1,0.1-0.2,0.1
		c0,0.1,0.1,0.2,0.1,0.3c-0.2,0-0.1,0-0.2,0.4c-0.2-0.3-0.1-0.5-0.3-0.7c0,0.1,0,0.3-0.1,0.4c-0.1-0.1-0.3-0.1-0.5-0.2l0.1,0.2
		l-0.1,0.2l0-0.3c0,0.1,0,0.2,0,0.3c-0.1,0.2-0.3-0.4-0.2-0.1l0-0.1c0,0.2-0.1,0.1-0.1,0.2l-0.1-0.3l0.1,0c-0.1-0.2-0.1,0.1-0.2,0.1
		c0,0.1,0.1,0.3,0.1,0.4c0,0,0,0.1-0.1,0c-0.1-0.1-0.1-0.3-0.2-0.4c0.1,0.3,0,0.2,0,0.4c-0.1-0.1-0.1-0.2-0.1-0.2c0,0,0,0.1,0,0.2
		l-0.1-0.1c-0.2-0.1,0.1,0.5-0.1,0.5c0-0.1-0.1,0.1-0.2,0c0-0.1-0.2-0.3-0.2-0.5c-0.2,0,0.1,0.3,0,0.4l-0.1-0.3c0,0.2,0.1,0.2,0,0.3
		c0-0.1-0.1-0.1-0.1-0.2c-0.1,0-0.1,0.1-0.2,0.1l0.1,0.3c0,0.1-0.1-0.1-0.1-0.1c0,0,0,0,0-0.1c-0.2-0.2,0,0.2-0.2,0
		c0.1,0.1,0.1,0.2,0.1,0.2c-0.1-0.2-0.2-0.1-0.2-0.2c0.1,0.1-0.1,0.1,0,0.3c-0.1-0.1-0.1-0.1-0.1-0.2c0.1,0.2-0.2,0.1-0.1,0.3
		c0,0,0,0,0,0c0,0.2,0,0.2,0,0.5l-0.1-0.2c-0.1,0,0.1,0.4,0.1,0.4c-0.1-0.2-0.1,0.1-0.2-0.1c0,0.2,0,0.2,0.1,0.5
		c-0.1-0.1-0.1-0.4-0.2-0.4v0.2l-0.1-0.1c0.1,0.1,0,0.1,0.1,0.2c-0.1-0.1-0.2-0.2-0.3-0.3c0,0.1-0.2,0-0.1,0.1l0-0.1
		c0.1,0.3-0.1,0.2,0.1,0.4l-0.1-0.1c-0.1,0.1,0.2,0.3,0.2,0.4c0,0,0,0.1-0.1,0.1c-0.1-0.2-0.2-0.2-0.3-0.2c0,0-0.1,0.1,0,0.3
		c-0.1-0.2-0.2-0.2-0.1-0.3c-0.2-0.2-0.1,0.1-0.2,0.2l-0.1-0.1c0,0.2,0.1,0.4,0.3,0.6c-0.1-0.1-0.2-0.2-0.3-0.3
		c-0.1,0-0.2,0.2-0.3,0.3c-0.1-0.1-0.2-0.1-0.2-0.2c0,0.2-0.2,0.2,0,0.5c-0.1-0.1-0.1,0-0.2,0c0,0,0.1,0.1,0.1,0.1
		c0,0.1,0.1,0.3-0.1,0.3l-0.1-0.1c-0.2,0.1,0.2,0.5-0.1,0.5c-0.1,0-0.2-0.2-0.2-0.1c0.1,0.1,0.3,0.2,0.2,0.3l-0.2-0.1l0.1,0.2
		c0.2,0.1,0.2-0.1,0.3,0.1c-0.2-0.1,0.1,0.2-0.1,0.1c0,0-0.1-0.2-0.2-0.2c-0.3,0,0,0.4-0.4,0.4c0.1,0.2,0,0.3,0.1,0.5
		c-0.2-0.1-0.3-0.2-0.4-0.4c-0.1,0.1,0.3,0.4,0,0.2c0.2,0.2,0,0.3,0.3,0.6c-0.1-0.1-0.1,0.1-0.2-0.1c0,0.2-0.4-0.1-0.4,0
		c0,0,0.2,0.1,0.2,0.2c0,0,0,0-0.1,0l0.1,0.1c-0.1,0-0.1-0.1-0.2-0.2c-0.1,0,0.1,0.3,0.1,0.4l-0.1-0.1l-0.1,0.1l0,0l0.1,0.2
		l-0.1-0.1c0,0,0.1,0.1,0.1,0.1l-0.1-0.1c0.2,0.1,0.2,0.3,0.2,0.3l-0.1,0l0.2,0.2c-0.2,0-0.2-0.2-0.2-0.1l-0.2-0.1
		c0.1,0.1-0.1,0.1,0,0.2c0.1,0,0.1,0,0.2,0.1c-0.3-0.1,0,0.1,0.1,0.2c0,0,0-0.1-0.1-0.1c0,0,0.1,0,0.2,0l-0.1-0.1l0.2,0.1l-0.1-0.1
		c0.2,0.1,0.1-0.1,0.2,0.1c-0.1-0.1,0.1-0.1-0.1-0.2c0.1,0,0.1,0.1,0.1,0.1c0-0.3,0.1-0.5,0.3-0.7l0.1,0.1c-0.1-0.1-0.1-0.1-0.1-0.2
		c0.2,0.1,0.4,0.1,0.2-0.2c0,0,0.1,0,0.1,0.1c0-0.1,0.3-0.1,0.4-0.2c-0.2-0.3,0.3,0,0-0.4l0.1,0.1c-0.1,0-0.2-0.2-0.3-0.3
		c0.3,0.1,0.2,0.1,0.4,0.3l-0.1,0l0.2,0.1c-0.4-0.5,0.4-0.1,0.1-0.5c0,0,0,0,0.1,0.1c0.2,0-0.1-0.2-0.1-0.3c0.1,0.1,0.2,0.1,0.2,0.2
		c0.2-0.1,0-0.4,0.2-0.4c-0.1-0.1-0.2-0.1-0.3-0.2c0.1,0,0.2,0.1,0.2,0.1c0.3,0.1,0.1-0.4,0.4-0.4c-0.1-0.2-0.2-0.2-0.2-0.4
		c0.1,0.1,0.3,0.3,0.3,0.3l0.1,0.1c0.1-0.1,0.3-0.2,0.1-0.5c0.2,0.2,0,0,0.2,0.1c0,0,0,0,0,0c-0.1-0.2,0.1,0,0.1-0.1l0,0l0-0.2
		c0,0,0.1,0,0.2,0.1l-0.1-0.1c0,0,0.2,0.2,0.2,0.1l-0.1-0.1c0.1,0,0-0.2,0.2,0c0,0,0,0,0,0c0.2,0.2,0.1-0.2,0.2-0.1l-0.2-0.2
		c0-0.1,0.1,0,0.1,0.1c0,0,0.1,0,0.2,0c0-0.1,0-0.1-0.1-0.2l0.1,0l0.1,0.2c-0.2-0.4,0.2-0.1,0.1-0.5c0.1,0.1,0.1,0.2,0.1,0.2
		c0.2,0.1,0.1-0.4,0.3-0.3c0.3,0.1,0.3-0.2,0.6-0.2l0-0.1h0.2c-0.1-0.2,0.1-0.2,0-0.4c0,0.1,0.1,0.1,0.1,0.2c0-0.1,0.1-0.2,0.1-0.1
		v0.1c0.2,0,0.3-0.1,0.3-0.3c0,0,0.1,0.1,0.1,0.2c0.1,0,0.1-0.1,0.1-0.3c0,0,0.1,0.1,0.1,0.1l-0.1-0.2c0,0,0.1,0.1,0.1,0.2
		c0-0.3,0.2-0.1,0.3-0.2l0-0.1c0-0.1,0.1,0,0.1,0.1c0.2,0,0.1-0.4,0.3-0.4c0.2,0.3,0.2-0.2,0.3,0.2c0.1-0.1,0.2,0,0.2-0.3
		c0,0,0,0.1,0,0.1c0.1,0.1,0.2,0,0.2-0.2l0,0.1c-0.1-0.3,0.1-0.3,0.1-0.5c0,0.1,0,0.1,0,0.2c0.1,0.2,0-0.1,0.1-0.1
		c0,0.1,0.1,0.1,0.1,0.2c0.3,0.2,0.5-0.4,0.8-0.3c0.1,0-0.1-0.2,0-0.3c0.1,0.1,0,0.3,0.1,0.3c0-0.2,0-0.1,0.1-0.2c0,0.1,0,0.1,0,0.2
		c0.1,0.1,0.1-0.3,0.3-0.1c0-0.1,0-0.1,0-0.2c0-0.3,0.3,0.1,0.3,0c0,0,0-0.1,0-0.1c0,0,0.1,0,0.2,0.1c0-0.1,0-0.2,0-0.2l0,0.1
		c0,0,0-0.1,0-0.2l-0.1-0.1c0.1,0.1,0.1-0.2,0.2,0.1h0l0.1,0.1c0-0.1,0-0.2,0-0.2c0.1,0.3,0.2,0,0.2,0l0,0.1c0-0.2,0.1-0.1,0.1-0.2
		c0,0,0.1,0,0.1,0.1c0-0.1,0.1-0.1,0.1-0.3l0.1,0.2c0-0.4,0.1,0.1,0.1-0.3c0,0.1,0,0.1,0.1,0.2c0-0.2,0.1-0.2,0.1-0.1v0
		c0,0,0.1-0.2,0.2-0.2l0,0.3c0,0,0.1-0.3,0.1-0.2c0,0.1,0,0.1,0,0.1c0-0.1,0.1,0,0,0.1c0.1-0.2,0.1-0.1,0.2-0.3
		c-0.1,0.3-0.1,0.1-0.2,0.3c0,0.2,0.1,0,0.2,0c0,0.1-0.1,0.1-0.1,0.1c0,0,0.6-0.5,0.7-0.8c0.1-0.1,0.3-0.2,0.3-0.4
		c-0.1,0.1-0.3,0.1-0.2-0.1l-0.1,0.2c-0.2,0,0.2-0.4,0-0.5v0.1c0,0-0.1,0.1-0.1,0c0-0.1,0-0.1,0.1-0.1c-0.1,0.1-0.2,0.1-0.3,0.2
		c0-0.1,0.1-0.2,0.2-0.2c-0.2-0.1-0.1,0.4-0.3,0.2c0-0.1,0.1-0.1,0.1-0.2c0-0.2-0.2-0.1-0.3,0c0-0.2,0.1-0.1,0-0.3
		c0,0.1,0,0.3-0.1,0.3c0.1-0.2,0-0.1-0.1-0.2c0,0.1,0,0.2,0,0.2c0,0,0-0.1-0.1-0.1l0,0.2c-0.1,0.2-0.1-0.1-0.2-0.2c0,0,0-0.1,0-0.1
		c-0.1-0.1-0.2-0.2-0.3-0.1v0c-0.2,0.2,0.1,0.3-0.1,0.5c-0.1,0,0-0.6-0.2-0.4c0.1,0.1-0.1,0.4-0.1,0.5l0-0.4c0,0-0.1,0.1-0.1,0.1
		l0,0.1c0.1,0.3-0.1,0-0.1,0.2c0-0.4,0-0.4-0.1-0.8c0,0.2,0,0.5-0.2,0.5v-0.3c-0.2,0-0.2,0.5-0.2,0.8c-0.1-0.2-0.1-0.3-0.2-0.5
		l-0.1,0.1l-0.1-0.3c0,0.3-0.1,0.1,0.1,0.4c0-0.1,0-0.1,0-0.1c0,0.1,0.1,0.3,0,0.3c-0.1-0.1,0-0.1-0.1-0.2c0,0.1-0.1-0.1-0.1,0.1
		l0.1,0.1c0,0.2-0.1,0-0.1,0.1c0-0.1,0-0.2-0.1-0.3v0c0,0,0,0.2-0.1,0.1l-0.1-0.3l0,0.2c0,0-0.1-0.1-0.1-0.2c-0.2-0.1,0.2,0.6,0,0.4
		c0-0.1,0-0.2,0-0.1c-0.1-0.2-0.1-0.2-0.2-0.3c0,0,0,0,0,0C53.2,165.3,53.1,165.4,53.1,165.6L53.1,165.6z"/>
	<path class="st0" d="M53.3,165.3C53.3,165.3,53.4,165.3,53.3,165.3C53.4,165.2,53.2,165.1,53.3,165.3z"/>
	<path class="st0" d="M46.3,169.5C46.3,169.5,46.3,169.5,46.3,169.5L46.3,169.5z"/>
	<path class="st0" d="M46,169.9C46,169.9,46.1,169.9,46,169.9C46.1,169.9,46,169.9,46,169.9z"/>
	<path class="st0" d="M49.7,167L49.7,167L49.7,167z"/>
	<path class="st0" d="M47.4,168.3c0,0.1,0.1,0.2,0.1,0.2C47.5,168.5,47.5,168.4,47.4,168.3z"/>
	<path class="st0" d="M48.2,167.9C48.2,167.9,48.2,167.8,48.2,167.9C48.2,167.8,48.2,167.8,48.2,167.9z"/>
	<path class="st0" d="M49.8,166.8c0,0.1,0,0.1-0.1,0.2C49.7,167,49.8,167,49.8,166.8z"/>
	<polygon class="st0" points="46,170.6 45.9,170.4 45.9,170.5 	"/>
	<path class="st0" d="M46.1,170.2c0,0,0-0.1-0.1-0.1C46.1,170.1,46.1,170.1,46.1,170.2z"/>
	<polygon class="st0" points="47.3,169.1 47.2,169 47.3,169.1 	"/>
</g>
<g>
	<polygon class="st0" points="49.9,199.5 50,199.5 49.8,199.4 	"/>
	<path class="st0" d="M50,199c-0.2,0-0.3-0.1-0.6-0.1l0.3,0.1c-0.2,0-0.2,0.1-0.1,0.1l0-0.1c0,0,0.2,0,0.2,0c-0.1,0.1,0.2,0.1,0,0.2
		h0l0.1,0.1c0,0-0.1,0-0.2,0c0.1,0.1,0.2,0.1,0.2,0.2c0.4-0.1-0.3-0.1,0.1-0.2h0C49.8,199.1,50.1,199,50,199L50,199z"/>
	<path class="st0" d="M49.7,199.3L49.7,199.3C49.7,199.3,49.7,199.3,49.7,199.3z"/>
	<path class="st0" d="M50.2,196.3L50.2,196.3C50.2,196.3,50.2,196.3,50.2,196.3z"/>
	<path class="st0" d="M49.4,197.2L49.4,197.2C49.3,197.2,49.3,197.2,49.4,197.2z"/>
	<path class="st0" d="M51.5,192.6L51.5,192.6C51.5,192.6,51.5,192.6,51.5,192.6z"/>
	<path class="st0" d="M52.7,192.3L52.7,192.3L52.7,192.3z"/>
	<path class="st0" d="M51.8,191.3L51.8,191.3C51.8,191.2,51.8,191.2,51.8,191.3z"/>
	<path class="st0" d="M52.1,191C52.1,191,52.2,191,52.1,191C52.2,191,52.1,191,52.1,191z"/>
	<path class="st0" d="M52.7,192.3C52.7,192.3,52.7,192.3,52.7,192.3C52.7,192.3,52.7,192.3,52.7,192.3z"/>
	<path class="st0" d="M51.1,191.3l-0.1-0.2C51.1,191.2,51.1,191.2,51.1,191.3z"/>
	<path class="st0" d="M52.2,190.8C52.2,190.8,52.2,190.8,52.2,190.8C52.2,190.8,52.2,190.8,52.2,190.8z"/>
	<path class="st0" d="M50,198.9C50,198.9,50,198.9,50,198.9C50,198.9,50,198.9,50,198.9z"/>
	<path class="st0" d="M49.1,193.2C49.1,193.2,49,193.1,49.1,193.2C49,193.2,49.1,193.2,49.1,193.2z"/>
	<path class="st0" d="M50,191.7L50,191.7C50,191.7,50,191.7,50,191.7L50,191.7z"/>
	<path class="st0" d="M49.7,192.1L49.7,192.1C49.6,192.1,49.6,192.1,49.7,192.1z"/>
	<path class="st0" d="M50.3,191.3C50.3,191.3,50.3,191.2,50.3,191.3L50.3,191.3z"/>
	<path class="st0" d="M50.7,191.3c-0.1-0.1-0.1-0.1-0.1-0.2c-0.1-0.1,0,0.2-0.2,0.1l0.1,0.1c0,0.2-0.1,0.2-0.2,0.1l0-0.1
		c0,0.2-0.2,0-0.2,0.1c0.1,0.1,0.1,0.1,0.2,0.2l0,0.2l-0.2-0.2v0.1c0.1,0.1-0.2,0,0,0.2c-0.1-0.1-0.1-0.2-0.2-0.3c0,0.1-0.1,0,0,0.2
		l-0.2-0.1c0,0.1,0,0.1,0,0.2c0,0,0,0,0-0.1c0.1,0.2-0.2,0,0,0.3c0,0,0,0,0,0c0.1,0.2,0,0.1-0.1,0.2c0,0.1,0.2,0.1,0.3,0.2
		c-0.1,0.1-0.1,0.1,0.1,0.3c-0.3-0.1-0.4-0.3-0.7-0.3c0.1,0.1,0.2,0.2,0.2,0.3c-0.1,0-0.2,0.1-0.5,0.1l0.2,0.1l0.1,0.1l-0.3-0.1
		c0.1,0,0.2,0.1,0.3,0.2c0.1,0.1-0.5-0.1-0.2,0.1h-0.1c0.1,0.1,0.1,0.1,0.1,0.2l-0.2-0.1l0.1,0c-0.3-0.1,0,0.1,0,0.1
		c0.1,0.1,0.3,0.1,0.4,0.1c0,0,0.1,0.1,0,0.1c-0.1,0-0.3-0.1-0.4-0.1c0.3,0.1,0.2,0.1,0.3,0.2c-0.1,0-0.2-0.1-0.2-0.1
		c0,0,0.1,0.1,0.2,0.1h-0.2c-0.2,0,0.5,0.2,0.4,0.3c-0.1-0.1,0,0.1-0.2,0.1c0-0.1-0.4-0.1-0.5-0.1c-0.1,0.1,0.3,0.1,0.4,0.2
		l-0.3-0.1c0.1,0.1,0.2,0.1,0.3,0.1c-0.1,0-0.1,0-0.2-0.1c0,0.1,0,0.1-0.1,0.1l0.3,0.1c0,0-0.1,0-0.2,0c0,0,0,0,0,0
		c-0.3,0,0.1,0.1-0.1,0.1c0.1,0,0.2,0,0.3,0.1c-0.2-0.1-0.2,0-0.3,0c0.1,0,0,0.1,0.3,0.1c-0.1,0-0.1,0-0.3-0.1
		c0.2,0.1,0,0.1,0.1,0.2c0,0,0,0,0,0c0.1,0.1,0.2,0.1,0.4,0.2l-0.2-0.1c-0.1,0.1,0.4,0.1,0.4,0.2c-0.3-0.1,0,0.1-0.3,0
		c0.1,0.1,0.2,0.1,0.4,0.2c-0.2,0-0.4-0.1-0.4-0.1l0.1,0.1h-0.1c0.1,0,0.1,0.1,0.2,0.1c-0.2,0-0.3,0-0.4,0c0,0-0.1,0.1,0,0.1h-0.1
		c0.3,0.1,0,0.1,0.4,0.2h-0.2c0,0.1,0.4,0.1,0.4,0.1c0,0,0,0.1,0,0.1c-0.2-0.1-0.3,0-0.4,0c0,0,0,0.1,0.2,0.1
		c-0.2-0.1-0.3,0-0.3-0.1c-0.3,0,0.1,0.1,0,0.2h-0.2c0.1,0.1,0.4,0.1,0.6,0.2c-0.2,0-0.2,0-0.4-0.1c-0.1,0.1,0,0.2,0,0.2
		c-0.1,0-0.2,0-0.3,0c0.1,0.1,0,0.2,0.3,0.2c-0.1,0-0.1,0-0.2,0.1c0.1,0,0.2,0,0.1,0c0.1,0.1,0.2,0.1,0.1,0.2l-0.1,0
		c-0.1,0.1,0.5,0.2,0.3,0.3c-0.1,0-0.3,0-0.3,0c0.1,0,0.4,0,0.3,0.1h-0.2l0.2,0c0.2,0,0.1-0.1,0.3,0c-0.2,0.1,0.2,0.1,0,0.1
		c0,0-0.2,0-0.3-0.1c-0.3,0.1,0.2,0.2-0.1,0.3c0.2,0.1,0.2,0.2,0.4,0.2c-0.2,0-0.4,0-0.6,0c0,0.1,0.5,0.1,0.1,0.1
		c0.3,0,0.2,0.2,0.6,0.2c-0.1,0,0,0.1-0.2,0c0.1,0.1-0.3,0.1-0.3,0.1c0,0,0.3,0,0.3,0c0,0-0.1,0-0.1,0l0.1,0c-0.1,0-0.2,0-0.3,0
		c-0.1,0.1,0.2,0.1,0.3,0.2h-0.1l0,0.1h0l0.1,0.1h-0.1c0,0,0.1,0,0.1,0h-0.1c0.2,0,0.3,0.1,0.3,0.1h-0.1l0.3,0.1
		c-0.1,0.1-0.3-0.1-0.2,0h-0.3c0.1,0.1,0,0.1,0.1,0.1c0.1,0,0.1-0.1,0.2,0c-0.3,0.1,0.1,0.1,0.2,0.1c0,0,0,0-0.2-0.1
		c0,0,0.1,0,0.1,0l-0.1,0l0.2,0l-0.2-0.1c0.2,0,0-0.1,0.2,0c-0.1,0,0.1-0.1-0.2-0.1c0.1,0,0.2,0,0.2,0c-0.2-0.2-0.2-0.4-0.1-0.5
		l0.1,0c-0.1,0-0.2,0-0.2-0.1c0.2,0,0.4-0.2,0.1-0.2c0,0,0.1,0,0.1,0c0-0.1,0.2-0.2,0.2-0.2c-0.3,0,0.2-0.1-0.2-0.2l0.1,0
		c-0.1,0-0.3,0-0.4-0.1c0.3,0,0.2,0,0.5,0l-0.1,0h0.2c-0.6-0.1,0.3-0.2-0.2-0.3c0,0,0.1,0,0.1,0c0.1,0-0.2-0.1-0.3-0.1
		c0.1,0,0.2,0,0.3,0c0.1-0.1-0.2-0.2,0-0.3c-0.2,0-0.2,0-0.4,0c0.1,0,0.2,0,0.3,0c0.3-0.1-0.2-0.2,0.1-0.4c-0.2-0.1-0.3,0-0.4-0.1
		c0.1,0,0.4,0,0.4,0.1h0.1c0-0.1,0.1-0.2-0.3-0.3c0.3,0,0,0,0.2,0c0,0,0,0-0.1,0c-0.2-0.1,0-0.1,0-0.1h0l-0.2-0.1c0,0,0.1,0,0.2,0
		l-0.2,0c0,0,0.2,0,0.2,0h-0.1c0.1,0-0.1-0.1,0.1-0.1c0,0,0,0,0,0c0.3,0-0.1-0.1,0.1-0.2l-0.3,0c-0.1-0.1,0.1,0,0.2,0
		c0,0,0.1,0,0.1-0.1c-0.1,0-0.1,0-0.2,0l0.1,0l0.2,0.1c-0.4-0.1,0.1-0.2-0.3-0.3c0.1,0,0.2,0.1,0.2,0c0.2-0.1-0.3-0.2,0-0.3
		c0.2-0.1,0.1-0.2,0.2-0.3h-0.1l0.1-0.1c-0.2-0.1-0.1-0.1-0.3-0.2c0.1,0,0.2,0,0.2,0.1c0,0-0.1-0.1,0-0.1l0.1,0
		c0.1-0.1,0.1-0.2,0-0.3c0,0,0.1,0,0.2,0c0,0-0.1-0.1-0.2-0.2c0,0,0.1,0,0.1,0l-0.2-0.1c0,0,0.2,0,0.2,0c-0.2-0.1,0-0.2,0-0.2
		l-0.1,0c-0.1,0,0.1,0,0.2,0c0.1-0.1-0.3-0.2-0.2-0.4c0.4,0.1-0.1-0.2,0.3,0c-0.1-0.1,0.1,0-0.1-0.1c0,0,0,0,0.1,0
		c0.1,0.1,0.1,0,0-0.1l0.1,0.1c-0.2-0.2-0.1-0.2-0.3-0.3c0,0,0.1,0.1,0.1,0.1c0.2,0.1-0.1-0.1,0-0.1c0,0.1,0.1,0.1,0.1,0.1
		c0.2,0.2,0-0.3,0.2-0.2c0,0-0.2-0.2-0.1-0.2c0.1,0.1,0.1,0.2,0.2,0.3c-0.1-0.2,0-0.1,0-0.1c0,0.1,0.1,0.1,0.1,0.2
		c0.1,0.1,0-0.2,0.1,0c0-0.1,0-0.1-0.1-0.2c0-0.2,0.2,0.2,0.2,0.1c0,0,0,0,0-0.1c0,0,0.1,0,0.1,0.1c0-0.1-0.1-0.2,0-0.2l0,0.1
		c0,0,0-0.1,0-0.1l0-0.1c0.1,0.1,0-0.2,0.1,0.1l0,0l0.1,0.1c0-0.1,0-0.2,0-0.2c0.1,0.3,0.1,0,0.2,0.1l0,0.1c0-0.1,0.1-0.1,0.1-0.2
		c0,0,0.1,0.1,0.1,0.1c0-0.1,0.1-0.1,0-0.3l0.1,0.2c-0.1-0.4,0.2,0.1,0.1-0.3c0,0.1,0.1,0.1,0.1,0.2c0-0.2,0-0.2,0.1-0.2v0
		c0.1,0,0.1-0.2,0.1-0.2l0.1,0.3c0-0.1,0-0.3,0-0.2c0,0,0,0.1,0,0.1c0-0.1,0.1,0,0.1,0.1c0-0.2,0.1-0.2,0-0.4c0.1,0.2,0,0.1,0.1,0.4
		c0.1,0.1,0.2-0.1,0.2-0.2c0,0.1,0,0.1,0.1,0.2c0,0,0-0.2-0.1-0.4s-0.2-0.5-0.2-0.6c-0.1-0.2-0.1-0.3-0.2-0.4c0,0.1,0,0.3-0.1,0.1
		l0.1,0.2c0,0.1-0.2-0.4-0.3-0.4l0.1,0.1c0,0,0,0.1,0,0.1c0-0.1,0-0.1,0-0.1l0,0.3c0-0.1-0.1-0.2-0.1-0.3c-0.1,0,0.2,0.4,0,0.3
		c-0.1-0.1,0-0.1-0.1-0.2c-0.1-0.2-0.1,0-0.1,0.1c-0.1-0.2,0-0.2-0.1-0.3c0,0.1,0.1,0.2,0.1,0.3c0-0.2,0-0.1-0.1-0.1
		c0,0.1,0,0.1,0,0.2s0,0,0,0l0.1,0.2c0,0.2-0.1-0.1-0.2-0.1c0,0,0-0.1,0-0.1c-0.1-0.1-0.1-0.2-0.1,0v0c0,0.2,0.1,0.3,0.1,0.5
		c-0.1,0-0.2-0.6-0.2-0.4c0.1,0.1,0.1,0.4,0,0.5l0-0.4c0,0,0,0.1,0,0.1l0,0.1c0.1,0.3-0.1,0-0.1,0.2c-0.1-0.4,0-0.4-0.2-0.8
		c0,0.2,0,0.4,0,0.4l0-0.3c-0.1-0.1-0.1,0.4,0,0.7c0-0.2-0.1-0.3-0.1-0.5l-0.1,0.1l-0.1-0.3c0.1,0.3,0,0.1,0.1,0.4
		c0-0.1,0-0.1,0-0.1c0,0.1,0.1,0.3,0,0.3c-0.1-0.1,0-0.1-0.1-0.2c0,0.1-0.1-0.1,0,0l0.1,0.1c0,0.2,0,0,0,0.1c0-0.1,0-0.2-0.1-0.3v0
		c0,0,0,0.2,0,0.1l-0.1-0.3l0,0.2c0,0-0.1-0.1-0.1-0.2c-0.2-0.1,0.2,0.6,0,0.4c0-0.1,0-0.2,0-0.1c0-0.2-0.1-0.3-0.2-0.3c0,0,0,0,0,0
		C50.8,191.1,50.7,191.1,50.7,191.3L50.7,191.3z"/>
	<path class="st0" d="M50.8,191.1C50.8,191.1,50.9,191,50.8,191.1C50.9,190.9,50.8,190.9,50.8,191.1z"/>
	<path class="st0" d="M48.7,196.2L48.7,196.2L48.7,196.2z"/>
	<path class="st0" d="M48.8,196.5C48.8,196.5,48.9,196.5,48.8,196.5C48.8,196.5,48.8,196.5,48.8,196.5z"/>
	<path class="st0" d="M49,193.6L49,193.6L49,193.6z"/>
	<path class="st0" d="M48.7,195.2c0.1,0,0.2,0.1,0.2,0.1C48.9,195.2,48.8,195.2,48.7,195.2z"/>
	<path class="st0" d="M48.8,194.7L48.8,194.7C48.8,194.6,48.8,194.6,48.8,194.7z"/>
	<path class="st0" d="M48.9,193.5c0.1,0.1,0.1,0.1,0.1,0.1C49,193.6,49.1,193.5,48.9,193.5z"/>
	<polygon class="st0" points="49.1,196.9 49,196.8 49.1,196.9 	"/>
	<path class="st0" d="M49,196.6c0,0,0-0.1-0.1-0.1C49,196.6,49,196.6,49,196.6z"/>
	<polygon class="st0" points="49.2,195.6 49.1,195.6 49.2,195.6 	"/>
</g>
<g>
	<polygon class="st0" points="54.2,197.1 54.3,197.1 54.2,197.1 	"/>
	<path class="st0" d="M54.4,196.8c-0.2,0-0.2-0.1-0.6-0.1l0.3,0.1c-0.2,0-0.2,0-0.1,0.1v0c0,0,0.2,0,0.2,0c-0.1,0,0.2,0.1-0.1,0.1h0
		l0.1,0.1c0,0-0.1,0-0.2,0c0.1,0.1,0.2,0.1,0.2,0.1c0.4,0-0.3-0.1,0.1-0.1h0C54.2,196.9,54.5,196.8,54.4,196.8L54.4,196.8z"/>
	<path class="st0" d="M54,196.9L54,196.9C54,196.9,54,196.9,54,196.9z"/>
	<path class="st0" d="M53.8,194.7L53.8,194.7C53.8,194.8,53.8,194.7,53.8,194.7z"/>
	<path class="st0" d="M53.6,195.8L53.6,195.8C53.6,195.8,53.6,195.8,53.6,195.8z"/>
	<path class="st0" d="M52.8,192.9L52.8,192.9C52.8,192.9,52.7,192.9,52.8,192.9z"/>
	<path class="st0" d="M52.6,192.2L52.6,192.2L52.6,192.2z"/>
	<path class="st0" d="M51.5,192.8L51.5,192.8C51.4,192.9,51.5,192.8,51.5,192.8z"/>
	<path class="st0" d="M51.3,192.7C51.3,192.7,51.3,192.7,51.3,192.7C51.3,192.7,51.3,192.7,51.3,192.7z"/>
	<path class="st0" d="M52.7,192.2C52.7,192.2,52.6,192.2,52.7,192.2C52.6,192.2,52.7,192.2,52.7,192.2z"/>
	<path class="st0" d="M51.4,193.2l-0.2,0.1C51.3,193.2,51.4,193.2,51.4,193.2z"/>
	<path class="st0" d="M51.1,192.7C51.1,192.7,51.2,192.7,51.1,192.7C51.1,192.7,51.1,192.7,51.1,192.7z"/>
	<path class="st0" d="M54.4,196.7C54.4,196.7,54.4,196.7,54.4,196.7C54.4,196.8,54.4,196.7,54.4,196.7z"/>
	<path class="st0" d="M51.7,194.5C51.7,194.5,51.6,194.5,51.7,194.5C51.6,194.5,51.6,194.5,51.7,194.5z"/>
	<path class="st0" d="M51.4,193.7L51.4,193.7C51.4,193.7,51.4,193.7,51.4,193.7L51.4,193.7L51.4,193.7z"/>
	<path class="st0" d="M51.5,193.9L51.5,193.9C51.5,193.9,51.5,193.9,51.5,193.9z"/>
	<path class="st0" d="M51.2,193.6C51.2,193.6,51.1,193.6,51.2,193.6L51.2,193.6L51.2,193.6z"/>
	<path class="st0" d="M51.3,193.4c-0.1,0-0.1,0-0.2,0.1c-0.1,0.1,0.2,0,0,0.1l0.1-0.1c0.2,0,0.2,0,0,0.1h-0.1c0.2,0-0.1,0.1,0,0.1
		c0.1,0,0.1,0,0.2-0.1h0.2l-0.3,0.1h0.1c0.1,0-0.1,0.1,0.2,0c-0.1,0.1-0.2,0.1-0.3,0.1c0.1,0,0,0,0.1,0l-0.2,0.1h0.2c0,0,0,0-0.1,0
		c0.2,0-0.1,0.1,0.3,0c0,0,0,0,0,0c0.2,0,0.1,0,0,0.1c0.1,0,0.2-0.1,0.3-0.1c0,0.1,0,0.1,0.3,0c-0.3,0.1-0.5,0.1-0.7,0.2
		c0.2,0,0.3-0.1,0.3,0c-0.1,0.1-0.1,0.2-0.3,0.3l0.2-0.1h0.1l-0.3,0.1c0.1,0,0.2,0,0.3-0.1c0.2,0-0.4,0.2-0.1,0.1l-0.1,0
		c0.1-0.1,0.1,0,0.2,0l-0.2,0.1l0-0.1c-0.2,0.1,0.1,0,0.1,0.1c0.1,0,0.3-0.1,0.4-0.1c0,0,0.1,0,0,0c-0.1,0.1-0.3,0.1-0.4,0.2
		c0.3-0.1,0.2-0.1,0.3-0.1c-0.1,0.1-0.2,0.1-0.2,0.1c0,0,0.1,0,0.2-0.1l-0.1,0.1c-0.2,0.1,0.5-0.2,0.4-0.1c-0.1,0.1,0,0-0.1,0.1
		c0,0-0.3,0.2-0.5,0.3c-0.1,0.1,0.3-0.1,0.4-0.1l-0.3,0.2c0.2,0,0.2-0.1,0.3-0.1c-0.1,0-0.1,0.1-0.2,0.1c0,0.1,0,0,0,0.1l0.3-0.2
		c0,0-0.1,0.1-0.1,0.1c0,0,0,0,0,0c-0.2,0.2,0.2-0.1,0,0.1c0.1-0.1,0.2-0.1,0.2-0.1c-0.2,0.1-0.1,0.1-0.2,0.2c0.1-0.1,0.1,0,0.2-0.1
		c-0.1,0.1-0.1,0.1-0.2,0.1c0.2-0.1,0.1,0.1,0.2,0c0,0,0,0,0,0c0.1-0.1,0.2-0.1,0.4-0.2l-0.1,0.1c0,0.1,0.3-0.2,0.3-0.2
		c-0.2,0.2,0.1,0-0.2,0.2c0.1-0.1,0.2-0.1,0.4-0.2c-0.1,0.1-0.3,0.2-0.3,0.3l0.1-0.1l-0.1,0.1c0.1-0.1,0.1-0.1,0.2-0.1
		c-0.1,0.1-0.2,0.2-0.3,0.3c0,0-0.1,0.1,0.1,0l-0.1,0.1c0.2-0.2,0.1,0,0.3-0.2l-0.1,0.1c0,0,0.3-0.2,0.3-0.3c0,0,0,0,0,0
		c-0.2,0.1-0.2,0.2-0.2,0.3c0,0,0.1,0,0.2-0.1c-0.1,0.1-0.2,0.2-0.2,0.2c-0.2,0.3,0.1,0,0.1,0l-0.1,0.1c0.1,0,0.3-0.2,0.5-0.4
		c-0.1,0.1-0.1,0.2-0.3,0.3c0,0.1,0,0.1,0.1,0.1c0,0,0,0,0,0c-0.1,0.1-0.1,0.2-0.2,0.2c0.1-0.1,0,0,0.2-0.2
		c-0.1,0.1-0.1,0.1-0.1,0.1c0.1-0.1,0.1-0.1,0.1-0.1c0.1-0.1,0.2-0.1,0.2,0l-0.1,0.1c0,0.1,0.5-0.2,0.3,0c0,0-0.2,0.1-0.2,0.1
		c0.1-0.1,0.3-0.2,0.3-0.1l-0.2,0.1l0.2-0.1c0.1-0.1,0.1-0.1,0.3-0.2c-0.2,0.1,0.2-0.1,0,0.1c0,0-0.2,0.1-0.3,0.1
		c-0.2,0.2,0.2,0,0,0.2c0.2,0,0.2,0,0.4,0c-0.2,0.1-0.4,0.1-0.6,0.1c0,0,0.5-0.1,0.1,0c0.3-0.1,0.2,0.1,0.6,0c-0.1,0,0,0-0.2,0
		c0.1,0-0.3,0.1-0.3,0.1c0,0,0.3-0.1,0.3,0c0,0-0.1,0-0.1,0h0.1c-0.1,0-0.2,0-0.3,0c-0.1,0,0.2,0,0.3,0.1h-0.1l0,0h0l0.2,0h-0.1
		c0,0,0.1,0,0.1,0h-0.1c0.2,0,0.3,0,0.3,0.1h-0.1l0.3,0.1c-0.1,0-0.3,0-0.2,0h-0.3c0.1,0,0,0,0.1,0.1c0.1,0,0.1,0,0.2,0
		c-0.3,0,0.1,0.1,0.2,0.1c0,0,0,0-0.2,0c0,0,0.1,0,0.2,0l-0.2,0h0.2l-0.2-0.1c0.2,0,0,0,0.2,0c-0.1,0,0.1-0.1-0.2-0.1
		c0.1,0,0.2,0,0.2,0c-0.2-0.1-0.2-0.2-0.1-0.4h0.1c-0.1,0-0.2,0-0.2,0c0.2-0.1,0.4-0.2,0-0.1c0,0,0.1,0,0.1,0c0,0,0.2-0.2,0.1-0.2
		c-0.3,0.1,0.2-0.2-0.3,0l0.1,0c-0.1,0.1-0.3,0.1-0.4,0.1c0.3-0.1,0.2-0.1,0.5-0.2l-0.1,0.1l0.2-0.1c-0.6,0.2,0.2-0.3-0.3-0.2
		c0,0,0.1,0,0.1,0c0.1-0.1-0.2,0-0.3,0c0.1-0.1,0.2-0.1,0.3-0.1c0-0.1-0.3,0-0.2-0.2c-0.2,0.1-0.2,0.1-0.3,0.2
		c0-0.1,0.1-0.1,0.2-0.2c0.2-0.3-0.3,0-0.2-0.3c-0.1,0.1-0.1,0.1-0.2,0.2c0,0-0.1,0.1-0.1,0.1c0.1-0.1,0.2-0.3,0.3-0.3l0.1-0.1
		c0,0,0-0.1-0.3,0.2c0.2-0.2,0-0.1,0.1-0.2c0,0,0,0,0,0.1c-0.2,0.2,0,0,0,0l0,0l-0.1,0.1c0,0,0-0.1,0.1-0.1l-0.1,0.1
		c0,0,0.2-0.2,0.1-0.2l-0.1,0.1c0.1-0.1-0.1,0.1,0-0.1c0,0,0,0,0,0c0.2-0.2-0.1,0,0-0.1l-0.2,0.2c-0.1,0.1,0-0.1,0.1-0.1
		c0,0,0.1-0.1,0.1-0.1c-0.1,0.1-0.1,0.1-0.1,0.1l0-0.1l0.1-0.1c-0.4,0.3,0-0.1-0.3,0.2c0.1-0.1,0.2-0.1,0.2-0.1
		c0.1-0.1-0.3,0.1-0.1,0c0.2-0.2-0.1-0.1,0-0.2l-0.1,0.1l0-0.1c-0.2,0.1-0.1,0-0.3,0.1c0.1,0,0.1-0.1,0.2-0.1c0,0-0.1,0,0,0l0.1,0
		c0-0.1,0-0.1-0.1,0c0,0,0.1-0.1,0.2-0.1c0,0-0.1,0-0.2,0.1c0,0,0.1,0,0.1-0.1l-0.2,0.1c0,0,0.1-0.1,0.2-0.1c-0.2,0.1,0-0.1-0.1-0.1
		l-0.1,0c-0.1,0,0-0.1,0.1-0.1c0.1-0.1-0.3,0.1-0.3,0c0.3-0.1-0.1,0,0.3-0.2c-0.1,0,0-0.1-0.2,0c0,0,0.1,0,0.1,0
		c0.1-0.1,0-0.1-0.1-0.1l0.1,0c-0.3,0.1-0.2,0-0.5,0.1c0.1,0,0.1,0,0.2,0c0.2-0.1-0.1,0-0.1,0c0.1,0,0.1,0,0.2-0.1
		c0.3-0.1-0.2-0.1-0.1-0.3c0,0-0.3,0.1-0.3,0c0.1-0.1,0.3-0.1,0.3-0.1c-0.2,0-0.1,0-0.1,0c0.1,0,0.1,0,0.2,0c0.1,0-0.2,0,0-0.1
		c-0.1,0-0.1,0-0.2,0c-0.2,0,0.2-0.1,0.1-0.1c0,0,0,0-0.1,0c0,0,0,0,0.2-0.1c-0.1,0-0.2,0-0.2,0l0.1,0c0,0-0.1,0-0.1,0l-0.1,0
		c0.1-0.1-0.2,0,0.1-0.1l0,0l0.1-0.1c-0.1,0-0.2,0-0.2,0c0.3-0.1,0-0.1,0.1-0.1l0.1,0c-0.1,0-0.1-0.1-0.1,0c0,0,0.1-0.1,0.1-0.1
		c-0.1,0-0.1,0-0.2,0l0.2-0.1c-0.4,0.1,0.1-0.1-0.3,0c0.1,0,0.1-0.1,0.2-0.1c-0.2,0-0.2,0-0.1,0h0c0,0-0.2,0-0.2-0.1l0.3-0.1
		c0,0-0.3,0.1-0.2,0c0,0,0.1,0,0.1,0c-0.1,0,0-0.1,0.1-0.1c-0.2,0-0.2,0-0.4,0c0.2-0.1,0.1,0,0.4-0.1c0.1-0.1,0-0.1-0.2-0.1
		c0,0,0.1,0,0.2-0.1c0,0-0.7,0.1-1,0.3c-0.2,0.1-0.3,0.1-0.5,0.2c0.1,0,0.3-0.1,0.1,0l0.2-0.1c0.1,0-0.4,0.1-0.4,0.2l0.1,0
		c0,0,0.1,0,0.1,0c-0.1,0-0.1,0-0.1,0l0.3-0.1c-0.1,0-0.2,0.1-0.3,0.1c0,0,0.4-0.1,0.3-0.1c-0.1,0-0.1,0-0.2,0.1c-0.2,0.1,0,0,0.1,0
		c-0.2,0.1-0.2,0-0.3,0.1c0.1,0,0.2-0.1,0.3-0.1c-0.2,0.1-0.1,0-0.1,0.1c0.1,0,0.1-0.1,0.2-0.1s0,0,0,0l0.2-0.1
		c0.2,0-0.1,0.1-0.2,0.1c0,0-0.1,0-0.1,0c-0.1,0-0.2,0.1,0,0.1h0c0.2,0,0.3-0.1,0.5-0.1c0,0-0.6,0.2-0.4,0.1
		c0.2-0.1,0.4-0.1,0.5-0.1l-0.4,0.1c0,0,0.1,0,0.1,0l0.1,0c0.3-0.1,0,0,0.2,0c-0.4,0.1-0.3,0.1-0.8,0.2c0.2,0,0.4-0.1,0.4,0
		l-0.3,0.1c-0.1,0.1,0.4,0,0.7-0.1c-0.2,0.1-0.3,0.1-0.5,0.1l0.1,0l-0.3,0.1c0.3-0.1,0.1,0,0.4-0.1c0,0-0.1,0-0.1,0
		c0.1,0,0.3-0.1,0.3-0.1c-0.1,0-0.1,0-0.2,0.1c0.1,0-0.1,0,0,0l0.1-0.1c0.2,0,0,0,0.1,0c-0.1,0-0.2,0-0.3,0.1h0c0,0,0.2,0,0.1,0
		l-0.3,0.1l0.2,0c0,0-0.1,0-0.2,0.1c-0.2,0.1,0.6-0.2,0.4,0c-0.1,0-0.2,0-0.1,0c-0.2,0-0.3,0.1-0.3,0.1c0,0,0,0,0,0
		c0,0,0,0.1,0.2,0.1L51.3,193.4z"/>
	<path class="st0" d="M51.1,193.4C51.1,193.4,51.1,193.3,51.1,193.4C51,193.4,51,193.4,51.1,193.4z"/>
	<path class="st0" d="M52.9,195.9L52.9,195.9L52.9,195.9z"/>
	<path class="st0" d="M53,195.9C53,195.9,53.1,195.8,53,195.9C53,195.8,53,195.9,53,195.9z"/>
	<path class="st0" d="M51.8,194.7L51.8,194.7L51.8,194.7z"/>
	<path class="st0" d="M52.3,195.6c0.1-0.1,0.1-0.1,0.2-0.1C52.5,195.4,52.4,195.5,52.3,195.6z"/>
	<path class="st0" d="M52.2,195.2L52.2,195.2C52.2,195.3,52.2,195.3,52.2,195.2z"/>
	<path class="st0" d="M51.7,194.7c0.1,0,0.1,0,0.1,0C51.8,194.7,51.8,194.6,51.7,194.7z"/>
	<polygon class="st0" points="53.3,195.8 53.2,195.8 53.3,195.8 	"/>
	<path class="st0" d="M53.2,195.7c0,0-0.1,0-0.1,0.1C53.2,195.8,53.2,195.8,53.2,195.7z"/>
	<polygon class="st0" points="52.9,195.3 52.8,195.4 52.9,195.4 	"/>
</g>
<g>
	<polygon class="st0" points="87.6,184.8 87.7,184.7 87.6,184.9 	"/>
	<path class="st0" d="M87.4,184.6c-0.1,0.1-0.1,0.2-0.2,0.5l0.1-0.2c0,0.2,0,0.2,0,0.1h0c0,0,0.1-0.2,0.1-0.2c0,0.1,0.1-0.2,0.1,0.1
		v0l0.1-0.1c0,0,0,0.1,0,0.2c0-0.1,0.1-0.2,0.1-0.2C87.7,184.4,87.5,185.1,87.4,184.6L87.4,184.6C87.5,184.8,87.5,184.5,87.4,184.6
		L87.4,184.6z"/>
	<path class="st0" d="M87.5,185L87.5,185C87.5,185,87.5,185,87.5,185z"/>
	<path class="st0" d="M86.4,184L86.4,184C86.4,184.1,86.4,184,86.4,184z"/>
	<path class="st0" d="M86.4,184.9L86.4,184.9C86.4,185,86.4,185,86.4,184.9z"/>
	<path class="st0" d="M85.5,182.7L85.5,182.7C85.5,182.7,85.4,182.7,85.5,182.7z"/>
	<path class="st0" d="M85.5,182.2L85.5,182.2L85.5,182.2z"/>
	<path class="st0" d="M84.2,182.5L84.2,182.5C84.2,182.5,84.2,182.5,84.2,182.5z"/>
	<path class="st0" d="M84.1,182.3C84.1,182.3,84.1,182.2,84.1,182.3C84.1,182.2,84.1,182.2,84.1,182.3z"/>
	<path class="st0" d="M85.6,182.2L85.6,182.2C85.5,182.2,85.5,182.2,85.6,182.2z"/>
	<path class="st0" d="M84.1,182.8l-0.2,0C84,182.8,84.1,182.8,84.1,182.8z"/>
	<path class="st0" d="M83.9,182.2C83.9,182.2,84,182.2,83.9,182.2C83.9,182.2,83.9,182.2,83.9,182.2z"/>
	<path class="st0" d="M87.4,184.6C87.4,184.6,87.4,184.6,87.4,184.6C87.4,184.6,87.4,184.6,87.4,184.6z"/>
	<path class="st0" d="M84.3,184.2C84.3,184.2,84.3,184.2,84.3,184.2C84.3,184.2,84.3,184.2,84.3,184.2z"/>
	<path class="st0" d="M84.1,183.4L84.1,183.4C84.1,183.4,84,183.4,84.1,183.4L84.1,183.4L84.1,183.4z"/>
	<path class="st0" d="M84.2,183.6L84.2,183.6C84.1,183.6,84.1,183.6,84.2,183.6z"/>
	<path class="st0" d="M83.8,183.3C83.8,183.3,83.8,183.3,83.8,183.3L83.8,183.3z"/>
	<path class="st0" d="M84,183.1c-0.1,0-0.1,0-0.2,0c-0.1,0.1,0.2,0,0,0.1l0.1,0c0.2,0,0.2,0.1,0,0.1h-0.1c0.2,0-0.1,0.1,0,0.1
		c0.1,0,0.2,0,0.2-0.1l0.2,0l-0.3,0.1H84c0.1,0-0.1,0.1,0.2,0c-0.1,0.1-0.2,0.1-0.3,0.1c0.1,0,0,0,0.1,0l-0.2,0.1H84c0,0,0,0-0.1,0
		c0.2,0-0.1,0.1,0.3,0c0,0,0,0,0,0c0.2-0.1,0.1,0,0,0.1c0.1,0,0.2-0.1,0.3-0.1c0,0.1,0,0.1,0.3,0c-0.3,0.1-0.5,0.1-0.7,0.3
		c0.2-0.1,0.3-0.1,0.4-0.1c-0.1,0.1-0.1,0.2-0.3,0.3l0.2-0.1h0.1l-0.3,0.1c0.1,0,0.2-0.1,0.3-0.1c0.2,0-0.4,0.2-0.1,0.1l-0.1,0
		c0.1-0.1,0.1,0,0.2,0l-0.2,0.1l0-0.1c-0.2,0.1,0.1,0,0.1,0.1c0.1,0,0.3-0.1,0.3-0.2c0,0,0.1,0,0,0c-0.1,0.1-0.3,0.2-0.4,0.2
		c0.2-0.1,0.2-0.1,0.3-0.1c-0.1,0.1-0.2,0.1-0.2,0.1c0,0,0.1,0,0.2-0.1l-0.1,0.1c-0.2,0.2,0.4-0.2,0.4-0.1c-0.1,0.1,0.1,0-0.1,0.1
		c0,0-0.3,0.2-0.4,0.3c0,0.1,0.3-0.2,0.3-0.2l-0.3,0.2c0.1-0.1,0.1-0.1,0.2-0.1c-0.1,0.1-0.1,0.1-0.2,0.1c0,0.1,0,0,0,0.1l0.2-0.2
		c0,0-0.1,0.1-0.1,0.1c0,0,0,0,0,0c-0.2,0.2,0.1-0.1,0,0.1c0.1-0.1,0.2-0.2,0.2-0.2c-0.2,0.1-0.1,0.1-0.2,0.2c0.1-0.1,0.1,0,0.2-0.2
		c-0.1,0.1-0.1,0.1-0.2,0.2c0.2-0.2,0.1,0,0.2-0.1c0,0,0,0,0,0c0.1-0.1,0.2-0.1,0.4-0.2l-0.1,0.1c0,0.1,0.3-0.3,0.3-0.2
		c-0.2,0.2,0.1,0-0.1,0.2c0.1-0.1,0.2-0.1,0.3-0.3c-0.1,0.1-0.2,0.3-0.3,0.3l0.1-0.1l-0.1,0.1c0.1-0.1,0.1-0.1,0.1-0.1
		c-0.1,0.1-0.2,0.2-0.2,0.3c0.1,0,0,0.1,0.1,0l0,0.1c0.2-0.2,0.1,0,0.3-0.3l-0.1,0.1c0,0,0.2-0.3,0.3-0.4c0,0,0,0,0,0
		c-0.1,0.2-0.1,0.2-0.2,0.3c0,0,0.1,0,0.2-0.1c-0.1,0.1-0.2,0.3-0.2,0.2c-0.2,0.3,0.1,0,0.1,0l-0.1,0.1c0.1-0.1,0.2-0.3,0.4-0.5
		c-0.1,0.2-0.1,0.2-0.2,0.4c0,0.1,0.1,0,0.1,0.1c-0.1,0.1-0.1,0.2-0.1,0.2c0.1-0.1,0.1,0.1,0.2-0.2c-0.1,0.1,0,0.1,0,0.1
		c0-0.1,0.1-0.1,0.1-0.1c0.1-0.1,0.2-0.2,0.1-0.1l0,0.1c0,0.1,0.3-0.4,0.2-0.2c0,0.1-0.1,0.2-0.1,0.2c0.1-0.1,0.2-0.3,0.2-0.3
		l-0.1,0.2l0.1-0.2c0.1-0.2,0-0.1,0.1-0.3c-0.1,0.2,0.1-0.2,0,0.1c0,0-0.1,0.2-0.1,0.2c0,0.3,0.2-0.2,0.1,0.1
		c0.1-0.1,0.1-0.2,0.2-0.3c-0.1,0.2-0.1,0.4-0.2,0.5c0,0,0.2-0.4,0.1-0.1c0.1-0.3,0.1-0.1,0.3-0.5c0,0.1,0,0-0.1,0.2
		c0.1-0.1-0.1,0.4,0,0.4c0,0,0.1-0.2,0.1-0.2c0,0,0,0.1,0,0.1l0-0.1c0,0.1-0.1,0.2-0.1,0.3c0,0.1,0.1-0.2,0.2-0.2l0,0.1l0,0v0
		l0.1-0.1l0,0.1c0,0,0-0.1,0.1-0.1l0,0.1c0.1-0.2,0.1-0.3,0.1-0.3v0.1l0.1-0.2c0,0.1-0.1,0.3,0,0.2l-0.1,0.3c0.1-0.1,0,0.1,0.1,0
		c0-0.1,0-0.1,0-0.2c0,0.3,0.1-0.1,0.1-0.2c0,0,0,0-0.1,0.1c0,0,0-0.1,0-0.1l-0.1,0.1l0-0.2l-0.1,0.1c0.1-0.2,0,0,0.1-0.2
		c0,0.1,0-0.1-0.1,0.1c0-0.1,0.1-0.1,0-0.2c-0.1,0.1-0.2,0.1-0.2,0l0-0.1c0,0.1-0.1,0.2-0.1,0.2c0-0.2,0.1-0.4-0.1-0.1
		c0,0,0-0.1,0-0.1c0,0,0-0.2,0-0.2c-0.1,0.3,0-0.2-0.2,0.2l0-0.1c0,0.1-0.1,0.3-0.2,0.4c0.1-0.3,0.1-0.2,0.2-0.5l0,0.1l0.1-0.2
		c-0.3,0.6,0-0.3-0.2,0.1c0,0,0-0.1,0-0.1c0-0.1-0.1,0.1-0.1,0.2c0-0.1,0.1-0.2,0.1-0.3c0-0.1-0.2,0.2-0.1,0
		c-0.1,0.1-0.1,0.2-0.2,0.3c0-0.1,0.1-0.2,0.1-0.2c0.1-0.3-0.2,0.1-0.1-0.1c-0.1,0.1-0.1,0.2-0.2,0.3c0.1-0.1,0.2-0.4,0.2-0.4
		l0.1-0.1c0,0,0-0.1-0.2,0.2c0.1-0.2,0-0.1,0.1-0.2c0,0,0,0,0,0.1c-0.1,0.2,0,0,0,0l0,0l-0.1,0.1c0,0,0-0.1,0.1-0.1l-0.1,0.2
		c0,0,0.1-0.2,0.1-0.2l-0.1,0.1c0-0.1-0.1,0.1,0-0.1c0,0,0,0,0,0c0.2-0.2-0.1,0.1,0-0.1l-0.2,0.2c-0.1,0.1,0-0.1,0.1-0.1
		c0,0,0-0.1,0.1-0.1c-0.1,0.1-0.1,0.1-0.1,0.2l0-0.1l0.1-0.1c-0.3,0.3,0-0.1-0.3,0.2c0-0.1,0.1-0.1,0.2-0.2c0.1-0.2-0.2,0.2-0.1,0
		c0.1-0.2,0-0.1,0-0.2l-0.1,0.1l0-0.1c-0.2,0.1-0.1,0.1-0.3,0.2c0.1,0,0.1-0.1,0.2-0.1c0,0-0.1,0.1,0,0l0.1,0c0-0.1,0-0.1-0.1,0
		c0,0,0.1-0.1,0.2-0.1c0,0-0.1,0-0.2,0.1c0,0,0.1,0,0.1-0.1l-0.2,0.1c0,0,0.1-0.1,0.2-0.1c-0.2,0.1,0,0-0.1,0l-0.1,0.1
		c-0.1,0,0-0.1,0.1-0.1c0.1-0.1-0.3,0.1-0.3,0c0.3-0.2-0.1,0,0.3-0.2c-0.1,0,0-0.1-0.2,0c0,0,0.1,0,0.1,0c0.1-0.1,0,0-0.1,0l0.1,0
		c-0.3,0.1-0.2,0-0.5,0.1c0.1,0,0.1,0,0.2,0c0.2-0.1-0.1,0-0.1,0c0.1,0,0.1,0,0.2-0.1c0.3-0.1-0.2-0.1,0-0.2c0,0-0.3,0.1-0.3,0
		c0.1,0,0.3,0,0.3-0.1c-0.2,0-0.1,0-0.1,0c0.1,0,0.2,0,0.2,0c0.1,0-0.2,0,0-0.1c-0.1,0-0.1,0-0.2,0c-0.2,0,0.2-0.1,0.1-0.1
		c0,0,0,0-0.1,0c0,0,0,0,0.2,0c-0.1,0-0.2,0-0.2,0h0.2c0,0-0.1,0-0.2,0l-0.1,0c0.1,0-0.2,0,0.1-0.1l0,0l0.1,0c-0.1,0-0.2,0-0.2,0
		c0.3,0,0.1,0,0.1-0.1h0.1c-0.2,0-0.1-0.1-0.1,0c0,0,0.1,0,0.2,0c-0.1,0-0.1,0-0.2,0l0.3,0c-0.4,0,0.1-0.1-0.3,0c0.1,0,0.2,0,0.2,0
		c-0.2,0-0.2,0-0.1-0.1h0c0,0-0.2,0-0.2-0.1h0.3c0,0-0.3,0-0.2,0c0,0,0.1,0,0.1,0c-0.1,0,0,0,0.1,0c-0.2,0-0.1,0-0.4-0.1
		c0.3,0,0.1,0,0.4,0c0.1,0,0-0.1-0.1-0.1c0.1,0,0.1,0,0.2,0c0,0-0.7-0.1-1-0.1c-0.2,0-0.3,0-0.5,0c0.1,0,0.3,0.1,0,0.1h0.2
		c0.1,0.1-0.4,0-0.4,0.1H84c0,0,0.1,0,0.1,0c-0.1,0-0.1,0-0.1,0l0.3,0.1c-0.1,0-0.2,0-0.3,0c0,0.1,0.4,0,0.3,0.1c-0.1,0-0.1,0-0.2,0
		c-0.2,0,0,0,0.1,0.1c-0.2,0-0.2,0-0.3,0c0.1,0,0.3,0,0.3,0c-0.2,0-0.1,0-0.1,0c0.1,0,0.2,0,0.2,0s0,0,0,0l0.2,0
		c0.2,0-0.1,0-0.2,0.1c0,0-0.1,0-0.1,0c-0.1,0-0.2,0.1-0.1,0.1h0c0.2,0.1,0.3,0,0.5,0c0,0-0.6,0-0.4,0.1c0.2,0,0.4,0,0.5,0h-0.4
		c0,0,0.1,0,0.1,0h0.1c0.3,0,0,0,0.1,0c-0.4,0-0.3,0-0.8,0c0.2,0,0.5,0,0.4,0.1h-0.3c-0.1,0,0.4,0.1,0.7,0.1c-0.2,0-0.3,0-0.5,0
		l0.1,0h-0.3c0.3,0,0.1,0,0.5,0c0,0-0.1,0-0.1,0c0.1,0,0.3,0,0.3,0c-0.1,0-0.1,0-0.2,0c0.2,0-0.1,0,0,0l0.2,0c0.2,0,0,0,0.1,0
		c-0.1,0-0.2,0-0.3,0h0c0,0,0.2,0,0,0l-0.3,0h0.2c0,0-0.1,0-0.2,0c-0.2,0.1,0.6-0.1,0.4,0c-0.1,0-0.2,0-0.1,0c-0.2,0-0.3,0-0.3,0.1
		c0,0,0,0,0,0C83.8,183,83.8,183.1,84,183.1L84,183.1z"/>
	<path class="st0" d="M83.8,183C83.8,183,83.8,182.9,83.8,183C83.7,182.9,83.6,183,83.8,183z"/>
	<path class="st0" d="M85.7,185.3L85.7,185.3L85.7,185.3z"/>
	<path class="st0" d="M85.9,185.3C85.9,185.3,85.9,185.3,85.9,185.3C85.9,185.3,85.9,185.4,85.9,185.3z"/>
	<path class="st0" d="M84.5,184.4L84.5,184.4L84.5,184.4z"/>
	<path class="st0" d="M85.1,185.2c0.1-0.1,0.1-0.1,0.2-0.2C85.3,185,85.2,185,85.1,185.2z"/>
	<path class="st0" d="M85,184.9L85,184.9C84.9,184.9,84.9,184.9,85,184.9z"/>
	<path class="st0" d="M84.4,184.4c0.1,0,0.1,0,0.2,0C84.5,184.4,84.5,184.3,84.4,184.4z"/>
	<polygon class="st0" points="86.2,185.1 86.1,185.2 86.2,185.1 	"/>
	<path class="st0" d="M86.1,185.1c0,0-0.1,0-0.1,0.1C86,185.2,86,185.2,86.1,185.1z"/>
	<polygon class="st0" points="85.7,184.8 85.6,184.9 85.7,184.8 	"/>
</g>
</svg>
