<?xml version="1.0" encoding="utf-8"?>
<!-- Generator: Adobe Illustrator 28.1.0, SVG Export Plug-In . SVG Version: 6.00 Build 0)  -->
<svg version="1.1" id="a" xmlns="http://www.w3.org/2000/svg" xmlns:xlink="http://www.w3.org/1999/xlink" x="0px" y="0px"
	 viewBox="0 0 646 792" style="enable-background:new 0 0 646 792;" xml:space="preserve">
<style type="text/css">
	.st0{fill:#5F5F5F;}
</style>
<g>
	<polygon class="st0" points="44.6,192.8 44.8,192.9 44.6,192.7 	"/>
	<path class="st0" d="M45,191.7c-0.1-0.1-0.2-0.3-0.5-0.3l0.3,0.2c-0.2,0-0.2,0.1-0.2,0.2v-0.1c0,0,0.2,0,0.2,0.1
		c-0.1,0.2,0.2,0.3-0.1,0.4h0l0.1,0.1c0,0-0.1,0-0.2,0c0.1,0.1,0.2,0.3,0.1,0.4c0.4,0-0.2-0.4,0.2-0.5h0
		C44.8,192.1,45.1,191.9,45,191.7L45,191.7z"/>
	<path class="st0" d="M44.6,192.3C44.6,192.3,44.6,192.3,44.6,192.3C44.6,192.3,44.6,192.3,44.6,192.3z"/>
	<path class="st0" d="M44.1,186.3L44.1,186.3C44.1,186.3,44.1,186.3,44.1,186.3z"/>
	<path class="st0" d="M43.7,188.2L43.7,188.2C43.6,188.2,43.6,188.2,43.7,188.2z"/>
	<path class="st0" d="M46.1,177.2L46.1,177.2C46.1,177.1,46.1,177.1,46.1,177.2z"/>
	<path class="st0" d="M47.2,175L47.2,175L47.2,175z"/>
	<path class="st0" d="M45.6,175.5L45.6,175.5C45.5,175.4,45.5,175.5,45.6,175.5z"/>
	<path class="st0" d="M45.8,174.7C45.8,174.7,45.8,174.6,45.8,174.7C45.8,174.6,45.7,174.6,45.8,174.7z"/>
	<path class="st0" d="M47.2,175C47.2,175,47.2,175,47.2,175C47.2,175,47.2,175,47.2,175z"/>
	<path class="st0" d="M44.9,176.5l-0.2-0.1C44.8,176.4,44.8,176.5,44.9,176.5z"/>
	<path class="st0" d="M45.7,174.4C45.7,174.4,45.7,174.4,45.7,174.4C45.7,174.4,45.7,174.4,45.7,174.4z"/>
	<path class="st0" d="M45,191.6C45,191.6,45,191.6,45,191.6C45,191.6,45,191.6,45,191.6z"/>
	<path class="st0" d="M43.1,180.6C43.1,180.6,43,180.6,43.1,180.6C43,180.6,43,180.6,43.1,180.6z"/>
	<path class="st0" d="M44,178.1L44,178.1C44,178.1,44,178.1,44,178.1L44,178.1L44,178.1z"/>
	<path class="st0" d="M43.8,178.9L43.8,178.9C43.7,178.8,43.7,178.9,43.8,178.9z"/>
	<path class="st0" d="M44,177.5C44,177.5,44,177.5,44,177.5L44,177.5z"/>
	<path class="st0" d="M44.5,177.1c-0.1,0-0.1-0.1-0.2-0.1c-0.1,0.1,0.1,0.2-0.2,0.3l0.1,0c0.1,0.1,0.1,0.3-0.2,0.3l0-0.1
		c0.1,0.1-0.2,0.1-0.1,0.2c0.1,0,0.1,0.1,0.2,0l0.1,0.3L44,178l0,0.1c0.1,0-0.2,0.1,0.1,0.2c-0.1,0-0.2-0.1-0.3-0.2
		c0,0.1-0.1,0.1,0.1,0.2l-0.3,0l0.1,0.2c0,0,0,0-0.1,0c0.2,0.1-0.2,0.1,0.1,0.4c0,0,0,0,0,0c0.2,0.1,0,0.2-0.1,0.2
		c0,0.1,0.2,0.1,0.3,0.2c-0.1,0.2-0.1,0.1,0.1,0.5c-0.3,0-0.4-0.3-0.7-0.2c0.1,0.1,0.2,0.2,0.2,0.4c-0.2,0.1-0.3,0.2-0.5,0.3
		l0.2,0.1l0.1,0.2l-0.3-0.2c0.1,0.1,0.2,0.2,0.2,0.2c0.1,0.2-0.5,0-0.2,0.2H43c0.1,0.1,0,0.2,0.1,0.3l-0.2-0.1l0.1-0.1
		c-0.3,0,0,0.1,0,0.2c0.1,0.1,0.3,0.1,0.3,0.2c0,0,0.1,0.1,0,0.1c-0.1,0.1-0.3-0.1-0.4-0.1c0.2,0.1,0.2,0.1,0.3,0.3
		c-0.1,0-0.2-0.1-0.2-0.1c0,0,0.1,0.1,0.2,0.1h-0.2c-0.3,0.1,0.4,0.3,0.3,0.5c-0.1-0.1,0,0.2-0.2,0.2c0-0.1-0.4,0-0.5-0.1
		c-0.1,0.1,0.3,0.1,0.3,0.3l-0.3-0.1c0.1,0.2,0.2,0.1,0.2,0.2c-0.1-0.1-0.1,0-0.2-0.1c-0.1,0.2,0,0.1-0.1,0.3l0.3,0.1
		c0,0.1-0.1,0.1-0.2,0.1c0,0,0-0.1,0-0.1c-0.3,0,0.1,0.1-0.1,0.1c0.1,0,0.2,0,0.3,0.1c-0.2-0.1-0.2,0.1-0.3,0.1c0.1,0,0,0.1,0.3,0.2
		c-0.2,0.1-0.2,0-0.3-0.1c0.2,0.1,0,0.3,0.1,0.3c0,0,0,0,0,0c0.1,0.1,0.2,0.2,0.4,0.4l-0.2-0.1c-0.1,0.1,0.4,0.1,0.4,0.2
		c-0.3,0,0,0.2-0.3,0.1c0.2,0.1,0.2,0.2,0.4,0.2c-0.1,0.1-0.3-0.1-0.4-0.1l0.1,0.1h-0.1c0.1,0,0.1,0.1,0.2,0.1c-0.2,0-0.3,0.1-0.4,0
		c0,0.1-0.1,0.2,0,0.2h-0.1c0.3,0.1,0.1,0.2,0.4,0.2l-0.2,0c0,0.1,0.4,0.1,0.4,0.1c0,0,0,0.1,0,0.1c-0.2-0.1-0.2,0.1-0.4,0.1
		c0,0.1,0,0.2,0.2,0.2c-0.2-0.1-0.3,0-0.3-0.1c-0.3,0.1,0.1,0.2,0,0.3h-0.1c0.1,0.2,0.4,0.2,0.6,0.2c-0.2,0-0.2,0-0.4,0
		c-0.1,0.1,0,0.3,0,0.4c-0.1,0.1-0.2,0-0.3,0c0.2,0.1,0,0.3,0.3,0.4c-0.1,0-0.1,0.1-0.1,0.1c0.1,0,0.1,0,0.1,0
		c0.2,0.1,0.3,0.2,0.2,0.3l-0.1,0c0,0.2,0.6,0.2,0.4,0.5c-0.1,0.1-0.3,0-0.2,0.1c0.1,0,0.4-0.1,0.3,0.1l-0.2,0.1l0.2,0
		c0.2-0.1,0.1-0.2,0.3-0.2c-0.2,0.1,0.2,0,0,0.2c0,0-0.2,0-0.3,0c-0.2,0.3,0.3,0.3,0.1,0.6c0.2,0.1,0.3,0.2,0.5,0.2
		c-0.2,0.1-0.4,0.1-0.6,0.1c0,0.1,0.5,0,0.2,0.2c0.3-0.1,0.3,0.2,0.7,0.1c-0.1,0,0,0.1-0.2,0.1c0.2,0.1-0.3,0.3-0.3,0.4
		c0,0,0.2-0.1,0.3,0c0,0-0.1,0-0.1,0h0.1c-0.1,0.1-0.2,0-0.3,0.1c-0.1,0.1,0.3,0.1,0.3,0.3h-0.1l0,0.1h0l0.2,0.1h-0.1
		c0,0,0.1,0,0.1,0.1h-0.1c0.2,0,0.3,0.2,0.3,0.2l-0.1,0l0.3,0.2c-0.1,0.1-0.3-0.1-0.2,0.1l-0.3,0c0.1,0.1,0,0.1,0.1,0.2
		c0.1,0,0.1-0.1,0.2-0.1c-0.3,0.1,0.1,0.2,0.2,0.3c0-0.1,0-0.1-0.1-0.1c0-0.1,0.1,0,0.2-0.1l-0.2-0.1l0.2,0l-0.1-0.1
		c0.2,0,0-0.1,0.2-0.1c-0.1-0.1,0-0.2-0.2-0.2c0.1-0.1,0.2,0.1,0.2,0c-0.2-0.4-0.2-0.8-0.3-1.2H45c-0.1,0-0.2,0-0.3,0
		c0.2-0.1,0.3-0.4-0.1-0.4c0,0,0.1,0,0.1,0c-0.1-0.1,0.1-0.4,0-0.5c-0.3,0.1,0.1-0.3-0.3-0.2h0.1c-0.1,0.1-0.3,0-0.4,0
		c0.3-0.1,0.2-0.1,0.5-0.2l-0.1,0.1l0.2-0.1c-0.7,0,0.2-0.4-0.3-0.4c0,0,0.1,0,0.1,0c0.1-0.1-0.2-0.1-0.3-0.1c0.1,0,0.2,0,0.3,0
		c0.1-0.2-0.3-0.3-0.2-0.5c-0.2,0-0.2,0.1-0.3,0c0-0.1,0.2-0.1,0.3-0.1c0.3-0.2-0.3-0.4,0-0.7c-0.2-0.1-0.3,0-0.4-0.2
		c0.1,0,0.4-0.1,0.4,0h0.1c0-0.2,0-0.4-0.3-0.5c0.3,0,0.1,0,0.2-0.1c0,0,0,0-0.1,0c-0.2-0.1,0-0.1,0-0.1h0.1l-0.2-0.1
		c0,0,0.1-0.1,0.2-0.1h-0.2c0-0.1,0.2,0,0.2-0.1l-0.1,0c0.1-0.1-0.1-0.1,0.1-0.1c0,0,0,0,0,0c0.3-0.1-0.1-0.2,0-0.3l-0.3,0
		c-0.1-0.1,0.1-0.1,0.2-0.1c0-0.1,0.1-0.1,0.1-0.2c-0.1-0.1-0.1,0-0.2,0l0.1-0.1l0.2,0.1c-0.4-0.2,0.1-0.3-0.3-0.5
		c0.1-0.1,0.2,0.1,0.2,0c0.2-0.1-0.3-0.4,0-0.5c0.2-0.2,0.1-0.5,0.2-0.7h-0.1l0.1-0.2c-0.2-0.1-0.1-0.2-0.3-0.3c0.1,0,0.2,0,0.2,0.1
		c0-0.1-0.1-0.2,0-0.2l0.1,0c0.1-0.1,0.1-0.4,0-0.5c0-0.1,0.1,0,0.2,0c0-0.1,0-0.2-0.1-0.3c0,0,0.1,0,0.2,0l-0.2-0.1
		c0,0,0.2,0,0.2,0c-0.2-0.2,0.1-0.3,0.1-0.4h-0.1c-0.1-0.1,0.1-0.1,0.2,0c0.2-0.2-0.2-0.4-0.1-0.6c0.4,0.1,0-0.3,0.4-0.2
		c-0.1-0.1,0.1-0.2-0.1-0.3c0,0,0.1,0,0.1,0c0.2,0,0.1-0.2,0-0.3l0.1,0c-0.2-0.1-0.1-0.3-0.3-0.4c0.1,0,0.1,0.1,0.1,0.1
		c0.3,0-0.1-0.1,0-0.2c0.1,0,0.1,0,0.2,0.1c0.4-0.1,0.1-0.7,0.4-0.9c0-0.1-0.3-0.1-0.2-0.2c0.1,0,0.2,0.2,0.3,0.1
		c-0.1-0.1-0.1-0.1,0-0.2c0.1,0.1,0.1,0.1,0.2,0.1c0.1,0-0.1-0.3,0.1-0.3c-0.1,0-0.1-0.1-0.1-0.1c-0.2-0.2,0.3-0.2,0.2-0.2
		c0,0,0-0.1-0.1,0c0,0,0.1-0.1,0.2,0c0-0.1-0.1-0.1-0.1-0.2l0.1,0.1c0,0-0.1-0.1-0.1-0.1H46c0.1,0-0.1-0.2,0.2-0.1v0l0.2,0
		c-0.1-0.1-0.2-0.2-0.1-0.2c0.3,0.1,0.1-0.1,0.2-0.2l0.1,0.1c-0.1-0.1,0-0.3,0-0.3c0-0.1,0.1-0.1,0.2-0.1c0-0.1,0-0.2-0.1-0.3h0.3
		c-0.3-0.2,0.2-0.1-0.1-0.3c0.1,0,0.2,0,0.2,0c-0.1-0.2-0.1-0.2,0-0.3l0,0c0.1-0.1-0.1-0.3,0-0.4l0.3,0.1c0-0.1-0.2-0.2-0.1-0.2
		c0.1,0,0.1,0,0.1,0.1c0-0.1,0.1-0.1,0.2-0.1c-0.2-0.2,0-0.2-0.2-0.4c0.3,0,0.1,0.2,0.3,0.2c0.2-0.1,0.1-0.3,0.1-0.5
		c0.1,0,0.1,0.1,0.1,0.1c0,0-0.5-0.6-0.8-0.7c-0.2-0.1-0.3-0.2-0.5-0.2c0.1,0.1,0.2,0.3,0,0.2l0.2,0.1c0,0.2-0.4-0.2-0.5,0h0.1
		c0,0,0.1,0.1,0,0.1c-0.1,0-0.1-0.1-0.1-0.1l0.2,0.3c-0.1-0.1-0.2-0.1-0.2-0.1c-0.1,0.1,0.4,0.1,0.2,0.3c-0.1,0-0.1-0.1-0.2-0.1
		c-0.2,0-0.1,0.1,0,0.3c-0.2-0.1-0.1-0.1-0.3-0.1c0.1,0,0.2,0.1,0.2,0.1c-0.2-0.1-0.1,0-0.2,0c0.1,0,0.2,0.1,0.2,0.1
		c0,0-0.1,0-0.1,0.1l0.2,0c0.1,0.2-0.2,0.1-0.3,0.1c0,0-0.1,0-0.1-0.1c-0.1,0-0.3,0.1-0.2,0.2l0,0c0.1,0.2,0.3,0.1,0.4,0.4
		c-0.1,0.1-0.6-0.3-0.4-0.1c0.2,0,0.3,0.3,0.3,0.4l-0.3-0.2c0,0,0,0.1,0,0.1l0.1,0c0.3,0.1-0.1,0.1,0,0.2c-0.3-0.3-0.3-0.2-0.7-0.4
		c0.2,0.2,0.3,0.3,0.2,0.4l-0.2-0.2c-0.1,0.1,0.2,0.5,0.4,0.8c-0.2-0.1-0.3-0.1-0.5-0.3l0,0.2l-0.2-0.2c0.2,0.2,0,0.2,0.3,0.3
		c0,0-0.1-0.1,0-0.1c0.1,0.1,0.3,0.2,0.2,0.2c-0.1,0-0.1-0.1-0.2-0.1c0.1,0.1-0.1,0,0,0.1l0.2,0c0.2,0.1,0,0.1,0,0.2
		c0-0.1-0.2-0.1-0.3-0.2h0c0,0,0.1,0.2,0,0.1l-0.2-0.1l0.2,0.1c0,0-0.1,0-0.2-0.1c-0.2,0.1,0.6,0.2,0.2,0.4
		c-0.1-0.1-0.2-0.1-0.1-0.1c-0.2-0.1-0.2-0.1-0.3-0.1c0,0,0,0,0,0C44.4,176.8,44.3,177,44.5,177.1L44.5,177.1z"/>
	<path class="st0" d="M44.5,176.7c0-0.1,0.1-0.1,0-0.1C44.4,176.5,44.3,176.6,44.5,176.7z"/>
	<path class="st0" d="M42.7,186.6L42.7,186.6L42.7,186.6z"/>
	<path class="st0" d="M42.8,187.1C42.8,187.1,42.9,187.1,42.8,187.1C42.8,187.1,42.8,187.1,42.8,187.1z"/>
	<path class="st0" d="M42.9,181.4L42.9,181.4L42.9,181.4z"/>
	<path class="st0" d="M42.4,184.5c0.1,0.1,0.2,0.1,0.2,0.1C42.6,184.6,42.6,184.6,42.4,184.5z"/>
	<path class="st0" d="M42.6,183.5L42.6,183.5C42.6,183.5,42.6,183.5,42.6,183.5z"/>
	<path class="st0" d="M42.8,181.2c0.1,0.1,0.1,0.1,0.1,0.2C42.9,181.4,43,181.3,42.8,181.2z"/>
	<polygon class="st0" points="43.3,187.7 43.1,187.7 43.2,187.7 	"/>
	<path class="st0" d="M43.1,187.2c0,0-0.1-0.1-0.2-0.1C43,187.2,43,187.2,43.1,187.2z"/>
	<polygon class="st0" points="43,185.3 42.9,185.3 43,185.3 	"/>
</g>
<g>
	<path class="st0" d="M83,227.2l0.1,0.1c0.1-0.1,0.2-0.1,0.3-0.2C83.3,227.2,83.2,227.2,83,227.2L83,227.2z"/>
	<path class="st0" d="M85.4,227.7c0.3-0.1,0.8-0.2,0.8-0.5c-0.1,0.1-0.3,0.2-0.4,0.2c-0.1-0.2-0.3-0.2-0.6-0.2l0.3,0
		c-0.1,0-0.1,0.2-0.1,0.2c-0.4-0.2-0.6,0.1-0.9-0.3l0,0l-0.3,0h0c0,0,0-0.1,0-0.2c-0.2,0.1-0.3,0.2-0.7,0.2c0.3,0.3,0.6-0.1,0.7,0
		c0.1,0,0.1,0.1,0.1,0.2l0,0C84.6,227.4,85,227.7,85.4,227.7L85.4,227.7z"/>
	<path class="st0" d="M84.2,227L84.2,227C84.2,227,84.2,227,84.2,227z"/>
	<path class="st0" d="M94.5,217.8L94.5,217.8C94.5,217.8,94.5,217.8,94.5,217.8z"/>
	<path class="st0" d="M91.6,221.4L91.6,221.4C91.5,221.3,91.6,221.3,91.6,221.4z"/>
	<path class="st0" d="M91.9,193.7l0.1-0.1C91.9,193.6,91.9,193.6,91.9,193.7z"/>
	<path class="st0" d="M90.6,187.6L90.6,187.6L90.6,187.6z"/>
	<path class="st0" d="M90.3,190.6L90.3,190.6C90.2,190.6,90.2,190.6,90.3,190.6z"/>
	<path class="st0" d="M89.4,188.8c0-0.1,0-0.1,0-0.2C89.4,188.7,89.4,188.8,89.4,188.8z"/>
	<path class="st0" d="M90.6,187.7C90.6,187.7,90.6,187.6,90.6,187.7C90.6,187.7,90.6,187.7,90.6,187.7z"/>
	<path class="st0" d="M90.6,193.3l-0.2,0.1C90.4,193.4,90.5,193.4,90.6,193.3z"/>
	<path class="st0" d="M89.1,188.4c0,0,0-0.1,0-0.1C89.1,188.2,89.1,188.3,89.1,188.4z"/>
	<path class="st0" d="M85.9,227.7c-0.1,0-0.1,0-0.2,0C85.8,227.8,85.8,227.8,85.9,227.7z"/>
	<path class="st0" d="M93.3,204C93.3,204,93.2,204,93.3,204C93.2,204.1,93.3,204,93.3,204z"/>
	<path class="st0" d="M91.3,198L91.3,198C91.3,198,91.2,198,91.3,198L91.3,198L91.3,198z"/>
	<path class="st0" d="M92,199.7C92,199.7,92,199.7,92,199.7C92,199.7,92,199.7,92,199.7z"/>
	<path class="st0" d="M90.5,196.7C90.5,196.7,90.5,196.7,90.5,196.7L90.5,196.7z"/>
	<path class="st0" d="M90.4,195.2c-0.1,0.1-0.2,0-0.2-0.1c-0.1,0.4,0.2,0.5,0.1,0.9l0.1-0.2c0.2,0.2,0.4,0.6,0.2,0.9l-0.1,0
		c0.2,0.2,0.1,0.6,0.2,0.7c0-0.1,0.1-0.1,0.2-0.2l0.4,0.5l-0.2,0.1l0.2,0.2c0.1-0.1,0.1,0.4,0.3,0.3c0,0.2-0.2,0-0.4,0
		c0.1,0.1,0,0.2,0.2,0.2l-0.2,0.2l0.3,0.3c0,0,0,0-0.1,0c0.3,0.1,0.1,0.5,0.5,0.6c0,0,0,0,0,0c0.2,0.1,0.2,0.4,0.2,0.5
		c0.1,0.2,0.3,0,0.4,0c0.2,0.6,0.1,0.4,0.6,0.8c-0.2,0.4-0.6-0.2-0.7,0.3c0.2,0,0.4,0.2,0.5,0.5c0,0.3,0,0.8-0.1,1.1l0.2-0.1
		l0.2,0.4l-0.4-0.1c0.1,0,0.3,0.2,0.4,0.3c0.3,0.4-0.4,0.3,0,0.6c0,0,0,0-0.1,0.1c0.2,0.1,0.2,0.3,0.3,0.6l-0.3-0.1v-0.2
		c-0.2,0.2,0.1,0.3,0.1,0.5c0.1,0.2,0.3,0,0.4,0.1c0,0.1,0.1,0.2,0,0.2c0,0.2-0.3,0.1-0.4,0.1c0.3,0.1,0.3,0.2,0.4,0.5
		c-0.1,0-0.2,0-0.2,0c0.1,0.1,0.1,0.1,0.2,0.1l-0.1,0.1c-0.2,0.4,0.6,0.3,0.6,0.8c-0.2-0.1,0.1,0.4-0.1,0.6
		c-0.1-0.2-0.4,0.1-0.5,0.1c-0.1,0.4,0.3,0.1,0.4,0.4l-0.3-0.1c0.2,0.3,0.2,0.1,0.3,0.3c-0.1-0.1-0.1,0.1-0.2,0c0,0.4,0,0.3,0,0.6
		h0.3c0,0.1-0.1,0.2-0.2,0.2c0-0.1,0-0.1,0-0.1c-0.3,0.1,0.2,0.2-0.1,0.4c0.1,0,0.2-0.1,0.3,0.1c-0.2,0-0.2,0.2-0.2,0.2
		c0.1-0.1,0.1,0.3,0.3,0.3c-0.2,0.2-0.2-0.1-0.3-0.1c0.2,0.1,0,0.6,0.2,0.7c0,0,0,0-0.1,0c0.2,0.2,0.2,0.5,0.4,0.8l-0.2-0.1
		c-0.1,0.4,0.4,0.2,0.4,0.5c-0.3-0.1,0,0.5-0.3,0.4c0.1,0.2,0.2,0.4,0.4,0.5c-0.2,0.2-0.3-0.4-0.4-0.1l0.1,0.3l-0.1,0
		c0.1,0,0.1,0.2,0.2,0.2c-0.2,0-0.3,0.1-0.4,0.1c0,0.2-0.2,0.4,0,0.5h-0.1c0.3,0.2,0,0.5,0.3,0.6l-0.2,0.1c0,0.2,0.3,0.2,0.4,0.4
		c0,0.1,0,0.2,0,0.3c-0.2-0.4-0.3,0.1-0.4,0.1c0,0.1-0.1,0.5,0.1,0.6c-0.1-0.2-0.3-0.1-0.2-0.4c-0.3,0.1,0,0.4-0.1,0.7l-0.1-0.1
		c0,0.4,0.2,0.5,0.4,0.8c-0.2,0-0.2-0.1-0.3-0.3c-0.2,0.2-0.3,0.7-0.4,1c-0.2,0-0.2-0.1-0.2-0.2c0,0.4-0.4,0.6-0.2,1
		c-0.1-0.1-0.1,0.1-0.3,0.1c0.1,0,0.1,0.1,0.1,0.1c0,0.2-0.1,0.7-0.3,0.9l0-0.1c-0.3,0.4,0,0.9-0.5,1.4c-0.1,0.1-0.2-0.2-0.3,0
		c0.1,0.2,0.3,0.2,0.1,0.5l-0.2-0.1l0.1,0.3c0.2,0,0.3-0.3,0.4,0c-0.3,0.1,0.1,0.3-0.3,0.4c0-0.1-0.1-0.2-0.1-0.3
		c-0.5,0.5-0.2,0.9-0.8,1.4c0,0.4-0.2,0.8-0.2,1c-0.2-0.1-0.3-0.2-0.4-0.4c-0.2,0.2,0.2,0.6-0.2,0.6c0.2,0.3-0.3,0.8,0,1.1
		c-0.1,0-0.2,0.2-0.2-0.1c-0.1,0.4-0.6,0.2-0.7,0.3c0,0.1,0.3,0.1,0.1,0.3c0,0-0.1,0-0.1,0l0,0.1c-0.1,0-0.1-0.2-0.2-0.3
		c-0.3,0.2-0.2,0.6-0.4,0.8V226l-0.3,0.2v0c0,0.1-0.1,0.2-0.1,0.3l-0.1-0.1c0,0.1,0,0.1-0.1,0.2l0-0.1c0,0.2-0.2,0.5-0.4,0.6l-0.1,0
		c-0.1,0.1-0.2,0.3-0.3,0.4c-0.3-0.1,0.2-0.4-0.2-0.2l0-0.3c-0.3,0.2-0.4,0-0.6,0.2c0.1,0.1,0.3,0.1,0.2,0.2
		c-0.3-0.3-0.4,0.1-0.7,0.2c0.1,0,0.2,0,0.3-0.2c0.1,0,0.1,0.1,0.1,0.1c0.1-0.1,0.1-0.1,0.2-0.2l0.1,0.2c0.1-0.1,0.2-0.1,0.3-0.2
		c0,0.2,0.3-0.1,0.3,0.2c0.2-0.2,0.4-0.1,0.6-0.4c0.2,0-0.2,0.3,0,0.2c0.9-0.6,1.5-1.3,2.2-2l0,0.1c0-0.1,0-0.3,0-0.4
		c0.2,0,0.8-0.4,0.6-0.8c0,0,0,0.1,0,0.1c0.1-0.3,0.6-0.6,0.8-1.1c-0.2-0.3,0.5-0.5,0.2-0.8l0,0.1c-0.2,0.1-0.2-0.3-0.3-0.4
		c0.3,0,0.2,0.1,0.5,0.1l-0.2,0.1l0.2,0.1c-0.3-0.8,0.7-0.7,0.4-1.2c0,0,0.1,0,0.1,0.1c0.2-0.1,0-0.4,0-0.6c0.1,0.1,0.1,0.2,0.2,0.3
		c0.3-0.3,0.3-1,0.7-1.3c-0.1-0.2-0.2-0.1-0.2-0.3c0.1-0.1,0.3-0.1,0.3,0.1c0.5-0.2,0.5-1.2,1-1.6c0-0.4-0.2-0.2-0.1-0.7
		c0.1,0.1,0.4,0.1,0.3,0.3l0.1,0.1c0.2-0.4,0.5-1.1,0.2-1.4c0.3,0.1,0.1-0.1,0.3-0.2c0-0.1,0,0-0.1,0c-0.2-0.2,0.1-0.3,0.1-0.4
		l0,0.1c0-0.1-0.1-0.3-0.1-0.4c0-0.1,0.1-0.1,0.2-0.1l-0.2,0c0-0.2,0.3,0,0.2-0.3l-0.1,0c0.1-0.1,0-0.4,0.2-0.4c0,0,0,0,0,0.1
		c0.3-0.2,0-0.6,0.2-0.9l-0.3,0c-0.1-0.3,0.1-0.1,0.2-0.1c0-0.2,0.1-0.2,0.2-0.4c-0.1-0.1-0.1-0.1-0.2-0.1l0.1-0.2l0.2,0.2
		c-0.4-0.4,0.1-0.9-0.3-1.2c0.1-0.1,0.2,0.1,0.2,0.1c0.2-0.4-0.2-1,0-1.4c0.2-0.6,0-1.3,0.1-2l-0.1,0c0-0.2,0-0.3,0-0.5
		c-0.2-0.1-0.1-0.4-0.4-0.6c0.1,0,0.2,0,0.2,0c0-0.2-0.2-0.4-0.1-0.5l0.1,0.1c0-0.4-0.1-1.1-0.3-1.3c0-0.1,0.1-0.2,0.2-0.2
		c0-0.3-0.1-0.4-0.3-0.6c0-0.1,0-0.1,0.1-0.2l-0.2-0.1c0-0.1,0.2-0.1,0.2-0.1c-0.3-0.3-0.2-0.9-0.3-1.1l-0.1,0.1
		c-0.1-0.1,0-0.4,0.1-0.2c0-0.6-0.5-0.7-0.7-1.4c0.3-0.2-0.3-0.6,0-0.8c-0.2-0.3-0.1-0.5-0.4-0.6c0,0,0-0.1,0.1,0
		c0.1-0.2-0.1-0.5-0.3-0.8l0.1-0.1c-0.3,0-0.4-0.6-0.7-0.6c0-0.1,0.1,0,0.2,0c0.2-0.2-0.2-0.2-0.2-0.4c0.1,0,0.1-0.1,0.2-0.1
		c0-0.8-0.9-1.5-0.9-2.4c-0.1-0.2-0.2,0.2-0.3-0.1c0.1-0.1,0.3,0.1,0.3-0.1c-0.2-0.1-0.2-0.1-0.2-0.3c0.1,0,0.1,0,0.2,0.1
		c0.1-0.1-0.3-0.4-0.1-0.6c-0.1,0-0.1,0-0.2,0c-0.3-0.3,0.2-0.7,0.1-0.7c0,0,0-0.1-0.1,0c0-0.1,0.1-0.3,0.2-0.2
		c-0.1-0.1-0.2-0.1-0.2-0.3l0.1,0.1c0-0.1-0.1-0.1-0.1-0.2l-0.1,0.1c0.1-0.2-0.2-0.5,0.1-0.4v0.1l0.1-0.3c-0.1-0.1-0.2-0.2-0.2-0.4
		c0.3-0.1,0-0.5,0-0.8H92c-0.2-0.2-0.2-0.7-0.2-0.6c0-0.2,0-0.4,0.1-0.4c-0.1-0.1-0.2-0.4-0.4-0.5l0.2-0.4c-0.4-0.1-0.1-0.6-0.5-0.5
		c0-0.2,0.1-0.2,0.1-0.3c-0.3-0.1-0.3-0.4-0.4-0.6l0,0c-0.1-0.2-0.3-0.4-0.4-0.6l0.3-0.1c-0.1-0.1-0.3-0.1-0.3-0.3c0,0,0.1,0,0.1,0
		c-0.1-0.1,0-0.3,0-0.4c-0.2-0.2-0.2-0.4-0.4-0.5c0.3-0.2,0.1,0.2,0.4,0.1c0.1-0.3,0-0.6-0.1-0.9c0.1,0,0.1,0,0.2,0
		c0,0-0.6-0.8-0.9-0.8c-0.2-0.1-0.3-0.3-0.5,0c0.1,0.1,0.2,0.5,0,0.5l0.2,0.1c0.1,0.5-0.5,0-0.5,0.6l0.1-0.1c0,0.1,0.1,0.2,0.1,0.3
		c-0.1,0-0.1,0-0.1-0.1c0.1,0.2,0.2,0.3,0.3,0.5c-0.1,0-0.2,0-0.3-0.1c0,0.4,0.4-0.1,0.3,0.4c-0.1,0.1-0.1,0-0.2-0.1
		c-0.2,0.3,0,0.4,0.2,0.6c-0.2,0-0.2-0.1-0.3,0.1c0.1-0.1,0.2-0.1,0.3,0c-0.2,0-0.1,0.1-0.1,0.3c0.1-0.1,0.1-0.1,0.2,0
		c0,0.1,0,0.1,0,0.2l0.1-0.2c0.2,0.2,0,0.4,0,0.6c0,0-0.1,0-0.1-0.1c0,0.2-0.1,0.5,0.2,0.7h0c0.4,0.3,0.2-0.3,0.6,0.2
		c0,0.2-0.6,0.1-0.3,0.4c0.1-0.2,0.5,0.1,0.6,0.3l-0.4-0.1c0,0.1,0.2,0.2,0.2,0.3l0.1,0c0.3-0.1,0.1,0.3,0.3,0.4
		c-0.5-0.1-0.4-0.1-0.8,0c0.3,0.1,0.5,0.2,0.5,0.5l-0.4-0.1c0,0.4,0.6,0.7,0.9,1c-0.2-0.1-0.3,0.1-0.5,0l0.1,0.4l-0.3-0.1
		c0.3,0.1,0.1,0.3,0.5,0.2c0,0-0.1,0-0.1-0.1c0.1,0,0.3,0,0.3,0.2c-0.1,0.1-0.1-0.1-0.2,0c0.2,0.1-0.1,0.1,0,0.3l0.2-0.1
		c0.2,0.1,0,0.2,0.1,0.3c-0.1-0.2-0.2-0.1-0.3,0h0c0,0.1,0.2,0.2,0,0.3l-0.3-0.1l0.2,0.1c0,0.1-0.1,0.1-0.2,0
		c-0.2,0.4,0.6,0,0.3,0.6c-0.1,0-0.2-0.1-0.1-0.2c-0.2,0-0.3,0-0.3,0.1c0,0,0,0,0,0C90.2,194.5,90.2,194.9,90.4,195.2L90.4,195.2z"
		/>
	<path class="st0" d="M90.2,194.1c0-0.2,0-0.3,0-0.3C90.2,193.8,90.1,194.1,90.2,194.1z"/>
	<path class="st0" d="M93.1,217.4C93.1,217.4,93.1,217.3,93.1,217.4L93.1,217.4z"/>
	<path class="st0" d="M92.6,218.5C92.6,218.5,92.7,218.5,92.6,218.5C92.6,218.5,92.6,218.5,92.6,218.5z"/>
	<path class="st0" d="M93.8,205.8L93.8,205.8L93.8,205.8z"/>
	<path class="st0" d="M94,213c0.1,0.1,0.1,0.2,0.2,0.2C94.2,213.1,94.2,213,94,213z"/>
	<path class="st0" d="M94.2,210.6C94.2,210.6,94.2,210.5,94.2,210.6C94.2,210.5,94.2,210.6,94.2,210.6z"/>
	<path class="st0" d="M93.6,205.4c0.1,0.1,0.1,0.2,0.2,0.4C93.7,205.7,93.8,205.5,93.6,205.4z"/>
	<polygon class="st0" points="92.1,220.1 92,219.9 92,220 	"/>
	<path class="st0" d="M92.6,219c0.1,0,0.1-0.3,0-0.2C92.6,218.8,92.6,218.9,92.6,219z"/>
	<polygon class="st0" points="94.4,214.8 94.2,214.7 94.3,214.8 	"/>
</g>
<g>
	<path class="st0" d="M82.8,184.6l0.1-0.1c-0.1,0-0.2,0-0.2,0C82.7,184.5,82.8,184.6,82.8,184.6L82.8,184.6z"/>
	<path class="st0" d="M80.8,183.6c-0.2,0.1-0.5,0.1-0.7,0.4c0.1-0.1,0.3-0.1,0.4-0.1c0,0.2,0.2,0.3,0.4,0.2l-0.2,0
		c0.1,0,0.1-0.2,0.1-0.2c0.3,0.2,0.4-0.1,0.7,0.2l0,0c0.1,0,0.1-0.1,0.3-0.1h0c0.1,0.1,0,0.1,0,0.2c0.2,0,0.3-0.1,0.4,0
		c0.1,0,0.3,0.2,0.4,0.2c0-0.1,0-0.1,0-0.2c-0.1-0.1-0.2-0.1-0.2-0.1c-0.2-0.1-0.4-0.1-0.6-0.1c-0.1,0-0.1-0.1-0.2-0.1l0,0
		C81.4,183.9,81.1,183.6,80.8,183.6L80.8,183.6z"/>
	<path class="st0" d="M81.8,184.1L81.8,184.1C81.8,184.1,81.8,184.1,81.8,184.1z"/>
	<path class="st0" d="M72.6,177.3L72.6,177.3C72.6,177.4,72.6,177.4,72.6,177.3z"/>
	<path class="st0" d="M75,180.1L75,180.1C74.9,180.2,74.9,180.1,75,180.1z"/>
	<path class="st0" d="M54.2,181.1l-0.1,0.1C54.2,181.1,54.2,181.1,54.2,181.1z"/>
	<path class="st0" d="M54.3,186L54.3,186L54.3,186z"/>
	<path class="st0" d="M55.4,183.7L55.4,183.7C55.5,183.7,55.4,183.7,55.4,183.7z"/>
	<path class="st0" d="M55.6,185.2c0,0,0,0.1,0,0.1C55.7,185.3,55.7,185.3,55.6,185.2z"/>
	<path class="st0" d="M54.2,185.9C54.2,185.9,54.3,186,54.2,185.9C54.3,186,54.2,186,54.2,185.9z"/>
	<path class="st0" d="M55.5,181.4l0.2-0.1C55.7,181.3,55.6,181.4,55.5,181.4z"/>
	<path class="st0" d="M55.8,185.6C55.8,185.6,55.8,185.6,55.8,185.6C55.8,185.6,55.8,185.6,55.8,185.6z"/>
	<path class="st0" d="M80.6,183.5c0,0,0.1,0,0.1,0C80.7,183.5,80.6,183.5,80.6,183.5z"/>
	<path class="st0" d="M61.9,178C61.9,178,61.9,178.1,61.9,178C61.9,178.1,61.9,178.1,61.9,178z"/>
	<path class="st0" d="M56.8,179.4L56.8,179.4C56.8,179.4,56.8,179.4,56.8,179.4L56.8,179.4L56.8,179.4z"/>
	<path class="st0" d="M58.4,179C58.4,179,58.4,179.1,58.4,179C58.4,179.1,58.4,179,58.4,179z"/>
	<path class="st0" d="M56.3,179.8C56.3,179.8,56.3,179.8,56.3,179.8L56.3,179.8z"/>
	<path class="st0" d="M55.8,180.2c0.1,0,0.1,0.1,0.2,0.1c0.1-0.1-0.1-0.3,0.1-0.3c0,0-0.1,0-0.1,0c-0.1-0.2,0-0.4,0.2-0.2l0,0.1
		c0-0.2,0.2,0,0.2-0.1c-0.1-0.1,0-0.1-0.1-0.2c0.1-0.1,0.1-0.2,0.2-0.3l0.1,0.3l0.2-0.1c-0.1-0.1,0.3,0,0.3-0.2
		c0.2,0.1,0,0.2-0.1,0.4c0.1-0.1,0.2,0,0.3-0.2l0.2,0.2l0.3-0.2c0,0,0,0,0,0.1c0.1-0.2,0.4,0,0.5-0.4c0,0,0,0,0,0
		c0.1-0.2,0.4-0.1,0.5-0.1c0.2-0.1,0-0.3,0-0.4c0.5-0.1,0.4-0.1,0.7-0.5c0.3,0.2-0.1,0.6,0.2,0.7c0-0.2,0.2-0.4,0.4-0.5
		c0.3,0,0.6,0,0.9,0.1l-0.1-0.2l0.3-0.2l-0.1,0.4c0-0.1,0.1-0.3,0.2-0.4c0.3-0.3,0.3,0.4,0.5,0l0,0.1c0-0.2,0.3-0.2,0.5-0.3l0,0.3
		h-0.2c0.2,0.2,0.2-0.1,0.4-0.1c0.1-0.1,0-0.3,0.1-0.4c0.1,0,0.1-0.1,0.2,0c0.2,0.1,0.1,0.3,0.1,0.4c0.1-0.3,0.1-0.3,0.4-0.4
		c0,0.1,0,0.2,0,0.2c0.1,0,0.1-0.1,0.1-0.2l0.1,0.1c0.3,0.2,0.2-0.5,0.6-0.5c-0.1,0.2,0.3-0.1,0.5,0.1c-0.1,0.1,0.1,0.4,0,0.6
		c0.3,0.1,0.1-0.3,0.3-0.4l-0.1,0.4c0.2-0.2,0-0.2,0.3-0.3c-0.1,0.1,0.1,0.1,0,0.2c0.3,0,0.2,0,0.5,0v-0.3c0.1-0.1,0.1,0.1,0.2,0.1
		c0,0-0.1,0-0.1,0.1c0.1,0.3,0.2-0.2,0.3,0.1c0-0.1-0.1-0.2,0-0.3c0,0.2,0.2,0.2,0.2,0.2c-0.1-0.1,0.2-0.1,0.2-0.3
		c0.2,0.1,0,0.2,0,0.3c0.1-0.3,0.5-0.1,0.5-0.3c0,0,0,0,0,0.1c0.1-0.2,0.4-0.2,0.6-0.5l-0.1,0.2c0.3,0,0.1-0.4,0.4-0.4
		c0,0.3,0.4,0,0.3,0.3c0.1-0.1,0.3-0.2,0.4-0.4c0.1,0.2-0.3,0.3-0.1,0.4l0.2-0.1v0.1c0-0.1,0.2-0.1,0.2-0.2c0,0.2,0,0.3,0,0.4
		c0.1,0,0.2,0.2,0.4,0.1l0,0.1c0.2-0.3,0.3,0.1,0.5-0.2v0.2c0.2,0.1,0.3-0.3,0.4-0.3c0.1,0,0.2,0,0.2,0.1c-0.3,0.1,0,0.3,0,0.4
		c0.1,0.1,0.3,0.2,0.5,0.1c-0.2,0.1-0.2,0.2-0.4,0.1c-0.1,0.3,0.3,0.1,0.5,0.3l-0.1,0.1c0.3,0.1,0.5-0.1,0.8-0.2
		c-0.1,0.2-0.1,0.2-0.3,0.3c0.1,0.2,0.5,0.3,0.7,0.5c0,0.2-0.1,0.2-0.2,0.2c0.3,0,0.5,0.4,0.8,0.2c-0.1,0.1,0,0.1,0.1,0.2
		c0-0.1,0.1-0.1,0.1-0.1c0.2,0,0.6,0.1,0.7,0.3l-0.1,0c0.3,0.3,0.8,0,1.1,0.5c0,0.1-0.2,0.1-0.1,0.3c0.1,0,0.3-0.2,0.4-0.1l-0.2,0.2
		l0.3-0.1c0-0.2-0.2-0.3,0.1-0.3c0,0.3,0.3,0,0.3,0.3c-0.1,0-0.2,0.1-0.3,0.1c0.2,0.5,0.7,0.3,0.9,0.9c0.3,0.1,0.6,0.2,0.8,0.3
		c-0.2,0.1-0.3,0.3-0.5,0.3c0.1,0.2,0.5-0.1,0.5,0.2c0.3-0.1,0.6,0.3,0.9,0c-0.1,0.1,0.2,0.1-0.2,0.2c0.3,0.1,0.1,0.5,0.2,0.6
		c0.1,0,0.1-0.3,0.2-0.1c0,0,0,0.1,0,0.1l0.1,0c0,0.1-0.2,0.1-0.3,0.2c0.1,0.2,0.5,0.1,0.7,0.2l-0.1,0l0.2,0.2h0l0.3,0l-0.1,0.1
		c0.1,0,0.1-0.1,0.2,0l-0.1,0.1c0.2-0.1,0.5-0.1,0.6,0v0.1c0.1,0,0.3-0.1,0.4-0.1c0.1,0.2-0.3,0.2,0,0.2l-0.2,0.2
		c0.3,0,0.2,0.1,0.4,0.1c0-0.2-0.1-0.2,0-0.3c0.1,0.4,0.3,0,0.5,0c-0.1,0-0.1-0.1-0.2,0.1c-0.1,0,0-0.1,0-0.2l-0.2,0.1l0-0.2
		l-0.3,0.1c0.1-0.2-0.2-0.1,0-0.3c-0.2,0-0.2-0.2-0.4,0c0-0.2,0.2-0.1,0.1-0.1c-0.6-0.1-1.2-0.6-1.6-1l0.1,0c-0.1,0-0.2,0-0.3,0.1
		c0-0.2-0.1-0.7-0.5-0.5c0,0,0,0,0.1-0.1c-0.2-0.1-0.4-0.6-0.6-0.8c-0.3,0.2-0.2-0.5-0.6-0.2l0.1,0c0,0.2-0.3,0.1-0.4,0.2
		c0.1-0.3,0.1-0.2,0.2-0.5l0,0.2l0.1-0.2c-0.8,0.2-0.4-0.8-0.9-0.6c0,0,0.1,0,0.1-0.1c0-0.2-0.3-0.1-0.5-0.1
		c0.1-0.1,0.2-0.1,0.3-0.1c-0.2-0.3-0.8-0.3-1-0.7c-0.2,0.1-0.1,0.2-0.3,0.2c-0.1-0.1,0-0.3,0.1-0.2c-0.1-0.4-1-0.4-1.1-0.9
		c-0.3,0-0.2,0.2-0.6,0.1c0.1-0.1,0.2-0.4,0.3-0.3l0.1-0.1c-0.3-0.2-0.7-0.6-1-0.4c0.2-0.2,0-0.1-0.1-0.3c-0.1,0,0,0,0,0.1
		c-0.2,0.1-0.2-0.1-0.3-0.1l0.1,0H71c0-0.1-0.1-0.1,0-0.2l-0.1,0.2c-0.1-0.1,0.1-0.2-0.1-0.3l0,0.1c-0.1-0.1-0.3-0.1-0.3-0.2
		c0,0,0,0,0.1,0c-0.1-0.4-0.5-0.1-0.7-0.4l-0.1,0.3c-0.2,0-0.1-0.1-0.1-0.2c-0.2-0.1-0.2-0.2-0.4-0.2c-0.1,0.1-0.1,0.1-0.1,0.2
		l-0.2-0.1l0.2-0.1c-0.4,0.4-0.9-0.2-1.1,0.2c-0.1-0.1,0.1-0.2,0-0.2c-0.5-0.2-0.8,0.4-1.1,0.2c-0.5-0.2-1,0.1-1.5,0.1l0,0.1l-0.4,0
		c-0.1,0.2-0.3,0.1-0.5,0.4c0-0.1,0-0.2,0-0.2c-0.1,0.1-0.3,0.2-0.4,0.1l0-0.1c-0.3,0-0.8,0.1-1,0.2c-0.1,0-0.1-0.1-0.2-0.2
		c-0.2,0-0.3,0.1-0.5,0.3c0,0-0.1-0.1-0.2-0.1l0,0.2c-0.1,0-0.1-0.2-0.1-0.2c-0.3,0.3-0.7,0.2-0.9,0.3l0.1,0.1
		c-0.1,0.1-0.3,0-0.2-0.1c-0.5,0-0.5,0.5-1.1,0.6c-0.2-0.3-0.5,0.3-0.7-0.1c-0.2,0.2-0.4,0.1-0.5,0.3c0,0,0-0.1,0-0.1
		c-0.1-0.1-0.4,0.1-0.6,0.2l0-0.1c0,0.3-0.4,0.3-0.5,0.6c0-0.1,0-0.1,0-0.2c-0.2-0.2-0.2,0.2-0.3,0.1c0-0.1-0.1-0.1,0-0.2
		c-0.3-0.1-0.6,0-0.9,0.1c-0.4,0.1-0.9,0.4-1.4,0.6c-0.2,0.2,0.2,0.1,0,0.4c-0.2,0-0.1-0.3-0.3-0.2c0,0.2-0.1,0.3-0.2,0.5
		c0-0.1-0.1-0.1-0.1-0.3c-0.2,0.1-0.1,0.6-0.4,0.8c0.1,0,0.1,0.1,0.2,0.1c0.1,0.4-0.4,0.7-0.3,0.8c0,0,0,0.1,0.1,0
		c0,0.1-0.1,0.3-0.2,0.2c0.1,0.1,0.2,0.1,0.2,0.2l-0.2-0.1c0,0.1,0.1,0.1,0.2,0.2l0.1-0.1c-0.1,0.1,0.2,0.4-0.1,0.3v0l-0.1,0.2
		c0.1,0.1,0.2,0.2,0.2,0.3c-0.3,0.1-0.1,0.4-0.1,0.6H54c0.1,0.1,0.1,0.5,0.1,0.4c0,0.1-0.1,0.3-0.2,0.3c0.1,0.1,0.1,0.4,0.2,0.4
		l-0.2,0.2c0.4,0.1-0.1,0.5,0.3,0.5c-0.1,0.1-0.2,0.1-0.2,0.2c0.2,0.2,0.2,0.4,0.2,0.6h0c0,0.2,0.2,0.4,0.2,0.7l-0.3,0.1
		c0.1,0.1,0.3,0.1,0.2,0.3c0,0-0.1,0-0.1,0c0.1,0.1,0,0.3,0,0.4c0.2,0.2,0.2,0.3,0.5,0.5c-0.2,0.2-0.2-0.2-0.4,0
		c-0.1,0.3,0.1,0.6,0.3,0.9c0,0-0.1,0-0.2,0c0,0,0.9,0.5,1.1,0.3c0.2,0,0.4,0.1,0.5-0.2c-0.1-0.1-0.3-0.2-0.1-0.3l-0.2,0
		c-0.2-0.3,0.4-0.1,0.3-0.5l0,0.1c0-0.1-0.2-0.1-0.1-0.2c0,0,0.1,0,0.1,0l-0.3-0.3c0.1,0,0.2,0,0.3,0c0-0.3-0.4,0.1-0.3-0.3
		c0.1-0.1,0.1,0,0.2,0c0.1-0.2,0-0.3-0.2-0.4c0.2,0,0.2,0.1,0.3-0.1c-0.1,0-0.3,0.1-0.3,0c0.2,0,0.1-0.1,0.1-0.2c-0.1,0-0.1,0-0.2,0
		c0-0.1,0-0.1,0-0.2l-0.2,0.2c-0.2-0.2,0.1-0.3,0.1-0.5c0,0,0.1,0,0.1,0.1c0.1-0.2,0.2-0.3,0-0.5l0,0c-0.2-0.4-0.3,0.1-0.5-0.3
		c0-0.1,0.6,0,0.4-0.3c-0.2,0.2-0.4-0.2-0.5-0.4l0.4,0.2c0-0.1-0.1-0.2-0.1-0.2h-0.1c-0.3,0,0-0.2-0.2-0.4c0.4,0.2,0.4,0.2,0.8,0.2
		c-0.2-0.1-0.5-0.3-0.4-0.5l0.3,0.2c0.1-0.3-0.4-0.7-0.7-1c0.2,0.1,0.3,0,0.5,0.1l-0.1-0.3l0.3,0.1c-0.3-0.1-0.1-0.3-0.4-0.2
		c0,0,0.1,0,0.1,0.1c-0.1,0-0.3-0.1-0.3-0.2c0.1-0.1,0.1,0.1,0.2,0c-0.1-0.1,0.1-0.1,0-0.2l-0.2,0.1c-0.2-0.1,0-0.2-0.1-0.3
		c0.1,0.1,0.2,0.1,0.3,0h0c0-0.1-0.2-0.2,0-0.2l0.3,0.1l-0.2-0.1c0,0,0.1-0.1,0.2,0c0.2-0.3-0.6,0-0.3-0.4c0.1,0,0.2,0.1,0.1,0.2
		c0.2,0,0.3,0,0.3-0.1c0,0,0,0,0,0C56,180.6,56,180.4,55.8,180.2L55.8,180.2z"/>
	<path class="st0" d="M55.9,180.8c0,0.1,0,0.2,0,0.2C56,181,56.1,180.8,55.9,180.8z"/>
	<path class="st0" d="M71.9,178.6C71.9,178.6,71.9,178.6,71.9,178.6L71.9,178.6z"/>
	<path class="st0" d="M72.8,179.2C72.8,179.2,72.8,179.1,72.8,179.2C72.8,179.1,72.8,179.2,72.8,179.2z"/>
	<path class="st0" d="M63.2,177.6L63.2,177.6L63.2,177.6z"/>
	<path class="st0" d="M68.8,177.1c0.1-0.1,0.1-0.1,0.2-0.2C68.9,176.9,68.8,177,68.8,177.1z"/>
	<path class="st0" d="M67.1,177.1C67.1,177.1,67,177.1,67.1,177.1C67.1,177.1,67.1,177.1,67.1,177.1z"/>
	<path class="st0" d="M63,177.8c0.1-0.1,0.2-0.1,0.3-0.2C63.2,177.7,63,177.6,63,177.8z"/>
	<polygon class="st0" points="74,179.6 73.8,179.7 74,179.7 	"/>
	<path class="st0" d="M73.2,179.1c0-0.1-0.2-0.1-0.2,0C73.1,179.1,73.1,179.1,73.2,179.1z"/>
	<polygon class="st0" points="70.2,177 70.1,177.1 70.2,177 	"/>
</g>
<g>
	<polygon class="st0" points="44.2,174.2 44.4,174.2 44.2,174.1 	"/>
	<path class="st0" d="M44.7,173.6c-0.1-0.1-0.1-0.3-0.4-0.4l0.2,0.2c-0.2-0.1-0.2,0-0.2,0.1l0-0.1c0,0,0.2,0.1,0.2,0.1
		c-0.2,0.1,0.1,0.2-0.2,0.2l0,0l0.1,0.1c0,0-0.1,0-0.2-0.1c0.1,0.1,0.2,0.2,0.1,0.3c0.4,0.1-0.2-0.3,0.2-0.3l0,0
		C44.4,173.7,44.7,173.7,44.7,173.6L44.7,173.6z"/>
	<path class="st0" d="M44.2,173.8L44.2,173.8L44.2,173.8z"/>
	<path class="st0" d="M47,170.6L47,170.6C46.9,170.6,47,170.6,47,170.6z"/>
	<path class="st0" d="M45.5,171L45.5,171C45.5,171,45.5,171,45.5,171z"/>
	<path class="st0" d="M53.2,167.9L53.2,167.9C53.2,167.9,53.2,167.9,53.2,167.9z"/>
	<path class="st0" d="M55,167.8L55,167.8L55,167.8z"/>
	<path class="st0" d="M54,166.6L54,166.6C54,166.5,54,166.6,54,166.6z"/>
	<path class="st0" d="M54.6,166.4C54.6,166.4,54.6,166.4,54.6,166.4C54.6,166.4,54.6,166.4,54.6,166.4z"/>
	<path class="st0" d="M54.9,167.8C54.9,167.8,54.9,167.8,54.9,167.8C54.9,167.8,54.9,167.8,54.9,167.8z"/>
	<path class="st0" d="M53.1,166.6l-0.1-0.2C53,166.5,53.1,166.5,53.1,166.6z"/>
	<path class="st0" d="M54.7,166.2C54.7,166.2,54.7,166.3,54.7,166.2C54.7,166.2,54.7,166.2,54.7,166.2z"/>
	<path class="st0" d="M44.7,173.4C44.7,173.4,44.7,173.5,44.7,173.4C44.8,173.5,44.8,173.5,44.7,173.4z"/>
	<path class="st0" d="M49.7,167.3C49.7,167.3,49.7,167.2,49.7,167.3C49.7,167.2,49.7,167.2,49.7,167.3z"/>
	<path class="st0" d="M51.7,166.7L51.7,166.7C51.7,166.7,51.7,166.7,51.7,166.7L51.7,166.7L51.7,166.7z"/>
	<path class="st0" d="M51.1,166.9L51.1,166.9C51.1,166.9,51.1,166.9,51.1,166.9z"/>
	<path class="st0" d="M52,166.4C52,166.4,52,166.4,52,166.4L52,166.4z"/>
	<path class="st0" d="M52.5,166.5c0-0.1,0-0.1,0-0.2c-0.1-0.1-0.1,0.2-0.2,0l0.1,0.1c0,0.2-0.2,0.2-0.3,0v-0.1c0,0.2-0.2-0.1-0.2,0
		c0,0.1,0,0.1,0.1,0.2l-0.1,0.2l-0.1-0.3l-0.1,0.1c0,0.1-0.1-0.1-0.1,0.2c-0.1-0.1,0-0.2,0-0.3c0,0.1-0.1,0-0.1,0.1l-0.1-0.2
		l-0.1,0.2c0,0,0,0,0-0.1c0,0.2-0.2-0.1-0.2,0.3c0,0,0,0,0,0c0,0.2-0.1,0.1-0.2,0.1c-0.1,0.1,0,0.2,0.1,0.4c-0.2,0-0.1,0-0.2,0.3
		c-0.2-0.3,0-0.5-0.2-0.7c0,0.1,0,0.3-0.1,0.4c-0.1-0.1-0.3-0.1-0.4-0.3l0.1,0.2l-0.1,0.1l0-0.3c0,0.1,0,0.2,0,0.3
		c-0.1,0.2-0.2-0.4-0.2-0.1l0-0.1c0,0.2-0.1,0.1-0.2,0.2l-0.1-0.3l0.1,0c-0.1-0.2-0.1,0.1-0.2,0.1c0,0.1,0.1,0.3,0.1,0.4
		c0,0,0,0.1-0.1,0c-0.1-0.1-0.1-0.3-0.1-0.4c0,0.3,0,0.2,0,0.4c0-0.1-0.1-0.2-0.1-0.2c0,0,0,0.1,0,0.2l-0.1-0.1
		c-0.2-0.2,0.1,0.5-0.1,0.5c0-0.1-0.1,0.1-0.2-0.1c0-0.1-0.2-0.4-0.2-0.5c-0.1,0,0.1,0.3,0,0.4l-0.1-0.3c0,0.2,0.1,0.2,0,0.3
		c0-0.1-0.1-0.1-0.1-0.2c-0.1,0-0.1,0-0.2,0l0.1,0.3c0,0-0.1-0.1-0.1-0.1c0,0,0,0,0-0.1c-0.2-0.2,0,0.2-0.1,0c0,0.1,0.1,0.2,0.1,0.2
		c-0.1-0.2-0.1-0.1-0.2-0.2c0.1,0.1-0.1,0.1,0,0.3c-0.1-0.1-0.1-0.1-0.1-0.2c0.1,0.2-0.2,0.1-0.1,0.3c0,0,0,0,0,0c0,0.2,0,0.2,0,0.5
		l-0.1-0.2c-0.1,0,0.1,0.4,0,0.4c-0.1-0.2-0.1,0.1-0.2-0.2c0,0.2,0,0.2,0.1,0.5c-0.1-0.1-0.1-0.4-0.2-0.4v0.2l-0.1-0.1
		c0.1,0.1,0,0.1,0,0.2c-0.1-0.1-0.2-0.2-0.3-0.3c0,0.1-0.2,0-0.1,0.1l0-0.1c0.1,0.3-0.1,0.1,0.1,0.4l-0.1-0.1c0,0.1,0.2,0.3,0.2,0.4
		c0,0,0,0.1-0.1,0.1c0-0.2-0.2-0.2-0.3-0.2c0,0-0.1,0.1,0,0.3c-0.1-0.2-0.2-0.2-0.1-0.3c-0.2-0.2,0,0.1-0.1,0.2l-0.1-0.1
		c0,0.2,0.1,0.4,0.2,0.6c-0.1-0.1-0.2-0.2-0.2-0.3c-0.1,0-0.2,0.2-0.2,0.2c-0.1-0.1-0.1-0.1-0.2-0.2c0,0.2-0.2,0.1,0,0.4
		c-0.1-0.1-0.1,0-0.2,0c0.1,0.1,0.1,0.1,0.1,0.1c0,0.1,0,0.3-0.1,0.3l-0.1-0.1c-0.2,0.1,0.2,0.5-0.1,0.5c-0.1,0-0.2-0.2-0.2-0.1
		c0.1,0.1,0.3,0.2,0.2,0.3l-0.2-0.1l0.1,0.2c0.2,0.1,0.2,0,0.3,0.1c-0.2-0.1,0.1,0.2-0.1,0.1c0,0-0.1-0.1-0.2-0.2
		c-0.3,0,0,0.3-0.3,0.3c0.1,0.2,0,0.3,0.1,0.4c-0.2-0.1-0.3-0.2-0.5-0.4c-0.1,0.1,0.3,0.4,0,0.2c0.2,0.2,0,0.3,0.4,0.5
		c-0.1,0,0,0.1-0.2-0.1c0.1,0.2-0.4-0.1-0.4,0c0,0,0.2,0.1,0.2,0.2c0,0-0.1,0-0.1,0l0.1,0.1c-0.1,0-0.2-0.1-0.2-0.2
		c-0.1,0,0.1,0.2,0.1,0.4l0-0.1l-0.1,0.1l0,0l0.1,0.1l-0.1-0.1c0,0,0.1,0.1,0.1,0.1l-0.1-0.1c0.2,0.1,0.2,0.3,0.2,0.3l-0.1,0
		l0.2,0.2c-0.2,0-0.2-0.2-0.2-0.1l-0.2-0.1c0.1,0.1-0.1,0.1,0,0.2c0.1,0,0.1,0,0.2,0.1c-0.3-0.1,0,0.1,0.1,0.2c0,0,0-0.1-0.1-0.1
		c0,0,0.1,0.1,0.2,0l-0.1-0.1l0.2,0.1l-0.1-0.1c0.2,0.1,0.1-0.1,0.2,0.1c0-0.1,0.1-0.1-0.1-0.2c0.1,0,0.1,0.1,0.1,0.1
		c0-0.3,0.1-0.5,0.3-0.7l0.1,0.1c-0.1-0.1-0.1-0.1-0.2-0.2c0.2,0.1,0.4,0,0.2-0.2c0,0,0.1,0,0.1,0.1c0-0.1,0.3-0.1,0.3-0.2
		c-0.2-0.2,0.3,0-0.1-0.3l0.1,0.1c-0.1,0-0.2-0.2-0.3-0.3c0.3,0.1,0.2,0.1,0.4,0.3l-0.1,0l0.2,0.1c-0.4-0.5,0.4,0,0.1-0.4
		c0,0,0,0.1,0.1,0.1c0.1,0-0.1-0.2-0.1-0.3c0.1,0.1,0.1,0.1,0.2,0.2c0.1,0,0-0.4,0.2-0.3c-0.1-0.1-0.2-0.1-0.2-0.3
		c0.1,0,0.2,0.1,0.2,0.2c0.3,0.1,0.1-0.4,0.4-0.3c-0.1-0.2-0.2-0.2-0.2-0.4c0.1,0.1,0.3,0.3,0.3,0.3l0.1,0.1
		c0.1-0.1,0.2-0.1,0.1-0.5c0.2,0.2,0,0,0.2,0.1c0,0,0,0-0.1,0c-0.1-0.2,0.1,0,0.1-0.1l0,0l0-0.2c0,0,0.1,0.1,0.1,0.1l-0.1-0.1
		c0,0,0.2,0.2,0.2,0.1l-0.1-0.1c0.1,0.1,0-0.1,0.1,0c0,0,0,0,0,0c0.2,0.2,0.1-0.2,0.2-0.1l-0.2-0.2c0-0.1,0.1,0,0.1,0.1
		c0,0,0.1,0.1,0.2,0c0-0.1-0.1-0.1-0.1-0.2l0.1,0l0.1,0.2c-0.2-0.4,0.2-0.1,0.1-0.5c0.1,0.1,0.1,0.2,0.1,0.2
		c0.2,0.1,0.1-0.4,0.3-0.2c0.2,0.1,0.3-0.1,0.5-0.1l0-0.1H49c0-0.2,0.1-0.1,0-0.4c0,0.1,0.1,0.1,0.1,0.2c0-0.1,0.1-0.1,0.1-0.1v0.1
		c0.1,0,0.3-0.1,0.3-0.2c0,0,0.1,0.1,0.1,0.2c0.1,0,0.1-0.1,0.1-0.3c0,0,0.1,0.1,0.1,0.1l0-0.2c0,0,0.1,0.1,0.1,0.2
		c0-0.3,0.2-0.1,0.3-0.1l0-0.1c0-0.1,0.1,0,0.1,0.1c0.2,0.1,0.1-0.4,0.3-0.4c0.1,0.3,0.2-0.2,0.3,0.2c0-0.1,0.2,0,0.1-0.2
		c0,0,0,0.1,0,0.1c0.1,0.1,0.2,0,0.2-0.1l0,0.1c0-0.3,0.1-0.2,0.1-0.5c0,0.1,0,0.1,0,0.2c0.1,0.2,0-0.1,0.1-0.1
		c0,0.1,0.1,0.1,0.1,0.2c0.3,0.2,0.4-0.3,0.7-0.2c0.1,0-0.1-0.3,0-0.3c0.1,0.1,0,0.3,0.1,0.3c0-0.2,0-0.1,0.1-0.1c0,0.1,0,0.1,0,0.2
		c0.1,0.1,0.1-0.2,0.2,0c0-0.1,0-0.1,0-0.2c0-0.2,0.3,0.2,0.2,0.1c0,0,0,0,0-0.1c0,0,0.1,0,0.1,0.2c0-0.1,0-0.2,0-0.2v0.2
		c0,0,0-0.1,0-0.2l0-0.1c0.1,0.1,0.1-0.2,0.1,0.1h0l0.1,0.1c0-0.1,0-0.2,0.1-0.2c0.1,0.3,0.1,0.1,0.2,0.1v0.1c0-0.2,0.2-0.1,0.2-0.2
		c0,0,0.1,0.1,0.1,0.1c0-0.1,0.1-0.1,0.1-0.2l0.1,0.2c0-0.4,0.2,0.1,0.1-0.3c0,0.1,0,0.1,0.1,0.2c0-0.2,0.1-0.2,0.2-0.1v0
		c0.1,0,0.1-0.2,0.2-0.2l0,0.3c0,0,0-0.3,0.1-0.2c0,0.1,0,0.1,0,0.1c0-0.1,0.1,0,0.2,0.1c0-0.2,0.1-0.1,0.2-0.4
		c0.1,0.3-0.1,0.1,0,0.4c0.1,0.1,0.2,0,0.3-0.2c0,0.1,0,0.1,0,0.2c0,0,0.2-0.8,0.1-1.1c0-0.2,0-0.3-0.1-0.5c0,0.1-0.1,0.3-0.1,0.1
		v0.2c-0.1,0.1,0-0.4-0.2-0.4l0,0.1c0,0,0,0.1-0.1,0.1c0-0.1,0-0.1,0-0.1l-0.1,0.3c0-0.1,0-0.2,0-0.3c-0.1,0,0.1,0.4-0.1,0.3
		c0-0.1,0-0.1,0-0.2c-0.1-0.2-0.1,0-0.2,0.1c0-0.2,0-0.2,0-0.3c0,0.1,0,0.3,0,0.3c0-0.2,0-0.1-0.1-0.1c0,0.1,0,0.2,0,0.2
		c0,0,0,0-0.1,0l0.1,0.2c-0.1,0.2-0.1-0.1-0.2-0.2c0,0,0-0.1,0-0.1c-0.1-0.1-0.1-0.2-0.2,0v0c-0.1,0.2,0.1,0.3-0.1,0.5
		c-0.1,0,0-0.6-0.1-0.4c0.1,0.2,0,0.4-0.1,0.5l0-0.4c0,0-0.1,0.1-0.1,0.1v0.1c0.1,0.3-0.1,0-0.1,0.2c0-0.4,0-0.4,0-0.8
		c0,0.2,0,0.5-0.1,0.4l0-0.3c-0.1-0.1-0.2,0.4-0.3,0.7c0-0.2-0.1-0.3-0.1-0.5l-0.1,0.1v-0.3c0,0.3-0.1,0.1,0,0.4c0-0.1,0-0.1,0-0.1
		c0,0.1,0,0.3,0,0.3c-0.1-0.1,0-0.1,0-0.2c0,0.1-0.1-0.1-0.1,0l0.1,0.1c0,0.2-0.1,0-0.1,0.1c0-0.1,0-0.2,0-0.3v0c0,0,0,0.2-0.1,0.1
		l0-0.3v0.2c0,0-0.1-0.1,0-0.2c-0.2-0.1,0.1,0.6-0.1,0.4c0-0.1,0-0.2,0-0.1c0-0.2,0-0.3-0.1-0.3c0,0,0,0,0,0
		C52.6,166.4,52.5,166.4,52.5,166.5L52.5,166.5z"/>
	<path class="st0" d="M52.8,166.3c0,0,0.1,0,0.1-0.1C52.8,166.2,52.7,166.1,52.8,166.3z"/>
	<path class="st0" d="M45.9,169.6C45.9,169.6,45.9,169.6,45.9,169.6L45.9,169.6z"/>
	<path class="st0" d="M45.7,170C45.7,170,45.7,170,45.7,170C45.7,170,45.7,169.9,45.7,170z"/>
	<path class="st0" d="M49.2,167.5L49.2,167.5L49.2,167.5z"/>
	<path class="st0" d="M47,168.5c0,0.1,0.1,0.2,0.1,0.2C47.1,168.7,47.1,168.6,47,168.5z"/>
	<path class="st0" d="M47.8,168.2C47.8,168.2,47.8,168.2,47.8,168.2C47.8,168.2,47.8,168.2,47.8,168.2z"/>
	<path class="st0" d="M49.2,167.4c0,0.1,0,0.1-0.1,0.2C49.2,167.5,49.3,167.5,49.2,167.4z"/>
	<polygon class="st0" points="45.6,170.5 45.5,170.4 45.5,170.5 	"/>
	<path class="st0" d="M45.8,170.2c0,0,0-0.1-0.1-0.1C45.8,170.1,45.8,170.2,45.8,170.2z"/>
	<polygon class="st0" points="46.9,169.3 46.8,169.2 46.9,169.3 	"/>
</g>
<g>
	<polygon class="st0" points="54.9,166.2 55,166.1 54.8,166.1 	"/>
	<path class="st0" d="M54.4,165c-0.2,0-0.4-0.2-0.6-0.1c0.1,0,0.2,0.1,0.3,0.1c-0.2,0.1-0.1,0.2,0,0.3l-0.1-0.1c0,0,0.2-0.1,0.2,0
		c0,0.2,0.3,0.1,0.2,0.4h0l0.2,0.1c0,0.1-0.1,0.1-0.2,0.1c0.2,0.1,0.3,0.1,0.4,0.3c0.3-0.3-0.5-0.2-0.2-0.6h0
		C54.4,165.4,54.6,165.1,54.4,165L54.4,165z"/>
	<path class="st0" d="M54.4,165.7L54.4,165.7C54.4,165.7,54.4,165.7,54.4,165.7z"/>
	<path class="st0" d="M58.6,165L58.6,165C58.6,164.9,58.5,165,58.6,165z"/>
	<path class="st0" d="M56.5,163.4L56.5,163.4C56.6,163.4,56.5,163.4,56.5,163.4z"/>
	<path class="st0" d="M71.1,165.6l0,0.1C71.1,165.6,71.1,165.6,71.1,165.6z"/>
	<path class="st0" d="M74,166.8L74,166.8L74,166.8z"/>
	<path class="st0" d="M73.1,165L73.1,165C73.1,164.9,73.1,165,73.1,165z"/>
	<path class="st0" d="M74.1,165.3C74.1,165.3,74.2,165.3,74.1,165.3C74.2,165.3,74.2,165.3,74.1,165.3z"/>
	<path class="st0" d="M73.9,166.8C73.9,166.8,74,166.8,73.9,166.8C74,166.8,73.9,166.8,73.9,166.8z"/>
	<path class="st0" d="M71.7,164.4l0-0.2C71.7,164.2,71.7,164.3,71.7,164.4z"/>
	<path class="st0" d="M74.4,165.2C74.4,165.2,74.4,165.3,74.4,165.2C74.4,165.2,74.4,165.2,74.4,165.2z"/>
	<path class="st0" d="M54.3,164.8C54.3,164.8,54.3,164.9,54.3,164.8C54.4,164.9,54.4,164.8,54.3,164.8z"/>
	<path class="st0" d="M65.9,163.3C65.9,163.3,65.9,163.2,65.9,163.3C65.9,163.2,65.9,163.3,65.9,163.3z"/>
	<path class="st0" d="M69.3,163.6L69.3,163.6C69.3,163.6,69.3,163.6,69.3,163.6L69.3,163.6L69.3,163.6z"/>
	<path class="st0" d="M68.3,163.5L68.3,163.5C68.4,163.5,68.3,163.5,68.3,163.5z"/>
	<path class="st0" d="M70.1,163.6C70.1,163.6,70.2,163.5,70.1,163.6L70.1,163.6z"/>
	<path class="st0" d="M70.8,164c0-0.1,0-0.1,0.1-0.2c-0.2-0.1-0.3,0.1-0.4-0.1l0.1,0.1c-0.2,0.1-0.4,0.1-0.5-0.1l0-0.1
		c-0.1,0.1-0.3-0.2-0.3-0.1c0,0.1,0,0.1,0,0.2l-0.3,0.1l0-0.3l-0.2,0.1c0,0.1-0.2-0.1-0.2,0.1c-0.1-0.1,0.1-0.2,0.1-0.3
		c-0.1,0.1-0.1-0.1-0.2,0.1l0-0.3l-0.3,0.1c0,0,0,0,0-0.1c-0.1,0.2-0.2-0.2-0.4,0.2c0,0,0,0,0,0c-0.1,0.2-0.3,0-0.3,0
		c-0.1,0-0.1,0.2-0.1,0.3c-0.3-0.1-0.2-0.1-0.5,0.2c-0.1-0.3,0.2-0.5,0.1-0.7c0,0.1-0.2,0.3-0.4,0.3c-0.2-0.1-0.4-0.2-0.6-0.4v0.2
		l-0.2,0.1l0.1-0.3c0,0.1-0.2,0.2-0.2,0.3c-0.2,0.2-0.1-0.5-0.3-0.1l0-0.1c-0.1,0.2-0.2,0.1-0.4,0.2l0.1-0.3l0.1,0.1
		c-0.1-0.3-0.2,0.1-0.3,0c-0.1,0.1,0,0.3-0.1,0.4c0,0-0.1,0.1-0.1,0c-0.1-0.1,0-0.3,0-0.4c-0.1,0.3-0.1,0.2-0.3,0.4
		c0-0.1,0-0.2,0-0.2c0,0-0.1,0.1-0.1,0.2l-0.1-0.1c-0.2-0.2-0.2,0.5-0.4,0.4c0.1-0.1-0.2,0.1-0.3-0.1c0.1-0.1-0.1-0.4,0-0.6
		c-0.2-0.1,0,0.3-0.2,0.4l0-0.3c-0.1,0.2,0,0.2-0.2,0.3c0-0.1-0.1-0.1,0-0.2c-0.2,0-0.2,0-0.3,0l0,0.3c-0.1,0-0.1-0.1-0.1-0.1
		c0,0,0.1,0,0.1,0c-0.1-0.3-0.1,0.2-0.2-0.1c0,0.1,0.1,0.2,0,0.3c0-0.2-0.1-0.2-0.1-0.2c0.1,0.1-0.2,0.1-0.1,0.3
		c-0.1-0.1,0-0.2,0-0.3c-0.1,0.3-0.3,0.1-0.4,0.2c0,0,0,0,0-0.1c-0.1,0.2-0.2,0.2-0.4,0.4l0-0.2c-0.2-0.1-0.1,0.4-0.2,0.4
		c0-0.3-0.3,0-0.2-0.3c-0.1,0.1-0.2,0.2-0.2,0.4c-0.1-0.1,0.2-0.4,0-0.4l-0.1,0.1l0-0.1c0,0.1-0.1,0.1-0.1,0.2
		c0-0.2-0.1-0.3-0.1-0.4c-0.1,0.1-0.2-0.1-0.3,0v-0.1c-0.1,0.3-0.2,0.1-0.3,0.4l0-0.2c-0.1,0-0.1,0.4-0.2,0.4c-0.1,0-0.1,0-0.2,0
		c0.2-0.2-0.1-0.3-0.1-0.4c-0.1,0-0.2,0-0.3,0.1c0.1-0.2,0.1-0.3,0.2-0.3c0-0.3-0.2,0.1-0.4,0l0-0.1c-0.2,0.1-0.3,0.3-0.4,0.6
		c0-0.2,0-0.2,0.1-0.4c-0.1-0.1-0.4-0.1-0.5-0.1c0-0.1,0-0.2,0.1-0.2c-0.2,0.1-0.3-0.1-0.5,0.2c0.1-0.1,0-0.1-0.1-0.2
		c0,0.1-0.1,0.1-0.1,0.1c-0.1,0.1-0.4,0.1-0.5,0l0.1-0.1c-0.2-0.1-0.6,0.3-0.8,0c0-0.1,0.2-0.2,0-0.3c-0.1,0.1-0.2,0.3-0.3,0.2
		l0.1-0.2l-0.2,0.2c0,0.2,0.2,0.2,0,0.3c-0.1-0.2-0.2,0.1-0.2-0.1c0,0,0.1-0.1,0.2-0.2c-0.2-0.4-0.5,0.1-0.8-0.3
		c-0.2,0.1-0.4,0.1-0.5,0.3c0-0.2,0-0.4,0.1-0.6c-0.2,0-0.2,0.4-0.3,0.1c-0.1,0.3-0.4,0.2-0.3,0.6c0-0.1-0.1,0-0.1-0.2
		c-0.1,0.2-0.3-0.3-0.4-0.2c0,0,0.2,0.2,0.1,0.3c0,0,0,0-0.1-0.1l0,0.1c-0.1-0.1-0.1-0.2-0.1-0.3c-0.2,0-0.1,0.4-0.2,0.5l0-0.1
		l-0.1,0.1l0,0.1v0c0,0.1,0,0.1,0,0.2l-0.1-0.1c0,0,0.1,0.1,0.1,0.1l-0.1-0.1c0.2,0.1,0.3,0.2,0.3,0.3h-0.1c0.1,0.1,0.2,0.1,0.3,0.1
		c-0.1,0.1-0.3-0.1-0.2,0.1h-0.3c0.1,0.1,0,0.2,0.1,0.2c0.1-0.1,0.1-0.1,0.2-0.1c-0.3,0.2,0.1,0.1,0.3,0.2c0-0.1,0-0.1-0.2-0.1
		c0-0.1,0.1-0.1,0.1-0.1l-0.2,0l0.2-0.1l-0.2-0.1c0.2,0,0-0.1,0.2-0.1c-0.1-0.1,0.1-0.1-0.2-0.1c0.1,0,0.1,0.1,0.2,0
		c-0.1-0.1-0.1-0.1-0.1-0.2c0.1-0.1,0.2-0.2,0.3-0.2l0,0.1c0-0.1,0-0.2,0-0.3c0.1,0.1,0.3,0.3,0.3,0c0,0,0,0.1,0,0.1
		c0.1-0.1,0.3,0.2,0.4,0.2c0.1-0.3,0.2,0.2,0.4-0.2l-0.1,0.1c0-0.1,0.2-0.3,0.2-0.4c0,0.3-0.1,0.2-0.1,0.5l0-0.1l-0.1,0.2
		c0.4-0.6,0.3,0.4,0.6,0c0,0,0,0.1,0,0.1c0,0.2,0.2-0.1,0.3-0.1c0,0.1-0.1,0.2-0.2,0.2c0.1,0.2,0.6,0,0.8,0.3c0.1-0.1,0-0.2,0.2-0.3
		c0.1,0.1,0.1,0.2,0,0.3c0.1,0.4,0.7,0,0.9,0.4c0.2-0.1,0.1-0.2,0.4-0.3c-0.1,0.1,0,0.4-0.2,0.4l0,0.1c0.2,0.1,0.6,0.2,0.8-0.2
		c0,0.3,0,0.1,0.1,0.2c0,0,0,0,0-0.1c0.1-0.2,0.1,0,0.2,0l0,0l0.2-0.1c0,0,0.1,0.1,0.1,0.2l0-0.2c0.1,0,0,0.2,0.2,0.2v-0.1
		c0.1,0.1,0.2-0.1,0.2,0.1c0,0,0,0,0,0c0.1,0.3,0.3-0.1,0.5,0.1l0-0.3c0.2-0.1,0.1,0.1,0.1,0.2c0.1,0,0.1,0.1,0.2,0.1
		c0.1-0.1,0-0.1,0.1-0.2l0.1,0.1l-0.1,0.2c0.2-0.4,0.5,0.1,0.6-0.4c0.1,0.1-0.1,0.2,0,0.2c0.2,0.2,0.5-0.3,0.7-0.1
		c0.3,0.2,0.7-0.1,1,0.1l0-0.1l0.2,0c0-0.2,0.2-0.1,0.3-0.4c0,0.1,0,0.2,0,0.2c0.1,0,0.2-0.1,0.3,0l0,0.1c0.2,0,0.5,0,0.6-0.1
		c0.1,0,0.1,0.1,0.1,0.2c0.1,0,0.2-0.1,0.3-0.2c0,0,0.1,0.1,0.1,0.1l0-0.2c0,0,0,0.2,0.1,0.2c0.2-0.2,0.4,0,0.6-0.1l0-0.1
		c0.1-0.1,0.2,0.1,0.1,0.2c0.3,0.1,0.4-0.3,0.8-0.2c0,0.4,0.3-0.1,0.4,0.3c0.2-0.1,0.2,0.1,0.4-0.1c0,0,0,0.1,0,0.1
		c0.1,0.2,0.3,0.1,0.4,0v0.1c0.1-0.3,0.3-0.1,0.4-0.4c0,0.1-0.1,0.1-0.1,0.1c0.1,0.3,0.2-0.1,0.2,0c0,0.1,0,0.1,0,0.2
		c0.3,0.3,0.9-0.1,1.3,0.2c0.1,0,0-0.3,0.2-0.2c0,0.1-0.1,0.2,0,0.3c0.1-0.1,0.1-0.1,0.2-0.1c0,0.1,0,0.1-0.1,0.2
		c0,0.1,0.3-0.1,0.3,0.1c0-0.1,0.1-0.1,0.1-0.2c0.2-0.2,0.3,0.3,0.4,0.2c0,0,0.1,0,0-0.1c0.1,0,0.1,0.1,0.1,0.2
		c0.1-0.1,0.1-0.2,0.2-0.2l-0.1,0.1c0,0,0.1-0.1,0.1-0.1l0-0.1c0,0.1,0.3-0.1,0.2,0.2h0l0.1,0.2c0.1-0.1,0.2-0.2,0.2-0.1
		c-0.1,0.3,0.2,0.1,0.3,0.2l0,0.1c0.1-0.1,0.3,0,0.3,0c0.1,0,0.2,0.1,0.1,0.2c0.1,0,0.2,0,0.3-0.1l0.1,0.3c0.2-0.3,0.2,0.2,0.4-0.1
		c0,0.1,0,0.2,0,0.2c0.2-0.1,0.3-0.1,0.4,0v0c0.1,0.1,0.3,0,0.5,0l-0.1,0.3c0.1,0,0.2-0.2,0.3-0.1c0,0.1,0,0.1-0.1,0.1
		c0.1,0,0.2,0.1,0.3,0.2c0.2-0.2,0.3-0.1,0.5-0.3c0.1,0.3-0.2,0.1-0.2,0.4c0.2,0.2,0.5,0.1,0.8-0.1c0,0.1,0,0.1,0,0.2
		c0,0,0.1-0.2,0.2-0.4c0.1-0.2,0.1-0.5,0-0.6c0-0.2,0-0.3-0.2-0.5c0,0.1-0.1,0.3-0.2,0.1v0.2c-0.2,0.1,0-0.4-0.2-0.4l0,0.1
		c0,0-0.1,0.1-0.1,0.1c0-0.1,0-0.1,0-0.1c-0.1,0.1-0.1,0.2-0.2,0.3c0-0.1,0-0.2,0.1-0.3c-0.2,0,0,0.4-0.2,0.3c0-0.1,0-0.1,0.1-0.2
		c0-0.2-0.1-0.1-0.3,0c0.1-0.2,0.1-0.1,0.1-0.3c0,0.1-0.1,0.3-0.1,0.3c0.1-0.2,0-0.1-0.1-0.2c0,0.1,0,0.1-0.1,0.2s0-0.1-0.1-0.1v0.2
		c-0.2,0.1-0.1-0.2-0.2-0.3c0,0,0.1,0,0.1-0.1c-0.1-0.1-0.1-0.3-0.3-0.2l0,0c-0.3,0.1-0.1,0.3-0.4,0.4c-0.1-0.1,0.3-0.6,0-0.4
		c0,0.2-0.3,0.3-0.4,0.3l0.2-0.3c0,0-0.2,0.1-0.2,0l0,0.1c-0.1,0.3-0.1-0.1-0.3,0.1c0.2-0.4,0.2-0.3,0.4-0.7
		c-0.2,0.2-0.3,0.4-0.5,0.3l0.2-0.3c-0.2-0.1-0.6,0.2-0.8,0.4c0.1-0.2,0.1-0.3,0.2-0.5l-0.2,0l0.1-0.2c-0.2,0.2-0.2,0-0.3,0.4
		c0,0,0.1-0.1,0.1-0.1c0,0.1-0.1,0.3-0.2,0.2c0-0.1,0.1-0.1,0.1-0.2c-0.1,0.1,0-0.1-0.1,0l0,0.2c-0.1,0.2-0.1,0-0.2,0.1
		c0.1-0.1,0.1-0.2,0.1-0.3v0c-0.1,0-0.2,0.1-0.2,0l0.1-0.3l-0.1,0.2c0,0,0-0.1,0.1-0.2c-0.2-0.2-0.2,0.6-0.4,0.3
		c0-0.1,0.1-0.2,0.1-0.1c0.1-0.2,0.1-0.3,0-0.4c0,0,0,0,0,0C71.1,163.9,70.9,163.8,70.8,164L70.8,164z"/>
	<path class="st0" d="M71.3,163.9c0.1,0,0.2,0,0.2,0C71.5,163.9,71.4,163.8,71.3,163.9z"/>
	<path class="st0" d="M58.8,163.5C58.8,163.5,58.8,163.5,58.8,163.5L58.8,163.5z"/>
	<path class="st0" d="M58.1,163.5C58.1,163.5,58.1,163.5,58.1,163.5C58.2,163.5,58.2,163.4,58.1,163.5z"/>
	<path class="st0" d="M64.9,163.4L64.9,163.4L64.9,163.4z"/>
	<path class="st0" d="M61.1,163.6c-0.1,0.1-0.1,0.2-0.1,0.2C61,163.8,61.1,163.8,61.1,163.6z"/>
	<path class="st0" d="M62.3,163.7C62.3,163.7,62.3,163.6,62.3,163.7C62.3,163.7,62.3,163.7,62.3,163.7z"/>
	<path class="st0" d="M65.1,163.2c-0.1,0.1-0.1,0.1-0.2,0.1C64.9,163.3,65.1,163.4,65.1,163.2z"/>
	<polygon class="st0" points="57.3,163.5 57.4,163.4 57.3,163.4 	"/>
	<path class="st0" d="M57.9,163.6c0,0,0.2,0,0.1-0.1C58,163.6,57.9,163.6,57.9,163.6z"/>
	<polygon class="st0" points="60.2,164.2 60.2,164 60.2,164.1 	"/>
</g>
</svg>
