<?xml version="1.0" encoding="utf-8"?>
<!-- Generator: Adobe Illustrator 28.1.0, SVG Export Plug-In . SVG Version: 6.00 Build 0)  -->
<svg version="1.1" id="a" xmlns="http://www.w3.org/2000/svg" xmlns:xlink="http://www.w3.org/1999/xlink" x="0px" y="0px"
	 viewBox="0 0 646 792" style="enable-background:new 0 0 646 792;" xml:space="preserve">
<style type="text/css">
	.st0{fill:#5F5F5F;}
</style>
<g>
	<path class="st0" d="M85.7,225.9l0,0.1c0.1-0.1,0.2-0.1,0.3-0.2C85.9,225.9,85.8,225.9,85.7,225.9L85.7,225.9z"/>
	<path class="st0" d="M88.2,225.4c0.1-0.2,0.3-0.6,0.2-0.8l-0.1,0.4c-0.2-0.1-0.4,0-0.5,0.2l0.2-0.1c0,0.1,0.1,0.2,0,0.2
		c-0.4,0.1-0.3,0.4-0.8,0.4v0c-0.1,0.1-0.1,0.2-0.2,0.2c-0.1,0-0.1-0.1-0.1-0.2c-0.2,0.2-0.4,0.4-0.8,0.4c0.2,0.2,0.4,0.1,0.6,0
		c0.2-0.1,0.4-0.2,0.6-0.1v0C87.5,225.6,88,225.7,88.2,225.4z"/>
	<path class="st0" d="M86.9,225.6L86.9,225.6C86.9,225.6,86.9,225.6,86.9,225.6z"/>
	<path class="st0" d="M94.9,215.4L94.9,215.4C94.8,215.3,94.9,215.4,94.9,215.4z"/>
	<path class="st0" d="M92.6,218.8L92.6,218.8C92.5,218.7,92.5,218.7,92.6,218.8z"/>
	<path class="st0" d="M91.8,194.3C91.8,194.3,91.8,194.3,91.8,194.3C91.8,194.2,91.8,194.2,91.8,194.3z"/>
	<path class="st0" d="M91.4,188.7L91.4,188.7L91.4,188.7z"/>
	<path class="st0" d="M90.6,191.4L90.6,191.4C90.5,191.4,90.6,191.4,90.6,191.4z"/>
	<path class="st0" d="M90.1,189.7c0-0.1,0-0.1,0-0.1C90.1,189.6,90.1,189.7,90.1,189.7z"/>
	<path class="st0" d="M91.4,188.8C91.4,188.8,91.4,188.8,91.4,188.8C91.4,188.8,91.4,188.8,91.4,188.8z"/>
	<path class="st0" d="M90.4,193.8l-0.2,0C90.3,193.9,90.4,193.8,90.4,193.8z"/>
	<path class="st0" d="M89.9,189.4c0,0,0.1-0.1,0.1-0.1C89.9,189.3,89.9,189.3,89.9,189.4z"/>
	<path class="st0" d="M88.5,225.1c0,0-0.1,0.1-0.1,0.1C88.4,225.2,88.5,225.2,88.5,225.1z"/>
	<path class="st0" d="M93,203.1C93,203.1,92.9,203.1,93,203.1C92.9,203.1,93,203.1,93,203.1z"/>
	<path class="st0" d="M91.8,197.8L91.8,197.8C91.8,197.8,91.8,197.8,91.8,197.8L91.8,197.8L91.8,197.8z"/>
	<path class="st0" d="M92.4,199.3C92.4,199.3,92.4,199.3,92.4,199.3C92.4,199.3,92.4,199.3,92.4,199.3z"/>
	<path class="st0" d="M91.1,196.9C91.1,196.9,91.1,196.8,91.1,196.9L91.1,196.9L91.1,196.9z"/>
	<path class="st0" d="M90.7,195.8c0,0.1-0.1,0.1-0.2,0.1c0.1,0.4,0.4,0.2,0.4,0.6l0-0.2c0.2,0.1,0.4,0.4,0.3,0.6h-0.1
		c0.2,0.1,0.1,0.4,0.2,0.5c0.1-0.1,0.1-0.1,0.2-0.2c0.1,0.1,0.2,0.2,0.4,0.3l-0.2,0.1l0.2,0.2c0.1-0.1,0,0.3,0.3,0.2
		c-0.1,0.2-0.2,0-0.4,0c0.1,0.1,0,0.1,0.2,0.2l-0.2,0.2l0.3,0.3c0,0,0,0-0.1,0c0.3,0.1,0,0.4,0.4,0.5c0,0,0,0,0,0
		c0.2,0.1,0.2,0.4,0.1,0.5c0.1,0.2,0.3,0,0.4,0c0.1,0.6,0,0.4,0.4,0.8c-0.3,0.3-0.6-0.2-0.7,0.2c0.2,0,0.3,0.2,0.4,0.5
		c-0.1,0.3-0.1,0.7-0.3,1l0.2-0.1l0.2,0.3l-0.3-0.2c0.1,0.1,0.2,0.2,0.3,0.3c0.2,0.4-0.4,0.3-0.1,0.5c0,0,0,0-0.1,0
		c0.2,0.1,0.1,0.3,0.2,0.6l-0.3-0.1l0-0.2c-0.2,0.1,0.1,0.3,0.1,0.5c0.1,0.2,0.3,0.1,0.4,0.2c0,0.1,0.1,0.2,0,0.2
		c-0.1,0.2-0.3,0.1-0.4,0c0.3,0.1,0.3,0.2,0.4,0.5c-0.1,0-0.2,0-0.2,0c0,0.1,0.1,0.1,0.2,0.1l-0.1,0.1c-0.2,0.4,0.5,0.3,0.5,0.8
		c-0.2-0.1,0.1,0.4-0.1,0.5c-0.1-0.1-0.4,0.1-0.5,0c-0.1,0.4,0.3,0.1,0.4,0.4l-0.3-0.1c0.2,0.3,0.2,0.1,0.3,0.3
		c-0.1-0.1-0.1,0.1-0.2,0c0,0.4,0,0.3,0,0.6h0.3c0,0.1-0.1,0.1-0.2,0.2c0,0,0-0.1,0-0.1c-0.3,0.1,0.2,0.2-0.1,0.4
		c0.1-0.1,0.2-0.1,0.3,0c-0.2,0-0.2,0.2-0.2,0.2c0.1-0.1,0.1,0.3,0.3,0.3c-0.1,0.2-0.2,0-0.3,0c0.3,0.1,0.1,0.5,0.3,0.6c0,0,0,0,0,0
		c0.2,0.1,0.2,0.4,0.5,0.7l-0.2-0.1c0,0.3,0.4,0.1,0.5,0.4c-0.3,0,0.1,0.4-0.2,0.4c0.2,0.1,0.3,0.3,0.5,0.4c-0.1,0.2-0.4-0.2-0.4,0
		c0.1,0.1,0.1,0.1,0.2,0.2l-0.1,0.1c0.1,0,0.1,0.2,0.2,0.2c-0.2,0.1-0.3,0.1-0.4,0.1c0.1,0.1-0.1,0.3,0.1,0.4h-0.1
		c0.3,0.1,0,0.4,0.4,0.5l-0.2,0.1c0,0.2,0.3,0.2,0.4,0.3c0,0.1,0,0.2,0,0.3c-0.2-0.3-0.3,0.1-0.4,0.1c0,0.1,0,0.4,0.1,0.6
		c-0.1-0.2-0.3-0.1-0.2-0.3c-0.3,0.1,0,0.4-0.1,0.6l-0.1,0c0,0.4,0.2,0.5,0.4,0.7c-0.2,0-0.2-0.1-0.4-0.2c-0.2,0.2-0.2,0.6-0.3,0.9
		c-0.2,0-0.2-0.1-0.2-0.1c0,0.3-0.3,0.6,0,0.9c-0.1-0.1-0.1,0.1-0.2,0.1c0.1,0,0.1,0.1,0.1,0.1c0,0.2,0,0.6-0.2,0.8l-0.1-0.1
		c-0.2,0.4,0.2,0.9-0.3,1.2c-0.1,0.1-0.2-0.2-0.3,0c0.1,0.1,0.3,0.2,0.2,0.4l-0.2-0.1l0.1,0.2c0.2,0,0.2-0.3,0.4,0
		c-0.3,0.1,0.1,0.3-0.2,0.4c0-0.1-0.1-0.2-0.2-0.3c-0.5,0.4-0.1,0.8-0.6,1.2c0,0.3-0.1,0.7-0.1,0.9c-0.2-0.1-0.4-0.2-0.4-0.4
		c-0.1,0.2,0.2,0.5-0.1,0.5c0.2,0.2-0.2,0.7,0.1,1c-0.1,0-0.2,0.2-0.2-0.1c-0.1,0.4-0.5,0.2-0.6,0.3c0,0.1,0.3,0.1,0.2,0.2
		c0,0-0.1,0-0.1,0l0,0.1c-0.1,0-0.1-0.2-0.2-0.3c-0.2,0.2-0.1,0.5-0.3,0.8l0-0.1c-0.1,0.1-0.2,0.2-0.2,0.2v0l-0.1,0.3l-0.1-0.1
		c0,0.1,0,0.1,0,0.2l-0.1-0.1c0.1,0.2-0.1,0.5-0.2,0.6l-0.1,0c0,0.1-0.1,0.3-0.1,0.4c-0.2,0,0-0.4-0.2-0.1l-0.1-0.3
		c-0.1,0.3-0.3,0.2-0.4,0.4c0.2,0.1,0.2,0,0.2,0.1c-0.4-0.1-0.2,0.3-0.3,0.5c0.1-0.1,0.1-0.1,0.1-0.3c0.1-0.1,0.1,0.1,0.2,0.1l0-0.2
		l0.1,0.1l0.1-0.3c0.1,0.2,0.2-0.1,0.3,0.1c0.1-0.2,0.3-0.2,0.3-0.4c0.2,0-0.1,0.3,0.1,0.2c0.5-0.7,1-1.3,1.6-1.9l0,0.1
		c0-0.1,0-0.2-0.1-0.3c0.2,0,0.7-0.4,0.5-0.7c0,0,0.1,0.1,0.1,0.1c0.1-0.2,0.5-0.6,0.7-0.9c-0.2-0.3,0.5-0.4,0.1-0.8l0,0.1
		c-0.2,0.1-0.2-0.3-0.3-0.4c0.3,0,0.2,0.1,0.5,0.1l-0.2,0.1l0.2,0.1c-0.4-0.7,0.6-0.7,0.3-1.2c0,0,0,0,0.1,0.1
		c0.2-0.1,0-0.4-0.1-0.5c0.1,0,0.2,0.2,0.2,0.3c0.2-0.3,0.1-0.9,0.5-1.2c-0.1-0.2-0.2-0.1-0.3-0.2c0.1-0.1,0.2-0.1,0.3,0.1
		c0.4-0.2,0.2-1.1,0.7-1.5c-0.1-0.3-0.2-0.2-0.2-0.6c0.1,0.1,0.4,0,0.3,0.3l0.1,0.1c0.2-0.4,0.4-0.9,0.1-1.3
		c0.3,0.1,0.1-0.1,0.2-0.2c0-0.1,0,0-0.1,0c-0.2-0.2,0.1-0.2,0.1-0.4l0,0.1l-0.1-0.3c0,0,0.1-0.1,0.2-0.1l-0.2,0
		c0-0.2,0.3,0,0.2-0.3l-0.2,0c0.1-0.1-0.1-0.4,0.1-0.4c0,0,0,0,0,0.1c0.3-0.2-0.1-0.6,0.1-0.8l-0.3,0.1c-0.1-0.2,0.1-0.1,0.2-0.1
		c0-0.2,0.1-0.2,0.1-0.4c-0.1-0.1-0.1-0.1-0.2-0.1l0.1-0.2l0.2,0.1c-0.5-0.3-0.1-0.9-0.5-1.1c0.1-0.1,0.2,0.1,0.2,0
		c0.1-0.4-0.4-0.8-0.3-1.1c0.1-0.5-0.1-1.1,0-1.6l-0.1,0l0-0.4c-0.2-0.1-0.1-0.4-0.4-0.5c0.1,0,0.2,0,0.2,0c0-0.2-0.2-0.4,0-0.5
		l0.1,0.1c0-0.4,0-0.9-0.2-1.1c0-0.1,0.1-0.1,0.2-0.2c0-0.2-0.1-0.4-0.3-0.5c0-0.1,0.1-0.1,0.1-0.2l-0.2-0.1c0-0.1,0.2,0,0.2-0.1
		c-0.3-0.3-0.1-0.8-0.1-1l-0.1,0.1c-0.1-0.1,0-0.3,0.1-0.2c0.1-0.5-0.4-0.7-0.4-1.3c0.3-0.1-0.2-0.6,0.2-0.7c-0.2-0.3,0-0.5-0.3-0.6
		c0,0,0,0,0.1,0c0.1-0.1-0.1-0.5-0.2-0.7l0.1-0.1c-0.3,0-0.3-0.5-0.6-0.6c0.1-0.1,0.1,0,0.2,0c0.2-0.2-0.2-0.2-0.2-0.4
		c0.1,0,0.1-0.1,0.2-0.1c0.1-0.7-0.7-1.4-1-2.2c-0.1-0.2-0.2,0.2-0.3-0.1c0.1-0.1,0.3,0,0.3-0.2c-0.2,0-0.2-0.1-0.3-0.3
		c0.1,0,0.1-0.1,0.2,0c0-0.2-0.4-0.3-0.4-0.6c-0.1,0.1-0.1,0.1-0.2,0c-0.3-0.1,0-0.5-0.1-0.4c0,0-0.1-0.1-0.1,0c0-0.1,0-0.2,0.2-0.2
		c-0.1,0-0.2,0-0.2-0.1H92c0,0-0.1,0-0.2,0c0,0-0.1,0-0.1,0c0.1,0-0.2-0.4,0.1-0.3v0.1l0.2-0.2c-0.1-0.1-0.2-0.2-0.2-0.4
		c0.3-0.1,0.1-0.4,0.1-0.6H92c-0.1-0.2-0.1-0.6-0.1-0.5c0-0.2,0-0.4,0.1-0.3c-0.1-0.1-0.1-0.4-0.3-0.5l0.2-0.3
		c-0.4-0.1,0.1-0.6-0.3-0.5c0-0.1,0.1-0.1,0.2-0.2c-0.2-0.2-0.2-0.4-0.2-0.6h0c0-0.2-0.2-0.4-0.3-0.7l0.3-0.1
		c-0.1-0.1-0.3-0.1-0.3-0.3c0,0,0.1,0,0.1,0c-0.1-0.1,0-0.3,0-0.4c-0.3-0.2-0.2-0.3-0.5-0.5c0.2-0.2,0.2,0.2,0.4,0
		c0.1-0.3-0.1-0.6-0.3-0.9c0,0,0.1,0,0.2,0c0,0-0.9-0.5-1.1-0.3c-0.2-0.1-0.3-0.1-0.5,0.2c0.1,0.1,0.3,0.3,0.1,0.4l0.2,0
		c0.2,0.4-0.4,0.1-0.3,0.6l0-0.1c0,0.1,0.2,0.1,0.1,0.2c0,0-0.1,0-0.1,0l0.4,0.3c-0.1,0-0.2,0-0.3,0c0.1,0.3,0.4-0.1,0.4,0.3
		c-0.1,0.1-0.1,0-0.2,0c-0.1,0.2,0.1,0.3,0.2,0.5c-0.2,0-0.2-0.1-0.3,0.1c0.1-0.1,0.2-0.1,0.3,0c-0.2,0-0.1,0.1-0.1,0.2
		c0.1,0,0.2-0.1,0.2,0c0,0.1,0,0.1,0,0.2l0.2-0.2c0.2,0.2,0,0.4-0.1,0.5c0,0-0.1,0-0.1-0.1c0,0.2-0.2,0.4,0,0.6h0
		c0.3,0.4,0.3-0.2,0.6,0.2c0,0.2-0.6,0-0.3,0.4c0.1-0.2,0.4,0.2,0.5,0.4l-0.4-0.2c0,0.1,0.1,0.2,0.1,0.3l0.1,0
		c0.3-0.1,0,0.3,0.2,0.4c-0.4-0.1-0.4-0.2-0.8-0.1c0.2,0.1,0.5,0.3,0.5,0.5l-0.3-0.2c-0.1,0.3,0.5,0.7,0.7,1c-0.2-0.1-0.3,0-0.5-0.1
		l0,0.3l-0.3-0.1c0.3,0.1,0.1,0.3,0.4,0.3c0,0-0.1,0-0.1-0.1c0.1,0,0.3,0.1,0.3,0.2c-0.1,0.1-0.1-0.1-0.2-0.1c0.1,0.1-0.1,0.1,0,0.2
		l0.2-0.1c0.2,0.1,0,0.2,0.1,0.3c-0.1-0.1-0.2-0.1-0.3-0.1h0c0,0.1,0.1,0.2,0,0.2l-0.3-0.1c0.1,0,0.1,0.1,0.2,0.2
		c0,0.1-0.1,0.1-0.2,0c-0.1,0.3,0.1,0.3,0.2,0.3c0.2,0,0.3,0,0.2,0.4c-0.1,0-0.2,0-0.2-0.2c-0.2,0-0.3,0.1-0.3,0.3c0,0,0,0,0,0
		c0.1,0.4,0.3,0.8,0.6,0.9L90.7,195.8z"/>
	<path class="st0" d="M90.1,194.8c0-0.2-0.1-0.4-0.1-0.5C90,194.4,90,194.9,90.1,194.8z"/>
	<path class="st0" d="M93.5,215.1C93.5,215.1,93.5,215,93.5,215.1L93.5,215.1z"/>
	<path class="st0" d="M93.1,216.1C93.1,216.1,93.2,216.1,93.1,216.1C93.2,216.1,93.1,216.1,93.1,216.1z"/>
	<path class="st0" d="M93.2,204.8L93.2,204.8L93.2,204.8z"/>
	<path class="st0" d="M93.9,211.2c0.1,0.1,0.2,0.1,0.2,0.1C94.2,211.3,94.1,211.2,93.9,211.2z"/>
	<path class="st0" d="M93.7,209.1C93.7,209.1,93.7,209.1,93.7,209.1C93.7,209.1,93.7,209.1,93.7,209.1z"/>
	<path class="st0" d="M93.1,204.4c0.1,0.1,0.1,0.2,0.2,0.3C93.2,204.7,93.2,204.5,93.1,204.4z"/>
	<polygon class="st0" points="92.8,217.5 92.8,217.4 92.8,217.5 	"/>
	<path class="st0" d="M93.2,216.5c0,0,0-0.2-0.1-0.2C93.2,216.4,93.2,216.4,93.2,216.5z"/>
	<polygon class="st0" points="94.5,212.7 94.4,212.6 94.5,212.7 	"/>
</g>
<g>
	<polygon class="st0" points="45.2,193.4 45.3,193.4 45.2,193.3 	"/>
	<path class="st0" d="M45.3,192.3c-0.2-0.1-0.3-0.3-0.6-0.3l0.3,0.2c-0.2,0-0.2,0.1-0.1,0.2l0-0.1c0,0,0.2,0,0.2,0
		c-0.1,0.2,0.2,0.2,0,0.4h0l0.2,0.1c0,0-0.1,0-0.2,0c0.1,0.1,0.2,0.2,0.2,0.4c0.4-0.1-0.3-0.4,0.1-0.5h0
		C45.2,192.6,45.4,192.5,45.3,192.3L45.3,192.3z"/>
	<path class="st0" d="M45,192.9L45,192.9C45,192.9,45,192.9,45,192.9z"/>
	<path class="st0" d="M45.5,186.5L45.5,186.5C45.5,186.5,45.5,186.5,45.5,186.5z"/>
	<path class="st0" d="M45,188.6L45,188.6C44.9,188.6,44.9,188.6,45,188.6z"/>
	<path class="st0" d="M45.4,176.9h0.1C45.4,176.8,45.4,176.8,45.4,176.9z"/>
	<path class="st0" d="M46.5,174.7L46.5,174.7L46.5,174.7z"/>
	<path class="st0" d="M44.8,175.1L44.8,175.1C44.8,175.1,44.8,175.1,44.8,175.1z"/>
	<path class="st0" d="M45.1,174.3C45.1,174.3,45.1,174.3,45.1,174.3C45.1,174.2,45.1,174.3,45.1,174.3z"/>
	<path class="st0" d="M46.5,174.7C46.5,174.7,46.5,174.7,46.5,174.7C46.5,174.7,46.5,174.7,46.5,174.7z"/>
	<path class="st0" d="M44.2,176.2l-0.2-0.1C44,176.2,44.1,176.2,44.2,176.2z"/>
	<path class="st0" d="M45,174C45,174,45.1,174,45,174C45.1,174,45,174,45,174z"/>
	<path class="st0" d="M45.3,192.1C45.3,192.1,45.3,192.2,45.3,192.1C45.3,192.2,45.3,192.2,45.3,192.1z"/>
	<path class="st0" d="M42.9,180.9C42.9,180.9,42.9,180.9,42.9,180.9C42.9,180.9,42.9,180.9,42.9,180.9z"/>
	<path class="st0" d="M43.4,178.1L43.4,178.1C43.4,178.1,43.4,178.1,43.4,178.1L43.4,178.1z"/>
	<path class="st0" d="M43.2,178.9L43.2,178.9C43.2,178.9,43.2,178.9,43.2,178.9z"/>
	<path class="st0" d="M43.4,177.4C43.4,177.4,43.3,177.4,43.4,177.4L43.4,177.4z"/>
	<path class="st0" d="M43.8,176.9c-0.1,0-0.1-0.1-0.2-0.1c-0.2,0.1,0.1,0.2-0.1,0.3l0.1,0c0.1,0.1,0.1,0.3-0.1,0.4l-0.1-0.1
		c0.1,0.1-0.2,0.2-0.1,0.3c0.1,0,0.1,0,0.2,0l0.1,0.3l-0.3-0.1l0.1,0.1c0.1,0-0.1,0.1,0.1,0.2c-0.1,0-0.2-0.1-0.3-0.1
		c0.1,0.1-0.1,0.1,0.1,0.2H43l0.1,0.2c0,0,0,0-0.1,0c0.2,0.1-0.2,0.2,0.2,0.4c0,0,0,0,0,0c0.2,0.1,0,0.2,0,0.3
		c0,0.1,0.2,0.1,0.3,0.1c-0.1,0.3-0.1,0.2,0.2,0.4c-0.3,0.1-0.5-0.2-0.7-0.1c0.1,0.1,0.2,0.2,0.3,0.3c-0.1,0.1-0.2,0.3-0.5,0.4H43
		l0.1,0.2l-0.3-0.1c0.1,0,0.2,0.1,0.3,0.2c0.2,0.2-0.5,0.1-0.2,0.2h-0.1c0.2,0.1,0.1,0.2,0.2,0.3l-0.3-0.1l0.1-0.1
		c-0.3,0,0,0.2,0,0.2c0.1,0.1,0.3,0.1,0.4,0.1c0,0,0.1,0.1,0,0.1c-0.1,0.1-0.3,0-0.4,0c0.3,0.1,0.2,0.1,0.4,0.3c-0.1,0-0.2,0-0.2,0
		c0,0,0.1,0.1,0.2,0.1l-0.1,0.1c-0.2,0.2,0.5,0.2,0.4,0.4c-0.2-0.1,0,0.2-0.1,0.3c0-0.1-0.4,0.1-0.5,0c-0.1,0.2,0.3,0.1,0.4,0.2
		l-0.3,0c0.2,0.1,0.2,0,0.3,0.1c-0.1,0-0.1,0.1-0.2,0c0,0.2,0,0.1,0,0.3l0.3,0c0,0-0.1,0.1-0.1,0.1c0,0,0-0.1,0-0.1
		c-0.3,0.1,0.2,0.1-0.1,0.2c0.1,0,0.2-0.1,0.3,0c-0.2,0-0.2,0.1-0.2,0.1c0.1-0.1,0.1,0.1,0.3,0.1c-0.1,0.1-0.2,0-0.3,0
		c0.3,0,0.1,0.3,0.2,0.3c0,0,0,0,0,0c0.2,0.1,0.2,0.2,0.5,0.3h-0.2c0,0.2,0.4,0,0.4,0.1c-0.3,0,0.1,0.2-0.2,0.2
		c0.2,0,0.2,0.1,0.5,0.1c-0.1,0.1-0.4-0.1-0.4,0.1l0.2,0.1l-0.1,0.1c0.1,0,0.1,0.1,0.2,0c-0.2,0.1-0.3,0.1-0.4,0.2
		c0.1,0.1-0.1,0.2,0.1,0.2l-0.1,0c0.3,0,0.1,0.2,0.5,0.1l-0.2,0.1c0.1,0.1,0.4,0,0.5,0c0,0,0.1,0.1,0.1,0.1
		c-0.2-0.1-0.2,0.1-0.3,0.2c0,0.1,0.1,0.2,0.2,0.2c-0.2,0-0.3,0.1-0.4,0c-0.3,0.2,0.1,0.1,0.1,0.3l-0.1,0c0.1,0.1,0.4,0.1,0.7,0.1
		c-0.2,0.1-0.2,0.1-0.4,0.1c-0.1,0.1,0.1,0.3,0.1,0.4c-0.1,0.1-0.2,0.1-0.3,0c0.2,0.1,0,0.3,0.4,0.3c-0.1,0-0.1,0.1-0.1,0.1
		c0.1,0,0.1,0,0.1,0c0.2,0.1,0.3,0.2,0.2,0.3l-0.1,0c0,0.2,0.6,0.3,0.3,0.6c-0.1,0.1-0.3,0-0.3,0.1c0.1,0,0.4,0,0.3,0.1h-0.2
		l0.2,0.1c0.2,0,0.1-0.2,0.3-0.1c-0.2,0.1,0.2,0.1,0,0.2c0,0-0.2-0.1-0.3-0.1c-0.3,0.3,0.2,0.4-0.1,0.7c0.1,0.2,0.1,0.4,0.3,0.5
		c-0.2-0.1-0.4-0.1-0.5-0.2c-0.1,0.1,0.4,0.3,0.1,0.3c0.3,0.1,0.1,0.4,0.5,0.4c-0.1,0,0,0.1-0.2,0c0.1,0.2-0.4,0.2-0.4,0.2
		c0,0,0.3,0,0.3,0.1c0,0-0.1,0-0.1,0l0.1,0c-0.1,0-0.2-0.1-0.3-0.1c-0.1,0.1,0.2,0.2,0.2,0.4l-0.1,0l0,0.2h0l0.1,0.1h-0.1
		c0,0,0.1,0,0.1,0.1h-0.1c0.2,0,0.3,0.2,0.3,0.2l-0.1,0l0.3,0.2c-0.1,0.1-0.3-0.1-0.2,0.1l-0.3,0c0.1,0.1,0,0.1,0.1,0.2
		c0.1-0.1,0.1-0.1,0.2-0.1c-0.3,0.1,0.1,0.2,0.2,0.3c0-0.1,0-0.1-0.2-0.1c0-0.1,0.1,0,0.1-0.1l-0.1-0.1l0.2,0l-0.1-0.1
		c0.2,0,0-0.1,0.2-0.1c-0.1-0.1,0.1-0.1-0.2-0.2c0.1-0.1,0.2,0.1,0.2,0c-0.2-0.3-0.1-0.7,0-1l0.1,0c-0.1,0-0.2-0.1-0.2-0.1
		c0.2-0.1,0.4-0.2,0.1-0.4c0,0,0.1,0,0.1,0c0-0.1,0.2-0.2,0.2-0.4c-0.3-0.2,0.3-0.3-0.2-0.4l0.1,0.1c-0.1,0.1-0.3-0.1-0.4-0.2
		c0.3,0,0.2,0,0.5,0l-0.1,0.1h0.2c-0.6-0.3,0.3-0.5-0.1-0.7c0,0,0.1,0,0.1,0c0.1-0.1-0.2-0.2-0.3-0.3c0.1,0,0.2,0,0.3,0.1
		c0.1-0.2-0.3-0.5-0.1-0.7c-0.2-0.1-0.2,0.1-0.4,0c0-0.1,0.2-0.1,0.3-0.1c0.3-0.2-0.3-0.5-0.1-0.8c-0.2-0.1-0.3,0-0.4-0.1
		c0.1,0,0.4-0.2,0.4,0l0.1,0c0-0.2-0.1-0.5-0.4-0.5c0.3-0.1,0-0.1,0.2-0.2c0,0,0,0,0,0c-0.2,0,0-0.1-0.1-0.1h0l-0.2-0.1
		c0,0,0.1-0.1,0.1-0.1l-0.2,0.1c0-0.1,0.2-0.1,0.1-0.2l-0.1,0.1c0.1-0.1-0.1-0.1,0.1-0.2c0,0,0,0,0,0c0.2-0.2-0.2-0.2-0.1-0.3
		l-0.3,0.1c-0.1-0.1,0-0.1,0.1-0.1c0-0.1,0.1-0.1,0.1-0.2c-0.1,0-0.1,0-0.2,0l0-0.1H45c-0.5,0,0-0.4-0.5-0.3c0.1-0.1,0.2,0,0.2,0
		c0.2-0.2-0.4-0.3-0.2-0.5c0.2-0.3-0.1-0.5,0-0.8h-0.1l0.1-0.2c-0.2,0-0.1-0.2-0.3-0.2c0.1,0,0.2,0,0.2,0c0-0.1-0.1-0.1,0-0.2l0.1,0
		c0-0.2,0-0.4-0.1-0.5c0-0.1,0.1-0.1,0.2-0.1c0-0.1-0.1-0.2-0.2-0.2c0,0,0.1,0,0.2-0.1l-0.2,0c0,0,0.2,0,0.2,0c-0.2-0.2,0-0.3,0-0.4
		h-0.1c-0.1,0,0.1-0.1,0.2-0.1c0.1-0.2-0.3-0.3-0.2-0.6c0.4,0-0.1-0.3,0.3-0.3c-0.1-0.1,0.1-0.2-0.1-0.3c0,0,0.1,0,0.1,0
		c0.2,0,0.1-0.2,0-0.3l0.1,0c-0.3-0.1-0.1-0.3-0.4-0.4c0.1,0,0.1,0.1,0.2,0.1c0.3,0-0.1-0.1,0-0.2c0.1,0,0.1,0,0.2,0
		c0.3-0.2,0-0.7,0.3-1c0-0.1-0.3-0.1-0.2-0.2c0.1,0,0.2,0.1,0.3,0.1c-0.1-0.1-0.1-0.1-0.1-0.2c0.1,0,0.1,0.1,0.2,0.1
		c0.1,0-0.1-0.3,0.1-0.3c-0.1,0-0.1-0.1-0.2-0.1c-0.2-0.2,0.3-0.2,0.2-0.3c0,0,0-0.1-0.1,0c0-0.1,0.1-0.1,0.2,0
		c-0.1-0.1-0.2-0.1-0.1-0.1l0.1,0.1c0,0-0.1-0.1-0.1-0.1h-0.1c0.1,0-0.1-0.2,0.2-0.1v0l0.2-0.1c-0.1-0.1-0.2-0.2-0.1-0.2
		c0.3,0.1,0.1-0.1,0.2-0.2l0.1,0.1c-0.1-0.1,0-0.3,0-0.3c0-0.1,0.1-0.1,0.2-0.1c0-0.1,0-0.2-0.1-0.3h0.3c-0.3-0.2,0.2-0.1-0.1-0.3
		c0.1,0,0.2,0,0.2,0c-0.1-0.2-0.1-0.2,0-0.3l0,0c0.1-0.1-0.1-0.3,0-0.4l0.3,0.1c0-0.1-0.2-0.2-0.1-0.2c0.1,0,0.1,0,0.1,0.1
		c0-0.1,0.1-0.1,0.2-0.1c-0.1-0.2,0-0.2-0.2-0.4c0.3,0.1,0.1,0.2,0.3,0.2c0.2-0.1,0.1-0.2,0.1-0.4C47,174,47,174,47,174
		c0,0-0.5-0.7-0.8-0.8c-0.2-0.1-0.2-0.2-0.5-0.2c0.1,0.1,0.1,0.3-0.1,0.2l0.2,0.1c0,0.2-0.4-0.2-0.5,0h0.1c0,0,0.1,0.1,0,0.1
		c-0.1,0-0.1-0.1-0.1-0.1l0.2,0.3c-0.1-0.1-0.2-0.1-0.2-0.2c-0.1,0.1,0.4,0.2,0.2,0.3c-0.1,0-0.1-0.1-0.2-0.1c-0.2,0-0.1,0.1,0,0.3
		c-0.2-0.1-0.1-0.1-0.3-0.1c0.1,0,0.2,0.1,0.2,0.2c-0.1-0.1-0.1,0-0.2,0c0.1,0,0.1,0.1,0.2,0.1c0,0-0.1,0-0.1,0.1l0.2,0
		c0.1,0.2-0.2,0.1-0.3,0.1c0,0,0-0.1,0-0.1c-0.1,0-0.3,0.1-0.2,0.2l0,0c0.1,0.3,0.3,0.1,0.4,0.4c-0.1,0.1-0.5-0.3-0.4-0.1
		c0.2,0,0.3,0.3,0.3,0.4l-0.3-0.3c0,0,0,0.1,0,0.1l0.1,0c0.3,0.1-0.1,0.1,0,0.2c-0.3-0.3-0.3-0.2-0.6-0.4c0.2,0.2,0.3,0.3,0.2,0.4
		l-0.3-0.2c-0.1,0.1,0.2,0.5,0.4,0.8c-0.2-0.1-0.3-0.1-0.5-0.2l0,0.2l-0.2-0.1c0.2,0.2,0,0.2,0.4,0.3c0,0-0.1-0.1-0.1-0.1
		c0.1,0.1,0.3,0.2,0.2,0.2c-0.1,0-0.1-0.1-0.2-0.1c0.1,0.1-0.1,0,0,0.1h0.2c0.2,0.1,0,0.1,0,0.2c-0.1-0.1-0.2-0.1-0.3-0.1h0
		c0,0.1,0.1,0.2,0,0.1l-0.2-0.1l0.2,0.1c0,0-0.1,0-0.2-0.1c-0.2,0.1,0.6,0.2,0.2,0.4c-0.1,0-0.2-0.1-0.1-0.1
		c-0.2-0.1-0.3-0.1-0.3-0.1c0,0,0,0,0,0C43.7,176.6,43.6,176.8,43.8,176.9L43.8,176.9z"/>
	<path class="st0" d="M43.7,176.5c0-0.1,0.1-0.1,0-0.2C43.7,176.3,43.6,176.4,43.7,176.5z"/>
	<path class="st0" d="M44.1,186.9C44.1,186.9,44.1,186.9,44.1,186.9L44.1,186.9z"/>
	<path class="st0" d="M44.3,187.4C44.3,187.4,44.4,187.4,44.3,187.4C44.3,187.4,44.3,187.4,44.3,187.4z"/>
	<path class="st0" d="M43,181.8L43,181.8L43,181.8z"/>
	<path class="st0" d="M43.4,185.1c0.1,0,0.2,0,0.2,0C43.6,185.1,43.5,185,43.4,185.1z"/>
	<path class="st0" d="M43.2,184C43.2,184,43.2,184,43.2,184C43.2,184,43.2,184,43.2,184z"/>
	<path class="st0" d="M42.8,181.6c0.1,0.1,0.1,0.1,0.1,0.2C42.9,181.7,43,181.6,42.8,181.6z"/>
	<polygon class="st0" points="44.7,188 44.6,188 44.7,188 	"/>
	<path class="st0" d="M44.6,187.5c0,0-0.1-0.1-0.2-0.1C44.5,187.5,44.5,187.5,44.6,187.5z"/>
	<polygon class="st0" points="44.2,185.6 44,185.7 44.2,185.7 	"/>
</g>
<g>
	<polygon class="st0" points="75.2,181.2 75.4,181.2 75.2,181 	"/>
	<path class="st0" d="M74.9,179.6c-0.2,0-0.5-0.1-0.7,0.1c0.1,0,0.2-0.1,0.3-0.1c-0.1,0.2,0,0.3,0.1,0.3c0,0-0.1-0.1-0.1-0.1
		c0.1,0,0.1-0.1,0.2-0.1c0.1,0.3,0.4,0.2,0.2,0.5h0c0.1,0,0.1,0.1,0.2,0.1c0,0.1-0.1,0.1-0.2,0.1c0.1,0.1,0.3,0.2,0.3,0.5
		c0.4-0.2-0.3-0.4,0-0.7h0C75.1,180.1,75.2,179.7,74.9,179.6L74.9,179.6z"/>
	<path class="st0" d="M75,180.5L75,180.5C75,180.5,75,180.5,75,180.5z"/>
	<path class="st0" d="M69.7,175.2L69.7,175.2C69.6,175.3,69.7,175.3,69.7,175.2z"/>
	<path class="st0" d="M71.1,177.3C71.1,177.3,71.1,177.3,71.1,177.3C71,177.4,71,177.4,71.1,177.3z"/>
	<path class="st0" d="M57.6,176.8L57.6,176.8C57.6,176.9,57.6,176.9,57.6,176.8z"/>
	<path class="st0" d="M55.2,178.7L55.2,178.7L55.2,178.7z"/>
	<path class="st0" d="M57.1,178.8L57.1,178.8C57.1,178.8,57.1,178.8,57.1,178.8z"/>
	<path class="st0" d="M56.5,179.5C56.5,179.5,56.4,179.5,56.5,179.5C56.4,179.6,56.5,179.6,56.5,179.5z"/>
	<path class="st0" d="M55.2,178.7C55.2,178.7,55.2,178.7,55.2,178.7C55.2,178.7,55.2,178.7,55.2,178.7z"/>
	<path class="st0" d="M58.2,178l0.1,0.2C58.3,178.1,58.3,178.1,58.2,178z"/>
	<path class="st0" d="M56.4,179.8C56.4,179.8,56.3,179.8,56.4,179.8C56.3,179.8,56.4,179.8,56.4,179.8z"/>
	<path class="st0" d="M74.7,179.4c0,0,0.1,0.1,0.1,0.1C74.8,179.4,74.8,179.4,74.7,179.4z"/>
	<path class="st0" d="M63.4,176.7C63.4,176.7,63.5,176.8,63.4,176.7C63.5,176.8,63.4,176.7,63.4,176.7z"/>
	<path class="st0" d="M60,177.4L60,177.4C60,177.4,60,177.4,60,177.4L60,177.4L60,177.4z"/>
	<path class="st0" d="M60.8,177.3L60.8,177.3C60.8,177.4,60.8,177.4,60.8,177.3z"/>
	<path class="st0" d="M59.6,177.8C59.6,177.8,59.6,177.8,59.6,177.8L59.6,177.8z"/>
	<path class="st0" d="M59,177.8c0.1,0.1,0.1,0.1,0.1,0.2c0.2,0,0.1-0.2,0.3-0.1l-0.1-0.1c0-0.2,0.2-0.3,0.3-0.1v0.1
		c0-0.2,0.2,0.1,0.2-0.1c-0.1-0.1,0-0.1-0.1-0.2l0.2-0.2l0.1,0.3l0.1-0.1c-0.1-0.1,0.2,0.1,0.1-0.2c0.1,0.1,0,0.2,0,0.3
		c0-0.1,0.1,0,0.1-0.1l0.1,0.2l0.1-0.2c0,0,0,0,0,0.1c0.1-0.2,0.2,0.1,0.3-0.2c0,0,0,0,0,0c0.1-0.2,0.2-0.1,0.2,0
		c0.1,0,0.1-0.2,0.1-0.4c0.3,0.1,0.2,0.1,0.5-0.2c0.2,0.3-0.2,0.5,0,0.7c0-0.2,0.2-0.3,0.4-0.4c0.1,0.1,0.6,0.1,0.9,0.2l-0.1-0.2
		c0.1-0.1,0.2-0.2,0.2-0.3c0,0.1,0,0.2,0,0.4c0-0.1,0.1-0.3,0.1-0.5c0-0.1,0-0.1,0.1-0.1c0.1-0.1,0.4,0.2,0.2,0l0.1,0
		c-0.1-0.1,0-0.2,0.1-0.3l0.1,0.2h-0.1c0.2,0.2,0-0.1,0.1-0.1c0-0.1-0.1-0.3-0.2-0.4c0,0,0-0.1,0.1,0c0.1,0,0.2,0.3,0.2,0.4
		c-0.1-0.3-0.1-0.2,0-0.4c0.1,0.1,0.1,0.2,0.1,0.2c0,0,0-0.1,0-0.2l0.1,0.1c0.2,0.2,0-0.5,0.2-0.5c0,0.1,0.2-0.1,0.3,0.1
		c-0.1,0.1,0,0.4,0,0.6c0.1,0.1,0-0.3,0.2-0.4l0,0.3c0.1-0.1,0-0.2,0.2-0.3c0,0.1,0.1,0.1,0,0.2c0.2,0,0.1,0,0.3,0.1l0-0.3
		c0.1,0,0.1,0.1,0.1,0.2c0,0-0.1,0-0.1,0c0,0.3,0.1-0.1,0.2,0.1c0-0.1,0-0.2,0.1-0.3c0,0.2,0.1,0.2,0.1,0.3c0-0.1,0.2-0.1,0.2-0.3
		c0.1,0.2,0,0.1-0.1,0.3c0.1-0.2,0.3,0,0.4-0.1c0,0,0,0,0,0.1c0.1-0.1,0.3-0.2,0.5-0.4l-0.1,0.2c0.2,0.1,0.1-0.4,0.3-0.4
		c0,0.3,0.2,0,0.2,0.3c0.1-0.1,0.2-0.2,0.2-0.5c0.1,0.1-0.2,0.4,0,0.4l0.1-0.1l0,0.1c0-0.1,0.1-0.1,0.1-0.2c0,0.2,0.1,0.3,0.1,0.4
		c0.1-0.1,0.2,0.1,0.2,0v0.1c0.1-0.3,0.2-0.1,0.3-0.4l0,0.2c0.1,0,0.1-0.4,0.2-0.4c0.1,0,0.1,0,0.2,0c-0.2,0.2,0,0.3,0,0.4
		c0.1,0,0.2,0,0.3-0.1c-0.1,0.1-0.1,0.3-0.2,0.3c0,0.3,0.2,0,0.3,0.1l0,0.1c0.2,0,0.3-0.3,0.5-0.5c0,0.2-0.1,0.2-0.2,0.4
		c0.1,0.1,0.3,0.1,0.4,0.2c0,0.1-0.1,0.2-0.2,0.2c0.2-0.1,0.3,0.2,0.5-0.1c-0.1,0.1,0,0.1,0,0.2c0-0.1,0.1-0.1,0.1-0.1
		c0.2-0.1,0.4,0,0.4,0.1l-0.1,0.1c0.1,0.2,0.6-0.1,0.7,0.3c0,0.1-0.2,0.1-0.1,0.2c0.1-0.1,0.3-0.2,0.3-0.1l-0.2,0.1l0.2-0.1
		c0.1-0.2-0.1-0.2,0.1-0.3c0,0.2,0.2-0.1,0.2,0.2c0,0-0.2,0.1-0.3,0.1c0.1,0.4,0.5,0.1,0.5,0.6c0.2,0,0.4,0.1,0.6,0
		c-0.1,0.2-0.3,0.3-0.4,0.4c0.1,0.1,0.4-0.2,0.3,0.1c0.2-0.2,0.4,0.1,0.7-0.2c-0.1,0.1,0.1,0.1-0.1,0.2c0.2,0,0,0.4,0,0.5
		c0,0,0.1-0.2,0.2-0.2c0,0,0,0.1,0,0.1l0.1-0.1c0,0.1-0.2,0.1-0.2,0.2c0.1,0.2,0.3,0,0.5,0l-0.1,0l0.1,0.1h0l0.2,0l-0.1,0.1
		c0,0,0.1-0.1,0.1,0l-0.1,0.1c0.1-0.1,0.4-0.1,0.4-0.1l0,0.1l0.3-0.1c0,0.2-0.3,0.2-0.1,0.2l-0.2,0.2c0.2,0,0.1,0.1,0.3,0.1
		c0-0.1,0-0.2,0.1-0.2c-0.1,0.3,0.2,0.1,0.4,0.1c-0.1-0.1-0.1-0.1-0.2,0c-0.1-0.1,0.1-0.1,0-0.2l-0.2,0.1l0.1-0.2l-0.2,0
		c0.1-0.2-0.1-0.1,0.1-0.2c-0.1,0-0.1-0.1-0.3,0c0-0.1,0.2-0.1,0.1-0.1c-0.4-0.1-0.8-0.4-1-0.7l0.1-0.1c-0.1,0.1-0.2,0.1-0.2,0.1
		c0-0.2,0-0.5-0.3-0.3c0,0,0-0.1,0.1-0.1c-0.1-0.1-0.2-0.4-0.3-0.5c-0.3,0.2-0.1-0.4-0.4-0.1l0.1-0.1c0,0.1-0.3,0.2-0.4,0.2
		c0.2-0.3,0.2-0.2,0.3-0.4v0.1L72,177c-0.6,0.3-0.1-0.5-0.6-0.3c0,0,0,0,0.1-0.1c0-0.2-0.2,0-0.4,0c0.1-0.1,0.2-0.1,0.3-0.1
		c0-0.2-0.6-0.2-0.6-0.5c-0.2,0.1-0.1,0.2-0.3,0.2c0-0.1,0-0.2,0.1-0.2c0-0.4-0.7-0.2-0.8-0.6c-0.2,0.1-0.2,0.2-0.5,0.2
		c0.1-0.1,0.1-0.4,0.3-0.4l0.1-0.1c-0.2-0.1-0.6-0.3-0.8,0c0.1-0.3,0-0.1-0.1-0.2c0,0,0,0,0,0.1c-0.2,0.2-0.1-0.1-0.2,0l0,0
		l-0.2,0.1c0,0-0.1-0.1,0-0.2l0,0.2c-0.1,0,0-0.2-0.1-0.2v0.1c-0.1-0.1-0.2,0.1-0.2-0.1c0,0,0,0,0,0c-0.1-0.3-0.3,0.1-0.5-0.1l0,0.3
		c-0.2,0.1-0.1-0.1-0.1-0.2c-0.1,0-0.1-0.1-0.2-0.1c-0.1,0.1,0,0.1-0.1,0.2l-0.1-0.1l0.1-0.2c-0.2,0.4-0.5,0-0.6,0.4
		c-0.1-0.1,0-0.2,0-0.2c-0.2-0.2-0.4,0.3-0.5,0.1c-0.2-0.2-0.6-0.1-0.9-0.2v0.1l-0.2-0.1c-0.1,0.2-0.2,0.1-0.4,0.3
		c0-0.1,0-0.2,0-0.2c-0.1,0-0.2,0.1-0.3,0l0-0.1c-0.3,0-0.7,0-0.8,0.2c-0.1,0.1-0.1-0.1-0.2-0.2c-0.2,0.1-0.2,0.2-0.3,0.4
		c-0.1,0-0.1,0-0.2-0.1l0,0.2c-0.1,0-0.1-0.1-0.2-0.1c-0.1,0.4-0.4,0.4-0.5,0.5l0.1,0.1c0,0.1-0.2,0.1-0.2,0c-0.1,0-0.1,0-0.1,0
		c0,0,0.2,0.3,0,0.3c0-0.2,0-0.1-0.1-0.1c0,0-0.1,0-0.1-0.2c-0.1,0.1-0.2-0.1-0.3,0.2c0,0,0-0.1,0-0.1c0-0.1-0.2-0.1-0.4,0v-0.1
		c-0.1,0.3-0.4,0.2-0.5,0.4c0-0.1,0-0.1,0.1-0.2c-0.1-0.3-0.2,0.1-0.3,0.1c0-0.1,0-0.1,0-0.2c-0.4-0.3-1,0.3-1.5,0.3
		c-0.1,0,0.1,0.2,0,0.3c-0.1-0.1,0-0.3-0.1-0.3c0,0.2-0.1,0.2-0.2,0.2c0-0.1-0.1-0.1,0-0.2c-0.1-0.1-0.2,0.3-0.4,0.2
		c0,0.1,0,0.1,0,0.2c-0.1,0.3-0.5,0-0.5,0.1c0,0,0,0.1,0,0.1c-0.1,0-0.2,0.1-0.2-0.1c0,0.1,0,0.2,0,0.2l-0.1-0.1c0,0,0,0.1,0,0.2
		l0.1,0.1c-0.1-0.1-0.1,0.3-0.2,0l0,0l-0.2,0c0,0.1,0,0.3,0,0.3c-0.2-0.2-0.2,0.1-0.4,0.1l-0.1-0.1c0,0.2-0.2,0.3-0.1,0.3
		c-0.1,0.1-0.2,0.1-0.2,0c0,0.1-0.1,0.2,0,0.4l-0.3-0.1c0.2,0.3-0.3,0.1,0,0.4c-0.1,0-0.1-0.1-0.2-0.1c0,0.2,0,0.3-0.2,0.3l0,0
		c-0.1,0.1-0.1,0.3-0.2,0.4l-0.2-0.2c0,0.1,0.1,0.3,0,0.3c0,0,0-0.1,0-0.1c0,0.1-0.1,0.1-0.3,0.1c0,0.1,0,0.2-0.1,0.2
		c0,0.1-0.1,0.2,0,0.4c-0.3,0,0-0.2-0.3-0.3c-0.4,0.1-0.3,0.6-0.1,0.9c-0.1,0-0.1,0-0.2,0c0,0,0.2,0.2,0.4,0.3
		c0.2,0.1,0.5,0.1,0.6,0.1c0.2,0,0.3,0.1,0.5-0.1c-0.1-0.1-0.3-0.1,0-0.1l-0.2,0c-0.1-0.2,0.4,0,0.4,0H56c0,0-0.2-0.1-0.1-0.1
		c0.1,0,0.1,0.1,0.1,0.1c-0.1-0.1-0.2-0.1-0.2-0.2c0.1,0.1,0.2,0.1,0.2,0.2c0-0.1-0.3-0.2-0.2-0.2c0,0,0,0,0,0
		c0.1,0,0.1,0.1,0.1,0.1l0,0h0c0.2,0.1,0,0,0-0.2c0.1,0.1,0,0.2,0.2,0.2c-0.1-0.1-0.2-0.2-0.2-0.2c0.1,0.2,0.1,0,0.2,0
		c-0.1,0-0.1-0.1-0.1-0.2s0.1,0,0.1-0.1l-0.2-0.1c0-0.2,0.2-0.1,0.3-0.1c0,0,0,0.1,0,0.1c0.1,0,0.3,0,0.3-0.2v0
		c0-0.3-0.3-0.2-0.2-0.5c0.1,0,0.4,0.5,0.4,0.2c-0.2-0.1-0.2-0.4-0.1-0.5l0.2,0.4c0,0,0-0.2,0.1-0.1l-0.1-0.1
		c-0.2-0.2,0.1-0.1,0.1-0.3c0.2,0.4,0.2,0.3,0.4,0.7c-0.1-0.2-0.2-0.4,0-0.5l0.1,0.3c0.2-0.1,0-0.6,0-0.9c0.1,0.2,0.2,0.2,0.3,0.4
		l0.1-0.1l0.1,0.2c-0.1-0.3,0.1-0.2-0.2-0.4c0,0.1,0,0.1,0,0.1c-0.1-0.1-0.2-0.3-0.1-0.3c0.1,0,0,0.1,0.1,0.2c0-0.1,0.1,0,0.1-0.1
		l-0.1-0.1c-0.1-0.2,0.1-0.1,0.1-0.2c0,0.1,0.1,0.2,0.2,0.3l0,0c0,0,0-0.2,0.1-0.1l0.1,0.3l-0.1-0.2c0,0,0.1,0.1,0.1,0.2
		c0.3,0-0.3-0.5,0-0.4c0.1,0.1,0.1,0.2,0,0.1c0.1,0.1,0.2,0.2,0.2,0.2c0,0,0,0,0,0C58.9,178,59,178,59,177.8L59,177.8z"/>
	<path class="st0" d="M58.7,178.1c-0.1,0-0.1,0.1-0.1,0.1C58.7,178.3,58.8,178.3,58.7,178.1z"/>
	<path class="st0" d="M69.1,176.6C69.1,176.6,69.1,176.6,69.1,176.6L69.1,176.6L69.1,176.6z"/>
	<path class="st0" d="M69.7,176.8C69.7,176.8,69.7,176.8,69.7,176.8C69.6,176.8,69.6,176.8,69.7,176.8z"/>
	<path class="st0" d="M63.9,176.3L63.9,176.3L63.9,176.3z"/>
	<path class="st0" d="M67.2,176.4c0.1-0.1,0.1-0.2,0.1-0.2C67.2,176.1,67.2,176.2,67.2,176.4z"/>
	<path class="st0" d="M65.9,176.2L65.9,176.2C65.9,176.3,65.9,176.3,65.9,176.2z"/>
	<path class="st0" d="M63.8,176.5c0-0.1,0-0.1,0-0.2C63.9,176.4,63.8,176.3,63.8,176.5z"/>
	<polygon class="st0" points="70.4,177.1 70.3,177.1 70.4,177.1 	"/>
	<path class="st0" d="M69.9,176.8c0,0-0.1,0-0.2,0.1C69.8,176.8,69.9,176.8,69.9,176.8z"/>
	<polygon class="st0" points="68,175.8 67.9,176 68,175.9 	"/>
</g>
<g>
	<path class="st0" d="M46,173l0.1-0.1c-0.1,0-0.1,0.1-0.2,0.1L46,173L46,173z"/>
	<path class="st0" d="M44.7,172.6c-0.1,0.2-0.3,0.3-0.2,0.6c0-0.1,0.1-0.2,0.1-0.3c0.1,0.2,0.2,0.2,0.3,0.1c0,0-0.1,0-0.1,0
		c0,0,0-0.2,0-0.2c0.2,0.1,0.3-0.2,0.5,0.1l0,0c0.1,0,0.1-0.1,0.2-0.1c0,0.1,0,0.1,0,0.2c0.2-0.1,0.3-0.1,0.5-0.1
		c0-0.2-0.1-0.2-0.3-0.2c-0.1,0-0.3,0.1-0.3-0.1l0,0C45.1,172.7,44.9,172.4,44.7,172.6L44.7,172.6z"/>
	<path class="st0" d="M45.4,172.9L45.4,172.9C45.4,172.9,45.4,173,45.4,172.9z"/>
	<path class="st0" d="M45.5,170.4L45.5,170.4C45.4,170.4,45.5,170.4,45.5,170.4z"/>
	<path class="st0" d="M43.7,171.2L43.7,171.2C43.6,171.2,43.6,171.2,43.7,171.2z"/>
	<path class="st0" d="M54.8,166.2l0.1,0C54.9,166.1,54.8,166.2,54.8,166.2z"/>
	<path class="st0" d="M53.5,163.2L53.5,163.2L53.5,163.2z"/>
	<path class="st0" d="M53.1,165L53.1,165C53,165,53,165,53.1,165z"/>
	<path class="st0" d="M52.5,164.4C52.5,164.4,52.6,164.3,52.5,164.4C52.5,164.3,52.5,164.4,52.5,164.4z"/>
	<path class="st0" d="M53.5,163.2C53.5,163.2,53.5,163.2,53.5,163.2C53.5,163.2,53.5,163.2,53.5,163.2z"/>
	<path class="st0" d="M53.3,165.7l-0.3,0C53.1,165.7,53.2,165.7,53.3,165.7z"/>
	<path class="st0" d="M52.3,164.4C52.3,164.4,52.4,164.3,52.3,164.4C52.3,164.3,52.3,164.3,52.3,164.4z"/>
	<path class="st0" d="M44.5,172.6C44.5,172.6,44.6,172.6,44.5,172.6C44.6,172.5,44.5,172.6,44.5,172.6z"/>
	<path class="st0" d="M49.6,166.2C49.6,166.2,49.6,166.2,49.6,166.2C49.6,166.2,49.6,166.2,49.6,166.2z"/>
	<path class="st0" d="M52.4,166L52.4,166C52.4,166,52.4,165.9,52.4,166L52.4,166L52.4,166z"/>
	<path class="st0" d="M51.7,166L51.7,166C51.7,166,51.7,166,51.7,166z"/>
	<path class="st0" d="M52.7,165.7C52.7,165.7,52.7,165.6,52.7,165.7L52.7,165.7z"/>
	<path class="st0" d="M52.9,165.8c-0.1-0.1-0.1-0.1-0.2-0.2c-0.1-0.1,0.1,0.1,0,0c0,0,0,0.1,0.1,0.1c0.1,0.1,0,0.2-0.1,0l0-0.1
		c0.1,0.2-0.1-0.1-0.1,0c0,0.1,0,0.1,0.1,0.2c-0.1,0.1-0.1,0.1-0.2,0.2l0-0.3l-0.1,0.1c0,0.1-0.1-0.1-0.1,0.2c-0.1-0.1,0-0.2,0-0.3
		c0,0.1-0.1,0-0.1,0.1l-0.1-0.2l-0.2,0.2c0,0,0,0,0-0.1c-0.1,0.2-0.2-0.1-0.3,0.2c0,0,0,0,0,0c0,0.2-0.2,0.1-0.3,0
		c-0.1,0.1,0,0.2,0,0.4c-0.3-0.1-0.2,0-0.4,0.3c-0.2-0.3,0.1-0.5-0.1-0.7c0,0.2-0.1,0.3-0.2,0.4c-0.1-0.1-0.4-0.1-0.5-0.3l0,0.2
		l-0.2,0.1l0-0.3c0,0.1-0.1,0.2-0.1,0.3c-0.1,0.2-0.2-0.4-0.3-0.1l0-0.1c0,0.2-0.1,0.1-0.3,0.2l0-0.3l0.1,0
		c-0.1-0.2-0.1,0.1-0.2,0.1c-0.1,0.1,0,0.3,0,0.4c0,0-0.1,0.1-0.1,0c-0.1-0.1-0.1-0.3-0.1-0.4c0,0.3,0,0.3-0.1,0.4
		c0-0.1,0-0.2,0-0.2c0,0,0,0.1,0,0.2l-0.1-0.1c-0.2-0.1,0,0.5-0.2,0.5c0-0.2-0.2,0.1-0.3,0c0-0.1-0.2-0.4-0.2-0.5
		c-0.2,0,0.1,0.3,0,0.4l-0.1-0.3c-0.1,0.2,0,0.2,0,0.3c0-0.1-0.1-0.1-0.1-0.2c-0.2,0.1-0.1,0.1-0.3,0.1l0.1,0.3
		c0,0.1-0.1-0.1-0.1-0.1c0,0,0,0,0-0.1c-0.2-0.2,0,0.2-0.2,0c0.1,0.1,0.1,0.2,0.1,0.2c-0.1-0.2-0.2-0.1-0.2-0.2
		c0.1,0.1-0.1,0.1,0,0.3c-0.1-0.1,0-0.1-0.1-0.2c0.1,0.2-0.2,0.2-0.2,0.3c0,0,0,0,0,0c0,0.2-0.1,0.3-0.1,0.6l0-0.2
		c-0.2,0,0.1,0.4,0,0.4c-0.1-0.2-0.2,0.1-0.3-0.1c0,0.2,0,0.3,0.1,0.5c-0.1-0.1-0.1-0.4-0.2-0.4v0.2l-0.1-0.1c0.1,0.1,0,0.1,0,0.2
		c-0.1-0.1-0.2-0.2-0.3-0.3c0,0.1-0.2,0-0.2,0.2l-0.1-0.1c0.1,0.3-0.1,0.2,0,0.5l-0.1-0.1c-0.1,0.1,0.2,0.3,0.2,0.4
		c0,0,0,0.1-0.1,0.1c0-0.2-0.2-0.1-0.3-0.2c0,0-0.2,0.2-0.1,0.3c-0.1-0.2-0.2-0.2-0.1-0.3c-0.3-0.2-0.1,0.2-0.2,0.2l-0.1-0.1
		c-0.1,0.2,0.1,0.4,0.2,0.6c-0.1-0.1-0.2-0.2-0.2-0.3c-0.2,0-0.2,0.2-0.3,0.3c-0.1-0.1-0.2-0.1-0.2-0.2c0,0.2-0.3,0.2-0.1,0.5
		c-0.1-0.1-0.1,0-0.2,0c0,0.1,0.1,0.1,0.1,0.1c0,0.2,0,0.4-0.2,0.4l0-0.1c-0.2,0.1,0.2,0.6-0.2,0.6c-0.1,0-0.2-0.2-0.2-0.1
		c0.1,0.1,0.3,0.3,0.1,0.3l-0.2-0.1l0.1,0.2c0.2,0.1,0.2-0.1,0.3,0.1c-0.2,0,0.1,0.2-0.2,0.1c0,0-0.1-0.2-0.2-0.2
		c-0.4,0.1-0.1,0.4-0.4,0.5c0.1,0.2,0.1,0.4,0.2,0.4c-0.2,0-0.4-0.1-0.6-0.2c-0.1,0.1,0.4,0.2,0.1,0.3c0.3,0.1,0.2,0.3,0.6,0.1
		c-0.1,0,0,0.1-0.2,0.1c0.2,0.1-0.2,0.3-0.2,0.4c0,0,0.2-0.2,0.3-0.1c0,0,0,0-0.1,0.1l0.1,0c-0.1,0.1-0.2,0.1-0.3,0.1
		c0,0.2,0.3,0.1,0.4,0.2l-0.1,0l0.1,0.1h0l0.1,0l-0.2-0.1l0-0.1l0,0.1c0,0,0-0.1,0.1-0.1l0,0.1c0-0.2,0.1-0.4,0.2-0.4l0,0.1l0.1-0.3
		c0.1,0.1,0,0.3,0.1,0.2l0,0.3c0.1-0.1,0.2,0,0.2-0.1c-0.1-0.1-0.1-0.1-0.1-0.2c0.2,0.3,0.2-0.1,0.3-0.3c-0.1,0-0.1,0-0.1,0.2
		c-0.1,0,0-0.1-0.1-0.1l0,0.2l-0.1-0.2l-0.1,0.2c0-0.2-0.1,0-0.1-0.2c-0.1,0.1-0.2,0-0.2,0.2c-0.1-0.1,0-0.2,0-0.2
		c-0.1,0.1-0.2,0.1-0.3,0.2l0.7,0.3c-0.2-0.2-0.3-0.4-0.3-0.6l0.1,0c-0.1,0-0.2,0-0.2,0.1c0.1-0.1,0.3-0.2,0-0.2c0,0,0.1,0,0.1,0
		c0-0.1,0.2-0.1,0.2-0.1c-0.3-0.2,0.2,0-0.1-0.3l0.1,0.1c-0.1,0-0.2-0.2-0.3-0.3c0.3,0.1,0.2,0.1,0.4,0.3l-0.1,0l0.2,0.1
		c-0.4-0.5,0.5-0.1,0.2-0.5c0,0,0,0.1,0.1,0.1c0.2,0,0-0.2-0.1-0.3c0.1,0.1,0.1,0.2,0.2,0.2c0.2-0.1,0.1-0.5,0.3-0.5
		c-0.1-0.2-0.2-0.1-0.2-0.3c0.1,0,0.2,0.1,0.2,0.2c0.3,0.1,0.2-0.5,0.5-0.5c0-0.2-0.2-0.2-0.1-0.4c0,0.1,0.3,0.3,0.2,0.4l0.1,0.1
		c0.1-0.1,0.3-0.2,0.2-0.6c0.2,0.2,0.1,0,0.2,0.1c0,0,0,0,0,0c-0.1-0.2,0.1-0.1,0.1-0.1l0,0.1l0-0.2c0,0,0.1,0,0.2,0.1l-0.1-0.1
		c0-0.1,0.2,0.2,0.2,0.1l-0.1-0.1c0.1,0,0-0.2,0.2,0c0,0,0,0,0,0c0.2,0.2,0.1-0.2,0.3-0.2l-0.2-0.2c0-0.1,0.1,0,0.1,0.1
		c0.1,0,0.1,0,0.2,0c0-0.1,0-0.1-0.1-0.2h0.1l0.1,0.2c-0.2-0.4,0.3-0.2,0.2-0.6c0.1,0,0.1,0.2,0.1,0.2c0.2,0.1,0.2-0.4,0.4-0.3
		c0.3,0.1,0.4-0.2,0.7-0.2l0-0.1h0.2c0-0.2,0.1-0.2,0.1-0.4c0,0.1,0.1,0.1,0.1,0.2c0.1-0.1,0.1-0.2,0.2-0.1v0.1
		c0.2,0,0.4-0.1,0.4-0.3c0,0,0.1,0.1,0.1,0.2c0.1,0,0.1-0.1,0.2-0.3c0,0,0.1,0.1,0.1,0.1l0-0.2c0,0,0.1,0.2,0.1,0.2
		c0.1-0.3,0.3-0.1,0.4-0.1l0-0.1c0-0.1,0.1,0,0.1,0.1c0.2,0.1,0.2-0.4,0.5-0.4c0.1,0.4,0.2-0.1,0.3,0.3c0.1-0.1,0.2,0,0.2-0.2
		c0,0,0,0.1,0,0.1c0,0.1,0.2,0,0.3-0.1v0.1c0-0.3,0.3-0.2,0.3-0.5c0,0.1,0,0.1,0,0.2c0.1,0.2,0.1-0.1,0.2-0.1c0,0.1,0,0.1,0,0.2
		c0.1,0.1,0.4,0.1,0.6,0c0.2-0.1,0.4-0.2,0.8-0.2c0.2-0.1-0.1-0.2,0-0.3c0.1,0.1,0,0.3,0.2,0.3c0-0.2,0.1-0.2,0.2-0.2
		c0,0.1,0.1,0.1,0,0.2c0.2,0.1,0.2-0.3,0.5-0.3c-0.1-0.1-0.1-0.1-0.1-0.1c0-0.3,0.6-0.2,0.5-0.3c0,0,0-0.1,0,0
		c0.1-0.1,0.2-0.1,0.3-0.1c0-0.1-0.1-0.1-0.1-0.2l0.1,0.1c0,0-0.1-0.1-0.1-0.1l-0.1,0c0.2,0,0-0.2,0.3-0.2v0l0.2-0.1l-0.1-0.1
		c-0.2-0.1-0.3-0.1-0.3-0.2c0.4,0-0.2-0.3-0.2-0.4l0.1,0c-0.3-0.1-0.3-0.4-0.4-0.3c-0.1-0.1,0-0.2,0.1-0.2c-0.1,0-0.1-0.1-0.3-0.1
		l0.2-0.2c-0.4,0.1,0-0.3-0.4-0.1c0-0.1,0.1-0.1,0.1-0.2c-0.2,0-0.2-0.1-0.3-0.2l0,0c0-0.1-0.3-0.1-0.4-0.2l0.2-0.2
		c-0.1-0.1-0.3,0.1-0.3,0c0-0.1,0,0,0.1,0c-0.1,0-0.1-0.2-0.1-0.3c-0.3,0.1-0.3-0.1-0.5,0.1c0.1-0.3,0.2,0,0.3-0.3
		c-0.1-0.2-0.4-0.2-0.6-0.2c0-0.1,0-0.1,0.1-0.1c0,0-0.7,0.5-0.7,0.9c-0.1,0.2-0.2,0.3-0.1,0.5c0.1-0.1,0.2-0.2,0.2,0l0.1-0.2
		c0.2,0-0.2,0.4,0,0.5V164c0,0,0.1-0.1,0.1,0c0,0.1-0.1,0.1-0.1,0.1c0.1-0.1,0.2-0.1,0.3-0.2c-0.1,0.1-0.1,0.1-0.2,0.2
		c0.1,0.1,0.2-0.3,0.3-0.2c0,0.1-0.1,0.1-0.2,0.1c-0.1,0.2,0.1,0.1,0.2,0.1c-0.1,0.1-0.2,0.1-0.2,0.2c0.1-0.1,0.2-0.2,0.2-0.2
		c-0.2,0.1,0,0.1-0.1,0.2c0-0.1,0.1-0.1,0.2-0.1c0,0,0,0.1,0,0.1l0.1-0.2c0.2,0,0,0.2,0,0.3c0,0-0.1,0-0.1,0c0,0.1-0.1,0.2,0.1,0.2
		h0c0.2,0.1,0.2-0.2,0.5-0.1c0,0.1-0.6,0.3-0.3,0.3c0.1-0.1,0.4-0.1,0.5,0l-0.4,0.1c0,0,0.1,0.1,0.1,0.1l0.1,0
		c0.3-0.1,0,0.1,0.2,0.1c-0.4,0.1-0.4,0.1-0.8,0.2c0.2,0,0.5-0.1,0.5,0.1l-0.3,0.1c0,0,0,0.1,0.1,0.1c0,0,0.1,0,0.2,0
		c0.2,0,0.4,0,0.5,0c-0.3,0-0.4,0.1-0.6,0.1l0.1,0h-0.3c0.3,0,0.1,0,0.5,0c-0.1,0-0.1,0-0.1,0c0.1,0,0.4,0,0.4,0.1
		c-0.1,0-0.2,0-0.3,0c0.1,0,0,0,0,0c0,0,0,0,0,0h0.1h0.1c0,0,0.1,0,0.1,0c0.1,0,0,0,0.1,0.1c-0.2-0.1-0.3-0.1-0.4-0.1h0
		c0,0,0.2,0.1,0,0.1l-0.4-0.1c0.1,0,0.2,0.1,0.3,0.1c0,0-0.2,0-0.2-0.1c-0.2,0,0.8,0.2,0.3,0.2c-0.1-0.1-0.2-0.1-0.1-0.1
		c-0.2-0.1-0.3-0.1-0.4-0.1c0,0,0,0,0,0c0,0,0,0,0.1,0.2L52.9,165.8z"/>
	<path class="st0" d="M52.8,165.7C52.8,165.7,52.8,165.7,52.8,165.7C52.7,165.6,52.6,165.6,52.8,165.7z"/>
	<path class="st0" d="M44.4,169.4C44.4,169.4,44.4,169.4,44.4,169.4L44.4,169.4z"/>
	<path class="st0" d="M44,169.9C44,169.9,44.1,169.9,44,169.9C44.1,169.9,44,169.9,44,169.9z"/>
	<path class="st0" d="M48.8,166.5L48.8,166.5L48.8,166.5z"/>
	<path class="st0" d="M45.8,167.9c0,0.1,0,0.2,0.1,0.2C45.9,168.1,45.9,168.1,45.8,167.9z"/>
	<path class="st0" d="M46.8,167.4C46.8,167.4,46.8,167.4,46.8,167.4C46.8,167.4,46.8,167.4,46.8,167.4z"/>
	<path class="st0" d="M48.9,166.3c0,0.1-0.1,0.1-0.1,0.2C48.8,166.5,49,166.5,48.9,166.3z"/>
	<polygon class="st0" points="43.8,170.6 43.8,170.5 43.8,170.6 	"/>
	<path class="st0" d="M44.1,170.2c0,0,0-0.1,0-0.1C44.1,170.1,44.1,170.1,44.1,170.2z"/>
	<polygon class="st0" points="45.6,168.9 45.5,168.8 45.6,168.9 	"/>
</g>
<g>
	<polygon class="st0" points="52.9,163.8 53,163.9 52.9,163.7 	"/>
	<path class="st0" d="M53.4,163.6c0-0.2,0-0.3-0.2-0.5l0.1,0.3c-0.1-0.2-0.2-0.1-0.2-0.1l0,0c0,0,0.1,0.1,0.1,0.2
		c-0.1-0.1,0,0.2-0.2,0.1v0l0,0.2c0,0-0.1-0.1-0.1-0.1c0,0.1,0.1,0.2,0,0.3c0.3,0.3,0-0.4,0.2,0v0C53.2,163.6,53.4,163.8,53.4,163.6
		L53.4,163.6z"/>
	<path class="st0" d="M53,163.5L53,163.5C53,163.5,53,163.5,53,163.5z"/>
	<path class="st0" d="M55.8,163.1L55.8,163.1C55.8,163,55.8,163.1,55.8,163.1z"/>
	<path class="st0" d="M54.8,162.4L54.8,162.4C54.8,162.3,54.8,162.4,54.8,162.4z"/>
	<path class="st0" d="M60.4,164.1v0.1C60.4,164.1,60.4,164.1,60.4,164.1z"/>
	<path class="st0" d="M62.2,164.1L62.2,164.1L62.2,164.1z"/>
	<path class="st0" d="M61.3,163L61.3,163C61.3,162.9,61.3,163,61.3,163z"/>
	<path class="st0" d="M61.5,162.8C61.5,162.8,61.6,162.9,61.5,162.8C61.5,162.8,61.5,162.8,61.5,162.8z"/>
	<path class="st0" d="M62.2,164.1C62.2,164.1,62.2,164.1,62.2,164.1C62.2,164.1,62.2,164.1,62.2,164.1z"/>
	<path class="st0" d="M60.9,162.8l0-0.2C60.9,162.7,60.9,162.7,60.9,162.8z"/>
	<path class="st0" d="M61.5,162.6C61.5,162.6,61.6,162.7,61.5,162.6C61.6,162.7,61.5,162.6,61.5,162.6z"/>
	<path class="st0" d="M53.5,163.6C53.5,163.6,53.4,163.6,53.5,163.6C53.5,163.6,53.5,163.6,53.5,163.6z"/>
	<path class="st0" d="M58.8,161.8C58.8,161.8,58.8,161.7,58.8,161.8C58.8,161.7,58.8,161.7,58.8,161.8z"/>
	<path class="st0" d="M60.1,162.3L60.1,162.3C60.1,162.3,60.1,162.3,60.1,162.3L60.1,162.3L60.1,162.3z"/>
	<path class="st0" d="M59.7,162.2L59.7,162.2C59.7,162.2,59.7,162.2,59.7,162.2z"/>
	<path class="st0" d="M60.5,162.2C60.5,162.2,60.5,162.2,60.5,162.2L60.5,162.2z"/>
	<path class="st0" d="M60.6,162.6c0-0.1,0.1-0.1,0.1-0.2c0-0.1-0.1,0.1-0.1-0.1v0.1c-0.1,0.1-0.2,0.1-0.1-0.1l0-0.1
		c-0.1,0.1,0-0.2-0.1-0.1c0,0.1-0.1,0.1-0.1,0.2l-0.2,0.1l0.1-0.3l-0.1,0.1c0,0.1,0-0.1-0.1,0.1c0-0.1,0.1-0.2,0.2-0.3
		c-0.1,0.1,0-0.1-0.1,0.1l0.1-0.2l-0.2,0.1c0,0,0,0,0-0.1c-0.1,0.2,0-0.2-0.2,0.2c0,0,0,0,0,0c-0.1,0.2-0.1,0-0.1,0
		c-0.1,0-0.1,0.2-0.1,0.3c-0.1-0.1-0.1-0.1-0.3,0.2c0-0.3,0.3-0.4,0.2-0.7c-0.1,0.1-0.2,0.2-0.2,0.3c0-0.1-0.1-0.2-0.1-0.5l-0.1,0.2
		l-0.1,0.1l0.1-0.3c0,0.1-0.1,0.2-0.2,0.3c-0.1,0.1,0.1-0.4-0.1-0.2v-0.1c-0.1,0.1-0.1,0.1-0.2,0.1l0.1-0.2l0,0.1c0-0.3-0.1,0-0.1,0
		c-0.1,0.1-0.1,0.3-0.2,0.4c0,0-0.1,0.1,0,0c0-0.1,0.1-0.3,0.1-0.4c-0.1,0.3-0.1,0.2-0.2,0.3c0-0.1,0.1-0.2,0.1-0.2
		c0,0,0,0.1-0.1,0.2v-0.2c0-0.2-0.2,0.5-0.3,0.4c0.1-0.1-0.1,0-0.1-0.2c0.1,0,0.1-0.4,0.1-0.5c-0.1-0.1-0.1,0.3-0.2,0.4l0.1-0.3
		c-0.1,0.1,0,0.2-0.1,0.3c0-0.1,0-0.1,0-0.2c-0.1-0.1-0.1,0-0.1-0.1l-0.1,0.3c0,0,0-0.1,0-0.2c0,0,0,0,0,0c0-0.3-0.1,0.1-0.1-0.1
		c0,0.1,0,0.2-0.1,0.3c0-0.2,0-0.2,0-0.3c0,0.1-0.1,0.1-0.1,0.3c0-0.1,0-0.1,0-0.3c-0.1,0.2-0.1,0-0.2,0.1c0,0,0,0,0-0.1
		c-0.1,0.1-0.1,0.2-0.2,0.4l0-0.2c-0.1-0.1-0.1,0.4-0.1,0.4c0-0.3-0.1,0-0.1-0.3c0,0.1-0.1,0.2-0.1,0.4c0-0.1,0.1-0.4,0.1-0.4
		l-0.1,0.1v-0.1c0,0.1-0.1,0.1-0.1,0.2c0-0.2,0-0.3,0-0.4c0,0.1-0.1-0.1-0.1,0v-0.1c0,0.3-0.1,0.1-0.1,0.4l0-0.2
		c-0.1,0,0,0.4-0.1,0.4c0,0,0,0.1-0.1,0c0.1-0.2,0-0.2-0.1-0.4c0,0-0.1,0-0.1,0.2c0-0.2,0-0.3,0.1-0.3c0-0.3-0.1,0.1-0.2,0v-0.1
		c-0.1,0.1-0.1,0.4-0.1,0.6c0-0.2,0-0.2,0-0.4c-0.1-0.1-0.2,0-0.2,0c0-0.1,0-0.2,0-0.3c-0.1,0.1-0.2,0-0.2,0.3c0-0.1,0-0.1-0.1-0.1
		c0,0.1,0,0.1,0,0.1c0,0.1-0.1,0.3-0.2,0.2V162c-0.1,0-0.1,0.5-0.2,0.3c0-0.1,0-0.3-0.1-0.2c0,0.1,0.1,0.4,0,0.3l0-0.2v0.2
		c0.1,0.2,0.1,0.1,0.1,0.3c-0.1-0.2,0,0.2-0.1,0c0,0,0-0.2,0-0.3c-0.2-0.2-0.1,0.2-0.3,0c0,0.2-0.1,0.2-0.1,0.4
		c-0.1-0.2-0.1-0.4-0.2-0.6c-0.1,0,0.1,0.5-0.1,0.2c0.1,0.3-0.1,0.2,0.1,0.6c0-0.1-0.1,0-0.1-0.2c0,0.1-0.2-0.3-0.3-0.3
		c0,0,0.1,0.2,0.1,0.3c0,0,0-0.1,0-0.1l0,0.1c0-0.1-0.1-0.2-0.1-0.3c-0.1-0.1,0,0.3-0.1,0.3l0-0.1l-0.1,0v0v0.2l-0.1-0.1
		c0,0,0,0.1,0,0.1l0-0.1c0.1,0.2,0.1,0.3,0,0.3l0-0.1l0,0.3c-0.1-0.1-0.1-0.3-0.1-0.2l-0.1-0.2c0,0.1-0.1,0-0.1,0.1
		c0.1,0.1,0.1,0.1,0.1,0.2c-0.2-0.2,0,0.1,0,0.2c0,0,0,0,0-0.2c0,0,0.1,0.1,0.1,0.1l0-0.1l0.1,0.2l0-0.2c0.1,0.2,0.1,0,0.1,0.2
		c0-0.1,0.1,0,0-0.2c0.1,0.1,0,0.2,0.1,0.2c0.1-0.2,0.2-0.3,0.4-0.3l0,0.1c0-0.1,0-0.2,0-0.2c0.1,0.1,0.3,0.3,0.2,0c0,0,0,0.1,0,0.1
		c0-0.1,0.2,0.1,0.3,0.1c-0.1-0.3,0.2,0.2,0.1-0.3v0.1c0-0.1,0-0.3-0.1-0.4c0.1,0.3,0.1,0.2,0.2,0.5l-0.1-0.1l0.1,0.2
		c-0.1-0.6,0.2,0.2,0.2-0.2c0,0,0,0.1,0,0.1c0.1,0.1,0-0.2,0-0.3c0,0.1,0,0.2,0,0.3c0.1,0.1,0.1-0.3,0.2-0.1c0-0.2,0-0.2,0-0.4
		c0,0,0.1,0.2,0.1,0.3c0.1,0.3,0.2-0.2,0.3,0c0-0.2,0-0.3,0.1-0.4c0,0.1,0.1,0.4,0,0.4v0.1c0.1,0,0.2,0.1,0.2-0.3
		c0,0.3,0,0.1,0.1,0.2c0,0,0,0,0-0.1c0-0.2,0,0,0.1,0v0.1l0-0.2c0,0,0,0.1,0,0.2v-0.2c0,0,0,0.2,0,0.2V163c0,0.1,0.1-0.1,0.1,0.1
		c0,0,0,0,0,0c0,0.3,0.1-0.1,0.1,0v-0.3c0.1-0.1,0,0.1,0,0.2c0,0,0,0.1,0.1,0.1c0-0.1,0-0.1,0-0.2l0,0.1l0,0.2
		c0.1-0.4,0.2,0.1,0.2-0.4c0,0.1,0,0.2,0,0.2c0.1,0.2,0.2-0.3,0.2,0c0.1,0.2,0.2,0,0.3,0.2v-0.1l0.1,0.1c0.1-0.2,0.1-0.1,0.2-0.3
		c0,0.1,0,0.2,0,0.2c0,0,0.1-0.1,0.1,0l0,0.1c0.1,0.1,0.2,0.1,0.3-0.1c0,0,0,0.1,0,0.2c0,0,0.1-0.1,0.2-0.2c0,0,0,0.1,0,0.1l0.1-0.2
		c0,0,0,0.2,0,0.2c0.1-0.2,0.2,0,0.2,0l0-0.1c0-0.1,0,0.1,0,0.2c0.1,0.1,0.2-0.2,0.4-0.2c-0.1,0.4,0.2-0.1,0,0.3
		c0.1-0.1,0.1,0.1,0.2-0.1c0,0,0,0.1,0,0.1c0,0.1,0.1,0.1,0.2,0l0,0.1c0.1-0.2,0.2-0.1,0.3-0.4c0,0.1-0.1,0.1-0.1,0.1
		c-0.1,0.2,0.1-0.1,0.1,0c0,0.1,0,0.1-0.1,0.2c0,0.3,0.4-0.1,0.5,0.2c0,0,0.1-0.3,0.2-0.2c0,0.1-0.2,0.2-0.1,0.3
		c0.1-0.1,0.1-0.1,0.1-0.1c0,0.1-0.1,0.1-0.1,0.2c0,0.1,0.2-0.1,0.2,0.1c0-0.1,0.1-0.1,0.1-0.2c0.2-0.2,0.1,0.3,0.1,0.2
		c0,0,0,0,0-0.1c0,0,0.1,0.1,0,0.2c0-0.1,0.1-0.2,0.1-0.2l-0.1,0.1c0,0,0.1-0.1,0.1-0.1v-0.1c0,0.1,0.2-0.1,0.1,0.1h0l0,0.1
		c0.1-0.1,0.1-0.2,0.2-0.2c0,0.3,0.1,0.1,0.2,0.1l0,0.1c0.1-0.1,0.2-0.1,0.2-0.1c0,0,0.1,0.1,0.1,0.2c0.1-0.1,0.2-0.1,0.2-0.2
		l0.1,0.3c0-0.4,0.2,0.1,0.2-0.3c0.1,0.1,0.1,0.1,0.1,0.2c0-0.2,0.1-0.2,0.2-0.2v0c0.1,0,0.1-0.2,0.2-0.3l0.1,0.3c0-0.1,0-0.3,0-0.2
		c0,0,0,0.1,0,0.1c0-0.1,0.1,0,0.2,0c0-0.2,0-0.2,0-0.4c0.2,0.2,0,0.1,0.2,0.3c0.2,0.1,0.2-0.1,0.2-0.3c0,0,0.1,0.1,0.1,0.1
		c0,0-0.1-0.2-0.2-0.4c-0.1-0.2-0.2-0.4-0.4-0.5c-0.1-0.2-0.2-0.3-0.3-0.4c0.1,0.1,0.1,0.2,0,0.1l0.1,0.2c0,0.1-0.3-0.4-0.3-0.3
		l0.1,0.1c0,0,0.1,0.1,0,0.1c0-0.1,0-0.1-0.1-0.1c0,0.1,0.1,0.2,0.1,0.3c-0.1-0.1-0.1-0.2-0.1-0.2c0,0,0.2,0.3,0.1,0.3
		c-0.1-0.1-0.1-0.1-0.1-0.2c-0.1-0.1-0.1,0,0,0.1c-0.1-0.2-0.1-0.2-0.1-0.3c0.1,0.1,0.1,0.2,0.1,0.3c-0.1-0.2-0.1-0.1-0.1-0.1
		c0,0.1,0.1,0.1,0.1,0.2c0,0,0,0,0,0l0.1,0.2c0,0.2-0.1-0.1-0.1-0.1c0,0,0-0.1,0-0.1c0-0.1-0.1-0.2-0.1,0v0c0,0.2,0.1,0.3,0,0.5
		c0,0-0.1-0.6-0.1-0.4c0,0.2,0,0.4,0,0.5c0-0.1,0-0.2,0-0.4c0,0,0,0.1,0,0.1v0.1c0,0.3,0,0-0.1,0.1c0.1-0.4,0-0.4,0.1-0.8
		c0,0.2-0.1,0.4-0.1,0.4l0.1-0.3c0-0.1-0.1,0.4-0.3,0.7c0.1-0.2,0.1-0.3,0.1-0.5l-0.1,0l0.1-0.3c-0.1,0.3-0.1,0.1-0.2,0.4
		c0,0,0-0.1,0-0.1c0,0.1-0.1,0.3-0.1,0.3c0-0.1,0.1-0.1,0.1-0.2c-0.1,0.1,0-0.1,0,0l0,0.1c-0.1,0.2,0,0-0.1,0.1
		c0.1-0.1,0.1-0.2,0.1-0.3v0c0,0-0.1,0.1-0.1,0l0.1-0.3l-0.1,0.2c0,0,0-0.1,0.1-0.2c0-0.2-0.2,0.6-0.2,0.3c0-0.1,0.1-0.2,0.1-0.1
		c0.1-0.2,0.1-0.3,0.1-0.3c0,0,0,0,0,0C60.8,162.5,60.8,162.4,60.6,162.6L60.6,162.6z"/>
	<path class="st0" d="M60.8,162.4C60.8,162.4,60.9,162.5,60.8,162.4C60.9,162.4,60.9,162.3,60.8,162.4z"/>
	<path class="st0" d="M55.6,161.6L55.6,161.6L55.6,161.6z"/>
	<path class="st0" d="M55.3,161.7C55.3,161.7,55.3,161.8,55.3,161.7C55.3,161.7,55.3,161.7,55.3,161.7z"/>
	<path class="st0" d="M58.3,161.7L58.3,161.7L58.3,161.7z"/>
	<path class="st0" d="M56.7,161.4c0,0.1,0,0.2,0,0.2C56.7,161.6,56.7,161.6,56.7,161.4z"/>
	<path class="st0" d="M57.2,161.6C57.2,161.6,57.2,161.5,57.2,161.6C57.3,161.5,57.3,161.6,57.2,161.6z"/>
	<path class="st0" d="M58.5,161.6c-0.1,0.1-0.1,0.1-0.1,0.1C58.4,161.7,58.4,161.8,58.5,161.6z"/>
	<polygon class="st0" points="55,162.1 55,161.9 55,162.1 	"/>
	<path class="st0" d="M55.3,161.9c0,0,0-0.1,0-0.1C55.3,161.9,55.3,161.9,55.3,161.9z"/>
	<polygon class="st0" points="56.3,162 56.3,161.8 56.3,162 	"/>
</g>
</svg>
