<?xml version="1.0" encoding="utf-8"?>
<!-- Generator: Adobe Illustrator 28.1.0, SVG Export Plug-In . SVG Version: 6.00 Build 0)  -->
<svg version="1.1" id="a" xmlns="http://www.w3.org/2000/svg" xmlns:xlink="http://www.w3.org/1999/xlink" x="0px" y="0px"
	 viewBox="0 0 646 792" style="enable-background:new 0 0 646 792;" xml:space="preserve">
<style type="text/css">
	.st0{fill:#5F5F5F;}
</style>
<g>
	<path class="st0" d="M90.6,195.7L90.6,195.7L90.6,195.7L90.6,195.7L90.6,195.7l0.2,0.4l0,0v0c0,0,0,0.1,0.1,0.1l0.1,0.1
		c0.1-0.1,0.2-0.2,0.2-0.4c0,0.1-0.1,0.1-0.2,0.2l-0.1,0l-0.1,0h0h0l0,0v0l0,0l0,0L90.6,195.7L90.6,195.7L90.6,195.7L90.6,195.7z"/>
	<path class="st0" d="M92,192.6c-0.2-0.3-0.3-0.9-0.6-0.9c0.1,0.2,0.2,0.4,0.3,0.5c-0.2,0.1-0.2,0.4-0.1,0.8v-0.4
		c0,0.1,0.2,0,0.2,0.1c-0.1,0.6,0.2,0.7-0.2,1.2l0,0c0,0.1,0,0.3,0.1,0.4c-0.1,0.1-0.1,0.1-0.2,0c0,0.2,0,0.4,0,0.6
		c0,0.2-0.1,0.5-0.2,0.8c0.2-0.1,0.4-0.7,0.3-0.9c0-0.3,0-0.6,0.2-0.7l0,0C91.8,193.7,92.1,193.1,92,192.6L92,192.6z"/>
	<path class="st0" d="M91.5,194.4L91.5,194.4C91.5,194.4,91.4,194.4,91.5,194.4z"/>
	<path class="st0" d="M88.5,176L88.5,176C88.4,176,88.5,176.1,88.5,176z"/>
	<path class="st0" d="M90,181.9L90,181.9C89.9,181.9,89.9,181.9,90,181.9z"/>
	<path class="st0" d="M60.5,163.3l-0.1-0.1C60.4,163.3,60.4,163.3,60.5,163.3z"/>
	<path class="st0" d="M52.4,163.5L52.4,163.5L52.4,163.5z"/>
	<path class="st0" d="M56,163.7L56,163.7C56,163.8,56.1,163.7,56,163.7z"/>
	<path class="st0" d="M54.1,163.3c0,0-0.1,0-0.1,0C54,163.4,54.1,163.4,54.1,163.3z"/>
	<path class="st0" d="M52.4,163.3c0,0.1,0,0.1,0,0.1C52.4,163.4,52.4,163.4,52.4,163.3z"/>
	<path class="st0" d="M59.8,164.6l0.1,0.2C59.9,164.8,59.9,164.7,59.8,164.6z"/>
	<path class="st0" d="M54,163.6C54,163.6,54,163.6,54,163.6C54,163.6,54,163.6,54,163.6z"/>
	<path class="st0" d="M92,192.1c0,0.1,0,0.2,0,0.3C92,192.2,92,192.1,92,192.1z"/>
	<path class="st0" d="M74,166.1C74,166.1,73.9,166.1,74,166.1C74,166.2,74,166.1,74,166.1z"/>
	<path class="st0" d="M65.8,165.2L65.8,165.2C65.8,165.2,65.8,165.2,65.8,165.2L65.8,165.2L65.8,165.2z"/>
	<path class="st0" d="M68.2,165.1L68.2,165.1C68.2,165.1,68.2,165.1,68.2,165.1z"/>
	<path class="st0" d="M63.9,165.4C63.9,165.4,63.9,165.4,63.9,165.4L63.9,165.4z"/>
	<path class="st0" d="M62.2,165c0.1,0.1,0,0.1-0.1,0.2c0.4,0.1,0.6-0.1,1,0.1l-0.2-0.1c0.3-0.1,0.9-0.1,1.2,0.1l-0.1,0.1
		c0.3-0.1,0.8,0.2,0.9,0c-0.1-0.1,0-0.1-0.2-0.2l0.7-0.2l0.1,0.3l0.4-0.1c-0.1-0.1,0.5,0.1,0.5-0.2c0.2,0.1-0.1,0.2-0.1,0.3
		c0.2-0.1,0.2,0,0.4-0.1l0.2,0.2l0.5-0.2c0,0,0,0,0,0.1c0.2-0.2,0.6,0.1,0.9-0.2c0,0,0,0,0,0c0.2-0.2,0.6,0,0.7,0.1
		c0.3,0,0.2-0.2,0.2-0.3c0.8,0.2,0.5,0.1,1.3-0.1c0.4,0.4-0.5,0.4-0.1,0.7c0.1-0.1,0.5-0.2,0.9-0.2c0.4,0.2,1,0.4,1.3,0.6v-0.2h0.5
		l-0.3,0.2c0.1-0.1,0.4-0.1,0.6-0.2c0.6-0.1,0.2,0.5,0.7,0.3c0,0,0,0.1,0,0.1c0.2-0.1,0.5,0,0.9,0.1l-0.2,0.2l-0.2-0.1
		c0.1,0.3,0.4,0.1,0.7,0.2c0.3,0,0.2-0.2,0.4-0.3c0.1,0,0.2,0,0.3,0.1c0.2,0.2-0.1,0.3-0.2,0.4c0.3-0.2,0.3-0.1,0.8-0.1
		c0,0.1-0.1,0.2-0.1,0.2c0.1,0,0.2,0,0.3-0.1l0.1,0.2c0.4,0.4,0.7-0.3,1.2,0.1c-0.2,0.1,0.5,0.2,0.6,0.5c-0.2-0.1-0.1,0.4-0.3,0.5
		c0.4,0.3,0.3-0.2,0.7,0l-0.3,0.2c0.4,0.1,0.2-0.1,0.6,0c-0.1,0,0.1,0.2-0.2,0.1c0.4,0.3,0.3,0.2,0.7,0.5l0.2-0.2
		c0.2,0.1,0.1,0.2,0.1,0.3c-0.1,0-0.1-0.1-0.2-0.1c0,0.3,0.3,0,0.3,0.4c0-0.1,0.1-0.3,0.2-0.2c-0.2,0.1,0.1,0.3,0.1,0.4
		c0-0.2,0.3,0.2,0.5,0.1c0.1,0.2-0.2,0.1-0.2,0.2c0.3-0.1,0.6,0.4,0.8,0.4c0,0,0,0,0,0c0.3,0,0.6,0.3,1.1,0.4l-0.2,0
		c0.3,0.4,0.5-0.1,0.8,0.2c-0.2,0.1,0.5,0.4,0.1,0.5c0.3,0.1,0.5,0.2,0.8,0.1c0.1,0.3-0.6-0.1-0.4,0.2l0.3,0.1l-0.1,0.1
		c0.1-0.1,0.3,0.1,0.3,0.1c-0.1,0.1-0.1,0.3-0.2,0.4c0.2,0.1,0.2,0.4,0.5,0.5l-0.1,0.1c0.4-0.1,0.5,0.4,0.8,0.3l-0.1,0.2
		c0.2,0.2,0.4,0,0.6,0.1c0.1,0.1,0.2,0.2,0.3,0.3c-0.4-0.2-0.1,0.3-0.1,0.5c0.1,0.1,0.4,0.5,0.6,0.5c-0.2-0.1-0.3,0.1-0.5-0.2
		c-0.2,0.3,0.4,0.4,0.6,0.7l-0.1,0.1c0.4,0.4,0.6,0.3,1,0.3c-0.1,0.2-0.2,0.1-0.4,0.1c0.1,0.4,0.5,0.8,0.8,1.2
		c-0.1,0.2-0.2,0.1-0.3,0.1c0.3,0.3,0.4,0.8,0.8,0.9c-0.2,0,0,0.2,0,0.4c0.1,0,0.2,0,0.2,0c0.2,0.2,0.6,0.7,0.5,1.1l-0.1-0.1
		c0.2,0.7,0.8,0.8,0.8,1.7c0,0.2-0.3-0.1-0.2,0.2c0.2,0.1,0.4,0,0.4,0.3l-0.2,0.1l0.3,0.1c0.1-0.2-0.1-0.5,0.2-0.4
		c-0.1,0.4,0.3,0.2,0.2,0.6c-0.1-0.1-0.3-0.1-0.4-0.1c0,0.3,0.1,0.5,0.2,0.7c0.1,0.2,0.2,0.4,0.2,0.6c0,0.2-0.1,0.5-0.4,0.6l-0.1,0
		c-0.2,0.4-0.5,0.9-0.4,1.1c-0.2-0.1-0.4-0.1-0.4-0.4c-0.2,0.4,0.2,0.6-0.1,0.8c0.2,0.2,0.3,1,0.7,0.9c-0.1,0,0.1,0.3-0.2,0.1
		c0.3,0.4-0.1,0.7,0,0.9c0.1,0.1,0.2-0.2,0.3,0c0,0,0,0.1,0,0.1l0.1,0.1c0,0.1-0.2,0-0.3,0c0.1,0.4,0.5,0.5,0.8,0.9l-0.1,0
		c0.1,0.1,0.1,0.3,0.2,0.5l0,0c0.1,0.1,0.2,0.2,0.3,0.3l-0.1,0c0.1,0.1,0.1,0.1,0.2,0.2h-0.1c0.2,0.1,0.5,0.5,0.6,0.7l0,0.1
		c0.1,0.1,0.3,0.3,0.4,0.5c-0.1,0.3-0.4-0.3-0.2,0.3l-0.3-0.1c0.2,0.4,0.1,0.5,0.2,0.7c0.1-0.1,0.1-0.3,0.2-0.2
		c-0.3,0.4,0.2,0.5,0.3,0.8c0-0.2,0-0.3-0.2-0.4c0-0.2,0.1-0.1,0.1-0.2l-0.2-0.2l0.2-0.1l-0.2-0.4c0.2,0-0.1-0.4,0.2-0.3
		c-0.2-0.3-0.1-0.5-0.3-0.7c0.1-0.2,0.2,0.3,0.2,0.1c-0.3-0.6-0.5-1.1-0.8-1.6c-0.3-0.6-0.6-1.1-0.7-1.6l0.1,0.1
		c-0.1-0.1-0.3-0.1-0.4-0.2c0-0.1,0-0.4,0-0.5c0-0.2-0.1-0.4-0.2-0.4c0,0,0.1,0,0.1,0c-0.1-0.3,0.2-0.6,0.5-0.9
		c-0.1-0.2,0.1-0.2,0.3-0.4c0.3-0.2,0.4-0.5,0.3-0.7c0,0.1,0,0.1,0,0.2c-0.1,0.1-0.1,0-0.2-0.2c0-0.2-0.1-0.4-0.1-0.4
		c0.3-0.2,0.2,0,0.5-0.3c0,0.1-0.1,0.3-0.1,0.4l0.3,0c-0.1-0.4-0.2-0.7-0.4-0.9c-0.2-0.5,0-0.9-0.4-1.1c0,0,0.1,0,0.1,0
		c0-0.3-0.3-0.4-0.5-0.5c0.1-0.1,0.2,0.1,0.4,0.1c-0.1-0.5-0.7-1.2-0.7-1.8c-0.2-0.1-0.2,0.1-0.4,0c0-0.2,0.1-0.4,0.2-0.2
		c0.1-0.6-0.8-1.5-0.9-2.3c-0.4-0.3-0.3,0-0.8-0.4c0.2,0.1,0.3-0.3,0.5-0.1l0.1,0c-0.3-0.5-0.7-1.2-1.2-1.3c0.2-0.2,0-0.1,0-0.4
		c-0.1-0.1,0,0,0,0.1c-0.3-0.1-0.2-0.3-0.3-0.4l0.1,0l-0.4-0.2c0-0.1,0-0.2,0-0.3l-0.2,0.1c-0.1-0.2,0.1-0.2-0.1-0.4l-0.1,0.1
		c0-0.2-0.4-0.3-0.2-0.5c0,0,0,0,0.1,0.1c0-0.4-0.5-0.5-0.7-0.9l-0.2,0.3c-0.3-0.2-0.1-0.2,0-0.3c-0.2-0.2-0.1-0.3-0.3-0.5
		c-0.2-0.1-0.1,0-0.2,0l-0.2-0.3l0.3,0c-0.7-0.1-0.8-0.9-1.3-0.9c-0.1-0.2,0.2,0,0.2-0.1c-0.3-0.6-1.1-0.7-1.3-1.2
		c-0.4-0.7-1.3-1.1-1.9-1.7l0,0.1l-0.5-0.4c-0.2,0.1-0.6-0.2-0.9-0.2c0.1,0,0.1-0.2,0.1-0.2c-0.2-0.1-0.5-0.2-0.6-0.4l0.1,0
		c-0.5-0.3-1.2-0.7-1.6-0.7c-0.2-0.1-0.1-0.2-0.1-0.3c-0.3-0.1-0.6-0.1-0.9-0.1c-0.1-0.1-0.1-0.1-0.2-0.2l-0.2,0.1
		c-0.1-0.1,0-0.2-0.1-0.2c-0.6,0.1-1.1-0.3-1.5-0.4l0,0.1c-0.2,0-0.4-0.2-0.2-0.2c-0.7-0.3-1.1,0.1-2.1-0.1c-0.1-0.4-0.9,0-1-0.5
		c-0.4,0-0.7-0.2-1,0.1c0,0,0-0.1,0-0.1c-0.1-0.2-0.7-0.1-1.1-0.1v-0.1c-0.2,0.2-0.9,0.1-1.1,0.4c0-0.1,0.1-0.1,0.2-0.2
		c-0.2-0.3-0.4,0.1-0.7,0.1c0-0.1-0.1-0.1,0-0.2c-1-0.3-2.3,0.3-3.4,0.1c-0.3,0,0.1,0.3-0.3,0.2c-0.1-0.1,0.2-0.3,0-0.3
		c-0.2,0.2-0.3,0.1-0.5,0.1c0.1-0.1,0-0.1,0.2-0.2c-0.1-0.1-0.7,0.1-1-0.1c0,0.1,0,0.1-0.1,0.2c-0.5,0.2-1-0.3-1-0.2
		c0,0-0.2,0,0,0.1c-0.2,0-0.4-0.1-0.3-0.2c-0.1,0.1-0.2,0.2-0.3,0.2l0.1-0.1c-0.1,0-0.2,0.1-0.2,0.1l0.1,0.1
		c-0.2-0.1-0.6,0.1-0.5-0.2h0.1l-0.3-0.2c-0.1,0.1-0.3,0.2-0.5,0.1c0-0.3-0.6-0.1-0.8-0.2l0-0.1c-0.2,0.1-0.8-0.1-0.7,0
		c-0.2-0.1-0.5-0.2-0.4-0.2c-0.2,0-0.5-0.1-0.7,0.1l-0.3-0.4c-0.3,0.3-0.6-0.4-0.8,0c-0.2-0.1-0.1-0.2-0.2-0.3c-0.2,0-0.3,0-0.4,0
		c-0.2-0.1-0.5-0.2-0.7-0.3v-0.1c-0.3-0.2-0.5,0.1-0.8,0.3c-0.2,0.2-0.5,0.5-0.7,0.8c-0.1,0-0.2,0-0.3-0.1c-0.2,0.4,0,0.6-0.1,0.9
		c-0.1,0.1-0.1,0-0.1-0.1c0,0.4,0,0.9,0.1,1.2c0.2,0.2,0.4,0.4,0.6,0.5c0.1,0.1,0.3,0.2,0.5,0.1c0,0.2-0.1,0.1-0.2,0.1
		c-0.1,0-0.2-0.1-0.2,0.1c0.2,0.3,0.5,0.5,0.9,0.8c0,0.1-0.1,0.1-0.2,0.1c0,0,0.3,0.1,0.6,0.1s0.6,0.1,0.7-0.1c0.2,0,0.4,0,0.3-0.4
		c-0.2,0-0.5-0.3-0.4-0.5l-0.2,0.1c-0.5-0.4,0.3-0.3-0.2-0.9l0.1,0.2c-0.1-0.1-0.3-0.1-0.4-0.3c0-0.1,0.1,0,0.2,0
		c-0.2-0.1-0.5-0.2-0.7-0.2c0.1-0.1,0.1-0.2,0.3-0.1c-0.3-0.3-0.2,0.4-0.5-0.1c0-0.1,0.1-0.1,0.2-0.1c0-0.2-0.1-0.1-0.3-0.3
		c0.2,0,0.2,0,0.3,0c-0.1,0-0.3,0-0.3-0.1c0.2,0.1,0.1-0.1,0.2-0.1c-0.1,0-0.1-0.1-0.2-0.1c0-0.1,0.1-0.1,0.1-0.1
		c-0.1,0-0.2,0-0.2,0c0-0.3,0.3-0.2,0.4-0.2c0,0,0,0.1,0,0.1c0.1,0,0.1,0,0.2,0.1c0,0.1,0.1,0.1,0.2,0l0,0c0,0,0.1,0,0.2-0.1
		c0,0,0-0.1,0-0.1c0-0.1,0-0.2,0.4-0.1c0.2,0.1-0.3,0.6,0.3,0.5c-0.2-0.2,0.5-0.2,0.8-0.2l-0.4,0.3c0.1,0.1,0.4,0,0.4,0.1v-0.1
		c0.1-0.3,0.4,0.2,0.7,0c-0.4,0.4-0.4,0.3-0.5,0.7c0.3-0.2,0.6-0.3,1-0.2l-0.4,0.2c0.5,0.2,1.3-0.1,1.8-0.4c-0.2,0.2,0,0.3-0.2,0.5
		l0.5,0l-0.2,0.2c0.3-0.2,0.5,0,0.5-0.4c-0.1,0-0.1,0.1-0.2,0.1c0-0.1,0.2-0.3,0.4-0.3c0.2,0.1-0.1,0.1-0.1,0.2
		c0.2-0.1,0.2,0.1,0.4,0l-0.1-0.2c0.2-0.2,0.3,0,0.5-0.1c-0.2,0.1-0.2,0.2-0.1,0.3v0c0.1,0,0.3-0.1,0.4,0L60,165l0.2-0.2
		c0.1,0,0.1,0.1,0,0.2c0.6,0.2,0.1-0.6,0.8-0.3c0,0.1-0.1,0.2-0.3,0.1c0,0.2,0,0.3,0.2,0.4c0,0,0,0,0,0c0.4,0,0.9,0.1,1.2-0.1
		L62.2,165z"/>
	<path class="st0" d="M60.9,165.1c-0.2,0-0.4,0-0.5,0C60.5,165.1,60.9,165.3,60.9,165.1z"/>
	<path class="st0" d="M87.4,177.1C87.4,177.1,87.3,177,87.4,177.1L87.4,177.1z"/>
	<path class="st0" d="M88.2,178.5c0,0,0-0.1,0-0.1C88.1,178.4,88.1,178.4,88.2,178.5z"/>
	<path class="st0" d="M76.2,166.8L76.2,166.8L76.2,166.8z"/>
	<path class="st0" d="M83.6,172.3c0.2,0.1,0.3,0,0.3,0C83.9,172.2,83.8,172.2,83.6,172.3z"/>
	<path class="st0" d="M81.5,170C81.5,170,81.4,170,81.5,170C81.4,170,81.4,170,81.5,170z"/>
	<path class="st0" d="M75.7,166.7c0.2,0,0.3,0,0.5,0C76.1,166.8,75.9,166.6,75.7,166.7z"/>
	<polygon class="st0" points="89.2,180.3 89,180.2 89.1,180.3 	"/>
	<path class="st0" d="M88.5,178.8c0-0.1-0.2-0.3-0.2-0.2C88.4,178.7,88.5,178.8,88.5,178.8z"/>
	<polygon class="st0" points="85.6,173.6 85.4,173.7 85.6,173.7 	"/>
</g>
<g>
	<polygon class="st0" points="85.7,184.6 85.6,184.5 85.6,184.7 	"/>
	<path class="st0" d="M84.6,184.9c-0.1,0.2-0.2,0.3-0.2,0.6c0.1-0.1,0.1-0.2,0.2-0.3c0.1,0.2,0.2,0.2,0.3,0.1l-0.1,0
		c0,0,0-0.2,0-0.2c0.2,0.1,0.2-0.3,0.4-0.1v0c0-0.1,0.1-0.1,0.1-0.2c0,0,0.1,0.1,0.1,0.2c0.1-0.2,0.1-0.3,0.2-0.4
		c-0.3-0.3-0.2,0.5-0.5,0.2v0C85,185,84.7,184.8,84.6,184.9z"/>
	<path class="st0" d="M85.3,185L85.3,185C85.3,185,85.3,185.1,85.3,185z"/>
	<path class="st0" d="M78.8,181.9L78.8,181.9C78.8,182,78.8,181.9,78.8,181.9z"/>
	<path class="st0" d="M80.2,184L80.2,184C80.2,184.1,80.2,184,80.2,184z"/>
	<path class="st0" d="M66.5,175.9l0-0.1C66.5,175.9,66.5,175.9,66.5,175.9z"/>
	<path class="st0" d="M63.3,176.2L63.3,176.2L63.3,176.2z"/>
	<path class="st0" d="M64.7,177.1L64.7,177.1C64.7,177.2,64.7,177.1,64.7,177.1z"/>
	<path class="st0" d="M63.8,177.5c0,0-0.1,0-0.1,0C63.7,177.6,63.7,177.6,63.8,177.5z"/>
	<path class="st0" d="M63.3,176.1C63.3,176.1,63.3,176.2,63.3,176.1C63.3,176.2,63.3,176.1,63.3,176.1z"/>
	<path class="st0" d="M66.1,177.2v0.2C66.2,177.4,66.1,177.3,66.1,177.2z"/>
	<path class="st0" d="M63.4,177.8C63.4,177.8,63.3,177.8,63.4,177.8C63.3,177.8,63.3,177.8,63.4,177.8z"/>
	<path class="st0" d="M84.4,184.9C84.4,184.9,84.5,184.9,84.4,184.9C84.5,184.9,84.5,184.9,84.4,184.9z"/>
	<path class="st0" d="M71.6,179.2C71.6,179.2,71.5,179.3,71.6,179.2C71.5,179.3,71.5,179.3,71.6,179.2z"/>
	<path class="st0" d="M68.4,178L68.4,178C68.4,178,68.4,178,68.4,178L68.4,178L68.4,178z"/>
	<path class="st0" d="M69.4,178.2L69.4,178.2C69.4,178.3,69.4,178.2,69.4,178.2z"/>
	<path class="st0" d="M67.6,178C67.6,178,67.6,178,67.6,178L67.6,178z"/>
	<path class="st0" d="M67,177.6c0,0.1,0,0.1-0.1,0.2c0.1,0.1,0.3-0.1,0.4,0.1l-0.1-0.1c0.2-0.1,0.4-0.1,0.4,0.1l-0.1,0.1
		c0.2-0.1,0.2,0.2,0.3,0.1c0-0.1,0-0.1,0-0.2l0.3-0.1l-0.1,0.3l0.2-0.1c0-0.1,0.2,0.1,0.3-0.1c0.1,0.1-0.1,0.2-0.2,0.3
		c0.1-0.1,0.1,0.1,0.2-0.1l0,0.3l0.3-0.1c0,0,0,0,0,0.1c0.2-0.2,0.2,0.2,0.4-0.1c0,0,0,0,0,0c0.1-0.2,0.2,0,0.3,0.1
		c0.1,0,0.1-0.2,0.2-0.3c0.3,0.2,0.2,0.1,0.6-0.1c0,0.4-0.4,0.4-0.3,0.7c0.1-0.1,0.3-0.2,0.5-0.2c0.1,0.2,0.3,0.4,0.3,0.6l0.1-0.2
		h0.2l-0.2,0.2c0.1-0.1,0.2-0.1,0.3-0.2c0.3-0.1-0.1,0.5,0.2,0.3l0,0.1c0.1-0.1,0.2,0,0.4,0l-0.2,0.2l-0.1-0.1
		c-0.1,0.3,0.2,0.1,0.3,0.1c0.2,0,0.2-0.2,0.3-0.3c0,0,0.1,0,0.1,0.1c0,0.1-0.1,0.3-0.2,0.4c0.2-0.2,0.2-0.1,0.4-0.2
		c-0.1,0.1-0.1,0.2-0.1,0.2c0.1,0,0.1,0,0.2-0.1l0,0.2c0.1,0.3,0.4-0.3,0.6-0.1c-0.1,0.1,0.2,0.1,0.2,0.3c-0.1,0-0.1,0.4-0.3,0.5
		c0.1,0.2,0.2-0.2,0.4-0.2l-0.2,0.3c0.2-0.1,0.1-0.1,0.3-0.1c-0.1,0.1,0,0.1-0.1,0.2c0.2,0.1,0.2,0.1,0.3,0.2l0.2-0.3
		c0.1,0,0,0.1,0,0.2c0,0-0.1,0-0.1,0c-0.1,0.3,0.2-0.1,0.2,0.2c0-0.1,0.1-0.2,0.1-0.2c-0.1,0.2,0,0.2,0,0.3c0-0.1,0.2,0,0.3-0.2
		c0,0.2-0.1,0.1-0.1,0.2c0.2-0.2,0.3,0.1,0.4,0c0,0,0,0,0,0c0.2-0.1,0.3-0.1,0.6-0.1l-0.2,0.1c0.1,0.2,0.3-0.3,0.4-0.2
		c-0.2,0.2,0.2,0.1,0,0.3c0.2-0.1,0.3-0.1,0.5-0.2c0,0.2-0.3,0.2-0.3,0.3l0.2,0l-0.1,0.1c0.1-0.1,0.2,0,0.2-0.1
		c-0.1,0.1-0.1,0.3-0.2,0.4c0.1,0,0.1,0.2,0.2,0.1l0,0.1c0.3-0.2,0.2,0.1,0.5-0.1l-0.1,0.2c0.1,0.1,0.3-0.2,0.4-0.2
		c0,0,0.1,0,0.2,0.1c-0.3,0.1-0.1,0.2-0.2,0.4c0,0.1,0.2,0.2,0.4,0.1c-0.2,0.1-0.2,0.2-0.3,0.1c-0.2,0.3,0.2,0.1,0.3,0.2l-0.1,0.1
		c0.2,0.1,0.4-0.1,0.7-0.2c-0.1,0.2-0.2,0.2-0.3,0.3c0.1,0.2,0.3,0.3,0.4,0.4c0,0.1-0.1,0.2-0.2,0.2c0.2,0,0.3,0.3,0.6,0.1
		c-0.1,0.1,0,0.1,0,0.2c0-0.1,0.1-0.1,0.1-0.1c0.2,0,0.4,0,0.5,0.2l-0.1,0.1c0.2,0.2,0.7-0.1,0.8,0.2c0,0.1-0.2,0.2-0.1,0.2
		c0.1-0.1,0.2-0.3,0.3-0.1l-0.1,0.2l0.2-0.1c0-0.2-0.1-0.2,0.1-0.3c0,0.2,0.2-0.1,0.2,0.2c0,0-0.2,0.1-0.2,0.2
		c0.2,0.4,0.5,0,0.7,0.4c0.2-0.1,0.5,0,0.6-0.1c-0.1,0.2-0.2,0.4-0.3,0.5c0.1,0.1,0.4-0.3,0.4,0c0.2-0.2,0.5,0,0.7-0.3
		c0,0.1,0.1,0.1-0.1,0.2c0.2,0,0.1,0.4,0.2,0.5c0,0,0-0.3,0.2-0.2c0,0,0,0.1,0,0.1l0.1-0.1c0,0.1-0.1,0.2-0.2,0.3
		c0.1,0.1,0.4-0.1,0.5-0.1l-0.1,0.1c0.1,0,0.1,0.1,0.2,0.1l0,0l0.2-0.1l0,0.1c0,0,0.1-0.1,0.1-0.1l-0.1,0.1c0.1-0.2,0.3-0.2,0.4-0.2
		v0.1c0.1-0.1,0.2-0.2,0.2-0.2c0.1,0.1-0.2,0.3,0.1,0.2l-0.1,0.3c0.2-0.1,0.2,0,0.3-0.1c-0.1-0.1-0.1-0.1-0.1-0.2
		c0.1,0.3,0.2-0.1,0.3-0.2c0,0-0.1,0-0.1,0.2c-0.1,0,0-0.1-0.1-0.1c0,0.1,0,0.1-0.1,0.1l0-0.2l-0.1,0.1c0-0.2-0.1,0,0-0.3
		c-0.1,0.1-0.1-0.1-0.2,0.1c0-0.1,0.1-0.1,0.1-0.2c-0.4,0.1-0.8-0.1-1.2-0.3l0.1-0.1c-0.1,0.1-0.2,0.1-0.2,0.2
		c0-0.2-0.2-0.5-0.4-0.3c0,0,0-0.1,0.1-0.1c-0.2,0-0.3-0.4-0.5-0.4c-0.2,0.3-0.2-0.4-0.5,0l0.1-0.1c0,0.1-0.2,0.2-0.3,0.3
		c0.1-0.3,0.1-0.2,0.2-0.5l0,0.1l0.1-0.2c-0.5,0.5-0.3-0.5-0.7-0.1c0,0,0-0.1,0.1-0.1c0-0.2-0.2,0.1-0.4,0.1
		c0.1-0.1,0.2-0.1,0.2-0.2c-0.1-0.2-0.6-0.1-0.6-0.4c-0.2,0.1-0.1,0.2-0.2,0.2c0-0.1,0-0.2,0.1-0.2c0-0.4-0.6-0.2-0.7-0.7
		c-0.2,0-0.2,0.2-0.5,0.1c0.1-0.1,0.2-0.4,0.3-0.3l0.1-0.1c-0.2-0.2-0.4-0.4-0.7-0.2c0.2-0.2,0-0.1,0-0.2c0,0,0,0,0,0.1
		c-0.2,0.1-0.1-0.1-0.2-0.1l0,0h-0.2c0,0,0-0.1,0.1-0.2l-0.1,0.1c-0.1-0.1,0.1-0.2,0-0.3l-0.1,0.1c0-0.1-0.2-0.1-0.1-0.2
		c0,0,0,0,0.1,0c0.1-0.3-0.3-0.1-0.3-0.3l-0.2,0.3c-0.2,0,0-0.1,0-0.2c-0.1-0.1,0-0.1-0.1-0.3c-0.1,0-0.1,0.1-0.2,0.1l-0.1-0.1
		l0.2-0.1c-0.4,0.2-0.4-0.4-0.8-0.1c0-0.1,0.2-0.1,0.1-0.2c-0.1-0.3-0.6-0.1-0.7-0.4c-0.2-0.4-0.7-0.4-0.9-0.6l0,0.1l-0.2-0.2
		c-0.1,0.1-0.2,0-0.4,0.1c0-0.1,0.1-0.1,0.1-0.2c-0.1,0-0.2,0-0.2-0.1l0.1-0.1c-0.2-0.1-0.5-0.3-0.7-0.2c-0.1,0,0-0.1,0-0.2
		c-0.1-0.1-0.2,0-0.4,0c0-0.1,0-0.1,0-0.2l-0.1,0.1c0-0.1,0.1-0.1,0.1-0.2c-0.3,0.1-0.4-0.2-0.6-0.3l0,0.1c-0.1,0-0.1-0.1,0-0.2
		c-0.2-0.2-0.6,0.1-0.9-0.2c0.1-0.4-0.4-0.1-0.3-0.5c-0.2,0-0.3-0.2-0.5,0c0,0,0-0.1,0-0.1c0-0.2-0.3-0.1-0.5-0.1l0-0.1
		c-0.2,0.2-0.4,0.1-0.6,0.3c0-0.1,0.1-0.1,0.1-0.1c0-0.3-0.2,0.1-0.3,0c0-0.1,0-0.1,0.1-0.2c-0.3-0.4-0.9-0.1-1.3-0.4
		c-0.1-0.1,0,0.3-0.2,0.2c0-0.1,0.2-0.2,0.1-0.3c-0.1,0.1-0.2,0.1-0.2,0.1c0-0.1,0-0.1,0.1-0.2c0-0.1-0.3,0.1-0.4-0.1
		c0,0.1,0,0.1-0.1,0.2c-0.2,0.2-0.4-0.3-0.4-0.2c0,0-0.1,0,0,0.1c-0.1,0-0.2-0.1-0.1-0.2c-0.1,0.1-0.1,0.2-0.2,0.2l0.1-0.1
		c0,0-0.1,0.1-0.1,0.1l0,0.1c-0.1-0.1-0.3,0.1-0.2-0.1h0l-0.2-0.2c-0.1,0.1-0.2,0.2-0.3,0.2c0-0.3-0.3-0.1-0.4-0.1v-0.1
		c-0.1,0.1-0.4,0.1-0.3,0.1c-0.1,0-0.3-0.1-0.2-0.2c-0.1,0.1-0.3,0.1-0.3,0.3l-0.2-0.2c0,0.4-0.4-0.1-0.3,0.3
		c-0.1,0-0.1-0.1-0.2-0.2c-0.1,0.2-0.2,0.2-0.4,0.3l0,0c-0.1,0-0.2,0.1-0.1,0.1c0,0.1,0,0.1,0,0.1l0-0.3c0,0,0,0.3,0,0.2
		c0-0.1,0-0.1,0-0.1c0,0.1,0,0,0-0.1c-0.1,0.2-0.1,0.1-0.3,0.3c0.1-0.2,0.1-0.1,0.2-0.3c0.1-0.1-0.1-0.1-0.4-0.2
		c0-0.1,0.1-0.1,0.1-0.1c0,0-0.8,0.2-1,0.4c-0.2,0.1-0.3,0.1-0.4,0.4c0.1,0,0.4,0,0.2,0.2l0.2-0.1c0.2,0.1-0.3,0.3-0.1,0.6V177
		c0,0,0.2,0,0.2,0.1c0,0.1-0.1,0.1-0.1,0.1c0.1,0,0.3,0,0.4,0c-0.1,0.1-0.1,0.2-0.2,0.2c0.3,0.2,0.2-0.4,0.4-0.1
		c0,0.1-0.1,0.1-0.2,0.1c0.1,0.3,0.3,0.2,0.5,0.1c0,0.2-0.2,0.1,0,0.3c0-0.1,0-0.3,0.1-0.3c-0.1,0.2,0.1,0.1,0.2,0.2
		c0-0.1,0-0.2,0-0.2c0,0,0.1,0,0.2,0c0-0.1-0.1-0.1-0.2-0.2c0.1-0.2,0.2,0,0.4,0c0,0,0,0,0.1,0c0,0,0,0.1,0,0.1l0,0h0
		c0.2,0,0.3,0.1,0.3-0.1v0c0.2-0.2-0.2-0.3,0-0.5c0.1,0,0.1,0.6,0.3,0.4c-0.1-0.1,0-0.4,0.2-0.5l-0.1,0.4c0,0,0.1-0.1,0.1-0.1l0-0.1
		c-0.1-0.3,0.2,0,0.2-0.2c-0.1,0.4-0.1,0.4,0,0.8c0-0.2,0.1-0.5,0.3-0.4c0,0.1-0.1,0.2-0.1,0.3c0.2,0.1,0.4-0.4,0.6-0.7
		c-0.1,0.2,0,0.3-0.1,0.5c0.1,0,0.1,0,0.2,0l-0.1,0.3c0.1-0.3,0.2-0.1,0.2-0.4c0,0.1,0,0.1-0.1,0.1c0-0.1,0.1-0.3,0.2-0.3
		c0.1,0.1-0.1,0.1,0,0.2c0.1-0.1,0.1,0.1,0.1,0l0-0.2c0.1-0.2,0.1,0,0.2-0.1c-0.1,0.1-0.1,0.2-0.1,0.3v0c0,0,0.1-0.1,0.1,0l-0.1,0.3
		l0.1-0.2c0,0,0,0.1,0,0.2c0.2,0.2,0.1-0.6,0.3-0.3c0,0.1-0.1,0.2-0.1,0.1c0,0.2,0,0.3,0,0.4c0,0,0,0,0,0
		C66.6,177.7,66.8,177.8,67,177.6L67,177.6z"/>
	<path class="st0" d="M66.5,177.6c-0.1,0-0.2,0-0.2,0C66.3,177.7,66.5,177.8,66.5,177.6z"/>
	<path class="st0" d="M77.9,183.1C77.9,183.1,77.9,183.1,77.9,183.1L77.9,183.1z"/>
	<path class="st0" d="M78.6,183.5C78.6,183.5,78.6,183.5,78.6,183.5C78.5,183.5,78.5,183.5,78.6,183.5z"/>
	<path class="st0" d="M72.5,179.7L72.5,179.7L72.5,179.7z"/>
	<path class="st0" d="M75.9,181.6c0.1,0,0.2-0.1,0.2-0.1C76.1,181.5,76,181.5,75.9,181.6z"/>
	<path class="st0" d="M74.9,180.9L74.9,180.9C74.8,180.9,74.9,180.9,74.9,180.9z"/>
	<path class="st0" d="M72.2,179.7c0.1-0.1,0.2,0,0.3,0C72.4,179.7,72.3,179.5,72.2,179.7z"/>
	<polygon class="st0" points="79.5,183.8 79.3,183.9 79.4,183.9 	"/>
	<path class="st0" d="M78.9,183.5c0,0-0.2-0.1-0.2,0C78.8,183.5,78.8,183.5,78.9,183.5z"/>
	<polygon class="st0" points="77,181.7 76.9,181.8 77,181.8 	"/>
</g>
<g>
	<polygon class="st0" points="82.2,227.4 82.2,227.5 82.4,227.4 	"/>
	<path class="st0" d="M84.2,227.7c0.2-0.1,0.5-0.2,0.6-0.5l-0.4,0.2c0-0.2-0.2-0.2-0.4-0.2h0.2c-0.1,0,0,0.2-0.1,0.2
		c-0.3-0.1-0.4,0.1-0.7-0.1l0,0l-0.2,0.1c-0.1,0,0-0.1,0-0.2c-0.2,0.1-0.4,0.2-0.7,0.2c0.2,0.4,0.7-0.3,0.9,0.1l0,0
		C83.6,227.5,83.9,227.8,84.2,227.7L84.2,227.7z"/>
	<path class="st0" d="M83.2,227.2L83.2,227.2C83.2,227.2,83.2,227.2,83.2,227.2z"/>
	<path class="st0" d="M92.8,221.5L92.8,221.5C92.8,221.4,92.8,221.5,92.8,221.5z"/>
	<path class="st0" d="M90.2,224.1L90.2,224.1C90.1,224,90.1,224,90.2,224.1z"/>
	<path class="st0" d="M94.6,202L94.6,202C94.6,201.9,94.6,201.9,94.6,202z"/>
	<path class="st0" d="M92.8,197.2L92.8,197.2L92.8,197.2z"/>
	<path class="st0" d="M92.7,199.7L92.7,199.7C92.7,199.8,92.7,199.7,92.7,199.7z"/>
	<path class="st0" d="M91.9,198.5c0,0,0-0.1,0-0.1C91.9,198.4,91.9,198.4,91.9,198.5z"/>
	<path class="st0" d="M92.8,197.2C92.8,197.2,92.8,197.2,92.8,197.2C92.8,197.2,92.8,197.2,92.8,197.2z"/>
	<path class="st0" d="M93.2,201.9L93,202C93.1,202,93.1,202,93.2,201.9z"/>
	<path class="st0" d="M91.6,198.3c0,0,0-0.1,0-0.1C91.6,198.2,91.6,198.2,91.6,198.3z"/>
	<path class="st0" d="M84.4,227.7c0,0-0.1,0-0.1,0C84.3,227.7,84.4,227.7,84.4,227.7z"/>
	<path class="st0" d="M93.9,210.6C93.9,210.6,93.8,210.5,93.9,210.6C93.8,210.6,93.9,210.6,93.9,210.6z"/>
	<path class="st0" d="M93.5,205.5L93.5,205.5C93.5,205.5,93.5,205.5,93.5,205.5L93.5,205.5L93.5,205.5z"/>
	<path class="st0" d="M93.7,207L93.7,207C93.7,207,93.7,207,93.7,207z"/>
	<path class="st0" d="M93.2,204.4C93.2,204.4,93.1,204.4,93.2,204.4L93.2,204.4z"/>
	<path class="st0" d="M93.2,203.3c-0.1,0.1-0.2,0-0.2,0c-0.1,0.3,0.2,0.3,0.1,0.6l0.1-0.1c0.2,0.2,0.2,0.5,0.1,0.7l-0.1,0
		c0.2,0.1-0.1,0.5,0.1,0.5c0.1-0.1,0.2,0,0.2-0.1l0.2,0.4l-0.3,0.1l0.1,0.2c0.1-0.1-0.1,0.3,0.2,0.3c-0.1,0.1-0.2,0-0.3-0.1
		c0.1,0.1,0,0.1,0.2,0.2l-0.2,0.1l0.2,0.3c0,0,0,0-0.1,0c0.2,0.1-0.1,0.4,0.3,0.6c0,0,0,0,0,0c0.2,0.1,0.1,0.4,0.1,0.5
		c0.1,0.2,0.2,0.1,0.4,0.1c0,0.5,0,0.3,0.3,0.7c-0.3,0.3-0.5-0.3-0.7,0.1c0.2,0,0.3,0.2,0.4,0.5c-0.1,0.2-0.1,0.6-0.4,0.9l0.2,0
		l0.1,0.3l-0.3-0.2c0.1,0.1,0.2,0.2,0.3,0.3c0.2,0.3-0.5,0.2-0.1,0.5c0,0,0,0-0.1,0c0.2,0.1,0.1,0.3,0.2,0.6l-0.3-0.1l0-0.2
		c-0.3,0.1,0,0.3,0,0.4c0.1,0.2,0.3,0.1,0.4,0.2c0,0.1,0.1,0.1,0,0.2c-0.1,0.1-0.3,0-0.4,0c0.3,0.1,0.2,0.2,0.4,0.4
		c-0.1,0-0.2,0-0.2,0c0,0.1,0.1,0.1,0.2,0.1l-0.2,0.1c-0.2,0.3,0.5,0.3,0.4,0.7c-0.1-0.1,0,0.3-0.2,0.4c0-0.1-0.4,0-0.6-0.1
		c-0.1,0.3,0.3,0.1,0.3,0.4l-0.3-0.1c0.1,0.2,0.2,0.1,0.2,0.3c-0.1-0.1-0.1,0.1-0.2-0.1c-0.1,0.3,0,0.2-0.1,0.5l0.3,0.1
		c0,0.1-0.1,0.1-0.2,0.1c0,0,0-0.1,0-0.1c-0.3,0.1,0.1,0.2-0.2,0.3c0.1,0,0.2,0,0.2,0.1c-0.2-0.1-0.2,0.1-0.3,0.1
		c0.2,0,0,0.2,0.2,0.3c-0.2,0.1-0.1-0.1-0.2-0.1c0.2,0.2-0.1,0.4,0,0.6c0,0,0,0-0.1,0c0.1,0.2,0.1,0.4,0.2,0.7l-0.2-0.1
		c-0.2,0.2,0.3,0.3,0.2,0.5c-0.2-0.1-0.1,0.4-0.3,0.2c0.1,0.2,0.1,0.4,0.3,0.5c-0.2,0.1-0.2-0.4-0.4-0.2l0.1,0.2l-0.2,0
		c0.1,0.1,0,0.2,0.1,0.2c-0.2,0-0.3,0-0.4-0.1c0,0.1-0.2,0.2-0.1,0.4l-0.1,0c0.2,0.2-0.1,0.4,0.2,0.6h-0.2c-0.1,0.2,0.3,0.3,0.3,0.4
		c0,0.1,0,0.2-0.1,0.2c-0.1-0.3-0.3,0-0.4,0c0,0.1-0.2,0.4,0,0.5c-0.1-0.2-0.2-0.2-0.2-0.4c-0.3,0-0.1,0.3-0.2,0.5l-0.1-0.1
		c-0.1,0.4,0.2,0.5,0.3,0.7c-0.2-0.1-0.2-0.1-0.3-0.3c-0.2,0.1-0.3,0.5-0.4,0.8c-0.2,0-0.2-0.1-0.2-0.2c0,0.3-0.3,0.5-0.1,0.8
		c-0.1-0.1-0.1,0.1-0.2,0.1c0.1,0,0.1,0.1,0.1,0.1c0,0.2,0,0.6-0.2,0.7l0-0.1c-0.3,0.3,0.1,0.8-0.4,1.1c-0.1,0-0.2-0.2-0.3-0.1
		c0,0.1,0.3,0.3,0.1,0.4l-0.2-0.1l0.1,0.3c0.2,0.1,0.3-0.2,0.3,0.1c-0.3,0,0,0.3-0.3,0.3c0-0.1-0.1-0.2-0.1-0.3
		c-0.5,0.2-0.3,0.7-0.8,0.9c0,0.3-0.2,0.6-0.2,0.8c-0.1-0.2-0.3-0.3-0.3-0.5c-0.2,0.1,0.1,0.6-0.2,0.4c0.1,0.3-0.3,0.6-0.1,0.9
		c-0.1-0.1-0.2,0.1-0.2-0.2c-0.2,0.3-0.5-0.1-0.7,0c-0.1,0.1,0.2,0.2,0.1,0.3c0,0-0.1,0-0.1,0l0,0.1c-0.1-0.1,0-0.2-0.1-0.3
		c-0.2,0-0.2,0.4-0.5,0.5l0-0.1c-0.1,0-0.2,0.1-0.3,0.1v0l-0.2,0.2l0-0.1c0,0-0.1,0.1-0.1,0.1v-0.1c0,0.2-0.3,0.4-0.5,0.4l0-0.1
		c-0.1,0.1-0.2,0.2-0.4,0.3c-0.2-0.1,0.2-0.3-0.1-0.2l0.1-0.3c-0.3,0.1-0.3-0.1-0.5,0c0.1,0.1,0.2,0.1,0.1,0.2
		c-0.2-0.3-0.3,0-0.6,0.1c0.1,0,0.2,0,0.3-0.1c0.1,0,0,0.1,0.1,0.2c0.1,0,0.1-0.1,0.2-0.1l0,0.2l0.3-0.1c0,0.2,0.2,0,0.1,0.3
		c0.2-0.1,0.3,0.1,0.5-0.2c0.2,0.1-0.2,0.2-0.1,0.2c0.8-0.2,1.6-0.5,2.3-0.9v0.1c0-0.1,0-0.2,0-0.3c0.2,0.1,0.8-0.1,0.7-0.5
		c0,0,0,0.1,0,0.1c0.2-0.2,0.7-0.4,0.9-0.7c-0.2-0.3,0.5-0.3,0.2-0.7l0,0.1c-0.2,0-0.2-0.3-0.2-0.4c0.3,0.1,0.2,0.1,0.5,0.2l-0.2,0
		l0.2,0.1c-0.2-0.7,0.7-0.4,0.5-0.9c0,0,0,0.1,0.1,0.1c0.2-0.1,0-0.4,0.1-0.5c0.1,0.1,0.1,0.2,0.2,0.3c0.3-0.2,0.3-0.8,0.7-1
		c-0.1-0.2-0.2-0.1-0.2-0.3c0.1-0.1,0.3-0.1,0.3,0.1c0.5-0.1,0.3-1,0.8-1.2c-0.1-0.3-0.2-0.2-0.1-0.6c0.1,0.1,0.4,0.1,0.3,0.3
		l0.1,0.1c0.2-0.3,0.5-0.7,0.2-1.1c0.2,0.1,0.1,0,0.3-0.1c0-0.1,0,0-0.1,0c-0.2-0.2,0.1-0.2,0.1-0.3l0,0.1l0-0.3
		c0.1,0,0.1-0.1,0.2,0l-0.2-0.1c0.1-0.1,0.2,0,0.3-0.1l-0.2,0c0.1-0.1,0-0.3,0.2-0.2c0,0,0,0,0,0.1c0.3-0.1,0.1-0.5,0.3-0.6
		l-0.3-0.1c0-0.2,0.1-0.1,0.2-0.1c0-0.1,0.2-0.1,0.3-0.3c0-0.1-0.1-0.1-0.2-0.1l0.1-0.1l0.1,0.2c-0.3-0.4,0.3-0.7,0-1
		c0.1-0.1,0.1,0.2,0.2,0.1c0.3-0.3,0-0.9,0.3-1.1c0.3-0.4,0.3-1,0.5-1.5h-0.1l0.1-0.4c-0.2-0.1-0.1-0.4-0.2-0.6c0.1,0,0.2,0,0.2,0
		c0-0.2-0.1-0.4,0-0.4l0.1,0.1c0.1-0.4,0.1-0.9,0-1.1c0-0.1,0.1-0.1,0.2-0.1c0-0.2-0.1-0.4-0.2-0.5c0,0,0.1-0.1,0.1-0.1l-0.2-0.1
		c0-0.1,0.2,0,0.2-0.1c-0.2-0.3,0-0.7-0.1-0.9l-0.1,0c-0.1-0.1,0.1-0.3,0.2-0.2c0.1-0.4-0.4-0.6-0.3-1.2c0.4-0.1-0.1-0.5,0.3-0.6
		c-0.1-0.2,0-0.4-0.2-0.6c0,0,0.1,0,0.1,0c0.2-0.1,0-0.4-0.1-0.7l0.1,0c-0.3-0.1-0.2-0.5-0.5-0.6c0.1,0,0.1,0,0.2,0.1
		c0.2-0.2-0.1-0.2-0.1-0.4c0.1,0,0.1-0.1,0.2,0c0.2-0.6-0.4-1.3-0.2-2.1c0-0.2-0.3,0.1-0.3-0.2c0.1-0.1,0.3,0.1,0.3-0.1
		c-0.2-0.1-0.2-0.1-0.2-0.3c0.1,0,0.1,0,0.2,0.1c0.1-0.1-0.3-0.4-0.1-0.6c-0.1,0-0.1,0-0.2,0c-0.3-0.2,0.1-0.7,0-0.7
		c0,0-0.1-0.1-0.1,0c0-0.1,0-0.3,0.1-0.2c-0.1,0-0.2-0.1-0.2-0.1l0.2,0c0,0-0.2-0.1-0.2-0.1l-0.1,0.1c0.1-0.1-0.2-0.3,0-0.4v0
		l0.1-0.2c-0.1-0.1-0.3-0.1-0.3-0.3c0.3-0.1,0-0.4,0-0.6l0.1,0c-0.2-0.1-0.2-0.5-0.3-0.4c-0.1-0.1,0-0.4,0.1-0.3
		c-0.1-0.1-0.2-0.4-0.4-0.3l0.2-0.3c-0.4,0-0.1-0.5-0.5-0.4c0-0.1,0.1-0.2,0.1-0.3c-0.3-0.1-0.3-0.3-0.4-0.5l0,0
		c-0.1-0.2-0.4-0.3-0.5-0.5l0.2-0.2c-0.1-0.1-0.3,0-0.3-0.1c0-0.1,0,0,0.1,0c-0.1-0.1-0.1-0.2-0.1-0.3c-0.3,0-0.3-0.2-0.6-0.2
		c0.2-0.2,0.2,0.1,0.4-0.1c0-0.3-0.2-0.5-0.5-0.7c0-0.1,0.1,0,0.2-0.1c0,0-1-0.2-1.2,0c-0.2,0-0.4,0-0.4,0.3c0.1,0,0.4,0.2,0.2,0.3
		l0.2-0.1c0.2,0.3-0.4,0.2-0.2,0.6l0-0.1c0.1,0.1,0.2,0.1,0.2,0.2c0,0.1-0.1,0-0.2,0l0.4,0.2c-0.1,0.1-0.2,0.1-0.3,0.1
		c0.2,0.3,0.3-0.2,0.4,0.1c-0.1,0.1-0.1,0-0.2,0c-0.1,0.3,0.2,0.3,0.3,0.4c-0.2,0.1-0.2,0-0.2,0.2c0.1-0.1,0.2-0.2,0.3-0.1
		c-0.2,0.1,0,0.1,0,0.3c0-0.1,0.1-0.1,0.2-0.1c0,0,0,0.1,0.1,0.2l0.1-0.2c0.2,0.1,0.1,0.3,0.1,0.5c0,0-0.1,0-0.1,0
		c0,0.2-0.1,0.4,0.2,0.4h0c0.3,0.2,0.2-0.2,0.6,0.1c0,0.1-0.6,0.2-0.3,0.4c0.1-0.2,0.4,0,0.6,0.2l-0.4,0c0,0.1,0.2,0.1,0.2,0.2
		l0.1,0c0.3-0.1,0,0.2,0.3,0.3c-0.5,0-0.4,0-0.8,0.1c0.3,0,0.5,0.1,0.6,0.3l-0.4-0.1c0,0.3,0.6,0.5,0.9,0.7c-0.2,0-0.3,0.1-0.5,0.1
		l0.1,0.3l-0.3,0c0.3,0.1,0.1,0.2,0.5,0.1c-0.1,0-0.1,0-0.1-0.1c0.1,0,0.3,0,0.4,0.1c-0.1,0.1-0.2,0-0.2,0c0.2,0.1-0.1,0.1,0.1,0.2
		l0.1-0.1c0.2,0,0,0.2,0.2,0.2c-0.1-0.1-0.2,0-0.3,0h0c0,0.1,0.2,0.1,0.1,0.2h-0.3l0.2,0.1c0,0.1-0.1,0.1-0.2,0
		c-0.1,0.4,0.6-0.1,0.4,0.4c-0.1,0-0.2,0-0.1-0.2c-0.2,0-0.3,0.1-0.3,0.2c0,0,0,0,0,0C93,202.9,93,203.2,93.2,203.3L93.2,203.3z"/>
	<path class="st0" d="M93,202.6c0-0.1,0-0.2-0.1-0.3C92.8,202.4,92.8,202.7,93,202.6z"/>
	<path class="st0" d="M91.4,220.9C91.4,220.9,91.4,220.9,91.4,220.9L91.4,220.9z"/>
	<path class="st0" d="M91,221.9C91,221.9,91.1,221.9,91,221.9C91,221.8,91,221.8,91,221.9z"/>
	<path class="st0" d="M94,212L94,212L94,212z"/>
	<path class="st0" d="M92.8,217.5c0.1,0.1,0.1,0.2,0.2,0.2C93,217.7,93,217.6,92.8,217.5z"/>
	<path class="st0" d="M93.6,215.7C93.6,215.7,93.5,215.7,93.6,215.7C93.5,215.7,93.5,215.7,93.6,215.7z"/>
	<path class="st0" d="M93.8,211.7c0.1,0.1,0.1,0.2,0.1,0.3C93.9,212,94,211.8,93.8,211.7z"/>
	<polygon class="st0" points="90.6,223.1 90.6,222.9 90.6,223 	"/>
	<path class="st0" d="M91.1,222.2c0,0,0.1-0.2,0-0.2C91.1,222.1,91.1,222.2,91.1,222.2z"/>
	<polygon class="st0" points="92.9,219 92.8,218.9 92.8,219 	"/>
</g>
<g>
	<polygon class="st0" points="53.2,193.8 53.3,193.9 53.3,193.6 	"/>
	<path class="st0" d="M54,192.6c-0.1-0.2-0.2-0.4-0.5-0.4c0.1,0.1,0.2,0.1,0.2,0.2c-0.2,0-0.2,0.1-0.2,0.2l0-0.1
		c0,0,0.2,0.1,0.2,0.1c-0.2,0.2,0.1,0.3-0.2,0.4l0,0c0,0.1,0,0.1,0,0.2c-0.1,0-0.1-0.1-0.2-0.1c0,0.2,0.1,0.4-0.1,0.5
		c0.2,0.1,0.2-0.1,0.2-0.2c0-0.1,0-0.3,0.2-0.2l0,0C53.8,193,54.1,192.8,54,192.6L54,192.6z"/>
	<path class="st0" d="M53.5,193.2L53.5,193.2C53.5,193.1,53.4,193.1,53.5,193.2z"/>
	<path class="st0" d="M56,187.8L56,187.8C56,187.8,56,187.8,56,187.8z"/>
	<path class="st0" d="M54,188.9L54,188.9C53.9,188.9,53.9,188.9,54,188.9z"/>
	<path class="st0" d="M58.7,178.6L58.7,178.6C58.7,178.6,58.7,178.6,58.7,178.6z"/>
	<path class="st0" d="M60.8,177.8L60.8,177.8L60.8,177.8z"/>
	<path class="st0" d="M59.3,176.9L59.3,176.9C59.3,176.8,59.3,176.9,59.3,176.9z"/>
	<path class="st0" d="M60.1,176.5C60.1,176.5,60.2,176.5,60.1,176.5C60.1,176.5,60.1,176.5,60.1,176.5z"/>
	<path class="st0" d="M60.8,177.8C60.8,177.8,60.8,177.8,60.8,177.8C60.8,177.8,60.8,177.8,60.8,177.8z"/>
	<path class="st0" d="M58,177.4l-0.1-0.2C57.9,177.3,58,177.3,58,177.4z"/>
	<path class="st0" d="M60.2,176.3C60.2,176.3,60.3,176.3,60.2,176.3C60.3,176.3,60.3,176.3,60.2,176.3z"/>
	<path class="st0" d="M54.1,192.4c0,0,0,0.1,0,0.1C54.1,192.5,54.1,192.4,54.1,192.4z"/>
	<path class="st0" d="M55,181.4C55,181.4,54.9,181.4,55,181.4C54.9,181.4,55,181.4,55,181.4z"/>
	<path class="st0" d="M56.4,178.8L56.4,178.8C56.4,178.8,56.4,178.8,56.4,178.8L56.4,178.8L56.4,178.8z"/>
	<path class="st0" d="M55.9,179.5L55.9,179.5C55.9,179.5,55.9,179.5,55.9,179.5z"/>
	<path class="st0" d="M56.6,178.1C56.6,178.1,56.6,178.1,56.6,178.1L56.6,178.1z"/>
	<path class="st0" d="M57.2,177.8c-0.1,0-0.1-0.1-0.1-0.2c-0.2,0,0,0.3-0.3,0.3l0.1,0c0,0.2-0.1,0.4-0.3,0.3l0-0.1
		c0.1,0.2-0.3,0.1-0.2,0.2c0.1,0,0.1,0.1,0.2,0.1l0,0.3l-0.2-0.2v0.2c0.1,0-0.2,0.1,0,0.3c-0.1,0-0.2-0.2-0.2-0.2
		c0,0.1-0.1,0.1,0,0.2l-0.2-0.1l0,0.3c0,0,0,0,0,0c0.1,0.2-0.2,0.1,0,0.4c0,0,0,0,0,0c0.1,0.2-0.1,0.2-0.1,0.2
		c0,0.1,0.2,0.2,0.3,0.2c-0.2,0.2-0.1,0.1,0,0.5c-0.3,0-0.4-0.4-0.7-0.3c0.1,0.1,0.2,0.3,0.2,0.4c-0.2,0.1-0.3,0.3-0.6,0.3l0.2,0.1
		l0,0.2L55,181c0.1,0.1,0.2,0.2,0.2,0.3c0.1,0.2-0.5,0-0.2,0.2H55c0.1,0.1,0,0.2,0.1,0.4l-0.2-0.1l0.1-0.1c-0.3,0,0,0.2,0,0.3
		c0.1,0.1,0.3,0.1,0.4,0.2c0,0,0,0.1,0,0.1c-0.1,0.1-0.3-0.1-0.4-0.1c0.3,0.1,0.2,0.1,0.3,0.3c-0.1,0-0.2,0-0.2-0.1
		c0,0,0.1,0.1,0.2,0.1l-0.2,0c-0.2,0.1,0.5,0.2,0.4,0.4c-0.1-0.1,0,0.2-0.2,0.2c0-0.1-0.4,0-0.5-0.1c-0.1,0.2,0.3,0.1,0.4,0.2
		l-0.3-0.1c0.1,0.1,0.2,0.1,0.3,0.2c-0.1,0-0.1,0.1-0.2,0c0,0.2,0,0.1-0.1,0.3l0.3,0c0,0.1-0.1,0.1-0.2,0.1c0,0,0-0.1,0-0.1
		c-0.3,0.1,0.1,0.1-0.1,0.2c0.1,0,0.2,0,0.3,0c-0.2,0-0.2,0.1-0.3,0.1c0.1,0,0.1,0.1,0.3,0.1c-0.2,0.1-0.2,0-0.3,0
		c0.2,0.1,0,0.3,0.2,0.3c0,0,0,0,0,0c0.2,0.1,0.2,0.2,0.4,0.4l-0.2-0.1c-0.1,0.2,0.4,0.1,0.4,0.2c-0.3,0,0,0.2-0.3,0.2
		c0.2,0.1,0.2,0.1,0.5,0.2c-0.2,0.1-0.4-0.1-0.4,0l0.1,0.1l-0.1,0c0.1,0,0.1,0.1,0.2,0.1c-0.2,0-0.3,0.1-0.4,0.1
		c0.1,0.1-0.1,0.2,0,0.2h-0.1c0.3,0.1,0.1,0.2,0.4,0.2l-0.2,0c0,0.1,0.4,0.1,0.4,0.1c0,0,0,0.1,0,0.1c-0.2-0.1-0.3,0.1-0.4,0.1
		c0,0.1,0,0.2,0.2,0.3c-0.2-0.1-0.3-0.1-0.3-0.2c-0.3,0,0.1,0.2,0,0.3l-0.1,0c0.1,0.2,0.3,0.2,0.5,0.4c-0.2,0-0.2-0.1-0.4-0.2
		c-0.1,0.1-0.1,0.3-0.2,0.4c-0.1,0-0.2-0.1-0.2-0.1c0.1,0.2-0.1,0.2,0.1,0.4c-0.1-0.1-0.1,0-0.2,0c0.1,0,0.1,0.1,0.1,0.1
		c0.1,0.1,0,0.4-0.1,0.4l0-0.1c-0.2,0.1,0.1,0.6-0.3,0.6c-0.1,0-0.1-0.2-0.2-0.2c0,0.1,0.2,0.3,0,0.3l-0.1-0.2l0,0.2
		c0.1,0.1,0.2,0,0.2,0.2c-0.2-0.1-0.1,0.1-0.1,0.1c0,0,0,0-0.1,0c0,0,0-0.1,0-0.1c0-0.1,0-0.1-0.1-0.1c0,0,0,0,0,0
		c-0.2,0-0.2,0.1-0.2,0.2c0,0.1,0,0.2-0.2,0.2c0.1,0.2,0.1,0.3,0.3,0.4c-0.2,0-0.4,0-0.6-0.1c0,0.1,0.4,0.2,0.1,0.3
		c0.3,0.1,0.2,0.3,0.6,0.4c-0.1,0,0,0.1-0.2,0c0.1,0.2-0.4,0.2-0.4,0.3c0,0,0.3-0.1,0.3,0.1c0,0-0.1,0-0.1,0l0.1,0
		c-0.1,0-0.2-0.1-0.3-0.1c-0.1,0.1,0.2,0.2,0.3,0.4l-0.1,0v0.2h0l0.2,0.1h-0.1c0,0,0.1,0,0.1,0.1h-0.1c0.2,0,0.3,0.2,0.3,0.2l-0.1,0
		c0.1,0.1,0.2,0.1,0.3,0.2c-0.1,0.1-0.3-0.1-0.2,0.1l-0.3-0.1c0.1,0.1,0,0.2,0.1,0.2c0.1,0,0.1-0.1,0.2-0.1
		c-0.3,0.1,0.1,0.2,0.2,0.3c0-0.1,0-0.1-0.2-0.2c0-0.1,0.1,0,0.2-0.1l-0.2-0.1l0.2,0c0-0.1-0.1-0.1-0.1-0.1c0.2,0,0-0.1,0.2-0.1
		c-0.1-0.1,0.1-0.2-0.2-0.2c0.1-0.1,0.2,0.1,0.2,0c-0.1-0.2-0.1-0.4-0.2-0.6c0-0.2,0-0.3,0.1-0.5l0.1,0c-0.1,0-0.2-0.1-0.2-0.1
		c0.2-0.1,0.4-0.3,0.1-0.4c0,0,0.1,0,0.1,0c0-0.1,0.2-0.3,0.2-0.3c-0.2,0-0.1-0.1-0.1-0.1c0,0,0.1,0-0.1-0.1l0.1,0.1
		c-0.1,0-0.3-0.2-0.3-0.3c0.3,0.2,0.2,0.1,0.4,0.3c0,0-0.1,0-0.1-0.1l0.2,0.1c-0.3-0.3-0.1-0.2,0-0.1c0,0,0,0,0,0c0,0,0,0,0.1,0
		c0,0,0-0.1,0-0.2c0,0,0,0.1,0,0.1c0.2,0.1,0.1-0.2,0.1-0.4c0.1,0.1,0.1,0.2,0.1,0.3c0.2-0.1,0.3-0.5,0.6-0.6
		c-0.1-0.2-0.2-0.1-0.2-0.3c0.1,0,0.2,0,0.2,0.2c0.4,0,0.3-0.6,0.6-0.8c-0.1-0.2-0.2-0.2-0.2-0.4c0.1,0.1,0.4,0.1,0.4,0.2l0.1,0.1
		c0.1-0.2,0.3-0.6-0.1-0.8c0.3,0.1,0.1,0,0.2-0.1c0,0,0,0-0.1,0c-0.2-0.1,0-0.1,0-0.2l0,0l-0.1-0.2c0,0,0.1-0.1,0.2-0.1l-0.2,0
		c0-0.1,0.2,0,0.2-0.1h-0.1c0.1-0.1-0.1-0.2,0.1-0.2c0,0,0,0,0,0c0.3-0.1-0.1-0.3,0.1-0.4l-0.3,0c-0.1-0.1,0.1-0.1,0.2-0.1
		c0-0.1,0.1-0.1,0.1-0.2c-0.1-0.1-0.1,0-0.2,0l0.1-0.1l0.2,0.1c-0.5-0.1,0-0.4-0.4-0.5c0.1-0.1,0.2,0.1,0.2,0
		c0.2-0.2-0.3-0.4-0.1-0.6c0.2-0.2,0-0.5,0.2-0.8h-0.1l0.1-0.2c-0.2-0.1-0.1-0.2-0.3-0.3c0.1,0,0.2,0,0.2,0c0-0.1-0.1-0.2,0-0.2
		l0.1,0c0.1-0.2,0.1-0.4,0-0.5c0-0.1,0.1,0,0.2,0c0-0.1,0-0.2-0.2-0.3c0,0,0.1,0,0.2,0l-0.2-0.1c0,0,0.2,0,0.2,0
		c-0.2-0.2,0-0.3,0.1-0.4h-0.1c-0.1-0.1,0.1-0.1,0.2,0c0.2-0.1-0.2-0.4-0.1-0.6c0.4,0.1,0-0.3,0.4-0.1c0-0.1,0.1-0.1,0-0.3
		c0,0,0.1,0,0.1,0c0.1,0,0.1-0.2,0.1-0.3l0.1,0.1c-0.2-0.2,0-0.3-0.2-0.5c0.1,0,0.1,0.1,0.1,0.1c0.2,0.1,0-0.2,0-0.2
		c0,0,0.1,0.1,0.2,0.1c0.4-0.1,0.2-0.6,0.6-0.8c0.1-0.1-0.2-0.2-0.1-0.2c0.1,0.1,0.2,0.2,0.3,0.2c-0.1-0.2,0-0.1,0-0.2
		c0.1,0.1,0.1,0.1,0.1,0.2c0.1,0.1,0-0.3,0.2-0.2c-0.1-0.1-0.1-0.1-0.1-0.1c-0.1-0.3,0.4,0,0.3-0.1c0,0,0-0.1,0-0.1
		c0,0,0.1,0,0.2,0.1c0-0.1-0.1-0.2-0.1-0.2l0.1,0.1c0,0,0-0.1,0-0.2l-0.1-0.1c0.1,0.1,0-0.2,0.2,0v0l0.1,0.1c0-0.1-0.1-0.2,0-0.2
		c0.2,0.2,0.2,0,0.3,0l0.1,0.1c0-0.2,0.2-0.2,0.1-0.2c0.1,0,0.2,0,0.2,0.1c0-0.1,0.1-0.1,0.1-0.3l0.2,0.2c-0.1-0.4,0.2,0.1,0.1-0.3
		c0.1,0,0.1,0.1,0.2,0.2c0-0.2,0.1-0.2,0.2-0.2v0c0.1,0,0.2-0.2,0.3-0.3l0.1,0.3c0-0.1,0-0.3,0.1-0.2c0,0,0,0.1,0,0.1
		c0-0.1,0.2,0,0.2,0c0-0.2,0.1-0.2,0.2-0.4c0.1,0.2-0.1,0.1,0,0.4c0.2,0.1,0.3-0.1,0.4-0.2c0,0.1,0,0.1,0,0.2c0,0,0.2-0.8,0-1.1
		c0-0.2,0-0.3-0.2-0.5c0,0.1-0.1,0.3-0.2,0.1l0,0.2c-0.2,0.1-0.1-0.4-0.3-0.4l0.1,0.1c0,0,0,0.2-0.1,0.1c0-0.1,0-0.1,0-0.1l-0.1,0.3
		c0-0.1-0.1-0.2,0-0.3c-0.2,0.1,0.1,0.4-0.1,0.3c-0.1-0.1,0-0.1,0-0.2c-0.1-0.2-0.2,0-0.2,0.2c-0.1-0.2,0-0.2-0.1-0.3
		c0,0.1,0.1,0.2,0,0.3c0-0.2-0.1-0.1-0.1-0.1c0,0.1,0,0.1,0,0.2c0,0-0.1,0-0.1,0l0.1,0.2c-0.1,0.2-0.2-0.1-0.3-0.1c0,0,0-0.1,0-0.1
		c-0.1-0.1-0.2-0.2-0.3,0v0c-0.2,0.2,0.2,0.3,0,0.5c-0.1,0-0.2-0.6-0.3-0.3c0.1,0.1,0,0.4-0.1,0.5l0-0.4c0,0-0.1,0.1-0.1,0.1l0,0.1
		c0.1,0.3-0.1,0-0.1,0.2c-0.1-0.4,0-0.4-0.2-0.8c0,0.2,0,0.5-0.1,0.5l0-0.4c-0.2,0-0.2,0.6-0.2,0.9c-0.1-0.2-0.2-0.3-0.2-0.5
		l-0.1,0.1l-0.1-0.3c0.1,0.3-0.1,0.2,0.1,0.5c0-0.1,0-0.1,0-0.1c0,0.1,0.1,0.3,0,0.3c-0.1,0,0-0.1-0.1-0.2c0,0.1-0.1,0-0.1,0.1
		l0.1,0.1c0.1,0.2-0.1,0.1-0.1,0.2c0-0.1-0.1-0.2-0.2-0.3l0,0c0,0,0,0.2-0.1,0.1l-0.1-0.3l0.1,0.2c0,0-0.1-0.1-0.1-0.1
		c-0.3,0,0.4,0.5,0,0.4c-0.1-0.1-0.1-0.2,0-0.2c-0.1-0.1-0.2-0.2-0.3-0.2c0,0,0,0,0,0C57.4,177.5,57.2,177.6,57.2,177.8L57.2,177.8z
		"/>
	<path class="st0" d="M57.5,177.4c0.1-0.1,0.1-0.1,0.1-0.1C57.6,177.2,57.4,177.2,57.5,177.4z"/>
	<path class="st0" d="M54.6,187.4L54.6,187.4L54.6,187.4z"/>
	<path class="st0" d="M54.5,187.8C54.5,187.8,54.5,187.8,54.5,187.8C54.5,187.8,54.5,187.7,54.5,187.8z"/>
	<path class="st0" d="M54.8,182.3L54.8,182.3L54.8,182.3z"/>
	<path class="st0" d="M54.7,185.6c0.1,0,0.2,0.1,0.2,0.1C54.9,185.6,54.8,185.6,54.7,185.6z"/>
	<path class="st0" d="M54.7,184.5C54.7,184.5,54.7,184.5,54.7,184.5C54.7,184.5,54.7,184.5,54.7,184.5z"/>
	<path class="st0" d="M54.8,182.1c0.1,0.1,0.1,0.1,0.1,0.2C54.8,182.3,54.9,182.2,54.8,182.1z"/>
	<polygon class="st0" points="54.3,188.4 54.2,188.3 54.3,188.4 	"/>
	<path class="st0" d="M54.6,188c0,0,0-0.1-0.1-0.1C54.5,187.9,54.5,188,54.6,188z"/>
	<polygon class="st0" points="55.3,186.3 55.1,186.3 55.2,186.4 	"/>
</g>
<g>
	<polygon class="st0" points="44.7,192.9 44.9,192.9 44.7,192.8 	"/>
	<path class="st0" d="M45,191.8c-0.1-0.1-0.2-0.3-0.5-0.3l0.3,0.2c-0.2,0-0.2,0.1-0.1,0.2v-0.1c0,0,0.2,0,0.2,0.1
		c-0.1,0.2,0.2,0.3-0.1,0.4h0l0.1,0.1c0,0-0.1,0-0.2,0c0.1,0.1,0.2,0.2,0.2,0.4c0.4-0.1-0.3-0.4,0.1-0.5h0
		C44.8,192.1,45.1,192,45,191.8L45,191.8z"/>
	<path class="st0" d="M44.6,192.4L44.6,192.4L44.6,192.4z"/>
	<path class="st0" d="M44.1,185.8L44.1,185.8C44,185.8,44.1,185.8,44.1,185.8z"/>
	<path class="st0" d="M43.9,187.8L43.9,187.8C43.8,187.8,43.8,187.8,43.9,187.8z"/>
	<path class="st0" d="M46.8,175.9L46.8,175.9C46.8,175.9,46.7,175.9,46.8,175.9z"/>
	<path class="st0" d="M48,173.9L48,173.9L48,173.9z"/>
	<path class="st0" d="M46.3,174.1L46.3,174.1C46.2,174.1,46.3,174.1,46.3,174.1z"/>
	<path class="st0" d="M46.6,173.2C46.6,173.2,46.7,173.2,46.6,173.2C46.7,173.1,46.6,173.1,46.6,173.2z"/>
	<path class="st0" d="M48,173.9C48,173.9,48,173.9,48,173.9C48,173.9,48,173.9,48,173.9z"/>
	<path class="st0" d="M45.6,175.2l-0.2-0.1C45.4,175.2,45.5,175.2,45.6,175.2z"/>
	<path class="st0" d="M46.7,172.9c0,0,0.1,0,0.1,0C46.7,172.9,46.7,172.9,46.7,172.9z"/>
	<path class="st0" d="M45,191.6C45,191.6,45,191.7,45,191.6C45,191.7,45,191.6,45,191.6z"/>
	<path class="st0" d="M43.5,179.7C43.5,179.7,43.5,179.7,43.5,179.7C43.5,179.7,43.5,179.7,43.5,179.7z"/>
	<path class="st0" d="M44.6,177L44.6,177C44.6,177,44.6,177,44.6,177L44.6,177L44.6,177z"/>
	<path class="st0" d="M44.3,177.8L44.3,177.8C44.3,177.8,44.3,177.8,44.3,177.8z"/>
	<path class="st0" d="M44.7,176.4C44.7,176.4,44.6,176.3,44.7,176.4L44.7,176.4z"/>
	<path class="st0" d="M45.1,175.9c-0.1,0-0.1-0.1-0.2-0.1c-0.2,0.1,0.1,0.2-0.2,0.3l0.1,0c0.1,0.2,0.1,0.3-0.2,0.4l0-0.1
		c0.1,0.2-0.2,0.2-0.1,0.3c0.1,0,0.1,0.1,0.2,0l0.1,0.3l-0.3-0.1l0,0.2c0.1,0-0.2,0.1,0.1,0.2c-0.1,0-0.2-0.1-0.3-0.2
		c0.1,0.1-0.1,0.1,0.1,0.2l-0.3,0l0.1,0.2c0,0,0,0-0.1,0c0.2,0.2-0.2,0.2,0.1,0.4c0,0,0,0,0,0c0.2,0.1,0,0.2-0.1,0.2
		c0,0.1,0.2,0.1,0.3,0.2c-0.2,0.2-0.1,0.2,0.1,0.5c-0.4,0-0.4-0.3-0.7-0.2c0.1,0.1,0.2,0.2,0.2,0.4c-0.1,0.1-0.3,0.3-0.5,0.3
		l0.2,0.1l0.1,0.2l-0.2-0.2c0.1,0.1,0.1,0.2,0.2,0.3c0.1,0.2-0.5,0-0.2,0.2h-0.1c0.1,0.1,0,0.2,0.1,0.4l-0.2-0.1l0.1-0.1
		c-0.3,0,0,0.2,0,0.2c0.1,0.1,0.3,0.1,0.3,0.2c0,0,0,0.1,0,0.1c-0.1,0.1-0.3-0.1-0.4-0.1c0.2,0.1,0.2,0.2,0.3,0.4
		c-0.1,0-0.2-0.1-0.2-0.1c0,0,0.1,0.1,0.2,0.1h-0.2c-0.3,0.1,0.4,0.3,0.3,0.5c-0.1-0.1,0,0.2-0.2,0.2c0-0.1-0.4-0.1-0.5-0.2
		c-0.1,0.1,0.3,0.2,0.3,0.3l-0.3-0.1c0.1,0.2,0.2,0.1,0.2,0.2c-0.1-0.1-0.1,0-0.2-0.1c-0.1,0.2,0,0.1-0.1,0.3l0.3,0.1
		c0,0.1-0.1,0-0.2,0c0,0,0-0.1,0-0.1c-0.3,0,0.1,0.1-0.1,0.1c0.1,0,0.2,0,0.2,0.1c-0.2-0.1-0.2,0.1-0.3,0c0.1,0,0,0.2,0.2,0.2
		c-0.2,0-0.1-0.1-0.2-0.1c0.2,0.1,0,0.3,0.1,0.4c0,0,0,0,0,0c0.1,0.1,0.1,0.3,0.3,0.5l-0.2-0.1c-0.1,0.1,0.4,0.2,0.3,0.3
		c-0.2-0.1,0,0.2-0.3,0.1c0.1,0.1,0.2,0.2,0.4,0.3c-0.2,0-0.3-0.2-0.4-0.1l0.1,0.1h-0.1c0.1,0,0.1,0.1,0.2,0.1c-0.2,0-0.3,0-0.4,0
		c0,0.1-0.1,0.2,0,0.3h-0.1c0.3,0.1,0,0.2,0.4,0.3l-0.2,0c0,0.1,0.4,0.1,0.4,0.2c0,0,0,0.1,0,0.1c-0.2-0.1-0.2,0.1-0.4,0.1
		c0,0.1,0,0.2,0.2,0.3c-0.2-0.1-0.3,0-0.3-0.1c-0.3,0.1,0.1,0.2,0.1,0.3l-0.1,0c0.1,0.2,0.4,0.2,0.6,0.2c-0.2,0.1-0.2,0.1-0.4,0
		c-0.1,0.1,0.1,0.3,0.1,0.5c-0.1,0.1-0.2,0.1-0.3,0c0.2,0.1,0.1,0.4,0.4,0.4c-0.1,0-0.1,0.1-0.1,0.2c0.1,0,0.1,0,0.1,0
		c0.2,0.1,0.3,0.2,0.3,0.4h-0.1c0,0.2,0.6,0.2,0.5,0.5c0,0.1-0.3,0-0.2,0.1c0.1,0,0.4-0.1,0.3,0.1l-0.2,0.1h0.2
		c0.1-0.1,0-0.2,0.3-0.2c-0.2,0.2,0.2,0,0,0.2c0,0-0.2,0-0.3,0c-0.2,0.4,0.3,0.3,0.2,0.7c0.2,0.1,0.3,0.3,0.5,0.4
		c-0.2,0-0.4,0.1-0.6,0.1c0,0.1,0.5,0.1,0.2,0.2c0.3,0,0.2,0.3,0.7,0.3c-0.1,0,0,0.1-0.2,0c0.2,0.1-0.3,0.3-0.3,0.4
		c0,0,0.2-0.1,0.3,0c0,0-0.1,0-0.1,0l0.1,0c-0.1,0.1-0.2,0-0.3,0c-0.1,0.1,0.3,0.2,0.3,0.4l-0.1,0v0.2h0l0.2,0.1h-0.1
		c0,0,0.1,0,0.1,0.1h-0.1c0.2,0,0.3,0.2,0.3,0.3l-0.1,0l0.3,0.2c-0.1,0.1-0.3-0.1-0.2,0.1l-0.3-0.1c0.1,0.1,0,0.2,0,0.3
		c0.1,0,0.1-0.1,0.2-0.1c-0.3,0.1,0.1,0.2,0.2,0.3c0-0.1,0-0.1-0.1-0.1c0-0.1,0.1,0,0.2-0.1l-0.2-0.1l0.2,0l-0.1-0.1
		c0.2,0,0-0.1,0.2-0.1c-0.1-0.1,0.1-0.2-0.2-0.2c0.1-0.1,0.2,0.1,0.2,0c-0.2-0.4-0.2-0.8-0.2-1.2l0.1,0c-0.1,0-0.2-0.1-0.3-0.1
		c0.2-0.1,0.3-0.4,0-0.4c0,0,0.1,0,0.1,0c-0.1-0.1,0.1-0.4,0-0.6c-0.4,0,0.1-0.4-0.3-0.3h0.1c-0.1,0.1-0.3,0-0.4,0
		c0.3-0.1,0.2-0.1,0.5-0.2l-0.1,0.1l0.2-0.1c-0.7-0.1,0.1-0.5-0.4-0.5c0,0,0.1,0,0.1,0c0.1-0.1-0.2-0.1-0.3-0.1c0.1-0.1,0.2,0,0.3,0
		c0-0.2-0.4-0.4-0.2-0.6c-0.2,0-0.2,0.1-0.4,0.1c0-0.1,0.1-0.1,0.2-0.1c0.2-0.2-0.4-0.4-0.1-0.7c-0.2-0.1-0.3,0-0.4-0.1
		c0.1,0,0.4-0.1,0.4,0l0.1,0c0-0.2,0-0.4-0.4-0.4c0.3,0,0,0,0.2-0.1c0,0,0,0-0.1,0c-0.2,0,0-0.1,0-0.1h0l-0.2-0.1
		c0,0,0.1-0.1,0.2-0.1h-0.2c0-0.1,0.2,0,0.2-0.1l-0.1,0c0.1-0.1-0.1-0.1,0.1-0.1c0,0,0,0,0,0c0.3-0.1-0.1-0.2,0.1-0.3h-0.3
		c-0.1-0.1,0.1-0.1,0.2-0.1c0-0.1,0.1-0.1,0.2-0.1c-0.1-0.1-0.1,0-0.2-0.1l0.1-0.1l0.2,0.1c-0.4-0.2,0.1-0.4-0.2-0.6
		c0.1,0,0.2,0.1,0.2,0.1c0.2-0.1-0.2-0.5,0.1-0.6c0.3-0.2,0.1-0.5,0.4-0.8l-0.1,0l0.1-0.2c-0.2-0.1,0-0.2-0.2-0.4
		c0.1,0,0.2,0,0.2,0.1c0-0.1-0.1-0.2,0.1-0.2l0.1,0.1c0.1-0.2,0.2-0.4,0.1-0.6c0-0.1,0.1,0,0.2,0c0-0.1,0-0.2-0.1-0.3
		c0,0,0.1,0,0.2,0l-0.2-0.1c0,0,0.2,0,0.2,0c-0.2-0.2,0.1-0.4,0.1-0.5l-0.1,0c-0.1-0.1,0.1-0.1,0.2,0c0.2-0.2-0.2-0.4,0-0.7
		c0.4,0.1,0-0.3,0.4-0.2c0-0.2,0.1-0.2-0.1-0.4c0,0,0.1,0,0.1,0c0.2,0,0.1-0.2,0.1-0.4l0.1,0c-0.2-0.1-0.1-0.3-0.3-0.5
		c0.1,0,0.1,0.1,0.1,0.1c0.3,0-0.1-0.2,0-0.2c0.1,0,0.1,0,0.2,0.1c0.4-0.2,0.1-0.8,0.4-1.1c0-0.1-0.3-0.1-0.2-0.2
		c0.1,0,0.2,0.2,0.3,0.1c-0.1-0.1-0.1-0.1,0-0.2c0.1,0.1,0.1,0.1,0.2,0.1c0.1,0-0.1-0.3,0.1-0.3c-0.1,0-0.1-0.1-0.1-0.1
		c-0.2-0.2,0.4-0.2,0.2-0.3c0,0,0-0.1-0.1,0c0-0.1,0.1-0.1,0.2,0c-0.1-0.1-0.2-0.1-0.1-0.2l0.1,0.1c0,0-0.1-0.1-0.1-0.1h-0.1
		c0.1,0-0.1-0.2,0.2-0.1v0l0.2-0.1c-0.1-0.1-0.2-0.2-0.1-0.2c0.3,0.1,0.2-0.1,0.2-0.2l0.1,0.1c-0.1-0.1,0.1-0.3,0-0.3
		c0-0.1,0.2-0.1,0.2-0.1c0-0.1,0-0.2-0.1-0.3h0.3c-0.3-0.2,0.2-0.1-0.1-0.3c0.1,0,0.2,0,0.2,0c-0.1-0.2-0.1-0.2,0-0.3l0,0
		c0.1,0,0-0.2,0-0.3l0.2,0.2c0-0.1-0.2-0.2-0.1-0.2c0,0,0,0,0,0.1c0-0.1,0.1-0.1,0.2,0c-0.1-0.2,0-0.2-0.1-0.4
		c0.2,0.2,0,0.1,0.2,0.3c0.1,0.1,0.1-0.1,0.1-0.2c0,0.1,0,0.1,0,0.2c0,0,0-0.2,0-0.4c0-0.2,0.1-0.5,0-0.6c0-0.2,0.1-0.3-0.1-0.5
		c0,0.1-0.2,0.3-0.3,0.1l0.1,0.2c-0.2,0.2-0.1-0.4-0.5-0.3l0.1,0c-0.1,0,0,0.2-0.1,0.1c-0.1,0,0-0.1,0-0.1c0,0.1-0.1,0.2-0.1,0.4
		c-0.1-0.1-0.1-0.2-0.1-0.3c-0.2,0.1,0.2,0.3,0,0.4c-0.1,0-0.1-0.1-0.1-0.2c-0.2-0.1-0.2,0.1-0.2,0.3c-0.1-0.1,0-0.2-0.2-0.2
		c0.1,0.1,0.2,0.2,0.2,0.2c-0.1-0.2-0.1,0-0.2,0c0.1,0,0.1,0.1,0.1,0.1c0,0.1-0.1,0-0.1,0.1l0.2,0.1c0.1,0.2-0.2,0.1-0.3,0.1
		c0,0,0-0.1,0-0.1c-0.1,0-0.3,0.1-0.2,0.2v0c0,0.3,0.3,0.1,0.3,0.4c-0.1,0.1-0.5-0.3-0.4-0.1c0.2,0,0.3,0.3,0.3,0.4l-0.3-0.3
		c0,0,0,0.1,0,0.2l0.1,0c0.3,0.1-0.1,0.1,0,0.3c-0.3-0.3-0.3-0.2-0.6-0.4c0.2,0.2,0.3,0.4,0.2,0.4l-0.2-0.2
		c-0.2,0.1,0.2,0.5,0.4,0.8c-0.2-0.1-0.3-0.1-0.5-0.3l0,0.2l-0.2-0.2c0.2,0.2,0,0.2,0.3,0.3c0,0-0.1-0.1,0-0.1
		c0.1,0.1,0.3,0.2,0.2,0.2c-0.1,0-0.1-0.1-0.2-0.1c0.1,0.1-0.1,0,0,0.1l0.2,0c0.2,0.1,0,0.1,0,0.2c-0.1-0.1-0.2-0.1-0.3-0.2h0
		c0,0.1,0.1,0.2,0,0.1l-0.2-0.2l0.2,0.1c0,0-0.1,0-0.2-0.1c-0.2,0.1,0.6,0.2,0.2,0.4c-0.1-0.1-0.2-0.1-0.1-0.1
		c-0.2-0.1-0.2-0.1-0.3-0.1c0,0,0,0,0,0C45,175.6,44.9,175.8,45.1,175.9L45.1,175.9z"/>
	<path class="st0" d="M45.1,175.4c0-0.1,0.1-0.1,0-0.2C45.1,175.2,45,175.3,45.1,175.4z"/>
	<path class="st0" d="M42.7,186.2C42.7,186.2,42.7,186.2,42.7,186.2L42.7,186.2z"/>
	<path class="st0" d="M42.9,186.8C42.9,186.8,43,186.7,42.9,186.8C42.9,186.7,42.9,186.7,42.9,186.8z"/>
	<path class="st0" d="M43.3,180.6L43.3,180.6L43.3,180.6z"/>
	<path class="st0" d="M42.4,183.8c0.1,0.1,0.2,0.1,0.2,0.1C42.6,183.9,42.6,183.8,42.4,183.8z"/>
	<path class="st0" d="M42.8,182.7L42.8,182.7C42.7,182.7,42.8,182.7,42.8,182.7z"/>
	<path class="st0" d="M43.3,180.4c0.1,0.1,0,0.1,0.1,0.2C43.3,180.5,43.4,180.5,43.3,180.4z"/>
	<polygon class="st0" points="43.5,187.3 43.3,187.3 43.4,187.4 	"/>
	<path class="st0" d="M43.2,186.9c0,0-0.1-0.1-0.2-0.1C43.1,186.8,43.1,186.8,43.2,186.9z"/>
	<polygon class="st0" points="42.9,184.7 42.8,184.7 42.9,184.8 	"/>
</g>
<g>
	<polygon class="st0" points="44.6,174.3 44.7,174.4 44.6,174.2 	"/>
	<path class="st0" d="M45.2,173.8c-0.1-0.2,0-0.3-0.3-0.5l0.1,0.3c-0.2-0.1-0.2-0.1-0.2,0l0-0.1c0,0,0.1,0.1,0.1,0.2
		c-0.2,0,0,0.2-0.2,0.2v0l0,0.2c0,0-0.1-0.1-0.1-0.1c0,0.1,0.1,0.3,0,0.3c0.4,0.2-0.1-0.4,0.3-0.2v0C45,173.9,45.2,174,45.2,173.8
		L45.2,173.8z"/>
	<path class="st0" d="M44.7,173.9L44.7,173.9C44.7,173.9,44.7,173.9,44.7,173.9z"/>
	<path class="st0" d="M47.8,170.7L47.8,170.7C47.8,170.7,47.8,170.7,47.8,170.7z"/>
	<path class="st0" d="M46.4,171.2L46.4,171.2C46.3,171.1,46.3,171.1,46.4,171.2z"/>
	<path class="st0" d="M54.1,167.8L54.1,167.8C54.2,167.8,54.1,167.8,54.1,167.8z"/>
	<path class="st0" d="M56,167.6L56,167.6L56,167.6z"/>
	<path class="st0" d="M54.9,166.4L54.9,166.4C54.9,166.3,54.9,166.4,54.9,166.4z"/>
	<path class="st0" d="M55.5,166.2C55.5,166.2,55.5,166.2,55.5,166.2C55.5,166.2,55.5,166.2,55.5,166.2z"/>
	<path class="st0" d="M55.9,167.6C55.9,167.6,55.9,167.6,55.9,167.6C56,167.6,55.9,167.6,55.9,167.6z"/>
	<path class="st0" d="M54,166.4l-0.1-0.2C53.9,166.3,54,166.4,54,166.4z"/>
	<path class="st0" d="M55.6,166C55.6,166,55.7,166.1,55.6,166C55.7,166,55.6,166,55.6,166z"/>
	<path class="st0" d="M45.3,173.7C45.3,173.7,45.3,173.8,45.3,173.7C45.3,173.8,45.3,173.8,45.3,173.7z"/>
	<path class="st0" d="M50.5,167.1C50.5,167.1,50.5,167.1,50.5,167.1C50.5,167.1,50.5,167.1,50.5,167.1z"/>
	<path class="st0" d="M52.5,166.6L52.5,166.6C52.5,166.6,52.5,166.5,52.5,166.6L52.5,166.6L52.5,166.6z"/>
	<path class="st0" d="M52,166.8L52,166.8C52,166.7,52,166.7,52,166.8z"/>
	<path class="st0" d="M52.9,166.2C52.9,166.2,52.9,166.2,52.9,166.2L52.9,166.2z"/>
	<path class="st0" d="M53.4,166.4c0-0.1,0-0.1,0-0.2c-0.1-0.1-0.1,0.2-0.3,0l0.1,0.1c0,0.2-0.2,0.2-0.3,0v-0.1c0,0.2-0.2-0.1-0.2,0
		c0.1,0.1,0,0.1,0.1,0.2l-0.1,0.2l-0.1-0.3l-0.1,0.1c0,0.1-0.1-0.1-0.1,0.2c-0.1-0.1,0-0.2,0-0.3c0,0.1-0.1,0-0.1,0.1l-0.1-0.2
		l-0.1,0.2c0,0,0,0,0-0.1c0,0.2-0.2-0.1-0.2,0.3c0,0,0,0,0,0c0,0.2-0.1,0.1-0.2,0.1c0,0.1,0,0.2,0.1,0.4c-0.2,0-0.1,0-0.2,0.3
		c-0.2-0.3,0-0.5-0.2-0.7c0,0.1,0,0.3-0.1,0.4c-0.1-0.1-0.3-0.1-0.5-0.3l0.1,0.2l-0.1,0.1l0-0.3c0,0.1,0,0.2,0,0.3
		c-0.1,0.2-0.2-0.4-0.2-0.1l0-0.1c0,0.2-0.1,0.1-0.2,0.2l-0.1-0.3l0.1,0c-0.1-0.2-0.1,0.1-0.2,0.1c0,0.1,0.1,0.3,0.1,0.4
		c0,0,0,0.1-0.1,0c-0.1-0.1-0.1-0.3-0.2-0.4c0.1,0.3,0,0.2,0,0.4c-0.1-0.1-0.1-0.2-0.1-0.2c0,0,0,0.1,0,0.2l-0.1-0.1
		c-0.2-0.1,0.1,0.5-0.1,0.5c0-0.1-0.1,0.1-0.2-0.1c0-0.1-0.2-0.3-0.2-0.5c-0.2,0,0.1,0.3,0,0.4l-0.1-0.3c0,0.2,0.1,0.2,0,0.3
		c0-0.1-0.1-0.1-0.1-0.2c-0.1,0-0.1,0.1-0.2,0.1l0.1,0.3c0,0.1-0.1-0.1-0.1-0.1c0,0,0,0,0-0.1c-0.2-0.2,0,0.2-0.2,0
		c0.1,0.1,0.1,0.2,0.1,0.2c-0.1-0.2-0.2-0.1-0.2-0.2c0.1,0.1-0.1,0.1,0,0.3c-0.1-0.1-0.1-0.1-0.1-0.2c0.1,0.2-0.2,0.1-0.1,0.3
		c0,0,0,0,0,0c0,0.2,0,0.2,0,0.5l-0.1-0.2c-0.1,0,0.2,0.4,0.1,0.4c-0.1-0.2-0.1,0.1-0.2-0.2c0,0.2,0,0.2,0.1,0.4
		c-0.1-0.1-0.1-0.4-0.2-0.4v0.2l-0.1-0.1c0.1,0.1,0,0.1,0.1,0.2c-0.1-0.1-0.2-0.2-0.3-0.3c0,0.1-0.2,0-0.1,0.1l-0.1-0.1
		c0.2,0.3-0.1,0.1,0.1,0.4l-0.1-0.1c0,0.1,0.2,0.3,0.2,0.4c0,0,0,0.1-0.1,0.1c-0.1-0.2-0.2-0.2-0.3-0.2c0,0-0.1,0.1,0,0.3
		c-0.1-0.2-0.2-0.2-0.1-0.3c-0.2-0.2-0.1,0.1-0.2,0.2l-0.1-0.1c0,0.2,0.1,0.4,0.3,0.6c-0.1-0.1-0.2-0.2-0.3-0.3
		c-0.1,0-0.2,0.2-0.2,0.2c-0.1-0.1-0.2-0.1-0.2-0.2c0,0.2-0.2,0.2,0,0.4c-0.1-0.1-0.1,0-0.2,0c0,0.1,0.1,0.1,0.1,0.1
		c0.1,0.1,0.1,0.3-0.1,0.3l-0.1-0.1c-0.2,0.1,0.2,0.5-0.1,0.5c-0.1,0-0.2-0.2-0.2-0.1c0.1,0.1,0.3,0.2,0.2,0.3l-0.2-0.1l0.1,0.2
		c0.2,0.1,0.2,0,0.3,0.1c-0.2-0.1,0.1,0.2-0.1,0.1c0,0-0.1-0.1-0.2-0.2c-0.3,0,0,0.4-0.3,0.4c0.1,0.2,0,0.3,0.1,0.4
		c-0.2-0.1-0.3-0.2-0.5-0.4c-0.1,0.1,0.3,0.4,0,0.2c0.2,0.2,0,0.3,0.4,0.5c-0.1,0,0,0.1-0.2-0.1c0.1,0.2-0.4,0-0.4,0
		c0,0,0.2,0.1,0.2,0.2c0,0-0.1,0-0.1,0l0.1,0.1c-0.1,0-0.2-0.1-0.3-0.2c-0.1,0,0.1,0.2,0.1,0.4l-0.1-0.1l-0.1,0.1l0,0l0.1,0.2
		l-0.1-0.1c0,0,0.1,0.1,0,0.1l-0.1-0.1c0.2,0.1,0.2,0.3,0.1,0.4l0,0l0.1,0.3c-0.2,0-0.2-0.3-0.2-0.1l-0.2-0.2c0,0.1-0.1,0.1-0.1,0.2
		c0.1,0.1,0.1,0,0.2,0.1c-0.3-0.1,0,0.1,0,0.3c0,0,0-0.1-0.1-0.2c0,0,0.1,0.1,0.1,0.1l-0.1-0.1l0.2,0.1l0-0.2
		c0.2,0.1,0.1-0.1,0.2,0.1c0-0.1,0.1-0.1,0-0.2c0.1,0,0.1,0.2,0.1,0.1c0.1-0.3,0.3-0.6,0.5-0.8l0.1,0.1c-0.1-0.1-0.1-0.1-0.2-0.2
		c0.2,0,0.5,0,0.2-0.2c0,0,0,0,0.1,0.1c0-0.1,0.3-0.1,0.3-0.2c-0.3-0.2,0.3,0-0.1-0.3l0.1,0.1c-0.1,0-0.2-0.2-0.3-0.3
		c0.3,0.1,0.2,0.1,0.5,0.2l-0.1,0l0.2,0.1c-0.4-0.5,0.4-0.1,0.1-0.4c0,0,0.1,0.1,0.1,0.1c0.2,0-0.1-0.2-0.1-0.3
		c0.1,0.1,0.1,0.1,0.2,0.2c0.1,0,0-0.4,0.2-0.3c-0.1-0.1-0.2-0.1-0.2-0.2c0.1,0,0.2,0.1,0.2,0.2c0.3,0.1,0.1-0.4,0.4-0.3
		c-0.1-0.2-0.2-0.2-0.2-0.4c0.1,0.1,0.3,0.3,0.3,0.3l0.1,0.1c0.1-0.1,0.3-0.1,0.1-0.5c0.2,0.2,0,0,0.2,0.1c0,0,0,0,0,0
		c-0.1-0.2,0.1,0,0.1-0.1l0,0l0-0.2c0,0,0.1,0,0.1,0.1l-0.1-0.1c0,0,0.2,0.2,0.2,0.1l-0.1-0.1c0.1,0,0-0.1,0.1,0c0,0,0,0,0,0
		c0.2,0.2,0.1-0.2,0.2-0.1l-0.2-0.2c0-0.1,0.1,0,0.1,0.1c0,0,0.1,0,0.2,0c0-0.1,0-0.1-0.1-0.2l0.1,0l0.1,0.2
		c-0.2-0.4,0.2-0.1,0.1-0.5c0.1,0.1,0.1,0.2,0.1,0.2c0.2,0.1,0.1-0.4,0.3-0.3c0.2,0.1,0.3-0.2,0.5-0.1l0-0.1H50c0-0.2,0.1-0.1,0-0.4
		c0,0.1,0.1,0.1,0.1,0.2c0-0.1,0.1-0.1,0.1-0.1v0.1c0.2,0,0.3-0.1,0.3-0.2c0,0,0.1,0.1,0.1,0.2c0.1,0,0.1-0.1,0.1-0.3
		c0,0,0.1,0.1,0.1,0.1l0-0.2c0,0,0.1,0.1,0.1,0.2c0-0.3,0.2-0.1,0.3-0.1l0-0.1c0-0.1,0.1,0,0.1,0.1c0.2,0.1,0.1-0.4,0.3-0.4
		c0.1,0.3,0.2-0.2,0.3,0.2c0.1-0.1,0.2,0,0.2-0.2c0,0,0,0.1,0,0.1c0.1,0.1,0.2,0,0.2-0.1l0,0.1c0-0.3,0.1-0.2,0.1-0.5
		c0,0.1,0,0.1,0,0.2c0.1,0.2,0-0.1,0.1-0.1c0,0.1,0,0.1,0,0.2c0.3,0.2,0.4-0.3,0.8-0.2c0.1,0-0.1-0.3,0-0.3c0.1,0.1,0,0.3,0.1,0.3
		c0-0.2,0-0.1,0.1-0.1c0,0.1,0,0.1,0,0.2c0.1,0.1,0.1-0.2,0.2,0c0-0.1,0-0.1,0-0.2c0.1-0.2,0.3,0.2,0.3,0.1c0,0,0,0,0-0.1
		c0,0,0.1,0,0.1,0.2c0-0.1,0-0.2,0-0.2v0.2c0,0,0-0.1,0-0.2l0-0.1c0.1,0.1,0.1-0.2,0.1,0.1h0l0.1,0.1c0-0.1,0-0.2,0.1-0.2
		c0.1,0.3,0.1,0,0.2,0.1v0.1c0-0.2,0.2-0.1,0.2-0.2c0,0,0.1,0.1,0.1,0.1c0-0.1,0.1-0.1,0.1-0.3l0.1,0.2c0-0.4,0.2,0.1,0.1-0.3
		c0.1,0.1,0.1,0.1,0.1,0.2c0-0.2,0.1-0.2,0.2-0.2v0c0.1,0,0.1-0.2,0.2-0.2l0.1,0.3c0-0.1,0-0.3,0.1-0.2c0,0.1,0,0.1,0,0.1
		c0-0.1,0.1,0,0.2,0.1c0-0.2,0.1-0.2,0.1-0.4c0.1,0.3-0.1,0.1,0,0.4c0.1,0.1,0.2,0,0.3-0.2c0,0.1,0,0.1,0,0.2c0,0,0.1-0.8,0.1-1.1
		c0-0.2,0-0.3-0.1-0.5c0,0.1-0.1,0.3-0.1,0.1l0,0.2c-0.1,0.1-0.1-0.4-0.2-0.4l0,0.1c0,0,0,0.2-0.1,0.1c0-0.1,0-0.1,0-0.1l-0.1,0.3
		c0-0.1,0-0.2,0-0.3c-0.1,0,0.1,0.4-0.1,0.3c0-0.1,0-0.1,0-0.2c-0.1-0.2-0.1,0-0.2,0.1c0-0.2,0-0.2,0-0.3c0,0.1,0.1,0.3,0,0.3
		c0-0.2-0.1-0.1-0.1-0.1c0,0.1,0,0.1,0,0.2c0,0,0,0-0.1,0l0.1,0.2c0,0.2-0.1-0.1-0.2-0.1c0,0,0-0.1,0-0.1c-0.1-0.1-0.2-0.2-0.2,0v0
		c-0.1,0.2,0.1,0.3,0,0.5c-0.1,0-0.1-0.6-0.2-0.4c0.1,0.1,0,0.4-0.1,0.5l0-0.4c0,0-0.1,0.1-0.1,0.1l0,0.1c0.1,0.3-0.1,0-0.1,0.2
		c0-0.4,0-0.4,0-0.8c0,0.2,0,0.5-0.1,0.4l0-0.3c-0.1-0.1-0.2,0.4-0.3,0.7c0-0.2-0.1-0.3-0.1-0.5l-0.1,0.1v-0.3c0,0.3-0.1,0.1,0,0.4
		c0-0.1,0-0.1,0-0.1c0,0.1,0,0.3,0,0.3c-0.1-0.1,0-0.1,0-0.2c0,0.1-0.1-0.1-0.1,0l0.1,0.1c0,0.2-0.1,0-0.1,0.1c0-0.1,0-0.2,0-0.3v0
		c0,0,0,0.2-0.1,0.1l0-0.3v0.2c0,0-0.1-0.1,0-0.2c-0.2-0.1,0.1,0.6-0.1,0.4c0-0.1,0-0.2,0.1-0.1c0-0.2-0.1-0.3-0.1-0.3c0,0,0,0,0,0
		C53.6,166.2,53.5,166.2,53.4,166.4L53.4,166.4z"/>
	<path class="st0" d="M53.7,166.2c0,0,0.1,0,0.1-0.1C53.8,166.1,53.6,166,53.7,166.2z"/>
	<path class="st0" d="M46.8,169.7C46.8,169.7,46.8,169.7,46.8,169.7L46.8,169.7z"/>
	<path class="st0" d="M46.5,170.1C46.5,170.1,46.6,170.1,46.5,170.1C46.5,170.1,46.5,170.1,46.5,170.1z"/>
	<path class="st0" d="M50,167.4L50,167.4L50,167.4z"/>
	<path class="st0" d="M47.8,168.6c0,0.1,0.1,0.2,0.1,0.2C47.9,168.8,47.9,168.7,47.8,168.6z"/>
	<path class="st0" d="M48.6,168.2C48.6,168.2,48.6,168.2,48.6,168.2C48.6,168.2,48.6,168.2,48.6,168.2z"/>
	<path class="st0" d="M50.1,167.2c0,0.1,0,0.1-0.1,0.2C50,167.4,50.1,167.4,50.1,167.2z"/>
	<polygon class="st0" points="46.4,170.7 46.3,170.6 46.4,170.6 	"/>
	<path class="st0" d="M46.6,170.3c0,0,0-0.1-0.1-0.1C46.6,170.2,46.6,170.3,46.6,170.3z"/>
	<polygon class="st0" points="47.8,169.4 47.7,169.3 47.7,169.4 	"/>
</g>
<g>
	<polygon class="st0" points="39.5,216.8 39.7,216.8 39.5,216.7 	"/>
	<path class="st0" d="M39.7,216.1c-0.2-0.1-0.2-0.2-0.5-0.2l0.2,0.1c-0.2,0-0.2,0.1-0.2,0.1v-0.1c0,0,0.2,0,0.2,0
		c-0.1,0.1,0.2,0.1-0.1,0.2h0l0.2,0.1c0,0-0.1,0-0.2,0c0.1,0.1,0.2,0.1,0.2,0.2c0.4-0.1-0.3-0.2,0.1-0.3h0
		C39.5,216.3,39.8,216.3,39.7,216.1L39.7,216.1z"/>
	<path class="st0" d="M39.3,216.5L39.3,216.5C39.3,216.5,39.3,216.5,39.3,216.5z"/>
	<path class="st0" d="M40.9,212.9L40.9,212.9C40.8,212.9,40.9,212.9,40.9,212.9z"/>
	<path class="st0" d="M39.7,213.7L39.7,213.7C39.6,213.7,39.6,213.7,39.7,213.7z"/>
	<path class="st0" d="M44.2,207.2L44.2,207.2C44.2,207.2,44.1,207.2,44.2,207.2z"/>
	<path class="st0" d="M45.4,206.2L45.4,206.2L45.4,206.2z"/>
	<path class="st0" d="M44,205.7L44,205.7C43.9,205.7,44,205.7,44,205.7z"/>
	<path class="st0" d="M44.3,205.2C44.3,205.2,44.4,205.2,44.3,205.2C44.4,205.2,44.3,205.2,44.3,205.2z"/>
	<path class="st0" d="M45.4,206.3C45.4,206.3,45.4,206.2,45.4,206.3C45.4,206.2,45.4,206.3,45.4,206.3z"/>
	<path class="st0" d="M43.3,206.2l-0.2-0.1C43.1,206.1,43.2,206.1,43.3,206.2z"/>
	<path class="st0" d="M44.3,205C44.3,205,44.4,205,44.3,205C44.4,205,44.4,205,44.3,205z"/>
	<path class="st0" d="M39.7,216C39.7,216,39.7,216.1,39.7,216C39.7,216.1,39.7,216.1,39.7,216z"/>
	<path class="st0" d="M41.1,208.6C41.1,208.6,41.1,208.6,41.1,208.6C41.1,208.6,41.1,208.6,41.1,208.6z"/>
	<path class="st0" d="M42.2,207.1L42.2,207.1C42.2,207.1,42.2,207.1,42.2,207.1L42.2,207.1z"/>
	<path class="st0" d="M41.9,207.6L41.9,207.6C41.9,207.5,41.9,207.6,41.9,207.6z"/>
	<path class="st0" d="M42.3,206.6C42.3,206.6,42.3,206.6,42.3,206.6L42.3,206.6z"/>
	<path class="st0" d="M42.8,206.5c-0.1,0-0.1-0.1-0.1-0.2c-0.2,0,0,0.2-0.2,0.2l0.1,0c0.1,0.2,0,0.3-0.2,0.2l0-0.1
		c0.1,0.2-0.2,0-0.1,0.1c0.1,0,0.1,0.1,0.2,0.1l0,0.2l-0.2-0.2l0,0.1c0.1,0.1-0.1,0,0.1,0.2c-0.1,0-0.2-0.1-0.2-0.2
		c0,0.1-0.1,0,0,0.2l-0.2-0.1l0.1,0.2c0,0,0,0-0.1,0c0.1,0.2-0.2,0.1,0.1,0.3c0,0,0,0,0,0c0.1,0.1,0,0.1-0.1,0.1
		c0,0.1,0.2,0.2,0.3,0.2c-0.2,0.1-0.1,0.1,0,0.4c-0.3-0.1-0.4-0.4-0.6-0.4c0.1,0.1,0.2,0.2,0.2,0.4c-0.1,0-0.3,0.1-0.5,0l0.2,0.1
		l0,0.2l-0.2-0.2c0,0.1,0.1,0.2,0.2,0.3c0.1,0.2-0.4-0.2-0.2,0.1l-0.1,0c0.1,0.1,0,0.1,0,0.3l-0.2-0.2l0.1,0c-0.2-0.1,0,0.1,0,0.1
		c0,0.1,0.3,0.2,0.3,0.2c0,0,0,0.1,0,0.1c-0.1,0-0.3-0.1-0.4-0.2c0.2,0.2,0.2,0.2,0.2,0.3c-0.1-0.1-0.2-0.1-0.2-0.1
		c0,0,0.1,0.1,0.2,0.1l-0.1,0c-0.2,0,0.4,0.3,0.2,0.4c-0.1-0.1,0,0.1-0.2,0.1c0-0.1-0.4-0.2-0.5-0.3c-0.1,0.1,0.3,0.2,0.3,0.3
		l-0.3-0.2c0.1,0.1,0.2,0.1,0.2,0.2c-0.1-0.1-0.1,0-0.2-0.1c-0.1,0.1,0,0.1-0.1,0.1l0.3,0.1c0,0-0.1,0-0.2,0c0,0,0,0,0-0.1
		c-0.3-0.1,0.1,0.1-0.1,0.1c0.1,0,0.2,0.1,0.2,0.1c-0.2-0.1-0.2,0-0.3-0.1c0.1,0,0,0.1,0.2,0.2c-0.2,0-0.1-0.1-0.2-0.1
		c0.2,0.1,0,0.2,0.1,0.3c0,0,0,0,0,0c0.1,0.1,0.1,0.2,0.3,0.4l-0.2-0.1c-0.1,0.1,0.3,0.2,0.3,0.3c-0.2-0.1,0,0.1-0.3,0
		c0.1,0.1,0.2,0.2,0.3,0.3c-0.2,0-0.3-0.2-0.4-0.2l0.1,0.1l-0.1-0.1c0.1,0.1,0.1,0.1,0.2,0.1c-0.2-0.1-0.3-0.1-0.4-0.1
		c0,0.1-0.1,0.1,0,0.1l-0.1,0c0.3,0.2,0,0.1,0.3,0.3l-0.2-0.1c0,0.1,0.3,0.2,0.4,0.3c0,0,0,0.1,0,0.1c-0.1-0.2-0.2-0.1-0.4-0.1
		c0,0,0,0.1,0.1,0.2c-0.1-0.1-0.3-0.1-0.2-0.2c-0.3-0.1,0,0.1-0.1,0.2l-0.1-0.1c0,0.1,0.3,0.3,0.5,0.4c-0.2-0.1-0.2-0.1-0.4-0.2
		c-0.1,0-0.1,0.2-0.1,0.3c-0.1,0-0.2-0.1-0.2-0.1c0.1,0.1-0.1,0.2,0.2,0.4c-0.1-0.1-0.1,0-0.2,0c0.1,0,0.1,0.1,0.1,0.1
		c0.1,0.1,0.2,0.3,0,0.3l-0.1-0.1c-0.1,0.1,0.4,0.4,0.1,0.5c-0.1,0-0.2-0.1-0.2-0.1c0.1,0.1,0.3,0.1,0.2,0.2l-0.2-0.1l0.2,0.1
		c0.2,0,0.1-0.1,0.3,0.1c-0.2,0,0.2,0.1-0.1,0.1c0,0-0.2-0.1-0.2-0.1c-0.3,0.1,0.1,0.3-0.2,0.4c0.1,0.1,0.1,0.3,0.3,0.4
		c-0.2-0.1-0.4-0.1-0.5-0.2c-0.1,0.1,0.4,0.2,0.1,0.2c0.3,0.1,0.1,0.3,0.5,0.4c-0.1,0,0,0.1-0.2-0.1c0.1,0.1-0.4,0-0.4,0.1
		c0,0,0.3,0,0.2,0.1c0,0-0.1,0-0.1,0l0.1,0c-0.1,0-0.2-0.1-0.3-0.1c-0.1,0.1,0.2,0.2,0.2,0.3l-0.1,0l0,0.1h0l0.1,0.1l-0.1,0
		c0,0,0.1,0,0.1,0.1l-0.1,0c0.2,0.1,0.3,0.2,0.3,0.2h-0.1l0.2,0.1c-0.2,0-0.3-0.1-0.2,0l-0.3-0.1c0.1,0.1-0.1,0.1,0,0.2
		c0.1,0,0.1-0.1,0.2,0c-0.3,0,0.1,0.1,0.2,0.2c0,0,0-0.1-0.1-0.1c0,0,0.1,0,0.2,0l-0.2-0.1h0.2l-0.1-0.1c0.2,0,0-0.1,0.3,0
		c-0.1-0.1,0.1-0.1-0.1-0.1c0.1,0,0.1,0.1,0.2,0.1c-0.1-0.2-0.1-0.5,0.1-0.7l0.1,0c-0.1-0.1-0.2-0.1-0.2-0.1c0.2,0,0.4-0.1,0.1-0.2
		c0,0,0.1,0,0.1,0c0-0.1,0.2-0.1,0.2-0.3c-0.3-0.1,0.2-0.1-0.2-0.3l0.1,0.1c-0.1,0-0.3-0.2-0.4-0.2c0.3,0.1,0.2,0.1,0.5,0.1h-0.1
		l0.2,0.1c-0.6-0.4,0.4-0.1,0-0.4c0,0,0.1,0,0.1,0c0.2,0-0.1-0.2-0.2-0.2c0.1,0,0.2,0.1,0.3,0.2c0.1-0.1-0.1-0.4,0.1-0.4
		c-0.1-0.1-0.2-0.1-0.3-0.2c0.1,0,0.2,0,0.2,0.1c0.3,0-0.1-0.4,0.3-0.4c-0.1-0.1-0.2-0.1-0.3-0.3c0.1,0.1,0.4,0.1,0.4,0.2l0.1,0.1
		c0.1-0.1,0.2-0.2-0.1-0.4c0.2,0.1,0.1,0,0.2,0c0,0,0,0-0.1,0c-0.2-0.1,0-0.1,0-0.1l0,0l-0.1-0.1c0,0,0.1,0,0.2,0l-0.2-0.1
		c0,0,0.2,0.1,0.2,0l-0.1-0.1c0.1,0-0.1-0.1,0.1-0.1c0,0,0,0,0,0c0.3,0.1,0-0.2,0.1-0.2l-0.3-0.1c-0.1-0.1,0.1,0,0.2,0
		c0-0.1,0.1,0,0.2-0.1c-0.1-0.1-0.1-0.1-0.2-0.1l0.1,0l0.1,0.1c-0.4-0.3,0.2-0.2-0.2-0.4c0.1,0,0.2,0.1,0.2,0.1
		c0.2,0-0.1-0.4,0.1-0.4c0.3-0.1,0.1-0.3,0.4-0.4l-0.1,0l0.1-0.1c-0.2-0.1,0-0.1-0.2-0.3c0.1,0,0.1,0.1,0.2,0.1c0-0.1,0-0.1,0.1-0.1
		l0.1,0.1c0.1-0.1,0.2-0.2,0.1-0.4c0,0,0.1,0,0.2,0.1c0-0.1,0-0.1-0.1-0.2c0,0,0.1,0,0.1,0l-0.2-0.1c0,0,0.2,0.1,0.2,0.1
		c-0.2-0.2,0.1-0.2,0.1-0.3l-0.1,0c0-0.1,0.1,0,0.2,0c0.2-0.1-0.2-0.4,0-0.5c0.3,0.2,0-0.2,0.4,0c0-0.1,0.1-0.1,0-0.3c0,0,0,0,0,0
		c0.2,0.1,0.1-0.1,0.1-0.2l0.1,0.1c-0.2-0.2-0.1-0.2-0.3-0.4c0,0,0.1,0.1,0.1,0.1c0.2,0.1,0-0.1,0-0.1c0,0,0.1,0.1,0.1,0.1
		c0.3,0,0.1-0.5,0.4-0.5c0,0-0.2-0.2-0.2-0.2c0.1,0.1,0.2,0.2,0.3,0.2c-0.1-0.1-0.1-0.1,0-0.2c0.1,0.1,0.1,0.1,0.1,0.2
		c0.1,0.1-0.1-0.2,0.1-0.1c-0.1-0.1-0.1-0.1-0.1-0.1c-0.1-0.2,0.3,0,0.2-0.1c0,0,0-0.1,0-0.1c0,0,0.1,0,0.2,0.1
		c0-0.1-0.1-0.1-0.1-0.2l0.1,0.1c0,0-0.1-0.1-0.1-0.1l-0.1-0.1c0.1,0.1,0-0.2,0.2,0l0,0l0.1,0.1c-0.1-0.1-0.1-0.2-0.1-0.2
		c0.2,0.2,0.1,0,0.2-0.1l0.1,0.1c-0.1-0.1,0.1-0.2,0-0.2c0,0,0.1,0,0.2,0.1c0-0.1,0-0.1-0.1-0.3l0.2,0.1c-0.2-0.3,0.2,0-0.1-0.3
		c0.1,0,0.1,0.1,0.2,0.1c-0.1-0.2,0-0.2,0-0.2l0,0c0.1,0,0-0.2,0-0.3l0.2,0.2c0-0.1-0.1-0.3,0-0.2c0,0,0,0.1,0,0.1
		c0-0.1,0.1,0,0.2,0c-0.1-0.2,0-0.2-0.1-0.4c0.2,0.2,0,0.1,0.2,0.3c0.2,0.1,0.1-0.1,0.2-0.3c0,0,0.1,0.1,0.1,0.1c0,0-0.2-0.7-0.4-1
		c-0.1-0.2-0.1-0.3-0.3-0.4c0,0.1,0,0.3-0.1,0.1l0.1,0.2c0,0.1-0.2-0.4-0.4-0.3l0.1,0c0,0,0,0.1,0,0.1c0,0,0-0.1-0.1-0.1l0,0.3
		c-0.1-0.1-0.1-0.2-0.1-0.2c-0.1,0.1,0.2,0.3,0.1,0.3c-0.1-0.1-0.1-0.1-0.1-0.2c-0.2-0.1-0.1,0.1-0.1,0.2c-0.1-0.1-0.1-0.2-0.2-0.2
		c0.1,0.1,0.2,0.2,0.2,0.2c-0.1-0.2-0.1-0.1-0.2-0.1c0.1,0.1,0.1,0.1,0.1,0.2c0,0-0.1,0-0.1,0l0.1,0.1c0,0.2-0.1,0-0.2,0
		c0,0,0-0.1,0-0.1c-0.1,0-0.2-0.1-0.2,0.1v0c0,0.2,0.2,0.2,0.2,0.5c-0.1,0-0.4-0.5-0.3-0.2c0.1,0.1,0.2,0.4,0.2,0.5l-0.2-0.3
		c0,0,0,0.1,0,0.1l0.1,0.1c0.2,0.2-0.1,0,0,0.2c-0.2-0.4-0.2-0.3-0.5-0.6c0.1,0.2,0.2,0.4,0.1,0.4l-0.2-0.3c-0.1,0,0.1,0.5,0.2,0.8
		c-0.2-0.2-0.2-0.2-0.4-0.4l0,0.1l-0.2-0.2c0.2,0.2,0,0.1,0.2,0.4c0,0-0.1-0.1,0-0.1c0.1,0.1,0.2,0.2,0.2,0.3
		c-0.1,0-0.1-0.1-0.2-0.2c0.1,0.1-0.1,0,0,0.1l0.1,0.1c0.1,0.2,0,0.1,0,0.1c0-0.1-0.1-0.2-0.2-0.2l0,0c0,0,0.1,0.2,0,0.1L43,206
		l0.1,0.2c0,0-0.1-0.1-0.1-0.1c-0.2,0,0.4,0.4,0.1,0.4c-0.1-0.1-0.1-0.1,0-0.1c-0.1-0.1-0.2-0.2-0.3-0.2l0,0
		C42.8,206.2,42.7,206.2,42.8,206.5L42.8,206.5z"/>
	<path class="st0" d="M42.8,206.1c0,0,0.1-0.1,0-0.1C42.8,206,42.7,206,42.8,206.1z"/>
	<path class="st0" d="M39.5,212.3L39.5,212.3L39.5,212.3z"/>
	<path class="st0" d="M39.5,212.7C39.5,212.7,39.5,212.7,39.5,212.7C39.5,212.7,39.4,212.7,39.5,212.7z"/>
	<path class="st0" d="M40.9,209.2L40.9,209.2L40.9,209.2z"/>
	<path class="st0" d="M39.9,211c0.1,0.1,0.1,0.1,0.2,0.1C40.1,211.1,40.1,211.1,39.9,211z"/>
	<path class="st0" d="M40.3,210.5L40.3,210.5C40.3,210.4,40.3,210.5,40.3,210.5z"/>
	<path class="st0" d="M40.9,209c0.1,0.1,0,0.1,0.1,0.2C40.9,209.1,41,209.1,40.9,209z"/>
	<polygon class="st0" points="39.6,213.2 39.4,213.2 39.5,213.2 	"/>
	<path class="st0" d="M39.6,212.9c0,0,0-0.1-0.1-0.1C39.6,212.8,39.6,212.9,39.6,212.9z"/>
	<polygon class="st0" points="40.3,211.8 40.1,211.7 40.2,211.8 	"/>
</g>
<g>
	<polygon class="st0" points="41.3,197.7 41.5,197.7 41.3,197.7 	"/>
	<path class="st0" d="M41.5,197.1c-0.2-0.1-0.3-0.2-0.6-0.2l0.3,0.1c-0.2,0-0.2,0.1-0.1,0.1l0-0.1c0,0,0.2,0,0.2,0
		c-0.1,0.1,0.2,0.1,0,0.2h0l0.2,0.1c0,0-0.1,0-0.2,0c0.1,0.1,0.2,0.1,0.2,0.2c0.4-0.1-0.3-0.2,0.1-0.3h0
		C41.3,197.3,41.6,197.2,41.5,197.1L41.5,197.1z"/>
	<path class="st0" d="M41.1,197.4L41.1,197.4C41.1,197.4,41.1,197.4,41.1,197.4z"/>
	<path class="st0" d="M41.1,194L41.1,194C41.1,194,41.1,194,41.1,194z"/>
	<path class="st0" d="M40.4,194.9L40.4,194.9C40.3,194.9,40.3,194.9,40.4,194.9z"/>
	<path class="st0" d="M44.5,194.7l0,0.1C44.5,194.7,44.5,194.7,44.5,194.7z"/>
	<path class="st0" d="M46.5,194.9L46.5,194.9L46.5,194.9z"/>
	<path class="st0" d="M45.6,193.9L45.6,193.9C45.6,193.8,45.6,193.8,45.6,193.9z"/>
	<path class="st0" d="M46,193.6C46,193.6,46.1,193.6,46,193.6C46.1,193.6,46,193.6,46,193.6z"/>
	<path class="st0" d="M46.5,195C46.5,195,46.5,195,46.5,195C46.5,195,46.5,195,46.5,195z"/>
	<path class="st0" d="M45.3,193.6l0.1-0.2L45.3,193.6z"/>
	<path class="st0" d="M46.1,193.4C46.1,193.4,46.2,193.5,46.1,193.4C46.2,193.4,46.1,193.4,46.1,193.4z"/>
	<path class="st0" d="M41.4,197C41.4,197,41.4,197,41.4,197C41.5,197,41.5,197,41.4,197z"/>
	<path class="st0" d="M43.3,191.7C43.3,191.7,43.3,191.7,43.3,191.7C43.3,191.7,43.3,191.7,43.3,191.7z"/>
	<path class="st0" d="M44.9,192.8L44.9,192.8C44.9,192.8,44.9,192.7,44.9,192.8C44.9,192.7,44.9,192.8,44.9,192.8z"/>
	<path class="st0" d="M44.3,192.3L44.3,192.3C44.3,192.3,44.3,192.3,44.3,192.3z"/>
	<path class="st0" d="M45.3,193C45.3,193,45.4,193,45.3,193L45.3,193z"/>
	<path class="st0" d="M45.3,193.4c0.1-0.1,0.1-0.1,0.2-0.1c0.1-0.1-0.2,0-0.1-0.1l-0.1,0.1c-0.2,0-0.2,0-0.1-0.2l0.1,0
		c-0.2,0.1,0-0.2-0.1-0.2c-0.1,0.1-0.1,0.1-0.2,0.2l-0.2,0l0.2-0.2l-0.1,0c-0.1,0.1,0-0.2-0.2,0c0-0.1,0.2-0.1,0.3-0.2
		c-0.1,0,0-0.1-0.2,0l0.1-0.2c-0.1,0-0.2,0-0.2,0c0,0,0,0,0.1-0.1c-0.2,0.1-0.1-0.2-0.4,0c0,0,0,0,0,0c-0.1,0.1-0.2,0-0.2-0.1
		c-0.1,0-0.1,0.2-0.2,0.3c-0.2-0.1-0.1-0.1-0.3,0.1c0.1-0.3,0.3-0.4,0.3-0.7c-0.1,0.1-0.2,0.2-0.3,0.2c0-0.1-0.1-0.2,0-0.5l-0.1,0.2
		l-0.1,0.1l0.2-0.2c0,0.1-0.2,0.1-0.2,0.2c-0.2,0.1,0.1-0.4-0.1-0.2l0-0.1c-0.1,0.1-0.1,0-0.2,0.1l0.1-0.2l0,0.1
		c0.1-0.2-0.1,0-0.2,0c-0.1,0.1-0.1,0.3-0.2,0.3c0,0-0.1,0-0.1,0c0-0.1,0.1-0.3,0.2-0.4c-0.2,0.2-0.2,0.2-0.3,0.3
		c0-0.1,0.1-0.2,0.1-0.2c0,0-0.1,0.1-0.1,0.2v-0.2c-0.1-0.2-0.2,0.4-0.4,0.4c0.1-0.1-0.1,0-0.2-0.1c0.1,0,0-0.4,0-0.6
		c-0.2-0.1-0.1,0.3-0.2,0.4l0-0.3c-0.1,0.2,0,0.2-0.1,0.3c0-0.1-0.1-0.1,0-0.2c-0.2,0-0.1,0-0.3,0l0.1,0.3c0,0-0.1-0.1-0.1-0.1
		c0,0,0.1,0,0-0.1c-0.2-0.2,0,0.2-0.2,0c0.1,0.1,0.1,0.2,0.1,0.2c-0.1-0.2-0.2-0.1-0.2-0.2c0.1,0.1-0.1,0.1,0,0.3
		c-0.1-0.1-0.1-0.1-0.1-0.2c0.1,0.2-0.2,0.1-0.1,0.3c0,0,0,0,0,0c0,0.2,0,0.2,0.1,0.5l-0.1-0.2c-0.1,0,0.2,0.3,0.1,0.4
		c-0.2-0.2-0.1,0.1-0.2-0.1c0.1,0.1,0.1,0.2,0.2,0.4c-0.1-0.1-0.2-0.3-0.3-0.3l0.1,0.1l-0.1-0.1c0.1,0.1,0,0.1,0.1,0.2
		c-0.1-0.1-0.2-0.2-0.3-0.3c0,0.1-0.2,0-0.1,0.1l-0.1-0.1c0.2,0.2,0,0.2,0.2,0.4l-0.2-0.1c0,0.1,0.3,0.2,0.3,0.3c0,0,0,0.1,0,0.1
		c-0.1-0.2-0.2-0.1-0.3-0.1c0,0-0.1,0.1,0.1,0.2c-0.1-0.1-0.3-0.1-0.2-0.2c-0.3-0.1,0,0.1-0.1,0.2l-0.1-0.1c0,0.2,0.3,0.3,0.5,0.4
		c-0.2-0.1-0.2-0.1-0.4-0.2c-0.1,0,0,0.2-0.1,0.3c-0.1,0-0.2,0-0.2-0.1c0.1,0.1-0.1,0.2,0.2,0.3c-0.1,0-0.1,0-0.2,0.1
		c0.1,0,0.2,0,0.1,0c0.1,0.1,0.2,0.2,0.1,0.2l-0.1,0c0,0.2,0.5,0.2,0.3,0.3c-0.1,0-0.3,0-0.2,0.1c0.1,0,0.4-0.1,0.3,0l-0.2,0.1h0.2
		c0.2-0.1,0.1-0.1,0.3-0.1c-0.2,0.1,0.2,0,0,0.1c0,0-0.2,0-0.3,0c-0.2,0.2,0.3,0.1,0.1,0.4c0.2,0,0.3,0.1,0.4,0.1
		c-0.2,0.1-0.4,0.1-0.5,0.2c0,0.1,0.5-0.1,0.2,0.1c0.3-0.1,0.2,0.1,0.6,0c-0.1,0,0,0.1-0.2,0.1c0.2,0.1-0.3,0.2-0.3,0.3
		c0,0,0.2-0.1,0.3,0c0,0,0,0-0.1,0H41c-0.1,0-0.2,0-0.3,0c-0.1,0.1,0.3,0.1,0.3,0.2h-0.1v0.1h0l0.2,0.1h-0.1c0,0,0.1,0,0.1,0.1h-0.1
		c0.2,0,0.3,0.1,0.3,0.1h-0.1l0.3,0.1c-0.1,0.1-0.3-0.1-0.2,0.1H41c0.1,0.1,0,0.1,0.1,0.1c0.1,0,0.1-0.1,0.2-0.1
		c-0.3,0.1,0.1,0.1,0.2,0.2c0,0,0-0.1-0.2-0.1c0,0,0.1,0,0.1,0l-0.1,0l0.2,0l-0.2-0.1c0.2,0,0-0.1,0.2-0.1c-0.1-0.1,0-0.1-0.2-0.1
		c0.1-0.1,0.2,0.1,0.2,0c-0.2-0.2-0.2-0.5-0.2-0.8h0.1c-0.1,0-0.2,0-0.3,0c0.2-0.1,0.3-0.3,0-0.3c0,0,0.1,0,0.1,0
		c-0.1-0.1,0.1-0.3,0-0.4c-0.3,0.1,0.2-0.2-0.3,0l0.1,0c-0.1,0.1-0.3,0.1-0.4,0.1c0.3-0.1,0.2-0.1,0.5-0.2l-0.1,0.1l0.2-0.1
		c-0.6,0.1,0.2-0.2-0.2-0.2c0,0,0.1,0,0.1,0c0.1-0.1-0.2,0-0.3,0c0.1,0,0.2,0,0.3,0c0.1-0.1-0.3-0.1-0.1-0.2c-0.2,0-0.2,0-0.3,0
		c0,0,0.2,0,0.3,0c0.3-0.1-0.2-0.2,0.1-0.3c-0.2-0.1-0.3-0.1-0.4-0.2c0.1,0.1,0.4,0.1,0.4,0.1l0.1,0c0-0.1,0.1-0.1-0.2-0.3
		c0.2,0.1,0.1,0,0.2,0.1c0,0,0,0-0.1,0c-0.2-0.1,0,0,0-0.1l0,0l-0.1-0.1c0,0,0.1,0,0.2,0.1l-0.2-0.1c0,0,0.2,0.1,0.2,0.1l-0.1-0.1
		c0.1,0-0.1-0.1,0.1,0c0,0,0,0,0,0c0.3,0.1,0-0.1,0.1-0.1l-0.2-0.2c0-0.1,0.1,0,0.2,0.1c0,0,0.1,0,0.1,0c0-0.1-0.1-0.1-0.1-0.1
		l0.1,0l0.1,0.1c-0.3-0.4,0.1-0.1-0.1-0.4c0.1,0.1,0.1,0.1,0.2,0.2c0.2,0.1,0-0.4,0.2-0.2c0.2,0.1,0.2-0.1,0.3,0l0-0.1l0,0.1
		c0-0.2,0-0.1,0-0.3c0,0.1,0,0.2,0,0.2c0,0,0-0.1,0,0v0.1c0,0,0.1,0.1,0.1-0.1c0,0,0,0.1,0,0.2c0,0,0.1-0.1,0.2-0.2c0,0,0,0.1,0,0.1
		l0.1-0.2c0,0-0.1,0.2-0.1,0.2c0.2-0.2,0.2,0,0.2,0.1l0-0.1c0.1-0.1,0,0.1,0,0.2c0.1,0.2,0.3-0.2,0.5-0.1c-0.1,0.3,0.2,0,0.1,0.4
		c0.1-0.1,0.1,0.1,0.3-0.1c0,0,0,0.1,0,0.1c0,0.1,0,0.1,0.1,0.1c0,0,0-0.1,0.1-0.1l0,0.1c0.1-0.2,0.1-0.1,0.3-0.4
		c0,0.1-0.1,0.1-0.1,0.1c-0.1,0.2,0.1-0.1,0.1,0c0,0.1-0.1,0.1-0.1,0.1c-0.2,0.2,0.3,0,0.3,0.3c0,0.1,0.2-0.2,0.2-0.1
		c-0.1,0.1-0.2,0.1-0.3,0.2c0.2-0.1,0.1,0,0.2,0c-0.1,0-0.1,0.1-0.2,0.1c-0.1,0.1,0.2,0,0.1,0.2c0.1-0.1,0.1-0.1,0.2-0.1
		c0.3,0,0,0.4,0.1,0.4c0,0,0.1,0,0,0c0,0.1,0.1,0.1,0,0.2c0.1,0,0.2-0.1,0.2-0.1l-0.1,0.1c0,0,0.1-0.1,0.2-0.1l0-0.1
		c0,0.1,0.2,0,0.1,0.2h0l0,0.2c0.1-0.1,0.2-0.2,0.2-0.1c-0.1,0.3,0.2,0.2,0.2,0.2l0,0.1c0.1-0.1,0.3-0.1,0.3-0.1
		c0.1,0,0.2,0.1,0.1,0.2c0.1-0.1,0.2-0.1,0.2-0.3c0,0.1,0.1,0.2,0.2,0.2c0-0.4,0.3,0.1,0.2-0.3c0,0.1,0.1,0.1,0.1,0.2
		c0-0.2,0.1-0.2,0.1-0.2v0c0.1,0,0.1-0.2,0.2-0.2l0.1,0.3c0-0.1,0-0.3,0-0.2c0,0,0,0.1,0,0.1c0-0.1,0.1,0,0.1,0.1
		c0-0.2,0.1-0.2,0.1-0.4c0.1,0.3,0,0.1,0.1,0.4c0.1,0.1,0.2-0.1,0.2-0.2c0,0.1,0,0.1,0,0.2c0,0,0-0.8-0.1-1.1c0-0.2,0-0.3-0.1-0.5
		c0,0.1,0,0.3-0.1,0.1l0,0.2c-0.1,0.1-0.1-0.4-0.2-0.4l0,0.1c0,0,0,0.2,0,0.1c0-0.1,0-0.1,0-0.1l0,0.3c0-0.1,0-0.2,0-0.3
		c-0.1,0,0.1,0.4,0,0.3c0-0.1,0-0.1,0-0.2c-0.1-0.2-0.1,0-0.1,0.1c0-0.2,0-0.2-0.1-0.3c0,0.1,0.1,0.3,0,0.3c0-0.2-0.1-0.1-0.1-0.1
		c0,0.1,0,0.1,0,0.2c0,0,0,0-0.1,0l0.1,0.2c0,0.2-0.1-0.1-0.2-0.1c0,0,0-0.1,0-0.1c-0.1-0.1-0.1-0.2-0.2,0v0c-0.1,0.2,0.1,0.3,0,0.5
		c0,0-0.1-0.6-0.2-0.4c0.1,0.1,0,0.4,0,0.5c0-0.1,0-0.2,0-0.4c0,0,0,0.1,0,0.1v0.1c0,0.3-0.1,0-0.1,0.2c0-0.4,0-0.4,0-0.8
		c0,0.2,0,0.5-0.1,0.4c0-0.1,0-0.2,0-0.4c0-0.1-0.1,0.5-0.3,0.7c0.1-0.2,0.1-0.3,0.2-0.6c0,0,0,0,0,0l0.1-0.3
		c-0.1,0.3,0,0.1-0.2,0.4c0,0,0-0.1,0-0.1c0,0.1-0.2,0.3-0.2,0.3c0-0.1,0.1-0.1,0.1-0.2c-0.1,0.1,0-0.1,0,0l-0.1,0.1
		c-0.1,0.2,0,0-0.1,0.1c0.1-0.1,0.1-0.2,0.2-0.3v0c0,0-0.1,0.1-0.1,0L45.3,193.4l-0.1,0.2C45.3,193.6,45.3,193.5,45.3,193.4
		c0.1-0.1-0.3,0.5-0.2,0.3c0.1-0.1,0.1-0.1,0.1-0.1c0.1-0.1,0.2-0.2,0.2-0.3l0,0C45.4,193.3,45.4,193.3,45.3,193.4L45.3,193.4z"/>
	<path class="st0" d="M45.5,193.3C45.5,193.3,45.5,193.3,45.5,193.3C45.5,193.3,45.6,193.2,45.5,193.3z"/>
	<path class="st0" d="M39.7,193.7L39.7,193.7L39.7,193.7z"/>
	<path class="st0" d="M39.7,194.2C39.7,194.2,39.8,194.2,39.7,194.2C39.7,194.1,39.7,194.1,39.7,194.2z"/>
	<path class="st0" d="M42.7,191.6L42.7,191.6L42.7,191.6z"/>
	<path class="st0" d="M40.3,192.3c0,0.1,0.1,0.1,0.1,0.2C40.4,192.5,40.4,192.4,40.3,192.3z"/>
	<path class="st0" d="M40.9,191.9C40.9,191.9,40.9,191.9,40.9,191.9C40.9,191.9,40.9,191.9,40.9,191.9z"/>
	<path class="st0" d="M42.9,191.5c-0.1,0.1-0.1,0.1-0.2,0.1C42.8,191.5,42.8,191.7,42.9,191.5z"/>
	<polygon class="st0" points="40,194.6 39.9,194.6 40,194.6 	"/>
	<path class="st0" d="M39.9,194.3c0,0,0-0.1-0.1-0.1C39.9,194.2,39.9,194.3,39.9,194.3z"/>
	<polygon class="st0" points="40.4,193.1 40.3,193 40.4,193.1 	"/>
</g>
<g>
	<polygon class="st0" points="49.6,198.4 49.8,198.5 49.7,198.4 	"/>
	<path class="st0" d="M50.2,198c-0.1-0.1-0.1-0.3-0.4-0.4c0.1,0.1,0.1,0.1,0.2,0.2c-0.2-0.1-0.2,0-0.2,0l0-0.1c0,0,0.1,0.1,0.2,0.1
		c-0.2,0,0.1,0.2-0.2,0.1l0,0l0.1,0.1c0,0-0.1-0.1-0.2-0.1c0.1,0.1,0.1,0.2,0.1,0.3c0.4,0.2-0.1-0.4,0.2-0.2l0,0
		C49.9,198.1,50.2,198.2,50.2,198L50.2,198z"/>
	<path class="st0" d="M49.7,198.1L49.7,198.1C49.7,198.1,49.7,198.1,49.7,198.1z"/>
	<path class="st0" d="M50.9,195L50.9,195C50.8,195,50.9,195,50.9,195z"/>
	<path class="st0" d="M50.1,195.9L50.1,195.9C50,195.9,50,195.9,50.1,195.9z"/>
	<path class="st0" d="M52.1,195.5L52.1,195.5C52.1,195.6,52.1,195.5,52.1,195.5z"/>
	<path class="st0" d="M52.4,196.8L52.4,196.8L52.4,196.8z"/>
	<path class="st0" d="M53.4,195.8L53.4,195.8C53.5,195.8,53.4,195.8,53.4,195.8z"/>
	<path class="st0" d="M53.7,196.1C53.7,196.1,53.7,196.2,53.7,196.1C53.8,196.2,53.8,196.1,53.7,196.1z"/>
	<path class="st0" d="M52.4,196.8C52.4,196.8,52.4,196.8,52.4,196.8C52.4,196.8,52.4,196.8,52.4,196.8z"/>
	<path class="st0" d="M53.4,195.2l0.2-0.1C53.5,195.2,53.4,195.2,53.4,195.2z"/>
	<path class="st0" d="M53.9,196.2C53.9,196.2,53.9,196.2,53.9,196.2C53.9,196.2,53.9,196.2,53.9,196.2z"/>
	<path class="st0" d="M50.2,197.9C50.2,197.9,50.2,197.9,50.2,197.9C50.2,198,50.2,197.9,50.2,197.9z"/>
	<path class="st0" d="M52.3,192.7C52.3,192.7,52.4,192.7,52.3,192.7C52.4,192.6,52.3,192.7,52.3,192.7z"/>
	<path class="st0" d="M53.4,194.4L53.4,194.4C53.4,194.4,53.4,194.4,53.4,194.4L53.4,194.4L53.4,194.4z"/>
	<path class="st0" d="M53.3,193.8L53.3,193.8C53.3,193.8,53.3,193.8,53.3,193.8z"/>
	<path class="st0" d="M53.6,194.6C53.6,194.6,53.7,194.6,53.6,194.6L53.6,194.6z"/>
	<path class="st0" d="M53.5,194.9c0.1,0,0.2,0,0.2,0c0.1-0.1-0.2,0,0-0.1l-0.1,0.1c-0.2,0-0.2-0.1,0-0.1h0.1c-0.2,0,0.1-0.1,0-0.1
		c-0.1,0-0.2,0-0.2,0.1l-0.2-0.1l0.3,0l-0.1-0.1c-0.1,0,0.1-0.1-0.2-0.1c0,0,0,0,0.1,0c0,0,0,0,0.1,0c0.1,0,0.1,0,0.2,0
		c0,0,0,0,0-0.1s0,0-0.1,0l0.2-0.1c-0.1,0-0.1-0.1-0.2-0.1c0,0,0,0,0.1,0c-0.2,0,0.1-0.2-0.3-0.2c0,0,0,0,0,0
		c-0.2,0.1-0.1-0.1-0.1-0.2c-0.1,0-0.2,0.1-0.3,0.2c0-0.2,0-0.1-0.3-0.1c0.2-0.3,0.5-0.2,0.5-0.5c-0.1,0.1-0.3,0.1-0.4,0.1
		c0-0.1,0-0.3,0-0.5l-0.1,0.2c-0.1,0-0.1,0-0.2,0c0.1-0.1,0.1-0.2,0.2-0.2c-0.1,0.1-0.2,0.1-0.3,0.2c-0.2,0.1,0.1-0.4-0.1-0.2v-0.1
		c-0.1,0.1-0.1,0.1-0.3,0.1l0.1-0.3l0.1,0.1c0-0.3-0.1,0-0.2,0c-0.1,0.1-0.1,0.3-0.1,0.4c0,0-0.1,0.1-0.1,0c0-0.1,0-0.3,0.1-0.4
		c-0.1,0.3-0.1,0.2-0.2,0.4c0-0.1,0-0.2,0-0.2c0,0-0.1,0.1-0.1,0.2l0-0.1c-0.1-0.2-0.1,0.5-0.2,0.5c0-0.1-0.1,0.1-0.2-0.1
		c0-0.1-0.1-0.4-0.2-0.5c-0.2,0,0,0.3,0,0.4l-0.1-0.3c0,0.2,0.1,0.2,0,0.3c0-0.1-0.1-0.1-0.1-0.2c-0.1,0-0.1,0-0.2,0l0.1,0.3
		c0,0-0.1-0.1-0.1-0.1c0,0,0,0,0-0.1c-0.1-0.2,0,0.2-0.1-0.1c0.1,0.1,0.1,0.2,0.1,0.2c-0.1-0.2-0.1-0.1-0.2-0.2c0.1,0.1,0,0.1,0,0.3
		c-0.1-0.1-0.1-0.1-0.1-0.2c0.1,0.2-0.1,0.1-0.1,0.2c0,0,0,0,0,0c0,0.2,0,0.2,0,0.5l-0.1-0.2c-0.1,0,0.2,0.4,0.1,0.4
		c-0.1-0.2-0.1,0.1-0.2-0.2c0.1,0.1,0.1,0.2,0.2,0.4c-0.1-0.1-0.2-0.3-0.3-0.3l0,0.1l-0.1-0.1c0.1,0.1,0,0.1,0.1,0.2
		c-0.1-0.1-0.2-0.2-0.3-0.3c0,0.1-0.2,0-0.1,0.1l-0.1-0.1c0.2,0.2,0,0.2,0.2,0.4l-0.2-0.1c0,0.1,0.3,0.2,0.4,0.3c0,0,0,0.1,0,0.1
		c-0.2-0.1-0.2-0.1-0.4-0.1c0,0,0,0.1,0.1,0.2c-0.1-0.1-0.3-0.1-0.3-0.2c-0.3-0.1,0,0.1,0,0.2l-0.1,0c0.1,0.1,0.3,0.2,0.6,0.2
		c-0.2,0-0.2,0-0.4-0.1c-0.1,0.1,0,0.2,0,0.3c-0.1,0-0.2,0-0.3,0c0.1,0.1,0,0.2,0.3,0.2c-0.1,0-0.1,0-0.2,0.1c0.1,0,0.2,0,0.2,0
		c0.1,0,0.3,0.1,0.1,0.2l-0.1,0c-0.1,0.1,0.5,0.2,0.3,0.3c-0.1,0-0.3,0-0.3,0c0.1,0,0.4,0,0.3,0.1h-0.2l0.2,0c0.2,0,0.1-0.1,0.3,0
		c-0.2,0.1,0.2,0.1,0,0.1c0,0-0.2,0-0.3-0.1c-0.3,0.1,0.2,0.2-0.1,0.3c0.2,0.1,0.2,0.2,0.3,0.2c-0.2,0-0.4,0-0.6-0.1
		c0,0.1,0.4,0.1,0.1,0.1c0.3,0.1,0.2,0.2,0.6,0.3c-0.1,0,0,0.1-0.2,0c0.1,0.1-0.4,0.1-0.4,0.1c0,0,0.3,0,0.3,0.1c0,0-0.1,0-0.1,0
		l0.1,0c-0.1,0-0.2-0.1-0.3-0.1c-0.1,0,0.2,0.2,0.2,0.2l-0.1,0l0,0.1h0l0.1,0.1l-0.1,0c0,0,0.1,0.1,0.1,0.1l-0.1-0.1
		c0.2,0.1,0.3,0.2,0.2,0.2h-0.1l0.2,0.2c-0.2,0-0.3-0.2-0.2-0.1l-0.2-0.1c0.1,0.1-0.1,0.1,0,0.1c0.1,0,0.1,0,0.2,0.1
		c-0.3-0.1,0,0.1,0.1,0.2c0,0,0-0.1-0.1-0.1c0,0,0.1,0.1,0.1,0l-0.1-0.1l0.2,0.1l-0.1-0.1c0.2,0.1,0.1-0.1,0.2,0.1
		c-0.1-0.1,0.1-0.1-0.1-0.2c0.1,0,0.1,0.1,0.2,0.1c-0.1-0.3,0-0.5,0.1-0.7l0.1,0c-0.1,0-0.2-0.1-0.2-0.1c0.2,0,0.4-0.1,0.1-0.2
		c0,0,0.1,0,0.1,0c0-0.1,0.2-0.2,0.2-0.3c-0.3-0.1,0.2-0.1-0.2-0.2l0.1,0c-0.1,0-0.3-0.1-0.4-0.1c0.3,0,0.2,0,0.5,0l-0.1,0h0.2
		c-0.6-0.1,0.3-0.2-0.2-0.3c0,0,0.1,0,0.1,0c0.1-0.1-0.2-0.1-0.3-0.1c0.1,0,0.2,0,0.3,0c0.1-0.1-0.2-0.2,0-0.3c-0.2,0-0.2,0-0.3,0
		c0,0,0.2-0.1,0.3,0c0.3-0.1-0.2-0.2,0.1-0.4c-0.2-0.1-0.3,0-0.4-0.1c0.1,0,0.4,0,0.4,0H51c0,0,0.1-0.1-0.3-0.1c0.3,0.1,0.1,0,0.2,0
		c0,0,0,0-0.1,0c-0.2-0.1,0,0,0,0l0,0c0,0-0.1-0.1-0.2-0.1c0,0,0.1,0,0.2,0.1l-0.2-0.1c0,0,0.2,0.1,0.2,0.1l-0.1-0.1
		c0.1,0-0.1-0.1,0.1,0c0,0,0,0,0,0c0.2,0.1-0.1-0.1,0,0l-0.3-0.2c-0.1-0.1,0.1,0,0.2,0.1c0,0,0.1,0.1,0.1,0.1
		c-0.1-0.1-0.1-0.1-0.2-0.1l0.1,0l0.1,0.1c-0.3-0.3,0.1,0-0.2-0.3c0.1,0.1,0.1,0.2,0.1,0.2c0.1,0.1-0.1-0.3,0.1-0.1
		c0.2,0.2,0.2-0.1,0.3,0l0-0.1l0.1,0c0-0.2,0-0.1,0-0.3c0,0.1,0.1,0.2,0.1,0.2c0,0,0-0.1,0,0l0,0.1c0,0,0,0.1,0-0.1c0,0,0,0.1,0,0.2
		c0,0,0-0.1,0-0.2c0,0,0,0.1,0,0.2l0-0.2c0,0,0,0.2,0,0.2c0.1-0.3,0,0,0,0l0-0.1c0-0.1,0,0.1-0.1,0.2c-0.1,0.1,0.2-0.3,0.2-0.2
		c-0.3,0.3,0.1-0.1-0.2,0.3c0.1-0.1,0,0,0.2-0.1c0,0,0,0-0.1,0.1c-0.1,0.1,0,0,0.1,0l-0.1,0.1c0.3-0.1,0.2-0.1,0.5-0.2
		c-0.1,0-0.1,0-0.2,0.1c-0.2,0.1,0.1,0,0.1,0c-0.1,0-0.1,0.1-0.2,0.1c-0.1,0-0.1,0.1-0.1,0.1c0,0,0.1,0,0.1,0.1s0.1,0.1,0,0.2
		c0,0.1,0.3-0.1,0.3,0c-0.1,0.1-0.3,0-0.3,0.1c0.2,0,0.1,0,0.1,0.1c-0.1,0-0.1,0-0.2,0c-0.1,0.1,0.2,0.1,0,0.2c0.1,0,0.1,0,0.2,0
		c0.2,0-0.2,0.2-0.1,0.2c0,0,0,0,0.1,0c0,0,0,0.1-0.1,0.1c0.1,0,0.2,0,0.2,0l-0.2,0c0,0,0.1,0,0.2,0l0.1-0.1c-0.1,0.1,0.2,0-0.1,0.1
		l0,0l-0.1,0.1c0.1,0,0.2,0,0.2,0c-0.3,0.1,0,0.1,0,0.2l-0.1,0c0.2,0,0.1,0.1,0.2,0.1c0,0,0,0.1-0.1,0.1c0.1,0,0.1,0.1,0.3,0
		l-0.2,0.1c0.4-0.1-0.1,0.2,0.3,0c0,0.1-0.1,0.1-0.2,0.1c0.2,0,0.2,0,0.2,0.1l0,0c0,0.1,0.2,0,0.2,0.1l-0.3,0.1c0,0,0.3-0.1,0.2,0
		c0,0-0.1,0-0.1,0c0.1,0,0,0.1-0.1,0.1c0.2,0,0.2,0,0.4,0c-0.2,0.1-0.1,0-0.4,0.1c-0.1,0.1,0,0.1,0.2,0.1c-0.1,0-0.1,0-0.2,0
		c0,0,0.8-0.1,1-0.2c0.2,0,0.3,0,0.5-0.1c-0.1,0-0.3,0-0.1-0.1l-0.2,0.1c-0.1-0.1,0.4-0.1,0.4-0.2l-0.1,0.1c0,0-0.2,0-0.1,0
		c0.1,0,0.1,0,0.1,0h-0.3c0.1-0.1,0.2-0.1,0.3-0.1c0-0.1-0.4,0.1-0.3,0c0.1-0.1,0.1,0,0.2-0.1c0.2-0.1,0-0.1-0.1-0.1
		c0.2-0.1,0.2,0,0.3-0.1c-0.1,0-0.2,0.1-0.3,0.1c0.2-0.1,0.1-0.1,0.1-0.1c-0.1,0-0.2,0.1-0.2,0.1c0,0,0,0,0-0.1l-0.2,0.1
		c-0.2,0,0.1-0.1,0.1-0.2c0,0,0.1,0,0.1,0c0.1-0.1,0.2-0.2,0-0.1h0c-0.2,0-0.3,0.1-0.5,0.1c0-0.1,0.6-0.2,0.4-0.2
		c-0.1,0.1-0.4,0.1-0.5,0.1l0.4-0.1c0,0-0.1,0-0.1,0l-0.1,0c-0.3,0.1,0-0.1-0.2,0c0.4-0.1,0.3-0.1,0.8-0.2c-0.2,0.1-0.4,0.1-0.4,0
		l0.3-0.1c0-0.1-0.5,0-0.7,0c0.2-0.1,0.3-0.1,0.5-0.2l-0.1-0.1l0.3-0.1c-0.3,0.1-0.1,0-0.4,0.1c0,0,0.1,0,0.1,0
		c-0.1,0-0.3,0.1-0.3,0.1c0.1-0.1,0.1,0,0.2-0.1c-0.2,0,0.1-0.1,0-0.1l-0.1,0.1c-0.2,0,0,0-0.1,0c0.1,0,0.2,0,0.3-0.1h0
		c0,0-0.2,0,0,0l0.3-0.1l-0.2,0c0,0,0.1-0.1,0.2-0.1c0.1-0.1-0.6,0.2-0.4,0c0.1,0,0.2,0,0.1,0c0.2,0,0.3-0.1,0.3-0.1c0,0,0,0,0,0
		C53.7,195,53.6,194.9,53.5,194.9L53.5,194.9z"/>
	<path class="st0" d="M53.7,195C53.7,195,53.7,195,53.7,195C53.8,195,53.8,194.9,53.7,195z"/>
	<path class="st0" d="M49.4,195L49.4,195L49.4,195z"/>
	<path class="st0" d="M49.5,195.3C49.5,195.3,49.5,195.3,49.5,195.3C49.5,195.3,49.5,195.3,49.5,195.3z"/>
	<path class="st0" d="M51.7,192.7L51.7,192.7L51.7,192.7z"/>
	<path class="st0" d="M49.8,193.6c0,0.1,0.1,0.1,0.1,0.2C49.9,193.8,49.9,193.7,49.8,193.6z"/>
	<path class="st0" d="M50.4,193.2C50.4,193.2,50.4,193.2,50.4,193.2C50.4,193.2,50.4,193.2,50.4,193.2z"/>
	<path class="st0" d="M51.8,192.6c0,0.1-0.1,0.1-0.1,0.1C51.8,192.7,51.8,192.8,51.8,192.6z"/>
	<polygon class="st0" points="49.8,195.6 49.7,195.6 49.8,195.6 	"/>
	<path class="st0" d="M49.7,195.4c0,0-0.1-0.1-0.1,0C49.7,195.4,49.7,195.4,49.7,195.4z"/>
	<polygon class="st0" points="50,194.4 49.9,194.3 50,194.4 	"/>
</g>
<g>
	<polygon class="st0" points="82.6,182 82.7,182.2 82.7,182 	"/>
	<path class="st0" d="M82.9,182.2c0-0.1,0.1-0.2,0.2-0.5c0,0.1-0.1,0.2-0.1,0.2c0-0.2,0-0.2-0.1-0.1h0c0,0,0,0.2,0,0.2
		c0-0.1-0.1,0.2-0.1-0.1v0l0,0.1c0,0,0-0.1,0-0.2c0,0.1-0.1,0.2-0.1,0.2c0,0.4,0.1-0.3,0.1,0.1v0C82.8,182,82.8,182.3,82.9,182.2
		L82.9,182.2z"/>
	<path class="st0" d="M82.8,181.8L82.8,181.8C82.8,181.8,82.8,181.8,82.8,181.8z"/>
	<path class="st0" d="M84.2,183.5L84.2,183.5C84.2,183.4,84.2,183.4,84.2,183.5z"/>
	<path class="st0" d="M84.2,182.3L84.2,182.3C84.2,182.3,84.2,182.3,84.2,182.3z"/>
	<path class="st0" d="M88.1,184L88.1,184C88.1,184,88.1,184,88.1,184z"/>
	<path class="st0" d="M88.7,184.5L88.7,184.5L88.7,184.5z"/>
	<path class="st0" d="M89.1,183.2L89.1,183.2C89.1,183.1,89.1,183.2,89.1,183.2z"/>
	<path class="st0" d="M89.5,183.2C89.5,183.2,89.5,183.3,89.5,183.2C89.5,183.3,89.5,183.2,89.5,183.2z"/>
	<path class="st0" d="M88.7,184.5C88.7,184.5,88.7,184.5,88.7,184.5C88.7,184.5,88.7,184.5,88.7,184.5z"/>
	<path class="st0" d="M88.7,182.8l0.1-0.2C88.7,182.7,88.7,182.7,88.7,182.8z"/>
	<path class="st0" d="M89.7,183.1C89.7,183.1,89.6,183.2,89.7,183.1C89.7,183.2,89.7,183.1,89.7,183.1z"/>
	<path class="st0" d="M82.9,182.2C82.9,182.2,82.9,182.2,82.9,182.2C82.9,182.2,82.9,182.2,82.9,182.2z"/>
	<path class="st0" d="M86.5,182.5C86.5,182.5,86.5,182.4,86.5,182.5C86.5,182.4,86.5,182.5,86.5,182.5z"/>
	<path class="st0" d="M87.8,182.4L87.8,182.4C87.8,182.4,87.8,182.4,87.8,182.4L87.8,182.4z"/>
	<path class="st0" d="M87.4,182.4L87.4,182.4C87.4,182.4,87.4,182.4,87.4,182.4z"/>
	<path class="st0" d="M88.2,182.2C88.2,182.2,88.2,182.2,88.2,182.2L88.2,182.2z"/>
	<path class="st0" d="M88.4,182.5c0-0.1,0-0.1,0.1-0.2c-0.1-0.1-0.1,0.1-0.2-0.1v0.1c-0.1,0.1-0.2,0.2-0.2-0.1l0-0.1
		c-0.1,0.2-0.1-0.2-0.1,0c0,0.1,0,0.1,0,0.2l-0.1,0.2l0-0.3l-0.1,0.1c0,0.1-0.1-0.1-0.1,0.2c0-0.1,0-0.2,0.1-0.3
		c0,0.1,0-0.1-0.1,0.1l0-0.3l-0.1,0.2c0,0,0,0,0-0.1c0,0.2-0.1-0.1-0.2,0.2c0,0,0,0,0,0c0,0.2-0.1,0.1-0.1,0c0,0.1,0,0.2,0,0.4
		c-0.1-0.1-0.1-0.1-0.1,0.3c-0.1-0.3,0-0.5-0.1-0.7c0,0.2,0,0.3-0.1,0.4c-0.1-0.1-0.2-0.2-0.3-0.4l0,0.2l0,0.1l0-0.3
		c0,0.1,0,0.2,0,0.3c0,0.2-0.2-0.4-0.1-0.1l0-0.1c0,0.2-0.1,0.1-0.1,0.2l-0.1-0.3l0.1,0c-0.1-0.2-0.1,0.1-0.1,0.1
		c0,0.1,0.1,0.3,0.1,0.4c0,0,0,0.1-0.1,0c-0.1-0.1-0.1-0.3-0.1-0.4c0.1,0.3,0,0.2,0,0.4c-0.1-0.1-0.1-0.2-0.1-0.2c0,0,0,0.1,0,0.2
		l-0.1-0.1c-0.2-0.2,0.1,0.5,0,0.4c0-0.1-0.1,0.1-0.1-0.1c0-0.1-0.1-0.4-0.1-0.5c0-0.1,0.1,0.3,0,0.4l0-0.3c0,0.1,0,0.2,0,0.3
		c0-0.1,0-0.1,0-0.2c0,0,0,0,0,0v0.3c0,0,0-0.1,0-0.2c0,0,0,0,0,0c0-0.3,0,0.2,0-0.1c0,0.1,0,0.2,0,0.3c0-0.2,0-0.2,0-0.3
		c0,0.1,0,0.1-0.1,0.3c0-0.1,0-0.1,0.1-0.3c-0.1,0.2,0,0-0.1,0.2c0,0,0,0,0,0c-0.1,0.1-0.1,0.2-0.2,0.4l0.1-0.2
		c0-0.1-0.2,0.4-0.2,0.3c0.1-0.2-0.1,0,0.1-0.3c-0.1,0.1-0.2,0.2-0.3,0.4c0-0.1,0.2-0.3,0.2-0.4l-0.1,0.1l0.1-0.1
		c-0.1,0.1-0.1,0.1-0.1,0.1c0.1-0.1,0.1-0.2,0.2-0.4c-0.1,0,0-0.1-0.1,0l0.1-0.1c-0.2,0.2-0.1,0-0.3,0.3l0.1-0.1
		c0,0-0.2,0.3-0.3,0.3c0,0-0.1,0,0,0c0.2-0.1,0.1-0.2,0.2-0.3c0,0-0.1,0-0.2,0.1c0.1-0.1,0.2-0.2,0.2-0.2c0.2-0.3-0.1,0-0.1-0.1
		l0.1-0.1c-0.1,0-0.3,0.2-0.5,0.4c0.1-0.1,0.2-0.2,0.3-0.3c0-0.1-0.1-0.1-0.1-0.1c0.1-0.1,0.1-0.2,0.2-0.2c-0.1,0.1-0.1-0.1-0.3,0.1
		c0.1-0.1,0-0.1,0.1-0.1c-0.1,0.1-0.1,0.1-0.1,0.1c-0.1,0.1-0.2,0.1-0.2,0l0.1-0.1c0-0.1-0.4,0.3-0.3,0c0-0.1,0.2-0.2,0.2-0.2
		c-0.1,0.1-0.3,0.3-0.2,0.2l0.1-0.1l-0.2,0.1c-0.1,0.1,0,0.1-0.2,0.2c0.1-0.2-0.2,0.1,0-0.1c0,0,0.2-0.1,0.2-0.2
		c0.1-0.3-0.2,0.1-0.1-0.2c-0.2,0.1-0.2,0.1-0.3,0.2c0.1-0.2,0.3-0.3,0.4-0.4c0-0.1-0.3,0.3-0.2,0.1c-0.2,0.2-0.2,0.1-0.5,0.4
		c0-0.1,0,0,0.1-0.2c-0.1,0.1,0.2-0.3,0.1-0.4c0,0-0.1,0.2-0.2,0.2c0,0,0-0.1,0-0.1l-0.1,0.1c0-0.1,0.1-0.2,0.2-0.2
		c0-0.1-0.2,0.1-0.2,0.2l0-0.1l0,0v0l-0.1,0.1l0.1-0.1c0,0-0.1,0.1-0.1,0.1l0.1-0.1c-0.1,0.2-0.2,0.3-0.2,0.3l0-0.1
		c-0.1,0.1-0.1,0.1-0.1,0.2c0-0.1,0.1-0.3,0.1-0.2l0.1-0.2c-0.1,0.1,0-0.1-0.1,0c0,0.1,0,0.1,0,0.2c0-0.3-0.1,0.1-0.1,0.2
		c0,0,0,0,0.1-0.1c0,0,0,0.1,0,0.1l0.1-0.1l0,0.2l0.1-0.1c-0.1,0.2,0,0-0.1,0.2c0-0.1,0,0.1,0.1-0.1c0,0.1-0.1,0.1-0.1,0.2
		c0.1-0.1,0.2-0.1,0.2,0.1l-0.1,0.1c0.1-0.1,0.1-0.1,0.2-0.2c-0.1,0.2-0.2,0.4,0.1,0.1c0,0,0,0.1-0.1,0.1c0.1,0,0,0.2,0,0.2
		c0.2-0.2-0.1,0.2,0.2-0.1l-0.1,0.1c0.1-0.1,0.2-0.2,0.3-0.3c-0.2,0.2-0.2,0.2-0.3,0.4l0.1-0.1l-0.2,0.2c0.5-0.4-0.1,0.3,0.3,0
		c0,0-0.1,0-0.1,0.1c-0.1,0.1,0.2-0.1,0.2-0.1c-0.1,0.1-0.1,0.1-0.2,0.2c0,0.1,0.3-0.1,0.2,0.1c0.1-0.1,0.2-0.2,0.2-0.2
		c0,0.1-0.1,0.2-0.2,0.2c-0.2,0.3,0.3,0,0.2,0.3c0.2-0.1,0.2-0.2,0.3-0.2c-0.1,0.1-0.2,0.3-0.3,0.3l-0.1,0.1c0,0.1,0.1,0.1,0.3-0.1
		c-0.2,0.2,0,0.1-0.1,0.2c0,0,0,0,0-0.1c0.2-0.2,0,0,0.1,0l0,0l0.2-0.1c0,0,0,0.1-0.1,0.1l0.1-0.1c0,0-0.1,0.2-0.1,0.2l0.1-0.1
		c0,0.1,0.1-0.1,0,0.1c0,0,0,0,0,0c-0.1,0.3,0.1,0,0.1,0.1l0.2-0.3c0.1-0.1,0,0.1-0.1,0.2c0,0,0,0.1,0,0.2c0.1-0.1,0.1-0.1,0.1-0.2
		v0.1l-0.1,0.1c0.3-0.3,0.2,0.2,0.4-0.2c0,0.1-0.1,0.1-0.1,0.2c0,0.2,0.3-0.2,0.3,0.1c0.1,0.3,0.3,0.1,0.5,0.2v-0.1
		c0,0,0.1,0.1,0.1,0.1c0-0.2,0.1-0.1,0.1-0.3c0,0.1,0,0.2,0,0.2c0.1,0,0.1-0.1,0.1,0v0.1c0.1,0,0.3,0,0.3-0.2c0,0,0.1,0.1,0.1,0.2
		c0,0,0-0.1,0-0.2c0,0,0,0.1,0.1,0.1l-0.1-0.2c0,0,0.1,0.2,0.1,0.2c0-0.2,0.1-0.1,0.1-0.1l0-0.1c0-0.1,0.1,0.1,0.1,0.1
		c0.1,0.1,0-0.3,0.1-0.3c0.1,0.4,0.1-0.1,0.1,0.3c0-0.1,0.1,0.1,0.1-0.2c0,0,0,0.1,0,0.1c0,0.1,0.1,0,0.1-0.1v0.1
		c0-0.3,0.1-0.2,0.1-0.5c0,0.1,0,0.1,0,0.2c0,0.3,0-0.1,0.1-0.1c0,0.1,0,0.1,0,0.2c0.1,0.3,0.2-0.2,0.3,0c0,0,0-0.3,0.1-0.2
		c0,0.1-0.1,0.3-0.1,0.3c0.1-0.2,0.1-0.1,0.1-0.1c0,0.1,0,0.1-0.1,0.2c0,0.1,0.1-0.2,0.1,0c0-0.1,0-0.1,0.1-0.2
		c0.1-0.2,0,0.2,0.1,0.1c0,0,0,0,0-0.1c0,0,0,0.1,0,0.2c0-0.1,0.1-0.2,0.1-0.2l-0.1,0.1c0,0,0.1-0.1,0.1-0.1l0-0.1
		c0,0.1,0.1-0.1,0,0.1l0,0l0,0.1c0.1-0.1,0.1-0.2,0.1-0.2c-0.1,0.3,0,0.1,0,0.1l-0.1,0.1c0.1-0.1,0.1,0,0.1-0.1c0,0,0,0.1,0,0.2
		c0-0.1,0.1,0,0.2-0.2l-0.1,0.2c0.2-0.3,0,0.1,0.2-0.2c0,0.1-0.1,0.1-0.1,0.2c0.1-0.1,0.1-0.1,0.1-0.1l0,0c0,0,0.2-0.1,0.2-0.1
		l-0.2,0.2c0,0,0.2-0.2,0.2-0.1c0,0,0,0.1-0.1,0.1c0.1,0,0,0,0,0.1c0.2-0.1,0.1-0.1,0.3-0.2c-0.2,0.2-0.1,0.1-0.2,0.3
		c-0.1,0.1,0.1,0.1,0.2,0c0,0.1-0.1,0.1-0.1,0.1c0,0,0.6-0.5,0.8-0.7c0.2-0.1,0.2-0.2,0.3-0.4c-0.1,0.1-0.2,0.1-0.1,0l-0.2,0.2
		c-0.1,0,0.3-0.3,0.2-0.4l0,0.1c0,0-0.1,0.1-0.1,0c0-0.1,0.1-0.1,0.1-0.1l-0.2,0.2c0.1-0.1,0.1-0.1,0.2-0.2c-0.1,0-0.2,0.3-0.2,0.2
		c0.1-0.1,0.1-0.1,0.1-0.1c0.1-0.2-0.1-0.1-0.2,0c0.1-0.1,0.1-0.1,0.2-0.2c-0.1,0.1-0.2,0.2-0.2,0.2c0.1-0.1,0-0.1,0-0.1
		c0,0.1-0.1,0.1-0.1,0.1c0,0,0-0.1,0-0.1l-0.1,0.2c-0.1,0.1,0-0.1,0-0.2c0,0,0,0,0-0.1c0-0.1,0.1-0.2-0.1-0.1l0,0
		c-0.2,0.1-0.2,0.3-0.3,0.4c0-0.1,0.3-0.5,0.2-0.4c-0.1,0.2-0.2,0.3-0.3,0.4l0.2-0.3c0,0-0.1,0.1-0.1,0l0,0.1
		c-0.2,0.3,0-0.1-0.2,0.1c0.2-0.4,0.2-0.3,0.4-0.6c-0.2,0.2-0.3,0.4-0.3,0.3l0.2-0.3c0-0.1-0.4,0.3-0.5,0.5c0.1-0.2,0.1-0.3,0.2-0.5
		h-0.1l0.1-0.2c-0.1,0.2-0.1,0.1-0.2,0.4c0,0,0-0.1,0-0.1c0,0.1-0.2,0.3-0.2,0.3c0-0.1,0.1-0.1,0.1-0.2c-0.1,0.1,0-0.1-0.1,0l0,0.1
		c-0.1,0.2,0,0-0.1,0.1c0.1-0.1,0.1-0.2,0.1-0.3v0c0,0-0.1,0.1-0.1,0l0.1-0.3l-0.1,0.2c0,0,0-0.1,0.1-0.2c0-0.2-0.2,0.6-0.2,0.3
		c0-0.1,0.1-0.2,0.1-0.1c0.1-0.2,0.1-0.3,0.1-0.3c0,0,0,0,0,0C88.6,182.3,88.5,182.3,88.4,182.5L88.4,182.5z"/>
	<path class="st0" d="M88.6,182.4C88.6,182.4,88.7,182.4,88.6,182.4C88.7,182.4,88.7,182.3,88.6,182.4z"/>
	<path class="st0" d="M85.1,182.3L85.1,182.3L85.1,182.3z"/>
	<path class="st0" d="M84.9,182.2C84.9,182.2,84.9,182.3,84.9,182.2C84.9,182.2,84.9,182.2,84.9,182.2z"/>
	<path class="st0" d="M86.2,182.7L86.2,182.7L86.2,182.7z"/>
	<path class="st0" d="M85.7,182.6c-0.1,0.1-0.1,0.1-0.2,0.2C85.6,182.8,85.6,182.7,85.7,182.6z"/>
	<path class="st0" d="M85.8,182.8C85.8,182.8,85.8,182.7,85.8,182.8C85.9,182.7,85.9,182.8,85.8,182.8z"/>
	<path class="st0" d="M86.2,182.5c0,0.1,0,0.1,0,0.2C86.2,182.6,86.3,182.7,86.2,182.5z"/>
	<polygon class="st0" points="84.5,182.3 84.6,182.2 84.5,182.3 	"/>
	<path class="st0" d="M84.7,182.4c0,0,0.1,0,0.1-0.1C84.8,182.3,84.7,182.3,84.7,182.4z"/>
	<polygon class="st0" points="85.2,182.9 85.3,182.8 85.2,182.9 	"/>
</g>
<g>
	<polygon class="st0" points="49.8,200.4 49.9,200.4 49.7,200.4 	"/>
	<path class="st0" d="M50,200.2c-0.1-0.1-0.2-0.1-0.5-0.2l0.2,0.1c-0.2,0-0.2,0-0.2,0v0c0,0,0.2,0.1,0.2,0.1c-0.1,0,0.2,0.1-0.1,0.1
		h0l0.1,0.1c0,0-0.1,0-0.2,0c0.1,0.1,0.2,0.1,0.2,0.1c0.4,0.1-0.3-0.2,0.1-0.1h0C49.8,200.2,50.1,200.2,50,200.2L50,200.2z"/>
	<path class="st0" d="M49.6,200.2L49.6,200.2L49.6,200.2z"/>
	<path class="st0" d="M50.2,198.6L50.2,198.6C50.1,198.6,50.1,198.6,50.2,198.6z"/>
	<path class="st0" d="M49.4,199.2L49.4,199.2C49.3,199.2,49.4,199.2,49.4,199.2z"/>
	<path class="st0" d="M48.9,196.4L48.9,196.4C48.9,196.4,48.9,196.4,48.9,196.4z"/>
	<path class="st0" d="M48.7,196L48.7,196L48.7,196z"/>
	<path class="st0" d="M47.7,196.8L47.7,196.8C47.6,196.8,47.7,196.8,47.7,196.8z"/>
	<path class="st0" d="M47.5,196.7L47.5,196.7C47.5,196.7,47.4,196.7,47.5,196.7z"/>
	<path class="st0" d="M48.8,196C48.8,196,48.7,196,48.8,196C48.7,196,48.7,196,48.8,196z"/>
	<path class="st0" d="M47.7,197.1l-0.2,0.1L47.7,197.1z"/>
	<path class="st0" d="M47.3,196.7C47.3,196.7,47.3,196.7,47.3,196.7C47.3,196.7,47.3,196.7,47.3,196.7z"/>
	<path class="st0" d="M50,200.1C50,200.1,50,200.1,50,200.1C50,200.1,50,200.1,50,200.1z"/>
	<path class="st0" d="M48.1,198.1C48.1,198.1,48.1,198.1,48.1,198.1C48.1,198.1,48.1,198.1,48.1,198.1z"/>
	<path class="st0" d="M47.8,197.6L47.8,197.6C47.8,197.6,47.8,197.6,47.8,197.6L47.8,197.6z"/>
	<path class="st0" d="M47.9,197.7L47.9,197.7C47.9,197.7,47.9,197.7,47.9,197.7z"/>
	<path class="st0" d="M47.5,197.6C47.5,197.6,47.5,197.6,47.5,197.6L47.5,197.6z"/>
	<path class="st0" d="M47.7,197.3c-0.1,0.1-0.1,0.1-0.2,0.1c-0.1,0.1,0.2-0.1,0,0.1l0.1-0.1c0.1-0.1,0.2-0.1,0,0.1l-0.1,0
		c0.2-0.1-0.1,0.1,0,0.1c0.1-0.1,0.1-0.1,0.2-0.1l0.2-0.1l-0.2,0.2l0.1,0c0.1-0.1-0.1,0.1,0.2-0.1c-0.1,0.1-0.2,0.1-0.3,0.2
		c0.1,0,0,0,0.1,0l-0.2,0.1l0.2-0.1c0,0,0,0-0.1,0c0.2-0.1-0.1,0.1,0.2-0.1c0,0,0,0,0,0c0.2-0.1,0.1,0,0,0c0.1,0,0.2-0.1,0.3-0.2
		c0,0.1,0,0.1,0.3-0.1c-0.2,0.2-0.5,0.2-0.6,0.4c0.1-0.1,0.2-0.1,0.3-0.1c-0.1,0.1-0.1,0.2-0.3,0.3l0.2-0.1l0.1,0l-0.3,0.1
		c0.1,0,0.2-0.1,0.3-0.1c0.2-0.1-0.4,0.3-0.1,0.1l-0.1,0c0.1-0.1,0.1,0,0.2,0l-0.2,0.1l0-0.1c-0.2,0.1,0,0,0,0
		c0.1,0,0.3-0.1,0.3-0.2c0,0,0.1,0,0,0c-0.1,0.1-0.3,0.2-0.4,0.2c0.2-0.1,0.2-0.1,0.3-0.1c-0.1,0.1-0.2,0.1-0.2,0.1
		c0,0,0.1,0,0.2-0.1l-0.1,0.1c-0.2,0.1,0.5-0.2,0.4-0.1c-0.1,0.1,0,0-0.1,0.1c0,0-0.3,0.2-0.5,0.3c-0.1,0.1,0.3-0.1,0.3-0.1
		l-0.3,0.2c0.1-0.1,0.2-0.1,0.3-0.1c-0.1,0-0.1,0.1-0.2,0.1c0,0,0,0,0,0.1l0.3-0.1c0,0-0.1,0.1-0.1,0.1c0,0,0,0,0,0
		c-0.2,0.1,0.2-0.1-0.1,0.1c0.1-0.1,0.2-0.1,0.2-0.1c-0.2,0.1-0.2,0.1-0.2,0.1c0.1-0.1,0.1,0,0.3-0.1c-0.1,0.1-0.1,0.1-0.2,0.1
		c0.2-0.1,0,0,0.2,0c0,0,0,0,0,0c0.1-0.1,0.2-0.1,0.4-0.1l-0.2,0.1c-0.1,0.1,0.4-0.1,0.4-0.1c-0.2,0.1,0,0-0.2,0.1
		c0.1-0.1,0.2-0.1,0.4-0.1c-0.1,0.1-0.3,0.1-0.4,0.2l0.1,0l-0.1,0.1c0.1,0,0.1,0,0.2-0.1c-0.2,0.1-0.3,0.1-0.4,0.2c0,0-0.1,0.1,0,0
		l-0.1,0c0.3-0.1,0.1,0,0.4-0.1l-0.2,0.1c0,0,0.3-0.1,0.4-0.1c0,0,0,0,0,0c-0.2,0.1-0.2,0.1-0.3,0.1c0,0,0,0,0.2,0
		c-0.2,0-0.3,0.1-0.3,0.1c-0.3,0.1,0.1,0,0,0.1l-0.1,0.1c0.1,0,0.3-0.1,0.6-0.1c-0.2,0.1-0.2,0.1-0.4,0.1c-0.1,0.1,0,0.1,0,0.1
		c-0.1,0-0.2,0.1-0.3,0.1c0.1,0,0,0.1,0.3,0c-0.1,0-0.1,0-0.1,0.1c0.1,0,0.1,0,0.1,0c0.1,0,0.3,0,0.1,0H49c0,0.1,0.5,0,0.3,0.1
		c-0.1,0-0.3,0-0.3,0.1c0.1,0,0.4-0.1,0.3,0l-0.2,0h0.2c0.2,0,0.1-0.1,0.3-0.1c-0.2,0.1,0.2,0,0,0.1c0,0-0.2,0-0.3,0
		c-0.2,0.1,0.2,0.1,0,0.1c0.2,0,0.2,0.1,0.4,0.1c-0.2,0-0.4,0-0.6,0c0,0,0.5,0,0.1,0.1c0.3,0,0.2,0.1,0.6,0.1c-0.1,0,0,0-0.2,0
		c0.1,0.1-0.4,0-0.4,0.1c0,0,0.3,0,0.3,0c0,0-0.1,0-0.1,0h0.1c-0.1,0-0.2,0-0.3,0c-0.1,0,0.2,0.1,0.2,0.1h-0.1l0,0h0l0.1,0h-0.1
		c0,0,0.1,0,0.1,0l-0.1,0c0.2,0,0.3,0.1,0.3,0.1h-0.1l0.3,0.1c-0.1,0-0.3-0.1-0.2,0l-0.3-0.1c0.1,0.1,0,0,0,0.1c0.1,0,0.1,0,0.2,0
		c-0.3,0,0.1,0.1,0.2,0.1c0,0,0,0-0.2-0.1c0,0,0.1,0,0.2,0l-0.1-0.1l0.2,0l-0.1-0.1c0.2,0,0,0,0.2,0c-0.1,0,0.1,0-0.1-0.1
		c0.1,0,0.1,0.1,0.2,0c-0.2-0.1-0.1-0.2,0-0.3l0.1,0c-0.1,0-0.2,0-0.2,0c0.2,0,0.4-0.1,0.1-0.1c0,0,0.1,0,0.1,0c0,0,0.2-0.1,0.1-0.2
		c-0.3,0,0.2-0.1-0.3-0.1h0.1c-0.1,0-0.3,0-0.4,0c0.3,0,0.2,0,0.5-0.1l-0.1,0l0.2,0c-0.7,0,0.3-0.2-0.2-0.1c0,0,0.1,0,0.1,0
		c0.1-0.1-0.2,0-0.3,0c0.1,0,0.2,0,0.3,0c0.1-0.1-0.3-0.1-0.1-0.2c-0.2,0-0.2,0.1-0.4,0.1c0,0,0.2-0.1,0.3-0.1
		c0.3-0.1-0.2-0.1,0-0.2c-0.2,0-0.3,0.1-0.4,0.1c0.1,0,0.4-0.1,0.4-0.1l0.1,0c0-0.1,0-0.1-0.3-0.1c0.3-0.1,0.1,0,0.2-0.1
		c0,0,0,0,0,0c-0.2,0.1,0,0,0,0h0l-0.2,0c0,0,0.1-0.1,0.2-0.1l-0.2,0.1c0,0,0.2-0.1,0.2-0.1l-0.1,0.1c0.1-0.1-0.1,0,0.1-0.1
		c0,0,0,0,0,0c0.3-0.1-0.1,0,0-0.1l-0.3,0.1c-0.1,0,0,0,0.1-0.1c0,0,0.1-0.1,0.1-0.1c-0.1,0-0.1,0-0.2,0.1l0.1-0.1l0.2-0.1
		c-0.4,0.1,0-0.1-0.4,0c0.1-0.1,0.2-0.1,0.2-0.1c0.2-0.1-0.3,0-0.1-0.1c0.2-0.2-0.1-0.1,0-0.2l-0.1,0l0-0.1c-0.2,0.1-0.1,0-0.3,0.1
		c0.1,0,0.1-0.1,0.2-0.1c0,0-0.1,0,0,0l0.1,0c0-0.1,0-0.1-0.1-0.1c0,0,0.1-0.1,0.2-0.1c0,0-0.1,0-0.2,0.1c0,0,0.1,0,0.1-0.1
		l-0.2,0.1c0,0,0.1-0.1,0.2-0.1c-0.2,0.1-0.1-0.1-0.1-0.1l-0.1,0.1c-0.1,0,0-0.1,0.1-0.1c0.1-0.1-0.3,0.1-0.3,0
		c0.3-0.2-0.1,0,0.2-0.2c-0.1,0,0-0.1-0.2,0c0,0,0,0,0.1,0c0.1-0.1,0-0.1-0.1,0l0.1-0.1c-0.2,0.1-0.2,0.1-0.4,0.2
		c0,0,0.1-0.1,0.1-0.1c0.2-0.1-0.1,0.1-0.1,0c0.1,0,0.1-0.1,0.2-0.1c0.2-0.2-0.2,0-0.1-0.2c0,0-0.2,0.2-0.2,0.1
		c0.1-0.1,0.2-0.1,0.3-0.2c-0.1,0.1-0.1,0.1-0.1,0c0.1,0,0.1-0.1,0.2-0.1c0.1-0.1-0.2,0.1,0-0.1c-0.1,0-0.1,0.1-0.2,0.1
		c-0.2,0.1,0.2-0.2,0-0.1c0,0,0,0-0.1,0c0,0,0-0.1,0.1-0.1c-0.1,0-0.2,0.1-0.2,0.1l0.1-0.1c0,0-0.1,0.1-0.1,0.1l-0.1,0.1
		c0.1-0.1-0.2,0.1,0.1-0.1l0,0l0.1-0.1c-0.1,0.1-0.2,0.1-0.2,0.1c0.3-0.2,0-0.1,0.1-0.1l0.1-0.1c-0.1,0.1-0.1,0-0.1,0
		c0,0,0-0.1,0.1-0.1c-0.1,0-0.1,0-0.2,0.1l0.2-0.1c-0.3,0.2,0.1-0.1-0.3,0.1c0,0,0.1-0.1,0.2-0.1c-0.2,0.1-0.2,0.1-0.1,0l0,0
		c0,0-0.2,0-0.2,0l0.3-0.1c0,0-0.3,0.1-0.2,0.1c0,0,0.1,0,0.1,0c-0.1,0,0,0,0.1-0.1c-0.2,0.1-0.1,0-0.4,0.1c0.2-0.1,0.1,0,0.4-0.1
		c0.1-0.1,0,0-0.2,0c0,0,0.1,0,0.2-0.1c0,0-0.7,0.2-1,0.4c-0.2,0.1-0.3,0.1-0.5,0.2c0.1,0,0.3-0.1,0.1,0l0.2-0.1
		c0.1,0-0.4,0.2-0.4,0.2l0.1,0c0,0,0.2,0,0.1,0c0,0-0.1,0-0.1,0.1l0.3-0.1c-0.1,0.1-0.2,0.1-0.3,0.1c0,0,0.3-0.2,0.3-0.1
		c-0.1,0.1-0.1,0.1-0.2,0.1c-0.2,0.1,0,0,0.1,0c-0.2,0.1-0.2,0.1-0.3,0.1c0.1-0.1,0.2-0.1,0.3-0.1c-0.2,0.1-0.1,0.1-0.1,0.1
		c0.1,0,0.1-0.1,0.2-0.1c0,0,0,0,0,0l0.2-0.1c0.2-0.1-0.1,0.1-0.1,0.1c0,0-0.1,0-0.1,0c-0.1,0.1-0.2,0.1,0,0.1h0
		c0.2,0,0.3-0.1,0.5-0.2c0,0-0.6,0.3-0.3,0.2c0.1-0.1,0.4-0.2,0.4-0.2l-0.3,0.2c0,0,0.1,0,0.1,0l0.1,0c0.3-0.1,0,0.1,0.2,0
		c-0.4,0.2-0.3,0.1-0.7,0.4c0.2-0.1,0.4-0.2,0.4-0.1l-0.3,0.1c0,0.1,0.4-0.1,0.7-0.2c-0.2,0.1-0.3,0.2-0.5,0.3h0.1l-0.2,0.1
		c0.2-0.1,0.1,0,0.4-0.2c0,0-0.1,0-0.1,0c0.1-0.1,0.3-0.2,0.3-0.1c-0.1,0.1-0.1,0.1-0.2,0.1c0.1-0.1-0.1,0.1,0,0l0.1-0.1
		c0.2-0.1,0,0,0.1,0c-0.1,0-0.2,0.1-0.3,0.2h0c0,0,0.2-0.1,0.1,0l-0.2,0.1l0.2-0.1C47.7,197.2,47.6,197.2,47.7,197.3
		c-0.2,0.1,0.4-0.4,0.2-0.2c-0.1,0.1-0.2,0.1-0.1,0c-0.2,0.1-0.2,0.1-0.3,0.2c0,0,0,0,0,0C47.5,197.4,47.5,197.4,47.7,197.3
		L47.7,197.3z"/>
	<path class="st0" d="M47.5,197.4C47.5,197.4,47.5,197.3,47.5,197.4C47.4,197.4,47.3,197.5,47.5,197.4z"/>
	<path class="st0" d="M48.7,199L48.7,199L48.7,199z"/>
	<path class="st0" d="M48.8,199.1C48.8,199.1,48.9,199,48.8,199.1C48.8,199,48.8,199.1,48.8,199.1z"/>
	<path class="st0" d="M48.2,198.2L48.2,198.2L48.2,198.2z"/>
	<path class="st0" d="M48.5,198.7c0.1,0,0.2-0.1,0.2-0.1C48.7,198.6,48.6,198.7,48.5,198.7z"/>
	<path class="st0" d="M48.5,198.5L48.5,198.5L48.5,198.5z"/>
	<path class="st0" d="M48.1,198.2c0.1,0,0.1,0,0.1,0C48.2,198.2,48.3,198.1,48.1,198.2z"/>
	<polygon class="st0" points="49.2,199.1 49,199.1 49.1,199.1 	"/>
	<path class="st0" d="M49.1,199c0,0-0.1,0-0.1,0C49,199,49,199,49.1,199z"/>
	<polygon class="st0" points="49.1,198.6 48.9,198.7 49,198.6 	"/>
</g>
<g>
	<polygon class="st0" points="55.1,164.6 55.3,164.6 55.1,164.6 	"/>
	<path class="st0" d="M55.3,164.6c-0.1-0.1-0.2-0.1-0.5-0.2l0.2,0.1c-0.2-0.1-0.2-0.1-0.1,0h0c0,0,0.2,0,0.2,0.1
		c-0.1,0,0.2,0.1-0.1,0h0l0.1,0c0,0-0.1,0-0.2-0.1c0.1,0,0.2,0.1,0.2,0.1C55.6,164.7,54.9,164.5,55.3,164.6L55.3,164.6
		C55.2,164.5,55.4,164.6,55.3,164.6L55.3,164.6z"/>
	<path class="st0" d="M55,164.5L55,164.5C55,164.5,55,164.5,55,164.5z"/>
	<path class="st0" d="M55.6,164.4L55.6,164.4C55.6,164.3,55.6,164.4,55.6,164.4z"/>
	<path class="st0" d="M54.8,164.2L54.8,164.2C54.7,164.2,54.8,164.2,54.8,164.2z"/>
	<path class="st0" d="M55.7,163.8L55.7,163.8C55.7,163.8,55.7,163.8,55.7,163.8z"/>
	<path class="st0" d="M55.8,163.7L55.8,163.7L55.8,163.7z"/>
	<path class="st0" d="M54.6,163.4L54.6,163.4C54.5,163.3,54.6,163.3,54.6,163.4z"/>
	<path class="st0" d="M54.5,163.3L54.5,163.3C54.5,163.2,54.5,163.2,54.5,163.3z"/>
	<path class="st0" d="M55.9,163.7C55.9,163.7,55.8,163.7,55.9,163.7C55.8,163.7,55.9,163.7,55.9,163.7z"/>
	<path class="st0" d="M54.5,163.4l-0.2-0.1C54.3,163.3,54.4,163.3,54.5,163.4z"/>
	<path class="st0" d="M54.3,163.2C54.3,163.2,54.4,163.2,54.3,163.2C54.3,163.2,54.3,163.2,54.3,163.2z"/>
	<path class="st0" d="M55.3,164.6C55.3,164.6,55.3,164.6,55.3,164.6C55.3,164.6,55.3,164.6,55.3,164.6z"/>
	<path class="st0" d="M54.2,163.6C54.2,163.6,54.1,163.5,54.2,163.6C54.1,163.5,54.2,163.5,54.2,163.6z"/>
	<path class="st0" d="M54.3,163.4L54.3,163.4C54.3,163.4,54.2,163.4,54.3,163.4L54.3,163.4L54.3,163.4z"/>
	<path class="st0" d="M54.3,163.5C54.3,163.5,54.2,163.5,54.3,163.5C54.3,163.4,54.3,163.5,54.3,163.5z"/>
	<path class="st0" d="M54.1,163.3C54.1,163.3,54,163.3,54.1,163.3L54.1,163.3z"/>
	<path class="st0" d="M54.3,163.4c-0.1,0-0.1-0.1-0.2-0.1c-0.1,0,0.2,0.1,0,0l0.1,0c0.2,0.1,0.2,0.1,0,0l-0.1,0c0.2,0.1-0.1,0,0,0
		C54.1,163.3,54.2,163.4,54.3,163.4l0.2,0.1l-0.3-0.1L54.3,163.4c0.1,0.1-0.1,0,0.2,0.1c-0.1,0-0.2-0.1-0.3-0.1
		C54.2,163.4,54.1,163.4,54.3,163.4l-0.3,0l0.2,0.1c0,0,0,0-0.1,0c0.2,0.1-0.1,0,0.2,0.1c0,0,0,0,0,0c0.2,0.1,0,0,0,0
		c0,0,0.2,0.1,0.3,0.1c-0.1,0-0.1,0,0.2,0.1c-0.3-0.1-0.5-0.2-0.7-0.2c0.1,0.1,0.3,0.1,0.3,0.1c-0.1,0-0.2,0-0.4-0.1l0.2,0.1
		l0.1,0.1l-0.3-0.1c0.1,0,0.2,0.1,0.3,0.1c0.2,0.1-0.4-0.1-0.1,0c0,0,0,0-0.1,0c0.2,0.1,0.1,0,0.2,0.1l-0.2-0.1h0.1
		c-0.2-0.1,0,0,0,0c0.1,0,0.3,0.1,0.4,0.1c0,0,0.1,0,0,0c-0.1,0-0.3-0.1-0.4-0.1c0.3,0.1,0.2,0.1,0.3,0.1c-0.1,0-0.2-0.1-0.2-0.1
		c0,0,0.1,0,0.2,0.1l-0.2-0.1c-0.2-0.1,0.5,0.2,0.4,0.1c-0.1-0.1,0,0-0.1,0c0,0-0.4-0.1-0.5-0.2c-0.1,0,0.3,0.1,0.4,0.1l-0.3-0.1
		c0.1,0.1,0.2,0.1,0.3,0.1c-0.1,0-0.1,0-0.2-0.1c0,0,0,0,0,0l0.3,0.1c0,0-0.1,0-0.2-0.1c0,0,0,0,0,0c-0.3-0.1,0.1,0.1-0.1,0
		c0.1,0,0.2,0.1,0.2,0.1c-0.2-0.1-0.2-0.1-0.2-0.1c0.1,0,0.1,0,0.3,0.1c-0.1,0-0.1-0.1-0.2-0.1c0.2,0.1,0,0,0.2,0.1c0,0,0,0,0,0
		c0.1,0.1,0.2,0.1,0.4,0.1l-0.2-0.1c-0.1,0,0.4,0.1,0.4,0.1c-0.2-0.1,0,0-0.3-0.1c0.1,0.1,0.2,0.1,0.4,0.1c-0.1,0-0.3-0.1-0.4-0.1
		l0.1,0.1l-0.1,0c0.1,0,0.1,0,0.2,0.1c-0.2-0.1-0.3-0.1-0.4-0.1c0,0-0.1,0,0,0l-0.1,0c0.3,0.1,0.1,0,0.4,0.1l-0.2-0.1
		c0,0,0.3,0.1,0.4,0.1c0,0,0,0,0,0c-0.2-0.1-0.2-0.1-0.4-0.1c0,0,0,0,0.2,0.1c-0.2-0.1-0.3-0.1-0.3-0.1c-0.3-0.1,0.1,0,0,0l-0.1-0.1
		c0.1,0,0.3,0.1,0.6,0.2c-0.2-0.1-0.2-0.1-0.4-0.1c-0.1,0,0,0,0,0c-0.1,0-0.2-0.1-0.2-0.1c0.1,0.1,0,0,0.3,0.1c-0.1,0-0.1,0-0.1,0
		c0.1,0,0.1,0.1,0.1,0.1c0.1,0.1,0.2,0.1,0.1,0.1l-0.1,0c-0.1,0,0.5,0.2,0.2,0.1c-0.1,0-0.2-0.1-0.2-0.1c0.1,0,0.4,0.1,0.3,0.1
		l-0.2-0.1l0.2,0.1c0.2,0.1,0.1,0,0.3,0.1c-0.2-0.1,0.2,0.1,0,0c0,0-0.2-0.1-0.3-0.1c-0.2-0.1,0.2,0.1-0.1,0
		c0.2,0.1,0.2,0.1,0.3,0.1c-0.2-0.1-0.4-0.1-0.5-0.2c0,0,0.4,0.1,0.1,0.1c0.3,0.1,0.2,0.1,0.6,0.2c-0.1,0,0,0-0.2-0.1
		c0.1,0.1-0.3-0.1-0.3-0.1c0,0,0.2,0.1,0.2,0.1c0,0-0.1,0-0.1,0l0.1,0c-0.1,0-0.2-0.1-0.3-0.1c-0.1,0,0.2,0.1,0.2,0.1l-0.1,0h0h0
		l0.1,0.1l-0.1,0c0,0,0.1,0,0.1,0l-0.1,0c0.2,0.1,0.3,0.1,0.3,0.1l-0.1,0l0.2,0.1c-0.1,0-0.3-0.1-0.2-0.1l-0.2-0.1c0.1,0,0,0,0,0
		c0.1,0,0.1,0,0.2,0.1c-0.3-0.1,0.1,0,0.2,0.1c0,0,0,0-0.1-0.1c0,0,0.1,0,0.1,0.1l-0.1-0.1l0.2,0.1l-0.1-0.1c0.2,0.1,0,0,0.2,0.1
		c-0.1,0,0.1,0-0.1-0.1c0.1,0,0.1,0.1,0.2,0.1c-0.2-0.1-0.1-0.1,0-0.1l0.1,0c-0.1,0-0.2-0.1-0.2-0.1c0.2,0.1,0.4,0.1,0.1,0
		c0,0,0.1,0,0.1,0c0,0,0.2,0,0.2,0c-0.3-0.1,0.2,0.1-0.2-0.1l0.1,0c-0.1,0-0.3-0.1-0.4-0.1c0.3,0.1,0.2,0.1,0.5,0.2l-0.1,0l0.2,0.1
		c-0.6-0.2,0.3,0.1-0.2-0.1c0,0,0.1,0,0.1,0c0.1,0-0.2-0.1-0.2-0.1c0.1,0,0.2,0.1,0.3,0.1c0.1,0-0.2-0.1,0-0.1
		c-0.2-0.1-0.2-0.1-0.3-0.1c0,0,0.2,0.1,0.2,0.1c0.3,0.1-0.2-0.1,0.1,0c-0.2-0.1-0.2-0.1-0.4-0.1c0.1,0,0.4,0.1,0.4,0.1l0.1,0
		c0,0,0.1,0-0.3-0.1c0.3,0.1,0,0,0.2,0.1c0,0,0,0-0.1,0c-0.2-0.1,0,0,0,0l0,0l-0.2-0.1c0,0,0.1,0,0.2,0.1l-0.2-0.1
		c0,0,0.2,0.1,0.2,0.1l-0.1,0c0.1,0-0.1,0,0.1,0c0,0,0,0,0,0c0.3,0.1-0.1,0,0,0l-0.3-0.1c-0.1,0,0.1,0,0.2,0.1c0,0,0.1,0,0.1,0
		c-0.1,0-0.1,0-0.2-0.1l0.1,0l0.2,0.1c-0.4-0.1,0,0-0.3-0.1c0.1,0,0.2,0.1,0.2,0.1c0.2,0.1-0.3-0.1,0-0.1c0.2,0.1,0,0,0.2,0l-0.1,0
		h0.1c-0.2-0.1-0.1,0-0.3-0.1c0.1,0,0.2,0.1,0.2,0.1c0,0-0.1-0.1,0,0l0.1,0c0.1,0,0.1,0-0.1-0.1c0,0,0.1,0,0.2,0.1
		c0,0-0.1,0-0.2-0.1c0,0,0.1,0,0.1,0l-0.2-0.1c0,0,0.2,0.1,0.2,0.1c-0.2-0.1,0,0,0,0l-0.1,0c-0.1,0,0.1,0,0.2,0.1
		c0.1,0-0.3-0.1-0.2-0.1c0.3,0.1-0.1-0.1,0.3,0.1c-0.1,0,0.1,0-0.2-0.1c0,0,0.1,0,0.1,0c0.1,0.1,0,0-0.1,0l0.1,0
		c-0.2-0.1-0.2-0.1-0.4-0.2c0.1,0,0.1,0,0.2,0.1c0.2,0.1-0.1,0-0.1,0c0.1,0,0.1,0,0.2,0.1c0.3,0.1-0.2-0.1,0-0.1
		c0,0-0.3-0.1-0.2-0.1c0.1,0,0.3,0.1,0.3,0.1c-0.2-0.1-0.1-0.1-0.1-0.1c0.1,0,0.1,0.1,0.2,0.1c0.1,0-0.2-0.1,0,0
		c-0.1,0-0.1,0-0.2-0.1c-0.2-0.1,0.2,0.1,0.1,0c0,0,0,0-0.1,0c0,0,0,0,0.2,0.1c-0.1,0-0.2-0.1-0.2-0.1l0.2,0.1c0,0-0.1,0-0.1-0.1
		l-0.1,0c0.1,0-0.2-0.1,0.1,0l0,0l0.1,0c-0.1,0-0.2-0.1-0.2-0.1c0.3,0.1,0.1,0,0.1,0l0.1,0c-0.1-0.1-0.1,0-0.1-0.1
		c0,0,0.1,0,0.2,0.1c-0.1,0-0.1,0-0.2-0.1l0.2,0.1c-0.4-0.1,0.1,0-0.2-0.1c0.1,0,0.2,0.1,0.2,0.1c-0.2-0.1-0.2-0.1-0.1-0.1h0
		c0,0-0.2-0.1-0.2-0.1l0.3,0.1c0,0-0.3-0.1-0.2-0.1c0,0,0.1,0,0.1,0c-0.1,0,0,0,0.1,0c-0.2-0.1-0.1-0.1-0.4-0.1
		c0.3,0.1,0.1,0,0.4,0.1c0.1,0,0,0-0.1-0.1c0.1,0,0.1,0,0.2,0.1c0,0-0.7-0.2-1-0.3c-0.2-0.1-0.3-0.1-0.5-0.1c0.1,0,0.2,0.1,0,0
		l0.2,0.1c0.1,0-0.4-0.1-0.4-0.1l0.1,0c0,0,0.1,0.1,0.1,0c-0.1,0-0.1,0-0.1-0.1l0.3,0.1c-0.1,0-0.2-0.1-0.3-0.1c0,0,0.4,0.1,0.3,0.1
		c-0.1,0-0.1,0-0.2-0.1c-0.2-0.1,0,0,0.1,0.1c-0.2-0.1-0.2-0.1-0.3-0.1c0.1,0,0.2,0.1,0.3,0.1c-0.2-0.1-0.1,0-0.1,0
		c0.1,0,0.1,0.1,0.2,0.1s0,0,0,0l0.2,0.1c0.2,0.1-0.1,0-0.2,0c0,0-0.1,0-0.1,0c-0.1,0-0.2-0.1-0.1,0h0c0.2,0.1,0.3,0.1,0.5,0.2
		c0,0-0.6-0.2-0.4-0.1c0.2,0.1,0.4,0.1,0.4,0.2l-0.4-0.1c0,0,0.1,0,0.1,0l0.1,0c0.3,0.1,0,0,0.1,0.1c-0.4-0.1-0.3-0.1-0.7-0.2
		c0.2,0.1,0.4,0.1,0.4,0.1L54.3,163.4c-0.1-0.1,0.3,0.1,0.6,0.2C54.6,163.5,54.5,163.4,54.3,163.4l0.1,0l-0.2-0.1
		c0.3,0.1,0.1,0,0.4,0.1c0,0-0.1,0-0.1,0c0.1,0,0.3,0.1,0.3,0.1c-0.1,0-0.1-0.1-0.2-0.1c0.1,0.1-0.1,0,0,0l0.2,0.1
		c0.2,0.1,0,0,0.1,0c-0.1,0-0.2-0.1-0.3-0.1h0c0,0,0.2,0.1,0,0L54.3,163.4l0.2,0.1C54.5,163.5,54.4,163.4,54.3,163.4
		c-0.1,0,0.6,0.2,0.4,0.2c-0.1,0-0.2-0.1-0.1,0C54.4,163.4,54.3,163.4,54.3,163.4C54.2,163.4,54.2,163.4,54.3,163.4
		C54.2,163.4,54.2,163.4,54.3,163.4L54.3,163.4z"/>
	<path class="st0" d="M54.1,163.3C54.1,163.3,54.1,163.3,54.1,163.3C54,163.2,54,163.2,54.1,163.3z"/>
	<path class="st0" d="M54.2,163.9C54.2,163.9,54.2,163.9,54.2,163.9C54.2,163.9,54.2,163.9,54.2,163.9z"/>
	<path class="st0" d="M54.3,164C54.3,164,54.4,164,54.3,164C54.3,164,54.3,164,54.3,164z"/>
	<path class="st0" d="M54.2,163.6L54.2,163.6L54.2,163.6z"/>
	<path class="st0" d="M54.1,163.8c0.1,0,0.2,0.1,0.2,0.1C54.3,163.8,54.2,163.8,54.1,163.8z"/>
	<path class="st0" d="M54.2,163.7C54.2,163.7,54.2,163.7,54.2,163.7C54.2,163.7,54.2,163.7,54.2,163.7z"/>
	<path class="st0" d="M54.1,163.6c0.1,0,0.1,0,0.1,0.1C54.2,163.6,54.3,163.6,54.1,163.6z"/>
	<polygon class="st0" points="54.6,164.1 54.5,164.1 54.5,164.1 	"/>
	<path class="st0" d="M54.5,164c0,0-0.1,0-0.1-0.1C54.5,164,54.5,164,54.5,164z"/>
	<polygon class="st0" points="54.7,164 54.5,163.9 54.6,164 	"/>
</g>
</svg>
