<?xml version="1.0" encoding="utf-8"?>
<!-- Generator: Adobe Illustrator 28.1.0, SVG Export Plug-In . SVG Version: 6.00 Build 0)  -->
<svg version="1.1" id="a" xmlns="http://www.w3.org/2000/svg" xmlns:xlink="http://www.w3.org/1999/xlink" x="0px" y="0px"
	 viewBox="0 0 646 792" style="enable-background:new 0 0 646 792;" xml:space="preserve">
<style type="text/css">
	.st0{fill:#5F5F5F;}
</style>
<g>
	<path class="st0" d="M88.4,225.6l0.1,0.1c0.1-0.1,0.1-0.2,0.2-0.2C88.6,225.5,88.6,225.6,88.4,225.6L88.4,225.6z"/>
	<path class="st0" d="M90.6,224.1c-0.1-0.2,0.1-0.6-0.2-0.8c0,0.1,0,0.3,0,0.4c-0.2-0.1-0.3,0.1-0.4,0.4l0.1-0.2
		c0,0.1,0.1,0.1,0.1,0.2c-0.3,0.3-0.1,0.6-0.6,0.7v0c0,0.1-0.1,0.2-0.1,0.3c-0.1,0-0.1-0.1-0.1-0.1c-0.2,0.2-0.3,0.5-0.7,0.6
		c0.2,0.1,0.4,0,0.5-0.2c0.2-0.2,0.3-0.4,0.5-0.3v0c0.1-0.2,0.2-0.3,0.4-0.5C90.4,224.4,90.6,224.2,90.6,224.1L90.6,224.1z"/>
	<path class="st0" d="M89.5,224.9L89.5,224.9C89.5,224.9,89.5,224.9,89.5,224.9z"/>
	<path class="st0" d="M95.6,213.2L95.6,213.2C95.5,213.2,95.6,213.2,95.6,213.2z"/>
	<path class="st0" d="M94.1,217.1L94.1,217.1C94,217,94,217,94.1,217.1z"/>
	<path class="st0" d="M92,192.3L92,192.3C92,192.2,92,192.3,92,192.3z"/>
	<path class="st0" d="M91.4,186.8L91.4,186.8L91.4,186.8z"/>
	<path class="st0" d="M90.5,189.5L90.5,189.5C90.4,189.5,90.5,189.5,90.5,189.5z"/>
	<path class="st0" d="M90.1,187.8c0,0,0-0.1,0-0.1C90.1,187.7,90.1,187.8,90.1,187.8z"/>
	<path class="st0" d="M91.4,186.9C91.4,186.9,91.4,186.9,91.4,186.9C91.4,186.9,91.4,186.9,91.4,186.9z"/>
	<path class="st0" d="M90.6,192l-0.2,0.1C90.5,192.1,90.6,192,90.6,192z"/>
	<path class="st0" d="M89.9,187.4C89.9,187.4,89.9,187.4,89.9,187.4C89.9,187.4,89.9,187.4,89.9,187.4z"/>
	<path class="st0" d="M90.7,223.8c0,0,0,0.1-0.1,0.1C90.7,223.9,90.7,223.8,90.7,223.8z"/>
	<path class="st0" d="M92.4,201.4C92.4,201.4,92.3,201.4,92.4,201.4C92.3,201.4,92.4,201.4,92.4,201.4z"/>
	<path class="st0" d="M90.2,196L90.2,196C90.2,196,90.2,196,90.2,196L90.2,196L90.2,196z"/>
	<path class="st0" d="M90.7,197.9C90.7,197.9,90.7,197.9,90.7,197.9C90.7,197.9,90.7,197.9,90.7,197.9z"/>
	<path class="st0" d="M90.1,194.6C90.1,194.6,90,194.6,90.1,194.6L90.1,194.6z"/>
	<path class="st0" d="M90.4,193.5c-0.1,0.1-0.2,0-0.2-0.1c-0.1,0.3,0.1,0.4-0.1,0.7l0.1-0.1c0.1,0.2,0.1,0.6-0.1,0.7l-0.1-0.1
		c0.2,0.2-0.2,0.5-0.1,0.6c0.1-0.1,0.2,0,0.2-0.1c0,0.2,0.1,0.4,0.1,0.6l-0.3,0l0.1,0.3c0.1-0.1-0.1,0.4,0.2,0.4
		c-0.1,0.2-0.2-0.1-0.3-0.1c0.1,0.2,0,0.2,0.2,0.3l-0.2,0.2c0.1,0.1,0.2,0.3,0.3,0.4c0,0,0,0-0.1,0c0.3,0.1,0.1,0.6,0.5,0.7
		c0,0,0,0,0,0c0.2,0,0.3,0.4,0.3,0.5c0.2,0.1,0.2-0.1,0.3-0.1c0.3,0.5,0.2,0.3,0.7,0.5c-0.1,0.4-0.6,0-0.6,0.4
		c0.2,0,0.4,0.1,0.6,0.3c0,0.3,0.1,0.7,0,1l0.2-0.1l0.2,0.3l-0.3-0.1c0.1,0,0.3,0.1,0.4,0.2c0.3,0.3-0.4,0.3,0,0.5c0,0,0,0-0.1,0
		c0.2,0,0.2,0.3,0.3,0.5l-0.3,0v-0.2c-0.2,0.2,0.1,0.3,0.2,0.4c0.1,0.1,0.3,0,0.4,0.1c0,0.1,0.1,0.1,0.1,0.2c0,0.2-0.3,0.1-0.4,0.1
		c0.3,0.1,0.3,0.1,0.5,0.4c-0.1,0.1-0.2,0-0.2,0c0,0.1,0.1,0.1,0.2,0.1l-0.1,0.1c-0.1,0.4,0.6,0.2,0.6,0.7c-0.2-0.1,0.1,0.4,0,0.5
		c-0.1-0.1-0.4,0.2-0.5,0.1c0,0.3,0.3,0,0.5,0.3l-0.3,0c0.2,0.2,0.2,0,0.4,0.2c-0.1-0.1-0.1,0.1-0.2,0c0.1,0.3,0.1,0.2,0.1,0.6
		l0.3,0c0.1,0.1-0.1,0.2-0.1,0.2c0,0,0-0.1-0.1-0.1c-0.2,0.2,0.2,0.2,0,0.3c0.1-0.1,0.2-0.1,0.3,0c-0.2,0-0.1,0.2-0.2,0.2
		c0.1-0.1,0.1,0.2,0.3,0.2c-0.1,0.2-0.2,0-0.3,0c0.3,0.1,0.1,0.5,0.3,0.6c0,0,0,0,0,0c0.2,0.1,0.2,0.4,0.5,0.7l-0.2-0.1
		c-0.1,0.3,0.4,0.1,0.4,0.4c-0.3,0,0,0.4-0.2,0.3c0.2,0.1,0.2,0.3,0.5,0.4c-0.1,0.2-0.4-0.3-0.4-0.1l0.1,0.2l-0.1,0.1
		c0.1,0,0.1,0.2,0.2,0.2c-0.2,0-0.3,0.1-0.4,0.1c0.1,0.1-0.1,0.3,0.1,0.4h-0.1c0.3,0.1,0.1,0.4,0.4,0.5l-0.2,0.1
		c0,0.2,0.4,0.2,0.4,0.3c0,0.1,0.1,0.2,0,0.3c-0.2-0.3-0.3,0.1-0.4,0.2c0,0.1,0,0.4,0.2,0.5c-0.2-0.1-0.3-0.1-0.3-0.3
		c-0.3,0.1,0.1,0.4,0,0.6h-0.2c0.1,0.4,0.3,0.4,0.6,0.6c-0.2,0-0.2,0-0.4-0.1c-0.1,0.2,0,0.7,0,0.9c-0.1,0.1-0.2,0-0.3-0.1
		c0.1,0.3-0.1,0.7,0.3,0.9c-0.1-0.1-0.1,0.1-0.2,0.2c0.1,0,0.2,0,0.1,0c0.1,0.2,0.2,0.6,0.1,0.8l-0.1-0.1c-0.1,0.4,0.4,0.8,0,1.3
		c-0.1,0.1-0.2-0.2-0.3,0c0.1,0.1,0.3,0.2,0.2,0.4l-0.2-0.1l0.1,0.2c0.2,0,0.2-0.3,0.4-0.1c-0.3,0.1,0.1,0.3-0.2,0.4
		c0-0.1-0.1-0.2-0.2-0.3c-0.4,0.4-0.1,0.8-0.6,1.2c0,0.3-0.1,0.7-0.1,0.9c-0.2-0.1-0.3-0.2-0.4-0.4c-0.1,0.2,0.2,0.5-0.1,0.5
		c0.2,0.2-0.2,0.7,0.1,0.9c-0.1,0-0.1,0.2-0.2-0.1c0,0.4-0.5,0.2-0.6,0.4c0,0.1,0.3,0,0.2,0.2c0,0-0.1,0-0.1,0l0,0.1
		c-0.1,0-0.1-0.2-0.2-0.2c-0.2,0.2,0,0.5-0.2,0.8l0-0.1l-0.2,0.3v0l-0.1,0.3l-0.1-0.1c0,0.1,0,0.1,0,0.2l-0.1-0.1
		c0.1,0.2,0,0.5-0.1,0.6h-0.1v0.4c-0.2,0.1-0.1-0.4-0.2,0l-0.2-0.2c-0.1,0.3-0.2,0.2-0.2,0.4c0.2,0,0.2-0.1,0.3,0
		c-0.4,0-0.1,0.3-0.1,0.6c0-0.1,0.1-0.1,0-0.3c0.1-0.1,0.1,0.1,0.2,0l0-0.2l0.2,0.1l0-0.3c0.2,0.1,0.2-0.2,0.3,0
		c0-0.2,0.2-0.2,0.2-0.5c0.2,0,0,0.2,0.1,0.2c0.2-0.4,0.4-0.7,0.6-1c0.2-0.3,0.4-0.7,0.7-1l0.1,0.1c-0.1-0.1-0.1-0.2-0.1-0.3
		c0.2,0,0.6-0.4,0.5-0.7c0,0,0.1,0,0.1,0.1c0.1-0.2,0.5-0.5,0.7-0.9c-0.2-0.3,0.5-0.4,0.1-0.8l0.1,0.1c-0.2,0.1-0.2-0.3-0.3-0.4
		c0.3,0,0.2,0.1,0.5,0.1l-0.2,0.1l0.2,0.1c-0.4-0.7,0.7-0.7,0.3-1.2c0,0,0.1,0,0.1,0.1c0.2-0.1,0-0.4-0.1-0.6c0.1,0,0.2,0.1,0.2,0.3
		c0.2-0.3,0.1-1,0.3-1.4c-0.2-0.2-0.2,0-0.3-0.1c0.1-0.1,0.2-0.2,0.3,0c0.2-0.1,0.2-0.5,0.1-0.8c0-0.3-0.1-0.6,0.1-0.9
		c-0.2-0.3-0.3-0.1-0.4-0.5c0.1,0.1,0.4-0.1,0.4,0.2l0.1,0c0-0.4,0.1-0.9-0.3-1.2c0.3,0,0.1-0.1,0.2-0.2c0-0.1,0,0-0.1,0
		c-0.2-0.1,0-0.2,0-0.3l0.1,0l-0.2-0.3c0,0,0.1-0.1,0.2-0.1h-0.2c0-0.2,0.2-0.1,0.2-0.3l-0.1,0c0.1-0.1-0.1-0.3,0.1-0.4
		c0,0,0,0,0,0.1c0.3-0.2-0.1-0.5,0-0.8l-0.3,0.1c-0.1-0.2,0.1-0.1,0.2-0.1c0-0.2,0.1-0.2,0.1-0.4c-0.1-0.1-0.1-0.1-0.2-0.1l0.1-0.2
		l0.2,0.1c-0.5-0.3,0-0.8-0.4-1c0.1-0.1,0.2,0.1,0.2,0c0.2-0.4-0.4-0.8-0.2-1.2c0.2-0.6-0.2-1.1-0.1-1.8l-0.1,0l0-0.4
		c-0.2-0.1-0.2-0.4-0.4-0.5c0.1,0,0.2-0.1,0.2,0c-0.1-0.2-0.2-0.3-0.1-0.5l0.1,0c0-0.4-0.2-0.9-0.4-1c-0.1-0.1,0.1-0.2,0.2-0.2
		c0-0.2-0.2-0.3-0.3-0.5c0-0.1,0-0.1,0.1-0.2l-0.2,0c0-0.1,0.2-0.1,0.2-0.1c-0.3-0.3-0.2-0.7-0.3-1l-0.1,0.1c-0.1-0.1,0-0.3,0.1-0.2
		c0-0.5-0.5-0.6-0.8-1.3c0.3-0.2-0.4-0.5-0.1-0.8c-0.2-0.2-0.2-0.5-0.5-0.5c0,0,0-0.1,0.1,0c0.1-0.2-0.3-0.5-0.5-0.6l0.1-0.1
		c-0.3,0.1-0.4-0.2-0.7-0.2c0.1-0.1,0.1,0,0.2,0c0.2-0.2-0.2-0.1-0.2-0.3c0.1,0,0.1-0.1,0.2-0.1c0.1-0.5-0.4-1.1,0-1.9
		c0-0.2-0.3,0-0.2-0.2c0.2-0.1,0.2,0.2,0.3,0c-0.2-0.2-0.1-0.2-0.1-0.4c0.1,0,0.2,0,0.2,0.2c0.1-0.1-0.2-0.5,0.1-0.7
		c-0.1,0-0.1,0-0.2-0.1c-0.2-0.3,0.3-0.7,0.2-0.8c0,0,0-0.1-0.1,0c0-0.1,0.1-0.3,0.2-0.2c-0.1-0.1-0.2-0.1-0.2-0.2l0.2,0.1
		c0-0.1-0.1-0.1-0.2-0.2l-0.1,0.1c0.1-0.1-0.2-0.4,0.1-0.4v0.1l0.1-0.3c-0.1-0.1-0.2-0.2-0.2-0.4c0.3-0.1,0-0.4,0-0.7h0.1
		c-0.2-0.2-0.2-0.6-0.2-0.5c0-0.2,0-0.4,0.1-0.3c-0.1-0.1-0.1-0.3-0.3-0.4l0.2-0.3c-0.4-0.1,0.1-0.5-0.3-0.5
		c0.1-0.1,0.1-0.1,0.2-0.2c-0.2-0.2-0.2-0.4-0.2-0.6h0c0-0.2-0.2-0.4-0.3-0.8l0.3-0.1c-0.1-0.2-0.3-0.1-0.3-0.3c0-0.1,0.1,0,0.1,0
		c-0.1-0.1-0.1-0.4,0-0.5c-0.3-0.2-0.3-0.4-0.6-0.5c0.2-0.3,0.2,0.2,0.4,0c0-0.4-0.4-0.7-0.7-0.9c0-0.1,0.1-0.1,0.1-0.1
		c0,0-0.3-0.1-0.6,0c-0.3,0-0.6,0.1-0.6,0.3c-0.2,0.1-0.3,0.1-0.3,0.4c0.1,0,0.4,0.1,0.3,0.2l0.2-0.1c0.3,0.2-0.3,0.3-0.1,0.6l0-0.1
		c0.1,0.1,0.2,0,0.2,0.1c0,0.1-0.1,0-0.2,0c0.1,0.1,0.3,0.1,0.4,0.2c-0.1,0.1-0.2,0.1-0.3,0.1c0.1,0.3,0.3-0.2,0.4,0.2
		c-0.1,0.1-0.1,0-0.2,0c-0.1,0.2,0.1,0.3,0.2,0.4c-0.2,0.1-0.2-0.1-0.3,0.1c0.1-0.1,0.2-0.1,0.3,0c-0.2,0-0.1,0.1-0.1,0.2
		c0.1,0,0.2-0.1,0.2,0c0,0.1,0,0.1,0,0.2l0.2-0.2c0.2,0.2,0,0.3-0.1,0.5c0,0-0.1,0-0.1-0.1c-0.1,0.2-0.2,0.4,0,0.6l0,0
		c0.2,0.4,0.3-0.2,0.5,0.3c0,0.2-0.6,0-0.4,0.3c0.2-0.2,0.4,0.2,0.5,0.4l-0.4-0.2c0,0.1,0.1,0.2,0.1,0.3l0.1,0
		c0.3-0.1,0,0.3,0.2,0.4c-0.5-0.1-0.4-0.1-0.8-0.1c0.2,0.1,0.5,0.3,0.5,0.5c-0.1-0.1-0.2-0.1-0.4-0.1c0,0.4,0.5,0.6,0.8,0.9
		c-0.2-0.1-0.3,0.1-0.6,0l0.1,0.3l-0.3-0.1c0.3,0.1,0.1,0.3,0.5,0.2c-0.1,0-0.1,0-0.1-0.1c0.1,0,0.3,0,0.3,0.2
		c-0.1,0.1-0.1-0.1-0.2,0c0.1,0.1-0.1,0.1,0,0.2l0.1-0.1c0.2,0.1,0,0.2,0.1,0.3c-0.1-0.1-0.2-0.1-0.3,0h0c0,0.1,0.2,0.2,0,0.2
		l-0.3-0.1l0.2,0.1c0,0-0.1,0.1-0.2,0c-0.2,0.4,0.6,0,0.4,0.5c-0.1,0-0.2-0.1-0.1-0.2c-0.2,0-0.3,0-0.3,0.1c0,0,0,0,0,0
		C90.3,192.9,90.2,193.2,90.4,193.5L90.4,193.5z"/>
	<path class="st0" d="M90.3,192.7c0-0.1,0-0.2,0-0.3C90.2,192.5,90.1,192.7,90.3,192.7z"/>
	<path class="st0" d="M94.1,213.3C94.1,213.3,94.1,213.3,94.1,213.3L94.1,213.3z"/>
	<path class="st0" d="M94.1,214.5C94.1,214.5,94.2,214.4,94.1,214.5C94.1,214.4,94.1,214.4,94.1,214.5z"/>
	<path class="st0" d="M92.9,202.9L92.9,202.9L92.9,202.9z"/>
	<path class="st0" d="M93.9,209.2c0.1,0.1,0.2,0.1,0.2,0.1C94.1,209.3,94.1,209.2,93.9,209.2z"/>
	<path class="st0" d="M93.8,207.1C93.8,207.1,93.8,207,93.8,207.1C93.8,207.1,93.8,207.1,93.8,207.1z"/>
	<path class="st0" d="M92.7,202.6c0.1,0.1,0.1,0.2,0.2,0.3C92.8,202.8,92.8,202.6,92.7,202.6z"/>
	<polygon class="st0" points="94.2,215.8 94.1,215.7 94.2,215.8 	"/>
	<path class="st0" d="M94.3,214.8c0,0,0-0.2-0.1-0.2C94.2,214.7,94.3,214.7,94.3,214.8z"/>
	<polygon class="st0" points="94.6,210.7 94.4,210.7 94.5,210.8 	"/>
</g>
<g>
	<polygon class="st0" points="45.6,193.1 45.8,193.1 45.6,193 	"/>
	<path class="st0" d="M45.8,192.3c-0.2-0.1-0.3-0.2-0.6-0.2l0.3,0.1c-0.2,0-0.2,0.1-0.1,0.2v-0.1c0,0,0.2,0,0.2,0
		c-0.1,0.1,0.2,0.1-0.1,0.3h0l0.2,0.1c0,0-0.1,0-0.2,0c0.1,0.1,0.2,0.1,0.2,0.2c0.4-0.1-0.3-0.2,0.1-0.3h0
		C45.6,192.5,45.9,192.4,45.8,192.3L45.8,192.3z"/>
	<path class="st0" d="M45.4,192.7L45.4,192.7C45.4,192.7,45.4,192.7,45.4,192.7z"/>
	<path class="st0" d="M45.9,188.4L45.9,188.4C45.8,188.4,45.8,188.4,45.9,188.4z"/>
	<path class="st0" d="M45.1,189.8L45.1,189.8C45,189.8,45.1,189.8,45.1,189.8z"/>
	<path class="st0" d="M45.2,181.6h0.1C45.2,181.6,45.2,181.6,45.2,181.6z"/>
	<path class="st0" d="M45.6,180.1L45.6,180.1L45.6,180.1z"/>
	<path class="st0" d="M44.2,180.5L44.2,180.5C44.1,180.4,44.2,180.5,44.2,180.5z"/>
	<path class="st0" d="M44.2,179.9C44.2,179.9,44.2,179.8,44.2,179.9C44.2,179.8,44.2,179.8,44.2,179.9z"/>
	<path class="st0" d="M45.6,180.2C45.6,180.2,45.6,180.1,45.6,180.2C45.6,180.1,45.6,180.2,45.6,180.2z"/>
	<path class="st0" d="M43.9,181.3h-0.2C43.7,181.3,43.8,181.3,43.9,181.3z"/>
	<path class="st0" d="M44.1,179.6C44.1,179.6,44.2,179.6,44.1,179.6C44.1,179.6,44.1,179.6,44.1,179.6z"/>
	<path class="st0" d="M45.8,192.2C45.8,192.2,45.8,192.2,45.8,192.2C45.8,192.2,45.8,192.2,45.8,192.2z"/>
	<path class="st0" d="M43.8,184.6C43.8,184.6,43.7,184.6,43.8,184.6C43.7,184.7,43.7,184.6,43.8,184.6z"/>
	<path class="st0" d="M43.6,182.7L43.6,182.7C43.6,182.7,43.6,182.7,43.6,182.7L43.6,182.7L43.6,182.7z"/>
	<path class="st0" d="M43.7,183.3L43.7,183.3C43.6,183.3,43.7,183.3,43.7,183.3z"/>
	<path class="st0" d="M43.4,182.3C43.4,182.3,43.4,182.3,43.4,182.3L43.4,182.3z"/>
	<path class="st0" d="M43.7,181.9c-0.1,0-0.2,0-0.2,0c-0.1,0.1,0.2,0.1,0,0.2l0.1-0.1c0.2,0.1,0.2,0.2,0,0.3l-0.1,0
		c0.2,0.1-0.1,0.2,0,0.2c0.1,0,0.1,0,0.2,0l0.2,0.2l-0.3,0l0.1,0.1c0.1,0-0.1,0.1,0.2,0.1c-0.1,0.1-0.2,0-0.3,0
		c0.1,0.1,0,0.1,0.1,0.1l-0.2,0.1l0.2,0.1c0,0,0,0-0.1,0c0.2,0.1-0.1,0.2,0.3,0.2c0,0,0,0,0,0c0.2,0,0.1,0.1,0,0.2
		c0,0.1,0.2,0,0.4,0c-0.1,0.2,0,0.1,0.3,0.3c-0.3,0.1-0.5-0.1-0.7,0.1c0.2,0,0.3,0.1,0.4,0.2c-0.1,0.1-0.2,0.2-0.4,0.4l0.2,0
		l0.1,0.1l-0.3,0c0.1,0,0.2,0.1,0.3,0.1c0.2,0.1-0.4,0.1-0.1,0.2l-0.1,0c0.2,0,0.1,0.1,0.2,0.2h-0.3l0-0.1c-0.2,0.1,0.1,0.1,0.1,0.1
		c0.1,0.1,0.3,0,0.4,0c0,0,0.1,0.1,0,0.1c-0.1,0.1-0.3,0.1-0.4,0.1c0.3,0,0.2,0,0.4,0.1c-0.1,0-0.2,0-0.2,0c0,0,0.1,0,0.2,0
		l-0.1,0.1c-0.2,0.1,0.5,0,0.5,0.2c-0.2,0,0,0.1-0.1,0.2c-0.1,0-0.4,0.1-0.6,0.1c-0.1,0.1,0.3,0,0.4,0.1h-0.3c0.2,0.1,0.2,0,0.3,0.1
		c-0.1,0-0.1,0.1-0.2,0c0,0.1,0,0.1,0,0.2l0.3,0c0,0-0.1,0.1-0.2,0.1c0,0,0,0,0,0c-0.3,0.1,0.2,0-0.1,0.1c0.1,0,0.2-0.1,0.3,0
		c-0.2,0-0.2,0.1-0.2,0.1c0.1,0,0.1,0.1,0.3,0.1c-0.1,0.1-0.2,0-0.3,0c0.2,0,0.1,0.2,0.2,0.2c0,0,0,0,0,0c0.2,0,0.2,0.1,0.4,0.2
		h-0.2c-0.1,0.1,0.4,0,0.4,0.1c-0.3,0,0,0.1-0.3,0.1c0.2,0,0.2,0.1,0.5,0.1c-0.1,0.1-0.4-0.1-0.4,0l0.2,0.1l-0.1,0
		c0.1,0,0.1,0.1,0.2,0c-0.2,0-0.3,0.1-0.4,0.1c0.1,0-0.1,0.1,0,0.1h-0.1c0.3,0,0.1,0.1,0.4,0.1l-0.2,0.1c0,0.1,0.4,0,0.4,0.1
		c0,0,0.1,0.1,0,0.1c-0.2-0.1-0.2,0.1-0.4,0.1c0,0,0,0.1,0.2,0.1c-0.2,0-0.3,0-0.3-0.1c-0.3,0.1,0.1,0.1,0,0.2h-0.2
		c0.1,0.1,0.4,0.1,0.6,0.1c-0.2,0-0.2,0-0.4,0c-0.1,0.1,0,0.2,0,0.3c-0.1,0-0.2,0-0.3,0c0.1,0.1,0,0.2,0.3,0.2c-0.1,0-0.1,0-0.1,0.1
		c0.1,0,0.2,0,0.2,0c0.1,0.1,0.3,0.2,0.2,0.2l-0.1,0c0,0.2,0.5,0.2,0.3,0.4c-0.1,0-0.3,0-0.3,0.1c0.1,0,0.4,0,0.3,0.1h-0.2l0.2,0.1
		c0.2,0,0.1-0.1,0.3-0.1c-0.2,0.1,0.2,0.1,0,0.2c0,0-0.2,0-0.3-0.1c-0.2,0.2,0.2,0.2,0,0.4c0.2,0.1,0.2,0.2,0.4,0.3
		c-0.2,0-0.4,0-0.6,0c0,0.1,0.5,0.1,0.2,0.2c0.3,0,0.2,0.2,0.6,0.2c-0.1,0,0,0.1-0.2,0c0.1,0.1-0.4,0.2-0.4,0.2c0,0,0.3,0,0.3,0
		c0,0-0.1,0-0.1,0l0.1,0c-0.1,0-0.2,0-0.3,0c-0.1,0.1,0.2,0.1,0.3,0.2l-0.1,0v0.1h0l0.1,0.1h-0.1c0,0,0.1,0,0.1,0.1h-0.1
		c0.2,0,0.3,0.1,0.3,0.2h-0.1l0.3,0.1c-0.1,0.1-0.3-0.1-0.2,0.1l-0.3,0c0.1,0.1,0,0.1,0.1,0.2c0.1,0,0.1-0.1,0.2,0
		c-0.3,0.1,0.1,0.1,0.2,0.2c0,0,0-0.1-0.2-0.1c0,0,0.1,0,0.1,0l-0.1-0.1l0.2,0l-0.2-0.1c0.2,0,0-0.1,0.2-0.1
		c-0.1-0.1,0.1-0.1-0.2-0.1c0.1,0,0.2,0.1,0.2,0c-0.2-0.2-0.1-0.5-0.1-0.8l0.1,0c-0.1,0-0.2-0.1-0.2-0.1c0.2-0.1,0.4-0.2,0.1-0.3
		c0,0,0.1,0,0.1,0c0-0.1,0.2-0.2,0.1-0.4c-0.3,0,0.2-0.2-0.3-0.2l0.1,0c-0.1,0.1-0.3,0-0.4-0.1c0.3-0.1,0.2,0,0.5-0.1l-0.1,0.1
		l0.2,0c-0.7-0.1,0.3-0.3-0.2-0.4c0,0,0.1,0,0.1,0c0.1-0.1-0.2-0.1-0.3-0.1c0.1,0,0.2,0,0.3,0c0.1-0.1-0.3-0.3-0.1-0.4
		c-0.2,0-0.2,0-0.4,0c0,0,0.2-0.1,0.3,0c0.3-0.1-0.2-0.3,0-0.5c-0.2-0.1-0.3,0-0.4-0.1c0.1,0,0.4-0.1,0.4,0H46
		c0-0.1,0.1-0.3-0.3-0.4c0.3,0,0,0,0.2-0.1c0,0,0,0-0.1,0c-0.2,0,0-0.1,0-0.1h0l-0.2-0.1c0,0,0.1-0.1,0.2-0.1l-0.2,0
		c0-0.1,0.2-0.1,0.2-0.1l-0.1,0c0.1-0.1-0.1-0.1,0.1-0.1c0,0,0,0,0,0c0.3-0.1-0.1-0.1,0-0.2l-0.3,0.1c-0.1-0.1,0.1-0.1,0.2-0.1
		c0-0.1,0.1-0.1,0.1-0.1c-0.1,0-0.1,0-0.2,0l0.1-0.1l0.2,0c-0.5-0.1,0-0.3-0.4-0.3c0.1-0.1,0.2,0,0.2,0c0.2-0.1-0.3-0.2-0.1-0.4
		c0.2-0.2,0-0.4,0.1-0.6h-0.1l0-0.1c-0.2,0-0.1-0.1-0.3-0.1c0.1,0,0.2,0,0.2,0c0-0.1-0.1-0.1,0-0.1h0.1c0-0.1,0-0.3-0.1-0.3
		c0,0,0.1-0.1,0.2-0.1c0-0.1-0.1-0.1-0.2-0.1c0,0,0.1,0,0.1-0.1h-0.2c0,0,0.2,0,0.2-0.1c-0.3-0.1-0.1-0.2-0.1-0.3l-0.1,0
		c-0.1,0,0-0.1,0.2-0.1c0.1-0.2-0.3-0.2-0.3-0.4c0.4-0.1-0.1-0.2,0.3-0.2c-0.1-0.1,0.1-0.1-0.2-0.2c0,0,0.1,0,0.1,0
		c0.1-0.1,0-0.1-0.1-0.2h0.1c-0.3,0-0.2-0.2-0.5-0.2c0.1,0,0.1,0,0.2,0c0.2-0.1-0.1-0.1-0.1-0.1c0.1,0,0.1,0,0.2,0
		c0.3-0.2-0.2-0.4,0-0.7c0-0.1-0.3,0-0.3-0.1c0.1,0,0.3,0.1,0.3,0c-0.2,0-0.1-0.1-0.1-0.1c0.1,0,0.2,0,0.2,0.1c0.1,0-0.2-0.1,0-0.2
		c-0.1,0-0.1,0-0.2,0c-0.2-0.1,0.2-0.2,0.1-0.2c0,0,0,0-0.1,0c0,0,0-0.1,0.2-0.1c-0.1,0-0.2-0.1-0.2-0.1l0.2,0c0,0-0.1-0.1-0.2-0.1
		h-0.1c0.1,0-0.2-0.1,0.1-0.1l0,0l0.1,0c-0.1,0-0.2-0.1-0.2-0.1c0.3,0,0.1-0.1,0.1-0.2l0.1,0c-0.1-0.1-0.1-0.2-0.1-0.2
		c0,0,0.1-0.1,0.2,0c-0.1-0.1,0-0.1-0.2-0.2h0.3c-0.4-0.1,0.2-0.1-0.2-0.2c0.1,0,0.2,0,0.2,0c-0.2-0.1-0.1-0.2-0.1-0.2h0
		c0,0-0.1-0.2-0.1-0.2l0.3,0.1c0-0.1-0.2-0.1-0.2-0.2c0,0,0.1,0,0.1,0c0-0.1,0-0.1,0.1-0.1c-0.2-0.1-0.1-0.1-0.3-0.3
		c0.3,0.1,0.1,0.1,0.3,0.2c0.2,0,0.1-0.1,0-0.3c0.1,0,0.1,0.1,0.2,0.1c0,0-0.6-0.5-0.8-0.6c-0.2-0.1-0.3-0.2-0.4-0.2
		c0.1,0.1,0.2,0.2,0,0.1l0.2,0.1c0,0.2-0.4-0.2-0.5,0h0.1c0,0,0.1,0.1,0,0.1c-0.1,0-0.1-0.1-0.1-0.1l0.2,0.2
		c-0.1-0.1-0.2-0.1-0.2-0.1c0,0.1,0.4,0.1,0.2,0.2c-0.1,0-0.1-0.1-0.2-0.1c-0.2,0-0.1,0.1,0,0.2c-0.2-0.1-0.1-0.1-0.3-0.1
		c0.1,0,0.3,0.1,0.3,0.1c-0.2-0.1-0.1,0-0.2,0c0.1,0,0.2,0.1,0.2,0.1c0,0-0.1,0,0,0.1h0.2c0.2,0.1-0.1,0.1-0.2,0.1c0,0,0,0-0.1-0.1
		c-0.1,0-0.3,0.1-0.1,0.2h0c0.1,0.2,0.3,0,0.4,0.2c-0.1,0-0.6-0.2-0.4,0c0.2,0,0.4,0.2,0.4,0.3l-0.3-0.2c0,0,0.1,0.1,0,0.1l0.1,0
		c0.3,0.1-0.1,0.1,0.1,0.2c-0.4-0.2-0.3-0.1-0.7-0.3c0.2,0.1,0.4,0.2,0.4,0.3l-0.3-0.1c-0.1,0.1,0.4,0.4,0.6,0.5
		c-0.2-0.1-0.3,0-0.5-0.1l0,0.1l-0.3-0.1c0.3,0.1,0.1,0.1,0.4,0.2c0,0-0.1,0-0.1-0.1c0.1,0,0.3,0.1,0.3,0.1c-0.1,0-0.1,0-0.2-0.1
		c0.1,0.1-0.1,0,0,0.1l0.2,0c0.2,0.1,0,0.1,0.1,0.1c-0.1-0.1-0.2-0.1-0.3-0.1h0c0,0,0.1,0.1,0,0.1l-0.3-0.1l0.2,0.1c0,0-0.1,0-0.2,0
		c-0.2,0.1,0.6,0.1,0.3,0.2c-0.1,0-0.2,0-0.1-0.1c-0.2,0-0.3,0-0.3,0c0,0,0,0,0,0C43.5,181.6,43.5,181.8,43.7,181.9L43.7,181.9z"/>
	<path class="st0" d="M43.5,181.6c0-0.1,0-0.1,0-0.1C43.4,181.4,43.3,181.6,43.5,181.6z"/>
	<path class="st0" d="M44.4,188.6L44.4,188.6L44.4,188.6z"/>
	<path class="st0" d="M44.5,189C44.5,189,44.5,189,44.5,189C44.5,188.9,44.5,188.9,44.5,189z"/>
	<path class="st0" d="M43.9,185.2L43.9,185.2L43.9,185.2z"/>
	<path class="st0" d="M44.1,187.3c0.1,0,0.2,0,0.2,0C44.3,187.3,44.2,187.3,44.1,187.3z"/>
	<path class="st0" d="M44.1,186.6C44.1,186.6,44.1,186.6,44.1,186.6C44.1,186.6,44.1,186.6,44.1,186.6z"/>
	<path class="st0" d="M43.7,185.1c0.1,0,0.1,0.1,0.2,0.1C43.8,185.2,43.9,185.1,43.7,185.1z"/>
	<polygon class="st0" points="44.8,189.4 44.7,189.4 44.8,189.4 	"/>
	<path class="st0" d="M44.7,189.1c0,0-0.1-0.1-0.1-0.1C44.7,189,44.7,189,44.7,189.1z"/>
	<polygon class="st0" points="44.8,187.7 44.6,187.7 44.7,187.7 	"/>
</g>
</svg>
